<svg xmlns="http://www.w3.org/2000/svg" width="16" height="16" viewBox="0 0 16 16"><g><path d="M8 .722A7.281 7.281 0 0 1 15.278 8 7.281 7.281 0 0 1 8 15.278 7.281 7.281 0 0 1 .722 8 7.28 7.28 0 0 1 8 .722ZM4.616 12.73A5.78 5.78 0 0 0 8 13.822a5.78 5.78 0 0 0 3.384-1.091A5.78 5.78 0 0 0 8 11.639a5.78 5.78 0 0 0-3.384 1.092Zm7.853-1.005A5.821 5.821 0 0 0 8 2.176a5.821 5.821 0 0 0-4.469 9.55 7.24 7.24 0 0 1 8.938 0Z"/><path d="M8 3.633a2.55 2.55 0 0 1 2.547 2.547A2.55 2.55 0 0 1 8 8.728 2.55 2.55 0 0 1 5.453 6.18 2.55 2.55 0 0 1 8 3.633Zm0 3.64A1.09 1.09 0 0 0 9.092 6.18 1.09 1.09 0 0 0 8 5.09a1.09 1.09 0 0 0-1.092 1.09A1.09 1.09 0 0 0 8 7.272Z"/></g></svg>