<svg xmlns="http://www.w3.org/2000/svg" width="16" height="16" viewBox="0 0 16 16">
  <path d="M1.998 2.666v2.001L2 4.669h12.001V2.664H1.998v.001Zm12 3.332v6.669A1.998 1.998 0 0 1 12 14.665H4a1.998 1.998 0 0 1-1.998-1.998V5.998H2A1.332 1.332 0 0 1 .668 4.667v-2c0-.736.597-1.332 1.332-1.332h12c.736 0 1.332.596 1.332 1.332v2c0 .735-.597 1.331-1.332 1.331h-.002Zm-1.33 0H3.332v6.669a.668.668 0 0 0 .668.668h8a.668.668 0 0 0 .668-.668V5.998ZM6.002 8c0-.367.297-.665.665-.665h2.666a.665.665 0 1 1 0 1.33H6.667A.665.665 0 0 1 6.002 8Z"/>
</svg>

