<svg width="16" height="16" viewBox="0 0 16 16" fill="none" xmlns="http://www.w3.org/2000/svg">
<g clip-path="url(#clip0_2946_232143)">
<path fill-rule="evenodd" clip-rule="evenodd" d="M9.6666 0.859865C8.0548 0.483718 6.36315 0.663878 4.86672 1.37105C3.37029 2.07822 2.15709 3.27081 1.42439 4.75491C0.691683 6.23901 0.482572 7.92732 0.831053 9.54533C1.17953 11.1633 2.06511 12.6159 3.34379 13.6668C4.62247 14.7177 6.21905 15.3051 7.87391 15.3336C9.52878 15.362 11.1446 14.8298 12.4587 13.8235C12.751 13.5997 12.8065 13.1812 12.5826 12.8889C12.3588 12.5966 11.9403 12.5411 11.648 12.7649C10.5729 13.5883 9.25082 14.0237 7.89684 14.0004C6.54286 13.9771 5.23657 13.4965 4.19038 12.6367C3.14418 11.7769 2.41962 10.5884 2.1345 9.2646C1.84938 7.94077 2.02047 6.55943 2.61995 5.34517C3.21944 4.1309 4.21205 3.15515 5.43641 2.57655C6.66076 1.99796 8.04483 1.85055 9.36358 2.15831C10.6823 2.46607 11.8582 3.21088 12.7 4.27165C13.5417 5.33241 13.9999 6.64676 14 8.00093V8.66756C14 9.02118 13.8595 9.36032 13.6095 9.61036C13.3594 9.86041 13.0203 10.0009 12.6667 10.0009C12.313 10.0009 11.9739 9.86041 11.7239 9.61036C11.4738 9.36032 11.3333 9.02118 11.3333 8.66756V5.33422C11.3333 4.96603 11.0349 4.66756 10.6667 4.66756C10.2985 4.66756 10.0001 4.96593 10 5.33403C9.44289 4.91557 8.7504 4.6676 8 4.6676C6.15905 4.6676 4.66666 6.15999 4.66666 8.00094C4.66666 9.84189 6.15905 11.3343 8 11.3343C8.99207 11.3343 9.88292 10.9009 10.4935 10.2131C10.5792 10.3335 10.6752 10.4473 10.781 10.5532C11.2811 11.0533 11.9594 11.3342 12.6667 11.3342C13.3739 11.3342 14.0522 11.0533 14.5523 10.5532C15.0524 10.0531 15.3333 9.3748 15.3333 8.66756V8.00085C15.3332 6.34574 14.7732 4.73933 13.7444 3.44284C12.7156 2.14634 11.2784 1.23601 9.6666 0.859865ZM10 8.00094C10 6.89637 9.10457 6.00094 8 6.00094C6.89543 6.00094 6 6.89637 6 8.00094C6 9.10551 6.89543 10.0009 8 10.0009C9.10457 10.0009 10 9.10551 10 8.00094Z" fill="#666699"/>
</g>
<defs>
<clipPath id="clip0_2946_232143">
<rect width="16" height="16" fill="white"/>
</clipPath>
</defs>
</svg>
