<svg width="16" height="16" viewBox="0 0 16 16" xmlns="http://www.w3.org/2000/svg">
<path clip-rule="evenodd" d="M9.66663 0.858972C8.05483 0.482825 6.36318 0.662985 4.86675 1.37016C3.37032 2.07733 2.15712 3.26992 1.42442 4.75402C0.691714 6.23811 0.482602 7.92643 0.831084 9.54444C1.17956 11.1624 2.06514 12.615 3.34382 13.6659C4.6225 14.7168 6.21908 15.3042 7.87395 15.3327C9.52881 15.3611 11.1446 14.8289 12.4587 13.8226C12.751 13.5988 12.8065 13.1803 12.5827 12.888C12.3588 12.5957 11.9403 12.5402 11.648 12.764C10.5729 13.5874 9.25085 14.0228 7.89687 13.9995C6.54289 13.9762 5.2366 13.4956 4.19041 12.6358C3.14421 11.776 2.41965 10.5875 2.13453 9.26371C1.84941 7.93988 2.0205 6.55853 2.61998 5.34427C3.21947 4.13001 4.21208 3.15425 5.43644 2.57566C6.66079 1.99706 8.04486 1.84966 9.36361 2.15742C10.6824 2.46517 11.8582 3.20999 12.7 4.27076C13.5418 5.33151 13.9999 6.64587 14 8.00004V8.66666C14 9.02029 13.8596 9.35942 13.6095 9.60947C13.3595 9.85952 13.0203 10 12.6667 10C12.3131 10 11.9739 9.85952 11.7239 9.60947C11.4738 9.35942 11.3334 9.02029 11.3334 8.66666V5.33333C11.3334 4.96514 11.0349 4.66666 10.6667 4.66666C10.2986 4.66666 10.0002 4.96501 10 5.3331C9.44292 4.91463 8.75043 4.66666 8.00002 4.66666C6.15907 4.66666 4.66669 6.15905 4.66669 8C4.66669 9.84095 6.15907 11.3333 8.00002 11.3333C8.99209 11.3333 9.88292 10.8999 10.4935 10.2122C10.5792 10.3326 10.6752 10.4464 10.7811 10.5523C11.2812 11.0524 11.9595 11.3333 12.6667 11.3333C13.3739 11.3333 14.0522 11.0524 14.5523 10.5523C15.0524 10.0522 15.3334 9.37391 15.3334 8.66666V7.99995C15.3333 6.34484 14.7733 4.73844 13.7444 3.44194C12.7156 2.14545 11.2784 1.23512 9.66663 0.858972ZM6.00002 8C6.00002 6.89543 6.89545 6 8.00002 6C9.10459 6 10 6.89543 10 8C10 9.10457 9.10459 10 8.00002 10C6.89545 10 6.00002 9.10457 6.00002 8Z"/>
</svg>
