<svg xmlns="http://www.w3.org/2000/svg" width="24" height="24"><path d="M3.268 1.69a1.714 1.714 0 0 0-.214.054 1.714 1.714 0 0 0-.858 2.946l2.197 2.197h-.964A3.429 3.429 0 0 0 0 10.315v8.572a3.434 3.434 0 0 0 3.429 3.428H20.57A3.43 3.43 0 0 0 24 18.887v-8.572a3.429 3.429 0 0 0-3.429-3.428h-.964l2.197-2.197a1.714 1.714 0 0 0-1.447-2.946 1.714 1.714 0 0 0-1.018.482l-4.66 4.66H9.32l-4.66-4.66a1.714 1.714 0 0 0-1.393-.536zm4.178 10.34a2.571 2.571 0 0 1 .268 0 2.571 2.571 0 0 1 0 5.143 2.575 2.575 0 0 1-.268-5.143zm8.572 0a2.571 2.571 0 0 1 .268 0 2.571 2.571 0 0 1 0 5.143 2.575 2.575 0 0 1-.268-5.143z"/></svg>