<svg xmlns="http://www.w3.org/2000/svg" width="16" height="16" viewBox="0 0 16 16"><path d="M7.5 1.5a1.5 1.5 0 0 1-.035.323c.497.48.833.993 1.035 1.601.161.488.226 1.01.244 1.576H13.5A2.5 2.5 0 0 1 16 7.5v6a2.5 2.5 0 0 1-2.5 2.5h-11A2.5 2.5 0 0 1 0 13.5v-6A2.5 2.5 0 0 1 2.5 5h4.743c-.017-.453-.067-.802-.167-1.104-.109-.329-.29-.634-.624-.965A1.5 1.5 0 0 1 4.5 1.5a1.5 1.5 0 1 1 3 0ZM6 9.5a1.5 1.5 0 1 0-3 0 1.5 1.5 0 0 0 3 0Zm5.5 1.5a1.5 1.5 0 1 0 0-3 1.5 1.5 0 0 0 0 3ZM8 14c1.105 0 2-.672 2-1.5H6c0 .828.895 1.5 2 1.5Z"/></svg>
