<svg xmlns="http://www.w3.org/2000/svg" width="16" height="16" fill="none" viewBox="0 0 16 16">
  <path fill="#000" d="M8.06 3.335h5.667a.665.665 0 0 1 0 1.33H8.06a.665.665 0 1 1 0-1.33ZM14.392 8a.665.665 0 0 1-.665.665H9.394a.665.665 0 1 1 0-1.33h4.333c.368 0 .665.298.665.665Zm-6.997 4c0-.367.298-.665.665-.665h5.667a.665.665 0 0 1 0 1.33H8.06A.665.665 0 0 1 7.395 12ZM3.416 4.694 3.26 6.103h1.323l.172-1.547a.625.625 0 0 1 1.243.138L5.84 6.103h.93a.625.625 0 1 1 0 1.25H5.701L5.55 8.718h1.075a.625.625 0 0 1 0 1.25H5.412l-.164 1.476a.625.625 0 1 1-1.243-.138l.149-1.338H2.83l-.164 1.476a.625.625 0 1 1-1.242-.138l.149-1.338H.625a.625.625 0 1 1 0-1.25h1.086l.152-1.365H.77a.625.625 0 1 1 0-1.25h1.232l.172-1.547a.625.625 0 0 1 1.242.138Zm1.028 2.659H3.121l-.152 1.365h1.324l.151-1.365Z"/>
</svg>
