<svg width="16" height="16" viewBox="0 0 16 16" xmlns="http://www.w3.org/2000/svg"><path d="M1.333 8.000 L 1.333 14.000 8.000 14.000 L 14.667 14.000 14.667 9.333 L 14.667 4.667 11.333 4.667 L 8.000 4.667 8.000 3.333 L 8.000 2.000 4.667 2.000 L 1.333 2.000 1.333 8.000 M4.000 4.000 L 4.000 4.667 3.333 4.667 L 2.667 4.667 2.667 4.000 L 2.667 3.333 3.333 3.333 L 4.000 3.333 4.000 4.000 M6.667 4.000 L 6.667 4.667 6.000 4.667 L 5.333 4.667 5.333 4.000 L 5.333 3.333 6.000 3.333 L 6.667 3.333 6.667 4.000 M4.000 6.667 L 4.000 7.333 3.333 7.333 L 2.667 7.333 2.667 6.667 L 2.667 6.000 3.333 6.000 L 4.000 6.000 4.000 6.667 M6.667 6.667 L 6.667 7.333 6.000 7.333 L 5.333 7.333 5.333 6.667 L 5.333 6.000 6.000 6.000 L 6.667 6.000 6.667 6.667 M13.333 9.333 L 13.333 12.667 10.667 12.667 L 8.000 12.667 8.000 12.000 L 8.000 11.333 8.667 11.333 L 9.333 11.333 9.333 10.667 L 9.333 10.000 8.667 10.000 L 8.000 10.000 8.000 9.333 L 8.000 8.667 8.667 8.667 L 9.333 8.667 9.333 8.000 L 9.333 7.333 8.667 7.333 L 8.000 7.333 8.000 6.667 L 8.000 6.000 10.667 6.000 L 13.333 6.000 13.333 9.333 M10.667 8.000 L 10.667 8.667 11.333 8.667 L 12.000 8.667 12.000 8.000 L 12.000 7.333 11.333 7.333 L 10.667 7.333 10.667 8.000 M4.000 9.333 L 4.000 10.000 3.333 10.000 L 2.667 10.000 2.667 9.333 L 2.667 8.667 3.333 8.667 L 4.000 8.667 4.000 9.333 M6.667 9.333 L 6.667 10.000 6.000 10.000 L 5.333 10.000 5.333 9.333 L 5.333 8.667 6.000 8.667 L 6.667 8.667 6.667 9.333 M10.667 10.667 L 10.667 11.333 11.333 11.333 L 12.000 11.333 12.000 10.667 L 12.000 10.000 11.333 10.000 L 10.667 10.000 10.667 10.667 M4.000 12.000 L 4.000 12.667 3.333 12.667 L 2.667 12.667 2.667 12.000 L 2.667 11.333 3.333 11.333 L 4.000 11.333 4.000 12.000 M6.667 12.000 L 6.667 12.667 6.000 12.667 L 5.333 12.667 5.333 12.000 L 5.333 11.333 6.000 11.333 L 6.667 11.333 6.667 12.000 " ></path></svg>