<svg xmlns="http://www.w3.org/2000/svg" width="22" height="22" viewBox="0 0 22 22"><g><path d="M12.003 7.89a.665.665 0 0 1 .939-.055l3 2.667a.665.665 0 0 1 0 .994l-3 2.666a.665.665 0 1 1-.884-.994l2.441-2.17-2.44-2.169a.665.665 0 0 1-.056-.939Zm-2.061.94L7.5 10.998l2.44 2.17a.665.665 0 0 1-.883.993l-3-2.666a.665.665 0 0 1 0-.994l3-2.667a.665.665 0 0 1 .884.994Z"/><path d="M4 3h14a2 2 0 0 1 2 2v12a2 2 0 0 1-2 2H4a2 2 0 0 1-2-2V5a2 2 0 0 1 2-2Zm14 1.33H4c-.37 0-.67.3-.67.67v12c0 .37.3.67.67.67h14c.37 0 .67-.3.67-.67V5c0-.37-.3-.67-.67-.67Z"/></g></svg>