<svg width="22" height="22" viewBox="0 0 22 22" fill="none" xmlns="http://www.w3.org/2000/svg">
<path d="M12.003 7.89023C12.247 7.61573 12.6673 7.591 12.9418 7.835L15.9418 10.5017C16.0838 10.6279 16.165 10.8087 16.165 10.9987C16.165 11.1886 16.0838 11.3695 15.9418 11.4957L12.9418 14.1624C12.6673 14.4064 12.247 14.3817 12.003 14.1072C11.759 13.8327 11.7837 13.4123 12.0582 13.1683L14.499 10.9987L12.0582 8.82906C11.7837 8.58506 11.759 8.16473 12.003 7.89023Z" fill="black"/>
<path d="M9.9418 8.82906C10.2163 8.58506 10.241 8.16473 9.99703 7.89023C9.75303 7.61573 9.3327 7.591 9.0582 7.835L6.0582 10.5017C5.91623 10.6279 5.835 10.8087 5.835 10.9987C5.835 11.1886 5.91623 11.3695 6.0582 11.4957L9.0582 14.1624C9.3327 14.4064 9.75303 14.3817 9.99703 14.1072C10.241 13.8327 10.2163 13.4123 9.9418 13.1683L7.50096 10.9987L9.9418 8.82906Z" fill="black"/>
<path d="M4 3C2.89543 3 2 3.89543 2 5V17C2 18.1046 2.89543 19 4 19H18C19.1046 19 20 18.1046 20 17V5C20 3.89543 19.1046 3 18 3H4ZM18 4.33C18.37 4.33 18.67 4.62997 18.67 5V17C18.67 17.37 18.37 17.67 18 17.67H4C3.62997 17.67 3.33 17.37 3.33 17V5C3.33 4.62997 3.62997 4.33 4 4.33H18Z" fill="black"/>
</svg>
