<svg width="22" height="22" viewBox="0 0 22 22" xmlns="http://www.w3.org/2000/svg">
<path d="M17.001 2.74414C17.5993 2.74414 18.1731 2.98182 18.5962 3.4049C19.0193 3.82799 19.2569 4.4018 19.2569 5.00013C19.2569 5.59846 19.0193 6.17228 18.5962 6.59536L11.4712 13.7204C11.386 13.8056 11.2792 13.866 11.1622 13.8953L8.16224 14.6453C7.93562 14.7019 7.6959 14.6355 7.53073 14.4704C7.36555 14.3052 7.29915 14.0655 7.35581 13.8388L8.10581 10.8388C8.13504 10.7219 8.1955 10.6151 8.28073 10.5299L15.4057 3.4049C15.8288 2.98182 16.4026 2.74414 17.001 2.74414ZM16.3462 4.34536L9.35142 11.3401L8.91491 13.0862L10.661 12.6497L17.6557 5.65491C17.8294 5.48125 17.9269 5.24572 17.9269 5.00013C17.9269 4.75454 17.8294 4.51901 17.6557 4.34536C17.4821 4.1717 17.2465 4.07414 17.001 4.07414C16.7554 4.07414 16.5198 4.1717 16.3462 4.34536Z"/>
<path d="M5.00094 4.33594C4.42674 4.33594 3.87607 4.56403 3.47005 4.97005C3.06403 5.37607 2.83594 5.92674 2.83594 6.50094V17.0009C2.83594 17.5751 3.06403 18.1258 3.47005 18.5318C3.87607 18.9378 4.42674 19.1659 5.00094 19.1659H15.5009C16.0751 19.1659 16.6258 18.9378 17.0318 18.5318C17.4378 18.1258 17.6659 17.5751 17.6659 17.0009V11.7509C17.6659 11.3837 17.3682 11.0859 17.0009 11.0859C16.6337 11.0859 16.3359 11.3837 16.3359 11.7509V17.0009C16.3359 17.2224 16.248 17.4348 16.0914 17.5914C15.9348 17.748 15.7224 17.8359 15.5009 17.8359H5.00094C4.77948 17.8359 4.5671 17.748 4.4105 17.5914C4.25391 17.4348 4.16594 17.2224 4.16594 17.0009V6.50094C4.16594 6.27948 4.25391 6.0671 4.4105 5.9105C4.5671 5.75391 4.77948 5.66594 5.00094 5.66594H10.2509C10.6182 5.66594 10.9159 5.36821 10.9159 5.00094C10.9159 4.63367 10.6182 4.33594 10.2509 4.33594H5.00094Z"/>
</svg>
