<svg viewBox="0 0 16 16" xmlns="http://www.w3.org/2000/svg">
  <path
     d="m 2.3431459,2.3431458 a 7.9999996,7.9999996 0 0 0 0,11.3137082 7.9999996,7.9999996 0 0 0 11.3137081,0 7.9999996,7.9999996 0 0 0 0,-11.3137082 7.9999996,7.9999996 0 0 0 -11.3137081,0 z M 3.6287946,3.6287945 A 6.1818179,6.1818179 0 0 1 11.529507,2.9277144 L 2.9337411,11.52348 A 6.1818179,6.1818179 0 0 1 3.6287946,3.6287945 Z M 4.4765193,13.066259 13.066259,4.4765192 a 6.1818179,6.1818179 0 0 1 -0.695054,7.8946858 6.1818179,6.1818179 0 0 1 -7.8946857,0.695054 z"/>
</svg>
