<svg xmlns="http://www.w3.org/2000/svg" width="16" height="16" fill="none" viewBox="0 0 16 16">
    <g fill="#000">
        <path
            d="M5.555 4.64a.666.666 0 0 1 .94 0l2.028 2.028 2.027-2.027a.665.665 0 1 1 .94.94L9.464 7.61l2.028 2.028a.665.665 0 0 1-.94.94L8.522 8.55l-2.028 2.028a.665.665 0 1 1-.94-.94L7.581 7.61 5.555 5.58a.665.665 0 0 1 0-.94Z" />
        <path
            d="M9.055.252a7.282 7.282 0 1 1-3.632 13.864L1.345 15.5a.665.665 0 0 1-.844-.844l1.383-4.078A7.282 7.282 0 0 1 9.055.252Zm-4.071 2.45a5.951 5.951 0 0 0-1.79 7.526c.081.16.095.347.037.517l-1.037 3.062 3.061-1.038a.665.665 0 0 1 .517.038A5.952 5.952 0 1 0 4.984 2.7Z" />
    </g>
</svg>