<svg xmlns="http://www.w3.org/2000/svg" width="16" height="16" viewBox="0 0 16 16">
  <path d="M8 1.335c.367 0 .665.298.665.665v6.395l2.198-2.199a.665.665 0 0 1 .94.94L8.47 10.47c-.26.26-.68.26-.94 0L4.196 7.137a.665.665 0 1 1 .94-.94l2.199 2.198V2c0-.367.298-.665.665-.665Zm-6 8c.367 0 .665.298.665.665v2.667a.668.668 0 0 0 .668.668h9.334a.668.668 0 0 0 .668-.668V10a.665.665 0 1 1 1.33 0v2.667a1.998 1.998 0 0 1-1.998 1.998H3.333a1.998 1.998 0 0 1-1.998-1.998V10c0-.367.298-.665.665-.665Z"/>
</svg>
