<svg xmlns="http://www.w3.org/2000/svg" width="16" height="16" fill="none" viewBox="0 0 16 16"><g fill="#1D2E48"><path fill-rule="evenodd" d="M13.33.59c-.55 0-1.08.22-1.47.6L5.53 7.54a.67.67 0 0 0-.18.3l-.66 2.68a.66.66 0 0 0 .8.8l2.67-.66a.66.66 0 0 0 .31-.18l6.33-6.33A2.08 2.08 0 0 0 13.33.59Zm-.53 1.55a.75.75 0 1 1 1.06 1.06l-6.2 6.2-1.41.35.35-1.41 6.2-6.2Z" clip-rule="evenodd"/><path d="M2.67 2a2 2 0 0 0-2 2v9.33a2 2 0 0 0 2 2H12a2 2 0 0 0 2-2V8.67a.66.66 0 1 0-1.33 0v4.66A.67.67 0 0 1 12 14H2.67a.67.67 0 0 1-.67-.67V4a.67.67 0 0 1 .67-.67h4.66a.66.66 0 1 0 0-1.33H2.67Z"/></g></svg>