<svg width="16" height="16" viewBox="0 0 16 16" xmlns="http://www.w3.org/2000/svg"><path d="M3.640 0.707 C 2.977 0.831,2.394 1.307,2.152 1.920 C 2.005 2.294,2.013 1.927,2.013 8.000 C 2.013 14.073,2.005 13.706,2.152 14.080 C 2.341 14.560,2.771 14.989,3.253 15.181 C 3.624 15.328,3.365 15.320,8.000 15.320 C 11.487 15.320,12.332 15.313,12.440 15.285 C 13.174 15.090,13.676 14.615,13.924 13.880 L 13.987 13.693 13.994 9.469 C 14.000 5.625,13.997 5.232,13.958 5.109 C 13.917 4.983,13.765 4.825,11.804 2.862 C 9.753 0.811,9.689 0.750,9.548 0.709 C 9.420 0.672,9.084 0.667,6.615 0.669 C 4.429 0.671,3.786 0.679,3.640 0.707 M8.667 3.715 C 8.667 5.651,8.661 5.596,8.866 5.801 C 9.071 6.005,9.015 6.000,10.951 6.000 L 12.667 6.000 12.665 9.727 C 12.665 12.770,12.658 13.472,12.629 13.553 C 12.576 13.701,12.468 13.829,12.326 13.913 L 12.200 13.987 8.000 13.987 L 3.800 13.987 3.672 13.912 C 3.527 13.826,3.399 13.665,3.360 13.519 C 3.342 13.453,3.335 11.555,3.340 7.943 L 3.347 2.467 3.421 2.341 C 3.504 2.199,3.632 2.091,3.780 2.038 C 3.861 2.009,4.344 2.002,6.273 2.001 L 8.667 2.000 8.667 3.715 M10.867 3.813 L 11.720 4.667 10.860 4.667 L 10.000 4.667 10.000 3.813 C 10.000 3.344,10.003 2.960,10.007 2.960 C 10.011 2.960,10.398 3.344,10.867 3.813 M5.116 5.375 C 4.870 5.451,4.667 5.734,4.667 6.000 C 4.667 6.264,4.861 6.539,5.107 6.623 C 5.298 6.688,6.702 6.688,6.893 6.623 C 7.139 6.539,7.333 6.264,7.333 6.000 C 7.333 5.727,7.130 5.450,6.873 5.374 C 6.682 5.317,5.301 5.318,5.116 5.375 M5.116 8.042 C 4.870 8.118,4.667 8.401,4.667 8.667 C 4.667 8.828,4.746 9.014,4.866 9.134 C 5.077 9.345,4.891 9.333,8.000 9.333 C 11.109 9.333,10.923 9.345,11.134 9.134 C 11.398 8.870,11.395 8.456,11.127 8.195 C 10.915 7.989,11.082 8.000,7.988 8.002 C 5.680 8.003,5.220 8.010,5.116 8.042 M5.116 10.709 C 4.870 10.784,4.667 11.067,4.667 11.333 C 4.667 11.494,4.746 11.681,4.866 11.801 C 5.077 12.012,4.891 12.000,8.000 12.000 C 11.109 12.000,10.923 12.012,11.134 11.801 C 11.398 11.536,11.395 11.123,11.127 10.862 C 10.915 10.656,11.082 10.666,7.988 10.669 C 5.680 10.670,5.220 10.677,5.116 10.709 " ></path></svg>