<svg xmlns="http://www.w3.org/2000/svg" width="16" height="16" viewBox="0 0 16 16">
  <path d="M2.587 1.254A1.998 1.998 0 0 1 4 .668h6c.176 0 .345.07.47.195l3.334 3.333a.665.665 0 0 1 .194.47v8.667A1.998 1.998 0 0 1 12 15.332H4a1.999 1.999 0 0 1-1.998-1.999V2.667c0-.53.21-1.039.585-1.413Zm9.807 3.414L9.998 2.272V4a.668.668 0 0 0 .669.668h1.728Zm-3.726-2.67H4a.668.668 0 0 0-.668.669v10.666a.668.668 0 0 0 .668.669h8a.668.668 0 0 0 .668-.669V5.998h-2.001A1.998 1.998 0 0 1 8.668 4V1.998Zm1.802 6.198c.26.26.26.681 0 .94l-2.666 2.668a.664.664 0 0 1-.94 0L5.53 10.47a.665.665 0 1 1 .94-.94l.863.863L9.53 8.196c.26-.26.68-.26.94 0Z"/>
</svg>