<svg width="24" height="24" viewBox="0 0 24 24" version="1.1" xmlns="http://www.w3.org/2000/svg">
  <path
     d="M 4,2 C 2.3549904,2 1,3.3549904 1,5 v 13 c 0,1.64501 1.3549904,3 3,3 h 6.300781 a 1,1 0 0 0 1,-1 1,1 0 0 0 -1,-1 H 4 C 3.4358706,19 3,18.564129 3,18 V 5 C 3,4.4358706 3.4358706,4 4,4 h 3.9804687 a 1.0001,1.0001 0 0 0 0.00977,0 c 0.3385977,-0.00332 0.6498014,0.1642012 0.8378906,0.4453125 l 0.625,1.1367187 a 1.0001,1.0001 0 0 0 0.041016,0.068359 C 10.048363,6.4919664 10.992324,6.9998341 12,7 h 8 c 0.564129,0 1,0.4358706 1,1 v 3.300781 a 1,1 0 0 0 1,1 1,1 0 0 0 1,-1 V 8 C 23,6.3549904 21.64501,5 20,5 H 12 C 11.665002,4.9999448 11.357974,4.8327914 11.171875,4.5546875 l -0.625,-1.1367187 a 1.0001,1.0001 0 0 0 -0.04102,-0.068359 C 9.9458514,2.4991412 8.9889395,1.990017 7.9707031,2 Z" />
  <path
     d="m 13.105469,14.875 a 1,1 0 0 0 -0.707031,0.292969 1,1 0 0 0 0,1.414062 l 4.585937,4.585938 a 1.0001,1.0001 0 0 0 1.410156,0.0039 l 4.644531,-4.597656 a 1,1 0 0 0 0.0078,-1.414063 1,1 0 0 0 -1.414063,-0.0059 l -3.9375,3.896484 L 13.8125,15.167969 A 1,1 0 0 0 13.105469,14.875 Z" />
</svg>
