<svg xmlns="http://www.w3.org/2000/svg" width="16" height="16" fill="none" viewBox="0 0 16 16"><g fill="#000" fill-rule="evenodd" clip-rule="evenodd"><path d="M7.62 2.73c.23.11.38.35.38.6v9.34a.66.66 0 0 1-1.08.52l-3.15-2.53H1.33A.66.66 0 0 1 .67 10V6c0-.37.3-.67.66-.67h2.44l3.15-2.52c.2-.16.47-.19.7-.08Zm-.95 1.99-2.25 1.8a.66.66 0 0 1-.42.15H2v2.67h2c.15 0 .3.05.42.14l2.25 1.8V4.72Zm3.22.45a.67.67 0 0 1 .94 0 4 4 0 0 1 0 5.65.66.66 0 0 1-.94-.94 2.67 2.67 0 0 0 0-3.77.67.67 0 0 1 0-.94Z"/><path d="M12.24 2.82a.66.66 0 0 1 .94 0 7.33 7.33 0 0 1 0 10.36.66.66 0 0 1-.94-.94 6 6 0 0 0 0-8.48.66.66 0 0 1 0-.94Z"/></g></svg>