<svg width="16" height="17" viewBox="0 0 16 17" fill="none" xmlns="http://www.w3.org/2000/svg">
<path d="M11.8375 1.56064C11.5549 1.25777 11.0803 1.24131 10.7774 1.52387C10.4746 1.80644 10.4581 2.28103 10.7407 2.5839C13.833 5.89843 13.833 11.2711 10.7407 14.5856C10.4581 14.8885 10.4746 15.3631 10.7774 15.6456C11.0803 15.9282 11.5549 15.9117 11.8375 15.6089C15.4674 11.7181 15.4674 5.45142 11.8375 1.56064Z" fill="black"/>
<path d="M7.16498 4.12836C7.45788 3.83547 7.93275 3.83547 8.22564 4.12836C10.6492 6.55197 10.6334 10.5288 8.2368 13.0296C7.95021 13.3286 7.47544 13.3387 7.17638 13.0521C6.87733 12.7655 6.86722 12.2908 7.15382 11.9917C9.00652 10.0584 8.99066 7.0147 7.16498 5.18902C6.87209 4.89613 6.87209 4.42126 7.16498 4.12836Z" fill="black"/>
<path d="M3.84751 10.4323C4.86787 10.4323 5.69503 9.60518 5.69503 8.58482C5.69503 7.56447 4.86787 6.73731 3.84751 6.73731C2.82716 6.73731 2 7.56447 2 8.58482C2 9.60518 2.82716 10.4323 3.84751 10.4323Z" fill="black"/>
</svg>
