<svg xmlns="http://www.w3.org/2000/svg" width="16" height="16" fill="none" viewBox="0 0 16 16">
  <path fill="#000" fill-rule="evenodd" d="M11.9746.7523a.665.665 0 0 0-1.0215.8518c1.5274 1.8316 2.4082 4.0346 2.4082 6.3962 0 2.3617-.8808 4.5646-2.4082 6.3963a.665.665 0 1 0 1.0215.8517c1.7046-2.0442 2.7167-4.5422 2.7167-7.248 0-2.7057-1.0121-5.2038-2.7167-7.248ZM8.2256 3.544A.75.75 0 0 0 7.165 4.6045c1.8257 1.8257 1.8415 4.8695-.0112 6.8027a.75.75 0 0 0 1.083 1.0379c2.3966-2.5008 2.4124-6.4776-.0112-8.9012ZM5.695 8.0003c0 1.0204-.8271 1.8476-1.8475 1.8476C2.8272 9.8479 2 9.0207 2 8.0003c0-1.0203.8272-1.8475 1.8475-1.8475 1.0204 0 1.8475.8272 1.8475 1.8475Z" clip-rule="evenodd"/>
</svg>
