<svg xmlns="http://www.w3.org/2000/svg" width="16" height="16" fill="none" viewBox="0 0 16 16"><path fill="#000" d="M10.953 1.604a.665.665 0 0 1 1.022-.852C13.679 2.797 14.69 5.295 14.69 8c0 2.706-1.012 5.204-2.716 7.248a.665.665 0 1 1-1.022-.851C12.479 12.565 13.36 10.362 13.36 8c0-2.361-.88-4.564-2.408-6.396Zm-2.727 1.94c2.423 2.423 2.407 6.4.01 8.901a.75.75 0 0 1-1.082-1.038c1.853-1.933 1.837-4.977.011-6.802a.75.75 0 0 1 1.06-1.061ZM2 8a1.848 1.848 0 1 1 3.695 0A1.848 1.848 0 0 1 2 8Z"/></svg>