<?xml version="1.0" encoding="UTF-8" standalone="no"?>
<svg
   width="18"
   height="18"
   viewBox="0 0 18 18"
   fill="none"
   version="1.1"
   id="svg10"
   xmlns="http://www.w3.org/2000/svg"
   xmlns:svg="http://www.w3.org/2000/svg">
  <g
     id="settings"
     clip-path="url(#clip0_2946_233212)">
    <path
       d="M 9,6.3359375 C 7.5360391,6.3359375 6.3359375,7.5360391 6.3359375,9 c 0,1.463981 1.2001137,2.664063 2.6640625,2.664063 1.463969,0 2.664062,-1.200094 2.664063,-2.664063 C 11.664063,7.5360512 10.463981,6.3359375 9,6.3359375 Z m 0,1.328125 C 9.7452167,7.6640625 10.335938,8.254811 10.335938,9 10.335938,9.7452287 9.7452287,10.335938 9,10.335938 8.254811,10.335938 7.6640625,9.7452167 7.6640625,9 7.6640625,8.2548231 8.2548231,7.6640625 9,7.6640625 Z"
       id="Vector" />
    <path
       d="m 9,0.3359375 c -0.5618869,0 -1.1007379,0.22183163 -1.4980469,0.61914063 C 7.1046441,1.3523871 6.8808594,1.8931912 6.8808594,2.4550781 V 2.578125 c -7.812e-4,0.1037323 -0.032554,0.2045087 -0.089844,0.2910156 -0.053726,0.081125 -0.1311783,0.1399224 -0.21875,0.1816407 a 0.66506652,0.66506652 0 0 0 -0.080078,0.017578 c -0.097864,0.04319 -0.2072522,0.05619 -0.3125,0.037109 C 6.0744377,3.0863835 5.9788154,3.0357406 5.9023437,2.9609375 L 5.8632812,2.921875 C 5.6664421,2.7248173 5.4330894,2.5695559 5.1757812,2.4628906 4.9185062,2.3562536 4.641822,2.3007813 4.3632812,2.3007813 4.0847405,2.3007812 3.8100176,2.3562502 3.5527344,2.4628906 3.2959313,2.5693465 3.0618333,2.7253477 2.8652344,2.921875 2.6681767,3.1187141 2.510962,3.3520817 2.4042969,3.609375 c -0.10667,0.2573194 -0.1621094,0.5339824 -0.1621094,0.8125 0,0.2785176 0.055443,0.5551888 0.1621094,0.8125 0.1066653,0.2573081 0.2638798,0.4906609 0.4609375,0.6875 l 0.037109,0.037109 c 0.074789,0.076452 0.125454,0.1740665 0.1445312,0.2792968 0.019085,0.1052539 0.00608,0.2126765 -0.037109,0.3105469 a 0.66506652,0.66506652 0 0 0 -0.015625,0.039063 c -0.037072,0.100805 -0.104036,0.1894623 -0.1914062,0.251953 -0.087362,0.062485 -0.1914474,0.097098 -0.2988281,0.099609 h -0.048828 c -0.5618754,0 -1.1026852,0.2218259 -1.49999997,0.6191406 -0.397309,0.397309 -0.61914063,0.9381131 -0.61914063,1.5000001 0,0.5618869 0.22183163,1.1007386 0.61914063,1.4980476 0.39733957,0.397368 0.93817057,0.621093 1.49999997,0.621093 H 2.578125 c 0.1039352,8.14e-4 0.2045456,0.03259 0.2910156,0.08984 0.086945,0.05757 0.1541783,0.1384 0.1953125,0.234375 a 0.66506652,0.66506652 0 0 0 0.00391,0.0059 c 0.043227,0.09797 0.056187,0.207279 0.037109,0.3125 -0.019083,0.105225 -0.069743,0.200891 -0.1445313,0.277343 l -0.039063,0.03906 c -0.1970184,0.196814 -0.352312,0.430145 -0.4589844,0.6875 -0.1067,0.25731 -0.1621093,0.533932 -0.1621093,0.8125 -10e-8,0.278513 0.055475,0.55325 0.1621093,0.810547 0.1064277,0.256618 0.2623971,0.490812 0.4589844,0.6875 0.1967999,0.19696 0.430187,0.354264 0.6875,0.460937 0.25726,0.106645 0.5339128,0.16211 0.8125,0.16211 0.2785872,0 0.5552482,-0.05547 0.8125,-0.16211 0.2573279,-0.106673 0.4907001,-0.263977 0.6875,-0.460937 l 0.037109,-0.03711 c 0.076507,-0.07481 0.1740619,-0.12544 0.2792968,-0.144531 0.105187,-0.01908 0.2126346,-0.0061 0.3105469,0.03711 a 0.66506652,0.66506652 0 0 0 0.039063,0.01563 c 0.1007532,0.03705 0.1894542,0.104003 0.2519531,0.191407 0.062409,0.08723 0.097098,0.191476 0.099609,0.298828 v 0.04883 c 0,0.561837 0.2218288,1.102659 0.6191406,1.5 0.3973397,0.397369 0.9381706,0.619141 1.5000001,0.61914 0.5618294,0 1.1007077,-0.221771 1.4980477,-0.61914 0.397365,-0.397366 0.621093,-0.938209 0.621093,-1.5 v -0.121094 -0.002 c 8.14e-4,-0.103892 0.03264,-0.204639 0.08984,-0.291016 0.05758,-0.08695 0.138412,-0.154179 0.234375,-0.195312 a 0.66506652,0.66506652 0 0 0 0.0059,-0.0039 c 0.09801,-0.04324 0.207361,-0.05619 0.3125,-0.03711 0.10521,0.01909 0.20279,0.06972 0.279296,0.144532 l 0.03711,0.03906 c 0.196775,0.196921 0.430126,0.352304 0.6875,0.458984 0.257287,0.106705 0.533885,0.16211 0.8125,0.16211 0.27856,0 0.553273,-0.05547 0.810547,-0.16211 0.256638,-0.106435 0.490851,-0.262494 0.6875,-0.458984 0.196921,-0.196775 0.354257,-0.430126 0.460937,-0.6875 0.106639,-0.257274 0.16211,-0.53394 0.16211,-0.8125 0,-0.278614 -0.05551,-0.555308 -0.16211,-0.8125 -0.10668,-0.257374 -0.264016,-0.490725 -0.460937,-0.6875 l -0.03711,-0.03711 c -0.07481,-0.07651 -0.125429,-0.173966 -0.144531,-0.279297 -0.01908,-0.105139 -0.0061,-0.212539 0.03711,-0.310547 a 0.66506652,0.66506652 0 0 0 0.002,-0.0078 c 0.0411,-0.09589 0.109998,-0.17654 0.197265,-0.234375 0.08638,-0.0572 0.187124,-0.08903 0.291016,-0.08984 h 0.06445 c 0.561791,0 1.102634,-0.223728 1.5,-0.621094 C 17.442311,10.100716 17.664063,9.5618294 17.664062,9 c 0,-0.5618294 -0.221771,-1.1007073 -0.61914,-1.4980469 -0.397335,-0.3973061 -0.938151,-0.6210937 -1.5,-0.6210937 h -0.121094 -0.002 c -0.103689,-7.816e-4 -0.204602,-0.03261 -0.291016,-0.089844 -0.08113,-0.053738 -0.139918,-0.1311834 -0.18164,-0.21875 a 0.66506652,0.66506652 0 0 0 -0.01758,-0.080078 c -0.0432,-0.097906 -0.05619,-0.2073347 -0.03711,-0.3125 0.01909,-0.1052349 0.06971,-0.202771 0.144532,-0.2792969 l 0.03906,-0.037109 c 0.19696,-0.1967999 0.352311,-0.430172 0.458984,-0.6875 0.106642,-0.2572518 0.16211,-0.5339128 0.16211,-0.8125 0,-0.2785871 -0.05546,-0.5532868 -0.16211,-0.8105468 -0.106464,-0.2568228 -0.262554,-0.4909403 -0.458984,-0.6875 -0.196814,-0.1970184 -0.430146,-0.3542652 -0.6875,-0.4609375 -0.257333,-0.1066636 -0.53401,-0.1621094 -0.8125,-0.1621094 -0.278545,0 -0.555249,0.05548 -0.8125,0.1621094 -0.257354,0.1066723 -0.490686,0.2639191 -0.6875,0.4609375 l -0.03711,0.037109 c -0.07645,0.074789 -0.173971,0.125443 -0.279297,0.1445312 -0.105206,0.019079 -0.212581,0.00612 -0.310547,-0.037109 a 0.66506652,0.66506652 0 0 0 -0.0078,-0.00195 c -0.09591,-0.041105 -0.176552,-0.1100088 -0.234375,-0.1972656 -0.05726,-0.08647 -0.08903,-0.1870804 -0.08984,-0.2910156 v -0.064453 c 0,-0.5618294 -0.223725,-1.1026604 -0.621094,-1.49999997 C 10.100747,0.55774898 9.5618869,0.3359375 9,0.3359375 Z m 0,1.328125 c 0.2096523,0 0.4103743,0.084192 0.5585938,0.2324219 0.1482307,0.1482198 0.2304687,0.3488839 0.2304687,0.5585937 v 0.064453 a 0.66506652,0.66506652 0 0 0 0,0.00391 c 0.00155,0.3634534 0.1097549,0.7182449 0.3105465,1.0214844 0.200261,0.3022023 0.485181,0.538248 0.81836,0.6816406 0.339889,0.1491099 0.716737,0.195148 1.082031,0.1289026 0.366002,-0.06669 0.704778,-0.2418153 0.970703,-0.5019531 a 0.66506652,0.66506652 0 0 0 0.0059,-0.00586 l 0.04297,-0.042969 c 0.07339,-0.073461 0.160014,-0.1321475 0.25586,-0.171875 0.09595,-0.03977 0.198879,-0.060547 0.302734,-0.060547 0.103709,0 0.206868,0.020811 0.302734,0.060547 0.09585,0.039728 0.182474,0.098414 0.25586,0.171875 0.07342,0.073358 0.132148,0.1600277 0.171875,0.2558594 0.03975,0.0959 0.06055,0.1990219 0.06055,0.3027343 0,0.1037125 -0.02079,0.2068266 -0.06055,0.3027344 -0.03973,0.095832 -0.09844,0.1824796 -0.171875,0.2558594 l -0.04297,0.042969 a 0.66506652,0.66506652 0 0 0 -0.0059,0.00586 c -0.260375,0.2662938 -0.435445,0.6060517 -0.501953,0.9726563 -0.06652,0.3666742 -0.02149,0.7451234 0.128906,1.0859375 l -0.05664,-0.2695313 v 0.058594 a 0.66506652,0.66506652 0 0 0 0.05469,0.2617187 c 0.14328,0.3342837 0.380451,0.6195332 0.683593,0.8203125 0.303256,0.2008547 0.659793,0.3091016 1.023438,0.3105469 a 0.66506652,0.66506652 0 0 0 0.002,0 h 0.123047 c 0.20955,0 0.410329,0.082215 0.558594,0.2304688 0.14823,0.1482198 0.232421,0.3488839 0.232421,0.5585937 0,0.2097098 -0.08421,0.4104049 -0.232421,0.5585938 -0.148234,0.1482336 -0.348986,0.2304687 -0.558594,0.2304687 h -0.06445 a 0.66506652,0.66506652 0 0 0 -0.0039,0 c -0.36344,0.00155 -0.718192,0.1096987 -1.021485,0.3105463 -0.302152,0.200248 -0.538227,0.485169 -0.68164,0.81836 -0.149081,0.339847 -0.195195,0.71667 -0.128907,1.082031 0.0665,0.366668 0.241564,0.70441 0.501953,0.970703 a 0.66506652,0.66506652 0 0 0 0.0059,0.0059 l 0.04297,0.04297 c 0.07348,0.07342 0.132155,0.160034 0.171875,0.25586 0.03979,0.09601 0.06055,0.198949 0.06055,0.302734 0,0.10364 -0.02079,0.206808 -0.06055,0.302734 -0.03972,0.09583 -0.0984,0.182435 -0.171875,0.25586 -0.07331,0.07336 -0.160003,0.13212 -0.25586,0.171875 -0.09593,0.03976 -0.199095,0.06055 -0.302734,0.06055 -0.103786,0 -0.207022,-0.02085 -0.302735,-0.06055 -0.09582,-0.03972 -0.182435,-0.0984 -0.255859,-0.171875 l -0.04492,-0.04297 a 0.66506652,0.66506652 0 0 0 -0.0039,-0.0059 c -0.266293,-0.26039 -0.606068,-0.435442 -0.972656,-0.501953 -0.363983,-0.06604 -0.739282,-0.02078 -1.078125,0.126953 -8.61e-4,3.69e-4 -0.0011,0.0016 -0.002,0.002 -0.333124,0.143383 -0.618062,0.379178 -0.81836,0.68164 -0.2008481,0.303294 -0.3089936,0.659999 -0.3105467,1.023438 a 0.66506652,0.66506652 0 0 0 0,0.002 v 0.123047 c 0,0.209608 -0.082235,0.41036 -0.2304688,0.558594 -0.1482198,0.14823 -0.348884,0.232422 -0.5585937,0.232421 C 8.848884,16.335937 8.6482198,16.251746 8.5,16.103516 8.3517524,15.955257 8.2695313,15.754484 8.2695313,15.544922 v -0.06445 a 0.66506652,0.66506652 0 0 0 -0.00195,-0.01563 C 8.2588291,15.090796 8.1376724,14.728194 7.9199219,14.423828 7.7067367,14.126227 7.4061982,13.901901 7.0644531,13.771484 6.7289356,13.628136 6.3594419,13.579325 6,13.644531 5.6333954,13.71104 5.2955898,13.886095 5.0292969,14.146484 a 0.66506652,0.66506652 0 0 0 -0.00586,0.0059 l -0.042969,0.04297 c -0.07338,0.07344 -0.1600276,0.132148 -0.2558593,0.171875 -0.095908,0.03976 -0.1990219,0.06055 -0.3027344,0.06055 -0.1037125,0 -0.2068347,-0.02079 -0.3027344,-0.06055 -0.095827,-0.03973 -0.1824796,-0.09844 -0.2558593,-0.171875 -0.073345,-0.07327 -0.1321122,-0.159984 -0.171875,-0.25586 -0.039746,-0.0959 -0.060547,-0.199048 -0.060547,-0.302734 0,-0.103832 0.020867,-0.207046 0.060547,-0.302735 0.039727,-0.09584 0.098414,-0.182474 0.171875,-0.255859 l 0.042969,-0.04492 a 0.66506652,0.66506652 0 0 0 0.00586,-0.0039 c 0.2605508,-0.266396 0.4354756,-0.606132 0.501953,-0.972705 0.065977,-0.363901 0.020811,-0.739241 -0.1269531,-1.078125 -3.69e-4,-8.61e-4 -0.00158,-0.0011 -0.00195,-0.002 C 4.1417933,10.643451 3.9060285,10.358514 3.6035156,10.158203 3.3002762,9.9574111 2.9435315,9.8492093 2.5800781,9.8476563 a 0.66506652,0.66506652 0 0 0 -0.00195,0 h -0.12305 c -0.2097098,0 -0.4103739,-0.082238 -0.5585937,-0.2304688 C 1.7482339,9.468937 1.6640625,9.2682461 1.6640625,9.0585938 1.6640625,8.8489414 1.7482339,8.6482505 1.8964844,8.5 2.0447291,8.3517553 2.2454143,8.2695313 2.4550781,8.2695313 h 0.064453 a 0.66506652,0.66506652 0 0 0 0.015625,-0.00195 C 2.909215,8.2588296 3.2718338,8.137597 3.5761719,7.9199219 3.8743298,7.706667 4.097915,7.4066292 4.2285156,7.0644531 4.371894,6.7288963 4.4206326,6.3593763 4.3554687,6 4.2890061,5.6333908 4.1140666,5.2956441 3.8535156,5.0292969 a 0.66506652,0.66506652 0 0 0 -0.00586,-0.00586 L 3.8046875,4.9804687 C 3.7312655,4.9071282 3.6725471,4.8204609 3.6328125,4.7246094 3.5930792,4.6287609 3.5722656,4.525657 3.5722656,4.421875 c 0,-0.103782 0.020817,-0.2068941 0.060547,-0.3027344 0.039735,-0.095846 0.098453,-0.1825188 0.171875,-0.2558593 0.073319,-0.073406 0.1600079,-0.1321405 0.2558594,-0.171875 0.095876,-0.03974 0.1989755,-0.060547 0.3027343,-0.060547 0.1037589,0 0.2068498,0.020804 0.3027344,0.060547 0.095852,0.039734 0.1825188,0.098453 0.2558594,0.171875 l 0.044922,0.042969 a 0.66506652,0.66506652 0 0 0 0.00391,0.00586 C 5.2370512,4.172646 5.5767696,4.3475878 5.9433594,4.4140625 6.3099511,4.480522 6.6884409,4.435586 7.0292969,4.2851562 l -0.2695313,0.056641 h 0.058594 A 0.66506652,0.66506652 0 0 0 7.0800781,4.2871094 C 7.4143495,4.1438502 7.6995987,3.906708 7.9003906,3.6035156 8.1011892,3.3003133 8.2094924,2.9437373 8.2109375,2.5800781 a 0.66506652,0.66506652 0 0 0 0,-0.00195 v -0.12305 c 0,-0.2096523 0.082218,-0.4103433 0.2304688,-0.5585937 C 8.5896567,1.7482339 8.7903477,1.6640625 9,1.6640625 Z"
       id="Vector_2" />
  </g>
  <defs
     id="defs8">
    <clipPath
       id="clip0_2946_233212">
      <rect
         width="18"
         height="18"
         fill="none"
         id="rect5"
         x="0"
         y="0" />
    </clipPath>
  </defs>
</svg>
