<svg xmlns="http://www.w3.org/2000/svg" width="18" height="18" viewBox="0 0 18 18"><g><path d="M9 7.665a1.335 1.335 0 1 0 0 2.67 1.335 1.335 0 0 0 0-2.67ZM6.335 9a2.665 2.665 0 1 1 5.33 0 2.665 2.665 0 0 1-5.33 0Z"/><path d="M9 1.665a.79.79 0 0 0-.79.79v.126a1.865 1.865 0 0 1-1.13 1.707.665.665 0 0 1-.182.049 1.865 1.865 0 0 1-1.927-.425l-.005-.005-.043-.044A.792.792 0 1 0 3.805 4.98l.049.05a1.865 1.865 0 0 1 .381 2.037 1.865 1.865 0 0 1-1.7 1.201h-.08a.79.79 0 1 0 0 1.58h.126a1.865 1.865 0 0 1 1.705 1.127 1.865 1.865 0 0 1-.374 2.054l-.005.005-.044.043a.793.793 0 0 0 0 1.118.793.793 0 0 0 .861.172.79.79 0 0 0 .256-.172l.05-.049a1.866 1.866 0 0 1 2.037-.38 1.865 1.865 0 0 1 1.201 1.698v.082a.79.79 0 0 0 1.58 0v-.127a1.865 1.865 0 0 1 1.127-1.705 1.865 1.865 0 0 1 2.054.374l.005.005.043.044a.791.791 0 1 0 1.118-1.117l-.049-.05a1.865 1.865 0 0 1-.374-2.053 1.865 1.865 0 0 1 1.705-1.127h.069a.79.79 0 0 0 0-1.58h-.127a1.865 1.865 0 0 1-1.707-1.13.664.664 0 0 1-.048-.182 1.865 1.865 0 0 1 .424-1.927l.005-.005.044-.043a.79.79 0 1 0-1.117-1.118l-.05.049a1.865 1.865 0 0 1-2.053.374A1.865 1.865 0 0 1 9.79 2.523v-.068a.79.79 0 0 0-.79-.79ZM7.501.955a2.12 2.12 0 0 1 3.619 1.5v.063a.535.535 0 0 0 .324.489l.006.003a.535.535 0 0 0 .588-.105l.04-.04a2.12 2.12 0 1 1 3 2.998l-.041.04a.535.535 0 0 0-.105.589.72.72 0 0 1 .045.143.535.535 0 0 0 .446.245h.123a2.12 2.12 0 0 1 0 4.24h-.064a.535.535 0 0 0-.489.324l-.003.006a.536.536 0 0 0 .105.588l.04.04a2.12 2.12 0 1 1-2.998 3l-.04-.041a.535.535 0 0 0-.588-.105l-.007.003a.535.535 0 0 0-.324.489v.122a2.12 2.12 0 0 1-4.24 0v-.057a.535.535 0 0 0-.35-.483.681.681 0 0 1-.038-.016.535.535 0 0 0-.588.105l-.04.04a2.12 2.12 0 1 1-3-2.998l.041-.04a.535.535 0 0 0 .105-.588l-.003-.007a.535.535 0 0 0-.488-.324h-.122a2.12 2.12 0 1 1 0-4.24h.056a.535.535 0 0 0 .483-.35.673.673 0 0 1 .016-.038.535.535 0 0 0-.105-.588l-.04-.04a2.12 2.12 0 1 1 2.998-3l.04.041a.535.535 0 0 0 .589.105.665.665 0 0 1 .143-.045.535.535 0 0 0 .245-.446v-.122c0-.563.224-1.102.621-1.5Z"/></g></svg>