<svg xmlns="http://www.w3.org/2000/svg" width="24" height="24" viewBox="0 0 24 24" fill="none" stroke="currentColor" stroke-width="2" stroke-linecap="round" stroke-linejoin="round" class="feather feather-github"><path d="M4.656 0.121 C 4.372 0.267,4.266 0.394,4.112 0.773 C 3.676 1.844,3.560 3.249,3.824 4.289 L 3.882 4.518 3.644 4.869 C 3.107 5.663,2.782 6.453,2.597 7.413 C 2.471 8.065,2.482 9.340,2.622 10.296 C 2.753 11.189,3.106 12.310,3.448 12.918 C 4.363 14.541,5.771 15.583,7.830 16.161 C 8.063 16.226,8.261 16.288,8.271 16.297 C 8.280 16.307,8.249 16.433,8.201 16.578 C 8.073 16.962,8.003 17.407,8.001 17.846 L 8.000 18.232 7.656 18.281 C 7.121 18.356,6.446 18.317,6.081 18.187 C 5.503 17.983,5.164 17.690,4.390 16.726 C 3.611 15.754,3.064 15.299,2.433 15.100 C 2.063 14.983,1.923 14.977,1.667 15.064 C 1.096 15.258,0.831 15.977,1.138 16.501 C 1.267 16.720,1.433 16.849,1.728 16.959 C 2.036 17.074,2.273 17.297,2.873 18.037 C 3.815 19.198,4.400 19.682,5.264 20.016 C 5.854 20.244,6.201 20.300,7.020 20.300 C 7.416 20.300,7.797 20.287,7.868 20.271 L 7.995 20.243 8.008 21.275 L 8.020 22.307 8.141 22.503 C 8.543 23.156,9.457 23.156,9.859 22.503 L 9.980 22.306 10.002 19.843 C 10.019 17.983,10.037 17.341,10.076 17.220 C 10.165 16.945,10.392 16.549,10.602 16.305 C 10.853 16.012,10.929 15.840,10.931 15.560 C 10.933 15.296,10.826 15.036,10.637 14.847 C 10.439 14.649,10.335 14.609,9.773 14.519 C 7.556 14.165,6.226 13.498,5.464 12.360 C 4.789 11.352,4.483 10.071,4.531 8.449 C 4.548 7.856,4.568 7.681,4.653 7.379 C 4.836 6.724,5.179 6.087,5.620 5.580 C 5.735 5.448,5.862 5.277,5.903 5.200 C 6.014 4.987,6.002 4.611,5.872 4.191 C 5.724 3.717,5.664 3.224,5.696 2.760 C 5.723 2.382,5.771 2.095,5.817 2.050 C 5.862 2.004,6.619 2.284,7.087 2.520 C 7.348 2.652,7.790 2.901,8.070 3.074 C 8.827 3.541,8.846 3.545,9.631 3.361 C 10.684 3.115,11.416 3.031,12.500 3.031 C 13.584 3.031,14.316 3.115,15.369 3.361 C 16.154 3.545,16.173 3.541,16.930 3.074 C 17.910 2.468,19.114 1.940,19.199 2.079 C 19.217 2.108,19.255 2.313,19.282 2.533 C 19.357 3.149,19.292 3.735,19.074 4.395 C 18.978 4.687,18.988 4.983,19.102 5.205 C 19.140 5.279,19.275 5.460,19.401 5.606 C 19.844 6.121,20.179 6.760,20.370 7.453 C 20.452 7.750,20.460 7.866,20.459 8.720 C 20.457 9.504,20.443 9.739,20.371 10.140 C 20.043 11.957,19.283 13.066,17.900 13.743 C 17.162 14.104,16.296 14.347,15.211 14.496 C 14.722 14.563,14.531 14.639,14.332 14.846 C 14.159 15.027,14.072 15.252,14.072 15.520 C 14.072 15.799,14.153 15.996,14.375 16.256 C 14.612 16.534,14.776 16.810,14.887 17.120 C 14.979 17.379,14.980 17.390,15.000 19.843 L 15.020 22.306 15.141 22.503 C 15.543 23.156,16.457 23.156,16.859 22.503 L 16.980 22.306 16.992 19.923 C 17.005 17.389,16.992 17.150,16.817 16.600 C 16.764 16.435,16.721 16.289,16.721 16.274 C 16.720 16.260,16.788 16.237,16.870 16.222 C 17.336 16.137,18.247 15.818,18.761 15.560 C 19.507 15.185,20.052 14.787,20.580 14.234 C 21.737 13.022,22.362 11.376,22.477 9.233 C 22.571 7.469,22.239 6.175,21.356 4.869 L 21.118 4.518 21.176 4.289 C 21.439 3.251,21.324 1.842,20.888 0.773 C 20.734 0.394,20.628 0.267,20.344 0.121 C 20.119 0.006,20.083 0.000,19.632 0.000 C 19.089 -0.000,18.727 0.063,18.120 0.265 C 17.624 0.429,16.734 0.852,16.200 1.177 L 15.820 1.408 15.540 1.345 C 14.587 1.130,13.613 1.029,12.500 1.029 C 11.387 1.029,10.413 1.130,9.460 1.345 L 9.180 1.408 8.800 1.177 C 8.266 0.852,7.376 0.429,6.880 0.265 C 6.273 0.063,5.911 -0.000,5.368 -0.000 C 4.917 -0.000,4.881 0.006,4.656 0.121 " stroke="none" fill-rule="evenodd" fill="black"></path></svg>