<svg xmlns="http://www.w3.org/2000/svg" width="16" height="16" viewBox="0 0 16 16"  stroke-width="1.33" stroke-linecap="round" stroke-linejoin="round" class="lucide lucide-grip-vertical"><path d="M5.642 1.963c-.34.082-.722.382-.89.697-.22.416-.22.931.001 1.347.105.197.376.469.573.573.417.222.931.222 1.348 0 .197-.104.468-.376.573-.573.221-.416.221-.931.001-1.347a1.684 1.684 0 0 0-.543-.553c-.288-.173-.709-.23-1.063-.144m4 0c-.34.082-.722.382-.89.697-.22.416-.22.931.001 1.347.105.197.376.469.573.573.417.222.931.222 1.348 0 .197-.104.468-.376.573-.573.221-.416.221-.931.001-1.347a1.684 1.684 0 0 0-.543-.553c-.288-.173-.709-.23-1.063-.144m-3.575 1.37c0 .049-.016.069-.06.076-.066.009-.103-.048-.077-.118.01-.025.04-.038.077-.033.044.006.06.026.06.075m4 0c0 .049-.016.069-.06.076-.066.009-.103-.048-.077-.118.01-.025.04-.038.077-.033.044.006.06.026.06.075M5.642 6.629c-.34.082-.722.382-.89.698-.22.416-.22.931.001 1.347.105.197.376.468.573.573.417.221.931.221 1.348 0 .197-.105.468-.376.573-.573.221-.416.221-.931.001-1.347a1.684 1.684 0 0 0-.543-.553c-.288-.173-.709-.23-1.063-.145m4 0c-.34.082-.722.382-.89.698-.22.416-.22.931.001 1.347.105.197.376.468.573.573.417.221.931.221 1.348 0 .197-.105.468-.376.573-.573.221-.416.221-.931.001-1.347a1.684 1.684 0 0 0-.543-.553c-.288-.173-.709-.23-1.063-.145M6.067 8c0 .049-.016.069-.06.075-.037.005-.067-.008-.077-.033-.026-.069.011-.127.077-.117.044.006.06.026.06.075m4 0c0 .049-.016.069-.06.075-.066.01-.103-.048-.077-.117.01-.025.04-.038.077-.033.044.006.06.026.06.075m-4.425 3.296c-.34.082-.722.382-.89.698-.22.415-.22.93.001 1.347.105.197.376.468.573.573.417.221.931.221 1.348 0 .197-.105.468-.376.573-.573.221-.417.221-.932.001-1.347a1.674 1.674 0 0 0-.543-.553c-.288-.174-.709-.231-1.063-.145m4 0c-.34.082-.722.382-.89.698-.22.415-.22.93.001 1.347.105.197.376.468.573.573.417.221.931.221 1.348 0 .197-.105.468-.376.573-.573.221-.417.221-.932.001-1.347a1.674 1.674 0 0 0-.543-.553c-.288-.174-.709-.231-1.063-.145m-3.575 1.371c0 .049-.016.069-.06.075-.066.009-.103-.048-.077-.117.01-.025.04-.039.077-.034.044.007.06.027.06.076m4 0c0 .049-.016.069-.06.075-.037.005-.067-.008-.077-.033-.026-.07.011-.127.077-.118.044.007.06.027.06.076" /></svg>