<svg version="1.1" xmlns="http://www.w3.org/2000/svg" width="1024" height="1024" viewBox="0 0 1024 1024">
<title></title>
<g id="icomoon-ignore">
</g>
<path fill="#000" d="M365.714 0c40.395 0 73.143 32.747 73.143 73.143v219.429h146.286v-219.429c0-40.396 32.747-73.143 73.143-73.143s73.143 32.747 73.143 73.143v219.429h219.429c40.397 0 73.143 32.748 73.143 73.143s-32.746 73.143-73.143 73.143h-219.429v146.286h219.429c40.397 0 73.143 32.747 73.143 73.143s-32.746 73.143-73.143 73.143h-219.429v219.429c0 40.397-32.747 73.143-73.143 73.143s-73.143-32.746-73.143-73.143v-219.429h-146.286v219.429c0 40.397-32.748 73.143-73.143 73.143s-73.143-32.746-73.143-73.143v-219.429h-219.429c-40.396 0-73.143-32.747-73.143-73.143s32.747-73.143 73.143-73.143h219.429v-146.286h-219.429c-40.396 0-73.143-32.748-73.143-73.143s32.747-73.143 73.143-73.143h219.429v-219.429c0-40.396 32.748-73.143 73.143-73.143zM585.143 585.143v-146.286h-146.286v146.286z"></path>
</svg>