<svg xmlns="http://www.w3.org/2000/svg" width="16" height="16" viewBox="0 0 16 16"><g><path d="M7.96 3.638c1.603 0 2.738 1.141 2.738 2.622 0 .592-.158 1.001-.392 1.313-.23.307-.533.515-.811.707l-.004.002c-.238.164-.456.314-.616.507-.158.189-.26.42-.26.745v.067H7.3v-.067c0-1.047.67-1.534 1.259-1.962l.005-.004c.51-.37.94-.688.94-1.268 0-.801-.63-1.443-1.543-1.443-.767 0-1.455.566-1.455 1.443v.068H5.302V6.3c0-1.7 1.396-2.662 2.659-2.662Zm-.003 7.07c.23 0 .428.08.588.24.16.16.24.356.24.587 0 .23-.08.428-.24.588a.801.801 0 0 1-.588.24.801.801 0 0 1-.587-.24.801.801 0 0 1-.24-.588c0-.23.08-.428.24-.588a.8.8 0 0 1 .587-.24Z"/><path d="M8 .226a7.774 7.774 0 1 1 0 15.548A7.774 7.774 0 0 1 8 .226ZM1.556 8a6.444 6.444 0 1 0 12.888 0A6.444 6.444 0 0 0 1.556 8Z"/></g></svg>