<svg xmlns="http://www.w3.org/2000/svg" width="20" height="20" fill="none" viewBox="0 0 20 20"><g fill="#000"><path d="M10.563 14.14a.765.765 0 0 1-.563.23.765.765 0 0 1-.563-.23.765.765 0 0 1-.229-.562c0-.222.077-.41.23-.563a.765.765 0 0 1 .562-.229c.222 0 .41.077.563.23.152.152.229.34.229.562 0 .222-.077.41-.23.563Zm-1.178-2.646h1.23c0-.713.452-1.024.943-1.362.585-.403 1.227-.844 1.227-2.048 0-1.503-1.149-2.662-2.781-2.662-1.285 0-2.7.977-2.7 2.703h1.114c0-.957.752-1.574 1.586-1.574.987 0 1.677.698 1.677 1.574 0 .645-.484.997-1.007 1.377-.617.449-1.289.937-1.289 1.992Z"/><path fill-rule="evenodd" d="M10 18.333a8.398 8.398 0 0 1-3.27-.635 8.133 8.133 0 0 1-2.647-1.76 8.273 8.273 0 0 1-1.77-2.646c-.431-1.014-.646-2.111-.646-3.292a8.28 8.28 0 0 1 .645-3.27 8.273 8.273 0 0 1 1.771-2.647 8.273 8.273 0 0 1 2.646-1.77A8.28 8.28 0 0 1 10 1.666c1.153 0 2.236.215 3.25.645a8.272 8.272 0 0 1 2.646 1.771 8.416 8.416 0 0 1 1.781 2.646A8.166 8.166 0 0 1 18.333 10c0 1.18-.218 2.278-.656 3.292a8.416 8.416 0 0 1-1.781 2.646 8.133 8.133 0 0 1-2.646 1.76 8.345 8.345 0 0 1-3.25.635Zm0-1.25c1.958 0 3.629-.694 5.01-2.083 1.382-1.389 2.073-3.056 2.073-5s-.69-3.611-2.073-5C13.63 3.611 11.958 2.917 10 2.917c-1.986 0-3.663.694-5.031 2.083C3.6 6.389 2.917 8.056 2.917 10s.684 3.611 2.052 5c1.368 1.389 3.045 2.083 5.031 2.083Z" clip-rule="evenodd"/></g></svg>