<svg width="17" height="17" viewBox="0 0 17 17" fill="none" xmlns="http://www.w3.org/2000/svg"><path d="M7.353 0.699 C 5.938 0.823,4.522 1.395,3.400 2.297 C 1.919 3.487,0.955 5.224,0.722 7.124 C 0.666 7.583,0.665 8.431,0.720 8.868 C 0.936 10.584,1.684 12.080,2.925 13.278 C 4.029 14.343,5.422 15.030,6.942 15.258 C 7.363 15.321,8.214 15.344,8.658 15.303 C 10.372 15.145,11.951 14.402,13.176 13.176 C 14.313 12.040,15.003 10.671,15.258 9.047 C 15.320 8.649,15.343 7.768,15.302 7.338 C 15.215 6.430,14.979 5.596,14.578 4.774 C 13.473 2.514,11.235 0.956,8.743 0.710 C 8.459 0.683,7.622 0.676,7.353 0.699 M8.788 2.057 C 11.348 2.386,13.422 4.354,13.897 6.906 C 14.473 10.002,12.540 13.031,9.491 13.809 C 8.101 14.164,6.653 14.017,5.369 13.389 C 4.742 13.083,4.269 12.744,3.767 12.242 C 2.807 11.283,2.222 10.092,2.053 8.756 C 1.994 8.289,2.008 7.410,2.080 7.012 C 2.310 5.755,2.838 4.715,3.696 3.829 C 4.655 2.839,5.950 2.194,7.282 2.043 C 7.649 2.002,8.413 2.008,8.788 2.057 M7.730 3.656 C 7.094 3.763,6.457 4.148,6.075 4.656 C 5.802 5.019,5.620 5.507,5.590 5.957 L 5.573 6.205 6.116 6.205 L 6.658 6.205 6.658 6.083 C 6.658 5.763,6.810 5.430,7.083 5.153 C 7.951 4.274,9.545 4.754,9.748 5.957 C 9.818 6.373,9.710 6.721,9.415 7.031 C 9.325 7.125,9.034 7.366,8.769 7.565 C 7.951 8.179,7.706 8.507,7.595 9.136 C 7.578 9.228,7.565 9.333,7.565 9.369 L 7.565 9.435 8.154 9.435 L 8.742 9.435 8.774 9.237 C 8.814 8.983,8.927 8.759,9.111 8.572 C 9.191 8.491,9.451 8.286,9.688 8.117 C 10.383 7.621,10.658 7.269,10.780 6.716 C 10.835 6.469,10.843 5.959,10.797 5.705 C 10.569 4.453,9.506 3.615,8.163 3.630 C 7.998 3.632,7.803 3.643,7.730 3.656 M7.976 10.707 C 7.424 10.852,7.218 11.532,7.601 11.947 C 7.880 12.250,8.261 12.294,8.601 12.063 C 9.050 11.757,9.014 11.048,8.536 10.788 C 8.382 10.704,8.127 10.667,7.976 10.707 " stroke="none" fill-rule="evenodd"></path></svg>