<svg xmlns="http://www.w3.org/2000/svg" width="16" height="16" fill="none" viewBox="0 0 16 16">
    <path fill="#000"
        d="M10.817 8.817 9.8 7.8c.044-.533-.128-1.006-.517-1.417A1.655 1.655 0 0 0 7.85 5.85L6.834 4.834c.188-.067.38-.12.574-.159.195-.039.392-.058.592-.058.844 0 1.561.294 2.15.883.59.589.884 1.305.884 2.15 0 .222-.02.433-.059.633a2.63 2.63 0 0 1-.158.534Zm2.117 2.1-1-.983c.4-.312.755-.65 1.066-1.017.31-.367.578-.79.8-1.267a6.259 6.259 0 0 0-2.366-2.625C10.4 4.385 9.255 4.066 8 4.066a5.822 5.822 0 0 0-1.7.234L5.2 3.2c.455-.189.91-.325 1.366-.408A7.92 7.92 0 0 1 8 2.666c1.589 0 3.017.414 4.283 1.242a7.785 7.785 0 0 1 2.85 3.275 1.321 1.321 0 0 1 .058.725 1.273 1.273 0 0 1-.057.209 7.616 7.616 0 0 1-2.2 2.8Zm-.3 3.666-2.284-2.266c-.389.122-.778.21-1.167.266A8.362 8.362 0 0 1 8 12.666c-1.589 0-3.017-.42-4.283-1.258a7.885 7.885 0 0 1-2.85-3.291 2.225 2.225 0 0 1-.06-.217 1.204 1.204 0 0 1-.025-.25c0-.089.006-.175.017-.258a.547.547 0 0 1 .066-.209c.223-.478.492-.925.81-1.341A7.902 7.902 0 0 1 2.733 4.7L1.4 3.35a.697.697 0 0 1-.208-.492.616.616 0 0 1 .208-.492.669.669 0 0 1 .492-.2c.194 0 .358.067.491.2l11.234 11.25c.133.134.2.295.2.484s-.067.35-.2.483a.669.669 0 0 1-.492.2.668.668 0 0 1-.491-.2ZM3.684 5.65a7.708 7.708 0 0 0-.85.925 5.338 5.338 0 0 0-.65 1.075 6.368 6.368 0 0 0 2.366 2.642c1.033.65 2.183.974 3.45.974.189 0 .386-.008.592-.024.205-.017.402-.047.591-.092l-.533-.533c-.1.022-.205.038-.316.05a3.335 3.335 0 0 1-.334.016c-.844 0-1.561-.294-2.15-.883-.59-.589-.884-1.306-.884-2.15 0-.111.009-.217.026-.316.017-.1.036-.206.058-.317L3.683 5.65Z" />
</svg>