<svg version="1.1" xmlns="http://www.w3.org/2000/svg" width="512" height="512" viewBox="0 0 512 512">
<title></title>
<g id="icomoon-ignore">
</g>
<path fill="#000" d="M357.546 64.055c11.897 0.007 23.568 3.331 33.68 9.601 10.099 6.264 18.256 15.22 23.552 25.862l73.385 146.562c1.565 2.963 2.451 6.339 2.451 9.923v127.998c0 16.96-6.739 33.226-18.73 45.219-11.993 11.99-28.259 18.729-45.219 18.729h-341.332c-16.959 0-33.225-6.739-45.218-18.73-11.992-11.993-18.73-28.259-18.73-45.219v-128c0-3.583 0.886-6.959 2.45-9.922l73.389-146.566c5.294-10.641 13.45-19.594 23.55-25.858 10.111-6.27 21.781-9.594 33.678-9.601h203.092zM434.88 234.72l-58.205-116.237c-1.769-3.563-4.499-6.561-7.882-8.659-3.379-2.096-7.277-3.207-11.251-3.211h-203.083c-3.976 0.003-7.874 1.115-11.254 3.211-3.381 2.097-6.111 5.096-7.881 8.659v0.058l-58.202 116.178h93.546c7.115 0 13.76 3.556 17.706 9.476l36.349 54.524h62.556l36.351-54.524c3.945-5.921 10.589-9.476 17.706-9.476h93.546zM63.947 277.281v106.719c0 5.673 2.253 11.113 6.264 15.123 4.010 4.013 9.451 6.265 15.123 6.265h341.332c5.673 0 11.113-2.253 15.123-6.265 4.013-4.010 6.265-9.45 6.265-15.123v-106.719h-95.331l-36.351 54.524c-3.947 5.92-10.591 9.475-17.706 9.475h-85.333c-7.115 0-13.76-3.555-17.706-9.475l-36.349-54.524h-95.331z"></path>
</svg>