<svg width="16" height="16" viewBox="0 0 16 16" fill="none" xmlns="http://www.w3.org/2000/svg"><path d="M7.547 0.683 C 6.081 0.812,4.951 1.204,3.836 1.970 C 3.304 2.336,2.707 2.888,2.293 3.399 C 1.850 3.944,1.373 4.777,1.138 5.413 C 0.810 6.300,0.681 7.032,0.681 8.000 C 0.681 9.210,0.900 10.162,1.428 11.243 C 1.779 11.961,2.304 12.680,2.897 13.254 C 3.275 13.620,3.528 13.824,3.982 14.127 C 5.084 14.862,6.373 15.272,7.747 15.324 C 9.490 15.389,11.253 14.802,12.601 13.707 C 14.155 12.446,15.134 10.603,15.306 8.613 C 15.446 7.003,15.016 5.314,14.127 3.982 C 13.820 3.522,13.618 3.273,13.241 2.884 C 12.087 1.697,10.598 0.952,8.946 0.733 C 8.634 0.692,7.786 0.661,7.547 0.683 M8.947 2.078 C 9.584 2.184,10.054 2.334,10.628 2.613 C 12.217 3.384,13.410 4.859,13.822 6.562 C 13.953 7.099,13.985 7.386,13.985 8.000 C 13.985 8.614,13.953 8.901,13.822 9.438 C 13.499 10.772,12.675 12.006,11.561 12.826 C 10.522 13.590,9.278 14.000,8.000 14.000 C 6.270 14.000,4.592 13.234,3.473 11.934 C 2.717 11.054,2.255 10.050,2.063 8.867 C 1.989 8.418,1.997 7.519,2.078 7.040 C 2.407 5.093,3.618 3.465,5.372 2.612 C 6.050 2.283,6.760 2.086,7.520 2.016 C 7.807 1.990,8.636 2.026,8.947 2.078 M7.741 4.629 C 7.679 4.652,7.568 4.724,7.495 4.790 C 6.972 5.261,7.357 6.130,8.064 6.074 C 8.814 6.013,9.005 5.008,8.333 4.660 C 8.193 4.587,7.896 4.572,7.741 4.629 M7.782 7.375 C 7.616 7.427,7.435 7.604,7.378 7.773 C 7.339 7.888,7.333 8.071,7.333 9.333 C 7.333 10.952,7.331 10.933,7.533 11.134 C 7.793 11.395,8.207 11.395,8.467 11.134 C 8.669 10.933,8.667 10.952,8.667 9.333 C 8.667 7.705,8.670 7.732,8.460 7.529 C 8.276 7.349,8.040 7.296,7.782 7.375 " stroke="none" fill-rule="evenodd"></path></svg>