<svg width="16" height="16" viewBox="0 0 16 16" fill="none" xmlns="http://www.w3.org/2000/svg">
<path fill-rule="evenodd" clip-rule="evenodd" d="M4.70087 2.03334C5.57604 1.15817 6.76303 0.666504 8.0007 0.666504C9.23838 0.666504 10.4254 1.15817 11.3005 2.03334C12.1757 2.90851 12.6674 4.09549 12.6674 5.33317C12.6674 7.56828 13.1454 8.95626 13.586 9.76394C13.8072 10.1695 14.0226 10.4355 14.1722 10.5934C14.2472 10.6726 14.3061 10.7251 14.3416 10.7546C14.3593 10.7694 14.3712 10.7785 14.3763 10.7823C14.3771 10.7829 14.3778 10.7834 14.3782 10.7837C14.6172 10.9479 14.723 11.2482 14.6388 11.5264C14.5536 11.8075 14.2945 11.9998 14.0007 11.9998H2.0007C1.70692 11.9998 1.44777 11.8075 1.36264 11.5264C1.27841 11.2482 1.38417 10.9479 1.62316 10.7837C1.62363 10.7834 1.62427 10.7829 1.62507 10.7823C1.6302 10.7785 1.6421 10.7694 1.65985 10.7546C1.69533 10.7251 1.75425 10.6726 1.82923 10.5934C1.97885 10.4355 2.19424 10.1695 2.41544 9.76394C2.85599 8.95626 3.33404 7.56828 3.33404 5.33317C3.33404 4.09549 3.8257 2.90851 4.70087 2.03334ZM3.43359 10.6665H12.5678C12.5171 10.5834 12.4662 10.4954 12.4154 10.4024C11.856 9.37675 11.334 7.76473 11.334 5.33317C11.334 4.44912 10.9828 3.60127 10.3577 2.97615C9.73261 2.35103 8.88476 1.99984 8.0007 1.99984C7.11665 1.99984 6.2688 2.35103 5.64368 2.97615C5.01856 3.60127 4.66737 4.44912 4.66737 5.33317C4.66737 7.76473 4.14541 9.37675 3.58597 10.4024C3.53523 10.4954 3.48431 10.5834 3.43359 10.6665Z" fill="black"/>
<path fill-rule="evenodd" clip-rule="evenodd" d="M6.51286 13.4232C6.83134 13.2384 7.23929 13.3468 7.42404 13.6653C7.48264 13.7663 7.56676 13.8502 7.66796 13.9085C7.76917 13.9668 7.88391 13.9975 8.0007 13.9975C8.1175 13.9975 8.23224 13.9668 8.33344 13.9085C8.43465 13.8502 8.51877 13.7663 8.57737 13.6653C8.76212 13.3468 9.17007 13.2384 9.48855 13.4232C9.80703 13.6079 9.91545 14.0159 9.7307 14.3344C9.55489 14.6374 9.30255 14.889 8.99893 15.0639C8.69531 15.2388 8.35108 15.3308 8.0007 15.3308C7.65032 15.3308 7.30609 15.2388 7.00248 15.0639C6.69886 14.889 6.44651 14.6374 6.2707 14.3344C6.08596 14.0159 6.19437 13.6079 6.51286 13.4232Z" fill="black"/>
</svg>
