<svg xmlns="http://www.w3.org/2000/svg" width="20" height="20" fill="none" viewBox="0 0 20 20"><path fill="#000" d="M17.5 4h-15A1.5 1.5 0 0 0 1 5.5v9A1.5 1.5 0 0 0 2.5 16h15a1.5 1.5 0 0 0 1.5-1.5v-9A1.5 1.5 0 0 0 17.5 4Zm.25 10.5a.25.25 0 0 1-.25.25h-15a.25.25 0 0 1-.25-.25v-9a.25.25 0 0 1 .25-.25h15a.25.25 0 0 1 .25.25v9ZM6.312 10.437v-.874a.375.375 0 0 0-.375-.376h-.875a.375.375 0 0 0-.375.376v.874c0 .208.168.376.375.376h.875a.375.375 0 0 0 .375-.376Zm3 0v-.874a.375.375 0 0 0-.374-.376h-.876a.375.375 0 0 0-.374.376v.874c0 .208.167.376.375.376h.874a.375.375 0 0 0 .376-.376Zm3 0v-.874a.375.375 0 0 0-.374-.376h-.876a.375.375 0 0 0-.374.376v.874c0 .208.167.376.374.376h.876a.375.375 0 0 0 .374-.376Zm3 0v-.874a.375.375 0 0 0-.374-.376h-.876a.375.375 0 0 0-.374.376v.874c0 .208.167.376.374.376h.876a.375.375 0 0 0 .374-.376ZM4.813 13v-.875a.375.375 0 0 0-.375-.375h-.875a.375.375 0 0 0-.374.375V13c0 .207.167.375.374.375h.876A.375.375 0 0 0 4.813 13Zm12 0v-.875a.375.375 0 0 0-.375-.375h-.875a.375.375 0 0 0-.374.375V13c0 .207.167.375.374.375h.876a.375.375 0 0 0 .375-.375Zm-12-5.125V7a.375.375 0 0 0-.375-.375h-.875A.375.375 0 0 0 3.188 7v.875c0 .207.167.375.374.375h.876a.375.375 0 0 0 .375-.375Zm3 0V7a.375.375 0 0 0-.375-.375h-.875A.375.375 0 0 0 6.188 7v.875c0 .207.168.375.375.375h.875a.375.375 0 0 0 .375-.375Zm3 0V7a.375.375 0 0 0-.374-.375h-.876A.375.375 0 0 0 9.188 7v.875c0 .207.167.375.374.375h.876a.375.375 0 0 0 .374-.375Zm3 0V7a.375.375 0 0 0-.374-.375h-.876a.375.375 0 0 0-.374.375v.875c0 .207.167.375.374.375h.876a.375.375 0 0 0 .374-.375Zm3 0V7a.375.375 0 0 0-.375-.375h-.875a.375.375 0 0 0-.374.375v.875c0 .207.167.375.374.375h.876a.375.375 0 0 0 .375-.375Zm-3.062 4.938v-.5a.375.375 0 0 0-.375-.376h-6.75a.375.375 0 0 0-.375.376v.5c0 .207.168.374.375.374h6.75a.375.375 0 0 0 .375-.374Z"/></svg>