<svg width="16" height="16" viewBox="0 0 16 16" xmlns="http://www.w3.org/2000/svg">
<g opacity="0.7">
<path d="M3.80319 1.52973L5.80319 3.52973C6.06289 3.78943 6.06289 4.21049 5.80319 4.47019C5.5435 4.72989 5.12244 4.72989 4.86274 4.47019L3.99797 3.60541V12.3945L4.86274 11.5298C5.12244 11.2701 5.5435 11.2701 5.80319 11.5298C6.06289 11.7895 6.06289 12.2105 5.80319 12.4702L3.80319 14.4702C3.5435 14.7299 3.12244 14.7299 2.86274 14.4702L0.862743 12.4702C0.603044 12.2105 0.603044 11.7895 0.862743 11.5298C1.12244 11.2701 1.5435 11.2701 1.80319 11.5298L2.66797 12.3945V3.60541L1.80319 4.47019C1.5435 4.72989 1.12244 4.72989 0.862743 4.47019C0.603044 4.21049 0.603044 3.78943 0.862743 3.52973L2.86274 1.52973C3.12244 1.27004 3.5435 1.27004 3.80319 1.52973Z"/>
<path d="M8.0013 2.66659C8.0013 2.29932 8.29903 2.00159 8.6663 2.00159H14.9996C15.3669 2.00159 15.6646 2.29932 15.6646 2.66659C15.6646 3.03386 15.3669 3.33159 14.9996 3.33159H8.6663C8.29903 3.33159 8.0013 3.03386 8.0013 2.66659Z"/>
<path d="M8.6663 7.33496H14.9996C15.3669 7.33496 15.6646 7.63269 15.6646 7.99996C15.6646 8.36723 15.3669 8.66496 14.9996 8.66496H8.6663C8.29903 8.66496 8.0013 8.36723 8.0013 7.99996C8.0013 7.63269 8.29903 7.33496 8.6663 7.33496Z"/>
<path d="M8.6663 12.6683H14.9996C15.3669 12.6683 15.6646 12.966 15.6646 13.3333C15.6646 13.7005 15.3669 13.9983 14.9996 13.9983H8.6663C8.29903 13.9983 8.0013 13.7005 8.0013 13.3333C8.0013 12.966 8.29903 12.6683 8.6663 12.6683Z"/>
</g>
</svg>
