<svg xmlns="http://www.w3.org/2000/svg" width="16" height="16" fill="none" viewBox="0 0 16 16">
    <g fill="#000">
        <path
            d="M11.33.711a4 4 0 0 0-2.813 1.123l-.007.007-1.147 1.14a.667.667 0 0 0 .94.945L9.446 2.79a2.667 2.667 0 0 1 3.772 3.77l-1.996 1.995A2.666 2.666 0 0 1 7.2 8.267a.667.667 0 0 0-1.068.799 4 4 0 0 0 6.032.432l2-2 .008-.008A4 4 0 0 0 11.33.71Z" />
        <path
            d="M6.95 5.34a4 4 0 0 0-3.115 1.162l-2 2-.008.008a4 4 0 0 0 5.656 5.656l.008-.008 1.14-1.14a.667.667 0 0 0-.942-.943l-1.136 1.136a2.666 2.666 0 0 1-3.77-3.77l1.995-1.996a2.667 2.667 0 0 1 4.021.288.667.667 0 0 0 1.068-.799A4 4 0 0 0 6.95 5.34Z" />
    </g>
</svg>