<svg version="1.1" xmlns="http://www.w3.org/2000/svg" width="1024" height="1024" viewBox="0 0 1024 1024">
<title></title>
<g id="icomoon-ignore">
</g>
<path fill="#000" d="M241.067 298.668c0-71.856 28.545-140.769 79.354-191.579s119.723-79.354 191.579-79.354c71.856 0 140.768 28.545 191.578 79.354s79.354 119.723 79.354 191.579v122.667h27.738c73.638 0 133.331 59.695 133.331 133.334v298.669c0 73.632-59.693 133.331-133.331 133.331h-597.336c-73.638 0-133.333-59.699-133.333-133.331v-298.669c0-73.638 59.695-133.334 133.333-133.334h27.734v-122.667zM512 142.934c-41.303 0-80.915 16.408-110.12 45.613s-45.613 68.817-45.613 110.12v122.667h311.464v-122.667c0-41.303-16.403-80.914-45.611-110.12-29.206-29.206-68.817-45.613-110.12-45.613zM544 794.541c37.286-13.184 64-48.742 64-90.541 0-53.018-42.98-95.999-96-95.999s-96 42.981-96 95.999c0 41.798 26.714 77.357 64 90.541v69.459h64v-69.459z"></path>
</svg>