<svg xmlns="http://www.w3.org/2000/svg" width="16" height="16" fill="none" viewBox="0 0 16 16">
  <g fill="#000">
    <path d="M4 .668h6c.176 0 .345.07.47.195l3.334 3.334a.665.665 0 0 1 .194.47v8.667A1.998 1.998 0 0 1 12 15.332H2.667a.665.665 0 1 1 0-1.33H12a.668.668 0 0 0 .668-.668V5.998h-2.001A1.998 1.998 0 0 1 8.668 4V1.998H4a.668.668 0 0 0-.668.669v.666a.665.665 0 1 1-1.33 0v-.666A1.998 1.998 0 0 1 4 .668Zm5.998 1.604V4a.668.668 0 0 0 .669.668h1.728L9.998 2.272Z"/>
    <path d="M4 5.335a1.998 1.998 0 0 1 1.998 1.998v.668H6c.735 0 1.332.597 1.332 1.332v2c0 .736-.597 1.332-1.332 1.332H2a1.332 1.332 0 0 1-1.332-1.332v-2c0-.735.597-1.332 1.332-1.332h.002v-.668A1.998 1.998 0 0 1 4 5.335Zm.668 2.666v-.668a.668.668 0 1 0-1.336 0v.668h1.336Z"/>
  </g>
</svg>
