<svg width="16" height="16" viewBox="0 0 16 16" fill="none" xmlns="http://www.w3.org/2000/svg"><path d="M2.307 2.039 C 1.896 2.115,1.566 2.295,1.253 2.611 C 1.001 2.864,0.853 3.113,0.742 3.467 L 0.680 3.667 0.680 8.000 L 0.680 12.333 0.742 12.533 C 0.856 12.897,0.999 13.135,1.266 13.401 C 1.532 13.667,1.769 13.810,2.133 13.924 L 2.333 13.987 8.000 13.987 L 13.667 13.987 13.867 13.924 C 14.231 13.810,14.468 13.667,14.734 13.401 C 15.001 13.135,15.144 12.897,15.258 12.533 L 15.320 12.333 15.320 8.000 L 15.320 3.667 15.258 3.467 C 15.144 3.102,15.001 2.865,14.734 2.600 C 14.467 2.333,14.220 2.184,13.867 2.075 L 13.667 2.014 8.080 2.009 C 3.589 2.005,2.457 2.011,2.307 2.039 M13.560 3.377 C 13.692 3.422,13.921 3.620,13.919 3.686 C 13.917 3.728,8.058 7.827,8.000 7.827 C 7.942 7.827,2.083 3.728,2.081 3.686 C 2.079 3.624,2.309 3.422,2.429 3.379 C 2.534 3.342,3.131 3.337,7.989 3.335 C 12.987 3.334,13.441 3.337,13.560 3.377 M4.966 7.357 C 6.458 8.401,7.728 9.273,7.789 9.294 C 7.924 9.342,8.052 9.344,8.194 9.301 C 8.259 9.282,9.417 8.488,11.144 7.279 L 13.987 5.289 13.993 8.688 C 13.998 10.894,13.991 12.122,13.974 12.186 C 13.934 12.332,13.806 12.493,13.661 12.578 L 13.533 12.653 8.057 12.660 C 4.445 12.665,2.547 12.658,2.481 12.640 C 2.335 12.601,2.174 12.473,2.088 12.328 L 2.013 12.200 2.006 8.737 L 1.999 5.275 2.126 5.367 C 2.196 5.418,3.474 6.313,4.966 7.357 " stroke="none" fill-rule="evenodd"></path></svg>