<svg xmlns="http://www.w3.org/2000/svg" width="16" height="16" fill="none" viewBox="0 0 16 16">
    <g fill="#000">
        <path
            d="M2.994 1.731h4.791a.665.665 0 1 1 0 1.33H2.994a.765.765 0 0 0-.765.765v9.837l1.725-1.725a.665.665 0 0 1 .47-.195h8.582a.765.765 0 0 0 .765-.765V9.047a.665.665 0 1 1 1.33 0v1.93a2.095 2.095 0 0 1-2.095 2.096H4.7l-2.666 2.666a.665.665 0 0 1-1.135-.47V3.826a2.095 2.095 0 0 1 2.095-2.095Z" />
        <path d="M10.307 3.826a2.665 2.665 0 1 1 5.33 0 2.665 2.665 0 0 1-5.33 0Z" />
    </g>
</svg>