<svg xmlns="http://www.w3.org/2000/svg" width="16" height="16" fill="none" viewBox="0 0 16 16">
    <g fill="#000">
        <path
            d="M1.512 2.345a2.095 2.095 0 0 1 1.482-.614h4.791a.665.665 0 1 1 0 1.33H2.994a.765.765 0 0 0-.765.765v9.837l1.725-1.725a.665.665 0 0 1 .47-.195h8.582a.765.765 0 0 0 .765-.765V9.047a.665.665 0 1 1 1.33 0v1.93a2.096 2.096 0 0 1-2.095 2.096H4.7l-2.666 2.666a.665.665 0 0 1-1.135-.47V3.825c0-.555.22-1.088.613-1.481Z" />
        <path
            d="m15.572 3.435-4.735 4.734c-.26.26-.68.26-.94 0L7.53 5.802a.665.665 0 1 1 .94-.94l1.897 1.897 4.264-4.264a.665.665 0 1 1 .94.94Z" />
    </g>
</svg>