<svg xmlns="http://www.w3.org/2000/svg" width="22" height="22" viewBox="0 0 22 22"><g clip-rule="evenodd"><path d="m1.441 12.508-.875.633h-.04a.29.29 0 0 1-.145-.047 1.096 1.096 0 0 1-.136-.1L.24 12.99a.85.85 0 0 1-.12-.132.297.297 0 0 1-.061-.169.214.214 0 0 1 .052-.15 1.266 1.266 0 0 1 .08-.075c.045-.041.11-.095.195-.162.168-.135.415-.326.74-.574a81.03 81.03 0 0 0 .92-.704l.047-.037.012-.01a.226.226 0 0 1 .159-.062c.141 0 .233.103.29.218.026.053.632 1.41 1.228 2.747l1.077 2.418.118-.251a1257.53 1257.53 0 0 1 2.571-5.43c1.448-3.037 3-6.25 3.397-6.906.092-.161.227-.27.405-.27h10.594v1.052H11.753L4.942 18.59c-.076.133-.235.167-.39.167a.589.589 0 0 1-.142-.015.264.264 0 0 1-.125-.066.122.122 0 0 1-.017-.02.264.264 0 0 1-.003-.006l-.001-.001-.005-.01-.009-.017a1218.866 1218.866 0 0 1-2.427-5.278l-.383-.837Z"/><path d="M16.346 16.778c-.19-.1-.35-.255-.48-.465-.13-.22-.245-.5-.345-.84l-.422-1.469c-.168.301-.327.576-.478.824-.31.51-.605.94-.885 1.29-.2.26-.4.455-.6.585-.2.14-.455.21-.765.21-.37 0-.68-.095-.93-.285-.25-.2-.395-.475-.435-.825.05-.25.155-.445.315-.585a.787.787 0 0 1 .555-.225c.25 0 .445.07.585.21.14.14.27.36.39.66l.051.133.129-.133c.09-.08.17-.17.24-.27.26-.32.51-.645.75-.975.25-.34.49-.685.72-1.035l.094-.137-.664-2.263c-.09-.29-.18-.49-.27-.6a.458.458 0 0 0-.375-.165c-.12 0-.265.055-.435.165-.17.11-.375.34-.615.69l-.42-.39c.24-.39.475-.715.705-.975.23-.27.465-.47.705-.6.24-.13.49-.195.75-.195.39 0 .685.11.885.33.21.22.385.57.525 1.05l.454 1.63c.216-.387.42-.73.61-1.03.32-.51.58-.9.78-1.17.22-.28.436-.485.646-.615.22-.13.485-.195.795-.195.35 0 .625.085.825.255.21.17.345.4.405.69-.02.27-.11.49-.27.66a.744.744 0 0 1-.585.255c-.23 0-.415-.06-.555-.18-.13-.13-.255-.325-.375-.585l-.07-.14-.065.065c-.08.08-.16.17-.24.27-.23.3-.465.61-.705.93-.24.32-.48.65-.72.99a20.23 20.23 0 0 0-.233.352l.638 2.138c.09.33.195.555.315.675.13.12.285.18.465.18.18 0 .365-.08.555-.24.2-.17.425-.425.675-.765l.495.345c-.36.57-.74 1.035-1.14 1.395-.39.35-.815.525-1.275.525a1.5 1.5 0 0 1-.705-.15Z"/></g></svg>