<svg width="22" height="22" viewBox="0 0 22 22" fill="none" xmlns="http://www.w3.org/2000/svg">
<path d="M1.44095 12.5083L0.56582 13.1411H0.525362C0.469844 13.1411 0.418609 13.1158 0.381337 13.0936C0.339795 13.0689 0.293895 13.0344 0.244513 12.9931L0.240358 12.9896C0.194416 12.9476 0.151745 12.9034 0.119736 12.8581C0.0888614 12.8143 0.0585938 12.7564 0.0585938 12.6892C0.0585938 12.6616 0.060111 12.6034 0.0972905 12.5558C0.102764 12.5478 0.107899 12.5417 0.110863 12.5382C0.117629 12.5303 0.125185 12.5225 0.132641 12.5151C0.147657 12.5003 0.167126 12.4826 0.190075 12.4627C0.236248 12.4226 0.301747 12.3687 0.385791 12.3015C0.554171 12.1668 0.801017 11.9755 1.12567 11.728C1.45373 11.4808 1.69836 11.2938 1.86156 11.1678C1.94318 11.1048 2.0045 11.0571 2.04594 11.0245L2.09289 10.9873L2.10472 10.9777C2.14828 10.9357 2.20422 10.9148 2.26392 10.9148C2.40522 10.9148 2.49744 11.0176 2.55437 11.1332C2.5803 11.1858 3.18567 12.5424 3.78189 13.8797L4.85948 16.2978L4.97744 16.047C5.127 15.7291 5.34152 15.2736 5.6014 14.7229C6.12115 13.6216 6.82232 12.1397 7.548 10.6173C8.99591 7.57978 10.5477 4.36761 10.9451 3.71106C11.0374 3.54985 11.1717 3.44141 11.35 3.44141H21.9442V4.4929H11.7525L4.94329 18.5914C4.86687 18.7244 4.70767 18.758 4.55229 18.758C4.50168 18.758 4.45353 18.7539 4.41053 18.7431C4.36828 18.7326 4.32218 18.7134 4.28559 18.6768C4.27628 18.6675 4.27037 18.6585 4.26938 18.657C4.26803 18.6549 4.26683 18.653 4.26592 18.6515C4.26547 18.6507 4.26508 18.6501 4.26479 18.6496L4.26 18.6409L4.25104 18.6232C4.24435 18.6097 4.23517 18.5906 4.22383 18.5668C4.20108 18.519 4.16874 18.4501 4.12828 18.3633C4.04731 18.1895 3.93333 17.9431 3.79749 17.6484C3.52578 17.059 3.16633 16.276 2.80783 15.494C2.44933 14.712 2.09176 13.9309 1.82382 13.3454L1.44095 12.5083Z" fill="black"/>
<path d="M16.3459 16.7783C16.5359 16.8783 16.7709 16.9283 17.0509 16.9283C17.5109 16.9283 17.9359 16.7533 18.3259 16.4033C18.7259 16.0433 19.1059 15.5783 19.4659 15.0083L18.9709 14.6633C18.7209 15.0033 18.4959 15.2583 18.2959 15.4283C18.1059 15.5883 17.9209 15.6683 17.7409 15.6683C17.5609 15.6683 17.4059 15.6083 17.2759 15.4883C17.1559 15.3683 17.0509 15.1433 16.9609 14.8133L16.3231 12.6751C16.4001 12.5561 16.4777 12.4388 16.5559 12.3233C16.7959 11.9833 17.0359 11.6533 17.2759 11.3333C17.5159 11.0133 17.7509 10.7033 17.9809 10.4033C18.0609 10.3033 18.1409 10.2133 18.2209 10.1333L18.2859 10.0683L18.3559 10.2083C18.4759 10.4683 18.6009 10.6633 18.7309 10.7933C18.8709 10.9133 19.0559 10.9733 19.2859 10.9733C19.5259 10.9733 19.7209 10.8883 19.8709 10.7183C20.0309 10.5483 20.1209 10.3283 20.1409 10.0583C20.0809 9.76828 19.9459 9.53828 19.7359 9.36828C19.5359 9.19828 19.2609 9.11328 18.9109 9.11328C18.6009 9.11328 18.3359 9.17828 18.1159 9.30828C17.9059 9.43828 17.6909 9.64328 17.4709 9.92328C17.2709 10.1933 17.0109 10.5833 16.6909 11.0933C16.4996 11.3921 16.2958 11.7356 16.0796 12.1238L15.6259 10.4933C15.4859 10.0133 15.3109 9.66328 15.1009 9.44328C14.9009 9.22328 14.6059 9.11328 14.2159 9.11328C13.9559 9.11328 13.7059 9.17828 13.4659 9.30828C13.2259 9.43828 12.9909 9.63828 12.7609 9.90828C12.5309 10.1683 12.2959 10.4933 12.0559 10.8833L12.4759 11.2733C12.7159 10.9233 12.9209 10.6933 13.0909 10.5833C13.2609 10.4733 13.4059 10.4183 13.5259 10.4183C13.6859 10.4183 13.8109 10.4733 13.9009 10.5833C13.9909 10.6933 14.0809 10.8933 14.1709 11.1833L14.8349 13.4458C14.8036 13.4916 14.7723 13.5375 14.7409 13.5833C14.5109 13.9333 14.2709 14.2783 14.0209 14.6183C13.7809 14.9483 13.5309 15.2733 13.2709 15.5933C13.2009 15.6933 13.1209 15.7833 13.0309 15.8633C12.9894 15.9048 12.9466 15.9489 12.9024 15.9958L12.8509 15.8633C12.7309 15.5633 12.6009 15.3433 12.4609 15.2033C12.3209 15.0633 12.1259 14.9933 11.8759 14.9933C11.6659 14.9933 11.4809 15.0683 11.3209 15.2183C11.1609 15.3583 11.0559 15.5533 11.0059 15.8033C11.0459 16.1533 11.1909 16.4283 11.4409 16.6283C11.6909 16.8183 12.0009 16.9133 12.3709 16.9133C12.6809 16.9133 12.9359 16.8433 13.1359 16.7033C13.3359 16.5733 13.5359 16.3783 13.7359 16.1183C14.0159 15.7683 14.3109 15.3383 14.6209 14.8283C14.7719 14.5797 14.9313 14.305 15.0991 14.0042L15.5209 15.4733C15.6209 15.8133 15.7359 16.0933 15.8659 16.3133C15.9959 16.5233 16.1559 16.6783 16.3459 16.7783Z" fill="black"/>
</svg>
