<svg width="24" height="24" viewBox="0 0 24 24" xmlns:svg="http://www.w3.org/2000/svg">
  <path d="M 12,19.25 A 0.75,0.75 0 0 0 11.25,20 0.75,0.75 0 0 0 12,20.75 h 9 A 0.75,0.75 0 0 0 21.75,20 0.75,0.75 0 0 0 21,19.25 Z"/>
  <path d="m 18.015625,2.2167969 c -0.738144,-0.04342 -1.537006,0.2420843 -2.169922,0.875 L 3.8339844,15.103516 c -0.3262705,0.326495 -0.5659272,0.730739 -0.6953125,1.173828 l -0.8378906,2.871093 c -0.2651454,0.90907 0.6417113,1.815927 1.5507812,1.550782 L 6.7226562,19.861328 C 7.1667835,19.731994 7.5713419,19.493101 7.8984375,19.166016 L 19.908203,7.1542969 c 0.632916,-0.6329157 0.91842,-1.4317783 0.875,-2.1699219 -0.04342,-0.7381436 -0.381899,-1.399477 -0.875,-1.8925781 -0.493101,-0.4931011 -1.154434,-0.8315797 -1.892578,-0.875 z m -0.08789,1.4980469 c 0.325065,0.019121 0.662523,0.180101 0.919922,0.4374999 0.257399,0.257399 0.418379,0.5948574 0.4375,0.9199219 0.01912,0.3250646 -0.06975,0.6537339 -0.4375,1.0214844 L 6.8378906,18.105469 C 6.689179,18.254176 6.5046537,18.363074 6.3027344,18.421875 L 3.8671875,19.132812 4.578125,16.697266 C 4.6370216,16.49557 4.745914,16.312598 4.8945312,16.164062 L 16.90625,4.1523437 c 0.367751,-0.3677505 0.69642,-0.4566215 1.021484,-0.4374999 z"/>
</svg>
