<svg width="24" height="24" viewBox="0 0 24 24" xmlns="http://www.w3.org/2000/svg">
  <path d="m 11.998047,2.25 c -2.7093381,0.010192 -5.3118267,1.0680497 -7.2597658,2.9511719 -0.00262,0.00258 -0.00523,0.00519 -0.00781,0.00781 L 2.46875,7.46875 c -0.2941219,0.2931024 -0.2941219,0.7693976 0,1.0625 0.2931024,0.2941219 0.7693976,0.2941219 1.0625,0 l 2.25,-2.2519531 C 7.4507811,4.6653187 9.6779451,3.7592381 12,3.75 c 3.707112,0 6.428359,2.2138601 7.621094,5.09375 1.192734,2.87989 0.833863,6.369262 -1.78711,8.990234 -5.070663,5.070664 -13.505266,1.784435 -14.0566402,-5.121093 -0.033197,-0.412444 -0.3941479,-0.720083 -0.8066407,-0.6875 -0.4124436,0.0332 -0.7200823,0.394147 -0.6875,0.80664 0.6459362,8.089842 10.7137079,11.960121 16.6113279,6.0625 C 21.94295,15.846113 22.40957,11.654113 21.007812,8.2695313 19.606055,4.8849499 16.311589,2.25 12,2.25 c -6.67e-4,-9e-7 -0.0013,-9e-7 -0.002,0 z"/>
  <path d="m 3.0019531,3.328125 c -0.4142136,0 -0.75,0.3357864 -0.75,0.75 v 3.9277344 c 4.14e-5,0.4141964 0.3358036,0.7499586 0.75,0.75 h 3.9296875 c 0.4142136,0 0.75,-0.3357864 0.75,-0.75 0,-0.4142136 -0.3357864,-0.75 -0.75,-0.75 H 3.7519531 V 4.078125 c 0,-0.4142136 -0.3357864,-0.75 -0.75,-0.75 z"/>
  <path d="m 12,6.125 c -0.483249,0 -0.875,0.3917508 -0.875,0.875 v 5 c -6.9e-5,0.331781 0.1875,0.635068 0.484375,0.783203 l 4,2 c 0.432542,0.215862 0.958175,0.04007 1.173828,-0.392578 0.215862,-0.432542 0.04007,-0.958175 -0.392578,-1.173828 L 12.875,11.458984 V 7 C 12.875,6.5167508 12.483249,6.125 12,6.125 Z"/>
</svg>
