<svg xmlns="http://www.w3.org/2000/svg" width="22" height="22" viewBox="0 0 22 22">
  <g>
    <path d="M6.877 8.217a.68.68 0 0 1 .681-.681h4.086a.68.68 0 1 1 0 1.361H7.558a.681.681 0 0 1-.68-.68Zm.681 2.043h6.81a.681.681 0 0 1 0 1.361h-6.81a.681.681 0 0 1 0-1.362Z"/>
    <path d="M3.789 4.288a2.043 2.043 0 0 1 1.444-.598h11.534a2.043 2.043 0 0 1 2.043 2.043v7.81a2.043 2.043 0 0 1-2.043 2.042h-9.89L4.353 18.11a.681.681 0 0 1-1.163-.481V5.733c0-.542.216-1.062.599-1.445Zm1.444.764a.681.681 0 0 0-.68.68v10.252l1.56-1.561a.68.68 0 0 1 .482-.2h10.172a.681.681 0 0 0 .68-.68v-7.81a.681.681 0 0 0-.68-.681H5.233Z"/>
  </g>
</svg>