<svg width="17" height="24" viewBox="0 0 17 24" xmlns="http://www.w3.org/2000/svg">
  <path
     d="M 2.5869565,1.375 C 1.1655155,1.375 0,2.5405155 0,3.9619565 v 9.3623185 a 0.61594203,0.61594203 0 0 0 0.615942,0.615942 0.61594203,0.61594203 0 0 0 0.6159421,-0.615942 V 3.9619565 c 0,-0.7556814 0.599391,-1.3550724 1.3550724,-1.3550724 H 11.20052 l 4.567596,4.567595 V 19.730072 c 0,0.755682 -0.599391,1.355073 -1.355073,1.355073 H 8.992754 a 0.61594203,0.61594203 0 0 0 -0.615942,0.615942 0.61594203,0.61594203 0 0 0 0.615942,0.615942 h 5.420289 C 15.834485,22.317029 17,21.151514 17,19.730072 V 6.9184783 A 0.61600362,0.61600362 0 0 0 16.819067,6.4834692 L 11.891531,1.5559329 A 0.61600362,0.61600362 0 0 0 11.456522,1.375 Z"/>
  <path
     d="M 10.471014,1.375 A 0.61594203,0.61594203 0 0 0 9.855072,1.990942 v 3.942029 c 0,1.4214411 1.165516,2.5869565 2.586957,2.5869565 h 3.942029 A 0.61594203,0.61594203 0 0 0 17,7.9039855 0.61594203,0.61594203 0 0 0 16.384058,7.2880435 h -3.942029 c -0.755681,0 -1.355072,-0.599391 -1.355072,-1.3550725 V 1.990942 A 0.61594203,0.61594203 0 0 0 10.471014,1.375 Z"/>
  <path
     d="m 8.505774,11.197351 c -0.69387,-0.04082 -1.441862,0.223453 -2.0441572,0.825747 l -4.9371603,4.939085 c -0.30751,0.307341 -0.5325731,0.687509 -0.6544384,1.104846 l -0.8238224,2.829484 c -0.2359064,0.808821 0.5654987,1.610227 1.3743206,1.37432 l 2.8275589,-0.825747 c 0.4173362,-0.121865 0.7975053,-0.346928 1.104846,-0.654438 l 4.9410108,-4.935236 c 0.602293,-0.602295 0.866562,-1.350287 0.825746,-2.044157 -0.04082,-0.693871 -0.358903,-1.321313 -0.825746,-1.788157 C 9.827087,11.556254 9.199645,11.238166 8.505774,11.197351 Z m -0.07121,1.228034 c 0.354627,0.02086 0.71416,0.196383 0.987432,0.469656 0.273273,0.273272 0.448795,0.632805 0.469656,0.987432 0.02086,0.354626 -0.08513,0.71647 -0.469656,1.100996 l -4.9390899,4.93716 c -0.1610153,0.161105 -0.3607287,0.278774 -0.5793705,0.342619 l -2.613904,0.762227 0.7622282,-2.611979 v -0.002 C 2.1158094,18.193517 2.2356909,17.9947 2.3963994,17.83408 L 7.33356,12.894994 c 0.384526,-0.384526 0.74637,-0.490516 1.100996,-0.469655 z"/>
</svg>
