<svg width="17" height="24" viewBox="0 0 17 24" xmlns="http://www.w3.org/2000/svg">
  <path
     d="m 6.5289855,11.230072 a 0.61594203,0.61594203 0 0 0 -0.435009,0.180934 0.61594203,0.61594203 0 0 0 0,0.870017 L 8.61549,14.802536 6.0939765,17.324049 a 0.61594203,0.61594203 0 0 0 0,0.870018 0.61594203,0.61594203 0 0 0 0.8700175,0 l 2.956522,-2.956522 a 0.61600362,0.61600362 0 0 0 0,-0.870018 L 6.963994,11.411006 A 0.61594203,0.61594203 0 0 0 6.5289855,11.230072 Z"/>
  <path
     d="M 10.471014,1.375 A 0.61594203,0.61594203 0 0 0 9.855072,1.990942 v 3.942029 c 0,1.4214411 1.165516,2.5869565 2.586957,2.5869565 h 3.942029 A 0.61594203,0.61594203 0 0 0 17,7.9039855 0.61594203,0.61594203 0 0 0 16.384058,7.2880435 h -3.942029 c -0.755681,0 -1.355072,-0.599391 -1.355072,-1.3550725 V 1.990942 A 0.61594203,0.61594203 0 0 0 10.471014,1.375 Z"/>
  <path
     d="M 2.5869565,1.375 C 1.1655155,1.375 0,2.5405155 0,3.9619565 v 6.8985505 a 0.61594203,0.61594203 0 0 0 0.615942,0.615942 0.61594203,0.61594203 0 0 0 0.6159421,-0.615942 V 3.9619565 c 0,-0.7556814 0.599391,-1.3550724 1.3550724,-1.3550724 H 11.20052 l 4.567596,4.567595 V 19.730072 c 0,0.755682 -0.599391,1.355073 -1.355073,1.355073 H 2.5869565 c -0.7556814,0 -1.3550724,-0.599391 -1.3550724,-1.355073 v -2.956521 c 0,-0.755681 0.599391,-1.355073 1.3550724,-1.355073 H 9.485507 A 0.61594203,0.61594203 0 0 0 10.101449,14.802536 0.61594203,0.61594203 0 0 0 9.485507,14.186594 H 2.5869565 C 1.1655155,14.186594 0,15.352109 0,16.773551 v 2.956521 c 0,1.421442 1.1655155,2.586957 2.5869565,2.586957 H 14.413043 C 15.834485,22.317029 17,21.151514 17,19.730072 V 6.9184783 A 0.61600362,0.61600362 0 0 0 16.819067,6.4834692 L 11.891531,1.5559329 A 0.61600362,0.61600362 0 0 0 11.456522,1.375 Z"/>
</svg>
