<svg width="16" height="16" viewBox="0 0 16 16" xmlns="http://www.w3.org/2000/svg"><path d="M2.973 1.373 C 2.601 1.444,2.270 1.609,2.001 1.858 C 1.705 2.132,1.546 2.382,1.410 2.787 L 1.347 2.973 1.340 8.532 C 1.332 14.763,1.315 14.240,1.530 14.462 C 1.716 14.653,1.965 14.710,2.229 14.623 C 2.347 14.584,2.489 14.451,3.653 13.290 L 4.947 12.001 8.987 11.994 L 13.027 11.987 13.213 11.924 C 13.949 11.676,14.424 11.174,14.618 10.440 C 14.670 10.244,14.670 3.090,14.618 2.893 C 14.425 2.163,13.915 1.630,13.199 1.409 L 13.000 1.347 8.080 1.342 C 4.090 1.339,3.125 1.344,2.973 1.373 M12.887 2.705 C 13.034 2.757,13.163 2.866,13.246 3.008 L 13.320 3.133 13.320 6.667 L 13.320 10.200 13.246 10.326 C 13.163 10.468,13.034 10.576,12.887 10.629 C 12.805 10.658,12.043 10.665,8.692 10.665 C 5.010 10.667,4.582 10.671,4.452 10.710 C 4.315 10.750,4.260 10.799,3.486 11.568 L 2.666 12.385 2.673 7.759 L 2.680 3.133 2.754 3.008 C 2.837 2.866,2.966 2.757,3.113 2.705 C 3.262 2.652,12.738 2.652,12.887 2.705 " ></path></svg>