<?xml version="1.0" encoding="UTF-8"?>
<!-- Generated by Pixelmator Pro 3.5.11 -->
<svg width="16" height="15" viewBox="0 0 16 15" xmlns="http://www.w3.org/2000/svg">
    <path id="Path"  d="M 8 0.66667 C 7.07953 0.66667 6.33333 1.41286 6.33333 2.33334 C 6.33333 3.25381 7.07953 4.00001 8 4.00001 C 8.92047 4.00001 9.66667 3.25381 9.66667 2.33334 C 9.66667 1.41286 8.92047 0.66667 8 0.66667 Z"/>
    <path id="path1"  d="M 8 5.33333 C 7.07953 5.33333 6.33333 6.07952 6.33333 7 C 6.33333 7.92047 7.07953 8.66666 8 8.66666 C 8.92048 8.66666 9.66667 7.92047 9.66667 7 C 9.66667 6.07952 8.92048 5.33333 8 5.33333 Z"/>
    <path id="path2"  d="M 8 10 C 7.07953 10 6.33333 10.7462 6.33333 11.6667 C 6.33333 12.5871 7.07953 13.3333 8 13.3333 C 8.92047 13.3333 9.66667 12.5871 9.66667 11.6667 C 9.66667 10.7462 8.92047 10 8 10 Z"/>
</svg>
