<svg width="16" height="16" viewBox="0 0 16 16" fill="none" xmlns="http://www.w3.org/2000/svg">
<path d="M8 1.66667C7.07953 1.66667 6.33333 2.41286 6.33333 3.33334C6.33333 4.25381 7.07953 5.00001 8 5.00001C8.92047 5.00001 9.66667 4.25381 9.66667 3.33334C9.66667 2.41286 8.92047 1.66667 8 1.66667Z" fill="black"/>
<path d="M8 6.33333C7.07953 6.33333 6.33333 7.07952 6.33333 8C6.33333 8.92047 7.07953 9.66666 8 9.66666C8.92048 9.66666 9.66667 8.92047 9.66667 8C9.66667 7.07952 8.92048 6.33333 8 6.33333Z" fill="black"/>
<path d="M8 11C7.07953 11 6.33333 11.7462 6.33333 12.6667C6.33333 13.5871 7.07953 14.3333 8 14.3333C8.92047 14.3333 9.66667 13.5871 9.66667 12.6667C9.66667 11.7462 8.92047 11 8 11Z" fill="black"/>
</svg>
