<?xml version="1.0" encoding="UTF-8"?>
<!-- Generated by Pixelmator Pro 3.3.8 -->
<svg width="1024" height="1024" viewBox="0 0 1024 1024" xmlns="http://www.w3.org/2000/svg">
    <path id="Path" fill="#000000" fill-rule="evenodd" stroke="none" d="M 512 981.226563 C 501.107859 981.226563 490.216643 977.072096 481.90625 968.761719 L 353.90625 840.761719 C 337.286136 824.140963 337.286136 797.191129 353.90625 780.570313 C 370.527036 763.949557 397.472964 763.949557 414.09375 780.570313 L 469.439453 835.916016 L 469.439453 554.556641 L 188.080078 554.556641 L 243.427734 609.90625 C 260.048472 626.526972 260.048472 653.473028 243.427734 670.09375 C 226.806997 686.714533 199.859003 686.714533 183.238281 670.09375 L 55.238281 542.09375 C 55.238281 542.09375 55.238281 542.091797 55.238281 542.091797 C 54.9976 541.851115 54.760277 541.607692 54.525391 541.361328 C 54.053101 540.866193 53.596157 540.361405 53.152344 539.849609 C 50.867112 537.214335 48.959946 534.365598 47.429688 531.373047 C 47.272917 531.066469 47.11955 530.758729 46.970703 530.449219 C 46.821038 530.138007 46.674857 529.825741 46.533203 529.511719 C 46.41323 529.24576 46.295867 528.978809 46.181641 528.710938 C 46.11676 528.559149 46.053395 528.406596 45.990234 528.253906 C 45.937104 528.125148 45.883844 527.996356 45.832031 527.867188 C 45.754658 527.674777 45.6801 527.480899 45.605469 527.287109 C 45.552246 527.148564 45.498987 527.010077 45.447266 526.871094 C 45.367384 526.656974 45.289407 526.442299 45.212891 526.226563 C 45.183415 526.14325 45.153941 526.060021 45.125 525.976563 C 45.045186 525.746962 44.968551 525.516526 44.892578 525.285156 C 44.854641 525.16936 44.816214 525.053554 44.779297 524.9375 C 44.714149 524.733143 44.650022 524.527951 44.587891 524.322266 C 44.550304 524.19759 44.514934 524.072214 44.478516 523.947266 C 44.407468 523.70396 44.338282 523.459932 44.271484 523.214844 C 44.257835 523.164687 44.243931 523.11465 44.230469 523.064453 C 44.151713 522.771224 44.074565 522.477335 44.001953 522.181641 C 43.993823 522.1485 43.986565 522.115188 43.978516 522.082031 C 43.902639 521.769782 43.830665 521.455527 43.761719 521.140625 C 43.760435 521.13476 43.759094 521.128913 43.757813 521.123047 C 43.685998 520.794375 43.616905 520.464276 43.552734 520.132813 C 43.552248 520.130303 43.55322 520.12751 43.552734 520.125 C 43.490616 519.803822 43.429852 519.481912 43.375 519.158203 C 43.368824 519.121811 43.363503 519.085233 43.357422 519.048828 C 43.308941 518.758118 43.263259 518.4665 43.220703 518.173828 C 43.211787 518.112678 43.203963 518.051415 43.195313 517.990234 C 43.153393 517.692839 43.113864 517.39504 43.078125 517.095703 C 43.037837 516.758265 43.001094 516.419894 42.96875 516.080078 C 42.937085 515.747402 42.908727 515.41299 42.884766 515.078125 C 42.88195 515.039071 42.879661 514.999997 42.876953 514.960938 C 42.856254 514.66011 42.83668 514.359156 42.822266 514.056641 C 42.817128 513.949813 42.814884 513.843185 42.810547 513.736328 C 42.801551 513.51259 42.792638 513.289068 42.787109 513.064453 C 42.778295 512.709814 42.773438 512.354729 42.773438 512 C 42.773438 512 42.773438 511.998047 42.773438 511.998047 C 42.773438 511.99022 42.773433 511.982435 42.773438 511.974609 C 42.773642 511.629643 42.778569 511.284334 42.787109 510.939453 C 42.794149 510.650845 42.805602 510.363328 42.818359 510.076172 C 42.820205 510.035137 42.820302 509.994156 42.822266 509.953125 C 42.838302 509.613999 42.858884 509.276456 42.882813 508.939453 C 42.907044 508.598191 42.936519 508.258913 42.96875 507.919922 C 43.001033 507.580387 43.037912 507.241459 43.078125 506.904297 C 43.117472 506.574401 43.160182 506.245503 43.207031 505.917969 C 43.209086 505.903661 43.210821 505.889306 43.212891 505.875 C 43.260916 505.54167 43.313436 505.209692 43.369141 504.878906 C 43.425963 504.541482 43.48802 504.205772 43.552734 503.871094 C 43.617772 503.534742 43.686858 503.200665 43.759766 502.867188 C 43.832977 502.532324 43.90919 502.199051 43.990234 501.867188 C 44.071493 501.534446 44.157062 501.202669 44.246094 500.873047 C 44.329451 500.564432 44.415776 500.256965 44.505859 499.951172 C 44.521374 499.898428 44.537011 499.845664 44.552734 499.792969 C 44.634477 499.51944 44.719575 499.247751 44.806641 498.976563 C 44.82416 498.921893 44.841629 498.867113 44.859375 498.8125 C 44.956666 498.513657 45.056471 498.215819 45.160156 497.919922 C 45.266336 497.616906 45.375483 497.315465 45.488281 497.015625 C 45.508842 496.960852 45.529987 496.906267 45.550781 496.851563 C 45.655454 496.576797 45.760926 496.303254 45.871094 496.03125 C 45.887708 495.990138 45.905127 495.949273 45.921875 495.908203 C 46.019152 495.670183 46.119262 495.433108 46.220703 495.197266 C 46.291826 495.03156 46.364174 494.866147 46.4375 494.701172 C 46.487412 494.589101 46.537041 494.476792 46.587891 494.365234 C 46.697672 494.123922 46.811258 493.884179 46.925781 493.644531 C 46.95382 493.585962 46.981467 493.527171 47.009766 493.46875 C 47.123864 493.232797 47.240664 492.997921 47.359375 492.763672 C 47.401401 492.680859 47.443777 492.598125 47.486328 492.515625 C 47.60711 492.28114 47.730041 492.047129 47.855469 491.814453 C 47.890624 491.749311 47.925453 491.684078 47.960938 491.619141 C 48.087705 491.386908 48.218192 491.156116 48.349609 490.925781 C 48.389635 490.855681 48.428338 490.784693 48.46875 490.714844 C 48.609661 490.471127 48.754248 490.22976 48.900391 489.988281 C 48.923528 489.950061 48.945496 489.911188 48.96875 489.873047 C 49.130423 489.607811 49.294886 489.34444 49.462891 489.082031 C 49.474771 489.063474 49.488092 489.045881 49.5 489.027344 C 49.655108 488.785908 49.81218 488.545585 49.972656 488.306641 C 50.028313 488.223732 50.084402 488.141088 50.140625 488.058594 C 50.279194 487.855391 50.418067 487.652481 50.560547 487.451172 C 50.616584 487.371933 50.673905 487.293682 50.730469 487.214844 C 50.873199 487.016086 51.017491 486.817919 51.164063 486.621094 C 51.235608 486.524916 51.308524 486.429535 51.380859 486.333984 C 51.510499 486.162933 51.640868 485.991788 51.773438 485.822266 C 51.846519 485.728694 51.920296 485.635911 51.994141 485.542969 C 52.148131 485.349405 52.303089 485.15632 52.460938 484.964844 C 52.539896 484.868939 52.621393 484.774886 52.701172 484.679688 C 52.821991 484.535703 52.941428 484.390797 53.064453 484.248047 C 53.199009 484.091713 53.335879 483.937547 53.472656 483.783203 C 53.578237 483.664204 53.681919 483.543874 53.789063 483.425781 C 54.013663 483.177958 54.242349 482.93386 54.472656 482.691406 C 54.77721 482.370791 55.086071 482.055152 55.400391 481.744141 L 183.238281 353.90625 C 199.859003 337.286199 226.806997 337.286199 243.427734 353.90625 C 260.048472 370.527033 260.048472 397.472967 243.427734 414.09375 L 188.085938 469.4375 L 469.439453 469.4375 L 469.439453 188.083984 L 414.09375 243.427734 C 397.472981 260.048473 370.527019 260.048473 353.90625 243.427734 C 337.286152 226.806935 337.286152 199.859081 353.90625 183.238281 L 481.587891 55.556641 C 482.708539 54.412014 483.893689 53.32923 485.136719 52.316406 C 485.414751 52.089865 485.69667 51.868029 485.980469 51.648438 C 486.263048 51.42979 486.547769 51.213582 486.835938 51.001953 C 487.104244 50.80491 487.375393 50.610773 487.648438 50.419922 C 487.699562 50.384174 487.751488 50.349951 487.802734 50.314453 C 488.03751 50.151879 488.273548 49.991925 488.511719 49.833984 C 488.559912 49.802025 488.607956 49.770024 488.65625 49.738281 C 488.910447 49.571197 489.165877 49.405885 489.423828 49.244141 C 489.459536 49.221759 489.49549 49.2 489.53125 49.177734 C 489.809958 49.004124 490.090081 48.83331 490.373047 48.666016 C 490.674719 48.487662 490.97876 48.313638 491.285156 48.142578 C 491.590021 47.972374 491.897607 47.805443 492.207031 47.642578 C 492.515163 47.480393 492.826135 47.322759 493.138672 47.167969 C 493.449903 47.013825 493.762641 46.863493 494.078125 46.716797 C 499.525633 44.183784 505.596738 42.765625 512 42.765625 C 518.40327 42.765625 524.474366 44.183784 529.921875 46.716797 C 530.23736 46.863493 530.550097 47.013825 530.861328 47.167969 C 531.173865 47.322759 531.484837 47.480393 531.792969 47.642578 C 532.102393 47.805443 532.409979 47.972374 532.714844 48.142578 C 533.02124 48.313638 533.325281 48.487662 533.626953 48.666016 C 533.909919 48.83331 534.190042 49.004124 534.46875 49.177734 C 534.504474 49.199988 534.540518 49.221785 534.576172 49.244141 C 534.834123 49.405885 535.089553 49.571197 535.34375 49.738281 C 535.392049 49.770028 535.44012 49.802047 535.488281 49.833984 C 535.726452 49.991925 535.962491 50.151879 536.197266 50.314453 C 536.248526 50.34995 536.300466 50.384206 536.351563 50.419922 C 536.624607 50.610773 536.895756 50.80491 537.164063 51.001953 C 537.452231 51.213582 537.736952 51.42979 538.019531 51.648438 C 538.30333 51.868029 538.585249 52.089865 538.863281 52.316406 C 540.106311 53.32923 541.291461 54.412014 542.412109 55.556641 L 670.09375 183.238281 C 686.71455 199.859081 686.71455 226.806935 670.09375 243.427734 C 653.473011 260.048473 626.526989 260.048473 609.90625 243.427734 L 554.560547 188.083984 L 554.560547 469.4375 L 835.914063 469.4375 L 780.570313 414.09375 C 763.949541 397.472917 763.949541 370.527083 780.570313 353.90625 C 797.191145 337.286149 824.140947 337.286149 840.761719 353.90625 L 968.669922 481.814453 L 968.761719 481.904297 C 968.762048 481.904626 968.761389 481.90592 968.761719 481.90625 C 969.002797 482.147329 969.240525 482.389404 969.474609 482.634766 C 969.479389 482.639779 969.483504 482.645375 969.488281 482.650391 C 969.618987 482.787524 969.746477 482.926014 969.875 483.064453 C 969.97317 483.170197 970.073026 483.274365 970.169922 483.380859 C 970.182327 483.394507 970.194644 483.408211 970.207031 483.421875 C 970.345172 483.574091 970.479691 483.729094 970.615234 483.882813 C 970.707632 483.987723 970.801201 484.091442 970.892578 484.197266 C 971.070457 484.403006 971.244683 484.610054 971.417969 484.818359 C 971.447836 484.854263 971.478082 484.889803 971.507813 484.925781 C 971.515179 484.934706 971.521938 484.944194 971.529297 484.953125 C 971.704853 485.165923 971.87804 485.380328 972.048828 485.595703 C 972.082452 485.638105 972.116951 485.680156 972.150391 485.722656 C 972.165055 485.741314 972.178726 485.760614 972.193359 485.779297 C 972.3581 485.989397 972.519454 486.201612 972.679688 486.414063 C 972.709877 486.454091 972.741454 486.493093 972.771484 486.533203 C 972.786828 486.553717 972.801099 486.575161 972.816406 486.595703 C 972.992557 486.831873 973.165322 487.069644 973.335938 487.308594 C 973.348646 487.326392 973.362322 487.343514 973.375 487.361328 C 973.381797 487.370885 973.387742 487.381062 973.394531 487.390625 C 973.571804 487.640151 973.746716 487.890138 973.917969 488.142578 C 973.931664 488.162765 973.945328 488.182919 973.958984 488.203125 C 973.969507 488.218698 973.979732 488.234412 973.990234 488.25 C 974.164253 488.508214 974.334213 488.768165 974.501953 489.029297 C 974.508295 489.03917 974.515151 489.048717 974.521484 489.058594 C 974.526839 489.066945 974.53176 489.075629 974.537109 489.083984 C 974.707266 489.349776 974.875401 489.616075 975.039063 489.884766 C 975.048186 489.899745 975.057303 489.9147 975.066406 489.929688 C 975.07384 489.94192 975.080469 489.954557 975.087891 489.966797 C 975.257905 490.247343 975.424942 490.528937 975.587891 490.8125 C 975.754578 491.102569 975.916878 491.39441 976.076172 491.6875 C 976.080491 491.695447 976.08553 491.702988 976.089844 491.710938 C 976.096776 491.723697 976.102455 491.737233 976.109375 491.75 C 976.239453 491.990294 976.369026 492.230425 976.494141 492.472656 C 976.559504 492.599003 976.62337 492.726434 976.6875 492.853516 C 976.771523 493.020306 976.853858 493.187815 976.935547 493.355469 C 977.00748 493.50282 977.078163 493.650529 977.148438 493.798828 C 977.221327 493.952956 977.294301 494.106906 977.365234 494.261719 C 977.450695 494.44784 977.534345 494.634711 977.617188 494.822266 C 977.670696 494.943679 977.723072 495.065693 977.775391 495.1875 C 977.856657 495.376272 977.937024 495.565688 978.015625 495.755859 C 978.06784 495.882489 978.118981 496.009692 978.169922 496.136719 C 978.258793 496.357801 978.346392 496.579834 978.431641 496.802734 C 978.463889 496.887259 978.495653 496.971954 978.527344 497.056641 C 978.623108 497.311936 978.715668 497.568574 978.806641 497.826172 C 978.817757 497.857648 978.830753 497.888412 978.841797 497.919922 C 978.847916 497.937423 978.853279 497.955149 978.859375 497.972656 C 978.966542 498.279713 979.06964 498.58822 979.169922 498.898438 C 979.275391 499.2247 979.376859 499.553157 979.474609 499.882813 C 980.146237 502.147834 980.636339 504.491002 980.923828 506.896484 C 980.924135 506.899053 980.923522 506.901728 980.923828 506.904297 C 980.924839 506.912729 980.924775 506.921254 980.925781 506.929688 C 980.962648 507.240209 980.997202 507.550747 981.027344 507.863281 C 981.034476 507.936753 981.040124 508.010484 981.046875 508.083984 C 981.072826 508.368492 981.096865 508.653355 981.117188 508.939453 C 981.165145 509.614606 981.198756 510.295024 981.214844 510.978516 C 981.222828 511.317728 981.228516 511.656915 981.228516 511.998047 C 981.228516 512.340487 981.222889 512.68098 981.214844 513.021484 C 981.198694 513.70497 981.165206 514.385405 981.117188 515.060547 C 981.098095 515.32899 981.074831 515.596238 981.050781 515.863281 C 981.041942 515.960843 981.034901 516.05874 981.025391 516.15625 C 980.998255 516.436005 980.968074 516.714045 980.935547 516.992188 C 980.931512 517.026689 980.927945 517.061227 980.923828 517.095703 C 980.922655 517.105484 980.921101 517.11522 980.919922 517.125 C 980.880337 517.454523 980.836135 517.782213 980.789063 518.109375 C 980.543413 519.816676 980.195978 521.491445 979.753906 523.126953 C 979.66783 523.445403 979.579565 523.762682 979.486328 524.078125 C 979.482478 524.091151 979.478472 524.104167 979.474609 524.117188 C 979.469995 524.132777 979.46557 524.148478 979.460938 524.164063 C 979.37056 524.467463 979.27661 524.769791 979.179688 525.070313 C 979.176336 525.080703 979.173281 525.091175 979.169922 525.101563 C 979.165502 525.115264 979.160684 525.128881 979.15625 525.142578 C 979.068181 525.413974 978.97811 525.68415 978.884766 525.953125 C 978.84362 526.072003 978.800042 526.190012 978.757813 526.308594 C 978.693494 526.488714 978.629168 526.668666 978.5625 526.847656 C 978.502614 527.008873 978.440812 527.169452 978.378906 527.330078 C 978.32146 527.478731 978.26414 527.62755 978.205078 527.775391 C 978.124972 527.976445 978.042278 528.176893 977.958984 528.376953 C 977.913336 528.486308 977.868798 528.596188 977.822266 528.705078 C 977.735141 528.909482 977.645158 529.113109 977.554688 529.316406 C 977.506103 529.425314 977.457674 529.534156 977.408203 529.642578 C 977.301137 529.87779 977.19165 530.112073 977.080078 530.345703 C 977.063634 530.380138 977.047792 530.414819 977.03125 530.449219 C 977.018596 530.475476 977.004894 530.501117 976.992188 530.527344 C 976.867116 530.786056 976.739992 531.044121 976.609375 531.300781 C 976.597097 531.324907 976.584592 531.34894 976.572266 531.373047 C 976.56417 531.388848 976.554989 531.404132 976.546875 531.419922 C 975.321764 533.808398 973.856923 536.104169 972.150391 538.273438 C 971.10969 539.59633 969.981458 540.871979 968.761719 542.091797 C 968.761388 542.092127 968.762049 542.09342 968.761719 542.09375 L 840.761719 670.09375 C 824.140947 686.714583 797.191145 686.714583 780.570313 670.09375 C 763.949541 653.472978 763.949541 626.527022 780.570313 609.90625 L 835.919922 554.556641 L 554.560547 554.556641 L 554.560547 835.916016 L 609.90625 780.570313 C 626.527005 763.949557 653.472995 763.949557 670.09375 780.570313 C 686.714566 797.191129 686.714566 824.140963 670.09375 840.761719 L 542.09375 968.761719 C 533.783372 977.072096 522.892141 981.226563 512 981.226563 Z"/>
</svg>
