<svg width="16" height="16" viewBox="0 0 16 16" fill="none" xmlns="http://www.w3.org/2000/svg">
<path fill-rule="evenodd" clip-rule="evenodd" d="M5.80356 1.52973C6.06326 1.78943 6.06326 2.21049 5.80356 2.47019L3.60712 4.66663L5.80356 6.86307C6.06326 7.12277 6.06326 7.54382 5.80356 7.80352C5.54386 8.06322 5.12281 8.06322 4.86311 7.80352L2.19644 5.13685C1.93674 4.87716 1.93674 4.4561 2.19644 4.1964L4.86311 1.52973C5.12281 1.27004 5.54386 1.27004 5.80356 1.52973Z" fill="black"/>
<path fill-rule="evenodd" clip-rule="evenodd" d="M2.00167 4.66663C2.00167 4.29936 2.2994 4.00163 2.66667 4.00163H13.3333C13.7006 4.00163 13.9983 4.29936 13.9983 4.66663C13.9983 5.0339 13.7006 5.33163 13.3333 5.33163H2.66667C2.2994 5.33163 2.00167 5.0339 2.00167 4.66663Z" fill="black"/>
<path fill-rule="evenodd" clip-rule="evenodd" d="M10.1964 8.1964C10.4561 7.9367 10.8772 7.9367 11.1369 8.1964L13.8036 10.8631C14.0633 11.1228 14.0633 11.5438 13.8036 11.8035L11.1369 14.4702C10.8772 14.7299 10.4561 14.7299 10.1964 14.4702C9.93674 14.2105 9.93674 13.7894 10.1964 13.5297L12.3929 11.3333L10.1964 9.13685C9.93674 8.87716 9.93674 8.4561 10.1964 8.1964Z" fill="black"/>
<path fill-rule="evenodd" clip-rule="evenodd" d="M2.00167 11.3333C2.00167 10.966 2.2994 10.6683 2.66667 10.6683H13.3333C13.7006 10.6683 13.9983 10.966 13.9983 11.3333C13.9983 11.7006 13.7006 11.9983 13.3333 11.9983H2.66667C2.2994 11.9983 2.00167 11.7006 2.00167 11.3333Z" fill="black"/>
</svg>
