<svg xmlns="http://www.w3.org/2000/svg" width="16" height="16" fill="none" viewBox="0 0 16 16"><g fill="#000"><path fill-rule="evenodd" d="M7.62 2.73c.23.11.38.35.38.6v9.34a.66.66 0 0 1-1.08.52l-3.15-2.53H1.33A.66.66 0 0 1 .67 10V6c0-.37.3-.67.66-.67h2.44l3.15-2.52c.2-.16.47-.19.7-.08Zm-.95 1.99-2.25 1.8a.66.66 0 0 1-.42.15H2v2.67h2c.15 0 .3.05.42.14l2.25 1.8V4.72Z" clip-rule="evenodd"/><path d="M15.14 6.47a.66.66 0 1 0-.94-.94l-1.53 1.53-1.53-1.53a.67.67 0 0 0-.94.94L11.73 8 10.2 9.53a.66.66 0 1 0 .94.94l1.53-1.53 1.53 1.53a.67.67 0 0 0 .94-.94L13.6 8l1.53-1.53Z"/></g></svg>