<svg width="16" height="16" viewBox="0 0 16 16" fill="none" xmlns="http://www.w3.org/2000/svg">
<path fill-rule="evenodd" clip-rule="evenodd" d="M1.69901 14.5685C1.45858 14.8462 1.48874 15.2662 1.76637 15.5066C2.04401 15.747 2.46398 15.7168 2.70441 15.4392L14.7923 1.48072C15.0327 1.20308 15.0026 0.783108 14.7249 0.542679C14.4473 0.302251 14.0273 0.332413 13.7869 0.610048L11.9072 2.78067C11.7325 2.51346 11.5297 2.26293 11.3005 2.03378C10.4254 1.15861 9.23838 0.66695 8.0007 0.66695C6.76303 0.66695 5.57604 1.15861 4.70087 2.03378C3.8257 2.90895 3.33404 4.09594 3.33404 5.33362C3.33404 7.56872 2.85599 8.9567 2.41544 9.76438C2.19424 10.1699 1.97885 10.4359 1.82923 10.5939C1.75425 10.673 1.69533 10.7255 1.65985 10.7551C1.6421 10.7699 1.6302 10.7789 1.62507 10.7827L1.62316 10.7842C1.38417 10.9483 1.27841 11.2486 1.36264 11.5268C1.44777 11.808 1.70692 12.0003 2.0007 12.0003H3.92309L1.69901 14.5685ZM5.07774 10.6669L10.984 3.84668C10.825 3.52769 10.6145 3.23335 10.3577 2.97659C9.73261 2.35147 8.88476 2.00028 8.0007 2.00028C7.11665 2.00028 6.2688 2.35147 5.64368 2.97659C5.01856 3.60172 4.66737 4.44956 4.66737 5.33362C4.66737 7.76518 4.14541 9.3772 3.58597 10.4029C3.53523 10.4959 3.48431 10.5838 3.43359 10.6669H5.07774Z" fill="black"/>
<path d="M14.0007 12.0003H7.29262L8.44727 10.6669H12.5678C12.5171 10.5838 12.4662 10.4959 12.4154 10.4029C12.0139 9.6667 11.6317 8.62848 11.4479 7.20198L12.6741 5.78604C12.7334 7.75825 13.1759 9.01266 13.586 9.76438C13.8072 10.1699 14.0226 10.4359 14.1722 10.5939C14.2472 10.673 14.3061 10.7255 14.3416 10.7551C14.3593 10.7699 14.3712 10.7789 14.3763 10.7827L14.3782 10.7842C14.6172 10.9483 14.723 11.2486 14.6388 11.5268C14.5536 11.808 14.2945 12.0003 14.0007 12.0003Z" fill="black"/>
<path d="M6.51286 13.4236C6.83134 13.2389 7.23929 13.3473 7.42404 13.6658C7.48264 13.7668 7.56676 13.8507 7.66796 13.9089C7.76917 13.9672 7.88391 13.9979 8.0007 13.9979C8.1175 13.9979 8.23224 13.9672 8.33344 13.9089C8.43465 13.8507 8.51877 13.7668 8.57737 13.6658C8.76212 13.3473 9.17007 13.2389 9.48855 13.4236C9.80703 13.6084 9.91545 14.0163 9.7307 14.3348C9.55489 14.6379 9.30255 14.8894 8.99893 15.0643C8.69531 15.2392 8.35108 15.3313 8.0007 15.3313C7.65032 15.3313 7.30609 15.2392 7.00248 15.0643C6.69886 14.8894 6.44651 14.6379 6.2707 14.3348C6.08596 14.0163 6.19437 13.6084 6.51286 13.4236Z" fill="black"/>
</svg>
