<svg xmlns="http://www.w3.org/2000/svg" viewBox="0 0 16 16">
    <g clip-path="url(#a)">
        <path d="M0 6.167v3.666a.92.92 0 0 0 .917.917h2.75l3.016 3.016c.577.577 1.567.165 1.567-.651V2.875c0-.815-.99-1.227-1.567-.65L3.667 5.25H.917A.92.92 0 0 0 0 6.167ZM10.317 5.127a.75.75 0 0 1 .956.1l1.718 1.718 1.719-1.719a.75.75 0 1 1 1.06 1.06L14.05 8.004l1.719 1.719a.75.75 0 1 1-1.06 1.06L12.99 9.064l-1.718 1.719a.75.75 0 1 1-1.06-1.06l1.719-1.719-1.719-1.718a.75.75 0 0 1 .104-1.159Z"/>
    </g>
</svg>