<svg width="16" height="16" viewBox="0 0 16 16" fill="none" xmlns="http://www.w3.org/2000/svg">
<path d="M7.29262 12.0003H14.0007C14.2945 12.0003 14.5536 11.808 14.6388 11.5268C14.723 11.2487 14.6172 10.9484 14.3782 10.7842L14.3763 10.7828C14.3712 10.779 14.3593 10.7699 14.3416 10.7551C14.3061 10.7255 14.2472 10.6731 14.1722 10.5939C14.0226 10.436 13.8072 10.17 13.586 9.76442C13.1759 9.0127 12.7334 7.75829 12.6741 5.78608L11.4479 7.20202C11.6317 8.62852 12.0139 9.66674 12.4154 10.4029C12.4662 10.4959 12.5171 10.5839 12.5678 10.667H8.44727L7.29262 12.0003Z" fill="black"/>
<path d="M10.984 3.84672C10.825 3.52773 10.6145 3.2334 10.3577 2.97664C9.73261 2.35152 8.88476 2.00033 8.0007 2.00033C7.11665 2.00033 6.2688 2.35151 5.64368 2.97664C5.01856 3.60176 4.66737 4.4496 4.66737 5.33366C4.66737 7.76522 4.14541 9.37724 3.58597 10.4029C3.53523 10.4959 3.48431 10.5839 3.43359 10.667H5.07774L3.92309 12.0003H2.0007C1.70692 12.0003 1.44777 11.808 1.36264 11.5268C1.27841 11.2487 1.38417 10.9484 1.62316 10.7842L1.62507 10.7828C1.6302 10.779 1.6421 10.7699 1.65985 10.7551C1.69533 10.7255 1.75425 10.6731 1.82923 10.5939C1.97885 10.436 2.19424 10.17 2.41544 9.76442C2.85599 8.95675 3.33404 7.56876 3.33404 5.33366C3.33404 4.09598 3.8257 2.909 4.70087 2.03383C5.57604 1.15866 6.76303 0.666992 8.0007 0.666992C9.23838 0.666992 10.4254 1.15866 11.3005 2.03383C11.5297 2.26298 11.7325 2.5135 11.9072 2.78071L10.984 3.84672Z" fill="black"/>
<path d="M7.42404 13.6658C7.23929 13.3473 6.83134 13.2389 6.51286 13.4237C6.19437 13.6084 6.08596 14.0164 6.2707 14.3348C6.44651 14.6379 6.69886 14.8895 7.00248 15.0644C7.30609 15.2392 7.65032 15.3313 8.0007 15.3313C8.35108 15.3313 8.69531 15.2392 8.99893 15.0644C9.30255 14.8895 9.55489 14.6379 9.7307 14.3348C9.91545 14.0164 9.80703 13.6084 9.48855 13.4237C9.17007 13.2389 8.76212 13.3473 8.57737 13.6658C8.51877 13.7668 8.43465 13.8507 8.33344 13.909C8.23224 13.9673 8.1175 13.998 8.0007 13.998C7.88391 13.998 7.76917 13.9673 7.66796 13.909C7.56676 13.8507 7.48264 13.7668 7.42404 13.6658Z" fill="black"/>
<path fill-rule="evenodd" clip-rule="evenodd" d="M1.76637 15.5066C1.48874 15.2662 1.45858 14.8462 1.69901 14.5686L13.7869 0.610091C14.0273 0.332456 14.4473 0.302294 14.7249 0.542722C15.0026 0.78315 15.0327 1.20312 14.7923 1.48076L2.70441 15.4393C2.46398 15.7169 2.04401 15.7471 1.76637 15.5066Z" fill="black"/>
</svg>
