<svg xmlns="http://www.w3.org/2000/svg" width="16" height="16" fill="none" viewBox="0 0 16 16"><path fill="#000" d="M1.699 14.568 3.923 12H2.001a.667.667 0 0 1-.378-1.216l.002-.002a2.03 2.03 0 0 0 .204-.189 3.96 3.96 0 0 0 .586-.829c.441-.807.919-2.195.919-4.43a4.667 4.667 0 0 1 8.573-2.554l1.88-2.17a.665.665 0 1 1 1.005.87L2.704 15.44a.665.665 0 0 1-1.005-.87Zm3.379-3.901 5.906-6.82a3.332 3.332 0 0 0-5.34-.87 3.333 3.333 0 0 0-.977 2.356c0 2.432-.522 4.044-1.081 5.07a6.22 6.22 0 0 1-.152.264h1.644ZM14 12H7.294l1.154-1.333h4.12a6.308 6.308 0 0 1-.152-.264c-.401-.737-.783-1.775-.967-3.201l1.226-1.416c.06 1.972.502 3.226.912 3.978.221.406.437.672.586.83a2.028 2.028 0 0 0 .204.189h.002A.667.667 0 0 1 14.001 12Zm-7.487 1.423a.667.667 0 0 1 .911.243.666.666 0 0 0 1.153 0 .667.667 0 0 1 1.154.669 2 2 0 0 1-3.46 0 .667.667 0 0 1 .242-.912Z"/></svg>