<svg width="16" height="16" viewBox="0 0 16 16" fill="none" xmlns="http://www.w3.org/2000/svg">
<path d="M3.33333 2.66502C2.96422 2.66502 2.665 2.96425 2.665 3.33336V12.6667C2.665 13.0358 2.96422 13.335 3.33333 13.335H5.335V2.66502H3.33333ZM3.33333 1.33502H12.6667C13.7703 1.33502 14.665 2.22971 14.665 3.33336V12.6667C14.665 13.7703 13.7703 14.665 12.6667 14.665H3.33333C2.22968 14.665 1.335 13.7703 1.335 12.6667V3.33336C1.335 2.22971 2.22968 1.33502 3.33333 1.33502ZM6.665 2.66502V13.335H12.6667C13.0358 13.335 13.335 13.0358 13.335 12.6667V3.33336C13.335 2.96424 13.0358 2.66502 12.6667 2.66502H6.665Z" fill="black"/>
</svg>
