<svg width="16" height="16" viewBox="0 0 16 16" fill="none" xmlns="http://www.w3.org/2000/svg">
<path d="M3.33333 2.66502C2.96422 2.66502 2.665 2.96425 2.665 3.33336V12.6667C2.665 13.0358 2.96422 13.335 3.33333 13.335H5.335V12.6667C5.335 12.2994 5.63273 12.0017 6 12.0017C6.36727 12.0017 6.665 12.2994 6.665 12.6667V13.335H12.6667C13.0358 13.335 13.335 13.0358 13.335 12.6667V3.33336C13.335 2.96424 13.0358 2.66502 12.6667 2.66502H6.665V3.33336C6.665 3.70062 6.36727 3.99836 6 3.99836C5.63273 3.99836 5.335 3.70062 5.335 3.33336V2.66502H3.33333ZM3.33333 1.33502H12.6667C13.7703 1.33502 14.665 2.22971 14.665 3.33336V12.6667C14.665 13.7703 13.7703 14.665 12.6667 14.665H3.33333C2.22968 14.665 1.335 13.7703 1.335 12.6667V3.33336C1.335 2.22971 2.22968 1.33502 3.33333 1.33502ZM6 5.33502C6.36727 5.33502 6.665 5.63275 6.665 6.00002V6.66669C6.665 7.03396 6.36727 7.33169 6 7.33169C5.63273 7.33169 5.335 7.03396 5.335 6.66669V6.00002C5.335 5.63275 5.63273 5.33502 6 5.33502ZM6 8.66835C6.36727 8.66835 6.665 8.96609 6.665 9.33335V10C6.665 10.3673 6.36727 10.665 6 10.665C5.63273 10.665 5.335 10.3673 5.335 10V9.33335C5.335 8.96609 5.63273 8.66835 6 8.66835Z" fill="black"/>
</svg>
