<svg width="20" height="20" viewBox="0 0 20 20" fill="none" xmlns="http://www.w3.org/2000/svg">
<path fill-rule="evenodd" clip-rule="evenodd" d="M13.9999 3.33334C12.159 3.33334 10.6666 4.82573 10.6666 6.66668C10.6666 8.50763 12.159 10 13.9999 10C15.8409 10 17.3332 8.50763 17.3332 6.66668C17.3332 4.82573 15.8409 3.33334 13.9999 3.33334ZM11.9999 6.66668C11.9999 5.56211 12.8953 4.66668 13.9999 4.66668C15.1045 4.66668 15.9999 5.56211 15.9999 6.66668C15.9999 7.77125 15.1045 8.66668 13.9999 8.66668C12.8953 8.66668 11.9999 7.77125 11.9999 6.66668Z" fill="black"/>
<path d="M11.3334 11.3333C10.4494 11.3333 9.60151 11.6845 8.97639 12.3097C8.35127 12.9348 8.00008 13.7826 8.00008 14.6667V16C8.00008 16.3682 8.29855 16.6667 8.66674 16.6667C9.03493 16.6667 9.33341 16.3682 9.33341 16V14.6667C9.33341 14.1362 9.54412 13.6275 9.9192 13.2525C10.2943 12.8774 10.803 12.6667 11.3334 12.6667H16.6667C17.1972 12.6667 17.7059 12.8774 18.081 13.2525C18.456 13.6275 18.6667 14.1362 18.6667 14.6667V16C18.6667 16.3682 18.9652 16.6667 19.3334 16.6667C19.7016 16.6667 20.0001 16.3682 20.0001 16V14.6667C20.0001 13.7826 19.6489 12.9348 19.0238 12.3097C18.3986 11.6845 17.5508 11.3333 16.6667 11.3333H11.3334Z" fill="black"/>
<path d="M3.31224 11.9197C3.22019 11.5632 2.85658 11.3489 2.50008 11.4409C1.78497 11.6256 1.15143 12.0425 0.698939 12.6262C0.246447 13.2099 0.000627279 13.9274 7.62939e-05 14.6659V15.9997C7.62939e-05 16.3679 0.298553 16.6664 0.666743 16.6664C1.03493 16.6664 1.33341 16.3679 1.33341 15.9997V14.6666C1.3338 14.2236 1.48129 13.7932 1.75273 13.4431C2.02422 13.0928 2.40434 12.8427 2.83341 12.7319C3.18991 12.6399 3.40429 12.2762 3.31224 11.9197Z" fill="black"/>
<path d="M5.16789 3.44058C5.52457 3.34925 5.88775 3.56437 5.97908 3.92105C6.07041 4.27774 5.85529 4.64092 5.49861 4.73225C5.0684 4.8424 4.68709 5.0926 4.41479 5.4434C4.14249 5.79421 3.99469 6.22566 3.99469 6.66975C3.99469 7.11383 4.14249 7.54529 4.41479 7.89609C4.68709 8.2469 5.0684 8.4971 5.49861 8.60725C5.85529 8.69857 6.07041 9.06176 5.97908 9.41844C5.88775 9.77512 5.52457 9.99024 5.16789 9.89891C4.45087 9.71533 3.81536 9.29833 3.36152 8.71365C2.90769 8.12898 2.66135 7.40989 2.66135 6.66975C2.66135 5.9296 2.90769 5.21051 3.36152 4.62584C3.81536 4.04116 4.45087 3.62416 5.16789 3.44058Z" fill="black"/>
<path d="M7.31224 11.9197C7.22019 11.5632 6.85658 11.3489 6.50008 11.4409C5.78497 11.6256 5.15143 12.0425 4.69894 12.6262C4.24645 13.2099 4.00063 13.9274 4.00008 14.6659L4.00008 15.9997C4.00008 16.3679 4.29855 16.6664 4.66674 16.6664C5.03493 16.6664 5.33341 16.3679 5.33341 15.9997V14.6666C5.33381 14.2236 5.48129 13.7932 5.75273 13.4431C6.02422 13.0928 6.40435 12.8427 6.83341 12.7319C7.18991 12.6399 7.40429 12.2762 7.31224 11.9197Z" fill="black"/>
<path d="M9.16789 3.44058C9.52457 3.34925 9.88776 3.56437 9.97908 3.92105C10.0704 4.27774 9.85529 4.64092 9.49861 4.73225C9.0684 4.8424 8.68709 5.0926 8.41479 5.4434C8.14249 5.79421 7.99469 6.22566 7.99469 6.66975C7.99469 7.11383 8.14249 7.54529 8.41479 7.89609C8.68709 8.2469 9.0684 8.4971 9.49861 8.60725C9.85529 8.69857 10.0704 9.06176 9.97908 9.41844C9.88776 9.77512 9.52457 9.99024 9.16789 9.89891C8.45087 9.71533 7.81536 9.29833 7.36152 8.71365C6.90769 8.12898 6.66135 7.40989 6.66135 6.66975C6.66135 5.9296 6.90769 5.21051 7.36152 4.62584C7.81536 4.04116 8.45088 3.62416 9.16789 3.44058Z" fill="black"/>
</svg>
