<svg xmlns="http://www.w3.org/2000/svg" width="16" height="16" fill="none" viewBox="0 0 16 16">
    <path fill="#000"
        d="m4.54 1.167-.058-.154h3.479c1.913 0 3.479.008 3.479.018 0 .052-.365.982-.448 1.142a1.635 1.635 0 0 1-.305.394c-.199.197-.213.206-.331.206h-.122l.016.114c.075.7.148 1.4.218 2.1.111 1.092.204 1.987.207 1.99a4.6 4.6 0 0 0 .143.073c.522.262 1.495 1.211 1.976 1.928.136.203.779 1.302.779 1.331 0 .006-1.074.011-2.386.011H8.8v4.653l-.4.382-.4.382-.063-.049a12.549 12.549 0 0 1-.4-.37l-.337-.32V10.32H4.747c-1.35 0-2.454-.004-2.454-.01.21-.42.43-.834.661-1.243.45-.739 1.293-1.58 1.963-1.958.078-.045.158-.088.238-.13.017-.005.55-4.04.551-4.172.001-.022-.041-.034-.119-.034-.112 0-.133-.012-.314-.184-.288-.274-.337-.37-.733-1.422ZM8.866 2.46l-.016-.113H7.121l-.013.06c-.007.033-.164 1.248-.348 2.7a333.444 333.444 0 0 1-.349 2.708c-.011.06-.067.093-.419.248-.407.171-.78.416-1.099.722l-.213.2h3.195l3.195.002-.038-.054c-.06-.086-.495-.474-.675-.603a4.03 4.03 0 0 0-.548-.285l-.382-.166-.02-.16c-.01-.087-.133-1.28-.272-2.652-.14-1.372-.261-2.545-.269-2.607Z" />
</svg>