<svg xmlns="http://www.w3.org/2000/svg" width="16" height="16" fill="none" viewBox="0 0 16 16">
    <path fill="#000"
        d="M7.07 5.99A2.08 2.08 0 0 1 10 3.07l1.8-1.8a2.08 2.08 0 0 1 2.95 2.93l-1.81 1.81A2.08 2.08 0 0 1 10 8.93l-5.54 5.54a.7.7 0 0 1-.47.2H2.28l-.48.47a.66.66 0 1 1-.94-.94l.47-.48V12c0-.18.08-.35.2-.47l5.54-5.54Zm5.67-3.79-2.27 2.27a.66.66 0 0 1-.94 0l-.27-.27A.75.75 0 0 0 8.2 5.26l.26.26a.7.7 0 0 1 .02.02l1.98 1.98a.52.52 0 0 1 .02.02l.26.26a.75.75 0 0 0 1.06-1.06l-.27-.27a.66.66 0 0 1 0-.94l2.27-2.27a.75.75 0 1 0-1.06-1.06ZM8 6.94l-5.33 5.34v1.06h1.05L9.06 8 8 6.94Z" />
</svg>