<svg width="16" height="16" viewBox="0 0 16 16" fill="none" xmlns="http://www.w3.org/2000/svg"><path d="M7.782 0.709 C 7.706 0.732,7.612 0.791,7.540 0.862 C 7.318 1.077,7.333 0.797,7.333 4.667 C 7.333 8.522,7.319 8.254,7.533 8.467 C 7.793 8.728,8.207 8.728,8.467 8.467 C 8.681 8.254,8.667 8.522,8.667 4.667 C 8.667 0.797,8.682 1.077,8.460 0.862 C 8.276 0.683,8.040 0.629,7.782 0.709 M3.583 3.784 C 3.402 3.830,3.237 3.975,2.867 4.413 C 2.627 4.698,2.253 5.265,2.072 5.619 C 1.347 7.036,1.149 8.659,1.512 10.200 C 1.676 10.898,2.037 11.737,2.423 12.320 C 3.485 13.923,5.131 14.973,7.040 15.266 C 7.435 15.327,8.182 15.347,8.587 15.308 C 10.543 15.121,12.283 14.124,13.422 12.538 C 13.887 11.890,14.265 11.068,14.465 10.271 C 14.877 8.623,14.629 6.842,13.781 5.360 C 13.473 4.822,12.878 4.066,12.624 3.891 C 12.197 3.598,11.629 3.860,11.579 4.374 C 11.559 4.590,11.630 4.744,11.870 5.004 C 12.567 5.756,13.020 6.625,13.213 7.585 C 13.582 9.411,13.020 11.228,11.691 12.507 C 11.253 12.928,10.854 13.206,10.314 13.467 C 9.050 14.076,7.655 14.168,6.320 13.729 C 4.596 13.162,3.279 11.747,2.827 9.974 C 2.638 9.233,2.619 8.365,2.776 7.588 C 2.963 6.663,3.443 5.736,4.100 5.032 C 4.353 4.761,4.410 4.650,4.410 4.427 C 4.410 4.233,4.365 4.121,4.230 3.978 C 4.071 3.808,3.803 3.728,3.583 3.784 " stroke="none" fill-rule="evenodd"></path></svg>