<svg xmlns="http://www.w3.org/2000/svg" width="16" height="16" viewBox="0 0 16 16"><path d="M2.032 4.662a1.636 1.636 0 1 1-1.227.475l1.612-2.725a.409.409 0 1 1 .703.41l-1.088 1.84Zm2.864.475h-.008l1.62-2.725a.409.409 0 0 1 .703.418L6.123 4.662a1.637 1.637 0 1 1-.082 3.273 1.636 1.636 0 0 1-1.145-2.798Zm7.509 4.598a1.636 1.636 0 1 1 2.782 1.154l-1.612 2.732a.41.41 0 1 1-.704-.417l1.088-1.84a1.636 1.636 0 0 1-1.554-1.637v.008Zm-1.31 1.154h.009l-1.62 2.724a.41.41 0 0 1-.704-.409l1.088-1.833A1.636 1.636 0 1 1 9.95 8.1a1.636 1.636 0 0 1 1.146 2.79Z"/></svg>