<svg xmlns="http://www.w3.org/2000/svg" width="16" height="16" fill="none" viewBox="0 0 16 16">
    <g fill="#000">
        <path
            d="M7.137 4.73c.26.26.26.68 0 .94l-.865.865H10a1.998 1.998 0 0 1 1.998 1.998V9.2a.665.665 0 1 1-1.33 0v-.667A.668.668 0 0 0 10 7.865H6.272l.865.864a.665.665 0 1 1-.94.94l-2-2a.663.663 0 0 1-.002-.938l.002-.002 2-2c.26-.26.68-.26.94 0Z" />
        <path
            d="M2.833 1.67h10.334a1.998 1.998 0 0 1 1.998 1.998v7.667a1.998 1.998 0 0 1-1.998 1.998H4.442L1.97 15.805a.665.665 0 0 1-1.135-.47V3.668A1.998 1.998 0 0 1 2.833 1.67Zm-.472 1.526a.668.668 0 0 0-.196.472V13.73l1.531-1.531a.665.665 0 0 1 .47-.195h9a.668.668 0 0 0 .669-.668V3.668A.668.668 0 0 0 13.167 3H2.833a.668.668 0 0 0-.472.196Z" />
    </g>
</svg>