<svg xmlns="http://www.w3.org/2000/svg" width="16" height="16" fill="none" viewBox="0 0 16 16"><g fill="#000"><path d="M2.665 2a.665.665 0 0 0-1.33 0v3.333A.665.665 0 0 0 2 5.998h3.333a.665.665 0 0 0 0-1.33H3.606l.367-.367A5.835 5.835 0 0 1 8 2.665 5.335 5.335 0 1 1 2.665 8a.665.665 0 1 0-1.33 0A6.665 6.665 0 1 0 8 1.335h-.003a7.165 7.165 0 0 0-4.953 2.013l-.379.38V2Z"/><path d="M8.665 4.667a.665.665 0 0 0-1.33 0V8c0 .252.142.482.368.595l2.666 1.333a.665.665 0 1 0 .595-1.19L8.665 7.59V4.667Z"/></g></svg>