<svg width="24" height="24" viewBox="0 0 24 24" xmlns="http://www.w3.org/2000/svg">
  <path
     id="path3"
     style="baseline-shift:baseline;display:inline;overflow:visible;opacity:1;fill:#000000;stroke:none;stroke-width:0;stroke-linecap:butt;stroke-linejoin:miter;enable-background:accumulate;stop-color:#000000;stop-opacity:1"
     d="m 4,8 a 1,1 0 0 0 -1,1 1,1 0 0 0 1,1 h 10.5 c 2.497126,0 4.5,2.002874 4.5,4.5 0,2.497126 -2.002874,4.5 -4.5,4.5 H 11 a 1,1 0 0 0 -1,1 1,1 0 0 0 1,1 h 3.5 C 18.078006,21 21,18.078006 21,14.5 21,10.921994 18.078006,8 14.5,8 Z M 9,3 A 1,1 0 0 0 8.2929688,3.2929688 L 3.3027344,8.2832031 A 1,1 0 0 1 4,8 H 6.4140625 L 9.7070313,4.7070312 a 1,1 0 0 0 0,-1.4140624 A 1,1 0 0 0 9,3 Z M 3.0234375,8.7949219 A 1.0001,1.0001 0 0 0 3,9 1,1 0 0 1 3.0234375,8.7949219 Z M 3,9 A 1.0001,1.0001 0 0 0 3.0234375,9.2050781 1,1 0 0 1 3,9 Z m 0.3027344,0.7167969 4.9902344,4.9902341 a 1,1 0 0 0 1.4140625,0 1,1 0 0 0 0,-1.414062 L 6.4140625,10 H 4 A 1,1 0 0 1 3.3027344,9.7167969 Z" />
</svg>
