<svg width="22" height="22" viewBox="0 0 22 22" xmlns="http://www.w3.org/2000/svg">
<path d="M21.0062 2.29025e-05C21.5561 0.00343336 22 0.45014 22 1C22 3.8103 21.2117 8.7077 16.1477 12.4166C16.2329 12.7742 16.3298 13.2447 16.3968 13.7647C16.4699 14.3321 16.5111 14.9852 16.4513 15.6279C16.3924 16.2619 16.2287 16.9597 15.8321 17.5547L15.8312 17.556C15.1522 18.5709 13.8717 19.1594 12.9772 19.4838C12.4966 19.6582 12.0525 19.7818 11.7293 19.862C11.5486 19.9068 11.3669 19.948 11.184 19.9829C10.894 20.0364 10.5857 19.9568 10.3591 19.7677C10.1316 19.5777 10 19.2965 10 19V14.4142L7.58581 12H3.00001C2.70353 12 2.42235 11.8684 2.23235 11.6409C2.04318 11.4143 1.96352 11.1095 2.01647 10.8193C2.05037 10.6351 2.09295 10.4523 2.13801 10.2707C2.21817 9.94751 2.34184 9.50343 2.51619 9.02275C2.84065 8.12827 3.42907 6.84777 4.44398 6.16883L4.44531 6.16794C5.0403 5.77128 5.73809 5.60759 6.37215 5.54866C7.01483 5.48893 7.66795 5.53008 8.23533 5.6032C8.76093 5.67094 9.23606 5.76922 9.59498 5.8551C10.8058 4.14622 12.3899 2.73052 14.2311 1.71788C16.306 0.576705 18.6383 -0.0146642 21.0062 2.29025e-05ZM15.1949 3.47031C13.4191 4.44705 11.9226 5.86189 10.8479 7.58026L10.8423 7.58924C10.1969 8.59723 9.63904 9.65818 9.17472 10.7605L11.242 12.8277C12.3576 12.3645 13.4322 11.8073 14.4542 11.162C18.6794 8.3238 19.7549 4.61275 19.9592 2.03868C18.2918 2.174 16.6676 2.66036 15.1949 3.47031ZM14.3413 13.551C13.5826 13.9699 12.8009 14.3464 12 14.6786V17.7053C12.0961 17.6739 12.1949 17.6401 12.2953 17.6037C13.1578 17.2908 13.877 16.8795 14.1684 16.4447C14.3115 16.2297 14.4176 15.8976 14.4599 15.4428C14.5014 14.9961 14.4751 14.5004 14.4132 14.0203C14.3923 13.858 14.3677 13.7006 14.3413 13.551ZM7.97969 7.58679C7.49956 7.52492 7.00393 7.49856 6.55724 7.54008C6.1024 7.58235 5.7704 7.68849 5.55538 7.8316C5.12053 8.12294 4.70921 8.84215 4.39632 9.70474C4.35993 9.80508 4.32606 9.9039 4.29468 10H7.32487C7.66134 9.19954 8.0428 8.41893 8.46736 7.66191C8.31231 7.63429 8.14862 7.60857 7.97969 7.58679Z"/>
<path d="M5.00315 13.9885C5.78657 14.0127 6.53346 14.3254 7.10045 14.8666L7.11259 14.8784C8.301 16.0518 8.28576 17.9351 7.26475 19.1443C6.4369 20.1291 5.06878 20.6968 4.00532 21.0194C2.92289 21.3478 1.88408 21.5 1.50001 21.5C1.21169 21.5 0.937394 21.3756 0.747507 21.1586C0.55762 20.9416 0.470619 20.6533 0.508825 20.3675C0.607285 19.6353 0.773136 18.9069 0.976065 18.1975C1.14192 17.6176 1.36397 16.9721 1.65616 16.3739C1.94264 15.7874 2.32942 15.1775 2.8562 14.7348C3.45546 14.23 4.21999 13.9643 5.00315 13.9885ZM3.42466 19.1056C4.4208 18.8034 5.30206 18.3714 5.7343 17.8568L5.73628 17.8545C6.13226 17.386 6.09896 16.6948 5.71327 16.3074C5.50366 16.1103 5.22914 15.9965 4.94132 15.9875C4.65061 15.9786 4.36683 16.0772 4.14443 16.2647L4.1432 16.2657C3.92029 16.4529 3.68226 16.7828 3.45323 17.2517C3.22979 17.7091 3.04559 18.2349 2.89895 18.7475C2.84597 18.9327 2.79865 19.1135 2.7567 19.2854C2.96916 19.2351 3.19459 19.1754 3.42466 19.1056Z"/>
</svg>
