<svg xmlns="http://www.w3.org/2000/svg" width="16" height="16" viewBox="0 0 16 16" fill="none">
  <path d="M14.3333 14.3333C14.5936 14.073 14.5936 13.6509 14.3333 13.3906L10.8761 9.93326C11.7103 8.8592 12.1038 7.5076 11.9765 6.15358C11.8491 4.79958 11.2105 3.54501 10.1907 2.64532C9.1708 1.74563 7.8464 1.26846 6.48708 1.31096C5.12776 1.35346 3.83575 1.91245 2.8741 2.8741C1.91245 3.83575 1.35346 5.12776 1.31096 6.48708C1.26846 7.8464 1.74563 9.1708 2.64532 10.1907C3.54501 11.2105 4.79958 11.8491 6.15358 11.9765C7.5076 12.1038 8.8592 11.7103 9.93326 10.8761L13.3906 14.3333C13.6509 14.5936 14.073 14.5936 14.3333 14.3333ZM6.66662 10.6666C5.8755 10.6666 5.10214 10.432 4.44434 9.99253C3.78655 9.553 3.27386 8.92826 2.97111 8.19733C2.66836 7.46646 2.58914 6.66219 2.74348 5.88626C2.89782 5.11034 3.27879 4.39761 3.8382 3.8382C4.39761 3.27879 5.11034 2.89782 5.88626 2.74348C6.66219 2.58914 7.46646 2.66836 8.19733 2.97111C8.92826 3.27386 9.553 3.78655 9.99253 4.44434C10.432 5.10214 10.6666 5.8755 10.6666 6.66662C10.6654 7.72713 10.2436 8.74386 9.49373 9.49373C8.74386 10.2436 7.72713 10.6654 6.66662 10.6666Z" fill="black" fill-opacity="0.5"/>
</svg>