<svg width="20" height="20" viewBox="0 0 20 20" fill="none" xmlns="http://www.w3.org/2000/svg">
<path fill-rule="evenodd" clip-rule="evenodd" d="M10 7.33498C8.52816 7.33498 7.335 8.52814 7.335 9.99998C7.335 11.4718 8.52816 12.665 10 12.665C11.4718 12.665 12.665 11.4718 12.665 9.99998C12.665 8.52814 11.4718 7.33498 10 7.33498ZM8.665 9.99998C8.665 9.26268 9.2627 8.66498 10 8.66498C10.7373 8.66498 11.335 9.26268 11.335 9.99998C11.335 10.7373 10.7373 11.335 10 11.335C9.2627 11.335 8.665 10.7373 8.665 9.99998Z" fill="black"/>
<path fill-rule="evenodd" clip-rule="evenodd" d="M9.99999 1.33496C9.43785 1.33496 8.89874 1.55827 8.50125 1.95576C8.10375 2.35325 7.88045 2.89237 7.88045 3.45451V3.57655C7.87983 3.68051 7.84893 3.78206 7.79151 3.86876C7.75045 3.93076 7.69711 3.98324 7.63513 4.02315C7.58584 4.03258 7.53764 4.04757 7.49149 4.06794C7.39369 4.1111 7.28521 4.12398 7.18002 4.10491C7.0758 4.08601 6.97956 4.03661 6.90347 3.96299L6.86321 3.92272C6.66636 3.72566 6.4326 3.56932 6.17529 3.46266C5.91798 3.35599 5.64217 3.30109 5.36363 3.30109C5.08509 3.30109 4.80928 3.35599 4.55197 3.46266C4.29477 3.56927 4.0611 3.72552 3.86431 3.92246C3.66737 4.11926 3.51112 4.35292 3.4045 4.61012C3.29784 4.86743 3.24294 5.14324 3.24294 5.42178C3.24294 5.70032 3.29784 5.97613 3.4045 6.23344C3.51117 6.49075 3.66751 6.72451 3.86457 6.92136L3.90483 6.96162C3.97845 7.03771 4.02786 7.13396 4.04675 7.23818C4.06583 7.34336 4.05295 7.45184 4.00979 7.54964C4.00413 7.56246 3.99888 7.57545 3.99405 7.5886C3.95699 7.68935 3.89048 7.77663 3.80317 7.83908C3.71754 7.90032 3.61578 7.93492 3.51066 7.9386H3.45454C2.8924 7.9386 2.35328 8.16191 1.95579 8.5594C1.5583 8.95689 1.33499 9.496 1.33499 10.0581C1.33499 10.6203 1.5583 11.1594 1.95579 11.5569C2.35328 11.9544 2.8924 12.1777 3.45454 12.1777H3.5765C3.68049 12.1783 3.78207 12.2092 3.86879 12.2666C3.95578 12.3242 4.02403 12.406 4.06513 12.5019L4.06797 12.5085C4.11113 12.6063 4.12401 12.7147 4.10494 12.8199C4.08604 12.9242 4.03663 13.0204 3.96301 13.0965L3.92275 13.1367C3.72569 13.3336 3.56935 13.5674 3.46269 13.8247C3.35602 14.082 3.30112 14.3578 3.30112 14.6363C3.30112 14.9149 3.35602 15.1907 3.46269 15.448C3.56935 15.7053 3.72569 15.9391 3.92275 16.1359C4.1195 16.3327 4.35307 16.4889 4.61015 16.5954C4.86746 16.7021 5.14327 16.757 5.42181 16.757C5.70035 16.757 5.97616 16.7021 6.23347 16.5954C6.49078 16.4888 6.72454 16.3324 6.92139 16.1354L6.96164 16.0951C7.03773 16.0215 7.13398 15.9721 7.23821 15.9532C7.34339 15.9341 7.45187 15.947 7.54967 15.9902C7.56249 15.9958 7.57548 16.0011 7.58863 16.0059C7.68938 16.043 7.77666 16.1095 7.83911 16.1968C7.90035 16.2824 7.93495 16.3842 7.93863 16.4893V16.5454C7.93863 17.1076 8.16194 17.6467 8.55943 18.0442C8.95692 18.4417 9.49603 18.665 10.0582 18.665C10.6203 18.665 11.1594 18.4417 11.5569 18.0442C11.9544 17.6467 12.1777 17.1076 12.1777 16.5454V16.4235C12.1783 16.3195 12.2092 16.2179 12.2667 16.1312C12.3243 16.0442 12.4061 15.9759 12.502 15.9348L12.5085 15.932C12.6063 15.8888 12.7148 15.8759 12.82 15.895C12.9242 15.9139 13.0204 15.9633 13.0965 16.0369L13.1368 16.0772C13.3336 16.2741 13.5675 16.4306 13.8247 16.5373C14.082 16.6439 14.3578 16.6988 14.6364 16.6988C14.9149 16.6988 15.1907 16.6439 15.448 16.5373C15.7052 16.4306 15.9389 16.2744 16.1357 16.0775C16.3326 15.8807 16.4889 15.647 16.5955 15.3898C16.7021 15.1325 16.757 14.8567 16.757 14.5781C16.757 14.2996 16.7021 14.0238 16.5955 13.7665C16.4888 13.5092 16.3325 13.2754 16.1354 13.0786L16.0952 13.0383C16.0215 12.9622 15.9721 12.866 15.9532 12.7617C15.9342 12.6566 15.947 12.5481 15.9902 12.4503L15.993 12.4437C16.0341 12.3478 16.1024 12.2661 16.1894 12.2084C16.2761 12.151 16.3777 12.1201 16.4817 12.1195H16.5454C17.1076 12.1195 17.6467 11.8962 18.0442 11.4987C18.4417 11.1012 18.665 10.5621 18.665 9.99996C18.665 9.43782 18.4417 8.89871 18.0442 8.50122C17.6467 8.10372 17.1076 7.88042 16.5454 7.88042H16.4234C16.3194 7.8798 16.2179 7.8489 16.1312 7.79148C16.0692 7.75042 16.0167 7.69708 15.9768 7.6351C15.9674 7.58581 15.9524 7.53761 15.932 7.49146C15.8889 7.39366 15.876 7.28518 15.895 7.17999C15.9139 7.07577 15.9633 6.97953 16.037 6.90344L16.0772 6.86318C16.2742 6.66638 16.4307 6.43245 16.5373 6.17526C16.644 5.91795 16.6989 5.64214 16.6989 5.3636C16.6989 5.08506 16.644 4.80925 16.5373 4.55194C16.4307 4.29485 16.2746 4.06128 16.0778 3.86454C15.8809 3.66748 15.6471 3.51114 15.3898 3.40447C15.1325 3.29781 14.8567 3.24291 14.5782 3.24291C14.2996 3.24291 14.0238 3.29781 13.7665 3.40447C13.5092 3.51114 13.2754 3.66747 13.0786 3.86454L13.0383 3.9048C12.9622 3.97842 12.866 4.02783 12.7618 4.04672C12.6566 4.0658 12.5481 4.05292 12.4503 4.00976L12.4438 4.00691C12.3479 3.96581 12.2661 3.89757 12.2085 3.81058C12.151 3.72385 12.1201 3.62228 12.1195 3.51828V3.45451C12.1195 2.89237 11.8962 2.35325 11.4987 1.95576C11.1012 1.55827 10.5621 1.33496 9.99999 1.33496ZM9.4417 2.89621C9.58977 2.74814 9.79059 2.66496 9.99999 2.66496C10.2094 2.66496 10.4102 2.74814 10.5583 2.89621C10.7064 3.04428 10.7895 3.24511 10.7895 3.45451V3.51996L10.7895 3.52261C10.791 3.88633 10.8988 4.24168 11.0996 4.54493C11.2998 4.84719 11.5837 5.08454 11.9166 5.22797C12.2566 5.37727 12.6336 5.42166 12.9991 5.35539C13.3657 5.2889 13.7041 5.1141 13.9705 4.85353L13.9757 4.84836L14.0193 4.80473C14.0926 4.73132 14.18 4.67283 14.2758 4.63309C14.3717 4.59336 14.4744 4.57291 14.5782 4.57291C14.6819 4.57291 14.7847 4.59336 14.8805 4.63309C14.9764 4.67282 15.0634 4.73106 15.1368 4.80447C15.2102 4.8778 15.2689 4.9654 15.3087 5.06125C15.3484 5.1571 15.3689 5.25984 15.3689 5.3636C15.3689 5.46735 15.3484 5.5701 15.3087 5.66595C15.2689 5.76179 15.2107 5.84887 15.1373 5.9222L15.0934 5.9661L15.0882 5.97131C14.8277 6.2377 14.6529 6.57604 14.5864 6.94271C14.5283 7.2632 14.5552 7.59249 14.6634 7.89801C14.671 7.96059 14.6875 8.02192 14.7124 8.08011C14.8557 8.41442 15.0936 8.69953 15.3968 8.90036C15.7001 9.10119 16.0554 9.20896 16.4192 9.21041L16.4218 9.21042H16.5454C16.7548 9.21042 16.9557 9.2936 17.1037 9.44167C17.2518 9.58974 17.335 9.79056 17.335 9.99996C17.335 10.2094 17.2518 10.4102 17.1037 10.5583C16.9557 10.7063 16.7548 10.7895 16.5454 10.7895L16.48 10.7895L16.4773 10.7895C16.1136 10.791 15.7583 10.8987 15.455 11.0996C15.1527 11.2997 14.9154 11.5837 14.772 11.9166C14.6227 12.2567 14.5783 12.6336 14.6446 12.999C14.7111 13.3657 14.8858 13.704 15.1464 13.9704L15.1516 13.9757L15.1952 14.0193C15.2686 14.0926 15.3271 14.1799 15.3669 14.2758C15.4066 14.3716 15.427 14.4744 15.427 14.5781C15.427 14.6819 15.4066 14.7846 15.3669 14.8805C15.3271 14.9763 15.2689 15.0634 15.1955 15.1367C15.1222 15.2102 15.0346 15.2689 14.9387 15.3086C14.8429 15.3484 14.7401 15.3688 14.6364 15.3688C14.5326 15.3688 14.4299 15.3484 14.334 15.3086C14.2382 15.2689 14.1511 15.2107 14.0778 15.1373L14.0339 15.0934L14.0286 15.0882C13.7622 14.8276 13.4239 14.6528 13.0572 14.5864C12.6918 14.5201 12.3149 14.5645 11.9748 14.7137C11.6419 14.8572 11.358 15.0945 11.1578 15.3968C10.9569 15.7001 10.8492 16.0554 10.8477 16.4191L10.8477 16.4218V16.5454C10.8477 16.7548 10.7645 16.9556 10.6165 17.1037C10.4684 17.2518 10.2676 17.335 10.0582 17.335C9.84877 17.335 9.64795 17.2518 9.49988 17.1037C9.35181 16.9556 9.26863 16.7548 9.26863 16.5454V16.48L9.26845 16.4644C9.2597 16.0903 9.13859 15.7274 8.92089 15.4231C8.70726 15.1244 8.41031 14.8955 8.0674 14.765C7.73153 14.6213 7.36069 14.5793 7.00092 14.6445C6.63426 14.711 6.29592 14.8858 6.02953 15.1464L6.02431 15.1516L5.98067 15.1952C5.90734 15.2686 5.82001 15.3271 5.72416 15.3668C5.62831 15.4066 5.52557 15.427 5.42181 15.427C5.31805 15.427 5.21531 15.4066 5.11946 15.3668C5.02361 15.3271 4.93653 15.2689 4.86321 15.1955C4.7898 15.1221 4.73104 15.0345 4.6913 14.9387C4.65157 14.8428 4.63112 14.7401 4.63112 14.6363C4.63112 14.5326 4.65157 14.4298 4.6913 14.334C4.73104 14.2381 4.78927 14.151 4.86268 14.0777L4.90658 14.0338L4.91174 14.0286C5.17232 13.7622 5.34712 13.4239 5.4136 13.0572C5.47987 12.6917 5.43548 12.3148 5.28618 11.9747C5.14275 11.6418 4.90541 11.3579 4.60315 11.1577C4.2999 10.9569 3.94454 10.8491 3.58083 10.8477H3.45454C3.24514 10.8477 3.04431 10.7645 2.89624 10.6164C2.74818 10.4684 2.66499 10.2675 2.66499 10.0581C2.66499 9.84874 2.74818 9.64792 2.89624 9.49985C3.04431 9.35178 3.24514 9.2686 3.45454 9.2686H3.51999L3.53554 9.26842C3.90967 9.25966 4.27251 9.13856 4.57689 8.92086C4.87557 8.70723 5.10441 8.41028 5.23493 8.06737C5.37867 7.73151 5.42065 7.36066 5.35542 7.00089C5.28893 6.63423 5.11413 6.29588 4.85356 6.0295L4.8484 6.02428L4.80476 5.98064C4.73135 5.90732 4.67286 5.81998 4.63312 5.72413C4.59339 5.62828 4.57294 5.52554 4.57294 5.42178C4.57294 5.31802 4.59339 5.21528 4.63312 5.11943C4.67286 5.02358 4.73109 4.9365 4.8045 4.86318C4.87783 4.78977 4.96543 4.73101 5.06128 4.69127C5.15713 4.65154 5.25987 4.63109 5.36363 4.63109C5.46739 4.63109 5.57013 4.65154 5.66598 4.69127C5.76183 4.73101 5.8489 4.78924 5.92223 4.86265L5.96613 4.90655L5.97134 4.91171C6.23773 5.17228 6.57607 5.34708 6.94274 5.41357C7.26323 5.47168 7.59252 5.44471 7.89804 5.33651C7.96062 5.32894 8.02195 5.31249 8.08014 5.28755C8.41445 5.14427 8.69956 4.90636 8.90039 4.60311C9.10122 4.29987 9.20899 3.94451 9.21044 3.5808L9.21045 3.57814V3.45451C9.21045 3.24511 9.29363 3.04428 9.4417 2.89621Z" fill="black"/>
</svg>
