<?xml version="1.0" encoding="UTF-8"?>
<!-- Generated by Pixelmator Pro 3.3.8 -->
<svg width="1024" height="1024" viewBox="0 0 1024 1024" xmlns="http://www.w3.org/2000/svg">
    <g id="Group">
        <path id="Path" fill="#000000" stroke="none" d="M 371.712006 303.959961 C 347.359375 303.206055 324.526917 315.767517 312.127716 336.740845 C 299.728546 357.714111 299.728546 383.773926 312.127716 404.747192 C 324.526917 425.720459 347.359375 438.281982 371.712006 437.528015 L 372.35199 437.528015 C 396.70462 438.281982 419.537079 425.720459 431.936279 404.747192 C 444.335449 383.773926 444.335449 357.714111 431.936279 336.740845 C 419.537079 315.767517 396.70462 303.206055 372.35199 303.959961 Z M 360.511993 577.880005 C 345.637665 558.744812 318.169556 555.066406 298.784668 569.613831 C 279.39975 584.161255 275.255707 611.562988 289.471985 631.192017 C 400.70401 779.544006 623.296021 779.544006 734.59198 631.192017 C 744.440979 618.521729 746.68927 601.523926 740.473145 586.728699 C 734.257019 571.933472 720.543335 561.642029 704.600464 559.808044 C 688.657593 557.97406 672.965271 564.882751 663.552002 577.880005 C 627.788818 625.581055 571.650757 653.656006 512.031982 653.656006 C 452.413269 653.656006 396.275177 625.581055 360.511993 577.880005 Z"/>
        <path id="Path-copy" fill="#000000" stroke="none" d="M 650.712036 303.959961 C 626.359375 303.206055 603.526917 315.767517 591.127747 336.740845 C 578.728577 357.714111 578.728577 383.773926 591.127747 404.747192 C 603.526917 425.720459 626.359375 438.281982 650.712036 437.528015 L 651.35199 437.528015 C 675.704651 438.281982 698.537109 425.720459 710.936279 404.747192 C 723.335449 383.773926 723.335449 357.714111 710.936279 336.740845 C 698.537109 315.767517 675.704651 303.206055 651.35199 303.959961 Z"/>
    </g>
    <path id="path1" fill="#000000" fill-rule="evenodd" stroke="none" d="M 512 0 C 229.230209 0 0 229.230225 0 512 C 0 794.769775 229.230209 1024 512 1024 C 794.769775 1024 1024 794.769775 1024 512 C 1024 229.230225 794.769775 0 512 0 Z M 88.832001 512 C 88.832001 278.290771 278.290771 88.832031 512 88.832031 C 745.709229 88.832031 935.16803 278.290771 935.16803 512 C 935.16803 745.709229 745.709229 935.16803 512 935.16803 C 278.290771 935.16803 88.832001 745.709229 88.832001 512 Z"/>
</svg>
