<svg xmlns="http://www.w3.org/2000/svg" width="16" height="16" fill="none" viewBox="0 0 16 16"><g fill="#000"><path d="M5.808 4.765h.01a1.044 1.044 0 1 1 0 2.087h-.01a1.044 1.044 0 1 1 0-2.087Zm3.34 1.043c0-.576.467-1.043 1.044-1.043h.01a1.044 1.044 0 0 1 0 2.087h-.01a1.044 1.044 0 0 1-1.044-1.044ZM5.633 9.045a2.959 2.959 0 0 0 4.734 0 .694.694 0 0 1 1.11.833c-1.738 2.318-5.216 2.318-6.955 0a.694.694 0 0 1 1.11-.833Z"/><path d="M8 0a8 8 0 1 1 0 16A8 8 0 0 1 8 0ZM1.388 8a6.612 6.612 0 1 0 13.224 0A6.612 6.612 0 0 0 1.388 8Z"/></g></svg>