<svg xmlns="http://www.w3.org/2000/svg" width="22" height="22" viewBox="0 0 22 22"><g><path d="M11 4.664a6.336 6.336 0 1 0 0 12.673 6.336 6.336 0 0 0 0-12.673ZM3.334 11a7.666 7.666 0 1 1 15.333 0 7.666 7.666 0 0 1-15.333 0Z"/><path d="M7.898 8.902a1 1 0 0 1 1-1h.01a1 1 0 0 1 0 2h-.01a1 1 0 0 1-1-1Zm4.204 0a1 1 0 0 1 1-1h.01a1 1 0 0 1 0 2h-.01a1 1 0 0 1-1-1ZM8.625 11.89a.67.67 0 0 1 .105.11l.004.004.024.03a3.5 3.5 0 0 0 .577.53c.408.296.974.573 1.666.573s1.257-.277 1.665-.573a3.5 3.5 0 0 0 .604-.562v-.001a.672.672 0 0 1 .93-.132c.294.22.354.638.133.931v.001l-.001.001-.002.003-.005.006-.015.019a3.911 3.911 0 0 1-.22.25 4.83 4.83 0 0 1-.642.56c-.554.403-1.389.827-2.447.827-1.059 0-1.893-.424-2.448-.828a4.835 4.835 0 0 1-.814-.75 2.645 2.645 0 0 1-.048-.06l-.015-.018-.005-.006-.001-.003h-.001l.029-.023h-.002l-.028.021a.665.665 0 0 1 .957-.91Z"/></g></svg>