<svg xmlns="http://www.w3.org/2000/svg" width="16" height="16" fill="none" viewBox="0 0 16 16">
    <g fill="#000">
        <path
            d="M6 5.333c0-.368.298-.666.667-.666H10A.667.667 0 1 1 10 6H6.667A.667.667 0 0 1 6 5.333Zm.667 2a.667.667 0 0 0 0 1.334H10a.667.667 0 1 0 0-1.334H6.667Z" />
        <path
            d="M2.667 1.333h8.666a2 2 0 0 1 2 2v7.334h1.334c.368 0 .666.298.666.666v1.334a2 2 0 0 1-2 2h-8a2 2 0 0 1-2-2V6h-2a.667.667 0 0 1-.666-.667v-2a2 2 0 0 1 2-2Zm1.885 1.334a2 2 0 0 1 .115.666v9.334a.667.667 0 0 0 1.333 0v-1.334c0-.368.298-.666.667-.666H12V3.333a.666.666 0 0 0-.667-.666h-6.78ZM7.333 12v.667c0 .229-.039.454-.114.666h6.114a.667.667 0 0 0 .667-.666V12H7.333ZM2.667 2.667A.667.667 0 0 0 2 3.333v1.334h1.333V3.333a.667.667 0 0 0-.666-.666Z" />
    </g>
</svg>