<svg width="16" height="16" viewBox="0 0 16 16" fill="none" xmlns="http://www.w3.org/2000/svg">
<path fill-rule="evenodd" clip-rule="evenodd" d="M4 0.668213C3.47001 0.668213 2.96173 0.878751 2.58696 1.25351C2.2122 1.62827 2.00167 2.13656 2.00167 2.66655V5.33321C2.00167 5.70048 2.2994 5.99821 2.66667 5.99821C3.03394 5.99821 3.33167 5.70048 3.33167 5.33321V2.66655C3.33167 2.48929 3.40208 2.3193 3.52742 2.19396C3.65275 2.06863 3.82275 1.99821 4 1.99821H8.66833V5.33321C8.66833 5.70048 8.96606 5.99821 9.33333 5.99821H12.6683V13.3332C12.6683 13.5105 12.5979 13.6805 12.4726 13.8058C12.3472 13.9311 12.1773 14.0015 12 14.0015H2.66667C2.2994 14.0015 2.00167 14.2993 2.00167 14.6665C2.00167 15.0338 2.2994 15.3315 2.66667 15.3315H12C12.53 15.3315 13.0383 15.121 13.413 14.7462C13.7878 14.3715 13.9983 13.8632 13.9983 13.3332V4.99988C13.9983 4.82351 13.9283 4.65437 13.8036 4.52965L10.1369 0.862987C10.0122 0.738275 9.84304 0.668213 9.66667 0.668213H4ZM9.99833 2.60533V4.66821H12.0612L9.99833 2.60533Z" fill="black"/>
<path fill-rule="evenodd" clip-rule="evenodd" d="M5.52977 7.52974C5.78947 7.27004 6.21053 7.27004 6.47023 7.52974L8.47023 9.52974C8.72992 9.78943 8.72992 10.2105 8.47023 10.4702L6.47023 12.4702C6.21053 12.7299 5.78947 12.7299 5.52977 12.4702C5.27008 12.2105 5.27008 11.7894 5.52977 11.5297L7.05955 9.99996L5.52977 8.47019C5.27008 8.21049 5.27008 7.78943 5.52977 7.52974Z" fill="black"/>
<path fill-rule="evenodd" clip-rule="evenodd" d="M3.80356 7.52974C4.06326 7.78943 4.06326 8.21049 3.80356 8.47019L2.27379 9.99996L3.80356 11.5297C4.06326 11.7894 4.06326 12.2105 3.80356 12.4702C3.54386 12.7299 3.12281 12.7299 2.86311 12.4702L0.863107 10.4702C0.603409 10.2105 0.603409 9.78943 0.863107 9.52974L2.86311 7.52974C3.12281 7.27004 3.54386 7.27004 3.80356 7.52974Z" fill="black"/>
</svg>
