<svg xmlns="http://www.w3.org/2000/svg" width="22" height="22" viewBox="0 0 22 22"><path d="M4.844 2.853h12.3a.85.85 0 1 1 0 1.7h-12.3a.85.85 0 1 1 0-1.7Zm1.613 8.276c0-.368.297-.665.665-.665h7.67a.665.665 0 1 1 0 1.33h-7.67a.665.665 0 0 1-.665-.665Zm0 3c0-.368.297-.665.665-.665h4.67a.665.665 0 1 1 0 1.33h-4.67a.665.665 0 0 1-.665-.665ZM2.994 8.145c0-.734.596-1.33 1.33-1.33v1.33h-1.33Zm0 1.42h1.33v1.33h-1.33v-1.33Zm16.33 0v1.33h-1.33v-1.33h1.33Zm-16.33 2.75h1.33v1.33h-1.33v-1.33Zm16.33 0v1.33h-1.33v-1.33h1.33Zm-16.33 2.75h1.33v1.33h-1.33v-1.33Zm16.33 0v1.33h-1.33v-1.33h1.33Zm-16.33 2.75h1.33v1.33a1.33 1.33 0 0 1-1.33-1.33Zm4.33-11v1.33h-1.33v-1.33h1.33Zm-1.33 11h1.33v1.33h-1.33v-1.33Zm4.33-11v1.33h-1.33v-1.33h1.33Zm-1.33 11h1.33v1.33h-1.33v-1.33Zm4.33-11v1.33h-1.33v-1.33h1.33Zm-1.33 11h1.33v1.33h-1.33v-1.33Zm4.33-11v1.33h-1.33v-1.33h1.33Zm-1.33 11h1.33v1.33h-1.33v-1.33Zm4.33-9.67h-1.33v-1.33c.735 0 1.33.596 1.33 1.33Zm-1.33 9.67h1.33a1.33 1.33 0 0 1-1.33 1.33v-1.33Z"/></svg>