<svg xmlns="http://www.w3.org/2000/svg" width="22" height="22" fill="none" viewBox="0 0 22 22"><path fill="#666" d="M4.85 2.9h12.3a.85.85 0 0 1 0 1.7H4.85a.85.85 0 0 1 0-1.7ZM3 8.55V8.1c0-.136.027-.265.076-.383l.541-.542A.997.997 0 0 1 4 7.1h.5v1.33l-.17.12H3Zm1.33 1.8H3v-.9h1.33v.9ZM3 12.15v-.9h1.33v.9H3Zm1.33 1.8H3v-.9h1.33v.9ZM3 15.75v-.9h1.33v.9H3Zm1.343 1.482-1.305.258A2.009 2.009 0 0 1 3 17.1v-.45h1.33v.45c0 .046.005.09.013.132Zm.267 1.829.258-1.304A.676.676 0 0 0 5 17.77h.5v1.33H5a2 2 0 0 1-.39-.039ZM16.5 17.77h.5c.046 0 .09-.005.132-.013l.258 1.304a2.007 2.007 0 0 1-.39.039h-.5v-1.33Zm1.17-9.22-.17-.12V7.1h.5c.136 0 .265.027.383.075l.541.542A.997.997 0 0 1 19 8.1v.45h-1.33ZM5.5 7.1h1v1.33h-1V7.1Zm2 1.33V7.1h1v1.33h-1Zm2-1.33h1v1.33h-1V7.1Zm2 1.33V7.1h1v1.33h-1Zm2-1.33h1v1.33h-1V7.1Zm2 1.33V7.1h1v1.33h-1ZM19 9.45v.9h-1.33v-.9H19Zm-1.33 1.8H19v.9h-1.33v-.9Zm1.33 1.8v.9h-1.33v-.9H19Zm-1.33 1.8v.9H19v-.9h-1.33Zm1.33 1.8v.45c0 .133-.013.264-.038.39l-1.305-.258a.675.675 0 0 0 .013-.132v-.45H19Zm-3.5 1.12v1.33h-1v-1.33h1Zm-2 1.33h-1v-1.33h1v1.33Zm-2-1.33v1.33h-1v-1.33h1Zm-2 1.33h-1v-1.33h1v1.33Zm-2-1.33v1.33h-1v-1.33h1ZM6 11.434c0-.367.298-.664.665-.664h7.67a.665.665 0 0 1 0 1.33h-7.67A.665.665 0 0 1 6 11.434Zm0 3c0-.367.298-.664.665-.664h4.67a.665.665 0 0 1 0 1.33h-4.67A.665.665 0 0 1 6 14.434Z"/></svg>