<svg xmlns="http://www.w3.org/2000/svg" width="16" height="16" fill="none" viewBox="0 0 16 16">
    <g fill="#000">
        <path
            d="M4.668 8c0-.367.298-.665.665-.665h2.002V5.333a.665.665 0 1 1 1.33 0v2.002h2.002a.665.665 0 0 1 0 1.33H8.665v2.002a.665.665 0 1 1-1.33 0V8.665H5.333A.665.665 0 0 1 4.668 8Z" />
        <path
            d="M1.335 3.333c0-1.103.895-1.998 1.998-1.998h9.334c1.103 0 1.998.895 1.998 1.998v9.334a1.998 1.998 0 0 1-1.998 1.998H3.333a1.998 1.998 0 0 1-1.998-1.998V3.333Zm1.998-.668c-.369 0-.668.3-.668.668v9.334c0 .369.3.668.668.668h9.334c.369 0 .668-.3.668-.668V3.333c0-.369-.3-.668-.668-.668H3.333Z" />
    </g>
</svg>