<svg width="16" height="16" viewBox="0 0 16 16" fill="none" xmlns="http://www.w3.org/2000/svg">
<path d="M8.64972 0.899685C8.52622 0.654635 8.27485 0.5 8 0.5C7.72515 0.5 7.47378 0.654635 7.35028 0.899685L5.27362 5.0203L0.624023 5.68594C0.348495 5.72539 0.119694 5.91832 0.034731 6.18285C-0.0502321 6.44738 0.0235479 6.73711 0.224756 6.92905L3.58038 10.1303L2.78905 14.6492C2.7415 14.9208 2.85222 15.1958 3.07484 15.3591C3.29746 15.5223 3.59354 15.5456 3.83902 15.4192L8 13.2759L12.161 15.4192C12.4065 15.5456 12.7025 15.5223 12.9252 15.3591C13.1478 15.1958 13.2585 14.9208 13.2109 14.6492L12.4196 10.1303L15.7752 6.92905C15.9765 6.73711 16.0502 6.44738 15.9653 6.18285C15.8803 5.91832 15.6515 5.72539 15.376 5.68594L10.7264 5.0203L8.64972 0.899685Z" fill="black"/>
</svg>
