<svg width="16" height="16" viewBox="0 0 16 16" fill="none" xmlns="http://www.w3.org/2000/svg">
<path fill-rule="evenodd" clip-rule="evenodd" d="M8 0.5C8.27485 0.5 8.52622 0.654635 8.64972 0.899685L10.7264 5.0203L15.376 5.68594C15.6515 5.72539 15.8803 5.91832 15.9653 6.18285C16.0502 6.44738 15.9765 6.73711 15.7752 6.92905L12.4196 10.1303L13.2109 14.6492C13.2585 14.9208 13.1478 15.1958 12.9252 15.3591C12.7025 15.5223 12.4065 15.5456 12.161 15.4192L8 13.2759L3.83902 15.4192C3.59354 15.5456 3.29746 15.5223 3.07484 15.3591C2.85222 15.1958 2.7415 14.9208 2.78905 14.6492L3.58038 10.1303L0.224756 6.92905C0.0235479 6.73711 -0.0502321 6.44738 0.034731 6.18285C0.119694 5.91832 0.348495 5.72539 0.624023 5.68594L5.27362 5.0203L7.35028 0.899685C7.47378 0.654635 7.72515 0.5 8 0.5ZM8 2.84114L6.40245 6.01107C6.29556 6.22317 6.09149 6.36969 5.856 6.4034L2.31078 6.91094L4.86618 9.34875C5.04162 9.51611 5.12184 9.75977 5.08006 9.99835L4.47416 13.4585L7.66645 11.8142C7.8757 11.7064 8.1243 11.7064 8.33355 11.8142L11.5258 13.4585L10.9199 9.99835C10.8782 9.75977 10.9584 9.51611 11.1338 9.34875L13.6892 6.91094L10.144 6.4034C9.90851 6.36969 9.70444 6.22317 9.59755 6.01107L8 2.84114Z" fill="black"/>
</svg>
