<svg width="16" height="16" viewBox="0 0 16 16" xmlns="http://www.w3.org/2000/svg"><path d="M10.160 0.694 C 9.569 0.767,9.107 0.907,8.573 1.173 C 8.099 1.410,7.771 1.644,7.397 2.013 C 6.817 2.586,6.433 3.219,6.202 3.983 C 5.941 4.846,5.937 5.810,6.189 6.639 L 6.242 6.811 4.018 9.039 C 2.795 10.264,1.758 11.321,1.714 11.387 C 1.584 11.581,1.471 11.823,1.407 12.045 C 1.322 12.342,1.322 12.832,1.408 13.132 C 1.614 13.846,2.154 14.386,2.868 14.592 C 3.168 14.678,3.658 14.678,3.955 14.593 C 4.192 14.524,4.433 14.409,4.627 14.272 C 4.700 14.220,5.756 13.184,6.973 11.970 L 9.187 9.761 9.320 9.802 C 10.005 10.010,10.848 10.055,11.532 9.920 C 12.175 9.794,12.854 9.502,13.387 9.126 C 13.711 8.896,14.230 8.378,14.459 8.053 C 15.379 6.753,15.583 5.105,15.008 3.630 C 14.886 3.318,14.782 3.181,14.596 3.092 C 14.431 3.012,14.187 3.012,14.025 3.093 C 13.943 3.134,13.510 3.548,12.620 4.436 L 11.333 5.720 10.807 5.193 L 10.280 4.667 11.564 3.380 C 12.403 2.540,12.868 2.055,12.904 1.982 C 12.987 1.814,12.999 1.683,12.947 1.503 C 12.879 1.266,12.724 1.129,12.370 0.994 C 11.820 0.783,11.369 0.694,10.773 0.680 C 10.546 0.674,10.270 0.681,10.160 0.694 M10.973 2.017 C 11.007 2.030,10.797 2.256,10.099 2.957 C 9.078 3.984,9.053 4.017,8.968 4.448 C 8.928 4.649,8.928 4.684,8.968 4.885 C 9.050 5.303,9.101 5.374,9.864 6.136 C 10.626 6.899,10.697 6.950,11.115 7.032 C 11.316 7.072,11.351 7.072,11.552 7.032 C 11.983 6.947,12.016 6.922,13.043 5.901 C 13.744 5.203,13.970 4.993,13.983 5.027 C 14.014 5.108,14.001 5.550,13.958 5.834 C 13.815 6.798,13.264 7.636,12.426 8.164 C 11.758 8.585,10.926 8.754,10.147 8.627 C 9.863 8.581,9.697 8.534,9.373 8.408 C 9.167 8.327,9.111 8.316,8.972 8.327 C 8.883 8.334,8.769 8.360,8.719 8.386 C 8.668 8.411,7.541 9.515,6.213 10.839 C 4.008 13.039,3.789 13.250,3.669 13.290 C 3.376 13.386,3.106 13.322,2.889 13.106 C 2.679 12.896,2.621 12.648,2.709 12.345 C 2.750 12.204,2.817 12.134,5.159 9.787 C 6.484 8.459,7.589 7.332,7.614 7.281 C 7.640 7.231,7.666 7.117,7.673 7.028 C 7.684 6.886,7.672 6.832,7.574 6.574 C 7.065 5.240,7.388 3.830,8.423 2.868 C 8.894 2.431,9.542 2.125,10.200 2.030 C 10.392 2.002,10.911 1.993,10.973 2.017 " ></path></svg>