<svg xmlns="http://www.w3.org/2000/svg" width="24" height="24" viewBox="0 0 24 24">
  <path d="M2.998 6c0-.55.446-.997.997-.997h11a.998.998 0 0 1 0 1.994h-11A.997.997 0 0 1 2.997 6Zm0 6c0-.55.446-.998.997-.998h9a.998.998 0 0 1 0 1.995h-9A.998.998 0 0 1 2.997 12Zm.997 5.003h11a.998.998 0 0 1 0 1.994h-11a.998.998 0 0 1 0-1.994Zm16-12h.01a.998.998 0 0 1 0 1.994h-.01a.997.997 0 1 1 0-1.994Zm0 5.999h.01a.998.998 0 0 1 0 1.995h-.01a.998.998 0 0 1 0-1.995Zm0 6.001h.01a.998.998 0 0 1 0 1.994h-.01a.998.998 0 0 1 0-1.994Z"/>
</svg>
