<svg xmlns="http://www.w3.org/2000/svg" width="16" height="16" fill="none" viewBox="0 0 16 16"><g fill="#000"><path d="M6.667 6.668c.367 0 .665.298.665.665v4a.665.665 0 0 1-1.33 0v-4c0-.367.297-.665.665-.665Zm3.331.665a.665.665 0 1 0-1.33 0v4a.665.665 0 0 0 1.33 0v-4Z"/><path d="M4.668 3.335v-.668c0-.55.268-1.044.612-1.387.343-.343.837-.612 1.387-.612h2.666c.55 0 1.044.269 1.387.612.344.343.612.837.612 1.387v.668H14a.665.665 0 1 1 0 1.33h-.668v8.668c0 .55-.268 1.044-.612 1.387-.343.343-.837.612-1.387.612H4.667c-.55 0-1.044-.269-1.387-.612-.344-.343-.612-.837-.612-1.387V4.665H2a.665.665 0 1 1 0-1.33h2.668Zm1.33-.668v.668h4.004v-.668c0-.117-.066-.29-.222-.447-.157-.156-.33-.222-.447-.222H6.667c-.117 0-.29.066-.447.222-.156.157-.222.33-.222.447Zm-.68 1.998h-1.32v8.668c0 .117.066.29.222.447.157.156.33.222.447.222h6.666c.117 0 .29-.066.447-.222.156-.157.222-.33.222-.447V4.665H5.318Z"/></g></svg>