<svg xmlns="http://www.w3.org/2000/svg" width="20" height="20" fill="none" viewBox="0 0 20 20"><path fill="#000" fill-rule="evenodd" d="M8.976 12.31a3.333 3.333 0 0 1 2.357-.977h5.334A3.334 3.334 0 0 1 20 14.667V16a.667.667 0 0 1-1.333 0v-1.333a2 2 0 0 0-2-2h-5.334a2 2 0 0 0-2 2V16A.667.667 0 1 1 8 16v-1.333c0-.884.351-1.732.976-2.357ZM14 4.667a2 2 0 1 0 0 4 2 2 0 0 0 0-4Zm-3.333 2a3.333 3.333 0 1 1 6.666 0 3.333 3.333 0 0 1-6.666 0ZM3.312 11.92a.667.667 0 0 0-.812-.48A3.334 3.334 0 0 0 0 14.667V16a.667.667 0 0 0 1.333 0v-1.333a2 2 0 0 1 1.5-1.935.667.667 0 0 0 .48-.812ZM5.98 3.921a.667.667 0 0 0-.812-.48 3.333 3.333 0 0 0 0 6.458.667.667 0 0 0 .33-1.292 2 2 0 0 1 0-3.875.667.667 0 0 0 .481-.81Zm1.332 7.999a.667.667 0 0 0-.812-.48A3.334 3.334 0 0 0 4 14.667V16a.667.667 0 0 0 1.333 0v-1.333a2 2 0 0 1 1.5-1.935.667.667 0 0 0 .48-.812ZM9.98 3.921a.667.667 0 0 0-.812-.48 3.333 3.333 0 0 0 0 6.458.667.667 0 0 0 .33-1.292 2 2 0 0 1 0-3.875.667.667 0 0 0 .481-.81Z" clip-rule="evenodd"/></svg>