<?xml version="1.0" encoding="UTF-8" standalone="no"?>
<svg
   width="20"
   height="20"
   viewBox="0 0 20 20"
   version="1.1"
   id="svg9"
   xmlns="http://www.w3.org/2000/svg"
   xmlns:svg="http://www.w3.org/2000/svg">
  <defs
     id="defs13" />
  <g
     id="users (1) 1">
    <path
       style="color:#000000;fill:#7575bd;stroke-linecap:round;stroke-linejoin:round;-inkscape-stroke:none"
       d="m 11.333984,11.333984 c -0.883795,0 -1.7324971,0.349798 -2.3574215,0.97461 a 0.66673168,0.66673168 0 0 0 0,0.002 C 8.3516133,12.935496 8,13.782177 8,14.666016 V 16 A 0.66666502,0.66666502 0 0 0 8.6660156,16.666016 0.66666502,0.66666502 0 0 0 9.3339844,16 v -1.333984 c 0,-0.53076 0.2106876,-1.038813 0.5859375,-1.414063 0.3752541,-0.375187 0.8834591,-0.585937 1.4140621,-0.585937 h 5.332032 c 0.530728,0 1.038791,0.210741 1.414062,0.585937 0.375234,0.375234 0.585938,0.883271 0.585938,1.414063 V 16 A 0.66666502,0.66666502 0 0 0 19.333984,16.666016 0.66666502,0.66666502 0 0 0 20,16 v -1.333984 c 0,-0.883808 -0.351598,-1.730504 -0.976563,-2.355469 a 0.66673168,0.66673168 0 0 0 0,-0.002 c -0.624928,-0.624804 -1.473551,-0.97461 -2.357421,-0.97461 z"
       id="Vector" />
    <path
       style="color:#000000;fill:#7575bd;stroke-linecap:round;stroke-linejoin:round;-inkscape-stroke:none"
       d="m 14,3.3339844 c -1.833006,0 -3.333984,1.4989829 -3.333984,3.3320312 C 10.666016,8.4990639 12.166997,10 14,10 15.833079,10 17.333984,8.4990639 17.333984,6.6660156 17.333984,4.8329673 15.833082,3.3339844 14,3.3339844 Z m 0,1.3320312 c 1.112516,0 2,0.8875313 2,2 0,1.1124688 -0.887481,2 -2,2 -1.112394,0 -2,-0.8875312 -2,-2 0,-1.1124687 0.887609,-2 2,-2 z"
       id="Vector_2" />
    <path
       style="color:#000000;fill:#7575bd;stroke-linecap:round;stroke-linejoin:round;-inkscape-stroke:none"
       d="M 2.5,11.439453 C 1.7849312,11.624067 1.1516189,12.041488 0.69921875,12.625 0.24679543,13.208658 5.5118671e-4,13.9276 0,14.666016 V 16 A 0.66666502,0.66666502 0 0 0 0.66601562,16.666016 0.66666502,0.66666502 0 0 0 1.3339844,16 v -1.333984 c 3.308e-4,-0.443184 0.1464008,-0.872315 0.4179687,-1.222657 0.2715791,-0.350286 0.6529213,-0.602104 1.0820313,-0.71289 A 0.66666502,0.66666502 0 0 0 3.3125,11.919922 0.66666502,0.66666502 0 0 0 2.5,11.439453 Z"
       id="Vector_3" />
    <path
       style="color:#000000;fill:#7575bd;stroke-linecap:round;stroke-linejoin:round;-inkscape-stroke:none"
       d="M 5.1679687,3.4394531 C 4.4510548,3.6230029 3.8150956,4.0404152 3.3613281,4.625 2.9075561,5.2095907 2.6621094,5.92989 2.6621094,6.6699219 c 0,0.7400318 0.2454467,1.458378 0.6992187,2.0429687 0.4537675,0.5845849 1.0897267,1.0019971 1.8066406,1.1855469 A 0.66666502,0.66666502 0 0 0 5.9785156,9.4179688 0.66666502,0.66666502 0 0 0 5.4980469,8.6074219 C 5.0677419,8.4972519 4.6864343,8.2473786 4.4140625,7.8964844 4.1416953,7.545596 3.9941406,7.1141088 3.9941406,6.6699219 c 0,-0.444187 0.1475547,-0.8756741 0.4199219,-1.2265625 C 4.6864343,5.0924651 5.0677419,4.8425918 5.4980469,4.7324219 a 0.66666502,0.66666502 0 0 0 0.4804687,-0.8125 0.66666502,0.66666502 0 0 0 -0.8105469,-0.4804688 z"
       id="Vector_4" />
    <path
       style="color:#000000;fill:#7575bd;stroke-linecap:round;stroke-linejoin:round;-inkscape-stroke:none"
       d="M 6.5,11.439453 C 5.7849312,11.624067 5.1516189,12.041488 4.6992187,12.625 4.2467879,13.208661 4.0005499,13.927603 4,14.666016 V 16 A 0.66666502,0.66666502 0 0 0 4.6660156,16.666016 0.66666502,0.66666502 0 0 0 5.3339844,16 v -1.333984 c 3.3e-4,-0.443187 0.1464003,-0.872318 0.4179687,-1.222657 0.2715791,-0.350286 0.6529213,-0.602104 1.0820313,-0.71289 A 0.66666502,0.66666502 0 0 0 7.3125,11.919922 0.66666502,0.66666502 0 0 0 6.5,11.439453 Z"
       id="Vector_5" />
    <path
       style="color:#000000;fill:#7575bd;stroke-linecap:round;stroke-linejoin:round;-inkscape-stroke:none"
       d="M 9.1679688,3.4394531 C 8.4510548,3.6230029 7.8150956,4.0404152 7.3613281,4.625 6.9075561,5.2095907 6.6621094,5.92989 6.6621094,6.6699219 c 0,0.7400318 0.2454467,1.458378 0.6992187,2.0429687 0.4537675,0.5845849 1.0897267,1.0019971 1.8066407,1.1855469 A 0.66666502,0.66666502 0 0 0 9.9785156,9.4179688 0.66666502,0.66666502 0 0 0 9.4980469,8.6074219 C 9.0677419,8.4972519 8.6864343,8.2473786 8.4140625,7.8964844 8.1416953,7.545596 7.9941406,7.1141088 7.9941406,6.6699219 c 0,-0.444187 0.1475547,-0.8756741 0.4199219,-1.2265625 C 8.6864343,5.0924651 9.0677419,4.8425918 9.4980469,4.7324219 a 0.66666502,0.66666502 0 0 0 0.4804687,-0.8125 0.66666502,0.66666502 0 0 0 -0.8105468,-0.4804688 z"
       id="Vector_6" />
  </g>
</svg>
