<svg xmlns="http://www.w3.org/2000/svg" width="16" height="16" viewBox="0 0 16 16">
  <path
     d="M 1.4545455,0.72727285 C 0.6613071,0.72727285 0,1.3885799 0,2.1818183 v 2.1818182 c 0,0.7932384 0.6613071,1.4545454 1.4545455,1.4545454 v 7.2727271 c 0,1.196371 0.9854475,2.181818 2.1818181,2.181818 h 1.4545455 c 0.4016616,0 0.7272727,-0.325611 0.7272727,-0.727272 0,-0.401662 -0.3256111,-0.727273 -0.7272727,-0.727273 H 3.6363636 c -0.4102759,0 -0.7272727,-0.316997 -0.7272727,-0.727273 V 5.8181819 H 13.090909 v 7.2727271 c 0,0.410276 -0.316997,0.727273 -0.727273,0.727273 h -1.454545 c -0.401662,0 -0.727273,0.325611 -0.727273,0.727273 0,0.401661 0.325611,0.727272 0.727273,0.727272 h 1.454545 c 1.196371,0 2.181819,-0.985447 2.181819,-2.181818 V 5.8181819 C 15.338693,5.8181819 16,5.1568749 16,4.3636365 V 2.1818183 C 16,1.3885799 15.338693,0.72727285 14.545455,0.72727285 Z m 0,1.45454545 H 14.545455 V 4.3636365 H 13.818182 2.1818182 1.4545455 Z M 8,7.2727271 c -0.192873,2.9e-5 -0.377837,0.07667 -0.514204,0.213069 l -2.1818187,2.181818 c -0.2839442,0.284005 -0.2839442,0.7444029 0,1.0284089 0.2840051,0.283944 0.7444037,0.283944 1.0284087,0 L 7.272727,9.7556821 v 4.7897729 c 0,0.401661 0.325611,0.727272 0.727273,0.727272 0.401662,0 0.727273,-0.325611 0.727273,-0.727272 V 9.7556821 l 0.940341,0.9403409 c 0.284005,0.283944 0.744403,0.283944 1.028409,0 0.283944,-0.284006 0.283944,-0.7444039 0,-1.0284089 L 8.514204,7.4857961 C 8.377837,7.3493991 8.192873,7.2727561 8,7.2727271 Z"/>
</svg>
