<svg xmlns="http://www.w3.org/2000/svg" width="16" height="16" fill="none" viewBox="0 0 16 16">
  <g fill="#000">
    <path d="M8 9.335a1.332 1.332 0 1 1 0 2.663 1.332 1.332 0 0 1 0-2.663Z"/>
    <path d="M7.31 2.09a2.668 2.668 0 0 0-1.978 2.577v1.335h7.335c1.103 0 1.998.894 1.998 1.998v5.333a1.998 1.998 0 0 1-1.998 1.999H3.333a1.998 1.998 0 0 1-1.998-1.999V8c0-1.104.895-1.998 1.998-1.998h.669V4.667a3.998 3.998 0 0 1 7.46-2 .665.665 0 0 1-1.151.666 2.668 2.668 0 0 0-3.002-1.244ZM2.664 8v5.333c0 .37.3.669.668.669h9.334c.369 0 .668-.3.668-.669V8c0-.37-.3-.668-.668-.668H3.333A.668.668 0 0 0 2.665 8Z"/>
  </g>
</svg>
