<svg xmlns="http://www.w3.org/2000/svg" width="16" height="16" fill="none" viewBox="0 0 16 16">
  <g fill="#000">
    <path d="M2.587 1.254A1.998 1.998 0 0 1 4 .668h5.448c.53 0 1.038.211 1.413.586l1.61 1.61a.665.665 0 0 1-.941.94l-1.61-1.61a.669.669 0 0 0-.472-.196H4a.668.668 0 0 0-.668.669v10.667a.668.668 0 0 0 .668.668h8a.668.668 0 0 0 .668-.668.665.665 0 0 1 1.33 0A1.998 1.998 0 0 1 12 15.332H4a1.998 1.998 0 0 1-1.998-1.998V2.667c0-.53.21-1.038.585-1.413Z"/>
    <path d="m14.692 7.977-3.115 3.113a1.333 1.333 0 0 1-.57.337l-1.913.558a.334.334 0 0 1-.413-.413l.558-1.913c.062-.215.178-.411.337-.57l3.113-3.114a1.416 1.416 0 0 1 2.003 2.002Zm-9.359 3.358h1.199a.665.665 0 1 1 0 1.33H5.333a.665.665 0 0 1 0-1.33Z"/>
  </g>
</svg>
