<svg width="16" height="16" viewBox="0 0 16 16" fill="none" xmlns="http://www.w3.org/2000/svg">
  <path d="M9.77778 4.42543C11.0933 5.08321 12 6.43432 12 8.00766C12 9.58099 11.0933 10.9321 9.77778 11.581V4.42543Z" fill="black"/>
  <path d="M9.77778 1.47432V1.29655C9.77778 0.736545 10.3378 0.336546 10.8533 0.54099C13.8667 1.68766 16 4.59432 16 8.00766C16 11.421 13.8667 14.3277 10.8533 15.4743C10.3378 15.6699 9.77778 15.2788 9.77778 14.7188V14.541C9.77778 14.2032 9.99111 13.9099 10.3111 13.7854C12.6044 12.8699 14.2222 10.621 14.2222 8.00766C14.2222 5.39432 12.6044 3.14543 10.3111 2.22988C10 2.10543 9.77778 1.8121 9.77778 1.47432Z" fill="black"/>
  <path d="M0 9.83335V6.16669C0 5.66252 0.4125 5.25002 0.916667 5.25002H3.66667L6.6825 2.22502C7.26 1.64752 8.25 2.06002 8.25 2.87585V13.115C8.25 13.9309 7.26 14.3434 6.6825 13.7659L3.66667 10.75H0.916667C0.4125 10.75 0 10.3375 0 9.83335Z" fill="black"/>
</svg>
