<svg xmlns="http://www.w3.org/2000/svg" width="15" height="16" fill="none" viewBox="0 0 15 16">
    <path fill="#000"
        d="M1.135.195 14.47 13.528a.665.665 0 0 1-.94.94L8.843 9.785h-.856l.001 4.66-.797.759-.798-.759.001-4.66H1.722c0-.402.187-.87.478-1.33l.071-.11c.553-.825 1.42-1.607 2.114-1.917l.125-.977L.195 1.135a.665.665 0 0 1 .94-.94ZM12.56 9.784h-.088L4.008 1.32a1.688 1.688 0 0 1-.106-.543V.464h6.545v.313c0 .3-.133.708-.344 1.017l-.021.03c-.148.208-.332.366-.534.407a.522.522 0 0 1-.103.011l.428 4.185c.572.247 1.538 1.138 2.143 2.027l.013.02c.316.47.53.939.53 1.31Z" />
</svg>