<svg xmlns="http://www.w3.org/2000/svg" width="16" height="16" viewBox="0 0 16 16">
  <path d="M10 1.335a3.332 3.332 0 1 1 0 6.663 3.332 3.332 0 0 1 0-6.663Zm2.002 3.332a2.002 2.002 0 1 0-4.004 0 2.002 2.002 0 0 0 4.004 0ZM12 9.335a3.332 3.332 0 0 1 3.332 3.332V14a.665.665 0 0 1-1.33 0v-1.333A2.002 2.002 0 0 0 12 10.665H8a2.002 2.002 0 0 0-2.002 2.002V14a.665.665 0 0 1-1.33 0v-1.333A3.332 3.332 0 0 1 8 9.335h4Zm-8.023.585a.665.665 0 0 1-.477.81 2.002 2.002 0 0 0-1.502 1.937V14a.665.665 0 1 1-1.33 0v-1.334a3.332 3.332 0 0 1 2.5-3.223.665.665 0 0 1 .81.477Zm1.191-8.478a.665.665 0 1 1 .33 1.289 2.002 2.002 0 0 0 0 3.878.665.665 0 0 1-.33 1.288 3.332 3.332 0 0 1 0-6.455Z"/>
</svg>
