<svg width="16" height="16" viewBox="0 0 16 16" fill="none" xmlns="http://www.w3.org/2000/svg"><path d="M5.256 1.363 C 4.180 1.488,3.186 2.187,2.698 3.162 C 2.451 3.655,2.343 4.115,2.343 4.667 C 2.343 6.262,3.428 7.591,5.013 7.936 C 5.345 8.009,6.031 8.004,6.360 7.927 C 7.360 7.694,8.165 7.081,8.611 6.213 C 8.880 5.688,8.991 5.239,8.991 4.667 C 8.991 2.663,7.258 1.131,5.256 1.363 M6.037 2.705 C 6.441 2.783,6.763 2.953,7.068 3.253 C 7.445 3.624,7.627 4.035,7.648 4.567 C 7.662 4.928,7.632 5.123,7.517 5.411 C 7.202 6.203,6.428 6.699,5.573 6.659 C 4.745 6.619,4.048 6.092,3.768 5.293 C 3.699 5.095,3.694 5.051,3.694 4.667 C 3.694 4.283,3.699 4.238,3.768 4.040 C 3.878 3.728,4.034 3.481,4.265 3.253 C 4.750 2.777,5.385 2.580,6.037 2.705 M13.116 4.709 C 12.949 4.760,12.769 4.937,12.711 5.106 C 12.674 5.215,12.667 5.355,12.667 5.951 L 12.667 6.667 11.965 6.667 C 11.144 6.667,11.058 6.682,10.873 6.862 C 10.605 7.123,10.602 7.536,10.866 7.801 C 11.051 7.986,11.128 8.000,11.951 8.000 L 12.667 8.000 12.667 8.715 C 12.667 9.539,12.681 9.616,12.866 9.801 C 13.127 10.062,13.540 10.062,13.801 9.801 C 13.986 9.616,14.000 9.539,14.000 8.715 L 14.000 8.000 14.715 8.000 C 15.539 8.000,15.616 7.986,15.801 7.801 C 16.065 7.536,16.062 7.123,15.794 6.862 C 15.608 6.682,15.523 6.667,14.702 6.667 L 14.000 6.667 14.000 5.951 C 14.000 5.120,13.987 5.049,13.794 4.862 C 13.609 4.683,13.373 4.629,13.116 4.709 M3.040 9.350 C 3.003 9.356,2.883 9.373,2.773 9.389 C 2.663 9.405,2.459 9.455,2.320 9.499 C 1.114 9.883,0.232 10.922,0.039 12.187 C 0.011 12.367,0.000 12.679,0.000 13.269 C -0.000 14.217,0.010 14.278,0.199 14.467 C 0.519 14.787,1.060 14.701,1.258 14.300 C 1.318 14.177,1.320 14.148,1.336 13.240 C 1.349 12.491,1.361 12.277,1.396 12.157 C 1.607 11.433,2.152 10.904,2.882 10.717 C 3.096 10.662,8.237 10.662,8.451 10.717 C 9.188 10.906,9.710 11.417,9.940 12.173 C 9.972 12.276,9.985 12.518,9.997 13.240 C 10.013 14.148,10.015 14.177,10.076 14.300 C 10.273 14.701,10.815 14.787,11.134 14.467 C 11.323 14.278,11.333 14.217,11.333 13.269 C 11.333 12.339,11.308 12.093,11.172 11.664 C 10.802 10.504,9.873 9.671,8.639 9.395 C 8.461 9.355,8.155 9.350,5.773 9.345 C 4.307 9.342,3.077 9.344,3.040 9.350 " stroke="none" fill-rule="evenodd"></path></svg>