<svg xmlns="http://www.w3.org/2000/svg" width="20" height="20" fill="none" viewBox="0 0 20 20"><path fill="#000" d="M3.867.583a2.451 2.451 0 1 1 0 4.903 2.451 2.451 0 0 1 0-4.903Zm-.951 2.452a.951.951 0 1 0 1.902 0 .951.951 0 0 0-1.902 0Zm-.824 3.237H5.64c.645 0 1.154.396 1.467.88.313.487.466 1.1.466 1.703a.75.75 0 0 1-1.5 0c0-.37-.097-.688-.227-.89a.569.569 0 0 0-.159-.172.158.158 0 0 0-.037-.02l-.01-.001H2.092l-.01.002a.158.158 0 0 0-.037.019.569.569 0 0 0-.158.172c-.13.202-.227.52-.227.89a.75.75 0 0 1-1.5 0c0-.603.153-1.216.466-1.703.313-.484.822-.88 1.466-.88ZM9.75 2.736a.75.75 0 0 1 .75-.75h8a.75.75 0 0 1 0 1.5h-8a.75.75 0 0 1-.75-.75Zm.75 3.25h6a.75.75 0 0 1 0 1.5h-6a.75.75 0 0 1 0-1.5ZM.626 17.152c.313-.484.822-.88 1.466-.88H5.64c.645 0 1.154.396 1.467.88.313.487.466 1.1.466 1.703a.75.75 0 0 1-1.5 0c0-.37-.097-.688-.227-.89a.569.569 0 0 0-.159-.172.156.156 0 0 0-.037-.02l-.01-.001H2.092l-.01.002a.156.156 0 0 0-.037.019.569.569 0 0 0-.158.172c-.13.202-.227.52-.227.89a.75.75 0 0 1-1.5 0c0-.602.153-1.216.466-1.703Zm3.241-6.568a2.451 2.451 0 1 1 0 4.902 2.451 2.451 0 0 1 0-4.902Zm-.951 2.45a.951.951 0 1 0 1.902 0 .951.951 0 0 0-1.902 0Zm6.834-.298a.75.75 0 0 1 .75-.75h8a.75.75 0 0 1 0 1.5h-8a.75.75 0 0 1-.75-.75Zm.75 3.25h6a.75.75 0 0 1 0 1.5h-6a.75.75 0 1 1 0-1.5Z"/></svg>