<svg width="16" height="16" viewBox="0 0 16 16" xmlns="http://www.w3.org/2000/svg">
<path d="M6 1.3335C7.84095 1.3335 9.33333 2.82588 9.33333 4.66683C9.33333 6.50778 7.84095 8.00016 6 8.00016C4.15905 8.00016 2.66667 6.50778 2.66667 4.66683C2.66667 2.82588 4.15905 1.3335 6 1.3335ZM4 4.66683C4 5.7714 4.89543 6.66683 6 6.66683C7.10457 6.66683 8 5.7714 8 4.66683C8 3.56226 7.10457 2.66683 6 2.66683C4.89543 2.66683 4 3.56226 4 4.66683Z"/>
<path d="M4 9.3335H8C8.88406 9.3335 9.7319 9.68469 10.357 10.3098C10.9821 10.9349 11.3333 11.7828 11.3333 12.6668V14.0002C11.3333 14.3684 11.0349 14.6668 10.6667 14.6668C10.2985 14.6668 10 14.3684 10 14.0002V12.6668C10 12.1364 9.78929 11.6277 9.41421 11.2526C9.03914 10.8775 8.53043 10.6668 8 10.6668H4C3.46957 10.6668 2.96086 10.8775 2.58579 11.2526C2.21071 11.6277 2 12.1364 2 12.6668V14.0002C2 14.3684 1.70152 14.6668 1.33333 14.6668C0.965144 14.6668 0.666667 14.3684 0.666667 14.0002V12.6668C0.666667 11.7828 1.01786 10.9349 1.64298 10.3098C2.2681 9.68469 3.11594 9.3335 4 9.3335Z"/>
<path d="M10.8619 4.86209C11.1223 4.60174 11.5444 4.60174 11.8047 4.86209L13 6.05735L14.1953 4.86209C14.4556 4.60174 14.8777 4.60174 15.1381 4.86209C15.3984 5.12244 15.3984 5.54455 15.1381 5.8049L13.9428 7.00016L15.1381 8.19543C15.3984 8.45577 15.3984 8.87788 15.1381 9.13823C14.8777 9.39858 14.4556 9.39858 14.1953 9.13823L13 7.94297L11.8047 9.13823C11.5444 9.39858 11.1223 9.39858 10.8619 9.13823C10.6016 8.87788 10.6016 8.45577 10.8619 8.19543L12.0572 7.00016L10.8619 5.8049C10.6016 5.54455 10.6016 5.12244 10.8619 4.86209Z"/>
</svg>
