<svg xmlns="http://www.w3.org/2000/svg" width="16" height="16" fill="none" viewBox="0 0 16 16"><path fill="#000" d="M2.668 4.668a3.332 3.332 0 1 1 6.664 0 3.332 3.332 0 0 1-6.664 0ZM6 2.666a2.002 2.002 0 1 0 0 4.003 2.002 2.002 0 0 0 0-4.003Zm8.102 5.696.118-.047a.665.665 0 0 1 .494 1.235l-.082.033a2.682 2.682 0 0 1 .017.71l.028.01a.665.665 0 1 1-.42 1.261l-.08-.026a2.68 2.68 0 0 1-.54.566l.047.116a.665.665 0 1 1-1.235.494l-.032-.08a2.692 2.692 0 0 1-.71.016l-.01.027a.665.665 0 1 1-1.261-.42l.026-.08a2.682 2.682 0 0 1-.565-.54l-.117.047a.665.665 0 1 1-.494-1.235l.081-.032a2.684 2.684 0 0 1-.016-.71l-.028-.009a.665.665 0 0 1 .42-1.261l.08.026c.152-.214.334-.404.54-.565l-.047-.119a.665.665 0 0 1 1.235-.494l.033.083a2.686 2.686 0 0 1 .709-.016l.01-.03a.665.665 0 0 1 1.261.42l-.027.082c.214.15.404.332.565.538Zm-2.785.492a1.334 1.334 0 0 0-.595 1.533.664.664 0 0 1 .134.302 1.334 1.334 0 0 0 1.53.59.664.664 0 0 1 .304-.135 1.334 1.334 0 0 0 .587-1.534.668.668 0 0 1-.132-.296 1.334 1.334 0 0 0-1.537-.59.665.665 0 0 1-.291.13ZM4 9.336a3.332 3.332 0 0 0-3.332 3.332V14a.665.665 0 1 0 1.33 0v-1.333A2.002 2.002 0 0 1 4 10.666h2.667a.665.665 0 1 0 0-1.33H4Z"/></svg>
