<svg width="16" height="16" viewBox="0 0 16 16" fill="none" xmlns="http://www.w3.org/2000/svg">
<path d="M5.12517 7.97406C5.43285 7.58947 5.88617 7.33333 6.4 7.33333H9.6C10.1138 7.33333 10.5672 7.58947 10.8748 7.97406C11.1794 8.35479 11.3333 8.84511 11.3333 9.33333C11.3333 9.70152 11.0349 10 10.6667 10C10.2985 10 10 9.70152 10 9.33333C10 9.11431 9.92916 8.92636 9.83367 8.80699C9.74126 8.69148 9.65196 8.66667 9.6 8.66667H6.4C6.34804 8.66667 6.25874 8.69148 6.16633 8.80699C6.07084 8.92636 6 9.11431 6 9.33333C6 9.70152 5.70152 10 5.33333 10C4.96514 10 4.66667 9.70152 4.66667 9.33333C4.66667 8.84511 4.82059 8.35479 5.12517 7.97406Z" fill="#666699"/>
<path d="M8 2.66667C9.10457 2.66667 10 3.5621 10 4.66667C10 5.77124 9.10457 6.66667 8 6.66667C6.89543 6.66667 6 5.77124 6 4.66667C6 3.5621 6.89543 2.66667 8 2.66667ZM7.33333 4.66667C7.33333 5.03486 7.63181 5.33333 8 5.33333C8.36819 5.33333 8.66667 5.03486 8.66667 4.66667C8.66667 4.29848 8.36819 4 8 4C7.63181 4 7.33333 4.29848 7.33333 4.66667Z" fill="#666699"/>
<path d="M14.6667 14.1482C14.6667 15.2426 13.6952 16 12.6667 16H3.33333C2.30475 16 1.33333 15.2426 1.33333 14.1482V1.85185C1.33333 0.757453 2.30475 0 3.33333 0H12.6667C13.6952 0 14.6667 0.757453 14.6667 1.85185V14.1482ZM3.33333 1.33333C2.88916 1.33333 2.66667 1.63713 2.66667 1.85185V10.1481C2.66667 10.3629 2.88916 10.6667 3.33333 10.6667H12.6667C13.1108 10.6667 13.3333 10.3629 13.3333 10.1481V1.85185C13.3333 1.63713 13.1108 1.33333 12.6667 1.33333H3.33333ZM2.66667 13.8926V14.1482C2.66667 14.3629 2.88916 14.6667 3.33333 14.6667H12.6667C13.1108 14.6667 13.3333 14.3629 13.3333 14.1482V13.8926C13.1206 13.9627 12.895 14 12.6667 14H3.33333C3.10496 14 2.8794 13.9627 2.66667 13.8926ZM13.3333 12.1482V11.8926C13.1206 11.9627 12.895 12 12.6667 12H3.33333C3.10496 12 2.8794 11.9627 2.66667 11.8926V12.1482C2.66667 12.3629 2.88916 12.6667 3.33333 12.6667H12.6667C13.1108 12.6667 13.3333 12.3629 13.3333 12.1482Z" fill="#666699"/>
</svg>
