<svg width="16" height="16" viewBox="0 0 16 16" fill="none" xmlns="http://www.w3.org/2000/svg">
<path d="M10.8168 8.8169L9.8 7.8001C9.84427 7.26677 9.672 6.7945 9.2832 6.3833C8.8944 5.9721 8.41653 5.79424 7.8496 5.8497L6.8336 4.8337C7.0224 4.76704 7.21387 4.71424 7.408 4.6753C7.60267 4.63637 7.8 4.6169 8 4.6169C8.84427 4.6169 9.56107 4.9113 10.1504 5.5001C10.7392 6.0889 11.0336 6.80544 11.0336 7.6497C11.0336 7.8721 11.0141 8.0833 10.9752 8.2833C10.9363 8.4833 10.8835 8.66117 10.8168 8.8169ZM12.9336 10.9169L11.9336 9.9337C12.3336 9.62224 12.6891 9.2833 13 8.9169C13.3109 8.54997 13.5776 8.12757 13.8 7.6497C13.2555 6.53877 12.4667 5.66384 11.4336 5.0249C10.4 4.38597 9.25547 4.0665 8 4.0665C7.67787 4.0665 7.38053 4.08597 7.108 4.1249C6.836 4.16384 6.56667 4.22224 6.3 4.3001L5.2 3.2001C5.65547 3.0113 6.11093 2.8753 6.5664 2.7921C7.02187 2.70837 7.49973 2.6665 8 2.6665C9.5888 2.6665 11.0165 3.08037 12.2832 3.9081C13.5499 4.73637 14.5 5.8281 15.1336 7.1833C15.1555 7.23877 15.1749 7.30837 15.192 7.3921C15.2085 7.4753 15.2168 7.56117 15.2168 7.6497C15.2168 7.73877 15.2085 7.8249 15.192 7.9081C15.1749 7.99184 15.1555 8.06144 15.1336 8.1169C14.8781 8.67264 14.5643 9.1865 14.192 9.6585C13.8197 10.1305 13.4003 10.55 12.9336 10.9169ZM12.6336 14.5833L10.3504 12.3169C9.96107 12.439 9.572 12.5278 9.1832 12.5833C8.7944 12.6388 8.4 12.6665 8 12.6665C6.4112 12.6665 4.98347 12.247 3.7168 11.4081C2.45013 10.5697 1.5 9.47264 0.8664 8.1169C0.844533 8.05024 0.825067 7.97797 0.808 7.9001C0.791467 7.82224 0.7832 7.73877 0.7832 7.6497C0.7832 7.56117 0.7888 7.4753 0.8 7.3921C0.8112 7.30837 0.833333 7.23877 0.8664 7.1833C1.0888 6.70544 1.3584 6.25824 1.6752 5.8417C1.992 5.42517 2.3448 5.04464 2.7336 4.7001L1.4 3.3505C1.26667 3.21717 1.19733 3.05317 1.192 2.8585C1.18613 2.66384 1.25547 2.49984 1.4 2.3665C1.53333 2.23317 1.69733 2.1665 1.892 2.1665C2.08613 2.1665 2.24987 2.23317 2.3832 2.3665L13.6168 13.6169C13.7501 13.7502 13.8168 13.9113 13.8168 14.1001C13.8168 14.2889 13.7501 14.45 13.6168 14.5833C13.4835 14.7166 13.3195 14.7833 13.1248 14.7833C12.9307 14.7833 12.7669 14.7166 12.6336 14.5833ZM3.6832 5.6497C3.37227 5.93877 3.08907 6.2473 2.8336 6.5753C2.5776 6.90277 2.3608 7.2609 2.1832 7.6497C2.72773 8.76117 3.5168 9.64197 4.5504 10.2921C5.58347 10.9417 6.73333 11.2665 8 11.2665C8.1888 11.2665 8.38613 11.2582 8.592 11.2417C8.79733 11.2252 8.9944 11.1948 9.1832 11.1505L8.6496 10.6169C8.54987 10.6388 8.44453 10.6553 8.3336 10.6665C8.22213 10.6777 8.11093 10.6833 8 10.6833C7.15573 10.6833 6.43893 10.3889 5.8496 9.8001C5.2608 9.2113 4.9664 8.4945 4.9664 7.6497C4.9664 7.53877 4.97493 7.43344 4.992 7.3337C5.00853 7.23344 5.02773 7.12784 5.0496 7.0169L3.6832 5.6497Z" fill="black"/>
</svg>
