<svg xmlns="http://www.w3.org/2000/svg" width="24" height="24" viewBox="0 0 24 24"  stroke-width="2" stroke-linecap="round" stroke-linejoin="round" class="feather feather-x-circle"><path d="M11.280 1.023 C 11.203 1.032,10.951 1.059,10.720 1.083 C 8.832 1.283,6.991 2.023,5.360 3.235 C 4.751 3.688,3.684 4.755,3.226 5.367 C 0.728 8.714,0.301 13.032,2.097 16.780 C 2.643 17.918,3.276 18.801,4.238 19.762 C 5.199 20.724,6.082 21.357,7.220 21.903 C 10.967 23.699,15.288 23.270,18.637 20.770 C 19.246 20.316,20.316 19.246,20.770 18.637 C 23.744 14.652,23.744 9.348,20.770 5.363 C 20.316 4.755,19.247 3.686,18.640 3.235 C 17.045 2.049,15.365 1.360,13.423 1.096 C 13.000 1.038,11.574 0.990,11.280 1.023 M13.320 3.101 C 15.883 3.488,18.124 4.931,19.560 7.120 C 19.863 7.583,20.303 8.479,20.492 9.020 C 20.838 10.013,20.977 10.865,20.977 12.000 C 20.977 13.493,20.720 14.621,20.080 15.940 C 19.375 17.394,18.311 18.607,16.927 19.532 C 16.138 20.060,14.876 20.588,13.908 20.797 C 11.266 21.366,8.479 20.708,6.370 19.019 C 4.857 17.807,3.722 16.029,3.267 14.160 C 3.081 13.397,3.023 12.888,3.023 12.000 C 3.023 10.507,3.280 9.379,3.920 8.060 C 4.971 5.891,6.877 4.221,9.160 3.466 C 9.865 3.233,10.432 3.118,11.340 3.024 C 11.662 2.991,12.911 3.039,13.320 3.101 M8.670 8.061 C 8.448 8.142,8.250 8.309,8.128 8.516 C 8.036 8.672,8.020 8.745,8.021 9.000 C 8.021 9.213,8.043 9.341,8.095 9.440 C 8.136 9.517,8.711 10.125,9.374 10.790 L 10.578 12.000 9.374 13.210 C 8.711 13.876,8.138 14.481,8.101 14.555 C 7.872 15.009,8.056 15.601,8.508 15.867 C 8.673 15.964,8.742 15.980,9.000 15.979 C 9.213 15.979,9.341 15.957,9.440 15.905 C 9.517 15.864,10.125 15.289,10.790 14.626 L 12.000 13.422 13.210 14.626 C 13.876 15.289,14.481 15.862,14.555 15.899 C 15.009 16.128,15.601 15.944,15.867 15.492 C 15.964 15.327,15.980 15.258,15.979 15.000 C 15.979 14.787,15.957 14.659,15.905 14.560 C 15.864 14.483,15.289 13.876,14.626 13.210 L 13.422 12.000 14.626 10.790 C 15.289 10.125,15.864 9.517,15.905 9.440 C 15.957 9.341,15.979 9.213,15.979 9.000 C 15.980 8.745,15.964 8.672,15.872 8.516 C 15.618 8.084,15.137 7.905,14.657 8.066 C 14.484 8.124,14.312 8.279,13.230 9.354 L 12.000 10.576 10.770 9.354 C 9.688 8.279,9.516 8.124,9.343 8.066 C 9.108 7.987,8.875 7.985,8.670 8.061 " ></path></svg>