<svg xmlns="http://www.w3.org/2000/svg" viewBox="0 0 774 774"><circle cx="387" cy="387" r="370" fill="#444"/><path d="M567.32 527.81c0 33.07-24.26 60.11-53.91 60.11H260.59c-29.65 0-53.91-27.04-53.91-60.11 0-20.24 9.10-38.25 22.95-49.14l134.50-120.12c2.50-2.14 5.75 1.31 3.94 4.20l-49.34 98.79c-1.38 2.76.41 6.17 3.25 6.17h191.42c29.65 0 53.91 27.04 53.91 60.11zm0-281.75c0 20.24-9.10 38.25-22.95 49.14l-134.50 120.12c-2.50 2.14-5.75-1.31-3.94-4.20l49.34-98.79c1.38-2.76-.41-6.17-3.25-6.17H260.59c-29.65 0-53.91-27.04-53.91-60.11s24.26-60.11 53.91-60.11h252.81c29.65 0 53.91 27.04 53.91 60.11z" fill="#fff"/></svg>