<svg width="16" height="15" viewBox="0 0 16 15" fill="none" xmlns="http://www.w3.org/2000/svg">
    <path d="M14.75 12.5L13.9999 13.3205C13.6021 13.7556 13.0626 14 12.5001 14C11.9376 14 11.3981 13.7556 11.0003 13.3205C10.6019 12.8863 10.0625 12.6425 9.50013 12.6425C8.93778 12.6425 8.39835 12.8863 7.99998 13.3205M1.25 14H2.50591C2.87279 14 3.05624 14 3.22887 13.9585C3.38192 13.9218 3.52824 13.8612 3.66245 13.7789C3.81382 13.6862 3.94354 13.5565 4.20296 13.297L13.625 3.87499C14.2463 3.25367 14.2463 2.24631 13.625 1.62499C13.0037 1.00367 11.9963 1.00367 11.375 1.62499L1.95295 11.047C1.69352 11.3065 1.5638 11.4362 1.47104 11.5876C1.3888 11.7218 1.32819 11.8681 1.29145 12.0211C1.25 12.1938 1.25 12.3772 1.25 12.7441V14Z" stroke="#101828" stroke-width="1.4" stroke-linecap="round" stroke-linejoin="round"/>
</svg>