<svg width="16" height="14" viewBox="0 0 16 14" fill="none" xmlns="http://www.w3.org/2000/svg">
<path d="M2.25722 2.77791C1.75299 2.21437 1.50088 1.93259 1.49137 1.69312C1.48311 1.48509 1.57251 1.28515 1.73305 1.15259C1.91785 1 2.29595 1 3.05215 1H12.9474C13.7036 1 14.0817 1 14.2665 1.15259C14.4271 1.28515 14.5165 1.48509 14.5082 1.69312C14.4987 1.93259 14.2466 2.21437 13.7424 2.77791L9.9382 7.02962C9.83769 7.14196 9.78743 7.19813 9.7516 7.26205C9.71981 7.31875 9.69649 7.37978 9.68238 7.44323C9.66646 7.51476 9.66646 7.59013 9.66646 7.74087V11.3056C9.66646 11.436 9.66646 11.5011 9.64543 11.5575C9.62685 11.6073 9.59663 11.6519 9.55729 11.6877C9.51277 11.7281 9.45225 11.7524 9.3312 11.8008L7.06453 12.7074C6.8195 12.8054 6.69699 12.8545 6.59864 12.834C6.51263 12.8161 6.43716 12.765 6.38862 12.6918C6.33312 12.6081 6.33312 12.4762 6.33312 12.2122V7.74087C6.33312 7.59013 6.33312 7.51476 6.3172 7.44323C6.30309 7.37978 6.27977 7.31875 6.24798 7.26205C6.21215 7.19813 6.16189 7.14196 6.06138 7.02962L2.25722 2.77791Z" stroke="#98A2B3" stroke-width="1.4" stroke-linecap="round" stroke-linejoin="round"/>
</svg>
