<svg width="18" height="18" viewBox="0 0 18 18" fill="none" xmlns="http://www.w3.org/2000/svg">
    <path d="M12 6.00002V9.75002C12 10.3468 12.2371 10.9191 12.659 11.341C13.081 11.763 13.6533 12 14.25 12C14.8467 12 15.419 11.763 15.841 11.341C16.263 10.9191 16.5 10.3468 16.5 9.75002V9.00002C16.4999 7.30729 15.9272 5.66438 14.875 4.33842C13.8227 3.01246 12.3529 2.08144 10.7045 1.69675C9.05605 1.31205 7.32596 1.4963 5.79552 2.21955C4.26508 2.94279 3.02431 4.16249 2.27495 5.68032C1.5256 7.19814 1.31173 8.92483 1.66813 10.5796C2.02453 12.2344 2.93024 13.7199 4.23798 14.7947C5.54572 15.8695 7.17858 16.4703 8.87106 16.4994C10.5635 16.5285 12.2161 15.9842 13.56 14.955M12 9.00002C12 10.6569 10.6569 12 9.00001 12C7.34315 12 6.00001 10.6569 6.00001 9.00002C6.00001 7.34317 7.34315 6.00002 9.00001 6.00002C10.6569 6.00002 12 7.34317 12 9.00002Z" stroke="#101828" stroke-width="1.4" stroke-linecap="round" stroke-linejoin="round"/>
</svg>