<svg width="12" height="18" viewBox="0 0 12 18" fill="none" xmlns="http://www.w3.org/2000/svg">
    <path d="M3.75 13.875H8.25M1.95 1.5H10.05C10.47 1.5 10.6801 1.5 10.8405 1.58175C10.9816 1.65365 11.0964 1.76839 11.1683 1.90951C11.25 2.06994 11.25 2.27996 11.25 2.7V4.25589C11.25 4.62277 11.25 4.80622 11.2086 4.97885C11.1718 5.1319 11.1112 5.27822 11.029 5.41243C10.9362 5.5638 10.8065 5.69352 10.5471 5.95294L8.34853 8.15147C8.05152 8.44848 7.90301 8.59699 7.84737 8.76824C7.79842 8.91887 7.79842 9.08113 7.84737 9.23176C7.90301 9.40301 8.05152 9.55152 8.34853 9.84853L10.5471 12.0471C10.8065 12.3065 10.9362 12.4362 11.029 12.5876C11.1112 12.7218 11.1718 12.8681 11.2086 13.0212C11.25 13.1938 11.25 13.3772 11.25 13.7441V15.3C11.25 15.72 11.25 15.9301 11.1683 16.0905C11.0964 16.2316 10.9816 16.3464 10.8405 16.4183C10.6801 16.5 10.47 16.5 10.05 16.5H1.95C1.52996 16.5 1.31994 16.5 1.15951 16.4183C1.01839 16.3464 0.90365 16.2316 0.831745 16.0905C0.75 15.9301 0.75 15.72 0.75 15.3V13.7441C0.75 13.3772 0.75 13.1938 0.791445 13.0212C0.82819 12.8681 0.888797 12.7218 0.97104 12.5876C1.0638 12.4362 1.19352 12.3065 1.45294 12.0471L3.65147 9.84853C3.94848 9.55152 4.09699 9.40301 4.15263 9.23176C4.20158 9.08113 4.20158 8.91887 4.15263 8.76824C4.09699 8.59699 3.94848 8.44848 3.65147 8.15147L1.45294 5.95294C1.19352 5.69352 1.0638 5.5638 0.97104 5.41243C0.888797 5.27822 0.82819 5.1319 0.791445 4.97885C0.75 4.80622 0.75 4.62277 0.75 4.25589V2.7C0.75 2.27996 0.75 2.06994 0.831745 1.90951C0.90365 1.76839 1.01839 1.65365 1.15951 1.58175C1.31994 1.5 1.52996 1.5 1.95 1.5Z" stroke="#101828" stroke-width="1.4" stroke-linecap="round" stroke-linejoin="round"/>
</svg>