<svg width="101" height="18" viewBox="0 0 101 18" fill="none" xmlns="http://www.w3.org/2000/svg">
<path d="M79.4801 7V6.41761L81.8438 3.41477V3.375H79.5568V2.63636H82.9034V3.25568L80.6307 6.22159V6.26136H82.983V7H79.4801ZM87.4773 5.19034V2.63636H88.3296V7H87.4943V6.24432H87.4489C87.3485 6.47727 87.1875 6.6714 86.9659 6.8267C86.7462 6.98011 86.4726 7.05682 86.1449 7.05682C85.8646 7.05682 85.6165 6.99527 85.4006 6.87216C85.1866 6.74716 85.018 6.5625 84.8949 6.31818C84.7737 6.07386 84.7131 5.77178 84.7131 5.41193V2.63636H85.5625V5.30966C85.5625 5.60701 85.6449 5.84375 85.8097 6.01989C85.9744 6.19602 86.1885 6.28409 86.4517 6.28409C86.6108 6.28409 86.769 6.24432 86.9262 6.16477C87.0852 6.08523 87.2169 5.96496 87.321 5.80398C87.4271 5.64299 87.4792 5.43845 87.4773 5.19034ZM91.0483 1.18182V7H90.1989V1.18182H91.0483ZM92.9191 7V2.63636H93.7685V7H92.9191ZM93.3481 1.96307C93.2003 1.96307 93.0734 1.91383 92.9674 1.81534C92.8632 1.71496 92.8111 1.59564 92.8111 1.45739C92.8111 1.31723 92.8632 1.19792 92.9674 1.09943C93.0734 0.999053 93.2003 0.948864 93.3481 0.948864C93.4958 0.948864 93.6217 0.999053 93.7259 1.09943C93.832 1.19792 93.885 1.31723 93.885 1.45739C93.885 1.59564 93.832 1.71496 93.7259 1.81534C93.6217 1.91383 93.4958 1.96307 93.3481 1.96307ZM95.6393 8.63636V2.63636H96.4688V3.34375H96.5398C96.5891 3.25284 96.6601 3.14773 96.7529 3.02841C96.8457 2.90909 96.9745 2.80492 97.1393 2.71591C97.304 2.625 97.5218 2.57955 97.7927 2.57955C98.145 2.57955 98.4593 2.66856 98.7359 2.84659C99.0124 3.02462 99.2292 3.28125 99.3864 3.61648C99.5455 3.9517 99.6251 4.35511 99.6251 4.8267C99.6251 5.2983 99.5465 5.70265 99.3893 6.03977C99.2321 6.375 99.0162 6.63352 98.7415 6.81534C98.4669 6.99527 98.1535 7.08523 97.8012 7.08523C97.5361 7.08523 97.3192 7.04072 97.1506 6.9517C96.984 6.86269 96.8533 6.75852 96.7586 6.6392C96.6639 6.51989 96.591 6.41383 96.5398 6.32102H96.4887V8.63636H95.6393ZM96.4717 4.81818C96.4717 5.125 96.5162 5.39394 96.6052 5.625C96.6942 5.85606 96.823 6.03693 96.9915 6.16761C97.1601 6.2964 97.3665 6.3608 97.6109 6.3608C97.8647 6.3608 98.0768 6.29356 98.2472 6.15909C98.4177 6.02273 98.5465 5.83807 98.6336 5.60511C98.7226 5.37216 98.7671 5.10985 98.7671 4.81818C98.7671 4.5303 98.7236 4.27178 98.6364 4.04261C98.5512 3.81345 98.4224 3.63258 98.2501 3.5C98.0796 3.36742 97.8665 3.30114 97.6109 3.30114C97.3647 3.30114 97.1563 3.36458 96.9859 3.49148C96.8173 3.61837 96.6895 3.79545 96.6023 4.02273C96.5152 4.25 96.4717 4.51515 96.4717 4.81818Z" fill="#444CE7"/>
<path fill-rule="evenodd" clip-rule="evenodd" d="M70.1952 3C68.3987 3 66.872 4.10144 66.2864 5.64856L63.154 13.9635H54.4808C54.2504 13.9635 54.0662 13.7852 54.0662 13.5624V3.00637H49.9073V13.9635C49.9073 16.1855 51.7696 17.9873 54.0662 17.9873L66.056 18L67.5827 13.9635H72.8077L73.8277 16.663C74.137 17.4779 74.9267 17.9936 75.7756 17.9936H78.75L74.1238 5.69949C73.5579 4.12691 72.0181 3 70.1952 3ZM70.011 7.02377L71.4916 10.9457H68.5369L70.011 7.02377Z" fill="#0D34BE"/>
<path d="M44.5047 12.4992V3H48.6702V13.9635C48.6702 16.1855 46.8079 17.9873 44.5113 17.9873C42.9714 17.9873 41.629 17.1787 40.9051 15.9754L36.3579 8.36078C36.3514 8.35442 36.3448 8.34172 36.3317 8.31633C36.2593 8.20173 36.1276 8.12521 35.9763 8.12521C35.7459 8.12521 35.5617 8.30348 35.5617 8.52632V17.9936H20.0644C17.7678 17.9936 15.9055 16.1919 15.9055 13.9699V7.48217H17.4782C18.3732 7.48217 19.1365 6.93464 19.4327 6.16426L20.6501 3.01273L30.0866 3.01273V7.0365H20.479C20.2487 7.0365 20.0644 7.21477 20.0644 7.45671V8.99745H30.0866V12.0153H20.0644V13.5751C20.0644 13.798 20.2487 13.9762 20.479 13.9762H31.4028V7.0365C31.4028 4.81452 33.2651 3.01273 35.5617 3.01273C37.0884 3.01273 38.4243 3.81494 39.1481 5.00552L43.7743 12.7602C43.8467 12.843 43.9651 12.9003 44.0901 12.9003C44.3205 12.9003 44.5047 12.722 44.5047 12.4992Z" fill="#0D34BE"/>
<path d="M4.15893 3.01259C1.86231 3.01259 0 4.81438 0 7.03636C0 8.69808 1.03973 10.1242 2.52695 10.7354L8.56793 13.2185C8.69954 13.2885 8.78509 13.4222 8.78509 13.5686C8.78509 13.7787 8.614 13.9506 8.40342 13.9697H0V17.9935H10.6013V17.9871C12.8124 17.898 14.5826 16.1344 14.5826 13.9697C14.5826 12.2125 13.4178 10.7227 11.799 10.1752L6.04756 7.8131C5.88963 7.7558 5.77776 7.60937 5.77776 7.43747C5.77776 7.22737 5.94886 7.05546 6.15943 7.03636H17.149C18.044 7.03636 18.8073 6.48883 19.1035 5.71845L20.1235 3.01259H4.15893Z" fill="#0D34BE"/>
</svg>
