<svg id="Layer_1" data-name="Layer 1" xmlns="http://www.w3.org/2000/svg" xmlns:xlink="http://www.w3.org/1999/xlink" viewBox="0 0 302.5 210.37"><defs><style>.cls-1{fill:none;}.cls-2{clip-path:url(#clip-path);}.cls-3{fill:url(#linear-gradient);}.cls-4{fill:#7addfc;}.cls-5{fill:#529fdd;}.cls-6{fill:#fff;}</style><clipPath id="clip-path" transform="translate(0 0)"><path class="cls-1" d="M260.63,180.45H39.9c-7,0-9-2.27-9-9V31.71c0-6.81,2.1-9,9-9H260.63c6.8,0,9,2.13,9,9V171.45c0,6.57-2.08,9-9,9"/></clipPath><linearGradient id="linear-gradient" x1="-716.13" y1="35.06" x2="-715.13" y2="35.06" gradientTransform="matrix(0, -157.69, -157.69, 0, 5678.87, -112746.33)" gradientUnits="userSpaceOnUse"><stop offset="0" stop-color="#007c8f"/><stop offset="0.37" stop-color="#007088"/><stop offset="1" stop-color="#005377"/></linearGradient></defs><title>wekan-1_2</title><g class="cls-2"><rect class="cls-3" x="30.9" y="22.76" width="238.73" height="157.69"/><path class="cls-4" d="M225.06,138.25v-.54h-149a2.5,2.5,0,0,1-2.5-2.5v-69a2.5,2.5,0,0,1,2.5-2.5h149a2.5,2.5,0,0,1,2.5,2.5v69.07a2.5,2.5,0,0,1-2.5,2.5v1a3.5,3.5,0,0,0,3.5-3.5V66.18a3.5,3.5,0,0,0-3.5-3.5h-149a3.5,3.5,0,0,0-3.5,3.5v69.07a3.5,3.5,0,0,0,3.5,3.5h149Z" transform="translate(0 0)"/><path class="cls-5" d="M143.05,55.9v-.5H75.93a2.5,2.5,0,0,1-2.5-2.5V3.5A2.5,2.5,0,0,1,75.93,1h67.12a2.5,2.5,0,0,1,2.5,2.5V52.9a2.5,2.5,0,0,1-2.5,2.5v1a3.5,3.5,0,0,0,3.5-3.5V3.5a3.5,3.5,0,0,0-3.5-3.5H75.93a3.5,3.5,0,0,0-3.5,3.5V52.9a3.5,3.5,0,0,0,3.5,3.5h67.12Z" transform="translate(0 0)"/><path class="cls-5" d="M143.05,200.92v-.5H75.93a2.5,2.5,0,0,1-2.5-2.5v-49.4a2.5,2.5,0,0,1,2.5-2.5h67.12a2.5,2.5,0,0,1,2.5,2.5v49.4a2.5,2.5,0,0,1-2.5,2.5v1a3.5,3.5,0,0,0,3.5-3.5v-49.4a3.5,3.5,0,0,0-3.5-3.5H75.93a3.5,3.5,0,0,0-3.5,3.5v49.4a3.5,3.5,0,0,0,3.5,3.5h67.12Z" transform="translate(0 0)"/><path class="cls-5" d="M224.43,55.9v-.5H157.32a2.5,2.5,0,0,1-2.5-2.5V3.5a2.5,2.5,0,0,1,2.5-2.5h67.12a2.5,2.5,0,0,1,2.5,2.5V52.9a2.5,2.5,0,0,1-2.5,2.5v1a3.5,3.5,0,0,0,3.5-3.5V3.5a3.5,3.5,0,0,0-3.5-3.5H157.32a3.5,3.5,0,0,0-3.5,3.5V52.9a3.5,3.5,0,0,0,3.5,3.5h67.12Z" transform="translate(0 0)"/><path class="cls-5" d="M224.43,200.92v-.5H157.32a2.5,2.5,0,0,1-2.5-2.5v-49.4a2.5,2.5,0,0,1,2.5-2.5h67.12a2.5,2.5,0,0,1,2.5,2.5v49.4a2.5,2.5,0,0,1-2.5,2.5v1a3.5,3.5,0,0,0,3.5-3.5v-49.4a3.5,3.5,0,0,0-3.5-3.5H157.32a3.5,3.5,0,0,0-3.5,3.5v49.4a3.5,3.5,0,0,0,3.5,3.5h67.12Z" transform="translate(0 0)"/><path class="cls-5" d="M299,94.93v-.5H238.16a2.5,2.5,0,0,1-2.5-2.5V5.08a2.5,2.5,0,0,1,2.5-2.5H299a2.5,2.5,0,0,1,2.5,2.5V91.93a2.5,2.5,0,0,1-2.5,2.5v1a3.5,3.5,0,0,0,3.5-3.5V5.08a3.5,3.5,0,0,0-3.5-3.5H238.16a3.5,3.5,0,0,0-3.5,3.5V91.93a3.5,3.5,0,0,0,3.5,3.5H299Z" transform="translate(0 0)"/><path class="cls-5" d="M299,209.87v-.5H238.16a2.5,2.5,0,0,1-2.5-2.5V105.18a2.5,2.5,0,0,1,2.5-2.5H299a2.5,2.5,0,0,1,2.5,2.5V206.87a2.5,2.5,0,0,1-2.5,2.5v1a3.5,3.5,0,0,0,3.5-3.5V105.18a3.5,3.5,0,0,0-3.5-3.5H238.16a3.5,3.5,0,0,0-3.5,3.5V206.87a3.5,3.5,0,0,0,3.5,3.5H299Z" transform="translate(0 0)"/><path class="cls-5" d="M63,94.93v-.5H3.5A2.5,2.5,0,0,1,1,91.93V5.08a2.5,2.5,0,0,1,2.5-2.5H63a2.5,2.5,0,0,1,2.5,2.5V91.93a2.5,2.5,0,0,1-2.5,2.5v1a3.5,3.5,0,0,0,3.5-3.5V5.08A3.5,3.5,0,0,0,63,1.58H3.5A3.5,3.5,0,0,0,0,5.08V91.93a3.5,3.5,0,0,0,3.5,3.5H63Z" transform="translate(0 0)"/><path class="cls-5" d="M63,209.87v-.5H3.5a2.5,2.5,0,0,1-2.5-2.5V105.18a2.5,2.5,0,0,1,2.5-2.5H63a2.5,2.5,0,0,1,2.5,2.5V206.87a2.5,2.5,0,0,1-2.5,2.5v1a3.5,3.5,0,0,0,3.5-3.5V105.18a3.5,3.5,0,0,0-3.5-3.5H3.5a3.5,3.5,0,0,0-3.5,3.5V206.87a3.5,3.5,0,0,0,3.5,3.5H63Z" transform="translate(0 0)"/><path class="cls-6" d="M208.62,108.44a1.51,1.51,0,0,0-.83.33q-3.12,8.16-4.95,7.92c-.35,0-.56-.37-.58-1a10.31,10.31,0,0,1,.31-2.53c.23-1.06.5-2.12.78-3.19s.56-2.28.89-3.61.6-2.38.75-3.14a1.15,1.15,0,0,0-.47-1.28,2.48,2.48,0,0,0-1.89-.06c-3.55.79-6.33,3.92-8.31,9.36q.92-6.36,1.14-7.17c.25-1.11.45-1.82.56-2.14a9.13,9.13,0,0,0-1.81-.11,17.39,17.39,0,0,0-3.45.33c-1.27.24-1.93.54-2,.92-.22,1.92-.24,3.93-.44,5.92s-.32,3.69-.44,5.31a10.85,10.85,0,0,1-1.25,1.69c-.53.55-1,.81-1.42.75-1-.16-.37-3,1.53-8.64,1.45-4.33.71-6.16-5.22-6.2a10.64,10.64,0,0,0-5.47,1.67,12.27,12.27,0,0,0-5.33,7c-.09.31-.16.6-.22.89a13.11,13.11,0,0,1-.83,1.36,6.94,6.94,0,0,1-1.64,1.94,1.67,1.67,0,0,1-1.14.33c-1-.16-2.28-1-3.7-2.58-1-1.09-2.86-3-3.78-4.14,5.64-10.17,20.73-12.5,25.06-12.5,1.36,0,1.41-6.25,0-6.25-17.55,0-25.36,14.85-27.09,20,.15-1.65.27-2.71.5-4.86s.4-3.85.53-5.11.26-2.73.42-4.36.32-2.91.42-3.86.23-2,.36-3.11.23-2,.33-2.69l.31-1.94c.1-.65.18-1.19.28-1.58a.94.94,0,0,0-.69-1.31,5,5,0,0,0-.94-.06A1.87,1.87,0,0,0,158,81a1.92,1.92,0,0,0-.69.94q-3.71,8.75-6.14,27.17a13.62,13.62,0,0,1-4.25,6,7.65,7.65,0,0,1-5.33,1.86,3.36,3.36,0,0,1-2.83-2.42,9.53,9.53,0,0,1-.19-5.47c.86-4.11,2-6.17,3.33-6.17.91,0,.95,1.54.08,4.64-.66,2.21-1.58,3.69-2.75,4.42-.41.25-.58.46-.53.58s.36.19.92,0a19.09,19.09,0,0,0,5.56-2.31,6.17,6.17,0,0,0,3-3.28,3.08,3.08,0,0,0-1.27-3.25,7.24,7.24,0,0,0-4.33-1.53,11.24,11.24,0,0,0-5.08,1l.11-.19a47.7,47.7,0,0,0,5.75-12q1.73-5.68-.94-8.33a6.8,6.8,0,0,0-2.92-1.25c-2.45-.66-5.21-1.51-3.08,1.25a5.29,5.29,0,0,1,.67,1.61,16.42,16.42,0,0,1-.47,7.47,53.89,53.89,0,0,1-3.42,9.56,56.47,56.47,0,0,1-5,8.83,18.25,18.25,0,0,1-5.25,5.36,3,3,0,0,1-.08-.67,14.41,14.41,0,0,1,0-1.61,9.22,9.22,0,0,1,.11-1.25q.59-3.9,1.5-8.28c.61-2.92,1.21-5.55,1.78-7.92.41-1.49.67-2.61.81-3.33a1.91,1.91,0,0,0-.25-1.61,5,5,0,0,0-1.69-1.22c-.53-.27-1.19-.62-2-1.08-1.65-1-1.76-.93-2.22.75s-1.31,3.68-2.44,6.56-2.38,5.88-3.76,8.94a79,79,0,0,1-4,7.83c-1.27,2.14-2.3,3.24-3.08,3.28a.4.4,0,0,1-.33-.33,2.94,2.94,0,0,1-.08-.72,12.34,12.34,0,0,1,.14-1.61,10.63,10.63,0,0,1,.25-1.25c.35-1.74.83-3.78,1.44-6.14s1.24-4.72,1.89-7,1.19-4.25,1.64-5.83a26,26,0,0,0,1.14-4.06,1.71,1.71,0,0,0-1.11-1.72c-.66-.35-1.68-1-3.11-1.81a2.42,2.42,0,0,0-2.56-.19c-2.66,1-5.33,2.1-8.06,3.39a68.72,68.72,0,0,0-8.39,4.67c-2.39,1.59-3.91,3-4.58,4.31a4.85,4.85,0,0,0,.25,4.78,6.87,6.87,0,0,0,2,2.22c3.24,2.23,2.16.94,2.47-1.64a6.51,6.51,0,0,1,.92-2.64,23.82,23.82,0,0,1,6-6.22,39.51,39.51,0,0,1,9.7-5.58c-.65,2.39-1.34,5-2.08,7.78s-1.46,5.52-2.08,8.11-1.09,4.78-1.39,6.53a10.14,10.14,0,0,0-.22,2.39,4.53,4.53,0,0,0,.88,2.23,6.42,6.42,0,0,0,1.92,1.75,4.29,4.29,0,0,0,2.33.69c1.68-.1,3.32-1.23,4.89-3.36a40.09,40.09,0,0,0,4.36-7.81q2-4.62,3.5-9c-.49,2.37-.94,4.71-1.33,7s-.67,4.33-.86,6.08a11.93,11.93,0,0,0-.08,2.39,4.48,4.48,0,0,0,1,2.28,6.61,6.61,0,0,0,2,1.72,5.7,5.7,0,0,0,2.45.72q2.48,0,6.78-4.42c.7-.71,1.39-1.46,2.08-2.25a5.34,5.34,0,0,0,2.11,4.92,11.11,11.11,0,0,0,6.56,2.25,11,11,0,0,0,7.67-2.69,14.82,14.82,0,0,0,3.06-3.5,19.67,19.67,0,0,0-.17,5.14c0,.25.56.48,1.75.64a21.92,21.92,0,0,0,3.53.17c1.14,0,1.72-.14,1.72-.33-.1-.69-.21-2.2-.3-3.83,2.38,2.53,5.24,4.38,7.42,4.22,1.27-.09,2.8-1.09,4.53-3.06a16.66,16.66,0,0,0,1.08-1.56,4.58,4.58,0,0,0,1.14,2.42,5.15,5.15,0,0,0,4.39,1.89c1.74-.18,3.1-1.57,4.14-4.19a18.21,18.21,0,0,1,1.11-2.42c.67-1.09.52-.37.42.14-.33,1.67-.72,4,.33,5.47a2.64,2.64,0,0,0,2.5,1.33c1-.14,2.16-1,3.42-2.61a5.18,5.18,0,0,0,0,1.47c.1.25.62.47,1.61.61a16.1,16.1,0,0,0,2.86.17c.91,0,1.36-.14,1.36-.33.8-3.5,1.42-6.5,4.28-10.25h.17a.75.75,0,0,1,0,.42,4,4,0,0,1-.14.69c-.05.25-.15.61-.28,1.08s-.23.92-.33,1.33a9.37,9.37,0,0,0-.31,3.61,6.53,6.53,0,0,0,.72,2.28,2.8,2.8,0,0,0,1.33,1.19,4.69,4.69,0,0,0,1.56.42,6,6,0,0,0,1.47-.11c1.17-.25,2.4-1.29,3.69-3.14a23.3,23.3,0,0,0,3.12-6.47v-.08C209,108.48,208.88,108.41,208.62,108.44ZM180,110.19q-1.81,6-2.81,6c-.46-.06-.63-.57-.53-1.56a30.82,30.82,0,0,1,1.05-4.64c.41-1.33.78-2.43,1.08-3.25s.58-1.53.89-2.17a4.77,4.77,0,0,1,.89-1.33,1.09,1.09,0,0,1,.69-.28.45.45,0,0,1,.5.39v.11a22.08,22.08,0,0,1-1.19,5C180.25,109.29,180.13,109.71,180,110.19Z" transform="translate(0 0)"/><rect class="cls-6" x="188.92" y="89.51" width="6.26" height="6.26" rx="0.88"/><rect class="cls-6" x="198.58" y="91.85" width="7.67" height="7.67" rx="1.08"/><rect class="cls-6" x="207.5" y="82.3" width="9.08" height="9.08" rx="1.28"/></g></svg>