<?xml version="1.0" standalone="no"?>
<!DOCTYPE svg PUBLIC "-//W3C//DTD SVG 20010904//EN"
 "http://www.w3.org/TR/2001/REC-SVG-20010904/DTD/svg10.dtd">
<svg version="1.0" xmlns="http://www.w3.org/2000/svg"
 width="512.000000pt" height="512.000000pt" viewBox="0 0 512.000000 512.000000"
 preserveAspectRatio="xMidYMid meet">

<g transform="translate(0.000000,512.000000) scale(0.100000,-0.100000)"
fill="#000000" stroke="none">
<path d="M500 4881 l0 -239 183 -129 182 -129 0 -1824 0 -1824 -182 -129 -183
-129 0 -239 0 -240 1433 4 c1286 3 1440 5 1512 20 638 132 1097 636 1165 1277
44 414 -108 845 -405 1146 -136 138 -319 264 -465 320 -25 9 -49 20 -53 24 -5
4 16 45 47 90 107 159 188 359 223 553 23 125 23 370 -1 497 -105 582 -539
1027 -1131 1163 -87 20 -122 21 -1207 24 l-1118 4 0 -240z m2183 -415 c301
-58 549 -288 629 -583 29 -109 29 -297 0 -404 -67 -246 -256 -457 -488 -545
-137 -52 -172 -54 -765 -54 l-549 0 0 800 0 800 549 0 c434 0 565 -3 624 -14z
m640 -2240 c301 -58 549 -288 629 -583 16 -60 21 -107 21 -203 0 -152 -21
-239 -89 -371 -84 -162 -243 -306 -412 -371 -149 -58 -145 -58 -1093 -58
l-869 0 0 800 0 800 869 0 c710 0 883 -3 944 -14z"/>
</g>
</svg>
