<svg width="16" height="16" viewBox="0 0 16 16" fill="none" xmlns="http://www.w3.org/2000/svg">
<path d="M14.4702 2.47019C14.7299 2.21049 14.7299 1.78943 14.4702 1.52973C14.2105 1.27004 13.7895 1.27004 13.5298 1.52973L8 7.05951L2.47023 1.52973C2.21053 1.27004 1.78947 1.27004 1.52977 1.52973C1.27008 1.78943 1.27008 2.21049 1.52977 2.47019L7.05955 7.99996L1.52977 13.5297C1.27008 13.7894 1.27008 14.2105 1.52977 14.4702C1.78947 14.7299 2.21053 14.7299 2.47023 14.4702L8 8.94041L13.5298 14.4702C13.7895 14.7299 14.2105 14.7299 14.4702 14.4702C14.7299 14.2105 14.7299 13.7894 14.4702 13.5297L8.94045 7.99996L14.4702 2.47019Z" fill="black"/>
</svg>
