<svg viewBox="0 0 512 512" xmlns="http://www.w3.org/2000/svg"><path d="M0 256a256 256 0 0 0 512 0 256 256 0 0 0-512 0m451 114a226 226 0 0 1-138 105c17-26 30-63 38-105m-190 0c8 42 21 79 38 105A226 226 0 0 1 61 370m0-228A226 226 0 0 1 199 37c-17 26-30 63-38 105m190 0c-8-42-21-79-38-105a226 226 0 0 1 138 105m-95 198c8-54 8-114 0-168h110a226 226 0 0 1 0 168M156 172c-8 54-8 114 0 168H46a226 226 0 0 1 0-168m275 198c-34 149-96 149-130 0m0-228c34-149 96-149 130 0m5 30c8 54 8 114 0 168H186c-8-54-8-114 0-168"/></svg>