<?xml version="1.0" standalone="no"?>
<!DOCTYPE svg PUBLIC "-//W3C//DTD SVG 20010904//EN"
 "http://www.w3.org/TR/2001/REC-SVG-20010904/DTD/svg10.dtd">
<svg version="1.0" xmlns="http://www.w3.org/2000/svg"
 width="512.000000pt" height="512.000000pt" viewBox="0 0 512.000000 512.000000"
 preserveAspectRatio="xMidYMid meet">

<g transform="translate(0.000000,512.000000) scale(0.100000,-0.100000)"
fill="#000000" stroke="none">
<path d="M2380 5114 c-19 -2 -78 -9 -130 -14 -330 -36 -695 -160 -990 -336
-375 -224 -680 -529 -904 -904 -175 -292 -291 -632 -338 -990 -16 -123 -16
-497 0 -620 82 -623 356 -1150 820 -1581 256 -239 575 -425 922 -539 274 -91
491 -124 800 -124 228 0 329 9 530 50 689 141 1304 583 1674 1204 175 292 291
632 338 990 16 123 16 497 0 620 -47 358 -163 698 -338 990 -224 375 -529 680
-904 904 -289 173 -634 291 -980 336 -88 12 -438 21 -500 14z m281 -320 c109
-55 219 -193 320 -399 81 -167 125 -292 184 -517 l43 -168 -648 0 -648 0 43
168 c59 225 103 350 184 517 114 233 237 376 360 416 38 12 123 3 162 -17z
m-695 -86 c-143 -232 -277 -596 -346 -940 l-11 -58 -495 0 c-272 0 -494 3
-494 6 0 12 95 152 159 234 271 349 667 627 1086 760 55 17 105 33 110 35 6 2
12 4 14 4 1 1 -9 -18 -23 -41z m1254 14 c428 -128 845 -415 1121 -772 64 -82
159 -222 159 -234 0 -3 -222 -6 -494 -6 l-495 0 -11 58 c-69 344 -203 708
-346 940 -16 25 -21 40 -13 38 8 -3 43 -14 79 -24z m-1664 -1334 c-7 -31 -23
-174 -38 -338 -7 -79 -12 -283 -12 -495 0 -342 5 -428 40 -762 l7 -63 -550 0
-550 0 -36 113 c-73 224 -104 401 -114 637 -11 296 33 570 142 883 l17 47 549
0 549 0 -4 -22z m1704 15 c0 -5 5 -37 10 -73 59 -391 63 -993 11 -1450 l-16
-145 -705 0 -705 0 -16 145 c-52 457 -48 1059 11 1450 5 36 10 68 10 73 0 4
315 7 700 7 385 0 700 -3 700 -7z m1415 -40 c183 -524 192 -1014 28 -1520
l-36 -113 -550 0 -550 0 7 63 c35 334 40 420 40 762 0 212 -5 416 -12 495 -15
164 -31 307 -38 338 l-4 22 549 0 549 0 17 -47z m-3043 -2063 c77 -344 198
-667 334 -888 16 -25 21 -40 13 -38 -8 3 -43 14 -79 24 -411 123 -813 393
-1085 727 -74 91 -205 280 -205 296 0 5 216 8 497 7 l497 -3 28 -125z m1578
123 c0 -24 -94 -364 -125 -453 -84 -243 -230 -494 -341 -586 -76 -64 -110 -78
-184 -78 -74 0 -108 14 -184 78 -111 92 -257 343 -341 586 -31 89 -125 429
-125 453 0 4 293 7 650 7 358 0 650 -3 650 -7z m1300 -2 c0 -4 -30 -53 -66
-107 -302 -453 -738 -773 -1262 -928 l-54 -15 26 42 c134 217 258 545 330 872
15 66 29 126 31 133 3 9 112 12 500 12 274 0 495 -4 495 -9z"/>
</g>
</svg>
