<?xml version="1.0" standalone="no"?>
<!DOCTYPE svg PUBLIC "-//W3C//DTD SVG 20010904//EN"
 "http://www.w3.org/TR/2001/REC-SVG-20010904/DTD/svg10.dtd">
<svg version="1.0" xmlns="http://www.w3.org/2000/svg"
 width="512.000000pt" height="512.000000pt" viewBox="0 0 512.000000 512.000000"
 preserveAspectRatio="xMidYMid meet">

<g transform="translate(0.000000,512.000000) scale(0.100000,-0.100000)"
fill="#000000" stroke="none">
<path d="M2671 5098 c-28 -14 -54 -38 -73 -67 -26 -41 -29 -53 -26 -112 3 -54
9 -73 31 -103 48 -62 88 -76 227 -76 66 0 120 -4 120 -8 0 -5 -258 -967 -574
-2138 -316 -1171 -579 -2148 -585 -2171 l-12 -43 -177 0 -178 0 -46 -29 c-76
-48 -109 -151 -74 -234 17 -42 76 -93 123 -107 26 -8 191 -10 524 -8 l485 3
42 28 c68 44 101 139 77 218 -12 40 -54 88 -95 109 -33 17 -59 20 -161 20
l-121 0 6 28 c7 27 1152 4281 1162 4315 5 15 22 17 180 17 152 0 180 2 212 19
46 23 67 46 87 94 42 100 -8 218 -107 254 -24 8 -172 12 -518 12 -478 1 -486
1 -529 -21z"/>
</g>
</svg>
