<?xml version="1.0" standalone="no"?>
<!DOCTYPE svg PUBLIC "-//W3C//DTD SVG 20010904//EN" "http://www.w3.org/TR/2001/REC-SVG-20010904/DTD/svg10.dtd">
<svg version="1.0" xmlns="http://www.w3.org/2000/svg" width="64.000000pt" height="64.000000pt" viewBox="0 0 64.000000 64.000000" preserveAspectRatio="xMidYMid meet">

  <g transform="translate(0.000000,64.000000) scale(0.100000,-0.100000)" fill="#000000" stroke="none">
    <path d="M180 590 c0 -40 0 -40 -40 -40 -30 0 -48 -7 -72 -29 l-33 -29 -3
-199 c-3 -214 0 -229 50 -266 44 -33 258 -38 258 -7 0 6 -37 10 -87 10 -49 0
-105 5 -125 10 -63 18 -68 33 -68 217 l0 163 260 0 260 0 0 -60 c0 -48 3 -60
16 -60 14 0 15 13 12 96 -3 94 -4 96 -36 125 -24 22 -42 29 -72 29 -40 0 -40
0 -40 40 0 29 -4 40 -15 40 -11 0 -15 -11 -15 -40 l0 -40 -110 0 -110 0 0 40
c0 29 -4 40 -15 40 -11 0 -15 -11 -15 -40z m376 -95 c14 -14 22 -30 19 -35 -8
-14 -502 -14 -510 0 -3 5 5 21 19 35 l25 25 211 0 211 0 25 -25z" />
    <path d="M399 241 c-36 -36 -39 -43 -39 -96 0 -53 3 -60 39 -96 36 -36 43 -39
96 -39 53 0 60 3 96 39 36 36 39 43 39 96 0 53 -3 60 -39 96 -36 36 -43 39
-96 39 -53 0 -60 -3 -96 -39z m172 -20 c24 -24 29 -38 29 -76 0 -66 -39 -105
-105 -105 -38 0 -52 5 -76 29 -24 24 -29 38 -29 76 0 38 5 52 29 76 42 42 110
42 152 0z" />
    <path d="M480 172 c0 -38 23 -72 48 -72 17 0 15 25 -3 40 -8 7 -15 25 -15 41
0 19 -5 29 -15 29 -11 0 -15 -11 -15 -38z" />
  </g>
</svg>