<svg width="17" height="17" viewBox="0 0 17 17" fill="none" xmlns="http://www.w3.org/2000/svg">
<g clip-path="url(#clip0_2196_167977)">
<path d="M8.75225 9.44545H7.57225C7.57225 8.43289 8.21694 7.96407 8.80888 7.53361C9.31125 7.16827 9.77563 6.83057 9.77563 6.21157C9.77563 5.37048 9.1134 4.70058 8.16571 4.70058C7.36571 4.70058 6.64338 5.29288 6.64338 6.21157H5.5744C5.5744 4.55478 6.93269 3.61621 8.16571 3.61621C9.73304 3.61621 10.8356 4.72933 10.8356 6.17157C10.8356 7.32804 10.2199 7.75158 9.65796 8.13816C9.18618 8.4627 8.75225 8.7612 8.75225 9.44545Z" fill="black"/>
<path d="M8.16226 12.2061C8.37559 12.2061 8.55559 12.1328 8.70226 11.9861C8.84892 11.8395 8.92226 11.6595 8.92226 11.4461C8.92226 11.2328 8.84892 11.0528 8.70226 10.9061C8.55559 10.7595 8.37559 10.6861 8.16226 10.6861C7.94892 10.6861 7.76892 10.7595 7.62226 10.9061C7.47559 11.0528 7.40226 11.2328 7.40226 11.4461C7.40226 11.6595 7.47559 11.8395 7.62226 11.9861C7.76892 12.1328 7.94892 12.2061 8.16226 12.2061Z" fill="black"/>
<path fill-rule="evenodd" clip-rule="evenodd" d="M7.99998 0.668457C3.95081 0.668457 0.668313 3.95096 0.668313 8.00012C0.668313 12.0493 3.95081 15.3318 7.99998 15.3318C12.0491 15.3318 15.3316 12.0493 15.3316 8.00012C15.3316 3.95096 12.0491 0.668457 7.99998 0.668457ZM1.99831 8.00012C1.99831 4.68549 4.68535 1.99846 7.99998 1.99846C11.3146 1.99846 14.0016 4.68549 14.0016 8.00012C14.0016 11.3148 11.3146 14.0018 7.99998 14.0018C4.68535 14.0018 1.99831 11.3148 1.99831 8.00012Z" fill="black"/>
</g>
<defs>
<clipPath id="clip0_2196_167977">
<rect width="16" height="16" fill="white" transform="translate(0.162231 0.0112305)"/>
</clipPath>
</defs>
</svg>
