<svg width="16" height="16" viewBox="0 0 16 16" fill="none" xmlns="http://www.w3.org/2000/svg">
<path fill-rule="evenodd" clip-rule="evenodd" d="M11.0422 2.0175C10.7189 1.98063 10.3902 1.99105 10.0664 2.05003C9.39949 2.17155 8.78541 2.49345 8.30604 2.97282C7.82667 3.45219 7.50478 4.06627 7.38326 4.73322C7.26174 5.40017 7.34636 6.08831 7.62585 6.70595C7.73997 6.95812 7.68595 7.25461 7.49023 7.45034L2.88356 12.057C2.74305 12.1975 2.66412 12.3881 2.66412 12.5868C2.66412 12.7855 2.74305 12.976 2.88356 13.1166C3.02406 13.2571 3.21463 13.336 3.41333 13.336C3.61204 13.336 3.8026 13.2571 3.94311 13.1166L8.54977 8.50989C8.7455 8.31416 9.04199 8.26014 9.29416 8.37426C9.9118 8.65375 10.5999 8.73837 11.2669 8.61685C11.9338 8.49533 12.5479 8.17344 13.0273 7.69407C13.5067 7.2147 13.8286 6.60062 13.9501 5.93367C14.0091 5.60993 14.0195 5.28119 13.9826 4.95795L12.2655 6.67504C12.0166 6.91904 11.6819 7.05568 11.3333 7.05568C10.9848 7.05568 10.6501 6.91901 10.4012 6.67502L10.3964 6.67036L9.32507 5.59897C9.08108 5.35004 8.94443 5.01535 8.94443 4.66678C8.94443 4.31821 9.0811 3.98354 9.3251 3.73461L9.32975 3.72986L11.0422 2.0175ZM9.82803 0.741576C10.761 0.571594 11.7235 0.689968 12.5875 1.08092C12.7864 1.17092 12.9284 1.35281 12.9676 1.56758C13.0067 1.78234 12.9379 2.00264 12.7836 2.157L10.2747 4.66586C10.2745 4.66613 10.2747 4.66553 10.2747 4.66586C10.2747 4.66619 10.2745 4.66743 10.2747 4.6677L11.3324 5.72541C11.3327 5.72558 11.3321 5.72541 11.3324 5.72541C11.3327 5.72541 11.334 5.72558 11.3343 5.72541L13.8431 3.21655C13.9975 3.06219 14.2178 2.99342 14.4325 3.03255C14.6473 3.07168 14.8292 3.21373 14.9192 3.41262C15.3101 4.27657 15.4285 5.23915 15.2585 6.17208C15.0886 7.10501 14.6383 7.96398 13.9677 8.63452C13.2972 9.30507 12.4382 9.75533 11.5053 9.92531C10.7269 10.0671 9.92793 10.0082 9.1828 9.75777L4.88356 14.057C4.49363 14.4469 3.96478 14.666 3.41333 14.666C2.86189 14.666 2.33304 14.4469 1.94311 14.057C1.55318 13.6671 1.33412 13.1382 1.33412 12.5868C1.33412 12.0353 1.55318 11.5065 1.94311 11.1166L6.24234 6.81732C5.99188 6.07218 5.93298 5.27317 6.0748 4.49481C6.24478 3.56188 6.69505 2.70291 7.36559 2.03237C8.03613 1.36182 8.8951 0.911559 9.82803 0.741576Z" fill="black"/>
</svg>
