<svg width="20" height="20" viewBox="0 0 20 20" fill="none" xmlns="http://www.w3.org/2000/svg">
    <path d="M19.3337 16V14.6667C19.3337 13.9594 19.0527 13.2811 18.5526 12.781C18.0525 12.281 17.3742 12 16.667 12H11.3337C10.6264 12 9.94814 12.281 9.44804 12.781C8.94794 13.2811 8.66699 13.9594 8.66699 14.6667V16" stroke="#000000" stroke-width="1.33333" stroke-linecap="round" stroke-linejoin="round" />
    <path d="M13.9997 9.33333C15.4724 9.33333 16.6663 8.13943 16.6663 6.66667C16.6663 5.19391 15.4724 4 13.9997 4C12.5269 4 11.333 5.19391 11.333 6.66667C11.333 8.13943 12.5269 9.33333 13.9997 9.33333Z" stroke="#000000" stroke-width="1.33333" stroke-linecap="round" stroke-linejoin="round" />
    <path d="M0.666992 15.9993V14.6659C0.667433 14.0751 0.864088 13.5011 1.22608 13.0341C1.58808 12.5672 2.09491 12.2336 2.66699 12.0859" stroke="#000000" stroke-width="1.33333" stroke-linecap="round" stroke-linejoin="round" />
    <path d="M5.33301 4.08594C4.7594 4.2328 4.25098 4.5664 3.88792 5.03414C3.52485 5.50188 3.32778 6.07716 3.32778 6.66927C3.32778 7.26138 3.52485 7.83666 3.88792 8.3044C4.25098 8.77214 4.7594 9.10574 5.33301 9.2526" stroke="#000000" stroke-width="1.33333" stroke-linecap="round" stroke-linejoin="round" />
    <path d="M4.66699 15.9993V14.6659C4.66743 14.0751 4.86409 13.5011 5.22608 13.0341C5.58808 12.5672 6.09491 12.2336 6.66699 12.0859" stroke="#000000" stroke-width="1.33333" stroke-linecap="round" stroke-linejoin="round" />
    <path d="M9.33301 4.08594C8.7594 4.2328 8.25098 4.5664 7.88792 5.03414C7.52485 5.50188 7.32778 6.07716 7.32778 6.66927C7.32778 7.26138 7.52485 7.83666 7.88792 8.3044C8.25098 8.77214 8.7594 9.10574 9.33301 9.2526" stroke="#000000" stroke-width="1.33333" stroke-linecap="round" stroke-linejoin="round" />
</svg>
