<?xml version="1.0" encoding="utf-8"?>
<!-- Generator: Adobe Illustrator 16.0.0, SVG Export Plug-In . SVG Version: 6.00 Build 0)  -->
<!DOCTYPE svg PUBLIC "-//W3C//DTD SVG 1.1//EN" "http://www.w3.org/Graphics/SVG/1.1/DTD/svg11.dtd">
<svg version="1.1" id="Layer_1" xmlns="http://www.w3.org/2000/svg" xmlns:xlink="http://www.w3.org/1999/xlink" x="0px" y="0px"
	 width="95px" height="100px" viewBox="0 0 95 100" enable-background="new 0 0 95 100" xml:space="preserve">
<g>
	<path fill="#FFFFFF" d="M65.92,10.495c-6.996,6.679,4.771,14.313,9.541,7.633C81.186,9.541,70.69,5.725,65.92,10.495"/>
	<g>
		<path fill="#43AD91" d="M65.178,9.753c-2.998,3.011-3.336,7.253,0.078,10.1c3.172,2.645,7.943,2.531,10.686-0.638
			c2.555-2.953,3.339-8.006-0.252-10.474C72.456,6.519,67.971,7.109,65.178,9.753c-0.985,0.933,0.502,2.415,1.484,1.484
			c1.894-1.791,4.774-2.299,7.15-1.181c3.263,1.537,2.306,5.093,0.742,7.541c-1.648,2.581-5.136,2.437-7.456,1.015
			c-2.987-1.832-2.696-5.104-0.437-7.375C67.618,10.277,66.134,8.792,65.178,9.753L65.178,9.753z"/>
	</g>
</g>
<g>
	<path fill="#FFFFFF" d="M7.258,31.294c-4.112,3.924,2.803,8.41,5.608,4.486C16.231,30.731,10.061,28.488,7.258,31.294"/>
	<g>
		<path fill="#43AD91" d="M6.515,30.552c-1.916,1.923-2.141,4.724,0.046,6.547c2.034,1.695,5.117,1.677,6.894-0.374
			c1.698-1.96,2.118-5.219-0.236-6.837C11.157,28.472,8.289,28.871,6.515,30.552C5.53,31.484,7.018,32.967,8,32.036
			c0.961-0.911,2.462-1.2,3.678-0.627c1.69,0.796,1.078,2.594,0.281,3.841c-0.839,1.315-2.639,1.146-3.791,0.439
			C6.649,34.758,6.873,33.169,8,32.036C8.957,31.076,7.472,29.591,6.515,30.552L6.515,30.552z"/>
	</g>
</g>
<g>
	<g>
		<path fill="#45A98C" d="M24.167,88.317c3.542-5.666,9.206-4.25,9.916,2.124c-2.834,0-7.083,0.708-9.916-0.708V88.317z"/>
		<g>
			<path fill="#45A98C" d="M25.074,88.848c1.108-1.677,2.812-3.426,5.01-2.927c2.065,0.47,2.741,3.018,2.986,4.8
				c0.338-0.443,0.675-0.887,1.013-1.329c-3.067,0.04-6.484,0.725-9.386-0.564c0.173,0.302,0.347,0.604,0.52,0.906
				c0-0.472,0-0.944,0-1.416c0-1.354-2.1-1.354-2.1,0c0,0.472,0,0.944,0,1.416c0,0.338,0.193,0.762,0.52,0.906
				c3.338,1.483,6.909,0.898,10.446,0.852c0.75-0.01,1.105-0.658,1.013-1.329c-0.39-2.824-1.813-5.666-4.808-6.347
				c-2.994-0.68-5.521,1.693-7.028,3.972C22.511,88.921,24.331,89.972,25.074,88.848z"/>
		</g>
	</g>
	<g>
		<polygon fill="#FFFFFF" points="44.746,90.892 42.55,69.991 24.634,66.036 14.028,73.338 9.914,68.166 24.634,57.82 
			38.986,61.776 31.032,48.085 23.627,48.085 23.078,41.39 29.753,41.39 27.329,28.611 41.18,24.048 44.746,31.046 34.324,33.176 
			37.34,48.085 55.441,44.129 55.441,35.001 61.475,35.001 61.475,48.998 43.374,54.474 48.036,65.123 64.128,59.646 72.994,45.042 
			77.93,46.868 76.012,52.039 82.594,54.474 80.672,59.037 74.732,57.471 69.154,63.906 50.505,70.6 50.23,90.579 		"/>
		<g>
			<path fill="#43AD91" d="M45.795,90.892c-0.732-6.967-1.464-13.934-2.196-20.9c-0.047-0.452-0.283-0.905-0.771-1.013
				c-3.306-0.729-6.611-1.459-9.917-2.188c-2.124-0.47-6.371-2.368-8.558-1.767c-2.871,0.79-6.128,4.152-8.566,5.831
				c-0.549,0.377-1.098,0.755-1.646,1.133c-1.152,0.794,0.824,0.854,0.2,0.07c-1.229-1.545-2.458-3.09-3.686-4.634
				c-0.071,0.55-0.142,1.1-0.213,1.648c4.739-3.33,9.477-6.66,14.216-9.99c0.701-0.493-0.766-0.376,0.847,0.068
				c1.543,0.425,3.086,0.851,4.629,1.275c2.857,0.788,5.714,1.575,8.572,2.363c0.891,0.245,1.649-0.746,1.186-1.543
				c-2.455-4.226-4.91-8.451-7.365-12.677c-1.633-2.813-6.009-1.534-8.901-1.534c0.35,0.35,0.7,0.7,1.05,1.05
				c-0.183-2.231-0.366-4.464-0.549-6.695c-0.35,0.35-0.7,0.7-1.05,1.05c2.225,0,4.45,0,6.675,0c0.725,0,1.138-0.666,1.013-1.329
				c-0.808-4.26-1.616-8.519-2.424-12.778c-0.245,0.431-0.489,0.861-0.733,1.292c3.774-1.243,7.548-2.487,11.322-3.73
				c0.735-0.242,1.471-0.484,2.206-0.727c-0.089,0.029-1.122-1.097-0.306,0.504c1.003,1.969,2.006,3.937,3.009,5.905
				c0.209-0.515,0.418-1.028,0.627-1.543c-3.474,0.71-6.948,1.42-10.422,2.13c-0.588,0.12-0.84,0.762-0.733,1.292
				c1.006,4.97,2.011,9.939,3.017,14.909c0.118,0.582,0.764,0.849,1.292,0.733c6.033-1.319,12.067-2.638,18.101-3.956
				c0.453-0.1,0.771-0.564,0.771-1.013c0-3.043,0-6.085,0-9.128c-0.35,0.35-0.7,0.7-1.05,1.05c2.011,0,4.022,0,6.034,0
				c-0.35-0.35-0.7-0.7-1.05-1.05c0,2.829,0,5.658,0,8.488c0,1.578,0,3.155,0,4.733c0,1.267,1.482-0.452-0.167,0.047
				C54.537,50,48.816,51.73,43.095,53.461c-0.704,0.213-0.9,0.919-0.627,1.543c1.554,3.55,3.108,7.1,4.662,10.649
				c0.178,0.406,0.782,0.62,1.186,0.482c3.296-1.122,6.592-2.244,9.888-3.365c1.745-0.594,5.922-1.097,6.98-2.84
				c2.089-3.44,4.177-6.88,6.266-10.32c0.805-1.325,1.608-2.65,2.413-3.976c-1.13,0.303-1.256,0.538-0.376,0.705
				c0.565,0.209,1.131,0.419,1.696,0.628c0.823,0.304,1.646,0.608,2.468,0.913c-0.244-0.431-0.488-0.861-0.733-1.292
				c-0.639,1.724-1.278,3.447-1.918,5.171c-0.211,0.57,0.234,1.107,0.733,1.292c2.194,0.812,4.389,1.623,6.582,2.435
				c-0.244-0.431-0.488-0.861-0.733-1.292c-0.641,1.521-1.281,3.043-1.922,4.563c0.431-0.244,0.861-0.488,1.292-0.733
				c-1.98-0.521-3.96-1.044-5.939-1.566c-0.344-0.09-0.779-0.009-1.021,0.271c-1.608,1.854-3.217,3.71-4.824,5.565
				c-0.791,0.912-2.281,1.314-4.319,2.046c-4.874,1.749-9.747,3.498-14.621,5.247c-0.449,0.161-0.764,0.518-0.771,1.013
				c-0.092,6.66-0.184,13.319-0.275,19.979c0.35-0.35,0.7-0.7,1.05-1.05c-1.828,0.104-3.656,0.208-5.484,0.313
				c-1.346,0.076-1.354,2.177,0,2.1c1.828-0.104,3.656-0.208,5.484-0.313c0.578-0.032,1.042-0.453,1.05-1.05
				c0.068-4.934,0.136-9.866,0.204-14.8c0.017-1.233,0.034-2.467,0.051-3.7c0.025-1.859,0.373-0.87-0.69-0.489
				c2.168-0.777,4.336-1.556,6.504-2.334c2.938-1.055,5.876-2.108,8.813-3.163c1.032-0.37,3.057-0.662,3.828-1.553
				c1.71-1.972,3.42-3.944,5.129-5.917c0.476-0.435,0.309-0.466-0.5-0.096c0.642,0.169,1.283,0.338,1.925,0.507
				c1.283,0.339,2.565,0.677,3.849,1.016c0.608,0.16,1.068-0.202,1.292-0.733c0.641-1.521,1.281-3.042,1.922-4.563
				c0.235-0.56-0.253-1.114-0.733-1.292c-2.194-0.812-4.389-1.623-6.582-2.435c0.244,0.431,0.488,0.861,0.733,1.292
				c0.639-1.724,1.278-3.447,1.918-5.171c0.211-0.57-0.234-1.107-0.733-1.292c-1.646-0.608-3.291-1.217-4.936-1.826
				c-0.442-0.163-0.957,0.105-1.186,0.482c-2.139,3.522-4.276,7.044-6.415,10.566c-0.805,1.325-1.608,2.65-2.413,3.976
				c0.429-0.707,0.482-0.384-0.437-0.07c-1.142,0.388-2.283,0.776-3.424,1.165c-2.397,0.815-4.795,1.632-7.193,2.448
				c-0.964,0.328-1.929,0.656-2.893,0.984c-2.019,0.687-0.83-0.037-0.412,0.917c-1.54-3.519-3.08-7.036-4.62-10.555
				c-0.209,0.515-0.418,1.028-0.627,1.543c6.033-1.825,12.067-3.65,18.101-5.476c0.448-0.136,0.771-0.537,0.771-1.013
				c0-4.666,0-9.331,0-13.997c0-0.572-0.478-1.05-1.05-1.05c-2.011,0-4.022,0-6.034,0c-0.572,0-1.05,0.478-1.05,1.05
				c0,2.439,0,4.879,0,7.318c0,0.435,0,0.869,0,1.304c0,1.09,1.135-0.586,0.507-0.449c-0.855,0.188-1.709,0.374-2.564,0.561
				c-5.091,1.113-10.182,2.226-15.272,3.338c0.431,0.245,0.861,0.489,1.292,0.733c-1.006-4.97-2.011-9.939-3.017-14.909
				c-0.245,0.431-0.489,0.861-0.733,1.292c3.474-0.71,6.948-1.42,10.422-2.13c0.699-0.144,0.917-0.976,0.627-1.543
				c-1.189-2.332-2.377-4.665-3.566-6.998c-0.205-0.4-0.761-0.622-1.186-0.482c-4.617,1.521-9.233,3.043-13.851,4.563
				c-0.577,0.19-0.844,0.707-0.733,1.292c0.808,4.259,1.616,8.519,2.424,12.778c0.338-0.443,0.675-0.887,1.013-1.329
				c-2.225,0-4.45,0-6.675,0c-0.537,0-1.097,0.479-1.05,1.05c0.183,2.231,0.366,4.464,0.549,6.695c0.046,0.57,0.442,1.05,1.05,1.05
				c1.829,0,3.657,0,5.485,0c1.561,0,1.589,0.471,1.054-0.45c0.401,0.689,0.801,1.38,1.202,2.069
				c2.237,3.851,4.474,7.702,6.711,11.553c0.396-0.515,0.791-1.028,1.186-1.543c-2.857-0.787-5.715-1.575-8.572-2.362
				c-1.163-0.321-5.39-2.331-6.589-1.487c-4.907,3.448-9.813,6.896-14.72,10.346c-0.597,0.419-0.656,1.092-0.213,1.648
				c1.372,1.725,2.743,3.448,4.114,5.172c0.275,0.346,0.919,0.408,1.272,0.164c3.51-2.416,7.02-4.832,10.529-7.248
				c-0.687,0.473-0.398,0.126,0.778,0.386c1.238,0.273,2.476,0.547,3.713,0.82c3.047,0.672,6.094,1.345,9.141,2.018
				c0.853,0.188,1.707,0.377,2.56,0.564c1.555,0.344,0.291-0.133,0.246-0.559c0.224,2.126,0.447,4.253,0.67,6.379
				c0.5,4.762,1.001,9.524,1.501,14.287C43.835,92.225,45.937,92.238,45.795,90.892z"/>
		</g>
	</g>
	<g>
		<path fill="#45A98C" d="M45.877,91.027c4.958-9.915,18.414-7.081,20.539,2.126c-6.375,0.707-17.705,2.831-20.539-1.418V91.027z"/>
		<g>
			<path fill="#45A98C" d="M46.784,91.558c4.399-8.004,16.098-7.261,18.62,1.875c0.338-0.443,0.675-0.887,1.013-1.329
				c-2.514,0.292-19.489,3.275-19.489-1.076c0-1.354-2.1-1.354-2.1,0c0,7.373,17.793,3.616,21.589,3.176
				c0.665-0.077,1.21-0.612,1.013-1.329c-2.991-10.839-17.181-11.979-22.458-2.377C44.318,91.685,46.131,92.744,46.784,91.558z"/>
		</g>
	</g>
</g>
</svg>
