<?xml version="1.0" encoding="utf-8"?>
<!-- Generator: Adobe Illustrator 16.0.0, SVG Export Plug-In . SVG Version: 6.00 Build 0)  -->
<!DOCTYPE svg PUBLIC "-//W3C//DTD SVG 1.1//EN" "http://www.w3.org/Graphics/SVG/1.1/DTD/svg11.dtd">
<svg version="1.1" id="Layer_1" xmlns="http://www.w3.org/2000/svg" xmlns:xlink="http://www.w3.org/1999/xlink" x="0px" y="0px"
	 width="134.75px" height="54.167px" viewBox="0 0 134.75 54.167" enable-background="new 0 0 134.75 54.167" xml:space="preserve">
<g>
	<path fill="#FFFFFF" d="M119.171,41.5c-0.088,0-0.176,0-0.265,0c-4.81,0-9.62,0-14.431,0c-7.726,0-15.451,0-23.177,0
		c-3.02,0-6.039,0-9.059,0c-1.274,0-2.929-0.259-4.089,0.315c-0.856,0.423-1.246,1.292-1.701,2.078
		c-0.755,1.303-1.761,2.355-2.932,3.297c-0.957,0.77-1.958,1.767-3.059,2.362c-1.361,0.737-1.649,1.214-3.21,1.114
		c1.462-0.65,1.106-3.035,1.747-4.438c0.499-1.091,0.995-4.292-0.564-4.806c-0.499-0.165-1.72,0.076-2.301,0.076
		c-2.146,0-4.292,0-6.438,0c-7.123,0-14.246,0-21.369,0c-4.051,0-8.103,0-12.153,0c-6.489,0-11.75-5.261-11.75-11.75v-14
		C4.421,9.261,9.682,4,16.171,4h103c6.489,0,11.75,5.261,11.75,11.75v14C130.921,36.239,125.66,41.5,119.171,41.5z"/>
	<g>
		<path fill="#43AD91" d="M119.171,40.45c-11.98,0-23.96,0-35.94,0c-4.884,0-10.616-0.883-15.358,0.352
			c-1.111,0.29-1.805,1.682-2.328,2.561c-1.5,2.517-5.226,6.051-8.294,6.254c0.247,0.597,0.495,1.195,0.742,1.792
			c2.032-1.719,2.72-6.192,2.44-8.754c-0.415-3.815-6.765-2.206-9.13-2.206c-7.659,0-15.319,0-22.979,0
			c-7.765,0-17.336,1.896-21.803-6.063c-1.699-3.029-1.051-7.782-1.051-11.138c0-3.969-0.528-8.402,1.051-12.137
			C9.05,5.134,15.08,5.05,20.435,5.05c28.216,0,56.433,0,84.648,0c4.696,0,9.392,0,14.088,0c10.214,0,10.7,9.693,10.7,17.201
			C129.871,30.292,129.886,39.832,119.171,40.45c-1.346,0.078-1.354,2.178,0,2.1c8.46-0.488,12.8-6.822,12.8-14.803
			c0-6.103,1.585-15.099-2.889-20.088c-6.153-6.864-17.888-4.708-26.192-4.708c-27.884,0-55.769,0-83.652,0
			c-4.574,0-8.473,0.481-12.117,3.749C1.544,11.698,3.371,21.807,3.371,28.42c0,10.062,7.051,14.13,16.272,14.13
			c8.073,0,16.147,0,24.222,0c4.089,0,8.178,0,12.267,0c3.263,0,2.369,5.689,0.376,7.375c-0.69,0.584-0.143,1.851,0.742,1.792
			c3.316-0.218,5.735-2.656,8.124-4.768c2.246-1.986,3.163-4.523,6.866-4.399c3.012,0.101,6.045,0,9.059,0
			c12.624,0,25.248,0,37.872,0C120.525,42.55,120.525,40.45,119.171,40.45z"/>
	</g>
</g>
</svg>
