<?xml version="1.0" encoding="utf-8"?>
<!-- Generator: Adobe Illustrator 16.0.0, SVG Export Plug-In . SVG Version: 6.00 Build 0)  -->
<!DOCTYPE svg PUBLIC "-//W3C//DTD SVG 1.1//EN" "http://www.w3.org/Graphics/SVG/1.1/DTD/svg11.dtd">
<svg version="1.1" id="Layer_1" xmlns="http://www.w3.org/2000/svg" xmlns:xlink="http://www.w3.org/1999/xlink" x="0px" y="0px"
	 width="120px" height="100px" viewBox="0 0 120 100" enable-background="new 0 0 120 100" xml:space="preserve">
<g>
	<g>
		<g>
			<path fill="#CADEE3" d="M46.124,88.571c-0.229,2.579-0.568,5.222,1.845,6.374c4.781,2.534,6.127,0.094,9.206-2.446"/>
			<g>
				<path fill="#43AD91" d="M45.074,88.571c-0.146,1.628-0.4,3.448,0.262,5.001c0.719,1.685,2.138,2.353,3.755,3.026
					c3.714,1.548,6.223-1.156,8.826-3.357c1.036-0.875-0.457-2.354-1.484-1.484c-1.582,1.337-3.066,3.239-5.309,3.194
					c-1.639-0.032-3.557-1.078-4.006-2.68c-0.319-1.142-0.047-2.544,0.056-3.7C47.295,87.222,45.194,87.233,45.074,88.571
					L45.074,88.571z"/>
			</g>
		</g>
		<g>
			<path fill="#FFFFFF" d="M43.595,13.847c-6.229-1.128-17.7,0.369-21.492,6.83c0.665-8.935-7.372-15.871-15.719-17.146
				c-6.243,10.785,1.04,19.252,10.523,24.783l-0.084,0.461c-2.674,14.765,0.479,26.299,8.541,39.674
				c11.208,14.423,24.112,18.822,39.977,22.017c15.234,3.067,38.305-1.64,38.67-22.067c-7.644-15.682-27.698-20.745-42.756-19.185
				C54,49.808,46.2,50.778,38.983,48.518c-7.217-2.259-21.93-5.225-16.156-19.131c9.062,2.595,21.887-4.613,21.229-15.456"/>
			<g>
				<path fill="#43AD91" d="M43.874,12.834c-7.829-1.202-17.949,0.256-22.678,7.313c0.652,0.176,1.305,0.353,1.957,0.53
					c0.235-9.642-7.473-16.458-16.49-18.158C6.211,2.434,5.708,2.563,5.477,3.002c-5.043,9.556-0.891,17.673,7.172,23.794
					c0.158,0.12,3.022,2.465,3.204,1.47c-0.217,1.193-0.389,2.382-0.556,3.583c-0.381,2.737-0.471,5.49-0.434,8.249
					c0.084,6.254,1.731,12.369,4.063,18.129c8.583,21.211,29.5,31.981,51.506,33.995c8.393,0.768,17.366-0.816,24.552-5.325
					c3.124-1.959,5.611-4.731,7.441-7.906c1.37-2.379,3.873-8.448,2.492-11.122c-4.641-8.986-12.83-14.541-22.285-17.601
					c-11.142-3.605-22-1.482-33.395-1.381c-6.379,0.057-13.122-1.878-18.988-4.406c-6.627-2.855-8.996-7.972-6.409-14.816
					c-0.431,0.244-0.861,0.489-1.292,0.733c10.584,2.555,22.716-5.047,22.558-16.468c-0.019-1.353-2.119-1.355-2.1,0
					c0.138,10.04-10.626,16.682-19.9,14.443c-0.596-0.144-1.084,0.185-1.292,0.733c-6.432,17.022,16.899,21.974,29.157,21.866
					c10.826-0.097,20.444-1.816,31.102,1.32c5.191,1.528,10.016,4.143,14.135,7.64c2.233,1.897,4.054,4.209,5.625,6.667
					c1.729,2.707,0.868,5.743-0.021,8.592c-2.793,8.951-12.269,13.111-20.762,14.565c-9.753,1.671-19.826-0.79-29.072-3.784
					C27.671,78.102,13.35,53.703,17.92,28.594c0.086-0.475-0.052-0.926-0.483-1.186C10.471,23.2,3.581,17.039,5.568,8.092
					c1.223-5.503,5.725-2.261,8.966-0.123c4.314,2.847,6.643,7.626,6.52,12.708c-0.027,1.1,1.401,1.358,1.957,0.53
					c4.132-6.167,13.489-7.394,20.306-6.347C44.64,15.063,45.209,13.04,43.874,12.834L43.874,12.834z"/>
			</g>
		</g>
	</g>
	<g>
		<path fill="#CADEE3" d="M103.586,68.755c0.172,20.762-24.459,24.522-40.034,21.702c-8.306-1.506-15.89-5.024-23.064-8.826
			c-7.804-4.273-12.829-11.068-17.3-16.971c7.399,8.489,22.191,15.622,32.574,17.503c9.69,1.755,19.056,3.423,28.806,0.899
			C90.887,81.705,100.601,75.361,103.586,68.755z"/>
		<g>
			<path fill="#43AD91" d="M102.536,68.755c-0.26,16.104-15.962,21.38-29.695,21.476c-8.975,0.063-17.484-2.636-25.566-6.357
				C37.288,79.274,30.65,72.787,24.094,64.13c-0.55,0.425-1.1,0.849-1.649,1.272C33.28,77.308,49.031,82.439,64.493,84.67
				c14.553,2.1,32.613-0.855,39.999-15.385c0.612-1.204-1.199-2.268-1.813-1.061c-7.735,15.215-26.521,16.207-41.219,13.877
				C47.641,79.91,33.55,74.488,23.93,63.918c-0.793-0.871-2.374,0.315-1.649,1.272c6.837,9.027,13.642,15.556,23.935,20.496
				c8.751,4.2,17.995,6.704,27.717,6.637c14.712-0.103,30.436-6.948,30.704-23.568C104.658,67.4,102.558,67.402,102.536,68.755z"/>
		</g>
	</g>
	<g>
		<path fill="#CADEE3" d="M71.614,53.849c-3.179-0.219-4.089,2.834-0.564,3.114C74.573,57.243,74.828,53.537,71.614,53.849"/>
		<g>
			<path fill="#43AD91" d="M71.614,52.799c-1.485-0.077-3.553,0.543-3.83,2.263c-0.339,2.096,1.896,2.92,3.597,2.967
				c1.687,0.046,3.377-0.93,3.535-2.717C75.074,53.518,73.095,52.683,71.614,52.799c-1.341,0.104-1.352,2.206,0,2.1
				c0.238-0.019,0.472-0.021,0.71-0.001c0.069,0.006,0.296,0.102,0.326,0.118c0.092,0.05,0.103,0.064,0.137,0.118
				c0.04,0.063,0.028,0.041,0.03,0.096c0.011,0.266,0.056-0.215-0.002,0.05c-0.011,0.051-0.12,0.283-0.018,0.073
				c-0.014,0.028-0.18,0.26-0.043,0.092c-0.063,0.077-0.137,0.143-0.21,0.208c-0.115,0.103-0.607,0.256-1.007,0.274
				c-0.518,0.023-1.085-0.057-1.519-0.299c-0.269-0.15,0.076,0.094-0.128-0.095c-0.21-0.193,0.075,0.146-0.062-0.081
				c0.112,0.186,0.007,0.009-0.011-0.064c0.068,0.289,0.05-0.14,0.003,0.15c0.009-0.054,0.109-0.282,0.008-0.069
				c0.016-0.032,0.182-0.252,0.045-0.09c0.142-0.168,0.117-0.142,0.37-0.282c0.337-0.188,0.903-0.222,1.369-0.198
				C72.969,54.969,72.962,52.868,71.614,52.799L71.614,52.799z"/>
		</g>
	</g>
	<g>
		<path fill="#CADEE3" d="M72.212,37.802c-1.022-1.593-4.024-11.991-0.755-12.278c2.43-0.264,0.966,9.149,0.909,11.426"/>
		<g>
			<path fill="#43AD91" d="M73.118,37.272c-0.765-1.31-1.113-2.924-1.474-4.381c-0.429-1.734-1.162-4.393-0.343-6.115
				c0.272-0.573,0.453,1.334,0.469,1.531c0.08,1.005,0.028,2.025-0.02,3.03c-0.088,1.875-0.358,3.737-0.435,5.612
				c-0.055,1.354,2.045,1.349,2.1,0c0.078-1.927,2.174-14.343-2.752-12.287c-2.184,0.912-1.81,4.159-1.566,6.012
				c0.331,2.516,0.909,5.434,2.208,7.657C71.987,39.5,73.803,38.444,73.118,37.272L73.118,37.272z"/>
		</g>
	</g>
	<g>
		<path fill="#CADEE3" d="M75.588,35.598c0.71-1.279,1.728-6.902,3.235-4.692c1.59,2.4-1.726,4.262-2.804,4.947"/>
		<g>
			<path fill="#43AD91" d="M76.494,36.127c0.748-1.433,0.828-3.532,1.883-4.727c0.19-0.215-0.211,0.142-0.475,0
				c0.02,0.01,0.196,0.349,0.232,0.445c0.169,0.451-0.036,0.914-0.316,1.272c-0.613,0.787-1.498,1.305-2.329,1.828
				c-1.143,0.72-0.089,2.538,1.061,1.813c1.244-0.784,2.491-1.603,3.276-2.884c0.828-1.353,0.521-3.538-0.958-4.339
				c-2.674-1.45-3.495,4.206-4.187,5.532C74.056,36.267,75.868,37.329,76.494,36.127L76.494,36.127z"/>
		</g>
	</g>
	<g>
		<g>
			<path fill="#43AD91" d="M84.923,73.574c0.059,0.079,0.115,0.158,0.168,0.241c0.159,0.247,0.019-0.022,0.063,0.103
				c0.098,0.273,0.008-0.133,0.009,0.013c0.034-0.194,0.039-0.238,0.015-0.133c0.083-0.177,0.1-0.219,0.05-0.126
				c0.125-0.148,0.151-0.185,0.08-0.108c-0.078,0.069-0.043,0.042,0.104-0.08c-0.211,0.142,0.193-0.061,0.028-0.01
				c-0.259,0.08,0.205-0.01,0.022,0.005c-0.072,0.006-0.146,0.002-0.218-0.004c0.455,0.033-0.342-0.16,0.059,0.019
				c-0.079-0.035-0.277-0.186-0.005,0.027c-0.082-0.064-0.178-0.241,0.003,0.03c-0.051-0.094-0.035-0.054,0.045,0.12
				c-0.027-0.105-0.024-0.061,0.009,0.134c-0.03-0.265-0.051,0.18-0.003,0.002c0.037-0.135-0.107,0.184,0.049-0.065
				c0.065-0.092,0.063-0.091-0.005,0.004c0.044-0.05,0.09-0.099,0.137-0.146c-0.154,0.09-0.309,0.181-0.463,0.271
				c-0.214,0.035-0.192,0.021-0.006,0.01c0.068-0.003,0.136-0.003,0.204,0c-0.021-0.003-0.043-0.007-0.064-0.01
				c0.179,0.056,0.14,0.028-0.117-0.083c0.955,0.962,2.439-0.523,1.484-1.484c-0.452-0.455-1.11-0.58-1.729-0.503
				c-0.639,0.079-1.083,0.505-1.362,1.077c-0.44,0.903-0.162,1.967,0.765,2.431c0.813,0.405,1.758,0.36,2.479-0.2
				c0.843-0.653,0.56-1.861,0.013-2.593c-0.342-0.457-0.9-0.69-1.437-0.376C84.848,72.402,84.579,73.114,84.923,73.574z"/>
		</g>
	</g>
</g>
</svg>
