<?xml version="1.0" encoding="utf-8"?>
<!-- Generator: Adobe Illustrator 16.0.0, SVG Export Plug-In . SVG Version: 6.00 Build 0)  -->
<!DOCTYPE svg PUBLIC "-//W3C//DTD SVG 1.1//EN" "http://www.w3.org/Graphics/SVG/1.1/DTD/svg11.dtd">
<svg version="1.1" id="Layer_1" xmlns="http://www.w3.org/2000/svg" xmlns:xlink="http://www.w3.org/1999/xlink" x="0px" y="0px"
	 width="420px" height="111px" viewBox="0 0 420 111" enable-background="new 0 0 420 111" xml:space="preserve">
<g>
	<path fill="#FFFFFF" d="M26.576,20.064C32.023,4.24,47.541,7.287,55.852,16.976l0,0c0.342-2.7,1.362-5.402,3.745-6.561
		c2.044,3.861,2.384,11.966,1.361,16.213c-1.7-0.387-3.064-1.546-4.083-3.477l-0.681-1.156c-6.808,8.103-22.81,10.42-28.938,0.386
		L26.576,20.064z"/>
	<g>
		<path fill="#45A588" d="M27.413,20.295c5.222-13.692,19.153-12.29,27.825-2.705c0.416,0.46,1.337,0.254,1.452-0.384
			c0.01-1.912,1.016-3.273,3.018-4.082c0.635,1.949,0.758,4.052,0.899,6.082c0.112,1.59,0.013,3.185-0.097,4.771
			c-0.193,2.807-3.345-2.047-3.565-2.421c-0.274-0.465-0.984-0.595-1.366-0.176c-6.815,7.485-24.469,11.046-28.167-1.547
			c-0.315-1.073-1.993-0.616-1.675,0.461c2.127,7.246,9.328,9.938,16.407,9.512c4.217-0.253,8.264-2.001,11.674-4.406
			c2.418-1.707,1.417-3.21,3.136-0.508c0.884,1.389,2.299,2.044,3.773,2.573c0.422,0.151,0.983-0.168,1.068-0.607
			c1.084-5.524,0.874-11.693-1.449-16.882c-0.184-0.411-0.827-0.557-1.188-0.312c-2.65,1.809-3.576,3.949-4.146,7.08
			c0.485-0.127,0.968-0.256,1.453-0.384c-9.738-10.764-25.088-11.325-30.73,3.472C25.338,20.883,27.02,21.332,27.413,20.295z"/>
	</g>
</g>
<g enable-background="new    ">
	<path fill="#44A587" d="M11.208,44.198h1.02v8.223h-1.02V44.198z"/>
	<path fill="#44A587" d="M19.016,49.571c0,2.073-1.436,2.977-2.791,2.977c-1.517,0-2.687-1.112-2.687-2.884
		c0-1.876,1.228-2.977,2.78-2.977C17.927,46.688,19.016,47.857,19.016,49.571z M14.568,49.629c0,1.228,0.707,2.154,1.703,2.154
		c0.973,0,1.703-0.915,1.703-2.177c0-0.95-0.475-2.154-1.68-2.154C15.09,47.452,14.568,48.564,14.568,49.629z"/>
	<path fill="#44A587" d="M25.134,46.815c-0.023,0.405-0.046,0.857-0.046,1.541v3.254c0,1.285-0.255,2.073-0.799,2.56
		c-0.544,0.509-1.332,0.671-2.039,0.671c-0.671,0-1.413-0.162-1.865-0.463l0.255-0.776c0.371,0.232,0.95,0.44,1.645,0.44
		c1.042,0,1.807-0.544,1.807-1.958v-0.625h-0.023c-0.313,0.521-0.915,0.938-1.784,0.938c-1.39,0-2.386-1.182-2.386-2.733
		c0-1.899,1.239-2.977,2.525-2.977c0.973,0,1.505,0.51,1.749,0.973h0.023l0.046-0.846H25.134z M24.08,49.027
		c0-0.173-0.012-0.324-0.058-0.463c-0.185-0.591-0.683-1.077-1.424-1.077c-0.973,0-1.668,0.822-1.668,2.119
		c0,1.101,0.556,2.015,1.656,2.015c0.625,0,1.193-0.394,1.413-1.042c0.058-0.174,0.081-0.371,0.081-0.544V49.027z"/>
	<path fill="#44A587" d="M31.854,49.571c0,2.073-1.436,2.977-2.791,2.977c-1.517,0-2.687-1.112-2.687-2.884
		c0-1.876,1.228-2.977,2.78-2.977C30.766,46.688,31.854,47.857,31.854,49.571z M27.407,49.629c0,1.228,0.707,2.154,1.703,2.154
		c0.973,0,1.703-0.915,1.703-2.177c0-0.95-0.475-2.154-1.68-2.154C27.929,47.452,27.407,48.564,27.407,49.629z"/>
	<path fill="#44A587" d="M35.6,48.332c0-0.579-0.011-1.054-0.046-1.517h0.892l0.046,0.903h0.035c0.313-0.533,0.834-1.031,1.76-1.031
		c0.765,0,1.344,0.463,1.587,1.124h0.023c0.174-0.313,0.394-0.556,0.625-0.729c0.336-0.255,0.707-0.394,1.239-0.394
		c0.741,0,1.841,0.486,1.841,2.432v3.301h-0.996v-3.173c0-1.077-0.394-1.726-1.216-1.726c-0.579,0-1.031,0.429-1.205,0.926
		c-0.046,0.139-0.081,0.325-0.081,0.51v3.463h-0.996v-3.358c0-0.892-0.394-1.541-1.169-1.541c-0.637,0-1.101,0.51-1.263,1.019
		c-0.058,0.151-0.081,0.324-0.081,0.498v3.382H35.6V48.332z"/>
	<path fill="#44A587" d="M50.337,49.571c0,2.073-1.436,2.977-2.791,2.977c-1.517,0-2.687-1.112-2.687-2.884
		c0-1.876,1.228-2.977,2.78-2.977C49.249,46.688,50.337,47.857,50.337,49.571z M45.89,49.629c0,1.228,0.707,2.154,1.703,2.154
		c0.973,0,1.703-0.915,1.703-2.177c0-0.95-0.475-2.154-1.68-2.154C46.411,47.452,45.89,48.564,45.89,49.629z"/>
	<path fill="#44A587" d="M55.622,52.212c-0.266,0.139-0.857,0.324-1.609,0.324c-1.691,0-2.792-1.146-2.792-2.86
		c0-1.726,1.182-2.977,3.011-2.977c0.603,0,1.135,0.15,1.413,0.29l-0.231,0.788c-0.244-0.139-0.625-0.267-1.182-0.267
		c-1.286,0-1.98,0.95-1.98,2.12c0,1.297,0.834,2.096,1.946,2.096c0.579,0,0.961-0.15,1.251-0.278L55.622,52.212z"/>
	<path fill="#44A587" d="M57.825,49.386h0.023c0.139-0.197,0.336-0.44,0.498-0.637l1.645-1.934h1.228l-2.166,2.305l2.467,3.301
		H60.28l-1.934-2.687l-0.521,0.579v2.108h-1.008v-8.223h1.008V49.386z"/>
	<path fill="#44A587" d="M66.989,50.892c0,0.579,0.011,1.089,0.046,1.529h-0.903l-0.058-0.915h-0.023
		c-0.266,0.452-0.857,1.042-1.853,1.042c-0.88,0-1.934-0.486-1.934-2.455v-3.278h1.02v3.104c0,1.065,0.324,1.783,1.25,1.783
		c0.684,0,1.158-0.475,1.344-0.926c0.058-0.15,0.092-0.336,0.092-0.521v-3.44h1.02V50.892z"/>
	<path fill="#44A587" d="M68.683,48.645c0-0.718-0.023-1.297-0.046-1.83h0.915l0.046,0.961h0.023
		c0.417-0.684,1.077-1.089,1.992-1.089c1.355,0,2.375,1.146,2.375,2.849c0,2.015-1.228,3.011-2.548,3.011
		c-0.741,0-1.39-0.324-1.726-0.88h-0.023v3.046h-1.008V48.645z M69.691,50.139c0,0.151,0.023,0.29,0.046,0.417
		c0.185,0.707,0.799,1.193,1.529,1.193c1.077,0,1.702-0.88,1.702-2.166c0-1.124-0.59-2.084-1.667-2.084
		c-0.695,0-1.343,0.498-1.541,1.262c-0.035,0.127-0.069,0.278-0.069,0.417V50.139z"/>
</g>
<g>
	<g>
		<path fill="#45A588" d="M65.184,41.213c-4.081-8-8.603-15.792-12.879-23.688c-2.07-3.826-5.511-9.892-10.654-9.215
			c-0.657,0.086-0.666,1.131,0,1.042c5.728-0.753,9.331,7.743,11.453,11.948c3.5,6.932,7.649,13.518,11.179,20.44
			C64.588,42.339,65.488,41.813,65.184,41.213L65.184,41.213z"/>
	</g>
</g>
<g>
	<g>
		<path fill="#45A588" d="M29.694,25.276c-3.91,4.877-7.283,10.103-10.51,15.449c-0.349,0.578,0.554,1.102,0.901,0.527
			c3.18-5.27,6.493-10.43,10.347-15.238C30.847,25.495,30.114,24.75,29.694,25.276L29.694,25.276z"/>
	</g>
</g>
<g>
	<path fill="#FFFFFF" d="M251.379,22.382c5.446-15.825,20.579-13.068,29.276-3.088l0,0c0.342-2.7,1.362-5.402,3.746-6.561
		c2.043,3.861,2.383,11.966,1.36,16.212c-1.7-0.387-3.064-1.545-4.083-3.476l-0.682-1.157c-6.808,8.103-22.809,10.421-28.938,0.386
		L251.379,22.382z"/>
	<g>
		<path fill="#45A588" d="M252.218,22.612c5.28-13.886,19.022-12.307,27.824-2.705c0.418,0.457,1.335,0.257,1.453-0.384
			c0.009-1.912,1.016-3.273,3.017-4.082c0.636,1.949,0.756,4.052,0.898,6.083c0.112,1.59,0.014,3.184-0.097,4.771
			c-0.195,2.804-3.346-2.048-3.565-2.422c-0.273-0.465-0.984-0.595-1.364-0.175c-6.817,7.484-24.468,11.046-28.166-1.547
			c-0.314-1.073-1.993-0.616-1.677,0.461c2.127,7.247,9.329,9.938,16.407,9.513c4.218-0.253,8.264-2.001,11.673-4.407
			c2.418-1.707,1.419-3.21,3.137-0.507c0.884,1.389,2.297,2.043,3.772,2.573c0.422,0.151,0.982-0.168,1.069-0.607
			c1.085-5.524,0.873-11.693-1.448-16.882c-0.185-0.412-0.828-0.558-1.189-0.312c-2.648,1.809-3.576,3.95-4.144,7.08
			c0.484-0.127,0.969-0.256,1.452-0.384c-9.874-10.776-25.029-11.521-30.729,3.472C250.143,23.2,251.822,23.651,252.218,22.612z"/>
	</g>
</g>
<g enable-background="new    ">
	<path fill="#44A587" d="M244.987,54.214c0.023,1.378,0.903,1.946,1.923,1.946c0.729,0,1.169-0.128,1.552-0.29l0.174,0.73
		c-0.359,0.162-0.974,0.347-1.865,0.347c-1.726,0-2.756-1.135-2.756-2.826s0.996-3.023,2.629-3.023c1.83,0,2.316,1.61,2.316,2.641
		c0,0.208-0.023,0.371-0.035,0.475H244.987z M247.976,53.484c0.011-0.648-0.267-1.656-1.413-1.656c-1.031,0-1.482,0.949-1.563,1.656
		H247.976z"/>
	<path fill="#44A587" d="M250.665,51.226l0.799,1.205c0.209,0.313,0.383,0.602,0.567,0.915h0.035
		c0.186-0.336,0.37-0.625,0.556-0.927l0.788-1.193h1.1l-1.911,2.71l1.97,2.896h-1.158l-0.822-1.263
		c-0.221-0.324-0.405-0.637-0.603-0.973h-0.023c-0.186,0.336-0.382,0.637-0.591,0.973l-0.811,1.263h-1.123l1.992-2.861l-1.899-2.745
		H250.665z"/>
	<path fill="#44A587" d="M255.556,53.056c0-0.718-0.023-1.297-0.047-1.83h0.915l0.047,0.961h0.022
		c0.417-0.684,1.077-1.089,1.992-1.089c1.355,0,2.374,1.146,2.374,2.849c0,2.015-1.228,3.011-2.548,3.011
		c-0.741,0-1.39-0.324-1.726-0.88h-0.023v3.046h-1.007V53.056z M256.563,54.55c0,0.151,0.023,0.29,0.047,0.417
		c0.186,0.707,0.799,1.193,1.528,1.193c1.077,0,1.703-0.88,1.703-2.166c0-1.124-0.591-2.084-1.668-2.084
		c-0.695,0-1.344,0.498-1.54,1.262c-0.035,0.127-0.07,0.278-0.07,0.417V54.55z"/>
	<path fill="#44A587" d="M267.222,53.982c0,2.073-1.436,2.977-2.791,2.977c-1.518,0-2.687-1.112-2.687-2.884
		c0-1.876,1.228-2.977,2.779-2.977C266.133,51.099,267.222,52.269,267.222,53.982z M262.774,54.041c0,1.228,0.707,2.154,1.702,2.154
		c0.974,0,1.703-0.915,1.703-2.177c0-0.95-0.475-2.154-1.68-2.154C263.296,51.863,262.774,52.975,262.774,54.041z"/>
	<path fill="#44A587" d="M270.827,55.789c0.302,0.197,0.834,0.405,1.344,0.405c0.741,0,1.089-0.371,1.089-0.833
		c0-0.486-0.29-0.753-1.042-1.031c-1.008-0.359-1.482-0.915-1.482-1.587c0-0.903,0.729-1.645,1.934-1.645
		c0.567,0,1.065,0.162,1.378,0.348l-0.255,0.741c-0.22-0.139-0.625-0.324-1.146-0.324c-0.602,0-0.938,0.347-0.938,0.764
		c0,0.463,0.336,0.672,1.065,0.95c0.973,0.371,1.471,0.857,1.471,1.691c0,0.985-0.765,1.679-2.097,1.679
		c-0.613,0-1.181-0.15-1.574-0.382L270.827,55.789z"/>
	<path fill="#44A587" d="M276.783,49.616v1.61h1.459v0.776h-1.459v3.023c0,0.695,0.196,1.088,0.765,1.088
		c0.266,0,0.463-0.034,0.59-0.069l0.047,0.765c-0.197,0.081-0.51,0.139-0.903,0.139c-0.475,0-0.857-0.15-1.101-0.428
		c-0.289-0.302-0.394-0.8-0.394-1.46v-3.058h-0.869v-0.776h0.869v-1.343L276.783,49.616z"/>
	<path fill="#44A587" d="M282.495,56.832l-0.081-0.707h-0.035c-0.313,0.44-0.914,0.834-1.714,0.834c-1.135,0-1.714-0.799-1.714-1.61
		c0-1.355,1.204-2.096,3.37-2.084v-0.116c0-0.463-0.127-1.297-1.273-1.297c-0.521,0-1.065,0.162-1.46,0.417l-0.231-0.672
		c0.464-0.301,1.135-0.498,1.842-0.498c1.714,0,2.131,1.17,2.131,2.293v2.096c0,0.486,0.023,0.961,0.093,1.344H282.495z
		 M282.345,53.971c-1.112-0.023-2.374,0.174-2.374,1.263c0,0.66,0.439,0.973,0.961,0.973c0.729,0,1.193-0.463,1.355-0.938
		c0.034-0.104,0.058-0.22,0.058-0.324V53.971z"/>
	<path fill="#44A587" d="M286.158,49.616v1.61h1.459v0.776h-1.459v3.023c0,0.695,0.196,1.088,0.765,1.088
		c0.266,0,0.463-0.034,0.59-0.069l0.047,0.765c-0.197,0.081-0.51,0.139-0.903,0.139c-0.475,0-0.857-0.15-1.101-0.428
		c-0.289-0.302-0.394-0.8-0.394-1.46v-3.058h-0.869v-0.776h0.869v-1.343L286.158,49.616z"/>
	<path fill="#44A587" d="M288.626,55.789c0.302,0.197,0.834,0.405,1.344,0.405c0.741,0,1.089-0.371,1.089-0.833
		c0-0.486-0.29-0.753-1.042-1.031c-1.008-0.359-1.482-0.915-1.482-1.587c0-0.903,0.729-1.645,1.934-1.645
		c0.567,0,1.065,0.162,1.378,0.348l-0.255,0.741c-0.22-0.139-0.625-0.324-1.146-0.324c-0.602,0-0.938,0.347-0.938,0.764
		c0,0.463,0.336,0.672,1.065,0.95c0.973,0.371,1.471,0.857,1.471,1.691c0,0.985-0.765,1.679-2.097,1.679
		c-0.613,0-1.181-0.15-1.574-0.382L288.626,55.789z"/>
</g>
<g>
	<g>
		<path fill="#45A588" d="M289.95,45.015c-4.202-8.425-8.357-16.891-12.844-25.173c-2.069-3.826-5.511-9.892-10.653-9.215
			c-0.656,0.086-0.665,1.131,0,1.042c5.981-0.788,9.73,8.475,11.905,12.86c3.492,7.035,7.184,13.98,10.691,21.012
			C289.35,46.144,290.249,45.617,289.95,45.015L289.95,45.015z"/>
	</g>
</g>
<g>
	<g>
		<path fill="#45A588" d="M254.415,27.698c-3.654,5.573-6.536,11.593-9.931,17.317c-0.343,0.581,0.559,1.104,0.9,0.527
			c3.396-5.726,6.276-11.746,9.932-17.317C255.687,27.661,254.782,27.14,254.415,27.698L254.415,27.698z"/>
	</g>
</g>
<path fill="none" stroke="#45A588" stroke-miterlimit="10" d="M82.498,49.089c0,4.204-3.408,7.613-7.612,7.613H10.636
	c-4.204,0-7.612-3.409-7.612-7.613l0,0c0-4.204,3.408-7.612,7.612-7.612h64.249C79.089,41.478,82.498,44.886,82.498,49.089
	L82.498,49.089z"/>
<g>
	<path fill="#FFFFFF" d="M132.025,69.893c5.447-15.825,20.191-13.061,29.276-3.088l0,0c0.341-2.7,1.362-5.402,3.745-6.562
		c2.044,3.861,2.384,11.966,1.361,16.213c-1.7-0.387-3.063-1.546-4.082-3.477l-0.681-1.156c-6.808,8.103-22.811,10.42-28.938,0.386
		L132.025,69.893z"/>
	<g>
		<path fill="#45A588" d="M132.863,70.124c5.336-14.02,18.828-12.12,27.825-2.705c0.424,0.444,1.335,0.266,1.452-0.385
			c0.01-1.911,1.016-3.272,3.017-4.082c0.635,1.95,0.758,4.053,0.899,6.083c0.111,1.59,0.013,3.185-0.098,4.771
			c-0.193,2.807-3.345-2.048-3.565-2.422c-0.274-0.465-0.984-0.595-1.365-0.175c-6.816,7.484-24.469,11.046-28.167-1.547
			c-0.315-1.073-1.992-0.616-1.675,0.462c2.127,7.245,9.328,9.938,16.407,9.512c4.217-0.253,8.264-2.002,11.674-4.406
			c2.418-1.708,1.417-3.21,3.136-0.508c0.885,1.389,2.299,2.043,3.773,2.573c0.422,0.15,0.983-0.169,1.068-0.607
			c1.084-5.524,0.874-11.692-1.448-16.882c-0.184-0.412-0.828-0.558-1.189-0.313c-2.65,1.81-3.576,3.949-4.145,7.08
			c0.484-0.127,0.967-0.255,1.452-0.383c-10.068-10.538-24.957-11.696-30.729,3.472C130.787,70.711,132.469,71.16,132.863,70.124z"
			/>
	</g>
</g>
<g enable-background="new    ">
	<path fill="#44A587" d="M103.911,98.474c0-0.718-0.023-1.297-0.046-1.83h0.915l0.046,0.961h0.023
		c0.417-0.683,1.077-1.088,1.992-1.088c1.355,0,2.375,1.146,2.375,2.849c0,2.016-1.228,3.011-2.548,3.011
		c-0.741,0-1.39-0.324-1.726-0.88h-0.023v3.046h-1.008V98.474z M104.918,99.968c0,0.15,0.023,0.289,0.046,0.417
		c0.185,0.706,0.799,1.192,1.529,1.192c1.077,0,1.702-0.88,1.702-2.166c0-1.123-0.59-2.084-1.667-2.084
		c-0.695,0-1.343,0.498-1.541,1.262c-0.035,0.128-0.069,0.278-0.069,0.417V99.968z"/>
	<path fill="#44A587" d="M110.759,96.644l1.228,3.313c0.127,0.37,0.266,0.811,0.359,1.146h0.023c0.104-0.336,0.22-0.765,0.359-1.17
		l1.112-3.289h1.077l-1.528,3.996c-0.73,1.922-1.228,2.906-1.923,3.509c-0.498,0.44-0.996,0.613-1.25,0.66l-0.255-0.857
		c0.255-0.081,0.591-0.243,0.892-0.498c0.278-0.22,0.625-0.613,0.857-1.135c0.046-0.104,0.081-0.186,0.081-0.243
		s-0.023-0.139-0.069-0.267l-2.073-5.165H110.759z"/>
	<path fill="#44A587" d="M119.737,102.041c-0.266,0.139-0.857,0.324-1.609,0.324c-1.691,0-2.792-1.146-2.792-2.861
		c0-1.726,1.182-2.977,3.011-2.977c0.603,0,1.135,0.151,1.413,0.29l-0.232,0.787c-0.243-0.139-0.625-0.266-1.181-0.266
		c-1.286,0-1.98,0.949-1.98,2.119c0,1.297,0.834,2.096,1.946,2.096c0.579,0,0.961-0.15,1.251-0.277L119.737,102.041z"/>
	<path fill="#44A587" d="M124.859,102.041c-0.266,0.139-0.857,0.324-1.609,0.324c-1.691,0-2.792-1.146-2.792-2.861
		c0-1.726,1.182-2.977,3.011-2.977c0.603,0,1.135,0.151,1.413,0.29l-0.232,0.787c-0.243-0.139-0.625-0.266-1.181-0.266
		c-1.286,0-1.98,0.949-1.98,2.119c0,1.297,0.834,2.096,1.946,2.096c0.579,0,0.961-0.15,1.251-0.277L124.859,102.041z"/>
	<path fill="#44A587" d="M127.063,96.644v2.433h0.243l2.108-2.433h1.239l-2.444,2.536c0.903,0.093,1.448,0.695,1.888,1.703
		c0.151,0.37,0.348,0.914,0.603,1.366h-1.065c-0.151-0.243-0.348-0.684-0.521-1.146c-0.382-0.903-0.903-1.32-1.853-1.32h-0.197
		v2.467h-1.008v-5.605H127.063z"/>
	<path fill="#44A587" d="M132.544,96.644v2.362c0,0.893-0.012,1.448-0.058,2.247l0.035,0.012c0.336-0.684,0.533-1.077,0.903-1.726
		l1.749-2.896h1.193v5.605h-0.973v-2.374c0-0.915,0.023-1.39,0.069-2.293h-0.035c-0.359,0.718-0.603,1.169-0.927,1.737
		c-0.533,0.868-1.146,1.945-1.749,2.93h-1.17v-5.605H132.544z"/>
	<path fill="#44A587" d="M138.963,96.644v2.362c0,0.893-0.012,1.448-0.058,2.247l0.035,0.012c0.336-0.684,0.533-1.077,0.903-1.726
		l1.749-2.896h1.193v5.605h-0.973v-2.374c0-0.915,0.023-1.39,0.07-2.293h-0.035c-0.359,0.718-0.603,1.169-0.927,1.737
		c-0.533,0.868-1.146,1.945-1.749,2.93h-1.17v-5.605H138.963z M139.624,94.362c0.035,0.498,0.278,0.88,0.741,0.88
		c0.498,0,0.729-0.37,0.788-0.88h0.729c-0.046,0.949-0.648,1.436-1.541,1.436c-1.019,0-1.413-0.637-1.459-1.436H139.624z"/>
	<path fill="#44A587" d="M151.511,96.644v5.605h-1.02v-4.795h-2.605v4.795h-1.008v-5.605H151.511z"/>
	<path fill="#44A587" d="M153.738,99.632c0.023,1.378,0.903,1.945,1.922,1.945c0.729,0,1.17-0.127,1.552-0.289l0.174,0.729
		c-0.359,0.162-0.973,0.348-1.865,0.348c-1.726,0-2.756-1.136-2.756-2.826c0-1.691,0.996-3.022,2.629-3.022
		c1.83,0,2.316,1.609,2.316,2.641c0,0.208-0.023,0.37-0.035,0.475H153.738z M156.726,98.902c0.012-0.648-0.266-1.656-1.413-1.656
		c-1.031,0-1.482,0.949-1.563,1.656H156.726z"/>
	<path fill="#44A587" d="M158.975,98.474c0-0.718-0.023-1.297-0.046-1.83h0.915l0.046,0.961h0.023
		c0.417-0.683,1.077-1.088,1.992-1.088c1.355,0,2.375,1.146,2.375,2.849c0,2.016-1.228,3.011-2.548,3.011
		c-0.741,0-1.39-0.324-1.726-0.88h-0.023v3.046h-1.008V98.474z M159.983,99.968c0,0.15,0.023,0.289,0.046,0.417
		c0.185,0.706,0.799,1.192,1.529,1.192c1.077,0,1.702-0.88,1.702-2.166c0-1.123-0.59-2.084-1.667-2.084
		c-0.695,0-1.343,0.498-1.541,1.262c-0.035,0.128-0.069,0.278-0.069,0.417V99.968z"/>
	<path fill="#44A587" d="M166.136,99.632c0.023,1.378,0.903,1.945,1.922,1.945c0.729,0,1.17-0.127,1.552-0.289l0.174,0.729
		c-0.359,0.162-0.973,0.348-1.865,0.348c-1.726,0-2.756-1.136-2.756-2.826c0-1.691,0.996-3.022,2.629-3.022
		c1.83,0,2.316,1.609,2.316,2.641c0,0.208-0.023,0.37-0.035,0.475H166.136z M169.124,98.902c0.012-0.648-0.266-1.656-1.413-1.656
		c-1.031,0-1.482,0.949-1.563,1.656H169.124z"/>
	<path fill="#44A587" d="M171.351,96.713c0.394-0.069,1.124-0.127,1.784-0.127c0.938,0,2.49,0.15,2.49,1.401
		c0,0.694-0.533,1.123-1.169,1.262v0.023c0.822,0.116,1.424,0.579,1.424,1.39c0,1.471-1.853,1.656-2.953,1.656
		c-0.625,0-1.274-0.046-1.575-0.069V96.713z M172.313,101.577c0.29,0.035,0.498,0.047,0.822,0.047c0.683,0,1.702-0.162,1.702-0.974
		c0-0.811-0.811-0.984-1.783-0.984h-0.741V101.577z M172.324,98.995h0.765c0.753,0,1.529-0.221,1.529-0.881
		c0-0.556-0.486-0.822-1.506-0.822c-0.336,0-0.544,0.023-0.788,0.047V98.995z"/>
	<path fill="#44A587" d="M182.241,99.4c0,2.072-1.436,2.976-2.791,2.976c-1.517,0-2.687-1.111-2.687-2.884
		c0-1.876,1.228-2.976,2.78-2.976C181.152,96.517,182.241,97.686,182.241,99.4z M177.793,99.458c0,1.228,0.707,2.154,1.703,2.154
		c0.973,0,1.703-0.915,1.703-2.178c0-0.949-0.475-2.154-1.68-2.154C178.315,97.28,177.793,98.393,177.793,99.458z"/>
	<path fill="#44A587" d="M187.792,96.644v4.841l0.579,0.012l-0.058,2.536h-0.8l-0.046-1.783h-3.88l-0.046,1.783h-0.799l-0.046-2.536
		l0.475-0.012c0.243-0.358,0.429-0.741,0.556-1.146c0.22-0.694,0.324-1.447,0.324-2.235v-1.459H187.792z M184.954,98.346
		c0,0.741-0.104,1.46-0.29,2.085c-0.116,0.382-0.278,0.729-0.452,1.042h2.583V97.42h-1.841V98.346z"/>
</g>
<g>
	<g>
		<path fill="#45A588" d="M170.723,90.553c-4.054-7.87-8.751-15.414-12.968-23.199c-2.07-3.826-5.511-9.893-10.654-9.216
			c-0.657,0.087-0.665,1.131,0,1.043c5.728-0.753,9.331,7.743,11.453,11.948c3.444,6.822,7.768,13.154,11.27,19.95
			C170.13,91.678,171.029,91.15,170.723,90.553L170.723,90.553z"/>
	</g>
</g>
<g>
	<g>
		<path fill="#45A588" d="M135.144,75.104c-3.91,4.878-7.283,10.104-10.511,15.449c-0.349,0.578,0.554,1.102,0.901,0.526
			c3.18-5.269,6.493-10.429,10.348-15.237C136.296,75.322,135.564,74.579,135.144,75.104L135.144,75.104z"/>
	</g>
</g>
<path fill="none" stroke="#45A588" stroke-miterlimit="10" d="M297.675,53.36c0,4.262-3.453,7.715-7.713,7.715h-44.763
	c-4.262,0-7.716-3.453-7.716-7.715l0,0c0-4.261,3.454-7.714,7.716-7.714h44.763C294.222,45.645,297.675,49.099,297.675,53.36
	L297.675,53.36z"/>
<g>
	<path fill="#FFFFFF" d="M368.416,57.146c5.447-15.825,20.386-12.778,29.276-3.088l0,0c0.342-2.7,1.362-5.402,3.746-6.562
		c2.044,3.861,2.383,11.966,1.36,16.213c-1.7-0.387-3.064-1.546-4.083-3.476l-0.682-1.157c-6.808,8.103-22.809,10.421-28.938,0.386
		L368.416,57.146z"/>
	<g>
		<path fill="#45A588" d="M369.255,57.376c5.289-13.922,18.9-11.984,27.823-2.705c0.426,0.443,1.334,0.268,1.454-0.384
			c0.01-1.912,1.017-3.273,3.017-4.082c0.637,1.949,0.758,4.052,0.9,6.083c0.11,1.59,0.012,3.185-0.098,4.771
			c-0.194,2.805-3.347-2.047-3.565-2.421c-0.274-0.466-0.984-0.595-1.366-0.176c-6.815,7.484-24.467,11.046-28.165-1.547
			c-0.314-1.073-1.993-0.615-1.677,0.461c2.127,7.246,9.33,9.938,16.407,9.514c4.218-0.254,8.263-2.002,11.673-4.407
			c2.418-1.707,1.418-3.21,3.137-0.508c0.884,1.389,2.298,2.044,3.772,2.573c0.422,0.15,0.982-0.169,1.069-0.607
			c1.086-5.523,0.873-11.693-1.448-16.882c-0.185-0.411-0.828-0.557-1.188-0.312c-2.648,1.809-3.575,3.949-4.145,7.08
			c0.484-0.127,0.969-0.256,1.453-0.384c-10.02-10.419-25.006-11.589-30.73,3.472C367.18,57.964,368.86,58.414,369.255,57.376z"/>
	</g>
</g>
<g enable-background="new    ">
	<path fill="#44A587" d="M359.115,84.415c0.012,0.348-0.243,0.626-0.648,0.626c-0.359,0-0.614-0.278-0.614-0.626
		c0-0.358,0.267-0.637,0.638-0.637C358.872,83.778,359.115,84.057,359.115,84.415z M357.98,91.596V85.99h1.019v5.605H357.98z"/>
	<path fill="#44A587" d="M360.553,90.554c0.302,0.196,0.834,0.405,1.344,0.405c0.741,0,1.089-0.371,1.089-0.834
		c0-0.486-0.29-0.753-1.042-1.031c-1.008-0.358-1.482-0.915-1.482-1.586c0-0.903,0.729-1.645,1.934-1.645
		c0.567,0,1.065,0.162,1.378,0.347l-0.255,0.741c-0.22-0.139-0.625-0.324-1.146-0.324c-0.602,0-0.938,0.348-0.938,0.765
		c0,0.463,0.336,0.672,1.065,0.95c0.973,0.37,1.471,0.856,1.471,1.69c0,0.984-0.765,1.68-2.097,1.68
		c-0.613,0-1.181-0.151-1.574-0.383L360.553,90.554z"/>
	<path fill="#44A587" d="M365.141,90.554c0.302,0.196,0.834,0.405,1.344,0.405c0.741,0,1.089-0.371,1.089-0.834
		c0-0.486-0.29-0.753-1.042-1.031c-1.008-0.358-1.482-0.915-1.482-1.586c0-0.903,0.729-1.645,1.934-1.645
		c0.567,0,1.065,0.162,1.378,0.347l-0.255,0.741c-0.22-0.139-0.625-0.324-1.146-0.324c-0.602,0-0.938,0.348-0.938,0.765
		c0,0.463,0.336,0.672,1.065,0.95c0.973,0.37,1.471,0.856,1.471,1.69c0,0.984-0.765,1.68-2.097,1.68
		c-0.613,0-1.181-0.151-1.574-0.383L365.141,90.554z"/>
	<path fill="#44A587" d="M374.56,90.067c0,0.579,0.012,1.088,0.046,1.528h-0.903l-0.058-0.915h-0.023
		c-0.267,0.452-0.856,1.042-1.853,1.042c-0.881,0-1.935-0.486-1.935-2.455V85.99h1.02v3.104c0,1.065,0.324,1.784,1.251,1.784
		c0.683,0,1.158-0.476,1.343-0.927c0.059-0.15,0.093-0.336,0.093-0.521V85.99h1.02V90.067z"/>
	<path fill="#44A587" d="M376.821,88.979c0.023,1.378,0.903,1.945,1.923,1.945c0.729,0,1.169-0.127,1.552-0.289l0.174,0.729
		c-0.359,0.162-0.974,0.348-1.865,0.348c-1.726,0-2.756-1.136-2.756-2.826c0-1.691,0.996-3.022,2.629-3.022
		c1.83,0,2.316,1.609,2.316,2.641c0,0.208-0.023,0.37-0.035,0.475H376.821z M379.81,88.249c0.011-0.648-0.267-1.656-1.413-1.656
		c-1.031,0-1.482,0.949-1.563,1.656H379.81z"/>
	<path fill="#44A587" d="M384.748,91.596l0.301-2.27H384.1v-0.684h1.054l0.22-1.68h-0.996V86.28h1.101l0.301-2.213h0.672
		l-0.289,2.213h1.204l0.301-2.213h0.684l-0.289,2.213h0.949v0.683h-1.054l-0.208,1.68h0.995v0.684h-1.1l-0.302,2.27h-0.694
		l0.301-2.27h-1.204l-0.302,2.27H384.748z M387.053,88.643l0.22-1.68h-1.204l-0.22,1.68H387.053z"/>
	<path fill="#44A587" d="M389.951,91.596v-0.625l0.799-0.776c1.923-1.83,2.791-2.803,2.803-3.938c0-0.765-0.371-1.471-1.494-1.471
		c-0.684,0-1.251,0.347-1.599,0.637l-0.324-0.718c0.521-0.44,1.263-0.765,2.132-0.765c1.621,0,2.305,1.111,2.305,2.188
		c0,1.39-1.008,2.514-2.595,4.042l-0.603,0.557v0.022h3.382v0.846H389.951z"/>
	<path fill="#44A587" d="M399.045,91.596v-2.05h-3.497v-0.672l3.358-4.807h1.101v4.68h1.054v0.799h-1.054v2.05H399.045z
		 M399.045,88.747v-2.514c0-0.394,0.012-0.787,0.035-1.182h-0.035c-0.231,0.44-0.417,0.765-0.625,1.112l-1.842,2.56v0.023H399.045z"
		/>
	<path fill="#44A587" d="M406.137,84.786c-0.209-0.012-0.476,0-0.765,0.046c-1.599,0.267-2.444,1.437-2.617,2.676h0.034
		c0.359-0.476,0.984-0.869,1.818-0.869c1.332,0,2.27,0.962,2.27,2.433c0,1.378-0.938,2.651-2.501,2.651
		c-1.61,0-2.664-1.25-2.664-3.208c0-1.482,0.533-2.651,1.274-3.393c0.625-0.614,1.459-0.996,2.408-1.112
		c0.302-0.046,0.557-0.058,0.742-0.058V84.786z M405.847,89.129c0-1.077-0.614-1.726-1.552-1.726c-0.614,0-1.182,0.382-1.459,0.927
		c-0.07,0.115-0.116,0.266-0.116,0.451c0.023,1.239,0.591,2.154,1.656,2.154C405.256,90.936,405.847,90.206,405.847,89.129z"/>
	<path fill="#44A587" d="M407.691,89.685c0-0.949,0.567-1.621,1.494-2.015l-0.012-0.035c-0.834-0.394-1.193-1.042-1.193-1.69
		c0-1.193,1.008-2.004,2.328-2.004c1.459,0,2.188,0.915,2.188,1.853c0,0.638-0.313,1.32-1.239,1.761v0.035
		c0.938,0.37,1.518,1.03,1.518,1.945c0,1.309-1.123,2.188-2.56,2.188C408.641,91.723,407.691,90.785,407.691,89.685z
		 M411.745,89.639c0-0.915-0.638-1.355-1.656-1.645c-0.881,0.255-1.355,0.834-1.355,1.552c-0.034,0.765,0.545,1.436,1.506,1.436
		C411.154,90.981,411.745,90.414,411.745,89.639z M408.942,85.874c0,0.753,0.567,1.158,1.436,1.391
		c0.648-0.221,1.146-0.684,1.146-1.367c0-0.602-0.358-1.228-1.273-1.228C409.405,84.67,408.942,85.226,408.942,85.874z"/>
</g>
<g>
	<g>
		<path fill="#45A588" d="M406.987,79.778c-4.202-8.425-8.357-16.891-12.843-25.173c-2.07-3.825-5.512-9.891-10.653-9.214
			c-0.657,0.086-0.666,1.131,0,1.042c5.979-0.788,9.729,8.474,11.905,12.86c3.491,7.035,7.183,13.98,10.69,21.012
			C406.387,80.908,407.286,80.381,406.987,79.778L406.987,79.778z"/>
	</g>
</g>
<g>
	<g>
		<path fill="#45A588" d="M371.452,62.462c-3.653,5.572-6.536,11.593-9.931,17.316c-0.343,0.582,0.559,1.104,0.9,0.527
			c3.396-5.725,6.276-11.746,9.931-17.316C372.724,62.425,371.819,61.903,371.452,62.462L371.452,62.462z"/>
	</g>
</g>
<path fill="none" stroke="#45A588" stroke-miterlimit="10" d="M419,88.123c0,4.263-3.452,7.716-7.713,7.716h-52.359
	c-4.262,0-7.716-3.453-7.716-7.716l0,0c0-4.261,3.454-7.713,7.716-7.713h52.359C415.546,80.408,419,83.862,419,88.123L419,88.123z"
	/>
<path fill="none" stroke="#45A588" stroke-miterlimit="10" d="M195.383,98.69c0,4.329-3.579,7.84-7.996,7.84h-83.664
	c-4.416,0-7.996-3.509-7.996-7.84v-0.034c0-4.328,3.58-7.84,7.996-7.84h83.664c4.417,0,7.996,3.511,7.996,7.84V98.69z"/>
</svg>
