<?xml version="1.0" encoding="utf-8"?>
<!-- Generator: Adobe Illustrator 16.0.0, SVG Export Plug-In . SVG Version: 6.00 Build 0)  -->
<!DOCTYPE svg PUBLIC "-//W3C//DTD SVG 1.1//EN" "http://www.w3.org/Graphics/SVG/1.1/DTD/svg11.dtd">
<svg version="1.1" id="Layer_1" xmlns="http://www.w3.org/2000/svg" xmlns:xlink="http://www.w3.org/1999/xlink" x="0px" y="0px"
	 width="200px" height="200px" viewBox="0 0 200 200" enable-background="new 0 0 200 200" xml:space="preserve">
<g>
	<g>
		<path fill="#45A98E" d="M67.01,166.241c-1.929,3.036-4.762,6.036-7.758,7.543l-2.219-1.86c2.779-1.254,5.651-3.996,7.468-6.886
			L67.01,166.241z M64.135,163.221l2.581-14.365c-1.102,0.596-2.295,1.217-3.516,1.75c-0.344-0.731-1.149-1.795-1.731-2.401
			c6.48-2.595,11.621-6.89,14.605-10.488l3.579,1.269c-0.149,0.35-0.437,0.507-1.024,0.399l-1.388,1.466l10.101,1.813l0.482-0.039
			l1.982,1.735c-0.113,0.146-0.394,0.264-0.612,0.265c-1.155,1.381-2.893,3.114-4.617,4.519l11.358,2.039l-3.089,17.197
			L64.135,163.221z M79.419,150.637l-9.892-1.777l-0.916,5.099l9.892,1.778L79.419,150.637z M68.212,156.182l-0.931,5.18
			l9.891,1.777l0.931-5.181L68.212,156.182z M81.141,148.521c1.399-1.043,2.912-2.481,4.111-3.854l-10.145-1.821
			c-1.393,1.254-3.002,2.51-4.739,3.74L81.141,148.521z M70.795,175.273c0.349-1.941,0.568-5.325,0.516-7.926l2.719,0.279
			c0.136,2.614,0.024,5.895-0.277,7.801L70.795,175.273z M91.79,158.121l0.917-5.1l-10.521-1.89l-0.916,5.099L91.79,158.121z
			 M90.46,165.525l0.93-5.18l-10.521-1.891l-0.93,5.182L90.46,165.525z M81.4,177.18c-0.105-2.064-0.732-5.56-1.545-8.256
			l2.692-0.058c0.83,2.612,1.547,6.079,1.693,8.155L81.4,177.18z M93.216,179.803c-0.709-2.548-2.871-6.654-4.92-9.695l2.703-0.601
			c2.071,2.919,4.338,6.918,5.126,9.522L93.216,179.803z"/>
		<g>
			<path fill="#46AA8D" d="M67.01,166.241c-0.221,0.399-0.439,0.804-0.672,1.196l-0.757,1.153c-0.268,0.374-0.546,0.742-0.832,1.104
				l-0.908,1.046c-0.634,0.674-1.294,1.331-2.021,1.918c-0.366,0.29-0.755,0.554-1.133,0.831c-0.396,0.255-0.808,0.488-1.217,0.724
				c-0.165,0.095-0.365,0.072-0.504-0.042l-0.023-0.02l-2.229-1.848c-0.21-0.176-0.24-0.488-0.065-0.699
				c0.043-0.051,0.094-0.092,0.15-0.121l0.03-0.017c0.364-0.188,0.737-0.36,1.096-0.563c0.348-0.227,0.708-0.43,1.047-0.672
				c0.332-0.252,0.683-0.479,1.007-0.741c0.318-0.271,0.649-0.529,0.959-0.812c0.3-0.295,0.623-0.566,0.923-0.861l0.876-0.912
				l0.82-0.969c0.248-0.34,0.505-0.678,0.77-1.011l0.024-0.03c0.059-0.072,0.161-0.092,0.24-0.045
				C65.398,165.313,66.214,165.756,67.01,166.241z M67.01,166.241c-0.876-0.317-1.733-0.677-2.598-1.019l0.263-0.074
				c-0.216,0.375-0.44,0.748-0.673,1.115l-0.76,1.063c-0.538,0.685-1.099,1.355-1.717,1.977c-0.311,0.309-0.645,0.594-0.967,0.891
				c-0.33,0.289-0.686,0.552-1.032,0.824c-0.355,0.262-0.739,0.486-1.107,0.73c-0.383,0.225-0.787,0.419-1.181,0.629l0.115-0.834
				l2.209,1.871l-0.526-0.061c0.38-0.221,0.773-0.418,1.154-0.641c0.366-0.248,0.744-0.48,1.104-0.74
				c0.346-0.279,0.713-0.535,1.061-0.816c0.337-0.295,0.684-0.579,1.016-0.883l0.965-0.944c0.301-0.335,0.614-0.662,0.929-0.988
				l0.89-1.026C66.43,166.949,66.722,166.598,67.01,166.241z"/>
			<path fill="#46AA8D" d="M64.135,163.221l2.356-14.406l0.333,0.242l-3.516,1.797c-0.116,0.06-0.256,0.02-0.325-0.088l-0.029-0.046
				l-0.77-1.206l-0.931-1.104l-0.004-0.005c-0.109-0.129-0.092-0.322,0.037-0.432c0.021-0.019,0.046-0.033,0.071-0.045l2.049-0.93
				c0.347-0.145,0.667-0.344,1-0.516l0.99-0.533c0.671-0.335,1.281-0.779,1.924-1.163c0.646-0.381,1.241-0.841,1.853-1.271
				c0.3-0.225,0.619-0.424,0.903-0.668l0.873-0.707c0.287-0.24,0.592-0.459,0.861-0.719l0.831-0.755
				c0.566-0.49,1.072-1.041,1.603-1.565c0.531-0.525,0.995-1.11,1.496-1.662l0.013-0.015c0.121-0.133,0.306-0.174,0.465-0.118
				l3.583,1.26l0.054,0.019c0.205,0.072,0.313,0.296,0.24,0.501c-0.009,0.025-0.021,0.051-0.034,0.073
				c-0.081,0.134-0.147,0.276-0.269,0.391c-0.135,0.099-0.289,0.233-0.436,0.247c-0.144,0.031-0.317,0.08-0.43,0.059l-0.377-0.03
				l0.404-0.134l-1.383,1.47l-0.249-0.759l10.106,1.785l-0.125-0.006l0.482-0.039c0.134-0.013,0.264,0.035,0.358,0.117l1.987,1.73
				l0.033,0.027c0.186,0.162,0.206,0.444,0.043,0.631l-0.01,0.012c-0.074,0.08-0.166,0.17-0.247,0.223
				c-0.077,0.045-0.156,0.092-0.236,0.124c-0.153,0.063-0.326,0.103-0.517,0.111l0.376-0.179l-1.115,1.205l-0.559,0.603
				c-0.191,0.194-0.364,0.41-0.571,0.589l-2.443,2.184l-0.222-0.856l11.352,2.071c0.246,0.045,0.411,0.279,0.367,0.525v0.002
				c-1.047,5.729-2.082,11.461-3.176,17.182l-0.001,0.009c-0.038,0.196-0.227,0.325-0.423,0.287l-14.332-2.714L64.135,163.221z
				 M64.135,163.221l14.396,2.354l14.38,2.445l-0.424,0.295c0.965-5.744,1.99-11.479,3.002-17.213l0.366,0.526l-11.364-2.008
				c-0.265-0.046-0.441-0.3-0.395-0.563c0.02-0.109,0.075-0.205,0.152-0.274l0.021-0.019l2.365-2.141
				c0.2-0.175,0.366-0.384,0.55-0.574l0.542-0.581l1.088-1.161c0.088-0.095,0.202-0.15,0.321-0.168l0.056-0.01
				c0.039-0.006,0.087-0.012,0.148-0.035c0.024-0.011,0.042-0.025,0.066-0.033c0.013-0.01-0.002-0.006,0.01,0l0.065,0.67
				l-1.977-1.742l0.358,0.117l-0.482,0.039c-0.041,0.002-0.086,0-0.125-0.006l-10.096-1.845c-0.246-0.044-0.41-0.278-0.367-0.524
				c0.016-0.09,0.059-0.172,0.118-0.232l1.392-1.461c0.096-0.102,0.228-0.146,0.356-0.137l0.049,0.004l0.221,0.019
				c0.088,0.021,0.108-0.019,0.161-0.017c0.065,0.01,0.045-0.039,0.083-0.035c0.025-0.018,0.036-0.073,0.07-0.102l0.26,0.594
				l-3.575-1.278l0.478-0.132c-0.518,0.564-1.001,1.165-1.548,1.701c-0.548,0.535-1.068,1.101-1.657,1.589l-0.862,0.757
				c-0.281,0.26-0.595,0.479-0.893,0.719l-0.903,0.705c-0.294,0.244-0.623,0.441-0.933,0.665c-0.631,0.429-1.245,0.886-1.91,1.263
				c-0.662,0.379-1.289,0.818-1.979,1.148l-1.017,0.525c-0.342,0.17-0.67,0.365-1.026,0.506l-2.1,0.908l0.104-0.479l0.96,1.181
				l0.802,1.312l-0.354-0.134l3.516-1.703l0.013-0.006c0.113-0.055,0.248-0.006,0.302,0.105c0.022,0.046,0.028,0.096,0.019,0.143
				L64.135,163.221z"/>
			<path fill="#46AA8D" d="M79.419,150.637c-0.837-0.076-1.67-0.179-2.502-0.279c-0.834-0.097-1.667-0.197-2.495-0.323
				c-1.658-0.245-3.322-0.454-4.974-0.734l0.519-0.36c-0.265,1.707-0.571,3.405-0.864,5.106l-0.403-0.58
				c1.646,0.31,3.296,0.603,4.938,0.938c1.646,0.313,3.28,0.689,4.918,1.041l-0.344,0.238c0.177-0.845,0.37-1.688,0.58-2.526
				C78.994,152.314,79.192,151.473,79.419,150.637z M79.419,150.637c-0.078,0.863-0.185,1.721-0.288,2.58
				c-0.096,0.859-0.208,1.717-0.336,2.571c-0.024,0.157-0.17,0.267-0.328,0.241l-0.017-0.002c-1.658-0.242-3.321-0.459-4.973-0.737
				c-1.656-0.257-3.304-0.558-4.955-0.841c-0.27-0.047-0.451-0.303-0.405-0.573l0.001-0.008c0.318-1.696,0.622-3.396,0.967-5.089
				l0.003-0.014c0.048-0.238,0.279-0.392,0.516-0.347c1.646,0.313,3.279,0.695,4.918,1.043c0.82,0.171,1.636,0.364,2.451,0.563
				C77.792,150.225,78.607,150.417,79.419,150.637z"/>
			<path fill="#46AA8D" d="M68.212,156.182c-0.08,0.877-0.189,1.748-0.294,2.62c-0.098,0.873-0.213,1.743-0.344,2.611l-0.24-0.347
				c1.658,0.244,3.321,0.461,4.973,0.74c1.655,0.256,3.303,0.557,4.954,0.84l-0.58,0.402c0.323-1.725,0.631-3.451,0.983-5.171
				l0.361,0.519c-1.646-0.313-3.279-0.694-4.918-1.041c-0.82-0.172-1.636-0.364-2.451-0.564
				C69.84,156.596,69.024,156.4,68.212,156.182z M68.212,156.182c0.837,0.076,1.669,0.18,2.502,0.279
				c0.833,0.096,1.666,0.198,2.495,0.323c1.658,0.245,3.322,0.454,4.974,0.733c0.239,0.041,0.4,0.266,0.363,0.504l-0.002,0.016
				c-0.269,1.734-0.581,3.461-0.879,5.189c-0.046,0.271-0.302,0.451-0.572,0.404l-0.008-0.001c-1.646-0.312-3.295-0.603-4.937-0.938
				c-1.645-0.313-3.279-0.688-4.918-1.039l-0.018-0.004c-0.156-0.032-0.256-0.186-0.222-0.342c0.179-0.857,0.375-1.715,0.587-2.566
				C67.782,157.887,67.982,157.031,68.212,156.182z"/>
			<path fill="#46AA8D" d="M81.141,148.521c0.668-0.666,1.359-1.308,2.04-1.957c0.609-0.715,1.223-1.412,1.848-2.094l0.171,0.487
				c-1.699-0.255-3.405-0.478-5.098-0.765c-1.697-0.267-3.389-0.565-5.082-0.859l0.42-0.12c-0.776,0.658-1.562,1.308-2.35,1.949
				l-2.461,1.788l-0.18-0.809c1.792,0.34,3.573,0.746,5.358,1.123c0.894,0.185,1.783,0.389,2.671,0.604
				C79.367,148.081,80.256,148.288,81.141,148.521z M81.141,148.521c-0.911-0.088-1.817-0.203-2.723-0.316
				c-0.907-0.107-1.813-0.225-2.715-0.363c-1.805-0.27-3.615-0.508-5.414-0.813c-0.243-0.043-0.407-0.272-0.366-0.516
				c0.02-0.117,0.082-0.215,0.168-0.281l0.017-0.013l2.381-1.821c0.769-0.633,1.516-1.289,2.285-1.922l0.021-0.017
				c0.115-0.095,0.264-0.128,0.4-0.104c1.689,0.313,3.379,0.621,5.063,0.961c1.688,0.319,3.364,0.705,5.046,1.059l0.03,0.006
				c0.154,0.032,0.252,0.184,0.22,0.337c-0.012,0.058-0.04,0.106-0.079,0.146c-0.682,0.672-1.375,1.328-2.072,1.967
				C82.657,147.402,81.906,147.973,81.141,148.521z"/>
			<path fill="#46AA8D" d="M70.795,175.273c-0.009-0.668,0.017-1.332,0.033-1.998l0.032-0.996c0.007-0.331,0.053-0.664,0.029-0.994
				c-0.04-1.317-0.052-2.624-0.046-3.928v-0.006c0.001-0.263,0.214-0.474,0.476-0.473l0.041,0.002l2.722,0.249l0.021,0.002
				c0.244,0.022,0.427,0.229,0.427,0.47c-0.001,1.315,0.003,2.633-0.033,3.944c0.006,0.328-0.053,0.658-0.088,0.985l-0.124,0.982
				c-0.079,0.654-0.178,1.305-0.271,1.953l-0.002,0.018c-0.019,0.132-0.14,0.223-0.271,0.205
				C72.758,175.559,71.775,175.445,70.795,175.273z M70.795,175.273c0.992-0.068,1.981-0.078,2.971-0.108l-0.274,0.222
				c0.015-0.648,0.023-1.297,0.053-1.938l0.038-0.964c0.003-0.321,0.055-0.639,0.028-0.963c-0.052-1.291-0.063-2.578-0.08-3.867
				l0.447,0.472l-2.715-0.31l0.517-0.478c-0.062,1.347-0.142,2.688-0.25,4.021c-0.017,0.334-0.101,0.656-0.148,0.983l-0.186,0.979
				C71.068,173.973,70.95,174.626,70.795,175.273z"/>
			<path fill="#46AA8D" d="M91.79,158.121c0.181-1.723,0.385-3.439,0.633-5.148l0.232,0.334c-1.763-0.264-3.532-0.49-5.289-0.787
				c-1.761-0.274-3.514-0.593-5.27-0.895l0.58-0.402c-0.318,1.695-0.618,3.396-0.962,5.09l-0.365-0.524
				c1.75,0.332,3.489,0.729,5.232,1.099c0.873,0.182,1.742,0.381,2.608,0.594C90.058,157.688,90.927,157.891,91.79,158.121z
				 M91.79,158.121c-0.89-0.084-1.775-0.195-2.66-0.305c-0.887-0.102-1.771-0.217-2.652-0.351c-1.764-0.26-3.531-0.493-5.288-0.791
				c-0.242-0.04-0.405-0.268-0.368-0.509l0.002-0.016c0.266-1.707,0.577-3.405,0.869-5.106c0.046-0.271,0.302-0.451,0.572-0.405
				l0.008,0.002c1.751,0.327,3.505,0.641,5.251,0.995c1.75,0.332,3.488,0.735,5.232,1.104l0.018,0.004
				c0.15,0.03,0.247,0.179,0.215,0.329v0.001C92.627,154.764,92.22,156.443,91.79,158.121z"/>
			<path fill="#46AA8D" d="M90.46,165.525c0.083-0.877,0.193-1.748,0.3-2.619c0.103-0.873,0.212-1.744,0.345-2.611l0.234,0.336
				c-1.763-0.262-3.532-0.49-5.288-0.789c-1.761-0.273-3.514-0.592-5.27-0.895l0.58-0.402c-0.323,1.725-0.628,3.452-0.978,5.171
				l-0.364-0.522c1.75,0.332,3.489,0.729,5.232,1.1c0.873,0.182,1.742,0.381,2.608,0.593
				C88.729,165.092,89.597,165.295,90.46,165.525z M90.46,165.525c-0.89-0.084-1.775-0.195-2.66-0.305
				c-0.887-0.103-1.771-0.218-2.652-0.352c-1.763-0.26-3.532-0.492-5.288-0.79c-0.241-0.04-0.404-0.269-0.367-0.509l0.002-0.016
				c0.27-1.732,0.585-3.459,0.882-5.188c0.046-0.271,0.303-0.451,0.573-0.405l0.007,0.001c1.751,0.328,3.505,0.641,5.251,0.996
				c1.75,0.332,3.488,0.732,5.232,1.102l0.016,0.002c0.153,0.033,0.25,0.182,0.218,0.334c-0.177,0.858-0.378,1.715-0.585,2.567
				C90.888,163.82,90.687,164.675,90.46,165.525z"/>
			<path fill="#46AA8D" d="M81.4,177.18c-0.069-0.346-0.147-0.689-0.205-1.037c-0.066-0.346-0.111-0.695-0.204-1.033
				c-0.178-0.682-0.301-1.359-0.478-2.033c-0.183-0.674-0.34-1.352-0.524-2.021l-0.587-1.992c-0.074-0.252,0.07-0.518,0.322-0.592
				c0.039-0.012,0.083-0.018,0.121-0.02l2.692-0.083l0.014-0.001c0.224-0.008,0.416,0.143,0.473,0.349l0.563,2.036
				c0.167,0.684,0.291,1.375,0.437,2.061c0.137,0.688,0.211,1.392,0.314,2.084c0.095,0.696,0.099,1.41,0.152,2.108l0.001,0.021
				c0.01,0.127-0.085,0.236-0.211,0.246h-0.025C83.303,177.238,82.354,177.242,81.4,177.18z M81.4,177.18
				c0.94-0.168,1.884-0.27,2.826-0.406l-0.235,0.267l-0.181-1.017c-0.067-0.338-0.105-0.676-0.19-1.014
				c-0.156-0.672-0.297-1.346-0.456-2.016l-0.513-2.001l-0.58-1.976l0.487,0.348l-2.693,0.031l0.443-0.609l0.497,2.07
				c0.127,0.697,0.241,1.396,0.353,2.095c0.098,0.7,0.156,1.414,0.21,2.116c0.038,0.353,0.026,0.703,0.036,1.055
				C81.414,176.475,81.403,176.827,81.4,177.18z"/>
			<path fill="#46AA8D" d="M93.216,179.803c-0.191-0.414-0.387-0.826-0.565-1.246c-0.188-0.414-0.344-0.847-0.582-1.233
				c-0.221-0.396-0.44-0.79-0.644-1.189c-0.214-0.396-0.397-0.801-0.644-1.184l-1.403-2.315l-1.481-2.258
				c-0.147-0.223-0.087-0.521,0.135-0.669c0.048-0.032,0.105-0.056,0.159-0.067l2.699-0.619l0.014-0.004
				c0.198-0.045,0.396,0.041,0.501,0.201l1.502,2.291c0.471,0.782,0.898,1.59,1.348,2.383c0.236,0.391,0.402,0.821,0.597,1.233
				l0.566,1.248c0.207,0.405,0.322,0.86,0.481,1.29c0.149,0.436,0.3,0.867,0.432,1.305l0.004,0.014
				c0.032,0.107-0.028,0.222-0.136,0.254l-0.021,0.006C95.193,179.43,94.211,179.641,93.216,179.803z M93.216,179.803
				c0.944-0.353,1.902-0.656,2.854-0.982l-0.152,0.272c-0.194-0.405-0.369-0.815-0.547-1.225c-0.188-0.405-0.327-0.824-0.564-1.21
				l-0.652-1.176c-0.227-0.387-0.414-0.791-0.658-1.17l-1.405-2.291l-1.5-2.227l0.515,0.198l-2.707,0.582l0.294-0.737l1.421,2.357
				c0.231,0.396,0.418,0.816,0.629,1.224l0.615,1.228c0.216,0.401,0.376,0.842,0.562,1.262c0.184,0.423,0.351,0.851,0.518,1.275
				c0.186,0.42,0.284,0.865,0.417,1.301C92.986,178.921,93.098,179.361,93.216,179.803z"/>
		</g>
	</g>
</g>
<g>
	<g>
		<g>
			<path fill="#D5E4E9" d="M64.155,42.742c1.232,2.614-1.296,6.396-5.647,8.448l-18.384,8.669c-4.352,2.052-8.877,1.597-10.11-1.017
				l-4.117-8.73c-1.233-2.613,1.295-6.396,5.647-8.448l18.384-8.67c4.351-2.052,8.878-1.596,10.111,1.018L64.155,42.742z"/>
			<g>
				<path fill="#46AA8D" d="M63.432,42.941c2.036,6.76-15.603,12.458-19.938,14.502c-3.368,1.588-10.62,5.714-12.885,0.909
					c-1.337-2.836-2.675-5.672-4.012-8.508c-2.853-6.05,16.433-12.772,19.96-14.436c3.368-1.588,10.62-5.713,12.886-0.908
					c1.355,2.873,2.709,5.746,4.064,8.619c0.412,0.875,1.705,0.113,1.295-0.757c-1.288-2.732-2.531-7.993-4.996-9.878
					c-4.173-3.193-9.168-0.653-13.299,1.295c-4.688,2.21-9.375,4.421-14.063,6.632c-3.791,1.788-8.736,5.042-7.272,9.899
					c0.861,2.858,2.77,7.79,4.92,9.94c3.517,3.516,9.068,0.888,12.798-0.871c4.905-2.313,9.81-4.626,14.715-6.939
					c3.791-1.788,8.734-5.042,7.272-9.898C64.601,41.619,63.152,42.013,63.432,42.941z"/>
			</g>
		</g>
		<g>
			<path fill="#FFFFFF" d="M63.226,40.77c1.232,2.613-1.297,6.396-5.647,8.448l-18.384,8.67c-4.352,2.052-8.878,1.596-10.111-1.017
				l-4.117-8.731c-1.234-2.614,1.295-6.396,5.646-8.449l18.384-8.669c4.351-2.052,8.878-1.596,10.111,1.017L63.226,40.77z"/>
			<g>
				<path fill="#46AA8D" d="M62.503,40.969C64.538,47.73,46.9,53.428,42.565,55.472c-3.368,1.588-10.62,5.713-12.886,0.909
					c-1.337-2.836-2.675-5.672-4.012-8.508c-2.854-6.052,16.432-12.772,19.959-14.436c3.368-1.588,10.621-5.713,12.886-0.909
					c1.355,2.874,2.71,5.747,4.065,8.62c0.412,0.875,1.705,0.113,1.295-0.757c-1.289-2.732-2.532-7.994-4.997-9.878
					c-4.173-3.192-9.168-0.652-13.299,1.295c-4.688,2.21-9.375,4.421-14.063,6.631c-3.79,1.787-8.736,5.043-7.271,9.899
					c0.862,2.859,2.769,7.79,4.919,9.94c3.517,3.516,9.068,0.889,12.798-0.871c4.905-2.313,9.81-4.626,14.715-6.939
					c3.791-1.788,8.734-5.042,7.272-9.899C63.671,39.646,62.223,40.04,62.503,40.969z"/>
			</g>
		</g>
	</g>
	<g>
		<g>
			<path fill="#45A98E" d="M35.944,52.13c-1.191,0.55-3.313,1.204-3.059,2.896c0.13,0.867,1.015,1.637,1.88,1.683
				c1.102,0.059,2.019-0.649,2.959-1.113c0.868-0.428,0.107-1.721-0.757-1.295c-0.585,0.288-1.128,0.671-1.754,0.868
				c-0.244,0.077-1.01-0.111-0.846-0.438c0.17-0.338,0.667-0.54,0.982-0.701c0.44-0.224,0.902-0.399,1.35-0.606
				C37.579,53.02,36.816,51.728,35.944,52.13L35.944,52.13z"/>
		</g>
	</g>
	<g>
		<g>
			<path fill="#45A98E" d="M36.623,48.286c1.149,1.913,1.813,4.077,3.086,5.918c0.546,0.79,1.847,0.041,1.295-0.757
				c-1.272-1.841-1.936-4.006-3.086-5.918C37.42,46.701,36.123,47.455,36.623,48.286L36.623,48.286z"/>
		</g>
	</g>
	<g>
		<g>
			<path fill="#45A98E" d="M38.141,53.042c0.785-0.517,1.573-1.026,2.42-1.436c0.871-0.42,0.11-1.713-0.757-1.295
				c-0.848,0.409-1.635,0.918-2.42,1.436C36.58,52.276,37.331,53.575,38.141,53.042L38.141,53.042z"/>
		</g>
	</g>
	<g>
		<g>
			<path fill="#45A98E" d="M41.341,50.692c0.648,0.772,1.113,1.673,1.855,2.37c0.512,0.481,1.209,0.105,1.28-0.53
				c0.093-0.824,0.031-2.259,0.959-2.644c0.88-0.365,0.495-1.817-0.398-1.446c-1.759,0.729-1.873,2.417-2.061,4.09
				c0.427-0.177,0.854-0.354,1.28-0.53c-0.736-0.692-1.208-1.6-1.855-2.37C41.779,48.89,40.724,49.957,41.341,50.692L41.341,50.692z
				"/>
		</g>
	</g>
	<g>
		<g>
			<path fill="#45A98E" d="M44.783,45.276c1.607,1.216,2.006,3.468,3.128,5.06c0.552,0.784,1.854,0.036,1.295-0.757
				c-1.318-1.87-1.765-4.16-3.667-5.598C44.768,43.397,44.021,44.7,44.783,45.276L44.783,45.276z"/>
		</g>
	</g>
</g>
<g>
	<polygon fill="#FFFFFF" points="120.823,120.268 108.85,116.042 98.579,123.516 98.896,110.818 88.616,103.364 100.786,99.738 
		104.703,87.66 111.909,98.116 124.607,98.107 116.893,108.191 	"/>
	<g>
		<path fill="#46AA8D" d="M121.021,119.543c-1.994-0.704-3.99-1.408-5.986-2.111c-1.745-0.615-4.309-2.14-6.188-2.14
			c-1.371,0-3.716,2.531-4.746,3.28c-1.967,1.432-3.935,2.863-5.901,4.296c0.377,0.216,0.753,0.432,1.129,0.647
			c0.061-2.434,0.121-4.865,0.182-7.298c0.034-1.36,0.762-4.532,0.032-5.778c-0.803-1.369-3.396-2.535-4.641-3.438
			c-1.969-1.428-3.938-2.856-5.908-4.284c-0.06,0.457-0.119,0.914-0.179,1.371c2.332-0.695,4.664-1.39,6.995-2.084
			c1.374-0.41,4.445-0.673,5.506-1.735c1.08-1.08,1.406-4.075,1.857-5.467c0.751-2.314,1.501-4.628,2.252-6.942
			c-0.457,0.06-0.914,0.12-1.371,0.179c1.381,2.003,2.762,4.007,4.143,6.01c0.854,1.241,1.984,3.925,3.332,4.715
			c1.268,0.742,4.39,0.1,5.779,0.099c2.434-0.002,4.866-0.003,7.299-0.005c-0.215-0.376-0.432-0.752-0.646-1.129
			c-1.286,1.681-2.572,3.361-3.857,5.042c-1.078,1.408-3.455,3.479-3.936,5.222c-0.376,1.366,1.262,4.271,1.672,5.532
			c0.754,2.313,1.508,4.627,2.26,6.94c0.299,0.916,1.748,0.523,1.447-0.397c-1.302-3.996-2.604-7.992-3.902-11.988
			c0.207,0.641,0.613-0.447,1.102-1.085c0.884-1.155,1.77-2.312,2.652-3.466c1.285-1.682,2.572-3.361,3.857-5.042
			c0.357-0.469-0.132-1.129-0.646-1.129c-4.202,0.003-8.404,0.006-12.607,0.009c0.799-0.001,0.09-0.305-0.57-1.263
			c-0.824-1.198-1.65-2.396-2.477-3.594c-1.201-1.743-2.402-3.485-3.604-5.228c-0.371-0.538-1.162-0.463-1.371,0.179
			c-1.297,3.997-2.592,7.994-3.889,11.991c0.259-0.799-0.347-0.186-1.406,0.131c-1.395,0.415-2.79,0.83-4.184,1.246
			c-2.028,0.604-4.057,1.209-6.085,1.813c-0.664,0.197-0.692,0.998-0.179,1.371c3.402,2.467,6.803,4.935,10.205,7.4
			c-0.722-0.523-0.319,0.322-0.347,1.391c-0.036,1.454-0.072,2.909-0.108,4.364c-0.053,2.115-0.105,4.231-0.158,6.349
			c-0.014,0.529,0.663,0.985,1.129,0.646c3.398-2.473,6.796-4.946,10.193-7.419c-0.51,0.372,0.572,0.399,1.369,0.682
			c1.371,0.483,2.744,0.968,4.115,1.452c1.996,0.704,3.991,1.408,5.987,2.112C121.538,121.313,121.93,119.863,121.021,119.543z"/>
	</g>
</g>
<g>
	<g>
		<g>
			<path fill="#46AA8D" d="M168.971,87.953c3.518,8.123,8.782,15.249,13.043,22.971c1.221,2.212,2.875,4.153,4.053,6.407
				c-0.774,2.099-1.514,2.221-2.213,0.369c-0.303-0.482-0.59-0.974-0.863-1.472c-0.375-0.662-0.738-1.319-1.143-1.965
				c-2.783-4.438-5.891-8.664-8.645-13.127c-1.514-2.451-2.904-4.974-4.1-7.595c-0.574-1.255-0.994-2.55-1.312-3.888
				c-0.231-0.975-0.687-3.478,0.584-2.175c0.676,0.693,1.735-0.368,1.062-1.061c-0.621-0.636-0.646-0.643-1.428-1.111
				c-0.383-0.229-0.781-0.054-1.025,0.269c-3.142,4.144,2.308,11.905,4.332,15.341c3.526,5.983,7.642,11.603,11.242,17.539
				c2.521,4.159,6.777,2.746,4.803-1.884c-1.604-3.76-4.577-7.451-6.672-10.961c-3.629-6.083-7.6-11.89-10.424-18.417
				C169.883,86.311,168.591,87.075,168.971,87.953L168.971,87.953z"/>
		</g>
	</g>
	<g>
		<circle fill="#FFFFFF" cx="162.544" cy="82.189" r="16.989"/>
		<g>
			<path fill="#46AA8D" d="M178.631,84.447c-1.604,8.542-8.457,14.155-17.158,13.947c-9.134-0.218-15.339-8.722-15.135-17.275
				c0.219-9.133,8.725-15.339,17.275-15.136c9.736,0.232,15.937,9.664,14.99,18.664c-0.101,0.961,1.4,0.952,1.5,0
				c1.029-9.798-5.229-18.174-14.903-19.991c-9.753-1.831-18.454,5.638-20.19,14.877c-1.83,9.752,5.639,18.456,14.877,20.189
				c9.754,1.829,18.456-5.635,20.191-14.876C180.255,83.9,178.811,83.497,178.631,84.447z"/>
		</g>
	</g>
	<g>
		<circle fill="#FFFFFF" cx="162.544" cy="82.188" r="13.837"/>
		<g>
			<path fill="#46AA8D" d="M175.514,83.991c-3.113,15.946-26.084,13.744-26.041-2.476c0.021-7.404,6.887-12.416,13.744-12.398
				c7.994,0.02,12.982,7.786,12.27,15.073c-0.094,0.963,1.406,0.954,1.5,0c1.824-18.633-25.282-22.522-28.856-4.202
				c-1.569,8.045,4.663,15.143,12.214,16.616c8.045,1.569,15.143-4.665,16.617-12.214C177.145,83.444,175.698,83.042,175.514,83.991
				z"/>
		</g>
	</g>
	<g>
		<g>
			<path fill="#46AA8D" d="M166.977,76.222c0.739,2.724,1.178,5.383,0.565,8.178c-0.065,0.306,0.032,0.703,0.345,0.847
				c9.086,4.188,5.44-16.164-0.718-9.934c-0.681,0.688,0.38,1.75,1.062,1.061c2.168-2.194,3.304,1.348,3.541,3.146
				c0.283,2.13-0.14,5.809-3.127,4.432c0.114,0.282,0.229,0.564,0.346,0.847c0.669-3.06,0.244-5.987-0.566-8.975
				C168.169,74.891,166.723,75.288,166.977,76.222L166.977,76.222z"/>
		</g>
	</g>
</g>
<g>
	<g>
		<path fill="#45A98E" d="M62.607,75.028c-3.102-14.558,5.358-26.298,17.525-28.89c10.97-2.337,19.367,3.484,21.647,14.184
			c2.025,9.505-2.843,15.709-7.783,16.762c-2.937,0.625-5.516-0.298-6.475-2.934l-0.112,0.024c-1.339,2.5-3.45,4.595-5.837,5.104
			c-3.694,0.788-7.1-1.325-8.153-6.268c-1.239-5.814,0.721-13.3,7.079-14.655c1.849-0.394,4.207-0.073,5.57,1.508l0.106-0.022
			l0.132-2.298l2.992-0.638l0.195,11.315c-0.175,4.525,1.297,6.368,4.286,5.731c3.425-0.729,6.392-5.731,4.886-12.796
			c-1.863-8.744-8.391-14.054-18.276-11.948c-9.669,2.06-17.267,12.251-14.56,24.963c2.257,10.593,10.495,15.142,19.731,13.173
			c3.314-0.707,6.136-2.384,8.279-4.319l1.763,2.406c-2.748,2.574-5.982,4.172-9.734,4.971
			C75.223,92.669,65.304,87.686,62.607,75.028z M86.105,71.78l-0.265-8.971c-1.391-1.466-2.497-1.854-3.963-1.541
			c-4.289,0.913-5.796,6.631-4.928,10.704c0.74,3.476,2.67,4.542,4.839,4.08C83.312,75.727,84.736,74.401,86.105,71.78z"/>
		<g>
			<path fill="#46AA8D" d="M63.33,74.829c-2.747-14.679,6.674-28.544,22.273-28.437c7.694,0.053,13.015,5.852,15.122,12.762
				c1.19,3.905,1.03,8.092-0.603,11.823c-1.71,3.908-8.778,8.929-11.954,2.795c-0.16-0.309-0.529-0.413-0.847-0.345
				c-1.047,0.224-2.439,2.97-2.968,3.515c-5.837,6.021-10.42-2.497-10.534-7.56c-0.085-3.777,1.544-7.464,4.746-9.53
				c3.443-2.223,4.91,1.313,7.808,0.711c0.337-0.07,0.532-0.404,0.551-0.723c0.022-0.383,0.044-0.766,0.066-1.149
				c0.069-1.202-0.555-0.411,0.568-0.65c1.914-0.408,1.011,0.086,0.992-1.023c0.008,0.491,0.017,0.981,0.025,1.472
				c0.054,3.099,0.107,6.198,0.161,9.297c0.067,3.891,2.201,9.952,7.229,5.984c5.83-4.6,4.484-14.662,0.329-19.981
				c-4.676-5.988-12.99-7.389-19.797-4.087c-14.501,7.033-17.032,31.562-0.577,37.949c3.65,1.417,7.777,0.965,11.455-0.016
				c2.087-0.557,3.984-1.787,5.716-3.021c0.688-0.49-0.236-1.672,0.721-0.365c1.302,1.776,1.225,0.83-1.063,2.504
				c-4.91,3.593-11.894,4.179-17.593,2.535C68.51,87.371,64.855,81.144,63.33,74.829c-0.227-0.94-1.673-0.542-1.446,0.398
				c1.74,7.205,5.746,12.935,12.874,15.508c7.252,2.617,15.754,0.085,21.375-4.775c0.234-0.202,0.304-0.654,0.117-0.909
				c-0.587-0.802-1.175-1.604-1.763-2.406c-0.302-0.412-0.781-0.484-1.178-0.152c-9.541,7.979-22.667,4.886-26.413-7.116
				c-3.724-11.931,3.924-24.485,16.356-25.834c5.172-0.561,9.711,1.896,12.514,6.138c2.986,4.52,4.853,16.647-2.927,17.64
				c-3.696,0.472-2.751-14.089-2.791-16.417c-0.009-0.508-0.47-0.825-0.949-0.723c-0.998,0.212-1.995,0.425-2.992,0.638
				c-0.337,0.072-0.532,0.403-0.551,0.723c-0.022,0.383-0.044,0.766-0.066,1.149c-0.111,1.109-0.05,1.055,0.183-0.161
				c-0.631-0.547-1.987-0.986-2.808-1.021c-3.207-0.137-5.713,1.027-7.833,3.424c-3.402,3.848-3.954,12.257-0.615,16.289
				c3.988,4.816,9.522,2.984,12.909-1.459c-1.05,1.377,6.32,2.115,6.671,2.07c2.498-0.319,4.592-2.155,6.12-4.011
				c4.367-5.305,3.146-13.236,0.585-19.002c-2.917-6.567-9.493-9.891-16.416-9.938c-16.149-0.111-25.103,15.911-22.401,30.345
				C62.062,76.177,63.507,75.774,63.33,74.829z"/>
			<path fill="#46AA8D" d="M86.855,71.78c-0.088-2.974-0.175-5.948-0.263-8.921c-0.035-1.199-2.296-2.357-3.345-2.406
				c-2.091-0.098-3.8,0.822-5.145,2.384c-2.732,3.176-2.903,9.002-0.568,12.392c2.978,4.321,7.6-0.178,9.218-3.07
				c0.473-0.845-0.823-1.601-1.295-0.757c-0.928,1.659-1.936,3.349-3.869,3.927c-2.807,0.839-3.851-2.643-4.085-4.69
				c-0.391-3.418,0.971-7.639,4.572-8.647c3.814-1.068,3.077,2.953,3.138,5.011c0.047,1.593,0.094,3.185,0.141,4.778
				C85.384,72.745,86.884,72.748,86.855,71.78z"/>
		</g>
	</g>
</g>
<g>
	<g>
		<polygon fill="#D6E5EA" points="133.788,88.172 133.788,88.172 107.841,79.021 107.841,79.021 122.566,37.269 122.566,37.269 
			148.516,46.419 148.516,46.419 		"/>
		<g>
			<path fill="#46AA8D" d="M133.986,87.449c-5.545-1.956-11.09-3.912-16.635-5.867c-2.766-0.976-5.531-1.951-8.297-2.926
				c-1.555-0.548-0.231-0.17-0.453,0.455c0.229-0.649,0.459-1.299,0.688-1.948c4.474-12.684,8.946-25.367,13.421-38.051
				c0.182-0.512,0.359-1.023,0.541-1.535c-0.264,0.745-1.352,0.25,0.132,0.773c3.065,1.081,6.132,2.162,9.196,3.243
				c3.529,1.245,7.061,2.49,10.591,3.735c1.236,0.436,2.472,0.872,3.707,1.307c1.877,0.662,0.625,0.403,0.875-0.306
				c-4.269,12.101-8.536,24.201-12.804,36.302c-0.629,1.78-1.258,3.561-1.885,5.341c-0.322,0.915,1.127,1.304,1.447,0.398
				c4.907-13.917,9.816-27.835,14.727-41.753c0.143-0.405-0.16-0.794-0.524-0.922c-8.649-3.05-17.298-6.101-25.946-9.151
				c-0.406-0.143-0.795,0.16-0.924,0.524c-4.908,13.917-9.816,27.835-14.727,41.752c-0.143,0.405,0.16,0.794,0.523,0.922
				c8.649,3.05,17.299,6.101,25.947,9.151C134.503,89.218,134.895,87.769,133.986,87.449z"/>
		</g>
	</g>
	<g>
		<polygon fill="#FFFFFF" points="133.676,77.664 133.676,77.664 114.807,71.007 114.807,71.007 124.561,43.349 124.561,43.349 
			143.432,50.005 143.432,50.005 		"/>
		<g>
			<path fill="#46AA8D" d="M133.875,76.94c-3.898-1.375-7.799-2.751-11.698-4.126c-2.104-0.742-4.206-1.484-6.311-2.226
				c-1.064-0.375-0.521,1.136,0.157-0.784c3.082-8.738,6.164-17.476,9.244-26.213c-0.313,0.888-1.365,0.32-0.045,0.785
				c0.994,0.352,1.99,0.703,2.985,1.054c2.617,0.923,5.233,1.846,7.851,2.769c2.104,0.742,4.207,1.484,6.312,2.226
				c1.397,0.493,0.144-0.066,0.278-0.453c-0.201,0.57-0.402,1.141-0.604,1.711c-3.03,8.594-6.062,17.188-9.093,25.781
				c-0.322,0.915,1.127,1.304,1.447,0.398c3.25-9.219,6.502-18.439,9.754-27.659c0.144-0.405-0.159-0.794-0.523-0.922
				c-6.29-2.219-12.58-4.437-18.87-6.656c-0.405-0.143-0.794,0.16-0.923,0.524c-3.251,9.219-6.503,18.438-9.755,27.658
				c-0.144,0.405,0.16,0.794,0.524,0.922c6.289,2.219,12.58,4.438,18.869,6.656C134.391,78.709,134.781,77.26,133.875,76.94z"/>
		</g>
	</g>
	<g>
		<g>
			<path fill="#46AA8D" d="M138.291,44.567c-2.15-0.732-4.398-1.166-6.491-2.065c-0.879-0.378-1.644,0.914-0.758,1.295
				c2.22,0.954,4.572,1.441,6.851,2.217C138.811,46.326,139.201,44.876,138.291,44.567L138.291,44.567z"/>
		</g>
	</g>
	<g>
		<g>
			<path fill="#46AA8D" d="M120.48,77.971c-1.02,2.092,1.896,4.461,3.722,2.959c1.966-1.62-0.776-3.777-2.497-3.764
				c-0.967,0.007-0.969,1.507,0,1.5c0.361-0.002,0.787,0.191,1.145,0.412c0.152,0.096,0.319,0.223,0.428,0.37
				c0.074,0.101,0.084,0.139,0.106,0.23c-0.017-0.069,0.036-0.124-0.043,0.014c-0.432,0.745-1.856-0.363-1.565-0.963
				C122.197,77.862,120.902,77.102,120.48,77.971L120.48,77.971z"/>
		</g>
	</g>
</g>
<g>
	<path fill="#45A98E" d="M155.158,114.378c1.35-2.51,2.673-5.579,2.4-6.349c-0.354-0.993-3.752-0.776-6.797-0.439
		c-1.109-0.949-2.383-1.798-3.813-2.479c-1.548-0.734-3.125-1.207-4.675-1.454c-1.609-2.478-3.463-5.001-4.414-4.663
		c-0.742,0.265-2.211,3.041-3.299,5.604c-1.766,0.848-3.184,2.15-4.006,3.881c-2.393,5.026,1.069,11.672,7.73,14.84
		c6.66,3.17,14.001,1.662,16.393-3.364C155.506,118.218,155.617,116.29,155.158,114.378z"/>
</g>
<g>
	<g>
		<path fill="#45A98E" d="M140.343,166.13c0.679-2.292,1.453-3.873,2.075-5.976c0.361-1.225,0.148-2.586-1.977-3.247l0.483-1.634
			c2.144,0.601,3.062-0.426,3.413-1.618c0.633-2.136,0.842-3.884,1.52-6.175c0.957-3.233,2.429-3.822,4.908-3.088l1.412,0.416
			l-0.437,1.476l-0.849-0.25c-1.695-0.502-2.377,0.187-2.979,2.225c-0.563,1.916-0.86,3.604-1.49,5.738
			c-0.604,2.042-1.437,2.89-2.896,2.866l-0.037,0.128c1.24,0.772,1.466,1.967,0.871,3.978c-0.631,2.133-1.303,3.713-1.867,5.627
			c-0.604,2.039-0.405,2.986,1.29,3.487l0.849,0.254l-0.438,1.472l-1.413-0.416C140.303,170.659,139.387,169.363,140.343,166.13z"/>
		<g>
			<path fill="#46AA8D" d="M140.632,166.21c0.517-1.584,4.054-7.562,1.218-8.946c-2.846-1.393,0.748-1.365,1.605-1.867
				c1.104-0.646,1.293-2.111,1.582-3.205c0.857-3.236,1.646-8.688,6.695-7.2c1.82,0.536-3.021,0.593-1.935,0.593
				c-4.331,0-1.483,10.245-6.353,10.991c-0.1,0.016-0.182,0.116-0.209,0.209c-0.012,0.043-0.024,0.086-0.036,0.128
				c-0.028,0.099-0.001,0.223,0.077,0.292c3.808,3.405-3.383,8.938-0.756,12.562c0.319,0.441,1.084,0.578,1.605,0.734
				c0.316,0.096,0.039,0.988-0.22,0.912C141.83,170.8,139.65,170.425,140.632,166.21c0.089-0.377-0.489-0.536-0.577-0.16
				c-0.886,3.8,0.551,5.015,4.062,6.048c0.159,0.047,0.323-0.055,0.368-0.209c0.146-0.49,0.293-0.98,0.438-1.472
				c0.048-0.159-0.056-0.323-0.209-0.369c-3.983-1.192-0.274-7.996,0.228-10.36c0.063-0.299-0.459-2.668-0.35-2.686
				c4.376-0.671,1.079-12.195,7.071-10.429c0.159,0.047,0.323-0.056,0.369-0.209c0.146-0.492,0.291-0.984,0.437-1.476
				c0.047-0.16-0.055-0.324-0.209-0.369c-1.783-0.525-3.3-1.084-5-0.103c-3.188,1.841-1.074,11.19-6.333,10.558
				c-0.132-0.018-0.255,0.104-0.288,0.219c-0.162,0.546-0.322,1.09-0.484,1.634c-0.035,0.122,0.021,0.28,0.139,0.339
				c3.6,1.762,0.548,6.473-0.236,8.884C139.934,166.419,140.514,166.576,140.632,166.21z"/>
		</g>
	</g>
	<g>
		<path fill="#45A98E" d="M147.695,171.24l0.814,0.242c1.696,0.5,2.377-0.188,2.98-2.229c0.564-1.913,0.893-3.594,1.521-5.728
			c0.596-2.01,1.403-2.898,2.865-2.875l0.037-0.125c-1.241-0.775-1.443-1.932-0.841-3.971c0.632-2.135,1.27-3.722,1.836-5.637
			c0.604-2.04,0.407-2.986-1.288-3.49l-0.816-0.238l0.436-1.477l1.381,0.407c2.514,0.741,3.396,2.028,2.439,5.264
			c-0.678,2.29-1.451,3.871-2.084,6.007c-0.352,1.192-0.107,2.563,1.986,3.215l-0.484,1.633c-2.111-0.59-3.062,0.428-3.422,1.65
			c-0.621,2.104-0.832,3.853-1.512,6.145c-0.955,3.234-2.395,3.83-4.906,3.089l-1.382-0.407L147.695,171.24z"/>
		<g>
			<path fill="#46AA8D" d="M147.615,171.529c6.972,2.07,2.639-9.678,8.344-10.59c0.102-0.016,0.182-0.116,0.209-0.209
				c0.014-0.041,0.025-0.084,0.037-0.125c0.029-0.098,0-0.224-0.077-0.291c-3.16-2.822,4.065-11.064,0.647-12.674
				c-0.713-0.334-2.625-1.936-0.592-1.336c5.535,1.633,0.811,8.903,0.373,11.922c-0.094,0.639,0.418,1.736,1.014,2.028
				c2.992,1.47-1.014,1.274-1.67,1.917c-1.625,1.586-1.726,4.018-2.207,6.15c-0.609,2.693-6.822,6.759-5.709,2.996
				c0.109-0.371-0.469-0.529-0.578-0.159c-0.146,0.491-0.291,0.983-0.438,1.476c-0.047,0.159,0.055,0.324,0.209,0.369
				c1.774,0.521,3.29,1.078,4.979,0.096c3.178-1.85,1.06-11.185,6.321-10.562c0.133,0.017,0.256-0.104,0.289-0.22
				c0.162-0.545,0.324-1.088,0.485-1.633c0.036-0.121-0.021-0.281-0.138-0.338c-4.18-2.052,1.035-8.761,0.468-12.238
				c-0.294-1.799-2.89-2.28-4.263-2.686c-0.159-0.047-0.324,0.055-0.369,0.209c-0.146,0.492-0.291,0.984-0.436,1.477
				c-0.048,0.16,0.055,0.324,0.209,0.369c3.922,1.145,0.265,8.055-0.238,10.369c-0.063,0.293,0.438,2.652,0.33,2.67
				c-4.301,0.688-1.133,12.188-7.043,10.433C147.402,170.841,147.245,171.42,147.615,171.529z"/>
		</g>
	</g>
</g>
<g>
	<g>
		<path fill="#45A98E" d="M35.201,88.39c-2.566-4.424-2.381-8.818,0.153-13.25l2.581,1.388c-1.766,3.463-2.025,6.202-0.228,9.301
			c0.136-0.15,0.302-0.247,0.469-0.343c1.491-0.866,3.51-0.706,4.569,1.119c1.092,1.882,0.546,3.752-1.167,4.746
			C39.361,92.634,37.063,91.601,35.201,88.39z M44.993,82.709c-2.566-4.424-2.38-8.818,0.153-13.25l2.577,1.39
			c-1.761,3.461-2.021,6.201-0.223,9.299c0.135-0.151,0.303-0.248,0.468-0.344c1.491-0.865,3.505-0.704,4.564,1.122
			c1.093,1.882,0.551,3.749-1.161,4.743C49.153,86.955,46.855,85.92,44.993,82.709z"/>
		<g>
			<path fill="#45A98E" d="M35.848,88.011c-2.272-4.297-2.087-8.249,0.153-12.493c-0.342,0.09-0.684,0.18-1.026,0.269
				c0.86,0.463,1.72,0.925,2.581,1.388c-0.09-0.342-0.18-0.684-0.269-1.026c-1.666,3.504-2.057,6.539-0.228,10.058
				c0.174,0.336,0.707,0.502,1.026,0.269c2.199-1.61,7.114,1.236,3.115,4.226C38.93,92.397,36.838,89.567,35.848,88.011
				c-0.518-0.813-1.816-0.062-1.295,0.757c1.183,1.859,2.541,3.508,4.822,3.839c1.568,0.227,3.616-0.841,4.231-2.312
				c1.685-4.027-2.684-7.748-6.279-5.114c0.342,0.089,0.684,0.179,1.026,0.269c-1.553-2.988-1.184-5.575,0.228-8.544
				c0.17-0.358,0.113-0.821-0.269-1.026c-0.86-0.463-1.72-0.925-2.581-1.388c-0.348-0.187-0.831-0.102-1.026,0.269
				c-2.493,4.723-2.662,9.262-0.153,14.007C35.005,89.624,36.3,88.866,35.848,88.011z"/>
			<path fill="#45A98E" d="M45.64,82.331c-2.272-4.297-2.086-8.249,0.153-12.493c-0.342,0.09-0.684,0.18-1.026,0.269
				c0.859,0.463,1.718,0.927,2.577,1.39c-0.09-0.342-0.18-0.684-0.269-1.026c-1.663,3.504-2.052,6.539-0.223,10.056
				c0.174,0.335,0.708,0.503,1.026,0.269c2.195-1.613,7.101,1.245,3.114,4.227C48.723,86.718,46.63,83.886,45.64,82.331
				c-0.518-0.813-1.816-0.062-1.295,0.757c1.183,1.859,2.541,3.508,4.822,3.84c1.567,0.228,3.617-0.841,4.23-2.312
				c1.676-4.019-2.686-7.755-6.277-5.115c0.342,0.089,0.684,0.179,1.026,0.269c-1.553-2.986-1.185-5.573,0.223-8.542
				c0.17-0.359,0.113-0.82-0.269-1.026c-0.859-0.463-1.718-0.927-2.577-1.39c-0.347-0.188-0.831-0.102-1.026,0.269
				c-2.492,4.723-2.662,9.262-0.153,14.007C44.797,83.943,46.092,83.185,45.64,82.331z"/>
		</g>
	</g>
</g>
<g>
	<g>
		<g>
			<polygon fill="#D6E5EA" points="31.219,137.281 31.219,137.281 24.09,107.496 24.09,107.496 72.02,96.027 72.02,96.027 
				79.147,125.813 79.147,125.813 			"/>
			<g>
				<path fill="#46AA8D" d="M31.942,137.082c-1.343-5.609-2.686-11.221-4.028-16.83c-0.796-3.327-1.593-6.654-2.389-9.98
					c-0.208-0.871-0.417-1.74-0.625-2.61c-0.126-0.527-1.161,0.69,0.016,0.409c13.149-3.146,26.297-6.293,39.446-9.439
					c2.217-0.53,4.434-1.061,6.651-1.591c0.394-0.094,0.787-0.188,1.18-0.282c-1.055,0.252-0.937-0.698-0.452,1.329
					c1.701,7.108,3.402,14.22,5.104,21.329c0.513,2.145,1.026,4.289,1.539,6.434c-0.086-0.359,1.092-0.885-0.063-0.607
					c-0.915,0.219-1.831,0.438-2.746,0.656c-6.864,1.643-13.728,3.285-20.591,4.928c-7.988,1.91-15.976,3.822-23.964,5.732
					c-0.941,0.227-0.542,1.672,0.398,1.447c15.976-3.822,31.952-7.646,47.928-11.468c0.407-0.099,0.617-0.536,0.524-0.923
					c-2.376-9.93-4.751-19.857-7.127-29.786c-0.097-0.407-0.536-0.617-0.922-0.524c-15.977,3.823-31.953,7.646-47.93,11.468
					c-0.407,0.098-0.617,0.535-0.524,0.922c2.376,9.93,4.753,19.857,7.129,29.785C30.721,138.421,32.167,138.021,31.942,137.082z"/>
			</g>
		</g>
		<g>
			<polygon fill="#FFFFFF" points="33.647,129.973 33.647,129.973 29.054,110.775 29.054,110.775 69.559,101.082 69.559,101.082 
				74.151,120.277 74.151,120.277 			"/>
			<g>
				<path fill="#46AA8D" d="M34.371,129.771c-1.263-5.275-2.525-10.553-3.788-15.828c-0.226-0.942-0.451-1.887-0.677-2.829
					c-0.238-0.994-1.139,0.502-0.184,0.272c2.014-0.482,4.028-0.965,6.042-1.445c11.321-2.711,22.643-5.42,33.963-8.129
					c-0.989,0.235-0.977-0.887-0.552,0.891c0.353,1.477,0.706,2.951,1.059,4.428c0.853,3.566,1.706,7.133,2.56,10.698
					c0.191,0.801,0.383,1.603,0.575,2.403c-0.044-0.186,1.122-0.809-0.143-0.506c-2.177,0.521-4.354,1.043-6.531,1.563
					c-11.083,2.651-22.165,5.306-33.247,7.957c-0.94,0.226-0.542,1.672,0.398,1.446c13.501-3.23,27.002-6.463,40.503-9.693
					c0.407-0.098,0.617-0.536,0.524-0.923c-1.531-6.397-3.062-12.797-4.592-19.195c-0.097-0.407-0.536-0.617-0.922-0.524
					c-13.501,3.231-27.003,6.462-40.504,9.694c-0.407,0.099-0.617,0.536-0.524,0.923c1.531,6.398,3.062,12.797,4.593,19.195
					C33.149,131.111,34.596,130.713,34.371,129.771z"/>
			</g>
		</g>
	</g>
	<g>
		<polyline fill="#D6E5EA" points="58.808,131.563 62.67,136.871 57.188,138.197 56.522,138.359 51.04,139.688 52.046,133.199 		"/>
		<g>
			<path fill="#46AA8D" d="M58.16,131.941c1.288,1.77,2.575,3.539,3.863,5.309c0.149-0.367,0.299-0.734,0.448-1.104
				c-3.877,0.938-7.754,1.877-11.631,2.815c0.307,0.308,0.615,0.615,0.922,0.923c0.335-2.162,0.671-4.324,1.006-6.486
				c0.147-0.945-1.298-1.354-1.446-0.398c-0.335,2.162-0.671,4.324-1.006,6.486c-0.087,0.561,0.322,1.068,0.922,0.924
				c3.877-0.938,7.754-1.878,11.631-2.814c0.439-0.106,0.732-0.714,0.448-1.104c-1.288-1.77-2.575-3.538-3.863-5.309
				C58.892,130.411,57.59,131.158,58.16,131.941L58.16,131.941z"/>
		</g>
	</g>
</g>
<g>
	<g>
		
			<rect x="101.829" y="131.632" transform="matrix(-0.9358 0.3525 -0.3525 -0.9358 278.1378 233.4201)" fill="#FFFFFF" width="31.976" height="20.803"/>
		<g>
			<path fill="#46AA8D" d="M136.247,145.412c-9.056,3.411-18.108,6.82-27.163,10.23c-0.618,0.233-1.236,0.467-1.855,0.699
				c-1.36,0.514-0.34-0.08-0.004,0.811c-0.662-1.756-1.322-3.51-1.983-5.264c-1.771-4.699-3.54-9.396-5.31-14.094
				c0.256,0.68-1.067,1.063,0.044,0.645c0.725-0.271,1.448-0.545,2.173-0.817c2.531-0.953,5.062-1.906,7.593-2.86
				c5.603-2.109,11.206-4.222,16.809-6.332c0.726-0.272,1.449-0.546,2.173-0.818c1.067-0.401-0.234-0.48-0.25-0.526
				c0.745,1.979,1.491,3.961,2.237,5.94c1.671,4.438,3.343,8.873,5.015,13.311c0.338,0.896,1.787,0.51,1.446-0.398
				c-2.444-6.489-4.892-12.979-7.335-19.47c-0.134-0.354-0.516-0.678-0.923-0.524c-9.976,3.759-19.95,7.517-29.925,11.273
				c-0.354,0.135-0.678,0.516-0.524,0.924c2.445,6.488,4.892,12.979,7.335,19.467c0.135,0.354,0.516,0.679,0.924,0.524
				c9.975-3.758,19.949-7.515,29.924-11.271C137.542,146.521,137.154,145.07,136.247,145.412z"/>
		</g>
	</g>
	<g>
		<path fill="#46AA8D" d="M106.078,139.447c-1.428,2.779,2.326,4.352,3.371,2.017C110.374,139.174,106.807,136.634,106.078,139.447"
			/>
		<g>
			<path fill="#46AA8D" d="M105.432,139.068c-0.697,1.445-0.483,3.14,1.026,3.953c1.338,0.721,2.979,0.18,3.64-1.18
				c0.709-1.464-0.123-3.15-1.387-3.98c-1.411-0.928-2.918-0.133-3.355,1.387c-0.27,0.932,1.179,1.326,1.446,0.398
				c0.214-0.742,0.634-0.832,1.255-0.424c0.598,0.395,1.012,1.313,0.682,1.992c-0.282,0.583-0.943,0.782-1.522,0.51
				c-0.776-0.365-0.829-1.195-0.489-1.898C107.145,138.959,105.852,138.197,105.432,139.068L105.432,139.068z"/>
		</g>
	</g>
	<g display="none">
		<path display="inline" fill="#45A98E" d="M131.939,143.716c-7.633,2.876-15.864,6.175-23.5,9.05l-0.989,0.246
			c-0.028-0.58,0.204-1.328,0.507-2.035l0.434-0.359c1.767-1.85,2.074-2.7,3.609-4.658c0.699-0.658,3.355-4.296,4.417-4.5
			c1.228-0.264,1.753,1.923,2.908,2.475c2.413-4.656,2.698-5.813,5.524-9.257l4.438,1.951
			C130.264,139.217,131.525,141.109,131.939,143.716"/>
		<g display="inline">
			<path fill="#46AA8D" d="M131.74,142.992c-7.846,2.971-15.861,7.144-23.994,9.173c4.639-1.157,5.275-12.629,11.049-7.702
				c0.348,0.296,0.943,0.307,1.178-0.15c0.621-1.213,4.266-9.092,5.192-8.685c1.185,0.521,2.369,1.042,3.553,1.563
				c1.222,0.537,2.271,5.732,2.498,6.725c0.216,0.943,1.662,0.543,1.447-0.398c-0.364-1.588-1.628-6.935-2.997-7.537
				c-1.479-0.649-2.958-1.301-4.438-1.95c-0.285-0.126-0.686-0.163-0.908,0.116c-1.994,2.5-3.477,5.125-4.91,7.979
				c0.128-0.255-2.977-1.518-3.914-1.033c-1.941,0.999-3.626,3.801-4.939,5.549c-1.682,2.238-3.486,3.596-3.855,6.373
				c-0.067,0.502,0.525,0.829,0.949,0.725c8.316-2.075,16.469-6.26,24.488-9.297C133.034,144.1,132.646,142.648,131.74,142.992
				L131.74,142.992z"/>
		</g>
	</g>
	<polygon fill="#45A98E" stroke="#46AA8D" stroke-width="0.5" stroke-miterlimit="10" points="107.5,153.438 133.014,143.518 
		130.063,135.719 125.406,133.906 119.156,142.037 115.688,140.402 106.469,150.781 	"/>
</g>
<g>
	<g>
		<g>
			<path fill="#46AA8D" d="M87.24,28.854c5.213,6.401,10.426,12.802,15.64,19.203c0.611,0.75,1.666-0.317,1.062-1.061
				c-5.213-6.401-10.427-12.802-15.641-19.203C87.689,27.043,86.635,28.111,87.24,28.854L87.24,28.854z"/>
		</g>
	</g>
	<g>
		<g>
			<path fill="#46AA8D" d="M102.88,48.058c4.331,3.693,12.322-2.929,9.78-7.916c-0.439-0.862-1.733-0.103-1.295,0.757
				c1.744,3.423-4.426,8.656-7.426,6.098C103.209,46.373,102.143,47.429,102.88,48.058L102.88,48.058z"/>
		</g>
	</g>
	<g>
		<g>
			<path fill="#46AA8D" d="M112.543,39.99c-6.473-7.948-12.946-15.896-19.419-23.843c-0.611-0.75-1.666,0.317-1.061,1.061
				c6.473,7.948,12.947,15.895,19.419,23.843C112.094,41.801,113.148,40.733,112.543,39.99L112.543,39.99z"/>
		</g>
	</g>
	<g>
		<g>
			<path fill="#46AA8D" d="M93.124,16.147c-1.76-1.889-4.733-1.082-6.488,0.339c-1.772,1.435-2.909,4.771-1.127,6.592
				c0.677,0.692,1.737-0.369,1.061-1.061c-1.25-1.277,0.118-3.517,1.127-4.471c1.056-0.999,3.262-1.524,4.367-0.339
				C92.724,17.917,93.782,16.854,93.124,16.147L93.124,16.147z"/>
		</g>
	</g>
	<g>
		<g>
			<path fill="#46AA8D" d="M85.508,23.078c5.04,6.188,10.079,12.375,15.119,18.563c0.611,0.75,1.666-0.317,1.061-1.061
				c-5.04-6.187-10.079-12.375-15.119-18.563C85.958,21.267,84.903,22.335,85.508,23.078L85.508,23.078z"/>
		</g>
	</g>
	<g>
		<g>
			<path fill="#46AA8D" d="M100.627,41.641c2.786,3.142,8.864-1.664,6.152-5.075c-0.603-0.757-1.656,0.312-1.062,1.061
				c1.457,1.833-2.51,4.669-4.03,2.954C101.045,39.855,99.988,40.92,100.627,41.641L100.627,41.641z"/>
		</g>
	</g>
	<g>
		<g>
			<path fill="#46AA8D" d="M106.779,36.565c-3.846-4.721-7.688-9.442-11.534-14.162c-0.611-0.75-1.666,0.317-1.061,1.061
				c3.845,4.72,7.689,9.441,11.534,14.162C106.33,38.376,107.385,37.309,106.779,36.565L106.779,36.565z"/>
		</g>
	</g>
</g>
</svg>
