<svg width="52" height="22" viewBox="0 0 52 22" fill="none" xmlns="http://www.w3.org/2000/svg">
<path d="M17.4543 16.8229C17.4543 18.19 16.4514 19.3084 15.2258 19.3084H4.7734C3.54782 19.3084 2.54492 18.19 2.54492 16.8229C2.54492 15.986 2.92116 15.2418 3.49401 14.791L9.05568 9.82412C9.15916 9.73555 9.29327 9.87834 9.21876 9.99755L7.17861 14.0824C7.12149 14.1966 7.19558 14.3374 7.31313 14.3374H15.2262C16.4518 14.3374 17.4543 15.4562 17.4543 16.8229ZM17.4543 5.17594C17.4543 6.01286 17.078 6.75707 16.5052 7.20781L10.9435 12.1747C10.84 12.2633 10.7059 12.1205 10.7804 12.0013L12.8206 7.91642C12.8777 7.80218 12.8036 7.66146 12.6861 7.66146H4.7734C3.54782 7.66146 2.54492 6.54308 2.54492 5.17594C2.54492 3.80881 3.54782 2.69043 4.7734 2.69043H15.2262C16.4518 2.69043 17.4543 3.80881 17.4543 5.17594V5.17594Z" fill="white"/>
<path d="M34 17.2052C34 18.1924 33.2601 19 32.3558 19H24.6442C23.7399 19 23 18.1924 23 17.2052C23 16.6008 23.2776 16.0634 23.7002 15.738L27.8036 12.1513C27.8799 12.0873 27.9789 12.1905 27.9239 12.2765L26.4187 15.2263C26.3766 15.3088 26.4312 15.4104 26.5179 15.4104H32.3562C33.2604 15.4104 34 16.2183 34 17.2052ZM34 8.79481C34 9.39916 33.7224 9.93656 33.2998 10.262L29.1964 13.8487C29.1201 13.9127 29.0211 13.8095 29.0761 13.7235L30.5813 10.7737C30.6234 10.6913 30.5688 10.5896 30.4821 10.5896H24.6442C23.7399 10.5896 23 9.78204 23 8.79481C23 7.80759 23.7399 7 24.6442 7H32.3562C33.2604 7 34 7.80759 34 8.79481V8.79481Z" fill="white"/>
<path d="M48 17.6539C48 18.3943 47.4619 19 46.8043 19H41.1957C40.5381 19 40 18.3943 40 17.6539C40 17.2006 40.2019 16.7976 40.5093 16.5535L43.4935 13.8635C43.549 13.8155 43.621 13.8928 43.581 13.9574L42.4863 16.1697C42.4557 16.2316 42.4954 16.3078 42.5585 16.3078H46.8045C47.4621 16.3078 48 16.9137 48 17.6539ZM48 11.3461C48 11.7994 47.7981 12.2024 47.4907 12.4465L44.5065 15.1365C44.451 15.1845 44.379 15.1072 44.419 15.0426L45.5137 12.8303C45.5443 12.7684 45.5046 12.6922 45.4415 12.6922H41.1957C40.5381 12.6922 40 12.0865 40 11.3461C40 10.6057 40.5381 10 41.1957 10H46.8045C47.4621 10 48 10.6057 48 11.3461V11.3461Z" fill="white"/>
</svg>
