<svg width="16" height="16" viewBox="4 4 16 16" fill="none" xmlns="http://www.w3.org/2000/svg">
<path fill-rule="evenodd" clip-rule="evenodd" d="M18.3901 4.53069C18.6498 4.27102 19.0709 4.27102 19.3306 4.53069C19.5902 4.79038 19.5902 5.21142 19.3306 5.47111L17.5679 7.23283C17.6292 7.30458 17.6918 7.37542 17.7505 7.44963C18.7756 8.74489 19.3334 10.3486 19.3335 12.0004V12.6674C19.3335 13.3746 19.0533 14.0531 18.5532 14.5531C18.0532 15.0532 17.3746 15.3343 16.6675 15.3344C15.9605 15.3343 15.2817 15.053 14.7817 14.5531C14.6754 14.4468 14.5815 14.3305 14.4956 14.2094C13.885 14.8987 12.9946 15.3342 12.0015 15.3344C11.2855 15.3344 10.6229 15.1055 10.0796 14.7211L8.17726 16.6235C9.21134 17.4787 10.5023 17.9634 11.8442 17.9985C13.1953 18.0336 14.5189 17.6111 15.6001 16.8002C15.8945 16.5794 16.3127 16.6398 16.5337 16.934C16.7546 17.2285 16.6954 17.6467 16.4009 17.8676C15.0793 18.8587 13.4614 19.3744 11.8101 19.3315C10.1588 19.2885 8.56949 18.6897 7.30128 17.6313C7.27736 17.6113 7.2546 17.59 7.23097 17.5697L6.27101 18.5307C6.0113 18.7902 5.59022 18.7903 5.33058 18.5307C5.07096 18.271 5.07105 17.85 5.33058 17.5903L18.3901 4.53069ZM11.0444 13.7563C11.3289 13.9114 11.6545 14.0004 12.0015 14.0004C13.0997 14.0001 13.9906 13.1149 14.0005 12.019V11.9789C13.9969 11.64 13.9085 11.3226 13.7564 11.0444L11.0444 13.7563ZM15.3335 9.46818V11.9789C15.3336 11.9861 15.3345 11.9932 15.3345 12.0004C15.3345 12.0118 15.3336 12.0233 15.3335 12.0346V12.6674C15.3335 13.0207 15.4745 13.3598 15.7241 13.6098C15.9741 13.8597 16.314 14.0003 16.6675 14.0004C17.021 14.0003 17.3599 13.8597 17.6099 13.6098C17.8598 13.3598 18.0005 13.021 18.0005 12.6674V12.0004C18.0004 10.649 17.5443 9.33651 16.7056 8.27678C16.6789 8.24305 16.65 8.21121 16.6226 8.17815L15.3335 9.46818Z" fill="#000"/>
<path d="M8.89308 5.35881C10.3893 4.65871 12.0783 4.48416 13.686 4.86369C14.1789 4.98007 14.6556 5.14672 15.1089 5.35881C15.2337 5.41723 15.3578 5.47909 15.479 5.54436C15.8028 5.71908 15.924 6.12369 15.7495 6.44768C15.575 6.7717 15.1703 6.89257 14.8462 6.71819C14.7473 6.6649 14.6464 6.61452 14.5444 6.56682C14.1735 6.39325 13.7828 6.25679 13.3794 6.16154C12.0641 5.85111 10.6826 5.99411 9.45851 6.56682C8.23428 7.13967 7.23875 8.10887 6.63429 9.31779C6.02998 10.5265 5.85135 11.9041 6.12745 13.227C6.20858 13.6155 6.32812 13.9931 6.48194 14.3539C6.53192 14.4711 6.58583 14.587 6.64308 14.7006C6.80855 15.0293 6.67583 15.4304 6.34718 15.5961C6.0186 15.7615 5.61846 15.6295 5.45265 15.3012C5.38265 15.1623 5.31649 15.0207 5.25538 14.8774C5.06732 14.4363 4.92193 13.9743 4.82276 13.4994C4.48525 11.8825 4.70321 10.1985 5.4419 8.72111C6.1807 7.24366 7.39689 6.05892 8.89308 5.35881Z" fill="#000"/>
<path d="M12.0015 8.6674C12.3694 8.66769 12.6675 8.96638 12.6675 9.3344C12.6674 9.70232 12.3694 10.0011 12.0015 10.0014C10.8969 10.0014 10.0015 10.8968 10.0015 12.0014C10.0012 12.3693 9.7024 12.6673 9.33448 12.6674C8.96646 12.6674 8.66777 12.3693 8.66749 12.0014C8.66749 10.1604 10.1605 8.6674 12.0015 8.6674Z" fill="#000"/>
<defs>
</defs>
</svg>