<svg width="12" height="12" viewBox="2 2 12 12" xmlns="http://www.w3.org/2000/svg">
<path d="M7.67876 14C6.95856 14 6.2773 13.8881 5.63496 13.6642C4.99263 13.4404 4.42328 13.0998 3.92693 12.6423C3.43058 12.1946 3.04129 11.635 2.75905 10.9635C2.47681 10.292 2.33569 9.51338 2.33569 8.62774C2.33569 7.6253 2.50114 6.72019 2.83204 5.91241C3.17268 5.09489 3.63496 4.39416 4.2189 3.81022C4.80285 3.22628 5.47438 2.77859 6.2335 2.46715C7.00236 2.15572 7.81501 2 8.67146 2C9.69336 2 10.5741 2.21411 11.3138 2.64234C12.0632 3.06083 12.6423 3.64964 13.051 4.40876C13.4598 5.15815 13.6642 6.0292 13.6642 7.0219C13.6642 7.6837 13.5717 8.26764 13.3868 8.77372C13.2019 9.27007 12.9586 9.68856 12.6569 10.0292C12.3552 10.3601 12.0194 10.6083 11.6496 10.7737C11.2797 10.9392 10.9099 11.0219 10.5401 11.0219C10.1216 11.0219 9.76148 10.9246 9.45978 10.7299C9.16781 10.5353 8.99263 10.2433 8.93423 9.85401H8.90504C8.70066 10.1849 8.43302 10.4428 8.10212 10.6277C7.77122 10.8127 7.44518 10.9051 7.12401 10.9051C6.579 10.9051 6.12645 10.7105 5.76635 10.3212C5.40625 9.93187 5.2262 9.39659 5.2262 8.71533C5.2262 8.2871 5.2992 7.86861 5.44518 7.45985C5.59117 7.04136 5.79555 6.6618 6.05832 6.32117C6.32109 5.9708 6.63253 5.69343 6.99263 5.48905C7.35272 5.28467 7.74689 5.18248 8.17511 5.18248C8.42815 5.18248 8.64713 5.24574 8.83204 5.37226C9.02669 5.48905 9.18727 5.67883 9.31379 5.94161H9.34299L9.53277 5.32847H10.5985L9.98533 8.42336C9.888 8.92944 9.89774 9.2944 10.0145 9.51825C10.1313 9.74209 10.3552 9.85401 10.6861 9.85401C10.9683 9.85401 11.2359 9.74209 11.489 9.51825C11.7518 9.28467 11.9659 8.9635 12.1313 8.55474C12.2968 8.13625 12.3795 7.64477 12.3795 7.08029C12.3795 6.55474 12.3016 6.06326 12.1459 5.60584C11.9999 5.13869 11.7663 4.72993 11.4452 4.37956C11.1337 4.0292 10.7347 3.75669 10.2481 3.56204C9.77122 3.35766 9.20187 3.25547 8.54007 3.25547C7.92693 3.25547 7.32839 3.382 6.74445 3.63504C6.17024 3.87835 5.64956 4.23358 5.18241 4.70073C4.72499 5.16788 4.36002 5.72749 4.08752 6.37956C3.81501 7.03163 3.67876 7.76156 3.67876 8.56934C3.67876 9.25061 3.78581 9.85401 3.99993 10.3796C4.21404 10.8954 4.50601 11.3285 4.87584 11.6788C5.2554 12.0389 5.69336 12.3066 6.18971 12.4818C6.69579 12.6569 7.23107 12.7445 7.79555 12.7445C8.20431 12.7445 8.59847 12.6959 8.97803 12.5985C9.36732 12.5012 9.72255 12.3747 10.0437 12.219L10.4963 13.2701C10.0486 13.5036 9.59603 13.6837 9.13861 13.8102C8.68119 13.9367 8.19457 14 7.67876 14ZM7.48898 9.70803C7.66416 9.70803 7.84421 9.6545 8.02912 9.54744C8.22377 9.43066 8.42815 9.24088 8.64226 8.9781L9.02182 6.84672C8.9245 6.68127 8.80771 6.56448 8.67146 6.49635C8.53521 6.41849 8.38435 6.37956 8.2189 6.37956C7.89774 6.37956 7.62036 6.50122 7.38679 6.74453C7.15321 6.9781 6.97316 7.26521 6.84664 7.60584C6.72012 7.94647 6.65686 8.28224 6.65686 8.61314C6.65686 8.9927 6.72985 9.27007 6.87584 9.44526C7.03156 9.62044 7.23594 9.70803 7.48898 9.70803Z"/>
</svg>
