<svg width="16" height="16" viewBox="0 0 16 16" xmlns="http://www.w3.org/2000/svg"><path d="M7.741 1.964 C 7.566 2.026,7.373 2.216,7.308 2.389 C 7.253 2.535,7.253 2.551,7.253 8.000 C 7.253 13.391,7.254 13.467,7.306 13.607 C 7.408 13.879,7.703 14.080,8.000 14.080 C 8.297 14.080,8.592 13.879,8.694 13.607 C 8.746 13.467,8.747 13.391,8.747 8.000 C 8.747 2.551,8.747 2.535,8.692 2.389 C 8.625 2.211,8.432 2.025,8.248 1.962 C 8.096 1.910,7.891 1.911,7.741 1.964 M11.741 5.964 C 11.566 6.026,11.373 6.216,11.308 6.389 C 11.254 6.534,11.253 6.569,11.253 10.001 C 11.253 13.387,11.255 13.469,11.306 13.605 C 11.411 13.882,11.701 14.080,12.000 14.080 C 12.299 14.080,12.589 13.882,12.694 13.605 C 12.745 13.469,12.747 13.387,12.747 10.001 C 12.747 6.569,12.746 6.534,12.692 6.389 C 12.625 6.211,12.432 6.025,12.248 5.962 C 12.096 5.910,11.891 5.911,11.741 5.964 M3.741 8.631 C 3.566 8.693,3.373 8.882,3.308 9.055 C 3.255 9.199,3.253 9.248,3.253 11.333 C 3.253 13.396,3.255 13.469,3.306 13.607 C 3.408 13.879,3.703 14.080,4.000 14.080 C 4.297 14.080,4.592 13.879,4.694 13.607 C 4.745 13.469,4.747 13.396,4.747 11.333 C 4.747 9.248,4.745 9.199,4.692 9.055 C 4.625 8.877,4.432 8.692,4.248 8.629 C 4.096 8.577,3.891 8.578,3.741 8.631 " ></path></svg>