<svg xmlns="http://www.w3.org/2000/svg" width="16" height="16" viewBox="0 0 16 16"><path d="M4.635 2.733c.435 0 .87.041 1.283.124q.528.124.993.435c.27.207.497.476.642.786.165.393.248.807.227 1.22.02.456-.103.911-.33 1.305-.25.372-.6.662-.994.848a2.36 2.36 0 0 1 1.345.952c.31.496.455 1.076.455 1.655 0 .476-.083.931-.29 1.345a3.1 3.1 0 0 1-.765.952 3.3 3.3 0 0 1-1.118.538 4.5 4.5 0 0 1-1.282.165H0V2.712h4.635zm-.29 4.18c.331.02.683-.083.952-.29.27-.227.414-.58.373-.952 0-.207-.042-.413-.125-.6a.9.9 0 0 0-.33-.351c-.145-.083-.311-.166-.477-.187-.186-.041-.372-.041-.558-.041H2.152v2.42zm.124 4.428c.207 0 .414-.02.6-.062.187-.041.352-.124.518-.228a1.14 1.14 0 0 0 .352-.414c.103-.206.144-.434.124-.662a1.37 1.37 0 0 0-.435-1.138 1.72 1.72 0 0 0-1.138-.33H2.152v2.855h2.317zm6.85-.041c.351.31.807.476 1.262.455.372 0 .724-.104 1.014-.31.248-.166.413-.394.517-.663h1.717a3.48 3.48 0 0 1-1.262 1.925c-.6.413-1.324.6-2.069.579a3.95 3.95 0 0 1-1.531-.29 3.2 3.2 0 0 1-1.138-.807 4.2 4.2 0 0 1-.725-1.241 4.2 4.2 0 0 1-.248-1.593c0-.538.083-1.056.27-1.573a3.54 3.54 0 0 1 3.393-2.4c.558-.021 1.096.124 1.593.372.434.248.828.58 1.117.993.29.435.518.91.621 1.428.124.538.166 1.117.145 1.676h-5.132a1.88 1.88 0 0 0 .456 1.449m2.234-3.953a1.43 1.43 0 0 0-1.096-.413c-.27 0-.538.041-.766.165a1.9 1.9 0 0 0-.497.414 1.6 1.6 0 0 0-.269.538c-.041.165-.082.331-.082.497h3.186a2.34 2.34 0 0 0-.476-1.2M10.429 3.416h3.973V4.43h-3.973Z"/></svg>