<svg xmlns="http://www.w3.org/2000/svg" width="77.325" height="77.325" viewBox="0 0 77.325 77.325"><path d="M22.4 13.209c2.1 0 4.2.2 6.2.6q2.55.6 4.8 2.1c1.3 1 2.4 2.3 3.1 3.8.8 1.9 1.2 3.9 1.1 5.9.1 2.2-.5 4.4-1.6 6.3-1.2 1.8-2.9 3.2-4.8 4.1 2.7.7 5 2.4 6.5 4.6 1.5 2.4 2.2 5.2 2.2 8 0 2.3-.4 4.5-1.4 6.5-.9 1.8-2.2 3.3-3.7 4.6-1.6 1.2-3.5 2.1-5.4 2.6-2 .6-4.1.8-6.2.8H0v-50h22.4Zm-1.4 20.2c1.6.1 3.3-.4 4.6-1.4 1.3-1.1 2-2.8 1.8-4.6 0-1-.2-2-.6-2.9-.4-.7-.9-1.3-1.6-1.7s-1.5-.8-2.3-.9c-.9-.2-1.8-.2-2.7-.2h-9.8v11.7zm.6 21.4c1 0 2-.1 2.9-.3s1.7-.6 2.5-1.1c.7-.5 1.3-1.2 1.7-2 .5-1 .7-2.1.6-3.2.2-2.1-.6-4.1-2.1-5.5-1.6-1.2-3.5-1.7-5.5-1.6H10.4v13.8h11.2zm33.1-.2c1.7 1.5 3.9 2.3 6.1 2.2 1.8 0 3.5-.5 4.9-1.5 1.2-.8 2-1.9 2.5-3.2h8.3c-.9 3.7-3.1 7-6.1 9.3-2.9 2-6.4 2.9-10 2.8-2.5 0-5-.4-7.4-1.4-2.1-.9-4-2.2-5.5-3.9-1.5-1.8-2.7-3.8-3.5-6-.9-2.5-1.3-5.1-1.2-7.7 0-2.6.4-5.1 1.3-7.6 2.4-7 9-11.7 16.4-11.6 2.7-.1 5.3.6 7.7 1.8 2.1 1.2 4 2.8 5.4 4.8 1.4 2.1 2.5 4.4 3 6.9.6 2.6.8 5.4.7 8.1H52.5c-.3 2.5.5 5 2.2 7m10.8-19.1c-1.4-1.4-3.3-2.1-5.3-2-1.3 0-2.6.2-3.7.8-.9.5-1.7 1.2-2.4 2-.6.8-1 1.6-1.3 2.6-.2.8-.4 1.6-.4 2.4h15.4c-.2-2.1-1-4.1-2.3-5.8"/><path d="M50.4 16.509h19.2v4.9H50.4z"/></svg>
