<svg width="48" height="48" viewBox="0 0 48 48" xmlns="http://www.w3.org/2000/svg">
<path d="M38.3789 23.417L35.9515 38.2453C35.7932 39.1424 35.16 39.6701 34.2629 39.6701H13.6827C12.7856 39.6701 12.1523 39.1424 11.994 38.2453L7.71967 11.8076C7.56136 10.9105 8.03629 10.3301 8.88061 10.3301H39.0649C39.9092 10.3301 40.3842 10.9105 40.2259 11.8076L39.0649 18.7732C38.9066 19.7759 38.3262 20.198 37.3763 20.198H19.2235C18.9596 20.198 18.8013 20.3563 18.8541 20.673L20.2789 29.4327C20.3317 29.6438 20.49 29.8021 20.701 29.8021H27.2445C27.4556 29.8021 27.6139 29.6438 27.6667 29.4327L28.6693 23.1004C28.7748 22.3088 29.3025 21.9922 30.0413 21.9922H37.1652C38.2206 21.9922 38.5372 22.5199 38.3789 23.417Z"/>
</svg>
