<svg xmlns="http://www.w3.org/2000/svg" width="16" height="16"><path d="M3.468 1.904C5.303 3.282 7.276 6.074 8 7.572c.725-1.498 2.697-4.29 4.532-5.668C13.855.911 16 .142 16 2.588c0 .489-.28 4.105-.444 4.692-.572 2.04-2.653 2.561-4.504 2.246 3.236.551 4.06 2.375 2.281 4.2-3.376 3.464-4.852-.87-5.23-1.98-.07-.204-.103-.299-.103-.218 0-.081-.033.014-.102.218-.379 1.11-1.855 5.444-5.231 1.98-1.778-1.825-.955-3.649 2.28-4.2-1.85.315-3.932-.205-4.503-2.246C.28 6.693 0 3.077 0 2.588 0 .142 2.145.911 3.468 1.904"/></svg>
