<svg xmlns="http://www.w3.org/2000/svg" width="580.003" height="510.681"><path d="M125.723 34.375c66.496 49.921 138.02 151.14 164.28 205.46 26.262-54.316 97.782-155.54 164.28-205.46 47.98-36.02 125.72-63.892 125.72 24.795 0 17.712-10.155 148.79-16.111 170.07-20.703 73.984-96.144 92.854-163.25 81.433 117.3 19.964 147.14 86.092 82.697 152.22-122.39 125.59-175.91-31.51-189.63-71.766-2.514-7.38-3.69-10.832-3.708-7.896-.017-2.936-1.193.516-3.707 7.896-13.714 40.255-67.233 197.36-189.63 71.766-64.444-66.128-34.605-132.26 82.697-152.22-67.108 11.421-142.55-7.45-163.25-81.433C10.153 207.958 0 76.88 0 59.17 0-29.517 77.742-1.646 125.72 34.375z"/></svg>