<svg width="16" height="16" viewBox="0 0 16 16" xmlns="http://www.w3.org/2000/svg">
    <path d="M7.5625 1.3125C7.56255 1.40754 7.55229 1.5023 7.53187 1.59512C7.96675 2.01512 8.26075 2.464 8.4375 2.996C8.57837 3.423 8.63525 3.87975 8.651 4.375H12.8125C13.3927 4.375 13.9491 4.60547 14.3593 5.0157C14.7695 5.42594 15 5.98234 15 6.5625V11.8125C15 12.3927 14.7695 12.9491 14.3593 13.3593C13.9491 13.7695 13.3927 14 12.8125 14H3.1875C2.60734 14 2.05094 13.7695 1.6407 13.3593C1.23047 12.9491 1 12.3927 1 11.8125V6.5625C1 5.98234 1.23047 5.42594 1.6407 5.0157C2.05094 4.60547 2.60734 4.375 3.1875 4.375H7.33762C7.32275 3.97862 7.279 3.67325 7.1915 3.409C7.09612 3.12112 6.93775 2.85425 6.6455 2.56462C6.4488 2.62679 6.24022 2.64171 6.03668 2.60818C5.83314 2.57465 5.64037 2.49362 5.474 2.37166C5.30763 2.2497 5.17235 2.09023 5.07914 1.90621C4.98593 1.72219 4.9374 1.51878 4.9375 1.3125C4.9375 0.964403 5.07578 0.630564 5.32192 0.384422C5.56806 0.138281 5.9019 0 6.25 0C6.5981 0 6.93194 0.138281 7.17808 0.384422C7.42422 0.630564 7.5625 0.964403 7.5625 1.3125ZM6.25 8.3125C6.25 7.9644 6.11172 7.63056 5.86558 7.38442C5.61944 7.13828 5.2856 7 4.9375 7C4.5894 7 4.25556 7.13828 4.00942 7.38442C3.76328 7.63056 3.625 7.9644 3.625 8.3125C3.625 8.6606 3.76328 8.99444 4.00942 9.24058C4.25556 9.48672 4.5894 9.625 4.9375 9.625C5.2856 9.625 5.61944 9.48672 5.86558 9.24058C6.11172 8.99444 6.25 8.6606 6.25 8.3125ZM11.0625 9.625C11.4106 9.625 11.7444 9.48672 11.9906 9.24058C12.2367 8.99444 12.375 8.6606 12.375 8.3125C12.375 7.9644 12.2367 7.63056 11.9906 7.38442C11.7444 7.13828 11.4106 7 11.0625 7C10.7144 7 10.3806 7.13828 10.1344 7.38442C9.88828 7.63056 9.75 7.9644 9.75 8.3125C9.75 8.6606 9.88828 8.99444 10.1344 9.24058C10.3806 9.48672 10.7144 9.625 11.0625 9.625ZM8 12.25C8.96687 12.25 9.75 11.662 9.75 10.9375H6.25C6.25 11.662 7.03312 12.25 8 12.25Z"/>
</svg>
