<svg xmlns="http://www.w3.org/2000/svg" width="16" height="16" viewBox="0 0 16 16">
  <path d="m 8.864,3.335 h 5.667 a 0.665,0.665 0 0 1 0,1.33 H 8.864 a 0.665,0.665 0 1 1 0,-1.33 z M 15.196,8 a 0.665,0.665 0 0 1 -0.665,0.665 h -4.333 a 0.665,0.665 0 1 1 0,-1.33 h 4.333 c 0.368,0 0.665,0.298 0.665,0.665 z m -6.997,4 c 0,-0.367 0.298,-0.665 0.665,-0.665 h 5.667 a 0.665,0.665 0 0 1 0,1.33 H 8.864 A 0.665,0.665 0 0 1 8.199,12 Z M 4.22,4.694 4.064,6.103 H 5.387 L 5.559,4.556 A 0.62531852,0.62531852 0 0 1 6.802,4.694 L 6.644,6.103 h 0.93 a 0.625,0.625 0 1 1 0,1.25 H 6.505 L 6.354,8.718 h 1.075 a 0.625,0.625 0 0 1 0,1.25 H 6.216 L 6.052,11.444 A 0.62531852,0.62531852 0 1 1 4.809,11.306 L 4.958,9.968 H 3.634 L 3.47,11.444 A 0.625,0.625 0 1 1 2.228,11.306 L 2.377,9.968 H 1.429 a 0.625,0.625 0 1 1 0,-1.25 H 2.515 L 2.667,7.353 H 1.574 a 0.625,0.625 0 1 1 0,-1.25 H 2.806 L 2.978,4.556 A 0.625,0.625 0 0 1 4.22,4.694 Z M 5.248,7.353 H 3.925 L 3.773,8.718 h 1.324 z"/>
</svg>
