<svg xmlns="http://www.w3.org/2000/svg" width="16" height="16" viewBox="0 0 16 16">
  <path d="M5.333.668c.368 0 .665.298.665.665v.669h4.004v-.669a.665.665 0 1 1 1.33 0v.669h1.335A1.998 1.998 0 0 1 14.665 4v1a.665.665 0 1 1-1.33 0V4a.668.668 0 0 0-.668-.668h-1.335V4a.665.665 0 0 1-1.33 0v-.668H5.998V4a.665.665 0 1 1-1.33 0v-.668H3.333A.668.668 0 0 0 2.665 4v2.002h2.668a.665.665 0 1 1 0 1.33H2.665v6.001a.668.668 0 0 0 .668.669h2.334a.665.665 0 1 1 0 1.33H3.333a1.999 1.999 0 0 1-1.998-1.999V4a1.998 1.998 0 0 1 1.998-1.998h1.335v-.669c0-.367.298-.665.665-.665Zm5.334 6.664a3.335 3.335 0 1 0 0 6.67 3.335 3.335 0 0 0 0-6.67Zm-4.665 3.335a4.665 4.665 0 1 1 9.33 0 4.665 4.665 0 0 1-9.33 0Zm4.665-1.999c.367 0 .665.298.665.665v1.214l.75.6a.665.665 0 1 1-.83 1.039l-1-.8a.665.665 0 0 1-.25-.52V9.334c0-.367.297-.665.665-.665Z"/>
</svg>