<svg xmlns="http://www.w3.org/2000/svg" width="16" height="16" viewBox="0 0 16 16">
  <path d="M11.332 1.33297V2.00195H12.6676C13.7713 2.00195 14.6659 2.89664 14.6659 4.00029V13.3336C14.6659 14.4373 13.7713 15.332 12.6676 15.332H3.33427C2.23062 15.332 1.33594 14.4373 1.33594 13.3336V4.00029C1.33594 2.89664 2.23062 2.00195 3.33427 2.00195H4.66797V1.33297C4.66797 0.965699 4.9657 0.667969 5.33297 0.667969C5.70024 0.667969 5.99797 0.965699 5.99797 1.33297V2.00195H10.002V1.33297C10.002 0.965699 10.2997 0.667969 10.667 0.667969C11.0342 0.667969 11.332 0.965699 11.332 1.33297ZM13.3359 6.00195V4.00029C13.3359 3.63118 13.0367 3.33195 12.6676 3.33195H11.332V3.99964C11.332 4.3669 11.0342 4.66464 10.667 4.66464C10.2997 4.66464 10.002 4.3669 10.002 3.99964V3.33195H5.99797V3.99964C5.99797 4.3669 5.70024 4.66464 5.33297 4.66464C4.9657 4.66464 4.66797 4.3669 4.66797 3.99964V3.33195H3.33427C2.96516 3.33195 2.66594 3.63118 2.66594 4.00029V6.00195H13.3359ZM2.66594 7.33195V13.3336C2.66594 13.7027 2.96516 14.002 3.33427 14.002H12.6676C13.0367 14.002 13.3359 13.7027 13.3359 13.3336V7.33195H2.66594Z"/>
</svg>