<?xml version="1.0" encoding="UTF-8" standalone="no"?>
<svg
   width="24"
   height="24"
   viewBox="0 0 24 24"
   fill="none"
   stroke="currentColor"
   stroke-width="2"
   stroke-linecap="round"
   stroke-linejoin="round"
   class="lucide lucide-calendar-plus-icon lucide-calendar-plus"
   version="1.1"
   id="svg6"
   sodipodi:docname="calendar-plus.svg"
   inkscape:version="1.4.3 (0d15f75, 2025-12-25)"
   xmlns:inkscape="http://www.inkscape.org/namespaces/inkscape"
   xmlns:sodipodi="http://sodipodi.sourceforge.net/DTD/sodipodi-0.dtd"
   xmlns="http://www.w3.org/2000/svg"
   xmlns:svg="http://www.w3.org/2000/svg">
  <defs
     id="defs6" />
  <sodipodi:namedview
     id="namedview6"
     pagecolor="#ffffff"
     bordercolor="#000000"
     borderopacity="0.25"
     inkscape:showpageshadow="2"
     inkscape:pageopacity="0.0"
     inkscape:pagecheckerboard="0"
     inkscape:deskcolor="#d1d1d1"
     inkscape:zoom="6.638751"
     inkscape:cx="9.4144215"
     inkscape:cy="12.803613"
     inkscape:window-width="1249"
     inkscape:window-height="621"
     inkscape:window-x="0"
     inkscape:window-y="33"
     inkscape:window-maximized="0"
     inkscape:current-layer="svg6" />
  <path
     id="path7"
     style="baseline-shift:baseline;display:inline;overflow:visible;opacity:1;fill:#000000;stroke:none;stroke-width:0;stroke-linecap:butt;stroke-linejoin:miter;enable-background:accumulate;stop-color:#000000;stop-opacity:1"
     d="M 8,1 A 1,1 0 0 0 7,2 V 6 A 1,1 0 0 0 8,7 1,1 0 0 0 9,6 V 2 A 1,1 0 0 0 8,1 Z M 3,9 a 1,1 0 0 0 -1,1 1,1 0 0 0 1,1 H 21 A 1,1 0 0 0 22,10 1,1 0 0 0 21,9 Z M 5,3 C 3.3549904,3 2,4.3549904 2,6 v 4 A 1,1 0 0 1 3,9 H 4 V 6 C 4,5.4358706 4.4358706,5 5,5 H 7 V 3 Z m -3,7 v 10 c 0,1.64501 1.3549904,3 3,3 h 8.5 a 1,1 0 0 0 1,-1 1,1 0 0 0 -1,-1 H 5 C 4.4358706,21 4,20.564129 4,20 V 11 H 3 A 1,1 0 0 1 2,10 Z M 9,3 v 2 h 10 c 0.564129,0 1,0.4358706 1,1 v 3 h 1 a 1,1 0 0 1 1,1 V 6 C 22,4.3549904 20.64501,3 19,3 Z m 13,7 a 1,1 0 0 1 -1,1 h -1 v 1.597656 a 1,1 0 0 0 1,1 1,1 0 0 0 1,-1 z m -3,5 a 1,1 0 0 0 -1,1 v 6 a 1,1 0 0 0 1,1 1,1 0 0 0 1,-1 V 16 A 1,1 0 0 0 19,15 Z M 16,1 a 1,1 0 0 0 -1,1 v 1 h 2 V 2 A 1,1 0 0 0 16,1 Z m -1,4 v 1 a 1,1 0 0 0 1,1 1,1 0 0 0 1,-1 V 5 Z m 1,13 a 1,1 0 0 0 -1,1 1,1 0 0 0 1,1 h 2 v -2 z m 4,0 v 2 h 2 a 1,1 0 0 0 1,-1 1,1 0 0 0 -1,-1 z" />
</svg>
