<svg xmlns="http://www.w3.org/2000/svg" width="16" height="16" viewBox="0 0 16 16">
  <g>
    <path d="M4.668 8.665c0-.367.298-.665.665-.665h.007a.665.665 0 1 1 0 1.33h-.007a.665.665 0 0 1-.665-.665ZM8 8h.007a.665.665 0 1 1 0 1.33H8A.665.665 0 1 1 8 8Zm2.002.665c0-.367.297-.665.665-.665h.006a.665.665 0 0 1 0 1.33h-.006a.665.665 0 0 1-.665-.665Zm-4.669 2.002h.007a.665.665 0 1 1 0 1.33h-.007a.665.665 0 1 1 0-1.33Zm2.002.665c0-.367.298-.665.665-.665h.007a.665.665 0 1 1 0 1.33H8a.665.665 0 0 1-.665-.665Zm3.332-.665h.006a.665.665 0 0 1 0 1.33h-.006a.665.665 0 1 1 0-1.33Z"/>
    <path d="M11.332.665v.669h1.335c1.103 0 1.998.895 1.998 1.998v9.334a1.998 1.998 0 0 1-1.998 1.998H3.333a1.998 1.998 0 0 1-1.998-1.998V3.332c0-1.103.895-1.998 1.998-1.998h1.335V.665a.665.665 0 0 1 1.33 0v.669h4.004V.665a.665.665 0 1 1 1.33 0Zm2.003 4.669V3.332c0-.369-.3-.668-.668-.668h-1.335v.668a.665.665 0 1 1-1.33 0v-.668H5.998v.668a.665.665 0 1 1-1.33 0v-.668H3.333c-.369 0-.668.3-.668.668v2.002h10.67Zm-10.67 1.33v6.002c0 .369.3.668.668.668h9.334c.369 0 .668-.3.668-.668V6.664H2.665Z"/>
  </g>
</svg>