<svg width="16" height="16" viewBox="0 0 16 16" xmlns="http://www.w3.org/2000/svg"><path d="M7.380 0.693 C 5.906 0.836,4.631 1.339,3.467 2.235 C 3.128 2.497,2.420 3.219,2.153 3.575 C 1.381 4.609,0.919 5.728,0.729 7.027 C 0.663 7.475,0.663 8.525,0.729 8.973 C 0.920 10.273,1.382 11.394,2.154 12.424 C 2.457 12.829,3.171 13.543,3.576 13.846 C 4.606 14.618,5.727 15.080,7.027 15.271 C 7.475 15.337,8.525 15.337,8.973 15.271 C 10.273 15.080,11.394 14.618,12.424 13.846 C 12.829 13.543,13.543 12.829,13.846 12.424 C 14.617 11.395,15.079 10.275,15.271 8.973 C 15.337 8.526,15.337 7.476,15.271 7.027 C 15.080 5.727,14.617 4.604,13.846 3.576 C 13.596 3.242,12.907 2.530,12.599 2.288 C 11.535 1.450,10.365 0.942,9.053 0.747 C 8.631 0.684,7.759 0.656,7.380 0.693 M8.880 2.067 C 9.513 2.163,10.044 2.329,10.629 2.615 C 12.418 3.489,13.632 5.151,13.937 7.147 C 14.002 7.569,14.002 8.431,13.937 8.853 C 13.632 10.850,12.420 12.510,10.627 13.389 C 8.545 14.409,6.064 14.132,4.246 12.675 C 3.235 11.865,2.481 10.687,2.178 9.440 C 2.054 8.931,2.016 8.592,2.016 8.000 C 2.016 7.004,2.187 6.253,2.613 5.373 C 3.196 4.171,4.165 3.202,5.373 2.612 C 6.060 2.276,6.684 2.107,7.560 2.016 C 7.775 1.994,8.608 2.026,8.880 2.067 M7.776 3.375 C 7.624 3.431,7.505 3.531,7.421 3.674 L 7.347 3.800 7.339 5.945 C 7.333 7.882,7.336 8.102,7.376 8.222 C 7.461 8.476,7.512 8.508,9.056 9.277 C 10.608 10.049,10.610 10.050,10.881 9.960 C 11.375 9.795,11.488 9.104,11.068 8.806 C 11.013 8.766,10.449 8.475,9.817 8.160 L 8.667 7.587 8.667 5.745 C 8.667 3.667,8.673 3.738,8.467 3.533 C 8.286 3.351,8.012 3.289,7.776 3.375 " ></path></svg>