<svg xmlns="http://www.w3.org/2000/svg" width="16" height="16" viewBox="0 0 16 16"><path d="M42519.285-7078.79a.76.568 0 0 0-.738.675l33.586 125.888a87.2 87.2 0 0 0 39.381-33.763l-71.565-92.52a.76.568 0 0 0-.664-.28" transform="translate(-3893.49 653.646)scale(.09177)"/><path d="M11249.461-1883.696c-12.74 0-23.067 10.327-23.067 23.067 0 4.334 1.22 8.58 3.522 12.251l19.232-24.863c.138-.18.486-.18.624 0l19.233 24.864a23.07 23.07 0 0 0 3.523-12.252c0-12.74-10.327-23.067-23.067-23.067" transform="translate(-3893.49 653.646)scale(.34682)"/></svg>
