<svg width="16" height="16" viewBox="0 0 16 16" xmlns="http://www.w3.org/2000/svg">
    <path d="M2.19396 2.19372C2.3193 2.06838 2.48929 1.99797 2.66655 1.99797H8.66655C8.8438 1.99797 9.01379 2.06838 9.13913 2.19372C9.26447 2.31906 9.33488 2.48905 9.33488 2.6663V3.33297C9.33488 3.70024 9.63261 3.99797 9.99988 3.99797C10.3671 3.99797 10.6649 3.70024 10.6649 3.33297V2.6663C10.6649 2.13631 10.4543 1.62803 10.0796 1.25327C9.70482 0.878507 9.19654 0.667969 8.66655 0.667969H2.66655C2.13656 0.667969 1.62827 0.878507 1.25351 1.25327C0.878751 1.62803 0.668213 2.13631 0.668213 2.6663V8.6663C0.668213 9.19629 0.878751 9.70458 1.25351 10.0793C1.62827 10.4541 2.13656 10.6646 2.66655 10.6646H3.33321C3.70048 10.6646 3.99821 10.3669 3.99821 9.99964C3.99821 9.63237 3.70048 9.33464 3.33321 9.33464H2.66655C2.48929 9.33464 2.3193 9.26422 2.19396 9.13889C2.06863 9.01355 1.99821 8.84356 1.99821 8.6663V2.6663C1.99821 2.48905 2.06863 2.31906 2.19396 2.19372Z"/>
    <path clip-rule="evenodd" d="M7.33329 5.33594C6.22965 5.33594 5.33496 6.23062 5.33496 7.33427V13.3343C5.33496 14.4379 6.22965 15.3326 7.33329 15.3326H13.3333C14.4369 15.3326 15.3316 14.4379 15.3316 13.3343V7.33427C15.3316 6.23062 14.4369 5.33594 13.3333 5.33594H7.33329ZM6.66496 7.33427C6.66496 6.96516 6.96418 6.66594 7.33329 6.66594H13.3333C13.7024 6.66594 14.0016 6.96516 14.0016 7.33427V13.3343C14.0016 13.7034 13.7024 14.0026 13.3333 14.0026H7.33329C6.96418 14.0026 6.66496 13.7034 6.66496 13.3343V7.33427Z"/>
</svg>
