<svg width="16" height="16" viewBox="0 0 16 16" xmlns="http://www.w3.org/2000/svg"><path d="M2.318 2.734 C 1.806 2.859,1.370 3.211,1.131 3.693 C 0.923 4.114,0.934 3.862,0.934 8.000 C 0.934 12.148,0.922 11.884,1.137 12.319 C 1.399 12.850,1.915 13.218,2.523 13.306 C 2.774 13.342,13.226 13.342,13.477 13.306 C 13.896 13.245,14.224 13.080,14.535 12.772 C 14.699 12.610,14.763 12.522,14.863 12.319 C 15.078 11.884,15.066 12.148,15.066 8.000 C 15.066 3.852,15.078 4.116,14.863 3.681 C 14.657 3.264,14.296 2.946,13.836 2.778 L 13.640 2.707 8.053 2.702 C 3.419 2.698,2.441 2.704,2.318 2.734 M13.453 4.058 C 13.559 4.116,13.670 4.235,13.705 4.328 C 13.723 4.376,13.733 4.730,13.733 5.295 L 13.733 6.187 8.000 6.187 L 2.267 6.187 2.267 5.292 C 2.267 4.602,2.275 4.379,2.303 4.312 C 2.347 4.206,2.509 4.060,2.607 4.038 C 2.647 4.029,2.692 4.018,2.707 4.013 C 2.721 4.008,5.127 4.006,8.053 4.009 C 12.956 4.013,13.380 4.017,13.453 4.058 M13.733 9.545 C 13.733 10.930,13.724 11.621,13.705 11.672 C 13.665 11.778,13.551 11.892,13.427 11.949 C 13.324 11.997,13.122 11.999,8.000 11.999 C 2.878 11.999,2.676 11.997,2.573 11.949 C 2.449 11.892,2.335 11.778,2.295 11.672 C 2.276 11.621,2.267 10.930,2.267 9.545 L 2.267 7.493 8.000 7.493 L 13.733 7.493 13.733 9.545 " ></path></svg>