<svg xmlns="http://www.w3.org/2000/svg" viewBox="0 0 126.644 96"><path d="M81.15 0a74 74 0 0 0-3.36 6.794 97.9 97.9 0 0 0-28.994 0A68 68 0 0 0 45.437 0a105.6 105.6 0 0 0-26.14 8.057C2.779 32.53-1.691 56.373.53 79.887a105 105 0 0 0 32.05 16.088 77 77 0 0 0 6.87-11.063c-3.738-1.389-7.35-3.131-10.81-5.152.91-.657 1.794-1.338 2.653-1.995a75.26 75.26 0 0 0 64.075 0c.86.707 1.743 1.389 2.652 1.995a69 69 0 0 1-10.835 5.178A77 77 0 0 0 94.056 96a105 105 0 0 0 32.051-16.063c2.626-27.277-4.496-50.917-18.817-71.855A104 104 0 0 0 81.175.05zM42.28 65.414c-6.238 0-11.416-5.657-11.416-12.653s4.976-12.679 11.391-12.679 11.517 5.708 11.416 12.679c-.101 6.97-5.026 12.653-11.39 12.653m42.078 0c-6.264 0-11.391-5.657-11.391-12.653s4.975-12.679 11.39-12.679S95.85 45.79 95.749 52.761c-.1 6.97-5.026 12.653-11.39 12.653"/></svg>