<svg xmlns="http://www.w3.org/2000/svg" width="16" height="16" viewBox="0 0 16 16"><path d="M10.252 1.936a9 9 0 0 0-.424.858 12.4 12.4 0 0 0-3.663 0 9 9 0 0 0-.425-.858 13.3 13.3 0 0 0-3.302 1.018C.351 6.046-.214 9.058.067 12.029a13.3 13.3 0 0 0 4.05 2.032 10 10 0 0 0 .867-1.398 9 9 0 0 1-1.366-.65q.173-.127.336-.253a9.5 9.5 0 0 0 8.095 0q.162.136.335.252a8.7 8.7 0 0 1-1.37.655 10 10 0 0 0 .869 1.397 13.3 13.3 0 0 0 4.05-2.03c.33-3.445-.569-6.432-2.378-9.077a13.1 13.1 0 0 0-3.3-1.015ZM5.342 10.2c-.788 0-1.443-.715-1.443-1.599C3.9 7.718 4.528 7 5.34 7S6.793 7.72 6.78 8.6 6.146 10.2 5.34 10.2m5.317 0c-.792 0-1.44-.715-1.44-1.599 0-.883.63-1.601 1.44-1.601s1.452.72 1.439 1.601-.635 1.599-1.44 1.599"/></svg>
