<svg xmlns="http://www.w3.org/2000/svg" width="16" height="16" viewBox="0 0 16 16"><path d="M24 31.999A8 8 0 1 1 32 40h-.649v-.029C27.238 39.641 24 36.196 24 32m8.199 6.7a6.702 6.702 0 1 0-6.901-6.7 6.704 6.704 0 0 0 6.702 6.7z" transform="translate(-24 -24)"/><path d="m28.761 26.138-.277-.09.417-1.229.188.06c.145.047.326.105.435.144l.006.002.005.003.095.035c.168.064.375.142.548.223l.008.004.034.017.306.145.14.067.016.007.015.008.013.007c.035.019.1.054.163.092l.017.01.005.004.06.033.005.003.018.01.019.011.034.02.186.107c.07.04.176.103.255.159.084.051.177.116.239.158l.03.021c.047.03.094.062.126.085l.202.15.07.052.065.048.016.011.017.013a10 10 0 0 1 1.898 1.9v.001l.001.001a9.6 9.6 0 0 1 1.407 2.613c.981 2.743.693 5.91-.85 8.412l-1.105-.682c1.33-2.155 1.586-4.91.732-7.294v-.002l-.001-.002a8.3 8.3 0 0 0-1.217-2.26 8.8 8.8 0 0 0-1.638-1.645l-.104-.075-.078-.059-.052-.04-.119-.087-.042-.03-.019-.01-.022-.015-.09-.062a3 3 0 0 0-.155-.103l-.032-.019-.03-.022q.003.002 0 0l-.044-.028-.116-.07-.161-.092-.054-.031-.001-.001-.01-.006-.006-.003-.091-.051-.051-.031-.088-.05h-.002l-.144-.069-.289-.136-.008-.004-.035-.018a7 7 0 0 0-.434-.175l-.11-.041q-.15-.054-.316-.104m1.586.689zm0 0z" transform="translate(-24 -24)"/><path d="M31.494 29.226a8.33 8.33 0 0 0 5.002-3.016l1.018.805a9.63 9.63 0 0 1-5.79 3.488 9.6 9.6 0 0 1-3.434.003 9.5 9.5 0 0 1-3.216-1.204l.668-1.112a8.2 8.2 0 0 0 2.778 1.038h.003c.977.18 1.984.175 2.97-.003m-3.467 9.353c1.108-5.654 6.87-8.777 11.583-7.492l-.342 1.252c-4-1.09-9.007 1.59-9.967 6.49z" transform="translate(-24 -24)"/></svg>
