<svg xmlns="http://www.w3.org/2000/svg" width="64" height="64" viewBox="0 0 64 64"><path d="M0 31.994C0 14.334 14.323 0 32 0c17.679 0 32 14.346 32 32.006S49.677 64 32 64h-2.596v-.115C12.952 62.562 0 48.782 0 31.995m32.796 26.804c14.44-.421 26.013-12.262 26.013-26.792C58.809 17.209 46.808 5.19 32 5.19S5.191 17.198 5.191 31.994 17.202 58.798 32 58.798z"/><path d="M19.044 8.55a52 52 0 0 1-1.109-.358l1.668-4.915c.153.052.43.14.751.242.58.185 1.307.417 1.74.573l.024.009.023.009.379.143c.671.254 1.5.568 2.192.891l.03.015.138.068c.325.152.814.385 1.222.58l.565.268.062.03.06.032.05.026c.14.075.401.215.652.369l.07.042.019.013a7 7 0 0 0 .237.133l.024.013.07.04h.002l.074.043.137.078c.18.103.472.27.743.428.28.163.705.415 1.02.636.338.207.709.464.956.635l.12.084c.19.115.376.246.506.34a32 32 0 0 1 .806.598l.278.209.262.192.067.045.066.05a40.1 40.1 0 0 1 7.593 7.603l.002.003.002.003a38.4 38.4 0 0 1 5.626 10.453c3.927 10.969 2.772 23.641-3.4 33.645l-4.418-2.726c5.319-8.62 6.343-19.644 2.928-29.176l-.003-.008-.002-.008a33.2 33.2 0 0 0-4.867-9.043 35 35 0 0 0-6.555-6.578 15 15 0 0 1-.412-.3l-.312-.234-.21-.16c-.179-.133-.34-.254-.475-.35-.12-.085-.17-.117-.169-.117l-.076-.044-.09-.06q-.198-.135-.36-.247c-.237-.165-.427-.296-.62-.411l-.127-.075-.117-.089q.011.009-.003-.002c-.02-.012-.073-.048-.173-.11a23 23 0 0 0-.466-.28c-.245-.143-.468-.27-.645-.37l-.214-.123-.005-.003-.043-.024-.02-.011-.365-.205a5 5 0 0 1-.204-.125 9 9 0 0 0-.354-.197l-.006-.003-.576-.274a153 153 0 0 0-1.156-.547l-.033-.016-.14-.07c-.49-.227-1.076-.45-1.734-.699l-.438-.166c-.405-.146-.826-.278-1.267-.417m6.342 2.757.004.002zm0 0 .004.002z"/><path d="M29.975 20.903C37.81 19.49 45.04 15.094 49.984 8.84l4.072 3.218c-5.714 7.228-14.055 12.31-23.159 13.953-4.533.817-9.19.845-13.737.012A38 38 0 0 1 4.295 21.21l2.673-4.45a32.8 32.8 0 0 0 11.11 4.153h.006l.007.002c3.909.718 7.938.698 11.884-.013M16.106 58.311c4.432-22.615 27.48-35.105 46.329-29.967l-1.366 5.007c-16-4.36-36.028 6.363-39.868 25.958z"/></svg>
