<svg width="16" height="16" viewBox="0 0 24 24" xmlns="http://www.w3.org/2000/svg">
<path d="m 15,14 a 1,1 0 0 0 -0.707031,0.292969 1,1 0 0 0 0,1.414062 l 6,6 a 1,1 0 0 0 1.414062,0 1,1 0 0 0 0,-1.414062 l -6,-6 A 1,1 0 0 0 15,14 Z" />
<path d="m 20.292969,2.2929688 -6,6 a 1,1 0 0 0 0,1.4140625 1,1 0 0 0 1.414062,0 l 6,-6 a 1,1 0 0 0 0,-1.4140625 1,1 0 0 0 -1.414062,0 z" />
<path d="m 21,15.199219 a 1,1 0 0 0 -1,1 V 20 h -3.800781 a 1,1 0 0 0 -1,1 1,1 0 0 0 1,1 H 21 a 1.0001,1.0001 0 0 0 1,-1 v -4.800781 a 1,1 0 0 0 -1,-1 z" />
<path d="m 16.199219,2 a 1,1 0 0 0 -1,1 1,1 0 0 0 1,1 H 20 v 3.8007812 a 1,1 0 0 0 1,1.0000001 1,1 0 0 0 1,-1.0000001 V 3 A 1.0001,1.0001 0 0 0 21,2 Z" />
<path d="m 3,15.199219 a 1,1 0 0 0 -1,1 V 21 a 1.0001,1.0001 0 0 0 1,1 H 7.8007812 A 1,1 0 0 0 8.8007813,21 1,1 0 0 0 7.8007812,20 H 4 v -3.800781 a 1,1 0 0 0 -1,-1 z" />
<path d="m 9,14 a 1,1 0 0 0 -0.7070312,0.292969 l -6,6 a 1,1 0 0 0 0,1.414062 1,1 0 0 0 1.4140625,0 l 6,-6 a 1,1 0 0 0 0,-1.414062 A 1,1 0 0 0 9,14 Z" />
<path d="M 3,2 A 1.0001,1.0001 0 0 0 2,3 V 7.8007812 A 1,1 0 0 0 3,8.8007813 1,1 0 0 0 4,7.8007812 V 4 H 7.8007812 A 1,1 0 0 0 8.8007813,3 1,1 0 0 0 7.8007812,2 Z" />
<path d="m 3,2 a 1,1 0 0 0 -0.7070312,0.2929688 1,1 0 0 0 0,1.4140625 l 6,6 a 1,1 0 0 0 1.4140625,0 1,1 0 0 0 0,-1.4140625 l -6,-6 A 1,1 0 0 0 3,2 Z" />
</svg>
