<svg xmlns="http://www.w3.org/2000/svg" width="666.665" height="664.224" viewBox="0 0 666.665 664.224"><path d="M666.665 333.333C666.665 149.237 517.427 0 333.333 0 149.237 0 0 149.238 0 333.333c0 156.326 107.62 287.495 252.807 323.516V435.194h-68.735V333.332h68.735v-43.891c0-113.456 51.344-166.043 162.73-166.043 21.118 0 57.556 4.14 72.463 8.282v92.338c-7.868-.828-21.532-1.243-38.51-1.243-54.656 0-75.775 20.704-75.775 74.534v36.023h108.878L463.89 435.194h-90.175v229.03c165.048-19.935 292.95-160.468 292.95-330.892"/></svg>
