<svg width="24" height="24" viewBox="0 0 24 24" xmlns="http://www.w3.org/2000/svg">
  <path
     d="M 8,1 C 6.485551,1 5.0123405,1.4917212 3.8007813,2.4003906 3.2978711,2.7775732 3,3.3713624 3,4 v 18 a 1,1 0 0 0 1,1 1,1 0 0 0 1,-1 V 16.070312 C 5.8675934,15.409892 6.9022918,15.000028 8,15 c 1.2777778,0 2.378906,0.427734 3.628906,0.927734 C 12.878906,16.427734 14.277778,17 16,17 17.514449,17 18.98766,16.508279 20.199219,15.599609 20.702129,15.222427 21,14.628638 21,14 V 4 C 21,2.4148608 19.068893,1.4493071 17.800781,2.4003906 17.329379,2.7538319 16.532031,3 15.332031,3 14.451286,3 13.493028,2.5868738 12.310547,2.0800781 11.128066,1.5732824 9.7222222,1 8,1 Z M 8,3 C 9.2777778,3 10.372668,3.4267176 11.523438,3.9199219 12.674205,4.4131262 13.879776,5 15.332031,5 16.798698,5 18.048736,4.7132254 19,4 v 10 c -0.865595,0.649196 -1.918006,1 -3,1 -1.277778,0 -2.378906,-0.427734 -3.628906,-0.927734 C 11.121094,13.572266 9.7222222,13 8,13 6.9398125,13.000027 5.9404047,13.31454 5,13.767578 V 4 C 5.8655948,3.3508039 6.9180065,3 8,3 Z" />
</svg>
