<svg
   width="24"
   height="24"
   viewBox="0 0 24 24"
   xmlns="http://www.w3.org/2000/svg">
  <path
     d="M 4,2 C 2.354992,2 1,3.354992 1,5 v 13 c 0,1.645008 1.354992,3 3,3 h 16 c 1.645008,0 3,-1.354992 3,-3 V 8 C 23,6.354992 21.645008,5 20,5 h -7.900391 a 1.0001,1.0001 0 0 0 -0.0098,0 c -0.341098,0.00334 -0.656154,-0.1643212 -0.84375,-0.4492188 a 1.0001,1.0001 0 0 0 -0.0078,-0.00977 L 10.435547,3.3496094 C 9.8813254,2.5080344 8.937363,2.0001659 7.9296875,2 Z m 0,2 h 3.9296875 c 0.3374958,5.56e-5 0.6503148,0.1673542 0.8359375,0.4492187 a 1.0001,1.0001 0 0 0 0.00586,0.00977 l 0.8027344,1.1914062 c 7.94e-4,0.00121 0.00311,7.486e-4 0.00391,0.00195 C 10.138461,6.5006393 11.092583,7.0099688 12.109375,7 H 20 c 0.564129,0 1,0.4358712 1,1 v 10 c 0,0.564129 -0.435871,1 -1,1 H 4 C 3.4358712,19 3,18.564129 3,18 V 5 C 3,4.4358712 3.4358712,4 4,4 Z" />
</svg>
