<svg width="24" height="24" viewBox="0 0 24 24" xmlns="http://www.w3.org/2000/svg">
  <path d="m 18,14 c -2.197294,0 -4,1.802706 -4,4 0,2.197294 1.802706,4 4,4 2.197294,0 4,-1.802706 4,-4 0,-2.197294 -1.802706,-4 -4,-4 z m 0,2 c 1.116414,0 2,0.883586 2,2 0,1.116414 -0.883586,2 -2,2 -1.116414,0 -2,-0.883586 -2,-2 0,-1.116414 0.883586,-2 2,-2 z m 3.960937,2.558594 c -0.09713,0.684939 -0.370525,1.316189 -0.771484,1.845703 l 0.123047,0.05078 a 1,1 0 0 0 1.306641,-0.541016 1,1 0 0 0 -0.541016,-1.30664 z M 19.875,18.703125 a 1,1 0 0 0 -0.02734,0.0625 1,1 0 0 0 -0.02734,0.07031 c 0.01975,-0.04359 0.03802,-0.08755 0.05469,-0.132812 z M 21.695312,15.46875 A 1,1 0 0 0 21.3125,15.54492 l -0.123047,0.05078 c 0.400959,0.529514 0.674358,1.160764 0.771484,1.845703 l 0.117188,-0.04883 a 1,1 0 0 0 0.541016,-1.306641 1,1 0 0 0 -0.923829,-0.617187 z m -1.875,1.695312 a 1,1 0 0 0 0.02734,0.07031 1,1 0 0 0 0.02734,0.0625 c -0.01666,-0.04527 -0.03494,-0.08922 -0.05469,-0.132813 z m -0.986328,2.658204 a 1,1 0 0 0 -0.06836,0.02539 1,1 0 0 0 -0.06055,0.02734 c 0.04342,-0.01608 0.08703,-0.03381 0.128906,-0.05273 z m 1.570313,1.367187 c -0.529766,0.401082 -1.162324,0.67459 -1.847656,0.771484 l 0.04883,0.117188 a 1,1 0 0 0 1.30664,0.542969 1,1 0 0 0 0.542969,-1.306641 z M 19.53125,13.304688 a 1,1 0 0 0 -0.382813,0.07617 1,1 0 0 0 -0.541015,0.541016 l -0.04883,0.117188 c 0.684977,0.09713 1.316225,0.370461 1.845703,0.771484 L 20.455078,14.6875 A 1,1 0 0 0 19.914062,13.380859 1,1 0 0 0 19.53125,13.304688 Z M 18.705078,16.125 a 1,1 0 0 0 0.06055,0.02734 1,1 0 0 0 0.06836,0.02539 c -0.04188,-0.01892 -0.08549,-0.03666 -0.128906,-0.05273 z m -1.541016,3.695312 c 0.04359,0.01975 0.08755,0.03802 0.132813,0.05469 a 1,1 0 0 0 -0.0625,-0.02734 1,1 0 0 0 -0.07031,-0.02734 z m -1.568359,1.369141 -0.05078,0.123047 a 1,1 0 0 0 0.541015,1.306641 1,1 0 0 0 1.306641,-0.541016 l 0.04883,-0.117188 C 16.75647,21.863807 16.12522,21.590412 15.595706,21.189453 Z m 0.873047,-7.884765 a 1,1 0 0 0 -0.382813,0.07617 1,1 0 0 0 -0.541015,1.306641 l 0.05078,0.123047 c 0.529514,-0.400959 1.160764,-0.674358 1.845703,-0.771484 l -0.04883,-0.117188 A 1,1 0 0 0 16.46875,13.304688 Z M 17.296875,16.125 c -0.04527,0.01666 -0.08922,0.03494 -0.132813,0.05469 a 1,1 0 0 0 0.07031,-0.02734 1,1 0 0 0 0.0625,-0.02734 z m -2.992187,-0.65625 a 1,1 0 0 0 -0.923829,0.617187 1,1 0 0 0 0.541016,1.306641 l 0.117188,0.04883 c 0.09713,-0.684977 0.370461,-1.316225 0.771484,-1.845703 L 14.6875,15.544922 a 1,1 0 0 0 -0.382812,-0.07617 z m 1.873046,1.697266 c -0.01892,0.04188 -0.03666,0.08549 -0.05273,0.128906 a 1,1 0 0 0 0.02734,-0.06055 1,1 0 0 0 0.02539,-0.06836 z m -2.138671,1.390625 -0.117188,0.04883 a 1,1 0 0 0 -0.541016,1.30664 1,1 0 0 0 1.306641,0.541016 l 0.121094,-0.05078 C 14.407791,19.872716 14.135915,19.241683 14.039063,18.556641 Z M 16.125,18.705078 c 0.01608,0.04343 0.03381,0.08703 0.05273,0.128906 A 1,1 0 0 0 16.15234,18.765624 1,1 0 0 0 16.125,18.705074 Z M 4,2 C 2.3549904,2 1,3.3549904 1,5 v 13 c 0,1.64501 1.3549904,3 3,3 h 6.300781 a 1,1 0 0 0 1,-1 1,1 0 0 0 -1,-1 H 4 C 3.4358706,19 3,18.564129 3,18 V 5 C 3,4.4358706 3.4358706,4 4,4 h 3.9804687 a 1.0001,1.0001 0 0 0 0.00977,0 C 8.3288321,3.99668 8.6400358,4.1642012 8.828125,4.4453125 l 0.625,1.1367187 a 1.0001,1.0001 0 0 0 0.041016,0.068359 C 10.048358,6.4919668 10.992324,6.9998341 12,7 h 8 c 0.564129,0 1,0.4358706 1,1 v 3.300781 a 1,1 0 0 0 1,1 1,1 0 0 0 1,-1 V 8 C 23,6.3549904 21.64501,5 20,5 H 12 C 11.665002,4.9999448 11.357974,4.8327914 11.171875,4.5546875 l -0.625,-1.1367187 a 1.0001,1.0001 0 0 0 -0.04102,-0.068359 C 9.9458558,2.4991408 8.9889395,1.990017 7.9707031,2 Z" />
</svg>
