<svg xmlns="http://www.w3.org/2000/svg" width="16" height="16"><g><path d="M8.378 7.008c-.255.54-.343 1.296-.075 2.365a.665.665 0 11-1.29.324c-.321-1.279-.258-2.366.163-3.257.422-.892 1.16-1.498 2.017-1.893 1.177-.544 2.646-.725 4.08-.708l-1.26-1.26a.665.665 0 11.94-.94l2.51 2.508a.663.663 0 01-.016.956l-2.493 2.494a.665.665 0 01-.94-.94l1.482-1.483c-1.39-.04-2.744.118-3.745.58-.654.302-1.117.715-1.373 1.254z"/><path d="M8.335 1.67a.665.665 0 110 1.33H2.833a.668.668 0 00-.668.668V13.73l1.531-1.531a.665.665 0 01.47-.195h9a.668.668 0 00.669-.668V9.083a.665.665 0 111.33 0v2.252a1.998 1.998 0 01-1.998 1.998H4.442L1.97 15.805a.665.665 0 01-1.135-.47V3.668A1.998 1.998 0 012.833 1.67h5.502z"/></g></svg>