<svg xmlns="http://www.w3.org/2000/svg" width="22" height="22" viewBox="0 0 22 22"><g clip-rule="evenodd"><path d="M7.054 14.557C5.16 14.557 4 13.322 4 11.26 4 9.23 5.16 8 7.023 8c1.218 0 2.171.571 2.527 1.35a.89.89 0 0 1 .097.408c0 .338-.233.571-.58.571-.281 0-.48-.119-.642-.387-.312-.567-.773-.843-1.397-.843-1.046 0-1.674.795-1.674 2.144 0 1.376.667 2.215 1.722 2.215.866 0 1.468-.532 1.494-1.318l.005-.101h-.923c-.317 0-.532-.18-.532-.484 0-.303.211-.483.532-.483h1.551c.418 0 .664.255.664.69v.096c0 1.613-1.024 2.699-2.813 2.699Zm4.986-.022c-.418 0-.664-.255-.664-.69V8.716c0-.44.246-.694.663-.694.418 0 .664.255.664.694v5.129c0 .435-.246.69-.664.69Zm3.675-.69c0 .435-.246.69-.664.69-.418 0-.664-.255-.664-.69V8.8c0-.435.246-.69.664-.69h2.966c.365 0 .602.206.602.55 0 .342-.241.549-.602.549h-2.302v1.696h2.087c.343 0 .567.197.567.523 0 .33-.22.527-.567.527h-2.087v1.89Z"/><path d="M3 3.336A2.665 2.665 0 0 0 .337 6v10A2.665 2.665 0 0 0 3 18.666h16A2.665 2.665 0 0 0 21.666 16V6A2.665 2.665 0 0 0 19 3.336H3ZM1.667 6c0-.737.598-1.335 1.335-1.335h16c.737 0 1.335.598 1.335 1.335v10c0 .737-.598 1.335-1.335 1.335H3A1.335 1.335 0 0 1 1.666 16V6Z"/></g></svg>