<svg width="16" height="16" viewBox="0 0 16 16" xmlns="http://www.w3.org/2000/svg"><path d="M3.635 1.360 C 3.255 1.413,2.812 1.588,2.477 1.815 C 1.966 2.162,1.568 2.746,1.406 3.387 C 1.322 3.719,1.324 4.293,1.410 4.627 C 1.482 4.907,1.652 5.282,1.815 5.523 C 2.114 5.964,2.618 6.341,3.147 6.521 L 3.320 6.580 3.333 10.377 L 3.347 14.173 3.409 14.300 C 3.554 14.595,3.899 14.734,4.217 14.626 C 4.380 14.570,4.516 14.452,4.591 14.300 L 4.653 14.173 4.667 10.377 L 4.680 6.580 4.853 6.521 C 5.382 6.341,5.886 5.964,6.185 5.523 C 6.348 5.282,6.518 4.906,6.590 4.627 C 6.672 4.308,6.678 3.747,6.604 3.427 C 6.455 2.785,6.040 2.166,5.523 1.815 C 5.283 1.653,4.906 1.482,4.640 1.415 C 4.381 1.351,3.889 1.324,3.635 1.360 M4.272 2.696 C 4.873 2.822,5.333 3.387,5.333 4.000 C 5.333 4.721,4.722 5.333,4.000 5.333 C 3.278 5.333,2.667 4.721,2.667 4.000 C 2.667 3.401,3.105 2.846,3.689 2.705 C 3.865 2.662,4.092 2.659,4.272 2.696 M8.449 3.374 C 8.203 3.452,8.000 3.734,8.000 4.000 C 8.000 4.241,8.152 4.485,8.367 4.591 C 8.492 4.653,8.503 4.653,9.680 4.667 L 10.867 4.680 10.994 4.755 C 11.139 4.840,11.267 5.001,11.307 5.148 C 11.324 5.211,11.331 6.000,11.327 7.333 L 11.320 9.420 11.147 9.479 C 10.606 9.663,10.108 10.043,9.788 10.515 C 9.651 10.719,9.477 11.112,9.410 11.373 C 9.324 11.707,9.322 12.281,9.406 12.613 C 9.659 13.615,10.428 14.373,11.427 14.604 C 11.720 14.672,12.280 14.672,12.573 14.604 C 13.582 14.370,14.370 13.582,14.604 12.573 C 14.678 12.253,14.672 11.692,14.590 11.373 C 14.523 11.113,14.350 10.719,14.212 10.515 C 13.892 10.043,13.394 9.663,12.853 9.479 L 12.680 9.420 12.666 7.197 L 12.653 4.973 12.590 4.787 C 12.556 4.684,12.493 4.529,12.450 4.443 C 12.210 3.958,11.747 3.576,11.199 3.410 C 11.007 3.352,10.958 3.350,9.787 3.343 C 8.779 3.337,8.552 3.342,8.449 3.374 M12.272 10.696 C 12.772 10.800,13.200 11.228,13.304 11.728 C 13.396 12.172,13.263 12.609,12.936 12.935 C 12.390 13.480,11.550 13.464,11.025 12.900 C 10.534 12.371,10.551 11.577,11.064 11.065 C 11.393 10.737,11.829 10.604,12.272 10.696 " ></path></svg>