<svg xmlns="http://www.w3.org/2000/svg" width="16" height="16"><path d="M8.007.133C3.579.133 0 3.74 0 8.2a8.06 8.06 0 0 0 5.475 7.652c.397.08.543-.173.543-.387 0-.187-.013-.828-.013-1.496-2.227.481-2.691-.961-2.691-.961-.358-.935-.888-1.175-.888-1.175-.73-.494.053-.494.053-.494.808.053 1.233.828 1.233.828.715 1.228 1.869.881 2.333.667.066-.52.278-.881.504-1.081-1.777-.187-3.646-.882-3.646-3.98 0-.881.318-1.603.822-2.163-.08-.2-.358-1.029.08-2.137 0 0 .676-.214 2.2.828a7.7 7.7 0 0 1 2.002-.267 7.7 7.7 0 0 1 2.001.267c1.525-1.042 2.2-.828 2.2-.828.438 1.108.16 1.936.08 2.137.517.56.822 1.282.822 2.163 0 3.098-1.869 3.78-3.659 3.98.292.253.544.734.544 1.495 0 1.082-.013 1.95-.013 2.217 0 .214.146.468.543.388A8.06 8.06 0 0 0 16 8.199C16.013 3.74 12.42.133 8.007.133"/></svg>