<svg xmlns="http://www.w3.org/2000/svg" width="16" height="16" viewBox="0 0 16 16">
  <path d="m13.341 2.12-.005-.06a.667.667 0 1 1 1.328-.12l.667 7.333a.666.666 0 0 1-.664.727h-.586a2.081 2.081 0 0 1-2.371 2.06 2.077 2.077 0 0 1-1.247 1.53 2.08 2.08 0 0 1-1.869-.14 2.08 2.08 0 0 1-3.399.688L.862 9.805a.667.667 0 0 1-.193-.532l.667-7.333a.667.667 0 0 1 1.33.06h4.568a4.526 4.526 0 0 1 4.688-.026l.316.189c.141.085.31.115.472.083h.001l.63-.127Zm-2.103.999a3.193 3.193 0 0 0-3.894.48L5.471 5.47A.748.748 0 1 0 6.53 6.53l.586-.587a2.668 2.668 0 0 1 3.77 0l2.586 2.587c.045.044.087.09.127.138h.339l-.474-5.212-.491.099h-.003a2 2 0 0 1-1.418-.249l-.313-.186Zm-8.69.214-.522 5.75 4.112 4.112a.748.748 0 1 0 1.057-1.057l-.004-.004-.33-.33a.667.667 0 1 1 .944-.942l1.333 1.333a.748.748 0 0 0 1.06-1.055l-.003-.002-1.333-1.333a.667.667 0 1 1 .943-.943l1.33 1.33.003.003.004.004.33.33a.748.748 0 1 0 1.057-1.058L9.942 6.885a1.333 1.333 0 0 0-1.884 0l-.587.586A2.08 2.08 0 0 1 4.53 4.53l1.195-1.196H2.548Z"/>
</svg>
