<svg width="16" height="16" viewBox="0 0 16 16" xmlns="http://www.w3.org/2000/svg">
<path d="M9.3336 14.6002V10.6666H6.6666V14.6002C6.6665 14.9683 6.36774 15.2662 5.99961 15.2662C5.63167 15.266 5.3337 14.9682 5.3336 14.6002V10.6666H1.4C1.03181 10.6666 0.733009 10.3678 0.733009 9.99961C0.73322 9.6316 1.03194 9.3336 1.4 9.3336H5.3336V6.6666H1.4C1.03181 6.6666 0.733009 6.3678 0.733009 5.99961C0.73322 5.6316 1.03194 5.3336 1.4 5.3336H5.3336V1.4C5.3336 1.03194 5.6316 0.73322 5.99961 0.733009C6.3678 0.733009 6.6666 1.03181 6.6666 1.4V5.3336H9.3336V1.4C9.3336 1.03194 9.6316 0.73322 9.99961 0.733009C10.3678 0.733009 10.6666 1.03181 10.6666 1.4V5.3336H14.6002C14.9682 5.3337 15.266 5.63167 15.2662 5.99961C15.2662 6.36774 14.9683 6.6665 14.6002 6.6666H10.6666V9.3336H14.6002C14.9682 9.3337 15.266 9.63167 15.2662 9.99961C15.2662 10.3677 14.9683 10.6665 14.6002 10.6666H10.6666V14.6002C10.6665 14.9683 10.3677 15.2662 9.99961 15.2662C9.63167 15.266 9.3337 14.9682 9.3336 14.6002ZM6.6666 9.3336H9.3336V6.6666H6.6666V9.3336Z" />
</svg>
