<svg width="17" height="16" viewBox="0 0 17 16" xmlns="http://www.w3.org/2000/svg"><path d="M6.630 1.374 C 6.560 1.396,6.456 1.453,6.399 1.501 C 6.195 1.670,6.194 1.671,5.993 3.501 C 5.891 4.419,5.801 5.212,5.793 5.263 L 5.777 5.355 4.211 5.355 L 2.644 5.355 2.519 5.421 C 2.450 5.457,2.354 5.540,2.304 5.604 C 2.104 5.867,2.124 6.232,2.352 6.460 C 2.571 6.679,2.500 6.670,4.158 6.681 L 5.638 6.690 5.621 6.837 C 5.612 6.918,5.545 7.513,5.472 8.160 L 5.341 9.336 3.981 9.350 L 2.621 9.364 2.487 9.443 C 2.114 9.662,2.055 10.159,2.365 10.469 C 2.573 10.677,2.606 10.682,3.986 10.682 C 4.963 10.682,5.185 10.689,5.185 10.719 C 5.185 10.740,5.103 11.490,5.003 12.387 C 4.803 14.190,4.803 14.183,4.969 14.401 C 5.205 14.710,5.625 14.757,5.926 14.507 C 6.131 14.339,6.131 14.339,6.334 12.493 C 6.435 11.567,6.525 10.780,6.532 10.745 L 6.546 10.682 7.863 10.682 L 9.180 10.682 9.180 10.748 C 9.180 10.784,9.104 11.500,9.010 12.339 C 8.916 13.178,8.840 13.932,8.840 14.016 C 8.840 14.314,9.023 14.552,9.318 14.638 C 9.640 14.732,9.974 14.574,10.102 14.267 C 10.134 14.192,10.209 13.615,10.330 12.510 C 10.430 11.606,10.519 10.824,10.527 10.774 L 10.543 10.682 12.038 10.682 C 13.689 10.682,13.732 10.678,13.928 10.506 C 14.283 10.195,14.216 9.633,13.800 9.421 L 13.659 9.350 12.167 9.350 L 10.675 9.350 10.689 9.272 C 10.697 9.229,10.765 8.630,10.841 7.940 L 10.978 6.687 12.197 6.687 C 12.867 6.686,13.492 6.674,13.586 6.659 C 13.797 6.624,13.952 6.519,14.067 6.334 C 14.227 6.075,14.168 5.707,13.934 5.510 C 13.749 5.354,13.759 5.355,12.397 5.355 C 11.366 5.355,11.135 5.348,11.135 5.317 C 11.135 5.297,11.218 4.538,11.319 3.632 C 11.420 2.724,11.494 1.943,11.485 1.892 C 11.401 1.455,10.931 1.220,10.529 1.415 C 10.380 1.487,10.246 1.648,10.198 1.811 C 10.181 1.867,10.082 2.684,9.978 3.627 L 9.788 5.341 8.464 5.348 C 7.215 5.355,7.140 5.353,7.140 5.306 C 7.140 5.278,7.222 4.520,7.321 3.622 C 7.468 2.296,7.497 1.964,7.475 1.857 C 7.398 1.496,6.984 1.260,6.630 1.374 M9.633 6.711 C 9.633 6.780,9.348 9.284,9.337 9.315 C 9.326 9.342,9.033 9.350,8.001 9.350 L 6.679 9.350 6.695 9.244 C 6.704 9.185,6.772 8.586,6.846 7.912 L 6.980 6.687 8.307 6.687 C 9.036 6.687,9.633 6.698,9.633 6.711 " ></path></svg>