<svg width="24" height="22" viewBox="0 0 24 22" xmlns="http://www.w3.org/2000/svg">
<path clip-rule="evenodd" d="M14.4619 1.49325C15.2507 1.16641 16.0962 0.998177 16.95 0.998177C17.8038 0.998177 18.6493 1.16641 19.4381 1.49325C20.2268 1.82004 20.9434 2.29898 21.5469 2.90273C22.1507 3.50628 22.63 4.22319 22.9567 5.01186C23.2836 5.80067 23.4518 6.64615 23.4518 7.5C23.4518 8.35385 23.2836 9.19934 22.9567 9.98815C22.6299 10.7769 22.1509 11.4935 21.5471 12.0971C21.5471 12.0972 21.5472 12.0971 21.5471 12.0971L12.7071 20.9371C12.3166 21.3276 11.6834 21.3276 11.2929 20.9371L2.45289 12.0971C1.23367 10.8779 0.54871 9.22425 0.54871 7.5C0.54871 5.77575 1.23367 4.12212 2.45289 2.9029C3.67212 1.68367 5.32575 0.998711 7.05 0.998711C8.77425 0.998711 10.4279 1.68367 11.6471 2.9029L12 3.25579L12.3527 2.90306C12.3528 2.90301 12.3527 2.90312 12.3527 2.90306C12.9563 2.29924 13.6731 1.82007 14.4619 1.49325ZM16.95 2.99818C16.3589 2.99818 15.7735 3.11464 15.2274 3.34092C14.6813 3.5672 14.1852 3.89886 13.7673 4.31694L12.7071 5.37711C12.3166 5.76763 11.6834 5.76763 11.2929 5.37711L10.2329 4.31711C9.38874 3.47295 8.24382 2.99871 7.05 2.99871C5.85618 2.99871 4.71126 3.47295 3.86711 4.31711C3.02295 5.16126 2.54871 6.30619 2.54871 7.5C2.54871 8.69382 3.02295 9.83874 3.86711 10.6829L12 18.8158L20.1329 10.6829C20.551 10.265 20.8828 9.76867 21.1091 9.22256C21.3354 8.67646 21.4518 8.09113 21.4518 7.5C21.4518 6.90888 21.3354 6.32354 21.1091 5.77744C20.8828 5.23134 20.5511 4.73517 20.1331 4.31728C19.7152 3.89919 19.2187 3.5672 18.6726 3.34092C18.1265 3.11464 17.5411 2.99818 16.95 2.99818Z"/>
</svg>
