<svg xmlns="http://www.w3.org/2000/svg" width="20" height="20" viewBox="0 0 20 20"><g><path d="M7.255 8.125c0-1.771 1.454-2.773 2.77-2.773 1.669 0 2.85 1.189 2.85 2.732 0 .616-.164 1.042-.408 1.367-.24.32-.555.537-.845.736l-.004.003c-.247.17-.475.327-.642.527a1.148 1.148 0 0 0-.27.777v.07h-1.37v-.07c0-1.09.698-1.598 1.312-2.044l.005-.004c.53-.386.978-.717.978-1.32 0-.835-.655-1.505-1.607-1.505-.799 0-1.516.59-1.516 1.504v.07H7.255v-.07Zm2.154 4.841a.835.835 0 0 1 .612-.25c.24 0 .445.084.612.25.166.166.25.372.25.612s-.084.446-.25.612a.835.835 0 0 1-.612.25.835.835 0 0 1-.612-.25.835.835 0 0 1-.25-.612c0-.24.083-.446.25-.612Z"/><path d="M6.73 17.698a8.133 8.133 0 0 1-2.647-1.76 8.273 8.273 0 0 1-1.77-2.646c-.431-1.014-.646-2.111-.646-3.292a8.28 8.28 0 0 1 .645-3.27 8.273 8.273 0 0 1 1.771-2.647 8.273 8.273 0 0 1 2.646-1.77A8.28 8.28 0 0 1 10 1.666c1.153 0 2.236.215 3.25.645a8.272 8.272 0 0 1 2.646 1.771 8.416 8.416 0 0 1 1.781 2.646A8.166 8.166 0 0 1 18.333 10c0 1.18-.218 2.278-.656 3.292a8.416 8.416 0 0 1-1.781 2.646 8.133 8.133 0 0 1-2.646 1.76 8.345 8.345 0 0 1-3.25.635 8.398 8.398 0 0 1-3.27-.635ZM15.01 15c1.382-1.389 2.073-3.056 2.073-5s-.69-3.611-2.073-5C13.63 3.611 11.958 2.917 10 2.917c-1.986 0-3.663.694-5.031 2.083C3.6 6.389 2.917 8.056 2.917 10s.684 3.611 2.052 5c1.368 1.389 3.045 2.083 5.031 2.083 1.958 0 3.629-.694 5.01-2.083Z"/></g></svg>