<svg width="24" height="24" viewBox="0 0 24 24" xmlns="http://www.w3.org/2000/svg">
  <path d="m 16,9 a 1,1 0 0 0 -1,1 1,1 0 0 0 1,1 h 2 a 1,1 0 0 0 1,-1 1,1 0 0 0 -1,-1 z"/>
  <path d="m 16,13 a 1,1 0 0 0 -1,1 1,1 0 0 0 1,1 h 2 a 1,1 0 0 0 1,-1 1,1 0 0 0 -1,-1 z" />
  <path d="m 9,11.996094 c -1.5574581,0 -3.164143,0.939846 -3.7734375,2.671875 a 1,1 0 0 0 0.6113281,1.27539 1,1 0 0 0 1.2753906,-0.611328 C 7.4441611,14.391446 8.1975453,13.996094 9,13.996094 c 0.8024547,0 1.555839,0.395352 1.886719,1.335937 a 1,1 0 0 0 1.27539,0.611328 1,1 0 0 0 0.611329,-1.27539 C 12.164143,12.93594 10.557458,11.996094 9,11.996094 Z" />
  <path d="m 9,8 c -1.6450096,0 -3,1.3549904 -3,3 0,1.64501 1.3549904,3 3,3 1.64501,0 3,-1.35499 3,-3 C 12,9.3549904 10.64501,8 9,8 Z m 0,2 c 0.5641294,0 1,0.435871 1,1 0,0.564129 -0.4358706,1 -1,1 -0.5641294,0 -1,-0.435871 -1,-1 0,-0.564129 0.4358706,-1 1,-1 z" />
  <path d="M 4,4 C 2.3552972,4 1,5.3552972 1,7 v 10 c 0,1.644703 1.3552972,3 3,3 h 16 c 1.644703,0 3,-1.355297 3,-3 V 7 C 23,5.3552972 21.644703,4 20,4 Z m 0,2 h 16 c 0.571297,0 1,0.4287028 1,1 v 10 c 0,0.571297 -0.428703,1 -1,1 H 4 C 3.4287028,18 3,17.571297 3,17 V 7 C 3,6.4287028 3.4287028,6 4,6 Z"/>
</svg>
