<svg width="16" height="16" viewBox="0 0 16 16" xmlns="http://www.w3.org/2000/svg">
    <path d="M2 3C1.44772 3 1 3.44772 1 4V12C1 12.5523 1.44772 13 2 13H14C14.5523 13 15 12.5523 15 12V4C15 3.44772 14.5523 3 14 3H2ZM2.5 4.5H13.5V11.5H2.5V4.5Z"/>
    <circle cx="5" cy="7" r="1.5"/>
    <path d="M2.5 10.5C2.5 9.39543 3.39543 8.5 4.5 8.5H5.5C6.60457 8.5 7.5 9.39543 7.5 10.5V11.5H2.5V10.5Z"/>
    <rect x="9" y="6" width="4" height="1" rx="0.5"/>
    <rect x="9" y="8" width="3" height="1" rx="0.5"/>
</svg>
