<svg width="16" height="16" viewBox="0 0 16 16" xmlns="http://www.w3.org/2000/svg">
  <path d="m 5.5507812,5.1992187 a 0.75,0.75 0 0 0 -0.75,0.75 v 4.5000003 a 0.750075,0.750075 0 0 0 0.75,0.75 h 4.4999998 a 0.75,0.75 0 0 0 0.75,-0.75 0.75,0.75 0 0 0 -0.75,-0.7500002 H 6.3007812 V 5.9492187 a 0.75,0.75 0 0 0 -0.75,-0.75 z" />
  <path d="M 13.935547,1.0039062 5.4648437,9.4726563 a 0.75,0.75 0 0 0 0,1.0624997 0.75,0.75 0 0 0 1.0625,0 L 14.996094,2.0644531 a 0.75,0.75 0 0 0 0,-1.0605469 0.75,0.75 0 0 0 -1.060547,0 z" />
  <path d="M 2.4160156,2 C 1.0902107,1.9999999 -3.1819319e-7,3.0902107 0,4.4160156 V 13.583984 C -1.0341282e-6,14.90979 1.0902102,16 2.4160156,16 H 11.583984 C 12.90979,16.000001 14.000001,14.90979 14,13.583984 V 8.5839844 a 0.75,0.75 0 0 0 -0.75,-0.75 0.75,0.75 0 0 0 -0.75,0.75 V 13.583984 C 12.5,14.099129 12.099129,14.5 11.583984,14.5 H 2.4160156 C 1.9008708,14.5 1.4999996,14.099129 1.5,13.583984 V 4.4160156 C 1.4999999,3.900871 1.900871,3.5 2.4160156,3.5 h 5 a 0.75,0.75 0 0 0 0.75,-0.75 0.75,0.75 0 0 0 -0.75,-0.75 z" />
</svg>
