<svg xmlns="http://www.w3.org/2000/svg" width="16" height="16" viewBox="0 0 16 16"><path d="M4.687.056c-.851.04-1.433.176-1.94.376-.527.205-.973.48-1.416.925a3.9 3.9 0 0 0-.92 1.418c-.197.509-.33 1.09-.368 1.942S-.003 5.843 0 8.015s.014 2.445.055 3.299c.04.85.176 1.432.376 1.94.205.526.48.972.925 1.415s.891.716 1.419.92c.509.197 1.09.331 1.942.368.852.038 1.126.046 3.298.042s2.445-.014 3.298-.054 1.432-.177 1.94-.376c.526-.205.972-.48 1.415-.925a3.9 3.9 0 0 0 .92-1.419c.197-.509.331-1.09.368-1.942.037-.854.046-1.126.042-3.298s-.014-2.445-.054-3.298-.176-1.433-.376-1.941a3.9 3.9 0 0 0-.925-1.415 3.9 3.9 0 0 0-1.419-.92c-.509-.197-1.09-.331-1.942-.368S10.157-.003 7.985 0 5.54.014 4.687.056m.093 14.462c-.78-.034-1.203-.163-1.486-.272a2.5 2.5 0 0 1-.92-.597 2.5 2.5 0 0 1-.6-.918c-.11-.282-.242-.706-.279-1.486-.04-.843-.048-1.096-.053-3.232-.004-2.135.004-2.388.04-3.232.034-.779.165-1.203.273-1.485.144-.374.317-.64.597-.921a2.5 2.5 0 0 1 .918-.6c.282-.11.705-.241 1.485-.278.844-.04 1.097-.048 3.232-.053s2.39.003 3.233.04c.78.034 1.204.163 1.485.272.374.144.64.317.922.597.28.28.454.545.6.92.11.28.241.703.278 1.483.04.844.05 1.097.053 3.232.004 2.136-.004 2.39-.04 3.232-.035.78-.164 1.204-.273 1.487a2.5 2.5 0 0 1-.597.92c-.28.282-.545.455-.919.6-.281.11-.705.242-1.484.279-.843.04-1.096.048-3.233.053s-2.388-.004-3.232-.04m6.522-10.795a.96.96 0 1 0 .958-.961.96.96 0 0 0-.958.961m-7.41 4.284a4.107 4.107 0 1 0 8.215-.016 4.107 4.107 0 0 0-8.215.016m1.441-.003a2.667 2.667 0 1 1 2.672 2.662 2.666 2.666 0 0 1-2.672-2.662"/></svg>