<svg width="16" height="16" viewBox="0 0 16 16" xmlns="http://www.w3.org/2000/svg"><path d="M1.039 2.703 C 0.572 2.804,0.167 3.200,0.039 3.683 C -0.018 3.898,-0.018 12.102,0.039 12.317 C 0.170 12.810,0.577 13.203,1.061 13.304 C 1.262 13.346,14.738 13.346,14.939 13.304 C 15.438 13.200,15.866 12.772,15.971 12.272 C 16.012 12.073,16.012 3.927,15.971 3.728 C 15.865 3.220,15.426 2.788,14.922 2.696 C 14.685 2.652,1.241 2.659,1.039 2.703 M14.815 3.852 L 14.880 3.918 14.880 7.995 L 14.880 12.073 14.825 12.143 L 14.769 12.213 8.000 12.213 L 1.231 12.213 1.175 12.143 L 1.120 12.073 1.120 7.995 L 1.120 3.918 1.185 3.852 L 1.251 3.787 8.000 3.787 L 14.749 3.787 14.815 3.852 M2.100 5.055 C 1.964 5.129,1.947 5.205,1.947 5.725 C 1.947 6.434,1.966 6.453,2.667 6.453 C 3.367 6.453,3.386 6.434,3.387 5.725 C 3.387 5.009,3.391 5.013,2.661 5.014 C 2.282 5.015,2.157 5.024,2.100 5.055 M4.767 5.055 C 4.631 5.129,4.613 5.205,4.613 5.725 C 4.614 6.434,4.633 6.453,5.333 6.453 C 6.034 6.453,6.053 6.434,6.053 5.725 C 6.053 5.009,6.058 5.013,5.328 5.014 C 4.948 5.015,4.824 5.024,4.767 5.055 M7.434 5.055 C 7.297 5.129,7.280 5.205,7.280 5.725 C 7.280 6.434,7.300 6.453,8.000 6.453 C 8.700 6.453,8.720 6.434,8.720 5.725 C 8.720 5.009,8.724 5.013,7.995 5.014 C 7.615 5.015,7.490 5.024,7.434 5.055 M10.100 5.055 C 9.964 5.129,9.947 5.205,9.947 5.725 C 9.947 6.434,9.966 6.453,10.667 6.453 C 11.367 6.453,11.386 6.434,11.387 5.725 C 11.387 5.009,11.391 5.013,10.661 5.014 C 10.282 5.015,10.157 5.024,10.100 5.055 M12.767 5.055 C 12.631 5.129,12.613 5.205,12.613 5.725 C 12.614 6.434,12.633 6.453,13.333 6.453 C 14.034 6.453,14.053 6.434,14.053 5.725 C 14.053 5.009,14.058 5.013,13.328 5.014 C 12.948 5.015,12.824 5.024,12.767 5.055 M3.438 7.341 C 3.286 7.443,3.278 7.480,3.286 8.033 L 3.293 8.532 3.381 8.620 L 3.468 8.707 4.000 8.707 L 4.532 8.707 4.619 8.620 L 4.707 8.532 4.714 8.033 C 4.722 7.480,4.714 7.443,4.562 7.341 C 4.477 7.283,4.447 7.280,4.000 7.280 C 3.553 7.280,3.523 7.283,3.438 7.341 M6.104 7.341 C 5.953 7.443,5.945 7.480,5.953 8.033 L 5.960 8.532 6.047 8.620 L 6.134 8.707 6.667 8.707 L 7.199 8.707 7.286 8.620 L 7.373 8.532 7.380 8.033 C 7.388 7.480,7.380 7.443,7.229 7.341 C 7.144 7.283,7.114 7.280,6.667 7.280 C 6.219 7.280,6.190 7.283,6.104 7.341 M8.771 7.341 C 8.620 7.443,8.612 7.480,8.620 8.033 L 8.627 8.532 8.714 8.620 L 8.801 8.707 9.333 8.707 L 9.866 8.707 9.953 8.620 L 10.040 8.532 10.047 8.033 C 10.055 7.480,10.047 7.443,9.896 7.341 C 9.810 7.283,9.781 7.280,9.333 7.280 C 8.886 7.280,8.856 7.283,8.771 7.341 M11.438 7.341 C 11.286 7.443,11.278 7.480,11.286 8.033 L 11.293 8.532 11.381 8.620 L 11.468 8.707 12.000 8.707 L 12.532 8.707 12.619 8.620 L 12.707 8.532 12.714 8.033 C 12.722 7.480,12.714 7.443,12.562 7.341 C 12.477 7.283,12.447 7.280,12.000 7.280 C 11.553 7.280,11.523 7.283,11.438 7.341 M2.193 9.571 C 1.975 9.626,1.947 9.709,1.947 10.280 C 1.947 10.992,1.954 11.000,2.667 11.000 C 3.380 11.000,3.387 10.993,3.387 10.275 C 3.386 9.852,3.381 9.791,3.335 9.715 C 3.306 9.668,3.255 9.615,3.221 9.596 C 3.150 9.555,2.333 9.536,2.193 9.571 M12.860 9.571 C 12.642 9.626,12.613 9.709,12.613 10.280 C 12.613 10.992,12.621 11.000,13.333 11.000 C 14.046 11.000,14.053 10.993,14.053 10.275 C 14.053 9.852,14.047 9.791,14.001 9.715 C 13.973 9.668,13.922 9.615,13.888 9.596 C 13.816 9.555,13.000 9.536,12.860 9.571 M4.820 9.780 C 4.690 9.861,4.661 9.966,4.671 10.324 L 4.680 10.644 4.780 10.735 L 4.879 10.827 8.000 10.827 L 11.121 10.827 11.220 10.735 L 11.320 10.644 11.329 10.324 C 11.339 9.963,11.309 9.858,11.175 9.779 C 11.104 9.737,10.873 9.733,7.996 9.734 C 5.122 9.735,4.888 9.738,4.820 9.780 " ></path></svg>