<svg width="16" height="16" viewBox="0 0 16 16" xmlns="http://www.w3.org/2000/svg"><path d="M7.547 0.683 C 6.921 0.738,6.425 0.825,5.947 0.964 C 3.348 1.719,1.347 3.893,0.817 6.538 C 0.703 7.109,0.681 7.344,0.681 8.000 C 0.681 8.656,0.703 8.891,0.817 9.462 C 1.001 10.377,1.371 11.267,1.891 12.043 C 2.317 12.678,2.834 13.248,3.399 13.707 C 4.508 14.607,5.937 15.180,7.387 15.306 C 8.996 15.446,10.687 15.015,12.018 14.127 C 12.887 13.547,13.530 12.906,14.109 12.043 C 15.728 9.629,15.735 6.391,14.127 3.982 C 13.820 3.522,13.618 3.273,13.241 2.884 C 12.087 1.697,10.598 0.952,8.946 0.733 C 8.634 0.692,7.786 0.661,7.547 0.683 M8.893 2.066 C 9.502 2.160,10.056 2.334,10.628 2.612 C 10.937 2.763,11.456 3.081,11.693 3.267 C 11.743 3.306,11.703 3.350,10.790 4.263 L 9.835 5.219 9.631 5.102 C 8.670 4.554,7.492 4.531,6.476 5.042 C 6.383 5.089,6.276 5.148,6.238 5.175 L 6.170 5.223 5.212 4.266 C 4.297 3.350,4.257 3.306,4.307 3.267 C 4.336 3.244,4.498 3.132,4.667 3.018 C 5.482 2.467,6.408 2.134,7.426 2.026 C 7.727 1.994,8.576 2.017,8.893 2.066 M4.265 5.212 L 5.210 6.157 5.061 6.445 C 4.776 6.999,4.681 7.387,4.681 8.000 C 4.681 8.609,4.785 9.029,5.071 9.576 L 5.210 9.843 4.259 10.794 C 3.349 11.704,3.306 11.743,3.267 11.693 C 3.081 11.455,2.763 10.937,2.613 10.628 C 2.330 10.047,2.162 9.511,2.064 8.880 C 1.997 8.453,1.997 7.547,2.064 7.120 C 2.222 6.102,2.587 5.247,3.267 4.304 C 3.281 4.283,3.299 4.267,3.307 4.267 C 3.314 4.267,3.745 4.692,4.265 5.212 M12.738 4.313 C 12.915 4.538,13.239 5.065,13.387 5.372 C 13.815 6.253,13.984 6.997,13.984 8.000 C 13.984 9.003,13.815 9.747,13.387 10.628 C 13.237 10.937,12.919 11.455,12.733 11.693 C 12.694 11.743,12.651 11.704,11.741 10.794 L 10.790 9.843 10.929 9.576 C 11.215 9.029,11.319 8.609,11.319 8.000 C 11.319 7.391,11.215 6.971,10.929 6.424 L 10.790 6.157 11.735 5.212 C 12.254 4.692,12.684 4.267,12.690 4.267 C 12.696 4.267,12.717 4.288,12.738 4.313 M8.510 6.066 C 9.207 6.255,9.743 6.794,9.939 7.504 C 10.000 7.727,10.000 8.273,9.939 8.496 C 9.770 9.107,9.338 9.607,8.775 9.842 C 7.506 10.373,6.105 9.503,6.009 8.124 C 5.939 7.120,6.657 6.207,7.657 6.028 C 7.847 5.994,8.323 6.015,8.510 6.066 M6.433 10.934 C 6.965 11.214,7.394 11.319,8.000 11.319 C 8.609 11.319,9.029 11.215,9.576 10.929 L 9.843 10.790 10.788 11.735 C 11.308 12.254,11.733 12.686,11.733 12.693 C 11.733 12.701,11.640 12.773,11.528 12.853 C 10.481 13.603,9.259 14.000,8.000 14.000 C 6.744 14.000,5.496 13.595,4.480 12.858 C 4.370 12.778,4.275 12.708,4.268 12.702 C 4.254 12.690,6.137 10.800,6.163 10.800 C 6.172 10.800,6.293 10.860,6.433 10.934 " ></path></svg>