<svg width="24" height="24" viewBox="0 0 24 24" xmlns="http://www.w3.org/2000/svg">
  <path d="M 7,6 C 5.0833339,6 3.5185588,6.7547556 2.5019531,7.8984375 1.4853474,9.0421194 1,10.527778 1,12 1,13.472222 1.4853474,14.957881 2.5019531,16.101562 3.5185588,17.245244 5.0833339,18 7,18 H 9 A 1,1 0 0 0 10,17 1,1 0 0 0 9,16 H 7 C 5.5833342,16 4.6481071,15.504756 3.9980469,14.773438 3.3479866,14.042119 3,13.027778 3,12 3,10.972222 3.3479866,9.9578806 3.9980469,9.2265625 4.6481071,8.4952444 5.5833342,8 7,8 H 9 A 1,1 0 0 0 10,7 1,1 0 0 0 9,6 Z" />
  <path d="m 15,6 a 1,1 0 0 0 -1,1 1,1 0 0 0 1,1 h 2 c 2.220986,0 4,1.7790155 4,4 0,2.220985 -1.779014,4 -4,4 h -2 a 1,1 0 0 0 -1,1 1,1 0 0 0 1,1 h 2 c 3.301865,0 6,-2.698137 6,-6 0,-3.3018628 -2.698135,-6 -6,-6 z"/>
  <path d="m 8,11 a 1,1 0 0 0 -1,1 1,1 0 0 0 1,1 h 8 a 1,1 0 0 0 1,-1 1,1 0 0 0 -1,-1 z"/>
</svg>
