<svg xmlns="http://www.w3.org/2000/svg" width="16" height="16" viewBox="0 0 16 16"><path d="M2.133.011A2.136 2.136 0 0 0 0 2.144C0 3.32.957 4.276 2.133 4.276a2.134 2.134 0 0 0 2.131-2.132A2.134 2.134 0 0 0 2.133.01m1.6 5.122H.532a.276.276 0 0 0-.276.276v10.304a.276.276 0 0 0 .276.276h3.201a.276.276 0 0 0 .276-.276V5.409a.276.276 0 0 0-.276-.276m8.184-.121c-1.172 0-2.201.357-2.83.938V5.41a.276.276 0 0 0-.275-.276h-3.07a.276.276 0 0 0-.277.276v10.304a.276.276 0 0 0 .276.276H8.94a.276.276 0 0 0 .276-.276v-5.098c0-1.463.27-2.37 1.612-2.37 1.323.002 1.422.975 1.422 2.457v5.01a.276.276 0 0 0 .276.277h3.2a.276.276 0 0 0 .275-.276V10.06c0-2.35-.464-5.05-4.083-5.05"/></svg>