<svg width="16" height="16" viewBox="0 0 16 16" xmlns="http://www.w3.org/2000/svg">
    <path d="M1.33301 7.99972C1.33302 6.59188 1.77894 5.21975 2.60645 4.08078C3.4339 2.94197 4.60068 2.09396 5.93945 1.6589C7.27822 1.2239 8.72077 1.22404 10.0596 1.6589C10.4097 1.77267 10.6021 2.14955 10.4883 2.49972C10.3745 2.84959 9.9984 3.04091 9.64844 2.92746C8.57728 2.57944 7.42271 2.57941 6.35156 2.92746C5.28057 3.27552 4.34749 3.9539 3.68555 4.86496C3.02354 5.77613 2.667 6.87345 2.66699 7.99972C2.66699 9.12598 3.02356 10.2233 3.68555 11.1345C4.34749 12.0455 5.28057 12.7239 6.35156 13.072C7.42257 13.42 8.57641 13.4199 9.64746 13.072C10.7186 12.724 11.6524 12.0456 12.3145 11.1345C12.9765 10.2234 13.333 9.12596 13.333 7.99972C13.3332 7.63166 13.6319 7.33371 14 7.33371C14.3681 7.33372 14.6668 7.63168 14.667 7.99972C14.6669 9.40755 14.2211 10.7797 13.3936 11.9187C12.566 13.0576 11.3985 13.9055 10.0596 14.3405C8.72074 14.7754 7.27824 14.7746 5.93945 14.3396C4.6008 13.9045 3.43384 13.0574 2.60645 11.9187C1.77896 10.7797 1.33301 9.40755 1.33301 7.99972Z"/>
</svg>
