<?xml version="1.0" encoding="UTF-8"?>
<!-- Generated by Pixelmator Pro 3.5.11 -->
<svg width="1024" height="960" viewBox="0 0 1024 960" xmlns="http://www.w3.org/2000/svg">
    <g id="icomoon-ignore"/>
    <path id="Path"  d="M 241.067001 271.667969 C 241.067001 199.812012 269.612 130.898987 320.42099 80.088989 C 371.230011 29.278992 440.144012 0.734985 512 0.734985 C 583.856018 0.734985 652.768005 29.280029 703.578003 80.088989 C 754.388 130.89801 782.932007 199.812012 782.932007 271.667969 L 782.932007 394.334961 L 810.669983 394.334961 C 884.307983 394.334961 944.000977 454.030029 944.000977 527.669006 L 944.000977 826.338013 C 944.000977 899.969971 884.307983 959.669006 810.669983 959.669006 L 213.334 959.669006 C 139.695999 959.669006 80.000999 899.969971 80.000999 826.338013 L 80.000999 527.669006 C 80.000999 454.031006 139.695999 394.334961 213.334 394.334961 L 241.067993 394.334961 L 241.067993 271.667969 Z M 512 115.934021 C 470.696991 115.934021 431.084991 132.34198 401.880005 161.546997 C 372.674988 190.752014 356.266998 230.364014 356.266998 271.666992 L 356.266998 394.333984 L 667.731018 394.333984 L 667.731018 271.666992 C 667.731018 230.364014 651.328003 190.752991 622.119995 161.546997 C 592.914001 132.341003 553.302979 115.934021 512 115.934021 Z M 544 767.541016 C 581.286011 754.356995 608 718.799011 608 677 C 608 623.981995 565.02002 581.000977 512 581.000977 C 458.980011 581.000977 416 623.981995 416 677 C 416 718.797974 442.713989 754.356995 480 767.541016 L 480 837 L 544 837 L 544 767.541016 Z"/>
</svg>
