<svg width="17" height="16" viewBox="0 0 17 16" xmlns="http://www.w3.org/2000/svg">
<path d="M6.25525 1.8363C6.14554 1.94601 6.08391 2.09481 6.08391 2.24996V3.49996C6.08391 3.86723 5.78618 4.16496 5.41891 4.16496C5.05164 4.16496 4.75391 3.86723 4.75391 3.49996V2.24996C4.75391 1.74207 4.95566 1.25498 5.3148 0.895851C5.67393 0.536719 6.16102 0.334961 6.66891 0.334961H13.6689C14.1768 0.334961 14.6639 0.536719 15.023 0.895851C15.3821 1.25498 15.5839 1.74207 15.5839 2.24996V13.75C15.5839 14.2579 15.3821 14.7449 15.023 15.1041C14.6639 15.4632 14.1768 15.665 13.6689 15.665H6.91891C6.40837 15.665 5.89181 15.4644 5.4999 15.1573C5.11053 14.8522 4.75391 14.3654 4.75391 13.75V12.5C4.75391 12.1327 5.05164 11.835 5.41891 11.835C5.78618 11.835 6.08391 12.1327 6.08391 12.5V13.75C6.08391 13.8248 6.13212 13.963 6.32018 14.1104C6.50569 14.2557 6.73913 14.335 6.91891 14.335H13.6689C13.8241 14.335 13.9729 14.2733 14.0826 14.1636C14.1923 14.0539 14.2539 13.9051 14.2539 13.75V2.24996C14.2539 2.09481 14.1923 1.94601 14.0826 1.8363C13.9729 1.72659 13.8241 1.66496 13.6689 1.66496H6.66891C6.51375 1.66496 6.36496 1.72659 6.25525 1.8363Z"/>
<path d="M8.88913 5.02974L11.3891 7.52973C11.6488 7.78943 11.6488 8.21049 11.3891 8.47019L8.88913 10.9702C8.62943 11.2299 8.20838 11.2299 7.94868 10.9702C7.68898 10.7105 7.68898 10.2894 7.94868 10.0297L9.31345 8.66496H1.91891C1.55164 8.66496 1.25391 8.36723 1.25391 7.99996C1.25391 7.63269 1.55164 7.33496 1.91891 7.33496H9.31345L7.94868 5.97019C7.68898 5.71049 7.68898 5.28943 7.94868 5.02974C8.20838 4.77004 8.62943 4.77004 8.88913 5.02974Z"/>
</svg>
