<svg width="16" height="16" viewBox="0 0 16 16" xmlns="http://www.w3.org/2000/svg">
<path d="M2.25094 1.66496C2.09579 1.66496 1.94699 1.72659 1.83728 1.8363C1.72757 1.94601 1.66594 2.09481 1.66594 2.24996V13.75C1.66594 13.9051 1.72757 14.0539 1.83728 14.1636C1.94699 14.2733 2.09579 14.335 2.25094 14.335H8.25094C8.40609 14.335 8.55489 14.2733 8.66459 14.1636C8.7743 14.0539 8.83594 13.9051 8.83594 13.75V12.5C8.83594 12.1327 9.13367 11.835 9.50094 11.835C9.86821 11.835 10.1659 12.1327 10.1659 12.5V13.75C10.1659 14.2579 9.96418 14.7449 9.60505 15.1041C9.24592 15.4632 8.75883 15.665 8.25094 15.665H2.25094C1.74305 15.665 1.25596 15.4632 0.896828 15.1041C0.537696 14.7449 0.335938 14.2579 0.335938 13.75V2.24996C0.335938 1.74207 0.537696 1.25498 0.896828 0.895851C1.25596 0.536719 1.74305 0.334961 2.25094 0.334961H8.00094C8.51147 0.334961 9.02804 0.535565 9.41995 0.842635C9.80931 1.14771 10.1659 1.6345 10.1659 2.24996V3.49996C10.1659 3.86723 9.86821 4.16496 9.50094 4.16496C9.13367 4.16496 8.83594 3.86723 8.83594 3.49996V2.24996C8.83594 2.17511 8.78772 2.0369 8.59966 1.88955C8.41415 1.7442 8.18072 1.66496 8.00094 1.66496H2.25094ZM12.0307 5.02973C12.2904 4.77004 12.7115 4.77004 12.9712 5.02973L15.4712 7.52974C15.7309 7.78943 15.7309 8.21049 15.4712 8.47019L12.9712 10.9702C12.7115 11.2299 12.2904 11.2299 12.0307 10.9702C11.771 10.7105 11.771 10.2894 12.0307 10.0297L13.3955 8.66496H6.50094C6.13367 8.66496 5.83594 8.36723 5.83594 7.99996C5.83594 7.63269 6.13367 7.33496 6.50094 7.33496H13.3955L12.0307 5.97019C11.771 5.71049 11.771 5.28943 12.0307 5.02973Z"/>
</svg>
