<svg xmlns="http://www.w3.org/2000/svg" width="16" height="16" viewBox="0 0 16 16"><path d="M1.916 13.573a.762.762 0 0 1-.561-.226.763.763 0 0 1-.227-.562c0-.223.076-.41.227-.561a.763.763 0 0 1 .561-.227h6.305c.224 0 .41.076.562.227a.763.763 0 0 1 .226.561c0 .224-.075.41-.226.562a.762.762 0 0 1-.562.226H1.916Zm0-3.94a.763.763 0 0 1-.561-.227.763.763 0 0 1-.227-.561c0-.224.076-.41.227-.562a.763.763 0 0 1 .561-.226h2.365c.223 0 .41.075.561.226a.763.763 0 0 1 .227.562c0 .223-.076.41-.227.561a.763.763 0 0 1-.561.227H1.916Zm0-3.94a.763.763 0 0 1-.561-.227.763.763 0 0 1-.227-.562c0-.223.076-.41.227-.561a.763.763 0 0 1 .561-.227h2.365c.223 0 .41.076.561.227a.763.763 0 0 1 .227.561c0 .223-.076.41-.227.562a.763.763 0 0 1-.561.226H1.916ZM9.4 10.184C8.347 9.9 7.55 9.29 7.006 8.349s-.674-1.939-.392-2.992a3.798 3.798 0 0 1 1.835-2.394c.94-.544 1.938-.674 2.991-.392 1.053.282 1.851.894 2.395 1.835.543.941.674 1.938.391 2.991-.098.368-.25.718-.455 1.051a3.514 3.514 0 0 1-.753.87l1.756 3.04a.747.747 0 0 1 .067.589.748.748 0 0 1-.353.477.747.747 0 0 1-.589.066.747.747 0 0 1-.476-.352l-1.756-3.04a3.514 3.514 0 0 1-1.129.217c-.39.011-.77-.033-1.138-.131Zm.408-1.523a2.28 2.28 0 0 0 1.796-.233 2.28 2.28 0 0 0 1.1-1.439 2.28 2.28 0 0 0-.233-1.796 2.28 2.28 0 0 0-1.439-1.1 2.28 2.28 0 0 0-1.796.233 2.28 2.28 0 0 0-1.1 1.44A2.28 2.28 0 0 0 8.37 7.56c.325.564.805.93 1.44 1.1Z"/></svg>