<svg xmlns="http://www.w3.org/2000/svg" width="16" height="16" viewBox="0 0 16 16"><path d="M15.935 3.301C15.69 1.49 14.092.061 12.2-.216c-.32-.046-1.53-.216-4.332-.216h-.02c-2.804 0-3.405.17-3.725.216C2.283.054.603 1.337.195 3.17 0 4.073-.022 5.074.015 5.992.067 7.31.077 8.624.198 9.936a18 18 0 0 0 .436 2.586c.387 1.571 1.956 2.879 3.493 3.412a9.47 9.47 0 0 0 5.11.267 8 8 0 0 0 .554-.15c.412-.129.894-.274 1.25-.528a.04.04 0 0 0 .016-.031v-1.27a.04.04 0 0 0-.03-.037h-.017a14.3 14.3 0 0 1-3.316.383c-1.922 0-2.44-.902-2.587-1.277a4 4 0 0 1-.225-1.008.04.04 0 0 1 .03-.038h.016a14 14 0 0 0 3.262.384q.396.002.793-.007c1.105-.03 2.27-.086 3.357-.297q.041-.007.077-.016c1.716-.326 3.348-1.349 3.514-3.938.006-.102.021-1.068.021-1.174.001-.359.118-2.55-.017-3.896m-2.64 6.461h-1.803V5.393c0-.92-.388-1.389-1.176-1.389-.866 0-1.3.555-1.3 1.651v2.392H7.223V5.655c0-1.096-.435-1.65-1.301-1.65-.784 0-1.175.468-1.176 1.388v4.37H2.944V5.26q0-1.38.712-2.193c.49-.54 1.133-.818 1.93-.818q1.386 0 2.086 1.053l.449.745.45-.745C9.034 2.6 9.732 2.25 10.653 2.25c.797 0 1.44.278 1.93.818q.713.812.713 2.193Z"/></svg>