<svg xmlns="http://www.w3.org/2000/svg" width="836" height="560.393" viewBox="0 0 836 560.393"><path d="M836 466.541v93c-5.84.564-11.84.852-18 .852-109.939 0-171.834-91.572-174.503-206.156-.079-4.43-.049-8.832.049-13.204.06-2.727.168-5.445.306-8.153.069-1.447.137-2.806.246-4.322s.217-3.033.345-4.549c3.958-50.591 20.244-95.61 47.125-128.92 16.699-20.678 36.766-36.432 59.522-46.968 19.988-10.063 48.08-15.617 70.98-15.617h.99c4.34 0 8.65.145 12.94.431v25.587c-4.55-1.247-9.42-1.916-14.6-2.002-46.314.955-73.914 56.43-77.351 133.292H836v21.662h-94.028l-.03.02c-4.239 74.89 36.75 138.181 94.058 155.047"/><path d="m648.115 6.43.808-.177V0H484.014L330.891 359.889 177.768 0H.059v6.253l.798.177c30.1 6.794 45.382 16.926 45.382 53.466v427.781c0 36.54-15.341 46.672-45.441 53.466l-.798.178v6.272h120.57v-6.253l-.797-.177c-30.101-6.794-45.383-16.926-45.383-53.466V84.71l196.703 462.883h11.156L484.683 71.801v426.461c-2.579 28.86-17.723 37.771-44.978 43.925l-.808.187v6.204h210.026v-6.204l-.808-.187c-27.284-6.154-42.793-15.065-45.372-43.925l-.138-438.366h.138c0-36.54 15.281-46.672 45.372-53.466"/></svg>