<svg xmlns="http://www.w3.org/2000/svg" width="16" height="16" viewBox="0 0 16 16"><path d="M16 10.298v1.78q-.168.017-.344.017c-2.105 0-3.29-1.753-3.34-3.946a6 6 0 0 1 .011-.491l.007-.087c.076-.969.387-1.83.902-2.468a3.17 3.17 0 0 1 2.497-1.198h.02q.123 0 .247.009v.49a1.1 1.1 0 0 0-.28-.039c-.886.018-1.414 1.08-1.48 2.551H16v.415h-1.8c-.081 1.433.703 2.645 1.8 2.967"/><path d="m12.404 2.874.016-.004v-.12H9.263l-2.93 6.888-2.93-6.888H0v.12l.015.004c.576.13.869.323.869 1.023v8.187c0 .7-.294.893-.87 1.023L0 13.111v.12h2.308v-.12l-.016-.003c-.576-.13-.868-.324-.868-1.024V4.372l3.764 8.859h.214l3.874-9.106v8.162c-.05.552-.339.722-.86.84l-.016.004v.119h4.02v-.12l-.016-.003c-.522-.118-.819-.288-.868-.84l-.003-8.39h.003c0-.7.292-.893.868-1.023"/></svg>