<?xml version="1.0" encoding="UTF-8" standalone="no"?>
<svg
   width="24"
   height="24"
   viewBox="0 0 24 24"
   xmlns="http://www.w3.org/2000/svg">
  <path
     fill="#EFCE7C"
     d="M 12.53125,0.953125 C 10.035577,0.85171367 7.5845072,1.6386602 5.6054687,3.0507813 1.6726739,5.8569836 -0.49998498,11.228761 2.0625,16.671875 a 1,1 0 0 0 0,0.03906 c 0.072069,0.181798 0.084618,0.380967 0.044922,0.572266 l -1.0371094,3.207031 a 1.0001,1.0001 0 0 0 -0.029297,0.107422 c -0.29087825,1.414274 1.0770865,2.706296 2.4726563,2.335938 a 1.0001,1.0001 0 0 0 0.023437,-0.0059 l 3.34375,-0.976562 c 0.1790082,-0.03253 0.3629091,-0.01973 0.5332031,0.04492 l -0.068359,-0.0293 C 12.856471,24.540314 18.251661,22.277436 21.027344,18.285156 23.803026,14.292876 24.049112,8.4458725 19.728516,4.1777344 17.568217,2.0436653 15.026923,1.0545363 12.53125,0.953125 Z m -0.126953,1.9511719 c 2.020904,0.071595 4.088397,0.887955 5.917969,2.6953125 3.659142,3.614715 3.366894,8.2313546 1.064453,11.5429686 -2.302441,3.311615 -6.525928,5.192312 -11.1953127,3.011719 a 1.0001,1.0001 0 0 0 -0.068359,-0.02734 C 7.5974056,19.92739 7.0261141,19.878889 6.4746094,19.988281 a 1.0001,1.0001 0 0 0 -0.085937,0.02148 L 3.0078125,20.998047 4.0371094,17.816406 A 1.0001,1.0001 0 0 0 4.0625,17.724609 C 4.1911426,17.140201 4.1423985,16.52894 3.921875,15.972656 a 1,1 0 0 0 -0.044922,-0.01953 1,1 0 0 0 0.015625,-0.04492 C 1.6551105,11.265803 3.4843356,7.0204558 6.7675781,4.6777344 8.4091994,3.5063736 10.383393,2.832702 12.404297,2.9042969 Z M 3,21 v 0.002 l -0.023437,0.0059 z" />
  <path
     fill="#EFCE7C"
     d="M 12.595703,6.0527344 C 10.868667,5.7565018 8.8613076,6.6359348 8.1464844,8.6679688 A 1,1 0 0 0 8.7578125,9.9433594 1,1 0 0 0 10.033203,9.3320313 c 0.405949,-1.1539933 1.315581,-1.4645164 2.22461,-1.3085938 0.909028,0.1559226 1.663931,0.7512978 1.662109,1.9746094 a 1.0001,1.0001 0 0 0 0,0.00195 c 0,0.5 -0.432695,1.003307 -1.054688,1.417969 -0.621992,0.414661 -1.261718,0.632812 -1.261718,0.632812 a 1,1 0 0 0 -0.632813,1.265625 1,1 0 0 0 1.265625,0.632813 c 0,0 0.860274,-0.281849 1.738281,-0.867188 0.877601,-0.585067 1.944323,-1.581241 1.945313,-3.080078 V 10 C 15.922111,7.8470075 14.32219,6.3488728 12.595703,6.0527344 Z" />
  <path
     fill="#EFCE7C"
     d="m 12,16 a 1,1 0 0 0 -1,1 1,1 0 0 0 1,1 h 0.0098 a 1,1 0 0 0 1,-1 1,1 0 0 0 -1,-1 z" />
</svg>