<svg width="24" height="24" viewBox="0 0 24 24" xmlns="http://www.w3.org/2000/svg">
  <path d="m 12,18 a 1,1 0 0 0 -1,1 v 3 a 1,1 0 0 0 1,1 1,1 0 0 0 1,-1 v -3 a 1,1 0 0 0 -1,-1 z"/>
  <path d="m 5,9 a 1,1 0 0 0 -1,1 v 2 c 0,4.406436 3.5935677,8 8,8 4.406432,0 8,-3.593564 8,-8 v -2 a 1,1 0 0 0 -1,-1 1,1 0 0 0 -1,1 v 2 c 0,3.325556 -2.674446,6 -6,6 C 8.674446,18 6,15.325556 6,12 V 10 A 1,1 0 0 0 5,9 Z"/>
  <path d="M 12,1 C 9.8012972,1 8,2.8012972 8,5 v 7 c 0,2.198703 1.8012972,4 4,4 2.198703,0 4,-1.801297 4,-4 V 5 C 16,2.8012972 14.198703,1 12,1 Z m 0,2 c 1.125297,0 2,0.8747028 2,2 v 7 c 0,1.125297 -0.874703,2 -2,2 -1.125297,0 -2,-0.874703 -2,-2 V 5 c 0,-1.1252972 0.874703,-2 2,-2 z"/>
</svg>
