<svg width="24" height="24" viewBox="0 0 24 24" xmlns="http://www.w3.org/2000/svg">
<path d="M4.503 2.042 C 3.487 2.214,2.556 2.976,2.202 3.925 C 1.993 4.484,2.001 4.151,2.001 11.992 C 2.000 19.977,1.988 19.546,2.234 20.151 C 2.521 20.857,3.143 21.479,3.849 21.766 C 4.453 22.012,4.024 22.000,12.000 22.000 C 19.974 22.000,19.547 22.012,20.150 21.767 C 20.850 21.482,21.482 20.850,21.767 20.150 C 22.012 19.547,22.000 19.974,22.000 12.000 C 22.000 4.024,22.012 4.453,21.766 3.849 C 21.499 3.193,20.964 2.633,20.296 2.312 C 19.636 1.994,20.412 2.023,12.120 2.015 C 8.039 2.012,4.611 2.024,4.503 2.042 M19.340 4.066 C 19.455 4.105,19.603 4.201,19.701 4.299 C 20.016 4.614,20.000 4.371,20.000 8.716 L 20.000 12.577 19.230 11.816 C 18.361 10.956,18.248 10.862,17.854 10.664 C 16.895 10.183,15.746 10.247,14.840 10.831 C 14.704 10.919,12.902 12.689,10.099 15.487 L 5.579 20.000 5.217 20.000 C 4.758 20.000,4.521 19.923,4.299 19.701 C 3.975 19.377,4.000 20.023,4.000 12.000 C 4.000 3.975,3.975 4.623,4.300 4.298 C 4.616 3.982,3.975 4.007,11.983 4.003 C 18.550 4.000,19.162 4.006,19.340 4.066 M8.503 6.040 C 7.828 6.162,7.156 6.550,6.703 7.080 C 5.987 7.917,5.806 9.100,6.234 10.151 C 6.521 10.857,7.143 11.479,7.849 11.766 C 8.989 12.230,10.251 11.978,11.115 11.115 C 12.238 9.992,12.295 8.212,11.246 7.020 C 10.897 6.624,10.276 6.239,9.756 6.097 C 9.491 6.024,8.770 5.991,8.503 6.040 M9.340 8.066 C 9.709 8.192,10.000 8.604,10.000 9.000 C 10.000 9.527,9.527 10.000,9.000 10.000 C 8.758 10.000,8.479 9.881,8.299 9.701 C 7.907 9.309,7.908 8.690,8.300 8.298 C 8.577 8.020,8.957 7.936,9.340 8.066 M16.803 12.384 C 17.010 12.444,17.092 12.519,18.510 13.933 L 20.000 15.418 20.000 17.282 C 20.000 19.395,19.999 19.403,19.701 19.701 C 19.380 20.022,19.809 20.000,13.783 20.000 L 8.420 20.000 12.200 16.223 C 15.747 12.679,15.992 12.442,16.180 12.386 C 16.441 12.307,16.541 12.307,16.803 12.384 "></path>
</svg>
