<svg width="24" height="24" viewBox="0 0 24 24" xmlns="http://www.w3.org/2000/svg">
<path clip-rule="evenodd" d="M8.73178 3.35982C8.92177 3.13182 9.20322 3 9.5 3H14.5C14.7968 3 15.0782 3.13182 15.2682 3.35982L17.4684 6H20C20.7957 6 21.5587 6.31607 22.1213 6.87868C22.6839 7.44129 23 8.20435 23 9V18C23 18.7957 22.6839 19.5587 22.1213 20.1213C21.5587 20.6839 20.7957 21 20 21H4C3.20435 21 2.44129 20.6839 1.87868 20.1213C1.31607 19.5587 1 18.7956 1 18V9C1 8.20435 1.31607 7.44129 1.87868 6.87868C2.44129 6.31607 3.20435 6 4 6H6.53162L8.73178 3.35982ZM9.96837 5L7.76822 7.64018C7.57823 7.86818 7.29678 8 7 8H4C3.73478 8 3.48043 8.10536 3.29289 8.29289C3.10536 8.48043 3 8.73478 3 9V18C3 18.2652 3.10536 18.5196 3.29289 18.7071C3.48043 18.8946 3.73478 19 4 19H20C20.2652 19 20.5196 18.8946 20.7071 18.7071C20.8946 18.5196 21 18.2652 21 18V9C21 8.73478 20.8946 8.48043 20.7071 8.29289C20.5196 8.10536 20.2652 8 20 8H17C16.7032 8 16.4218 7.86818 16.2318 7.64018L14.0316 5H9.96837ZM12 11C10.8954 11 10 11.8954 10 13C10 14.1046 10.8954 15 12 15C13.1046 15 14 14.1046 14 13C14 11.8954 13.1046 11 12 11ZM8 13C8 10.7909 9.79086 9 12 9C14.2091 9 16 10.7909 16 13C16 15.2091 14.2091 17 12 17C9.79086 17 8 15.2091 8 13Z"/>
</svg>
