<svg width="24" height="25" viewBox="0 0 24 25" xmlns="http://www.w3.org/2000/svg">
<path d="M16.2947 2.7946C16.6842 2.40505 17.3158 2.40505 17.7053 2.7946L21.7053 6.7946C21.8141 6.90338 21.8925 7.03102 21.9405 7.167C21.9774 7.27116 21.9975 7.38327 21.9975 7.50006C21.9975 7.66229 21.9588 7.81547 21.8901 7.95087C21.8659 7.99844 21.8378 8.04449 21.8055 8.08849C21.7726 8.13358 21.7359 8.17579 21.6959 8.21469L17.7053 12.2053C17.3158 12.5948 16.6842 12.5948 16.2947 12.2053C15.9051 11.8157 15.9051 11.1842 16.2947 10.7946L18.5917 8.49756H9C8.4491 8.49756 8.0025 8.05097 8.0025 7.50006C8.0025 6.94916 8.4491 6.50256 9 6.50256H18.5919L16.2947 4.20528C15.9051 3.81573 15.9051 3.18415 16.2947 2.7946Z"/>
<path d="M7.70534 12.7947C8.09489 13.1843 8.09489 13.8159 7.70534 14.2054L5.40842 16.5023H15C15.5509 16.5023 15.9975 16.9489 15.9975 17.4998C15.9975 18.0507 15.5509 18.4973 15 18.4973H5.40793L7.70534 20.7947C8.09489 21.1843 8.09489 21.8159 7.70534 22.2054C7.31579 22.595 6.68421 22.595 6.29466 22.2054L2.29466 18.2054C2.17344 18.0842 2.08994 17.9395 2.04416 17.786C2.01706 17.6954 2.0025 17.5993 2.0025 17.4998C2.0025 17.2177 2.11964 16.9629 2.30795 16.7814L6.29466 12.7947C6.68421 12.4052 7.31579 12.4052 7.70534 12.7947Z"/>
</svg>
