<svg width="16" height="16" viewBox="0 0 16 16" xmlns="http://www.w3.org/2000/svg"><path d="M2.307 1.373 C 1.927 1.445,1.600 1.611,1.318 1.874 C 1.061 2.114,0.883 2.386,0.770 2.714 L 0.680 2.973 0.680 6.667 L 0.680 10.360 0.768 10.612 C 0.876 10.921,0.998 11.127,1.207 11.350 C 1.470 11.631,1.723 11.790,2.120 11.924 L 2.307 11.986 4.820 11.994 L 7.333 12.002 7.333 12.668 L 7.333 13.333 6.298 13.333 C 5.109 13.333,5.068 13.339,4.873 13.529 C 4.605 13.789,4.602 14.203,4.866 14.467 C 5.077 14.678,4.891 14.667,8.000 14.667 C 11.109 14.667,10.923 14.678,11.134 14.467 C 11.398 14.203,11.395 13.789,11.127 13.529 C 10.932 13.339,10.891 13.333,9.702 13.333 L 8.667 13.333 8.667 12.668 L 8.667 12.002 11.180 11.994 L 13.693 11.986 13.880 11.924 C 14.615 11.677,15.090 11.174,15.285 10.440 C 15.337 10.244,15.337 3.090,15.285 2.893 C 15.126 2.294,14.745 1.812,14.230 1.560 C 13.752 1.325,14.374 1.347,8.080 1.342 C 3.539 1.339,2.458 1.344,2.307 1.373 M13.553 2.705 C 13.701 2.757,13.829 2.866,13.913 3.008 L 13.987 3.133 13.987 6.667 L 13.987 10.200 13.913 10.326 C 13.829 10.468,13.701 10.576,13.553 10.629 C 13.405 10.682,2.595 10.682,2.447 10.629 C 2.299 10.576,2.171 10.468,2.087 10.326 L 2.013 10.200 2.013 6.667 L 2.013 3.133 2.087 3.008 C 2.171 2.866,2.299 2.757,2.447 2.705 C 2.595 2.652,13.405 2.652,13.553 2.705 " ></path></svg>