<svg width="20" height="20" viewBox="0 0 20 20" xmlns="http://www.w3.org/2000/svg">
<path clip-rule="evenodd" d="M10.0812 0.509026C10.2747 0.852408 10.2485 1.27744 10.0142 1.59441C9.15995 2.75007 8.74889 4.17394 8.85576 5.60705C8.96263 7.04016 9.58033 8.38732 10.5965 9.40349C11.6127 10.4197 12.9598 11.0374 14.393 11.1442C15.8261 11.2511 17.2499 10.8401 18.4056 9.98584C18.7226 9.75154 19.1476 9.7253 19.491 9.91883C19.8344 10.1124 20.032 10.4895 19.9958 10.882C19.821 12.7734 19.1112 14.5758 17.9494 16.0785C16.7876 17.5811 15.2219 18.7218 13.4354 19.3671C11.649 20.0123 9.71574 20.1355 7.86187 19.7221C6.008 19.3088 4.3102 18.376 2.96712 17.0329C1.62404 15.6898 0.691246 13.992 0.277877 12.1381C-0.135492 10.2843 -0.0123355 8.35101 0.632936 6.56457C1.27821 4.77814 2.4189 3.21243 3.92155 2.05064C5.4242 0.888844 7.22664 0.179028 9.11798 0.00424446C9.51047 -0.0320265 9.88765 0.165643 10.0812 0.509026ZM7.31639 2.43906C6.53877 2.72041 5.8056 3.12203 5.14488 3.63287C3.94276 4.56231 3.0302 5.81488 2.51399 7.24402C1.99777 8.67317 1.89924 10.2198 2.22994 11.7029C2.56063 13.186 3.30687 14.5442 4.38133 15.6187C5.45579 16.6931 6.81404 17.4394 8.29713 17.7701C9.78023 18.1008 11.3268 18.0022 12.756 17.486C14.1851 16.9698 15.4377 16.0572 16.3671 14.8551C16.878 14.1944 17.2796 13.4612 17.5609 12.6836C16.5078 13.0646 15.3782 13.2233 14.2442 13.1387C12.3334 12.9962 10.5372 12.1726 9.1823 10.8177C7.82739 9.4628 7.0038 7.6666 6.8613 5.75578C6.77674 4.62181 6.93538 3.49218 7.31639 2.43906Z"/>
</svg>
