<?xml version="1.0" encoding="UTF-8" standalone="no"?>
<svg
   width="24"
   height="24"
   viewBox="0 0 24 24"
   version="1.1"
   id="svg6"
   sodipodi:docname="notepad-text.svg"
   inkscape:version="1.4.3 (0d15f75, 2025-12-25)"
   xmlns:inkscape="http://www.inkscape.org/namespaces/inkscape"
   xmlns:sodipodi="http://sodipodi.sourceforge.net/DTD/sodipodi-0.dtd"
   xmlns="http://www.w3.org/2000/svg"
   xmlns:svg="http://www.w3.org/2000/svg">
  <path
     id="path7"
     d="m 8,17 a 1,1 0 0 0 -1,1 1,1 0 0 0 1,1 h 5 a 1,1 0 0 0 1,-1 1,1 0 0 0 -1,-1 z m 0,-4 a 1,1 0 0 0 -1,1 1,1 0 0 0 1,1 h 8 a 1,1 0 0 0 1,-1 1,1 0 0 0 -1,-1 z M 8,9 a 1,1 0 0 0 -1,1 1,1 0 0 0 1,1 h 6 A 1,1 0 0 0 15,10 1,1 0 0 0 14,9 Z M 6,3 C 4.3552972,3 3,4.3552972 3,6 v 14 c 0,1.644703 1.3552972,3 3,3 h 12 c 1.644703,0 3,-1.355297 3,-3 V 6 C 21,4.3552972 19.644703,3 18,3 Z m 0,2 h 12 c 0.571297,0 1,0.4287028 1,1 v 14 c 0,0.571297 -0.428703,1 -1,1 H 6 C 5.4287028,21 5,20.571297 5,20 V 6 C 5,5.4287028 5.4287028,5 6,5 Z M 16,1 a 1,1 0 0 0 -1,1 v 1 h 2 V 2 A 1,1 0 0 0 16,1 Z m -1,4 v 1 a 1,1 0 0 0 1,1 1,1 0 0 0 1,-1 V 5 Z M 12,1 a 1,1 0 0 0 -1,1 v 1 h 2 V 2 A 1,1 0 0 0 12,1 Z m -1,4 v 1 a 1,1 0 0 0 1,1 1,1 0 0 0 1,-1 V 5 Z M 8,1 A 1,1 0 0 0 7,2 V 3 H 9 V 2 A 1,1 0 0 0 8,1 Z M 7,5 V 6 A 1,1 0 0 0 8,7 1,1 0 0 0 9,6 V 5 Z" />
</svg>
