<svg xmlns="http://www.w3.org/2000/svg" width="22" height="22" viewBox="0 0 22 22"><path d="M5.369 10.08c-.387 0-.638-.228-.638-.624v-3.49H4.71l-.742.493a.472.472 0 0 1-.281.083c-.273 0-.457-.175-.457-.435 0-.189.083-.33.272-.457l.936-.624c.32-.206.514-.272.84-.272.47 0 .733.22.733.637v4.065c0 .396-.25.624-.641.624Zm-1.371 7.921c-.348 0-.567-.207-.567-.536 0-.229.1-.418.334-.624L5.47 15.29c.466-.444.624-.682.624-.985 0-.36-.3-.628-.743-.628-.303 0-.54.114-.685.316a.77.77 0 0 0-.115.224c-.096.25-.263.374-.545.374-.312 0-.523-.207-.523-.506 0-.1.014-.184.044-.285.198-.594.853-1.09 1.86-1.09 1.181 0 1.955.628 1.955 1.53 0 .65-.484 1.133-.963 1.595L5.101 16.99v.022h1.867c.308 0 .519.198.519.497 0 .294-.211.492-.519.492h-2.97ZM10 8a1 1 0 0 1 1-1h8a1 1 0 1 1 0 2h-8a1 1 0 0 1-1-1Zm1 6h8a1 1 0 1 1 0 2h-8a1 1 0 1 1 0-2Z" clip-rule="evenodd"/></svg>