<svg width="16" height="16" viewBox="0 0 16 16" xmlns="http://www.w3.org/2000/svg">
<path d="M10.0667 12.9134L10.7333 14.0734C10.0933 14.3667 9.39334 14.56 8.66667 14.6334V13.2867C9.16 13.2267 9.62667 13.1 10.0667 12.9134ZM2.71333 8.6667H1.36667C1.44 9.40003 1.63333 10.0934 1.92667 10.7334L3.08667 10.0667C2.9 9.6267 2.77333 9.16003 2.71333 8.6667ZM10.0667 3.0867L10.7333 1.9267C10.0933 1.63337 9.4 1.44003 8.66667 1.3667V2.71337C9.16 2.77337 9.62667 2.90003 10.0667 3.0867ZM13.2867 7.33337H14.6333C14.56 6.60003 14.3667 5.9067 14.0733 5.2667L12.9133 5.93337C13.1 6.37337 13.2267 6.84003 13.2867 7.33337ZM5.93333 12.9134L5.26667 14.0734C5.90667 14.3667 6.60667 14.56 7.33333 14.6334V13.2867C6.84 13.2267 6.37333 13.1 5.93333 12.9134ZM7.33333 2.71337V1.3667C6.6 1.44003 5.90667 1.63337 5.26667 1.9267L5.93333 3.0867C6.37333 2.90003 6.84 2.77337 7.33333 2.71337ZM12.24 4.78003L13.4 4.1067C12.98 3.5267 12.4667 3.01337 11.8867 2.59337L11.2133 3.75337C11.6067 4.05337 11.9467 4.39337 12.24 4.78003ZM3.08667 5.93337L1.92667 5.2667C1.63333 5.9067 1.44 6.60003 1.36667 7.33337H2.71333C2.77333 6.84003 2.9 6.37337 3.08667 5.93337ZM13.2867 8.6667C13.2267 9.16003 13.1 9.6267 12.9133 10.0667L14.0733 10.7334C14.3667 10.0934 14.56 9.39337 14.6333 8.6667H13.2867ZM11.22 12.24L11.8933 13.4C12.4733 12.98 12.9867 12.4667 13.4067 11.8867L12.2467 11.2134C11.9467 11.6067 11.6067 11.9467 11.22 12.24ZM4.78 3.76003L4.11333 2.59337C3.52667 3.02003 3.02 3.5267 2.6 4.11337L3.76 4.7867C4.05333 4.39337 4.39333 4.05337 4.78 3.76003ZM3.76 11.22L2.6 11.8867C3.02 12.4667 3.53333 12.98 4.11333 13.4L4.78667 12.24C4.39333 11.9467 4.05333 11.6067 3.76 11.22ZM8 4.6667C7.63333 4.6667 7.33333 4.9667 7.33333 5.33337V7.7267C7.33333 8.08003 7.47333 8.42003 7.72667 8.6667L9.72667 10.6667C9.98667 10.9267 10.4067 10.9267 10.6667 10.6667C10.9267 10.4067 10.9267 9.9867 10.6667 9.7267L8.66667 7.7267V5.33337C8.66667 4.9667 8.36667 4.6667 8 4.6667Z" />
</svg>
