<svg xmlns="http://www.w3.org/2000/svg" width="666.667" height="666.827" viewBox="0 0 666.667 666.827"><path d="M1571.88 179.301c-31.25 284.371-9.38 556.25 53.12 818.75l250 1078.119c-40.62 131.25-71.87 281.25-71.87 431.25 0 350 168.75 600 434.37 600 184.37 0 318.76-128.13 318.76-375 0-78.13-15.64-165.62-46.88-265.62L2400 2107.42c-21.87-68.75-31.25-134.37-31.25-190.63 0-250 190.63-390.62 434.37-390.62 434.38 0 743.76 450 743.76 1034.38 0 649.99-425 1065.63-1053.13 1065.63-700 0-1143.75-456.26-1143.75-1090.64 0-256.25 78.13-493.74 231.25-656.25-50-84.37-103.12-99.99-184.37-99.99-250 0-487.505 353.13-487.505 834.37 0 831.25 665.625 1493.74 1600.005 1493.74 981.24 0 1596.87-684.37 1596.87-1528.11 0-850-600-1487.51-1246.87-1487.51-256.26 0-481.25 109.38-637.51 306.26l-128.12-518.761C2025 610.551 1921.88 357.43 1756.25 113.68 1990.63 41.79 2221.87 1.172 2500 1.172c1381.25 0 2500 1118.748 2500 2499.998s-1118.75 2500-2500 2500S0 3882.42 0 2501.17C0 1454.29 643.754 551.18 1571.88 179.301" transform="matrix(.13333 0 0 -.13333 0 666.827)"/></svg>
