<svg width="17" height="16" viewBox="0 0 17 16" xmlns="http://www.w3.org/2000/svg">
<g opacity="0.7">
<path d="M9.33244 3.33346V7.33508H13.3343C13.7015 7.33508 13.9993 7.63281 13.9993 8.00008C13.9993 8.36735 13.7015 8.66508 13.3343 8.66508H9.33244V12.6668C9.33244 13.0341 9.03471 13.3318 8.66744 13.3318C8.30017 13.3318 8.00244 13.0341 8.00244 12.6668V8.66508H4.00094C3.63367 8.66508 3.33594 8.36735 3.33594 8.00008C3.33594 7.63281 3.63367 7.33508 4.00094 7.33508H8.00244V3.33346C8.00244 2.96619 8.30017 2.66846 8.66744 2.66846C9.03471 2.66846 9.33244 2.96619 9.33244 3.33346Z"/>
</g>
</svg>
