<svg xmlns="http://www.w3.org/2000/svg" width="204.9" height="179.22" viewBox="0 0 204.9 179.22"><path d="M128.5 26.24c2.22 9.41 10.67 16.42 20.76 16.42 11.78 0 21.33-9.55 21.33-21.33S161.04 0 149.26 0c-10.3 0-18.89 7.3-20.89 17.01-17.25 1.85-30.72 16.48-30.72 34.21v.11c-18.76.79-35.89 6.13-49.49 14.56a29.75 29.75 0 0 0-18.27-6.24C13.38 59.65 0 73.03 0 89.54c0 11.98 7.04 22.3 17.21 27.07.99 34.7 38.8 62.61 85.31 62.61s84.37-27.94 85.31-62.67c10.09-4.8 17.07-15.09 17.07-27 0-16.51-13.38-29.89-29.89-29.89-6.85 0-13.16 2.31-18.2 6.19-13.72-8.49-31.04-13.83-49.99-14.54v-.08c0-12.7 9.44-23.24 21.68-24.97zm-81.54 82.27c.5-10.84 7.7-19.16 16.07-19.16s14.77 8.79 14.27 19.63-6.75 14.78-15.13 14.78-15.71-4.41-15.21-15.25m95.06-19.16c8.38 0 15.58 8.32 16.07 19.16.5 10.84-6.84 15.25-15.21 15.25s-14.63-3.93-15.13-14.78c-.5-10.84 5.89-19.63 14.27-19.63m-9.96 44.24c1.57.16 2.57 1.79 1.96 3.25-5.15 12.31-17.31 20.96-31.5 20.96s-26.34-8.65-31.5-20.96c-.61-1.46.39-3.09 1.96-3.25 9.2-.93 19.15-1.44 29.54-1.44s20.33.51 29.54 1.44"/></svg>