<svg xmlns="http://www.w3.org/2000/svg" width="16" height="16" viewBox="0 0 16 16"><path d="M10.034 3.052a1.667 1.667 0 1 0-.01-.721 2.69 2.69 0 0 0-2.399 2.671v.009c-1.465.062-2.802.479-3.864 1.137a2.32 2.32 0 0 0-1.427-.487 2.334 2.334 0 0 0-.99 4.447c.077 2.71 3.03 4.89 6.661 4.89 3.632 0 6.589-2.182 6.662-4.894a2.335 2.335 0 1 0-2.422-3.96C11.173 5.483 9.82 5.065 8.34 5.01v-.006c0-.992.737-1.815 1.693-1.95zM3.667 9.476c.039-.847.601-1.496 1.255-1.496s1.153.686 1.114 1.533-.527 1.154-1.181 1.154c-.655 0-1.227-.345-1.188-1.191M11.09 7.98c.654 0 1.216.65 1.255 1.496s-.534 1.19-1.188 1.19-1.142-.306-1.181-1.153.46-1.533 1.114-1.533m-.778 3.454c.123.013.2.14.153.254a2.665 2.665 0 0 1-4.92 0 .185.185 0 0 1 .154-.254 23 23 0 0 1 2.306-.112c.812 0 1.588.04 2.307.112"/></svg>