<?xml version="1.0" encoding="UTF-8" standalone="no"?>
<svg
   width="16"
   height="16"
   viewBox="0 0 16 16"
   xmlns="http://www.w3.org/2000/svg">
  <path
     d="M7.99875 2.66502C6.58427 2.66535 5.2278 3.22739 4.22759 4.22761C3.22708 5.22811 2.665 6.58509 2.665 8.00002C2.665 8.36729 2.36727 8.66502 2 8.66502C1.63273 8.66502 1.335 8.36729 1.335 8.00002C1.335 6.23235 2.0372 4.53709 3.28713 3.28716C4.53706 2.03723 6.23233 1.33502 8 1.33502H8.0025C9.85147 1.34198 11.6262 2.06345 12.9555 3.34858L12.9636 3.35646L13.335 3.7279V2.00002C13.335 1.63275 13.6327 1.33502 14 1.33502C14.3673 1.33502 14.665 1.63275 14.665 2.00002V5.33336C14.665 5.70062 14.3673 5.99836 14 5.99836H10.6667C10.2994 5.99836 10.0017 5.70062 10.0017 5.33336C10.0017 4.96609 10.2994 4.66836 10.6667 4.66836H12.3945L12.0272 4.30099C10.9453 3.25709 9.50223 2.671 7.99875 2.66502ZM11.7724 11.7724C12.7729 10.7719 13.335 9.41495 13.335 8.00002C13.335 7.63275 13.6327 7.33502 14 7.33502C14.3673 7.33502 14.665 7.63275 14.665 8.00002C14.665 9.76769 13.9628 11.463 12.7129 12.7129C11.4629 13.9628 9.76767 14.665 8 14.665L7.9975 14.665C6.14853 14.6581 4.37382 13.9366 3.04446 12.6515L3.03644 12.6436L2.665 12.2721V14C2.665 14.3673 2.36727 14.665 2 14.665C1.63273 14.665 1.335 14.3673 1.335 14V10.6667C1.335 10.2994 1.63273 10.0017 2 10.0017H5.33333C5.7006 10.0017 5.99833 10.2994 5.99833 10.6667C5.99833 11.034 5.7006 11.3317 5.33333 11.3317H3.60545L3.97282 11.6991C5.05467 12.743 6.49776 13.329 8.00123 13.335C9.41572 13.3347 10.7722 12.7727 11.7724 11.7724Z" />
</svg>
