<svg xmlns="http://www.w3.org/2000/svg" width="16" height="16" viewBox="0 0 16 16"><g><path d="M5.80831 4.76458h.01043c.57643 0 1.04371.46728 1.04371 1.04371 0 .57642-.46728 1.0437-1.04371 1.0437h-.01043c-.57643 0-1.04371-.46728-1.04371-1.0437 0-.57643.46728-1.04371 1.04371-1.04371Zm3.33985 1.04371c0-.57643.46728-1.04371 1.04374-1.04371h.0104c.5764 0 1.0437.46728 1.0437 1.04371 0 .57642-.4673 1.0437-1.0437 1.0437h-.0104c-.57646 0-1.04374-.46728-1.04374-1.0437ZM5.63288 9.04482c1.18356 1.57808 3.55068 1.57808 4.73422 0 .23-.30666.6651-.36881.9717-.13882.3067.22999.3688.66504.1388.97169-1.73879 2.31841-5.21641 2.31841-6.95523 0-.22999-.30665-.16784-.7417.13882-.97169.30665-.22999.74169-.16784.97169.13882Z"/><path d="M8 0c4.4183 0 8 3.58172 8 8 0 4.4183-3.5817 8-8 8-4.41828 0-8-3.5817-8-8 0-4.41828 3.58172-8 8-8ZM1.38813 8c0 3.6516 2.96023 6.6119 6.61187 6.6119 3.6516 0 6.6119-2.9603 6.6119-6.6119 0-3.65164-2.9603-6.61187-6.6119-6.61187-3.65164 0-6.61187 2.96023-6.61187 6.61187Z"/></g></svg>