<svg xmlns="http://www.w3.org/2000/svg" width="16" height="16" viewBox="0 0 16 16"><path d="M15.943 11.646c-.111-.302-.323-.464-.564-.598a1 1 0 0 0-.123-.064q-.109-.056-.219-.112c-.751-.398-1.338-.901-1.746-1.497a3.4 3.4 0 0 1-.3-.531c-.034-.1-.032-.156-.007-.208a.3.3 0 0 1 .096-.1l.352-.23c.161-.105.289-.187.371-.246.309-.216.525-.445.66-.701a1.4 1.4 0 0 0 .069-1.16c-.205-.538-.713-.872-1.329-.872a2 2 0 0 0-.386.04l-.1.024c.005-.368-.003-.756-.036-1.138-.116-1.344-.587-2.048-1.077-2.61a4.3 4.3 0 0 0-1.095-.881C9.764.337 8.92.12 7.999.12S6.24.337 5.495.76a4.3 4.3 0 0 0-1.097.884c-.49.561-.96 1.267-1.077 2.61-.033.382-.04.772-.036 1.138l-.1-.024a2 2 0 0 0-.386-.04c-.616 0-1.125.333-1.329.871a1.4 1.4 0 0 0 .067 1.162c.136.256.352.485.66.701.082.057.21.14.371.245l.339.222a.4.4 0 0 1 .109.11c.026.053.027.11-.012.217a3.4 3.4 0 0 1-.295.52c-.398.583-.968 1.076-1.696 1.472-.385.204-.786.34-.955.8-.128.348-.044.742.28 1.075a1.6 1.6 0 0 0 .409.31 4.4 4.4 0 0 0 1 .4.7.7 0 0 1 .202.09c.118.104.102.26.259.488a1.1 1.1 0 0 0 .296.3c.33.229.701.243 1.095.258.355.013.758.029 1.217.18.19.064.389.185.618.328.55.338 1.305.801 2.566.801 1.262 0 2.02-.465 2.576-.805.227-.14.424-.26.609-.322.46-.152.863-.167 1.218-.18.393-.016.764-.03 1.095-.258a1.14 1.14 0 0 0 .336-.368c.114-.192.11-.327.217-.42a.6.6 0 0 1 .19-.088 4.5 4.5 0 0 0 1.014-.403 1.6 1.6 0 0 0 .429-.337l.004-.004c.304-.326.38-.71.256-1.048m-1.122.603c-.683.378-1.138.337-1.492.565-.3.193-.122.61-.34.76-.269.186-1.061-.013-2.085.326-.845.279-1.384 1.082-2.903 1.082s-2.045-.802-2.904-1.085c-1.022-.338-1.816-.14-2.084-.325-.218-.15-.041-.567-.341-.76-.354-.228-.809-.188-1.492-.563-.436-.24-.189-.39-.044-.46 2.478-1.2 2.873-3.05 2.89-3.188.022-.167.045-.297-.138-.467-.177-.163-.962-.65-1.18-.801-.36-.252-.52-.504-.402-.813.082-.213.281-.294.49-.294a1 1 0 0 1 .197.022c.396.086.78.284 1.002.338a.4.4 0 0 0 .082.01c.118 0 .16-.059.152-.195-.026-.433-.087-1.276-.019-2.065.094-1.085.444-1.622.859-2.098.2-.228 1.137-1.219 2.93-1.219 1.792 0 2.732.987 2.931 1.214.416.476.766 1.013.859 2.098.068.789.009 1.633-.019 2.066-.01.142.034.195.152.195a.4.4 0 0 0 .082-.011c.222-.054.607-.252 1.002-.338a1 1 0 0 1 .197-.022c.21 0 .409.082.49.294.118.31-.04.56-.401.813-.218.152-1.003.637-1.18.801-.184.17-.16.3-.139.467.018.14.413 1.991 2.89 3.188.147.074.394.222-.042.465"/></svg>