<svg width="16" height="16" viewBox="0 0 16 16" xmlns="http://www.w3.org/2000/svg">
  <path d="M 8,3.9999137 A 0.5714409,0.5714409 0 0 0 7.4285591,4.5713546 V 11.428645 A 0.5714409,0.5714409 0 0 0 8,12.000086 0.5714409,0.5714409 0 0 0 8.5714409,11.428645 V 4.5713546 A 0.5714409,0.5714409 0 0 0 8,3.9999137 Z"/>
  <path d="m 4.5713546,7.4285591 a 0.5714409,0.5714409 0 0 0 -0.4040265,0.1674143 0.5714409,0.5714409 0 0 0 0,0.8080531 l 3.4286454,3.4286455 a 0.57149804,0.57149804 0 0 0 0.808053,0 L 11.832672,8.4040265 a 0.5714409,0.5714409 0 0 0 0,-0.8080531 0.5714409,0.5714409 0 0 0 -0.808053,0 L 8,10.620592 4.9753811,7.5959734 A 0.5714409,0.5714409 0 0 0 4.5713546,7.4285591 Z"/>
</svg>
