<svg width="16" height="16" viewBox="0 0 16 16" xmlns="http://www.w3.org/2000/svg"><path d="M7.547 0.683 C 6.921 0.738,6.425 0.825,5.947 0.964 C 3.348 1.719,1.347 3.893,0.817 6.538 C 0.703 7.109,0.681 7.344,0.681 8.000 C 0.681 8.656,0.703 8.891,0.817 9.462 C 1.001 10.377,1.371 11.267,1.891 12.043 C 2.317 12.678,2.834 13.248,3.399 13.707 C 4.508 14.607,5.937 15.180,7.387 15.306 C 8.996 15.446,10.687 15.015,12.018 14.127 C 12.887 13.547,13.530 12.906,14.109 12.043 C 15.728 9.629,15.735 6.391,14.127 3.982 C 13.820 3.522,13.618 3.273,13.241 2.884 C 12.087 1.697,10.598 0.952,8.946 0.733 C 8.634 0.692,7.786 0.661,7.547 0.683 M8.560 2.029 C 10.633 2.222,12.477 3.498,13.388 5.372 C 13.669 5.950,13.828 6.461,13.937 7.133 C 14.004 7.543,14.004 8.457,13.937 8.867 C 13.828 9.539,13.669 10.050,13.388 10.628 C 12.681 12.081,11.414 13.190,9.887 13.692 C 6.666 14.752,3.241 12.969,2.254 9.720 C 1.621 7.636,2.208 5.309,3.759 3.759 C 5.017 2.500,6.784 1.864,8.560 2.029 M5.782 5.375 C 5.616 5.427,5.435 5.604,5.378 5.773 C 5.338 5.890,5.333 6.116,5.333 8.000 C 5.333 10.363,5.325 10.260,5.533 10.467 C 5.740 10.675,5.637 10.667,8.000 10.667 C 10.363 10.667,10.260 10.675,10.467 10.467 C 10.675 10.260,10.667 10.363,10.667 8.000 C 10.667 5.626,10.676 5.738,10.460 5.529 C 10.252 5.326,10.340 5.333,7.988 5.335 C 6.259 5.337,5.886 5.344,5.782 5.375 M9.333 8.000 L 9.333 9.333 8.000 9.333 L 6.667 9.333 6.667 8.000 L 6.667 6.667 8.000 6.667 L 9.333 6.667 9.333 8.000 " ></path></svg>