<svg xmlns="http://www.w3.org/2000/svg" xml:space="preserve" width="16" height="16" viewBox="0 0 16 16"><path d="M8.124 16h-.005c-2.387-.016-4.222-.803-5.456-2.34-1.096-1.367-1.662-3.27-1.681-5.654v-.01C1 5.61 1.567 3.708 2.665 2.34 3.897.803 5.734.016 8.119 0h.01c1.83.013 3.361.483 4.55 1.398 1.119.861 1.906 2.087 2.34 3.645l-1.36.38c-.737-2.64-2.599-3.99-5.537-4.01-1.939.014-3.406.624-4.36 1.811C2.872 4.336 2.41 5.942 2.392 8c.018 2.058.48 3.664 1.372 4.776.954 1.189 2.42 1.798 4.36 1.811 1.749-.013 2.906-.42 3.867-1.363 1.098-1.075 1.079-2.395.727-3.198-.207-.474-.583-.868-1.09-1.167q-.192 1.353-.856 2.181c-.59.734-1.427 1.136-2.486 1.194-.802.043-1.575-.146-2.173-.535-.709-.459-1.123-1.16-1.168-1.976A2.49 2.49 0 0 1 5.83 7.67c.587-.507 1.413-.805 2.389-.861a9.2 9.2 0 0 1 2.013.094c-.083-.494-.25-.888-.5-1.17-.342-.391-.871-.59-1.572-.594h-.02c-.563 0-1.327.155-1.814.88l-1.171-.786c.653-.97 1.712-1.504 2.986-1.504h.028c2.13.013 3.399 1.317 3.525 3.592q.108.045.215.094c.993.468 1.72 1.175 2.102 2.047.531 1.214.58 3.193-1.032 4.773-1.234 1.206-2.73 1.752-4.851 1.766Zm.669-7.794q-.242 0-.493.015c-1.224.069-1.987.63-1.944 1.429.045.836.968 1.225 1.856 1.177.816-.043 1.878-.361 2.058-2.473a7 7 0 0 0-1.477-.148"/></svg>