<svg width="16" height="16" viewBox="0 0 16 16" xmlns="http://www.w3.org/2000/svg">
<path d="M2.6663 2.00195H13.333C14.4336 2.00195 15.3313 2.89968 15.3313 4.00029V12.0003C15.3313 13.1009 14.4336 13.9986 13.333 13.9986H2.6663C1.5657 13.9986 0.667969 13.1009 0.667969 12.0003V4.00029C0.667969 2.89968 1.5657 2.00195 2.6663 2.00195ZM2.06858 3.70339L7.99963 7.85512L13.9307 3.70339C13.8204 3.48417 13.5927 3.33195 13.333 3.33195H2.6663C2.40653 3.33195 2.17888 3.48417 2.06858 3.70339ZM1.99797 5.27743L1.99797 12.0003C1.99797 12.3664 2.30024 12.6686 2.6663 12.6686H13.333C13.699 12.6686 14.0013 12.3664 14.0013 12.0003V5.27743L8.38099 9.21165C8.15201 9.37193 7.84726 9.37193 7.61828 9.21165L1.99797 5.27743Z" />
</svg>
