<svg width="16" height="16" viewBox="0 0 16 16" xmlns="http://www.w3.org/2000/svg">
  <path
     d="m 10.182226,0.72803666 a 3.6355726,3.6355726 0 1 1 0,7.27005394 3.6355726,3.6355726 0 0 1 0,-7.27005394 z m 2.184399,3.63557244 a 2.1843994,2.1843994 0 1 0 -4.3687987,0 2.1843994,2.1843994 0 0 0 4.3687987,0 z m -0.0022,5.0932932 a 3.6355726,3.6355726 0 0 1 3.635572,3.6355717 v 1.454448 a 0.725587,0.725587 0 0 1 -1.451174,0 V 13.092474 A 2.1843987,2.1843987 0 0 0 12.364442,10.908076 H 8.0000085 a 2.1843987,2.1843987 0 0 0 -2.1843986,2.184398 v 1.454448 a 0.725587,0.725587 0 0 1 -1.451174,0 V 13.092474 A 3.6355726,3.6355726 0 0 1 8.0000085,9.4569023 Z M 3.6104801,10.095201 A 0.72558695,0.72558695 0 0 1 3.0900216,10.978998 2.1843987,2.1843987 0 0 0 1.451177,13.092474 v 1.454448 a 0.725587,0.725587 0 1 1 -1.451174,0 V 13.091383 A 3.6355726,3.6355726 0 0 1 2.7277736,9.5747419 0.72558695,0.72558695 0 0 1 3.6115712,10.095201 Z M 4.90999,0.84478524 a 0.72589886,0.72589886 0 1 1 0.3600658,1.40643846 2.1843987,2.1843987 0 0 0 0,4.2313176 0.72558695,0.72558695 0 0 1 -0.3600658,1.4053474 3.6355726,3.6355726 0 0 1 0,-7.04310346 z"/>
</svg>
