<svg width="16" height="16" viewBox="0 0 16 16" xmlns="http://www.w3.org/2000/svg">
<path d="M9.1999 1.53369C10.7463 1.53369 11.9999 2.78729 11.9999 4.33369C11.9999 5.88009 10.7463 7.13369 9.1999 7.13369C7.6535 7.13369 6.3999 5.88009 6.3999 4.33369C6.3999 2.78729 7.6535 1.53369 9.1999 1.53369ZM7.73324 4.33369C7.73324 5.14371 8.38988 5.80036 9.1999 5.80036C10.0099 5.80036 10.6666 5.14371 10.6666 4.33369C10.6666 3.52367 10.0099 2.86702 9.1999 2.86702C8.38988 2.86702 7.73324 3.52367 7.73324 4.33369Z"/>
<path d="M3.37417 9.83628C3.17511 10.0931 3.06695 10.4087 3.06667 10.7336V11.7999C3.06667 12.1681 2.76819 12.4666 2.4 12.4666C2.03181 12.4666 1.73333 12.1681 1.73333 11.7999L1.73334 10.7328C1.7338 10.1124 1.94029 9.50971 2.32038 9.01939C2.70047 8.52907 3.23264 8.17887 3.83333 8.02377C4.18983 7.93172 4.55345 8.1461 4.6455 8.5026C4.73755 8.8591 4.52317 9.22272 4.16667 9.31477C3.85202 9.39601 3.57326 9.57945 3.37417 9.83628Z"/>
<path d="M5.30128 1.6237C5.65796 1.53237 6.02114 1.74749 6.11247 2.10417C6.2038 2.46085 5.98868 2.82404 5.632 2.91536C5.31651 2.99614 5.03688 3.17962 4.8372 3.43688C4.63751 3.69413 4.52912 4.01053 4.52912 4.3362C4.52912 4.66186 4.63751 4.97826 4.8372 5.23552C5.03688 5.49277 5.31651 5.67625 5.632 5.75703C5.98868 5.84835 6.2038 6.21154 6.11247 6.56822C6.02114 6.92491 5.65796 7.14002 5.30128 7.0487C4.69899 6.89449 4.16515 6.5442 3.78393 6.05308C3.40271 5.56195 3.19579 4.95792 3.19579 4.3362C3.19579 3.71448 3.40271 3.11044 3.78393 2.61931C4.16515 2.12819 4.69899 1.77791 5.30128 1.6237Z"/>
<path d="M6.42775 9.83628C6.2287 10.0931 6.12054 10.4087 6.12025 10.7336V11.7999C6.12025 12.1681 5.82178 12.4666 5.45359 12.4666C5.0854 12.4666 4.78692 12.1681 4.78692 11.7999L4.78692 10.7328C4.78739 10.1124 4.99387 9.50971 5.37397 9.01939C5.75406 8.52907 6.28623 8.17887 6.88692 8.02377C7.24342 7.93172 7.60704 8.1461 7.69909 8.5026C7.79113 8.8591 7.57675 9.22272 7.22025 9.31477C6.90561 9.39601 6.62685 9.57945 6.42775 9.83628Z"/>
<path d="M10.4189 9.15355L10.4521 9.23639C10.5876 9.21514 10.7266 9.2041 10.8682 9.2041C10.967 9.2041 11.0646 9.20948 11.1607 9.21997L11.1706 9.19024C11.2867 8.84182 11.6633 8.65352 12.0118 8.76966C12.3602 8.8858 12.5485 9.2624 12.4323 9.61082L12.4053 9.69184C12.6189 9.84292 12.8093 10.0246 12.9701 10.2306L13.0878 10.1835C13.4288 10.0471 13.8159 10.2129 13.9523 10.5539C14.0887 10.8949 13.9228 11.282 13.5818 11.4184L13.5005 11.4509C13.522 11.5871 13.5332 11.7268 13.5332 11.8691C13.5332 11.9679 13.5278 12.0655 13.5173 12.1616L13.5451 12.1708C13.8935 12.287 14.0818 12.6636 13.9657 13.012C13.8496 13.3604 13.4729 13.5487 13.1245 13.4326L13.0455 13.4062C12.8942 13.6201 12.7121 13.8108 12.5058 13.9717L12.5523 14.0878C12.6887 14.4288 12.5228 14.8158 12.1818 14.9522C11.8408 15.0886 11.4538 14.9227 11.3174 14.5817L11.2853 14.5016C11.1494 14.523 11.0101 14.5341 10.8682 14.5341C10.7689 14.5341 10.671 14.5287 10.5746 14.5181L10.5657 14.5448C10.4495 14.8932 10.0729 15.0815 9.72452 14.9654C9.3761 14.8493 9.1878 14.4726 9.30394 14.1242L9.3301 14.0457C9.1162 13.8943 8.9256 13.7122 8.76472 13.5057L8.64846 13.5522C8.30746 13.6886 7.92045 13.5227 7.78405 13.1817C7.64765 12.8407 7.81351 12.4537 8.15451 12.3173L8.23541 12.285C8.21418 12.1495 8.20315 12.0106 8.20315 11.8691C8.20315 11.77 8.20856 11.6722 8.2191 11.5759L8.19118 11.5666C7.84276 11.4504 7.65446 11.0738 7.7706 10.7254C7.88674 10.377 8.26334 10.1887 8.61176 10.3048L8.69131 10.3313C8.84273 10.1174 9.02489 9.92673 9.23137 9.76582L9.18404 9.6475C9.04764 9.3065 9.2135 8.91949 9.55451 8.78309C9.89551 8.64669 10.2825 8.81255 10.4189 9.15355ZM10.4761 10.5926C10.4281 10.6298 10.3743 10.661 10.3151 10.6846C10.2722 10.7018 10.2286 10.7142 10.1848 10.722C9.79452 10.955 9.53315 11.3815 9.53315 11.8691C9.53315 12.0035 9.55301 12.1332 9.58995 12.2556C9.62872 12.3047 9.66117 12.3601 9.68559 12.4211C9.70352 12.466 9.71623 12.5116 9.724 12.5574C9.95764 12.9449 10.3826 13.2041 10.8682 13.2041C11.0024 13.2041 11.132 13.1843 11.2542 13.1474C11.3036 13.1082 11.3595 13.0753 11.4212 13.0507C11.4663 13.0326 11.5122 13.0199 11.5583 13.0121C11.9448 12.7782 12.2032 12.3538 12.2032 11.8691C12.2032 11.7332 12.1829 11.6021 12.1451 11.4786C12.1069 11.4299 12.0749 11.375 12.0507 11.3146C12.0332 11.2709 12.0207 11.2264 12.0129 11.1819C11.7794 10.7937 11.3541 10.5341 10.8682 10.5341C10.7317 10.5341 10.6 10.5546 10.4761 10.5926Z"/>
</svg>
