<svg width="22" height="22" viewBox="0 0 22 22" xmlns="http://www.w3.org/2000/svg">
<path d="M3.6663 4.83594C2.28651 4.83594 1.16797 5.95448 1.16797 7.33427V14.6676C1.16797 16.0474 2.28651 17.1659 3.6663 17.1659H12.833C14.2128 17.1659 15.3313 16.0474 15.3313 14.6676V12.2418L19.7981 15.2196C20.0021 15.3557 20.2645 15.3683 20.4807 15.2526C20.697 15.1369 20.832 14.9116 20.832 14.6663V7.33297C20.832 7.08772 20.697 6.86238 20.4807 6.74666C20.2645 6.63093 20.0021 6.64362 19.7981 6.77966L15.3313 9.75751V7.33427C15.3313 5.95448 14.2128 4.83594 12.833 4.83594H3.6663ZM2.49797 7.33427C2.49797 6.68902 3.02105 6.16594 3.6663 6.16594H12.833C13.4782 6.16594 14.0013 6.68902 14.0013 7.33427V14.6676C14.0013 15.3129 13.4782 15.8359 12.833 15.8359H3.6663C3.02105 15.8359 2.49797 15.3129 2.49797 14.6676V7.33427ZM19.502 13.4237L15.8658 10.9996L19.502 8.57553V13.4237Z"/>
</svg>
