<svg xmlns="http://www.w3.org/2000/svg" width="528.708" height="370.367" viewBox="0 0 528.708 370.367"><path d="M211.637 264.547V105.82l137.102 79.17ZM517.509 57.931c-6.18-22.786-23.558-40.552-46.73-46.731C429.84 0 264.16 0 264.16 0S98.868 0 57.93 11.2c-22.787 6.179-40.552 23.945-47.118 46.73C0 98.869 0 184.99 0 184.99s0 86.123 10.813 127.448c6.566 22.398 24.33 40.55 47.118 46.73 40.937 11.2 206.23 11.2 206.23 11.2s165.68 0 206.618-11.2c23.172-6.18 40.55-24.332 46.73-46.73 11.199-41.325 11.199-127.448 11.199-127.448s0-86.122-11.199-127.06"/></svg>
