<svg xmlns="http://www.w3.org/2000/svg" width="802.916" height="687.824" viewBox="0 0 802.916 687.824"><path d="M0 0v119.046l102.827-59.378Zm229.405 154.963c-4.635 17.089-17.669 30.414-35.048 35.048-30.704 8.4-154.964 8.4-154.964 8.4s-123.97 0-154.673-8.4c-17.09-4.634-30.414-17.959-35.338-35.048-8.11-30.703-8.11-95.295-8.11-95.295s0-64.592 8.11-95.586c4.924-16.799 18.248-30.413 35.338-35.047 30.703-8.4 154.673-8.4 154.673-8.4s124.26 0 154.964 8.4c17.379 4.634 30.413 18.248 35.048 35.047 8.399 30.994 8.399 95.586 8.399 95.586s0 64.592-8.399 95.295" transform="matrix(1.33333 0 0 -1.33333 348.74 423.276)"/></svg>
