<svg xmlns="http://www.w3.org/2000/svg" width="1000" height="512.867"><path fill="#FFF" d="M48.003 406.421c24.683 39.081 89.131 47.308 131.641 46.623 13.713 10.285 32.224 22.626 48.679 28.11 13.027 4.114 19.198 0 31.539-5.484 5.485-2.743 23.312-7.542 26.054-13.027 7.542-13.027-21.254-12.341 2.057-23.312l2.521-.813c15.084 3.429 35.531 17.955 50.615 14.526 2.742-.686 17.826-8.227 17.826-10.97 1.372-4.799-9.599-13.027-10.285-17.826 4.114-2.057 4.8-1.372 9.599-1.372l1.027-.002c16.501 0 33.782 2.531 49.365 6.894 14.831 4.153 33.397 13.516 49.313 12.182-7.147-10.073-12.259-21.487-12.289-34.026-.014-5.859.784-10.495 3.222-15.883 2.262-5 7.517-9.307 8.394-14.73-18.636 4.36-37.901 8.472-56.369 13.359-6.689 1.77-13.299 5.138-20.381 6.853-26.898 6.511-52.49-1.967-78.846-6.185 4.799-8.227 8.228-7.542 1.372-14.398-4.8-4.8-15.084-7.542-21.94-10.284-8.913-4.114-18.512-7.542-27.425-11.656-5.485-3.429-13.713-11.656-19.883-10.285-7.542 1.372-12.341 13.712-15.77 19.197-4.799 6.856-6.856 13.712-10.284 3.429-5.485-13.713 3.347-33.596-.766-47.994C183.677 328.26 169 353.628 150 368.712v-1.371c-36 12.341-69.854 9.599-100.706 37.709"/><path fill="#44A98C" d="M46.708 407.179c23.041 35.726 72.125 44.658 111.402 46.937 4.878.283 9.764.416 14.649.459 2.137.02 5.542-.673 7.351.677a328.588 328.588 0 0 0 9.165 6.572c11.181 7.762 22.996 14.833 35.726 19.739 11.926 4.597 21.253 1.957 32.396-3.142 8.684-3.974 18.566-6.222 26.52-11.619 3.293-2.235 5.301-6.061 4.598-10.047-.628-3.561-4.329-5.787-6.83-7.953-4.617-4 5.936-7.783 8.814-8.711 1.003-.324 3.558.974 4.525 1.291 2.22.726 4.388 1.615 6.549 2.5 4.64 1.899 9.196 4 13.83 5.917 7.349 3.04 15.221 5.753 23.282 5.142 5.319-.403 10.519-3.76 14.985-6.396 2.868-1.692 7.709-4.233 6.788-8.328-1.469-6.526-8.875-10.01-10.36-16.367l-.689 1.694c3.358-1.562 6.288-1.161 9.87-1.169 4.945-.012 9.881.25 14.809.648 10.953.884 21.802 2.915 32.419 5.715 16.992 4.481 33.401 13.846 51.45 12.712 1.042-.065 1.991-1.257 1.295-2.257-6.948-9.982-11.829-20.948-12.084-33.269-.127-6.129 1.214-12.288 4.363-17.577 2.545-4.276 6.051-7.641 7.198-12.638.261-1.135-.707-2.111-1.845-1.845-12.555 2.929-25.143 5.718-37.688 8.692a790.047 790.047 0 0 0-18.681 4.667c-6.351 1.669-12.328 4.519-18.62 6.392-26.11 7.772-53.946-1.488-79.81-5.723l.896 2.204c2.526-4.144 7.405-7.977 4.089-12.897-4.086-6.062-11.336-8.755-17.886-11.17-10.001-3.688-19.841-7.908-29.658-12.072-7.828-3.32-13.822-10.432-22.084-12.639-5.882-1.571-10.564 3.375-13.642 7.637-4.176 5.783-7.119 12.474-11.094 18.423-2.941 4.402-4.995-8.083-5.18-10.057-.417-4.446.108-8.991.598-13.408.993-8.963 2.67-18.062.391-26.964-.186-.727-1.094-1.347-1.845-1.047-24.401 9.723-38.037 33.574-57.569 49.751l2.561 1.061v-1.371c0-.936-.965-1.758-1.899-1.446-17.377 5.805-35.49 8.529-53.18 13.132-17.954 4.672-34.383 12.527-48.269 24.962-1.444 1.293.685 3.408 2.121 2.121 13.969-12.51 30.4-19.886 48.406-24.571 17.21-4.479 34.809-7.104 51.72-12.752l-1.899-1.446v1.371c0 1.4 1.593 1.862 2.561 1.061 19.032-15.763 32.485-39.512 56.246-48.979l-1.845-1.047c4.215 16.467-4.646 33.141 1.245 49.552 1.233 3.435 3.824 6.483 7.097 3.312 4.538-4.396 7.236-11.49 10.359-16.894 1.893-3.275 4.104-6.473 7.306-8.578 4.279-2.813 9.235.598 12.788 3.006 3.405 2.307 6.431 5.203 10.196 6.915 4.647 2.114 9.401 3.996 14.127 5.923 8.619 3.514 17.483 6.719 25.995 10.466 4.071 1.792 7.757 4.316 10.273 8.051 1.497 2.22-3.544 7.319-4.619 9.082-.465.764-.064 2.046.896 2.204 25.204 4.127 50.203 11.641 75.899 6.998 6.635-1.199 12.811-3.806 19.116-6.09 6.442-2.334 13.279-3.724 19.928-5.34 13.782-3.349 27.64-6.373 41.452-9.595l-1.845-1.845c-1.271 5.534-5.744 9.417-8.243 14.372-2.597 5.15-3.357 10.95-3.426 16.64-.154 12.663 5.408 24.603 12.493 34.784l1.295-2.257c-19.301 1.212-37.586-9.492-55.944-13.944-10.376-2.517-21.001-4.015-31.645-4.764-7.042-.496-15.879-1.854-22.473 1.211-.619.288-.832 1.084-.689 1.694.824 3.527 3.682 6.397 5.918 9.109 1.631 1.979 3.369 4.03 4.264 6.47.844 2.299-1.965 3.62-3.493 4.643-3.384 2.263-7.085 4.123-10.785 5.807-4.998 2.274-10.636 1.369-15.788.091-11.821-2.933-22.371-9.547-34.003-13.065-5.155-1.56-14.259 2.711-16.022 8.084-1.307 3.98 4.99 7.063 7.08 9.39 7.242 8.064-12.27 14.161-16.708 15.812-10.14 3.772-20.279 10.736-31.371 10.279-7.146-.295-14.3-3.957-20.588-7.037-6.682-3.274-13.06-7.165-19.295-11.213-3.278-2.128-6.487-4.361-9.672-6.624-2.446-1.737-5.093-4.875-8.22-4.831-6.386.091-12.774-.061-19.153-.377-13.916-.688-27.783-2.424-41.399-5.384-26.03-5.658-53.671-16.879-68.669-40.135-1.047-1.626-3.645-.124-2.593 1.508z"/><path fill="none" stroke="#44A98C" stroke-width="5" stroke-miterlimit="10" stroke-dasharray="5,8" d="M402.619 261.592c30.355-90.946 115.75-66.225 165.091-17.225h-1.902c1.902-15 7.593-31.577 20.878-38.229 11.383 22.181 13.279 68.504 7.586 92.903-9.485-2.218-17.078-9.005-22.771-20.096l-3.791-6.718c-37.956 46.583-127.14 60.118-161.295 2.446l-3.796-13.081z"/><g fill="#44A98C"><path d="M360.446 524.468c-4.046-12.09-8.339-24.312-15.287-35.088-2.665-4.134-6.493-7.446-9.761-11.087-4.56-5.08-5.641-10.762-4.899-17.426.214-1.921-2.788-1.9-3 0-1.235 11.089 3.548 17.216 10.783 24.873 10.071 10.658 14.713 25.906 19.271 39.526.611 1.825 3.509 1.042 2.893-.798z"/><path d="M358.5 511.867c.854-8.304-.172-18.123-3.74-25.761-3.78-8.093-13.445-13.994-10.314-23.84.588-1.849-2.309-2.634-2.893-.798-2.559 8.044 1.519 13.229 6.385 19.224 6.795 8.372 8.639 20.703 7.561 31.175-.197 1.924 2.805 1.905 3.001 0z"/><path d="M362.5 516.867c.526-9.737-6.124-17.531-8.566-26.567-1.449-5.36.993-11.094 2.887-16.034 1.814-4.73 2.969-9.308 2.679-14.399-.109-1.923-3.11-1.934-3 0 .563 9.89-5.692 18.186-6 28-.125 3.986 2.204 8.334 3.835 11.861 2.564 5.541 5.504 10.847 5.165 17.139-.104 1.934 2.896 1.924 3 0z"/><path d="M341.295 515.624c2.708-5.321 3.336-10.866 4.51-16.632 1.469-7.221 6.542-11.476 13.382-13.44 3.555-1.021 7.644-1.466 10.625-3.857 3.929-3.152 4.585-8.07 4.688-12.827.042-1.936-2.958-1.932-3 0-.132 6.118-1.566 10.469-7.675 12.375-3.938 1.228-7.882 1.925-11.611 3.782-11.208 5.583-8.672 19.584-13.509 29.086-.876 1.719 1.712 3.238 2.59 1.513z"/><path d="M345.295 520.624c2.776-6.251 5.815-12.404 10.877-17.135 4.804-4.489 11.261-6.769 17.124-9.466 4.407-2.027 8.373-4.707 10.962-8.877 2.893-4.661 3.808-10.666 5.187-15.879.496-1.873-2.398-2.667-2.893-.798-1.407 5.316-2.382 11.13-5.321 15.864-3.302 5.319-10.338 7.441-15.699 9.886-11.567 5.275-17.742 13.437-22.829 24.892-.776 1.751 1.808 3.278 2.592 1.513zm-19.849-6.358c3.26-13.979 12.639-25.135 24.311-33.104 6.75-4.608 18.888-6.538 20.689-15.896.364-1.89-2.527-2.696-2.893-.798-1.073 5.571-7.027 7.799-11.626 9.952-5.185 2.428-9.774 5.406-14.197 9.043-9.337 7.68-16.422 18.191-19.177 30.005-.438 1.883 2.454 2.681 2.893.798z"/><path d="M360.5 510.867c.046-9.329.193-20.116 3.983-28.782 3.268-7.471 14.426-6.097 15.017-15.218.125-1.933-2.875-1.92-3 0-.335 5.17-6.662 6.036-10.265 8.433-2.934 1.952-4.471 5.169-5.548 8.4-2.828 8.482-3.143 18.299-3.187 27.167-.01 1.935 2.99 1.934 3 0z"/><path d="M377.295 514.11c-10.204-15.777 4.814-44.089-14.539-54.539-1.702-.919-3.217 1.671-1.514 2.591 9.775 5.278 9.021 17.071 8.815 26.7-.194 9.096-.489 18.821 4.646 26.762 1.048 1.618 3.646.116 2.592-1.514zm-30.234-2.303c-9.32-8.566-15.793-19.613-20.72-31.193-1.448-3.404-2.902-6.875-5.855-9.25-3.429-2.757-8.299-2.939-12.485-2.997-1.936-.027-1.933 2.974 0 3 4.391.061 8.949.281 12.074 3.733 2.751 3.04 3.99 7.856 5.631 11.524 4.555 10.179 11.029 19.762 19.235 27.304 1.42 1.306 3.547-.81 2.12-2.121z"/><path d="M365.295 512.624c4.097-7.521 12.672-9.46 20.293-11.648 4.675-1.343 10.968-3.119 11.858-8.709.301-1.892-2.589-2.704-2.893-.798-.946 5.941-11.094 6.931-15.734 8.352-6.528 1.999-12.734 5.085-16.115 11.29-.925 1.699 1.666 3.212 2.591 1.513zm-31.538-6.052c-6.515-4.644-14.77-10.143-13.311-19.306.301-1.892-2.589-2.704-2.893-.798-1.719 10.796 6.832 17.094 14.689 22.694 1.58 1.126 3.076-1.477 1.515-2.59zM745 514.867c-5-18-5-38-7-57-1-16-14-42-6-57 10 16 15 34 15 53 0 12-5 36 6 45 1-8-4-15-3-22 1-10 6-15 11-23 3 12-3 24-1 36 16-3 6 5 7 10 0-1-5 5-5 6s5 10 5 13"/><path d="M746.446 514.468c-5.528-20.626-4.12-41.951-7.757-62.811-1.441-8.265-4.103-16.296-5.935-24.478-1.842-8.226-3.347-17.684.54-25.556h-2.59c10.765 17.555 15.887 37.794 14.528 58.362-.827 12.519-3.972 30.508 6.706 39.942 1.016.897 2.457.264 2.561-1.061.592-7.602-3.664-14.477-3-22 .762-8.633 6.322-15.23 10.795-22.243l-2.741-.358c2.585 12.004-2.645 23.908-1 36 .117.865 1.128 1.171 1.845 1.047 2.065-.356 5.111-1.236 7.182-.285.448.206-.38 2.066-.49 2.361-.793 2.112-1.867 4.155-1.59 6.478l2.561-1.061a4.94 4.94 0 0 0-.099-.111c-.461-.521-1.241-.529-1.817-.234-1.921.981-5.645 5.097-5.645 7.406 0 4.416 4.596 8.463 5 13 .171 1.911 3.172 1.928 3 0-.313-3.505-2.162-6.851-3.623-9.995-.708-1.524-1.629-2.459-.801-3.748.813-1.264 2.171-3.352 3.582-4.073l-1.817-.234.099.111c.816.922 2.717.244 2.561-1.061-.403-3.378 2.564-6.119 2.058-9.535-.629-4.235-8.614-2.316-10.956-1.912l1.845 1.047c-1.646-12.106 3.607-23.894 1-36-.287-1.334-2.084-1.389-2.741-.358-4.473 7.013-9.407 13.267-10.935 21.644-1.522 8.353 3.376 15.807 2.729 24.113l2.561-1.061c-11.146-9.848-5.916-30.066-5.569-43.018.514-19.208-5.202-38.382-15.196-54.679-.553-.903-2.073-1.046-2.59 0-7.375 14.934.864 33.627 4.312 48.563 2.369 10.264 2.512 21.065 3.313 31.534.904 11.803 2.152 23.598 5.225 35.059.497 1.87 3.391 1.077 2.889-.795zM208 512.867c0-54-6-107-17-160 16 3 18 71 20 88 3 23-7 60 3 81"/><path d="M209.5 512.867c-.072-53.926-6.157-107.61-17.054-160.399l-1.845 1.845c4.293.979 6.442 6.149 7.897 9.812 2.363 5.953 3.669 12.341 4.825 18.618 2.652 14.404 3.8 29.073 4.938 43.66 1.103 14.146 2.044 27.792 1.059 42.021-1.222 17.638-4.18 37.537 3.385 54.2.799 1.76 3.384.233 2.591-1.514-8.254-18.18-3.582-40.93-2.505-60.108.776-13.831-.944-27.618-2.071-41.394-1.2-14.673-2.61-29.435-5.739-43.841-1.627-7.493-4.398-22.254-13.582-24.346-1.157-.264-2.08.708-1.845 1.845 10.843 52.533 16.875 105.938 16.946 159.601.002 1.935 3.002 1.935 3 0zm13.5 13c-6-27-5-55-5-83v-30c0-5-3-31 1-33 8-4 6 6 7 10 1 8-3 19-4 28-1 11 0 23 0 35v67"/><path d="M224.446 525.468c-6.146-28.443-4.946-57.69-4.946-86.601 0-10.671.396-21.401-.342-32.052-.518-7.49-1.438-15.355-.352-22.83.107-.738.259-2.356.95-2.823 3.518-2.381 4.128 1.664 4.302 4.024.327 4.442.747 8.633.124 13.096-.829 5.942-2.517 11.737-3.437 17.667-.923 5.948-.737 12.117-.64 18.115.46 28.6.394 57.196.394 85.802 0 1.935 3 1.935 3 0v-47.945c0-15.649-.697-31.344-.394-46.984.246-12.656 5.217-24.528 4.102-37.208-.532-6.051-1.255-12.563-8.965-9.158-4.533 2.002-2.833 14.246-2.702 17.779.354 9.55.959 18.943.959 28.517 0 31.829-1.797 64.261 3.897 95.733.343 1.897.749 3.781 1.156 5.666.41 1.891 3.302 1.088 2.894-.798zm2.554-7.601c-2-16 7-32 10-48 2-13 0-27 4-40 4 30-9 53-14 82"/><path d="M228.5 517.867c-1.49-14.764 5.104-28.5 8.796-42.458 3.912-14.787.923-30.378 5.15-45.143l-2.946-.399c3.487 28.423-9.054 54.2-13.946 81.601-.338 1.892 2.553 2.7 2.893.798 4.94-27.668 17.574-53.701 14.054-82.399-.196-1.6-2.448-2.139-2.946-.399-4.228 14.768-1.502 30.307-5.15 45.143-3.534 14.37-10.434 28.091-8.904 43.256.191 1.906 3.193 1.925 2.999 0z"/></g><path fill="#FFF" d="M768.149 114.423c-28.039-81.467-106.907-61.595-152.475-15.9-1.76-13.9-5.252-27.812-17.523-33.776-10.52 19.875-12.269 61.6-7.002 83.463 8.749-1.993 15.772-7.957 21.02-17.896l3.506-5.954c35.049 41.717 117.422 53.648 148.975 1.986l3.499-11.923z"/><path fill="#44A587" d="M769.596 114.024c-5.735-16.369-14.49-32.312-28.464-43.059-11.892-9.146-26.195-13.558-41.127-13.689-32.18-.282-63.215 18.116-85.392 40.187l2.561 1.061c-1.778-13.547-5.158-28.228-18.267-35.071-.693-.362-1.666-.213-2.052.538-6.444 12.54-8.493 27.125-9.574 41.021-1.121 14.417-.87 29.458 2.421 43.598.188.808 1.077 1.242 1.845 1.047 13.032-3.296 19.061-13.735 25.422-24.539l-2.355.304c21.387 25.1 56.108 38.057 88.688 36.497 15.965-.765 31.765-5.655 44.715-15.138 6.567-4.808 12.074-10.851 16.603-17.589 2.79-4.15 3.582-9.618 4.978-14.37.547-1.861-2.349-2.65-2.893-.798-1.175 4-1.805 9.085-4.006 12.619-4.437 7.125-10.359 13.274-17.118 18.223-12.551 9.19-28.082 13.373-43.454 14.109-31.354 1.502-64.898-11.625-85.391-35.674-.637-.748-1.895-.479-2.355.304-5.93 10.069-11.405 20.068-23.629 23.16l1.845 1.047c-3.133-13.46-3.268-27.625-2.414-41.356.854-13.749 2.893-28.552 9.265-40.951l-2.052.538c12.102 6.317 15.142 20.001 16.78 32.48.161 1.228 1.541 2.076 2.561 1.061 21.19-21.089 49.744-37.958 80.227-39.256 14.304-.609 28.341 3.174 40.125 11.345 14.698 10.193 23.827 26.622 29.617 43.148.632 1.814 3.531 1.034 2.89-.797z"/><path fill="#FFF" d="M553.786 375.146c20.215-58.735 77.077-44.408 109.931-11.463 1.269-10.021 3.786-20.052 12.633-24.351 7.585 14.33 8.847 44.412 5.049 60.174-6.308-1.437-11.37-5.736-15.154-12.902l-2.527-4.292c-25.27 30.077-84.658 38.679-107.406 1.432l-2.526-8.598z"/><path fill="#44A587" d="M555.232 375.545c7.893-22.371 24.415-39.426 49.288-39 21.968.377 42.96 13.14 58.136 28.198 1.021 1.014 2.397.167 2.561-1.061 1.186-8.916 3.314-18.474 11.89-23.056l-2.052-.539c4.58 9.012 5.94 19.555 6.637 29.514.683 9.773.461 19.927-1.739 29.505l1.845-1.047c-8.692-2.273-12.553-9.319-16.785-16.505-.462-.785-1.717-1.049-2.355-.303-14.788 17.264-38.165 26.191-60.645 25.621-11.201-.284-22.229-3.551-31.464-9.94-4.922-3.405-9.003-7.934-12.288-12.903-1.7-2.57-2.16-6.33-3.027-9.282-.544-1.852-3.439-1.063-2.893.798.96 3.271 1.506 7.092 3.329 9.998 3.026 4.825 7.018 9.173 11.542 12.624 9.433 7.191 20.727 10.718 32.468 11.59 23.756 1.764 49.54-8.22 65.099-26.384l-2.355-.303c4.674 7.938 9.063 15.396 18.578 17.883.765.2 1.66-.243 1.845-1.047 2.378-10.353 2.483-21.194 1.745-31.743-.701-10.03-2.348-20.542-6.945-29.587-.38-.749-1.364-.906-2.052-.539-9.58 5.119-12.047 15.652-13.376 25.646l2.561-1.061c-16.173-16.048-37.995-28.695-61.273-29.095-25.756-.442-43.092 18.337-51.164 41.219-.649 1.831 2.251 2.61 2.889.799z"/><path fill="#FFF" d="M395.74 102.084c19.511-42.069 74.392-31.808 106.101-8.211 1.225-7.178 3.654-14.361 12.193-17.441 7.32 10.263 8.537 31.81 4.872 43.1-6.088-1.029-10.975-4.109-14.627-9.242l-2.438-3.074c-24.389 21.542-81.709 27.703-103.665 1.026l-2.436-6.158z"/><path fill="#44A587" d="M397.035 102.842c19.821-41.508 73.78-29.919 104.049-7.673.745.547 2.041 0 2.203-.896 1.311-7.223 3.896-13.457 11.146-16.394l-1.693-.689c7.644 11.316 8.626 29.117 4.721 41.944l1.845-1.047c-7.619-1.527-11.821-6.154-16.403-11.93-.534-.673-1.56-.486-2.121 0-15.388 13.301-37.482 18.378-57.388 18.247-10.146-.067-20.432-1.9-29.667-6.188-4.246-1.972-8.124-4.637-11.533-7.836-2.751-2.582-3.638-5.232-5.007-8.692-.703-1.777-3.605-1.003-2.893.798 1.215 3.073 2.036 5.993 4.255 8.461 3.271 3.638 7.379 6.506 11.646 8.842 9.324 5.105 20.168 7.059 30.679 7.549 21.375.997 45.573-4.836 62.027-19.059h-2.121c4.969 6.264 9.561 11.065 17.728 12.702.818.164 1.594-.224 1.845-1.047 4.124-13.542 3.054-32.298-5.023-44.255-.345-.512-1.052-.95-1.693-.689-8.267 3.349-11.709 10.039-13.241 18.488l2.203-.896c-31.593-23.219-87.633-34.223-108.153 8.749-.831 1.733 1.756 3.256 2.589 1.511z"/><path fill="#FFF" d="M170.002 259.892c-22.611-58.103-86.215-43.93-122.962-11.34-1.419-9.914-4.236-19.835-14.131-24.089-8.483 14.175-9.894 43.933-5.646 59.527 7.055-1.422 12.719-5.675 16.951-12.764l2.827-4.246c28.265 29.751 94.694 38.261 120.139 1.416l2.822-8.504z"/><path fill="#44A587" d="M171.448 259.493c-4.876-12.241-12.108-23.146-22.938-30.863-9.751-6.947-21.78-9.838-33.613-9.926-25.306-.188-50.27 12.413-68.918 28.788l2.507.662c-1.539-10.26-4.808-20.272-14.821-24.985-.734-.346-1.618-.217-2.052.539-5.079 8.839-6.827 19.252-7.743 29.276-.948 10.372-.684 21.281 1.946 31.406.212.816 1.058 1.228 1.845 1.047 10.135-2.325 15.236-9.532 20.674-17.699l-2.356.304c18.186 18.801 46.27 27.26 71.958 26.144 12.718-.553 25.42-3.99 36.143-10.955 4.979-3.234 9.475-7.414 13.017-12.178 2.333-3.138 3.128-7.076 4.351-10.76.611-1.841-2.286-2.625-2.893-.798-1.25 3.766-2.077 7.513-4.53 10.658-3.675 4.711-8.319 8.566-13.375 11.705-10.458 6.492-22.98 9.051-35.142 9.418-24.057.726-50.452-7.825-67.408-25.354-.704-.728-1.832-.484-2.356.304-4.979 7.478-9.542 14.177-18.881 16.32l1.845 1.047c-2.46-9.474-2.601-19.469-1.951-29.184.661-9.883 2.451-20.493 7.447-29.187l-2.052.539c9.344 4.397 12.02 13.713 13.442 23.192.181 1.206 1.756 1.321 2.507.662 17.758-15.593 40.737-26.983 64.644-27.876 11.052-.413 22.032 2.065 31.562 7.73 11.591 6.89 19.35 18.522 24.25 30.824.706 1.772 3.608.999 2.891-.8z"/><path fill="#FFF" d="M806.764 187.257c23.754-57.508 90.572-43.48 129.179-11.224 1.491-9.812 4.449-19.632 14.846-23.842 8.912 14.03 10.394 43.483 5.932 58.917-7.412-1.407-13.361-5.617-17.808-12.633l-2.97-4.203c-29.693 29.448-99.481 37.871-126.213 1.402l-2.966-8.417z"/><path fill="#44A587" d="M808.059 188.015c5.119-12.112 12.799-22.757 24.009-29.871 10.188-6.465 22.346-8.82 34.269-8.65 24.891.356 49.628 11.948 68.546 27.601.768.635 2.312.563 2.507-.662 1.541-9.674 4.565-18.694 14.156-22.946l-2.052-.539c5.236 8.587 7.005 19.005 7.833 28.881.802 9.562.508 19.593-2.053 28.881l1.845-1.047c-9.612-2.077-14.527-8.571-19.881-16.147-.557-.788-1.619-1.021-2.355-.303-18.099 17.642-45.146 25.288-69.933 25.107-12.686-.093-25.497-2.72-36.745-8.696-5.515-2.93-10.4-6.855-14.575-11.483-2.994-3.319-3.953-7.122-5.419-11.282-.639-1.812-3.537-1.032-2.893.798 1.148 3.259 1.875 7.245 4.034 9.989 4.045 5.141 8.898 9.383 14.419 12.875 11.13 7.041 24.506 9.968 37.508 10.686 26.541 1.465 56.4-7.035 75.725-25.873l-2.355-.303c5.817 8.233 11.262 15.275 21.674 17.525.799.173 1.619-.227 1.845-1.047 2.77-10.047 2.907-20.768 2.042-31.089-.833-9.925-2.878-20.381-8.125-28.984-.461-.756-1.294-.875-2.052-.539-10.254 4.546-13.875 14.312-15.535 24.739l2.507-.662c-19.995-16.545-45.534-28.12-71.771-28.496-27.27-.39-49.254 15.154-59.763 40.022-.746 1.76 1.837 3.291 2.588 1.515z"/><path fill="#FFF" d="M844.684 282.01c-12.184-23.217-40.691-34.476-66.918-31.731-26.92 2.818-55.251 10.493-77.286 23.913-10.372-4.169-6.204-13.165-26.796-12.233 0 0 12.361 20.672 0 40.429 18.989 1.295 16.424-8.633 26.796-12.802 22.035 13.419 49.813 22.486 71.086 25.8 26.054 4.058 63.5-1.142 73.118-33.376z"/><path fill="#46A98D" d="M845.979 281.253c-7.646-14.103-20.651-23.647-35.634-28.858-16.901-5.878-34.38-4.012-51.615-.849-19.573 3.592-38.863 9.884-56.221 19.703-1.833 1.037-1.908 1.462-3.705.441-1.202-.683-2.211-1.632-3.173-2.611-1.428-1.454-2.648-3.073-4.17-4.439-4.756-4.273-11.767-4.377-17.777-4.182-1.123.036-1.887 1.25-1.295 2.257 6.969 11.865 6.96 27.152 0 38.916-.604 1.021.183 2.199 1.295 2.257 6.658.349 12.941-.344 17.963-5.051 1.854-1.739 3.391-3.769 5.312-5.447 1.094-.955 2.823-2.473 4.179-1.658 2.383 1.434 4.827 2.764 7.28 4.073 19.029 10.151 40.136 17.201 61.383 20.808 29.343 4.981 66.302-2.193 76.33-34.203.58-1.852-2.316-2.637-2.893-.798-10.51 33.546-50.467 36.779-79.713 30.78-20.212-4.146-40.002-11.519-58.001-21.585-3.239-1.811-4.221-3.372-7.552-1.698-2.289 1.15-4.175 3.016-5.89 4.877-5.324 5.777-10.436 7.32-18.398 6.903l1.295 2.257c7.502-12.678 7.51-29.157 0-41.943l-1.295 2.257c6.248-.202 12.559-.026 17.123 4.725 2.712 2.823 5.271 6.354 9.274 7.455 2.028.558 6.457-3.208 8.237-4.159 4.796-2.559 9.782-4.753 14.827-6.766 9.045-3.609 18.437-6.318 27.914-8.518 17.392-4.037 35.48-6.807 53.063-2.508 16.391 4.007 31.155 14.122 39.266 29.079.923 1.7 3.513.186 2.591-1.515z"/><path fill="#FFF" d="M807.096 385.705c7.439-16.679 24.944-24.714 41.077-22.677 16.563 2.091 34.003 7.68 47.585 17.388 6.368-2.976 3.784-9.458 16.449-8.74 0 0-7.552 14.847.096 29.094-11.675.888-10.121-6.251-16.509-9.275-13.52 9.606-30.58 16.065-43.654 18.399-16.013 2.86-39.054-.97-45.044-24.189z"/><path fill="#46A98D" d="M808.391 386.462c16.188-34.534 61.959-21.961 86.61-4.75.444.311 1.063.236 1.514 0 2.166-1.133 3.649-2.724 5.098-4.661 2.712-3.625 6.224-4.02 10.595-3.875l-1.295-2.257c-4.742 9.568-4.611 21.119.096 30.608l1.295-2.257c-4.123.192-7.25-.392-9.945-3.636-1.783-2.147-3.293-4.095-5.807-5.435-.449-.239-1.071-.309-1.514 0-22.886 15.947-75.424 35.055-86.495-4.893-.516-1.862-3.41-1.07-2.893.798 5.58 20.135 25.331 28.469 44.936 25.547 13.151-1.961 25.924-7.034 37.489-13.483 2.191-1.222 6.922-5.735 8.973-4.1 1.465 1.169 2.508 2.867 3.695 4.296 2.924 3.52 7.23 4.108 11.561 3.906 1.181-.055 1.81-1.22 1.295-2.257-4.197-8.463-4.332-19.032-.096-27.579.509-1.026-.109-2.218-1.295-2.257-3.572-.119-7.741-.059-10.605 2.44-1.498 1.308-4.599 6.846-6.458 5.547-10.838-7.567-23.742-12.114-36.567-14.903-10.764-2.341-21.188-2.971-31.576 1.213-9.471 3.814-16.898 11.298-21.199 20.474-.819 1.74 1.767 3.265 2.588 1.514z"/><path fill="#FFF" d="M125.962 153.553c16.464-31.377 54.995-46.593 90.438-42.883 36.382 3.809 74.672 14.181 104.452 32.317 14.019-5.635 8.384-17.791 36.215-16.534 0 0-16.706 27.938 0 54.64-25.664 1.75-22.196-11.667-36.215-17.302-29.78 18.137-67.323 30.39-96.073 34.869-35.211 5.486-85.819-1.542-98.817-45.107z"/><path fill="#46A98D" d="M127.258 154.311c10.702-19.902 29.812-32.857 51.236-38.972 23.643-6.748 48.297-2.793 71.857 2.308a268.63 268.63 0 0 1 36.799 10.788c6.262 2.33 12.389 5.002 18.403 7.911 3 1.451 5.943 3.018 8.862 4.627 1.662.917 4.521 3.515 6.438 3.515 4.836 0 9.686-6.686 12.566-9.849 6.105-6.704 15.125-6.989 23.649-6.685l-1.295-2.257c-10.042 17.022-10.114 39.294 0 56.154l1.295-2.257c-10.167.573-17.691-1.147-24.556-8.732-2.069-2.286-4.194-4.411-6.732-6.177-1.315-.915-2.975-1.913-4.528-2.34-1.875-.516-5.366 2.647-6.918 3.534-24.275 13.869-51.302 23.459-78.608 29.256-38.177 8.104-91.008 4.219-107.06-38.195-.471-1.244-.863-2.516-1.256-3.786-.57-1.842-3.466-1.056-2.893.798 12.36 39.945 56.501 50.86 93.836 47.048 24.46-2.498 48.974-10.2 71.503-19.808a285.581 285.581 0 0 0 18.564-8.699c3.002-1.543 5.954-3.182 8.884-4.856.434-.248 3.261-2.35 3.721-2.154 1.138.485 2.201 1.128 3.241 1.792 5.647 3.609 8.75 9.851 14.894 12.917 5.458 2.724 11.975 2.736 17.908 2.401 1.105-.063 1.908-1.235 1.295-2.257-9.57-15.952-9.504-37.016 0-53.126.595-1.009-.175-2.217-1.295-2.257-8.099-.29-16.685-.009-23.307 5.208-2.651 2.088-9.892 12.892-13.553 10.687-23.146-13.94-49.557-22.289-75.927-27.518-23.672-4.695-47.319-7.042-70.683.35-20.489 6.482-38.677 20.05-48.931 39.117-.916 1.703 1.674 3.218 2.591 1.514z"/><path fill="#FFF" d="M350.157 287.11c-19.511-35.575-74.392-26.897-106.101-6.943-1.225-6.07-3.655-12.145-12.194-14.749-7.32 8.679-8.537 26.899-4.872 36.446 6.087-.871 10.975-3.474 14.626-7.814l2.439-2.6c24.389 18.216 81.708 23.426 103.665.867l2.437-5.207z"/><path fill="#44A587" d="M351.453 286.354c-21.583-38.165-77.503-26.519-108.153-7.482l2.203.896c-1.675-7.778-5.566-13.148-13.241-15.796-.454-.157-1.153-.001-1.459.386-7.873 9.944-9.457 26.119-5.258 37.906.296.83.991 1.192 1.845 1.047 7.746-1.313 12.532-5.263 17.728-10.8l-1.817.235c16.934 12.372 40.074 16.35 60.615 15.981 10.274-.185 20.952-1.777 30.439-5.862 4.109-1.77 7.892-3.957 11.404-6.729 3.051-2.409 4.081-4.82 5.694-8.269.814-1.741-1.771-3.265-2.591-1.514-1.48 3.166-2.505 5.388-5.225 7.661-3.667 3.065-8.111 5.238-12.542 6.941-9.429 3.626-19.725 4.737-29.759 4.803-19.181.125-40.764-4.09-56.522-15.604-.525-.383-1.393-.218-1.817.235-4.803 5.118-9.22 8.81-16.404 10.028l1.845 1.047c-2.771-7.778-2.389-16.54-.459-24.464.872-3.579 2.517-11.043 7.319-8.48 4.521 2.413 6.303 7.354 7.313 12.044.202.938 1.411 1.388 2.203.896 29.193-18.132 83.332-30.229 104.048 6.405.952 1.686 3.544.175 2.591-1.511z"/></svg>