<?xml version="1.0" encoding="utf-8"?>
<!-- Generator: Adobe Illustrator 16.0.0, SVG Export Plug-In . SVG Version: 6.00 Build 0)  -->
<!DOCTYPE svg PUBLIC "-//W3C//DTD SVG 1.1//EN" "http://www.w3.org/Graphics/SVG/1.1/DTD/svg11.dtd">
<svg version="1.1" xmlns="http://www.w3.org/2000/svg" xmlns:xlink="http://www.w3.org/1999/xlink" x="0px" y="0px"
	 width="829.275px" height="500px" viewBox="0 0 829.275 500" enable-background="new 0 0 829.275 500" xml:space="preserve">
<g id="bg">
</g>
<g id="Layer_1">
	<g>
		<path fill="#FFFFFF" d="M499.358,203.248l-5.045,7.88l2.515,2.671l-4.847,36.623l8.392,21.384c0,0-3.66,21.296-17.965,30.995
			c-10.055,6.817-7.951,7.562-13.878,9.926c-2.506,0.999-17.594,5.773-17.594,5.773l14.834-35.165l5.413-12.967l-16.354-15.173
			l-30.665-14.085l-33.811-8.789l-15.271-1.352l-17.249-24.853l-12.473-22.985l-1.325-33.448l4.635-35.487l9.241-14.747
			l25.739-14.801l35.452-8.359l38.518,3.146l24.938,11.222l18.295,19.592l7.205,20.208l3.347,17.76l-0.845,26.511l-8.539,24.232
			L499.358,203.248z"/>
		<polygon fill="#45A98C" stroke="#45A98C" stroke-width="4" stroke-miterlimit="10" points="450.468,350.867 452.557,389.765 
			508.594,334.37 556.838,350.727 451.974,454.343 402.651,435.11 402.064,369.465 401.952,363.599 412.354,372.645 
			427.813,358.797 443.491,355.602 446.246,349.506 		"/>
		<g>
			<path fill="#FFFFFF" d="M488.377,249.42c0,0,13.849,8.553,11.632,21.781"/>
			<g>
				<path fill="#45A98C" d="M487.62,250.715c6.954,4.371,12.002,12.112,10.889,20.486c-0.254,1.913,2.749,1.889,3,0
					c1.249-9.399-4.602-18.191-12.375-23.077C487.491,247.092,485.986,249.688,487.62,250.715L487.62,250.715z"/>
			</g>
		</g>
		<g>
			<path fill="#FFFFFF" d="M578.192,307.367c3-19-15.5-31.402-32.5-32.402c-16-0.5-30.655,12.035-44.155-2.965h-1.288
				c1.064-11-10.807-22.483-10.807-22.483c6.417,2.637,24.25-1.101,24.25-1.101c-1,18,30,12.976,40.5,13.976
				C574.692,264.392,590.692,287.867,578.192,307.367"/>
			<g>
				<path fill="#45A98C" d="M579.692,307.367c2.255-17.211-11.655-29.317-27.201-33.042c-8.702-2.085-17.002,0.077-25.492,2.06
					c-5.008,1.17-9.983,1.893-15.038,0.621c-3.152-0.792-5.797-2.811-8.133-4.972c-1.591-1.473-1.524-1.729-3.579-1.729
					c0.5,0.5,1,1,1.5,1.5c0.488-8.824-5.301-17.369-11.246-23.446c-0.486,0.835-0.973,1.671-1.459,2.507
					c7.572,2.685,17.384,0.513,25.047-1.053c-0.633-0.482-1.266-0.964-1.898-1.446c-0.392,16.645,22.084,15.553,33.476,15.391
					c10.275-0.146,19.112,1.607,26.807,9.072c9.297,9.019,11.109,22.774,4.423,33.78c-1.008,1.658,1.587,3.164,2.59,1.514
					c11.333-18.651-0.796-41.365-21.032-46.564c-10.997-2.825-43.697,5.273-43.263-13.192c0.024-1.027-0.971-1.636-1.898-1.446
					c-7.124,1.455-16.408,3.55-23.453,1.053c-1.469-0.521-2.457,1.486-1.459,2.507c5.394,5.514,10.811,13.323,10.367,21.325
					c-0.045,0.817,0.717,1.5,1.5,1.5c1.342,0,2.888,2.15,3.938,3.002c1.252,1.014,2.639,1.776,4.072,2.497
					c3.022,1.519,6.447,1.92,9.781,1.922c8.391,0.006,16.414-3.67,24.757-4.316c17.362-1.348,36.312,12.508,33.895,30.957
					C576.441,309.281,579.445,309.257,579.692,307.367L579.692,307.367z"/>
			</g>
		</g>
		<path fill="#45A98C" d="M456.256,253.997"/>
		<g>
			<path fill="#FFFFFF" d="M377.742,231.767c-25.556,9.483-58.547,18.634-80.124,8.445c-15.583-7.792-50.346-47.948-67.727-21.577
				l-1.199,1.798c2.397-30.567,26.371-37.759,47.948-17.381c10.789,9.59,19.179,23.974,34.762,23.375
				c11.388-0.6,47.16-7.792,46.561-22.176"/>
			<g>
				<path fill="#45A98C" d="M377.343,230.32c-17.812,6.567-36.438,12.372-55.562,12.847c-8.253,0.206-17.272-0.854-24.61-4.894
					c-5.039-2.775-9.545-6.645-14.067-10.16c-9.593-7.455-19.691-15.668-31.614-18.951c-10.541-2.902-18.356,1.909-24.092,10.514
					c0.932,0.252,1.864,0.504,2.795,0.757c0.758-8.284,3.053-16.608,9.24-22.505c5.499-5.241,13.326-5.725,20.282-3.695
					c16.789,4.9,24.483,22.906,39.277,30.879c10.74,5.789,25.341,1.504,36.262-1.737c8.77-2.603,24.193-7.777,24.21-19.125
					c0.003-1.935-2.997-1.935-3,0c-0.009,6.045-6.222,9.6-10.958,12.001c-6.479,3.285-13.718,5.186-20.785,6.714
					c-5.935,1.284-12.383,2.622-18.443,1.575c-9.06-1.565-15.752-9.462-21.739-15.776c-9.508-10.027-21.313-20.466-36.166-18.397
					c-14.364,2.001-20.034,17.553-21.179,30.065c-0.146,1.598,2.039,1.892,2.795,0.757c2.997-4.496,6.223-8.244,11.671-9.578
					c5.787-1.417,12.111,1.112,17.207,3.625c10.902,5.378,20.146,13.674,29.811,20.912c25.789,19.313,62.273,7.088,89.463-2.937
					C379.939,232.55,379.162,229.649,377.343,230.32L377.343,230.32z"/>
			</g>
		</g>
		<g>
			<g>
				<path fill="#45A98C" d="M479.664,230.186c4.235-4.313,8.01-8.958,11.615-13.801c3.443-4.625,8.065-9.25,10.623-14.373
					c2.095-4.195,4.52-8.051,6.231-12.462c2.024-5.22,3.292-10.714,4.172-16.232c3.347-21.005-0.455-43.579-10.484-62.317
					c-21.083-39.389-72.95-41.683-111.172-30.304c-11.695,3.482-23.652,8.76-32.899,16.852c-8.364,7.32-11.75,17.756-13.108,28.472
					c-1.756,13.857-2.629,28.165-1.869,42.121c0.737,13.511,4.091,27.494,14.129,37.171c1.392,1.342,3.516-0.776,2.121-2.121
					c-17.459-16.832-14.081-46.189-12.307-68.142c0.811-10.025,1.924-20.331,7.512-28.963c5.929-9.16,16.852-14.65,26.625-18.737
					c20.724-8.667,44.598-11.529,66.802-8.365c22.54,3.212,41.31,14.354,52.184,34.67c9.657,18.042,12.566,40.081,9.365,60.168
					c-1.505,9.445-4.744,18.601-9.893,26.675c-6.149,9.643-13.753,19.403-21.77,27.567
					C476.187,229.445,478.307,231.568,479.664,230.186L479.664,230.186z"/>
			</g>
		</g>
		<g>
			<path fill="#FFFFFF" d="M489.442,249.42c20.997,3.882,45.624-11.968,57.914-28.986c9.59-13.785,18.58-28.169,25.173-43.752
				c7.192-16.782,19.778-19.779,31.766-31.766l2.397-2.397c-25.173-1.199-46.749,16.782-59.935,36.561
				c-7.792,10.788-11.987,21.577-23.375,29.368c-9.59,6.593-19.965,4.354-30.154,5.553"/>
			<g>
				<path fill="#45A98C" d="M489.044,250.866c13.04,2.133,25.657-2.114,36.773-8.769c12.94-7.745,21.764-18.942,29.886-31.368
					c4.613-7.057,8.883-14.331,12.756-21.82c3.972-7.681,6.59-15.951,12.346-22.563c4.322-4.964,9.996-8.584,15.238-12.476
					c4.202-3.119,8.016-6.598,11.71-10.292c0.948-0.948,0.229-2.519-1.061-2.561c-22.686-0.732-42.042,12.817-55.783,29.847
					c-7.415,9.19-12.561,20.016-20.19,29.013c-4.523,5.333-10.206,9.394-17.024,11.113c-6.604,1.664-13.73,0.83-20.466,1.509
					c-1.905,0.192-1.925,3.194,0,3c11.412-1.152,22.925,0.51,32.602-6.982c9.419-7.292,14.662-17.698,21.267-27.334
					c13.732-20.035,33.829-37.997,59.596-37.166c-0.354-0.854-0.707-1.707-1.061-2.561c-7.445,7.445-16.345,12.873-24.112,19.898
					c-4.486,4.058-7.816,9.079-10.285,14.568c-3.475,7.723-7.197,15.228-11.463,22.551c-7.896,13.553-16.432,26.92-28.983,36.605
					c-11.408,8.803-26.319,15.286-40.947,12.894C487.949,247.664,487.138,250.555,489.044,250.866L489.044,250.866z"/>
			</g>
		</g>
		<path fill="none" stroke="#45A98C" stroke-width="4" stroke-miterlimit="10" d="M385.948,239.907"/>
		<path fill="none" stroke="#45A98C" stroke-width="4" stroke-miterlimit="10" d="M384.104,241.11"/>
		<g>
			<g>
				<path fill="#45A98C" d="M452.604,319.25c20.712-1.212,40.326-21.113,46.683-39.894c3.157-9.328,1.904-19.228-4.718-26.68
					c-1.456-1.639-4.796-3.064-5.891-4.689c-0.858-1.273-1.668-2.579-2.469-3.889c-2.503-4.093-6.657-9.957-6.105-14.973
					c0.211-1.922-2.791-1.901-3,0c-0.753,6.848,5.384,14.99,8.983,20.376c1.024,1.532,3.466,2.581,4.856,3.804
					c1.934,1.702,3.463,3.77,4.713,6.008c2.602,4.658,2.741,10.255,1.768,15.371c-2.05,10.766-9.375,20.275-17.162,27.62
					c-7.393,6.972-17.249,13.336-27.658,13.945C450.681,316.362,450.67,319.363,452.604,319.25L452.604,319.25z"/>
			</g>
		</g>
		<g>
			<path fill="#FFFFFF" d="M432.271,323.896c-31.824,29.979-29.557,60.36-24.361,65.155c8.79,9.189,18.779,13.984,30.767,17.181
				c10.388,3.197,21.177,7.192,31.965,7.593c7.191,0.398,22.545,3.2,25.341-3.991l19.456-15.477
				c2.667,47.144-53.587,37.448-80.758,35.45c-28.369-2.397-58.736-27.172-57.937-57.139c0.799-20.378,11.473-36.822,24.211-48.275"
				/>
			<g>
				<path fill="#45A98C" d="M431.21,322.835c-14.376,13.767-26.522,31.673-27.809,52.085c-0.287,4.556-0.033,10.112,2.525,14.078
					c4.86,7.534,15.353,12.632,23.362,15.803c11.812,4.675,25.145,8.727,37.756,10.263c7.94,0.968,17.999,2.673,25.648-0.25
					c2.421-0.925,2.949-2.807,4.693-4.194c2.119-1.686,4.238-3.371,6.356-5.057c4.252-3.382,8.503-6.764,12.755-10.146
					c-0.854-0.354-1.707-0.707-2.561-1.061c0.398,8.677-0.969,17.42-6.807,24.182c-5.03,5.825-12.581,8.654-19.901,10.251
					c-15.352,3.347-31.615,1.354-47.085-0.028c-10.559-0.944-20.124-2.911-29.635-7.852c-10.993-5.711-20.385-14.544-26.488-25.328
					c-13.725-24.253-0.873-52.888,17.993-70.128c1.431-1.308-0.696-3.423-2.121-2.121c-16.887,15.432-28.84,38.786-23.177,62.021
					c5.23,21.461,25.242,37.371,45.57,43.608c7.997,2.453,16.504,2.693,24.785,3.417c8.047,0.703,16.112,1.22,24.194,1.066
					c13.731-0.261,30.416-2.633,39.308-14.391c5.393-7.13,6.766-15.953,6.364-24.698c-0.064-1.396-1.548-1.866-2.561-1.061
					c-3.243,2.579-6.485,5.159-9.729,7.738c-2.323,1.849-4.646,3.696-6.971,5.545c-0.812,0.646-2.517,1.507-2.991,2.497
					c-3.237,6.747-16.352,3.89-22.251,3.377c-12.277-1.066-23.124-4.857-34.913-8.095c-10.908-2.994-20.604-8.279-28.553-16.368
					c-2.823-2.874-2.688-8.494-2.606-12.175c0.436-19.765,13.269-37.74,26.968-50.859
					C434.73,323.616,432.606,321.497,431.21,322.835L431.21,322.835z"/>
			</g>
		</g>
		<path fill="#45A98C" stroke="#45A98C" stroke-width="4" stroke-miterlimit="10" d="M447.714,321.645l23.416-51.308
			c0,0-1.359-31.011-80.776-44.016l-77.456,27.611l33.195,35.786l76.176-24.165l-25.517,50.178l6.849,14.696l14.972-8.277
			l15.136,3.741l8.32-4.737l4.635,3.038L447.714,321.645z"/>
		<path fill="#45A98C" stroke="#45A98C" stroke-width="4" stroke-miterlimit="10" d="M471.839,262.388"/>
		<g>
			<path fill="#D6E5EA" d="M314.4,239.61c-4.451-1.527-6.394-2.397-2.397-5.594c1.998-1.199,11.188-2.397,13.186-1.199
				C336.376,238.412,317.996,239.61,314.4,239.61"/>
			<g>
				<path fill="#D6E5EA" d="M314.799,238.164c-1.012-0.352-2.017-0.696-2.975-1.179c-0.966-0.487,0.379-1.378,1.187-1.806
					c1.49-0.791,3.636-0.925,5.274-1.126c2.862-0.352,6.946-0.808,8.919,1.929c0.061,0.084,0.302-0.371-0.039-0.033
					c-0.314,0.313-0.877,0.479-1.282,0.626c-1.354,0.493-2.809,0.735-4.227,0.959c-2.386,0.377-4.84,0.562-7.256,0.576
					c-1.934,0.011-1.935,3.011,0,3c3.949-0.022,8.125-0.385,11.916-1.522c3.447-1.033,5.476-4.073,1.98-6.646
					c-4.312-3.177-10.024-2.269-14.934-1.022c-2.125,0.54-4.596,2.146-4.978,4.47c-0.482,2.94,3.578,3.959,5.616,4.667
					C315.833,241.693,316.614,238.794,314.799,238.164L314.799,238.164z"/>
			</g>
		</g>
		<g>
			<path fill="#FFFFFF" d="M376.771,282.166c-12.786,6.395-34.993,4.179-45.781-4.213c-11.587-8.79-11.987-27.17-16.782-39.157
				c-4.395,7.991-3.196,25.972-1.598,35.162c2.397,12.786,13.984,23.974,25.172,29.968c19.978,9.988,44.044,8.276,59.627-8.106
				c5.194-5.993,8.539-12.484,7.194-22.819"/>
			<g>
				<path fill="#45A98C" d="M376.014,280.871c-13.025,6.147-31.445,4.476-43.342-3.528c-12.3-8.274-12.193-26.358-17.018-38.946
					c-0.423-1.104-2.102-1.63-2.742-0.358c-5.441,10.811-3.904,26.33-1.432,37.786c3.229,14.966,17.921,26.644,31.443,31.979
					c13.557,5.35,28.963,5.036,42.161-1.106c13.398-6.236,22.634-18.656,21.019-33.697c-0.204-1.902-3.206-1.923-3,0
					c1.549,14.424-7.128,24.844-19.533,31.106c-12.373,6.247-27.137,5.454-39.849,0.805c-13.128-4.801-25.619-16.173-29.349-29.884
					c-1.525-5.606-1.622-11.901-1.711-17.675c-0.091-5.896,0.142-12.437,2.841-17.8c-0.914-0.119-1.828-0.239-2.742-0.358
					c5.5,14.353,5.38,31.982,19.371,41.394c12.388,8.335,32.077,9.159,45.395,2.872C379.276,282.636,377.752,280.05,376.014,280.871
					L376.014,280.871z"/>
			</g>
		</g>
		<g>
			<path fill="#FFFFFF" d="M508.594,334.37c1.199-6.394,8.396-23.635,16.388-22.835l0,0c-21.977-1.198-34.762,17.462-34.762,37.84"
				/>
			<g>
				<path fill="#45A98C" d="M510.04,334.769c1.356-6.524,6.56-21.933,14.941-21.733c1.938,0.046,1.928-2.933,0-3
					c-22.474-0.784-35.969,18.336-36.262,39.34c-0.027,1.936,2.973,1.933,3,0c0.271-19.396,12.419-37.067,33.262-36.34c0-1,0-2,0-3
					c-10.2-0.242-16.167,15.912-17.834,23.937C506.755,335.859,509.646,336.662,510.04,334.769L510.04,334.769z"/>
			</g>
		</g>
		<g>
			<path fill="#D6E5EA" d="M261.238,208.312c3.196,2.397,15.004,12.918,14.205,2.929c0-3.996-7.591-9.589-11.587-9.989
				C260.26,201.252,257.315,203.484,261.238,208.312"/>
			<g>
				<path fill="#D6E5EA" d="M260.481,209.608c3.395,2.583,6.657,5.582,10.744,7.028c4.696,1.661,6.324-2.947,5.523-6.779
					c-1.002-4.798-7.589-8.975-11.998-9.979c-2.051-0.467-4.556,0.26-5.952,1.834c-2.009,2.265-0.355,5.37,1.144,7.357
					c1.149,1.524,3.756,0.032,2.591-1.514c-1.183-1.569-2.766-3.83-0.088-4.647c1.819-0.555,3.7,0.534,5.227,1.396
					c3.134,1.769,6.909,4.855,6.228,8.859c-0.514,3.017-10.592-5.146-11.905-6.146C260.455,205.845,258.963,208.453,260.481,209.608
					L260.481,209.608z"/>
			</g>
		</g>
		<g>
			<path fill="#D6E5EA" d="M334.023,295.936c-3.626-2.537-9.064-6.163-9.426-10.877c7.251-2.537,16.27,4.439,16.632,11.691
				c-3.988,0.725-4.848,0.365-8.111-1.447"/>
			<g>
				<path fill="#D6E5EA" d="M334.78,294.641c-3.577-2.498-8.08-5.296-8.737-9.98c-0.349,0.615-0.698,1.229-1.047,1.845
					c6.535-1.956,14.102,3.514,14.733,10.245c0.367-0.482,0.734-0.964,1.101-1.446c-2.824,0.47-4.477,0.063-6.956-1.296
					c-1.697-0.932-3.21,1.659-1.514,2.59c3.233,1.774,5.616,2.207,9.267,1.599c0.606-0.101,1.158-0.839,1.101-1.446
					c-0.806-8.605-10-15.691-18.531-13.138c-0.859,0.257-1.163,1.021-1.047,1.845c0.77,5.484,5.925,8.848,10.115,11.773
					C334.856,298.342,336.354,295.739,334.78,294.641L334.78,294.641z"/>
			</g>
		</g>
		<g>
			<path fill="#D6E5EA" d="M371.956,292.208c-2.437,0.348-9.749,1.74-9.4,4.874c0.348,4.178,9.748,3.829,12.534,3.481
				c3.481-0.696,10.444-4.526,6.267-8.704c-1.742-1.741-8.356-0.696-10.793-0.348"/>
			<g>
				<path fill="#D6E5EA" d="M371.557,290.762c-3.843,0.584-11.377,1.913-10.338,7.285c0.917,4.744,9.535,4.343,12.908,4.112
					c3.63-0.249,11.41-3.66,9.927-8.534c-1.808-5.943-9.199-4.236-13.889-3.56c-1.909,0.275-1.094,3.166,0.798,2.893
					c1.975-0.285,10.874-2.142,10.114,2.027c-0.542,2.979-5.755,4.127-8.191,4.245c-2.41,0.117-7.092,0.407-8.703-1.831
					c-1.397-1.941,7.161-3.592,8.172-3.745C374.263,293.365,373.449,290.475,371.557,290.762L371.557,290.762z"/>
			</g>
		</g>
		<g>
			<path fill="#D6E5EA" d="M392.014,351.396c-4.395,2.398-14.277,19.084-1.891,15.488c11.587-3.596,10.981-27.635-2.797-10.188"/>
			<g>
				<path fill="#D6E5EA" d="M391.257,350.102c-4.41,2.621-8.211,9.096-8.641,14.145c-0.609,7.156,9.046,4.249,12.149,1.683
					c3.693-3.056,6.464-9.841,4.373-14.479c-3.017-6.688-10.562,1.32-12.873,4.186c-1.203,1.49,0.906,3.627,2.121,2.121
					c0.98-1.215,6.962-8.77,8.217-4.524c1.031,3.49-1.183,7.852-3.583,10.233c-1.562,1.55-3.75,2.353-5.924,2.424
					c-2.064,0.068-1.494-2.077-1.111-3.401c0.988-3.418,3.651-7.933,6.786-9.797C394.432,351.704,392.924,349.11,391.257,350.102
					L391.257,350.102z"/>
			</g>
		</g>
		<g>
			<path fill="#D6E5EA" d="M384.524,383.059c0.4,7.192,15.184,23.176,13.187,8.391c-0.799-4.794-5.194-12.386-10.389-13.186
				c-7.192-0.799-3.771,5.576-0.468,9.591"/>
			<g>
				<path fill="#D6E5EA" d="M383.024,383.059c0.458,5.332,4.543,10.801,8.604,14.052c1.426,1.142,3.536,2.471,5.426,1.674
					c2.319-0.979,2.42-3.839,2.299-5.999c-0.374-6.646-5.53-15.5-12.761-16.08c-2.703-0.217-5.11,1.244-4.998,4.131
					c0.116,2.992,2.412,5.862,4.2,8.079c1.215,1.507,3.324-0.631,2.121-2.121c-1.326-1.645-2.604-3.46-3.217-5.502
					c-0.824-2.743,3.496-1.318,4.654-0.651c4.406,2.541,7.16,8.897,7.032,13.806c-0.095,3.64-3.885-0.483-5.004-1.68
					c-2.337-2.496-5.051-6.177-5.354-9.708C385.86,381.146,382.858,381.13,383.024,383.059L383.024,383.059z"/>
			</g>
		</g>
		<g>
			<path fill="#D6E5EA" d="M411.104,410.875c3.028,2.542,24.773,16.139,27.171,5.75c1.598-7.592-21.976-10.789-27.171-10.789
				C411.104,405.836,409.147,409.232,411.104,410.875z"/>
			<g>
				<path fill="#D6E5EA" d="M410.044,411.936c4.782,3.85,26.097,17.229,29.456,5.841c3.266-11.07-21.76-13.342-28.396-13.44
					c-0.507-0.008-1.056,0.286-1.295,0.743c-1.156,2.204-1.505,4.463,0,6.553c1.119,1.555,3.723,0.06,2.59-1.514
					c-0.045-1.089-0.091-2.178-0.136-3.266c-0.905,0.414-0.969,0.584-0.192,0.51c0.901,0.035,1.801,0.129,2.697,0.218
					c2.688,0.266,5.355,0.733,8.002,1.271c3.93,0.798,12.285,2.12,13.987,6.457c1.229,3.131-3.195,3.742-5.082,3.615
					c-2.85-0.192-5.768-1.477-8.338-2.62c-3.847-1.71-7.878-3.836-11.173-6.488C410.674,408.613,408.536,410.723,410.044,411.936z"
					/>
			</g>
		</g>
		<g>
			<path fill="#D6E5EA" d="M464.646,419.303c-3.597,0-15.984-2.459-10.789,4.427c3.196,3.442,11.188,1.967,14.784,1.967
				c2.397,0,16.382,0,9.988-4.917C475.033,418.319,469.04,419.795,464.646,419.303"/>
			<g>
				<path fill="#D6E5EA" d="M464.646,417.803c-3.494-0.091-12.24-2.346-13.484,2.628c-0.599,2.396,1.771,4.706,3.575,5.787
					c3.398,2.036,8.4,1.295,12.121,1.05c3.531-0.232,12.436,1.025,14.478-2.8C485.4,416.85,467.265,417.984,464.646,417.803
					c-1.932-0.134-1.919,2.867,0,3c2.434,0.169,4.854,0.038,7.291,0c1.58-0.024,9.554,1.551,4.98,2.749
					c-2.935,0.769-6.104,0.592-9.111,0.665c-1.83,0.044-3.656,0.234-5.487,0.289c-1.473,0.045-2.911-0.07-4.363-0.327
					c-1.041-0.185-5.262-2.86-3.054-3.57c2.967-0.952,6.696,0.115,9.744,0.194C466.581,420.854,466.576,417.854,464.646,417.803
					L464.646,417.803z"/>
			</g>
		</g>
		<g>
			<path fill="#D6E5EA" d="M501.214,411.446c-2.181,2.182-7.786,8.409-0.935,7.787C504.017,418.922,506.041,411.446,501.214,411.446
				"/>
			<g>
				<path fill="#D6E5EA" d="M500.153,410.386c-1.768,1.78-3.61,3.778-4.468,6.176c-1.138,3.178,2.049,4.354,4.594,4.172
					c5.688-0.408,7.673-10.54,0.935-10.787c-1.936-0.071-1.929,2.93,0,3c1.375,0.051,1.488,1.125,1.205,2.277
					c-0.379,1.545-1.412,2.507-2.98,2.553c-0.242,0.008-0.97-0.211-0.957,0.013c-0.03-0.557,0.493-1.264,0.783-1.723
					c0.827-1.312,1.922-2.464,3.01-3.56C503.639,411.134,501.518,409.012,500.153,410.386L500.153,410.386z"/>
			</g>
		</g>
		<g>
			<path fill="#D6E5EA" d="M499.314,330.823c-1.986,4.963,3.226,9.431,5.211,2.481c0.248-0.745,0.496-5.46,0-5.956
				C502.54,325.611,499.562,329.086,499.314,330.823"/>
			<g>
				<path fill="#D6E5EA" d="M497.868,330.425c-0.956,2.551-0.559,6.065,2.022,7.53c3.08,1.746,5.558-1.841,6.131-4.451
					c0.287-1.308,0.292-2.728,0.29-4.059c-0.003-1.27,0-2.828-1.238-3.554C502.073,324.134,498.421,327.502,497.868,330.425
					c-0.358,1.89,2.533,2.696,2.893,0.797c0.157-0.831,0.676-1.503,1.258-2.096c0.246-0.25,0.555-0.515,0.882-0.65
					c0.217-0.091,0.299-0.098,0.528-0.097c0.146,0.001-0.172-0.212-0.223-0.364c0.397,1.202,0.118,3.603-0.078,4.691
					c-0.153,0.853-0.559,1.793-1.158,2.425c-0.177,0.187-0.285,0.217-0.464,0.265c0.018-0.005-0.08-0.02-0.247-0.114
					c-1.231-0.698-0.928-2.912-0.498-4.06C501.441,329.407,498.541,328.63,497.868,330.425L497.868,330.425z"/>
			</g>
		</g>
		<g>
			<path fill="#D6E5EA" d="M479.036,277.772c-7.192,7.192-3.597,19.978,6.393,12.387c11.588-7.991,2.397-23.974-7.592-11.188"/>
			<g>
				<path fill="#D6E5EA" d="M477.976,276.712c-3.527,3.691-5.831,9.859-2.94,14.602c3.433,5.632,10.728,1.114,13.93-2.236
					c3.416-3.574,4.848-9.972,1.365-14.007c-4.249-4.924-10.312-1.162-13.554,2.84c-1.206,1.488,0.902,3.625,2.121,2.121
					c2.035-2.511,5.945-6.286,9.059-3.133c2.756,2.791,1.062,7.555-1.112,10.057c-1.876,2.159-7.149,6.238-9.419,2.516
					c-2.053-3.368,0.307-8.162,2.672-10.638C481.433,277.436,479.314,275.311,477.976,276.712L477.976,276.712z"/>
			</g>
		</g>
		<g>
			<path fill="#D6E5EA" d="M481.521,256.094c-4.885,13.304,10.775,3.752,3.583,0.156
				C485.104,256.25,481.877,255.123,481.521,256.094z"/>
			<g>
				<path fill="#D6E5EA" d="M480.074,255.695c-0.772,2.127-1.532,4.705-0.566,6.891c0.701,1.586,2.426,2.036,3.998,1.741
					c2.768-0.521,5.847-3.744,4.835-6.71c-0.443-1.301-1.603-2.398-2.902-2.835c-1.473-0.496-4.334-1.294-5.213,0.555
					c-0.352,0.738-0.211,1.613,0.538,2.052c0.66,0.387,1.701,0.2,2.052-0.538c0.131-0.275-0.341,0.303-0.507,0.364
					c0.32-0.119-0.341,0.01,0.043-0.014c0.13-0.008,0.261,0.002,0.391,0.01c0.45,0.027-0.297-0.057,0.162,0.018
					c0.529,0.085,1.05,0.229,1.56,0.389c0.158,0.05,0.436,0.211-0.019-0.021c0.184,0.094,0.358,0.202,0.53,0.316
					c0.077,0.053,0.333,0.265-0.006-0.01c0.067,0.056,0.132,0.115,0.195,0.175c0.061,0.057,0.116,0.118,0.173,0.179
					c0.178,0.196-0.218-0.318,0.003,0.005c0.079,0.116,0.289,0.591,0.082,0.089c0.053,0.127,0.087,0.26,0.115,0.394
					c0.057,0.271-0.043-0.407-0.019-0.133c0.006,0.067,0.006,0.134,0.007,0.201c0,0.067-0.006,0.134-0.011,0.201
					c-0.021,0.255,0.079-0.438,0.001-0.064c-0.028,0.136-0.071,0.269-0.117,0.398c-0.094,0.265,0.158-0.354,0.043-0.096
					c-0.029,0.065-0.063,0.129-0.096,0.193c-0.068,0.131-0.146,0.256-0.227,0.379c-0.261,0.396,0.178-0.189-0.132,0.177
					c-0.199,0.236-0.424,0.451-0.658,0.652c-0.281,0.241,0.267-0.183-0.126,0.097c-0.146,0.104-0.298,0.198-0.452,0.288
					c-0.13,0.076-0.264,0.145-0.398,0.209c-0.335,0.161,0.334-0.118-0.112,0.041c-0.131,0.047-0.266,0.085-0.4,0.118
					c-0.065,0.016-0.132,0.028-0.198,0.041c-0.256,0.048,0.445-0.044,0.075-0.013c-0.125,0.01-0.25,0.008-0.375,0
					c-0.262-0.016,0.416,0.067,0.16,0.023c-0.058-0.011-0.115-0.025-0.172-0.041c-0.412-0.109,0.276,0.154-0.015-0.002
					c-0.369-0.198,0.236,0.25-0.066-0.05c-0.232-0.231,0.201,0.333-0.029-0.048c-0.235-0.389,0.071,0.259-0.048-0.093
					c-0.053-0.153-0.085-0.313-0.112-0.473c0.089,0.512-0.002-0.208-0.003-0.359c-0.002-0.265,0.021-0.528,0.049-0.791
					c-0.041,0.384,0.01-0.051,0.019-0.108c0.03-0.184,0.068-0.367,0.107-0.549c0.177-0.835,0.443-1.649,0.734-2.451
					c0.279-0.769-0.307-1.641-1.048-1.845C481.083,254.417,480.353,254.927,480.074,255.695z"/>
			</g>
		</g>
		<g>
			<path fill="#D6E5EA" d="M522,222.637c-4.233-0.706-9.442,4.221-8.032,9.16c1.765,5.997,14.817,1.058,18.347-1.411
				c11.642-9.173-7.763-11.643-14.113-6.703"/>
			<g>
				<path fill="#D6E5EA" d="M522,221.137c-6.271-0.496-13.67,8.419-7.834,13.568c4.517,3.984,13.747-0.073,18.079-2.501
					c4.28-2.4,7.745-8.297,2.092-11.189c-4.816-2.464-12.542-1.753-16.893,1.373c-1.556,1.118-0.061,3.722,1.514,2.591
					c2.843-2.042,6.501-2.421,9.906-2.243c1.675,0.087,3.391,0.475,4.827,1.356c1.803,1.106-0.116,3.086-1.038,4.024
					c-2.812,2.863-7.536,4.144-11.354,4.848c-1.851,0.342-5.057,0.622-5.885-1.566c-1.476-3.901,3.141-7.534,6.586-7.261
					C523.93,224.289,523.915,221.288,522,221.137L522,221.137z"/>
			</g>
		</g>
		<g>
			<path fill="#D6E5EA" d="M546.454,194.363c-2.513,2.512-6.819,9.332-6.102,12.921c1.436,6.101,7.538,3.948,10.768,0.358
				c1.435-1.794,6.461-11.126,3.948-13.639c-3.229-3.589-8.777-0.28-10.214,2.232"/>
			<g>
				<path fill="#D6E5EA" d="M545.394,193.303c-3.436,3.592-8.71,11.03-5.835,16.203c2.922,5.257,9.838,2.88,12.856-1.106
					c2.643-3.489,5.562-9.294,4.661-13.77c-0.522-2.599-3.711-3.725-6.011-3.687c-2.96,0.049-5.936,2.138-7.506,4.536
					c-1.064,1.623,1.535,3.125,2.59,1.514c2.053-3.132,8.99-4.78,7.929,0.672c-0.599,3.072-2.188,6.125-3.895,8.726
					c-1.935,2.946-8.355,5.294-8.405-0.213c-0.033-3.703,3.302-8.208,5.736-10.753C548.852,194.026,546.732,191.902,545.394,193.303
					L545.394,193.303z"/>
			</g>
		</g>
		<g>
			<path fill="#D6E5EA" d="M568.775,169.805c1.157,1.603-1.357,9.231-4.344,8.688c-3.529-0.543-0.971-8.416,1.473-8.688
				C565.904,169.805,567.822,168.485,568.775,169.805z"/>
			<g>
				<path fill="#D6E5EA" d="M567.48,170.562c0.519,0.867-0.369,3.064-0.766,3.971c-0.186,0.422-1.671,3.35-2.357,2.249
					c-0.678-1.087,0.19-3.174,0.688-4.159c0.26-0.515,1.965-2.501,2.669-1.758c1.332,1.407,3.45-0.718,2.121-2.121
					c-1.229-1.299-2.812-1.159-4.319-0.449c-0.347,0.164-0.573,0.174-1.138,0.535c-0.597,0.382-1.025,0.932-1.443,1.491
					c-1.559,2.087-2.501,5.836-1.04,8.181c1.878,3.013,5.291,0.974,6.731-1.193c1.343-2.02,2.829-5.944,1.443-8.262
					C569.079,167.39,566.484,168.897,567.48,170.562z"/>
			</g>
		</g>
		<g>
			<path fill="#D6E5EA" d="M410.001,333.747c-2.719-0.508-8.914,6.227-5.293,7.966c3.036,1.562,9.021-4.838,7.339-6.994
				L410.001,333.747z"/>
			<g>
				<path fill="#D6E5EA" d="M410.001,332.247c-2.781-0.344-5.497,2.572-6.858,4.646c-1.626,2.479-1.279,6.209,2.257,6.536
					c3.144,0.292,6.141-2.607,7.615-5.094c0.706-1.19,1.133-2.729,0.517-4.039c-0.492-1.048-1.797-1.381-2.773-1.845
					c-1.737-0.825-3.261,1.761-1.514,2.59c0.622,0.296,1.245,0.592,1.867,0.888c0.433,0.205-0.224-0.496-0.26-0.234
					c-0.057,0.409-0.233,0.768-0.427,1.126c-0.876,1.626-2.581,3.187-4.401,3.619c-1.84,0.438-0.287-2.056,0.058-2.544
					c0.764-1.08,2.448-2.831,3.92-2.649C411.918,335.483,411.896,332.481,410.001,332.247z"/>
			</g>
		</g>
		<g>
			<path fill="#D6E5EA" d="M448.356,112.102c6.226,1.482,10.376,13.934,13.044,19.27c3.262,6.226,6.522,15.12,11.561,19.863
				c4.448,4.15,14.23,6.522,19.567,2.372c5.336-3.854,3.558-12.452,3.558-18.084c0-16.008-12.154-33.203-27.867-37.354
				c-5.93-1.482-17.194-4.743-21.938,0.89c-2.074,2.371-2.964,8.004-0.889,10.968c0.889,1.482,3.262,2.372,4.743,3.262"/>
			<g>
				<path fill="#D6E5EA" d="M447.958,113.548c7.226,2.348,10.331,14.84,13.374,21.027c3.777,7.68,6.935,16.614,15.056,20.659
					c5.561,2.771,15.221,3.498,19.121-2.523c3.764-5.812,2.714-15.18,1.761-21.721c-2.614-17.96-15.653-31.236-32.996-35.341
					c-5.802-1.374-15.121-3.071-19.288,2.652c-1.787,2.454-2.7,5.869-2.155,8.896c0.733,4.078,3.093,5.481,6.548,7.386
					c1.695,0.935,3.208-1.657,1.514-2.591c-4.116-2.269-5.94-4.799-4.664-9.681c1.169-4.471,6.12-4.992,9.924-4.906
					c6.313,0.144,13.545,2.256,19.034,5.271c6.52,3.58,11.496,9.568,15.016,16.003c3.746,6.851,4.175,13.913,4.579,21.502
					c0.182,3.406,0.266,6.899-1.237,10.05c-2.105,4.413-8.071,4.379-12.101,3.585c-8.52-1.681-12.245-9.71-15.635-16.792
					c-2.507-5.237-4.861-10.551-7.405-15.768c-2.088-4.279-4.868-9.049-9.647-10.602
					C446.91,110.056,446.126,112.953,447.958,113.548L447.958,113.548z"/>
			</g>
		</g>
		<g display="none">
			<path display="inline" fill="#FFFFFF" d="M484.294,135.738c-1.156,11.555-13.096,17.716-15.406,28.885
				c-1.924,10.784,3.466,20.412,15.021,21.567c10.012,0.77,17.716-4.237,18.1-14.25c0.386-11.169-7.316-18.872-12.323-28.116
				c-1.925-3.466-3.852-6.932-4.235-10.782"/>
			<g display="inline">
				<path fill="#45A98C" d="M482.848,135.339c-1.725,12.412-14.568,19.184-15.789,31.952c-1.037,10.842,6.448,19.015,16.85,20.4
					c10.384,1.383,18.853-5.498,19.6-15.75c1.108-15.209-14.39-25.076-16.612-39.297c-0.298-1.907-3.188-1.094-2.893,0.798
					c1.622,10.375,9.811,18.494,14.226,27.724c2.516,5.259,3.303,11.748,0.639,17.077c-2.518,5.035-8.466,6.509-13.608,6.517
					c-12.999,0.019-18.187-13.838-13.311-24.399c4.005-8.676,12.405-14.246,13.792-24.224
					C486.003,134.246,483.113,133.43,482.848,135.339L482.848,135.339z"/>
			</g>
		</g>
		<g>
			<path fill="#D6E5EA" d="M514.436,265.866c-3.44-0.345-5.39,3.784-2.409,5.503c2.638,1.49,10.664,4.128,13.187,1.376
				c2.293-2.637-0.688-6.191-3.211-7.224c-2.293-1.031-5.732-0.917-8.025,0"/>
			<g>
				<path fill="#D6E5EA" d="M514.436,264.366c-3.65-0.081-6.881,3.571-4.598,7.016c0.95,1.436,2.94,2.042,4.47,2.614
					c2.279,0.854,4.716,1.373,7.149,1.449c4.502,0.141,7.335-3.482,5.252-7.671c-2.319-4.662-8.791-5.229-13.131-3.699
					c-1.812,0.639-1.032,3.538,0.797,2.893c2.606-0.919,5.532-1.022,7.963,0.436c1.228,0.736,2.664,2.484,1.992,4.007
					c-0.446,1.013-1.979,1.016-2.873,1.035c-2.15,0.048-4.345-0.64-6.353-1.342c-0.802-0.28-1.573-0.627-2.321-1.029
					c-2.077-1.119,0.401-2.735,1.652-2.708C516.371,267.409,516.367,264.409,514.436,264.366L514.436,264.366z"/>
			</g>
		</g>
		<g>
			<path fill="#D6E5EA" d="M547.912,267.201c-2.06-0.274-4.669,0.55-1.511,3.434c1.374,1.372,5.768,1.784,7.826,1.647
				c3.021-0.275,3.435-1.923,0.962-3.707C552.992,266.927,550.521,267.201,547.912,267.201"/>
			<g>
				<path fill="#D6E5EA" d="M547.912,265.701c-2.326-0.241-5.766,1.244-4.093,4.134c1.801,3.111,5.19,3.719,8.51,3.94
					c2.377,0.159,7.401-0.685,5.677-4.265C556.185,265.731,551.475,265.68,547.912,265.701c-1.934,0.012-1.936,3.012,0,3
					c2.074-0.013,4.171-0.205,6.045,0.845c0.37,0.223,0.706,0.486,1.008,0.793c0.5,0.46,0.474,0.141-0.067,0.316
					c-0.796,0.259-1.747,0.158-2.568,0.12c-1.554-0.072-3.295-0.285-4.673-1.053c-0.237-0.17-0.453-0.365-0.646-0.587
					c-0.135-0.158-0.27-0.315-0.403-0.474c-0.147-0.436-0.268-0.388-0.36,0.144c0.417-0.292,1.204-0.152,1.665-0.104
					C549.836,268.9,549.816,265.898,547.912,265.701L547.912,265.701z"/>
			</g>
		</g>
		<g>
			<path fill="#D6E5EA" d="M573.119,277.663c3.906,1.073,4.199,7.812-0.194,5.272c-1.074-0.586-2.441-2.344-2.245-3.612
				c0.194-1.27,2.245-2.637,3.025-0.977"/>
			<g>
				<path fill="#D6E5EA" d="M572.721,279.109c0.861,0.263,1.368,0.873,1.741,1.664c0.128,0.271,0.164,0.605,0.173,0.881
					c0.012,0.366,0.012,0.138-0.033,0.327c-0.053,0.219,0.079-0.025-0.055,0.111c0.126-0.129-0.08-0.057,0.238-0.095
					c-0.275,0.033-0.229,0.003-0.429-0.05c-0.559-0.145-1.013-0.514-1.407-0.915c-0.311-0.317-0.888-1.025-0.777-1.512
					c0.029-0.13,0.162-0.251,0.265-0.325c0.068-0.072,0.148-0.113,0.239-0.123c-0.149,0.049-0.41-0.226-0.266,0.03
					c0.946,1.687,3.538,0.175,2.59-1.514c-1.709-3.045-5.616-0.892-5.839,1.977c-0.116,1.488,1.053,3.047,2.08,3.987
					c0.915,0.837,2.154,1.392,3.395,1.449c2.318,0.107,3.224-2.312,2.908-4.227c-0.354-2.149-1.956-3.93-4.026-4.56
					C571.662,275.652,570.875,278.548,572.721,279.109L572.721,279.109z"/>
			</g>
		</g>
		<g>
			<path fill="#FFFFFF" d="M352.357,213.841c-4.667-3.333-9.497-10.307-11.497-15.974c-7.667-20-3.333-48.333-27.667-57.333
				c-10.333-4-18.667-5-29.333-0.667c-8.333,3.333-14.667,13-13.333,22.667c-1.667-18.667,25-14,33.333-4.667
				c15.333,17.667,12.333,44.333,25.333,63.333c0,0,10.645,1.952,21.947-8.316"/>
			<g>
				<path fill="#45A98C" d="M353.114,212.545c-20.694-15.956-10.743-47.489-27.684-65.9c-16.205-17.611-59.387-14.289-56.404,15.889
					c0.187,1.892,3.118,1.953,3,0c-0.774-12.863,12.895-12.512,21.802-9.315c12.855,4.613,17.589,19.186,20.845,31.205
					c1.803,6.655,3.24,13.397,5.231,20.002c1.67,5.54,4.026,13.633,8.228,17.834c1.317,1.317,5.177,0.558,6.675,0.328
					c6.675-1.026,12.333-4.268,17.393-8.644c1.466-1.268-0.666-3.38-2.121-2.121c-5.478,4.738-12.085,8.206-19.48,8.008
					c-1.787-0.048-2.938-4.067-3.759-5.692c-1.913-3.79-3.245-7.862-4.467-11.917c-4.263-14.138-6.043-29.125-14.498-41.625
					c-5.4-7.983-14.47-12.041-23.972-12.394c-8.973-0.333-15.43,5.153-14.877,14.329c1,0,2,0,3,0
					c-1.72-17.404,15.832-25.91,30.941-23.467c12.383,2.002,22.201,8.712,26.905,20.387c7.542,18.718,4.024,42.031,21.728,55.683
					C353.132,216.317,354.623,213.709,353.114,212.545L353.114,212.545z"/>
			</g>
		</g>
		<g>
			<path fill="#D6E5EA" d="M323.472,195.942c1.271,4.975,2.581,8.167,7.632,9.058c4.605,0.743,4.549-3.265,3.658-6.533
				c-1.04-3.12-5.051-12.329-9.507-10.695C321.689,189.108,323.472,193.416,323.472,195.942"/>
			<g>
				<path fill="#D6E5EA" d="M322.025,196.341c1.456,5.539,3.841,9.653,9.995,10.248c5.358,0.518,5.073-6.145,3.85-9.461
					c-1.501-4.068-3.982-9.577-8.502-10.926c-2.025-0.604-3.938,0.633-5.111,2.154c-1.552,2.013-0.39,5.343-0.286,7.586
					c0.089,1.926,3.09,1.935,3,0c-0.082-1.757-1.628-8.436,2.342-6.577c2.505,1.172,3.999,4.776,5.079,7.135
					c1.15,2.514,3.001,7.888-1.794,6.86c-3.797-0.814-4.82-4.545-5.68-7.817C324.427,193.674,321.533,194.468,322.025,196.341
					L322.025,196.341z"/>
			</g>
		</g>
		<g>
			<path fill="#D6E5EA" d="M303.806,151.84c2.33,0.822,7.397,4.7,10.275,1.41c2.056-2.467-2.874-6.07-4.656-7.44
				c-2.056-1.645-7.949-3.29-9.868-0.549C297.365,148.413,301.477,150.881,303.806,151.84"/>
			<g>
				<path fill="#D6E5EA" d="M303.407,153.286c3.875,1.544,8.004,4.604,11.735,1.024c3.415-3.276-2.343-7.78-4.591-9.514
					c-3.158-2.435-8.321-3.662-11.676-1.035c-4.337,3.396,1.123,8.043,4.173,9.374c1.755,0.765,3.284-1.819,1.515-2.591
					c-1.087-0.474-2.113-1.012-3.037-1.765c-1.767-1.438-0.875-3.269,1.205-3.475c2.22-0.22,4.58,0.761,6.306,2.083
					c1.256,0.962,6.625,5.4,2.062,5.666c-2.365,0.137-4.771-1.813-6.894-2.659C302.406,149.677,301.633,152.579,303.407,153.286
					L303.407,153.286z"/>
			</g>
		</g>
		<path fill="#45A98C" stroke="#45A98C" stroke-width="4" stroke-miterlimit="10" d="M41.193,139.132"/>
		<g>
			<path fill="#45A98C" d="M118.193,496.867c0-54-6-107-17-160c16,3,18,71,20,88c3,23-7,60,3,81"/>
			<g>
				<path fill="#45A98C" d="M119.693,496.867c-0.072-53.927-6.157-107.609-17.054-160.398c-0.615,0.615-1.23,1.229-1.845,1.845
					c4.293,0.979,6.442,6.148,7.897,9.812c2.363,5.952,3.669,12.341,4.825,18.618c2.652,14.404,3.8,29.073,4.938,43.659
					c1.103,14.146,2.044,27.792,1.059,42.021c-1.222,17.638-4.18,37.537,3.385,54.2c0.799,1.76,3.384,0.233,2.591-1.514
					c-8.254-18.18-3.582-40.93-2.505-60.108c0.776-13.83-0.944-27.617-2.071-41.394c-1.2-14.673-2.61-29.435-5.739-43.841
					c-1.627-7.493-4.398-22.254-13.582-24.347c-1.157-0.264-2.08,0.708-1.845,1.845c10.843,52.533,16.875,105.938,16.946,159.602
					C116.695,498.802,119.695,498.802,119.693,496.867L119.693,496.867z"/>
			</g>
		</g>
		<g>
			<path fill="#45A98C" d="M133.104,509.934c-6-27-5-55.066-5-83.066c0-10,0-20,0-30c0-5-2.955-31,1.045-33c8-4,6.022,6,7.022,10
				c1,8-3.033,19-4.033,28c-1,11-0.034,23-0.034,35c0,22,0,67.133,0,67.133"/>
			<g>
				<path fill="#45A98C" d="M134.639,509.469c-6.146-28.444-4.946-57.691-4.946-86.602c0-10.671,0.396-21.4-0.342-32.052
					c-0.518-7.489-1.438-15.355-0.352-22.829c0.107-0.738,0.259-2.356,0.951-2.824c3.518-2.381,4.128,1.665,4.302,4.025
					c0.327,4.441,0.747,8.633,0.124,13.096c-0.829,5.942-2.517,11.737-3.437,17.668c-0.923,5.947-0.737,12.116-0.64,18.114
					c0.46,28.6,0.394,57.196,0.394,85.802c0,1.935,3,1.935,3,0c0-15.981,0-31.963,0-47.944c0-15.649-0.697-31.345-0.394-46.984
					c0.246-12.656,5.217-24.528,4.102-37.209c-0.532-6.052-1.255-12.562-8.966-9.157c-4.532,2.001-2.833,14.245-2.702,17.778
					c0.354,9.55,0.959,18.943,0.959,28.517c0,31.829-1.797,64.262,3.897,95.733c0.343,1.896,0.749,3.781,1.156,5.665
					C132.155,512.156,135.047,511.354,134.639,509.469L134.639,509.469z"/>
			</g>
		</g>
		<g>
			<path fill="#45A98C" d="M137.193,501.867c-2-16,7-32,10-48c2-13,0-27,4-40c4,30-9,53-14,82"/>
			<g>
				<path fill="#45A98C" d="M138.693,501.867c-1.49-14.764,5.104-28.5,8.796-42.458c3.912-14.787,0.923-30.379,5.15-45.144
					c-0.982-0.133-1.964-0.266-2.946-0.398c3.487,28.423-9.054,54.2-13.946,81.602c-0.338,1.891,2.553,2.699,2.893,0.797
					c4.94-27.668,17.574-53.701,14.054-82.398c-0.196-1.6-2.448-2.139-2.946-0.398c-4.228,14.768-1.502,30.307-5.15,45.143
					c-3.534,14.37-10.434,28.092-8.904,43.256C135.885,503.772,138.887,503.792,138.693,501.867L138.693,501.867z"/>
			</g>
		</g>
		<g>
			<path fill="#45A98C" d="M655.271,501.333c-5-18-5.078-40.466-7.078-59.466c-1-16-14-42-6-57c10,16,15,34,15,53c0,12-5,36,6,45
				c1-8-4-15-3-22c1-10,6-15,11-23c3,12-3,24-1,36c16-3,2,15,2,16s5,10,5,13"/>
			<g>
				<path fill="#45A98C" d="M656.717,500.935c-5.531-20.626-4.205-41.948-7.439-62.872c-1.334-8.627-4.032-16.981-6.014-25.469
					c-2.014-8.625-3.876-18.666,0.224-26.97c-0.863,0-1.727,0-2.59,0c10.765,17.555,15.887,37.794,14.528,58.362
					c-0.827,12.518-3.972,30.508,6.706,39.941c1.016,0.897,2.457,0.265,2.561-1.061c0.592-7.602-3.664-14.477-3-22
					c0.762-8.633,6.322-15.229,10.795-22.243c-0.913-0.119-1.827-0.238-2.741-0.358c2.585,12.005-2.645,23.909-1,36
					c0.118,0.871,1.127,1.163,1.845,1.048c4.62-0.742,6.631,0.46,5.029,5.001c-0.946,2.682-2.589,5.14-4.064,7.553
					c-2.71,4.432,3.722,10.351,4.137,15c0.171,1.911,3.172,1.928,3,0c-0.4-4.484-3.139-8.599-4.839-12.676
					c-0.435-1.042-0.435,0.469-0.113-0.125c0.292-0.539,0.633-1.056,0.953-1.578c0.987-1.608,1.926-3.239,2.766-4.931
					c1.215-2.447,2.669-5.836,1.5-8.554c-1.54-3.582-6.009-3.09-9.165-2.583c0.614,0.349,1.229,0.698,1.845,1.048
					c-1.646-12.106,3.607-23.895,1-36c-0.287-1.334-2.084-1.39-2.741-0.358c-4.473,7.013-9.407,13.268-10.935,21.644
					c-1.522,8.353,3.376,15.807,2.729,24.113c0.854-0.354,1.707-0.707,2.561-1.061c-11.146-9.848-5.916-30.065-5.569-43.018
					c0.514-19.208-5.202-38.382-15.196-54.679c-0.554-0.903-2.073-1.046-2.59,0c-7.761,15.717,1.598,35.356,4.854,51.105
					c2.177,10.528,2.167,21.67,2.992,32.365c0.886,11.48,2.091,23.003,5.081,34.15C654.325,503.599,657.219,502.806,656.717,500.935
					L656.717,500.935z"/>
			</g>
		</g>
		<g>
			<path fill="#FFFFFF" d="M181.193,320.867c-26,0-22,47,5,41C206.193,357.867,203.937,319.5,181.193,320.867"/>
			<g>
				<path fill="#45A98C" d="M181.193,319.367c-24.239,0.537-25.532,41.408-2.239,44.336
					C207.496,367.29,208.743,318.41,181.193,319.367c-1.929,0.067-1.936,3.067,0,3c23.194-0.806,22.762,40.278-1.407,38.44
					c-20.022-1.523-19.426-37.979,1.407-38.44C183.125,322.324,183.128,319.324,181.193,319.367L181.193,319.367z"/>
			</g>
		</g>
		<g>
			<path fill="#FFFFFF" d="M207.193,311.867c-2.922,9,11,15,13,5S211.193,304.867,207.193,311.867"/>
			<g>
				<path fill="#45A98C" d="M205.747,311.469c-1.314,4.534,0.744,9.024,4.943,11.143c3.899,1.967,8.485,0.704,10.316-3.357
					c1.956-4.337,0.952-10.268-3.689-12.343c-4.332-1.938-9.08,0.382-11.418,4.199c-1.013,1.654,1.582,3.16,2.591,1.514
					c1.56-2.547,4.307-3.983,7.264-3.121c3.592,1.048,3.719,5.895,2.452,8.707c-1.181,2.62-4.101,2.769-6.394,1.612
					c-2.868-1.447-4.042-4.547-3.171-7.557C209.179,310.403,206.284,309.614,205.747,311.469L205.747,311.469z"/>
			</g>
		</g>
		<g>
			<path fill="#FFFFFF" d="M194.193,276.867c17.982,0.797-3.256,21.966-3.256,2.966
				C190.937,279.833,192.497,276.792,194.193,276.867z"/>
			<g>
				<path fill="#45A98C" d="M194.193,278.367c1.237,0.06,1.772,0.101,3.016,0.445c0.208,0.058,0.413,0.125,0.616,0.197
					c0.096,0.033,0.19,0.071,0.285,0.108c-0.394-0.155-0.082-0.033-0.001,0.004c0.346,0.158,0.674,0.352,0.983,0.574
					c-0.409-0.295,0.025,0.03,0.119,0.116c0.108,0.1,0.208,0.209,0.305,0.32c0.239,0.274-0.195-0.296,0.058,0.09
					c0.086,0.132,0.16,0.271,0.228,0.413c0.117,0.244-0.146-0.366-0.049-0.115c0.023,0.062,0.043,0.123,0.063,0.186
					c0.04,0.124,0.069,0.251,0.094,0.378c0.071,0.354-0.031-0.41,0.003,0.053c0.011,0.152,0.009,0.306,0.003,0.458
					c-0.005,0.141-0.079,0.64,0.006,0.064c-0.02,0.134-0.048,0.267-0.079,0.397c-0.032,0.135-0.071,0.267-0.112,0.397
					s-0.265,0.681-0.047,0.167c-0.112,0.265-0.247,0.521-0.392,0.769c-0.074,0.127-0.153,0.25-0.234,0.372
					c-0.073,0.11-0.445,0.6-0.114,0.175c-0.381,0.489-0.824,0.93-1.305,1.32c-0.223,0.181,0.3-0.227,0.071-0.054
					c-0.059,0.044-0.118,0.086-0.178,0.128c-0.119,0.084-0.241,0.163-0.364,0.24c-0.261,0.163-0.535,0.305-0.815,0.43
					c0.515-0.229-0.078,0.021-0.219,0.065c-0.17,0.055-0.343,0.097-0.518,0.133c-0.124,0.025-0.476,0.068,0.076-0.002
					c-0.085,0.011-0.171,0.017-0.257,0.022c-0.169,0.011-0.339,0.007-0.509-0.005c-0.367-0.026,0.336,0.055,0.086,0.015
					c-0.083-0.014-0.165-0.033-0.247-0.053c-0.152-0.037-0.705-0.269-0.18-0.037c-0.16-0.07-0.311-0.159-0.457-0.254
					c-0.099-0.064-0.366-0.287,0.031,0.032c-0.073-0.059-0.142-0.123-0.21-0.188c-0.106-0.1-0.526-0.615-0.21-0.201
					c-0.133-0.174-0.249-0.36-0.357-0.55c-0.059-0.103-0.112-0.208-0.164-0.313c-0.042-0.086-0.213-0.49-0.039-0.068
					c-0.104-0.252-0.189-0.511-0.267-0.771c-0.087-0.29-0.156-0.585-0.217-0.881c-0.034-0.16-0.062-0.321-0.089-0.482
					c-0.014-0.085-0.027-0.169-0.039-0.253c0.023,0.184,0.024,0.186,0.002,0.006c-0.098-0.79-0.128-1.588-0.13-2.384
					c-0.068,0.252-0.137,0.505-0.205,0.757c0.224-0.433,0.495-0.844,0.781-1.237c-0.175,0.241,0.169-0.201,0.205-0.243
					c0.157-0.182,0.33-0.349,0.508-0.51c0.136-0.113,0.145-0.122,0.027-0.025c0.109-0.08,0.228-0.145,0.346-0.208
					c-0.161,0.061-0.161,0.063,0,0.009C194.468,278.256,193.811,278.367,194.193,278.367c1.935,0,1.935-3,0-3
					c-1.445,0-2.611,0.972-3.453,2.059c-0.336,0.435-0.652,0.875-0.93,1.349c-0.287,0.487-0.377,0.972-0.368,1.544
					c0.035,2.118,0.319,4.381,1.391,6.249c0.727,1.267,1.972,2.325,3.443,2.564c1.463,0.239,2.872-0.11,4.158-0.824
					c2.407-1.336,4.368-3.978,4.484-6.778c0.061-1.462-0.575-2.903-1.643-3.89c-1.49-1.376-3.526-1.89-5.484-2.137
					c-0.531-0.067-1.063-0.11-1.598-0.136c-0.817-0.039-1.5,0.712-1.5,1.5C192.693,277.715,193.376,278.328,194.193,278.367z"/>
			</g>
		</g>
		<g>
			<path fill="#FFFFFF" d="M720.192,113.867c-19,6-3,33,15,23C756.192,125.867,738.192,106.867,720.192,113.867"/>
			<g>
				<path fill="#45A98C" d="M719.794,112.421c-7.637,2.655-11.936,9.752-8.387,17.556c3.564,7.835,11.854,12.009,20.23,9.974
					c7.961-1.935,17.83-10.663,13.478-19.609C740.611,111.085,728.671,109.238,719.794,112.421
					c-1.808,0.648-1.028,3.547,0.797,2.893c7.044-2.525,15.183-1.779,20.396,4.032c6.538,7.289-2.681,14.959-9.17,17.409
					c-13.552,5.117-27.298-15.853-11.227-21.441C722.406,114.683,721.626,111.784,719.794,112.421L719.794,112.421z"/>
			</g>
		</g>
		<g>
			<path fill="#FFFFFF" d="M751.604,94.744c13.332,0.482,0.166,17.537-3.834,4.537C747.77,99.281,748.27,94.624,751.604,94.744z"/>
			<g>
				<path fill="#45A98C" d="M751.604,96.244c1.384,0.06,2.592,0.29,3.59,0.985c-0.251-0.175,0.238,0.233,0.323,0.325
					c0.259,0.281-0.174-0.255,0.041,0.049c0.062,0.089,0.116,0.183,0.17,0.278c0.04,0.071,0.179,0.403,0.027,0.027
					c0.039,0.097,0.069,0.198,0.099,0.299c0.03,0.1,0.051,0.203,0.071,0.306c0.052,0.262-0.021-0.317,0.003,0.123
					c0.012,0.212-0.004,0.426-0.025,0.637c0.046-0.442-0.064,0.227-0.097,0.348c-0.03,0.11-0.274,0.738-0.116,0.375
					c-0.105,0.244-0.235,0.477-0.372,0.704c-0.389,0.648-0.957,1.202-1.636,1.593c-0.096,0.055-0.195,0.104-0.294,0.153
					c-0.337,0.166,0.305-0.114-0.044,0.019c-0.201,0.076-0.409,0.13-0.619,0.175c-0.362,0.077,0.345-0.03-0.022,0.006
					c-0.106,0.01-0.213,0.011-0.318,0.012c-0.107,0.001-0.214-0.008-0.319-0.017c0.437,0.036-0.035-0.019-0.134-0.043
					c-0.107-0.027-0.212-0.064-0.316-0.101c0.357,0.127,0.009-0.001-0.061-0.036c-0.11-0.056-0.635-0.432-0.41-0.249
					c-0.567-0.462-0.724-0.718-1.076-1.313c-0.188-0.316-0.344-0.649-0.493-0.985c-0.079-0.176-0.26-1.033-0.304-0.639
					c-0.054,0.477-0.046,0.31-0.002,0.06c0.043-0.247,0.102-0.49,0.165-0.732c0.281-1.067,0.753-2.094,1.793-2.349
					C751.113,96.282,751.635,96.244,751.604,96.244c1.936,0.013,1.934-2.987,0-3c-3.083-0.021-4.896,2.803-5.274,5.586
					c-0.196,1.452,0.825,3.25,1.687,4.388c0.804,1.062,1.816,1.905,3.118,2.273c4.384,1.239,8.931-4.117,7.55-8.281
					c-0.986-2.974-4.28-3.843-7.08-3.965C749.669,93.16,749.677,96.16,751.604,96.244z"/>
			</g>
		</g>
		<g>
			<g>
				<path fill="#45A98C" d="M269.362,506.27c-4.065-12.148-8.381-24.44-15.362-35.268c-2.702-4.19-6.566-7.549-9.878-11.238
					c-4.431-4.937-5.399-10.434-4.679-16.896c0.321-2.882-4.183-2.851-4.5,0c-1.256,11.274,3.649,17.62,11.003,25.403
					c9.976,10.558,14.563,25.706,19.078,39.194C265.939,510.202,270.286,509.029,269.362,506.27L269.362,506.27z"/>
			</g>
		</g>
		<g>
			<g>
				<path fill="#45A98C" d="M269.443,495.867c0.869-8.447-0.216-18.376-3.842-26.14c-3.662-7.84-13.257-13.769-10.238-23.263
					c0.882-2.772-3.463-3.95-4.339-1.195c-2.647,8.323,1.544,13.751,6.578,19.953c6.663,8.209,8.396,20.394,7.341,30.645
					C264.646,498.753,269.149,498.725,269.443,495.867L269.443,495.867z"/>
			</g>
		</g>
		<g>
			<g>
				<path fill="#45A98C" d="M273.443,500.867c0.531-9.834-6.128-17.647-8.592-26.767c-1.407-5.204,1.049-10.842,2.887-15.636
					c1.835-4.784,2.999-9.446,2.706-14.598c-0.164-2.885-4.665-2.9-4.5,0c0.562,9.863-5.692,18.188-6,28
					c-0.325,10.344,9.573,18.385,9,29C268.786,503.769,273.287,503.753,273.443,500.867L273.443,500.867z"/>
			</g>
		</g>
		<g>
			<g>
				<path fill="#45A98C" d="M251.488,499.624c2.708-5.32,3.336-10.865,4.51-16.632c1.47-7.221,6.542-11.476,13.383-13.44
					c3.555-1.021,7.643-1.466,10.624-3.857c3.929-3.152,4.585-8.07,4.688-12.827c0.042-1.936-2.958-1.932-3,0
					c-0.132,6.118-1.566,10.47-7.675,12.375c-3.938,1.229-7.882,1.925-11.611,3.782c-11.208,5.584-8.672,19.584-13.509,29.086
					C248.022,499.83,250.61,501.349,251.488,499.624L251.488,499.624z"/>
			</g>
		</g>
		<g>
			<g>
				<path fill="#45A98C" d="M256.136,505.003c2.75-6.193,5.746-12.298,10.76-16.983c4.748-4.438,11.177-6.684,16.972-9.35
					c4.524-2.081,8.575-4.867,11.231-9.146c2.928-4.717,3.866-10.781,5.263-16.059c0.744-2.809-3.597-3.999-4.339-1.195
					c-1.39,5.251-2.342,11.008-5.245,15.685c-3.213,5.175-10.222,7.241-15.43,9.616c-11.665,5.319-17.97,13.613-23.098,25.161
					C251.083,505.358,254.96,507.65,256.136,505.003L256.136,505.003z"/>
			</g>
		</g>
		<g>
			<g>
				<path fill="#45A98C" d="M235.639,498.266c3.26-13.979,12.639-25.135,24.311-33.104c6.749-4.607,18.887-6.537,20.689-15.896
					c0.364-1.89-2.527-2.695-2.893-0.797c-1.073,5.57-7.027,7.799-11.626,9.952c-5.185,2.428-9.774,5.405-14.197,9.043
					c-9.337,7.679-16.422,18.191-19.177,30.005C232.308,499.351,235.2,500.149,235.639,498.266L235.639,498.266z"/>
			</g>
		</g>
		<g>
			<g>
				<path fill="#45A98C" d="M270.693,494.867c0.046-9.329,0.193-20.116,3.983-28.782c3.268-7.471,14.426-6.097,15.017-15.218
					c0.125-1.933-2.875-1.921-3,0c-0.335,5.17-6.662,6.036-10.265,8.433c-2.934,1.952-4.471,5.169-5.548,8.399
					c-2.828,8.482-3.143,18.3-3.187,27.168C267.683,496.802,270.683,496.801,270.693,494.867L270.693,494.867z"/>
			</g>
		</g>
		<g>
			<g>
				<path fill="#45A98C" d="M287.488,498.11c-10.204-15.777,4.814-44.089-14.538-54.538c-1.703-0.919-3.217,1.671-1.515,2.59
					c9.775,5.278,9.021,17.071,8.815,26.7c-0.194,9.096-0.489,18.821,4.646,26.762C285.944,501.242,288.542,499.74,287.488,498.11
					L287.488,498.11z"/>
			</g>
		</g>
		<g>
			<g>
				<path fill="#45A98C" d="M257.784,495.276c-9.275-8.525-15.7-19.517-20.603-31.042c-1.471-3.459-2.971-6.988-5.972-9.4
					c-3.607-2.9-8.592-3.156-13.016-3.217c-2.903-0.04-2.899,4.46,0,4.5c4.19,0.058,8.56,0.217,11.543,3.514
					c2.693,2.975,3.907,7.781,5.514,11.372c4.579,10.231,11.104,19.875,19.352,27.455
					C256.734,500.418,259.925,497.244,257.784,495.276L257.784,495.276z"/>
			</g>
		</g>
		<g>
			<g>
				<path fill="#45A98C" d="M259.988,483.61c-7.942-17.721-19.618-37.322-15.614-57.499c1.852-9.33,7.52-17.998,11.487-26.545
					c3.865-8.324,6.411-16.966,6.332-26.199c-0.017-1.934-3.017-1.936-3,0c0.18,21.091-16.131,36.511-18.458,56.786
					c-2.206,19.217,9.111,38.121,16.663,54.971C258.188,486.887,260.772,485.36,259.988,483.61L259.988,483.61z"/>
			</g>
		</g>
		<g>
			<g>
				<path fill="#45A98C" d="M262.639,477.969c-2.494-7.455-3.726-15.219-6.875-22.459c-3.495-8.036-8.516-15.03-10.878-23.599
					c-5.093-18.477,3.337-40.031,10.602-56.787c0.761-1.756-1.823-3.285-2.591-1.514c-7.249,16.721-13.896,35.246-11.902,53.778
					c0.843,7.834,4.408,14.972,8.052,21.828c2.483,4.672,4.907,9.166,6.488,14.249c1.573,5.057,2.529,10.271,4.212,15.3
					C260.357,480.591,263.255,479.809,262.639,477.969L262.639,477.969z"/>
			</g>
		</g>
		<g>
			<g>
				<path fill="#45A98C" d="M281.844,500c0.241-9.274-3.077-18.477-6.663-26.887c-4.914-11.526-11.005-22.498-17.418-33.247
					c-5.126-8.592-10.575-16.981-15.936-25.427c-4.194-6.606-6.83-13.696-5.125-21.549c1.527-7.032,6.494-13.205,10.787-18.767
					c1.182-1.531-1.427-3.022-2.591-1.514c-7.832,10.146-14.435,20.735-10.371,33.864c1.579,5.101,4.756,9.562,7.604,14.015
					c3.037,4.748,6.062,9.503,9.029,14.295c6.57,10.614,12.826,21.445,18.225,32.707c4.754,9.919,9.751,21.274,9.46,32.509
					C278.794,501.936,281.794,501.931,281.844,500L281.844,500z"/>
			</g>
		</g>
		<g>
			<g>
				<path fill="#45A98C" d="M257.193,477.867c-0.383-7.717,5.834-13.881,9.745-19.963c4.011-6.238,5.158-13.773,6.114-20.996
					c1.089-8.229,1.156-16.768-0.218-24.96c-1.399-8.343-5.054-16.192-8.194-23.979c-0.714-1.771-3.617-0.998-2.893,0.797
					c2.955,7.33,6.071,14.564,7.856,22.291c2.156,9.333,1.419,19.637-0.004,29.022c-1.226,8.086-3.852,14.504-8.53,21.143
					c-3.547,5.035-7.194,10.22-6.875,16.646C254.289,479.792,257.289,479.802,257.193,477.867L257.193,477.867z"/>
			</g>
		</g>
		<g>
			<g>
				<path fill="#45A98C" d="M278.693,500c-0.96-17.061-6.062-33.873-11.683-49.904c-2.539-7.241-5.382-14.38-8.519-21.382
					c-1.787-3.99-4.071-8.249-4.359-12.702c-0.259-3.992,2.545-8.046,4.357-11.388c0.922-1.7-1.668-3.215-2.591-1.514
					c-3.091,5.701-5.806,10.713-4.007,17.256c2.333,8.486,7.016,16.556,10.136,24.794c6.596,17.416,12.613,36.132,13.666,54.84
					C275.801,501.923,278.802,501.934,278.693,500L278.693,500z"/>
			</g>
		</g>
		<g>
			<g>
				<path fill="#45A98C" d="M273.815,500.867c0.134-12.101,3.098-24.156,5.52-35.954c2.086-10.158,5.674-21.68,4.032-32.112
					c-1.634-10.381-12.277-14.877-19.985-20.078c-2.178-1.47-4.459-3.084-3.759-6c0.745-3.104,3.53-6.122,5.401-8.61
					c3.74-4.975,7.224-9.669,8.615-15.847c0.425-1.884-2.468-2.685-2.893-0.797c-1.556,6.904-5.984,11.883-10.031,17.453
					c-2.254,3.104-5.046,6.832-4.04,10.88c0.901,3.625,5.982,6.062,8.76,7.86c5.291,3.427,10.746,6.155,13.79,11.981
					c2.819,5.397,1.344,12.259,0.413,17.94c-0.988,6.027-2.266,12.008-3.494,17.989c-2.377,11.576-5.197,23.419-5.328,35.294
					C270.794,502.803,273.794,502.801,273.815,500.867L273.815,500.867z"/>
			</g>
		</g>
		<g>
			<g>
				<path fill="#45A98C" d="M252.676,501.624c3.643-5.96,5.432-13.384,7.533-19.974c2.896-9.082,5.552-18.238,8.396-27.336
					c3.463-11.077,7.853-21.834,11.082-32.992c1.898-6.561,2.518-12.637,1.627-19.429c-0.949-7.231-2.971-14.185-3.121-21.526
					c-0.039-1.932-3.04-1.936-3,0c0.129,6.357,1.466,12.479,2.641,18.702c1.55,8.22,0.737,15.316-1.575,23.305
					c-3.049,10.535-7.254,20.688-10.546,31.144c-2.745,8.715-5.296,17.49-8.039,26.207c-2.108,6.702-3.89,14.336-7.588,20.386
					C249.074,501.766,251.669,503.271,252.676,501.624L252.676,501.624z"/>
			</g>
		</g>
		<g>
			<g>
				<path fill="#45A98C" d="M269.822,491.958c10.629-22.929,8.155-47.198,1.004-70.75c-3.724-12.266-9.454-24.005-12.304-36.509
					c-3.051-13.385-0.666-26.871,7.3-38.075c1.124-1.58-1.48-3.076-2.591-1.514c-6.396,8.996-9.297,19.186-8.957,30.192
					c0.379,12.255,5.64,23.535,9.707,34.879c9.337,26.045,15.402,54.047,3.25,80.263
					C266.423,492.188,269.009,493.712,269.822,491.958L269.822,491.958z"/>
			</g>
		</g>
		<g>
			<g>
				<path fill="#45A98C" d="M260.617,493.906c-7.124-3.854-10.46-12.139-12.523-19.544c-2.313-8.302-2.996-17.6-0.982-26.027
					c3.74-15.646,23.92-21.675,21.581-39.802c-1.404-10.883-27.803-33.03-7.487-39.528c5.976-1.911,7.313-6.071,5.022-11.921
					c-2.983-7.617-12.727-9.343-14.921-17.615c-0.496-1.868-3.389-1.075-2.893,0.797c2.187,8.242,10.324,10.351,14.571,16.997
					c1.187,1.856,2.256,5.479,0.625,7.351c-0.886,1.018-2.726,1.347-3.957,1.74c-2.665,0.853-4.898,2.066-6.583,4.373
					c-4.406,6.033-2.377,12.396,1.185,18.302c4.776,7.919,12.25,14.618,11.621,24.581c-0.566,8.959-9.298,15.518-14.749,21.744
					c-5.161,5.896-7.512,12.264-8.055,20.012c-0.951,13.57,2.873,34.012,16.031,41.131
					C260.804,497.417,262.319,494.827,260.617,493.906L260.617,493.906z"/>
			</g>
		</g>
		<g>
			<path fill="#D6E5EA" d="M183.27,326.666c-6,3.5-1.5,7,1.167,10.834c2,2.833,0.333,9.666,5.333,9.333
				c9.667-0.667,4.167-17-0.833-20C187.437,326,184.77,325.833,183.27,326.666"/>
			<g>
				<path fill="#45A98C" d="M182.513,325.371c-2.026,1.346-4.433,3.443-3.588,6.22c1.038,3.413,4.271,5.528,5.04,9.008
					c0.486,2.198,0.495,5.813,2.871,7.035c2.232,1.146,4.832,0.771,6.884-0.612c4.478-3.021,2.867-10.122,1.25-14.217
					c-1.984-5.029-6.11-9.981-12.099-7.585c-1.773,0.709-1,3.612,0.798,2.893c7.263-2.906,11.065,9.55,9.535,14.762
					c-0.5,1.705-3.724,3.744-5.188,1.756c-0.897-1.219-0.898-3.391-1.158-4.828c-0.269-1.489-0.838-2.665-1.72-3.875
					c-1.958-2.688-5.106-5.312-1.11-7.966C185.63,326.896,184.13,324.297,182.513,325.371L182.513,325.371z"/>
			</g>
		</g>
	</g>
	<g>
		<path fill="#FFFFFF" d="M29.492,118.22c19.019-50.508,72.517-38.188,103.428-9.857l0,0c1.193-8.618,3.562-17.243,11.886-20.94
			c7.136,12.322,8.322,38.191,4.75,51.746c-5.935-1.236-10.699-4.933-14.258-11.095l-2.377-3.691
			c-23.775,25.864-79.65,33.26-101.053,1.232L29.492,118.22z"/>
		<g>
			<path fill="#45A98C" d="M30.938,118.619c7.865-20.324,24.068-33.73,46.339-33.381c20.199,0.317,39.911,10.896,54.582,24.186
				c0.743,0.673,2.332,0.534,2.507-0.662c1.188-8.096,3.295-16.125,11.196-20.044c-0.684-0.18-1.368-0.359-2.052-0.539
				c4.239,7.668,5.579,16.744,6.238,25.364c0.64,8.359,0.397,17.066-1.639,25.226c0.615-0.349,1.23-0.698,1.845-1.047
				c-7.893-1.925-11.629-7.716-15.739-14.097c-0.508-0.788-1.669-1.035-2.356-0.304c-14.089,15.007-35.542,22.135-55.801,21.997
				c-10.247-0.07-20.488-2.5-29.363-7.68c-4.728-2.759-8.832-6.525-12.166-10.851c-1.985-2.575-2.604-5.895-3.591-8.966
				c-0.589-1.834-3.486-1.049-2.893,0.798c0.92,2.865,1.48,6.231,3.199,8.729c2.985,4.338,6.836,7.957,11.086,11.027
				c8.707,6.29,19.555,9.047,30.125,9.803c21.956,1.571,46.315-6.536,61.525-22.736c-0.785-0.101-1.57-0.202-2.356-0.304
				c4.571,7.098,8.849,13.358,17.532,15.476c0.779,0.19,1.643-0.237,1.845-1.047c2.227-8.925,2.335-18.319,1.638-27.443
				c-0.664-8.683-2.285-17.764-6.539-25.458c-0.415-0.751-1.334-0.895-2.052-0.539c-8.586,4.258-11.27,12.933-12.575,21.837
				c0.835-0.221,1.671-0.441,2.507-0.662c-15.708-14.229-36.237-24.744-57.764-25.081c-23.188-0.364-40.103,14.752-48.171,35.6
				C27.347,119.628,30.248,120.403,30.938,118.619z"/>
		</g>
	</g>
	<g>
		<path fill="#FFFFFF" d="M104.492,192.456c14.987-39.498,57.144-29.863,81.501-7.708l0,0c0.94-6.74,2.807-13.484,9.366-16.375
			c5.624,9.636,6.558,29.865,3.743,40.465c-4.677-0.966-8.431-3.858-11.236-8.677l-1.874-2.886
			c-18.735,20.226-62.765,26.009-79.63,0.963L104.492,192.456z"/>
		<g>
			<path fill="#45A98C" d="M105.938,192.855c6.248-15.9,18.914-26.132,36.324-25.861c15.765,0.245,31.17,8.509,42.67,18.814
				c0.747,0.669,2.328,0.537,2.507-0.662c0.943-6.302,2.548-12.398,8.677-15.479c-0.685-0.18-1.369-0.359-2.053-0.539
				c6.094,11.082,6.583,27.228,3.592,39.309c0.615-0.349,1.23-0.698,1.845-1.047c-6.092-1.514-9.003-5.929-12.213-10.874
				c-0.513-0.79-1.664-1.031-2.356-0.303c-11.266,11.839-28.24,17.322-44.321,17.095c-7.953-0.112-15.847-2.102-22.714-6.138
				c-3.75-2.204-6.955-5.253-9.559-8.717c-1.32-1.756-1.726-4.313-2.4-6.396c-0.593-1.833-3.49-1.048-2.893,0.798
				c0.595,1.839,0.914,4.552,2.022,6.139c2.392,3.422,5.181,6.313,8.487,8.861c6.999,5.393,15.979,7.688,24.643,8.346
				c17.415,1.322,36.722-5.115,48.855-17.866c-0.785-0.101-1.57-0.202-2.356-0.303c3.671,5.655,7.086,10.532,14.006,12.252
				c0.777,0.193,1.646-0.24,1.845-1.047c3.189-12.88,2.604-29.805-3.894-41.621c-0.412-0.749-1.338-0.897-2.053-0.539
				c-6.815,3.426-8.99,10.153-10.055,17.272c0.835-0.221,1.671-0.441,2.507-0.662c-12.543-11.241-28.761-19.444-45.857-19.71
				c-18.33-0.285-31.697,11.655-38.151,28.08C102.337,193.86,105.24,194.634,105.938,192.855z"/>
		</g>
	</g>
	<g>
		<path fill="#FFFFFF" d="M189.492,69.537c9.573-25.23,36.502-19.076,52.061-4.924l0,0c0.601-4.305,1.793-8.614,5.983-10.46
			c3.592,6.155,4.189,19.077,2.391,25.848c-2.987-0.618-5.385-2.464-7.177-5.542l-1.197-1.844
			c-11.967,12.919-40.092,16.614-50.866,0.615L189.492,69.537z"/>
		<g>
			<path fill="#45A98C" d="M190.938,69.936c4.107-10.256,12.191-16.466,23.4-16.094c9.675,0.321,19.077,5.542,26.154,11.832
				c0.752,0.669,2.321,0.537,2.507-0.662c0.613-3.943,1.486-7.528,5.293-9.564c-0.684-0.18-1.368-0.359-2.052-0.539
				c3.774,7.075,4.075,17.004,2.24,24.692c0.615-0.349,1.23-0.698,1.845-1.047c-3.725-1.018-5.5-3.651-7.478-6.697
				c-0.516-0.795-1.659-1.026-2.356-0.304c-11.552,11.962-42.989,17.866-49.554-2.416c-0.593-1.833-3.49-1.048-2.893,0.798
				c7.289,22.52,41.334,17.443,54.568,3.739c-0.785-0.101-1.57-0.202-2.356-0.304c2.458,3.786,4.713,6.831,9.271,8.076
				c0.768,0.21,1.655-0.251,1.845-1.047c2.029-8.502,1.633-19.178-2.542-27.004c-0.396-0.741-1.354-0.912-2.052-0.539
				c-4.455,2.382-5.93,6.581-6.672,11.357c0.835-0.221,1.671-0.441,2.507-0.662c-8.359-7.43-19.023-12.77-30.391-12.743
				c-11.715,0.028-20.019,7.945-24.177,18.329C187.326,70.935,190.229,71.708,190.938,69.936z"/>
		</g>
	</g>
	<g>
		<path fill="#FFFFFF" d="M697.492,355.756c6.076-16.015,23.17-12.108,33.046-3.125l0,0c0.382-2.733,1.138-5.468,3.798-6.641
			c2.28,3.907,2.658,12.109,1.518,16.407c-1.896-0.392-3.418-1.564-4.556-3.518l-0.76-1.171c-7.597,8.2-25.448,10.546-32.287,0.391
			L697.492,355.756z"/>
		<g>
			<path fill="#45A98C" d="M698.938,356.154c5.772-13.997,21.143-10.708,30.539-2.463c0.763,0.67,2.305,0.536,2.507-0.662
				c0.395-2.34,0.646-4.261,3.108-5.744c-0.684-0.179-1.368-0.358-2.052-0.538c2.274,4.499,2.45,10.397,1.366,15.252
				c0.615-0.35,1.229-0.699,1.845-1.048c-2.159-0.649-3.261-2.214-4.419-3.999c-0.521-0.803-1.651-1.017-2.355-0.304
				c-7.073,7.152-26.472,11.271-30.539-1.291c-0.593-1.833-3.49-1.049-2.893,0.797c4.791,14.8,26.769,11.499,35.553,2.615
				c-0.785-0.102-1.57-0.202-2.355-0.304c1.666,2.567,3.17,4.463,6.212,5.378c0.754,0.227,1.67-0.263,1.845-1.048
				c1.27-5.687,0.991-12.303-1.669-17.562c-0.365-0.724-1.384-0.94-2.052-0.538c-2.943,1.771-3.926,4.207-4.487,7.537
				c0.836-0.221,1.671-0.441,2.507-0.662c-11.338-9.95-28.887-12.379-35.553,3.787C695.309,357.146,698.212,357.917,698.938,356.154
				z"/>
		</g>
	</g>
	<g>
		<path fill="#FFFFFF" d="M627.492,278.142c12.131-31.971,46.254-24.173,65.969-6.239l0,0c0.763-5.456,2.272-10.916,7.582-13.256
			c4.553,7.8,5.308,24.174,3.031,32.753c-3.787-0.782-6.825-3.122-9.096-7.022l-1.518-2.336
			c-15.163,16.37-50.803,21.053-64.454,0.779L627.492,278.142z"/>
		<g>
			<path fill="#45A98C" d="M628.938,278.54c5.071-12.808,15.198-20.938,29.224-20.721c12.65,0.197,25.007,6.897,34.238,15.144
				c0.75,0.67,2.324,0.536,2.507-0.662c0.774-5.068,1.995-9.819,6.893-12.359c-0.684-0.179-1.368-0.358-2.052-0.538
				c4.869,8.974,5.258,21.829,2.88,31.598c0.615-0.35,1.229-0.699,1.845-1.048c-4.838-1.248-7.161-4.735-9.717-8.669
				c-0.514-0.792-1.661-1.029-2.355-0.304c-9.051,9.454-22.471,13.829-35.355,13.76c-6.351-0.034-12.643-1.587-18.176-4.707
				c-5.174-2.917-8.156-6.809-9.931-12.29c-0.593-1.833-3.49-1.049-2.893,0.797c9.117,28.164,51.985,21.788,68.476,4.562
				c-0.785-0.102-1.57-0.202-2.355-0.304c3.036,4.675,5.826,8.582,11.51,10.048c0.772,0.199,1.649-0.244,1.845-1.048
				c2.574-10.575,2.09-24.192-3.183-33.908c-0.403-0.745-1.345-0.905-2.052-0.538c-5.572,2.889-7.372,8.259-8.271,14.152
				c0.836-0.221,1.671-0.441,2.507-0.662c-10.272-9.176-23.438-15.821-37.417-16.039c-14.955-0.232-25.776,9.599-31.059,22.94
				C625.333,279.544,628.235,280.317,628.938,278.54z"/>
		</g>
	</g>
	<g>
		<path fill="#FFFFFF" d="M666.492,221.73c8.104-21.357,30.898-16.147,44.068-4.168l0,0c0.509-3.645,1.518-7.292,5.064-8.854
			c3.041,5.21,3.546,16.148,2.024,21.88c-2.529-0.523-4.559-2.086-6.075-4.692l-1.014-1.561
			c-10.13,10.936-33.938,14.063-43.057,0.521L666.492,221.73z"/>
		<g>
			<path fill="#45A98C" d="M667.938,222.129c7.708-19.053,28.814-14.787,41.562-3.506c0.756,0.669,2.315,0.537,2.507-0.662
				c0.522-3.262,1.24-6.205,4.375-7.958c-0.684-0.18-1.368-0.359-2.052-0.539c3.145,5.982,3.394,14.235,1.873,20.724
				c0.615-0.349,1.23-0.698,1.845-1.047c-3.104-0.884-4.538-3.018-6.192-5.563c-0.518-0.796-1.656-1.023-2.355-0.303
				c-9.667,9.942-36.048,15.093-41.562-1.943c-0.593-1.833-3.49-1.048-2.893,0.798c6.237,19.271,35.216,14.951,46.575,3.267
				c-0.785-0.101-1.57-0.202-2.355-0.303c2.132,3.283,4.065,5.826,7.985,6.941c0.763,0.217,1.659-0.257,1.845-1.047
				c1.714-7.312,1.368-16.296-2.176-23.036c-0.385-0.733-1.363-0.923-2.052-0.539c-3.833,2.144-5.084,5.564-5.754,9.751
				c0.836-0.221,1.671-0.441,2.507-0.662c-7.079-6.265-15.938-10.71-25.527-10.859c-10.188-0.158-17.414,6.708-21.048,15.689
				C664.32,223.126,667.223,223.898,667.938,222.129z"/>
		</g>
	</g>
</g>
<g id="expression1">
	<g>
		<path fill="#D6E5EA" d="M440.077,175.467c-7.792,8.391,4.195,28.768,11.986,14.384
			C456.858,181.459,449.666,162.88,440.077,175.467"/>
		<g>
			<path fill="#45A98C" d="M439.017,174.406c-4.2,4.821-3.532,11.919-0.369,17.121c3.069,5.047,8.843,6.474,12.923,1.747
				c4.416-5.117,4.357-12.676,1.565-18.542c-1.125-2.364-3.239-4.605-5.942-4.947C443.749,169.347,440.997,171.911,439.017,174.406
				c-1.189,1.498,0.919,3.636,2.121,2.121c1.41-1.776,3.164-3.866,5.638-3.796c1.974,0.056,3.283,2.493,4.002,4.003
				c2.056,4.319,1.732,9.644-0.775,13.645c-2.776,4.429-6.676,3.068-9.035-0.812c-2.313-3.806-2.916-9.496,0.171-13.04
				C442.402,175.076,440.289,172.945,439.017,174.406L439.017,174.406z"/>
		</g>
	</g>
	<g>
		<path fill="#D6E5EA" d="M392.129,175.467c-7.791,8.391,4.195,28.768,11.987,14.384
			C408.911,181.459,401.719,162.88,392.129,175.467"/>
		<g>
			<path fill="#45A98C" d="M391.068,174.406c-4.2,4.821-3.531,11.919-0.369,17.121c3.069,5.047,8.843,6.474,12.923,1.747
				c4.416-5.117,4.357-12.676,1.565-18.542c-1.125-2.364-3.239-4.605-5.942-4.947C395.801,169.347,393.049,171.911,391.068,174.406
				c-1.189,1.498,0.918,3.636,2.121,2.121c1.41-1.776,3.165-3.866,5.639-3.796c1.973,0.056,3.283,2.493,4.002,4.003
				c2.056,4.319,1.732,9.644-0.775,13.645c-2.776,4.429-6.677,3.068-9.036-0.812c-2.314-3.806-2.916-9.496,0.17-13.04
				C394.454,175.076,392.341,172.945,391.068,174.406L391.068,174.406z"/>
		</g>
	</g>
	<g>
		<g>
			<path fill="#45A98C" d="M453.42,222.119c-6.528-3.683-14.104-5.242-20.057-9.933c-4.235-3.338-7.542-8.533-12.871-10.311
				c-5.947-1.985-11.143,0.379-16.612,2.759c-4.788,2.083-8.235,2.761-13.225,0.788c-3.048-1.206-5.809-2.421-9.108-2.67
				c-1.931-0.146-1.917,2.855,0,3c5.384,0.407,10.872,5.455,16.376,4.125c6.737-1.627,13.408-7.124,20.535-5.521
				c5.875,1.321,9.559,7.78,14.241,11.095c5.875,4.16,12.981,5.747,19.208,9.26C453.593,225.661,455.104,223.069,453.42,222.119
				L453.42,222.119z"/>
		</g>
	</g>
	<g>
		<g>
			<path fill="#45A98C" d="M439.632,151.928c6.186,7.774,15.351,11.094,23.804,15.735c1.696,0.931,3.21-1.66,1.514-2.591
				c-8.227-4.516-17.169-7.691-23.196-15.265C440.549,148.293,438.44,150.431,439.632,151.928L439.632,151.928z"/>
		</g>
	</g>
	<g>
		<g>
			<path fill="#45A98C" d="M402.969,161.168c-7.099,6.561-14.939,6.984-24.112,7.837c-1.909,0.178-1.927,3.179,0,3
				c10.046-0.934,18.494-1.563,26.233-8.716C406.514,161.974,404.387,159.857,402.969,161.168L402.969,161.168z"/>
		</g>
	</g>
</g>
</svg>
