<svg xmlns="http://www.w3.org/2000/svg" width="829.275" height="500"><path fill="#FFF" d="M499.358 203.248l-5.045 7.88 2.515 2.671-4.847 36.623 8.392 21.384s-3.66 21.296-17.965 30.995c-10.055 6.817-7.951 7.562-13.878 9.926-2.506.999-17.594 5.773-17.594 5.773l14.834-35.165 5.413-12.967-16.354-15.173-30.665-14.085-33.811-8.789-15.271-1.352-17.249-24.853-12.473-22.985-1.325-33.448 4.635-35.487 9.241-14.747 25.739-14.801 35.452-8.359 38.518 3.146 24.938 11.222 18.295 19.592 7.205 20.208 3.347 17.76-.845 26.511-8.539 24.232-2.663 4.288z"/><path fill="#45A98C" stroke="#45A98C" stroke-width="4" stroke-miterlimit="10" d="M450.468 350.867l2.089 38.898 56.037-55.395 48.244 16.357-104.864 103.616-49.323-19.233-.587-65.645-.112-5.866 10.402 9.046 15.459-13.848 15.678-3.195 2.755-6.096z"/><path fill="#FFF" d="M488.377 249.42s13.849 8.553 11.632 21.781"/><path fill="#45A98C" d="M487.62 250.715c6.954 4.371 12.002 12.112 10.889 20.486-.254 1.913 2.749 1.889 3 0 1.249-9.399-4.602-18.191-12.375-23.077-1.643-1.032-3.148 1.564-1.514 2.591z"/><path fill="#FFF" d="M578.192 307.367c3-19-15.5-31.402-32.5-32.402-16-.5-30.655 12.035-44.155-2.965h-1.288c1.064-11-10.807-22.483-10.807-22.483 6.417 2.637 24.25-1.101 24.25-1.101-1 18 30 12.976 40.5 13.976 20.5 2 36.5 25.475 24 44.975"/><path fill="#45A98C" d="M579.692 307.367c2.255-17.211-11.655-29.317-27.201-33.042-8.702-2.085-17.002.077-25.492 2.06-5.008 1.17-9.983 1.893-15.038.621-3.152-.792-5.797-2.811-8.133-4.972-1.591-1.473-1.524-1.729-3.579-1.729l1.5 1.5c.488-8.824-5.301-17.369-11.246-23.446l-1.459 2.507c7.572 2.685 17.384.513 25.047-1.053l-1.898-1.446c-.392 16.645 22.084 15.553 33.476 15.391 10.275-.146 19.112 1.607 26.807 9.072 9.297 9.019 11.109 22.774 4.423 33.78-1.008 1.658 1.587 3.164 2.59 1.514 11.333-18.651-.796-41.365-21.032-46.564-10.997-2.825-43.697 5.273-43.263-13.192.024-1.027-.971-1.636-1.898-1.446-7.124 1.455-16.408 3.55-23.453 1.053-1.469-.521-2.457 1.486-1.459 2.507 5.394 5.514 10.811 13.323 10.367 21.325-.045.817.717 1.5 1.5 1.5 1.342 0 2.888 2.15 3.938 3.002 1.252 1.014 2.639 1.776 4.072 2.497 3.022 1.519 6.447 1.92 9.781 1.922 8.391.006 16.414-3.67 24.757-4.316 17.362-1.348 36.312 12.508 33.895 30.957-.253 1.912 2.751 1.888 2.998-.002z"/><path fill="#FFF" d="M377.742 231.767c-25.556 9.483-58.547 18.634-80.124 8.445-15.583-7.792-50.346-47.948-67.727-21.577l-1.199 1.798c2.397-30.567 26.371-37.759 47.948-17.381 10.789 9.59 19.179 23.974 34.762 23.375 11.388-.6 47.16-7.792 46.561-22.176"/><path fill="#45A98C" d="M377.343 230.32c-17.812 6.567-36.438 12.372-55.562 12.847-8.253.206-17.272-.854-24.61-4.894-5.039-2.775-9.545-6.645-14.067-10.16-9.593-7.455-19.691-15.668-31.614-18.951-10.541-2.902-18.356 1.909-24.092 10.514l2.795.757c.758-8.284 3.053-16.608 9.24-22.505 5.499-5.241 13.326-5.725 20.282-3.695 16.789 4.9 24.483 22.906 39.277 30.879 10.74 5.789 25.341 1.504 36.262-1.737 8.77-2.603 24.193-7.777 24.21-19.125.003-1.935-2.997-1.935-3 0-.009 6.045-6.222 9.6-10.958 12.001-6.479 3.285-13.718 5.186-20.785 6.714-5.935 1.284-12.383 2.622-18.443 1.575-9.06-1.565-15.752-9.462-21.739-15.776-9.508-10.027-21.313-20.466-36.166-18.397-14.364 2.001-20.034 17.553-21.179 30.065-.146 1.598 2.039 1.892 2.795.757 2.997-4.496 6.223-8.244 11.671-9.578 5.787-1.417 12.111 1.112 17.207 3.625 10.902 5.378 20.146 13.674 29.811 20.912 25.789 19.313 62.273 7.088 89.463-2.937 1.798-.661 1.021-3.562-.798-2.891z"/><path fill="#45A98C" d="M479.664 230.186c4.235-4.313 8.01-8.958 11.615-13.801 3.443-4.625 8.065-9.25 10.623-14.373 2.095-4.195 4.52-8.051 6.231-12.462 2.024-5.22 3.292-10.714 4.172-16.232 3.347-21.005-.455-43.579-10.484-62.317-21.083-39.389-72.95-41.683-111.172-30.304-11.695 3.482-23.652 8.76-32.899 16.852-8.364 7.32-11.75 17.756-13.108 28.472-1.756 13.857-2.629 28.165-1.869 42.121.737 13.511 4.091 27.494 14.129 37.171 1.392 1.342 3.516-.776 2.121-2.121-17.459-16.832-14.081-46.189-12.307-68.142.811-10.025 1.924-20.331 7.512-28.963 5.929-9.16 16.852-14.65 26.625-18.737 20.724-8.667 44.598-11.529 66.802-8.365 22.54 3.212 41.31 14.354 52.184 34.67 9.657 18.042 12.566 40.081 9.365 60.168-1.505 9.445-4.744 18.601-9.893 26.675-6.149 9.643-13.753 19.403-21.77 27.567-1.354 1.38.766 3.503 2.123 2.121z"/><path fill="#FFF" d="M489.442 249.42c20.997 3.882 45.624-11.968 57.914-28.986 9.59-13.785 18.58-28.169 25.173-43.752 7.192-16.782 19.778-19.779 31.766-31.766l2.397-2.397c-25.173-1.199-46.749 16.782-59.935 36.561-7.792 10.788-11.987 21.577-23.375 29.368-9.59 6.593-19.965 4.354-30.154 5.553"/><path fill="#45A98C" d="M489.044 250.866c13.04 2.133 25.657-2.114 36.773-8.769 12.94-7.745 21.764-18.942 29.886-31.368a248.673 248.673 0 0 0 12.756-21.82c3.972-7.681 6.59-15.951 12.346-22.563 4.322-4.964 9.996-8.584 15.238-12.476 4.202-3.119 8.016-6.598 11.71-10.292.948-.948.229-2.519-1.061-2.561-22.686-.732-42.042 12.817-55.783 29.847-7.415 9.19-12.561 20.016-20.19 29.013-4.523 5.333-10.206 9.394-17.024 11.113-6.604 1.664-13.73.83-20.466 1.509-1.905.192-1.925 3.194 0 3 11.412-1.152 22.925.51 32.602-6.982 9.419-7.292 14.662-17.698 21.267-27.334 13.732-20.035 33.829-37.997 59.596-37.166l-1.061-2.561c-7.445 7.445-16.345 12.873-24.112 19.898-4.486 4.058-7.816 9.079-10.285 14.568-3.475 7.723-7.197 15.228-11.463 22.551-7.896 13.553-16.432 26.92-28.983 36.605-11.408 8.803-26.319 15.286-40.947 12.894-1.894-.308-2.705 2.583-.799 2.894z"/><path fill="#45A98C" d="M452.604 319.25c20.712-1.212 40.326-21.113 46.683-39.894 3.157-9.328 1.904-19.228-4.718-26.68-1.456-1.639-4.796-3.064-5.891-4.689a104.107 104.107 0 0 1-2.469-3.889c-2.503-4.093-6.657-9.957-6.105-14.973.211-1.922-2.791-1.901-3 0-.753 6.848 5.384 14.99 8.983 20.376 1.024 1.532 3.466 2.581 4.856 3.804 1.934 1.702 3.463 3.77 4.713 6.008 2.602 4.658 2.741 10.255 1.768 15.371-2.05 10.766-9.375 20.275-17.162 27.62-7.393 6.972-17.249 13.336-27.658 13.945-1.923.113-1.934 3.114 0 3.001z"/><path fill="#FFF" d="M432.271 323.896c-31.824 29.979-29.557 60.36-24.361 65.155 8.79 9.189 18.779 13.984 30.767 17.181 10.388 3.197 21.177 7.192 31.965 7.593 7.191.398 22.545 3.2 25.341-3.991l19.456-15.477c2.667 47.144-53.587 37.448-80.758 35.45-28.369-2.397-58.736-27.172-57.937-57.139.799-20.378 11.473-36.822 24.211-48.275"/><path fill="#45A98C" d="M431.21 322.835c-14.376 13.767-26.522 31.673-27.809 52.085-.287 4.556-.033 10.112 2.525 14.078 4.86 7.534 15.353 12.632 23.362 15.803 11.812 4.675 25.145 8.727 37.756 10.263 7.94.968 17.999 2.673 25.648-.25 2.421-.925 2.949-2.807 4.693-4.194l6.356-5.057 12.755-10.146-2.561-1.061c.398 8.677-.969 17.42-6.807 24.182-5.03 5.825-12.581 8.654-19.901 10.251-15.352 3.347-31.615 1.354-47.085-.028-10.559-.944-20.124-2.911-29.635-7.852-10.993-5.711-20.385-14.544-26.488-25.328-13.725-24.253-.873-52.888 17.993-70.128 1.431-1.308-.696-3.423-2.121-2.121-16.887 15.432-28.84 38.786-23.177 62.021 5.23 21.461 25.242 37.371 45.57 43.608 7.997 2.453 16.504 2.693 24.785 3.417 8.047.703 16.112 1.22 24.194 1.066 13.731-.261 30.416-2.633 39.308-14.391 5.393-7.13 6.766-15.953 6.364-24.698-.064-1.396-1.548-1.866-2.561-1.061l-9.729 7.738-6.971 5.545c-.812.646-2.517 1.507-2.991 2.497-3.237 6.747-16.352 3.89-22.251 3.377-12.277-1.066-23.124-4.857-34.913-8.095-10.908-2.994-20.604-8.279-28.553-16.368-2.823-2.874-2.688-8.494-2.606-12.175.436-19.765 13.269-37.74 26.968-50.859 1.402-1.338-.722-3.457-2.118-2.119z"/><path fill="#45A98C" stroke="#45A98C" stroke-width="4" stroke-miterlimit="10" d="M447.714 321.645l23.416-51.308s-1.359-31.011-80.776-44.016l-77.456 27.611 33.195 35.786 76.176-24.165-25.517 50.178 6.849 14.696 14.972-8.277 15.136 3.741 8.32-4.737 4.635 3.038 1.05-2.547z"/><path fill="#D6E5EA" d="M314.4 239.61c-4.451-1.527-6.394-2.397-2.397-5.594 1.998-1.199 11.188-2.397 13.186-1.199 11.187 5.595-7.193 6.793-10.789 6.793"/><path fill="#D6E5EA" d="M314.799 238.164c-1.012-.352-2.017-.696-2.975-1.179-.966-.487.379-1.378 1.187-1.806 1.49-.791 3.636-.925 5.274-1.126 2.862-.352 6.946-.808 8.919 1.929.061.084.302-.371-.039-.033-.314.313-.877.479-1.282.626-1.354.493-2.809.735-4.227.959-2.386.377-4.84.562-7.256.576-1.934.011-1.935 3.011 0 3 3.949-.022 8.125-.385 11.916-1.522 3.447-1.033 5.476-4.073 1.98-6.646-4.312-3.177-10.024-2.269-14.934-1.022-2.125.54-4.596 2.146-4.978 4.47-.482 2.94 3.578 3.959 5.616 4.667 1.833.636 2.614-2.263.799-2.893z"/><path fill="#FFF" d="M376.771 282.166c-12.786 6.395-34.993 4.179-45.781-4.213-11.587-8.79-11.987-27.17-16.782-39.157-4.395 7.991-3.196 25.972-1.598 35.162 2.397 12.786 13.984 23.974 25.172 29.968 19.978 9.988 44.044 8.276 59.627-8.106 5.194-5.993 8.539-12.484 7.194-22.819"/><path fill="#45A98C" d="M376.014 280.871c-13.025 6.147-31.445 4.476-43.342-3.528-12.3-8.274-12.193-26.358-17.018-38.946-.423-1.104-2.102-1.63-2.742-.358-5.441 10.811-3.904 26.33-1.432 37.786 3.229 14.966 17.921 26.644 31.443 31.979 13.557 5.35 28.963 5.036 42.161-1.106 13.398-6.236 22.634-18.656 21.019-33.697-.204-1.902-3.206-1.923-3 0 1.549 14.424-7.128 24.844-19.533 31.106-12.373 6.247-27.137 5.454-39.849.805-13.128-4.801-25.619-16.173-29.349-29.884-1.525-5.606-1.622-11.901-1.711-17.675-.091-5.896.142-12.437 2.841-17.8l-2.742-.358c5.5 14.353 5.38 31.982 19.371 41.394 12.388 8.335 32.077 9.159 45.395 2.872 1.75-.825.226-3.411-1.512-2.59z"/><path fill="#FFF" d="M508.594 334.37c1.199-6.394 8.396-23.635 16.388-22.835-21.977-1.198-34.762 17.462-34.762 37.84"/><path fill="#45A98C" d="M510.04 334.769c1.356-6.524 6.56-21.933 14.941-21.733 1.938.046 1.928-2.933 0-3-22.474-.784-35.969 18.336-36.262 39.34-.027 1.936 2.973 1.933 3 0 .271-19.396 12.419-37.067 33.262-36.34v-3c-10.2-.242-16.167 15.912-17.834 23.937-.392 1.886 2.499 2.689 2.893.796z"/><path fill="#D6E5EA" d="M261.238 208.312c3.196 2.397 15.004 12.918 14.205 2.929 0-3.996-7.591-9.589-11.587-9.989-3.596 0-6.541 2.232-2.618 7.06"/><path fill="#D6E5EA" d="M260.481 209.608c3.395 2.583 6.657 5.582 10.744 7.028 4.696 1.661 6.324-2.947 5.523-6.779-1.002-4.798-7.589-8.975-11.998-9.979-2.051-.467-4.556.26-5.952 1.834-2.009 2.265-.355 5.37 1.144 7.357 1.149 1.524 3.756.032 2.591-1.514-1.183-1.569-2.766-3.83-.088-4.647 1.819-.555 3.7.534 5.227 1.396 3.134 1.769 6.909 4.855 6.228 8.859-.514 3.017-10.592-5.146-11.905-6.146-1.54-1.172-3.032 1.436-1.514 2.591zm73.542 86.328c-3.626-2.537-9.064-6.163-9.426-10.877 7.251-2.537 16.27 4.439 16.632 11.691-3.988.725-4.848.365-8.111-1.447"/><path fill="#D6E5EA" d="M334.78 294.641c-3.577-2.498-8.08-5.296-8.737-9.98l-1.047 1.845c6.535-1.956 14.102 3.514 14.733 10.245l1.101-1.446c-2.824.47-4.477.063-6.956-1.296-1.697-.932-3.21 1.659-1.514 2.59 3.233 1.774 5.616 2.207 9.267 1.599.606-.101 1.158-.839 1.101-1.446-.806-8.605-10-15.691-18.531-13.138-.859.257-1.163 1.021-1.047 1.845.77 5.484 5.925 8.848 10.115 11.773 1.591 1.11 3.089-1.493 1.515-2.591zm37.176-2.433c-2.437.348-9.749 1.74-9.4 4.874.348 4.178 9.748 3.829 12.534 3.481 3.481-.696 10.444-4.526 6.267-8.704-1.742-1.741-8.356-.696-10.793-.348"/><path fill="#D6E5EA" d="M371.557 290.762c-3.843.584-11.377 1.913-10.338 7.285.917 4.744 9.535 4.343 12.908 4.112 3.63-.249 11.41-3.66 9.927-8.534-1.808-5.943-9.199-4.236-13.889-3.56-1.909.275-1.094 3.166.798 2.893 1.975-.285 10.874-2.142 10.114 2.027-.542 2.979-5.755 4.127-8.191 4.245-2.41.117-7.092.407-8.703-1.831-1.397-1.941 7.161-3.592 8.172-3.745 1.908-.289 1.094-3.179-.798-2.892zm20.457 60.634c-4.395 2.398-14.277 19.084-1.891 15.488 11.587-3.596 10.981-27.635-2.797-10.188"/><path fill="#D6E5EA" d="M391.257 350.102c-4.41 2.621-8.211 9.096-8.641 14.145-.609 7.156 9.046 4.249 12.149 1.683 3.693-3.056 6.464-9.841 4.373-14.479-3.017-6.688-10.562 1.32-12.873 4.186-1.203 1.49.906 3.627 2.121 2.121.98-1.215 6.962-8.77 8.217-4.524 1.031 3.49-1.183 7.852-3.583 10.233-1.562 1.55-3.75 2.353-5.924 2.424-2.064.068-1.494-2.077-1.111-3.401.988-3.418 3.651-7.933 6.786-9.797 1.661-.989.153-3.583-1.514-2.591zm-6.733 32.957c.4 7.192 15.184 23.176 13.187 8.391-.799-4.794-5.194-12.386-10.389-13.186-7.192-.799-3.771 5.576-.468 9.591"/><path fill="#D6E5EA" d="M383.024 383.059c.458 5.332 4.543 10.801 8.604 14.052 1.426 1.142 3.536 2.471 5.426 1.674 2.319-.979 2.42-3.839 2.299-5.999-.374-6.646-5.53-15.5-12.761-16.08-2.703-.217-5.11 1.244-4.998 4.131.116 2.992 2.412 5.862 4.2 8.079 1.215 1.507 3.324-.631 2.121-2.121-1.326-1.645-2.604-3.46-3.217-5.502-.824-2.743 3.496-1.318 4.654-.651 4.406 2.541 7.16 8.897 7.032 13.806-.095 3.64-3.885-.483-5.004-1.68-2.337-2.496-5.051-6.177-5.354-9.708-.166-1.914-3.168-1.93-3.002-.001zm28.08 27.816c3.028 2.542 24.773 16.139 27.171 5.75 1.598-7.592-21.976-10.789-27.171-10.789 0 0-1.957 3.396 0 5.039z"/><path fill="#D6E5EA" d="M410.044 411.936c4.782 3.85 26.097 17.229 29.456 5.841 3.266-11.07-21.76-13.342-28.396-13.44-.507-.008-1.056.286-1.295.743-1.156 2.204-1.505 4.463 0 6.553 1.119 1.555 3.723.06 2.59-1.514l-.136-3.266c-.905.414-.969.584-.192.51.901.035 1.801.129 2.697.218 2.688.266 5.355.733 8.002 1.271 3.93.798 12.285 2.12 13.987 6.457 1.229 3.131-3.195 3.742-5.082 3.615-2.85-.192-5.768-1.477-8.338-2.62-3.847-1.71-7.878-3.836-11.173-6.488-1.49-1.203-3.628.907-2.12 2.12zm54.602 7.367c-3.597 0-15.984-2.459-10.789 4.427 3.196 3.442 11.188 1.967 14.784 1.967 2.397 0 16.382 0 9.988-4.917-3.596-2.461-9.589-.985-13.983-1.477"/><path fill="#D6E5EA" d="M464.646 417.803c-3.494-.091-12.24-2.346-13.484 2.628-.599 2.396 1.771 4.706 3.575 5.787 3.398 2.036 8.4 1.295 12.121 1.05 3.531-.232 12.436 1.025 14.478-2.8 4.064-7.618-14.071-6.484-16.69-6.665-1.932-.134-1.919 2.867 0 3 2.434.169 4.854.038 7.291 0 1.58-.024 9.554 1.551 4.98 2.749-2.935.769-6.104.592-9.111.665-1.83.044-3.656.234-5.487.289a21.135 21.135 0 0 1-4.363-.327c-1.041-.185-5.262-2.86-3.054-3.57 2.967-.952 6.696.115 9.744.194 1.935.051 1.93-2.949 0-3zm36.568-6.357c-2.181 2.182-7.786 8.409-.935 7.787 3.738-.311 5.762-7.787.935-7.787"/><path fill="#D6E5EA" d="M500.153 410.386c-1.768 1.78-3.61 3.778-4.468 6.176-1.138 3.178 2.049 4.354 4.594 4.172 5.688-.408 7.673-10.54.935-10.787-1.936-.071-1.929 2.93 0 3 1.375.051 1.488 1.125 1.205 2.277-.379 1.545-1.412 2.507-2.98 2.553-.242.008-.97-.211-.957.013-.03-.557.493-1.264.783-1.723.827-1.312 1.922-2.464 3.01-3.56 1.364-1.373-.757-3.495-2.122-2.121zm-.839-79.563c-1.986 4.963 3.226 9.431 5.211 2.481.248-.745.496-5.46 0-5.956-1.985-1.737-4.963 1.738-5.211 3.475"/><path fill="#D6E5EA" d="M497.868 330.425c-.956 2.551-.559 6.065 2.022 7.53 3.08 1.746 5.558-1.841 6.131-4.451.287-1.308.292-2.728.29-4.059-.003-1.27 0-2.828-1.238-3.554-3-1.757-6.652 1.611-7.205 4.534-.358 1.89 2.533 2.696 2.893.797.157-.831.676-1.503 1.258-2.096.246-.25.555-.515.882-.65.217-.091.299-.098.528-.097.146.001-.172-.212-.223-.364.397 1.202.118 3.603-.078 4.691-.153.853-.559 1.793-1.158 2.425-.177.187-.285.217-.464.265.018-.005-.08-.02-.247-.114-1.231-.698-.928-2.912-.498-4.06.68-1.815-2.22-2.592-2.893-.797zm-18.832-52.653c-7.192 7.192-3.597 19.978 6.393 12.387 11.588-7.991 2.397-23.974-7.592-11.188"/><path fill="#D6E5EA" d="M477.976 276.712c-3.527 3.691-5.831 9.859-2.94 14.602 3.433 5.632 10.728 1.114 13.93-2.236 3.416-3.574 4.848-9.972 1.365-14.007-4.249-4.924-10.312-1.162-13.554 2.84-1.206 1.488.902 3.625 2.121 2.121 2.035-2.511 5.945-6.286 9.059-3.133 2.756 2.791 1.062 7.555-1.112 10.057-1.876 2.159-7.149 6.238-9.419 2.516-2.053-3.368.307-8.162 2.672-10.638 1.335-1.398-.784-3.523-2.122-2.122zm3.545-20.618c-4.885 13.304 10.775 3.752 3.583.156 0 0-3.227-1.127-3.583-.156z"/><path fill="#D6E5EA" d="M480.074 255.695c-.772 2.127-1.532 4.705-.566 6.891.701 1.586 2.426 2.036 3.998 1.741 2.768-.521 5.847-3.744 4.835-6.71-.443-1.301-1.603-2.398-2.902-2.835-1.473-.496-4.334-1.294-5.213.555-.352.738-.211 1.613.538 2.052.66.387 1.701.2 2.052-.538.131-.275-.341.303-.507.364.32-.119-.341.01.043-.014.13-.008.261.002.391.01.45.027-.297-.057.162.018.529.085 1.05.229 1.56.389.158.05.436.211-.019-.021.184.094.358.202.53.316.077.053.333.265-.006-.01.067.056.132.115.195.175.061.057.116.118.173.179.178.196-.218-.318.003.005.079.116.289.591.082.089.053.127.087.26.115.394.057.271-.043-.407-.019-.133.006.067.006.134.007.201 0 .067-.006.134-.011.201-.021.255.079-.438.001-.064a2.985 2.985 0 0 1-.117.398c-.094.265.158-.354.043-.096-.029.065-.063.129-.096.193a4.265 4.265 0 0 1-.227.379c-.261.396.178-.189-.132.177a5.788 5.788 0 0 1-.658.652c-.281.241.267-.183-.126.097a5.948 5.948 0 0 1-.85.497c-.335.161.334-.118-.112.041a4.063 4.063 0 0 1-.4.118c-.065.016-.132.028-.198.041-.256.048.445-.044.075-.013-.125.01-.25.008-.375 0-.262-.016.416.067.16.023a2.046 2.046 0 0 1-.172-.041c-.412-.109.276.154-.015-.002-.369-.198.236.25-.066-.05-.232-.231.201.333-.029-.048-.235-.389.071.259-.048-.093a2.931 2.931 0 0 1-.112-.473c.089.512-.002-.208-.003-.359a6.969 6.969 0 0 1 .049-.791c-.041.384.01-.051.019-.108.03-.184.068-.367.107-.549.177-.835.443-1.649.734-2.451.279-.769-.307-1.641-1.048-1.845-.836-.23-1.566.28-1.845 1.048zM522 222.637c-4.233-.706-9.442 4.221-8.032 9.16 1.765 5.997 14.817 1.058 18.347-1.411 11.642-9.173-7.763-11.643-14.113-6.703"/><path fill="#D6E5EA" d="M522 221.137c-6.271-.496-13.67 8.419-7.834 13.568 4.517 3.984 13.747-.073 18.079-2.501 4.28-2.4 7.745-8.297 2.092-11.189-4.816-2.464-12.542-1.753-16.893 1.373-1.556 1.118-.061 3.722 1.514 2.591 2.843-2.042 6.501-2.421 9.906-2.243 1.675.087 3.391.475 4.827 1.356 1.803 1.106-.116 3.086-1.038 4.024-2.812 2.863-7.536 4.144-11.354 4.848-1.851.342-5.057.622-5.885-1.566-1.476-3.901 3.141-7.534 6.586-7.261 1.93.152 1.915-2.849 0-3zm24.454-26.774c-2.513 2.512-6.819 9.332-6.102 12.921 1.436 6.101 7.538 3.948 10.768.358 1.435-1.794 6.461-11.126 3.948-13.639-3.229-3.589-8.777-.28-10.214 2.232"/><path fill="#D6E5EA" d="M545.394 193.303c-3.436 3.592-8.71 11.03-5.835 16.203 2.922 5.257 9.838 2.88 12.856-1.106 2.643-3.489 5.562-9.294 4.661-13.77-.522-2.599-3.711-3.725-6.011-3.687-2.96.049-5.936 2.138-7.506 4.536-1.064 1.623 1.535 3.125 2.59 1.514 2.053-3.132 8.99-4.78 7.929.672-.599 3.072-2.188 6.125-3.895 8.726-1.935 2.946-8.355 5.294-8.405-.213-.033-3.703 3.302-8.208 5.736-10.753 1.338-1.399-.782-3.523-2.12-2.122zm23.381-23.498c1.157 1.603-1.357 9.231-4.344 8.688-3.529-.543-.971-8.416 1.473-8.688 0 0 1.918-1.32 2.871 0z"/><path fill="#D6E5EA" d="M567.48 170.562c.519.867-.369 3.064-.766 3.971-.186.422-1.671 3.35-2.357 2.249-.678-1.087.19-3.174.688-4.159.26-.515 1.965-2.501 2.669-1.758 1.332 1.407 3.45-.718 2.121-2.121-1.229-1.299-2.812-1.159-4.319-.449-.347.164-.573.174-1.138.535-.597.382-1.025.932-1.443 1.491-1.559 2.087-2.501 5.836-1.04 8.181 1.878 3.013 5.291.974 6.731-1.193 1.343-2.02 2.829-5.944 1.443-8.262-.99-1.657-3.585-.15-2.589 1.515zM410.001 333.747c-2.719-.508-8.914 6.227-5.293 7.966 3.036 1.562 9.021-4.838 7.339-6.994l-2.046-.972z"/><path fill="#D6E5EA" d="M410.001 332.247c-2.781-.344-5.497 2.572-6.858 4.646-1.626 2.479-1.279 6.209 2.257 6.536 3.144.292 6.141-2.607 7.615-5.094.706-1.19 1.133-2.729.517-4.039-.492-1.048-1.797-1.381-2.773-1.845-1.737-.825-3.261 1.761-1.514 2.59l1.867.888c.433.205-.224-.496-.26-.234-.057.409-.233.768-.427 1.126-.876 1.626-2.581 3.187-4.401 3.619-1.84.438-.287-2.056.058-2.544.764-1.08 2.448-2.831 3.92-2.649 1.916.236 1.894-2.766-.001-3zm38.355-220.145c6.226 1.482 10.376 13.934 13.044 19.27 3.262 6.226 6.522 15.12 11.561 19.863 4.448 4.15 14.23 6.522 19.567 2.372 5.336-3.854 3.558-12.452 3.558-18.084 0-16.008-12.154-33.203-27.867-37.354-5.93-1.482-17.194-4.743-21.938.89-2.074 2.371-2.964 8.004-.889 10.968.889 1.482 3.262 2.372 4.743 3.262"/><path fill="#D6E5EA" d="M447.958 113.548c7.226 2.348 10.331 14.84 13.374 21.027 3.777 7.68 6.935 16.614 15.056 20.659 5.561 2.771 15.221 3.498 19.121-2.523 3.764-5.812 2.714-15.18 1.761-21.721-2.614-17.96-15.653-31.236-32.996-35.341-5.802-1.374-15.121-3.071-19.288 2.652-1.787 2.454-2.7 5.869-2.155 8.896.733 4.078 3.093 5.481 6.548 7.386 1.695.935 3.208-1.657 1.514-2.591-4.116-2.269-5.94-4.799-4.664-9.681 1.169-4.471 6.12-4.992 9.924-4.906 6.313.144 13.545 2.256 19.034 5.271 6.52 3.58 11.496 9.568 15.016 16.003 3.746 6.851 4.175 13.913 4.579 21.502.182 3.406.266 6.899-1.237 10.05-2.105 4.413-8.071 4.379-12.101 3.585-8.52-1.681-12.245-9.71-15.635-16.792-2.507-5.237-4.861-10.551-7.405-15.768-2.088-4.279-4.868-9.049-9.647-10.602-1.847-.598-2.631 2.299-.799 2.894zm66.478 152.318c-3.44-.345-5.39 3.784-2.409 5.503 2.638 1.49 10.664 4.128 13.187 1.376 2.293-2.637-.688-6.191-3.211-7.224-2.293-1.031-5.732-.917-8.025 0"/><path fill="#D6E5EA" d="M514.436 264.366c-3.65-.081-6.881 3.571-4.598 7.016.95 1.436 2.94 2.042 4.47 2.614 2.279.854 4.716 1.373 7.149 1.449 4.502.141 7.335-3.482 5.252-7.671-2.319-4.662-8.791-5.229-13.131-3.699-1.812.639-1.032 3.538.797 2.893 2.606-.919 5.532-1.022 7.963.436 1.228.736 2.664 2.484 1.992 4.007-.446 1.013-1.979 1.016-2.873 1.035-2.15.048-4.345-.64-6.353-1.342a16.13 16.13 0 0 1-2.321-1.029c-2.077-1.119.401-2.735 1.652-2.708 1.936.042 1.932-2.958.001-3.001zm33.476 2.835c-2.06-.274-4.669.55-1.511 3.434 1.374 1.372 5.768 1.784 7.826 1.647 3.021-.275 3.435-1.923.962-3.707-2.197-1.648-4.668-1.374-7.277-1.374"/><path fill="#D6E5EA" d="M547.912 265.701c-2.326-.241-5.766 1.244-4.093 4.134 1.801 3.111 5.19 3.719 8.51 3.94 2.377.159 7.401-.685 5.677-4.265-1.821-3.779-6.531-3.83-10.094-3.809-1.934.012-1.936 3.012 0 3 2.074-.013 4.171-.205 6.045.845.37.223.706.486 1.008.793.5.46.474.141-.067.316-.796.259-1.747.158-2.568.12-1.554-.072-3.295-.285-4.673-1.053a3.743 3.743 0 0 1-.646-.587c-.135-.158-.27-.315-.403-.474-.147-.436-.268-.388-.36.144.417-.292 1.204-.152 1.665-.104 1.923.199 1.903-2.803-.001-3zm25.207 11.962c3.906 1.073 4.199 7.812-.194 5.272-1.074-.586-2.441-2.344-2.245-3.612.194-1.27 2.245-2.637 3.025-.977"/><path fill="#D6E5EA" d="M572.721 279.109c.861.263 1.368.873 1.741 1.664.128.271.164.605.173.881.012.366.012.138-.033.327-.053.219.079-.025-.055.111.126-.129-.08-.057.238-.095-.275.033-.229.003-.429-.05-.559-.145-1.013-.514-1.407-.915-.311-.317-.888-1.025-.777-1.512.029-.13.162-.251.265-.325a.379.379 0 0 1 .239-.123c-.149.049-.41-.226-.266.03.946 1.687 3.538.175 2.59-1.514-1.709-3.045-5.616-.892-5.839 1.977-.116 1.488 1.053 3.047 2.08 3.987.915.837 2.154 1.392 3.395 1.449 2.318.107 3.224-2.312 2.908-4.227-.354-2.149-1.956-3.93-4.026-4.56-1.856-.562-2.643 2.334-.797 2.895z"/><path fill="#FFF" d="M352.357 213.841c-4.667-3.333-9.497-10.307-11.497-15.974-7.667-20-3.333-48.333-27.667-57.333-10.333-4-18.667-5-29.333-.667-8.333 3.333-14.667 13-13.333 22.667-1.667-18.667 25-14 33.333-4.667 15.333 17.667 12.333 44.333 25.333 63.333 0 0 10.645 1.952 21.947-8.316"/><path fill="#45A98C" d="M353.114 212.545c-20.694-15.956-10.743-47.489-27.684-65.9-16.205-17.611-59.387-14.289-56.404 15.889.187 1.892 3.118 1.953 3 0-.774-12.863 12.895-12.512 21.802-9.315 12.855 4.613 17.589 19.186 20.845 31.205 1.803 6.655 3.24 13.397 5.231 20.002 1.67 5.54 4.026 13.633 8.228 17.834 1.317 1.317 5.177.558 6.675.328 6.675-1.026 12.333-4.268 17.393-8.644 1.466-1.268-.666-3.38-2.121-2.121-5.478 4.738-12.085 8.206-19.48 8.008-1.787-.048-2.938-4.067-3.759-5.692-1.913-3.79-3.245-7.862-4.467-11.917-4.263-14.138-6.043-29.125-14.498-41.625-5.4-7.983-14.47-12.041-23.972-12.394-8.973-.333-15.43 5.153-14.877 14.329h3c-1.72-17.404 15.832-25.91 30.941-23.467 12.383 2.002 22.201 8.712 26.905 20.387 7.542 18.718 4.024 42.031 21.728 55.683 1.532 1.182 3.023-1.426 1.514-2.59z"/><path fill="#D6E5EA" d="M323.472 195.942c1.271 4.975 2.581 8.167 7.632 9.058 4.605.743 4.549-3.265 3.658-6.533-1.04-3.12-5.051-12.329-9.507-10.695-3.566 1.336-1.783 5.644-1.783 8.17"/><path fill="#D6E5EA" d="M322.025 196.341c1.456 5.539 3.841 9.653 9.995 10.248 5.358.518 5.073-6.145 3.85-9.461-1.501-4.068-3.982-9.577-8.502-10.926-2.025-.604-3.938.633-5.111 2.154-1.552 2.013-.39 5.343-.286 7.586.089 1.926 3.09 1.935 3 0-.082-1.757-1.628-8.436 2.342-6.577 2.505 1.172 3.999 4.776 5.079 7.135 1.15 2.514 3.001 7.888-1.794 6.86-3.797-.814-4.82-4.545-5.68-7.817-.491-1.869-3.385-1.075-2.893.798z"/><g fill="#D6E5EA"><path d="M303.806 151.84c2.33.822 7.397 4.7 10.275 1.41 2.056-2.467-2.874-6.07-4.656-7.44-2.056-1.645-7.949-3.29-9.868-.549-2.192 3.152 1.92 5.62 4.249 6.579"/><path d="M303.407 153.286c3.875 1.544 8.004 4.604 11.735 1.024 3.415-3.276-2.343-7.78-4.591-9.514-3.158-2.435-8.321-3.662-11.676-1.035-4.337 3.396 1.123 8.043 4.173 9.374 1.755.765 3.284-1.819 1.515-2.591-1.087-.474-2.113-1.012-3.037-1.765-1.767-1.438-.875-3.269 1.205-3.475 2.22-.22 4.58.761 6.306 2.083 1.256.962 6.625 5.4 2.062 5.666-2.365.137-4.771-1.813-6.894-2.659-1.799-.717-2.572 2.185-.798 2.892z"/></g><g fill="#45A98C"><path d="M118.193 496.867c0-54-6-107-17-160 16 3 18 71 20 88 3 23-7 60 3 81"/><path d="M119.693 496.867c-.072-53.927-6.157-107.609-17.054-160.398l-1.845 1.845c4.293.979 6.442 6.148 7.897 9.812 2.363 5.952 3.669 12.341 4.825 18.618 2.652 14.404 3.8 29.073 4.938 43.659 1.103 14.146 2.044 27.792 1.059 42.021-1.222 17.638-4.18 37.537 3.385 54.2.799 1.76 3.384.233 2.591-1.514-8.254-18.18-3.582-40.93-2.505-60.108.776-13.83-.944-27.617-2.071-41.394-1.2-14.673-2.61-29.435-5.739-43.841-1.627-7.493-4.398-22.254-13.582-24.347-1.157-.264-2.08.708-1.845 1.845 10.843 52.533 16.875 105.938 16.946 159.602.002 1.935 3.002 1.935 3 0z"/></g><g fill="#45A98C"><path d="M133.104 509.934c-6-27-5-55.066-5-83.066v-30c0-5-2.955-31 1.045-33 8-4 6.022 6 7.022 10 1 8-3.033 19-4.033 28-1 11-.034 23-.034 35v67.133"/><path d="M134.639 509.469c-6.146-28.444-4.946-57.691-4.946-86.602 0-10.671.396-21.4-.342-32.052-.518-7.489-1.438-15.355-.352-22.829.107-.738.259-2.356.951-2.824 3.518-2.381 4.128 1.665 4.302 4.025.327 4.441.747 8.633.124 13.096-.829 5.942-2.517 11.737-3.437 17.668-.923 5.947-.737 12.116-.64 18.114.46 28.6.394 57.196.394 85.802 0 1.935 3 1.935 3 0v-47.944c0-15.649-.697-31.345-.394-46.984.246-12.656 5.217-24.528 4.102-37.209-.532-6.052-1.255-12.562-8.966-9.157-4.532 2.001-2.833 14.245-2.702 17.778.354 9.55.959 18.943.959 28.517 0 31.829-1.797 64.262 3.897 95.733.343 1.896.749 3.781 1.156 5.665.41 1.89 3.302 1.088 2.894-.797z"/></g><g fill="#45A98C"><path d="M137.193 501.867c-2-16 7-32 10-48 2-13 0-27 4-40 4 30-9 53-14 82"/><path d="M138.693 501.867c-1.49-14.764 5.104-28.5 8.796-42.458 3.912-14.787.923-30.379 5.15-45.144l-2.946-.398c3.487 28.423-9.054 54.2-13.946 81.602-.338 1.891 2.553 2.699 2.893.797 4.94-27.668 17.574-53.701 14.054-82.398-.196-1.6-2.448-2.139-2.946-.398-4.228 14.768-1.502 30.307-5.15 45.143-3.534 14.37-10.434 28.092-8.904 43.256.191 1.903 3.193 1.923 2.999-.002z"/></g><g fill="#45A98C"><path d="M655.271 501.333c-5-18-5.078-40.466-7.078-59.466-1-16-14-42-6-57 10 16 15 34 15 53 0 12-5 36 6 45 1-8-4-15-3-22 1-10 6-15 11-23 3 12-3 24-1 36 16-3 2 15 2 16s5 10 5 13"/><path d="M656.717 500.935c-5.531-20.626-4.205-41.948-7.439-62.872-1.334-8.627-4.032-16.981-6.014-25.469-2.014-8.625-3.876-18.666.224-26.97h-2.59c10.765 17.555 15.887 37.794 14.528 58.362-.827 12.518-3.972 30.508 6.706 39.941 1.016.897 2.457.265 2.561-1.061.592-7.602-3.664-14.477-3-22 .762-8.633 6.322-15.229 10.795-22.243l-2.741-.358c2.585 12.005-2.645 23.909-1 36 .118.871 1.127 1.163 1.845 1.048 4.62-.742 6.631.46 5.029 5.001-.946 2.682-2.589 5.14-4.064 7.553-2.71 4.432 3.722 10.351 4.137 15 .171 1.911 3.172 1.928 3 0-.4-4.484-3.139-8.599-4.839-12.676-.435-1.042-.435.469-.113-.125.292-.539.633-1.056.953-1.578.987-1.608 1.926-3.239 2.766-4.931 1.215-2.447 2.669-5.836 1.5-8.554-1.54-3.582-6.009-3.09-9.165-2.583l1.845 1.048c-1.646-12.106 3.607-23.895 1-36-.287-1.334-2.084-1.39-2.741-.358-4.473 7.013-9.407 13.268-10.935 21.644-1.522 8.353 3.376 15.807 2.729 24.113l2.561-1.061c-11.146-9.848-5.916-30.065-5.569-43.018.514-19.208-5.202-38.382-15.196-54.679-.554-.903-2.073-1.046-2.59 0-7.761 15.717 1.598 35.356 4.854 51.105 2.177 10.528 2.167 21.67 2.992 32.365.886 11.48 2.091 23.003 5.081 34.15.498 1.87 3.392 1.077 2.89-.794z"/></g><path fill="#FFF" d="M181.193 320.867c-26 0-22 47 5 41 20-4 17.744-42.367-5-41"/><path fill="#45A98C" d="M181.193 319.367c-24.239.537-25.532 41.408-2.239 44.336 28.542 3.587 29.789-45.293 2.239-44.336-1.929.067-1.936 3.067 0 3 23.194-.806 22.762 40.278-1.407 38.44-20.022-1.523-19.426-37.979 1.407-38.44 1.932-.043 1.935-3.043 0-3z"/><path fill="#FFF" d="M207.193 311.867c-2.922 9 11 15 13 5s-9-12-13-5"/><path fill="#45A98C" d="M205.747 311.469c-1.314 4.534.744 9.024 4.943 11.143 3.899 1.967 8.485.704 10.316-3.357 1.956-4.337.952-10.268-3.689-12.343-4.332-1.938-9.08.382-11.418 4.199-1.013 1.654 1.582 3.16 2.591 1.514 1.56-2.547 4.307-3.983 7.264-3.121 3.592 1.048 3.719 5.895 2.452 8.707-1.181 2.62-4.101 2.769-6.394 1.612-2.868-1.447-4.042-4.547-3.171-7.557.538-1.863-2.357-2.652-2.894-.797z"/><path fill="#FFF" d="M194.193 276.867c17.982.797-3.256 21.966-3.256 2.966 0 0 1.56-3.041 3.256-2.966z"/><path fill="#45A98C" d="M194.193 278.367c1.237.06 1.772.101 3.016.445.208.058.413.125.616.197.096.033.19.071.285.108-.394-.155-.082-.033-.001.004.346.158.674.352.983.574-.409-.295.025.03.119.116.108.1.208.209.305.32.239.274-.195-.296.058.09.086.132.16.271.228.413.117.244-.146-.366-.049-.115a3.312 3.312 0 0 1 .157.564c.071.354-.031-.41.003.053.011.152.009.306.003.458-.005.141-.079.64.006.064-.02.134-.048.267-.079.397-.032.135-.071.267-.112.397s-.265.681-.047.167a6.697 6.697 0 0 1-.392.769c-.074.127-.153.25-.234.372-.073.11-.445.6-.114.175-.381.489-.824.93-1.305 1.32-.223.181.3-.227.071-.054a7.258 7.258 0 0 1-.542.368 6.672 6.672 0 0 1-.815.43c.515-.229-.078.021-.219.065-.17.055-.343.097-.518.133-.124.025-.476.068.076-.002a3.761 3.761 0 0 1-.766.017c-.367-.026.336.055.086.015a3.502 3.502 0 0 1-.247-.053c-.152-.037-.705-.269-.18-.037a3.186 3.186 0 0 1-.457-.254c-.099-.064-.366-.287.031.032a3.394 3.394 0 0 1-.21-.188c-.106-.1-.526-.615-.21-.201a4.834 4.834 0 0 1-.357-.55 5.84 5.84 0 0 1-.164-.313c-.042-.086-.213-.49-.039-.068a8.168 8.168 0 0 1-.267-.771 10.29 10.29 0 0 1-.217-.881 11.336 11.336 0 0 1-.128-.735 19.773 19.773 0 0 1-.128-2.378l-.205.757c.224-.433.495-.844.781-1.237-.175.241.169-.201.205-.243a5.821 5.821 0 0 1 .535-.535c.109-.08.228-.145.346-.208-.161.061-.161.063 0 .009.367-.117-.29-.006.092-.006 1.935 0 1.935-3 0-3-1.445 0-2.611.972-3.453 2.059-.336.435-.652.875-.93 1.349-.287.487-.377.972-.368 1.544.035 2.118.319 4.381 1.391 6.249.727 1.267 1.972 2.325 3.443 2.564 1.463.239 2.872-.11 4.158-.824 2.407-1.336 4.368-3.978 4.484-6.778.061-1.462-.575-2.903-1.643-3.89-1.49-1.376-3.526-1.89-5.484-2.137a20.822 20.822 0 0 0-1.598-.136c-.817-.039-1.5.712-1.5 1.5 0 .848.683 1.461 1.5 1.5z"/><path fill="#FFF" d="M720.192 113.867c-19 6-3 33 15 23 21-11 3-30-15-23"/><path fill="#45A98C" d="M719.794 112.421c-7.637 2.655-11.936 9.752-8.387 17.556 3.564 7.835 11.854 12.009 20.23 9.974 7.961-1.935 17.83-10.663 13.478-19.609-4.504-9.257-16.444-11.104-25.321-7.921-1.808.648-1.028 3.547.797 2.893 7.044-2.525 15.183-1.779 20.396 4.032 6.538 7.289-2.681 14.959-9.17 17.409-13.552 5.117-27.298-15.853-11.227-21.441 1.816-.631 1.036-3.53-.796-2.893z"/><path fill="#FFF" d="M751.604 94.744c13.332.482.166 17.537-3.834 4.537 0 0 .5-4.657 3.834-4.537z"/><path fill="#45A98C" d="M751.604 96.244c1.384.06 2.592.29 3.59.985-.251-.175.238.233.323.325.259.281-.174-.255.041.049.062.089.116.183.17.278.04.071.179.403.027.027a3.376 3.376 0 0 1 .17.605c.052.262-.021-.317.003.123a4.11 4.11 0 0 1-.025.637c.046-.442-.064.227-.097.348-.03.11-.274.738-.116.375a5.84 5.84 0 0 1-.372.704 4.57 4.57 0 0 1-1.636 1.593c-.096.055-.195.104-.294.153-.337.166.305-.114-.044.019-.201.076-.409.13-.619.175-.362.077.345-.03-.022.006-.106.01-.213.011-.318.012a3.372 3.372 0 0 1-.319-.017c.437.036-.035-.019-.134-.043a3.516 3.516 0 0 1-.316-.101c.357.127.009-.001-.061-.036-.11-.056-.635-.432-.41-.249-.567-.462-.724-.718-1.076-1.313a9.236 9.236 0 0 1-.493-.985c-.079-.176-.26-1.033-.304-.639-.054.477-.046.31-.002.06a9.11 9.11 0 0 1 .165-.732c.281-1.067.753-2.094 1.793-2.349-.115.028.407-.01.376-.01 1.936.013 1.934-2.987 0-3-3.083-.021-4.896 2.803-5.274 5.586-.196 1.452.825 3.25 1.687 4.388.804 1.062 1.816 1.905 3.118 2.273 4.384 1.239 8.931-4.117 7.55-8.281-.986-2.974-4.28-3.843-7.08-3.965-1.936-.085-1.928 2.915-.001 2.999zM269.362 506.27c-4.065-12.148-8.381-24.44-15.362-35.268-2.702-4.19-6.566-7.549-9.878-11.238-4.431-4.937-5.399-10.434-4.679-16.896.321-2.882-4.183-2.851-4.5 0-1.256 11.274 3.649 17.62 11.003 25.403 9.976 10.558 14.563 25.706 19.078 39.194.915 2.737 5.262 1.564 4.338-1.195z"/><path fill="#45A98C" d="M269.443 495.867c.869-8.447-.216-18.376-3.842-26.14-3.662-7.84-13.257-13.769-10.238-23.263.882-2.772-3.463-3.95-4.339-1.195-2.647 8.323 1.544 13.751 6.578 19.953 6.663 8.209 8.396 20.394 7.341 30.645-.297 2.886 4.206 2.858 4.5 0z"/><path fill="#45A98C" d="M273.443 500.867c.531-9.834-6.128-17.647-8.592-26.767-1.407-5.204 1.049-10.842 2.887-15.636 1.835-4.784 2.999-9.446 2.706-14.598-.164-2.885-4.665-2.9-4.5 0 .562 9.863-5.692 18.188-6 28-.325 10.344 9.573 18.385 9 29-.158 2.903 4.343 2.887 4.499.001z"/><path fill="#45A98C" d="M251.488 499.624c2.708-5.32 3.336-10.865 4.51-16.632 1.47-7.221 6.542-11.476 13.383-13.44 3.555-1.021 7.643-1.466 10.624-3.857 3.929-3.152 4.585-8.07 4.688-12.827.042-1.936-2.958-1.932-3 0-.132 6.118-1.566 10.47-7.675 12.375-3.938 1.229-7.882 1.925-11.611 3.782-11.208 5.584-8.672 19.584-13.509 29.086-.876 1.719 1.712 3.238 2.59 1.513z"/><path fill="#45A98C" d="M256.136 505.003c2.75-6.193 5.746-12.298 10.76-16.983 4.748-4.438 11.177-6.684 16.972-9.35 4.524-2.081 8.575-4.867 11.231-9.146 2.928-4.717 3.866-10.781 5.263-16.059.744-2.809-3.597-3.999-4.339-1.195-1.39 5.251-2.342 11.008-5.245 15.685-3.213 5.175-10.222 7.241-15.43 9.616-11.665 5.319-17.97 13.613-23.098 25.161-1.167 2.626 2.71 4.918 3.886 2.271zm-20.497-6.737c3.26-13.979 12.639-25.135 24.311-33.104 6.749-4.607 18.887-6.537 20.689-15.896.364-1.89-2.527-2.695-2.893-.797-1.073 5.57-7.027 7.799-11.626 9.952-5.185 2.428-9.774 5.405-14.197 9.043-9.337 7.679-16.422 18.191-19.177 30.005-.438 1.882 2.454 2.68 2.893.797z"/><path fill="#45A98C" d="M270.693 494.867c.046-9.329.193-20.116 3.983-28.782 3.268-7.471 14.426-6.097 15.017-15.218.125-1.933-2.875-1.921-3 0-.335 5.17-6.662 6.036-10.265 8.433-2.934 1.952-4.471 5.169-5.548 8.399-2.828 8.482-3.143 18.3-3.187 27.168-.01 1.935 2.99 1.934 3 0z"/><path fill="#45A98C" d="M287.488 498.11c-10.204-15.777 4.814-44.089-14.538-54.538-1.703-.919-3.217 1.671-1.515 2.59 9.775 5.278 9.021 17.071 8.815 26.7-.194 9.096-.489 18.821 4.646 26.762 1.048 1.618 3.646.116 2.592-1.514zm-29.704-2.834c-9.275-8.525-15.7-19.517-20.603-31.042-1.471-3.459-2.971-6.988-5.972-9.4-3.607-2.9-8.592-3.156-13.016-3.217-2.903-.04-2.899 4.46 0 4.5 4.19.058 8.56.217 11.543 3.514 2.693 2.975 3.907 7.781 5.514 11.372 4.579 10.231 11.104 19.875 19.352 27.455 2.132 1.96 5.323-1.214 3.182-3.182zm2.204-11.666c-7.942-17.721-19.618-37.322-15.614-57.499 1.852-9.33 7.52-17.998 11.487-26.545 3.865-8.324 6.411-16.966 6.332-26.199-.017-1.934-3.017-1.936-3 0 .18 21.091-16.131 36.511-18.458 56.786-2.206 19.217 9.111 38.121 16.663 54.971.79 1.763 3.374.236 2.59-1.514z"/><path fill="#45A98C" d="M262.639 477.969c-2.494-7.455-3.726-15.219-6.875-22.459-3.495-8.036-8.516-15.03-10.878-23.599-5.093-18.477 3.337-40.031 10.602-56.787.761-1.756-1.823-3.285-2.591-1.514-7.249 16.721-13.896 35.246-11.902 53.778.843 7.834 4.408 14.972 8.052 21.828 2.483 4.672 4.907 9.166 6.488 14.249 1.573 5.057 2.529 10.271 4.212 15.3.61 1.826 3.508 1.044 2.892-.796z"/><path fill="#45A98C" d="M281.844 500c.241-9.274-3.077-18.477-6.663-26.887-4.914-11.526-11.005-22.498-17.418-33.247-5.126-8.592-10.575-16.981-15.936-25.427-4.194-6.606-6.83-13.696-5.125-21.549 1.527-7.032 6.494-13.205 10.787-18.767 1.182-1.531-1.427-3.022-2.591-1.514-7.832 10.146-14.435 20.735-10.371 33.864 1.579 5.101 4.756 9.562 7.604 14.015 3.037 4.748 6.062 9.503 9.029 14.295 6.57 10.614 12.826 21.445 18.225 32.707 4.754 9.919 9.751 21.274 9.46 32.509-.051 1.937 2.949 1.932 2.999.001z"/><path fill="#45A98C" d="M257.193 477.867c-.383-7.717 5.834-13.881 9.745-19.963 4.011-6.238 5.158-13.773 6.114-20.996 1.089-8.229 1.156-16.768-.218-24.96-1.399-8.343-5.054-16.192-8.194-23.979-.714-1.771-3.617-.998-2.893.797 2.955 7.33 6.071 14.564 7.856 22.291 2.156 9.333 1.419 19.637-.004 29.022-1.226 8.086-3.852 14.504-8.53 21.143-3.547 5.035-7.194 10.22-6.875 16.646.095 1.924 3.095 1.934 2.999-.001z"/><path fill="#45A98C" d="M278.693 500c-.96-17.061-6.062-33.873-11.683-49.904a274.33 274.33 0 0 0-8.519-21.382c-1.787-3.99-4.071-8.249-4.359-12.702-.259-3.992 2.545-8.046 4.357-11.388.922-1.7-1.668-3.215-2.591-1.514-3.091 5.701-5.806 10.713-4.007 17.256 2.333 8.486 7.016 16.556 10.136 24.794 6.596 17.416 12.613 36.132 13.666 54.84.108 1.923 3.109 1.934 3 0z"/><path fill="#45A98C" d="M273.815 500.867c.134-12.101 3.098-24.156 5.52-35.954 2.086-10.158 5.674-21.68 4.032-32.112-1.634-10.381-12.277-14.877-19.985-20.078-2.178-1.47-4.459-3.084-3.759-6 .745-3.104 3.53-6.122 5.401-8.61 3.74-4.975 7.224-9.669 8.615-15.847.425-1.884-2.468-2.685-2.893-.797-1.556 6.904-5.984 11.883-10.031 17.453-2.254 3.104-5.046 6.832-4.04 10.88.901 3.625 5.982 6.062 8.76 7.86 5.291 3.427 10.746 6.155 13.79 11.981 2.819 5.397 1.344 12.259.413 17.94-.988 6.027-2.266 12.008-3.494 17.989-2.377 11.576-5.197 23.419-5.328 35.294-.022 1.937 2.978 1.935 2.999.001z"/><path fill="#45A98C" d="M252.676 501.624c3.643-5.96 5.432-13.384 7.533-19.974 2.896-9.082 5.552-18.238 8.396-27.336 3.463-11.077 7.853-21.834 11.082-32.992 1.898-6.561 2.518-12.637 1.627-19.429-.949-7.231-2.971-14.185-3.121-21.526-.039-1.932-3.04-1.936-3 0 .129 6.357 1.466 12.479 2.641 18.702 1.55 8.22.737 15.316-1.575 23.305-3.049 10.535-7.254 20.688-10.546 31.144-2.745 8.715-5.296 17.49-8.039 26.207-2.108 6.702-3.89 14.336-7.588 20.386-1.012 1.655 1.583 3.16 2.59 1.513z"/><path fill="#45A98C" d="M269.822 491.958c10.629-22.929 8.155-47.198 1.004-70.75-3.724-12.266-9.454-24.005-12.304-36.509-3.051-13.385-.666-26.871 7.3-38.075 1.124-1.58-1.48-3.076-2.591-1.514-6.396 8.996-9.297 19.186-8.957 30.192.379 12.255 5.64 23.535 9.707 34.879 9.337 26.045 15.402 54.047 3.25 80.263-.808 1.744 1.778 3.268 2.591 1.514z"/><path fill="#45A98C" d="M260.617 493.906c-7.124-3.854-10.46-12.139-12.523-19.544-2.313-8.302-2.996-17.6-.982-26.027 3.74-15.646 23.92-21.675 21.581-39.802-1.404-10.883-27.803-33.03-7.487-39.528 5.976-1.911 7.313-6.071 5.022-11.921-2.983-7.617-12.727-9.343-14.921-17.615-.496-1.868-3.389-1.075-2.893.797 2.187 8.242 10.324 10.351 14.571 16.997 1.187 1.856 2.256 5.479.625 7.351-.886 1.018-2.726 1.347-3.957 1.74-2.665.853-4.898 2.066-6.583 4.373-4.406 6.033-2.377 12.396 1.185 18.302 4.776 7.919 12.25 14.618 11.621 24.581-.566 8.959-9.298 15.518-14.749 21.744-5.161 5.896-7.512 12.264-8.055 20.012-.951 13.57 2.873 34.012 16.031 41.131 1.701.92 3.216-1.67 1.514-2.591z"/><path fill="#D6E5EA" d="M183.27 326.666c-6 3.5-1.5 7 1.167 10.834 2 2.833.333 9.666 5.333 9.333 9.667-.667 4.167-17-.833-20-1.5-.833-4.167-1-5.667-.167"/><path fill="#45A98C" d="M182.513 325.371c-2.026 1.346-4.433 3.443-3.588 6.22 1.038 3.413 4.271 5.528 5.04 9.008.486 2.198.495 5.813 2.871 7.035 2.232 1.146 4.832.771 6.884-.612 4.478-3.021 2.867-10.122 1.25-14.217-1.984-5.029-6.11-9.981-12.099-7.585-1.773.709-1 3.612.798 2.893 7.263-2.906 11.065 9.55 9.535 14.762-.5 1.705-3.724 3.744-5.188 1.756-.897-1.219-.898-3.391-1.158-4.828-.269-1.489-.838-2.665-1.72-3.875-1.958-2.688-5.106-5.312-1.11-7.966 1.602-1.066.102-3.665-1.515-2.591z"/><path fill="#FFF" d="M29.492 118.22c19.019-50.508 72.517-38.188 103.428-9.857 1.193-8.618 3.562-17.243 11.886-20.94 7.136 12.322 8.322 38.191 4.75 51.746-5.935-1.236-10.699-4.933-14.258-11.095l-2.377-3.691c-23.775 25.864-79.65 33.26-101.053 1.232l-2.376-7.395z"/><path fill="#45A98C" d="M30.938 118.619c7.865-20.324 24.068-33.73 46.339-33.381 20.199.317 39.911 10.896 54.582 24.186.743.673 2.332.534 2.507-.662 1.188-8.096 3.295-16.125 11.196-20.044l-2.052-.539c4.239 7.668 5.579 16.744 6.238 25.364.64 8.359.397 17.066-1.639 25.226l1.845-1.047c-7.893-1.925-11.629-7.716-15.739-14.097-.508-.788-1.669-1.035-2.356-.304-14.089 15.007-35.542 22.135-55.801 21.997-10.247-.07-20.488-2.5-29.363-7.68-4.728-2.759-8.832-6.525-12.166-10.851-1.985-2.575-2.604-5.895-3.591-8.966-.589-1.834-3.486-1.049-2.893.798.92 2.865 1.48 6.231 3.199 8.729 2.985 4.338 6.836 7.957 11.086 11.027 8.707 6.29 19.555 9.047 30.125 9.803 21.956 1.571 46.315-6.536 61.525-22.736l-2.356-.304c4.571 7.098 8.849 13.358 17.532 15.476.779.19 1.643-.237 1.845-1.047 2.227-8.925 2.335-18.319 1.638-27.443-.664-8.683-2.285-17.764-6.539-25.458-.415-.751-1.334-.895-2.052-.539-8.586 4.258-11.27 12.933-12.575 21.837l2.507-.662c-15.708-14.229-36.237-24.744-57.764-25.081-23.188-.364-40.103 14.752-48.171 35.6-.698 1.807 2.203 2.582 2.893.798z"/><path fill="#FFF" d="M104.492 192.456c14.987-39.498 57.144-29.863 81.501-7.708.94-6.74 2.807-13.484 9.366-16.375 5.624 9.636 6.558 29.865 3.743 40.465-4.677-.966-8.431-3.858-11.236-8.677l-1.874-2.886c-18.735 20.226-62.765 26.009-79.63.963l-1.87-5.782z"/><path fill="#45A98C" d="M105.938 192.855c6.248-15.9 18.914-26.132 36.324-25.861 15.765.245 31.17 8.509 42.67 18.814.747.669 2.328.537 2.507-.662.943-6.302 2.548-12.398 8.677-15.479l-2.053-.539c6.094 11.082 6.583 27.228 3.592 39.309l1.845-1.047c-6.092-1.514-9.003-5.929-12.213-10.874-.513-.79-1.664-1.031-2.356-.303-11.266 11.839-28.24 17.322-44.321 17.095-7.953-.112-15.847-2.102-22.714-6.138-3.75-2.204-6.955-5.253-9.559-8.717-1.32-1.756-1.726-4.313-2.4-6.396-.593-1.833-3.49-1.048-2.893.798.595 1.839.914 4.552 2.022 6.139 2.392 3.422 5.181 6.313 8.487 8.861 6.999 5.393 15.979 7.688 24.643 8.346 17.415 1.322 36.722-5.115 48.855-17.866l-2.356-.303c3.671 5.655 7.086 10.532 14.006 12.252.777.193 1.646-.24 1.845-1.047 3.189-12.88 2.604-29.805-3.894-41.621-.412-.749-1.338-.897-2.053-.539-6.815 3.426-8.99 10.153-10.055 17.272l2.507-.662c-12.543-11.241-28.761-19.444-45.857-19.71-18.33-.285-31.697 11.655-38.151 28.08-.706 1.803 2.197 2.577 2.895.798z"/><path fill="#FFF" d="M189.492 69.537c9.573-25.23 36.502-19.076 52.061-4.924.601-4.305 1.793-8.614 5.983-10.46 3.592 6.155 4.189 19.077 2.391 25.848-2.987-.618-5.385-2.464-7.177-5.542l-1.197-1.844c-11.967 12.919-40.092 16.614-50.866.615l-1.195-3.693z"/><path fill="#45A98C" d="M190.938 69.936c4.107-10.256 12.191-16.466 23.4-16.094 9.675.321 19.077 5.542 26.154 11.832.752.669 2.321.537 2.507-.662.613-3.943 1.486-7.528 5.293-9.564l-2.052-.539c3.774 7.075 4.075 17.004 2.24 24.692l1.845-1.047c-3.725-1.018-5.5-3.651-7.478-6.697-.516-.795-1.659-1.026-2.356-.304-11.552 11.962-42.989 17.866-49.554-2.416-.593-1.833-3.49-1.048-2.893.798 7.289 22.52 41.334 17.443 54.568 3.739l-2.356-.304c2.458 3.786 4.713 6.831 9.271 8.076.768.21 1.655-.251 1.845-1.047 2.029-8.502 1.633-19.178-2.542-27.004-.396-.741-1.354-.912-2.052-.539-4.455 2.382-5.93 6.581-6.672 11.357l2.507-.662c-8.359-7.43-19.023-12.77-30.391-12.743-11.715.028-20.019 7.945-24.177 18.329-.719 1.798 2.184 2.571 2.893.799z"/><path fill="#FFF" d="M697.492 355.756c6.076-16.015 23.17-12.108 33.046-3.125.382-2.733 1.138-5.468 3.798-6.641 2.28 3.907 2.658 12.109 1.518 16.407-1.896-.392-3.418-1.564-4.556-3.518l-.76-1.171c-7.597 8.2-25.448 10.546-32.287.391l-.759-2.343z"/><path fill="#45A98C" d="M698.938 356.154c5.772-13.997 21.143-10.708 30.539-2.463.763.67 2.305.536 2.507-.662.395-2.34.646-4.261 3.108-5.744l-2.052-.538c2.274 4.499 2.45 10.397 1.366 15.252l1.845-1.048c-2.159-.649-3.261-2.214-4.419-3.999-.521-.803-1.651-1.017-2.355-.304-7.073 7.152-26.472 11.271-30.539-1.291-.593-1.833-3.49-1.049-2.893.797 4.791 14.8 26.769 11.499 35.553 2.615l-2.355-.304c1.666 2.567 3.17 4.463 6.212 5.378.754.227 1.67-.263 1.845-1.048 1.27-5.687.991-12.303-1.669-17.562-.365-.724-1.384-.94-2.052-.538-2.943 1.771-3.926 4.207-4.487 7.537l2.507-.662c-11.338-9.95-28.887-12.379-35.553 3.787-.737 1.789 2.166 2.56 2.892.797z"/><path fill="#FFF" d="M627.492 278.142c12.131-31.971 46.254-24.173 65.969-6.239.763-5.456 2.272-10.916 7.582-13.256 4.553 7.8 5.308 24.174 3.031 32.753-3.787-.782-6.825-3.122-9.096-7.022l-1.518-2.336c-15.163 16.37-50.803 21.053-64.454.779l-1.514-4.679z"/><path fill="#45A98C" d="M628.938 278.54c5.071-12.808 15.198-20.938 29.224-20.721 12.65.197 25.007 6.897 34.238 15.144.75.67 2.324.536 2.507-.662.774-5.068 1.995-9.819 6.893-12.359l-2.052-.538c4.869 8.974 5.258 21.829 2.88 31.598l1.845-1.048c-4.838-1.248-7.161-4.735-9.717-8.669-.514-.792-1.661-1.029-2.355-.304-9.051 9.454-22.471 13.829-35.355 13.76-6.351-.034-12.643-1.587-18.176-4.707-5.174-2.917-8.156-6.809-9.931-12.29-.593-1.833-3.49-1.049-2.893.797 9.117 28.164 51.985 21.788 68.476 4.562l-2.355-.304c3.036 4.675 5.826 8.582 11.51 10.048.772.199 1.649-.244 1.845-1.048 2.574-10.575 2.09-24.192-3.183-33.908-.403-.745-1.345-.905-2.052-.538-5.572 2.889-7.372 8.259-8.271 14.152l2.507-.662c-10.272-9.176-23.438-15.821-37.417-16.039-14.955-.232-25.776 9.599-31.059 22.94-.714 1.8 2.188 2.573 2.891.796z"/><path fill="#FFF" d="M666.492 221.73c8.104-21.357 30.898-16.147 44.068-4.168.509-3.645 1.518-7.292 5.064-8.854 3.041 5.21 3.546 16.148 2.024 21.88-2.529-.523-4.559-2.086-6.075-4.692l-1.014-1.561c-10.13 10.936-33.938 14.063-43.057.521l-1.01-3.126z"/><path fill="#45A98C" d="M667.938 222.129c7.708-19.053 28.814-14.787 41.562-3.506.756.669 2.315.537 2.507-.662.522-3.262 1.24-6.205 4.375-7.958l-2.052-.539c3.145 5.982 3.394 14.235 1.873 20.724l1.845-1.047c-3.104-.884-4.538-3.018-6.192-5.563-.518-.796-1.656-1.023-2.355-.303-9.667 9.942-36.048 15.093-41.562-1.943-.593-1.833-3.49-1.048-2.893.798 6.237 19.271 35.216 14.951 46.575 3.267l-2.355-.303c2.132 3.283 4.065 5.826 7.985 6.941.763.217 1.659-.257 1.845-1.047 1.714-7.312 1.368-16.296-2.176-23.036-.385-.733-1.363-.923-2.052-.539-3.833 2.144-5.084 5.564-5.754 9.751l2.507-.662c-7.079-6.265-15.938-10.71-25.527-10.859-10.188-.158-17.414 6.708-21.048 15.689-.726 1.794 2.177 2.566 2.892.797z"/><g><path fill="#D6E5EA" d="M440.077 175.467c-7.792 8.391 4.195 28.768 11.986 14.384 4.795-8.392-2.397-26.971-11.986-14.384"/><path fill="#45A98C" d="M439.017 174.406c-4.2 4.821-3.532 11.919-.369 17.121 3.069 5.047 8.843 6.474 12.923 1.747 4.416-5.117 4.357-12.676 1.565-18.542-1.125-2.364-3.239-4.605-5.942-4.947-3.445-.438-6.197 2.126-8.177 4.621-1.189 1.498.919 3.636 2.121 2.121 1.41-1.776 3.164-3.866 5.638-3.796 1.974.056 3.283 2.493 4.002 4.003 2.056 4.319 1.732 9.644-.775 13.645-2.776 4.429-6.676 3.068-9.035-.812-2.313-3.806-2.916-9.496.171-13.04 1.263-1.451-.85-3.582-2.122-2.121z"/><path fill="#D6E5EA" d="M392.129 175.467c-7.791 8.391 4.195 28.768 11.987 14.384 4.795-8.392-2.397-26.971-11.987-14.384"/><path fill="#45A98C" d="M391.068 174.406c-4.2 4.821-3.531 11.919-.369 17.121 3.069 5.047 8.843 6.474 12.923 1.747 4.416-5.117 4.357-12.676 1.565-18.542-1.125-2.364-3.239-4.605-5.942-4.947-3.444-.438-6.196 2.126-8.177 4.621-1.189 1.498.918 3.636 2.121 2.121 1.41-1.776 3.165-3.866 5.639-3.796 1.973.056 3.283 2.493 4.002 4.003 2.056 4.319 1.732 9.644-.775 13.645-2.776 4.429-6.677 3.068-9.036-.812-2.314-3.806-2.916-9.496.17-13.04 1.265-1.451-.848-3.582-2.121-2.121zm62.352 47.713c-6.528-3.683-14.104-5.242-20.057-9.933-4.235-3.338-7.542-8.533-12.871-10.311-5.947-1.985-11.143.379-16.612 2.759-4.788 2.083-8.235 2.761-13.225.788-3.048-1.206-5.809-2.421-9.108-2.67-1.931-.146-1.917 2.855 0 3 5.384.407 10.872 5.455 16.376 4.125 6.737-1.627 13.408-7.124 20.535-5.521 5.875 1.321 9.559 7.78 14.241 11.095 5.875 4.16 12.981 5.747 19.208 9.26 1.686.95 3.197-1.642 1.513-2.592zm-13.788-70.191c6.186 7.774 15.351 11.094 23.804 15.735 1.696.931 3.21-1.66 1.514-2.591-8.227-4.516-17.169-7.691-23.196-15.265-1.205-1.514-3.314.624-2.122 2.121zm-36.663 9.24c-7.099 6.561-14.939 6.984-24.112 7.837-1.909.178-1.927 3.179 0 3 10.046-.934 18.494-1.563 26.233-8.716 1.424-1.315-.703-3.432-2.121-2.121z"/></g></svg>