<svg width="14" height="14" viewBox="0 0 14 14" fill="none" xmlns="http://www.w3.org/2000/svg">
<path fill-rule="evenodd" clip-rule="evenodd" d="M8.43943 0.832751C7.04742 0.507897 5.58645 0.663489 4.29407 1.27423C3.0017 1.88497 1.95394 2.91494 1.32115 4.19665C0.688362 5.47837 0.507766 6.93646 0.808727 8.33384C1.10969 9.73121 1.87451 10.9857 2.97882 11.8933C4.08313 12.8009 5.462 13.3082 6.8912 13.3328C8.3204 13.3573 9.71589 12.8977 10.8508 12.0286C11.07 11.8607 11.1116 11.5469 10.9437 11.3277C10.7758 11.1084 10.462 11.0668 10.2428 11.2347C9.28708 11.9666 8.11193 12.3536 6.90839 12.3329C5.70485 12.3122 4.54371 11.885 3.61376 11.1207C2.68381 10.3564 2.03975 9.30002 1.78631 8.12329C1.53287 6.94655 1.68495 5.71869 2.21782 4.63935C2.7507 3.56 3.63303 2.69266 4.72134 2.17836C5.80965 1.66405 7.03994 1.53302 8.21216 1.80658C9.38438 2.08015 10.4296 2.7422 11.1778 3.68511C11.9261 4.62801 12.3333 5.79629 12.3334 7V7.58333C12.3334 7.91485 12.2017 8.23279 11.9673 8.46721C11.7329 8.70163 11.4149 8.83333 11.0834 8.83333C10.7519 8.83333 10.434 8.70163 10.1995 8.46721C9.96512 8.23279 9.83342 7.91485 9.83342 7.58333V4.66666C9.83342 4.39052 9.60957 4.16666 9.33342 4.16666C9.05728 4.16666 8.83342 4.39052 8.83342 4.66666V4.83967C8.33927 4.4199 7.69925 4.16666 7.00008 4.16666C5.43527 4.16666 4.16675 5.43518 4.16675 6.99999C4.16675 8.5648 5.43527 9.83332 7.00008 9.83332C7.88212 9.83332 8.67002 9.43028 9.18966 8.79832C9.27614 8.93312 9.37742 9.0593 9.49243 9.17432C9.91439 9.59628 10.4867 9.83333 11.0834 9.83333C11.6802 9.83333 12.2525 9.59628 12.6744 9.17432C13.0964 8.75236 13.3334 8.18007 13.3334 7.58333V7C13.3333 5.57058 12.8497 4.1832 11.9612 3.0635C11.0726 1.9438 9.83144 1.15761 8.43943 0.832751ZM5.16675 6.99999C5.16675 5.98747 5.98756 5.16666 7.00008 5.16666C8.0126 5.16666 8.83342 5.98747 8.83342 6.99999C8.83342 8.01251 8.0126 8.83332 7.00008 8.83332C5.98756 8.83332 5.16675 8.01251 5.16675 6.99999Z" fill="#333333"/>
</svg>
