<svg xmlns="http://www.w3.org/2000/svg" width="24" height="24"><path d="M3.25 1.687a1.714 1.714 0 0 0-.188.032 1.714 1.714 0 0 0-.875 2.937l2.188 2.188h-.938A3.44 3.44 0 0 0 0 10.28v8.594c0 1.888 1.538 3.406 3.437 3.406h17.125c1.901 0 3.438-1.515 3.438-3.406V10.28a3.444 3.444 0 0 0-3.438-3.437h-.937l2.187-2.188a1.714 1.714 0 0 0-.875-2.937 1.714 1.714 0 0 0-1.593.468l-4.657 4.657H9.312L4.656 2.187a1.714 1.714 0 0 0-1.406-.5zM7.719 12a2.556 2.556 0 0 1 2.562 2.562c0 1.42-1.142 2.594-2.562 2.594s-2.563-1.173-2.563-2.594A2.556 2.556 0 0 1 7.72 12zm8.562 0a2.556 2.556 0 0 1 2.563 2.562c0 1.42-1.143 2.594-2.563 2.594-1.42 0-2.562-1.173-2.562-2.594A2.556 2.556 0 0 1 16.28 12z" fill="#bac0c0"/></svg>