<svg xmlns="http://www.w3.org/2000/svg" xmlns:xlink="http://www.w3.org/1999/xlink" version="1.1" id="Layer_1" x="0px" y="0px" width="96px" height="96px" viewBox="21 0 75 75" enable-background="new 0 0 96 96" xml:space="preserve">
<g>
	<path fill="#00cbc3" d="M49.844,68.325c-1.416,0-2.748-0.554-3.75-1.557L27.523,48.191c-1.003-1.002-1.555-2.334-1.555-3.75   s0.552-2.749,1.555-3.75c1.001-1.001,2.333-1.552,3.75-1.552s2.75,0.551,3.753,1.553l14.019,14.017L82.14,5.504   c0.989-1.468,2.639-2.345,4.412-2.345c1.054,0,2.075,0.312,2.956,0.902c2.424,1.631,3.07,4.934,1.439,7.361L54.25,65.98   c-0.892,1.316-2.312,2.162-3.895,2.314C50.17,68.315,50.01,68.325,49.844,68.325z"/>
</g>
</svg>
