<svg width="40" height="40" xmlns="http://www.w3.org/2000/svg">

 <g>
  <title>background</title>
  <rect fill="none" id="canvas_background" height="42" width="42" y="-1" x="-1"/>
 </g>
 <g>
  <title>Layer 1</title>
  <path id="svg_2" fill="#504CFF" d="m7.786267,38.6444l0,-20.6491c0,-0.527 0.4184,-0.9582 0.9297,-0.9582l2.2312,0c0.5113,0 0.9296,0.4312 0.9296,0.9582l0,20.6491c0,0 -0.7437,-0.7187 -2.0452,-0.7187c-1.3015,0 -2.0453,0.7187 -2.0453,0.7187z"/>
  <path id="svg_5" fill="#504CFF" d="m9.835767,17.0371l-1.1179,0c-0.5124,0 -0.9316,0.4312 -0.9316,0.9582l0,20.6491c0,0 0.7453,-0.7187 2.0495,-0.7187l0,-20.8886l0,0z"/>
  <path id="svg_8" fill="#504CFF" d="m11.876767,17.9931c0,-0.5258 -0.4183,-0.956 -0.9296,-0.956l-2.2312,0c-0.5113,0 -0.9297,0.4302 -0.9297,0.956l4.0905,0z"/>
  <path id="svg_11" fill="#504CFF" d="m9.835767,17.9931l-2.0495,0c0,-0.5258 0.4192,-0.956 0.9316,-0.956l1.1179,0l0,0.956l0,0z"/>
  <path id="svg_1" fill="#504CFF" d="m12.533367,39.2657c-0.2329,0 -0.3726,-0.1912 -0.3726,-0.3824l0,-21.223c0,-0.478 -0.3727,-0.8604 -0.8385,-0.8604l-3.0743,0c-0.4658,0 -0.8385,0.3824 -0.8385,0.8604l0,21.223c0,0.239 -0.1863,0.3824 -0.3726,0.3824c-0.2329,0 -0.3726,-0.1912 -0.3726,-0.3824l0,-21.223c0,-0.9082 0.7452,-1.673 1.6303,-1.673l3.0743,0c0.885,0 1.6303,0.7648 1.6303,1.673l0,21.223c-0.0932,0.239 -0.2329,0.3824 -0.4658,0.3824z"/>
  <path id="svg_6" fill="#504CFF" d="m29.959367,17.0371l-1.1179,0c-0.5124,0 -0.9316,0.4312 -0.9316,0.9582l0,20.6491c0,0 0.7452,-0.7187 2.0495,-0.7187l0,-20.8886l0,0z"/>
  <path id="svg_9" fill="#504CFF" d="m32.000367,17.9931c0,-0.5258 -0.4184,-0.956 -0.9297,-0.956l-2.2312,0c-0.5113,0 -0.9296,0.4302 -0.9296,0.956l4.0905,0z"/>
  <path id="svg_12" fill="#504CFF" d="m29.959367,17.9931l-2.0495,0c0,-0.5258 0.4192,-0.956 0.9316,-0.956l1.1179,0l0,0.956l0,0z"/>
  <path id="svg_15" fill="#504CFF" d="m32.703267,39.2657c-0.2329,0 -0.3726,-0.1912 -0.3726,-0.3824l0,-21.223c0,-0.478 -0.3727,-0.8604 -0.8385,-0.8604l-3.0743,0c-0.4658,0 -0.8384,0.3824 -0.8384,0.8604l0,21.223c0,0.239 -0.1864,0.3824 -0.3727,0.3824c-0.2329,0 -0.3726,-0.1912 -0.3726,-0.3824l0,-21.223c0,-0.9082 0.7453,-1.673 1.6303,-1.673l2.9811,0c0.8851,0 1.6304,0.7648 1.6304,1.673l0,21.223c0,0.239 -0.1398,0.3824 -0.3727,0.3824z"/>
  <path id="svg_3" fill="#504CFF" d="m27.909867,38.6444l0,-20.6491c0,-0.527 0.4183,-0.9582 0.9296,-0.9582l2.2312,0c0.5113,0 0.9297,0.4312 0.9297,0.9582l0,20.6491c0,0 -0.7438,-0.7187 -2.0453,-0.7187c-1.3015,0 -2.0452,0.7187 -2.0452,0.7187z"/>
  <path id="svg_7" fill="#504CFF" d="m19.920767,17.0371l-1.1179,0c-0.5124,0 -0.9316,0.4312 -0.9316,0.9582l0,20.6491c0,0 0.7453,-0.7187 2.0495,-0.7187l0,-20.8886l0,0z"/>
  <path id="svg_10" fill="#504CFF" d="m21.961767,17.9931c0,-0.5258 -0.4184,-0.956 -0.9297,-0.956l-2.2312,0c-0.5113,0 -0.9296,0.4302 -0.9296,0.956l4.0905,0z"/>
  <path id="svg_13" fill="#504CFF" d="m19.920767,17.9931l-2.0495,0c0,-0.5258 0.4192,-0.956 0.9316,-0.956l1.1179,0l0,0.956l0,0z"/>
  <path id="svg_17" fill="#504CFF" d="m17.909867,2.6501l-15.5523,12.8103c0,0 1.3077,-0.0956 1.9616,0.478c0,0 14.8517,-5.9271 15.599,-12.0933l0,-2.3422l-1.444,0c0.0467,0 0.0896,0.6214 -0.5643,1.1472z"/>
  <path id="svg_18" fill="#504CFF" d="m21.925667,2.6501l15.5501,12.8581c0,0 -1.3075,-0.0956 -1.9613,0.478c0,0 -14.8497,-5.9271 -15.5968,-12.0933l0,-2.39l1.4437,0c-0.0466,0 -0.0895,0.6214 0.5643,1.1472z"/>
  <path id="svg_16" fill="#504CFF" d="m39.076967,16.2731c-0.0932,0 -0.1864,-0.0478 -0.2329,-0.0956l-16.443,-13.8141c-0.0465,-0.0478 -0.0931,-0.0956 -0.1863,-0.1434c-0.3726,-0.2868 -0.6987,-0.5736 -0.6987,-1.2428c0,-0.239 -0.1863,-0.4302 -0.4192,-0.4302l-2.4688,0c-0.2329,0 -0.4192,0.1912 -0.4192,0.4302c0,0.717 -0.3261,0.956 -0.6987,1.2428c-0.0466,0.0478 -0.0932,0.0956 -0.1863,0.1434l-16.3498,13.8141c-0.1863,0.1434 -0.4192,0.0956 -0.559,-0.0478c-0.1397,-0.1912 -0.0931,-0.4302 0.0466,-0.5736l16.4429,-13.8141c0.0466,-0.0478 0.0932,-0.0956 0.1864,-0.1434c0.326,-0.239 0.3726,-0.3346 0.3726,-0.6214c0,-0.6692 0.5124,-1.2428 1.2111,-1.2428l2.4688,0c0.6521,0 1.2111,0.5258 1.2111,1.2428c0,0.3346 0.0465,0.3824 0.3726,0.6214c0.0466,0.0478 0.1397,0.0956 0.1863,0.1434l16.443,13.8141c0.1863,0.1434 0.1863,0.3824 0.0465,0.5736c-0.0931,0.0956 -0.2329,0.1434 -0.326,0.1434z"/>
  <path id="svg_14" fill="#504CFF" d="m22.618367,39.2657c-0.2329,0 -0.3727,-0.1912 -0.3727,-0.3824l0,-21.223c0,-0.478 -0.3726,-0.8604 -0.8384,-0.8604l-3.0743,0c-0.4658,0 -0.8385,0.3824 -0.8385,0.8604l0,21.223c0,0.239 -0.1863,0.3824 -0.3726,0.3824c-0.1864,0 -0.3727,-0.1912 -0.3727,-0.3824l0,-21.223c0,-0.9082 0.7453,-1.673 1.6303,-1.673l3.0744,0c0.885,0 1.6303,0.7648 1.6303,1.673l0,21.223c-0.0932,0.239 -0.2795,0.3824 -0.4658,0.3824z"/>
  <path id="svg_4" fill="#504CFF" d="m17.871267,38.6444l0,-20.6491c0,-0.527 0.4183,-0.9582 0.9296,-0.9582l2.2312,0c0.5113,0 0.9297,0.4312 0.9297,0.9582l0,20.6491c0,0 -0.7437,-0.7187 -2.0453,-0.7187c-1.3015,0 -2.0452,0.7187 -2.0452,0.7187z"/>
  <path id="svg_19" fill="#504CFF" d="m19.916367,1.5033l-1.444,0c0,0 -0.0465,-0.5736 0.3727,-0.5736c0.4658,0 1.0713,0 1.0713,0l0,0.5736l0,0z"/>
  <path id="svg_20" fill="#504CFF" d="m19.916667,1.5023l1.444,0c0,0 0.0465,-0.5736 -0.3727,-0.5736c-0.4658,0 -1.0713,0 -1.0713,0l0,0.5736l0,0z"/>
 </g>
</svg>