<svg fill="#FFFFFF" height="1000px" width="665.7999877929688px" xmlns="http://www.w3.org/2000/svg">
  <g>
    <path d="M248 850c-22.667 0 -41.333 -9.333 -56 -28c0 0 -180 -236 -180 -236c-10.667 -16 -14.667 -33.333 -12 -52c2.667 -18.667 11.333 -34 26 -46c14.667 -12 31.667 -16.667 51 -14c19.333 2.667 35 12 47 28c0 0 118 154 118 154c0 0 296 -474 296 -474c10.667 -16 25 -26 43 -30c18 -4 35.667 -1.333 53 8c16 10.667 26 25 30 43c4 18 1.333 35.667 -8 53c0 0 -350 560 -350 560c-13.333 21.333 -32 32 -56 32c0 0 -2 2 -2 2" />
  </g>
</svg>
