<?xml version="1.0" encoding="utf-8"?>
<!-- Generator: Adobe Illustrator 26.2.1, SVG Export Plug-In . SVG Version: 6.00 Build 0)  -->
<svg version="1.1" id="Layer_1" xmlns="http://www.w3.org/2000/svg" xmlns:xlink="http://www.w3.org/1999/xlink" x="0px" y="0px"
	 width="640px" height="512px" viewBox="0 0 640 512" style="enable-background:new 0 0 640 512;" xml:space="preserve">
<style type="text/css">
	.st0{fill:#878787;}
</style>
<path class="st0" d="M32,224h32v192H32c-17.7,0-32-14.3-32-31.9c0,0,0-0.1,0-0.1V256C0,238.3,14.3,224,32,224
	C31.9,224,32,224,32,224z M544,176v272c0,35.3-28.7,64-64,64H160c-35.3,0-64-28.7-64-64V176c0-44.2,35.8-80,79.9-80c0,0,0,0,0.1,0
	h112V32c0-17.7,14.3-32,32-32s32,14.3,32,32v64h112C508.2,96,544,131.8,544,176C544,176,544,176,544,176z M264,256
	c0-22.1-17.9-40-40-40s-40,17.9-40,40s17.9,40,40,40C246.1,296,264,278.1,264,256C264,256,264,256,264,256z M256,384h-64v32h64V384z
	 M352,384h-64v32h64V384z M456,256c0-22.1-17.9-40-40-40s-40,17.9-40,40s17.9,40,40,40C438.1,296,456,278.1,456,256
	C456,256,456,256,456,256z M448,384h-64v32h64V384z M640,256v128c0,17.7-14.3,32-31.9,32c0,0-0.1,0-0.1,0h-32V224h32
	C625.7,224,640,238.3,640,256C640,255.9,640,256,640,256z"/>
</svg>
