<svg
   xmlns:svg="http://www.w3.org/2000/svg"
   xmlns="http://www.w3.org/2000/svg"
   width="100%"
   viewBox="0 0 585.00002 362.88858"
   id="svg2">
  <defs id="defs4" />
  <g
     id="layer1"
     transform="translate(-85.862967,-68.473626)">
    <path
       style="fill:#142032;fill-opacity:0.15;fill-rule:evenodd;stroke:none;stroke-width:0.99999994px;stroke-linecap:butt;stroke-linejoin:miter;stroke-opacity:1"
       d="m 670.86297,327.7782 c -16.06715,-22.0766 -42.35756,-23.88473 -73.98251,2.32493 -35.34706,29.29442 -60.59497,77.78175 -100.99161,45.45687 -40.39663,-32.32488 -31.30739,-63.6396 -67.66437,-83.84265 -36.35697,-20.20305 -108.061,28.28426 -143.40806,-7.07108 -35.34706,-35.35534 -37.3669,-83.84266 -72.71396,-113.13708 -35.84821,-29.70977 -50.49579,-4.04061 -126.239493,-60.60915 l 0,4 0,316.46216 585.000003,0 0,-99.584 z"
       id="path4136" />
    <path
       style="fill:#142032;fill-opacity:0.08;fill-rule:evenodd;stroke:none;stroke-width:0.99999994px;stroke-linecap:butt;stroke-linejoin:miter;stroke-opacity:1"
       d="m 670.86297,308.88993 c -37.36689,0 -41.6652,46.46702 -99.23042,67.68022 C 526.10599,393.34702 492.8591,371.51938 437.31372,325.05237 381.76835,278.58535 395.90717,258.3823 352.48079,236.15895 309.0544,213.93559 220.18179,251.31124 194.93389,198.7833 169.68599,146.25537 170.69591,93.727439 141.40835,68.473626 l -55.545383,0 0,362.888574 585.000003,0 0,-122.47227"
       id="path4138" />
  </g>
</svg>
