<svg xmlns="http://www.w3.org/2000/svg" viewBox="0 0 585 362.889"><g fill="#142032" fill-rule="evenodd"><path d="M585 259.305c-16.067-22.077-42.358-23.885-73.983 2.325-35.347 29.294-60.594 77.781-100.991 45.456s-31.308-63.64-67.664-83.842c-36.357-20.203-108.061 28.284-143.409-7.071-35.347-35.356-37.366-83.843-72.714-113.137C90.391 73.326 75.744 98.995 0 42.426V362.89h585v-99.584z" fill-opacity=".15"/><path d="M585 240.416c-37.367 0-41.665 46.467-99.23 67.68-45.527 16.777-78.774-5.05-134.32-51.517-55.545-46.467-41.406-66.67-84.832-88.894-43.427-22.223-132.3 15.153-157.547-37.375C83.823 77.782 84.833 25.254 55.545 0H0v362.889h585V240.416" fill-opacity=".08"/></g></svg>