<svg xmlns="http://www.w3.org/2000/svg" width="100" height="100" fill="none" viewBox="0 0 100 100">
  <g clip-path="url(#a)">
    <path fill="#fff" d="M0 0h100v100H0V0Z"/>
    <path fill="url(#b)" fill-opacity=".8" d="M0 0h100v100H0V0Z"/>
    <path fill="#fff" fill-opacity=".8" d="M12.651 53.858c-2.1-7.842-3.151-11.762-1.476-14.898.093-.175.192-.346.297-.514 1.878-3.019 5.799-4.07 13.64-6.17L63.159 22.08c7.841-2.1 11.762-3.151 14.898-1.476.174.093.346.193.514.297 3.019 1.878 4.07 5.799 6.17 13.64 2.101 7.841 3.152 11.762 1.477 14.898a9.027 9.027 0 0 1-.297.514c-1.878 3.019-5.799 4.07-13.64 6.17L34.233 66.318c-7.84 2.101-11.761 3.151-14.897 1.477a8.937 8.937 0 0 1-.515-.297c-3.018-1.879-4.069-5.8-6.17-13.64Z"/>
    <path fill="#000" fill-rule="evenodd" d="M29.737 51.54a2.701 2.701 0 1 0-1.398-5.219 2.701 2.701 0 0 0 1.398 5.218Zm.776 2.897a5.701 5.701 0 1 0-2.95-11.014 5.701 5.701 0 0 0 2.95 11.014Zm38.273-13.361a2.701 2.701 0 1 0-1.399-5.218 2.701 2.701 0 0 0 1.399 5.218Zm.776 2.898a5.701 5.701 0 1 0-2.951-11.014 5.701 5.701 0 0 0 2.951 11.014ZM56.01 42.326a1.5 1.5 0 0 1 1.594 1.4c.616 9.549-12.618 13.095-16.859 4.518a1.5 1.5 0 1 1 2.69-1.33c2.787 5.637 11.58 3.281 11.176-2.994a1.5 1.5 0 0 1 1.4-1.594Z" clip-rule="evenodd"/>
    <path fill="#000" fill-rule="evenodd" d="M36.986 14.115c.125.47.153.944.095 1.398 3.036 1.955 5.007 4.577 6.253 6.848a21.912 21.912 0 0 1 1.598 3.681c.107.328.192.615.258.854l17.97-4.815c7.84-2.101 11.76-3.152 14.896-1.477.174.093.346.193.514.297 3.019 1.878 4.07 5.799 6.17 13.64 2.101 7.841 3.152 11.762 1.477 14.898a9.027 9.027 0 0 1-.297.514c-1.878 3.019-5.799 4.07-13.64 6.17L34.233 66.318c-7.84 2.101-11.761 3.151-14.897 1.477a8.937 8.937 0 0 1-.515-.297c-3.018-1.879-4.069-5.8-6.17-13.64-2.1-7.842-3.151-11.762-1.476-14.898.093-.175.192-.346.297-.514 1.878-3.019 5.799-4.07 13.64-6.17l17.18-4.604a15.846 15.846 0 0 0-.21-.696 18.922 18.922 0 0 0-1.379-3.172c-1.072-1.956-2.718-4.125-5.199-5.737a3.628 3.628 0 1 1 1.481-3.952ZM25.888 35.173l38.048-10.195c3.998-1.071 6.72-1.794 8.836-2.078 2.037-.274 3.081-.072 3.871.35.117.063.231.128.343.198.761.474 1.458 1.277 2.24 3.178.811 1.974 1.546 4.693 2.618 8.692 1.07 3.998 1.794 6.72 2.078 8.836.274 2.037.072 3.081-.35 3.871a6.795 6.795 0 0 1-.198.343c-.474.761-1.277 1.458-3.178 2.24-1.974.812-4.693 1.546-8.692 2.617L33.457 63.42c-3.999 1.072-6.72 1.795-8.836 2.079-2.037.273-3.081.072-3.872-.35a5.99 5.99 0 0 1-.343-.199c-.76-.473-1.458-1.276-2.24-3.177-.811-1.975-1.545-4.693-2.617-8.692-1.071-3.999-1.794-6.72-2.079-8.836-.273-2.037-.071-3.081.35-3.872.063-.116.13-.23.199-.343.473-.76 1.277-1.457 3.177-2.239 1.975-.812 4.693-1.546 8.692-2.618Z" clip-rule="evenodd"/>
    <path fill="#fff" fill-opacity=".8" d="M37 83.001c0-8.584 6.959-15.543 15.543-15.543s15.544 6.96 15.544 15.543v17.13H37v-17.13Z"/>
    <path fill="#000" fill-rule="evenodd" d="M83.877 64.52a1.5 1.5 0 0 0-2.965.453c.372 2.436 1.92 3.96 3.746 4.54-.164 7.574-2.63 11.142-5.523 12.553-3 1.462-7.093.942-11.174-1.046-.973-7.648-7.505-13.562-15.418-13.562C43.96 67.458 37 74.418 37 83.001v20.13h31.087V84.363c4.114 1.692 8.618 2.225 12.363.4 4.32-2.107 7.014-7.024 7.205-15.126 1.895-.433 3.585-1.855 4.13-4.297a1.5 1.5 0 1 0-2.93-.652 2.514 2.514 0 0 1-4.978-.168Zm-18.79 35.611v-17.13c0-6.927-5.616-12.543-12.544-12.543C45.616 70.458 40 76.074 40 83.001v17.13h25.087Z" clip-rule="evenodd"/>
  </g>
  <defs>
    <linearGradient id="b" x1="50" x2="50" y1="0" y2="100.002" gradientUnits="userSpaceOnUse">
      <stop stop-color="#50ADFF"/>
      <stop offset=".447" stop-color="#6097FE"/>
      <stop offset="1" stop-color="#7877FC"/>
    </linearGradient>
    <clipPath id="a">
      <path fill="#fff" d="M0 0h100v100H0z"/>
    </clipPath>
  </defs>
</svg>