<svg xmlns="http://www.w3.org/2000/svg" width="54" height="54" fill="none" viewBox="0 0 54 54"><g fill="#000"><path d="M45.707 6.96a1 1 0 0 1 0 1.414l-5.333 5.333a1 1 0 0 1-1.415 0l-2.666-2.667a1 1 0 1 1 1.414-1.414l1.96 1.96 4.626-4.626a1 1 0 0 1 1.414 0Z"/><path fill-rule="evenodd" d="M29.074 1.074A3.667 3.667 0 0 1 31.667 0h18.666A3.667 3.667 0 0 1 54 3.667V17a3.667 3.667 0 0 1-3.667 3.667H34.748l-5.04 5.04A1 1 0 0 1 28 25V3.667c0-.973.386-1.905 1.074-2.593ZM31.667 2A1.666 1.666 0 0 0 30 3.667v18.919l3.626-3.626a1 1 0 0 1 .707-.293h16A1.666 1.666 0 0 0 52 17V3.667A1.667 1.667 0 0 0 50.333 2H31.667Z" clip-rule="evenodd"/><path fill-rule="evenodd" d="M20.76 19a1 1 0 1 1 0 2h-3.28a3 3 0 0 0-2.684 1.665l-.002.003L8.62 35H19a1 1 0 0 1 .832.445L23.535 41h6.93l3.703-5.555A1 1 0 0 1 35 35h10.38l-3.78-7.552a1 1 0 0 1 1.788-.896l4.497 8.983A.994.994 0 0 1 48 36v12a5 5 0 0 1-5 5H11a5 5 0 0 1-5-5V36c0-.168.041-.326.115-.465l6.89-13.761A5 5 0 0 1 17.48 19h3.28ZM8 37v11a3 3 0 0 0 3 3h32a3 3 0 0 0 3-3V37H35.535l-3.703 5.555A1 1 0 0 1 31 43h-8a1 1 0 0 1-.832-.445L18.465 37H8Z" clip-rule="evenodd"/></g></svg>