<svg width="40" height="39" viewBox="0 0 40 39" fill="none" xmlns="http://www.w3.org/2000/svg">
<rect x="0.775391" width="38.2639" height="38.26" rx="8.46751" fill="url(#paint0_linear_1021_1030)"/>
<path d="M17.8855 30.0113C21.3144 25.8011 22.8024 19.9907 26.5557 15.9926C26.6013 15.9421 26.7228 15.7601 26.7894 15.7492C27.2383 15.6602 28.1995 16.3933 28.5787 16.0831C30.3974 14.581 30.5383 11.6306 30.5383 11.6306C30.4657 10.6073 25.4221 9.94617 21.0312 4.80722C20.4438 4.11999 16.8352 7.56849 17.2675 11.8668C17.3778 12.953 18.3897 13.4083 19.2864 13.6546C19.7709 13.789 20.2634 13.876 20.7494 14.003C20.9997 14.068 22.8375 14.4793 22.8496 14.6151C22.9455 15.6217 22.0081 16.495 21.4917 17.2659C20.2101 19.1768 19.3216 21.3613 18.0922 23.3242C17.1841 24.7736 16.0157 26.0563 14.6468 27.0835C13.9486 27.6042 13.2051 28.0467 12.4257 28.4328C11.8271 28.7287 10.9899 29.0677 10.7859 29.7724C10.5054 30.7234 11.7153 31.6192 12.3243 32.1407C13.1326 32.8348 13.8482 33.1575 14.8869 32.6881C16.1212 32.1314 17.0525 31.0408 17.8896 30.0136L17.8855 30.0113Z" fill="white"/>
<defs>
<linearGradient id="paint0_linear_1021_1030" x1="17.1179" y1="46.154" x2="16.9008" y2="-1.09314" gradientUnits="userSpaceOnUse">
<stop offset="0.00172682" stop-color="#933945"/>
<stop offset="0.318283" stop-color="#EE5264"/>
<stop offset="1" stop-color="#FF737B"/>
</linearGradient>
</defs>
</svg>
