<svg width="14" height="19" viewBox="0 0 14 19" fill="none" xmlns="http://www.w3.org/2000/svg">
<path d="M5.16592 16.8566C7.3462 14.1795 8.29236 10.4849 10.679 7.94266C10.7079 7.91059 10.7852 7.79485 10.8276 7.78792C11.113 7.73134 11.7242 8.19746 11.9653 8.00025C13.1217 7.04509 13.2113 5.16905 13.2113 5.16905C13.1652 4.5184 9.95812 4.09802 7.16615 0.830374C6.79266 0.393397 4.49806 2.58615 4.77295 5.31928C4.84309 6.00991 5.4865 6.29943 6.05673 6.45606C6.36475 6.5415 6.67797 6.59681 6.98695 6.67758C7.14611 6.71891 8.3147 6.98044 8.32237 7.06679C8.38337 7.70683 7.78732 8.26213 7.45894 8.75234C6.64404 9.9674 6.0791 11.3564 5.29739 12.6046C4.71992 13.5262 3.97702 14.3418 3.10658 14.9949C2.66263 15.326 2.18988 15.6074 1.69426 15.8529C1.31368 16.0411 0.781299 16.2566 0.651599 16.7047C0.473265 17.3094 1.24258 17.879 1.62983 18.2106C2.14374 18.652 2.59879 18.8571 3.25924 18.5586C4.04409 18.2047 4.63626 17.5112 5.16853 16.8581L5.16592 16.8566Z" fill="#5F6368"/>
</svg>
