<svg width="128" height="25" viewBox="0 0 128 25" fill="none" xmlns="http://www.w3.org/2000/svg">
<g clip-path="url(#clip0_561_1390)">
<rect y="0.941406" width="22.4" height="22.3987" rx="6" fill="url(#paint0_linear_561_1390)"/>
<g clip-path="url(#clip1_561_1390)">
<path d="M9.94522 9.57422C7.23132 9.57422 5.00002 11.4405 5.00002 13.7345C5.00002 14.6515 5.35571 15.5835 6.008 16.3058L5.08688 17.3584C4.99625 17.4621 4.97427 17.6093 5.03162 17.735C5.08862 17.8606 5.21359 17.9413 5.35159 17.9413H10.2968C12.3006 17.9413 14.8904 16.2159 14.8904 13.7345C14.8904 11.4405 12.6591 9.57422 9.94522 9.57422ZM7.81245 14.3789C7.42484 14.3789 7.10935 14.0634 7.10935 13.6758C7.10935 13.2882 7.42487 12.9727 7.81245 12.9727C8.20004 12.9727 8.51556 13.2882 8.51556 13.6758C8.51558 14.0634 8.20006 14.3789 7.81245 14.3789ZM9.94522 14.3789C9.55761 14.3789 9.24212 14.0634 9.24212 13.6758C9.24212 13.2882 9.55763 12.9727 9.94522 12.9727C10.3328 12.9727 10.6483 13.2882 10.6483 13.6758C10.6483 14.0634 10.3328 14.3789 9.94522 14.3789ZM12.078 14.3789C11.6904 14.3789 11.3749 14.0634 11.3749 13.6758C11.3749 13.2882 11.6904 12.9727 12.078 12.9727C12.4656 12.9727 12.7811 13.2882 12.7811 13.6758C12.7811 14.0634 12.4656 14.3789 12.078 14.3789Z" fill="white"/>
<path d="M16.915 13.096L16.0872 12.1303C16.6781 11.4636 16.9998 10.6506 16.9998 9.80948C16.9998 7.67716 14.9495 5.94238 12.4296 5.94238C10.1508 5.94238 8.21488 7.36244 7.87305 9.21074C8.50886 8.9947 9.2219 8.87188 9.94525 8.87188C13.0238 8.87188 15.5532 11.0222 15.5901 13.6766H16.6482C16.9485 13.6766 17.1098 13.323 16.915 13.096Z" fill="white"/>
</g>
</g>
<path d="M33.2007 6.19879C34.1373 6.19879 34.9179 6.511 35.5423 7.13543C36.1762 7.75985 36.4931 8.53565 36.4931 9.46283C36.4931 10.3805 36.1762 11.1563 35.5423 11.7902C34.9179 12.4147 34.1373 12.7269 33.2007 12.7269H31.1713V16.1328H29.5393V6.19879H33.2007ZM33.2007 11.1942C33.6832 11.1942 34.0806 11.0333 34.3928 10.7117C34.705 10.3805 34.8611 9.96426 34.8611 9.46283C34.8611 8.9614 34.705 8.54984 34.3928 8.22817C34.0806 7.89704 33.6832 7.73147 33.2007 7.73147H31.1713V11.1942H33.2007ZM39.2048 10.2292C39.5927 9.3493 40.3212 8.90936 41.3903 8.90936V10.5698C40.8037 10.5319 40.2928 10.6738 39.8576 10.9955C39.4224 11.3077 39.2048 11.8281 39.2048 12.5566V16.1328H37.6721V9.03708H39.2048V10.2292ZM47.8099 9.03708H49.3426V16.1328H47.8099V15.111C47.2328 15.9152 46.405 16.3173 45.3264 16.3173C44.3519 16.3173 43.5194 15.9578 42.8287 15.2388C42.1381 14.5103 41.7927 13.6257 41.7927 12.5849C41.7927 11.5348 42.1381 10.6502 42.8287 9.93115C43.5194 9.21211 44.3519 8.8526 45.3264 8.8526C46.405 8.8526 47.2328 9.24996 47.8099 10.0447V9.03708ZM43.964 14.217C44.3898 14.6427 44.9243 14.8556 45.5677 14.8556C46.211 14.8556 46.7456 14.6427 47.1713 14.217C47.597 13.7818 47.8099 13.2378 47.8099 12.5849C47.8099 11.9321 47.597 11.3929 47.1713 10.9671C46.7456 10.5319 46.211 10.3143 45.5677 10.3143C44.9243 10.3143 44.3898 10.5319 43.964 10.9671C43.5383 11.3929 43.3254 11.9321 43.3254 12.5849C43.3254 13.2378 43.5383 13.7818 43.964 14.217ZM54.4782 16.3173C53.4091 16.3173 52.5151 15.9578 51.796 15.2388C51.0865 14.5197 50.7317 13.6351 50.7317 12.5849C50.7317 11.5253 51.0865 10.6407 51.796 9.93115C52.5151 9.21211 53.4091 8.8526 54.4782 8.8526C55.1689 8.8526 55.798 9.01816 56.3657 9.3493C56.9334 9.68043 57.3591 10.1251 57.6429 10.6833L56.3231 11.4496C56.1623 11.109 55.9163 10.8441 55.5852 10.6549C55.2635 10.4562 54.8898 10.3569 54.464 10.3569C53.8396 10.3569 53.3145 10.5698 52.8888 10.9955C52.4725 11.4212 52.2644 11.9511 52.2644 12.5849C52.2644 13.2188 52.4725 13.7486 52.8888 14.1744C53.3145 14.6001 53.8396 14.813 54.464 14.813C54.8803 14.813 55.254 14.7137 55.5852 14.515C55.9258 14.3163 56.1812 14.0514 56.3515 13.7203L57.6713 14.4724C57.3686 15.0401 56.9334 15.4895 56.3657 15.8206C55.798 16.1517 55.1689 16.3173 54.4782 16.3173ZM62.7385 10.513H60.9788V13.9189C60.9788 14.2122 61.045 14.4251 61.1775 14.5576C61.3099 14.6806 61.5039 14.7515 61.7593 14.7704C62.0242 14.7799 62.3506 14.7752 62.7385 14.7562V16.1328C61.5654 16.2747 60.7234 16.1754 60.2125 15.8348C59.7016 15.4847 59.4461 14.8461 59.4461 13.9189V10.513H58.1405V9.03708H59.4461V7.50441L60.9788 7.05028V9.03708H62.7385V10.513ZM65.5762 7.6889C65.387 7.87812 65.1599 7.97272 64.895 7.97272C64.6301 7.97272 64.3983 7.87812 64.1996 7.6889C64.0104 7.49022 63.9158 7.25842 63.9158 6.99351C63.9158 6.72861 64.0104 6.50154 64.1996 6.31232C64.3888 6.11364 64.6206 6.0143 64.895 6.0143C65.1694 6.0143 65.4011 6.11364 65.5904 6.31232C65.7796 6.50154 65.8742 6.72861 65.8742 6.99351C65.8742 7.25842 65.7749 7.49022 65.5762 7.6889ZM64.1286 16.1328V9.03708H65.6613V16.1328H64.1286ZM70.7901 16.3173C69.721 16.3173 68.8269 15.9578 68.1079 15.2388C67.3983 14.5197 67.0435 13.6351 67.0435 12.5849C67.0435 11.5253 67.3983 10.6407 68.1079 9.93115C68.8269 9.21211 69.721 8.8526 70.7901 8.8526C71.4807 8.8526 72.1099 9.01816 72.6776 9.3493C73.2452 9.68043 73.671 10.1251 73.9548 10.6833L72.635 11.4496C72.4741 11.109 72.2282 10.8441 71.897 10.6549C71.5754 10.4562 71.2016 10.3569 70.7759 10.3569C70.1515 10.3569 69.6264 10.5698 69.2007 10.9955C68.7844 11.4212 68.5762 11.9511 68.5762 12.5849C68.5762 13.2188 68.7844 13.7486 69.2007 14.1744C69.6264 14.6001 70.1515 14.813 70.7759 14.813C71.1922 14.813 71.5659 14.7137 71.897 14.515C72.2376 14.3163 72.4931 14.0514 72.6634 13.7203L73.9832 14.4724C73.6804 15.0401 73.2452 15.4895 72.6776 15.8206C72.1099 16.1517 71.4807 16.3173 70.7901 16.3173ZM76.1864 13.2378C76.2999 13.777 76.5601 14.1933 76.9669 14.4866C77.3737 14.7704 77.8704 14.9123 78.457 14.9123C79.2707 14.9123 79.8809 14.6191 80.2877 14.0325L81.5508 14.7704C80.8507 15.8017 79.8147 16.3173 78.4428 16.3173C77.2886 16.3173 76.3567 15.9672 75.6471 15.2671C74.9375 14.5576 74.5828 13.6635 74.5828 12.5849C74.5828 11.5253 74.9328 10.6407 75.6329 9.93115C76.333 9.21211 77.2318 8.8526 78.3293 8.8526C79.37 8.8526 80.2215 9.21684 80.8838 9.94534C81.5555 10.6738 81.8914 11.5584 81.8914 12.5991C81.8914 12.76 81.8724 12.9728 81.8346 13.2378H76.1864ZM76.1722 11.9889H80.3445C80.2404 11.4118 79.9992 10.9766 79.6207 10.6833C79.2517 10.39 78.8165 10.2434 78.3151 10.2434C77.7475 10.2434 77.2744 10.3995 76.896 10.7117C76.5175 11.0239 76.2763 11.4496 76.1722 11.9889ZM88.0367 16.3173C86.5419 16.3173 85.3025 15.8253 84.3185 14.8414C83.3346 13.848 82.8426 12.6228 82.8426 11.1658C82.8426 9.70881 83.3346 8.48835 84.3185 7.50441C85.3025 6.511 86.5419 6.0143 88.0367 6.0143C88.9355 6.0143 89.7633 6.22718 90.5202 6.65292C91.2865 7.07866 91.8826 7.65578 92.3083 8.38428L90.8892 9.20738C90.6243 8.71541 90.2364 8.32751 89.7255 8.04368C89.2241 7.75039 88.6611 7.60375 88.0367 7.60375C86.9771 7.60375 86.1161 7.93961 85.4539 8.61134C84.8011 9.28307 84.4746 10.1346 84.4746 11.1658C84.4746 12.197 84.8011 13.0485 85.4539 13.7203C86.1161 14.392 86.9771 14.7279 88.0367 14.7279C88.6611 14.7279 89.2288 14.5859 89.7397 14.3021C90.2506 14.0088 90.6337 13.6162 90.8892 13.1242L92.3083 13.9331C91.892 14.6616 91.3007 15.2435 90.5344 15.6787C89.7775 16.1044 88.945 16.3173 88.0367 16.3173ZM97.3665 8.8526C98.1801 8.8526 98.8377 9.11277 99.3391 9.63313C99.8405 10.1535 100.091 10.8678 100.091 11.776V16.1328H98.5586V11.9321C98.5586 11.4023 98.4166 10.9955 98.1328 10.7117C97.849 10.4278 97.4611 10.2859 96.9691 10.2859C96.4298 10.2859 95.9946 10.4562 95.6635 10.7968C95.3324 11.128 95.1668 11.6389 95.1668 12.3295V16.1328H93.6341V6.19879H95.1668V9.94534C95.6304 9.21684 96.3636 8.8526 97.3665 8.8526ZM107.361 9.03708H108.894V16.1328H107.361V15.111C106.784 15.9152 105.956 16.3173 104.878 16.3173C103.903 16.3173 103.071 15.9578 102.38 15.2388C101.69 14.5103 101.344 13.6257 101.344 12.5849C101.344 11.5348 101.69 10.6502 102.38 9.93115C103.071 9.21211 103.903 8.8526 104.878 8.8526C105.956 8.8526 106.784 9.24996 107.361 10.0447V9.03708ZM103.515 14.217C103.941 14.6427 104.476 14.8556 105.119 14.8556C105.762 14.8556 106.297 14.6427 106.723 14.217C107.148 13.7818 107.361 13.2378 107.361 12.5849C107.361 11.9321 107.148 11.3929 106.723 10.9671C106.297 10.5319 105.762 10.3143 105.119 10.3143C104.476 10.3143 103.941 10.5319 103.515 10.9671C103.09 11.3929 102.877 11.9321 102.877 12.5849C102.877 13.2378 103.09 13.7818 103.515 14.217ZM114.64 10.513H112.88V13.9189C112.88 14.2122 112.946 14.4251 113.079 14.5576C113.211 14.6806 113.405 14.7515 113.661 14.7704C113.926 14.7799 114.252 14.7752 114.64 14.7562V16.1328C113.467 16.2747 112.625 16.1754 112.114 15.8348C111.603 15.4847 111.347 14.8461 111.347 13.9189V10.513H110.042V9.03708H111.347V7.50441L112.88 7.05028V9.03708H114.64V10.513Z" fill="black"/>
<defs>
<linearGradient id="paint0_linear_561_1390" x1="11.2" y1="23.3903" x2="11.2" y2="2.55362" gradientUnits="userSpaceOnUse">
<stop stop-color="#09B127"/>
<stop offset="0.204277" stop-color="#04BE25"/>
<stop offset="1" stop-color="#5BF676"/>
</linearGradient>
<clipPath id="clip0_561_1390">
<rect y="0.941406" width="22.4" height="22.3987" rx="6" fill="white"/>
</clipPath>
<clipPath id="clip1_561_1390">
<rect width="12" height="12" fill="white" transform="translate(5 5.94141)"/>
</clipPath>
</defs>
</svg>
