<svg xmlns="http://www.w3.org/2000/svg" viewBox="0 0 496 512"><path d="M220.770 9.108 C 185.917 12.746,159.235 20.402,130.200 35.096 C 86.591 57.166,50.686 92.428,28.528 134.944 C 14.499 161.863,6.419 187.695,1.955 219.893 C -0.020 234.143,-0.036 268.146,1.926 282.930 C 8.402 331.730,25.929 373.632,55.489 410.989 C 63.476 421.082,83.481 441.233,93.413 449.188 C 117.581 468.545,158.296 489.914,172.773 490.840 C 177.387 491.134,178.556 490.908,181.040 489.235 C 186.817 485.345,186.824 485.300,186.825 449.410 L 186.827 417.287 184.846 417.785 C 179.315 419.173,164.672 420.112,155.413 419.673 C 142.825 419.076,131.469 416.379,122.976 411.971 C 116.077 408.390,108.003 400.686,105.274 395.082 C 104.295 393.071,101.654 387.498,99.406 382.696 C 92.011 366.905,85.338 358.382,75.044 351.580 C 66.283 345.791,62.420 340.004,65.710 337.599 C 71.177 333.601,86.131 336.541,97.254 343.799 C 104.123 348.282,108.551 353.017,114.735 362.493 C 127.012 381.307,139.807 388.962,158.720 388.805 C 171.385 388.700,187.653 384.023,187.653 380.487 C 187.653 374.408,193.035 361.344,198.545 354.047 L 202.426 348.908 199.793 348.475 C 198.345 348.237,193.998 347.652,190.133 347.176 C 127.119 339.409,101.560 318.229,92.900 266.600 C 90.938 254.903,90.853 225.925,92.756 217.679 C 95.465 205.946,99.869 197.328,108.996 185.899 L 114.245 179.326 112.372 172.536 C 110.940 167.347,110.413 162.825,110.135 153.347 C 109.729 139.472,110.824 130.995,114.594 118.832 C 116.780 111.782,116.894 111.612,119.794 111.064 C 130.245 109.091,153.002 117.715,176.799 132.667 C 181.514 135.630,185.794 138.053,186.311 138.053 C 186.828 138.053,191.341 137.135,196.339 136.012 C 230.485 128.344,267.168 128.344,301.314 136.012 C 306.313 137.135,310.777 138.053,311.234 138.053 C 311.692 138.053,315.973 135.616,320.747 132.638 C 345.132 117.427,367.291 109.086,377.986 111.092 C 380.755 111.611,380.908 111.845,383.047 118.847 C 386.857 131.315,387.911 139.538,387.469 153.347 C 387.178 162.467,386.593 167.556,385.259 172.587 L 383.445 179.427 386.034 182.507 C 397.077 195.643,403.631 206.777,406.337 217.000 C 410.715 233.540,408.177 270.855,401.459 288.700 C 391.607 314.874,375.169 330.027,346.649 339.227 C 336.852 342.388,320.742 345.628,307.107 347.180 C 293.694 348.707,294.447 348.127,298.720 353.631 C 303.268 359.489,306.102 365.097,308.488 372.960 C 310.284 378.880,310.340 380.292,310.785 431.254 C 311.231 482.411,311.275 483.529,312.952 485.814 C 319.011 494.069,329.716 492.269,358.360 478.180 C 431.096 442.405,480.693 373.192,493.094 290.160 C 502.611 226.434,487.563 162.158,451.264 111.494 C 416.654 63.187,363.840 28.442,304.396 14.874 C 284.490 10.331,272.670 9.003,249.240 8.678 C 237.419 8.514,224.607 8.707,220.770 9.108 M86.470 344.585 C 85.664 345.889,88.528 348.853,90.593 348.853 C 92.988 348.853,94.037 346.881,92.578 345.123 C 91.489 343.811,87.183 343.432,86.470 344.585 M97.104 353.034 C 95.159 356.182,100.466 361.168,103.031 358.603 C 104.105 357.530,104.148 356.984,103.290 355.356 C 101.649 352.243,98.357 351.006,97.104 353.034 M106.902 366.723 C 105.574 370.184,110.470 375.620,113.014 373.509 C 115.630 371.338,113.026 365.387,109.461 365.387 C 108.335 365.387,107.184 365.988,106.902 366.723 M118.512 380.682 C 117.569 383.139,119.050 386.085,121.915 387.451 C 124.241 388.560,124.976 388.612,126.027 387.740 C 127.886 386.197,127.598 383.790,125.278 381.469 C 123.018 379.209,119.245 378.770,118.512 380.682 M136.193 391.080 C 134.193 392.244,134.383 394.798,136.584 396.340 C 138.895 397.959,143.322 398.006,144.634 396.426 C 147.546 392.917,140.596 388.515,136.193 391.080 M176.264 392.300 C 172.739 394.769,174.461 398.453,179.139 398.453 C 181.738 398.453,185.173 396.134,185.173 394.379 C 185.173 391.352,179.505 390.030,176.264 392.300 M156.733 394.573 C 155.829 395.234,155.367 396.430,155.541 397.656 C 156.097 401.556,163.379 401.944,165.661 398.195 C 167.624 394.971,160.269 391.987,156.733 394.573 " stroke="none" fill-rule="evenodd" fill="black"></path></svg>