<?xml version="1.0" encoding="UTF-8" standalone="no"?>
<!-- Created with Inkscape (http://www.inkscape.org/) -->

<svg
   xmlns:dc="http://purl.org/dc/elements/1.1/"
   xmlns:cc="http://creativecommons.org/ns#"
   xmlns:rdf="http://www.w3.org/1999/02/22-rdf-syntax-ns#"
   xmlns:svg="http://www.w3.org/2000/svg"
   xmlns="http://www.w3.org/2000/svg"
   xmlns:sodipodi="http://sodipodi.sourceforge.net/DTD/sodipodi-0.dtd"
   xmlns:inkscape="http://www.inkscape.org/namespaces/inkscape"
   width="260"
   height="260"
   viewBox="0 0 260.00001 260.00001"
   id="svg5281"
   version="1.1"
   inkscape:version="0.91 r13725"
   sodipodi:docname="fisher.svg"
   inkscape:export-filename="/home/rishig/zulip/static/images/cute/fisher.png"
   inkscape:export-xdpi="600"
   inkscape:export-ydpi="600">
  <defs
     id="defs5283" />
  <sodipodi:namedview
     id="base"
     pagecolor="#ffffff"
     bordercolor="#666666"
     borderopacity="1.0"
     inkscape:pageopacity="0.0"
     inkscape:pageshadow="2"
     inkscape:zoom="0.98994949"
     inkscape:cx="-165.36132"
     inkscape:cy="139.67975"
     inkscape:document-units="px"
     inkscape:current-layer="layer1"
     showgrid="false"
     fit-margin-top="40"
     fit-margin-left="35"
     fit-margin-right="35"
     fit-margin-bottom="40"
     inkscape:window-width="1855"
     inkscape:window-height="1056"
     inkscape:window-x="65"
     inkscape:window-y="24"
     inkscape:window-maximized="1"
     units="px"
     showborder="true"
     borderlayer="false" />
  <metadata
     id="metadata5286">
    <rdf:RDF>
      <cc:Work
         rdf:about="">
        <dc:format>image/svg+xml</dc:format>
        <dc:type
           rdf:resource="http://purl.org/dc/dcmitype/StillImage" />
        <dc:title></dc:title>
      </cc:Work>
    </rdf:RDF>
  </metadata>
  <g
     inkscape:label="Layer 1"
     inkscape:groupmode="layer"
     id="layer1"
     transform="translate(-147.5564,-450.69835)">
    <g
       id="g4720"
       transform="translate(-13.872171,14.050434)"
       style="fill:#b4cb38;fill-opacity:1">
      <g
         style="fill:#b4cb38;fill-opacity:1"
         transform="matrix(1.25,0,0,-1.25,228.48994,593.85305)"
         id="g28">
        <path
           inkscape:connector-curvature="0"
           id="path30"
           style="fill:#b4cb38;fill-opacity:1;fill-rule:nonzero;stroke:none"
           d="m 0,0 c 8.304,-6.621 23.255,-21.522 46.474,-21.484 l 1.936,-1.103 c 6.641,-3.859 7.758,-10.493 5.557,-17.13 -1.101,-2.766 -3.854,-9.405 -4.957,-11.617 -1.655,-2.214 -2.754,-4.98 -5.517,-6.644 13.828,-3.294 17.128,6.662 24.301,15.52 6.621,8.856 17.676,8.875 23.188,18.835 6.607,17.425 35.085,13.049 43.349,31.307 l -2.5,6.215 4.143,2.91 C 109.382,50.767 102.761,42.048 92.801,47.837 81.952,90.112 55.421,85.508 18.925,90.423 20.601,79.646 19.776,77.156 26.423,69.704 32.238,63.078 41.359,63.093 39.72,51.481 L 38.062,50.649 C 23.982,40.675 6.567,40.646 1.625,20.735 l -0.653,1.057 c -22.224,17.113 -14.218,57.48 -22.329,81.682 -16.131,-6.081 -1.972,-27.244 -3.97,-39.353 -2.001,-10.093 -10.068,-13.131 -10.05,-24.229 0.017,-10.088 8.099,-16.128 9.122,-25.205 0.012,-7.062 -5.026,-12.115 -6.022,-19.179 0.016,-9.079 3.048,-12.101 5.077,-19.16 2.035,-11.094 -8.627,-18.024 -3.567,-28.104 l 7.662,-8.206 c 0.975,20.177 14.059,39.366 22.099,57.539 L 0,0 Z" />
      </g>
      <g
         style="fill:#b4cb38;fill-opacity:1"
         transform="matrix(1.25,0,0,-1.25,227.16431,595.17868)"
         id="g32">
        <path
           inkscape:connector-curvature="0"
           id="path34"
           style="fill:#b4cb38;fill-opacity:1;fill-rule:nonzero;stroke:none"
           d="m 0,0 c 10.75,-8.656 21.063,-16.954 34.756,-20.426 1.962,-0.498 3.967,-0.798 5.97,-1.068 1.516,-0.205 5.119,0.307 6.354,-0.397 4.16,-2.37 7.038,-5.228 7.461,-10.232 0.365,-4.319 -1.923,-8.563 -3.549,-12.412 -1.694,-4.01 -3.553,-8.424 -7.195,-11.087 -0.951,-0.695 -1.04,-2.451 0.358,-2.741 5.05,-1.05 9.741,-0.908 14.144,1.998 4.388,2.896 7.218,8.016 10.258,12.154 4.524,6.158 10.631,8.84 16.899,12.778 2.332,1.465 4.346,3.303 6.09,5.425 1.95,2.37 2.781,5.321 4.729,7.702 6.907,8.441 20.179,9.87 29.37,14.917 4.424,2.431 8.082,5.912 10.533,10.328 1.516,2.733 -0.777,5.777 -1.84,8.42 -0.23,-0.565 -0.459,-1.13 -0.69,-1.694 l 4.143,2.909 c 0.855,0.6 0.934,1.558 0.304,2.356 -8.186,10.371 -17.598,22.438 -30.428,27.251 -2.902,1.088 -5.984,1.499 -8.962,2.313 -2.595,0.71 -3.456,1.099 -4.199,3.743 -1.132,4.032 -2.635,7.949 -4.405,11.741 -12.838,27.491 -44.41,25.611 -70.116,29.006 -1.068,0.141 -1.572,-1.057 -1.446,-1.899 1.274,-8.494 2.101,-14.73 7.884,-21.381 2.397,-2.758 5.641,-4.557 8.607,-6.613 2.472,-1.714 7.155,-8.171 3.335,-10.086 C 34.65,51.142 31.231,48.709 27.427,46.923 23.489,45.075 19.502,43.362 15.719,41.203 8.257,36.944 3.47,30.447 1.239,22.194 c 0.914,0.119 1.828,0.239 2.742,0.358 -1.312,2.124 -3.501,3.536 -5.204,5.369 -2.568,2.764 -4.443,6.109 -6.027,9.505 -3.418,7.324 -4.712,15.658 -5.674,23.609 -1.764,14.586 -1.372,29.787 -5.926,43.898 -0.226,0.7 -1.067,1.374 -1.845,1.047 -14.498,-6.081 -7.109,-22.63 -5.204,-34.138 1.579,-9.54 -4.943,-14.58 -8.229,-22.599 -3.399,-8.294 -0.762,-15.775 3.347,-23.198 2.831,-5.114 4.948,-9.628 3.126,-15.554 -1.439,-4.679 -4.113,-8.64 -5.008,-13.523 -1.66,-9.063 6.535,-16.632 4.953,-25.618 -1.318,-7.488 -6.611,-13.285 -3.995,-21.201 1.287,-3.895 5.871,-7.188 8.6,-10.111 0.949,-1.017 2.481,-0.176 2.561,1.06 1.402,21.777 14.919,39.977 23.051,59.564 0.742,1.786 -2.162,2.557 -2.893,0.797 -8.274,-19.929 -21.73,-38.183 -23.158,-60.361 l 2.56,1.061 c -2.788,2.987 -6.937,6.09 -8.23,10.003 -2.223,6.729 4.09,14.566 4.798,21.267 0.897,8.49 -6.698,15.407 -5.082,24.225 1.493,8.145 7.496,13.688 4.864,22.396 -2.654,8.78 -9.594,14.866 -7.79,24.811 1.328,7.325 7.884,12.553 9.604,19.921 2.64,11.317 -12.172,31.974 2.923,38.306 -0.616,0.349 -1.231,0.698 -1.846,1.047 4.732,-14.66 4.194,-30.553 6.144,-45.706 0.927,-7.197 2.385,-14.328 5.131,-21.067 1.235,-3.031 2.823,-5.871 4.701,-8.547 2.009,-2.862 5.379,-4.898 7.157,-7.776 0.674,-1.091 2.396,-0.922 2.742,0.357 2.704,10.002 9.251,15.551 18.263,19.914 4.02,1.946 8.131,3.676 12.079,5.772 1.612,0.856 7.22,3.125 7.753,5.061 2.071,7.528 -3.528,12.139 -9.01,15.763 -4.03,2.662 -7.6,6.514 -9.454,11.021 -1.641,3.99 -1.698,8.735 -2.331,12.956 C 20.95,91.25 20.467,90.617 19.985,89.984 33.79,88.161 48.034,87.94 61.525,84.263 75.733,80.391 84.772,70.425 89.852,56.861 c 0.758,-2.024 1.377,-8.205 3.252,-9.259 1.256,-0.706 2.563,-1.276 3.928,-1.736 2.692,-0.908 5.547,-1.258 8.272,-2.058 12.998,-3.815 22.72,-16.928 30.67,-26.999 0.101,0.785 0.202,1.57 0.303,2.356 l -4.142,-2.91 c -0.507,-0.356 -0.951,-1.043 -0.69,-1.694 0.474,-1.177 0.947,-2.353 1.42,-3.53 1,-2.487 1.001,-2.25 -0.428,-4.525 -2.786,-4.435 -7.64,-7.155 -12.256,-9.294 -8.307,-3.847 -17.644,-5.691 -24.638,-11.952 -3.825,-3.425 -5.076,-8.539 -8.839,-12.041 -4.267,-3.971 -10.187,-5.861 -14.803,-9.404 -9.606,-7.373 -11.943,-22.405 -26.948,-19.286 0.119,-0.913 0.238,-1.827 0.358,-2.741 6.089,4.451 9.461,13.446 11.558,20.483 2.24,7.516 -0.997,14.282 -7.609,18.049 -3.333,1.899 -8.472,1.085 -12.255,1.821 -5.372,1.046 -10.483,3.148 -15.299,5.701 C 14.501,-8.337 8.43,-2.958 2.121,2.121 0.63,3.322 -1.507,1.213 0,0" />
      </g>
      <path
         inkscape:connector-curvature="0"
         id="path5841"
         d="m 290.59288,661.31584 c 4.00664,-5.25297 8.79524,-18.37316 8.85996,-24.27525 0.0709,-6.46589 -3.1382,-12.80205 -8.16668,-16.12451 -2.74914,-1.81644 -6.09004,-2.75661 -12.35442,-3.47671 -4.72246,-0.54284 -10.43696,-1.64699 -12.69888,-2.45367 -9.6137,-3.42854 -20.90822,-10.30513 -31.60704,-19.24374 -2.4049,-2.00924 -5.03335,-3.65316 -5.84099,-3.65316 -0.90869,0 -5.28166,7.83641 -11.47192,20.55781 -11.93177,24.52061 -15.35138,32.91109 -17.66127,43.33434 -0.9542,4.30577 -1.87723,7.82868 -2.05119,7.82868 -0.17396,0 -1.71932,-1.90783 -3.43414,-4.23961 -3.95732,-5.38112 -4.09676,-10.60708 -0.51406,-19.26651 4.12513,-9.97048 4.24384,-15.81001 0.5272,-25.93216 -3.96525,-10.7992 -3.949,-15.19183 0.0947,-25.59814 4.6739,-12.02812 4.44793,-16.14015 -1.57114,-28.59017 -7.53005,-15.57536 -7.39852,-20.45281 0.92251,-34.21092 6.46722,-10.69298 6.98494,-13.64713 4.47056,-25.50936 -3.7189,-17.54495 -4.15852,-20.58809 -3.44407,-23.84093 0.82687,-3.76475 3.03582,-7.38983 4.95078,-8.12467 1.87037,-0.71773 4.13842,12.1704 6.1033,34.68195 1.85187,21.21671 2.95493,28.56297 5.69036,37.89698 2.93669,10.02081 7.19462,17.51929 13.46375,23.71055 5.8547,5.78198 7.9083,6.09371 9.04031,1.37231 1.0703,-4.46401 7.24174,-12.82723 11.95879,-16.20591 2.3557,-1.68732 10.66975,-6.26429 18.47565,-10.17104 7.8059,-3.90675 14.79678,-7.83123 15.53528,-8.72107 1.87562,-2.25999 0.85328,-9.88572 -1.77292,-13.22439 -1.16035,-1.47516 -5.09113,-4.93907 -8.73506,-7.6976 -9.06221,-6.86027 -12.49858,-12.55233 -13.98067,-23.15783 l -0.50133,-3.58735 7.7326,0.82229 c 43.8604,4.66414 52.3449,7.33361 64.4537,20.27898 6.38405,6.82512 11.51188,16.24329 13.48221,24.76247 1.49855,6.47935 3.17087,7.74848 13.79706,10.47066 4.28943,1.09885 8.96342,2.60018 10.38662,3.33628 6.66482,3.44716 15.77461,11.36558 22.83536,19.84899 l 7.74608,9.30684 -2.28814,1.72595 c -2.25707,1.70252 -2.26481,1.78424 -0.56952,6.02116 1.67758,4.19269 1.66508,4.37332 -0.52343,7.56725 -3.36381,4.90915 -10.10071,9.0047 -24.10762,14.65569 -15.80726,6.37734 -20.97196,9.86633 -26.09444,17.62802 -5.059,7.66553 -7.9701,10.34919 -16.83704,15.5216 -8.7395,5.09808 -11.42926,7.39939 -16.15559,13.82248 -7.79472,10.59301 -14.01099,15.65736 -19.21871,15.65736 -1.25236,0 -1.01959,-0.75975 1.0735,-3.50394 z"
         style="opacity:1;fill:#b4cb38;fill-opacity:1;stroke:#ffffff;stroke-width:1.5;stroke-miterlimit:4;stroke-dasharray:none;stroke-opacity:1" />
    </g>
  </g>
</svg>
