<?xml version="1.0" encoding="UTF-8" standalone="no"?>
<!-- Created with Inkscape (http://www.inkscape.org/) -->

<svg
   xmlns:dc="http://purl.org/dc/elements/1.1/"
   xmlns:cc="http://creativecommons.org/ns#"
   xmlns:rdf="http://www.w3.org/1999/02/22-rdf-syntax-ns#"
   xmlns:svg="http://www.w3.org/2000/svg"
   xmlns="http://www.w3.org/2000/svg"
   xmlns:sodipodi="http://sodipodi.sourceforge.net/DTD/sodipodi-0.dtd"
   xmlns:inkscape="http://www.inkscape.org/namespaces/inkscape"
   width="210mm"
   height="297mm"
   viewBox="0 0 744.09448819 1052.3622047"
   id="svg11284"
   version="1.1"
   inkscape:version="0.91 r13725"
   sodipodi:docname="seahorse.svg">
  <defs
     id="defs11286" />
  <sodipodi:namedview
     id="base"
     pagecolor="#ffffff"
     bordercolor="#666666"
     borderopacity="1.0"
     inkscape:pageopacity="0.0"
     inkscape:pageshadow="2"
     inkscape:zoom="0.98994949"
     inkscape:cx="-73.375932"
     inkscape:cy="681.04104"
     inkscape:document-units="px"
     inkscape:current-layer="layer1"
     showgrid="false"
     inkscape:window-width="1855"
     inkscape:window-height="1056"
     inkscape:window-x="65"
     inkscape:window-y="24"
     inkscape:window-maximized="1" />
  <metadata
     id="metadata11289">
    <rdf:RDF>
      <cc:Work
         rdf:about="">
        <dc:format>image/svg+xml</dc:format>
        <dc:type
           rdf:resource="http://purl.org/dc/dcmitype/StillImage" />
        <dc:title />
      </cc:Work>
    </rdf:RDF>
  </metadata>
  <g
     inkscape:label="Layer 1"
     inkscape:groupmode="layer"
     id="layer1">
    <g
       id="g11844"
       transform="matrix(0.75217097,-0.09780695,0.0979148,0.75340627,30.272824,137.21924)"
       inkscape:export-xdpi="600"
       inkscape:export-ydpi="600">
      <g
         id="g11851"
         transform="matrix(1.0948697,0.24543053,-0.24623818,1.0942761,61.928031,-118.1353)">
        <g
           id="g10194"
           transform="matrix(1.25,0,0,-1.25,262.3173,258.26191)">
          <path
             d="m 0,0 c 12.706,-0.548 14.771,12.032 23.249,18.426 7.541,5.688 17.597,2.282 23.73,-3.629 7.014,-6.76 4.717,-15.528 1.518,-23.511 -2.419,-6.035 -5.806,-12.124 -6.34,-18.719 -0.274,-3.384 -0.223,-10.783 4.239,-11.878 6.243,-1.533 12.256,6.846 15.376,11.176 -0.786,-0.101 -1.571,-0.202 -2.356,-0.303 7.406,-6.102 11.778,-15.763 13.4,-25.032 1.283,-7.331 -0.088,-14.879 -3.003,-21.645 -0.946,-2.194 -2.725,-7.222 -5.472,-7.404 -1.956,-0.129 -4.043,1.209 -5.67,2.125 -1.577,0.89 -9.921,8.017 -10.956,3.328 -0.369,-1.669 0.642,-3.784 1.02,-5.333 0.895,-3.668 1.651,-7.363 2.276,-11.086 1.313,-7.83 1.275,-15.935 -0.377,-23.707 -2.212,-10.404 -8.625,-20.075 -18.947,-23.695 -11.579,-4.059 -25.458,1.233 -33.523,9.778 -4.19,4.438 -7.344,10.683 -6.467,16.906 0.845,5.988 6.059,9.688 11.492,10.95 4.615,1.072 11.039,1.18 14.968,-1.867 2.059,-1.597 3.504,-5.596 1.018,-7.41 -2.457,-1.792 -6.148,-0.17 -8.173,1.426 -1.155,0.911 -1.94,2.177 -2.665,3.429 -0.453,0.783 -1.727,1.053 -2.356,0.304 -10.924,-13.025 8.706,-25.441 20.848,-22.13 7.79,2.123 12.001,10.832 11.125,18.409 -1.037,8.977 -8.721,16.317 -14.788,22.306 -7.946,7.844 -15.937,15.119 -20.883,25.334 -5.531,11.424 -6.825,26.181 1.655,36.486 5.017,6.097 15.759,5.391 20.17,12.295 3.699,5.787 -1.697,10.742 -7.202,11.563 -4.135,0.616 -8.397,0.026 -12.529,-0.324 -1.594,-0.134 -3.319,-0.356 -4.901,-0.025 1.492,-0.312 1.534,3.033 1.97,4.558 0.534,1.864 -2.361,2.654 -2.892,0.798 -0.643,-2.244 -1.672,-4.74 -1.309,-7.068 0.082,-0.522 0.589,-0.89 1.047,-1.047 5.142,-1.771 11.938,0.601 17.322,0.254 3.636,-0.235 9.163,-3.229 5.636,-7.5 -2.619,-3.171 -7.723,-4.729 -11.361,-6.329 -7.855,-3.453 -12.257,-9.069 -14.283,-17.538 -2.215,-9.256 0.256,-19.179 4.087,-27.637 3.788,-8.366 10.095,-15.023 16.599,-21.336 6.883,-6.682 15.407,-13.65 18.287,-23.159 3.185,-10.515 -6.144,-19.345 -16.305,-17.368 -7.632,1.484 -16.617,9.652 -10.171,17.337 -0.786,0.101 -1.571,0.202 -2.356,0.304 3.085,-5.333 10.969,-10.134 16.329,-4.772 5.449,5.451 -2.739,12.486 -7.692,13.72 -7.748,1.931 -16.492,-0.054 -21.949,-5.862 -6.82,-7.256 -3.571,-17.718 1.641,-24.759 11.454,-15.476 36.113,-19.646 50.085,-5.487 6.545,6.633 9.464,16.085 10.428,25.129 0.73,6.841 0.138,13.626 -0.996,20.383 -0.625,3.727 -1.52,7.41 -2.415,11.08 -0.814,3.334 -1.04,1.136 -1.008,1.121 0.749,-0.35 1.448,-0.835 2.143,-1.279 3.707,-2.363 7.979,-5.873 12.647,-5.564 2.467,0.163 3.652,2.087 4.854,3.977 2.852,4.48 4.693,9.568 5.753,14.747 2.869,14.015 -2.881,31.251 -14.03,40.437 -0.793,0.653 -1.755,0.53 -2.356,-0.304 -1.763,-2.446 -3.793,-4.715 -5.983,-6.784 -1.414,-1.335 -3.268,-2.928 -5.289,-3.127 -3.478,-0.344 -2.898,8.016 -2.642,9.906 1.675,12.373 12.195,22.974 8.675,36.035 C 50.805,21.053 34.91,27.378 24.415,22.507 14.469,17.891 12.42,2.464 0,3 -1.935,3.083 -1.927,0.083 0,0"
             style="fill:#5dbfcf;fill-opacity:1;fill-rule:nonzero;stroke:#5dbfcf;stroke-width:1.1742413;stroke-opacity:1"
             id="path10196"
             inkscape:connector-curvature="0" />
        </g>
        <path
           style="opacity:1;fill:#5dbfcf;fill-opacity:1;stroke:#5dbfcf;stroke-width:0;stroke-linejoin:round;stroke-miterlimit:4;stroke-dasharray:none;stroke-dashoffset:0;stroke-opacity:1"
           d="m 283.44736,435.00487 c -10.96216,-2.3801 -21.2525,-9.18564 -26.90756,-17.79538 -3.3403,-5.08555 -4.24828,-7.96989 -4.25145,-13.50544 -0.002,-3.83987 0.19087,-4.92447 1.24346,-6.98509 3.34276,-6.54403 11.84371,-10.35746 21.85159,-9.80239 7.52578,0.4174 12.05909,3.55255 12.18694,8.42825 0.061,2.32553 -0.74369,3.38975 -3.04307,4.02464 -3.45512,0.95401 -8.04908,-1.29873 -10.79887,-5.29541 -2.10469,-3.05906 -3.42064,-3.02027 -5.42234,0.15982 -2.06987,3.28837 -2.79077,5.82682 -2.53402,8.92284 0.47722,5.75468 4.75115,11.0257 11.72926,14.46566 12.49294,6.15857 24.11362,3.5946 29.49853,-6.50853 5.11967,-9.60549 3.87575,-18.77984 -3.98351,-29.37962 -1.63445,-2.20437 -8.03791,-9.07259 -14.22992,-15.26272 -11.97456,-11.9709 -16.63258,-17.37767 -20.57448,-23.88168 -9.52166,-15.71044 -10.88611,-34.08157 -3.46129,-46.60316 3.29414,-5.55542 6.31874,-7.71458 15.75424,-11.24641 9.09026,-3.40261 13.44966,-7.57909 13.44966,-12.8853 0,-3.21535 -1.3264,-5.38254 -4.66956,-7.62952 -3.71493,-2.49686 -7.70638,-3.00159 -17.58633,-2.22385 -4.46166,0.35122 -8.22444,0.52625 -8.36173,0.38896 -0.13729,-0.13729 -0.0558,-0.9976 0.1811,-1.91181 0.39329,-1.51772 0.68151,-1.71915 3.31614,-2.31751 6.03729,-1.37114 8.62968,-3.48064 15.80204,-12.85856 8.16976,-10.68203 12.1024,-13.30955 19.90464,-13.29891 4.57952,0.006 8.25996,1.06725 12.55923,3.62061 8.66338,5.14523 12.38784,12.23333 11.1373,21.19563 -0.61749,4.42542 -1.87209,8.23345 -5.79344,17.58453 -4.88587,11.65117 -5.53177,14.10741 -5.51179,20.96067 0.014,4.81972 0.19943,6.20948 1.08918,8.16489 1.35013,2.96722 3.10975,4.1512 6.16951,4.1512 4.2588,0 8.90622,-3.16682 14.3682,-9.79071 l 1.87417,-2.27285 2.46631,2.74659 c 5.25767,5.85517 9.62197,14.96294 11.73069,24.48059 1.41744,6.39759 1.09484,15.84609 -0.75177,22.01776 -1.88053,6.28509 -4.69197,12.68908 -6.3839,14.54152 -2.45044,2.68288 -5.84252,2.03947 -11.68814,-2.217 -3.25798,-2.37228 -7.91668,-4.74837 -9.30994,-4.74837 -2.47998,0 -3.5245,3.02987 -2.20871,6.40684 0.30471,0.78201 1.34813,5.17203 2.31873,9.7556 1.53382,7.24328 1.80027,9.56575 2.0363,17.74909 0.30921,10.72038 -0.41766,16.73747 -2.90551,24.05196 -4.34224,12.76656 -13.29097,21.58362 -24.96434,24.59701 -3.67183,0.94785 -10.97338,0.9505 -15.32555,0.006 l 0,10e-6 z"
           id="path11840"
           inkscape:connector-curvature="0" />
      </g>
    </g>
    <rect
       style="opacity:1;fill:none;fill-opacity:1;stroke:#5dbfcf;stroke-width:0;stroke-linejoin:round;stroke-miterlimit:4;stroke-dasharray:none;stroke-dashoffset:0;stroke-opacity:1"
       id="rect11842"
       width="199.99998"
       height="199.99998"
       x="192.12332"
       y="244.27693"
       inkscape:export-xdpi="600"
       inkscape:export-ydpi="600" />
    <rect
       style="opacity:1;fill:none;fill-opacity:1;stroke:#5dbfcf;stroke-width:0;stroke-linejoin:round;stroke-miterlimit:4;stroke-dasharray:none;stroke-dashoffset:0;stroke-opacity:1"
       id="rect11849"
       width="68.690376"
       height="21.213203"
       x="0"
       y="160.39751" />
  </g>
</svg>
