<?xml version="1.0" encoding="UTF-8" standalone="no"?>
<!-- Created with Inkscape (http://www.inkscape.org/) -->

<svg
   xmlns:dc="http://purl.org/dc/elements/1.1/"
   xmlns:cc="http://creativecommons.org/ns#"
   xmlns:rdf="http://www.w3.org/1999/02/22-rdf-syntax-ns#"
   xmlns:svg="http://www.w3.org/2000/svg"
   xmlns="http://www.w3.org/2000/svg"
   xmlns:sodipodi="http://sodipodi.sourceforge.net/DTD/sodipodi-0.dtd"
   xmlns:inkscape="http://www.inkscape.org/namespaces/inkscape"
   width="180"
   height="180"
   viewBox="0 0 180 180"
   id="svg4692"
   version="1.1"
   inkscape:version="0.91 r13725"
   sodipodi:docname="starr.svg"
   inkscape:export-filename="/home/rishig/zulip/static/images/cute/starr.png"
   inkscape:export-xdpi="600"
   inkscape:export-ydpi="600">
  <defs
     id="defs4694" />
  <sodipodi:namedview
     id="base"
     pagecolor="#ffffff"
     bordercolor="#666666"
     borderopacity="1.0"
     inkscape:pageopacity="0.0"
     inkscape:pageshadow="2"
     inkscape:zoom="0.7"
     inkscape:cx="45.356013"
     inkscape:cy="137.77101"
     inkscape:document-units="px"
     inkscape:current-layer="g5867"
     showgrid="false"
     fit-margin-top="35"
     fit-margin-left="38"
     fit-margin-right="38"
     fit-margin-bottom="35"
     inkscape:window-width="1855"
     inkscape:window-height="1056"
     inkscape:window-x="65"
     inkscape:window-y="24"
     inkscape:window-maximized="1"
     units="px" />
  <metadata
     id="metadata4697">
    <rdf:RDF>
      <cc:Work
         rdf:about="">
        <dc:format>image/svg+xml</dc:format>
        <dc:type
           rdf:resource="http://purl.org/dc/dcmitype/StillImage" />
        <dc:title></dc:title>
      </cc:Work>
    </rdf:RDF>
  </metadata>
  <g
     inkscape:label="Layer 1"
     inkscape:groupmode="layer"
     id="layer1"
     transform="translate(-145.0829,-396.86741)">
    <g
       id="g5862">
      <g
         id="g5867">
        <g
           id="g4138"
           transform="translate(-22.424775,18.393688)">
          <g
             style="fill:#bf7849;fill-opacity:1;stroke-width:1.20000005;stroke-miterlimit:4;stroke-dasharray:none"
             transform="matrix(0,-1.25,1.25,0,194.84004,518.59989)"
             id="g40">
            <path
               inkscape:connector-curvature="0"
               id="path42"
               style="fill:#bf7849;fill-opacity:1;fill-rule:nonzero;stroke:none;stroke-width:1.20000005;stroke-miterlimit:4;stroke-dasharray:none"
               d="m 0,0 c 8.172,4.288 15.031,10.398 22.586,15.608 5.391,3.719 10.911,7.289 16.506,10.691 -0.606,0.079 -1.212,0.157 -1.818,0.235 7.129,-7.787 14.224,-15.605 21.409,-23.341 2.061,-2.218 8.546,-12.526 12.873,-8.458 1.992,1.874 0.405,6.18 -0.13,8.248 -0.941,3.632 -1.748,7.301 -2.611,10.953 -2.052,8.687 -3.861,17.691 -7.172,26.008 -0.23,-0.565 -0.46,-1.129 -0.69,-1.694 7.244,3.525 14.506,7.015 21.763,10.513 4.753,2.291 12.904,4.514 15.498,9.385 3.099,5.818 -6.644,6.066 -9.345,6.187 -11.387,0.507 -22.79,0.24 -34.174,0.801 0.482,-0.367 0.964,-0.735 1.446,-1.101 -1.383,5.914 -2.735,11.836 -4.019,17.772 -0.953,4.406 -1.706,8.847 -2.558,13.273 -0.537,2.786 -1.001,9.774 -4.278,11.049 -6.582,2.56 -7.709,-9.855 -8.703,-13.346 -1.3,-4.569 -2.368,-9.191 -3.995,-13.66 -1.684,-4.629 -4.029,-9.013 -5.896,-13.571 0.482,0.367 0.964,0.734 1.446,1.101 -8.989,1.02 -17.923,2.515 -26.882,3.76 -3.95,0.548 -7.907,1.069 -11.881,1.43 -1.882,0.171 -4.517,0.662 -6.316,-0.191 -2.104,-0.997 -1.896,-4.287 -1.145,-6.026 0.579,-1.34 2.856,-2.36 3.974,-3.164 2.421,-1.74 4.912,-3.38 7.406,-5.011 8.618,-5.633 17.877,-10.479 26.132,-16.645 -0.18,0.684 -0.359,1.369 -0.539,2.052 C 11.652,32.374 4.177,22.046 -1.968,10.864 -3.53,8.021 -5.906,5.032 -5.251,1.667 c 0.477,-2.454 3.039,-2.514 4.893,-1.818 1.794,0.673 1.017,3.574 -0.798,2.893 -3.177,-1.193 1.253,5.62 1.779,6.608 1.999,3.755 4.239,7.381 6.518,10.971 4.546,7.161 9.521,14.045 14.337,21.024 0.502,0.727 0.076,1.593 -0.539,2.052 -6.196,4.629 -13.064,8.416 -19.62,12.503 -3.892,2.428 -7.746,4.913 -11.539,7.493 -1.595,1.086 -8.719,5.741 -3.35,5.637 13.933,-0.272 27.88,-3.808 41.708,-5.377 0.709,-0.08 1.213,0.53 1.446,1.101 2.905,7.094 6.301,13.74 8.252,21.198 0.94,3.595 1.956,7.167 2.992,10.736 0.368,1.269 0.769,5.022 1.646,5.914 2.026,2.06 3.222,-3.926 3.48,-4.975 2.796,-11.35 4.628,-22.99 7.295,-34.39 0.156,-0.67 0.795,-1.069 1.446,-1.101 8.737,-0.43 17.485,-0.361 26.229,-0.529 3.511,-0.068 7.017,-0.235 10.526,-0.384 0.82,-0.034 1.641,-0.063 2.462,-0.088 1.514,-0.417 1.484,-1.639 -0.091,-3.669 C 92.794,56.679 91.424,56.28 90.263,55.731 79.952,50.847 69.698,45.833 59.439,40.841 58.888,40.572 58.518,39.729 58.75,39.146 63.59,26.991 65.418,13.751 68.803,1.161 c 0.182,-0.678 1.252,-4.52 0.275,-4.286 -0.951,0.229 -1.581,1.313 -2.196,1.959 C 63.4,2.495 59.971,6.204 56.544,9.916 50.8,16.137 45.113,22.41 39.396,28.655 38.949,29.144 38.134,29.228 37.578,28.89 31.979,25.485 26.485,21.89 21.072,18.199 13.484,13.027 6.665,6.882 -1.514,2.591 -3.228,1.691 -1.711,-0.897 0,0" />
          </g>
          <path
             inkscape:connector-curvature="0"
             id="path5248"
             d="m 198.44032,438.61091 c 5.41977,5.07536 21.20088,19.5868 31.08189,28.5812 1.84728,1.68152 2.40018,2.41038 2.40018,3.164 0,1.75381 -11.20087,18.9505 -20.35976,31.25833 -7.30526,9.81691 -12.49738,17.65244 -12.49738,18.86006 0,0.61883 1.39161,0.50788 3.04386,-0.24269 2.44375,-1.11011 12.20607,-6.78413 18.23789,-10.60015 5.26994,-3.33403 10.69602,-7.00125 22.62204,-15.28916 2.46448,-1.71267 4.80801,-3.0852 5.26786,-3.0852 0.45559,0 1.11065,0.2823 1.45569,0.62734 1.14661,1.14661 7.04736,10.1621 11.8615,18.12266 2.61338,4.32143 7.35488,11.79486 10.53667,16.60763 5.43881,8.22673 7.91949,11.29057 8.88307,10.97127 0.65947,-0.21852 0.69155,-6.60156 0.0641,-12.75747 -0.66842,-6.5581 -1.13183,-9.80942 -3.25783,-22.85715 -1.94367,-11.92874 -2.85542,-18.93242 -2.56363,-19.69281 0.2242,-0.58427 15.42438,-7.2439 21.00914,-9.20471 3.85555,-1.35368 17.54503,-5.21179 22.45814,-6.32938 4.07857,-0.92775 5.38149,-1.5648 5.38149,-2.63121 0,-1.66421 -4.28886,-2.82483 -29.07383,-7.86771 -21.31562,-4.337 -21.00181,-4.25807 -21.5601,-5.42292 -0.34023,-0.70984 -0.54254,-5.9511 -0.79238,-20.52725 -0.36901,-21.52905 -0.64921,-28.89524 -1.13514,-29.84186 -0.42001,-0.81822 -1.54711,-0.79275 -2.9372,0.0664 -0.90037,0.55647 -1.70572,1.93289 -4.12706,7.05357 -7.68537,16.25312 -17.61537,36.42942 -18.23839,37.05774 -0.68316,0.68897 -0.74635,0.67649 -6.68065,-1.31928 -7.12735,-2.397 -12.4155,-3.80147 -25.09811,-6.6658 -5.20535,-1.17561 -12.10417,-2.78871 -15.33071,-3.58468 -6.34878,-1.56621 -7.16932,-1.68075 -7.16922,-1.00078 4e-5,0.24554 2.93308,3.19305 6.51786,6.55004 z"
             style="opacity:1;fill:#bf7849;fill-opacity:1;stroke:#ffffff;stroke-width:1.5;stroke-miterlimit:4;stroke-dasharray:none;stroke-opacity:1" />
        </g>
      </g>
    </g>
  </g>
</svg>
