<svg xmlns="http://www.w3.org/2000/svg" viewBox="0 0 244.84 244.84"><defs><style>.cls-1{fill:#fff;}.cls-2{fill:#61e6ba;}.cls-3{fill:#7876fd;}</style></defs><g id="Layer_2" data-name="Layer 2"><g id="Layer_1-2" data-name="Layer 1"><path class="cls-1" d="M122.42,244.84A122.42,122.42,0,1,1,244.84,122.42,122.56,122.56,0,0,1,122.42,244.84ZM122.42,7A115.42,115.42,0,1,0,237.84,122.42,115.55,115.55,0,0,0,122.42,7Z"/><path class="cls-1" d="M105.31,107.8a4.87,4.87,0,0,1-.66,0c-16.73-2.23-35.47-9.66-36.26-10l-3-1.18L63.78,68.67a5,5,0,0,1,10-.6L75,89.61c5.8,2.12,19.15,6.67,30.93,8.24a5,5,0,0,1-.66,10Z"/><path class="cls-1" d="M78.49,191.89a5,5,0,0,1-4.7-3.3c-.93-2.57-3.74-21-5.32-31.78l-.35-2.38,22.3-23.87a5,5,0,0,1,7.31,6.82l-19,20.35c1.86,12.48,4,25.62,4.51,27.54a5,5,0,0,1-3,6.32A5.08,5.08,0,0,1,78.49,191.89Z"/><path class="cls-1" d="M156.79,66.48H90.25V54.6a5,5,0,1,1,10,0v1.88h46.54V54.21a5,5,0,0,1,10,0Z"/><path class="cls-1" d="M151.83,109.32a5,5,0,0,1-.88-9.93c8.3-1.48,17.71-5.73,22.1-7.87l1-21.86a5,5,0,0,1,10,.44l-1.22,27.62-2.5,1.35c-.6.32-14.8,7.88-27.56,10.17A5.45,5.45,0,0,1,151.83,109.32Z"/><path class="cls-1" d="M171.78,193.4a4.89,4.89,0,0,1-1.3-.17A5,5,0,0,1,167,187.1c.42-1.84,2.19-17,3.43-28.19l-14.3-20.57a5,5,0,0,1,8.22-5.71l16.43,23.65-.21,1.86c-.94,8.63-3.22,29-3.91,31.56A5,5,0,0,1,171.78,193.4Z"/><path class="cls-1" d="M46.3,150a5,5,0,0,1-2.06-9.56l16.59-7.51L66.91,109l30.92-6.6a5,5,0,1,1,2.09,9.77l-24.85,5.32L69.34,140l-21,9.5A4.88,4.88,0,0,1,46.3,150Z"/><path class="cls-1" d="M195.71,151.47a4.92,4.92,0,0,1-2.59-.73l-15.87-9.66L173,118.75l-17.78-5.11A5,5,0,1,1,158,104l23.7,6.81,4.55,24,12.07,7.35a5,5,0,0,1-2.61,9.27Z"/><ellipse class="cls-2" cx="123.86" cy="125.05" rx="40.96" ry="52.05"/><path class="cls-2" d="M108.59,76.75s-1.11-15.27,13.75-15.27,15.95,15.27,15.95,15.27Z"/><rect class="cls-3" x="118.93" y="122.5" width="9" height="61.8"/><rect class="cls-3" x="81.89" y="118" width="83.94" height="9"/></g></g></svg>