<svg xmlns="http://www.w3.org/2000/svg" viewBox="0 0 244.84 244.84"><defs><style>.cls-1{fill:#fff;}.cls-2{fill:#61e6ba;}.cls-3{fill:#7876fd;}</style></defs><g id="Layer_2" data-name="Layer 2"><g id="Layer_1-2" data-name="Layer 1"><rect class="cls-1" x="104.46" y="102.12" width="87.62" height="34.06" rx="12" transform="translate(296.55 238.29) rotate(-180)"/><polygon class="cls-1" points="184.29 130.65 184.29 148.59 170.99 127.2 184.29 130.65"/><rect class="cls-2" x="80.65" y="151.1" width="88.56" height="34.06" rx="12"/><polygon class="cls-2" points="88.53 179.63 88.53 197.57 101.97 176.18 88.53 179.63"/><rect class="cls-2" x="73.93" y="54.24" width="88.56" height="34.06" rx="12"/><polygon class="cls-2" points="81.82 82.77 81.82 100.71 95.25 79.32 81.82 82.77"/><circle class="cls-3" cx="108.67" cy="71.27" r="3.85"/><circle class="cls-3" cx="120.31" cy="71.27" r="3.85"/><circle class="cls-3" cx="131.59" cy="71.27" r="3.85"/><circle class="cls-3" cx="136.82" cy="119.15" r="3.85"/><circle class="cls-3" cx="148.46" cy="119.15" r="3.85"/><circle class="cls-3" cx="159.74" cy="119.15" r="3.85"/><circle class="cls-3" cx="113.47" cy="169.98" r="3.85"/><circle class="cls-3" cx="125.11" cy="169.98" r="3.85"/><circle class="cls-3" cx="136.39" cy="169.98" r="3.85"/><path class="cls-1" d="M122.42,244.84A122.42,122.42,0,1,1,244.84,122.42,122.56,122.56,0,0,1,122.42,244.84ZM122.42,7A115.42,115.42,0,1,0,237.84,122.42,115.55,115.55,0,0,0,122.42,7Z"/></g></g></svg>