<svg xmlns="http://www.w3.org/2000/svg" viewBox="0 0 244.84 244.84"><defs><style>.cls-1{fill:#fff;}.cls-2{fill:#61e6ba;}</style></defs><g id="Layer_2" data-name="Layer 2"><g id="Layer_1-2" data-name="Layer 1"><path class="cls-1" d="M122.42,244.84A122.42,122.42,0,1,1,244.84,122.42,122.56,122.56,0,0,1,122.42,244.84ZM122.42,7A115.42,115.42,0,1,0,237.84,122.42,115.55,115.55,0,0,0,122.42,7Z"/><rect class="cls-2" x="56.34" y="53.24" width="127.95" height="149.88" rx="17.45"/><rect class="cls-1" x="95.56" y="78.51" width="72.87" height="6.98" rx="3.11"/><rect class="cls-1" x="74.58" y="92.78" width="93.84" height="6.98" rx="3.11"/><rect class="cls-1" x="74.58" y="105.86" width="93.84" height="6.98" rx="3.11"/><rect class="cls-1" x="74.58" y="119.93" width="93.84" height="6.98" rx="3.11"/><rect class="cls-1" x="74.58" y="133.2" width="93.84" height="6.98" rx="3.11"/><rect class="cls-1" x="74.58" y="147.27" width="93.84" height="6.98" rx="3.11"/><rect class="cls-1" x="74.58" y="161.34" width="93.84" height="6.98" rx="3.11"/><rect class="cls-1" x="74.58" y="175.42" width="46.92" height="6.98" rx="3.11"/><path class="cls-1" d="M88.05,82.4l-5.37,2.83-1.39-2.48a.77.77,0,0,0-.61-.37,6.75,6.75,0,0,1-2.79-12.66,6.65,6.65,0,0,1,5.18-.54,6.73,6.73,0,0,1,4,3.32h0A6.77,6.77,0,0,1,87,79a1.23,1.23,0,0,0,0,1.19v0Zm-4.9,1.25,3.33-1.76-.56-1.16a2.41,2.41,0,0,1,0-2.33,5.53,5.53,0,0,0,.09-5.35h0a5.58,5.58,0,0,0-7.6-2.3,5.62,5.62,0,0,0-2.3,7.42,5.52,5.52,0,0,0,4.61,3,2,2,0,0,1,1.56,1Z"/><rect class="cls-1" x="83.55" y="85.73" width="6.12" height="1.08" transform="translate(-30.23 50.31) rotate(-27.78)"/><rect class="cls-1" x="82.79" y="84.22" width="6.12" height="1.08" transform="translate(-29.61 49.78) rotate(-27.78)"/><path class="cls-1" d="M88.89,86.34l-3.82,2a2.19,2.19,0,0,0,2.47.49C89.42,87.85,89,86.66,88.89,86.34Z"/></g></g></svg>