<svg xmlns="http://www.w3.org/2000/svg" xmlns:xlink="http://www.w3.org/1999/xlink" viewBox="0 0 1645.93 861.19"><defs><style>.cls-1{fill:none;}.cls-2{fill:#7876fd;}.cls-3{fill:#fff;}.cls-4{fill:#61e6ba;}.cls-5{clip-path:url(#clip-path);}.cls-6{fill:#50adff;}.cls-7{fill:#50acff;}.cls-8{fill:#51acff;}.cls-9{fill:#52abff;}.cls-10{fill:#52aaff;}.cls-11{fill:#53a9ff;}.cls-12{fill:#53a8ff;}.cls-13{fill:#54a8ff;}.cls-14{fill:#55a7ff;}.cls-15{fill:#55a6ff;}.cls-16{fill:#56a5ff;}.cls-17{fill:#57a4fe;}.cls-18{fill:#57a3fe;}.cls-19{fill:#58a2fe;}.cls-20{fill:#59a1fe;}.cls-21{fill:#5aa0fe;}.cls-22{fill:#5a9ffe;}.cls-23{fill:#5b9efe;}.cls-24{fill:#5c9dfe;}.cls-25{fill:#5c9cfe;}.cls-26{fill:#5d9bfe;}.cls-27{fill:#5e9afe;}.cls-28{fill:#5f99fe;}.cls-29{fill:#6098fe;}.cls-30{fill:#6097fe;}.cls-31{fill:#6196fe;}.cls-32{fill:#6295fe;}.cls-33{fill:#6394fe;}.cls-34{fill:#6393fe;}.cls-35{fill:#6492fd;}.cls-36{fill:#6591fd;}.cls-37{fill:#6690fd;}.cls-38{fill:#678ffd;}.cls-39{fill:#678dfd;}.cls-40{fill:#688cfd;}.cls-41{fill:#698bfd;}.cls-42{fill:#6a8afd;}.cls-43{fill:#6b89fd;}.cls-44{fill:#6b88fd;}.cls-45{fill:#6c87fd;}.cls-46{fill:#6d86fd;}.cls-47{fill:#6e85fd;}.cls-48{fill:#6f84fd;}.cls-49{fill:#7082fd;}.cls-50{fill:#7081fd;}.cls-51{fill:#7180fd;}.cls-52{fill:#727ffc;}.cls-53{fill:#737efc;}.cls-54{fill:#747dfc;}.cls-55{fill:#757cfc;}.cls-56{fill:#757afc;}.cls-57{fill:#7679fc;}.cls-58{fill:#7778fc;}.cls-59{fill:#7877fc;}.cls-60{fill:#a0721f;}.cls-61{fill:#7f5100;}.cls-62{fill:#e5c693;}.cls-63{fill:#224d70;}.cls-64{fill:#f4c55e;}.cls-65{clip-path:url(#clip-path-2);}.cls-66{fill:#e5a87a;}.cls-67{fill:#6363e5;}.cls-68{fill:#59d3a7;}.cls-69{fill:#ddd;}.cls-70{fill:#e4a87a;}</style><clipPath id="clip-path"><rect class="cls-1" x="893.58" y="345.14" width="169.7" height="30.04" transform="translate(1956.86 720.32) rotate(180)"/></clipPath><clipPath id="clip-path-2"><polygon class="cls-1" points="1354.4 125.36 1529.77 238.6 1546.47 215.68 1371.1 102.44 1354.4 125.36"/></clipPath></defs><g id="Layer_2" data-name="Layer 2"><g id="Layer_1-2" data-name="Layer 1"><path class="cls-2" d="M1604.21,625.62H869.06V143h735.15Zm-729.93-5.21H1599V148.23H874.28Z"/><rect class="cls-2" x="871.67" y="182.86" width="728.78" height="5.22"/><circle class="cls-2" cx="891.33" cy="165.12" r="3.68"/><circle class="cls-2" cx="903.96" cy="165.12" r="3.68"/><circle class="cls-2" cx="916.65" cy="165.12" r="3.68"/><rect class="cls-2" x="894" y="209.46" width="198.91" height="30.04"/><rect class="cls-3" x="1100.98" y="209.46" width="43.93" height="30.04"/><rect class="cls-4" x="893.63" y="255.64" width="154.06" height="30.04"/><rect class="cls-2" x="1055.53" y="255.64" width="34.03" height="30.04"/><rect class="cls-3" x="1096.96" y="255.64" width="169.7" height="30.04"/><rect class="cls-2" x="1276.55" y="255.64" width="141.83" height="30.04"/><rect class="cls-3" x="1431.27" y="255.64" width="141.83" height="30.04"/><rect class="cls-3" x="894" y="300.53" width="219.09" height="30.04"/><rect class="cls-2" x="1284.07" y="300.53" width="216.94" height="30.04"/><rect class="cls-4" x="1070.68" y="345.14" width="34.03" height="30.04" transform="translate(2175.4 720.32) rotate(180)"/><g class="cls-5"><path class="cls-6" d="M893.58,345.14v0Z"/><rect class="cls-6" x="893.58" y="345.14" width="3.14" height="30.04"/><rect class="cls-7" x="896.72" y="345.14" width="3.14" height="30.04"/><rect class="cls-8" x="899.87" y="345.14" width="3.14" height="30.04"/><rect class="cls-9" x="903.01" y="345.14" width="3.14" height="30.04"/><rect class="cls-10" x="906.15" y="345.14" width="3.14" height="30.04"/><rect class="cls-11" x="909.29" y="345.14" width="3.14" height="30.04"/><rect class="cls-12" x="912.44" y="345.14" width="3.14" height="30.04"/><rect class="cls-13" x="915.58" y="345.14" width="3.14" height="30.04"/><rect class="cls-14" x="918.72" y="345.14" width="3.14" height="30.04"/><rect class="cls-15" x="921.86" y="345.14" width="3.14" height="30.04"/><rect class="cls-16" x="925.01" y="345.14" width="3.14" height="30.04"/><rect class="cls-17" x="928.15" y="345.14" width="3.14" height="30.04"/><rect class="cls-18" x="931.29" y="345.14" width="3.14" height="30.04"/><rect class="cls-19" x="934.43" y="345.14" width="3.14" height="30.04"/><rect class="cls-20" x="937.58" y="345.14" width="3.14" height="30.04"/><rect class="cls-21" x="940.72" y="345.14" width="3.14" height="30.04"/><rect class="cls-22" x="943.86" y="345.14" width="3.14" height="30.04"/><rect class="cls-23" x="947" y="345.14" width="3.14" height="30.04"/><rect class="cls-24" x="950.15" y="345.14" width="3.14" height="30.04"/><rect class="cls-25" x="953.29" y="345.14" width="3.14" height="30.04"/><rect class="cls-26" x="956.43" y="345.14" width="3.14" height="30.04"/><rect class="cls-27" x="959.57" y="345.14" width="3.14" height="30.04"/><rect class="cls-28" x="962.72" y="345.14" width="3.14" height="30.04"/><rect class="cls-29" x="965.86" y="345.14" width="3.14" height="30.04"/><rect class="cls-30" x="969" y="345.14" width="3.14" height="30.04"/><rect class="cls-31" x="972.14" y="345.14" width="3.14" height="30.04"/><rect class="cls-32" x="975.29" y="345.14" width="3.14" height="30.04"/><rect class="cls-33" x="978.43" y="345.14" width="3.14" height="30.04"/><rect class="cls-34" x="981.57" y="345.14" width="3.14" height="30.04"/><rect class="cls-35" x="984.71" y="345.14" width="3.14" height="30.04"/><rect class="cls-36" x="987.86" y="345.14" width="3.14" height="30.04"/><rect class="cls-37" x="991" y="345.14" width="3.14" height="30.04"/><rect class="cls-38" x="994.14" y="345.14" width="3.14" height="30.04"/><rect class="cls-39" x="997.29" y="345.14" width="3.14" height="30.04"/><rect class="cls-40" x="1000.43" y="345.14" width="3.14" height="30.04"/><rect class="cls-41" x="1003.57" y="345.14" width="3.14" height="30.04"/><rect class="cls-42" x="1006.71" y="345.14" width="3.14" height="30.04"/><rect class="cls-43" x="1009.86" y="345.14" width="3.14" height="30.04"/><rect class="cls-44" x="1013" y="345.14" width="3.14" height="30.04"/><rect class="cls-45" x="1016.14" y="345.14" width="3.14" height="30.04"/><rect class="cls-46" x="1019.28" y="345.14" width="3.14" height="30.04"/><rect class="cls-47" x="1022.43" y="345.14" width="3.14" height="30.04"/><rect class="cls-48" x="1025.57" y="345.14" width="3.14" height="30.04"/><rect class="cls-49" x="1028.71" y="345.14" width="3.14" height="30.04"/><rect class="cls-50" x="1031.85" y="345.14" width="3.14" height="30.04"/><rect class="cls-51" x="1035" y="345.14" width="3.14" height="30.04"/><rect class="cls-52" x="1038.14" y="345.14" width="3.14" height="30.04"/><rect class="cls-53" x="1041.28" y="345.14" width="3.14" height="30.04"/><rect class="cls-54" x="1044.42" y="345.14" width="3.14" height="30.04"/><rect class="cls-55" x="1047.57" y="345.14" width="3.14" height="30.04"/><rect class="cls-56" x="1050.71" y="345.14" width="3.14" height="30.04"/><rect class="cls-57" x="1053.85" y="345.14" width="3.14" height="30.04"/><rect class="cls-58" x="1056.99" y="345.14" width="3.14" height="30.04"/><rect class="cls-59" x="1060.14" y="345.14" width="3.14" height="30.04"/><path class="cls-59" d="M1063.28,375.18v0Z"/></g><rect class="cls-4" x="1153.58" y="209.46" width="109.19" height="30.04"/><polygon class="cls-3" points="1639.47 860.24 1645.92 859.1 1574.17 325.54 1567.72 326.67 1639.47 860.24"/><polygon class="cls-3" points="1587.5 861.18 1593.95 860.05 1522.2 326.49 1515.75 327.62 1587.5 861.18"/><rect class="cls-3" x="1524.54" y="388.64" width="54.8" height="5.39"/><rect class="cls-3" x="1531.18" y="427.55" width="54.8" height="5.39"/><rect class="cls-3" x="1536.02" y="466.61" width="54.8" height="5.39"/><rect class="cls-3" x="1542.66" y="505.53" width="54.8" height="5.39"/><rect class="cls-3" x="1546.77" y="541.47" width="54.8" height="5.39"/><rect class="cls-3" x="1553.41" y="580.39" width="54.8" height="5.39"/><rect class="cls-3" x="1558.24" y="619.45" width="54.8" height="5.39"/><rect class="cls-3" x="1564.88" y="658.36" width="54.8" height="5.39"/><rect class="cls-3" x="1566.35" y="697.27" width="54.8" height="5.39"/><rect class="cls-3" x="1572.99" y="736.18" width="54.8" height="5.39"/><rect class="cls-3" x="1577.83" y="775.24" width="54.8" height="5.39"/><rect class="cls-3" x="1584.46" y="814.16" width="54.8" height="5.39"/><rect class="cls-4" x="1321.15" y="503.23" width="70.02" height="32.52" rx="12" transform="translate(2712.32 1038.98) rotate(180)"/><polygon class="cls-4" points="1384.94 530.48 1384.94 547.61 1374.31 527.19 1384.94 530.48"/><path class="cls-60" d="M971.72,495.61s72.71-28.12,88.19-40.77,23.85-24.46,27.74-22.34-13.87,21-13.87,21,15.53,2.06,9.76,5.32-13.19-.65-20.85,6.69S975,523,975,523Z"/><rect class="cls-4" x="1065.79" y="414.94" width="182.65" height="31.71" transform="translate(-64.57 251.92) rotate(-12.09)"/><path class="cls-2" d="M952.17,596.34s-8.93,114.37-17.63,153.43-18.24,78.72-18.24,78.72h31.22s30.09-94.37,36.63-137.57,3.27-19.75,3.27-19.75,9.1,43.9,10.7,65.42-12,95.24-12,95.24H1015s22.84-78,18.49-122.3-12.31-113.19-12.31-113.19Z"/><path class="cls-4" d="M920,828.49s-6.85,19.44,0,22,34.68-1.08,42.73,0,1.09-13.64-20.81-15.54S920,828.49,920,828.49Z"/><path class="cls-4" d="M987.59,831.83s-9.05,11.76-5.7,15.38,35.58,6.18,50.65,4.17-19.33-19.55-19.33-19.55Z"/><rect class="cls-60" x="971.72" y="468.1" width="19.38" height="21.26"/><path class="cls-60" d="M1015,500.8l76.1,19.78s27-58.79,36.91-64.8,31-9.18,31-9.18a225.62,225.62,0,0,1-19.43,14c-9.08,5.61-29,74.4-38.62,78.7s-80.52-7.83-80.52-7.83Z"/><path class="cls-60" d="M1002.13,430.32s4.57,6.75,6.1,11.54,5.44,5.88,6.53,7-2.4,5.28-3.7,5.69,3.91,13.59.35,17.15c-3.32,3.32-25.39,3.5-25.39,3.5l-11.32-25Z"/><path class="cls-2" d="M961.7,459.16s-1.12-11-.36-17.39,5.18-18.09,14.64-19.93,24.78,3,27,5.41,5.29,4,3.78,5.81-14,4.58-15.89,7.64S988.85,451,988.85,451s-5.92-1.89-8.19,1.77-.64,11.27,3.49,12.8c3.9,1.44,6-.09,6-.09l-5.72,11.92-13.51.26S963,470.18,961.7,459.16Z"/><path class="cls-3" d="M996.77,482.86l46.76,21.44-4,35.93-12.78-2.94s-1.7,58.72-.68,75.62l-78.59-1.77s-.68-98.89,14.25-116.53A34.9,34.9,0,0,1,996.77,482.86Z"/><path class="cls-60" d="M1062.45,456.51a58.15,58.15,0,0,1,10.8-6.17c5.28-2.11,8.71-2.07,7.07-4s-12.63-.34-16.16,2.16-6.26,7.85-6.26,7.85Z"/><path class="cls-61" d="M188.36,812.45,191,830.58s8.71.47,14.36-1.65l-1.65-20.48Z"/><path class="cls-61" d="M27.81,788.44,17.64,800.17l-3.72,4.28s.67,8.24,6.81,10.12l17.2-17.89Z"/><path class="cls-4" d="M111.75,632.71s-5.56,72.78-15.13,84.43-60.48,46.08-75.89,70.77l16.48,14.91s99.14-65.78,102.87-72.3,15.1-99.35,15.1-99.35Z"/><path class="cls-4" d="M111.75,632.71s26.8,48.76,38.09,60.41,15.85,28.09,15.85,28.09l18,94.84,28.36-2.51s-6.91-85.72-12.76-110.42-44.12-72-44.12-72l-34.87,1.54Z"/><path class="cls-3" d="M18.69,796.89s1.45,6.62,5.16,8.65a45,45,0,0,1,5.42,3.34s7.05,12.81,10,15.25,7.73,14.11-5.65,10.33-21.78-11.76-26-18.38S8.23,799.73,18.69,796.89Z"/><path class="cls-3" d="M191,830.58s-3.73,6.35,0,12.4,21.88,1.1,32.88,0,5.77,1.1,13.47-1.1,4.95-9.9,0-9.62-32-3.33-32-3.33S194.37,831.38,191,830.58Z"/><path class="cls-62" d="M597.24,807.37l1,20s8.63,1.37,14.45-.39l.18-22.52Z"/><path class="cls-62" d="M500.49,792.05l-7,16.74L491,814.9s3.72,8.1,11.15,7.16l12.46-26.33Z"/><path class="cls-2" d="M597.84,825.56s-4.28,7.94-1.11,16.37,21.7,4,32.75,3.88,5.66,2.13,13.52.14,5.81-12.48.86-12.71-31.57-8.16-31.57-8.16S601.18,827,597.84,825.56Z"/><path class="cls-3" d="M536.69,612.72,523.38,716.21l-22.63,82.6,19,10.63,36.07-86,11.89-57.08s14.29,36,18.77,48.37,11.33,94.76,11.33,94.76l20.31-.34s5.55-73.29.18-112-12-85.81-12-85.81Z"/><path class="cls-3" d="M570.11,655.17c-2.9,5-4.23,11.12-5.89,16.65-1.86,6.19-4.16,12.25-6,18.44-3.84,12.9-7.32,25.9-11.34,38.75-8.12,26-21.13,50.64-32.3,75.41-2.72,6.05,6.1,11.4,9,5.28,12-25.07,26-50,34.47-76.56,4.08-12.83,6.79-26.11,9.8-39.22,1.51-6.61,2.64-13.37,3.73-20.07,1-6,2-12.65,0-18.48a.84.84,0,0,0-1.52-.2Z"/><path class="cls-3" d="M537.83,616.33c-4.08,8.57-4.94,18.44-6.22,27.76-1.33,9.69-2.35,19.43-3.26,29.16-.88,9.37-1.22,18.91-2.82,28.18s-5.34,18-8.77,26.72c-7.08,17.9-14.23,35.73-20.89,53.79-2.56,6.94-8.83,17.19-1.75,23.17,6.34,5.34,16.06,7.74,24.12,8.12,6.38.3,7.07-8.84,1.45-10.72-6.16-2-4.78-11.21-4.57-16.2q.4-9.67.82-19.34c.25-5.94-8-6.34-9.8-1.33-3,8.23-6.11,16.43-9.3,24.59l9.72,1.32a19.68,19.68,0,0,1,1.69-7.55l-9.87-1.33-1.47,14.14c-.62,6,8.49,6.72,10.11,1.37l2.46-8.08-10.07-2.77c-.4,1.33-.81,2.65-1.25,4-2.13,6.61,8.86,9.62,10.38,2.86.29-1.35.6-2.7.94-4,1.59-6.53-8.22-9.26-10.07-2.77l-2.32,8.11,10.12,1.37,1.22-14.14c.53-6.1-7.95-6.18-9.87-1.34a26.86,26.86,0,0,0-1.89,10.22c0,5.84,7.84,6.37,9.71,1.31q4.58-12.33,9.38-24.57L506,767c-.6,9.44-2.23,19.51-1.43,29,.67,7.87,4.65,14.38,12.26,17.1l1.45-10.71a44,44,0,0,1-12.65-2.48c-.65-.25-4.92-1.58-5.25-2.52.22.62,1.71-4.57,2-5.38,2.43-8.27,5.22-16.39,8.25-24.45,6.12-16.28,13.06-32.28,18.9-48.67,5.68-15.94,5-33,6.38-49.61.71-8.77,1.63-17.51,2.49-26.25s2.46-17.64,1.22-26.41a.94.94,0,0,0-1.7-.22Z"/><path class="cls-3" d="M567.58,663.24c3.6,24.85,16.78,47.36,18.45,72.71s5.19,50.48,8.7,75.75c.32,2.28,3.4,4.65,5.71,4.35a92.07,92.07,0,0,1,17.64-.57c7.66.48,7.66-11.51,0-11.93a96.34,96.34,0,0,0-17.64.66l5.71,4.35c-1.81-13.23-3.66-26.46-5.44-39.69-1.69-12.54-2-25.11-3.34-37.66-1.29-11.92-5.32-22.37-10.29-33.19-5.49-12-10.53-24.54-18.07-35.38a.79.79,0,0,0-1.43.6Z"/><path class="cls-3" d="M603.33,615.56c-1.16,6.49,1.23,14.21,2.24,20.64q1.9,12.1,3.58,24.22c2.3,16.35,4.52,32.81,5.86,49.26a502,502,0,0,1-2,97.82c-.83,7.27,10.73,7.32,11.45,0,3.21-32.76,4.29-66,1.33-98.82-1.43-15.82-4.92-30.92-8.88-46.26-2-7.82-4.06-15.64-6-23.48-1.79-7.37-2.55-17.07-6.68-23.5-.2-.32-.81-.32-.89.12Z"/><path class="cls-62" d="M612,508.91s12.9,21.83,12.18,37,3.67,82.25,3.14,88.56-18.55-1.64-18.55-1.64l-10-90.44S601.75,505.1,612,508.91Z"/><path class="cls-4" d="M577.57,489.87s-33.21,1.16-39.72,15.68c-9.92,22.12-1,110.54-1,110.54l70.27,2.36s3-69.05-.49-88.72-7.9-29-7.9-29Z"/><polygon class="cls-61" points="140.07 506.01 140.31 520.61 161.43 531.58 162.4 507.57 151.27 498.19 140.07 506.01"/><path class="cls-2" d="M175.49,462.85s-22.78-13.66-33.46-5.27-15.83,20.55-13.15,29c0,0-10.65,2.06-12.62,10.21s2.5,21.17-1.53,32.54-4.83,17.38-4.79,23.42,8.62,22.52,8.62,22.52.28-13.79,5.75-20.16S137.32,537,137,525s-.76-17.84-.62-21.41c0,0-.67,3,3.63,5.37,0,0,24.14-19.72,31-30.7l6.89-11Z"/><path class="cls-61" d="M175,467.36s3.69,10.72,3.29,20.69,3.42,9.53,3.3,12.46-4.12,3.95-4.12,3.95-.16,7.66-3.86,10.53c-5.41,4.21-19.81-1.8-23-8.09S148.5,496,148.5,496s-4.39-2.63-3.73-6.91,4.06-6.3,5.17-4.87,2.69,3.49,2.69,3.49,12.17-4.74,15.55-10.15S175,467.36,175,467.36Z"/><path class="cls-3" d="M139.75,514.79s-8.13,8.2-16.65,28.93-15.77,94-15.77,94l55.83-2.11s11.43-63.16,7.9-81.12-7.9-26.42-7.9-26.42Z"/><path class="cls-3" d="M116.33,606.93c-2.62,9.57-3.85,19.62-4.72,29.49h4.72c-1.06-15.72,1.21-30.9,4.74-46.19l-4.25-1.17c-2.16,15.29-7.11,30.08-8,45.61h5.66c-.44-17.86,3.69-35.53,7.78-52.82,3.94-16.67,9.91-32.73,19.4-47.07,1.93-2.92-2.67-6.58-4.91-3.79a115.58,115.58,0,0,0-22.9,48.18c-2,9.6-3.25,19.36-4.91,29-1.72,10-3.07,19.73-1.55,29.84a4.24,4.24,0,0,0,4.09,3.13c11.87-1,23.72-2.29,35.59-3.23,6.07-.49,20.85,3,20.6-6.85-.16-5.75-1.7-11.54-2-17.33-.32-6.14-.43-12.28-.4-18.43,0-12.65,1-25.27,1.13-37.92,0-5.12-7.36-4.93-7.83,0-1.18,12.57-1.57,25.3-1.65,37.92,0,6.15.05,12.29.35,18.43.15,3.06.27,6.12.42,9.18.11,2.29,1.26,6.33.44,8.35l2.19-2.84c1.67-.3,1.46-.37-.64-.23-1.16,0-2.31,0-3.47-.09-1.74,0-3.48-.13-5.22-.12a131.87,131.87,0,0,0-13.74,1.14c-9,1-17.92,2.43-26.9,3.67l5.23,3c-1.55-9.84.47-19.63,2-29.32,1.35-8.42,2-16.93,3.33-25.35a96.33,96.33,0,0,1,20.24-45.71l-4.91-3.79c-19.44,29.36-30.41,67.81-27.44,103,.3,3.57,5.74,3.69,5.66,0-.31-14.78,2.37-30.25,6.62-44.44.82-2.75-3.29-3.79-4.25-1.17-5.55,15.08-6.62,31.45-5.21,47.36a2.36,2.36,0,0,0,4.72,0c.66-9.73,1.68-19.48,2-29.22a1,1,0,0,0-2-.27Z"/><path class="cls-3" d="M167.62,584.94c-2.88,9.82-5.29,19.59-7.28,29.64-1.46,7.4-4.11,17.2.41,24a2.41,2.41,0,0,0,4.38-1.85c-2.3-9.1-.21-17.52,1.11-26.66,1.21-8.33,1.79-16.63,2.25-25a.45.45,0,0,0-.87-.12Z"/><path class="cls-3" d="M160.55,614.11c1,11.26-2.47,24.65,6.61,33.75,1.85,1.85,4.65-.07,4.17-2.42-1.15-5.75-4.16-11.36-5.88-17-1.44-4.75-1.5-10.34-4.54-14.4-.1-.14-.38-.12-.36.1Z"/><rect class="cls-2" x="123.81" y="634.22" width="508.6" height="32.46" transform="translate(-25.89 15.76) rotate(-2.31)"/><path class="cls-61" d="M136.78,530.08s-10.39,51.06-10.84,66.28S137.3,665.09,143.66,671s13.74,12.27,15.7,2.45-1-8.35-3.44-15.71-15.61-52.53-13-59.41,17.84-52.81,14.86-63.13S142.71,515.05,136.78,530.08Z"/><path class="cls-61" d="M151.2,654.34s13.91,9,14.47,11.66S151,664,151,664Z"/><path class="cls-62" d="M520.9,524.61s-6.16,42.48-6.61,59.15,16.73,73.88,23.1,80.34,13.73,13.45,15.69,2.69-1-9.15-3.43-17.21S534,592,536.69,584.49,547.94,533,545,521.67,526.83,508.14,520.9,524.61Z"/><path class="cls-62" d="M547.66,648.61s13.91,9.84,14.47,12.77-14.67-2.25-14.67-2.25Z"/><path class="cls-62" d="M602,661.19s1-8.88,5.68-8.88,8.11,1,9.69,3.34,2.92,6.41-1.36,6.84S604,664.89,602,661.19Z"/><path class="cls-4" d="M527.7,511.64l-13.41,49,30,10.51s22-54.84,12.37-66.56c-2-2.51,3.74-5.59,1.45-7.15C550.13,492,530.4,501.77,527.7,511.64Z"/><path class="cls-4" d="M586.51,563.25l39.8,2.52s4-45.77-6.9-58.38-27.62-15.24-27.62-15.24Z"/><path class="cls-63" d="M599.32,419.94a30.08,30.08,0,0,0-22,2.2c-11.07,5.92-15.84,9.31-17.94,14.87s-.42,26.11,1.82,29.86c1.32,2.2,3.36,5.53,4.82,7.9a10.68,10.68,0,0,0,4.64,4.16l5.77,2.62,0-12.81,28-35.46S606.75,424.41,599.32,419.94Z"/><path class="cls-62" d="M604.36,433.28a33.64,33.64,0,0,1,6.89,18.66c.39,10.92,5.48,12.43,5.6,15.64s-6.32,2.42-6.32,2.42-1.59,9.43-5.48,12.92c-5.69,5.1-22.32-.09-26.48-6.66s-3.27-11.75-3.27-11.75-5.13-2.45-4.76-7.19,4-7.27,5.38-5.81l3.3,3.56s9.18-11.12,14.49-16.4A19.38,19.38,0,0,1,604.36,433.28Z"/><path class="cls-62" d="M591.59,494.22s1.36,13.91-9.52,13.14c-14.33-1-10.13-20.9-10.13-20.9l15,3.28Z"/><polygon class="cls-62" points="572.08 461.92 571.9 493.78 591.24 503.6 592.59 467.02 581.08 467.02 572.08 461.92"/><path class="cls-3" d="M127.77,553.56l29.8,5.54s4.08-23-2.08-31S139.78,516.6,136.78,521,127.77,553.56,127.77,553.56Z"/><path class="cls-2" d="M1538.88,227.19l15,17.25-4.16,5.36-6.42-4.67s3.52,12.71-4.44,22.67a39.21,39.21,0,0,1-19.28,12.71s5.11-12.37,2.92-24.39a158,158,0,0,0-6.94-24.39Z"/><path class="cls-64" d="M1521.79,59.91s-17.9,28.85-25.54,39.35-43.87,43.71-48.46,47.65-8.73.22-11.57,3.72,2.62.87,5,2.84,11.14,7.65,11.14,7.65,14.4-16.62,19-18.15,31.21-27.32,34.38-32.46,36.78-41,36.78-41,2-18.8-9.61-19S1521.79,59.91,1521.79,59.91Z"/><path class="cls-4" d="M1537.16,117.45s-48.84,45.57-52.56,56.74,35.8,71.25,35.8,71.25l16.76-13-26.4-51,72.42-62.21Z"/><path class="cls-4" d="M1536.05,121.7c-3.21.59-5.83,3.25-8.35,5.24-3,2.37-5.89,4.91-8.77,7.42-6.25,5.46-12.35,11.09-18.24,16.93-10.4,10.3-22.25,20.3-18.09,36.41,1.89,7.29,5.87,14.1,9.54,20.61q6.6,11.74,13.25,23.48c2.22,3.92,4.37,7.91,6.69,11.78,1.48,2.48,2.94,5.25,6.2,5.54s6.26-2.55,8.78-4.32c3.33-2.35,6.87-4.69,9.5-7.83,3.11-3.72-.69-8.26-5-6.45-5.66,2.39-9.55,7.51-15,10.14h4.62c-1.44-.62-3.56-5.39-4.54-7q-2.42-4-4.85-8l-10.27-16.93c-5.81-9.58-16.94-23.84-12.69-35.69,2-5.61,7.1-10.07,11.08-14.36s8.34-8.79,12.62-13.08,8.63-8.49,13.08-12.59c3.46-3.19,8.88-6.62,10.6-11.09,0-.11-.09-.19-.18-.18Z"/><path class="cls-4" d="M1501.72,183.71c10.26-1.22,20.18-7.85,28.82-13.18,9.3-5.74,20.18-11.76,27.63-19.85,3.49-3.8-.87-9-5.34-6.92-5,2.35-9.24,5.81-13.7,9-4.73,3.36-9.57,6.56-14.33,9.88-8.18,5.71-18.12,11.14-24.13,19.25a1.22,1.22,0,0,0,1,1.84Z"/><path class="cls-2" d="M1594.34,290.82l15,17.25-4.16,5.36-6.42-4.67s3.52,12.71-4.44,22.67a39.21,39.21,0,0,1-19.28,12.71s5.11-12.37,2.92-24.39a158,158,0,0,0-6.94-24.39Z"/><path class="cls-4" d="M1597.6,121.08s2.89,20.65-10.69,32.62c-17.61,15.54-17.33,13.11-28.49,32.21s-9.3,21.88-9.3,21.88l47,79.79-17,12.42s-57.84-73.58-58.77-93.14,40.49-87.59,40.49-87.59Z"/><path class="cls-4" d="M1560.47,122c-5.09,5.88-8.92,13.17-13,19.8-4.6,7.47-8.73,15.25-12.82,23-7,13.27-16.51,28.06-17.45,43.4-.44,7.17,2.11,13.42,5.69,19.47,4.69,8,9.68,15.77,14.52,23.64q14.1,22.93,28.28,45.8c2,3.17,3.72,7.66,7.61,8.72,3.29.89,7-.69,10-1.9a27.21,27.21,0,0,0,14.48-13.33c3.11-6.07-6.19-11.43-9.13-5.33a20.76,20.76,0,0,1-5.74,7.6,28.42,28.42,0,0,1-4.56,2.87c-1,.49-1.94.94-2.94,1.36l-.17-.79c-1.55-.77-3.5-5.48-4.45-7l-3.34-5.24-7.78-12.23q-15.69-24.65-31.49-49.21c-5.59-8.65-6-16.53-2.56-26.19,3.09-8.78,7.57-17.24,11.65-25.59s8.3-16.24,12.46-24.36c4-7.78,8.93-15.57,12.1-23.71.3-.78-.86-1.42-1.39-.81Z"/><path class="cls-4" d="M1594.94,130.67c-6.87,16.56-21.29,28.31-32.49,41.83-13,15.74-19.24,34.73-26.49,53.57l6.28,1.73,4-19.47c.86-4.16-5.47-6-6.4-1.76-3.45,15.62,4,31.77,12.72,44.37,9.3,13.43,21.32,23.74,33.49,34.44a4.13,4.13,0,0,0,5.84-5.84c-19.83-22.25-34.82-47.37-46.73-74.63l-6.25,3.65c14.08,27.51,29.72,53.56,49.15,77.66l5.23-6.79a99.35,99.35,0,0,1-26.79-20.83c-3.33-3.66-8.66,1-6.58,5.08,3.89,7.63,7.67,15.31,11.42,23l6.49-5a34.48,34.48,0,0,0-6.93-6.61c-3.16-2.35-6.94,1.52-6.19,4.76a61.87,61.87,0,0,0,6.75,17.08l7.8-4.56q-2.43-3.44-4.83-6.89c-3.38-4.86-11.23-.51-8.06,4.71a29.48,29.48,0,0,0,5.29,6.54c3.84,3.56,10.8-1.12,7.58-5.85a17.52,17.52,0,0,0-3.62-4.06c-3.94-3.12-11.35,1.05-7.72,6l3.39,4.59a5,5,0,1,0,7.91-6.1l-3.58-4.45-6,7.72,1.25,1.22,7.57-5.85a21.06,21.06,0,0,1-4-4.43l-8.06,4.71q2.55,3.36,5.09,6.74c3.4,4.5,11,.5,7.8-4.56a53.56,53.56,0,0,1-6.42-14.76l-6.19,4.76a24.7,24.7,0,0,1,5.34,5.17c3,3.87,8.46-1,6.49-5-3.83-7.66-7.63-15.33-11.32-23.06l-6.58,5.08a95.47,95.47,0,0,0,28.35,22.36c4.51,2.35,8.31-3,5.24-6.78-18.9-23.05-36.16-48.25-49-75.2-1.74-3.65-8.16-1-6.62,2.79,11.39,28.2,28,54.36,47.51,77.68l5.84-5.84A306,306,0,0,1,1563,249.17c-8.36-10.34-19.72-26.87-16.74-40.84l-6.4-1.76-3.87,19.5a3.26,3.26,0,0,0,6.28,1.73c7.52-19.92,13.41-40.25,27.61-56.59,10.69-12.31,22.68-23.73,26.88-40.05.31-1.19-1.35-1.57-1.79-.49Z"/><path class="cls-4" d="M1564.46,250.64c3.77,6.71,7.21,13.29,11.83,19.5,4.3,5.78,8.9,11.36,13.63,16.79l3.92-3.92a167.93,167.93,0,0,1-16.62-22.21l-4.87,3.76q9.84,12,20.44,23.22l4.63-4.62c-4.35-4.17-8.6-8.42-12.61-12.92s-7.31-9.71-11.79-13.57c-2.11-1.81-4.72.42-3.68,2.85,2.28,5.35,6.69,10,10.44,14.42a186.93,186.93,0,0,0,13,13.84c3,2.91,7.55-1.59,4.63-4.62q-10.73-11.15-20.69-23c-2.26-2.7-6.74.8-4.86,3.75a140.29,140.29,0,0,0,18.05,23c2.5,2.56,6.41-1.36,3.92-3.92-10-10.36-20-21.41-29-32.67-.17-.22-.51.07-.38.3Z"/><path class="cls-2" d="M1539.33,42.57s18.5-4.19,32,15.39c19.07,27.66,31.87,68.54,31.87,68.54l-63.87-2.32s-2.26-58.89-14.71-73.56S1539.33,42.57,1539.33,42.57Z"/><path class="cls-2" d="M1539.32,127.09c4.4,2.8,9.67,3.5,14.72,4.44,5.58,1,11.19,2,16.84,2.61,10.71,1.15,20.75.88,30.66-3.64,5.15-2.35,1.48-10.55-3.81-9a78.82,78.82,0,0,1-28.82,2.8c-9.26-.8-19.65-4.39-28.89-2.54-2.6.52-2.69,4.1-.7,5.36Z"/><path class="cls-2" d="M1530.9,44.19c3.52,2.53,7.79,3.27,11.88,4.46a71.5,71.5,0,0,1,14,5.46,68.07,68.07,0,0,1,19.89,16.26c12.51,15,15.12,34.74,18.13,53.39.83,5.12,9.58,4,9.13-1.24-1.85-21.42-6-43.28-21-59.55a70,70,0,0,0-24.19-16.7c-7.84-3.38-19.47-7.94-27.78-3.93a1.08,1.08,0,0,0,0,1.85Z"/><path class="cls-2" d="M1533.71,56.55c-3.51,17.31-.71,46.63,17.06,55.94,3.41,1.78,7.1-2.6,4.21-5.46-6.5-6.42-11.63-12.54-14.34-21.48-2.89-9.52-2.36-19.41-4.38-29a1.33,1.33,0,0,0-2.55,0Z"/><path class="cls-2" d="M1528.73,52.79c-2.47,12.47,0,25.72,4.92,37.35,4.18,9.85,11.14,21.07,21.15,25.76,4,1.87,8.37-2.93,4.92-6.37-7.38-7.37-14.5-13.58-19.31-23.12-5.35-10.61-6.89-22.27-9.88-33.62a.94.94,0,0,0-1.8,0Z"/><path class="cls-64" d="M1484.39,26.63s-.9,14.87,5.94,19.83,4.79,12,6.85,12.39,1.79-1.2,4.68-.78,5.22,2.31,11,2.31,12.38-5.66,10.32-23.84S1485.21,13,1484.39,26.63Z"/><path class="cls-64" d="M1526.21,37.8l13.12,4.77s-2.45,19.58-8,17.69-9.91-13.39-9.91-13.39Z"/><g class="cls-65"><path class="cls-6" d="M1354.4,102.44v0Z"/><rect class="cls-6" x="1354.4" y="102.44" width="3.56" height="136.16"/><rect class="cls-7" x="1357.96" y="102.44" width="3.56" height="136.16"/><rect class="cls-8" x="1361.51" y="102.44" width="3.56" height="136.16"/><rect class="cls-9" x="1365.07" y="102.44" width="3.56" height="136.16"/><rect class="cls-10" x="1368.63" y="102.44" width="3.56" height="136.16"/><rect class="cls-11" x="1372.18" y="102.44" width="3.56" height="136.16"/><rect class="cls-12" x="1375.74" y="102.44" width="3.56" height="136.16"/><rect class="cls-13" x="1379.3" y="102.44" width="3.56" height="136.16"/><rect class="cls-14" x="1382.85" y="102.44" width="3.56" height="136.16"/><rect class="cls-15" x="1386.41" y="102.44" width="3.56" height="136.16"/><rect class="cls-16" x="1389.97" y="102.44" width="3.56" height="136.16"/><rect class="cls-17" x="1393.53" y="102.44" width="3.56" height="136.16"/><rect class="cls-18" x="1397.08" y="102.44" width="3.56" height="136.16"/><rect class="cls-19" x="1400.64" y="102.44" width="3.56" height="136.16"/><rect class="cls-20" x="1404.2" y="102.44" width="3.56" height="136.16"/><rect class="cls-21" x="1407.75" y="102.44" width="3.56" height="136.16"/><rect class="cls-22" x="1411.31" y="102.44" width="3.56" height="136.16"/><rect class="cls-23" x="1414.87" y="102.44" width="3.56" height="136.16"/><rect class="cls-24" x="1418.42" y="102.44" width="3.56" height="136.16"/><rect class="cls-25" x="1421.98" y="102.44" width="3.56" height="136.16"/><rect class="cls-26" x="1425.54" y="102.44" width="3.56" height="136.16"/><rect class="cls-27" x="1429.09" y="102.44" width="3.56" height="136.16"/><rect class="cls-28" x="1432.65" y="102.44" width="3.56" height="136.16"/><rect class="cls-29" x="1436.21" y="102.44" width="3.56" height="136.16"/><rect class="cls-30" x="1439.77" y="102.44" width="3.56" height="136.16"/><rect class="cls-31" x="1443.32" y="102.44" width="3.56" height="136.16"/><rect class="cls-32" x="1446.88" y="102.44" width="3.56" height="136.16"/><rect class="cls-33" x="1450.44" y="102.44" width="3.56" height="136.16"/><rect class="cls-34" x="1453.99" y="102.44" width="3.56" height="136.16"/><rect class="cls-35" x="1457.55" y="102.44" width="3.56" height="136.16"/><rect class="cls-36" x="1461.11" y="102.44" width="3.56" height="136.16"/><rect class="cls-37" x="1464.66" y="102.44" width="3.56" height="136.16"/><rect class="cls-38" x="1468.22" y="102.44" width="3.56" height="136.16"/><rect class="cls-39" x="1471.78" y="102.44" width="3.56" height="136.16"/><rect class="cls-40" x="1475.33" y="102.44" width="3.56" height="136.16"/><rect class="cls-41" x="1478.89" y="102.44" width="3.56" height="136.16"/><rect class="cls-42" x="1482.45" y="102.44" width="3.56" height="136.16"/><rect class="cls-43" x="1486" y="102.44" width="3.56" height="136.16"/><rect class="cls-44" x="1489.56" y="102.44" width="3.56" height="136.16"/><rect class="cls-45" x="1493.12" y="102.44" width="3.56" height="136.16"/><rect class="cls-46" x="1496.68" y="102.44" width="3.56" height="136.16"/><rect class="cls-47" x="1500.23" y="102.44" width="3.56" height="136.16"/><rect class="cls-48" x="1503.79" y="102.44" width="3.56" height="136.16"/><rect class="cls-49" x="1507.35" y="102.44" width="3.56" height="136.16"/><rect class="cls-50" x="1510.9" y="102.44" width="3.56" height="136.16"/><rect class="cls-51" x="1514.46" y="102.44" width="3.56" height="136.16"/><rect class="cls-52" x="1518.02" y="102.44" width="3.56" height="136.16"/><rect class="cls-53" x="1521.57" y="102.44" width="3.56" height="136.16"/><rect class="cls-54" x="1525.13" y="102.44" width="3.56" height="136.16"/><rect class="cls-55" x="1528.69" y="102.44" width="3.56" height="136.16"/><rect class="cls-56" x="1532.24" y="102.44" width="3.56" height="136.16"/><rect class="cls-57" x="1535.8" y="102.44" width="3.56" height="136.16"/><rect class="cls-58" x="1539.36" y="102.44" width="3.56" height="136.16"/><rect class="cls-59" x="1542.91" y="102.44" width="3.56" height="136.16"/><path class="cls-59" d="M1546.47,238.6v0Z"/></g><path class="cls-64" d="M1562.26,66.86s6.65,43.08-6.1,62.42-52.17,38.43-54.83,44.92-14,15.93-16.84,16.44-9.71-1.54-9.24-10.24,7.52-6.83,14.09-10.93,41.76-40.12,46.74-44.91c7.16-6.87,6.65-46.93,6.45-55C1542.38,63.63,1556,51.23,1562.26,66.86Z"/><path class="cls-4" d="M1482,30.56s17.52.74,23.93-1.43c0,0-2.09-4.53,2.57-4.89s4,4.27,4.86,5.67,3.08,38.64,3.08,38.64,23.85-7,33.77-18c0,0-8.57-37-22.07-44.44s-35.84-3.38-40.7,5.49A50.74,50.74,0,0,0,1482,30.56Z"/><rect class="cls-4" x="410.08" y="437.73" width="77.28" height="35.89" rx="12" transform="translate(897.43 911.36) rotate(-180)"/><polygon class="cls-4" points="480.48 467.81 480.48 486.71 468.75 464.17 480.48 467.81"/><rect class="cls-2" x="238.77" y="466.76" width="77.08" height="35.89" rx="12"/><polygon class="cls-2" points="245.63 496.83 245.63 515.74 257.32 493.2 245.63 496.83"/><polygon class="cls-2" points="1581.01 676.95 1581.01 859.14 1382.48 859.14 1382.48 830.29 1525.42 676.95 1581.01 676.95"/><polygon class="cls-66" points="1522.39 510.74 1527.24 535.86 1507.57 545.75 1503.63 526.26 1522.39 510.74"/><path class="cls-2" d="M1525.2,526.6s1.21-14.64,2.76-22,2.91-13.4,0-18.22-6.69-8.22-12.18-9.47-9.6.36-15.09,0-6.52-.36-8.4-1.61-4.29-2.5-6.18-1.61,1,21.47,1,21.47L1510.64,514Z"/><path class="cls-66" d="M1487.12,491.29s-3.8,8.58-3.8,15.06-3,13.8-3,13.8a17.63,17.63,0,0,0,3.42,1.1c.78,0-1,10.27,3.42,11s15.26-1.14,21.9-5.48,5.63-14.91,5.63-14.91,6.44-7.93,3.22-15-7.64,3-7.64,3-.61-6.62-3.22-9.81S1492.38,494,1487.12,491.29Z"/><path class="cls-63" d="M1497.8,630.32s-87.5-.42-99.17,4.89-14.3,24.12-12.25,36.87,25.38,58.33,25.38,58.33l23.33-33.79s-2.19-17.48-2.19-20.22,64.9,0,64.9,0Z"/><path class="cls-2" d="M1448.21,727.48s19.32,9.34,14.15,15.79-44.88,46.91-44.88,46.91-11.4-7.49-7.14-14.5,24.81-34.55,24.81-34.55Z"/><path class="cls-67" d="M1433.46,746.84a61.82,61.82,0,0,0-11.71-1.77c-1.19-.05-3.88-.66-4.91.53-2.73,3.13,4.44,5.46,6.06,5.75,2.52.44,9.32,1.82,8.9-2.58-.11-1.18-1.24-2.49-1.64-3.61s-1.61-4.4-.88-5.64a23.56,23.56,0,0,1,.79,2.88,20.29,20.29,0,0,1,.38,4.11,24.18,24.18,0,0,1-1.17,7h2.94c-.86-2.59,2.3-4.25,4-4.84,1-.35,2.12-.58,3.16-.94,2.16-.75,1.23-4.2-1-3.44-4.4,1.52-11.49,3.94-9.19,10a1.54,1.54,0,0,0,2.94,0c1.3-5,1.75-12.13-1.07-16.82-1-1.73-2.81-2.3-3.92-.19-.84,1.58-.43,4.2-.14,5.8a17,17,0,0,0,1.27,4c.69,1.5,1.48,1.46-.56,2.39-1,.46-5.27-.18-5.89-.36a4.83,4.83,0,0,1-3.48-2.23l1.66,0c3.72-.84,9.4.75,12.94,1.46,1,.2,1.45-1.32.43-1.56Z"/><path class="cls-67" d="M1411.64,775.31a14.43,14.43,0,0,0,10.33-.19c1.5-.65.7-3-.82-3a26.49,26.49,0,0,0-5.05,1,26,26,0,0,0-4.59,1.25c-.48.21-.23.83.13,1Z"/><path class="cls-67" d="M1415.85,768.46a44.21,44.21,0,0,0,4.6-.3,27.54,27.54,0,0,0,4.45-.23c1.38-.27,1.18-2.21,0-2.59a11,11,0,0,0-9.48,2.08.61.61,0,0,0,.43,1Z"/><path class="cls-67" d="M1419.7,760.65a19.09,19.09,0,0,0,8.09,1.12c1.22-.16,1.7-1.94.31-2.31a19.35,19.35,0,0,0-8.4,0c-.64.13-.53,1,0,1.18Z"/><path class="cls-67" d="M1417.83,790.25c8.86-5.94,16.12-14.94,23.29-22.75,7.77-8.45,15.22-17.2,22.61-26a1.83,1.83,0,0,0,0-2.52,40.28,40.28,0,0,0-13.89-10.2c-1.62-.67-2.42,1.81-1.13,2.68a70.37,70.37,0,0,1,12.51,10V739c-7.31,8.86-14.89,17.49-22.53,26.07-7.11,8-15.6,15.63-21.36,24.67a.37.37,0,0,0,.5.51Z"/><path class="cls-67" d="M1448,729.84c-4.69,6-4.33,15.72,1.27,21.11,1,.92,2.63-.27,1.88-1.45-3.92-6.13-4.77-12.17-2.05-19,.24-.6-.71-1.16-1.1-.65Z"/><polygon class="cls-66" points="1368.04 820.35 1360.31 838 1379.2 838 1379.2 825.69 1368.04 820.35"/><path class="cls-2" d="M1379.2,838s6.6,20.42-1.63,21.14-64.92,0-64.92,0-2.47-13.41,5.54-15.18,42.12-6,42.12-6Z"/><path class="cls-63" d="M1536.91,659.44s-12.75,26.37-49.57,47.28-44.85,36.59-59.43,57.85-45.43,68.66-45.43,68.66l-24.93-13.59S1407.13,717.52,1417,705s75.39-73.07,75.39-73.07Z"/><path class="cls-4" d="M1524.16,533.41s-21.83,4.7-28.54,12.34-1.56,53.44-1.56,53.44l-4.64,32.63,51.67,30s19.39-32.75,18.86-67.68S1538.45,537.61,1524.16,533.41Z"/><path class="cls-4" d="M1494.32,615.24c-2.33,4.33-3.36,9.26-5.49,13.72l3.54,1.49c1.13-4.54,1.61-9.4,3.31-13.77l-2.43-1c-2.43,4.12-3.93,8.87-5.84,13.25-1.46,3.37,3.82,5,4.33,1.83.25-1.55.43-3.52.74-5l-2.46-1c-1.83,3.95-3.38,6.06.48,9.09,4.78,3.76,10.13,6.38,15.37,9.42s9.78,7.08,14.73,10.65a60.67,60.67,0,0,0,18,8.84c5.24,1.55,9-6.63,3.81-9-4.59-2.13-9.48-3.51-14-5.78-4.67-2.36-8.77-5.6-13.17-8.39a135.55,135.55,0,0,0-24.4-11.8l1.64,1.65a23.93,23.93,0,0,1,.06-4,1.36,1.36,0,0,0-2.51-.68c-.79,1.48-1.75,2.77-2.61,4.2l4.33,1.83c1.32-4.63,3.19-9.3,3.94-14.06a1.33,1.33,0,0,0-2.56-.7c-1.52,4.55-3.61,8.66-4.49,13.44a1.94,1.94,0,0,0,3.74,1c1.79-4.79,3.6-10,2.67-15.12a.4.4,0,0,0-.72-.09Z"/><path class="cls-4" d="M1526.75,538.11c6.36,7.72,13.18,15,18,23.9a66,66,0,0,1,8.12,29.91c.27,11.76-2,23.94-4.75,35.34a119.3,119.3,0,0,1-4.9,15.69c-2,5.1-6.21,10.17-6.67,15.63-.19,2.32,2.71,3.73,4.56,2.62,4.73-2.86,6.85-9.6,8.88-14.51a123,123,0,0,0,6-19.16c2.89-12.51,5.16-25.9,3.84-38.75-2-19.8-13-43.8-32.7-51.32-.4-.16-.6.38-.38.65Z"/><path class="cls-66" d="M1527.45,581.16s6.94,41.76-3.72,49.4-77.77-6.37-84.69-3.31a161.3,161.3,0,0,0-16,8.65h-12.25s22.71-18.45,51-22,43.32-6.75,43.32-6.75l-2.13-26Z"/><rect class="cls-2" x="1388.99" y="630.31" width="73.62" height="5.73" transform="translate(2851.61 1266.36) rotate(180)"/><polygon class="cls-2" points="1390.93 633.18 1358.81 569.86 1364.21 567.35 1396.33 630.68 1390.93 633.18"/><path class="cls-2" d="M493.69,814.43c-4.36,1.26-7.64,7.6-8.18,11.91-.71,5.72,3.6,8.39,8.59,9.17,6.22,1,10.17,5,15.65,7.77A31.53,31.53,0,0,0,529,846.14c5.72-.82,3.38-9.77-2.41-8.77-9.83,1.7-15.11-4.23-23.05-8.33a25.19,25.19,0,0,0-3.84-1.67c-1.12-.36-4.84-.29-5.62-1-2.31-2,2-7.6,1.7-10.38a1.7,1.7,0,0,0-2.11-1.61Z"/><path class="cls-2" d="M494.24,815a7.8,7.8,0,0,0,4.92,4.85c4.35,1.7,6.17,3.85,9.27,7.34a68.12,68.12,0,0,0,17.27,14l-2.27-3,.2.77.5-3.81c.56-1.16-.29-.16-1.08.47a12,12,0,0,0-2,2.34c-2.38,3.21,1.56,7.85,5.13,6.68,3.78-1.24,7.92-3.62,6.95-8.31-1-5.06-7.77-5.3-11.45-7.7-4.77-3.12-8-7.91-11.94-11.92-3.29-3.35-7.82-4.13-12.29-5-1.75-.35-4,1.21-3.23,3.23Z"/><path class="cls-2" d="M528.5,837.7s.54.32.31.1c.05-.26.05-.27,0,0s0,.24-.07.37-.3.74-.06.35c.36-.6-.43.53,0,0-.13.16-.52.26-.09.1a6.5,6.5,0,0,1-1.91.34c-2.5.28-4.77,2.1-4.06,4.86.75,2.94,4.41,3.34,6.88,2.8,3.56-.79,6.87-4.31,6.3-8.15-.46-3.1-5.17-6.2-7.65-3.19a1.58,1.58,0,0,0,.32,2.45Z"/><path class="cls-2" d="M502.48,817c-4.75-2.12-8.24,1-10.23,5.27a3.35,3.35,0,0,0,4.55,4.55c3.65-1.74,7-7.35,3.42-10.8a3.9,3.9,0,0,0-4.57-.59c-2.16,1.16-3.29,3.42-4.22,5.6-1.37,3.22,1.84,8.24,5.54,5.54,2.77-2,4.21-4.51,3.85-8-.43-4.2-5.85-6.28-8.29-2.24-2.16,3.58-4.39,10,.19,12.84s9.42-1.45,12.48-4.39l-8.82-2.33c.7,4.71,3.23,10.67,8.67,11.13s9.52-5.71,6.05-10.27c-2.88-3.77-8.53-3.51-10.14,1.33-2,6.15,4,14.46,10.86,12.58,8.91-2.45,5-12.36-1-15.47-5.65-2.9-11.07,2.87-8.41,8.41,2.42,5.05,8,8.93,12.29,12.35l7.71-10c-.76-.55-1.5-1.13-2.23-1.72L512.33,841a17.77,17.77,0,0,0,8.85,3.23c5.1.35,8.33-7.07,4.32-10.44a31.57,31.57,0,0,0-6.63-4c-7.45-3.77-13.51,6.57-6.54,11.18,1.24.82,2.45,1.68,3.66,2.54,6.75,4.79,12.83-6.15,6.42-11-3-2.29-7.63-5.13-9.39-8.56l-8.41,8.41a2.49,2.49,0,0,1,1.71,1.2v-5.93l-.47,1L509.3,826q3.18-.5,2.36,1.62L502.38,830l.6.7-1.42-5.38-.22,1,2.53-3.29-.85.44,4.21-.55c.09,0-.68-3.32-.68-3.29-.76-3.91-6.22-5.06-8.82-2.33a20.52,20.52,0,0,1-2.1,2.07c-1.41.89-1.56,1.14-.47.76l4.19,2.4.87-1.72-8.13-1.06c.15.52-.07,1-.66,1.3l7.4,3.12a10.89,10.89,0,0,0,.63-2.21h-3.81l.34.25L494.27,820l-.83,1.13,4.89,3.76a4.49,4.49,0,0,1,2.6-4.17c2,.28,3.83-2.65,1.55-3.67Z"/><path class="cls-2" d="M493.31,812.61c-4.71,1-7.13,10.22-7.43,14.27-.49,6.68,5.19,7.75,10.25,9.31,3.89,1.2,5.53-4.05,2.6-6.17a10.79,10.79,0,0,0-3.71-1.58c-2.33-.63-2.33-.8-1.72-3.28.83-3.34,1.8-6.64,2.59-10a2.12,2.12,0,0,0-2.58-2.57Z"/><path class="cls-2" d="M493.08,816.29a8.65,8.65,0,0,0,3,2.91l3.36-5.74-2.58-1.17a3.57,3.57,0,0,0-4.51.9c-1,1.26-1.09,3.5.27,4.6,3.91,3.14,8.6,6.72,13.54,8,4.26,1.1,7.07-5,3.05-7.24-2-1.11-4.27-1.77-6.35-2.79a57.52,57.52,0,0,1-6-3.45l-2.7,6.39,2.72.86c4.08,1.28,5.91-5.3,1.77-6.42a6.83,6.83,0,0,0-4.21-.2,2.33,2.33,0,0,0-1.37,3.37Z"/><path class="cls-2" d="M523.71,834.06c1.31.74,2.36,1.81,3.66,2.59a11.61,11.61,0,0,1,1.59,1.11,6.71,6.71,0,0,1,.79.81c.18-.64.19-.81,0-.51a11.7,11.7,0,0,1-3.88,1.45c-1.78.41-3.61.15-5.19,1.19a3.08,3.08,0,0,0,0,5.24c2.48,1.8,7,.74,9.71-.26,2.91-1.09,5.82-3.11,5.89-6.54.07-2.93-2.2-4.92-4.72-5.93a10.72,10.72,0,0,0-3.77-.74c-1.46,0-2.66.71-4.06,1a.3.3,0,0,0-.07.54Z"/><path class="cls-2" d="M597.36,826.55c-3.73,3.12-4.61,9.26-2.36,13.44,2.7,5,8.32,7.19,13.68,7.74,6.9.71,14.05.5,21,.74,5.07.17,12.45,1.89,14.39-4.27a4.19,4.19,0,0,0-5.12-5.11c-3.4,1.11-7.63.33-11.19.24-4.82-.13-9.62-.35-14.42-.71-4.15-.31-9.48-.2-11.06-4.81-1-3-.17-5.61-3.13-7.49a1.47,1.47,0,0,0-1.77.23Z"/><path class="cls-2" d="M599.6,824.29l-.11-.37a.93.93,0,0,0-.65-.65c-2.56-.43-3.08,1.72-4.44,3.48-1.84,2.39,2.31,5.63,4.22,3.25a7.91,7.91,0,0,0,2-5.55c0-3.54-5-4.07-6-.81-.48,1.48-.93,3-1.39,4.45-1.1,3.62,4,5.52,5.93,2.5a16,16,0,0,0,2.28-5.53l-5.66,1.5a14.42,14.42,0,0,0,9,3.45c2,.11,4-.28,6-.26,2.73,0,4.55,1.36,7,2.52a79.53,79.53,0,0,0,12.67,4.51c2.22.64,4.5,1.17,6.69,1.91,2.79.95,3.57,1,.26,1.78-4.66,1-3.41,7.92,1.09,8.07,5.12.17,10.56-2.19,10.74-8.09.19-6.55-6-9.39-11.35-10.54a94.1,94.1,0,0,1-20.4-6.62c-5.58-2.55-12.69,1.55-17.53-2.06a3.41,3.41,0,0,0-5,2,8,8,0,0,1-1.34,4.06l5.92,2.5c.36-1.52.72-3,1.07-4.55l-6-.82a5.56,5.56,0,0,1-.31,2.94l5.18,1.43c.05-.32.23-4.26.22-4.25a.29.29,0,0,0,.07-.28Z"/><path class="cls-2" d="M595.67,824.46c-3.29,3.24-7.11,11.54-4.55,16,2.65,4.62,11.06,6.23,15.88,5.88,4-.3,5-5.92,1-7.11-1.74-.51-3.47-.92-5.23-1.32-1.17-.26-2.35-.47-3.51-.79-.52-.14-2.64-1-2-.41s.12-.69,0-1.45c-.11-1.26-.22-2.51-.24-3.77a54.65,54.65,0,0,1,.14-6.4c.08-.79-1-1.12-1.5-.62Z"/><path class="cls-4" d="M986.43,833.65a10.66,10.66,0,0,0-4.6,7.22l5.81,1.6a15.53,15.53,0,0,1,1.73-6c1.94-3.27-2.9-6-5-2.94s-3.91,6.22-3.38,10.22c.23,1.7,1.3,3.18,3.18,3.18a3.21,3.21,0,0,0,3.18-3.18,59.72,59.72,0,0,1-.13-9.36c.29-2.5-3.16-2.85-4.32-1.17-2.07,3-2.85,6.86-3.22,10.42-.34,3.3,5.1,4,5.8.78.31-1.47.72-2.92,1.13-4.37.19-.67.4-1.33.64-2,.09-.27.67-1.69.43-1.4l-1.36.79a9.77,9.77,0,0,1,3.08.07c4.25.31,4.18-7,0-6.55-3,.29-5.82,0-7.2,3.08a31.83,31.83,0,0,0-2.52,9.59h5.9a32.43,32.43,0,0,1,1.56-8.63l-4.47-1.23c-.95,3.33-1.82,6.47-1.68,10h6.36c-.3-2.2-.24-5.1,1.59-6.69L984.8,833a10.37,10.37,0,0,0-3,9.48c.85,3.79,6.62,2.18,5.81-1.6a12.09,12.09,0,0,1,.29-6.06c.26-.81-.77-1.69-1.5-1.16Z"/><path class="cls-4" d="M1006.45,834.87c1.63,4.78,6.33,7.62,10.63,9.75,2.61,1.29,14.15,3.76,14.21,6.92l1.29-3.09c-1.38,1.55-10.75-.09-13.1-.31-5.07-.5-10.11-1.06-15.21-1.09-2.64,0-5.27.05-7.92-.06-2-.08-7.32.42-8.73-.94-.08,1.28,0,1,.13-.88.2-1,.45-2.08.75-3.1.64-2,1.64-3.87,2.27-5.9,1.13-3.59-3.81-6.51-6.37-3.71-5.46,6-8.74,19.8,2,21.59,6.24,1,12.56.22,18.83.49,6.67.3,13.25,1.51,19.88,2.2,4.24.45,10.51,1.76,13.63-2.1,2.88-3.57.71-8.43-2.32-11.11-3.79-3.35-9.69-4.59-14.32-6.26s-10-4.18-15.16-3.3a.74.74,0,0,0-.52.9Z"/><path class="cls-4" d="M923.69,831.93c5,3.18,10.55,3,16.1,1.69L935,831.68c3,5.07,8.8,5.28,13.67,7.66a35.2,35.2,0,0,1,8.52,5.76c.32.28,3.48,4,3.51,4q2-4.87-1.3-4a19.13,19.13,0,0,1-3.21.06c-8-.18-16.05-1.27-24.07-1.61-1.93-.08-4.25.23-6.1-.2s-2,.15-2-2.2c-.06-4.08,3.15-10,7.61-9.48L930.47,823a56.43,56.43,0,0,0-10.11,4.42c-2.62,1.46-2.48,4.58-.86,6.65l.79,1-1.24-3c.27,3.66-2.4,6.39.17,10,1.83,2.55,4.78,3.37,7.68,4.12,9.19,2.39,18.8,4.1,28.29,2.91,3.64-.46,5.9-4.49,3.08-7.46-2.68-2.82-5.71-4.31-9.26-5.82l.81,6.24.45-.56-2.86,1.19c4.8.26,9.3,4.41,14.13,4.72,1.82,1.58,2.69.74,2.63-2.54-1.3.33-2.6.64-3.91.93a9.36,9.36,0,0,0-5.06,2.75,3.33,3.33,0,0,0,.66,5.15c7.39,4.76,24.55-2.36,15.81-11.89-3.53-3.85-8.89-5.28-13.86-6-4.19-.61-11.65-3.45-14.23,1.44A4,4,0,0,0,946,843.1c2.8.76,4.38,2.59,6.15,4.74l3.09-7.45c-7.86.81-15.35-.51-23-2.44-1.23-.31-3.47-1.46-4.75-1.25-1.12-.58-1.41-.51-.87.2.34.91.56.62.65-.87,1-2.22.21-5.23-1.12-7.07l-1.52,5.79a45.58,45.58,0,0,1,8.18-3.22c3.9-1.12,4.5-7.76,0-8.51-10.81-1.8-19.93,10.09-18.09,20.55.92,5.22,4.75,8.31,9.92,8.68,6.92.49,13.77.33,20.69,1.14,6.4.75,13.51,2.64,19.89.73,4.28-1.28,6.52-5.61,4.11-9.58-2.54-4.18-7.78-7.88-11.88-10.44a43.55,43.55,0,0,0-6.87-3.42c-2-.8-7.09-1.35-8.28-3.25a4.32,4.32,0,0,0-4.76-1.94c-4.15,1.23-8.32,1.32-12.59,1.8-2.39.27-3.48,3.22-1.26,4.64Z"/><path class="cls-66" d="M1484.17,518.67c-2.07,4.83-1.46,15.13,5,16.25,3.9.68,8.55-.82,12.18-2.07,4.17-1.44,9.63-2.94,12.54-6.31,2.22-2.58,0-5.86-3.14-5.39-5.22.76-10.12,5.47-15.14,7.36-3.41,1.29-6.72,2.66-9.18-1.13-1.47-2.28-1.06-6.12-2.08-8.69,0-.06-.15-.11-.18,0Z"/><path class="cls-64" d="M1494.62,45c-.95,2.12-.72,4.84-.51,7.11s0,5.12,1.1,7c2.68,4.6,7-1.55,8.2-4a2.3,2.3,0,0,0-.34-2.63,1.38,1.38,0,0,0-1-.55,2.3,2.3,0,0,0-2.44,1c-.52.73-2.08,2.5-2.17,3.42-.53.62-.23.65.9.1l-.2-1a8.59,8.59,0,0,0-.48-2.43c-.5-2.63-.8-5.93-2.43-8.12-.15-.21-.54-.3-.67,0Z"/><path class="cls-2" d="M174.21,466.94c-5,6.07-11.44,10.45-17.31,15.55-2.83,2.46-7.87,7.18-3.54,10.69a1.18,1.18,0,0,0,1.84-1.42c-2.28-4.56,9.13-11,11.81-13.32,3.88-3.36,6.26-6.42,7.33-11.43,0-.06-.08-.13-.13-.07Z"/><path class="cls-2" d="M147.37,497.05c-.61,2-.67,3.9-1.81,5.78s-3,4.34-5.39,4.31l.39,2.89c3.95-1.44,8.82-5.91,6.81-10.51a1,1,0,0,0-1.78.49c.31,3.45-2.66,6.24-5.81,7.19a1.47,1.47,0,0,0,.78,2.83,11.21,11.21,0,0,0,6.41-5.52c1.24-2.11,2.55-5.27,1.16-7.56a.42.42,0,0,0-.76.1Z"/><path class="cls-2" d="M135.56,500.2a11.87,11.87,0,0,0,2.56,8.67c.82,1.11,2.89.88,2.83-.77a4.11,4.11,0,0,0-.56-1.86c-1.14-2.36-2.48-4-2.89-6.78-.66-4.48.85-8.67.86-13.08,0-.71-1.08-1.09-1.41-.38a27.86,27.86,0,0,0-2.11,12.29,21.38,21.38,0,0,0,.79,5c.47,1.65,2.12,3.67,2.33,5.25L140.5,507a32.43,32.43,0,0,1-4.4-6.9.3.3,0,0,0-.54.07Z"/><path class="cls-2" d="M176.48,469.75c2.84-2.76.7-6.48-2.38-8.06-5-2.57-13.29-3.37-18.75-2.25-12.41,2.52-20.77,15.35-20.49,27.6,0,1.67,2.7,2.18,3,.41,1.53-8.46,3.85-16.52,11.55-21.45a21.05,21.05,0,0,1,12.21-3.19c2.58.07,15.81.54,14.07,6.49a.46.46,0,0,0,.77.45Z"/><path class="cls-2" d="M151,455.78c-7.88,0-17,7-20.85,13.68-3.7,6.45-5.47,17.91.8,23.35.8.68,2.41.3,2.3-1-.32-3.53-1.89-6.73-2.09-10.31a20.18,20.18,0,0,1,2.53-10.94c3.75-6.82,11-10.57,17.46-14.27a.3.3,0,0,0-.15-.55Z"/><path class="cls-2" d="M129.79,488c-6.21,1-12.91,2.7-15.78,9-3,6.56.54,13.39.86,20.07a23.08,23.08,0,0,1-3.12,12.55c-1.83,3.25-4.12,5.92-4.84,9.68-1,5.15.8,10.81,5.39,13.58a1,1,0,0,0,1.25-1.61c-3.1-3.18-5.07-6.65-4.09-11.27.67-3.14,2.73-5.49,4.38-8.14a25.77,25.77,0,0,0,4-12.34c.26-5.39-2-10.38-2.14-15.7-.3-8.79,6.82-12.95,14.18-15.7.09,0,.06-.15,0-.14Z"/><path class="cls-2" d="M115.48,499.92c-2.79,10.39,2.6,20.7-2.93,30.76-1.71,3.1-4.24,5.89-4.54,9.57s1.59,6.77,3.76,9.46l2.65-2.65c-2.61-2.19-2-6-1.56-8.86l-2.94-.4a25.26,25.26,0,0,0,.93,9.51,1.47,1.47,0,0,0,2.83-.78,29.52,29.52,0,0,1-.76-8.73c.13-2-2.75-1.85-3,0-.58,4.38-.32,7.61,1.56,11.53,1,2.16,4.39.25,3.24-1.89-1.87-3.48-3.79-6.24-2-10.31.63-1.4,1.6-2.66,2.34-4a31.69,31.69,0,0,0,3.63-9.82c1.43-7.87-.84-15.81-2.75-23.39a.25.25,0,0,0-.47,0Z"/><path class="cls-2" d="M110,543.16c-1.09,5.35-3,13.48,3.26,16.63a.91.91,0,0,0,1.24-1.23c-1.05-2.35-2.63-4.28-3.17-6.86a64.91,64.91,0,0,1-.8-8.47c0-.28-.46-.39-.53-.07Z"/><path class="cls-3" d="M136.82,535.36A70.4,70.4,0,0,0,130,548.81c-.94,2.36-2.68,6.65-.49,8.83a5.63,5.63,0,0,0,2.77,1.17,83.38,83.38,0,0,1,8.93,3.09c4.93,2,10.14,2.34,15.22,3.8a3.59,3.59,0,0,0,4.37-4.37c-.75-3.31-1.57-7.18-5-8.54s-7.84-.35-11.45-.4c-6.55-.09-17.33-3-19.82,5.33-.57,1.94.7,4.76,2.88,5.07,9.49,1.37,18.93,3.81,28.24,6,4.8,1.15,9.12-5.06,5.07-8.7-4.57-4.11-8.46-9.87-14.11-12.61s-11.47-1.1-16.24,2.37c-3.33,2.42-2.92,7.29,1.13,8.67,2.49.85,4.33-.33,6.35-1.63,3.16-2,6.39-4,9.6-5.91l-6.83-2.78c0,.14-2.55,3.93-2.83,4.42-2.28,4,2.38,9.06,6.48,6.48,3.75-2.36,7.53-4.63,11.08-7.29,4.66-3.5.68-11-4.69-8-3.88,2.16-7.49,4.68-11.17,7.14l6.48,6.48c2-3.73,4.88-7.3,3.61-11.67a4.69,4.69,0,0,0-6.82-2.78c-3.23,2-7.09,5.42-10.72,6.65l3.63.48-.51-.23v8.2c3.59-2.16,6.46-2.93,9.88-.16a32.07,32.07,0,0,1,7.5,8.51l5.88-7.65c-9.57-1.47-19.26-2.37-28.81-3.93l2.46,6.06c.68-1.5,11.91-.84,13.3-.91,1.75-.09,4.49-.85,6.15-.36,2,.6,1.9,1.25,2.46,3.58l4.37-4.37c-3.64-1-7.3-1.12-11-1.81-3.86-.72-7.36-2.61-11.29-3.07a13.24,13.24,0,0,0-2.18-.15q-2.89.72-1.18-.72c0-1,1.5-3.61,1.92-4.76,1.46-4,3.16-8,4-12.21a1,1,0,0,0-1.79-.76Z"/><path class="cls-61" d="M141.84,658.51c-.73,4.63-2.24,11.12,1,15.06,2.89,3.48,9.09,6.39,13.64,4.93s4-6.64,3.51-10.39-3-10.51-7.46-11.17c-1.38-.21-3.26.92-2.59,2.58,1,2.46,3.28,3.8,4.53,6.17,1.14,2.18,3,7.36-.6,8-3.3.62-7.59-2.71-8.52-5.62s-1-6.51-1.58-9.59a1,1,0,0,0-2,0Z"/><path class="cls-61" d="M149.93,654.12c.87,3.1,2.94,5.09,5.29,7.21a87.82,87.82,0,0,0,8.33,6.7l.61-4.66c-2,.28-5.12-1.94-6.66-3-1.86-1.3-3.49-2.92-5.31-4.29-2.08-1.58-4.22,1.37-3.27,3.28,2.56,5.18,10.64,10.58,16.59,8.95a2.58,2.58,0,0,0,.61-4.67,79,79,0,0,1-8-5.24,54.3,54.3,0,0,0-7.74-4.64.34.34,0,0,0-.5.38Z"/><path class="cls-4" d="M147.23,684.41c-5.38,9.51-6.29,21.6-8.65,32.16-1.28,5.76-1.87,13.33-7.08,17-4.51,3.15-10,5.24-14.93,7.66-10.28,5-20.6,10-30.77,15.33-5.23,2.71-10.36,5.57-15.44,8.55s-10.26,5.73-14.22,10.16c-1.84,2-.09,5.85,2.85,4.9,5.92-1.9,10.95-5.5,16.29-8.59,5.65-3.27,11.38-6.44,17.11-9.57,11.18-6.13,22.53-12,33.8-17.91,4.52-2.39,9.66-4.58,12.87-8.73s4-10.07,5.09-15.2c2.37-11.2,6-24.38,3.17-35.72a0,0,0,0,0-.09,0Z"/><path class="cls-4" d="M112.91,644.7c-3.55,4.86-4.09,13.41-5.12,19.28-1.31,7.37-2.14,14.86-3.16,22.28-1.93,14.19-4.84,30.22-1.8,44.42.76,3.58,6.18,2.66,6.24-.85.14-7.55-.47-15,0-22.6.47-7.21,1.39-14.38,2.24-21.56.83-6.94,1.86-13.91,2.44-20.88.49-5.95,2.14-14.37-.06-20a.44.44,0,0,0-.8-.11Z"/><path class="cls-4" d="M101.93,716.21c-6.85-.14-14.46,6.36-19.71,10.32a135.68,135.68,0,0,0-17.88,16.34,229.79,229.79,0,0,0-15.57,19c-4.68,6.3-10.6,13.07-13.48,20.38-1.06,2.69,2.82,4.56,4.66,2.71,5.2-5.22,8.84-12.6,13.22-18.56a218.9,218.9,0,0,1,15.6-19.06,170.83,170.83,0,0,1,17-16.14c3.25-2.67,6.67-5.16,10.1-7.62,2.5-1.8,5.21-3.16,6.93-5.78a1,1,0,0,0-.89-1.54Z"/><path class="cls-4" d="M147.38,689.33c1.29,4.07,3.94,7.55,6,11.23,2.39,4.2,4.69,8.46,6.93,12.74,4.84,9.21,8.86,18.31,11.08,28.51,4.55,20.8,8.38,41.76,12.81,62.59,1,4.79,8.21,2.73,7.31-2q-6.75-35.73-13.21-71.5c-.89-4.88-8.38-2.83-7.45,2q6.75,35.72,13.35,71.47l7.31-2c-4.49-21.67-8.64-43.6-14.19-65-2.53-9.72-6.88-18.39-11.8-27.1-4.14-7.31-8.94-18.08-17-21.81-.57-.26-1.37.18-1.15.89Z"/><path class="cls-4" d="M169.34,725.37c-2.56,14.06.39,29.51,3.65,43.22,3.58,15,7.39,29.9,9.36,45.26.59,4.62,8,4.66,7.34,0a301.55,301.55,0,0,0-9.45-43.25c-2.07-7.29-3.78-14.65-5.42-22.05-1.7-7.69-2.58-15.62-4.82-23.18-.09-.3-.59-.35-.66,0Z"/><path class="cls-4" d="M184.14,815.56c7,5.59,19.69,3.41,26.68-1.11a2.9,2.9,0,0,0-2.23-5.28c-4.39.82-8.68,2.07-13.1,2.81-3.72.64-7.7.84-11.2,2.35a.79.79,0,0,0-.15,1.23Z"/><path class="cls-4" d="M19.36,787.09c-1.33,3.37,3.78,7.61,6,9.5,3.26,2.82,7,5.95,11.16,7.33a3.16,3.16,0,0,0,4-3c-.11-2.08-1.59-2.64-3.17-3.59a74.2,74.2,0,0,1-7.89-5.62c-1.29-1-8.53-8.41-10-4.59Z"/><path class="cls-4" d="M182.24,817.43c8.08,7.1,23.41,2.74,30.76-3.69,3-2.66-.83-7.08-4.15-5.38-7.57,3.9-16,3.14-24.14,3.1-2.89,0-4.79,3.93-2.47,6Z"/><path class="cls-3" d="M162.91,530.56c-.82,6.68,1.92,13.7,3.32,20.17,1.65,7.61,3.92,15.19,4,23s-2.62,14.42-6.49,21.12c-3.31,5.74-8.22,11.5-8.87,18.25-.18,1.9,2.31,3.21,3.83,2.2,5.93-4,9.33-12,12.72-18.12,3.89-7,6.68-14.37,6.52-22.49s-2.32-16.25-5.12-23.78c-2.53-6.81-4.19-15.1-8.94-20.76-.33-.4-.86,0-.92.38Z"/><path class="cls-68" d="M151,681.75a29,29,0,0,0-1.56,10.14c0,2.16,3,2,3.25,0,.37-2.93.37-5.88.48-8.83a1.21,1.21,0,0,0-2.36-.32,43.1,43.1,0,0,0-1,7.06c-.1,1.94,2.69,1.81,2.93,0l.63-4.71c.22-1.62-2.27-1.79-2.73-.37-2.92,9,4.26,19.06,7.7,26.95,2,4.67,5.23,8.32,7.73,12.7,3.32,5.83,3.16,12.24,2.86,18.75-.24,5-.61,10,.07,15,.73,5.3,2.56,10.32,4.32,15.34,4,11.57,6.36,23.48,8.63,35.5.52,2.78,4.77,1.61,4.24-1.17-2.12-11.08-4.4-22.2-8.16-32.87-1.67-4.73-3.67-9.41-4.73-14.33-1.25-5.79-.83-11.61-.56-17.46.46-9.8-.61-17.77-6-26.1-2.82-4.4-4.73-9-6.95-13.75-2.65-5.61-8.86-11.22-6.49-17.81l-2.69-.74-.78,4.69,2.88.39a44.67,44.67,0,0,1,.38-6.74h-2.4a20.38,20.38,0,0,1-1.27,8.4l3.19.43c-.21-3.32-.24-6.63-.35-10a.69.69,0,0,0-1.34-.18Z"/><path class="cls-68" d="M169.06,730.26c.05,1.36,1.55,1.9,2.65,2.24a5.12,5.12,0,0,0,5.31-1.26,2,2,0,0,0-1.39-3.34,14.1,14.1,0,0,0-4.52,1.21c-.42.14-2.08.43-2.05,1.15Z"/><path class="cls-68" d="M169.84,737a8.48,8.48,0,0,0,5.7,1.37c2.21-.21,5-1.23,4.85-3.94a2.63,2.63,0,0,0-1.32-2.09,4,4,0,0,0-3.78,0,26.69,26.69,0,0,0-5.45,2.59,1.24,1.24,0,0,0,0,2.11Z"/><path class="cls-68" d="M184.44,810.17c1.88,2.9,6,2.12,9,2.39a28.51,28.51,0,0,0,15.81-3.06c1.09-.58.66-2.63-.67-2.47a86.38,86.38,0,0,1-13.44,1,39.49,39.49,0,0,0-5.65-.12c-1.44.17-2.65.77-4.14.67a1.08,1.08,0,0,0-.93,1.62Z"/><path class="cls-68" d="M23.28,787.42c.71,2.57,3.92,4.25,5.77,6,2.42,2.32,4.76,5.73,7.79,7.2a1.68,1.68,0,0,0,2.28-2.28c-1.69-3.14-5.54-5.76-8.25-8.05C29,788.7,26.2,786,23.52,787a.34.34,0,0,0-.24.42Z"/><path class="cls-68" d="M96.8,717.94a11.62,11.62,0,0,0,3,3.78c.55.53,1.19,1,1.77,1.49a5,5,0,0,0,3.11,1.26,2.41,2.41,0,0,0,2.31-3c-.58-2-2.38-3.27-4.22-4.13a8.88,8.88,0,0,0-5-1.18,1.47,1.47,0,0,0-1,1.81Z"/><path class="cls-68" d="M94.08,720.8a12.11,12.11,0,0,0,6.07,6.18,1.88,1.88,0,0,0,2.55-2.54,10.28,10.28,0,0,0-7.42-5.21,1.25,1.25,0,0,0-1.2,1.57Z"/><path class="cls-68" d="M68,781.72c15.54-4.66,26.62-18.64,39.66-27.57A118.81,118.81,0,0,1,130.24,742c4.91-2,11.13-4.61,11.11-10.82,0-1.1-1.67-1.69-2.19-.6-3.43,7.33-11,8.76-17.64,12.27A135.83,135.83,0,0,0,103.16,755c-11.67,8.81-24.5,16.61-35.17,26.65a.06.06,0,0,0,.05.09Z"/><path class="cls-68" d="M184.81,810c-3.58-1.09-5.63,3.31-4.34,6.28,2.23,5.12,9.9,6.77,14.8,6.71,5.54-.06,13.75-2.43,17.56-6.76,2.53-2.87,2.14-7.32-1.71-8.6-2.18-.72-3.13,2.31-1.47,3.49,3.07,2.19-6.44,5.14-7.22,5.33a29.52,29.52,0,0,1-7.94.9c-4-.14-12.39-1.67-9.6-7.13a.15.15,0,0,0-.08-.22Z"/><path class="cls-68" d="M19.12,790a1.53,1.53,0,0,0,.65-.35c-.12.11.21-.14,0,0a8.83,8.83,0,0,0,.91-.5c-.34.23.41-.17.16-.07s.52-.11.21-.06.52,0,.18,0,.55,0,.67.06.11,0-.07,0c.19,0,.21.06.07,0a1.69,1.69,0,0,0,2-.25,1.62,1.62,0,0,0,.25-2,3.54,3.54,0,0,0-1.95-1.51,4,4,0,0,0-2.7.42,3.15,3.15,0,0,0-1.73,1.78,2.3,2.3,0,0,0,.33,2.2,1.1,1.1,0,0,0,1.1.29Z"/><path class="cls-68" d="M18.73,789.77c1.92,4.55,5.5,8.44,9.11,11.74,2.75,2.52,5.72,5.59,9.73,4.94a1.48,1.48,0,0,0,1-1c.28-.75.53-1.52.74-2.29a1.23,1.23,0,0,0-2.23-.94c-1.47,2.37-3.28.67-5-.66s-3.24-2.6-4.77-4c-2.8-2.61-5.32-5.52-8.2-8a.24.24,0,0,0-.38.29Z"/><path class="cls-68" d="M39.34,801.3c7-4,13.63-8.52,20.18-13.21s13.59-8.67,20.5-12.8a.39.39,0,0,0-.39-.68c-13.79,8.14-28.85,15.23-40.89,25.92-.42.38.12,1.05.6.77Z"/><path class="cls-3" d="M15.57,799.09c-5.18,1.34-9.46,5.46-12.85,9.42l4.79,2.79c.53-2.25,1-6.59,3.9-7.2,2.51-.53.93-4.68-1.38-3.28-3.92,2.38-9.17,8-9.38,12.91-.22,5.49,5.78,10.81,9.27,14.32,4.19,4.19,8.56,8.92,14.35,10.81,6.51,2.13,13.49.64,19.91-1.05,2.9-.76,4.6-4.49,2.89-7.1-2.31-3.52-5.52-5-9.67-5.22-5.33-.3-9.45-.06-14.19-3-4.53-2.78-9.33,3.57-5.63,7.3a17.58,17.58,0,0,0,10,4.83c1.87.32,10.21-.49,11.17,1l2.89-7.11c-4.2,1.19-8.76,2.61-13.17,1.8-4.19-.76-7.43-3.87-10.52-6.55-2.92-2.53-6.6-5.26-8.72-8.52-1.51-2.33-1.67-2.78-.24-5.78,1-2.15,2.44-4,3.53-6.15l-3.35-.91c-.26,2.55-4.53,4.64-6.42,6.14-3.09,2.44,2.2,7.3,4.5,3.47,2.61-4.34,6.11-7.32,9.45-11a1.14,1.14,0,0,0-1.1-1.88Z"/><path class="cls-3" d="M9.12,805.65a47.41,47.41,0,0,1,6.06-3.4c2.41-1.11.31-4.75-2.1-3.59-3.56,1.72-6.43,4.29-9.49,6.71L7.2,809a42.46,42.46,0,0,1,10.86-7.38c3.41-1.58.44-6.57-2.95-5-5.17,2.33-10.89,4.81-13.84,10-2.45,4.3-1.46,10.83,3.9,12.24a3.6,3.6,0,0,0,3.47-6c-5.23-5.22,5.62-9.42,9.42-11.21l-2.95-5a33.38,33.38,0,0,0-11.52,8.8C1.5,807.91,5.17,811.55,7.2,809c2.2-2.78,5.09-4.75,8-6.74l-2.1-3.59c-2.45,1.85-3.84,3.48-4.61,6.49a.45.45,0,0,0,.65.5Z"/><path class="cls-3" d="M191.09,831.31c-6.23,8.64,1.16,17.15,10.4,17.58,13.92.65,28.25-1.86,42.15-2.65,6.57-.38,5.47-10-1.22-9-10.13,1.46-20.35,2.32-30.54,3.22-3.93.34-9.5,1.87-13.44.9-4.12-1-4.59-6.76-6.42-10a.55.55,0,0,0-.93,0Z"/><path class="cls-3" d="M210.08,833.19a65.35,65.35,0,0,0,16.09,3.73,78.22,78.22,0,0,1,8.48,1.31c3,.74,4.37,2.18,6.23,4.43,2.69,3.24,7.45-.3,6.63-3.85-1.35-5.81-7.55-7.32-12.81-7-8.18.43-16.28-.1-24.46.18a.64.64,0,0,0-.16,1.25Z"/><path class="cls-3" d="M188,832a26.66,26.66,0,0,0-.58,8.11c.2,2.24.06,5.4,1.56,7.23s4.83,2.06,7.14,2.33a15.56,15.56,0,0,0,8.13-1.64c1.63-.72,1-3.12-.47-3.57a38.71,38.71,0,0,0-5.56-1.5c-1.92-.29-3.9-.18-5.76-.83l2,1.53c-.78-1.11-.86-3.56-1.09-4.89a55.71,55.71,0,0,1-.83-6.15c-.15-2.47-3.94-3.29-4.53-.62Z"/><path class="cls-4" d="M569.69,491.26c-7.33-2.57-16.29,2.15-22.86,5.13-6.93,3.16-14.35,6.3-19.5,12.12-5,5.63-7.09,13.13-8.77,20.29a166.12,166.12,0,0,0-4,28c-.29,4.82,7,4.69,7.44,0a188.68,188.68,0,0,1,3.79-24c1.52-6.63,3.15-13.68,7.54-19.07s11.06-8.29,17.05-11.32c6.28-3.19,13.89-4.94,19.65-8.91a1.25,1.25,0,0,0-.3-2.24Z"/><path class="cls-4" d="M542.18,617.36c8.43,4.35,20.32,3.86,29.58,4.19q8.28.3,16.57.28c5,0,10.46.56,15.25-.91,2.57-.78,2.83-4.81,0-5.47-4.9-1.14-10.23-.35-15.25-.33q-7.77,0-15.53-.21c-9.54-.29-21-2.55-30.31.12a1.29,1.29,0,0,0-.31,2.33Z"/><path class="cls-4" d="M610.18,557.72c-3.3,9.4-5.1,19.26-6.45,29.1a112.11,112.11,0,0,0-1,14.19c-.06,5.69.43,11-2,16.32a2.83,2.83,0,1,0,5.19,2.19c1.62-4,1.82-8.53,2.15-12.79.42-5.52.91-11,1.28-16.56.72-10.75,1.76-21.48,2.39-32.23.06-1-1.34-1.06-1.63-.22Z"/><path class="cls-61" d="M149.19,486.41a2.85,2.85,0,0,0-2.28-3.62c-2.82-.47-4.63,2-5.56,4.34a9.22,9.22,0,0,0,8,12.89l-2.91-2.22a8.62,8.62,0,0,0,1.51,3.14c1.68,2.18,6,1.09,4.91-2.07a7.17,7.17,0,0,1-.49-1.87,3.09,3.09,0,0,0-3.82-2.92c-2.51.54-2.59-3.2-2.2-4.71.2-.77,1.42-3.14,2.15-2.67a.49.49,0,0,0,.72-.29Z"/><path class="cls-62" d="M579.05,457.55c1.51-.41,1.75-2,1.44-3.36a5.56,5.56,0,0,0-3.2-3.83c-4.19-2-8.09.74-9.88,4.53a9.71,9.71,0,0,0-.93,6.94,10.1,10.1,0,0,0,3.88,5.54c4.17,2.74,12.93.31,12.4-5.71-.16-1.83-1.29-4.11-3.36-4.42a6,6,0,0,0-4.23.46c-.53.36-1,.75-1.54,1.15a.2.2,0,0,1,.1-.15c.27-.27.62-.24,1,.1.23.2.13.11-.29-.29-.12-.07-.11,0,0,.17a5.65,5.65,0,0,1,.25-1.08c1-3.57,2.28.5,4.29-.05Z"/><path class="cls-62" d="M592.8,480a25.52,25.52,0,0,0-3.64,13.32c0,3.52,1.56,6.64-2.44,8.65a7,7,0,0,1-8.38-1.73c-3.69-4.23-2.43-11.58-2.6-16.72-.21-6.44-.78-12.87-1.49-19.27-.29-2.63-4.36-2.75-4.21,0,.55,9.47-.63,18.43-1.44,27.82-.59,6.81,2,14.84,9.1,17.31,4.7,1.65,13-.23,14.86-5.58.93-2.66.43-6.67.68-9.51.41-4.74,0-9.47-.08-14.19a.19.19,0,0,0-.36-.1Z"/><path class="cls-68" d="M612.88,531.89c-1.69,5.48-1.81,11.57-2.13,17.26-.35,6.27-1.32,12.88-.79,19.14.09,1,1.67,1.41,1.92.26,1.31-5.94,1.25-12.32,1.71-18.39s1.22-12.31.23-18.27c-.08-.5-.81-.42-.94,0Z"/><path class="cls-68" d="M553.94,531.12c-3.73,5.14-5,12.43-6.39,18.5-1.49,6.33-3.42,12.94-3.92,19.42-.09,1.17,1.8,1.73,2.28.62,2.7-6.24,4.22-13.33,5.9-19.93,1.49-5.81,3.6-12.49,2.75-18.52,0-.33-.47-.29-.62-.09Z"/><path class="cls-68" d="M515.13,560.94c4.11,3.27,9.67,4.85,14.59,6.5,4.72,1.58,11,4.82,15.91,3a1.34,1.34,0,0,0,.32-2.41c-4.19-2.49-10.37-3.21-15.11-4.68s-10.26-3.45-15.4-3.19c-.34,0-.63.5-.31.76Z"/><path class="cls-68" d="M585.35,518.41a1.52,1.52,0,0,0,0-3,1.52,1.52,0,0,0,0,3Z"/><path class="cls-68" d="M585.35,525.46a1.76,1.76,0,0,0,0-3.52,1.76,1.76,0,0,0,0,3.52Z"/><path class="cls-68" d="M541.29,570.77c-3.71,5.69-4.58,14.71-4.1,21.36a183.14,183.14,0,0,0,3.42,23.54c.4,2,3.79,1.56,3.55-.49-.89-7.41-3-14.66-3.67-22.11s2.5-14.68,2-22a.64.64,0,0,0-1.19-.32Z"/><path class="cls-69" d="M2.71,810.61a54.14,54.14,0,0,0,10.65,15c3.61,3.7,8.31,9,13.26,10.71.92.32,1.51-.92.91-1.55-1.56-1.64-3.51-2.52-5.35-3.82a51.06,51.06,0,0,1-7.51-6.66A104.75,104.75,0,0,1,3.81,810a.64.64,0,0,0-1.1.64Z"/><path class="cls-69" d="M40.21,826.82c-5.73-.16-10.39,4.63-12.06,9.84-.28.85,1,1.62,1.55.9,3.18-3.81,5.37-8.39,10.66-9.68a.54.54,0,0,0-.15-1.06Z"/><path class="cls-69" d="M29,827.29c3-1.65,6.52-2.29,9.46-4a1.63,1.63,0,0,0-.81-3c-4.12-.34-7.59,2.92-9.46,6.24a.59.59,0,0,0,.81.8Z"/><path class="cls-69" d="M25.41,822.6a14.63,14.63,0,0,1,4.36-3.45,21.27,21.27,0,0,0,4.33-2.47.75.75,0,0,0-.33-1.23c-4-.94-7.57,3.38-9.13,6.56-.23.47.39,1,.77.59Z"/><path class="cls-69" d="M8.73,800.5c-.9,1.82-1.74,3.62-2.54,5.48A39.93,39.93,0,0,0,4,811a.54.54,0,0,0,1,.42c2.19-2.94,3.32-7.29,4-10.83,0-.15-.19-.27-.27-.11Z"/><path class="cls-69" d="M188.33,835.18a34.6,34.6,0,0,1,6.56,4.55,15,15,0,0,1,2.51,3,16.54,16.54,0,0,0,2.08,3.36,2,2,0,0,0,3.43-1.41c.2-3.1-2.84-6.5-5.09-8.36a12,12,0,0,0-9-3,1,1,0,0,0-.49,1.83Z"/><path class="cls-69" d="M191.41,844.73c7.81,2.17,16.15,2.21,24.22,1.77s16.51-.45,24.41-1.81c1-.16.74-1.75-.23-1.72-8.45.18-16.7,1.15-25.19,1-7.74-.09-15.53-.51-23.21.62a.05.05,0,0,0,0,.1Z"/><path class="cls-69" d="M209.16,830.46a29.89,29.89,0,0,0,1.49,4.26c.64,1.56,1.12,3.18,2.89,3.73a2.13,2.13,0,0,0,2.34-1c1.05-1.69,0-3.71-1-5.19a9.82,9.82,0,0,0-3.71-3.42,1.41,1.41,0,0,0-2,1.57Z"/><path class="cls-69" d="M217,830a10,10,0,0,0,2.07,8,2.57,2.57,0,0,0,4.34-1.79,7.91,7.91,0,0,0-5.27-6.85A.93.93,0,0,0,217,830Z"/><path class="cls-69" d="M239.26,832c-2.3.3-3.54,2.06-4.36,4.14s-1.08,5.23.7,7a1.49,1.49,0,0,0,2.51-1c0-1.77-.62-3.39-.31-5.19a23.94,23.94,0,0,1,1.79-4.51.34.34,0,0,0-.33-.43Z"/><path class="cls-69" d="M156.56,551.67,155.12,559c-.41,2.11-.51,6-2,7.66-.5.56.29,1.37.83.83,1.5-1.51,1.52-3.51,1.73-5.53.35-3.41.68-6.82,1-10.22,0-.11-.17-.14-.19,0Z"/><path class="cls-69" d="M132.33,546.91c-1.25,4.15-3.23,8.93-3.61,13.25-.17,2-.08,2.32,1.76,3.32,3.83,2.09,9.16,2.47,13.42,3.17,2.47.41,7.85,2,9.92.49a.62.62,0,0,0,.27-.66l-.06-.31a.29.29,0,0,0-.36-.2c-1.56.53-6.17-1.83-8-2.24-3.42-.79-7-1.37-10.51-1.86-1.07-.15-2.22-.12-3.27-.31q-2.55,1.22-2.15-1.38a4.45,4.45,0,0,1,.12-3.25,75.29,75.29,0,0,1,2.52-10,0,0,0,1,0-.09,0Z"/><path class="cls-69" d="M156.28,554.91a7.53,7.53,0,0,0,.71-3,.05.05,0,0,0-.1,0,7.4,7.4,0,0,1-.69,2.93s.06.1.08,0Z"/><path class="cls-69" d="M139.64,534.24c3.08-.29,6.23-1,9.3-.38s4.69,3,7.09,4.85c.48.37,1.19-.24,1-.77-2.51-7.35-11.79-7.69-17.55-4.25-.23.14-.15.57.15.55Z"/><path class="cls-69" d="M574.58,672.51a32.13,32.13,0,0,0,1.29-5.2c.13-1-1.63-1.27-1.83-.25a31.55,31.55,0,0,0-.42,5.32.49.49,0,0,0,1,.13Z"/><path class="cls-69" d="M529.31,666.31c-2.61,6.25-2.66,14-3.4,20.67-.71,6.34-1.38,12.64-2.33,19a60.58,60.58,0,0,1-7.34,21.55c-3.19,5.77-6.48,11.45-9.38,17.38-5.75,11.8-9.53,24.35-13.5,36.82-1.57,4.93-10.14,23.95,2.05,23,1.56-.13,1.57-2.58,0-2.45l-4.3-4.53a17.36,17.36,0,0,1,.86-4.3c.33-1.24.78-2.46,1.17-3.68.9-2.78,1.78-5.57,2.75-8.32,2.06-5.82,4.33-11.57,6.53-17.34,4.4-11.53,8.9-23.07,14.4-34.13,4.62-9.32,9.82-18.62,11.4-29,.85-5.63,1.47-11.32,2-17s1.72-11.87.63-17.6c-.16-.85-1.24-.62-1.51,0Z"/><path class="cls-69" d="M575.17,677.64c-1.67,10,2.13,20.46,4.8,29.92,3.3,11.67,4.5,23.64,5.32,35.7,1.57,23.29,5.33,46.26,8.78,69.35.22,1.49,2.47.85,2.26-.63-3.38-23.53-5.57-47-7.63-70.67a186.24,186.24,0,0,0-5.07-30.85c-2.85-11-5-21.66-6.76-32.82a.89.89,0,0,0-1.7,0Z"/><path class="cls-67" d="M491.86,811.93c-.69,2.22,2.21,3.55,3.83,4.08a24.65,24.65,0,0,0,9.27,1.07,1.38,1.38,0,0,0,.36-2.69c-1.81-.7-3.74-1.29-5.58-1.93s-3.72-.54-5.28-1.46a1.8,1.8,0,0,0-1.82,0,1.66,1.66,0,0,0-.78.93Z"/><path class="cls-67" d="M507,824c1.4-1.28,3.37-2.27,4.25-4,.25-.49-.17-1.22-.77-1-2,.73-3,2.9-3.86,4.71a.25.25,0,0,0,.38.3Z"/><path class="cls-67" d="M511.05,829.35a16.41,16.41,0,0,0,2.73-1.63,7.64,7.64,0,0,0,2.59-2.39,1.39,1.39,0,0,0-1.55-2,5.06,5.06,0,0,0-3.13,2.51,5.8,5.8,0,0,0-1,3.31.24.24,0,0,0,.36.21Z"/><path class="cls-67" d="M516,833.07c.64-.58,1.37-1,2-1.6.31-.27.68-.47,1-.75a3.06,3.06,0,0,0,.7-1.16.94.94,0,0,0-.8-1.39,2.37,2.37,0,0,0-1.67.26,7.12,7.12,0,0,0-1.2,1.06,6.19,6.19,0,0,0-1.43,2.77.84.84,0,0,0,1.39.81Z"/><path class="cls-67" d="M596.34,822.2c2.68,5,12,5.7,16.29,2.7a1.19,1.19,0,0,0-.28-2.15c-2.56-.83-5.46-1-8.12-1.48-2.42-.46-4.68-1.27-7.16-.86a1.24,1.24,0,0,0-.73,1.79Z"/><path class="cls-67" d="M615.85,832.46a54.23,54.23,0,0,0,4.74-4.48c1-1,3-3.35,1.1-4.56s-3.45,1.57-4.2,2.86a24.82,24.82,0,0,0-2.54,5.66c-.16.56.51.83.9.52Z"/><path class="cls-67" d="M623.65,832.89c.88-1.6,2.52-2.91,3.75-4.25a1,1,0,1,0-1.53-1.18,11.08,11.08,0,0,0-1.3,2.39c-.39,1-.6,2-1,3,0,.06.05.12.09,0Z"/><path class="cls-67" d="M629.56,836c.4-.49,1.05-.74,1.49-1.25s.85-1.06,1.32-1.56c1.11-1.17,2-2,2-3.7a1.63,1.63,0,0,0-2-1.55c-1.83.34-2.53,1.77-3.18,3.37a16.8,16.8,0,0,0-.67,1.92,3.52,3.52,0,0,0-.18,1.16,8.76,8.76,0,0,1,.18,1.16.64.64,0,0,0,1.08.45Z"/><path class="cls-67" d="M487.05,828.3a14.22,14.22,0,0,0,9.08,6.48.2.2,0,0,0,.1-.38,19.48,19.48,0,0,1-9-6.2c-.07-.09-.24,0-.17.1Z"/><path class="cls-67" d="M509.18,839.28c6.23,3.48,13.78,8.72,21.28,7.42a.5.5,0,0,0,0-1c-7.23-1-14.34-4.21-21.17-6.74-.15-.06-.25.19-.11.27Z"/><path class="cls-67" d="M594.83,839.65c2.86,1.86,6.18,4,9.59,4.67,3.75.74,7.85,0,11.67.39.31,0,.32-.47,0-.48a45.31,45.31,0,0,1-11.84-1.72c-3.11-1-6-2.66-9.08-3.66-.49-.16-.74.54-.34.8Z"/><path class="cls-67" d="M622.51,846c2.26,1.11,5,1,7.45,1.1,2.81.16,5.66.45,8.41-.26a.35.35,0,0,0,0-.66c-2.55-.75-5.19-.7-7.82-.94s-5.31-1-7.88-.49a.69.69,0,0,0-.16,1.25Z"/><path class="cls-67" d="M643.05,845.94a.05.05,0,1,0,0-.1.05.05,0,0,0,0,.1Z"/><path class="cls-67" d="M648.16,840.28a8.18,8.18,0,0,1-2.12,2.11c-.77.55-1.47,1.21-2.24,1.79a.74.74,0,0,0,.57,1.34c2.56-.42,3.92-2.62,4.33-5a.3.3,0,0,0-.54-.23Z"/><path class="cls-62" d="M517.16,565.3c-7.08,18.81-1.2,37.15,4.47,55.34,3,9.49,5.4,19.16,8.71,28.54,2.48,7.07,5.4,14.74,12.09,18.83,2.56,1.57,5-2.63,2.34-4-3.19-1.65-3.72-4.31-5.41-7.16-.44-.73-.44-1.19-1.15-1.74a2,2,0,0,0-2.68,0l-.37.34a2,2,0,0,0-.31,2.37l.22.32c1.68,2.49,5.25-.54,3.15-2.43l-.29-.26.3,2.37.28-.42-2.59.68c.83.4,2,3.23,2.49,4.07,1,1.7,2.2,3.31,3.19,5l3.64-2.81c-5.85-6.59-8.81-13.7-11.87-21.88s-6.18-16.37-8.87-24.74-6-16.81-7.07-25.55c-1.07-9,1.06-17.83.59-26.78a.44.44,0,0,0-.86-.12Z"/><path class="cls-62" d="M534.63,654.64c.38,3.88-.06,9.23,1.93,12.72,1.55,2.71,5.87,4.81,8.82,5.24s6.42-.77,7.93-3.54c2-3.6-.06-8.1-1.3-11.59a2.64,2.64,0,0,0-5.09,1.41c.3,1.48,2,5.51.77,6.8-1.12,1.13-3.75-.26-4.73-.74-2-1-2.67-2.42-3.84-4.29-1.29-2.07-2.64-4.1-4-6.16-.14-.23-.57-.16-.54.15Z"/><path class="cls-2" d="M1004.21,431.34c3,.27,4.93-2.34,5-5.19.1-4-2.72-7-6.38-8.22-5.49-1.78-12.36-.71-18,.06A44,44,0,0,0,971,421.87c-9.23,4.62-12.87,13.28-13.25,23.21-.41,10.54.4,23.53,10.13,29.91,5.05,3.32,9.57-3.77,6.09-7.88-2.14-2.53-.59-11.07-.13-14.08a28.24,28.24,0,0,1,4.93-12.38,33.09,33.09,0,0,1,9.63-8.7,40.16,40.16,0,0,1,5.93-3c.9-.36,4.71-2.2,5.58-1.83l-1.92-2.5.1-.47,2-2.62-.77.36,4.49,7.69,1-.66-6.26-6.25c-1.54,2.51-1.73,5.58.65,7.65l-.75-5.82-.61,1.35c-2.09,4.66,3.62,10.29,7.63,5.89l.24-.27-4.73,1.25.42.11-3.4-3.4.08.35c.72,3.12,4.52,4.41,7.16,2.91l1-.56c5.47-3.1.46-11.72-4.94-8.45l-1,.6,7.16,2.91-.09-.35a4.84,4.84,0,0,0-3.4-3.4l-.42-.1a4.9,4.9,0,0,0-4.74,1.25l-.23.28,8.12,4.72.5-1.39a4.83,4.83,0,0,0-2.21-5.42l-.53-.3,2.35,4.09.08-.38c1.65-4.49-4.56-7.41-7.64-4.45l-.88.84c-3.57,3.41,1.21,10,5.39,7,2.47-1.77,3.81-4.4,2.34-7.37-1.56-3.17-5-3.39-8.09-2.84a44.44,44.44,0,0,0-19.83,9.45A37.76,37.76,0,0,0,966,447.05c-2.45,8.18-3.37,18.24.14,26.14l7.89-6.08c-4.72-5.28-6.38-10.67-6.93-17.7-.47-6-1.11-13,3.71-17.37,4-3.7,9.94-5.11,15.19-6a67,67,0,0,1,10.66-1c2.24,0,5.31-.47,6.48,2.33a10.65,10.65,0,0,1,.18,3,1,1,0,0,0,.92.93Z"/><path class="cls-2" d="M966.66,472c1.12,6.69,10.46,4.91,15.22,4.46,3.81-.35,4-6.13,0-6.06-2.32,0-4.57.15-6.88.4s-4,.58-5.92-.66c-1.32-.86-2.64.55-2.42,1.86Z"/><path class="cls-2" d="M952.57,613.83c-5,17.39-5.62,36.45-7.56,54.38-2,18.09-3.32,36.39-6.62,54.3-6.3,34.08-19.63,66.39-26,100.45a4.34,4.34,0,0,0,4.1,5.38c7.32.71,16.55,3.13,23.65.48,5.7-2.13,9-7.28,11-12.76,2.69-7.28,3.84-15.24,5.57-22.79q3-13,6-25.91c8.29-35.14,18.65-70,25.78-105.37,1-5-6.11-7.06-7.74-2.13-10.22,31-16.93,63.4-24.41,95.14q-5.62,23.89-11,47.88c-1.17,5.27-1.87,12.59-6.1,16.49-2.92,2.69-7.09,2-10.7,1.63-4-.37-8.07-.77-12.11-1.15l4.1,5.37c6.37-34.39,20.06-67,25.77-101.51,2.93-17.65,4-35.61,5.69-53.42,1.68-18.37,5-37.62,3.48-56.06a1.52,1.52,0,0,0-3-.4Z"/><path class="cls-2" d="M984.34,647c1.68,30.81,10.23,61.19,10.39,92.08.16,30.09-9.15,58.94-15.76,88a4.42,4.42,0,0,0,4.2,5.51c8.88.61,19.29,1.09,28-1.41,8-2.31,7.67-11.34,8.71-18.17,2.83-18.55,5.32-37.17,7-55.87,3.36-37.8,2.78-76.09-4.8-113.37-1.42-7-12.26-4.06-10.75,3,7.14,33.33,8.14,67.51,6.07,101.44-1,16.64-2.66,33.22-4.72,49.76q-.86,6.81-1.79,13.63c-.33,2.4-.06,9.23-2.09,11-.81.69-5.43.9-6.17,1q-2.9.33-5.81.49a104.45,104.45,0,0,1-13.59-.12l4.2,5.52c6.8-29.48,17.56-58.75,17.64-89.32,0-15.27-2.93-30.27-6.27-45.1-3.63-16.16-6.78-32.49-11.71-48.31-.44-1.42-2.78-1.24-2.69.36Z"/><path class="cls-2" d="M939.52,825.25a3.62,3.62,0,0,0,2,.58c.72.1,1.26.47,2,.58V821a5.57,5.57,0,0,1-2.62.38,3,3,0,0,0-2.59,1.49,3.11,3.11,0,0,0,0,3l-.19-1.5a1.1,1.1,0,0,1,.47-.65,1.66,1.66,0,0,1,1.78-.47l-.87,6.4a7.63,7.63,0,0,0,3.15-.75,9.46,9.46,0,0,0,2-1.69,3.52,3.52,0,0,0,0-4.91,3.56,3.56,0,0,0-4.91,0c-.47.42.25-.08-.09.08s-.44.25-.64.37a10.93,10.93,0,0,0-1,.71c-.68.54.57-.3-.23.11-2.94,1.54-1.47,6,1.65,6.08a4.6,4.6,0,0,0,4-6.81l-2.59,4.52a12.42,12.42,0,0,0,4.78-1.26c2.54-1.22,1.27-5.3-1.42-5.23a8.33,8.33,0,0,0-3.34,1.09,3,3,0,0,0-1.9,2,1.18,1.18,0,0,0,.51,1.27Z"/><path class="cls-2" d="M916.4,825.7c4.69.9,9.05,2.59,13.83,3.15s9.62.77,14.43,1v-6.59a115.94,115.94,0,0,1-12.64-.38c-4.18-.41-8.24-1.55-12.42-1.81-2.86-.18-4.07,4.19-1.48,5.47,7.71,3.81,18.14,4.17,26.54,3.31,4.13-.43,4.3-6.82,0-6.59-4.7.25-9.38.28-14.08.42s-9.37,1.12-14.05,1.09c-.54,0-.69.85-.13,1Z"/><path class="cls-3" d="M1026,534.61l.66.32-.53-2c-3.21,4.35-3.75,11.41-4.47,16.66-.92,6.74-1.63,13.51-2.19,20.28s-.87,13.68-1.2,20.52-1.12,13.65.16,20.32c.75,3.89,7.11,3,6.92-.94-.65-13.28.49-26.63,1.2-39.9.34-6.48.78-13,1.39-19.43.5-5.34,1.93-11.91.87-17.17-.36-1.74-2.7-1.12-2.88.39l-.07.68a.3.3,0,0,0,.14.26Z"/><path class="cls-3" d="M948.89,611.92c4.61,3.14,10,3.3,15.36,3.79,6.51.59,13,1.08,19.54,1.3,12.81.41,26.69,1,39.27-1.83,5.53-1.25,4.33-10.06-1.34-9.89-12.36.36-24.49,1.61-36.9,1.21-11.42-.37-22.85-.48-34.24-.8-3.51-.1-4.28,4.46-1.69,6.22Z"/><path class="cls-3" d="M1042.65,503.46c-2.36,5.44-2.47,11.91-3.32,17.72a76.58,76.58,0,0,0-.68,17.83h3.58a69.86,69.86,0,0,1,.28-19.64c.49-2.87,1.25-5.64,2-8.46.55-2.12.28-4.52.81-6.52l-6.23-1.71A161.56,161.56,0,0,0,1035,527c-.36,4.19-2.71,14,3.39,15.18,4,.79,5.8-5.36,1.71-6.22,1.08.23,1.87-13.39,2.06-14.88a152.6,152.6,0,0,1,3.16-16.7c1-4-5.18-5.75-6.23-1.71-.62,2.35.62,4.29.18,6.79-.55,3.09-1.07,6.15-1.33,9.28a84.64,84.64,0,0,0,.81,20.73c.37,2.29,3.76,1.29,3.45-1a70.14,70.14,0,0,1,0-18.76c.67-5.29,3-10.22,3.29-15.54.06-1.43-2.22-2.17-2.83-.77Z"/><path class="cls-4" d="M1496.93,546.6c-6.37,15.84-8.52,36.09-3.72,52.59,1.12,3.86,7.74,3.33,7.3-1-1.29-12.61-.61-24.8-.29-37.41h-5.85c.59,14.13-.07,28.46,0,42.62h5.25a36,36,0,0,0-.87-7.46c-.67-3.05-5.16-2.22-5.28.72l-.2,5.25,5.37-.72-.27-1.78-5.31,1.47a28.92,28.92,0,0,1,.31,4.65c0,2.85,4.75,3.75,5.18.7a19.79,19.79,0,0,0-.18-6.82c-.65-3.48-5.91-2-5.31,1.47l.31,1.76c.54,3.12,5.31,2.26,5.37-.73l.11-5.25-5.28.71a29.24,29.24,0,0,1,.8,6c.1,3.37,5.32,3.38,5.25,0-.32-14-.75-28.62.62-42.62.32-3.28-5-4-5.75-.78-2.74,12.29-2.51,25.72-1.39,38.19l7.3-1c-2.51-8.6-2.88-17.42-2.25-26.32.58-8.1,1.9-16.2.78-24.29-.16-1.13-1.66-.81-2,0Z"/><path class="cls-67" d="M978.31,642.34c3,14.29,5.89,28.61,9.6,42.74a195.81,195.81,0,0,1,4.72,20.47c1.08,7.12.79,14.7,2.41,21.69a1,1,0,0,0,2,0c1.38-6,.08-12.55-.89-18.54-1.22-7.53-2.95-15.1-4.66-22.53-3.4-14.87-8.19-29.4-12.6-44a.29.29,0,0,0-.57.15Z"/><path class="cls-67" d="M989.16,625.84c-.23,4-1.87,10.1,0,13.79.93,1.86,2.88,3.27,4.26,4.78,2,2.23,3.78,4.68,5.72,7,1.2,1.42,3.45-.4,2.54-1.95-2.07-3.49-4.95-6.17-7.59-9.19a10.06,10.06,0,0,1-3-7.35l-.39-7.07a.79.79,0,0,0-1.57,0Z"/><path class="cls-67" d="M991.07,626.11c4.09,2.09,9.42,2.3,13.95,2.39l-2-1.51c.6,4,1.24,9,.41,12.93-.69,3.32-3.18,5.72-4,9.05a1.09,1.09,0,0,0,1.8,1,17.71,17.71,0,0,0,6.06-9.83c.74-4.45-.39-9.24-.23-13.74a2.11,2.11,0,0,0-2.06-2.07c-4.42-.39-9.59-.79-13.82.76a.54.54,0,0,0-.13,1Z"/><path class="cls-67" d="M940.89,722.59c-2.72,13.34-6,26.57-9.47,39.74,0,.06.08.08.09,0a364.61,364.61,0,0,0,9.76-39.65c.05-.25-.33-.36-.38-.11Z"/><path class="cls-67" d="M925.48,777.38c-5.07,15.1-8.47,30.73-13.53,45.85-.68,2,2.55,2.93,3.22.89,5.41-16.49,9.41-33.38,14-50.1,2.24-8.16,4.71-16.25,7-24.38s5.26-16.81,4.6-25.53a.74.74,0,0,0-1.44-.19c-2.41,8.56-3.81,17.29-6.61,25.76-2.66,8-5.36,16-7.59,24.18C920.67,790.29,917,807,912,823.23l3.22.89c4.53-15.32,5.89-31.37,10.41-46.72a.05.05,0,0,0-.1,0Z"/><path class="cls-67" d="M1019.9,624.88a36.61,36.61,0,0,0-.33,6.36c.07,1.68,0,3.64,1,5.07a.79.79,0,0,0,1.46-.39c.07-1.64-.74-3.26-1.1-4.86a35.56,35.56,0,0,1-.8-6.18c0-.13-.17-.12-.19,0Z"/><path class="cls-67" d="M1020.09,623.45v-3.83a.7.7,0,0,0-1.4,0c-.57,9.81,1.08,20,1.93,29.73s1.63,19.82,2.58,29.72c.77,8,2.21,16,2.5,24,.25,7.07.34,14.15.13,21.22-.49,17-1.61,34.32-6.23,50.79a413.49,413.49,0,0,1-19.19,54.79,3,3,0,1,0,5.45,2.29c7.12-18.3,11-37.55,15.29-56.65,3.76-16.67,8.47-32.76,8.69-50a407.13,407.13,0,0,0-2.49-46.44c-1-10.26-2.27-20.5-3.41-30.75-1.07-9.56-1.44-19.55-3.87-28.88l-1.36.37,1.18,3.67a.1.1,0,0,0,.19,0Z"/><path class="cls-67" d="M981.15,832.47c4.15,1.76,8.48,1.77,13,1.91,5.34.16,11,.93,16.34.34,2.16-.24,3.09-3.61.56-4.13-4.82-1-9.94-.78-14.86-1.11s-9.94-1-14.67.49c-1,.32-1.49,2-.32,2.5Z"/><path class="cls-67" d="M952.72,625.81a41,41,0,0,0,13.85-.18l-2.23-2.23c-1.12,3.5-.93,6.47-.65,10.07.38,4.93-1.28,6.06-4.46,8.84-1.77,1.56-3.56,3.11-5.37,4.63l2.73.35a18.6,18.6,0,0,0-2.37-3.82c-1.7-2.05-2-1.75-2.12-4.43-.19-4.4.69-8.76.08-13.14-.21-1.54-2.57-1.35-2.92,0a49.56,49.56,0,0,0-1.41,15c.32,3.54,4,5.19,5.74,8.18a1.76,1.76,0,0,0,2.73.35c3.46-3,9-6.19,10.66-10.72a10.24,10.24,0,0,0,.4-4.3c-.23-3.74-.77-6.28.45-10a1.83,1.83,0,0,0-1.74-2.29,75.61,75.61,0,0,0-13.37.32,1.71,1.71,0,0,0,0,3.42Z"/><path class="cls-67" d="M1355,840.71a64.79,64.79,0,0,0-4.69-7.12c-1.26-1.64-3-4.29-4.78-5.33-3.21-1.83-3.3,3.4-2.6,5.18,1,2.46,4.5,8.4,7.54,8.53,1.33.06,2-1,2.44-2.09a23.8,23.8,0,0,1,1.85-4.12c.13-.2,3.25-4.19,3.61-3.79l-.32-1.21c-.81,5.14-6.46,9.44-10.76,11.56l2.09,2.09c1.82-4,6.78.08,9.16,1.22,2,1,3.85-2,1.8-3.08-4.26-2.23-11.19-5.61-13.76.68-.53,1.31,1.19,2.3,2.25,1.72a25.87,25.87,0,0,0,10.55-10.64c.64-1.21,1.75-3,.59-4.28-1-1-2.34-.53-3.36.12a15.1,15.1,0,0,0-4.69,5.67c-.29.57-.8,2.81-1.2,3.06-1.19.74-2.89-1.7-3.5-2.43-1.36-1.61-2.3-2.8-2.5-4.91-.26-2.89.4-1.06,1.31,0,.48.53.94,1.07,1.4,1.62a74.68,74.68,0,0,1,6.18,8.4.8.8,0,0,0,1.39-.81Z"/><path class="cls-67" d="M1319.31,844.54a11.07,11.07,0,0,0,2.91,4.14,13,13,0,0,0,4.43,3.3c1.54.65,2.64-1.65,1.57-2.7a25.65,25.65,0,0,0-4.18-3,18.94,18.94,0,0,0-4.07-2.44.54.54,0,0,0-.66.66Z"/><path class="cls-67" d="M1327.22,843a44.46,44.46,0,0,0,3.36,3.07,30.1,30.1,0,0,0,3.29,3.1c1.2.85,2.37-.75,1.84-1.84a9.55,9.55,0,0,0-3.62-3.6,9,9,0,0,0-4.43-1.77c-.58,0-.75.67-.44,1Z"/><path class="cls-67" d="M1335.53,840.35a19,19,0,0,0,4.8,6.62,1.18,1.18,0,0,0,1.84-1.43,19.29,19.29,0,0,0-5.8-6c-.56-.38-1.07.34-.84.84Z"/><path class="cls-67" d="M1312.85,859.44c10.41,2.3,21.94,1.33,32.54,1.11,11.49-.23,23-.9,34.43-1.63a1.82,1.82,0,0,0,1.78-1.78,40.45,40.45,0,0,0-2.1-16.74,1.47,1.47,0,0,0-2.83.78,69,69,0,0,1,1.38,16l1.77-1.77c-11.46.84-22.94,1.33-34.43,1.74-10.68.38-22-.45-32.54,1.63a.36.36,0,0,0,0,.7Z"/><path class="cls-67" d="M1377.32,839.47c-7.47.7-14.51,7.84-14.36,15.54a1.21,1.21,0,0,0,2.36.32c1.73-6.93,5.38-11.87,12.18-14.56.63-.25.63-1.37-.18-1.3Z"/><path class="cls-69" d="M1011.91,530c3.5,1.9,6.64,4.67,10.43,6,2.28.8,4.63,1.19,6.9,2.08a11.48,11.48,0,0,0,5,1.25,1.23,1.23,0,0,0,.62-2.28c-7.26-3.67-15.65-3.39-22.89-7.12-.06,0-.11.06-.05.09Z"/><path class="cls-69" d="M1037.07,502.92c-3.36,7-4.4,14.57-4.63,22.25-.16,5.14-1.38,13.5,3.24,17.17.82.65,2.56.08,2-1.19-2.28-5.56-1.65-11.06-1.07-16.93a170,170,0,0,1,3.37-20.06c.37-1.69-2.12-3-3-1.24Z"/><path class="cls-68" d="M947,840c2.17-2.59,4.83-4.46,7.38-6.64.81-.7-.24-2-1.13-1.46-3,1.76-5.1,4.74-6.79,7.69-.19.32.28.72.54.41Z"/><path class="cls-68" d="M952.25,843.11c2.3-2.73,5.19-4.74,7.84-7.1,1-.89-.3-2.54-1.42-1.84-3.22,2-5.35,5.09-7.26,8.29-.31.51.44,1.13.84.65Z"/><path class="cls-68" d="M941.22,837.82c3.11-2.41,6.72-4.49,9.42-7.34.72-.75,0-2.31-1.09-1.88-3.94,1.54-7,5-9.33,8.45-.44.65.48,1.18,1,.77Z"/><path class="cls-68" d="M1009.13,841.5a24,24,0,0,1,3.46-4.25c1.12-1.1,2.94-2.19,3.18-3.86a1.25,1.25,0,0,0-1.18-1.55c-2-.26-3.59,1.72-4.72,3a28.82,28.82,0,0,0-3.45,5,1.57,1.57,0,0,0,2.71,1.58Z"/><path class="cls-68" d="M1013.15,842.8a48.94,48.94,0,0,0,4.55-3c1.45-1.08,3-2,3.68-3.75.42-1.16-.83-2.1-1.87-1.87-1.83.41-3,2.13-4.08,3.51a23.4,23.4,0,0,0-2.82,4.58.4.4,0,0,0,.54.53Z"/><path class="cls-68" d="M1019.24,844.65a38.06,38.06,0,0,1,4.7-3.48c1.73-1.2,3.28-2.09,4.09-4.09.46-1.13-.68-2.07-1.65-2.17-4.57-.45-7.24,5.43-8.53,8.93-.31.82.83,1.34,1.39.81Z"/><path class="cls-68" d="M917.39,847.2c6.11,3.3,15.16,3.09,21.9,3.15,8.86.07,17.74.13,26.59-.19,2.29-.09,2.24-3.73,0-3.53a143.07,143.07,0,0,1-25.6-.07c-7.09-.61-16.09-2.12-22.88.55,0,0,0,.07,0,.09Z"/><path class="cls-68" d="M983,850.05c17.38,2.71,35.09,5.57,52.73,5.18,2.58-.06,2.43-3.62,0-3.91-17.41-2.1-35.13-1.66-52.64-2-.37,0-.48.62-.09.68Z"/><path class="cls-68" d="M1501,557.18c-1.89,7-.14,15.32.83,22.34.13,1,1.79.75,1.73-.23-.46-7.11.3-15.27-1.8-22.11a.4.4,0,0,0-.76,0Z"/><path class="cls-68" d="M1502.07,580.89c4.84,1.23,9.73,1,14.69,1.08,4.24,0,8.92.77,12.48-1.91,1-.79,1.13-2.7-.4-3-4.34-1-8.76-.09-13.12.4-4.64.53-9.22.83-13.65,2.44a.54.54,0,0,0,0,1Z"/><path class="cls-68" d="M1527,550.81c-1.64,4.09-.71,9-.63,13.3a95.13,95.13,0,0,0,1,13.81c.45,2.64,4.25,1.78,4.42-.6a66.15,66.15,0,0,0-.84-13.83c-.6-4.25-.64-9.18-3.13-12.78a.45.45,0,0,0-.81.1Z"/><path class="cls-4" d="M1489.48,9.19c-5.7,3.91-9.75,13.55-8.84,20.34a2.27,2.27,0,0,0,2.19,1.66c4.11-.08,8.26.17,12.36-.12a23.18,23.18,0,0,1,4.78-.16c1.82.26,3,1,4.82,1.05a2.11,2.11,0,0,0,2-2.66c-3.33-8.29-18.28-3.45-24.59-2.55l2.79,1.58c-1-6.5,5-11.66,6.63-17.48a1.49,1.49,0,0,0-2.16-1.66Z"/><path class="cls-4" d="M1486.68,18.69c2.46-2.37,4-5.26,6.88-7.28,4-2.82,8.33-3.11,13.06-3.11,7.7,0,15.69-.39,21.9,4.94a42.8,42.8,0,0,1,12.13,18c2.47,7.38,2.44,15,4.07,22.51.64,2.91,5.06,3.48,6.44.84,2.3-4.44,1.79-9,1.13-13.83-.71-5.18-1.44-10.49-3.31-15.39-3.29-8.6-10.31-17.95-18.54-22.37-9.19-4.93-19.64-2.93-29.24-.54-6.91,1.72-16.89,7-16,15.56a.89.89,0,0,0,1.5.63Z"/><path class="cls-4" d="M1517.63,35.79c1.59,10.44,1.33,21.1-2.32,31.08-1.07,2.94,3.5,4.08,4.63,1.28,4.36-10.83,2.43-22-1.55-32.56a.39.39,0,0,0-.76.2Z"/><path class="cls-4" d="M1517.67,62.57a32,32,0,0,0,1.24-5.27.61.61,0,0,0-1.17-.32,125.73,125.73,0,0,0-3.21,12.53c-.7,3.28,4.49,4.54,4.93,1.36.87-6.25,1.21-12.57,1.81-18.85h-4.61c-.33,6.14-.76,12.19-2.41,18.14a3,3,0,0,0,2.82,3.71c5.89,0,12.08-3.53,17.15-6.28a57.9,57.9,0,0,0,15.25-11.48c3.55-3.87-2.15-9.63-5.79-5.79-3.86,4.07-8.34,7.39-12.71,10.87-2.1,1.67.18,5,2.52,4.33,6.17-1.75,11.16-5.24,16-9.41l-5.79-5.79c-7.09,7.72-17.71,13.83-27.39,17.79l3.61,3.61c1.35-6.53,1.46-13.06,1.37-19.7,0-3.05-4.26-2.87-4.61,0-.74,6-1.75,12.1-2.22,18.17h5.11a126.4,126.4,0,0,0-.62-13h-1.21a16.07,16.07,0,0,1-.15,5.4.05.05,0,0,0,.1,0Z"/><path class="cls-64" d="M1510.27,25.5a4.48,4.48,0,0,0-3.16,3.95,4.22,4.22,0,0,0,3.21,4.3c4.44,1.22,7.28-3.83,5.46-7.55-2.4-4.91-9-3.52-10.29,1.44-1.17,4.54,2.83,9.13,7.5,8.06,5.19-1.18,6.68-7.89,3-11.45s-9.48-1.55-11.59,2.7c-2.47,5,.72,10.77,6.47,10.51,5.17-.24,9.16-5.49,7.42-10.5a7.2,7.2,0,0,0-8.31-4.81,9,9,0,0,0-6.19,5.66,8.41,8.41,0,0,0,1.44,8.54,6.13,6.13,0,0,0,8.55.81,3.6,3.6,0,0,0,0-5,6.48,6.48,0,0,0-1-.84c-.09-.06-.49-.44-.23-.18s-.09-.28-.14-.11.05.36,0,.53c-.15.55.21-.68,0-.2-.05.14-.45.48-.07.11s-.12.11-.25.12a2.32,2.32,0,0,1-1.48-.24,2,2,0,0,1-.81-1.09c0-.12.07-.47,0-.56s.15-.17.15-.22l-.23.16c.23.08.66-.11.92.05s.69,1.06.78,1.08c.32.07-.85.19,0-.08.13,0,.08-.32-.07-.05,0,0,.45-.53.22-.27.28-.32.34-.05.26-.12s-.61.13-.73-.37.5-.6.81-.48c-.26-.1-1.29.69-1.48,0s.79-.59,1-.6c.48,0,0,.53.42.07.06-.07.41-.92,0-.54a1.68,1.68,0,0,0-1.62-2.79Z"/><path class="cls-2" d="M1510.51,486.82c-1.52,4.16-.47,9.25,0,13.55a41.89,41.89,0,0,0,3.44,13.42c1.77,3.69,7.3,1.69,7.37-2,.12-7.13,1-16.17-2.18-22.75-1.51-3.16-5.61-1.17-5.92,1.61-.39,3.48.53,7,.69,10.54a57.81,57.81,0,0,1-.5,10.6l7.76-1.05a122.31,122.31,0,0,0-3.37-15c-1.06-3.67-2.24-7.41-5.44-9.71a1.29,1.29,0,0,0-1.87.76Z"/><path class="cls-70" d="M1515.57,503.13a3.92,3.92,0,0,0-5.16.32,4.87,4.87,0,0,0-1,5.95c2.94,5.19,10.61,1.18,10.64-3.87,0-3.36-3.43-5.34-6.45-4.93a6.77,6.77,0,0,0-5.45,4.1,6.67,6.67,0,0,0,1.43,7,6.5,6.5,0,0,0,7.51,1.37,6.24,6.24,0,0,0,3.32-7.39c-1.16-3.41-5.85-6-8.71-2.74a3.9,3.9,0,0,0,.78,6l-.48-.36.85.65a5.83,5.83,0,0,0,1.13.46c.21.07.17.05-.12-.07a2.17,2.17,0,0,1-1.07-2.63,1.2,1.2,0,0,1,.46-.89l-.22.21a2.31,2.31,0,0,1,.69-.46,1.73,1.73,0,0,1,.93,0c.2.05.9.62.65.35s.19.39.23.45c.09.25.1.28,0,.07s-.06-.19,0,.1a1.92,1.92,0,0,1-.21,1.16c-.13.21-.49.5-.11.17-.19.16-.57.42-.13.17a1.93,1.93,0,0,1-1,.26c.66,0-.32-.14-.49-.19s-.31-.14-.1,0,.19.06-.25-.2l-1-1.74a1.73,1.73,0,0,1,.14-1.29c.12-.24.09-.2-.08.14s-.24.37-.09.19.12-.13-.13.15l.2-.17a1.34,1.34,0,0,1,1.27-.11c.37.1.78.19.94.59a1.31,1.31,0,0,1,0,.59c0,.12-.43.41.05,0s.59-.78.92-1a1.39,1.39,0,0,0,0-2.36Z"/><path class="cls-70" d="M1512.78,511.14c-1.72,2.13-2.06,5.64-1.53,8.24.42,2.06,3.16,1.65,3.77,0,.85-2.27,1.09-5.69,0-7.94a1.46,1.46,0,0,0-2.28-.3Z"/><path class="cls-70" d="M1485.23,504.2c-1.68,1.49-2.41,3.8-3.21,5.84-.9,2.31-2.33,4.4-3.24,6.68-1.66,4.2,2.75,5,6,4.91,4.4-.11,3.33-7.1-.79-5.84a14.15,14.15,0,0,0-1.66.49l1.32,2.28-.27.86c.24-.45.46-.9.66-1.37s.5-1.13.73-1.7q.95-2.25,1.66-4.56c.73-2.39,1.28-5.05.23-7.4a.94.94,0,0,0-1.46-.19Z"/><path class="cls-68" d="M1542.38,147.29a68.18,68.18,0,0,0-2.89,6.26c-.09.26.31.42.45.19a65.93,65.93,0,0,0,2.87-6.21c.13-.28-.29-.53-.43-.24Z"/><path class="cls-68" d="M1534.86,163.46l-1.89,3.32c-.09.17.17.32.25.15l1.73-3.42s-.06-.1-.09,0Z"/><path class="cls-68" d="M1532.87,166.1c3-6.16,7.25-11.87,10-18.13.14-.33-.26-.74-.54-.42-4.4,5.2-7,12.25-9.53,18.51,0,.05.06.09.09,0Z"/><path class="cls-68" d="M1595,135.46c-3.6,14.49-18.1,22.63-26.65,33.92a124.31,124.31,0,0,0-11,17.89c-3.09,5.95-6.56,12.19-8.61,18.59a.94.94,0,0,0,1.7.72c3.85-6.52,6.37-13.9,9.93-20.61a117.75,117.75,0,0,1,12.72-19.51c8-9.87,21.79-16.9,22.34-30.93a.25.25,0,0,0-.48-.07Z"/><path class="cls-68" d="M1543.8,207.43a3.7,3.7,0,0,0,2,2.17,3.82,3.82,0,0,0,3.72.1,1.74,1.74,0,0,0,.87-1.51,2,2,0,0,0-2.47-1.76,15,15,0,0,1-3.41.13.7.7,0,0,0-.66.87Z"/><path class="cls-68" d="M1549.05,208.44c3,9.09,8.61,17.06,13.5,25.24,5.17,8.65,9.28,18.72,15.59,26.57.66.82,2.21-.07,1.8-1-3.74-9-10.34-17.19-15.32-25.56s-10.23-16.85-14.67-25.59a.49.49,0,0,0-.9.38Z"/><path class="cls-68" d="M1508.3,181.35c1.69,2.72,3.4,5.41,5.13,8.11,1.53,2.4,3,5.22,5.07,7.21a.74.74,0,0,0,1.22-.71c-1-5.9-6.14-11.54-10.5-15.32-.48-.42-1.29.11-.92.71Z"/><path class="cls-68" d="M1581.28,138.15c-18.69,18.78-31.61,43.72-43.28,67.21-.39.79.8,1.49,1.18.69a325.82,325.82,0,0,1,19.76-34.78c7.27-11.16,15.44-21.7,22.57-33,.09-.14-.11-.29-.23-.17Z"/><path class="cls-68" d="M1546.48,223.28c4.5,13.33,12,25.32,20.29,36.6,8.38,11.45,17.11,22.17,28,31.33,1,.83,2.42-.52,1.46-1.45-10-9.81-20.32-20-28.44-31.5-7.9-11.17-14.29-23.25-21.07-35.09-.08-.15-.33,0-.27.11Z"/><path class="cls-68" d="M1571.87,134.53c-1.93,2.57-.37,6.46,2.1,8,1.58,1,2.87-1.39,1.44-2.45-1.79-1.32-2.3-3.19-2.45-5.29a.59.59,0,0,0-1.09-.3Z"/><path class="cls-67" d="M1584.52,84.34c-3.18,4.33-6.89,8.19-10.15,12.44-.61.79.72,1.81,1.38,1.07,3.54-3.95,6.26-8.86,8.85-13.46,0-.06,0-.1-.08,0Z"/><path class="cls-67" d="M1589.37,93.5c-6.33,8.23-14,14.48-21.57,21.42-.58.53.17,1.45.83,1.07,8.89-5,15.93-13.67,21.24-22.19.21-.33-.28-.59-.5-.3Z"/></g></g></svg>