<svg xmlns="http://www.w3.org/2000/svg" viewBox="0 0 244.84 244.84"><defs><style>.cls-1{fill:#fff;}.cls-2{fill:#61e6ba;}</style></defs><g id="Layer_2" data-name="Layer 2"><g id="Layer_1-2" data-name="Layer 1"><path class="cls-1" d="M122.42,244.84A122.42,122.42,0,1,1,244.84,122.42,122.56,122.56,0,0,1,122.42,244.84ZM122.42,7A115.42,115.42,0,1,0,237.84,122.42,115.55,115.55,0,0,0,122.42,7Z"/><rect class="cls-2" x="62.62" y="52.35" width="122.18" height="137.32" rx="17.45"/><path class="cls-1" d="M167.35,193.17H80.08a21,21,0,0,1-21-20.95V69.81a21,21,0,0,1,21-21h87.27a21,21,0,0,1,21,21V172.22A21,21,0,0,1,167.35,193.17ZM80.08,55.85a14,14,0,0,0-14,14V172.22a14,14,0,0,0,14,13.95h87.27a14,14,0,0,0,14-13.95V69.81a14,14,0,0,0-14-14Z"/><path class="cls-1" d="M152.49,209.84,73.36,194.61c-5.93,0-10.74-6-10.74-13.29V64.92c0-7.34,4.81-13.29,10.74-13.29l79.13,15.23c5.93,0,10.74,6,10.74,13.29v116.4C163.23,203.89,158.42,209.84,152.49,209.84Z"/><path class="cls-2" d="M59.15,94.75a13,13,0,1,1,0-26.08v6a7,7,0,1,0,0,14.08Z"/><path class="cls-2" d="M67.73,84.68a3,3,0,0,1-3-3,7.05,7.05,0,0,0-7-7,3,3,0,1,1,0-6,13.06,13.06,0,0,1,13,13A3,3,0,0,1,67.73,84.68Z"/><path class="cls-2" d="M59.38,114.85a13,13,0,1,1,0-26.07v6a7,7,0,1,0,0,14.07Z"/><path class="cls-2" d="M68,104.79a3,3,0,0,1-3-3,7.05,7.05,0,0,0-7-7,3,3,0,0,1,0-6,13.06,13.06,0,0,1,13,13A3,3,0,0,1,68,104.79Z"/><path class="cls-2" d="M59.29,135.84a13,13,0,1,1,0-26.08v6a7,7,0,1,0,0,14.08Z"/><path class="cls-2" d="M67.87,125.77a3,3,0,0,1-3-3,7.05,7.05,0,0,0-7-7,3,3,0,0,1,0-6,13.06,13.06,0,0,1,13,13A3,3,0,0,1,67.87,125.77Z"/><path class="cls-2" d="M59.52,156a13,13,0,0,1,0-26.08v6a7,7,0,0,0,0,14.08Z"/><path class="cls-2" d="M68.1,145.88a3,3,0,0,1-3-3,7.05,7.05,0,0,0-7-7,3,3,0,0,1,0-6,13.06,13.06,0,0,1,13,13A3,3,0,0,1,68.1,145.88Z"/><path class="cls-2" d="M59,175a13,13,0,0,1,0-26.08v6A7,7,0,0,0,59,169Z"/><path class="cls-2" d="M67.55,164.91a3,3,0,0,1-3-3,7.05,7.05,0,0,0-7-7,3,3,0,1,1,0-6,13.06,13.06,0,0,1,13,13A3,3,0,0,1,67.55,164.91Z"/></g></g></svg>