<svg xmlns="http://www.w3.org/2000/svg" viewBox="0 0 651.5 688.59"><defs><style>.cls-1{fill:none;}.cls-2{fill:#7876fd;}.cls-3{fill:#fff;}.cls-4{fill:#61e6ba;}.cls-5{fill:#0a2d4e;}.cls-6{fill:#e5a87a;}.cls-7{fill:#224d70;}.cls-8{fill:#386a8c;}.cls-9{fill:#6565e5;}.cls-10{fill:#895b12;}.cls-11{fill:#59d3a7;}.cls-12{fill:#2b5c77;}.cls-13{fill:#193f59;}.cls-14{fill:#dedddd;}</style></defs><g id="Layer_2" data-name="Layer 2"><g id="Layer_1-2" data-name="Layer 1"><path class="cls-1" d="M88.38,617.72h-.15l.15,0Z"/><path class="cls-1" d="M455.57,440.25l0,.21-2.06,1.18,3.78,3.45,9.73,0c1.33-2.17,2.66-4.34,4-6.54C465.89,439.18,460.67,439.76,455.57,440.25Z"/><path class="cls-1" d="M402.48,476a1,1,0,0,1-.91-.23,3.87,3.87,0,0,1-1.24-.53c-.72-.47-1.42-1-2.1-1.52-6.41,7.15-12.79,13.66-19.07,19.59h17.38a92.61,92.61,0,0,1,28.11,4.35,123.46,123.46,0,0,1-19.15-22.95,20,20,0,0,1-3,1.32Z"/><path class="cls-1" d="M66.1,682.07c.48.29,1.06-.44,1.65-1.74l-1.61.36C66,681.42,65.9,682,66.1,682.07Z"/><path class="cls-1" d="M76.91,679.62c1.46.43,1.59-.66,1.3-2-.71.21-1.49.42-2.33.65C76.19,679,76.54,679.51,76.91,679.62Z"/><path class="cls-1" d="M70.53,654.33c-6.51-.39-13-.69-19.26-1l-1.87.06A93.12,93.12,0,0,0,70.53,654.33Z"/><path class="cls-1" d="M450.47,404.92l1.6,11.13c7.11,1.17,16.89,2.66,29.19,4.25a549.1,549.1,0,0,0,34.3-78.87c14.65-42.25,25.3-88.34,31.91-137.84-1.62.14-3.26.23-4.92.23a57.25,57.25,0,0,1-35.41-12.21C499.21,279.77,477.34,347,450.48,398,450.51,402.23,450.47,404.92,450.47,404.92Z"/><path class="cls-1" d="M488.21,545.93l1.93-2a169.23,169.23,0,0,0-20.57-15,92.25,92.25,0,0,1,12.32,20.91A70.41,70.41,0,0,1,488.21,545.93Z"/><path class="cls-1" d="M168.21,461.13l-.07,10s14.27,4.82,26.22,8.35c-6.66-7.36-12.93-15.07-18.84-23.05A23.68,23.68,0,0,1,168.21,461.13Z"/><path class="cls-1" d="M505.78,563.44a8.74,8.74,0,0,1,2.6,1.4,1,1,0,0,1-.17,1.58c5.29,6.53,13.71,17,19.34,24.28-1.4-2-2.71-3.93-3.92-5.67-6.81-9.77-12.33-18.46-19.5-27l-.83,2.32Z"/><path class="cls-1" d="M233.68,543.75c-1.18,8.64-2.4,15.91-3.84,22.06a289.62,289.62,0,0,0,48.8,27.12V586a92.2,92.2,0,0,1,9.35-40.6,240.08,240.08,0,0,1-56.81-32A69,69,0,0,1,233.68,543.75Z"/><path class="cls-1" d="M129.16,433.88l-.24,0A5.65,5.65,0,0,1,126.86,423c-.13-1-.26-2.24-.36-3.62-1.69-5.2-1.94-11.52-2.32-16.87-.34-4.81-.08-9.78,1.76-14.3a16.07,16.07,0,0,1,6.22-7.78C77.63,256,78.91,114,78.91,114c149.15,8.41,216.51-54.91,216.51-54.91,47.69,58,157.5,58.24,198.81,56.1a57.48,57.48,0,0,1,61.23-24.87q.09-7.66.1-15.41A569,569,0,0,1,454,74.07c-33.15-3.37-62.67-9.81-87.73-19.13C336,43.66,312.09,28.1,295.28,8.65c-6.6,5.54-26.89,21.1-62.54,36C193.28,61,126.86,79.49,33.7,74.73c.17,18.7,2.45,118,31.57,225.78,17.67,65.41,41.85,121.87,71.93,168,1.73-.45,2.7-.65,2.7-.65l-.13-9.86C133.35,452.77,130,444.06,129.16,433.88Z"/><path class="cls-1" d="M521.92,479.51c0-1.06-11.3.35-24.8,2.42,1.78,1.67,3.56,3.34,5.31,5,1.55,1.43,3.07,2.88,4.58,4.34l5.34,5.1C517.73,487.59,521.92,480.45,521.92,479.51Z"/><path class="cls-1" d="M610.57,665.25c-.88-1.75-2-3.1-3-2.23-.55.5-.31,2,0,3.13l2.21.28C610.09,666,610.32,665.63,610.57,665.25Z"/><path class="cls-2" d="M186.28,423.88h.06l-.05-.13Z"/><path class="cls-2" d="M312.48,217.06H275.55a3.24,3.24,0,0,0-3.2,3.2v31.6h43.33v-31.6A3.24,3.24,0,0,0,312.48,217.06Z"/><path class="cls-2" d="M398.23,473.73C391,468,386.34,458.8,383.32,450.38c-3.88-10.84-5.07-22.53-5.76-33.95-1-16.09-1.08-33.46,6.07-47.68a77.85,77.85,0,0,1,5.08-10.31c-3.73,2.44-6.08,4.13-6.08,4.13s1.84-2.34,4.07-8.68,20.34-20.63,24.12-33.82-1.3-24.05,8.58-38c7.39-10.43,19.57-3.76,25.24.26a53.23,53.23,0,0,1,14.11-2.82c19.76-1.74,18.6,16.85,18.6,16.85a29,29,0,0,0,1.38,6.55s-.53,0-1.74-.17c.45,3.1,1.41,11.43-.11,17.47-1.3,5.14-1,11.16-.75,14.49a2,2,0,0,1-2.29,2.13c-2.29-.37-5.34-.87-5.91-1-.93-.23-5.7,12.69-11.11,12.17-3.66-.34-6.86-2.33-10.58-5.76l-2.66,3.46.25.25c5.71,6.4,6.56,37.89,6.65,52.05,26.86-51,48.73-118.22,56.66-206.38a57.46,57.46,0,0,1-12.91-76.46c-41.31,2.14-151.12,1.89-198.81-56.1,0,0-67.36,63.32-216.51,54.91,0,0-1.28,142.07,53.25,266.46a12.75,12.75,0,0,1,1.47-.76c4.15-1.76,8.22-.39,12.4.41,11.09,2.12,21.95-4,32.56,1.52,4.46,2.33,7,6.25,8.23,11.08a67.49,67.49,0,0,1,2,16.72,3.72,3.72,0,0,1-.36,1.5c-.54,4.12-1.26,8.12-2.15,12.22l0,.06c0,.15,0,.3,0,.45l.05.26a5.65,5.65,0,1,1,0,11.3,5.78,5.78,0,0,1-1.87-.32c-.69,9.07-3.64,16.57-8.95,21.58,5.91,8,12.18,15.69,18.84,23.05,5.22,1.55,10,2.85,12.95,3.39,6.48,1.19,18.24,12.71,23.87,30.53a240.08,240.08,0,0,0,56.81,32,92.67,92.67,0,0,1,83.32-52.07h2.5l0,0a1.19,1.19,0,0,1,1.18,0h4.13C385.44,487.39,391.82,480.88,398.23,473.73Zm-39.05-98.52a12,12,0,0,1-12,12H240.86a12,12,0,0,1-12-12V263.86a12,12,0,0,1,12-12h12.3v-31.6a22.43,22.43,0,0,1,22.39-22.4h36.93a22.42,22.42,0,0,1,22.39,22.4v31.6h12.31a12,12,0,0,1,12,12Z"/><path class="cls-3" d="M229.84,565.81q-.76,3.29-1.63,6.16a295,295,0,0,0,50.43,27.48v-6.52A289.62,289.62,0,0,1,229.84,565.81Z"/><path class="cls-3" d="M65.27,300.51C36.15,192.77,33.87,93.43,33.7,74.73c93.16,4.76,159.58-13.7,199-30.13,35.65-14.85,55.94-30.41,62.54-35.95,16.81,19.45,40.68,35,71,46.29C391.33,64.26,420.85,70.7,454,74.07a569,569,0,0,0,101.56.8q0,7.75-.1,15.41a57,57,0,0,1,6,1.72q.15-10.16.11-20.45l0-3.33-3.31.37a553.06,553.06,0,0,1-103.73-.5C361.92,58.66,318.25,27.2,297.92,2.47l-2-2.47-2.33,2.19c-.21.19-20.92,19.35-63.46,37C190.82,55.51,124.37,73.84,30.86,68.57l-3.14-.17,0,3.14c0,1.09-.61,110.59,31.75,230.4,17.66,65.39,41.78,122,71.78,168.39,2.46-.82,4.5-1.41,6-1.8C107.12,422.38,82.94,365.92,65.27,300.51Z"/><path class="cls-3" d="M515.56,341.43a549.1,549.1,0,0,1-34.3,78.87l4.93.62c.49.06,1,.14,1.45.21a556.31,556.31,0,0,0,33.48-77.44c15-43.18,25.85-90.31,32.52-140.95a56.88,56.88,0,0,1-6.17.85C540.86,253.09,530.21,299.18,515.56,341.43Z"/><path class="cls-3" d="M467.05,445.12l7,.05q2.24-3.71,4.41-7.47l-7.46.88C469.71,440.78,468.38,443,467.05,445.12Z"/><path class="cls-3" d="M272.35,220.26a3.24,3.24,0,0,1,3.2-3.2h36.93a3.24,3.24,0,0,1,3.2,3.2v31.6h19.19v-31.6a22.42,22.42,0,0,0-22.39-22.4H275.55a22.43,22.43,0,0,0-22.39,22.4v31.6h19.19Z"/><path class="cls-4" d="M347.18,251.86H240.86a12,12,0,0,0-12,12V375.21a12,12,0,0,0,12,12H347.18a12,12,0,0,0,12-12V263.86A12,12,0,0,0,347.18,251.86ZM277.4,358.26,289.07,320a16.23,16.23,0,1,1,9.89,0l11.67,38.27Z"/><path class="cls-5" d="M310.24,304.54A16.23,16.23,0,1,0,289.07,320L277.4,358.26h33.23L299,320A16.22,16.22,0,0,0,310.24,304.54Z"/><path class="cls-6" d="M503.3,560.39l.83-2.32a124.51,124.51,0,0,0-14-14.15l-1.93,2Z"/><path class="cls-3" d="M508.11,566.47a2.37,2.37,0,0,1,.13,1.4,1.6,1.6,0,0,1,1.28,2.68,5.46,5.46,0,0,1-2.68,1.31l-.13,0a53.57,53.57,0,0,0-2.46,10.5,2.25,2.25,0,0,1-1.33,1.81c2.53,1.88,5,3.84,7.39,6,3,2.66,5.77,5.52,8.51,8.45a5.47,5.47,0,0,1,2-2.18,15.23,15.23,0,0,1,4.26-1,19.8,19.8,0,0,1,5.14-.45l.27,0-3-4.33c-5.63-7.31-14-17.75-19.34-24.28Zm5.81,8.11a2.57,2.57,0,0,1-1.51,3.72A18.78,18.78,0,0,1,510,579a6.12,6.12,0,0,1-1.48.06,11.44,11.44,0,0,0-1.15-.18c-.68,0-1.19-1-.59-1.44s.94-1.22,1.48-1.73,1.17-1,1.72-1.62A2.56,2.56,0,0,1,513.92,574.58Z"/><path class="cls-3" d="M530.24,600.51c-2.44.15-4.87-.34-7.32-.35-.74,0-1.72.15-2.59.1,1.94,2.11,3.84,4.24,5.73,6.36a.47.47,0,0,1-.66.66c-10.51-10-21.24-20-32-29.74,0,0,0-.1.06-.07,2.19,1.56,4.38,3.08,6.55,4.63a30.89,30.89,0,0,1,2.67-12.26c-3.59.1-7.69-.71-6.41-4.5,1.15-3.39,6.06-3.16,9.47-1.9l-2.48-3.05-15.09-14.46a70.41,70.41,0,0,0-6.32,3.92A92.13,92.13,0,0,1,489,579c15.44,14.82,36.47,34.48,36.47,34.48s10.16-7.29,7.92-14.31l-.52-.75A2.63,2.63,0,0,1,530.24,600.51Z"/><path class="cls-4" d="M455.57,440.25l-3.19.3a4.8,4.8,0,0,0-2.67.23c-14.86,1.23-27.71,1.37-32.06-1.7-6.79-4.79-7.12-21.94-6.18-35.6.24-3.58.47-8.83,1-14.46-2.4-.21-4.55-.83-4.7-3.8-.28-5.31,2.53-12.17,4.62-16.94,1.65-3.77,4-9.82,8.14-11.3a.09.09,0,0,1,.12.09c.18,4.07-3.26,8.45-4.73,12.19a71,71,0,0,0-3.9,13.61c-.45,2.47-.41,1.61,1.55,2.18a19.58,19.58,0,0,0,3.84.24q4.3.3,8.6.79c5,.58,9.93,1.38,14.84,2.43,2.87.61,1.83,4.82-.87,4.65l-1.7,20.41s4.71,1,13.79,2.48l-1.6-11.13s0-2.69,0-6.93c-.09-14.16-.94-45.65-6.65-52.05l-.25-.25c-3.84-4.14-10.57-7.27-16.28-9.35-.62,2.81-1,4.54-1,4.54-12.24,1.91-28.82,11.82-37.62,17.56a77.85,77.85,0,0,0-5.08,10.31c-7.15,14.22-7.05,31.59-6.07,47.68.69,11.42,1.88,23.11,5.76,33.95,3,8.42,7.69,17.66,14.91,23.35.68.54,1.38,1,2.1,1.52a3.87,3.87,0,0,0,1.24.53,1,1,0,0,0,.91.23l0,0a20,20,0,0,0,3-1.32,44.38,44.38,0,0,0,5.06-3.21,57.92,57.92,0,0,0,10.05-6.68c4.17-3,8.19-6.27,12.1-9.61,1.54-1,3.08-2.06,4.6-3.11a54.77,54.77,0,0,0,6.56-5l.31-.11c1.23-.52,2.43-1.21,3.61-1.85,1.95-1.05,4.4-1.49,5.69-3.4a.78.78,0,0,0,0-.14h0l2.06-1.18Zm-50.48,28.94s-.11,0-.06-.08a182.13,182.13,0,0,1,42.11-25.84c.7-.3,1.31.64.61,1.05C433.54,452.64,419.18,460.66,405.09,469.19Z"/><path class="cls-6" d="M481.26,420.3c-12.3-1.59-22.08-3.08-29.19-4.25-9.08-1.5-13.79-2.48-13.79-2.48l1.7-20.41a1.87,1.87,0,0,1-.4,0,200.48,200.48,0,0,0-24.09-3.92c-1-.08-2-.1-3-.18-.53,5.63-.76,10.88-1,14.46-.94,13.66-.61,30.81,6.18,35.6,4.35,3.07,17.2,2.93,32.06,1.7a4.8,4.8,0,0,1,2.67-.23l3.19-.3c5.1-.49,10.32-1.07,15.44-1.67l7.46-.88c16.09-1.91,29.79-3.55,32.85-2.22,2.2.95,4.59,2.14,6.88,3.34h15.51c-9.75-6.1-26.65-14.95-46.07-17.69-.48-.07-1-.15-1.45-.21Z"/><path class="cls-6" d="M592.7,652.2a148,148,0,0,1-15.2,6.41V665h20.9Z"/><polygon class="cls-3" points="485.25 438.82 485.25 445.06 566.67 445.06 566.67 438.82 566.14 438.82 600.05 372.98 594.08 370.25 558.76 438.82 533.71 438.82 518.2 438.82 485.25 438.82"/><path class="cls-3" d="M613.74,670.83a6.57,6.57,0,0,1,4.4,2,1.75,1.75,0,0,1,.28.33,16.75,16.75,0,0,1,2.43-5.32l-3.86-.51c-.7.75-1.41,1.49-2.09,2.23Z"/><path class="cls-3" d="M645,671.49l-1-.2h0c-1.64,1.55-3.35,3.11-4.83,4.81-2,2.31-2.41,4.45-2.73,7.37a1.78,1.78,0,0,1-.34.86c2.64,0,5.28.13,7.93.28a.57.57,0,0,1,0,1.13c-9.9-.1-19.78-1.07-29.68-.74s-19.74-.28-29.68-.79a.14.14,0,1,1,0-.28c10-.43,19.72-.84,29.68-.14,6.26.44,12.53.43,18.79.5a3.07,3.07,0,0,1-.11-.36c-1.32-6.17,4.83-10.57,9.74-12.87-2.56-.46-6.13-1-10.15-1.59l-.22.24c-.64.74-1.25,1.5-1.87,2.24-1.32,1.56-2.71,3.06-4,4.64-1.86,2.26-5.44-1.19-3.25-3.25a62.53,62.53,0,0,1,4.74-4.17l.38-.3-1.92-.26c-.84.79-1.76,1.5-2.56,2.37a26,26,0,0,0-3,4.24,1.37,1.37,0,0,1-2.26.22,2.36,2.36,0,0,1-3.35,1.15c-1.6-.92-2.77-2-4.71-1.47a3.85,3.85,0,0,0-1.36.67l-2.3,2.49c-1.53,1.66-3.72-.73-2.41-2.42a14,14,0,0,1,1.71-1.83l1.51-1.61a12.5,12.5,0,0,1-3.41-6.69L598.4,665H577.5s-7.3,22.24,1.8,23,71.81,0,71.81,0S653.83,673.42,645,671.49Z"/><path class="cls-3" d="M608.93,668.73a13.21,13.21,0,0,1,.94-2.3l-2.21-.28a9.23,9.23,0,0,0,.56,1.49A6.39,6.39,0,0,0,608.93,668.73Z"/><path class="cls-7" d="M573.48,659.21l.4.59.89-.48A3.82,3.82,0,0,1,573.48,659.21Z"/><path class="cls-7" d="M569.05,651.29c1,1,3.25,4.19,4.64,4.26,2.17.12,6.08-2.69,8.17-3.62,5.36-2.38,10.69-4.83,16-7.4-.94-2.2-1.91-4.38-2.92-6.56a255.06,255.06,0,0,0-23.54,13.45c-.23.15-.47-.18-.29-.37,1.82-1.78,3.72-3.48,5.69-5.12a2.81,2.81,0,0,1-.29-.42q-13.19-24.56-26.21-49.2c-7.44-14-14.49-28.32-22.61-41.95-4.24-7.12-8.8-13.63-14.9-19.3a222.93,222.93,0,0,0-18.15-14.57c-23-17.29-48-35.24-64.75-59-.52-.74.57-1.44,1.17-.91,13.17,11.6,25.89,23.65,39.48,34.77,11.63,9.52,23.25,19.11,34.66,28.88,11.25,9.64,21,20.06,28.42,33,16.2,28.27,31.3,57.25,46.72,86a112.73,112.73,0,0,1,14.54-9.31,2.05,2.05,0,0,1,1-.22c-13-26.06-44.68-89.24-57-108.9,9.57-14.07,21.16-32.26,22.32-39.36,2-12.29-.57-30.42-12-35.53-7.68-3.44-48.91-4.39-75.11-4.64l-7-.05-9.73,0-3.78-3.45h0a.78.78,0,0,1,0,.14c-1.29,1.91-3.74,2.35-5.69,3.4-1.18.64-2.38,1.33-3.61,1.85l-.31.11a54.77,54.77,0,0,1-6.56,5c-1.52,1.05-3.06,2.09-4.6,3.11-3.91,3.34-7.93,6.6-12.1,9.61a57.92,57.92,0,0,1-10.05,6.68,44.38,44.38,0,0,1-5.06,3.21,123.46,123.46,0,0,0,19.15,22.95,92.78,92.78,0,0,1,44.92,31.27,169.23,169.23,0,0,1,20.57,15,124.51,124.51,0,0,1,14,14.15c7.17,8.5,12.69,17.19,19.5,27,1.21,1.74,2.52,3.64,3.92,5.67l3,4.33a2.78,2.78,0,0,1,2.31,3.4l.52.75c12.51,18.41,28.25,42.1,35.92,53.65-.17-.45-.34-.91-.52-1.36C568.66,651.29,568.93,651.17,569.05,651.29Zm-46-187.84c3.86.09,8.52-.17,12.2,1.23,7.77,3,6.59,12.66,4.09,18.74-3.74,9.1-7.91,18-11.71,27a49.35,49.35,0,0,1,8.21,9.84c.79,1.3-.94,2.43-2,1.54-6.85-5.89-12.2-13.46-18.7-19.76S501,490.62,494.09,484.64c-13.62-11.86-27.56-24.07-38.68-38.38-.1-.13.07-.32.2-.19,7.13,6.92,14.53,13.44,22,19.84,10.19-.93,20.34-1.87,30.57-2.3C513.16,463.4,518.14,463.34,523.09,463.45Zm-79.3,4.86a15.79,15.79,0,0,0,.45-14.14.23.23,0,0,1,.4-.24,16.09,16.09,0,0,1,.85,15.37C445,470.44,443.2,469.44,443.79,468.31Z"/><path class="cls-7" d="M478.38,466.53c6.3,5.36,12.68,10.63,19.05,16,1.71,1.43,3.37,2.92,5,4.42-1.75-1.66-3.53-3.33-5.31-5,13.5-2.07,24.8-3.48,24.8-2.42s-4.19,8.08-9.57,16.86l-5.34-5.1c3.62,3.5,7.19,7.06,10.93,10.45,2.4,2.17,4.91,4.3,7.36,6.52,2-7.22,6-14.21,8.58-21.14,1.43-3.85,4-8.2,3.67-12.44-.62-6.93-6.76-6.79-12.13-7C509.74,467.13,493.92,469.32,478.38,466.53Z"/><path class="cls-5" d="M436.77,324.52a28.4,28.4,0,0,1,1.35-7.27s-5.3-11.18.6-18.48,8.18,5.74,8.18,5.74,5.08-5.38,9.92-6.65,13.08-4.07,20,3.64c0,0,.09.46.2,1.24,1.21.15,1.74.17,1.74.17a29,29,0,0,1-1.38-6.55s1.16-18.59-18.6-16.85a53.23,53.23,0,0,0-14.11,2.82c-5.67-4-17.85-10.69-25.24-.26-9.88,13.95-4.81,24.81-8.58,38s-21.89,27.48-24.12,33.82-4.07,8.68-4.07,8.68,2.35-1.69,6.08-4.13c8.8-5.74,25.38-15.65,37.62-17.56,0,0,.35-1.73,1-4.54.89-4.09,2.34-10.49,4.09-17.15A12.08,12.08,0,0,0,436.77,324.52Z"/><path class="cls-6" d="M456.82,348c5.41.52,10.18-12.4,11.11-12.17.57.14,3.62.64,5.91,1a2,2,0,0,0,2.29-2.13c-.29-3.33-.55-9.35.75-14.49,1.52-6,.56-14.37.11-17.47-.11-.78-.2-1.24-.2-1.24-6.89-7.71-15-4.95-20-3.64s-9.92,6.65-9.92,6.65-2.29-13.05-8.18-5.74-.6,18.48-.6,18.48a28.4,28.4,0,0,0-1.35,7.27,12.08,12.08,0,0,1-5.38-5.33c-1.75,6.66-3.2,13.06-4.09,17.15,5.71,2.08,12.44,5.21,16.28,9.35l2.66-3.46C450,345.66,453.16,347.65,456.82,348Z"/><path class="cls-4" d="M469.57,528.94a92.52,92.52,0,0,0-73-35.62H375a1.24,1.24,0,0,1,.24,1.82c-5.24,6.78-11,13.06-16.06,20.06-4.51,6.25-8.92,12.59-12.89,19.2a126.59,126.59,0,0,0-16.92,46.4c-2.76,17.47-3.91,35.28-5.11,52.91q-.87,12.82-1.53,25.65c-.45,8.71-.16,17.77-1.53,26.39-.52,3.28-5.23,2.16-5.43-.73-.68-9.68.7-19.92,1.26-29.61q.78-13.81,1.82-27.61c1.32-17.38,2.55-35,5.67-52.13a122.19,122.19,0,0,1,18.05-45.5c4.6-7.06,9.69-13.79,14.83-20.45,4.54-5.89,9.53-13,16.38-16.4h-2.5A92.62,92.62,0,0,0,278.64,586V688.37h103a2.44,2.44,0,0,1-1.57-2.26c-1.32-31.53-2.4-63.08-2.67-94.64s-1.25-63.37,2.14-94.68a.38.38,0,0,1,.75,0c2.82,31.39,2,63.17,2.61,94.68s1.24,63.1,2.32,94.64a2.23,2.23,0,0,1-1.38,2.26h105.4V586c0-2.35-.09-4.67-.26-7a92.37,92.37,0,0,0-19.38-50.07ZM445.33,686.65c-.08,2-3.17,2-3.09,0,2.41-65.56,9.46-148.69-52.89-190-.21-.14-.08-.53.18-.43,29.75,11.24,46,43.62,52.2,72.92C449.9,607.44,446.93,647.86,445.33,686.65Z"/><path class="cls-8" d="M233.68,543.75a69,69,0,0,0-2.5-30.34c-5.63-17.82-17.39-29.34-23.87-30.53-2.94-.54-7.73-1.84-12.95-3.39-12-3.53-26.22-8.35-26.22-8.35s1.82,9.68-7.63,13.1a24.62,24.62,0,0,0,4.69-1.67.19.19,0,0,1,.19.33c-5.9,3.68-13.78,6.76-20.47,3.24a13.67,13.67,0,0,1-7.24-14.2c0-.16.28-.12.27,0-.28,7.46,4.31,11.25,10.15,12.58-8.73-3.5-8.2-16.68-8.2-16.68s-1,.2-2.7.65c-1.48.39-3.52,1-6,1.8a123.37,123.37,0,0,0-42.88,24.88C74.61,507.6,67.86,535,67.86,535c-14.9,36.51,1.71,53.42,12.6,60.16V538.43h120v60.63a34.48,34.48,0,0,0,5.46-1.36c11.76-4.52,18-11.59,22.29-25.73q.87-2.88,1.63-6.16C231.28,559.66,232.5,552.39,233.68,543.75ZM108,535.39c.26,3.07-4.6,3.08-4.79,0a54.13,54.13,0,0,1,.62-12.13c.44-2.74,4.4-1.88,4.55.62h0A110.6,110.6,0,0,0,108,535.39Zm90.29,2.09c-2.73-3-3.37-7.51-3.11-11.42a1.65,1.65,0,0,1,3.29,0c.08.63.15,1.26.2,1.89.48,2.52,1.72,4.58,2.94,7C202.68,537,200,539.32,198.32,537.48Z"/><path class="cls-9" d="M124.05,625c4.57,1.46,11.34,3.42,16.94,5l.17-.07c8.07-5.17,17-9,26-12.21H88.38v0C102.27,619.89,113.31,621.58,124.05,625Z"/><path class="cls-4" d="M200.46,538.43h-120V616.5l7.77,1.22h79q2.93-1.07,5.85-2.05a205.1,205.1,0,0,1,27.41-7.78V538.43Zm-68.07,36.81c.57-3.27,6.05-3.75,8.59-3.55a2.94,2.94,0,0,1,2.51,4.37,51.12,51.12,0,0,1-3.8,5.48,6,6,0,0,1,3.35.08,2.43,2.43,0,0,1,1.05,4c-2.29,2.68-7.61,2.27-10.8,2.1a2.8,2.8,0,0,1-2-4.72c1.6-2,3.06-4.13,4.53-6.23a5.34,5.34,0,0,1-3.06-.52A1,1,0,0,1,132.39,575.24Z"/><path class="cls-2" d="M184.3,661.32l-.18,0,.18,1.61v-1.64Z"/><path class="cls-2" d="M182.67,673.41l1.63.18v-.93A3.41,3.41,0,0,1,182.67,673.41Z"/><path class="cls-2" d="M179.94,669.41c.58.05,1.25.16,1.87.21.28-1.35.32-2.89.51-4.14s.4-2.6.62-3.9l-4.52.85A40.4,40.4,0,0,0,179.94,669.41Z"/><path class="cls-3" d="M73.7,667.8c0,.26,0,.51-.06.77a24,24,0,0,0,.76,4.8,33.75,33.75,0,0,0,1.48,4.9c.84-.23,1.62-.44,2.33-.65A24.17,24.17,0,0,0,76.93,674C76.27,672.23,75.45,669.23,73.7,667.8Z"/><path class="cls-3" d="M69.55,675c.38-1.41.73-2.87,1-4.19-.38.64-.76,1.29-1.12,2C69.47,673.46,69.51,674.21,69.55,675Z"/><path class="cls-3" d="M80.23,675.2a90.89,90.89,0,0,1,2.8-22l-4.08.07a75.4,75.4,0,0,1-8.42,1.07,93.12,93.12,0,0,1-21.13-1c-6.3.26-12.89,1.38-19.16,1.56-9.88,8-7.82,28.77,7.11,29.2,8.29.24,17.65-1.12,25.74-2.78a22.73,22.73,0,0,1,2.33-7.1,29,29,0,0,1,3.1-13.2.62.62,0,0,1,1.14.31c-.13,2.08-.2,4.13-.24,6.17a15.51,15.51,0,0,1,1-1.25A1,1,0,0,1,71,666c-.29-1.19.65-2.81,2.1-2.25,4.1,1.56,5.11,5.75,6.17,9.64.21.76.69,2.17,1,3.68l.82-.24A1.88,1.88,0,0,1,80.23,675.2Zm-45.54,7.59c-.37.47-1.08-.14-.81-.63,4.83-8.64,2.52-17.45-.55-26.1,0,0,0-.08.07-.06C43,662.33,40.86,675.05,34.69,682.79Zm20.18-9.87c.41,2.56-3.4,2.91-3.4.46a27.58,27.58,0,0,1,.65-6.21c.35-1.57.64-3.42,2-4.43.3-.24.73,0,.83.33.44,1.42-.19,3-.29,4.44A23.89,23.89,0,0,0,54.87,672.92Zm4.5,6.23c0-5.18.59-11.4,2.44-16.27a.42.42,0,0,1,.83.11c.15,5.39-.16,10.75.11,16.16C62.86,681.32,59.37,681.33,59.37,679.15Z"/><path class="cls-3" d="M67,678a25.79,25.79,0,0,0-.89,2.65l1.61-.36c.3-.68.62-1.51.92-2.43A2.3,2.3,0,0,1,67,678Z"/><path class="cls-3" d="M70.67,679c-.06.18-.13.41-.2.66,1.45-.36,2.81-.71,4.06-1a23.83,23.83,0,0,1-2.07-4.83C71.88,675.65,71.21,677.43,70.67,679Z"/><path class="cls-3" d="M198,669.61a20,20,0,0,0,8.28,6.4C205.12,673.18,200.71,670.92,198,669.61Z"/><path class="cls-3" d="M202.53,657.86l-2.81.54h0c-.09,1.32-.68,2.54-.76,3.9a10.61,10.61,0,0,0,.63,4.18,2.46,2.46,0,0,1,.12,1.2c3.58,1.92,8.64,5,9,9,10.6.53,21,.37,22.56-2.11,2.54-4,.46-16.09-6.88-20.86C217.12,655.19,209.81,656.49,202.53,657.86Zm20.93-2a.37.37,0,0,1,.59.45c-2.7,4.8-1.61,9.2.55,13.91a1,1,0,0,1-1.62,1.25C218.44,667.48,219.56,659.91,223.46,655.88ZM210,658.23a.52.52,0,0,1,1,.27,10.29,10.29,0,0,0,1.1,7.37c1.19,2.13-2.47,3.41-2.91,1.23A15.21,15.21,0,0,1,210,658.23Zm-7.48,10.62c-2.25-3.48-.59-6.78,1.38-9.91a.28.28,0,0,1,.51.22c-.32,2.34-.6,5.44,1.35,7.19C207.91,668.29,204.17,671.44,202.49,668.85Z"/><path class="cls-3" d="M195,664.55l.13-.08a11.09,11.09,0,0,1,2.75-5.72l-13.53,2.57V663c.09.79.18,1.57.25,2.36a32,32,0,0,1,.53,5.66,2.43,2.43,0,0,1-.78,1.68v1.09Q189.46,668.95,195,664.55Z"/><path class="cls-3" d="M195.37,669.32a18.45,18.45,0,0,1-3.23,6.15c3,.29,6.53.61,10.29.88A22,22,0,0,1,195.37,669.32Z"/><path class="cls-3" d="M190.35,671.85c-.87.88-1.74,1.77-2.59,2.66A12.89,12.89,0,0,0,190.35,671.85Z"/><path class="cls-10" d="M175.52,456.44c5.31-5,8.26-12.51,8.95-21.58a5.78,5.78,0,0,0,1.87.32,5.65,5.65,0,1,0,0-11.3h-.06a5.61,5.61,0,0,0-2,.38,51.89,51.89,0,0,0-1.78-9.06,122.22,122.22,0,0,0-6.21-12.38,27.86,27.86,0,0,0-2-2.22c-2.83-2.15-6.2-.8-11.15-.23-6.12.7-8.47-.47-17.18-1.89-3.67-.59-7.28,1.53-10.23,4.19-3.85,5.18-6,12.12-6.63,19.94l-.24,0a5.66,5.66,0,0,0,0,11.31l.24,0c.86,10.18,4.19,18.89,10.61,24.14l.13,9.86s-.53,13.18,8.2,16.68a27.54,27.54,0,0,0,12.41-.32c9.45-3.42,7.63-13.1,7.63-13.1l.07-10A23.68,23.68,0,0,0,175.52,456.44Z"/><path class="cls-4" d="M542.55,88.81a57.51,57.51,0,0,0,0,115c1.66,0,3.3-.09,4.92-.23a56.88,56.88,0,0,0,6.17-.85A57.51,57.51,0,0,0,542.55,88.81Zm28.11,30.69,9.91,9.9-48.66,48.65-22.34-22.34,9.9-9.9,12.44,12.44Z"/><polygon class="cls-3" points="531.91 158.25 519.47 145.81 509.57 155.71 531.91 178.05 580.57 129.4 570.66 119.5 531.91 158.25"/><path class="cls-11" d="M132.8,576.25a5.34,5.34,0,0,0,3.06.52c-1.47,2.1-2.93,4.21-4.53,6.23a2.8,2.8,0,0,0,2,4.72c3.19.17,8.51.58,10.8-2.1a2.43,2.43,0,0,0-1.05-4,6,6,0,0,0-3.35-.08,51.12,51.12,0,0,0,3.8-5.48,2.94,2.94,0,0,0-2.51-4.37c-2.54-.2-8,.28-8.59,3.55A1,1,0,0,0,132.8,576.25Z"/><path class="cls-12" d="M108.41,523.88c-.15-2.5-4.11-3.36-4.55-.62a54.13,54.13,0,0,0-.62,12.13c.19,3.08,5.05,3.07,4.79,0a110.6,110.6,0,0,1,.43-11.51Z"/><path class="cls-12" d="M201.64,534.92c-1.22-2.39-2.46-4.45-2.94-7,0-.63-.12-1.26-.2-1.89a1.65,1.65,0,0,0-3.29,0c-.26,3.91.38,8.41,3.11,11.42C200,539.32,202.68,537,201.64,534.92Z"/><path class="cls-12" d="M148.1,484.56c-5.84-1.33-10.43-5.12-10.15-12.58,0-.16-.25-.2-.27,0a13.67,13.67,0,0,0,7.24,14.2c6.69,3.52,14.57.44,20.47-3.24a.19.19,0,0,0-.19-.33,24.62,24.62,0,0,1-4.69,1.67A27.54,27.54,0,0,1,148.1,484.56Z"/><path class="cls-13" d="M445.49,469.3a16.09,16.09,0,0,0-.85-15.37.23.23,0,0,0-.4.24,15.79,15.79,0,0,1-.45,14.14C443.2,469.44,445,470.44,445.49,469.3Z"/><path class="cls-13" d="M600.85,648.26a2.05,2.05,0,0,0,.69-3.24,1.89,1.89,0,0,0,0-1.76q-2.14-4.35-4.13-8.77a1.67,1.67,0,0,0-1.6-.89,2.05,2.05,0,0,0-1,.22,112.73,112.73,0,0,0-14.54,9.31c-15.42-28.7-30.52-57.68-46.72-86-7.39-12.91-17.17-23.33-28.42-33-11.41-9.77-23-19.36-34.66-28.88-13.59-11.12-26.31-23.17-39.48-34.77-.6-.53-1.69.17-1.17.91,16.75,23.78,41.72,41.73,64.75,59a222.93,222.93,0,0,1,18.15,14.57c6.1,5.67,10.66,12.18,14.9,19.3,8.12,13.63,15.17,27.95,22.61,41.95q13.08,24.62,26.21,49.2a2.81,2.81,0,0,0,.29.42c-2,1.64-3.87,3.34-5.69,5.12-.18.19.06.52.29.37A255.06,255.06,0,0,1,594.9,638c1,2.18,2,4.36,2.92,6.56-5.27,2.57-10.6,5-16,7.4-2.09.93-6,3.74-8.17,3.62-1.39-.07-3.64-3.27-4.64-4.26-.12-.12-.39,0-.31.18.18.45.35.91.52,1.36,1,2.88,1.86,5.76,4.22,6.38a3.82,3.82,0,0,0,1.29.11,6.67,6.67,0,0,0,1.71-.35l1-.36a148,148,0,0,0,15.2-6.41C595.44,650.9,598.16,649.57,600.85,648.26Z"/><path class="cls-13" d="M477.65,465.91c-7.51-6.4-14.91-12.92-22-19.84-.13-.13-.3.06-.2.19,11.12,14.31,25.06,26.52,38.68,38.38,6.87,6,14.56,11.09,21.11,17.42s11.85,13.87,18.7,19.76c1,.89,2.77-.24,2-1.54a49.35,49.35,0,0,0-8.21-9.84c3.8-9.05,8-17.92,11.71-27,2.5-6.08,3.68-15.78-4.09-18.74-3.68-1.4-8.34-1.14-12.2-1.23-5-.11-9.93-.05-14.87.16C498,464,487.84,465,477.65,465.91Zm47.77,1.77c5.37.19,11.51.05,12.13,7,.37,4.24-2.24,8.59-3.67,12.44-2.57,6.93-6.61,13.92-8.58,21.14-2.45-2.22-5-4.35-7.36-6.52-3.74-3.39-7.31-7-10.93-10.45-1.51-1.46-3-2.91-4.58-4.34s-3.29-3-5-4.42c-6.37-5.35-12.75-10.62-19.05-16C493.92,469.32,509.74,467.13,525.42,467.68Z"/><path class="cls-14" d="M73.06,663.71c-1.45-.56-2.39,1.06-2.1,2.25a1,1,0,0,0-.53.31,15.51,15.51,0,0,0-1,1.25c0-2,.11-4.09.24-6.17a.62.62,0,0,0-1.14-.31,29,29,0,0,0-3.1,13.2,22.73,22.73,0,0,0-2.33,7.1c-.24,2.35.42,4.18,2.66,4.75,3,.76,4-4,4.72-6.41.07-.25.14-.48.2-.66.54-1.59,1.21-3.37,1.79-5.21a23.83,23.83,0,0,0,2.07,4.83l.07.13c.76,1.31,2.51,4.92,4.66,3.7,1.55-.88,1.43-3.26,1-5.44-.31-1.51-.79-2.92-1-3.68C78.17,669.46,77.16,665.27,73.06,663.71Zm-2.49,7.06c-.29,1.32-.64,2.78-1,4.19,0-.75-.08-1.5-.1-2.24C69.81,672.06,70.19,671.41,70.57,670.77Zm-4.47,11.3c-.2-.12-.15-.65,0-1.38A25.79,25.79,0,0,1,67,678a2.3,2.3,0,0,0,1.64-.14c-.3.92-.62,1.75-.92,2.43C67.16,681.63,66.58,682.36,66.1,682.07Zm10.81-2.45c-.37-.11-.72-.64-1-1.35a33.75,33.75,0,0,1-1.48-4.9,24,24,0,0,1-.76-4.8c0-.26,0-.51.06-.77,1.75,1.43,2.57,4.43,3.23,6.19a24.17,24.17,0,0,1,1.28,3.63C78.5,679,78.37,680.05,76.91,679.62Z"/><path class="cls-14" d="M62.64,663a.42.42,0,0,0-.83-.11C60,667.75,59.37,674,59.37,679.15c0,2.18,3.49,2.17,3.38,0C62.48,673.74,62.79,668.38,62.64,663Z"/><path class="cls-14" d="M54.91,663.07c-.1-.31-.53-.57-.83-.33-1.32,1-1.61,2.86-2,4.43a27.58,27.58,0,0,0-.65,6.21c0,2.45,3.81,2.1,3.4-.46a23.89,23.89,0,0,1-.25-5.41C54.72,666,55.35,664.49,54.91,663.07Z"/><path class="cls-14" d="M33.4,656s-.08,0-.07.06c3.07,8.65,5.38,17.46.55,26.1-.27.49.44,1.1.81.63C40.86,675.05,43,662.33,33.4,656Z"/><path class="cls-14" d="M224.6,670.24c-2.16-4.71-3.25-9.11-.55-13.91a.37.37,0,0,0-.59-.45c-3.9,4-5,11.6-.48,15.61A1,1,0,0,0,224.6,670.24Z"/><path class="cls-14" d="M199.71,667.69a2.46,2.46,0,0,0-.12-1.2,10.61,10.61,0,0,1-.63-4.18c.08-1.36.67-2.58.76-3.9h0l-1.89.35a11.09,11.09,0,0,0-2.75,5.72l-.13.08q-5.5,4.41-10.65,9.2c-.55.51-1.1,1-1.64,1.53a1.62,1.62,0,0,0,.32,2.52c3.62,2.11,6.83.5,9.16-2.33a18.45,18.45,0,0,0,3.23-6.15,22,22,0,0,0,7.06,7,24.51,24.51,0,0,0,4.92,2.35,1.09,1.09,0,0,0,1.36-1,7.21,7.21,0,0,0,0-.93C208.35,672.67,203.29,669.61,199.71,667.69Zm-12,6.82c.85-.89,1.72-1.78,2.59-2.66A12.89,12.89,0,0,1,187.76,674.51Zm10.24-4.9c2.71,1.31,7.12,3.57,8.28,6.4A20,20,0,0,1,198,669.61Z"/><path class="cls-14" d="M204.38,659.16a.28.28,0,0,0-.51-.22c-2,3.13-3.63,6.43-1.38,9.91,1.68,2.59,5.42-.56,3.24-2.5C203.78,664.6,204.06,661.5,204.38,659.16Z"/><path class="cls-14" d="M212.07,665.87a10.29,10.29,0,0,1-1.1-7.37.52.52,0,0,0-1-.27,15.21,15.21,0,0,0-.81,8.87C209.6,669.28,213.26,668,212.07,665.87Z"/><path class="cls-14" d="M633,683.93a3.07,3.07,0,0,0,.11.36c-6.26-.07-12.53-.06-18.79-.5-10-.7-19.72-.29-29.68.14a.14.14,0,1,0,0,.28c9.94.51,19.72,1.12,29.68.79s19.78.64,29.68.74a.57.57,0,0,0,0-1.13c-2.65-.15-5.29-.23-7.93-.28a1.78,1.78,0,0,0,.34-.86c.32-2.92.72-5.06,2.73-7.37,1.48-1.7,3.19-3.26,4.83-4.81h0c.33-.31-.09-.75-.45-.59s-.52.24-.78.36C637.84,673.36,631.69,677.76,633,683.93Z"/><path class="cls-14" d="M606.18,674a14,14,0,0,0-1.71,1.83c-1.31,1.69.88,4.08,2.41,2.42l2.3-2.49a3.85,3.85,0,0,1,1.36-.67c1.94-.51,3.11.55,4.71,1.47a2.36,2.36,0,0,0,3.35-1.15,1.37,1.37,0,0,0,2.26-.22,26,26,0,0,1,3-4.24c.8-.87,1.72-1.58,2.56-2.37a10.46,10.46,0,0,0,1.19-1.29c1.09-1.47-.74-3.82-2.44-3.17a10,10,0,0,0-4.36,3.7,16.75,16.75,0,0,0-2.43,5.32,1.75,1.75,0,0,0-.28-.33,6.57,6.57,0,0,0-4.4-2l1.16-1.26c.68-.74,1.39-1.48,2.09-2.23a22.68,22.68,0,0,0,3.8-5.09,1.77,1.77,0,0,0-2-2.56,13.3,13.3,0,0,0-7,4c-1.3-3.33-3.37-6.15-5.93-3.5a6.44,6.44,0,0,0-1.62,5.57,12.5,12.5,0,0,0,3.41,6.69Zm1.44-11c1-.87,2.07.48,3,2.23-.25.38-.48.78-.7,1.18a13.21,13.21,0,0,0-.94,2.3,6.39,6.39,0,0,1-.71-1.09,9.23,9.23,0,0,1-.56-1.49C607.31,665,607.07,663.52,607.62,663Z"/><path class="cls-14" d="M623.26,673.34c-2.19,2.06,1.39,5.51,3.25,3.25,1.29-1.58,2.68-3.08,4-4.64.62-.74,1.23-1.5,1.87-2.24l.22-.24a3.63,3.63,0,0,0,1.15-1.92,1,1,0,0,0-.9-1.18c-1.57,0-3.19,1.48-4.47,2.5l-.38.3A62.53,62.53,0,0,0,623.26,673.34Z"/><path class="cls-14" d="M525.1,595.43a15.23,15.23,0,0,0-4.26,1,5.47,5.47,0,0,0-2,2.18c-2.74-2.93-5.55-5.79-8.51-8.45-2.38-2.14-4.86-4.1-7.39-6a2.25,2.25,0,0,0,1.33-1.81,53.57,53.57,0,0,1,2.46-10.5l.13,0a5.46,5.46,0,0,0,2.68-1.31,1.6,1.6,0,0,0-1.28-2.68,2.37,2.37,0,0,0-.13-1.4l.1-.05a1,1,0,0,0,.17-1.58,8.74,8.74,0,0,0-2.6-1.4c-3.41-1.26-8.32-1.49-9.47,1.9-1.28,3.79,2.82,4.6,6.41,4.5a30.89,30.89,0,0,0-2.67,12.26c-2.17-1.55-4.36-3.07-6.55-4.63-.05,0-.1,0-.06.07,10.72,9.77,21.45,19.72,32,29.74a.47.47,0,0,0,.66-.66c-1.89-2.12-3.79-4.25-5.73-6.36.87,0,1.85-.1,2.59-.1,2.45,0,4.88.5,7.32.35a2.63,2.63,0,0,0,2.58-2.08,2.78,2.78,0,0,0-2.31-3.4l-.27,0A19.8,19.8,0,0,0,525.1,595.43Z"/><path class="cls-14" d="M506.75,577.42c-.6.46-.09,1.45.59,1.44a11.44,11.44,0,0,1,1.15.18A6.12,6.12,0,0,0,510,579a18.78,18.78,0,0,0,2.44-.68,2.53,2.53,0,1,0-2.46-4.23c-.55.58-1.14,1.08-1.72,1.62S507.31,577,506.75,577.42Z"/><path class="cls-4" d="M125.94,388.2c-1.84,4.52-2.1,9.49-1.76,14.3.38,5.35.63,11.67,2.32,16.87.1,1.38.23,2.61.36,3.62a5.64,5.64,0,0,1,2.06-.4l.24,0c.66-7.82,2.78-14.76,6.63-19.94,3-2.66,6.56-4.78,10.23-4.19,8.71,1.42,11.06,2.59,17.18,1.89,5-.57,8.32-1.92,11.15.23a27.86,27.86,0,0,1,2,2.22,122.22,122.22,0,0,1,6.21,12.38,51.89,51.89,0,0,1,1.78,9.06,5.61,5.61,0,0,1,2-.38v-.13l.05.13-.05-.26c0-.15,0-.3,0-.45l0-.06c.89-4.1,1.61-8.1,2.15-12.22a3.72,3.72,0,0,0,.36-1.5,67.49,67.49,0,0,0-2-16.72c-1.18-4.83-3.77-8.75-8.23-11.08-10.61-5.53-21.47.6-32.56-1.52-4.18-.8-8.25-2.17-12.4-.41a12.75,12.75,0,0,0-1.47.76A16.07,16.07,0,0,0,125.94,388.2Z"/><path class="cls-11" d="M440.85,388.51c-4.91-1.05-9.85-1.85-14.84-2.43q-4.29-.49-8.6-.79a19.58,19.58,0,0,1-3.84-.24c-2-.57-2,.29-1.55-2.18a71,71,0,0,1,3.9-13.61c1.47-3.74,4.91-8.12,4.73-12.19a.09.09,0,0,0-.12-.09c-4.15,1.48-6.49,7.53-8.14,11.3-2.09,4.77-4.9,11.63-4.62,16.94.15,3,2.3,3.59,4.7,3.8,1,.08,2.06.1,3,.18a200.48,200.48,0,0,1,24.09,3.92,1.87,1.87,0,0,0,.4,0C442.68,393.33,443.72,389.12,440.85,388.51Z"/><path class="cls-11" d="M447.75,444.32c.7-.41.09-1.35-.61-1.05A182.13,182.13,0,0,0,405,469.11s0,.11.06.08C419.18,460.66,433.54,452.64,447.75,444.32Z"/><path class="cls-11" d="M373.85,493.3l0,0c-6.85,3.37-11.84,10.51-16.38,16.4-5.14,6.66-10.23,13.39-14.83,20.45a122.19,122.19,0,0,0-18.05,45.5c-3.12,17.17-4.35,34.75-5.67,52.13q-1,13.8-1.82,27.61c-.56,9.69-1.94,19.93-1.26,29.61.2,2.89,4.91,4,5.43.73,1.37-8.62,1.08-17.68,1.53-26.39q.67-12.83,1.53-25.65c1.2-17.63,2.35-35.44,5.11-52.91a126.59,126.59,0,0,1,16.92-46.4c4-6.61,8.38-12.95,12.89-19.2,5-7,10.82-13.28,16.06-20.06a1.24,1.24,0,0,0-.24-1.82A1.19,1.19,0,0,0,373.85,493.3Z"/><path class="cls-11" d="M385.19,686.11c-1.08-31.54-1.68-63.09-2.32-94.64s.21-63.29-2.61-94.68a.38.38,0,0,0-.75,0c-3.39,31.31-2.4,63.21-2.14,94.68s1.35,63.11,2.67,94.64a2.44,2.44,0,0,0,1.57,2.26,2.89,2.89,0,0,0,2.2,0A2.23,2.23,0,0,0,385.19,686.11Z"/><path class="cls-11" d="M389.53,496.24c-.26-.1-.39.29-.18.43,62.35,41.29,55.3,124.42,52.89,190-.08,2,3,2,3.09,0,1.6-38.79,4.57-79.21-3.6-117.49C435.49,539.86,419.28,507.48,389.53,496.24Z"/><path class="cls-2" d="M85,651.8l-.73.29a.8.8,0,0,1-.36.06v0c.06,7.42.5,14.88.34,22.3,4.66,1.18,2.34-1.54,2.41-4.88,0-1.9.19-3.81.32-5.7.3-4.28,1-8.49,1.42-12.75C87.29,651.41,86.15,651.61,85,651.8Z"/><path class="cls-2" d="M173.05,615.67q-2.93,1-5.85,2.05c-9,3.25-18,7-26,12.21L141,630c-5.6-1.6-12.37-3.56-16.94-5-10.74-3.4-21.78-5.09-35.67-7.24l-.15,0-7.77-1.22c-7.2-1.15-15.14-2.49-24.12-4.28-4.79-1-9.1-1.64-13-2.09-14.11-3-31.26-1-38.81,11.41A15,15,0,0,0,.18,634.62c.88,6,4.51,10.31,9.27,13.13,5.63,6.16,13,7.4,20.79,7.17,6.27-.18,12.86-1.3,19.16-1.56l1.87-.06c6.25.34,12.75.64,19.26,1A75.4,75.4,0,0,0,79,653.26l4.08-.07c.08-.37.16-.74.25-1.11h0l-.57.09a.14.14,0,0,1-.08-.27l.62-.26a.94.94,0,0,1,.53-1.35c1.65-.53,3.31-1,5-1.5a1.5,1.5,0,0,1,1-1c15.79-5.84,32.79-9.16,47.94-16.6a.28.28,0,0,1,.29.49c-6.27,4.83-13.78,7.29-21.12,10.05-8.69,3.26-17.4,6.38-26.32,8.95a1.55,1.55,0,0,1-.55.06c-.4.13-.81.24-1.22.34-.2,7.75,1.43,15.53,1.24,23.28a4.9,4.9,0,0,1-.2,1.34c14-1.5,34.88-4.07,57.1-7.42,9.76,1.76,19.63,3.18,28.74,4.32a2.39,2.39,0,0,1-.29-1.3,31.45,31.45,0,0,1,1.55-8.55l-1,.2c-8.35,1.58-16.59,3.61-25.12,3.83a.24.24,0,0,1-.11-.44c14.55-7,32-9.49,47.8-12.44,8.48-1.58,17-2.73,25.57-4,7.36-1.06,14.53-2.42,20.61-7,1.49-1.12,3.44,1.45,2,2.58a33.38,33.38,0,0,1-4,2.62,32.54,32.54,0,0,0,6.35-4.18c3.41-2,5.41-4.12,5.66-6.2a13.09,13.09,0,0,0,2.06-4.87,6.73,6.73,0,0,0-2.1-6.06c-2.44-10-13.29-16.4-23.29-18.14a47.33,47.33,0,0,0-15.87-2.4,85.57,85.57,0,0,0-15,1.62A205.1,205.1,0,0,0,173.05,615.67Z"/><path class="cls-2" d="M228.21,653l-.91.18q4-.68,8.1-1.39a4.82,4.82,0,0,0,3.06-1.73A57.59,57.59,0,0,1,228.21,653Z"/><path class="cls-9" d="M244.61,642.92c-6.08,4.57-13.25,5.93-20.61,7-8.54,1.23-17.09,2.38-25.57,4-15.8,3-33.25,5.41-47.8,12.44a.24.24,0,0,0,.11.44c8.53-.22,16.77-2.25,25.12-3.83l1-.2a31.45,31.45,0,0,0-1.55,8.55,2.39,2.39,0,0,0,.29,1.3,2.63,2.63,0,0,0,3.1,1,1.89,1.89,0,0,0,.94.15,23.74,23.74,0,0,0,3-.28,3.41,3.41,0,0,0,1.63-.75,2.43,2.43,0,0,0,.78-1.68,32,32,0,0,0-.53-5.66c-.07-.79-.16-1.57-.25-2.36l-.18-1.61.18,0,13.53-2.57,1.89-.35,2.81-.54c7.28-1.37,14.59-2.67,21.86-4.09l2.91-.57.91-.18a57.59,57.59,0,0,0,10.25-2.94,35.69,35.69,0,0,0,4.15-2,33.38,33.38,0,0,0,4-2.62C248.05,644.37,246.1,641.8,244.61,642.92Zm-62.29,22.56c-.19,1.25-.23,2.79-.51,4.14-.62,0-1.29-.16-1.87-.21a40.4,40.4,0,0,1-1.52-7l4.52-.85C182.72,662.88,182.51,664.18,182.32,665.48Z"/><path class="cls-9" d="M88.75,651.05c.41-.1.82-.21,1.22-.34a1.55,1.55,0,0,0,.55-.06c8.92-2.57,17.63-5.69,26.32-8.95,7.34-2.76,14.85-5.22,21.12-10.05a.28.28,0,0,0-.29-.49c-15.15,7.44-32.15,10.76-47.94,16.6a1.5,1.5,0,0,0-1,1c-1.67.48-3.33,1-5,1.5a.94.94,0,0,0-.53,1.35l-.62.26a.14.14,0,0,0,.08.27l.57-.09h0c-.09.37-.17.74-.25,1.11a90.89,90.89,0,0,0-2.8,22,1.88,1.88,0,0,0,.82,1.59,2.17,2.17,0,0,0,1.34.34,1.64,1.64,0,0,0,.41.24c3,1.25,6.17,1,7-1.7a4.9,4.9,0,0,0,.2-1.34C90.18,666.58,88.55,658.8,88.75,651.05ZM87,663.89c-.13,1.89-.28,3.8-.32,5.7-.07,3.34,2.25,6.06-2.41,4.88.16-7.42-.28-14.88-.34-22.3v0a.8.8,0,0,0,.36-.06l.73-.29c1.14-.19,2.28-.39,3.41-.66C88,655.4,87.3,659.61,87,663.89Z"/></g></g></svg>