<svg xmlns="http://www.w3.org/2000/svg" viewBox="0 0 867.83 837.57"><defs><style>.cls-1{fill:none;}.cls-2{fill:#61e6ba;}.cls-3{fill:#fff;}.cls-4{fill:#dbdbdb;}.cls-5{fill:#50adff;}.cls-6{fill:#969696;}.cls-7{fill:#e2a17d;}.cls-8{fill:#0a2d4e;}.cls-9{fill:#9e6247;}.cls-10{fill:#7876fd;}.cls-11{fill:#ebf5f8;}.cls-12{fill:#c8dee3;}.cls-13{fill:#f9bf46;}.cls-14{fill:#e88632;}.cls-15{fill:#1d8fcd;}.cls-16{fill:#753c2f;}.cls-17{fill:#f4cdb8;}.cls-18{fill:#386a8c;}.cls-19{fill:#c1714d;}.cls-20{fill:#dba791;}.cls-21{fill:#d08f79;}.cls-22{fill:#224d70;}.cls-23{fill:#59d3a7;}</style></defs><g id="Layer_2" data-name="Layer 2"><g id="Layer_1-2" data-name="Layer 1"><path class="cls-1" d="M698.28,777.91l-.09-.17a.9.9,0,0,0,.08.23S698.28,777.93,698.28,777.91Z"/><path class="cls-1" d="M699.33,780.22c.11.31.21.62.33.91C699.55,780.82,699.45,780.52,699.33,780.22Z"/><path class="cls-1" d="M538.39,691.76a9.74,9.74,0,0,1,19.06,0h91c-4.85-10.49-7.88-19.45-7.74-25.31.39-16.62,6.25-57.09,10.91-87l-2.83-1.07L654,564.79c.08-.53.17-1,.25-1.57H498.16V691.76Z"/><path class="cls-1" d="M719.18,774.84a92.74,92.74,0,0,0,8.12-5.1C724.9,771.4,722.13,773.17,719.18,774.84Z"/><path class="cls-1" d="M93.58,169.66H21.74a10,10,0,0,0-10,10V281.59a9.74,9.74,0,0,1,0,19.06V512.11a9.74,9.74,0,0,1,0,19.06v70.76a10,10,0,0,0,10,10H89.55V421.18h245V389.4H93.58Z"/><path class="cls-1" d="M747.36,615.7l-32.45-12.28-6.27,88.34H846.09a10,10,0,0,0,10-10V542.33a9.74,9.74,0,0,1,0-19.06V305.59a10,10,0,0,0-10-10h-103V542.15l28.06,10.62Z"/><path class="cls-1" d="M731.76,778.2s-.07,0-.11-.06A.15.15,0,0,0,731.76,778.2Z"/><path class="cls-1" d="M694.63,772.31c.85,1.3,1.64,2.64,2.41,4h0C696.2,774.82,695.57,773.73,694.63,772.31Z"/><path class="cls-1" d="M627.61,173.82V71.63a10,10,0,0,0-10-10H566a9.73,9.73,0,0,1-19.33,0H502.19V173.82Z"/><path class="cls-2" d="M21.74,611.93a10,10,0,0,1-10-10V531.17a9.74,9.74,0,0,0,0-19.06V300.65a9.74,9.74,0,0,0,0-19.06V179.66a10,10,0,0,1,10-10H93.58v-4H21.74a14,14,0,0,0-14,14V281.59a9.74,9.74,0,0,0,0,19.06V512.11a9.74,9.74,0,0,0,0,19.06v70.76a14,14,0,0,0,14,14H89.55v-4Z"/><path class="cls-3" d="M191.39,36.81a1.24,1.24,0,0,0-.95.39,2.06,2.06,0,0,0-.47,1.14h2.75v-.15a1.47,1.47,0,0,0-.36-1A1.28,1.28,0,0,0,191.39,36.81Z"/><path class="cls-3" d="M164.31,36.82a1.28,1.28,0,0,0-1.11.58,3,3,0,0,0-.41,1.74,2.7,2.7,0,0,0,.4,1.58,1.29,1.29,0,0,0,1.11.57,1.38,1.38,0,0,0,1.29-.68V37.5A1.37,1.37,0,0,0,164.31,36.82Z"/><path class="cls-3" d="M183.82,36.81a1.24,1.24,0,0,0-.95.39,2.13,2.13,0,0,0-.47,1.14h2.75v-.15a1.47,1.47,0,0,0-.36-1A1.28,1.28,0,0,0,183.82,36.81Z"/><path class="cls-3" d="M499.19,21.38H96.58V54.45H499.19Zm-362,15.09h-2.6l-.44,3.11h2.29v2.54h-2.71l-.69,5h-2.5l.7-5H128.7l-.7,5h-2.49l.72-5H124V39.58h2.69l.44-3.11h-2.36V33.9h2.75l.69-4.82h2.46L130,33.9h2.52l.72-4.82h2.47L135,33.9h2.21Zm15,6.28h-6.68v-10h6.66v1.66h-4.61v2.38h3.94v1.6h-3.94V41.1h4.63Zm7.41,0h-2V38a1.27,1.27,0,0,0-.28-.92,1.21,1.21,0,0,0-.91-.28,1.37,1.37,0,0,0-1.25.71v5.22h-2v-7.4h1.86l.06.85a2.59,2.59,0,0,1,2.13-1,2.16,2.16,0,0,1,1.75.69A3.25,3.25,0,0,1,159.6,38Zm8-.25a3.11,3.11,0,0,1-.44,1.69,2.75,2.75,0,0,1-1.24,1.09,4.36,4.36,0,0,1-1.87.38,4,4,0,0,1-1.59-.33,2.84,2.84,0,0,1-1.17-.83l.88-1.21a2.32,2.32,0,0,0,1.79.83,1.69,1.69,0,0,0,1.22-.42,1.55,1.55,0,0,0,.44-1.19v-.4a2.25,2.25,0,0,1-1.8.77,2.59,2.59,0,0,1-2.15-1,4.33,4.33,0,0,1-.83-2.77V39a4.34,4.34,0,0,1,.81-2.74,2.64,2.64,0,0,1,2.19-1,2.29,2.29,0,0,1,1.89.84l.08-.7h1.79Zm3.61.25h-2v-7.4h2ZM171,34.17a1.26,1.26,0,0,1-1.61,0,1,1,0,0,1-.3-.73,1,1,0,0,1,.3-.74,1.09,1.09,0,0,1,.81-.28,1.12,1.12,0,0,1,.8.28,1,1,0,0,1,.3.74A1,1,0,0,1,171,34.17Zm8.16,8.58h-2V38a1.31,1.31,0,0,0-.27-.92,1.22,1.22,0,0,0-.91-.28,1.36,1.36,0,0,0-1.25.71v5.22h-2v-7.4h1.86l.06.85a2.59,2.59,0,0,1,2.13-1,2.15,2.15,0,0,1,1.75.69,3.25,3.25,0,0,1,.59,2.07Zm7.94-3.06h-4.71a1.82,1.82,0,0,0,.58,1.16,1.76,1.76,0,0,0,1.22.44,2.13,2.13,0,0,0,1.78-.83l1,1.09a2.85,2.85,0,0,1-1.2,1,3.89,3.89,0,0,1-1.68.35,3.61,3.61,0,0,1-2.65-1,3.53,3.53,0,0,1-1-2.65V39a4.44,4.44,0,0,1,.43-2A3.14,3.14,0,0,1,182,35.69a3.39,3.39,0,0,1,1.8-.48,3.07,3.07,0,0,1,2.39,1,3.89,3.89,0,0,1,.87,2.71Zm7.57,0H190a1.78,1.78,0,0,0,.58,1.16,1.74,1.74,0,0,0,1.22.44,2.13,2.13,0,0,0,1.78-.83l1,1.09a3,3,0,0,1-1.2,1,3.89,3.89,0,0,1-1.68.35,3.61,3.61,0,0,1-2.65-1,3.54,3.54,0,0,1-1-2.65V39a4.44,4.44,0,0,1,.44-2,3.08,3.08,0,0,1,1.22-1.35,3.36,3.36,0,0,1,1.8-.48,3.07,3.07,0,0,1,2.39,1,3.89,3.89,0,0,1,.87,2.71Zm5.28-2.49a6.71,6.71,0,0,0-.72-.05,1.46,1.46,0,0,0-1.47.76v4.84h-2v-7.4h1.87l0,.88a1.84,1.84,0,0,1,1.65-1,2,2,0,0,1,.61.09Zm6,5.06a3.78,3.78,0,0,1-2.24.62,3.92,3.92,0,0,1-1.65-.33,2.7,2.7,0,0,1-1.13-.91,2.12,2.12,0,0,1-.41-1.25h1.87a1,1,0,0,0,.39.81,1.53,1.53,0,0,0,1,.28,1.45,1.45,0,0,0,.86-.21.7.7,0,0,0,.29-.57.64.64,0,0,0-.36-.57,4.05,4.05,0,0,0-1.15-.37c-1.76-.37-2.64-1.12-2.64-2.24a2,2,0,0,1,.82-1.65,3.27,3.27,0,0,1,2.13-.66,3.54,3.54,0,0,1,2.26.67,2.08,2.08,0,0,1,.84,1.72h-2a.93.93,0,0,0-.28-.7,1.13,1.13,0,0,0-.85-.28,1.16,1.16,0,0,0-.77.23.69.69,0,0,0-.28.57A.62.62,0,0,0,203,38a3.41,3.41,0,0,0,1.05.35,9.62,9.62,0,0,1,1.25.33,2,2,0,0,1,1.56,2A1.94,1.94,0,0,1,205.94,42.26Zm41.46,6.48h-1V26.82h1Z"/><rect class="cls-3" x="96.58" y="3" width="402.61" height="17.38"/><polygon class="cls-3" points="129.14 39.58 131.66 39.58 132.1 36.48 129.58 36.48 129.14 39.58"/><path class="cls-3" d="M96.58,55.45v331H334.51V321h-98.3a6.82,6.82,0,0,1-6.8-6.79V288a6.81,6.81,0,0,1,6.8-6.79h98.3V210.47H235a5.55,5.55,0,0,1-5.54-5.54v-4.68A5.56,5.56,0,0,1,235,194.7h99.56v-7.36H235a5.55,5.55,0,0,1-5.54-5.54v-4.68a5.55,5.55,0,0,1,5.54-5.54H355a5.57,5.57,0,0,1,4.44,2.24H499.19V55.45ZM199.42,297.16a9.58,9.58,0,0,1-4.84,8.32,9.45,9.45,0,0,1-4.75,1.27H156.68a9.6,9.6,0,0,1-9.59-9.59V262.82a9.6,9.6,0,0,1,9.59-9.59h33.15a9.6,9.6,0,0,1,9.59,9.59Zm0-90a9.55,9.55,0,0,1-9.54,9.54h-33a9.55,9.55,0,0,1-9.54-9.54V173a9.55,9.55,0,0,1,9.54-9.55h33a9.55,9.55,0,0,1,9.54,9.55ZM235,258.12h76.5a5.56,5.56,0,0,1,5.54,5.54v4.68a5.57,5.57,0,0,1-5.54,5.55H235a5.56,5.56,0,0,1-5.54-5.55v-4.68A5.55,5.55,0,0,1,235,258.12Zm243.47-128H153v-1H478.42Zm1.66-19.3H122.43v247h-5.1V80.22H480.08Z"/><polygon class="cls-4" points="229.41 95.54 219.75 110.87 480.08 110.87 480.08 80.22 219.75 80.22 229.41 95.54"/><path class="cls-5" d="M219.75,80.22H117.33v277.6h5.1V110.87h97.32l9.66-15.33ZM132.86,99.79h-6.51v-10h6.46v1.4h-4.73V94h4.09v1.37h-4.09v3.06h4.78Zm7.34,0h-1.66V95a1.49,1.49,0,0,0-.31-1,1.25,1.25,0,0,0-1-.34,1.6,1.6,0,0,0-1.5.91v5.26h-1.66V92.4h1.57l0,.85a2.64,2.64,0,0,1,2.15-1c1.54,0,2.32.88,2.35,2.65Zm7.92-.22a3,3,0,0,1-.9,2.3,3.47,3.47,0,0,1-2.45.84,4.06,4.06,0,0,1-1.59-.34,2.78,2.78,0,0,1-1.17-.89l.78-1a2.37,2.37,0,0,0,1.89.91A1.86,1.86,0,0,0,146,101a1.72,1.72,0,0,0,.48-1.32v-.5a2.45,2.45,0,0,1-1.91.8,2.58,2.58,0,0,1-2.12-1A4.47,4.47,0,0,1,141.6,96a4.33,4.33,0,0,1,.81-2.75,2.59,2.59,0,0,1,2.15-1,2.43,2.43,0,0,1,2,.88l.08-.74h1.49Zm3.48.22h-1.66V92.4h1.66Zm-.13-8.69a1.1,1.1,0,0,1-1.4,0,.84.84,0,0,1-.24-.62.89.89,0,0,1,.24-.64,1.11,1.11,0,0,1,1.4,0,.89.89,0,0,1,.24.64A.84.84,0,0,1,151.47,91.1Zm8,8.69h-1.66V95a1.49,1.49,0,0,0-.31-1,1.25,1.25,0,0,0-1-.34,1.6,1.6,0,0,0-1.5.91v5.26h-1.66V92.4H155l0,.85a2.68,2.68,0,0,1,2.16-1c1.54,0,2.32.88,2.35,2.65Zm7.91-3.17h-4.83a2.25,2.25,0,0,0,.61,1.45,1.82,1.82,0,0,0,1.35.53,2.24,2.24,0,0,0,1.86-.92l.9.86a3,3,0,0,1-1.19,1,3.62,3.62,0,0,1-1.66.37,3.44,3.44,0,0,1-2.56-1,3.6,3.6,0,0,1-1-2.65v-.21a4.5,4.5,0,0,1,.42-2,3.29,3.29,0,0,1,1.2-1.35,3.14,3.14,0,0,1,1.73-.49,2.91,2.91,0,0,1,2.33,1,4.1,4.1,0,0,1,.82,2.73Zm7.52,0h-4.84a2.21,2.21,0,0,0,.62,1.45,1.79,1.79,0,0,0,1.35.53,2.24,2.24,0,0,0,1.86-.92l.89.86a3,3,0,0,1-1.18,1,3.66,3.66,0,0,1-1.67.37,3.44,3.44,0,0,1-2.56-1,3.64,3.64,0,0,1-1-2.65v-.21a4.37,4.37,0,0,1,.43-2,3.15,3.15,0,0,1,1.2-1.35,3.11,3.11,0,0,1,1.72-.49,2.9,2.9,0,0,1,2.33,1,4.1,4.1,0,0,1,.83,2.73Zm5.16-2.7a3.82,3.82,0,0,0-.68-.06,1.53,1.53,0,0,0-1.54.88v5.05h-1.66V92.4h1.59l0,.82a1.88,1.88,0,0,1,1.67-1,1.49,1.49,0,0,1,.59.1Zm6,5.39a3.54,3.54,0,0,1-2.17.62,3.84,3.84,0,0,1-1.62-.33,2.67,2.67,0,0,1-1.1-.9,2.11,2.11,0,0,1-.4-1.24h1.61a1.19,1.19,0,0,0,.45.91,1.71,1.71,0,0,0,1.08.32,1.73,1.73,0,0,0,1-.25.78.78,0,0,0,.34-.66.75.75,0,0,0-.36-.67,3.86,3.86,0,0,0-1.22-.41,6.51,6.51,0,0,1-1.41-.45,1.89,1.89,0,0,1-1.24-1.75,2,2,0,0,1,.8-1.6,3.24,3.24,0,0,1,2.05-.64,3.32,3.32,0,0,1,2.15.66,2.07,2.07,0,0,1,.81,1.7H185.2a1,1,0,0,0-.35-.8,1.4,1.4,0,0,0-.95-.32,1.47,1.47,0,0,0-.89.26.79.79,0,0,0-.34.67.66.66,0,0,0,.32.6,4.51,4.51,0,0,0,1.3.43,5.91,5.91,0,0,1,1.53.51,2.27,2.27,0,0,1,.83.71,1.85,1.85,0,0,1,.27,1A1.93,1.93,0,0,1,186.09,99.31Z"/><path class="cls-5" d="M164.25,93.59a1.38,1.38,0,0,0-1.1.48,2.53,2.53,0,0,0-.54,1.34h3.16v-.13a2,2,0,0,0-.44-1.26A1.41,1.41,0,0,0,164.25,93.59Z"/><path class="cls-5" d="M145,93.62a1.48,1.48,0,0,0-1.28.65,3.35,3.35,0,0,0-.45,1.91,3,3,0,0,0,.45,1.76,1.47,1.47,0,0,0,1.26.64,1.6,1.6,0,0,0,1.49-.86V94.46A1.56,1.56,0,0,0,145,93.62Z"/><path class="cls-5" d="M171.76,93.59a1.4,1.4,0,0,0-1.1.48,2.53,2.53,0,0,0-.54,1.34h3.17v-.13a2.06,2.06,0,0,0-.45-1.26A1.41,1.41,0,0,0,171.76,93.59Z"/><path class="cls-5" d="M135.68,29.08h-2.47l-.72,4.82H130l.69-4.82H128.2l-.69,4.82h-2.75v2.57h2.36l-.44,3.11H124v2.54h2.24l-.72,5H128l.7-5h2.52l-.7,5H133l.69-5h2.71V39.58h-2.29l.44-3.11h2.6V33.9H135Zm-4,10.5h-2.52l.44-3.11h2.52Z"/><polygon points="147.56 38.43 151.5 38.43 151.5 36.83 147.56 36.83 147.56 34.45 152.17 34.45 152.17 32.79 145.51 32.79 145.51 42.75 152.19 42.75 152.19 41.1 147.56 41.1 147.56 38.43"/><path d="M157.27,35.21a2.59,2.59,0,0,0-2.13,1l-.06-.85h-1.86v7.4h2V37.53a1.37,1.37,0,0,1,1.25-.71,1.21,1.21,0,0,1,.91.28,1.27,1.27,0,0,1,.28.92v4.73h2V38A3.25,3.25,0,0,0,159,35.9,2.16,2.16,0,0,0,157.27,35.21Z"/><path d="M165.7,36.05a2.29,2.29,0,0,0-1.89-.84,2.64,2.64,0,0,0-2.19,1,4.34,4.34,0,0,0-.81,2.74v.08a4.33,4.33,0,0,0,.83,2.77,2.59,2.59,0,0,0,2.15,1,2.25,2.25,0,0,0,1.8-.77v.4a1.55,1.55,0,0,1-.44,1.19,1.69,1.69,0,0,1-1.22.42,2.32,2.32,0,0,1-1.79-.83l-.88,1.21a2.84,2.84,0,0,0,1.17.83,4,4,0,0,0,1.59.33,4.36,4.36,0,0,0,1.87-.38,2.75,2.75,0,0,0,1.24-1.09,3.11,3.11,0,0,0,.44-1.69V35.35h-1.79Zm-.11,4.56a1.38,1.38,0,0,1-1.29.68,1.29,1.29,0,0,1-1.11-.57,2.7,2.7,0,0,1-.4-1.58,3,3,0,0,1,.41-1.74,1.28,1.28,0,0,1,1.11-.58,1.37,1.37,0,0,1,1.28.68Z"/><rect x="169.19" y="35.35" width="1.98" height="7.4"/><path d="M170.19,32.42a1.09,1.09,0,0,0-.81.28,1,1,0,0,0-.3.74,1,1,0,0,0,.3.73,1.26,1.26,0,0,0,1.61,0,1,1,0,0,0,.3-.73,1,1,0,0,0-.3-.74A1.12,1.12,0,0,0,170.19,32.42Z"/><path d="M176.81,35.21a2.59,2.59,0,0,0-2.13,1l-.06-.85h-1.86v7.4h2V37.53a1.36,1.36,0,0,1,1.25-.71,1.22,1.22,0,0,1,.91.28,1.31,1.31,0,0,1,.27.92v4.73h2V38a3.25,3.25,0,0,0-.59-2.07A2.15,2.15,0,0,0,176.81,35.21Z"/><path d="M183.83,35.21a3.39,3.39,0,0,0-1.8.48A3.14,3.14,0,0,0,180.81,37a4.44,4.44,0,0,0-.43,2v.2a3.53,3.53,0,0,0,1,2.65,3.61,3.61,0,0,0,2.65,1,3.89,3.89,0,0,0,1.68-.35,2.85,2.85,0,0,0,1.2-1l-1-1.09a2.13,2.13,0,0,1-1.78.83,1.76,1.76,0,0,1-1.22-.44,1.82,1.82,0,0,1-.58-1.16h4.71v-.81a3.89,3.89,0,0,0-.87-2.71A3.07,3.07,0,0,0,183.83,35.21Zm1.32,3.13H182.4a2.13,2.13,0,0,1,.47-1.14,1.24,1.24,0,0,1,.95-.39,1.28,1.28,0,0,1,1,.36,1.47,1.47,0,0,1,.36,1Z"/><path d="M191.4,35.21a3.36,3.36,0,0,0-1.8.48A3.08,3.08,0,0,0,188.38,37a4.44,4.44,0,0,0-.44,2v.2a3.54,3.54,0,0,0,1,2.65,3.61,3.61,0,0,0,2.65,1,3.89,3.89,0,0,0,1.68-.35,3,3,0,0,0,1.2-1l-1-1.09a2.13,2.13,0,0,1-1.78.83,1.74,1.74,0,0,1-1.22-.44,1.78,1.78,0,0,1-.58-1.16h4.71v-.81a3.89,3.89,0,0,0-.87-2.71A3.07,3.07,0,0,0,191.4,35.21Zm1.32,3.13H190a2.06,2.06,0,0,1,.47-1.14,1.24,1.24,0,0,1,.95-.39,1.28,1.28,0,0,1,1,.36,1.47,1.47,0,0,1,.36,1Z"/><path d="M197.7,36.23l0-.88h-1.87v7.4h2V37.91a1.46,1.46,0,0,1,1.47-.76,6.71,6.71,0,0,1,.72.05l0-1.9a2,2,0,0,0-.61-.09A1.84,1.84,0,0,0,197.7,36.23Z"/><path d="M205.25,38.63A9.62,9.62,0,0,0,204,38.3,3.41,3.41,0,0,1,203,38a.62.62,0,0,1-.31-.53.69.69,0,0,1,.28-.57,1.16,1.16,0,0,1,.77-.23,1.13,1.13,0,0,1,.85.28.93.93,0,0,1,.28.7h2a2.08,2.08,0,0,0-.84-1.72,3.54,3.54,0,0,0-2.26-.67,3.27,3.27,0,0,0-2.13.66,2,2,0,0,0-.82,1.65c0,1.12.88,1.87,2.64,2.24a4.05,4.05,0,0,1,1.15.37.64.64,0,0,1,.36.57.7.7,0,0,1-.29.57,1.45,1.45,0,0,1-.86.21,1.53,1.53,0,0,1-1-.28,1,1,0,0,1-.39-.81h-1.87a2.12,2.12,0,0,0,.41,1.25,2.7,2.7,0,0,0,1.13.91,3.92,3.92,0,0,0,1.65.33,3.78,3.78,0,0,0,2.24-.62,1.94,1.94,0,0,0,.87-1.64A2,2,0,0,0,205.25,38.63Z"/><path class="cls-6" d="M355,171.58H235a5.55,5.55,0,0,0-5.54,5.54v4.68a5.55,5.55,0,0,0,5.54,5.54h99.56V173.82h24.94A5.57,5.57,0,0,0,355,171.58Z"/><path class="cls-4" d="M229.41,200.25v4.68a5.55,5.55,0,0,0,5.54,5.54h99.56V194.7H235A5.56,5.56,0,0,0,229.41,200.25Z"/><rect class="cls-6" x="229.41" y="258.12" width="87.58" height="15.77" rx="5.54"/><path class="cls-4" d="M229.41,288V314.2a6.82,6.82,0,0,0,6.8,6.79h98.3V281.25h-98.3A6.81,6.81,0,0,0,229.41,288Z"/><rect class="cls-4" x="152.96" y="129.17" width="325.46" height="1"/><rect x="502.19" y="54.45" width="0.75" height="1"/><rect x="96.58" y="54.45" width="402.61" height="1"/><rect x="502.19" y="20.38" width="0.75" height="1"/><rect x="96.58" y="20.38" width="402.61" height="1"/><rect x="246.4" y="26.82" width="1" height="21.92"/><polygon points="128.08 95.35 132.17 95.35 132.17 93.98 128.08 93.98 128.08 91.23 132.81 91.23 132.81 89.84 126.35 89.84 126.35 99.79 132.86 99.79 132.86 98.41 128.08 98.41 128.08 95.35"/><path d="M137.85,92.26a2.64,2.64,0,0,0-2.15,1l0-.85h-1.57v7.39h1.66V94.53a1.6,1.6,0,0,1,1.5-.91,1.25,1.25,0,0,1,1,.34,1.49,1.49,0,0,1,.31,1v4.79h1.66V94.91C140.17,93.14,139.39,92.26,137.85,92.26Z"/><path d="M146.55,93.14a2.43,2.43,0,0,0-2-.88,2.59,2.59,0,0,0-2.15,1A4.33,4.33,0,0,0,141.6,96a4.47,4.47,0,0,0,.83,2.86,2.58,2.58,0,0,0,2.12,1,2.45,2.45,0,0,0,1.91-.8v.5A1.72,1.72,0,0,1,146,101a1.86,1.86,0,0,1-1.3.44,2.37,2.37,0,0,1-1.89-.91l-.78,1a2.78,2.78,0,0,0,1.17.89,4.06,4.06,0,0,0,1.59.34,3.47,3.47,0,0,0,2.45-.84,3,3,0,0,0,.9-2.3V92.4h-1.49Zm-.09,4.58a1.6,1.6,0,0,1-1.49.86,1.47,1.47,0,0,1-1.26-.64,3,3,0,0,1-.45-1.76,3.35,3.35,0,0,1,.45-1.91,1.48,1.48,0,0,1,1.28-.65,1.56,1.56,0,0,1,1.47.84Z"/><path d="M150.77,89.59a.94.94,0,0,0-.7.25.89.89,0,0,0-.24.64.84.84,0,0,0,.24.62,1.1,1.1,0,0,0,1.4,0,.84.84,0,0,0,.24-.62.89.89,0,0,0-.24-.64A.94.94,0,0,0,150.77,89.59Z"/><rect x="149.94" y="92.4" width="1.66" height="7.4"/><path d="M157.15,92.26a2.68,2.68,0,0,0-2.16,1l0-.85h-1.57v7.39H155V94.53a1.6,1.6,0,0,1,1.5-.91,1.25,1.25,0,0,1,1,.34,1.49,1.49,0,0,1,.31,1v4.79h1.66V94.91C159.47,93.14,158.69,92.26,157.15,92.26Z"/><path d="M164.26,92.26a3.14,3.14,0,0,0-1.73.49,3.29,3.29,0,0,0-1.2,1.35,4.5,4.5,0,0,0-.42,2v.21a3.6,3.6,0,0,0,1,2.65,3.44,3.44,0,0,0,2.56,1,3.62,3.62,0,0,0,1.66-.37,3,3,0,0,0,1.19-1l-.9-.86a2.24,2.24,0,0,1-1.86.92,1.82,1.82,0,0,1-1.35-.53,2.25,2.25,0,0,1-.61-1.45h4.83V96a4.1,4.1,0,0,0-.82-2.73A2.91,2.91,0,0,0,164.26,92.26Zm1.51,3.15h-3.16a2.53,2.53,0,0,1,.54-1.34,1.38,1.38,0,0,1,1.1-.48,1.41,1.41,0,0,1,1.08.43,2,2,0,0,1,.44,1.26Z"/><path d="M171.77,92.26a3.11,3.11,0,0,0-1.72.49,3.15,3.15,0,0,0-1.2,1.35,4.37,4.37,0,0,0-.43,2v.21a3.64,3.64,0,0,0,1,2.65,3.44,3.44,0,0,0,2.56,1,3.66,3.66,0,0,0,1.67-.37,3,3,0,0,0,1.18-1l-.89-.86a2.24,2.24,0,0,1-1.86.92,1.79,1.79,0,0,1-1.35-.53,2.21,2.21,0,0,1-.62-1.45h4.84V96a4.1,4.1,0,0,0-.83-2.73A2.9,2.9,0,0,0,171.77,92.26Zm1.52,3.15h-3.17a2.53,2.53,0,0,1,.54-1.34,1.53,1.53,0,0,1,2.18,0,2.06,2.06,0,0,1,.45,1.26Z"/><path d="M177.84,93.22l0-.82h-1.59v7.39h1.66V94.74a1.53,1.53,0,0,1,1.54-.88,3.82,3.82,0,0,1,.68.06V92.36a1.49,1.49,0,0,0-.59-.1A1.88,1.88,0,0,0,177.84,93.22Z"/><path d="M185.82,96a5.91,5.91,0,0,0-1.53-.51A4.51,4.51,0,0,1,183,95a.66.66,0,0,1-.32-.6.79.79,0,0,1,.34-.67,1.47,1.47,0,0,1,.89-.26,1.4,1.4,0,0,1,.95.32,1,1,0,0,1,.35.8h1.66a2.07,2.07,0,0,0-.81-1.7,3.32,3.32,0,0,0-2.15-.66,3.24,3.24,0,0,0-2.05.64,2,2,0,0,0-.8,1.6,1.89,1.89,0,0,0,1.24,1.75,6.51,6.51,0,0,0,1.41.45,3.86,3.86,0,0,1,1.22.41.75.75,0,0,1,.36.67.78.78,0,0,1-.34.66,1.73,1.73,0,0,1-1,.25,1.71,1.71,0,0,1-1.08-.32,1.19,1.19,0,0,1-.45-.91H180.8a2.11,2.11,0,0,0,.4,1.24,2.67,2.67,0,0,0,1.1.9,3.84,3.84,0,0,0,1.62.33,3.54,3.54,0,0,0,2.17-.62,1.93,1.93,0,0,0,.83-1.61,1.85,1.85,0,0,0-.27-1A2.27,2.27,0,0,0,185.82,96Z"/><polygon class="cls-5" points="93.58 389.4 334.51 389.4 334.51 386.4 96.58 386.4 96.58 55.45 96.58 54.45 96.58 21.38 96.58 20.38 96.58 3 499.19 3 499.19 20.38 499.19 21.38 499.19 54.45 499.19 55.45 499.19 173.82 502.19 173.82 502.19 61.63 502.19 57.63 502.19 55.45 502.19 54.45 502.19 21.38 502.19 20.38 502.19 0 93.58 0 93.58 165.66 93.58 169.66 93.58 389.4"/><path class="cls-3" d="M189.88,165.39h-33a7.63,7.63,0,0,0-7.61,7.62V207.2a7.63,7.63,0,0,0,7.61,7.61h1.61c.13-6.1,2-12.33,7.28-14.94a6.38,6.38,0,0,1,2.79-.65h1.68v-2.05a8.75,8.75,0,0,1-7.05-8.14h0a3.23,3.23,0,0,1-3.33-3.13,3.14,3.14,0,0,1,2-2.9l1.83-9.51c0-2.35,2.49-4.6,10.26-4.26,8.86.4,10.27,1.91,10.27,4.26a5.69,5.69,0,0,1-.15,1.62l1.57,8.27a3.17,3.17,0,0,1,2.3,3,3.24,3.24,0,0,1-3.34,3.13h0a8.74,8.74,0,0,1-7.12,7.7v2l1.71,0c6.66,0,9.15,8.88,9.3,15.69h1.41a7.63,7.63,0,0,0,7.61-7.61V173A7.63,7.63,0,0,0,189.88,165.39Z"/><path class="cls-2" d="M179.17,199.12l-1.71,0v2.77l-3.21,2.91-4-3v-2.63h-1.68a6.38,6.38,0,0,0-2.79.65c-5.26,2.61-7.15,8.84-7.28,14.94h30C188.32,208,185.83,199.12,179.17,199.12Z"/><path class="cls-5" d="M189.88,163.46h-33a9.55,9.55,0,0,0-9.54,9.55V207.2a9.55,9.55,0,0,0,9.54,9.54h33a9.55,9.55,0,0,0,9.54-9.54V173A9.55,9.55,0,0,0,189.88,163.46Zm7.61,43.74a7.63,7.63,0,0,1-7.61,7.61h-33a7.63,7.63,0,0,1-7.61-7.61V173a7.63,7.63,0,0,1,7.61-7.62h33a7.63,7.63,0,0,1,7.61,7.62Z"/><path class="cls-7" d="M174.25,204.82l3.21-2.91v-4.73a8.74,8.74,0,0,0,7.12-7.7h0a3.24,3.24,0,0,0,3.34-3.13,3.17,3.17,0,0,0-2.3-3l.08.42-1.27-.24-1.87-6.84c-1.39.66-3.93,1.06-8.63,1-5,0-7.61-.66-9-1.62l-1.85,6.64-1.28.24a3.14,3.14,0,0,0-2,2.9,3.23,3.23,0,0,0,3.33,3.13h0a8.75,8.75,0,0,0,7.05,8.14v4.68Z"/><path class="cls-8" d="M165,176.11c1.35,1,4,1.58,9,1.62,4.7,0,7.24-.36,8.63-1l1.87,6.84,1.27.24-.08-.42-1.57-8.27a5.69,5.69,0,0,0,.15-1.62c0-2.35-1.41-3.86-10.27-4.26-7.77-.34-10.26,1.91-10.26,4.26L161.88,183l1.28-.24Z"/><path class="cls-3" d="M189.83,255.17H156.68a7.66,7.66,0,0,0-7.65,7.65v34.34a7.66,7.66,0,0,0,6.8,7.6c.14-7,2.33-14.2,8.43-17.2a7.36,7.36,0,0,1,3.23-.75l2.6,0v-.49c-3.23-.84-5.57-3-5.57-6.67l0-1.44h0a3.25,3.25,0,0,1-3.35-3.15,3.18,3.18,0,0,1,2.5-3,72.48,72.48,0,0,1,.11-11.5s10.8-3.46,20.8.71l-.81,10.48a3.18,3.18,0,0,1,2.42,3,3.24,3.24,0,0,1-3.11,3.14v1.55c0,3.74-2.39,6.09-5.72,6.94v.38l2.45,0c7.73,0,10.61,10.24,10.78,18.07a7.66,7.66,0,0,0,6.89-7.61V262.82A7.66,7.66,0,0,0,189.83,255.17Z"/><path class="cls-8" d="M164.63,271.9v-1.17a8.76,8.76,0,0,1,8.73-8.73h1a8.75,8.75,0,0,1,8.72,8.73v.84a3.82,3.82,0,0,1,.69.12l.81-10.48c-10-4.17-20.8-.71-20.8-.71a72.48,72.48,0,0,0-.11,11.5,3.36,3.36,0,0,1,.85-.1Z"/><rect class="cls-9" x="175.39" y="272.32" width="6.02" height="3.27" rx="0.6"/><rect class="cls-9" x="166.61" y="272.32" width="6.02" height="3.27" rx="0.6"/><path class="cls-8" d="M179.81,286.7l-2.45,0v2a7.52,7.52,0,0,1-6.72.22l-.55-.26v-1.89l-2.6,0a7.36,7.36,0,0,0-3.23.75c-6.1,3-8.29,10.18-8.43,17.2a7.92,7.92,0,0,0,.85.05h33.15c.26,0,.51,0,.76,0C190.42,296.94,187.54,286.7,179.81,286.7Z"/><path class="cls-5" d="M189.83,253.23H156.68a9.6,9.6,0,0,0-9.59,9.59v34.34a9.6,9.6,0,0,0,9.59,9.59h33.15a9.45,9.45,0,0,0,4.75-1.27,9.58,9.58,0,0,0,4.84-8.32V262.82A9.6,9.6,0,0,0,189.83,253.23Zm7.65,43.93a7.66,7.66,0,0,1-6.89,7.61c-.25,0-.5,0-.76,0H156.68a7.92,7.92,0,0,1-.85-.05,7.66,7.66,0,0,1-6.8-7.6V262.82a7.66,7.66,0,0,1,7.65-7.65h33.15a7.66,7.66,0,0,1,7.65,7.65Z"/><path class="cls-9" d="M170.64,288.94a7.52,7.52,0,0,0,6.72-.22v-2.38c3.33-.85,5.72-3.2,5.72-6.94v-1.55a3.24,3.24,0,0,0,3.11-3.14,3.18,3.18,0,0,0-2.42-3,3.82,3.82,0,0,0-.69-.12v-.84a8.75,8.75,0,0,0-8.72-8.73h-1a8.76,8.76,0,0,0-8.73,8.73v1.17h-.11a3.36,3.36,0,0,0-.85.1,3.18,3.18,0,0,0-2.5,3,3.25,3.25,0,0,0,3.35,3.15h0l0,1.44c0,3.64,2.34,5.83,5.57,6.67v2.38Zm-3.43-12.74A1.21,1.21,0,0,1,166,275v-2.07a1.21,1.21,0,0,1,1.21-1.21H172a1.21,1.21,0,0,1,1.2,1.21v.83h1.56v-.83a1.21,1.21,0,0,1,1.2-1.21h4.82a1.21,1.21,0,0,1,1.21,1.21V275a1.21,1.21,0,0,1-1.21,1.21H176a1.21,1.21,0,0,1-1.2-1.21v-.63h-1.56V275a1.21,1.21,0,0,1-1.2,1.21Z"/><path class="cls-8" d="M173.23,275v-.63h1.56V275a1.21,1.21,0,0,0,1.2,1.21h4.82A1.21,1.21,0,0,0,182,275v-2.07a1.21,1.21,0,0,0-1.21-1.21H176a1.21,1.21,0,0,0-1.2,1.21v.83h-1.56v-.83a1.21,1.21,0,0,0-1.2-1.21h-4.82a1.21,1.21,0,0,0-1.21,1.21V275a1.21,1.21,0,0,0,1.21,1.21H172A1.21,1.21,0,0,0,173.23,275Zm2.16-2.07a.6.6,0,0,1,.6-.6h4.82a.6.6,0,0,1,.6.6V275a.6.6,0,0,1-.6.6H176a.6.6,0,0,1-.6-.6ZM166.61,275v-2.07a.6.6,0,0,1,.6-.6H172a.6.6,0,0,1,.6.6V275a.6.6,0,0,1-.6.6h-4.82A.6.6,0,0,1,166.61,275Z"/><polygon class="cls-3" points="145.29 456.49 144.06 460.21 146.55 460.21 145.29 456.49"/><polygon class="cls-3" points="126.21 457.68 123.72 457.68 123.28 460.75 125.78 460.75 126.21 457.68"/><path class="cls-3" d="M92.55,807.58H495.16V563.22H334.51V551.36H148.93v-1H334.51V532.05H118.4V779h-5.1V501.4H334.51V476.63h-242ZM225.38,598.3a5.55,5.55,0,0,1,5.54-5.54H351a5.56,5.56,0,0,1,5.54,5.54V603a5.57,5.57,0,0,1-5.54,5.54H230.92a5.56,5.56,0,0,1-5.54-5.54Zm0,23.13a5.55,5.55,0,0,1,5.54-5.54H468.85a5.56,5.56,0,0,1,5.54,5.54v4.68a5.56,5.56,0,0,1-5.54,5.54H230.92a5.55,5.55,0,0,1-5.54-5.54Zm17.91,16.86v7.62a1.16,1.16,0,0,1-1.15,1.16H227.55a1.16,1.16,0,0,1-1.16-1.16v-7.62a1.16,1.16,0,0,1,1.16-1.16h14.59A1.16,1.16,0,0,1,243.29,638.29Zm-17.91,46.55a5.56,5.56,0,0,1,5.54-5.54h76.49a5.57,5.57,0,0,1,5.55,5.54v4.69a5.57,5.57,0,0,1-5.55,5.54H230.92a5.56,5.56,0,0,1-5.54-5.54Zm0,24.38a6.82,6.82,0,0,1,6.8-6.79H467.59a6.82,6.82,0,0,1,6.8,6.79v26.16a6.82,6.82,0,0,1-6.8,6.8H232.18a6.82,6.82,0,0,1-6.8-6.8Zm-25.26,8.58a9.56,9.56,0,0,1-9.55,9.55h-33A9.55,9.55,0,0,1,148,717.8V683.61a9.55,9.55,0,0,1,9.54-9.54h33a9.55,9.55,0,0,1,9.55,9.54ZM146.85,596a9.55,9.55,0,0,1,9.54-9.54h33A9.55,9.55,0,0,1,199,596v34.2a9.55,9.55,0,0,1-9.54,9.54h-33a9.55,9.55,0,0,1-9.54-9.54Z"/><path class="cls-3" d="M168.57,462.47a1.3,1.3,0,0,0,1.12-.55,3,3,0,0,0,.41-1.76,2.7,2.7,0,0,0-.41-1.6,1.3,1.3,0,0,0-1.13-.57,1.26,1.26,0,0,0-1.12.56,3,3,0,0,0-.4,1.75,2.72,2.72,0,0,0,.4,1.61A1.3,1.3,0,0,0,168.57,462.47Z"/><rect class="cls-3" x="92.55" y="424.18" width="241.96" height="17.38"/><path class="cls-3" d="M92.55,475.63h242V442.56h-242ZM242.37,448h1v21.92h-1Zm-54.1,8.53h1.08v-1.82h2v1.82h1.26V458h-1.26v3.69a.87.87,0,0,0,.16.59.77.77,0,0,0,.6.18,3.3,3.3,0,0,0,.58-.05v1.5a4.4,4.4,0,0,1-1.2.17,1.89,1.89,0,0,1-2.12-2.09v-4h-1.08Zm-7.19,0h1.86l.06.86a2.57,2.57,0,0,1,2.13-1,2.15,2.15,0,0,1,1.75.69,3.25,3.25,0,0,1,.59,2.07v4.78h-2V459.2a1.31,1.31,0,0,0-.27-.92,1.29,1.29,0,0,0-.91-.28,1.35,1.35,0,0,0-1.25.71v5.22h-2Zm-7.84,0h2v4.78c0,.78.35,1.16,1.05,1.16a1.42,1.42,0,0,0,1.38-.7v-5.24h2v7.4h-1.86l-.05-.75a2.48,2.48,0,0,1-2,.88,2.32,2.32,0,0,1-1.81-.68,2.91,2.91,0,0,1-.64-2Zm-8.18,3.63a4.41,4.41,0,0,1,.43-2,3,3,0,0,1,1.22-1.33,3.52,3.52,0,0,1,1.85-.48,3.36,3.36,0,0,1,2.44.92,3.72,3.72,0,0,1,1.06,2.49v.5a3.86,3.86,0,0,1-.95,2.73,3.28,3.28,0,0,1-2.55,1,3.32,3.32,0,0,1-2.55-1,3.92,3.92,0,0,1-1-2.79Zm-7.3,0a4,4,0,0,1,.91-2.73,3.18,3.18,0,0,1,2.5-1,3.12,3.12,0,0,1,2.22.79,2.81,2.81,0,0,1,.85,2.11h-1.85a1.39,1.39,0,0,0-.35-.94,1.2,1.2,0,0,0-.91-.36,1.18,1.18,0,0,0-1,.5,3,3,0,0,0-.35,1.63v.21a3,3,0,0,0,.35,1.64,1.2,1.2,0,0,0,1.06.5,1.31,1.31,0,0,0,.89-.3,1.08,1.08,0,0,0,.35-.8h1.85a2.51,2.51,0,0,1-.41,1.38,2.73,2.73,0,0,1-1.1,1,3.46,3.46,0,0,1-1.55.34,3.2,3.2,0,0,1-2.5-1,4,4,0,0,1-.92-2.79Zm-7.3,0a4,4,0,0,1,.91-2.73,3.18,3.18,0,0,1,2.5-1,3.14,3.14,0,0,1,2.22.79,2.81,2.81,0,0,1,.85,2.11h-1.85a1.39,1.39,0,0,0-.35-.94,1.2,1.2,0,0,0-.91-.36,1.18,1.18,0,0,0-1,.5,3,3,0,0,0-.35,1.63v.21a3,3,0,0,0,.35,1.64,1.2,1.2,0,0,0,1.06.5,1.31,1.31,0,0,0,.89-.3,1.08,1.08,0,0,0,.35-.8h1.85a2.51,2.51,0,0,1-.41,1.38,2.73,2.73,0,0,1-1.1,1,3.46,3.46,0,0,1-1.55.34,3.2,3.2,0,0,1-2.5-1,4,4,0,0,1-.92-2.79ZM144.35,454h1.9l3.72,10h-2.18l-.69-2.05h-3.6l-.68,2.05h-2.18Zm-26.17,6.78h2.66l.44-3.07H119v-2.55h2.71l.69-4.77h2.44l-.69,4.77h2.5l.71-4.77h2.44l-.71,4.77h2.19v2.55h-2.58l-.43,3.07h2.27v2.53h-2.68l-.69,4.91h-2.47l.69-4.91h-2.5l-.68,4.91h-2.47l.71-4.91h-2.22Z"/><polygon class="cls-4" points="225.38 516.73 215.72 532.05 334.51 532.05 334.51 501.4 215.72 501.4 225.38 516.73"/><path class="cls-10" d="M149.25,514.77a1.53,1.53,0,0,0-1.29.65,3.23,3.23,0,0,0-.48,1.93,3,3,0,0,0,.47,1.79,1.55,1.55,0,0,0,1.32.65,1.5,1.5,0,0,0,1.3-.66,3.24,3.24,0,0,0,.47-1.92,3,3,0,0,0-.48-1.78A1.54,1.54,0,0,0,149.25,514.77Z"/><polygon class="cls-10" points="124.52 517.26 127.4 517.26 125.96 513.13 124.52 517.26"/><path class="cls-10" d="M215.72,501.4H113.3V779h5.1v-247h97.32l9.66-15.32ZM128.7,521l-.81-2.32H124l-.8,2.32h-1.8l3.76-10h1.55l3.77,10Zm4.56-1.79a1.45,1.45,0,0,0,1.25.6,1.49,1.49,0,0,0,1-.37,1.24,1.24,0,0,0,.43-.89h1.57a2.45,2.45,0,0,1-.43,1.29,2.81,2.81,0,0,1-1.1.94,3.46,3.46,0,0,1-4-.65,4,4,0,0,1-.91-2.78v-.17a3.87,3.87,0,0,1,.91-2.7,3.11,3.11,0,0,1,2.46-1,3.06,3.06,0,0,1,2.15.77,2.78,2.78,0,0,1,.87,2H136a1.52,1.52,0,0,0-.43-1,1.39,1.39,0,0,0-1-.42,1.47,1.47,0,0,0-1.24.59,3,3,0,0,0-.45,1.77v.27A3,3,0,0,0,133.26,519.19Zm7.33,0a1.61,1.61,0,0,0,2.28.23,1.22,1.22,0,0,0,.44-.89h1.57a2.54,2.54,0,0,1-.43,1.29,2.81,2.81,0,0,1-1.1.94,3.46,3.46,0,0,1-3.95-.65,4,4,0,0,1-.91-2.78v-.17a3.91,3.91,0,0,1,.9-2.7,3.14,3.14,0,0,1,2.46-1,3,3,0,0,1,2.15.77,2.75,2.75,0,0,1,.88,2h-1.57a1.52,1.52,0,0,0-.43-1,1.39,1.39,0,0,0-1-.42,1.45,1.45,0,0,0-1.24.59,3,3,0,0,0-.45,1.77v.27A3,3,0,0,0,140.59,519.19Zm11.69.12a3.06,3.06,0,0,1-1.21,1.33,3.45,3.45,0,0,1-1.8.47,3.23,3.23,0,0,1-2.51-1,4,4,0,0,1-.94-2.78v-.08a4.31,4.31,0,0,1,.43-2,3.15,3.15,0,0,1,1.21-1.34,3.44,3.44,0,0,1,1.79-.47,3.2,3.2,0,0,1,2.43,1,3.78,3.78,0,0,1,1,2.55v.39A4.44,4.44,0,0,1,152.28,519.31Zm7.91,1.67h-1.57l0-.73a2.59,2.59,0,0,1-2.08.86,2.3,2.3,0,0,1-1.82-.7,3,3,0,0,1-.62-2v-4.79h1.67v4.77c0,.94.38,1.41,1.16,1.41a1.65,1.65,0,0,0,1.64-.87v-5.31h1.66Zm7.79,0h-1.67v-4.8a1.54,1.54,0,0,0-.3-1,1.29,1.29,0,0,0-1-.34,1.62,1.62,0,0,0-1.5.91V521h-1.66v-7.4h1.56l.05.85a2.66,2.66,0,0,1,2.15-1c1.54,0,2.33.88,2.36,2.65Zm5.12,0a4,4,0,0,1-1.1.16c-1.27,0-1.91-.7-1.91-2.11v-4.19h-1.22v-1.23h1.22v-1.8h1.66v1.8h1.3v1.23h-1.3v4.13a.87.87,0,0,0,.17.61.75.75,0,0,0,.59.19,2.38,2.38,0,0,0,.59-.07Z"/><path class="cls-10" d="M119.69,468.19h2.47l.68-4.91h2.5l-.69,4.91h2.47l.69-4.91h2.68v-2.53h-2.27l.43-3.07h2.58v-2.55H129l.71-4.77h-2.44l-.71,4.77h-2.5l.69-4.77h-2.44l-.69,4.77H119v2.55h2.33l-.44,3.07h-2.66v2.53h2.22Zm4-10.51h2.49l-.43,3.07h-2.5Z"/><path d="M143.5,461.88h3.6l.69,2.05H150l-3.72-10h-1.9l-3.71,10h2.18Zm1.8-5.39,1.25,3.73h-2.49Z"/><path d="M153.88,464.06a3.46,3.46,0,0,0,1.55-.34,2.73,2.73,0,0,0,1.1-1,2.51,2.51,0,0,0,.41-1.38h-1.85a1.08,1.08,0,0,1-.35.8,1.31,1.31,0,0,1-.89.3,1.2,1.2,0,0,1-1.06-.5,3,3,0,0,1-.35-1.64v-.21a3,3,0,0,1,.35-1.63,1.18,1.18,0,0,1,1-.5,1.2,1.2,0,0,1,.91.36,1.39,1.39,0,0,1,.35.94h1.85a2.81,2.81,0,0,0-.85-2.11,3.14,3.14,0,0,0-2.22-.79,3.18,3.18,0,0,0-2.5,1,4,4,0,0,0-.91,2.73v.13a4,4,0,0,0,.92,2.79A3.2,3.2,0,0,0,153.88,464.06Z"/><path d="M161.18,464.06a3.46,3.46,0,0,0,1.55-.34,2.73,2.73,0,0,0,1.1-1,2.51,2.51,0,0,0,.41-1.38h-1.85a1.08,1.08,0,0,1-.35.8,1.31,1.31,0,0,1-.89.3,1.2,1.2,0,0,1-1.06-.5,3,3,0,0,1-.35-1.64v-.21a3,3,0,0,1,.35-1.63,1.18,1.18,0,0,1,1-.5,1.2,1.2,0,0,1,.91.36,1.39,1.39,0,0,1,.35.94h1.85a2.81,2.81,0,0,0-.85-2.11,3.12,3.12,0,0,0-2.22-.79,3.18,3.18,0,0,0-2.5,1,4,4,0,0,0-.91,2.73v.13a4,4,0,0,0,.92,2.79A3.2,3.2,0,0,0,161.18,464.06Z"/><path d="M168.57,464.06a3.28,3.28,0,0,0,2.55-1,3.86,3.86,0,0,0,.95-2.73v-.5a3.72,3.72,0,0,0-1.06-2.49,3.36,3.36,0,0,0-2.44-.92,3.52,3.52,0,0,0-1.85.48,3,3,0,0,0-1.22,1.33,4.41,4.41,0,0,0-.43,2v.09a3.92,3.92,0,0,0,1,2.79A3.32,3.32,0,0,0,168.57,464.06Zm-1.13-5.51a1.26,1.26,0,0,1,1.12-.56,1.3,1.3,0,0,1,1.13.57,2.7,2.7,0,0,1,.41,1.6,3,3,0,0,1-.41,1.76,1.42,1.42,0,0,1-2.25,0,2.72,2.72,0,0,1-.4-1.61A3,3,0,0,1,167.44,458.55Z"/><path d="M175.69,464.06a2.48,2.48,0,0,0,2-.88l.05.75h1.86v-7.4h-2v5.24a1.42,1.42,0,0,1-1.38.7c-.7,0-1.05-.38-1.05-1.16v-4.78h-2v4.85a2.91,2.91,0,0,0,.64,2A2.32,2.32,0,0,0,175.69,464.06Z"/><path d="M183.06,458.71a1.35,1.35,0,0,1,1.25-.71,1.29,1.29,0,0,1,.91.28,1.31,1.31,0,0,1,.27.92v4.73h2v-4.78a3.25,3.25,0,0,0-.59-2.07,2.15,2.15,0,0,0-1.75-.69,2.57,2.57,0,0,0-2.13,1l-.06-.86h-1.86v7.4h2Z"/><path d="M189.35,462a1.89,1.89,0,0,0,2.12,2.09,4.4,4.4,0,0,0,1.2-.17v-1.5a3.3,3.3,0,0,1-.58.05.77.77,0,0,1-.6-.18.87.87,0,0,1-.16-.59V458h1.26v-1.45h-1.26v-1.82h-2v1.82h-1.08V458h1.08Z"/><rect class="cls-6" x="225.38" y="592.76" width="131.14" height="15.77" rx="5.54"/><rect class="cls-4" x="225.38" y="615.89" width="249.01" height="15.77" rx="5.54"/><rect class="cls-6" x="225.38" y="679.3" width="87.58" height="15.77" rx="5.54"/><rect class="cls-4" x="225.38" y="702.43" width="249.01" height="39.75" rx="6.8"/><rect class="cls-4" x="148.93" y="550.36" width="185.58" height="1"/><rect x="92.55" y="475.63" width="241.96" height="1"/><rect x="92.55" y="441.56" width="241.96" height="1"/><rect x="242.37" y="448" width="1" height="21.92"/><path d="M125.19,511l-3.76,10h1.8l.8-2.32h3.86l.81,2.32h1.81l-3.77-10Zm-.67,6.24,1.44-4.13,1.44,4.13Z"/><path d="M133.27,515.36a1.47,1.47,0,0,1,1.24-.59,1.39,1.39,0,0,1,1,.42,1.52,1.52,0,0,1,.43,1h1.57a2.78,2.78,0,0,0-.87-2,3.06,3.06,0,0,0-2.15-.77,3.11,3.11,0,0,0-2.46,1,3.87,3.87,0,0,0-.91,2.7v.17a4,4,0,0,0,.91,2.78,3.46,3.46,0,0,0,4,.65,2.81,2.81,0,0,0,1.1-.94,2.45,2.45,0,0,0,.43-1.29H136a1.24,1.24,0,0,1-.43.89,1.49,1.49,0,0,1-1,.37,1.45,1.45,0,0,1-1.25-.6,3,3,0,0,1-.44-1.79v-.27A3,3,0,0,1,133.27,515.36Z"/><path d="M140.6,515.36a1.45,1.45,0,0,1,1.24-.59,1.39,1.39,0,0,1,1,.42,1.52,1.52,0,0,1,.43,1h1.57a2.75,2.75,0,0,0-.88-2,3,3,0,0,0-2.15-.77,3.14,3.14,0,0,0-2.46,1,3.91,3.91,0,0,0-.9,2.7v.17a4,4,0,0,0,.91,2.78,3.46,3.46,0,0,0,3.95.65,2.81,2.81,0,0,0,1.1-.94,2.54,2.54,0,0,0,.43-1.29h-1.57a1.22,1.22,0,0,1-.44.89,1.61,1.61,0,0,1-2.28-.23,3,3,0,0,1-.44-1.79v-.27A3,3,0,0,1,140.6,515.36Z"/><path d="M151.68,514.41a3.2,3.2,0,0,0-2.43-1,3.44,3.44,0,0,0-1.79.47,3.15,3.15,0,0,0-1.21,1.34,4.31,4.31,0,0,0-.43,2v.08a4,4,0,0,0,.94,2.78,3.23,3.23,0,0,0,2.51,1,3.45,3.45,0,0,0,1.8-.47,3.06,3.06,0,0,0,1.21-1.33,4.44,4.44,0,0,0,.42-2V517A3.78,3.78,0,0,0,151.68,514.41Zm-1.11,4.72a1.5,1.5,0,0,1-1.3.66,1.55,1.55,0,0,1-1.32-.65,3,3,0,0,1-.47-1.79,3.23,3.23,0,0,1,.48-1.93,1.62,1.62,0,0,1,2.6,0,3,3,0,0,1,.48,1.78A3.24,3.24,0,0,1,150.57,519.13Z"/><path d="M158.53,518.89a1.65,1.65,0,0,1-1.64.87c-.78,0-1.16-.47-1.16-1.41v-4.77h-1.67v4.79a3,3,0,0,0,.62,2,2.3,2.3,0,0,0,1.82.7,2.59,2.59,0,0,0,2.08-.86l0,.73h1.57v-7.4h-1.66Z"/><path d="M165.62,513.44a2.66,2.66,0,0,0-2.15,1l-.05-.85h-1.56V521h1.66v-5.27a1.62,1.62,0,0,1,1.5-.91,1.29,1.29,0,0,1,1,.34,1.54,1.54,0,0,1,.3,1V521H168v-4.89C168,514.32,167.16,513.44,165.62,513.44Z"/><path d="M171.92,519.55a.87.87,0,0,1-.17-.61v-4.13h1.3v-1.23h-1.3v-1.8h-1.66v1.8h-1.22v1.23h1.22V519c0,1.41.64,2.11,1.91,2.11a4,4,0,0,0,1.1-.16v-1.28a2.38,2.38,0,0,1-.59.07A.75.75,0,0,1,171.92,519.55Z"/><polygon class="cls-10" points="498.16 563.22 495.16 563.22 495.16 807.58 92.55 807.58 92.55 476.63 92.55 475.63 92.55 442.56 92.55 441.56 92.55 424.18 334.51 424.18 334.51 421.18 89.55 421.18 89.55 611.93 89.55 615.93 89.55 810.58 498.16 810.58 498.16 695.76 498.16 691.76 498.16 563.22"/><path class="cls-11" d="M239.13,642a.76.76,0,0,0-.43.14.74.74,0,0,0-.28.36v.17a1.2,1.2,0,0,0,.2.72.64.64,0,0,0,.51.28.61.61,0,0,0,.49-.23,1,1,0,0,0,.17-.6,1,1,0,0,0-.18-.61A.59.59,0,0,0,239.13,642Z"/><path class="cls-11" d="M227.55,637.3a1,1,0,0,0-1,1v7.62a1,1,0,0,0,1,1h14.59a1,1,0,0,0,1-1v-7.62a1,1,0,0,0-1-1Zm7.2,5.19h0a.68.68,0,0,1,.39.7.62.62,0,0,1-.38.52h0s.27,0,.27.53-.66.58-.66.58h.08l0,0a.47.47,0,0,1,.18.44c-.25,1-2,.36-2,.36a3.5,3.5,0,0,1-2.22-.75l-1.4.27s-.65-.11-.92-1.35a3,3,0,0,1,.5-2.26l1.39.1a4,4,0,0,0,1.3-1.82c.12-.43-.19-1-.17-1.37s.61-.6,1.19-.14.29,2,.29,2.4.83.5.83.5h1.09s.58,0,.72.43-.43.81-.43.81Zm5.19,1.2a1,1,0,0,1-.81.34,1.07,1.07,0,0,1-.85-.4,1.62,1.62,0,0,1-.32-1v-.18a2.4,2.4,0,0,1,.42-1.53,1.57,1.57,0,0,1,1.28-.54h.08v.39h-.09a1.16,1.16,0,0,0-.85.32,1.25,1.25,0,0,0-.37.87,1,1,0,0,1,.78-.33,1,1,0,0,1,.76.33,1.27,1.27,0,0,1,.28.86A1.25,1.25,0,0,1,239.94,643.69Z"/><path class="cls-12" d="M227.55,637.13a1.16,1.16,0,0,0-1.16,1.16v7.62a1.16,1.16,0,0,0,1.16,1.16h14.59a1.16,1.16,0,0,0,1.15-1.16v-7.62a1.16,1.16,0,0,0-1.15-1.16Zm15.57,1.16v7.62a1,1,0,0,1-1,1H227.55a1,1,0,0,1-1-1v-7.62a1,1,0,0,1,1-1h14.59A1,1,0,0,1,243.12,638.29Z"/><path class="cls-13" d="M232.93,642.66c-.45,0-.58.16-.61.35a.6.6,0,0,0,.2.58,14.85,14.85,0,0,0,2.25.08v0a.62.62,0,0,0,.38-.52.68.68,0,0,0-.39-.7l.08.07Z"/><path class="cls-13" d="M235.16,641.67c-.14-.43-.72-.43-.72-.43h-1.09s-.83-.08-.83-.5.29-1.94-.29-2.4-1.18-.29-1.19.14.29.94.17,1.37a4,4,0,0,1-1.3,1.82l-1.39-.1a3,3,0,0,0-.5,2.26c.27,1.24.92,1.35.92,1.35l1.4-.27a3.5,3.5,0,0,0,2.22.75s1.78.65,2-.36a.47.47,0,0,0-.18-.44,1.7,1.7,0,0,1-.57.08c-.51,0-1.1-.21-1.29.1s.16.62.16.62-.27,0-.31-.36a.59.59,0,0,1,.18-.54.67.67,0,0,1-.32-.62h0a2.15,2.15,0,0,1-.75.21,2.11,2.11,0,0,0,.88-.59.35.35,0,0,1,.08-.1c-.26-.15-.24-.38-.21-.7s.29-.31.29-.31l-.24-.11c-.25-.11-.25-.59-.14-.93s.39-.38.7-.37a3.56,3.56,0,0,1,.59.07h-.72c-.41,0-.9.94-.25,1.19a6.81,6.81,0,0,0,2.26,0h0S235.29,642.09,235.16,641.67Z"/><path class="cls-13" d="M232.84,643.69a.61.61,0,0,0-.39.26.1.1,0,0,1,0,0,.7.7,0,0,0-.06.17.67.67,0,0,0,.41.63,9.84,9.84,0,0,0,1.63,0h0s.66-.1.66-.58-.27-.53-.27-.53h0Z"/><path class="cls-14" d="M232.49,642.49c-.65-.25-.16-1.2.25-1.19h.72a3.56,3.56,0,0,0-.59-.07c-.31,0-.58,0-.7.37s-.11.82.14.93l.24.11s-.25,0-.29.31,0,.55.21.7a.35.35,0,0,0-.08.1,2.11,2.11,0,0,1-.88.59,2.15,2.15,0,0,0,.75-.21h0a.67.67,0,0,0,.32.62.59.59,0,0,0-.18.54c0,.35.31.36.31.36s-.34-.31-.16-.62.78-.08,1.29-.1a1.7,1.7,0,0,0,.57-.08l0,0h-.05a9.84,9.84,0,0,1-1.63,0,.67.67,0,0,1-.41-.63.7.7,0,0,1,.06-.17.1.1,0,0,0,0,0,.61.61,0,0,1,.39-.26l1.91,0h0v0a14.85,14.85,0,0,1-2.25-.08.6.6,0,0,1-.2-.58c0-.19.16-.33.61-.35l1.91-.1-.08-.07h0A6.81,6.81,0,0,1,232.49,642.49Z"/><path class="cls-15" d="M239.21,641.6a1,1,0,0,0-.78.33,1.25,1.25,0,0,1,.37-.87,1.16,1.16,0,0,1,.85-.32h.09v-.39h-.08a1.57,1.57,0,0,0-1.28.54,2.4,2.4,0,0,0-.42,1.53v.18a1.62,1.62,0,0,0,.32,1,1.07,1.07,0,0,0,.85.4,1,1,0,0,0,.81-.34,1.25,1.25,0,0,0,.31-.9,1.27,1.27,0,0,0-.28-.86A1,1,0,0,0,239.21,641.6Zm.41,1.82a.61.61,0,0,1-.49.23.64.64,0,0,1-.51-.28,1.2,1.2,0,0,1-.2-.72v-.17a.74.74,0,0,1,.28-.36.76.76,0,0,1,.43-.14.59.59,0,0,1,.48.23,1,1,0,0,1,.18.61A1,1,0,0,1,239.62,643.42Z"/><path class="cls-3" d="M166.21,703.51c-.09-.15-.17-.31-.25-.47a1.64,1.64,0,0,0,.24.46Z"/><path class="cls-3" d="M190.57,676h-33a7.61,7.61,0,0,0-7.61,7.61V717.8a7.61,7.61,0,0,0,7.61,7.61h1.61c.13-6.09,2-12.33,7.28-14.93a6.38,6.38,0,0,1,2.79-.65l1.67,0v-2.37a9.29,9.29,0,0,1-1.25-.55v0c-.31.57-.44.57-1.13.57s-1.32-1.07-2-1.39a1.47,1.47,0,0,1-.76-.94s-1,1-2,.63-1-.32-1-1.45-.19-1.52-.63-1.52-1.2.63-1.76.32.56-2,0-2.77-1.43,1.69-2.28,1.77-1.1-.25-1.1-.25,1.09-.21.84-1.06-.88-.55-.84-1.1a7.8,7.8,0,0,0,0-2.16c-.17-.68-1.49-.81-1.49-.81s.81-.25.3-1.19-.47-1.75-1.31-1.8-.85-.53-.85-.53.85-.21.81-.84.12-1.11-.56-1.19-.55.68-1.27.68a1.09,1.09,0,0,1-1-.72s.55.63.55-.38,1.52-1.06,1.86-2,1.49-2.88,2.16-3.13.34-.48-.25-.5-.42.41-1.23.41a1.86,1.86,0,0,1-1.23-.41s1.53.11,1.66-.22,2.19-1.32,2.66-2,3.1-1.35,3.9-1.78a11.43,11.43,0,0,1,6.36-.72,48.39,48.39,0,0,1,5.93,1.53,12.38,12.38,0,0,1,6.4-1.69c3.56.12,3.86-.39,5.26,0a11,11,0,0,1,3.47,2c.72.55,1.27,1.87,2.46,2.16s2,.68,2.29,1.7,1.19,1.1.63,2.63-.89,1.48-.55,2,.82.42.73,1.36-.64,2.11-1.24,2.11-2,.13-2,.64,1,.51,1.1,1.36.3,2-.21,1.9-1.1-.72-1.1.17a5.88,5.88,0,0,1-.55,2s-2,1.61-2.75,1.65-1,0-1.11,1-.38,1.73-.72,1.82-.72.76-.72.76-.17-1.31-.72-.76-.08,1-1.23,1-1-.55-1.82,0-.72.68-1.23.55l-.39-.15a9.08,9.08,0,0,1-1.9,1.13v2.53l1.71,0c6.66,0,9.14,8.88,9.3,15.68h1.4a7.62,7.62,0,0,0,7.62-7.61V683.61A7.62,7.62,0,0,0,190.57,676Z"/><path class="cls-10" d="M190.57,674.07h-33a9.55,9.55,0,0,0-9.54,9.54V717.8a9.55,9.55,0,0,0,9.54,9.55h33a9.56,9.56,0,0,0,9.55-9.55V683.61A9.55,9.55,0,0,0,190.57,674.07Zm7.62,43.73a7.62,7.62,0,0,1-7.62,7.61h-1.4c-.16-6.8-2.64-15.68-9.3-15.68l-1.71,0v2.77L175,715.43l-4-3v-2.64l-1.67,0a6.38,6.38,0,0,0-2.79.65c-5.26,2.6-7.15,8.84-7.28,14.93h-1.61A7.61,7.61,0,0,1,150,717.8V683.61a7.61,7.61,0,0,1,7.61-7.61h33a7.62,7.62,0,0,1,7.62,7.61Z"/><path class="cls-16" d="M180.06,706.09l0,0s2.84-3.43,2.84-7.07-1-4.82-1.49-5.24a17.77,17.77,0,0,1-1.75-3,10.09,10.09,0,0,1-.39-2.52,3.13,3.13,0,0,0-2.09-2.67c-.94-.25-1.23-.72-1.83-.51s-.4,0-.4,0a.94.94,0,0,0-1.19.1s-2.12,1.45-2.19,3,.26.94-.5,2.27-.25,1.89-1.13,2.26-.76,1.83-.76,1.83a2,2,0,0,1-.44-1.7c.13-1.2.82-.38.94-1.32a3.52,3.52,0,0,1,.38-1.67c.38-.79.82-2,.82-2s-1.8,3-2.16,3.59-3.38,2.78-3.38,4.48a19.6,19.6,0,0,0,0,3.34A20,20,0,0,0,166,703c.08.16.16.32.25.47.51.64,2.29,2.54,2.29,2.54s1.43.29,1.16.84a9.29,9.29,0,0,0,1.25.55v5l4,3,3.21-2.91v-5.3A9.08,9.08,0,0,0,180.06,706.09Z"/><path class="cls-8" d="M168.5,706.05s-1.78-1.9-2.29-2.54h0A1.64,1.64,0,0,1,166,703a20,20,0,0,1-.65-3.81,19.6,19.6,0,0,1,0-3.34c0-1.7,3-3.85,3.38-4.48s2.16-3.59,2.16-3.59-.44,1.2-.82,2a3.52,3.52,0,0,0-.38,1.67c-.12.94-.81.12-.94,1.32a2,2,0,0,0,.44,1.7s-.13-1.45.76-1.83.37-.94,1.13-2.26.44-.7.5-2.27,2.19-3,2.19-3a.94.94,0,0,1,1.19-.1s-.19.21.4,0,.89.26,1.83.51a3.13,3.13,0,0,1,2.09,2.67,10.09,10.09,0,0,0,.39,2.52,17.77,17.77,0,0,0,1.75,3c.51.42,1.49,1.59,1.49,5.24s-2.84,7.07-2.84,7.07l0,0,.39.15c.51.13.43,0,1.23-.55s.68,0,1.82,0,.68-.42,1.23-1,.72.76.72.76.38-.68.72-.76.64-.85.72-1.82.39-1,1.11-1,2.75-1.65,2.75-1.65a5.88,5.88,0,0,0,.55-2c0-.89.59-.25,1.1-.17s.3-1.06.21-1.9-1.1-.85-1.1-1.36,1.4-.64,2-.64,1.15-1.18,1.24-2.11-.39-.85-.73-1.36,0-.47.55-2-.33-1.61-.63-2.63-1.1-1.4-2.29-1.7-1.74-1.61-2.46-2.16a11,11,0,0,0-3.47-2c-1.4-.38-1.7.13-5.26,0a12.38,12.38,0,0,0-6.4,1.69,48.39,48.39,0,0,0-5.93-1.53,11.43,11.43,0,0,0-6.36.72c-.8.43-3.43,1.06-3.9,1.78s-2.54,1.7-2.66,2-1.66.22-1.66.22a1.86,1.86,0,0,0,1.23.41c.81,0,.64-.42,1.23-.41s.93.24.25.5-1.82,2.16-2.16,3.13-1.86,1-1.86,2-.55.38-.55.38a1.09,1.09,0,0,0,1,.72c.72,0,.6-.76,1.27-.68s.51.55.56,1.19-.81.84-.81.84,0,.47.85.53.8.87,1.31,1.8-.3,1.19-.3,1.19,1.32.13,1.49.81a7.8,7.8,0,0,1,0,2.16c0,.55.59.25.84,1.1s-.84,1.06-.84,1.06.25.34,1.1.25,1.71-2.53,2.28-1.77-.57,2.45,0,2.77,1.32-.32,1.76-.32.63.38.63,1.52,0,1.07,1,1.45,2-.63,2-.63a1.47,1.47,0,0,0,.76.94c.63.32,1.26,1.39,2,1.39s.82,0,1.13-.57v0C169.93,706.34,168.5,706.05,168.5,706.05Z"/><path class="cls-3" d="M169.72,619.08v3.09h0v-3.08Z"/><path class="cls-3" d="M156.39,637.76h1.15a21.94,21.94,0,0,1,1.62-8.12,4.6,4.6,0,0,1-1.16-1.29c-1.39-2.44,0-2.21.7-5.11s.23-3.34.23-3.34a13.24,13.24,0,0,1-1.39-5,9.88,9.88,0,0,1,1.51-6.27c1.62-3,.69-4.29,1.79-7.66s1.92-4.41,5.17-7.18,8.1-1.16,8.1-1.16a32.62,32.62,0,0,0,3.29-.53c1.63-.36,4.11,1.41,5.73,3.42s3.59,6.32,3.59,9.18-.79,5.93.13,8.27c.75,1.95.34,7.78-.34,11.54,3.09,3.07,4.41,8.52,4.56,13.08a7.62,7.62,0,0,0,6-7.42V596a7.63,7.63,0,0,0-7.61-7.61h-33a7.63,7.63,0,0,0-7.61,7.61v34.2A7.63,7.63,0,0,0,156.39,637.76Z"/><path class="cls-2" d="M186.06,626.47c-.89,3.16-8.75-1.39-9.09-1.59l-3.19,2.89-4-3v-2.62h0v1.06c0,4.63-.69,7.32-2.66,8.25a4,4,0,0,1-3.54,0,11,11,0,0,1-4.36-1.84,21.94,21.94,0,0,0-1.62,8.12h31.87a7.61,7.61,0,0,0,1.66-.19c-.15-4.56-1.47-10-4.56-13.08A20,20,0,0,1,186.06,626.47Z"/><path class="cls-10" d="M156.39,639.69h33a9.55,9.55,0,0,0,9.54-9.54V596a9.55,9.55,0,0,0-9.54-9.54h-33a9.55,9.55,0,0,0-9.54,9.54v34.2A9.55,9.55,0,0,0,156.39,639.69ZM148.78,596a7.63,7.63,0,0,1,7.61-7.61h33A7.63,7.63,0,0,1,197,596v34.2a7.64,7.64,0,0,1-7.61,7.61h-33a7.63,7.63,0,0,1-7.61-7.61Z"/><path class="cls-17" d="M177,619.21a8.72,8.72,0,0,0,5.72-8.16v-7.22a8.71,8.71,0,0,0-8.68-8.69h-.33l-2.87,3.94c-1.33,1.81-4.62,2.66-4.62,5.44a7.39,7.39,0,0,1,0,.84,1.12,1.12,0,0,1,.71-.25h4.81a1.14,1.14,0,0,1,1.13,1.14v0s0,.36-.13.86h1.93c-.08-.48-.12-.83-.13-.86v0a1.14,1.14,0,0,1,1.14-1.14h4.8a1.14,1.14,0,0,1,1.14,1.14v0s-.21,1.53-.51,2.73a1.82,1.82,0,0,1-1.77,1.38h-2.65a1.66,1.66,0,0,1-1.61-1.25c-.13-.49-.24-1-.32-1.52h-2.1c-.11.63-.25,1.39-.42,2a1.42,1.42,0,0,1-1.38,1.07h-2.9a1.62,1.62,0,0,1-1.58-1.25c-.21-.87-.39-1.91-.49-2.56a4.23,4.23,0,0,1-1.48,2.08v2a8.71,8.71,0,0,0,5.39,8h0v5.7l4,3,3.19-2.89h0Z"/><path class="cls-18" d="M167.06,631.48c2-.93,2.66-3.62,2.66-8.25v-4.15a8.71,8.71,0,0,1-5.39-8v-2a4.23,4.23,0,0,0,1.48-2.08c-.06-.38-.09-.63-.09-.64v0a1.14,1.14,0,0,1,.43-.89,7.39,7.39,0,0,0,0-.84c0-2.78,3.29-3.63,4.62-5.44l2.87-3.94H174a8.71,8.71,0,0,1,8.68,8.69v7.22a8.72,8.72,0,0,1-5.72,8.16v5.66h0c.34.2,8.2,4.75,9.09,1.59a20,20,0,0,0,.45-2c.68-3.76,1.09-9.59.34-11.54-.92-2.34-.13-5.4-.13-8.27s-2-7.16-3.59-9.18-4.1-3.78-5.73-3.42a32.62,32.62,0,0,1-3.29.53s-4.85-1.61-8.1,1.16-4.08,3.82-5.17,7.18-.17,4.65-1.79,7.66a9.88,9.88,0,0,0-1.51,6.27,13.24,13.24,0,0,0,1.39,5s.47.44-.23,3.34-2.09,2.67-.7,5.11a4.6,4.6,0,0,0,1.16,1.29,11,11,0,0,0,4.36,1.84A4,4,0,0,0,167.06,631.48Z"/><path class="cls-17" d="M176.61,609.91h2.65a1.33,1.33,0,0,0,1.3-1c.28-1.1.47-2.49.5-2.66a.66.66,0,0,0-.66-.64h-4.8a.66.66,0,0,0-.66.64c0,.18.24,1.66.53,2.79A1.18,1.18,0,0,0,176.61,609.91Z"/><path class="cls-17" d="M167.88,610.25h2.9a.94.94,0,0,0,.91-.71c.34-1.32.59-3.11.62-3.31a.66.66,0,0,0-.65-.64h-4.81a.66.66,0,0,0-.65.64c0,.19.26,1.84.57,3.14A1.15,1.15,0,0,0,167.88,610.25Z"/><path class="cls-10" d="M167.88,610.73h2.9a1.42,1.42,0,0,0,1.38-1.07c.17-.65.31-1.41.42-2h2.1c.08.48.19,1,.32,1.52a1.66,1.66,0,0,0,1.61,1.25h2.65A1.82,1.82,0,0,0,181,609c.3-1.2.5-2.71.51-2.73v0a1.14,1.14,0,0,0-1.14-1.14h-4.8a1.14,1.14,0,0,0-1.14,1.14v0s0,.38.13.86h-1.93c.08-.5.13-.85.13-.86v0a1.14,1.14,0,0,0-1.13-1.14h-4.81a1.12,1.12,0,0,0-.71.25,1.14,1.14,0,0,0-.43.89v0s0,.26.09.64c.1.65.28,1.69.49,2.56A1.62,1.62,0,0,0,167.88,610.73Zm7.72-5.14h4.8a.66.66,0,0,1,.66.64c0,.17-.22,1.56-.5,2.66a1.33,1.33,0,0,1-1.3,1h-2.65a1.18,1.18,0,0,1-1.14-.89c-.29-1.13-.5-2.61-.53-2.79A.66.66,0,0,1,175.6,605.59Zm-8.75,0h4.81a.66.66,0,0,1,.65.64c0,.2-.28,2-.62,3.31a.94.94,0,0,1-.91.71h-2.9a1.15,1.15,0,0,1-1.11-.88c-.31-1.3-.55-3-.57-3.14A.66.66,0,0,1,166.85,605.59Z"/><path class="cls-3" d="M658.54,513.27a91,91,0,0,0-1.82-18.46H477.14a6.82,6.82,0,0,1-6.8-6.8V461.86a6.82,6.82,0,0,1,6.8-6.8H651.2a72.53,72.53,0,0,1,2.32-10.76,66.85,66.85,0,0,1,19.83-31.08l3.57-1.43,1.5-27.5H475.88a5.57,5.57,0,0,1-5.54-5.54v-4.69a5.57,5.57,0,0,1,5.54-5.54H654.12a13.64,13.64,0,0,1-2-10.78A45.6,45.6,0,0,1,656.3,346c-2.86-1.68-7-4.56-5.11-6.41,2.3-2.3,11.35-5.8,14.26-6.89.59-.61,1.2-1.18,1.83-1.72a32.35,32.35,0,0,1,22.11-13.58c0-.15,0-.26,0-.26s.52,0,2.61,0c.89,0,1.77,0,2.66,0,1.63,0,3.73,0,6.48,0,10-.08,14.69,5,14.69,5,8.72,3.5,10.56,10,13.29,19.76,3.58,12.83-2.42,32.73-2.42,47s10.43,23.17,10.43,34.37-8.11,5.79-12.36,10c-3.25,3.25-1.53,1.53-6.43.54,7.47,15.85,16.3,43.38,15.58,60.84-.37,9.13-3.24,24.61-7.3,41.13L740.12,541V229.26H337.51v331H654.74c1.34-8.27,2.3-14,2.57-15.67h-1.23S658.54,536.77,658.54,513.27ZM475.88,431.94h76.5a5.55,5.55,0,0,1,5.54,5.54v4.68a5.55,5.55,0,0,1-5.54,5.54h-76.5a5.56,5.56,0,0,1-5.54-5.54v-4.68A5.56,5.56,0,0,1,475.88,431.94Zm125.6-76.32a5.55,5.55,0,0,1-5.54,5.54H475.88a5.56,5.56,0,0,1-5.54-5.54v-4.68a5.56,5.56,0,0,1,5.54-5.54H595.94a5.55,5.55,0,0,1,5.54,5.54ZM719.35,304H393.9v-1H719.35Zm-356,227.65h-5.1V254H721v30.65H363.36Zm25.87-186.43a9.55,9.55,0,0,1,9.55-9.54h33a9.55,9.55,0,0,1,9.55,9.54v34.2a9.57,9.57,0,0,1-9.55,9.54h-33a9.55,9.55,0,0,1-9.55-9.54Zm53.52,127.44a9.54,9.54,0,0,1-4.82,8.29,9.43,9.43,0,0,1-4.72,1.26h-33a9.55,9.55,0,0,1-9.54-9.55V438.46a9.56,9.56,0,0,1,9.54-9.55h33a9.56,9.56,0,0,1,9.54,9.55Z"/><polygon class="cls-3" points="368.35 213.34 370.67 213.34 371.08 210.49 368.76 210.49 368.35 213.34"/><path class="cls-3" d="M400.27,214.23v.11a.8.8,0,0,0,.26.61,1,1,0,0,0,.71.24,1.73,1.73,0,0,0,.81-.2,1.26,1.26,0,0,0,.55-.52V213.2h-.74C400.86,213.2,400.33,213.54,400.27,214.23Z"/><path class="cls-3" d="M470.76,214.23v.11a.8.8,0,0,0,.26.61,1,1,0,0,0,.72.24,1.67,1.67,0,0,0,.8-.2,1.26,1.26,0,0,0,.55-.52V213.2h-.74C471.35,213.2,470.82,213.54,470.76,214.23Z"/><path class="cls-3" d="M464.68,210.62a1.24,1.24,0,0,0-.95.4,2.13,2.13,0,0,0-.47,1.14H466V212a1.47,1.47,0,0,0-.36-1A1.26,1.26,0,0,0,464.68,210.62Z"/><path class="cls-3" d="M445.6,210.64a1.28,1.28,0,0,0-1.12.58,3.06,3.06,0,0,0-.41,1.74,2.66,2.66,0,0,0,.41,1.57,1.26,1.26,0,0,0,1.1.58,1.38,1.38,0,0,0,1.3-.68v-3.12A1.37,1.37,0,0,0,445.6,210.64Z"/><path class="cls-3" d="M421.71,210.62a1.24,1.24,0,0,0-.95.4,2.13,2.13,0,0,0-.47,1.14H423V212a1.47,1.47,0,0,0-.36-1A1.26,1.26,0,0,0,421.71,210.62Z"/><rect class="cls-3" x="337.51" y="176.82" width="402.61" height="17.38"/><path class="cls-3" d="M740.12,195.2H337.51v33.06H740.12ZM375.75,210.49h-2.4l-.41,2.85h2.12v2.35h-2.5l-.64,4.57h-2.3l.64-4.57h-2.32l-.64,4.57H365l.66-4.57H363.6v-2.35h2.48l.41-2.85h-2.17v-2.38h2.52l.64-4.43h2.27l-.64,4.43h2.33l.66-4.43h2.27l-.66,4.43h2Zm21.17,6.07h-2.06v-2.72l.21-4.69-2.69,7.41H391l-2.68-7.41.21,4.69v2.72h-2.05v-9.95h2.68l2.55,7.22,2.55-7.22h2.69Zm7.94,0h-2a2.14,2.14,0,0,1-.2-.66,2.4,2.4,0,0,1-1.87.8,2.63,2.63,0,0,1-1.8-.63,2,2,0,0,1-.71-1.59,2.09,2.09,0,0,1,.87-1.8,4.33,4.33,0,0,1,2.52-.64h.91v-.42a1.21,1.21,0,0,0-.27-.82,1,1,0,0,0-.83-.31,1.17,1.17,0,0,0-.78.24.81.81,0,0,0-.28.66h-2a1.94,1.94,0,0,1,.4-1.19,2.53,2.53,0,0,1,1.12-.86,4,4,0,0,1,1.63-.31,3.23,3.23,0,0,1,2.17.69,2.4,2.4,0,0,1,.8,1.93v3.2a3.51,3.51,0,0,0,.29,1.6Zm5.38-5.54a4.85,4.85,0,0,0-.71-.06,1.45,1.45,0,0,0-1.47.76v4.84h-2v-7.39H408l.06.88a1.81,1.81,0,0,1,1.64-1,2.06,2.06,0,0,1,.62.09Zm5.54,5.54-1.9-3-.71.71v2.25h-2v-10.5h2v5.82l.38-.49,1.89-2.22h2.38l-2.68,3.08,2.91,4.31Zm9.2-3.05h-4.71a1.82,1.82,0,0,0,.58,1.16,1.76,1.76,0,0,0,1.22.44,2.13,2.13,0,0,0,1.78-.83l1,1.09a2.92,2.92,0,0,1-1.2,1,4,4,0,0,1-1.68.35,3.61,3.61,0,0,1-2.65-1,3.54,3.54,0,0,1-1-2.66v-.19a4.41,4.41,0,0,1,.43-2,3.17,3.17,0,0,1,1.22-1.36,3.5,3.5,0,0,1,1.8-.47,3.07,3.07,0,0,1,2.39,1,3.87,3.87,0,0,1,.87,2.71Zm4.83,3a4.06,4.06,0,0,1-1.2.18,1.89,1.89,0,0,1-2.12-2.1v-4h-1.08v-1.45h1.08v-1.82h2v1.82h1.26v1.45h-1.26v3.69a.93.93,0,0,0,.15.59.85.85,0,0,0,.61.17,2.61,2.61,0,0,0,.58,0Zm3.11,0h-2v-7.39h2Zm-.19-8.57a1.12,1.12,0,0,1-.8.29,1.15,1.15,0,0,1-.81-.29,1.05,1.05,0,0,1,0-1.47,1.1,1.1,0,0,1,.81-.29,1.12,1.12,0,0,1,.8.29,1.05,1.05,0,0,1,0,1.47Zm8.16,8.57h-2v-4.73a1.29,1.29,0,0,0-.27-.91,1.22,1.22,0,0,0-.91-.28,1.34,1.34,0,0,0-1.25.71v5.21h-2v-7.39h1.86l.06.85a2.59,2.59,0,0,1,2.13-1,2.15,2.15,0,0,1,1.75.69,3.24,3.24,0,0,1,.59,2.06Zm8-.24a3.22,3.22,0,0,1-.44,1.69,2.92,2.92,0,0,1-1.24,1.09,4.41,4.41,0,0,1-1.88.38,4,4,0,0,1-1.58-.33,2.81,2.81,0,0,1-1.17-.84l.87-1.2a2.34,2.34,0,0,0,1.8.83,1.69,1.69,0,0,0,1.22-.42,1.59,1.59,0,0,0,.44-1.2v-.39a2.31,2.31,0,0,1-1.8.77,2.63,2.63,0,0,1-2.16-1,4.35,4.35,0,0,1-.82-2.77v-.08a4.34,4.34,0,0,1,.81-2.74,2.63,2.63,0,0,1,2.18-1,2.34,2.34,0,0,1,1.9.83l.08-.69h1.79Zm12.21-8h-3v8.29h-2v-8.29h-3v-1.66h8.1Zm6.88,5.24h-4.71a1.87,1.87,0,0,0,.58,1.16,1.76,1.76,0,0,0,1.22.44,2.12,2.12,0,0,0,1.78-.83l1,1.09a2.92,2.92,0,0,1-1.2,1,4,4,0,0,1-1.68.35,3.61,3.61,0,0,1-2.65-1,3.54,3.54,0,0,1-1-2.66v-.19a4.41,4.41,0,0,1,.43-2,3.17,3.17,0,0,1,1.22-1.36,3.5,3.5,0,0,1,1.8-.47,3.07,3.07,0,0,1,2.39,1,3.87,3.87,0,0,1,.87,2.71Zm7.4,3.05h-2a2.14,2.14,0,0,1-.2-.66,2.4,2.4,0,0,1-1.87.8,2.63,2.63,0,0,1-1.8-.63,2,2,0,0,1-.71-1.59,2.09,2.09,0,0,1,.87-1.8,4.33,4.33,0,0,1,2.52-.64h.91v-.42a1.21,1.21,0,0,0-.27-.82,1,1,0,0,0-.83-.31,1.17,1.17,0,0,0-.78.24.81.81,0,0,0-.28.66h-2a1.94,1.94,0,0,1,.4-1.19,2.59,2.59,0,0,1,1.12-.86,4.05,4.05,0,0,1,1.63-.31,3.23,3.23,0,0,1,2.17.69,2.4,2.4,0,0,1,.8,1.93v3.2a3.51,3.51,0,0,0,.29,1.6Zm11.83,0h-2v-4.71a1.37,1.37,0,0,0-.25-.92,1.06,1.06,0,0,0-.87-.29,1.24,1.24,0,0,0-1.23.84v5.08h-2v-4.71a1.38,1.38,0,0,0-.26-.93,1.1,1.1,0,0,0-.86-.28,1.3,1.3,0,0,0-1.22.69v5.23h-2v-7.39h1.85l.06.82a2.62,2.62,0,0,1,2.13-1,2,2,0,0,1,2,1.13A2.55,2.55,0,0,1,484.8,209a2.19,2.19,0,0,1,1.79.7,3.24,3.24,0,0,1,.59,2.11Zm31.78,6h-1V200.64h1Z"/><polygon class="cls-4" points="484.42 284.69 721.01 284.69 721.01 254.03 484.42 254.03 496.32 269.36 484.42 284.69"/><path class="cls-2" d="M496.32,269.36,484.42,254H358.26v277.6h5.1V284.69H484.42ZM377.5,273.61h-1.73v-3.28l.17-4.39L373,273.61h-1.24L368.84,266l.17,4.38v3.28h-1.73v-9.95h2.25l2.87,7.63,2.86-7.63h2.24Zm8,0H383.8a2.48,2.48,0,0,1-.19-.69,2.78,2.78,0,0,1-3.76.19,2,2,0,0,1-.71-1.57,2.1,2.1,0,0,1,.88-1.81,4.21,4.21,0,0,1,2.51-.64h1v-.48a1.17,1.17,0,0,0-1.3-1.27,1.49,1.49,0,0,0-.93.29.88.88,0,0,0-.36.72H379.3a1.88,1.88,0,0,1,.4-1.14,2.74,2.74,0,0,1,1.1-.83,3.86,3.86,0,0,1,1.55-.3,3.11,3.11,0,0,1,2.07.65,2.31,2.31,0,0,1,.79,1.84v3.33a3.84,3.84,0,0,0,.28,1.59Zm5.34-5.88a5.06,5.06,0,0,0-.68-.05,1.53,1.53,0,0,0-1.54.87v5.06H387v-7.4h1.59l0,.83a1.86,1.86,0,0,1,1.67-1,1.61,1.61,0,0,1,.58.09Zm5.64,5.88-2.19-3.17-.74.76v2.41h-1.66v-10.5h1.66v6.06l.52-.65,2-2.31h2l-2.75,3.09,3,4.31Zm8.8-3.17h-4.83a2.22,2.22,0,0,0,.61,1.45,1.86,1.86,0,0,0,1.35.53,2.27,2.27,0,0,0,1.86-.92l.89.85a2.88,2.88,0,0,1-1.18,1,3.66,3.66,0,0,1-1.67.37,3.43,3.43,0,0,1-2.56-1,3.61,3.61,0,0,1-1-2.65v-.2a4.5,4.5,0,0,1,.43-2,3.38,3.38,0,0,1,1.2-1.36,3.19,3.19,0,0,1,1.72-.48,2.92,2.92,0,0,1,2.34,1,4.07,4.07,0,0,1,.82,2.73Zm4.72,3.15a4,4,0,0,1-1.1.16c-1.27,0-1.91-.71-1.91-2.11v-4.2h-1.22v-1.23H407v-1.79h1.66v1.79H410v1.23h-1.31v4.13a.94.94,0,0,0,.17.62.8.8,0,0,0,.6.18,2.93,2.93,0,0,0,.58-.06Zm3,0h-1.66v-7.4H413Zm-.13-8.69a1.09,1.09,0,0,1-1.39,0,.95.95,0,0,1,0-1.26,1.06,1.06,0,0,1,1.39,0,.92.92,0,0,1,0,1.26Zm8,8.69h-1.66v-4.79a1.52,1.52,0,0,0-.3-1,1.27,1.27,0,0,0-1-.34,1.59,1.59,0,0,0-1.49.91v5.26h-1.66v-7.4h1.56l.05.86a2.66,2.66,0,0,1,2.15-1c1.54,0,2.33.88,2.35,2.64Zm7.93-.22a3,3,0,0,1-.91,2.29,3.44,3.44,0,0,1-2.44.84,4,4,0,0,1-1.59-.33,2.9,2.9,0,0,1-1.18-.89l.79-1a2.33,2.33,0,0,0,1.88.91,1.84,1.84,0,0,0,1.31-.45,1.7,1.7,0,0,0,.48-1.31V273a2.47,2.47,0,0,1-1.92.8,2.62,2.62,0,0,1-2.12-1,4.48,4.48,0,0,1-.82-2.86,4.31,4.31,0,0,1,.81-2.75,2.58,2.58,0,0,1,2.15-1,2.41,2.41,0,0,1,2,.88l.08-.75h1.5Zm12.13-8.34h-3.1v8.56h-1.72v-8.56h-3.07v-1.39h7.89Zm6.76,5.39h-4.83a2.22,2.22,0,0,0,.61,1.45,1.86,1.86,0,0,0,1.35.53,2.27,2.27,0,0,0,1.86-.92l.9.85a3,3,0,0,1-1.19,1,3.66,3.66,0,0,1-1.67.37,3.43,3.43,0,0,1-2.56-1,3.61,3.61,0,0,1-1-2.65v-.2a4.5,4.5,0,0,1,.43-2,3.38,3.38,0,0,1,1.2-1.36,3.21,3.21,0,0,1,1.72-.48,2.92,2.92,0,0,1,2.34,1,4.07,4.07,0,0,1,.82,2.73Zm7.4,3.17h-1.69a2.48,2.48,0,0,1-.19-.69,2.78,2.78,0,0,1-3.76.19,2,2,0,0,1-.71-1.57,2.1,2.1,0,0,1,.88-1.81,4.23,4.23,0,0,1,2.52-.64h1v-.48a1.17,1.17,0,0,0-1.3-1.27,1.45,1.45,0,0,0-.92.29.86.86,0,0,0-.37.72h-1.66a1.88,1.88,0,0,1,.4-1.14,2.74,2.74,0,0,1,1.1-.83,3.86,3.86,0,0,1,1.55-.3,3.11,3.11,0,0,1,2.07.65,2.31,2.31,0,0,1,.79,1.84v3.33a3.84,3.84,0,0,0,.28,1.59Zm11.94,0h-1.66V268.8a1.43,1.43,0,0,0-.31-1,1.33,1.33,0,0,0-1-.33,1.38,1.38,0,0,0-.92.3,1.68,1.68,0,0,0-.51.8v5.07H461v-4.87a1.18,1.18,0,0,0-1.33-1.3,1.47,1.47,0,0,0-1.42.81v5.36h-1.66v-7.4h1.57l0,.78a2.66,2.66,0,0,1,2.14-.91,2.05,2.05,0,0,1,2,1.13,2.63,2.63,0,0,1,2.27-1.13,2.31,2.31,0,0,1,1.82.67,3,3,0,0,1,.61,2Z"/><path class="cls-2" d="M444.54,267.41a1.4,1.4,0,0,0-1.11.48,2.41,2.41,0,0,0-.53,1.33h3.16v-.12a2,2,0,0,0-.44-1.26A1.37,1.37,0,0,0,444.54,267.41Z"/><path class="cls-2" d="M450.88,270.46a1,1,0,0,0-.46.91,1,1,0,0,0,.31.76,1.25,1.25,0,0,0,.85.28,1.89,1.89,0,0,0,.93-.23,1.57,1.57,0,0,0,.65-.65v-1.39h-.89A2.48,2.48,0,0,0,450.88,270.46Z"/><path class="cls-2" d="M425.67,267.44a1.44,1.44,0,0,0-1.27.65,3.26,3.26,0,0,0-.46,1.91,3,3,0,0,0,.46,1.76,1.46,1.46,0,0,0,1.26.63,1.59,1.59,0,0,0,1.49-.86v-3.25A1.59,1.59,0,0,0,425.67,267.44Z"/><path class="cls-2" d="M402.11,267.41a1.4,1.4,0,0,0-1.11.48,2.41,2.41,0,0,0-.53,1.33h3.16v-.12a2,2,0,0,0-.44-1.26A1.37,1.37,0,0,0,402.11,267.41Z"/><path class="cls-2" d="M381.27,270.46a1,1,0,0,0-.46.91,1,1,0,0,0,.31.76,1.23,1.23,0,0,0,.85.28,1.89,1.89,0,0,0,.93-.23,1.57,1.57,0,0,0,.65-.65v-1.39h-.89A2.48,2.48,0,0,0,381.27,270.46Z"/><path class="cls-2" d="M374.37,203.68H372.1l-.66,4.43h-2.33l.64-4.43h-2.27l-.64,4.43h-2.52v2.38h2.17l-.41,2.85H363.6v2.35h2.07l-.66,4.57h2.29l.64-4.57h2.32l-.64,4.57h2.3l.64-4.57h2.5v-2.35h-2.12l.41-2.85h2.4v-2.38h-2Zm-3.7,9.66h-2.32l.41-2.85h2.32Z"/><polygon points="391.68 213.83 389.13 206.61 386.45 206.61 386.45 216.56 388.5 216.56 388.5 213.84 388.29 209.15 390.97 216.56 392.38 216.56 395.07 209.15 394.86 213.84 394.86 216.56 396.92 216.56 396.92 206.61 394.23 206.61 391.68 213.83"/><path d="M404.57,211.65a2.4,2.4,0,0,0-.8-1.93,3.23,3.23,0,0,0-2.17-.69,4,4,0,0,0-1.63.31,2.53,2.53,0,0,0-1.12.86,1.94,1.94,0,0,0-.4,1.19h2a.81.81,0,0,1,.28-.66,1.17,1.17,0,0,1,.78-.24,1,1,0,0,1,.83.31,1.21,1.21,0,0,1,.27.82V212h-.91a4.33,4.33,0,0,0-2.52.64,2.09,2.09,0,0,0-.87,1.8,2,2,0,0,0,.71,1.59,2.63,2.63,0,0,0,1.8.63,2.4,2.4,0,0,0,1.87-.8,2.14,2.14,0,0,0,.2.66h2v-.11a3.51,3.51,0,0,1-.29-1.6Zm-2,2.82a1.26,1.26,0,0,1-.55.52,1.73,1.73,0,0,1-.81.2,1,1,0,0,1-.71-.24.8.8,0,0,1-.26-.61v-.11c.06-.69.59-1,1.58-1h.74Z"/><path d="M408,210.05l-.06-.88h-1.86v7.39h2v-4.84a1.45,1.45,0,0,1,1.47-.76,4.85,4.85,0,0,1,.71.06l0-1.9a2.06,2.06,0,0,0-.62-.09A1.81,1.81,0,0,0,408,210.05Z"/><polygon points="417.82 209.17 415.44 209.17 413.55 211.39 413.17 211.88 413.17 206.06 411.19 206.06 411.19 216.56 413.17 216.56 413.17 214.31 413.88 213.6 415.78 216.56 418.05 216.56 415.14 212.25 417.82 209.17"/><path d="M421.72,209a3.5,3.5,0,0,0-1.8.47,3.17,3.17,0,0,0-1.22,1.36,4.41,4.41,0,0,0-.43,2V213a3.54,3.54,0,0,0,1,2.66,3.61,3.61,0,0,0,2.65,1,4,4,0,0,0,1.68-.35,2.92,2.92,0,0,0,1.2-1l-1-1.09a2.13,2.13,0,0,1-1.78.83,1.76,1.76,0,0,1-1.22-.44,1.82,1.82,0,0,1-.58-1.16H425v-.81a3.87,3.87,0,0,0-.87-2.71A3.07,3.07,0,0,0,421.72,209Zm1.32,3.13h-2.75a2.13,2.13,0,0,1,.47-1.14,1.24,1.24,0,0,1,.95-.4,1.26,1.26,0,0,1,1,.36,1.47,1.47,0,0,1,.36,1Z"/><path d="M428.62,214.9a.93.93,0,0,1-.15-.59v-3.69h1.26v-1.45h-1.26v-1.82h-2v1.82h-1.08v1.45h1.08v4a1.89,1.89,0,0,0,2.12,2.1,4.06,4.06,0,0,0,1.2-.18V215a2.61,2.61,0,0,1-.58,0A.85.85,0,0,1,428.62,214.9Z"/><rect x="430.94" y="209.17" width="1.98" height="7.4"/><path d="M431.93,206.23a1.1,1.1,0,0,0-.81.29,1.05,1.05,0,0,0,0,1.47,1.15,1.15,0,0,0,.81.29,1.12,1.12,0,0,0,.8-.29,1.05,1.05,0,0,0,0-1.47A1.12,1.12,0,0,0,431.93,206.23Z"/><path d="M438.55,209a2.59,2.59,0,0,0-2.13,1l-.06-.85H434.5v7.39h2v-5.21a1.34,1.34,0,0,1,1.25-.71,1.22,1.22,0,0,1,.91.28,1.29,1.29,0,0,1,.27.91v4.73h2v-4.78a3.24,3.24,0,0,0-.59-2.06A2.15,2.15,0,0,0,438.55,209Z"/><path d="M447,209.86a2.34,2.34,0,0,0-1.9-.83,2.63,2.63,0,0,0-2.18,1,4.34,4.34,0,0,0-.81,2.74v.08a4.35,4.35,0,0,0,.82,2.77,2.63,2.63,0,0,0,2.16,1,2.31,2.31,0,0,0,1.8-.77v.39a1.59,1.59,0,0,1-.44,1.2,1.69,1.69,0,0,1-1.22.42,2.34,2.34,0,0,1-1.8-.83l-.87,1.2a2.81,2.81,0,0,0,1.17.84,4,4,0,0,0,1.58.33,4.41,4.41,0,0,0,1.88-.38,2.92,2.92,0,0,0,1.24-1.09,3.22,3.22,0,0,0,.44-1.69v-7.15h-1.79Zm-.11,4.57a1.38,1.38,0,0,1-1.3.68,1.26,1.26,0,0,1-1.1-.58,2.66,2.66,0,0,1-.41-1.57,3.06,3.06,0,0,1,.41-1.74,1.28,1.28,0,0,1,1.12-.58,1.37,1.37,0,0,1,1.28.67Z"/><polygon points="452.97 208.27 455.98 208.27 455.98 216.56 458.03 216.56 458.03 208.27 461.07 208.27 461.07 206.61 452.97 206.61 452.97 208.27"/><path d="M464.69,209a3.5,3.5,0,0,0-1.8.47,3.17,3.17,0,0,0-1.22,1.36,4.41,4.41,0,0,0-.43,2V213a3.54,3.54,0,0,0,1,2.66,3.61,3.61,0,0,0,2.65,1,4,4,0,0,0,1.68-.35,2.92,2.92,0,0,0,1.2-1l-1-1.09a2.12,2.12,0,0,1-1.78.83,1.76,1.76,0,0,1-1.22-.44,1.87,1.87,0,0,1-.58-1.16H468v-.81a3.87,3.87,0,0,0-.87-2.71A3.07,3.07,0,0,0,464.69,209Zm1.32,3.13h-2.75a2.13,2.13,0,0,1,.47-1.14,1.24,1.24,0,0,1,.95-.4,1.26,1.26,0,0,1,1,.36,1.47,1.47,0,0,1,.36,1Z"/><path d="M475.06,211.65a2.4,2.4,0,0,0-.8-1.93,3.23,3.23,0,0,0-2.17-.69,4.05,4.05,0,0,0-1.63.31,2.59,2.59,0,0,0-1.12.86,1.94,1.94,0,0,0-.4,1.19h2a.81.81,0,0,1,.28-.66,1.17,1.17,0,0,1,.78-.24,1,1,0,0,1,.83.31,1.21,1.21,0,0,1,.27.82V212h-.91a4.33,4.33,0,0,0-2.52.64,2.09,2.09,0,0,0-.87,1.8,2,2,0,0,0,.71,1.59,2.63,2.63,0,0,0,1.8.63,2.4,2.4,0,0,0,1.87-.8,2.14,2.14,0,0,0,.2.66h2v-.11a3.51,3.51,0,0,1-.29-1.6Zm-2,2.82a1.26,1.26,0,0,1-.55.52,1.67,1.67,0,0,1-.8.2A1,1,0,0,1,471,215a.8.8,0,0,1-.26-.61v-.11c.06-.69.59-1,1.58-1h.74Z"/><path d="M484.8,209a2.55,2.55,0,0,0-2.22,1.13,2,2,0,0,0-2-1.13,2.62,2.62,0,0,0-2.13,1l-.06-.82h-1.85v7.39h2v-5.23a1.3,1.3,0,0,1,1.22-.69,1.1,1.1,0,0,1,.86.28,1.38,1.38,0,0,1,.26.93v4.71h2v-5.08a1.24,1.24,0,0,1,1.23-.84,1.06,1.06,0,0,1,.87.29,1.37,1.37,0,0,1,.25.92v4.71h2v-4.72a3.24,3.24,0,0,0-.59-2.11A2.19,2.19,0,0,0,484.8,209Z"/><rect class="cls-6" x="470.34" y="345.4" width="131.14" height="15.77" rx="5.54"/><path class="cls-4" d="M654.12,368.52H475.88a5.57,5.57,0,0,0-5.54,5.54v4.69a5.57,5.57,0,0,0,5.54,5.54H678.42l.36-6.64C669.86,377.84,658.83,375.29,654.12,368.52Z"/><path class="cls-4" d="M695.62,376.29V377c.09-.26.17-.52.26-.78l-.29.05Z"/><rect class="cls-6" x="470.34" y="431.94" width="87.58" height="15.77" rx="5.54"/><path class="cls-4" d="M470.34,461.86V488a6.82,6.82,0,0,0,6.8,6.8H656.72c-2.31-11.42-6-19.59-6-32.83a53.39,53.39,0,0,1,.47-6.92H477.14A6.82,6.82,0,0,0,470.34,461.86Z"/><rect class="cls-4" x="393.9" y="302.99" width="325.46" height="1"/><rect x="337.51" y="228.26" width="402.61" height="1"/><rect x="337.51" y="194.2" width="402.61" height="1"/><rect x="517.96" y="200.64" width="1" height="21.92"/><polygon points="372.4 271.29 369.53 263.66 367.28 263.66 367.28 273.61 369.01 273.61 369.01 270.33 368.83 265.95 371.77 273.61 373 273.61 375.94 265.94 375.77 270.33 375.77 273.61 377.5 273.61 377.5 263.66 375.26 263.66 372.4 271.29"/><path d="M385.21,268.57a2.31,2.31,0,0,0-.79-1.84,3.11,3.11,0,0,0-2.07-.65,3.86,3.86,0,0,0-1.55.3,2.74,2.74,0,0,0-1.1.83,1.88,1.88,0,0,0-.4,1.14H381a.88.88,0,0,1,.36-.72,1.49,1.49,0,0,1,.93-.29,1.17,1.17,0,0,1,1.3,1.27v.48h-1a4.21,4.21,0,0,0-2.51.64,2.1,2.1,0,0,0-.88,1.81,2,2,0,0,0,.71,1.57,2.78,2.78,0,0,0,3.76-.19,2.48,2.48,0,0,0,.19.69h1.69v-.12a3.84,3.84,0,0,1-.28-1.59Zm-1.66,3a1.57,1.57,0,0,1-.65.65,1.89,1.89,0,0,1-.93.23,1.23,1.23,0,0,1-.85-.28,1,1,0,0,1-.31-.76,1,1,0,0,1,.46-.91,2.48,2.48,0,0,1,1.39-.32h.89Z"/><path d="M388.58,267l0-.83H387v7.4h1.66v-5.06a1.53,1.53,0,0,1,1.54-.87,5.06,5.06,0,0,1,.68.05v-1.56a1.61,1.61,0,0,0-.58-.09A1.86,1.86,0,0,0,388.58,267Z"/><polygon points="398.1 266.21 396.1 266.21 394.06 268.52 393.54 269.17 393.54 263.11 391.88 263.11 391.88 273.61 393.54 273.61 393.54 271.2 394.28 270.44 396.47 273.61 398.39 273.61 395.35 269.3 398.1 266.21"/><path d="M402.11,266.08a3.19,3.19,0,0,0-1.72.48,3.38,3.38,0,0,0-1.2,1.36,4.5,4.5,0,0,0-.43,2v.2a3.61,3.61,0,0,0,1,2.65,3.43,3.43,0,0,0,2.56,1,3.66,3.66,0,0,0,1.67-.37,2.88,2.88,0,0,0,1.18-1l-.89-.85a2.27,2.27,0,0,1-1.86.92,1.86,1.86,0,0,1-1.35-.53,2.22,2.22,0,0,1-.61-1.45h4.83v-.67a4.07,4.07,0,0,0-.82-2.73A2.92,2.92,0,0,0,402.11,266.08Zm1.52,3.14h-3.16a2.41,2.41,0,0,1,.53-1.33,1.4,1.4,0,0,1,1.11-.48,1.37,1.37,0,0,1,1.08.43,2,2,0,0,1,.44,1.26Z"/><path d="M408.81,272.19a.94.94,0,0,1-.17-.62v-4.13H410v-1.23h-1.31v-1.79H407v1.79h-1.22v1.23H407v4.2c0,1.4.64,2.11,1.91,2.11a4,4,0,0,0,1.1-.16v-1.28a2.93,2.93,0,0,1-.58.06A.8.8,0,0,1,408.81,272.19Z"/><rect x="411.32" y="266.21" width="1.66" height="7.4"/><path d="M412.15,263.4a.9.9,0,0,0-.69.26.95.95,0,0,0,0,1.26,1.09,1.09,0,0,0,1.39,0,.92.92,0,0,0,0-1.26A.91.91,0,0,0,412.15,263.4Z"/><path d="M418.53,266.08a2.66,2.66,0,0,0-2.15,1l-.05-.86h-1.56v7.4h1.66v-5.26a1.59,1.59,0,0,1,1.49-.91,1.27,1.27,0,0,1,1,.34,1.52,1.52,0,0,1,.3,1v4.79h1.66v-4.89C420.86,267,420.07,266.08,418.53,266.08Z"/><path d="M427.23,267a2.41,2.41,0,0,0-2-.88,2.58,2.58,0,0,0-2.15,1,4.31,4.31,0,0,0-.81,2.75,4.48,4.48,0,0,0,.82,2.86,2.62,2.62,0,0,0,2.12,1,2.47,2.47,0,0,0,1.92-.8v.5a1.7,1.7,0,0,1-.48,1.31,1.84,1.84,0,0,1-1.31.45,2.33,2.33,0,0,1-1.88-.91l-.79,1a2.9,2.9,0,0,0,1.18.89,4,4,0,0,0,1.59.33,3.44,3.44,0,0,0,2.44-.84,3,3,0,0,0,.91-2.29v-7.18h-1.5Zm-.08,4.57a1.59,1.59,0,0,1-1.49.86,1.46,1.46,0,0,1-1.26-.63,3,3,0,0,1-.46-1.76,3.26,3.26,0,0,1,.46-1.91,1.44,1.44,0,0,1,1.27-.65,1.59,1.59,0,0,1,1.48.84Z"/><polygon points="433.05 265.05 436.12 265.05 436.12 273.61 437.84 273.61 437.84 265.05 440.94 265.05 440.94 263.66 433.05 263.66 433.05 265.05"/><path d="M444.54,266.08a3.21,3.21,0,0,0-1.72.48,3.38,3.38,0,0,0-1.2,1.36,4.5,4.5,0,0,0-.43,2v.2a3.61,3.61,0,0,0,1,2.65,3.43,3.43,0,0,0,2.56,1,3.66,3.66,0,0,0,1.67-.37,3,3,0,0,0,1.19-1l-.9-.85a2.27,2.27,0,0,1-1.86.92,1.86,1.86,0,0,1-1.35-.53,2.22,2.22,0,0,1-.61-1.45h4.83v-.67a4.07,4.07,0,0,0-.82-2.73A2.92,2.92,0,0,0,444.54,266.08Zm1.52,3.14H442.9a2.41,2.41,0,0,1,.53-1.33,1.4,1.4,0,0,1,1.11-.48,1.37,1.37,0,0,1,1.08.43,2,2,0,0,1,.44,1.26Z"/><path d="M454.82,268.57a2.31,2.31,0,0,0-.79-1.84,3.11,3.11,0,0,0-2.07-.65,3.86,3.86,0,0,0-1.55.3,2.74,2.74,0,0,0-1.1.83,1.88,1.88,0,0,0-.4,1.14h1.66a.86.86,0,0,1,.37-.72,1.45,1.45,0,0,1,.92-.29,1.17,1.17,0,0,1,1.3,1.27v.48h-1a4.23,4.23,0,0,0-2.52.64,2.1,2.1,0,0,0-.88,1.81,2,2,0,0,0,.71,1.57,2.78,2.78,0,0,0,3.76-.19,2.48,2.48,0,0,0,.19.69h1.69v-.12a3.84,3.84,0,0,1-.28-1.59Zm-1.66,3a1.57,1.57,0,0,1-.65.65,1.89,1.89,0,0,1-.93.23,1.25,1.25,0,0,1-.85-.28,1,1,0,0,1-.31-.76,1,1,0,0,1,.46-.91,2.48,2.48,0,0,1,1.39-.32h.89Z"/><path d="M464.61,266.08a2.63,2.63,0,0,0-2.27,1.13,2.05,2.05,0,0,0-2-1.13,2.66,2.66,0,0,0-2.14.91l0-.78h-1.57v7.4h1.66v-5.36a1.47,1.47,0,0,1,1.42-.81,1.18,1.18,0,0,1,1.33,1.3v4.87h1.66v-5.07a1.68,1.68,0,0,1,.51-.8,1.38,1.38,0,0,1,.92-.3,1.33,1.33,0,0,1,1,.33,1.43,1.43,0,0,1,.31,1v4.81H467v-4.86a3,3,0,0,0-.61-2A2.31,2.31,0,0,0,464.61,266.08Z"/><path class="cls-3" d="M397.93,387c.14-6.91,2.32-12.93,8.4-15.92a7.45,7.45,0,0,1,3.22-.74l2.58,0V369a7.14,7.14,0,0,1-4.84-3.57,10.26,10.26,0,0,1-.9-4.91,3.21,3.21,0,0,1-3.14-3.12,3.15,3.15,0,0,1,2.09-2.91c0-.59.13-5.6,3.8-7.92h0a11.57,11.57,0,0,1,6.88-2.32,9.58,9.58,0,0,1,6.73,2.18h0c3.76,2.54,3.65,7.81,3.65,7.81l0,0a3.12,3.12,0,0,1,1.81,2.79,3.22,3.22,0,0,1-3.07,3.12c.14,4-.57,4.63-.57,4.63a6.32,6.32,0,0,1-5.15,4.18v1.23l2.43,0c7.7,0,10.57,9.06,10.73,16.78a7.62,7.62,0,0,0,6.86-7.57v-34.2a7.62,7.62,0,0,0-7.61-7.61h-33a7.62,7.62,0,0,0-7.61,7.61v34.2A7.61,7.61,0,0,0,397.93,387Z"/><path class="cls-19" d="M408.61,359.08c.1.77.17,3.58.64,4.26s13,.27,13.39-.21.31-4,.87-4.36a2.41,2.41,0,0,1,1.53-.21v.37c0,.45,0,.86.06,1.25a3.22,3.22,0,0,0,3.07-3.12,3.12,3.12,0,0,0-1.81-2.79c-.12.09-.54.19-1.88-.6s-2.22-5.37-2.49-7.09a38.66,38.66,0,0,1-6.15.62,25.77,25.77,0,0,1-6.2-.51c-.22,1.52-1,6.43-2.43,7.29-1.67,1-1.87.56-1.87.56v-.06a3.15,3.15,0,0,0-2.09,2.91,3.21,3.21,0,0,0,3.14,3.12,17.21,17.21,0,0,1,.23-2.39S408.51,358.3,408.61,359.08Z"/><path class="cls-10" d="M421.81,370.2l-2.43,0V371a7.55,7.55,0,0,1-6.7.22l-.55-.27v-.67l-2.58,0a7.45,7.45,0,0,0-3.22.74c-6.08,3-8.26,9-8.4,15.92a7.92,7.92,0,0,0,.85,0h33a6.06,6.06,0,0,0,.75,0C432.38,379.26,429.51,370.2,421.81,370.2Z"/><path class="cls-2" d="M398.78,389h33a9.57,9.57,0,0,0,9.55-9.54v-34.2a9.55,9.55,0,0,0-9.55-9.54h-33a9.55,9.55,0,0,0-9.55,9.54v34.2A9.55,9.55,0,0,0,398.78,389Zm-7.61-43.74a7.62,7.62,0,0,1,7.61-7.61h33a7.62,7.62,0,0,1,7.61,7.61v34.2a7.62,7.62,0,0,1-6.86,7.57,6.06,6.06,0,0,1-.75,0h-33a7.92,7.92,0,0,1-.85,0,7.61,7.61,0,0,1-6.76-7.56Z"/><path class="cls-19" d="M412.68,371.23a7.55,7.55,0,0,0,6.7-.22v-2a24.34,24.34,0,0,1-4,.32,12.59,12.59,0,0,1-3.25-.32v2Z"/><path class="cls-8" d="M419.38,369a6.32,6.32,0,0,0,5.15-4.18s.71-.65.57-4.63c0-.39,0-.8-.06-1.25v-.37a2.41,2.41,0,0,0-1.53.21c-.56.39-.46,3.89-.87,4.36s-12.91.88-13.39.21-.54-3.49-.64-4.26-2-1-2-1a17.21,17.21,0,0,0-.23,2.39,10.26,10.26,0,0,0,.9,4.91,7.14,7.14,0,0,0,4.84,3.57,12.59,12.59,0,0,0,3.25.32A24.34,24.34,0,0,0,419.38,369Z"/><path class="cls-8" d="M407.21,354c1.41-.86,2.21-5.77,2.43-7.29a25.77,25.77,0,0,0,6.2.51,38.66,38.66,0,0,0,6.15-.62c.27,1.72,1.09,6.27,2.49,7.09s1.76.69,1.88.6l0,0s.11-5.27-3.65-7.81h0a9.58,9.58,0,0,0-6.73-2.18,11.57,11.57,0,0,0-6.88,2.32h0c-3.67,2.32-3.79,7.33-3.8,7.92v.06S405.54,355,407.21,354Z"/><polygon class="cls-3" points="420.79 461.7 420.79 461.7 420.79 461.7 420.79 461.7"/><path class="cls-3" d="M413.55,461.59h0Z"/><path class="cls-3" d="M433.21,430.85h-33a7.62,7.62,0,0,0-7.61,7.61v34.19a7.62,7.62,0,0,0,7.61,7.61h1.15c.14-6.09,2.26-12.33,8.13-14.93a7.89,7.89,0,0,1,3.12-.65h1v-1a8,8,0,0,0-5.17-2.27c-3,0-1.86-.51-3.77-3.48s-3.61-1.48-3.61-4,.85-1.27,0-4.25-1.06-3.6,1.49-6.15,3.6-2.59,3.82-5.12,2.51-.79,4.21-3.34,3.41-3.09,7.44-2.28,5.54-1.36,7.23,1.4.62,2.85,2.35,4.31,1.2.8,1.73,2.54.27,2.39,1.34,3.19,1.06.33,1.06,2.77,1.74,3.23,1.2,5.1.8,3.2-.93,4.27-.4-.54-2.13,1.73-3.33,2.06-3.33,2.06a12,12,0,0,1-2.65,2.57c-.93.4-3,1.53-3,1.53v.38l3.69,0c7.37,0,10.17,8.72,10.39,15.5a7.62,7.62,0,0,0,5.95-7.43V438.46A7.62,7.62,0,0,0,433.21,430.85Z"/><path class="cls-8" d="M424.48,464.58l-3.69,0v2.76l-3.21,2.91-4-3v-2.63h-1a7.89,7.89,0,0,0-3.12.65c-5.87,2.6-8,8.84-8.13,14.93h31.87a7.61,7.61,0,0,0,1.66-.18C434.65,473.3,431.85,464.58,424.48,464.58Z"/><path class="cls-2" d="M433.21,428.91h-33a9.56,9.56,0,0,0-9.54,9.55v34.19a9.55,9.55,0,0,0,9.54,9.55h33a9.43,9.43,0,0,0,4.72-1.26,9.54,9.54,0,0,0,4.82-8.29V438.46A9.56,9.56,0,0,0,433.21,428.91Zm7.61,43.74a7.59,7.59,0,0,1-7.61,7.61h-33a7.62,7.62,0,0,1-7.61-7.61V438.46a7.62,7.62,0,0,1,7.61-7.61h33a7.62,7.62,0,0,1,7.61,7.61Z"/><path class="cls-20" d="M417.58,470.28l3.21-2.91V461.7h0a12.45,12.45,0,0,0,5.07-7.37c1.82-7.15-3.43-15.29-3.43-15.29a9,9,0,0,0-2.77,1.58,9.81,9.81,0,0,1-5.08,2.24c-2.33.43.43,2.36-2.33,3.83s-4.54,1.23-4,5.48c.86,6.85,5.1,9.31,5.29,9.42h0v5.71Z"/><path class="cls-10" d="M413.54,461.59c-.19-.11-4.43-2.57-5.29-9.42-.54-4.25,1.24-4,4-5.48s0-3.4,2.33-3.83a9.81,9.81,0,0,0,5.08-2.24,9,9,0,0,1,2.77-1.58s5.25,8.14,3.43,15.29a12.45,12.45,0,0,1-5.07,7.37h0v2.53s2.11-1.13,3-1.53a12,12,0,0,0,2.65-2.57s1.59.2,3.33-2.06.4-.67,2.13-1.73.4-2.4.93-4.27-1.2-2.67-1.2-5.1,0-2-1.06-2.77-.8-1.46-1.34-3.19,0-1.07-1.73-2.54-.65-1.55-2.35-4.31-3.2-.58-7.23-1.4-5.75-.27-7.44,2.28-4,.82-4.21,3.34S405,441,402.49,443.5s-2.34,3.18-1.49,6.15,0,1.7,0,4.25,1.7,1.06,3.61,4,.8,3.48,3.77,3.48a8,8,0,0,1,5.17,2.27v-2.09Z"/><path class="cls-8" d="M685,793.39c-1.34-.09-2.8-.15-4.29-.25a17,17,0,0,1-7.27-.53c-.14-.05-.27-.12-.4-.18-4,7.54-10.35,17.26-18,21.55-13.36,7.52-23.61,13-19,19.3s14.2,4.18,23.8,2.93,23-15.87,23-15.87V833.7l15-1.25,3.68-40.12c-1,.24-2,.44-2.26.49A56.58,56.58,0,0,1,685,793.39Z"/><path class="cls-8" d="M735.66,779A45.19,45.19,0,0,1,714,793.65l-.92.28c1.52,4.31,2.72,9,2.22,11.92-1.15,6.83-3.17,14.94-10.27,18.78s-8.87,17.93,5.2,11.1,24.37-13.23,28.85-26.89l3.9,7.86,10.24-7.76a70.23,70.23,0,0,1-10.68-22.64c-.95-3.64-3.45-6.57-6.55-8.91A1.69,1.69,0,0,1,735.66,779Z"/><path class="cls-21" d="M667.28,331c-.63.54-1.24,1.11-1.83,1.72-2.91,1.09-12,4.59-14.26,6.89-1.85,1.85,2.25,4.73,5.11,6.41a45.6,45.6,0,0,0-4.18,11.72,13.64,13.64,0,0,0,2,10.78c4.71,6.77,15.74,9.32,24.66,9.13l-.36,6.64-1.5,27.5,18.7-7.48v-28h0l.29-.05c.49-1.5,1.1-3.08,1.84-4.8a10.2,10.2,0,0,0,2,.21,9.73,9.73,0,0,0,6.38-17.09,7.71,7.71,0,0,1-7.86,1.66c-10.25-3.19-9-35.68-8.85-38.8A32.35,32.35,0,0,0,667.28,331Z"/><path class="cls-21" d="M692,317.2h2.66C693.78,317.16,692.9,317.16,692,317.2Z"/><path class="cls-22" d="M707.15,528.54c1.48-9.46,2.73-17.83,3.5-23a3.93,3.93,0,0,1-.32-.65l-14.25-37.78c-4-10.5-10.26-22.27-9.47-33.8.57-8.35,6.83-18.71,16.63-16.13a13.24,13.24,0,0,1,7,4.54c1.84.68,4.84,5.36,8.09,12.27,4.9,1,3.18,2.71,6.43-.54,4.25-4.25,12.36,1.16,12.36-10S726.71,403.28,726.71,389s6-34.19,2.42-47c-2.73-9.81-4.57-16.26-13.29-19.76,0,0-4.66-5.13-14.69-5-2.75,0-4.85,0-6.48,0H692c-2.09,0-2.61,0-2.61,0s0,.11,0,.26c-.15,3.12-1.4,35.61,8.85,38.8a7.71,7.71,0,0,0,7.86-1.66,9.73,9.73,0,0,1-6.38,17.09,10.2,10.2,0,0,1-2-.21c-.74,1.72-1.35,3.3-1.84,4.8-.09.26-.17.52-.26.78v27.29l-18.7,7.48-3.57,1.43a66.85,66.85,0,0,0-19.83,31.08,72.53,72.53,0,0,0-2.32,10.76,53.39,53.39,0,0,0-.47,6.92c0,13.24,3.68,21.41,6,32.83a91,91,0,0,1,1.82,18.46c0,23.5-2.46,31.28-2.46,31.28h1.23c.06-.3.08-.47.08-.47l4.8-.93,10.47-27.67Z"/><path class="cls-3" d="M651.67,579.48l33.87,12.82a2,2,0,0,1,.84-.69,79.35,79.35,0,0,0,8.13-4.7c.61-.36,1.33-.91,2.1-1.37,2.64-8.19,7.17-35.41,10.54-57l-34.49-13.06-10.47,27.67L654,564.79l-5.16,13.62Z"/><path class="cls-3" d="M712.57,582.1c-.47,5.36-.39,10.74-1,16.1a34,34,0,0,1-.58,3.74l3.91,1.48,32.45,12.28,23.82-62.93-28.06-10.62-3-1.13-13.49-5.11A413,413,0,0,1,712.57,582.1Z"/><path class="cls-2" d="M731.65,778.14c-.41-.28-.24-2-.49-2.61-1-2.5-2.83-3.29-3.86-5.79a92.74,92.74,0,0,1-8.12,5.1c-5.19,2.94-10.9,5.54-16,6.65l0,0a1.67,1.67,0,0,0-.12.83c.28.41.57.82.84,1.24a.89.89,0,0,1,0,1c.28.46.56.89.75,1.27,1.16,2.24,1.63,5.1,4.54,4.77a22.24,22.24,0,0,0,4.43-1.36,50,50,0,0,0,18.16-11.08A.15.15,0,0,1,731.65,778.14Z"/><path class="cls-2" d="M860.09,523.27V305.59a14,14,0,0,0-14-14h-103V173.82H631.61V71.63a14,14,0,0,0-14-14H565.67a9.73,9.73,0,0,0-18.62,0H502.19v4H546.7a9.73,9.73,0,0,0,19.33,0h51.58a10,10,0,0,1,10,10V173.82H334.51v389.4H654.25c-.08.52-.17,1-.25,1.57l8.19-21.64-4.8.93s0,.17-.08.47c-.27,1.63-1.23,7.4-2.57,15.67H337.51V176.82H740.12V541l3,1.13V295.59h103a10,10,0,0,1,10,10V523.27a9.74,9.74,0,0,0,0,19.06V681.76a10,10,0,0,1-10,10H708.64l6.27-88.34L711,601.94c-.62,2.73-1.87,5-5.1,5.82a12.28,12.28,0,0,1-9.09-1.55c-4.28,1-5-4.53-4.2-10a14.22,14.22,0,0,1-5.58.31c-1.86-.27-2.48-2.87-1.49-4.27l-33.87-12.82c-4.66,29.88-10.52,70.35-10.91,87-.14,5.86,2.89,14.82,7.74,25.31h-91a9.74,9.74,0,0,0-19.06,0H498.16v4h40.23a9.74,9.74,0,0,0,19.06,0H650.4c5.51,11.28,12.81,24,20.43,36.42-.52,14.43.37,43.44.47,43.45.06-.25,16.66.68,24.57.59a3.08,3.08,0,0,1,1.17.09c-.77-1.36-1.56-2.7-2.41-4-.16-.26.24-.48.41-.24,2,2.89,4.43,5.57,6.58,8.38,7.85-3,18.53-9.72,25.6-14.18a1.48,1.48,0,0,1,2.14.87,14,14,0,0,0,1.8,3c-3.64-9.38-13.82-35.47-23.86-59.58l1.06-14.8H846.09a14,14,0,0,0,14-14V542.33a9.74,9.74,0,0,0,0-19.06ZM693.18,764.65c0,1.81,0,3.6-.11,5.39-5.63-10.26-11.11-20.6-15.73-31.35,0-.38,0-.76,0-1.13,5.82,8.46,11,17.32,16,26.29A2.19,2.19,0,0,0,693.18,764.65Zm9.36-61a160.91,160.91,0,0,1-11.63-21.4c-2.76-6.12-6-12.93-6.43-19.7-.51-7.36,3.07-14.77,4.88-21.77a226.83,226.83,0,0,0,5.12-25.7c0-.1.2-.07.19,0a214.86,214.86,0,0,1-3.58,22.26c-1.61,7.34-5.08,15-5.4,22.57-.34,7.92,4.39,16.92,7.7,23.88a132.47,132.47,0,0,0,11.1,18.7C705.31,703.7,703.33,704.87,702.54,703.65Z"/><path class="cls-23" d="M693.39,683.82c-3.31-7-8-16-7.7-23.88.32-7.54,3.79-15.23,5.4-22.57a214.86,214.86,0,0,0,3.58-22.26c0-.1-.17-.13-.19,0a226.83,226.83,0,0,1-5.12,25.7c-1.81,7-5.39,14.41-4.88,21.77.47,6.77,3.67,13.58,6.43,19.7a160.91,160.91,0,0,0,11.63,21.4c.79,1.22,2.77.05,2-1.13A132.47,132.47,0,0,1,693.39,683.82Z"/><path class="cls-23" d="M677.34,738.69c4.62,10.75,10.1,21.09,15.73,31.35.07-1.79.12-3.58.11-5.39a2.19,2.19,0,0,1,.15-.8c-5-9-10.16-17.83-16-26.29C677.35,737.93,677.34,738.31,677.34,738.69Z"/><path class="cls-2" d="M680.75,793.14a26.7,26.7,0,0,1-8.52-1.6,9.69,9.69,0,0,1-.91-.44,4.7,4.7,0,0,0,1.76,1.33c.13.06.26.13.4.18A17,17,0,0,0,680.75,793.14Z"/><path class="cls-2" d="M698.51,778.36c-.07-.15-.15-.29-.23-.45,0,0,0,0,0,.06A1.58,1.58,0,0,0,698.51,778.36Z"/><path class="cls-2" d="M701.71,788a37,37,0,0,1-1.7-5.69c-.12-.41-.23-.78-.35-1.15s-.22-.6-.33-.91-.16-.43-.25-.63h0c-8,.23-19.06,0-26.82-1.85a33.36,33.36,0,0,0,.28,7.19c0,.66,0,1.32,0,2a7.47,7.47,0,0,0,3.7,1.12c1.27.23,2.62.25,3.9.35C686.18,788.85,695.51,787.78,701.71,788Z"/><path class="cls-23" d="M727.22,766.27c-7.07,4.46-17.75,11.18-25.6,14.18-2.15-2.81-4.54-5.49-6.58-8.38-.17-.24-.57,0-.41.24.94,1.42,1.57,2.51,2.41,4h0a3.08,3.08,0,0,0-1.17-.09c-7.91.09-24.51-.84-24.57-.59-.1,0-2.5,9.16-2.11,12.26a3.86,3.86,0,0,0,2.13,3.21,9.69,9.69,0,0,0,.91.44,26.7,26.7,0,0,0,8.52,1.6c1.49.1,3,.16,4.29.25a56.58,56.58,0,0,0,14.24-.57c.3-.05,1.27-.25,2.26-.49.64-.16,1.3-.33,1.79-.5a8.43,8.43,0,0,0,1.33,1.85c2.07,2.14,5.74,1.08,8.42.25l.92-.28A45.19,45.19,0,0,0,735.66,779a1.72,1.72,0,0,0-1.22-2.82l-.18-.65a15.64,15.64,0,0,0-3.1-5.39,14,14,0,0,1-1.8-3A1.48,1.48,0,0,0,727.22,766.27Zm-28.94,11.64c.08.16.16.3.23.45a1.58,1.58,0,0,1-.24-.39.9.9,0,0,1-.08-.23Zm-22,10.13a7.47,7.47,0,0,1-3.7-1.12c0-.67,0-1.33,0-2a33.36,33.36,0,0,1-.28-7.19c7.76,1.81,18.84,2.08,26.82,1.85h0c.09.2.17.42.25.63s.22.6.33.91.23.74.35,1.15a37,37,0,0,0,1.7,5.69c-6.2-.19-15.53.88-21.55.42C678.88,788.29,677.53,788.27,676.26,788Zm37.34,1.24a22.24,22.24,0,0,1-4.43,1.36c-2.91.33-3.38-2.53-4.54-4.77-.19-.38-.47-.81-.75-1.27a.89.89,0,0,0,0-1c-.27-.42-.56-.83-.84-1.24a1.67,1.67,0,0,1,.12-.83l0,0c5.12-1.11,10.83-3.71,16-6.65,3-1.67,5.72-3.44,8.12-5.1,1,2.5,2.84,3.29,3.86,5.79.25.59.08,2.33.49,2.61,0,0,.06.06.11.06A50,50,0,0,1,713.6,789.28Z"/><path class="cls-21" d="M712.57,582.1a413,413,0,0,0,14.06-46.19c4.06-16.52,6.93-32,7.3-41.13.72-17.46-8.11-45-15.58-60.84-3.25-6.91-6.25-11.59-8.09-12.27a13.24,13.24,0,0,0-7-4.54c-9.8-2.58-16.06,7.78-16.63,16.13-.79,11.53,5.51,23.3,9.47,33.8l14.25,37.78a3.93,3.93,0,0,0,.32.65c-.77,5.22-2,13.59-3.5,23-3.37,21.59-7.9,48.81-10.54,57-.77.46-1.49,1-2.1,1.37a79.35,79.35,0,0,1-8.13,4.7,2,2,0,0,0-.84.69c-1,1.4-.37,4,1.49,4.27a14.22,14.22,0,0,0,5.58-.31c-.83,5.42-.08,11,4.2,10a12.28,12.28,0,0,0,9.09,1.55c3.23-.81,4.48-3.09,5.1-5.82a34,34,0,0,0,.58-3.74C712.18,592.84,712.1,587.46,712.57,582.1Z"/></g></g></svg>