<svg xmlns="http://www.w3.org/2000/svg" viewBox="0 0 933.77 702.72"><defs><style>.cls-1{fill:none;}.cls-2{fill:#61e6ba;}.cls-3{fill:#fff;}.cls-4{fill:#0a2d4e;}.cls-5{fill:#2b5c77;}.cls-6{fill:#7876fd;}.cls-7{fill:#f4cdb8;}.cls-8{fill:#386a8c;}.cls-9{fill:#dba791;}.cls-10{fill:#50adff;}.cls-11{fill:#9e6247;}.cls-12{fill:#e2a17d;}.cls-13{fill:#753c2f;}</style></defs><g id="Layer_2" data-name="Layer 2"><g id="Layer_1-2" data-name="Layer 1"><path class="cls-1" d="M401.09,149c-1.91,1-1.82,2.24-.35,3.46A2.93,2.93,0,0,1,401.09,149Z"/><polygon class="cls-1" points="722.03 500.5 722.19 500.72 722.03 500.5 722.03 500.5"/><path class="cls-1" d="M691.77,465.46a10.46,10.46,0,0,1-1.88-.36,5.23,5.23,0,0,0,2.14,2c2.27,1.13,4.53,5,7,5l1.19,0A21,21,0,0,1,691.77,465.46Z"/><path class="cls-1" d="M422.86,77.63c.39-.73.79-1.46,1.21-2.19C423.65,76.17,423.25,76.9,422.86,77.63Z"/><polygon class="cls-1" points="711.09 485.26 711.09 485.26 711.71 486.13 721.38 499.6 721.38 499.6 711.09 485.26"/><path class="cls-1" d="M197,263.6a23.26,23.26,0,0,0-9.16,1.93A56.27,56.27,0,0,1,197,263.6Z"/><polygon class="cls-1" points="707.67 480.5 709.49 483.03 709.49 483.03 707.67 480.5"/><path class="cls-1" d="M192,319.73v.1h73.86Z"/><path class="cls-1" d="M622.2,583.76H556.61v34A272,272,0,0,0,622.2,583.76Z"/><path class="cls-1" d="M160.67,319.7a.62.62,0,0,1,0,.13h28.82v-.1Z"/><path class="cls-1" d="M556.14,189.23a34.3,34.3,0,0,1-34.27,34.27H403.35a34.3,34.3,0,0,1-34.27-34.27V100.67a272.34,272.34,0,0,0-74,41.22A34.38,34.38,0,0,1,308.39,169V292.37c0,.12,0,.24,0,.37q2.73,1.23,5.47,2.43c2,.86,2.3,3.63,1.39,5.31-.42.79-.87,1.57-1.3,2.36l88.49,35.85c4.16-1.67,12.45.75,19.2,3.93,1,.32,1.9.68,2.82,1.09l4.08-5.93a55.63,55.63,0,0,1,5.8-9.52,17.32,17.32,0,0,1,3.61-4.16l3-4.39,11.94,8.21,1.25.65c4.57,2.28,9,4.77,13.37,7.47a230.44,230.44,0,0,1,24.09,17.7c1.72,1.42,3.43,2.87,5.13,4.32l55.08,37.87-1.89,2.74c3.32,3.42,5.92,7,8.26,9.26,3.44,3.28,39.26,26.17,67,43.75V386.16a34.4,34.4,0,0,1,34.36-34.37H739a279.24,279.24,0,0,0-3.87-39.89H655.42a33.81,33.81,0,0,1-33.78-33.77v-121a33.61,33.61,0,0,1,6.13-19.36,272.26,272.26,0,0,0-71.63-38.23Z"/><path class="cls-1" d="M625.23,484l-73.7-49.7c-4.86.85-13.63-4.21-19.75-9.22l-5.32,7.73-5.31,8.78a2.34,2.34,0,0,1-.26.34l-15.23,26.14c-1.21,2.08-4,1-4.34-.86a2.64,2.64,0,0,1-2.31-.89,192.15,192.15,0,0,0-28-24.41L460.92,435l-.13-.09c-3.46-1.85-6.94-3.64-10.35-5.42a335.66,335.66,0,0,1-30.24-17.68c-9.77-6.44-19.33-13.27-27.14-22a1.32,1.32,0,0,1-.32-.59l-.56.5a.23.23,0,0,1-.39-.22c.59-3.69,2.63-7,4.46-10.19,1.93-3.4,3.91-6.75,6.14-10,.42-.61.86-1.22,1.29-1.83-.81-.61-1.58-1.15-2.31-1.6-5.43-3.36-75.14-29.17-101.27-38.79l-4.11,7c-.88,1.5-3.36,2.46-4.9,1.28-.74-.57-1.5-1.12-2.26-1.68-3.32-.58-6.85-3.47-9.29-4.95-1.09-.66-2.17-1.34-3.24-2-.78,0-1.56.09-2.35.09H191.06a279.78,279.78,0,0,0-1.84,31.95c0,1.86,0,3.71.07,5.57h91.47a34.09,34.09,0,0,1,34.06,34.06v122a34.1,34.1,0,0,1-34.06,34.06h-9.67a274.06,274.06,0,0,0,96.73,61.92V544.24a34.62,34.62,0,0,1,34.58-34.58H522a34.51,34.51,0,0,1,25.71,11.47h79.61a34.06,34.06,0,0,1-2.11-11.86Z"/><path class="cls-1" d="M658.52,553.15q4.65-4.67,9.06-9.51h-8a34.43,34.43,0,0,1-8.3-1v17.47C653.73,557.82,656.15,555.51,658.52,553.15Z"/><path class="cls-1" d="M196.18,252.6c.56,1.39,2.1,2.43,5.33,3.22l0-.61C200.86,255.3,199.41,255,196.18,252.6Z"/><path class="cls-1" d="M538.34,415.54l-2.72,3.95C537.87,421.22,537.54,421.69,538.34,415.54Z"/><path class="cls-1" d="M759.34,462.52a8.49,8.49,0,0,1,.68,2.38,8.32,8.32,0,0,1,2.22-2.58C760.94,462.08,760.06,462,759.34,462.52Z"/><path class="cls-1" d="M672.45,449.08c.42-1.67,2.64-1,4.94.25,1-1.91,2.21-4.07,1.51-5.72-1.24-2.93-5.8,3.69-8.87,4.21-.56,4.93-.74,8.33-.23,8.62,1.76,1,4-.57,5.63-1a4.58,4.58,0,0,1-.71-.4C671.53,452.83,671.47,453.05,672.45,449.08Z"/><path class="cls-1" d="M687,427.16c.44-.4.88-.78,1.31-1.16.21-.88.43-1.76.67-2.64.46-1.72,1-3.38,1.62-5a8.23,8.23,0,0,0-2,3.43C687.94,424.42,687.45,425.86,687,427.16Z"/><path class="cls-1" d="M684.64,447.35a6.14,6.14,0,0,0,.45,1.8l0,0a1.73,1.73,0,0,0,1.13.85,58.91,58.91,0,0,1,0-11.28q-.59-.19-1.14-.42A43.16,43.16,0,0,0,684.64,447.35Z"/><path class="cls-1" d="M684.13,458.53a5.28,5.28,0,0,1-1.82-4,10.11,10.11,0,0,1-4.8,1.31c.62.74.91,2.23.91,4.87,0,4.08,0,3.85,3.63,5.21,2.6,1,5.19-.6,6.45-1.58C686.83,463,685.7,459.86,684.13,458.53Z"/><path class="cls-1" d="M419.25,351.28l-.29-.19c0,.12,0,.26,0,.39l.07.09Z"/><path class="cls-2" d="M658.52,553.15c-2.37,2.36-4.79,4.67-7.23,6.94v-27a12,12,0,0,0-12-11.93H527.35a12,12,0,0,0-12,11.93v38.77a12,12,0,0,0,12,11.93h.07V606.6l12-22.84h82.8a272,272,0,0,1-65.59,34v2.59a274.26,274.26,0,0,0,69.77-36.62h12.88a12,12,0,0,0,12-11.93v-8.39q4.56-4.17,9-8.56c3.66-3.66,7.2-7.42,10.62-11.24h-3.29Q663.17,548.49,658.52,553.15Z"/><path class="cls-2" d="M271.09,554.46h9.67a34.1,34.1,0,0,0,34.06-34.06v-122a34.09,34.09,0,0,0-34.06-34.06H189.29c0-1.86-.07-3.71-.07-5.57a279.78,279.78,0,0,1,1.84-31.95H188.6a282.08,282.08,0,0,0-1.83,31.95c0,1.86,0,3.71.07,5.57H163a34.13,34.13,0,0,0-6.51.63V372a27.43,27.43,0,0,1,6.51-.79H280.76a27.19,27.19,0,0,1,27.16,27.16v122a27.21,27.21,0,0,1-21.23,26.5,27.56,27.56,0,0,1-5.93.66H163a27.2,27.2,0,0,1-27.16-27.16V420.14l-6.9-11.44V520.4A34.1,34.1,0,0,0,163,554.46H267.6l.41.42A276.34,276.34,0,0,0,367.82,619v-2.61A274.06,274.06,0,0,1,271.09,554.46Z"/><path class="cls-2" d="M627.77,137.79q.71-1,1.47-1.95A274.21,274.21,0,0,0,556.14,97v2.59A272.26,272.26,0,0,1,627.77,137.79Z"/><rect class="cls-2" x="710.29" y="482.77" height="2.75"/><path class="cls-2" d="M739,351.79h2.45a280.81,280.81,0,0,0-3.84-39.89h-2.48A279.24,279.24,0,0,1,739,351.79Z"/><path class="cls-2" d="M369.08,100.67V98.05a275,275,0,0,0-76,42.34c.7.48,1.38,1,2.05,1.5A272.34,272.34,0,0,1,369.08,100.67Z"/><path class="cls-3" d="M514.6,85.47V62.63h-.08a12,12,0,0,1-12-11.93V39.15H403.35A27.36,27.36,0,0,0,376,66.48V189.23a27.36,27.36,0,0,0,27.33,27.33h5.78c.46-21.89,7.25-44.27,26.12-53.63a23.15,23.15,0,0,1,10-2.33l6,0v-2.18a34.93,34.93,0,0,0-7.92.92c-11.44,3.25-38.94-.38-42.63-6.79-1.47-1.22-1.56-2.43.35-3.46,7.85-10.37,5.18-40.89,21.77-71.41.39-.73.79-1.46,1.21-2.19C442,44.21,462.61,58.67,462.61,58.67s9.57-.1,18.18,0,21.54,13.9,22.26,26.77c.24,4.2.39,9.15.56,14.25a10.85,10.85,0,0,1,.82,18,94.53,94.53,0,0,0,1.13,10.13c1.79,9.68,12.57,13.29,13.65,17.24s-3.23,6.74-3.23,6.74c-6.49,7-22.81,7.62-38.69,7.2v1.27l6.15-.05c23.9,0,32.83,31.87,33.39,56.31h5a27.36,27.36,0,0,0,27.33-27.33V66.48a27.15,27.15,0,0,0-.28-3.85H526.58Z"/><path class="cls-4" d="M497.73,120.65a31.29,31.29,0,0,1-20.44,29.26V159c15.88.42,32.2-.18,38.69-7.2,0,0,4.3-2.79,3.23-6.74s-11.86-7.56-13.65-17.24a94.53,94.53,0,0,1-1.13-10.13,12.43,12.43,0,0,1-6.7,2.49Z"/><path class="cls-5" d="M431.85,121.41h-.46c-6.62,0-12-5-12-11.25s5.36-11.25,12-11.25h.44v-.3a16.4,16.4,0,0,0,15.71-7.49C455.69,78.87,470,65.38,470,65.38c11.4,24.82,22.94,30.83,27.7,32.29v.1l.53,0a8.79,8.79,0,0,0,1.74.31,12.27,12.27,0,0,1,3.61,1.56c-.17-5.1-.32-10-.56-14.25-.72-12.87-13.64-26.68-22.26-26.77s-18.18,0-18.18,0S442,44.21,424.07,75.44c-.42.73-.82,1.46-1.21,2.19-16.59,30.52-13.92,61-21.77,71.41a2.93,2.93,0,0,0-.35,3.46c3.69,6.41,31.19,10,42.63,6.79a34.93,34.93,0,0,1,7.92-.92v-8.85A31.29,31.29,0,0,1,431.85,121.41Z"/><path class="cls-4" d="M483.44,160.25l-6.15.05v10l-11.53,10.45L451.29,170v-9.45l-6,0a23.15,23.15,0,0,0-10,2.33c-18.87,9.36-25.66,31.74-26.12,53.63h107.7C516.27,192.12,507.34,160.25,483.44,160.25Z"/><path class="cls-6" d="M369.08,189.23a34.3,34.3,0,0,0,34.27,34.27H521.87a34.3,34.3,0,0,0,34.27-34.27V66.48a34.92,34.92,0,0,0-.22-3.85h-7a27.15,27.15,0,0,1,.28,3.85V189.23a27.36,27.36,0,0,1-27.33,27.33H403.35A27.36,27.36,0,0,1,376,189.23V66.48a27.36,27.36,0,0,1,27.33-27.33h99.14V32.21H403.35a34.3,34.3,0,0,0-34.27,34.27V189.23Z"/><path class="cls-7" d="M465.76,180.71l11.53-10.45V149.91a31.29,31.29,0,0,0,20.44-29.26v-.44a12.43,12.43,0,0,0,6.7-2.49,10.85,10.85,0,0,0-.82-18A12.27,12.27,0,0,0,500,98.13a8.79,8.79,0,0,1-1.74-.31l-.53,0v-.1C493,96.21,481.43,90.2,470,65.38c0,0-14.34,13.49-22.49,25.76a16.4,16.4,0,0,1-15.71,7.49v.3h-.44c-6.62,0-12,5-12,11.25s5.36,11.25,12,11.25h.46a31.29,31.29,0,0,0,19.44,28.11V170Z"/><path class="cls-3" d="M702.56,239v10.94h.1V239Z"/><path class="cls-3" d="M655.42,130.22a27,27,0,0,0-26.93,26.93v121a27,27,0,0,0,26.93,26.93h4c.24-9.9,1.94-19.9,5.73-28.72a16.2,16.2,0,0,1-4.08-4.58c-4.93-8.62,0-7.8,2.47-18.07s.82-11.81.82-11.81-4.93-9.55-4.93-17.76-.41-11.5,5.34-22.18,2.46-15.19,6.33-27.1,6.81-15.61,18.31-25.42,28.65-4.11,28.65-4.11a113.7,113.7,0,0,0,11.66-1.85c5.76-1.28,14.51,4.95,20.27,12.1S762.7,177.9,762.7,188s-2.76,21,.46,29.26c2.69,6.9,1.22,27.5-1.2,40.81,11,10.86,15.62,30.13,16.14,46.29a27,27,0,0,0,21-26.27v-121a27,27,0,0,0-15.9-24.56l-10.82,15.84v-18.2h-117Z"/><path class="cls-2" d="M760.39,265.12c-3.16,11.18-31-4.94-32.16-5.64l-11.3,10.25-14.27-10.55v-9.29h-.1v3.76c0,16.4-2.43,25.91-9.41,29.2a14,14,0,0,1-12.51,0s-9.19-1.56-15.45-6.51c-3.79,8.82-5.49,18.82-5.73,28.72H772.23a26.47,26.47,0,0,0,5.87-.66c-.52-16.16-5.18-35.43-16.14-46.29C761.47,260.81,760.94,263.2,760.39,265.12Z"/><path class="cls-6" d="M799.15,157.15v121a27,27,0,0,1-21,26.27,26.47,26.47,0,0,1-5.87.66H655.42a27,27,0,0,1-26.93-26.93v-121a27,27,0,0,1,26.93-26.93h117v-4.64h-.1a19,19,0,0,1-9-2.21H655.42a33.72,33.72,0,0,0-26.18,12.46q-.76.94-1.47,1.95a33.61,33.61,0,0,0-6.13,19.36v121a33.81,33.81,0,0,0,33.78,33.77H772.23A33.82,33.82,0,0,0,806,278.13v-121a33.81,33.81,0,0,0-18.84-30.28l-3.91,5.72A27,27,0,0,1,799.15,157.15Z"/><path class="cls-7" d="M728.19,239.42a30.84,30.84,0,0,0,20.24-28.88V185a30.81,30.81,0,0,0-30.73-30.73h-1.14l-10.19,13.91c-4.7,6.42-16.32,9.42-16.32,19.25,0,1.06,0,2.05-.14,3a4,4,0,0,1,2.51-.88h17a4,4,0,0,1,4,4v.11s-.17,1.25-.46,3h6.83c-.29-1.7-.45-2.92-.47-3v-.11a4,4,0,0,1,4-4h17a4,4,0,0,1,4,4v.11c0,.05-.74,5.4-1.79,9.65a6.43,6.43,0,0,1-6.27,4.89h-9.39a5.88,5.88,0,0,1-5.69-4.42c-.44-1.74-.83-3.67-1.14-5.38h-7.41c-.38,2.24-.89,4.91-1.48,7.2a5.06,5.06,0,0,1-4.91,3.8H696.07a5.77,5.77,0,0,1-5.6-4.42c-.75-3.1-1.37-6.76-1.73-9.06a15,15,0,0,1-5.25,7.34v7.25A30.83,30.83,0,0,0,702.56,239l.1.05v20.18l14.27,10.55,11.3-10.25,0,0Z"/><path class="cls-8" d="M693.15,282.85c7-3.29,9.41-12.8,9.41-29.2V239a30.83,30.83,0,0,1-19.07-28.41v-7.25a15,15,0,0,0,5.25-7.34c-.21-1.35-.33-2.24-.34-2.26v-.11a4,4,0,0,1,1.52-3.15c.09-.94.14-1.93.14-3,0-9.83,11.62-12.83,16.32-19.25l10.19-13.91h1.14A30.81,30.81,0,0,1,748.43,185v25.53a30.84,30.84,0,0,1-20.24,28.88v20l0,0c1.19.7,29,16.82,32.16,5.64.55-1.92,1.08-4.31,1.57-7,2.42-13.31,3.89-33.91,1.2-40.81-3.22-8.3-.46-19.12-.46-29.26S755.79,162.7,750,155.56s-14.51-13.38-20.27-12.1a113.7,113.7,0,0,1-11.66,1.85s-17.15-5.7-28.65,4.11S675,162.93,671.14,174.84s-.58,16.42-6.33,27.1-5.34,14-5.34,22.18,4.93,17.76,4.93,17.76,1.64,1.54-.82,11.81-7.4,9.45-2.47,18.07a16.2,16.2,0,0,0,4.08,4.58c6.26,5,15.45,6.51,15.45,6.51A14,14,0,0,0,693.15,282.85Z"/><path class="cls-7" d="M726.93,206.52h9.39a4.73,4.73,0,0,0,4.61-3.59c1-3.92,1.66-8.81,1.74-9.41a2.31,2.31,0,0,0-2.31-2.26h-17a2.31,2.31,0,0,0-2.31,2.26c.08.62.83,5.87,1.85,9.86A4.16,4.16,0,0,0,726.93,206.52Z"/><path class="cls-7" d="M692.14,204.61a4,4,0,0,0,3.93,3.1H706.3a3.34,3.34,0,0,0,3.25-2.5c1.19-4.66,2.09-11,2.18-11.69a2.31,2.31,0,0,0-2.31-2.26h-17a2.31,2.31,0,0,0-2.31,2.26C690.2,194.18,691,200,692.14,204.61Z"/><path class="cls-6" d="M690.47,205a5.77,5.77,0,0,0,5.6,4.42H706.3a5.06,5.06,0,0,0,4.91-3.8c.59-2.29,1.1-5,1.48-7.2h7.41c.31,1.71.7,3.64,1.14,5.38a5.88,5.88,0,0,0,5.69,4.42h9.39a6.43,6.43,0,0,0,6.27-4.89c1-4.25,1.78-9.6,1.79-9.65v-.11a4,4,0,0,0-4-4h-17a4,4,0,0,0-4,4v.11c0,.11.18,1.33.47,3H713c.29-1.78.45-3,.46-3v-.11a4,4,0,0,0-4-4h-17a4,4,0,0,0-4,4v.11s.13.91.34,2.26C689.1,198.25,689.72,201.91,690.47,205Zm32.89-13.75h17a2.31,2.31,0,0,1,2.31,2.26c-.08.6-.77,5.49-1.74,9.41a4.73,4.73,0,0,1-4.61,3.59h-9.39a4.16,4.16,0,0,1-4-3.14c-1-4-1.77-9.24-1.85-9.86A2.31,2.31,0,0,1,723.36,191.26Zm-30.94,0h17a2.31,2.31,0,0,1,2.31,2.26c-.09.69-1,7-2.18,11.69a3.34,3.34,0,0,1-3.25,2.5H696.07a4,4,0,0,1-3.93-3.1c-1.12-4.58-1.94-10.43-2-11.09A2.31,2.31,0,0,1,692.42,191.26Z"/><polygon class="cls-3" points="236.45 481.32 236.45 481.32 236.45 481.32 236.45 481.32"/><path class="cls-3" d="M210.6,480.93h0l0,0Z"/><path class="cls-3" d="M142.61,408.44h-.09v22.84l-6.73-11.14V520.4A27.2,27.2,0,0,0,163,547.56H167c.52-21.76,8.06-44,29-53.31a28,28,0,0,1,11.12-2.31l3.42,0v-3.54s-7.81-8.08-18.42-8.08-6.65-1.82-13.47-12.43-12.87-5.3-12.87-14.38,3-4.55,0-15.15-3.79-12.87,5.3-22,12.87-9.25,13.63-18.26,9-2.84,15-11.93,12.17-11,26.56-8.12,19.76-4.85,25.81,5,2.2,10.15,8.38,15.38,4.28,2.86,6.19,9,.95,8.56,4.75,11.42,3.81,1.17,3.81,9.86,6.18,11.54,4.28,18.2,2.85,11.42-3.33,15.22-1.43-1.9-7.61,6.19-11.87,7.34-11.87,7.34-6.13,7.75-9.46,9.17-10.85,5.49-10.85,5.49v1.34l13.15-.11c26.32,0,36.31,31.11,37.09,55.31a27.21,27.21,0,0,0,21.23-26.5v-122a27.19,27.19,0,0,0-27.16-27.16H163a27.43,27.43,0,0,0-6.51.79v24.49C156.44,403.07,150.22,408.44,142.61,408.44Z"/><path class="cls-4" d="M249.6,491.59l-13.15.11v9.84L225,511.93,210.6,501.28v-9.37l-3.42,0a28,28,0,0,0-11.12,2.31c-21,9.3-28.51,31.55-29,53.31H280.76a27.56,27.56,0,0,0,5.93-.66C285.91,522.7,275.92,491.59,249.6,491.59Z"/><path class="cls-9" d="M225,511.93l11.46-10.39V481.32h0c.07-.05,13.38-7.92,18.08-26.31,6.51-25.52-12.21-54.54-12.21-54.54s-2.31.32-9.89,5.62-9.8,6.5-18.13,8,1.52,8.39-8.33,13.66-16.18,4.37-14.27,19.56c3.06,24.42,18.2,33.22,18.87,33.6h0v20.34Z"/><path class="cls-6" d="M210.57,480.92c-.67-.38-15.81-9.18-18.87-33.6-1.91-15.19,4.43-14.29,14.27-19.56s0-12.15,8.33-13.66,10.56-2.71,18.13-8,9.89-5.62,9.89-5.62,18.72,29,12.21,54.54c-4.7,18.39-18,26.26-18.08,26.31h0v9s7.53-4.06,10.85-5.49,9.46-9.17,9.46-9.17,5.68.74,11.87-7.34,1.43-2.38,7.61-6.19,1.43-8.56,3.33-15.22-4.28-9.51-4.28-18.2,0-7-3.81-9.86-2.85-5.24-4.75-11.42,0-3.81-6.19-9-2.32-5.53-8.38-15.38-11.42-2.07-25.81-5-20.5-1-26.56,8.12-14.26,2.93-15,11.93-4.54,9.18-13.63,18.26-8.33,11.36-5.3,22,0,6.06,0,15.15,6.06,3.78,12.87,14.38,2.87,12.43,13.47,12.43,18.42,8.08,18.42,8.08v-7.43Z"/><path class="cls-3" d="M172.26,270.41c1.89-.93,9.25-3.21,15.55-4.88A23.26,23.26,0,0,1,197,263.6l5.22-.05-.68-7.73c-3.23-.79-4.77-1.83-5.33-3.22a64.06,64.06,0,0,1-5.46-4.74c-3.93-3.75-6-12-7-20.39a12.93,12.93,0,0,1-.68-7.27c-.35-5.33-.38-10.21-.34-13.46l0-.27s-5.23-20,2.34-28.37,24.77-13.1,42.37-9.82,24.1.48,24.64,8.43c.09,1.42-1,4.68-2.76,9.11,6.47,7,10.23,16.83,10.66,27.77,2.52,5.07,6.94,19.6,6,23-.56,1.94-5,2.13-9.13,1.85-3.07,13.57-7.89,21.29-21.25,20.55l-.92,4.27h.77a25.87,25.87,0,0,1,3.57.25c12.84-2.51,24.83,5.54,35.43,11.7q13.25,7.69,27.08,14.29V169A27.49,27.49,0,0,0,274,141.56H154.85A27.48,27.48,0,0,0,127.4,169V292.37a27.5,27.5,0,0,0,24.65,27.32C152.51,297.69,153.3,279.81,172.26,270.41Z"/><path class="cls-3" d="M152.05,319.69c.92.09,1.86.14,2.8.14h5.81a.62.62,0,0,0,0-.13Z"/><path class="cls-10" d="M274,326.81c.79,0,1.57,0,2.35-.09-3.54-2.23-7-4.54-10.48-6.89h-111c-.94,0-1.88-.05-2.8-.14a27.5,27.5,0,0,1-24.65-27.32V169a27.48,27.48,0,0,1,27.45-27.46H274A27.49,27.49,0,0,1,301.41,169V289.48q3.46,1.66,7,3.26c0-.13,0-.25,0-.37V169a34.38,34.38,0,0,0-13.27-27.13c-.67-.52-1.35-1-2.05-1.5a34.3,34.3,0,0,0-19.12-5.8H154.85A34.47,34.47,0,0,0,120.42,169V292.37a34.48,34.48,0,0,0,34.43,34.44H274Z"/><path class="cls-3" d="M402.4,516.67a27.6,27.6,0,0,0-27.57,27.57v123.9a27.61,27.61,0,0,0,24.51,27.4c.51-25.31,8.4-51.23,30.42-62a27,27,0,0,1,11.66-2.69l9.36-.08V629c-11.64-3-20.08-10.92-20.08-24.07l.07-5.18h-.07c-6.68,0-12.09-5.09-12.09-11.36a11.51,11.51,0,0,1,9-11c-.66-12.18-1.1-29,.42-41.49,0,0,38.95-12.46,75,2.57l-2.93,37.8a11.48,11.48,0,0,1,8.74,10.91c0,6-4.95,10.9-11.22,11.32v5.59c0,13.51-8.62,22-20.63,25v1.38l8.83-.08c27.9,0,38.28,37,38.88,65.19a27.62,27.62,0,0,0,24.86-27.44V583.76H539.4l-12,22.84V583.76h-.07a12,12,0,0,1-12-11.93V533.06a12,12,0,0,1,12-11.93H537a27.39,27.39,0,0,0-15-4.46Z"/><path class="cls-4" d="M431.09,577l.06-4.23a31.56,31.56,0,0,1,31.47-31.47h3.57a31.56,31.56,0,0,1,31.47,31.47v3.06a12,12,0,0,1,2.48.41l2.93-37.8c-36.08-15-75-2.57-75-2.57-1.52,12.51-1.08,29.31-.42,41.49a13,13,0,0,1,3.08-.37Z"/><path class="cls-11" d="M472.08,578.53h17.4a2.16,2.16,0,0,1,2.16,2.16v7.47a2.16,2.16,0,0,1-2.16,2.16h-17.4a2.15,2.15,0,0,1-2.15-2.15v-7.48a2.15,2.15,0,0,1,2.15-2.15Z"/><path class="cls-11" d="M440.39,578.53h17.4a2.16,2.16,0,0,1,2.16,2.16v7.47a2.15,2.15,0,0,1-2.15,2.15h-17.4a2.15,2.15,0,0,1-2.15-2.15v-7.47a2.16,2.16,0,0,1,2.16-2.16Z"/><path class="cls-4" d="M485.86,630.39l-8.83.08v7.23c-6.76,4-16.92,4.35-24.26.79l-2-1v-6.81l-9.36.08a27,27,0,0,0-11.66,2.69c-22,10.82-29.91,36.74-30.42,62a28.24,28.24,0,0,0,3.06.17H522c.92,0,1.83-.05,2.72-.13C524.14,667.35,513.76,630.39,485.86,630.39Z"/><path class="cls-10" d="M556.61,583.76h-7v84.38a27.62,27.62,0,0,1-24.86,27.44c-.89.08-1.8.13-2.72.13H402.4a28.24,28.24,0,0,1-3.06-.17,27.61,27.61,0,0,1-24.51-27.4V544.24a27.6,27.6,0,0,1,27.57-27.57H522a27.39,27.39,0,0,1,15,4.46h10.69A34.51,34.51,0,0,0,522,509.66H402.4a34.62,34.62,0,0,0-34.58,34.58v123.9a34.62,34.62,0,0,0,34.58,34.58H522a34.64,34.64,0,0,0,34.59-34.58V583.76Z"/><path class="cls-11" d="M450.78,637.53l2,1c7.34,3.56,17.5,3.23,24.26-.79v-8.61c12-3.07,20.63-11.52,20.63-25v-5.59c6.27-.42,11.22-5.33,11.22-11.32a11.48,11.48,0,0,0-8.74-10.91,12,12,0,0,0-2.48-.41v-3.06a31.56,31.56,0,0,0-31.47-31.47h-3.57a31.56,31.56,0,0,0-31.47,31.47l-.06,4.23h-.39a13,13,0,0,0-3.08.37,11.51,11.51,0,0,0-9,11c0,6.27,5.41,11.36,12.09,11.36h.07l-.07,5.18c0,13.15,8.44,21,20.08,24.07v8.58Zm-10.39-45a4.35,4.35,0,0,1-4.34-4.34v-7.48a4.35,4.35,0,0,1,4.34-4.34h17.4a4.35,4.35,0,0,1,4.35,4.34v3h5.59v-3a4.35,4.35,0,0,1,4.35-4.34h17.4a4.35,4.35,0,0,1,4.35,4.34v7.48a4.35,4.35,0,0,1-4.35,4.34h-17.4a4.35,4.35,0,0,1-4.35-4.34v-2.29h-5.59v2.29a4.35,4.35,0,0,1-4.35,4.34Z"/><path class="cls-4" d="M462.14,588.16v-2.29h5.59v2.29a4.35,4.35,0,0,0,4.35,4.34h17.4a4.35,4.35,0,0,0,4.35-4.34v-7.48a4.35,4.35,0,0,0-4.35-4.34h-17.4a4.35,4.35,0,0,0-4.35,4.34v3h-5.59v-3a4.35,4.35,0,0,0-4.35-4.34h-17.4a4.35,4.35,0,0,0-4.34,4.34v7.48a4.35,4.35,0,0,0,4.34,4.34h17.4A4.35,4.35,0,0,0,462.14,588.16Zm7.78-7.48a2.16,2.16,0,0,1,2.16-2.15h17.4a2.16,2.16,0,0,1,2.16,2.15v7.48a2.16,2.16,0,0,1-2.16,2.15h-17.4a2.16,2.16,0,0,1-2.16-2.15Zm-31.68,7.48v-7.48a2.15,2.15,0,0,1,2.15-2.15h17.4a2.16,2.16,0,0,1,2.16,2.15v7.48a2.16,2.16,0,0,1-2.16,2.15h-17.4A2.16,2.16,0,0,1,438.24,588.16Z"/><path class="cls-10" d="M918.11,63H772.33c-8.62,0-15.66,5.36-15.66,11.92v38.78c0,4,2.62,7.54,6.62,9.71a19,19,0,0,0,9,2.21h.1v22.84l10.82-15.84,3.91-5.72.88-1.28H918.11c8.61,0,15.66-5.36,15.66-11.92V74.89C933.77,68.33,926.72,63,918.11,63Z"/><path class="cls-10" d="M142.52,431.28V408.44h.09c7.61,0,13.83-5.37,13.83-11.93V357.73c0-6.55-6.22-11.92-13.83-11.92H13.84C6.23,345.81,0,351.18,0,357.73v38.78c0,6.56,6.23,11.93,13.84,11.93H128.73l.16.26,6.9,11.44Z"/><path class="cls-12" d="M401.37,365.87c.73.45,1.5,1,2.31,1.6A131.94,131.94,0,0,1,417,351.37a1.37,1.37,0,0,1,2,.11c0-.13,0-.27,0-.39l.29.19c1.93,1.22,3.89,2.35,5.75,3.42,2.64,1.52,7.16,3.33,8.88-.52,1.77-4-3.28-7.06-6.05-8.72a31,31,0,0,0-3.38-1.75c-.92-.41-1.86-.77-2.82-1.09-6.75-3.18-15-5.6-19.2-3.93l-88.49-35.85c-4.47,8.16-9.13,16.21-13.84,24.24C326.23,336.7,395.94,362.51,401.37,365.87Z"/><path class="cls-3" d="M433.88,354.18c-1.72,3.85-6.24,2-8.88.52-1.86-1.07-3.82-2.2-5.75-3.42l-.19.29-.07-.09a1.37,1.37,0,0,0-2-.11,131.94,131.94,0,0,0-13.34,16.1c-.43.61-.87,1.22-1.29,1.83-2.23,3.22-4.21,6.57-6.14,10-1.83,3.2-3.87,6.5-4.46,10.19a.23.23,0,0,0,.39.22l.56-.5a1.32,1.32,0,0,0,.32.59c7.81,8.77,17.37,15.6,27.14,22a335.66,335.66,0,0,0,30.24,17.68c3.41,1.78,6.89,3.57,10.35,5.42l.13.09L471,441.91a192.15,192.15,0,0,1,28,24.41,2.64,2.64,0,0,0,2.31.89c.31,1.85,3.13,2.94,4.34.86l15.23-26.14a2.34,2.34,0,0,0,.26-.34l5.31-8.78,5.32-7.73-.43-.35q1.75-2.89,3.5-5.79c.29.19.54.38.77.55l2.72-3.95c0-.23.06-.46.09-.71,1.46-11-23.78-24-8.47-24.95,9-.57,15.23,3.91,20,8.79l1.89-2.74-55.08-37.87c-1.7-1.45-3.41-2.9-5.13-4.32A230.44,230.44,0,0,0,467.52,336c-4.33-2.7-8.8-5.19-13.37-7.47l-1.25-.65L441,319.71l-3,4.39a17.32,17.32,0,0,0-3.61,4.16,55.63,55.63,0,0,0-5.8,9.52l-4.08,5.93a31,31,0,0,1,3.38,1.75C430.6,347.12,435.65,350.18,433.88,354.18Zm5.81,18.65c3.06-4.46,6.25-8.85,9.44-13.22,2.6-3.54,5.13-7.9,8.52-10.76a1.23,1.23,0,0,1,1.93,1.48c-1.88,3.85-5.25,7.24-7.86,10.6-3.49,4.49-6.9,9.05-10.33,13.59-6.05,8-12.16,16.17-17.43,24.72a0,0,0,0,1-.07,0C428.13,389.84,433.9,381.29,439.69,372.83Zm54.08,35.81c-5.07,7.9-9.94,15.95-15.3,23.66a.31.31,0,0,1-.53-.31c3.79-8.54,9.22-16.42,14.06-24.39s9.88-16,14.37-24.21c.85-1.56,3.27-.15,2.38,1.39C504.05,392.9,498.83,400.74,493.77,408.64Zm5.78-29.05c-9,15.86-21.31,29.69-30.75,45.3a.77.77,0,0,1-1.33-.77A341.5,341.5,0,0,1,496,377.54C497.56,375.49,500.87,377.26,499.55,379.59ZM489,372.25a425.85,425.85,0,0,0-32.23,46.94c-.3.51-1.21.16-1-.41,3.49-8.72,8.72-16.76,13.78-24.63C474.83,386,480.26,377.83,486,370A1.87,1.87,0,1,1,489,372.25Zm-8.62-10.9c-1.6,4.36-4.57,8.27-7.11,12.14-3.14,4.75-6.36,9.45-9.6,14.14-6.06,8.78-12.34,17.41-18.39,26.2-.88,1.29-2.94.14-2.11-1.23,5.49-9.14,11.51-17.91,17.45-26.75,3.18-4.73,6.33-9.47,9.4-14.26,2.52-3.93,4.69-8.22,7.61-11.85C478.63,358.47,480.92,359.84,480.36,361.35Zm-12.87-3.21c-1.65,4-4.81,7.54-7.35,11-3.22,4.37-6.45,8.73-9.65,13.12-5.93,8.13-12.46,16-17.71,24.63a.5.5,0,0,1-.86-.5A286.45,286.45,0,0,1,447.7,380.6c3.17-4.61,6.37-9.19,9.57-13.79,2.34-3.36,4.57-7.4,7.6-10.2C465.91,355.64,468.14,356.59,467.49,358.14ZM530.13,417a2.75,2.75,0,0,0-.17-.29l.33.1C530.24,416.85,530.18,416.91,530.13,417Zm-81.71-77.51c1.18-1.33,3.1.38,2.35,1.82-5,9.53-12.72,18.1-19.14,26.7s-12.7,17.1-19.86,24.95c-.18.2-.47-.06-.36-.28,4.86-9.75,11.63-18.58,18-27.35C435.71,356.77,441.45,347.44,448.42,339.47Z"/><path class="cls-3" d="M632.19,509.27a27.24,27.24,0,0,0,2.7,11.86h4.37a12,12,0,0,1,12,11.93v2.32a27.15,27.15,0,0,0,8.3,1.29h5.8a104.3,104.3,0,0,1,1.3-14.47l-29.15-23.61,2.2-4.81-7.55-5.09Z"/><path class="cls-3" d="M653.56,463.65l43.11,17.47a23.57,23.57,0,0,1,5-.56l6-.06V474a30.7,30.7,0,0,1-4-.76,26.14,26.14,0,0,1-3.4-1.19l-1.19,0c-2.5,0-4.76-3.86-7-5a5.23,5.23,0,0,1-2.14-2l-.14,0a3.08,3.08,0,0,1-1.25-.68c-1.26,1-3.85,2.56-6.45,1.58-3.63-1.36-3.63-1.13-3.63-5.21,0-2.64-.29-4.13-.91-4.87a5.31,5.31,0,0,1-2.08-.46c-1.6.45-3.87,2-5.63,1-.51-.29-.33-3.69.23-8.62a1.87,1.87,0,0,1-.62,0c-3-.44-3.63-1.84-3.63-1.84s4,.2,3.86-3-2.62-2.69-2-4.58,1.86-5,1.87-7.55-4.48-4.1-4.48-4.1,3-.19,2.07-3.89-.11-6.53-3-7.46-2.5-2.56-2.5-2.56,3.14,0,3.54-2.26,1.4-3.74-.89-4.63-2.52,1.9-5,1.27a3.94,3.94,0,0,1-2.78-3.36s1.37,2.7,2.25-.86,6.25-2.38,8.28-5.49,7.68-8.78,10.27-9.08,1.6-1.36-.46-1.94-1.83,1.05-4.65.36a6.65,6.65,0,0,1-3.94-2.49s5.24,1.71,6,.63,8.81-2.69,11.07-4.79,12-2.06,15.19-2.84,13.21-1.28,22.84,3,8,0,8,0a44.62,44.62,0,0,1,23.83-.36c12.33,3.51,13.81,2,18.36,4.54s8.38,7.42,10.42,10,2.83,7.62,6.71,9.69,6.38,4.09,6.53,7.91,3.19,4.88-.06,9.73-4.39,4.41-3.65,6.48,2.49,2.19,1.37,5.37-4.09,6.85-6.16,6.33-7.07-1.28-7.51.5,3.11,2.66,2.67,5.69-.69,7.22-2.39,6.48-3.23-3.47-4-.36-3.69,6.63-3.69,6.63-8.5,3.86-11.06,3.38l-.42-.07A8.32,8.32,0,0,0,760,464.9a8.49,8.49,0,0,0-.68-2.38,5.11,5.11,0,0,0-1.41,2.47c-1.14,3.34-2.84,5.74-4.1,5.75s-3.18,2-3.18,2,.55-4.74-1.85-3.29-1.14,3.33-5.14,2.34-3.14-2.7-6.12-1.67c-1.55,5.56-2.84,10.09-2.84,10.09h0l5.22-.05c31.64,5.2,37.5,30,33.48,56.47h5.06a27.44,27.44,0,0,0,27.41-27.4V386.16a27.44,27.44,0,0,0-27.41-27.4H659.59a27.43,27.43,0,0,0-27.4,27.4v69.92c7.83,4.95,14.61,9.22,19.27,12.15Z"/><path class="cls-6" d="M659.59,351.79a34.4,34.4,0,0,0-34.36,34.37v65.52l7,4.4V386.16a27.43,27.43,0,0,1,27.4-27.4H778.46a27.44,27.44,0,0,1,27.41,27.4V509.27a27.44,27.44,0,0,1-27.41,27.4H773.4c4-26.45-1.84-51.27-33.48-56.47l-5.22.05-12,19.13-.54,1.34-.16-.22-.14.22-.51-1.12-9.67-13.47-.62-.87-1.6-2.23-1.82-2.53-6,.06a23.57,23.57,0,0,0-5,.56l-43.11-17.47-2.1,4.58-11.72,25.55-2.2,4.81,29.15,23.61a104.3,104.3,0,0,0-1.3,14.47h-5.8a27.15,27.15,0,0,1-8.3-1.29v7.24a34.43,34.43,0,0,0,8.3,1H778.46a34.41,34.41,0,0,0,34.37-34.37V386.16a34.41,34.41,0,0,0-34.37-34.37H659.59Z"/><path class="cls-6" d="M632.19,488.69l-7-4.69v25.27a34.06,34.06,0,0,0,2.11,11.86h7.55a27.24,27.24,0,0,1-2.7-11.86Z"/><path class="cls-4" d="M686.24,450a1.73,1.73,0,0,1-1.13-.85l0,0a6.14,6.14,0,0,1-.45-1.8,43.16,43.16,0,0,1,.43-9,6,6,0,0,1-3.31-2.67c-1-2.11,2-5.56,5.27-8.51.42-1.3.91-2.74,1.56-5.37a8.23,8.23,0,0,1,2-3.43c6.8-18,22.47-29.54,38.09-28.21,3,4.22,8.89,14.11,8.44,26.54a44.57,44.57,0,0,0,.64,10,12.11,12.11,0,1,1,5.78,23.1c-.55,1.51-1.16,3.12-1.81,4.76-1.06,4.19-2.76,10.37-4.23,15.63,3-1,2.23.7,6.12,1.67s2.73-.9,5.14-2.34,1.85,3.29,1.85,3.29,1.92-2,3.18-2,3-2.41,4.1-5.75a5.11,5.11,0,0,1,1.41-2.47c.72-.56,1.6-.44,2.9-.2l.42.07c2.56.48,11.06-3.38,11.06-3.38s2.92-3.52,3.69-6.63,2.29-.38,4,.36,2-3.44,2.39-6.48-3.11-3.92-2.67-5.69,5.44-1,7.51-.5,5-3.15,6.16-6.33-.63-3.3-1.37-5.37.41-1.63,3.65-6.48.22-5.92.06-9.73-2.64-5.85-6.53-7.91-4.67-7.14-6.71-9.69-5.86-7.43-10.42-10-6-1-18.36-4.54a44.62,44.62,0,0,0-23.83.36s1.59,4.26-8,0-19.66-3.78-22.84-3-12.92.73-15.19,2.84S674.89,384,674.15,385s-6-.63-6-.63a6.65,6.65,0,0,0,3.94,2.49c2.82.69,2.59-.93,4.65-.36s3,1.64.46,1.94-8.24,6-10.27,9.08-7.4,1.94-8.28,5.49-2.25.86-2.25.86a3.94,3.94,0,0,0,2.78,3.36c2.51.63,2.73-2.15,5-1.27s1.3,2.37.89,4.63-3.54,2.26-3.54,2.26-.41,1.63,2.5,2.56,2.06,3.76,3,7.46-2.07,3.89-2.07,3.89,4.48,1.58,4.48,4.1-1.24,5.66-1.87,7.55,1.85,1.41,2,4.58-3.86,3-3.86,3,.59,1.4,3.63,1.84a1.87,1.87,0,0,0,.62,0c3.07-.52,7.63-7.14,8.87-4.21.7,1.65-.48,3.81-1.51,5.72-2.3-1.28-4.52-1.92-4.94-.25-1,4-.92,3.75,2.27,5.94a4.58,4.58,0,0,0,.71.4,5.31,5.31,0,0,0,2.08.46,10.11,10.11,0,0,0,4.8-1.31,5.28,5.28,0,0,0,1.82,4c1.57,1.33,2.7,4.42,4.37,5.85a3.08,3.08,0,0,0,1.25.68l.14,0a10.46,10.46,0,0,0,1.88.36C688.65,461.36,686.89,456.06,686.24,450Z"/><path class="cls-13" d="M549.93,398.67c-4.74-4.88-10.95-9.36-20-8.79-15.31,1,9.93,14,8.47,24.95,0,.25-.06.48-.09.71-.8,6.15-.47,5.68-2.72,3.95-.23-.17-.48-.36-.77-.55q-1.74,2.9-3.5,5.79l.43.35c6.12,5,14.89,10.07,19.75,9.22l73.7,49.7,7,4.69,7.55,5.09,11.72-25.55c-4.66-2.93-11.44-7.2-19.27-12.15l-7-4.4c-27.78-17.58-63.6-40.47-67-43.75C555.85,405.7,553.25,402.09,549.93,398.67Z"/><path class="cls-13" d="M530.13,417c0-.07.11-.13.16-.19l-.33-.1A2.75,2.75,0,0,1,530.13,417Z"/><path class="cls-13" d="M737.54,470.16c1.47-5.26,3.17-11.44,4.23-15.63.65-1.64,1.26-3.25,1.81-4.76a12.11,12.11,0,1,0-5.78-23.1,44.57,44.57,0,0,1-.64-10c.45-12.43-5.43-22.32-8.44-26.54-15.62-1.33-31.29,10.23-38.09,28.21-.61,1.62-1.16,3.28-1.62,5-.24.88-.46,1.76-.67,2.64-.43.38-.87.76-1.31,1.16-3.25,2.95-6.22,6.4-5.27,8.51a6,6,0,0,0,3.31,2.67q.55.23,1.14.42a58.91,58.91,0,0,0,0,11.28c.65,6,2.41,11.32,5.53,15.42a21,21,0,0,0,8.48,6.61,26.14,26.14,0,0,0,3.4,1.19,30.7,30.7,0,0,0,4,.76v6.48l1.82,2.53,1.6,2.23,10.29,14.34h0l.51,1.12.14-.22h0l.16.22.54-1.34,12-19.13h0S736,475.72,737.54,470.16Z"/><path class="cls-12" d="M256.73,238.43c4.17.28,8.57.09,9.13-1.85,1-3.39-3.44-17.92-6-23-.43-10.94-4.19-20.82-10.66-27.77-.75-.8-1.52-1.57-2.34-2.29-3.63,0-9.89-.25-15-2.15s-11.38.81-15.28,2.94a56.62,56.62,0,0,0-7.08,14.25c-3.41,11.63.65,20.12.65,20.12s-1.36-1-3.36-2.34a12.83,12.83,0,0,0-11.16-6.49,12.12,12.12,0,0,0-1.48.09l-.4-.06,0,.11a12.84,12.84,0,0,0,1.84,25.55,12.69,12.69,0,0,0,3.87-.6l.73,6.26,1.23,14,0,.61.68,7.73.83,9.5,18.84,14.66,12.28-22.49.42-2,.92-4.27C248.84,259.72,253.66,252,256.73,238.43Z"/><path class="cls-4" d="M201.46,255.21l-1.23-14L199.5,235a12.69,12.69,0,0,1-3.87.6,12.84,12.84,0,0,1-11.92-8.08c1,8.42,3.08,16.64,7,20.39a64.06,64.06,0,0,0,5.46,4.74C199.41,255,200.86,255.3,201.46,255.21Z"/><path class="cls-4" d="M193.79,210l0-.11.4.06a12.12,12.12,0,0,1,1.48-.09,12.83,12.83,0,0,1,11.16,6.49c2,1.33,3.36,2.34,3.36,2.34s-4.06-8.49-.65-20.12a56.62,56.62,0,0,1,7.08-14.25c3.9-2.13,10.27-4.79,15.28-2.94s11.41,2.18,15,2.15c.82.72,1.59,1.49,2.34,2.29,1.8-4.43,2.85-7.69,2.76-9.11-.54-8-7-5.16-24.64-8.43s-34.79,1.43-42.37,9.82-2.34,28.37-2.34,28.37l0,.27c0,3.25,0,8.13.34,13.46A12.86,12.86,0,0,1,193.79,210Z"/><path class="cls-2" d="M502.49,50.7a12,12,0,0,0,12,11.93h.08V85.47l12-22.84h99.86a12,12,0,0,0,12-11.93V11.93A12,12,0,0,0,626.44,0H514.52a12,12,0,0,0-12,11.93V50.7Z"/><path class="cls-2" d="M288.83,333.69c.76.56,1.52,1.11,2.26,1.68,1.54,1.18,4,.22,4.9-1.28l4.11-7c4.71-8,9.37-16.08,13.84-24.24.43-.79.88-1.57,1.3-2.36.91-1.68.59-4.45-1.39-5.31s-3.65-1.61-5.47-2.43q-3.51-1.59-7-3.26-13.82-6.6-27.08-14.29c-10.6-6.16-22.59-14.21-35.43-11.7a25.87,25.87,0,0,0-3.57-.25h-.77l-.42,2-12.28,22.49L203,273.05l-.83-9.5-5.22.05a56.27,56.27,0,0,0-9.16,1.93c-6.3,1.67-13.66,4-15.55,4.88-19,9.4-19.75,27.28-20.21,49.28h8.62l28.82,0v.1H192v-.1l73.85.09h0c3.46,2.35,6.94,4.66,10.48,6.89,1.07.68,2.15,1.36,3.24,2C282,330.22,285.51,333.11,288.83,333.69Z"/><path class="cls-6" d="M411.41,392.66c-.11.22.18.48.36.28,7.16-7.85,13.51-16.45,19.86-24.95s14.15-17.17,19.14-26.7c.75-1.44-1.17-3.15-2.35-1.82-7,8-12.71,17.3-19,25.84C423,374.08,416.27,382.91,411.41,392.66Z"/><path class="cls-6" d="M424,399.24c5.27-8.55,11.38-16.71,17.43-24.72,3.43-4.54,6.84-9.1,10.33-13.59,2.61-3.36,6-6.75,7.86-10.6a1.23,1.23,0,0,0-1.93-1.48c-3.39,2.86-5.92,7.22-8.52,10.76-3.19,4.37-6.38,8.76-9.44,13.22-5.79,8.46-11.56,17-15.8,26.37A0,0,0,0,0,424,399.24Z"/><path class="cls-6" d="M464.87,356.61c-3,2.8-5.26,6.84-7.6,10.2-3.2,4.6-6.4,9.18-9.57,13.79a286.45,286.45,0,0,0-15.78,25.77.5.5,0,0,0,.86.5c5.25-8.6,11.78-16.5,17.71-24.63,3.2-4.39,6.43-8.75,9.65-13.12,2.54-3.44,5.7-7,7.35-11C468.14,356.59,465.91,355.64,464.87,356.61Z"/><path class="cls-6" d="M477.61,359.74c-2.92,3.63-5.09,7.92-7.61,11.85-3.07,4.79-6.22,9.53-9.4,14.26-5.94,8.84-12,17.61-17.45,26.75-.83,1.37,1.23,2.52,2.11,1.23,6.05-8.79,12.33-17.42,18.39-26.2,3.24-4.69,6.46-9.39,9.6-14.14,2.54-3.87,5.51-7.78,7.11-12.14C480.92,359.84,478.63,358.47,477.61,359.74Z"/><path class="cls-6" d="M486,370c-5.77,7.86-11.2,16-16.48,24.18-5.06,7.87-10.29,15.91-13.78,24.63-.23.57.68.92,1,.41A425.85,425.85,0,0,1,489,372.25,1.87,1.87,0,1,0,486,370Z"/><path class="cls-6" d="M496,377.54a341.5,341.5,0,0,0-28.57,46.58.77.77,0,0,0,1.33.77c9.44-15.61,21.77-29.44,30.75-45.3C500.87,377.26,497.56,375.49,496,377.54Z"/><path class="cls-6" d="M506.37,383.39c-4.49,8.23-9.51,16.19-14.37,24.21S481.73,423.45,477.94,432a.31.31,0,0,0,.53.31c5.36-7.71,10.23-15.76,15.3-23.66s10.28-15.74,15-23.86C509.64,383.24,507.22,381.83,506.37,383.39Z"/></g></g></svg>