<svg xmlns="http://www.w3.org/2000/svg" viewBox="0 0 1059.7 761.31"><defs><style>.cls-1{fill:none;}.cls-2{fill:#61e6ba;}.cls-3{fill:#fff;}.cls-4{fill:#7876fd;}.cls-5{fill:#0a2d4e;}.cls-6{fill:#50adff;}.cls-7{fill:#172e4b;}.cls-8{fill:#f4c55e;}.cls-9{fill:#a0721f;}.cls-10{fill:#44a3ea;}.cls-11{fill:#59d3a7;}.cls-12{fill:#07263f;}.cls-13{fill:#ddd;}</style></defs><g id="Layer_2" data-name="Layer 2"><g id="Layer_1-2" data-name="Layer 1"><path class="cls-1" d="M257.05,223.38c-3.27,4.52-6.29,8.59-8.85,11.88H316c.8-4,1.7-7.95,2.66-11.88Z"/><path class="cls-1" d="M181,263.3c-1.13.65-2.28,1.28-3.42,1.91,2.71-.82,5.43-1.64,8.13-2.5,3.7-1.17,7.49-2.28,11.28-3.43C191.23,260.79,185.73,262.16,181,263.3Z"/><path class="cls-1" d="M151.55,123.25c7.59,0,6.83,21.46,0,28.61l-3.25,3.37c.14,4.75.2,10.73,0,17.16a10.18,10.18,0,0,0,2.3,3.24,1.83,1.83,0,0,1,0,2.56,15.13,15.13,0,0,1-2.73,1.95c0,.35-.05.7-.08,1-1.08,13.23-4.08,19.21-7.64,21.57v12.69c2.48-.46,5-.86,7.55-1.15,3.66-.43,7.32-.71,11-.91,0-.22,0-.43,0-.64V61.51a10.67,10.67,0,0,1,10.64-10.64H409.84a10.67,10.67,0,0,1,10.64,10.64v2.72q9-7.17,18.49-13.66V48.75A9.76,9.76,0,0,0,429.22,39H149.87a9.77,9.77,0,0,0-9.76,9.76v72.71a19.24,19.24,0,0,1,7.79,1.79Z"/><path class="cls-1" d="M17.23,329.08V329l0,.12Z"/><path class="cls-1" d="M914.56,316.89a.56.56,0,0,0,.05-.08l-1-.3Z"/><path class="cls-1" d="M21,356.37c0,.23-.07.47-.1.71a10.19,10.19,0,0,0,1.32.42A14.45,14.45,0,0,1,21,356.37Z"/><path class="cls-1" d="M927.35,432.66h3.8a16.57,16.57,0,0,1-3.8-.78Z"/><path class="cls-1" d="M135.6,204.07h-5.32l-1.52,13.59h1.86q3.81-1.08,7.72-1.88V203.63A8.36,8.36,0,0,1,135.6,204.07Z"/><path class="cls-2" d="M787,450.63H644.82v80.79A239.54,239.54,0,0,0,774.38,464.2Q781,457.62,787,450.63Z"/><path class="cls-2" d="M603.72,576.11A282.58,282.58,0,0,1,321.14,293.54,285,285,0,0,1,326.77,237H315.64a294.74,294.74,0,0,0-5.46,56.51c0,162.11,131.42,293.54,293.54,293.54,8.56,0,17-.39,25.39-1.11V575Q616.53,576.09,603.72,576.11Z"/><path class="cls-2" d="M644.82,573.16v11a291.6,291.6,0,0,0,84.58-25.33c.7-5.53,3.27-10.76,6.67-15.52A279.57,279.57,0,0,1,644.82,573.16Z"/><path class="cls-2" d="M807,468.79l-1.22-18.16h-.47a260.88,260.88,0,0,1-20.9,23.6,253.61,253.61,0,0,1-139.6,71.56v13A266.4,266.4,0,0,0,793.5,483.32Q800.55,476.27,807,468.79Z"/><path class="cls-2" d="M784.42,112.84a254.33,254.33,0,0,1,62.67,102.42,18.83,18.83,0,0,1,4.43-2.36s1.86-1.59,7.56-2.35A268.55,268.55,0,0,0,440.75,80.26V96.7a255.57,255.57,0,0,1,343.67,16.14Z"/><path class="cls-2" d="M603.72,11A283,283,0,0,1,874,210.63a34.47,34.47,0,0,1,12.52,4C852,90.83,738.49,0,603.72,0a292.08,292.08,0,0,0-163,49.38V62.62A280.48,280.48,0,0,1,603.72,11Z"/><path class="cls-2" d="M423,474.23a253.86,253.86,0,0,1-74.84-180.69A257.61,257.61,0,0,1,354.41,237H341.27a271.25,271.25,0,0,0-5.94,56.51A268.39,268.39,0,0,0,603.72,561.93q12.79,0,25.39-1.19v-12.9q-12.57,1.23-25.39,1.24A253.87,253.87,0,0,1,423,474.23Z"/><path class="cls-2" d="M789.52,407.23a2.43,2.43,0,0,1-.22,2.84c-3,3.71-7.2,6.64-10.52,10.14-1,1.07-3.34,1-4-.51a5.81,5.81,0,0,0-.31-.61,4.84,4.84,0,0,1-3.1,5.08,24.68,24.68,0,0,1,5.91,8.49h13.15V406.54Z"/><path class="cls-2" d="M420.48,78.42q9-7.68,18.49-14.52V50.57Q429.45,57,420.48,64.23Z"/><path class="cls-2" d="M744.9,421.13c-1.87,1-4.48-1.06-3.89-3.26,2.08-7.7,6.45-14,11.36-20.11,3.61-7.74,8.52-15.45,14.44-18,0,0,7.7-31.19,23.37-45.33a134.91,134.91,0,0,1,24.14-17.32c.69-8.64,2.67-16.23,6.3-20.39,12.52-14.38,1.39-28.29,8.81-53.79A64.69,64.69,0,0,1,836,227.55a241.42,241.42,0,0,0-395.23-112v110A11.54,11.54,0,0,1,429.22,237H369a243.62,243.62,0,0,0-6.63,56.51A241.37,241.37,0,0,0,603.72,534.89a245.81,245.81,0,0,0,25.39-1.32V432.66h116.3a18.44,18.44,0,0,1,2.94-8.2C746.4,423.92,744.84,422.87,744.9,421.13ZM599.51,319.63a26.09,26.09,0,0,1-21.83-40.38l-56.6-65.07,10.71-9.31,56.59,65.07a26.28,26.28,0,0,1,4.55-1.66l3.7-179.68,14.18.29-3.69,179.69a26.09,26.09,0,0,1-7.61,51.05ZM657.7,252V211.47A12.75,12.75,0,0,1,670.65,199H791.12a12.75,12.75,0,0,1,13,12.47V252a12.75,12.75,0,0,1-13,12.47H791v23.88l-12.9-23.88H670.65A12.75,12.75,0,0,1,657.7,252Z"/><path class="cls-2" d="M318.64,223.38c-1,3.93-1.86,7.89-2.66,11.88h11.16c.83-4,1.74-7.95,2.74-11.88Z"/><path class="cls-2" d="M344.56,223.38q-1.59,5.9-2.91,11.88h13.18q1.4-6,3.06-11.88Z"/><path class="cls-2" d="M420.48,136.44v76.3a10.67,10.67,0,0,1-10.64,10.64H372.67q-1.79,5.9-3.25,11.88h59.8a9.76,9.76,0,0,0,9.75-9.75V117.17c-2,1.87-4,3.76-5.91,5.7Q426.48,129.46,420.48,136.44Z"/><path class="cls-2" d="M420.48,115.45c.85-.87,1.68-1.75,2.54-2.61q7.71-7.71,16-14.65V81.61q-9.56,7.45-18.49,15.85Z"/><path class="cls-3" d="M420.48,115.45V61.51a10.67,10.67,0,0,0-10.64-10.64H169.25a10.67,10.67,0,0,0-10.64,10.64V212.74c0,.21,0,.42,0,.64,9-.51,18.05-.54,27.07-.85,11.47-.41,23-1.47,33.92-5,3-2.92,6.64-6.92,10.65-11.47H211.76V151.69h21.38v41.08c2.27-2.61,4.61-5.35,7-8.14V141h21.39v17.63c3.08-3.83,5.52-6.89,7-8.71V124h21.38v7.42a24.45,24.45,0,0,0,5.83-6.13V107.34H317V196H295.66v-28.6l-5.83,8.67V196H276.25c-6.29,9.14-13.16,19-19.2,27.34H357.89q-1.67,5.9-3.06,11.88h14.59q1.47-6,3.25-11.88h37.17a10.67,10.67,0,0,0,10.64-10.64v-76.3q6-7,12.58-13.57c1.94-1.94,3.92-3.83,5.91-5.7v-19q-8.22,7-16,14.65C422.16,113.7,421.33,114.58,420.48,115.45ZM282.17,96.66c-24.62-.75-45.07,11.68-57.89,22.25A130.07,130.07,0,0,0,202,142.51L198.3,140a131.35,131.35,0,0,1,23.06-24.44c19.25-15.91,40.32-24,60.95-23.34,32.51,1,44.7-6.36,54.49-12.28,5.77-3.49,10.74-6.5,18.26-6.71l.12,4.44c-6.35.17-10.64,2.77-16.08,6.06C329.35,89.64,316,97.72,282.17,96.66ZM322.87,196V109.77h21.38V196Zm27.2,0V86h21.39V196Z"/><path class="cls-3" d="M805.32,450.63H787q-6,7-12.59,13.57a239.54,239.54,0,0,1-129.56,67.22v14.37a253.61,253.61,0,0,0,139.6-71.56A260.88,260.88,0,0,0,805.32,450.63Z"/><path class="cls-3" d="M433.06,464.2a239.74,239.74,0,0,1-70.7-170.66A243.62,243.62,0,0,1,369,237H354.41a257.61,257.61,0,0,0-6.23,56.51A255.54,255.54,0,0,0,603.72,549.08q12.81,0,25.39-1.24V533.57a245.81,245.81,0,0,1-25.39,1.32A239.74,239.74,0,0,1,433.06,464.2Z"/><path class="cls-3" d="M774.38,122.87A240,240,0,0,1,836,227.55a38.82,38.82,0,0,1,11.11-12.29A255.66,255.66,0,0,0,440.75,96.7v18.83a241.32,241.32,0,0,1,333.63,7.34Z"/><path class="cls-4" d="M793.5,103.76a267.21,267.21,0,0,1,65.58,106.79A63.29,63.29,0,0,1,873,210.5c.33,0,.66.09,1,.13a282.79,282.79,0,0,0-433.24-148V80.26a268.45,268.45,0,0,1,352.75,23.5Z"/><path class="cls-4" d="M740.16,538.21c19.1-25.45,61.46-49.83,67.25-53.09a1.71,1.71,0,0,1,.58-1.69l-1-14.64q-6.46,7.47-13.51,14.53a266.4,266.4,0,0,1-148.68,75.49v14.35a279.57,279.57,0,0,0,91.25-29.81A65.36,65.36,0,0,1,740.16,538.21Z"/><path class="cls-4" d="M329.88,223.38c-1,3.93-1.91,7.9-2.74,11.88h14.51q1.32-6,2.91-11.88Z"/><path class="cls-4" d="M420.48,97.46q8.94-8.37,18.49-15.85V63.9q-9.5,6.84-18.49,14.52Z"/><path class="cls-4" d="M413.94,483.32a266.64,266.64,0,0,1-78.61-189.78A271.25,271.25,0,0,1,341.27,237h-14.5a285,285,0,0,0-5.63,56.51A282.58,282.58,0,0,0,603.72,576.11q12.79,0,25.39-1.13V560.74q-12.58,1.17-25.39,1.19A266.64,266.64,0,0,1,413.94,483.32Z"/><path class="cls-4" d="M607.12,268.58l3.69-179.69-14.18-.29-3.7,179.68a26.28,26.28,0,0,0-4.55,1.66l-56.59-65.07-10.71,9.31,56.6,65.07a26.09,26.09,0,1,0,29.44-10.67Z"/><path class="cls-5" d="M801,561.9l32.28,46.37a.17.17,0,0,1,.15.14s0,.06,0,.09l.49.7-9.54-55.61-.15.09C816.9,557.46,809,559.81,801,561.9Z"/><path class="cls-5" d="M825.44,738.66a.75.75,0,0,1,0-1.5h5.19a57.43,57.43,0,0,0,4.16-6.43c-1.44-.45-2.78-1-3.88-1.42a.54.54,0,0,1,.14-1.06c1.72,0,3.45-.09,5.17-.23l.49-1c.81-1.67,1.57-3.36,2.32-5.06-1.15-.25-2.27-.5-3.34-.72-1.23-.25-.81-1.95.28-2,1.4-.11,2.91-.27,4.46-.41.43-1,.85-2,1.29-2.93q.16-.4.36-.84c-.71-.24-1.41-.48-2.08-.75a.66.66,0,0,1,.18-1.3c1,0,2-.12,3-.2a3.87,3.87,0,0,1,.24-.37c0-.77,0-1.48.06-2.12-.69-.13-1.37-.26-2.06-.42a3.86,3.86,0,0,1-2.79-3.66c-.05-10.46-.61-20.89-.51-31.36,0-2.86.08-5.72.12-8.58q-.08-2.06-.12-4.11c-8.78-5.7-58.9-38.8-87.41-68.75V727.5a12,12,0,0,0,12,12h66.08c.24-.28.46-.56.69-.84Z"/><path class="cls-5" d="M882.58,560.4c.13,4.28,0,8.58-.15,12.84a254.76,254.76,0,0,1-3.63,30.11L876,668.54l.87-14.71s11.81,6.37,9.35,14.21c-2.17,6.93-9.41,17.5-11.06,19.86l-.32,7.23a22,22,0,0,1,.88,5.67c4.44,2,5.58,8.21,6.13,12.64.61,5-.61,9.5-4.24,13.07-4.49,4.41-9.6,8.37-14.42,12.43l-.65.56H969.81a12,12,0,0,0,12-12V536a12,12,0,0,0-12-12H921.74C923,552.28,890.89,559.11,882.58,560.4Z"/><path class="cls-3" d="M292.05,163.4l-.67-.46h0l4.28,2.95v-2.22A4.26,4.26,0,0,1,292.05,163.4Z"/><rect class="cls-6" x="350.07" y="85.95" width="21.38" height="110.09"/><rect class="cls-6" x="322.87" y="109.77" width="21.38" height="86.27"/><path class="cls-6" d="M317,196v-88.7H295.66v17.92c2.75-3.83,5.21-8,9.62-10.3a2.7,2.7,0,0,1,4,2.3c.19,4.67-2.13,8.25-4.27,12.24-1.36,2.55-2.74,5.09-4.12,7.62,1.42,2.61,2.45,5.42,4,8,1.39,2.32,2.32,4.54,2,7.29-.51,4.86-5,8.94-9.58,10.42a7.53,7.53,0,0,1-1.67.85v2.22l.71.49-.71,1.06V196Z"/><path class="cls-6" d="M289.83,176.11c-3.6,5.33-8.39,12.39-13.58,19.93h13.58Z"/><path class="cls-6" d="M281.66,136.13a9.51,9.51,0,0,1,2.66-1.77,34.59,34.59,0,0,1,3.3-1.7,15.33,15.33,0,0,0,2.21-1.27V124H268.45v25.94l1.44-1.82,3.27,2.26a2.11,2.11,0,0,1,.51,0,12,12,0,0,1,1.8.21c.17-1,.45-2.55.92-4.29C275.76,142.07,278.32,138.68,281.66,136.13Z"/><path class="cls-6" d="M240.1,141v43.64c7.79-9.22,15.68-18.92,21.39-26V141Z"/><path class="cls-6" d="M211.76,151.69V196h18.52c.94-1.06,1.9-2.16,2.86-3.27V151.69Z"/><path class="cls-5" d="M355.18,77.68l-.12-4.44c-7.52.21-12.49,3.22-18.26,6.71-9.79,5.92-22,13.3-54.49,12.28-20.63-.65-41.7,7.43-60.95,23.34A131.35,131.35,0,0,0,198.3,140l3.66,2.5a130.07,130.07,0,0,1,22.32-23.6c12.82-10.57,33.27-23,57.89-22.25,33.83,1.06,47.18-7,56.93-12.92C344.54,80.45,348.83,77.85,355.18,77.68Z"/><path class="cls-7" d="M138.34,203.63v12.15l1.77-.34V202.75A7.49,7.49,0,0,1,138.34,203.63Z"/><path class="cls-7" d="M341.27,237h88a11.54,11.54,0,0,0,11.53-11.52V48.75a11.55,11.55,0,0,0-11.53-11.53H149.87a11.54,11.54,0,0,0-11.53,11.53v72.63l1.77.08V48.75A9.77,9.77,0,0,1,149.87,39H429.22A9.76,9.76,0,0,1,439,48.75V225.51a9.76,9.76,0,0,1-9.75,9.75h-181c-.48.62-.95,1.21-1.4,1.77h94.47Z"/><path class="cls-8" d="M130.28,204.07h5.32a8.36,8.36,0,0,0,2.74-.44,7.49,7.49,0,0,0,1.77-.88c3.56-2.36,6.56-8.34,7.64-21.57,0-.34.05-.69.08-1a15.13,15.13,0,0,0,2.73-1.95,1.83,1.83,0,0,0,0-2.56,10.18,10.18,0,0,1-2.3-3.24c.24-6.43.18-12.41,0-17.16-6.13,6.32-12.57,12.77-12.57,12.77h0a10.92,10.92,0,0,0-1.13-.73,7,7,0,0,0-4.79-3.8c-5.21-1.1-10.92,3.17-13.19,7.58a12.21,12.21,0,0,0,1.9,14.08,10.32,10.32,0,0,0,5.21,2.77,1.49,1.49,0,0,1,.17.93l-.09.52h0a1.6,1.6,0,0,0,0,.21,16.24,16.24,0,0,1-3.2,7.23,6.66,6.66,0,0,1-2.52,2.63c-4,2.37-11,2.23-15.45,2.53a21.94,21.94,0,0,1-7.26-.38v16.09h33.41Z"/><path class="cls-5" d="M124.1,397.41c-2.5.41-5,.77-7.51,1.12A187.38,187.38,0,0,1,96,402.81c-3.12.42-6.24.72-9.36.85A248.48,248.48,0,0,1,56.72,408l-.26,1.61a1,1,0,0,0-1.33.62C51,429.53,48.44,449,45.68,468.59S40,507.74,37,527.29q-9.08,58.19-19.58,116.14c-4,22-7.91,44.11-12.46,66a3.34,3.34,0,0,0,2.28,4l.34.09c9.7,2.72,20.25,5.11,30.39,5.09,1.39-1.35,4-2.08,5.44-2.45a12.07,12.07,0,0,1,1.83-.31,9.09,9.09,0,0,0,.85-1.09c2.85-4.26,3-11.18,3.68-16.28.26-1.84.5-3.69.75-5.54l53.83-183.77c-2.55-8.86-4.51-17.92-6.2-26.93-2.29-12.26-4.5-24.89-4.51-37.4a.66.66,0,0,1,1.3-.17c2.76,12.37,4.41,25,7.09,37.38s6.11,24.7,9.08,37.09a1.69,1.69,0,0,1-2.56,1.83c1.21,12.27,2.42,24.53,3.51,36.8q5.24,58.74,8.82,117.61c.56,9.23,1.06,18.47,1.73,27.7.54,7.49.91,21.07,9.19,23.34q1.56.42,3.15.75a55.57,55.57,0,0,0,21.12.14c3.28-.59,9-1.18,11.4-3.69s2-8.59,1.36-13.37c.64-16.91,2.91-79.15,4.1-146.7a1075.81,1075.81,0,0,0,1.39-114.41c-.43-10.12-1-20.21-1.73-30.29-.48-12.71-1.14-24-2-33.25a16,16,0,0,1-3,1.52C153.84,392.4,138.5,395.06,124.1,397.41Zm-70.63,25.9c4.91-1.22,9.85-2.26,14.85-3,2.25-.35,6.12-1.72,8.31-.37,2.54,1.56,2,5.67,2,8.12A132.75,132.75,0,0,1,78,442.55a2.94,2.94,0,0,1-4.28,2.26c-4.07,6.66-8.41,13.18-12.94,19.53a1.87,1.87,0,0,1-2.88.37,67.43,67.43,0,0,1-7.74-7.84c-2.7-3.22,2.45-6.86,4.44-3.42a71,71,0,0,0,4.66,7.05A182,182,0,0,0,72,443.56a1.07,1.07,0,0,1,.54-.42,2.35,2.35,0,0,1,0-.59c.42-3.4.75-6.81.92-10.24.06-1.29.8-7.95.35-8.53-.3-.39-4.6-.07-5.08-.06-1.68,0-3.37.08-5.06.16-3.36.16-6.71.46-10.06.82C52.85,424.79,52.72,423.5,53.47,423.31Zm-1,188.36c.78,1.37-1.46,2.6-2.08,1.21-2.29-5-4.2-11.23-3.23-16.83a.21.21,0,0,1,.4,0C48.76,601.64,49.55,606.58,52.45,611.67Zm84.31-14.39A119.29,119.29,0,0,0,147,617.61c1.2,1.92-1.94,3.74-3,1.77A183.14,183.14,0,0,1,134.19,598C133.58,596.39,136.15,595.7,136.76,597.28Zm-1.41,36.24a29.22,29.22,0,0,0,13,12.53c1.19.59.12,2.46-1.05,1.8a34.56,34.56,0,0,1-13.26-13.58C133.6,633.43,134.9,632.67,135.35,633.52ZM109.21,415.61c-.12,0-.18-.18-.07-.23,11.31-5,23.81-8.17,35.74-11.3,2.85-.75,4.07,3.71,1.21,4.41-11,2.7-22.45,5.56-33.78,6.81.29,7.85.33,15.66.16,23.52-.12,5.76,5.72,8.39,9.89,11.27q4.85,3.35,9.68,6.7c3.88-5.89,7.61-12,11.78-17.7,0-.13,0-.26,0-.4a153.61,153.61,0,0,1,.88-16.74c.41-4.45.63-9.65,2.66-13.68a.68.68,0,0,1,1.22.16c1.11,4.51.31,9.75.18,14.36-.13,4.24,0,8.47,0,12.71a1.81,1.81,0,0,1,.68,2.55l-.73,1a2.22,2.22,0,0,1-1.27,1.74c-4.42,5.89-9.46,11.42-14.2,17.05.92,1.69-.91,4.18-2.77,2.84l-14.32-10.3c-2.75-2-6.24-3.81-6.94-7.44-.84-4.31.46-9.76,1-14.08.52-4.53,1.13-9,1.79-13.53C111,415.43,110.1,415.54,109.21,415.61Z"/><path class="cls-3" d="M52.42,719.48A23,23,0,0,0,47.63,728c-.58,1.88-3.55,1.06-2.94-.81A23.31,23.31,0,0,1,47,722.09a16.54,16.54,0,0,1-5.4,1.14c-1.8,0-5-.38-4.58-2.94a3,3,0,0,1,.93-1.63c-10.14,0-20.69-2.37-30.39-5.09L0,735.36c.6,2.9,10.39,3.63,13.33,4.14,3.47.59,62,8.5,66.15,9.2,4.81.81,6.41-14.67-10.12-23.2a15.28,15.28,0,0,0-3.54,5.31c-.39.9-1.89.09-1.35-.79a17,17,0,0,1,4.6-4.67,41,41,0,0,0-5.14-2.14A20.43,20.43,0,0,0,59.29,730c-.57,1.34-2.85.1-2-1.17A22,22,0,0,1,63.15,723q-1.32-.44-2.76-.81l-1.84-.95a20.74,20.74,0,0,0-3.84,5.72c-.53,1.16-2.46.07-1.73-1a21.85,21.85,0,0,1,4.83-5.09L52.7,718.2A1.32,1.32,0,0,1,52.42,719.48Zm-36.74-2.33a26.2,26.2,0,0,1,8.37,18.4c.1,1.76-2.78,1.77-2.74,0a28.7,28.7,0,0,0-6.07-18.06C15,717.22,15.45,717,15.68,717.15ZM78.2,745.64a.84.84,0,0,1-.45,1.62c-24.49-5.17-50.12-5.33-73.86-13.75a.06.06,0,1,1,0-.12C28.2,740.13,53.92,739.1,78.2,745.64Z"/><path class="cls-3" d="M48.51,716.05l-2.43-1.24a9.09,9.09,0,0,1-.85,1.09A11.22,11.22,0,0,1,48.51,716.05Z"/><path class="cls-3" d="M39.69,720.2c.05,1.18,5.3-.14,5.76-.28a26,26,0,0,0,5.09-2.32,9.37,9.37,0,0,0-5.81-.06C44.24,717.68,39.65,719.39,39.69,720.2Z"/><path class="cls-3" d="M134.94,727.22v24.17l73.89,1.82s-5.55-19.38-16.56-21.16c0,0,0,0,0,.05a17.42,17.42,0,0,0-1.61,7.24c0,1.91-3,1.52-2.57-.35a15.85,15.85,0,0,1,3.63-7,6.18,6.18,0,0,0-.62-.07,32,32,0,0,1-4.13-.46,21.33,21.33,0,0,0-3.08,8.44c-.18,1.32-2.42.79-2-.56a22.48,22.48,0,0,1,4.14-8.06,45.65,45.65,0,0,1-4.77-1.24A21,21,0,0,0,178,737.5c-.38,1.78-3.2.79-2.39-1a21,21,0,0,1,4.79-6.71c-1.57-.52-3.05-1.1-4.42-1.69-3.13,3.31-6.19,6.84-7.2,11.39-.3,1.37-2.44.79-2.1-.58a19.46,19.46,0,0,1,3.56-7.08c-2.7,1.37-5.47,2.07-6.38-.16-.79-1.95,1.72-3.19,3.11-3.73a13.38,13.38,0,0,1,7-.68l0,0a57.86,57.86,0,0,1-6.57-3.55c-2.39,2.51-8.12,3.1-11.4,3.69A55.57,55.57,0,0,1,134.94,727.22Zm36.73,20.11c10.7.31,21.36,1.41,32.06,1.74.85,0,.84,1.36,0,1.31-10.67-.64-21.37-.27-32.06-.42s-21.39-.89-32.09-1.42a.19.19,0,0,1,0-.38q5.76-.31,11.5-.58c-1.83-6.85-5.46-13.19-12.81-15.24a.12.12,0,0,1,0-.24c8.13.6,13.53,7.58,14,15.43C158.76,747.27,165.21,747.14,171.67,747.33Z"/><path class="cls-3" d="M173.39,727.71a12.47,12.47,0,0,0-4,.5c-.57.18-5,1.76-3.55,3,.74.63,4.13-1.31,4.74-1.65A24.92,24.92,0,0,0,173.39,727.71Z"/><path class="cls-8" d="M295.66,163.67a7.53,7.53,0,0,0,1.67-.85c4.61-1.48,9.07-5.56,9.58-10.42.29-2.75-.64-5-2-7.29-1.54-2.57-2.57-5.38-4-8,1.38-2.53,2.76-5.07,4.12-7.62,2.14-4,4.46-7.57,4.27-12.24a2.7,2.7,0,0,0-4-2.3c-4.41,2.32-6.87,6.47-9.62,10.3a24.45,24.45,0,0,1-5.83,6.13,15.33,15.33,0,0,1-2.21,1.27,34.59,34.59,0,0,0-3.3,1.7,9.51,9.51,0,0,0-2.66,1.77c-3.34,2.55-5.9,5.94-5.27,10.1-.47,1.74-.75,3.27-.92,4.29,4.47.85,8.35,4,11.56,7.09a23.11,23.11,0,0,1,4.35,5.33l.67.46A4.26,4.26,0,0,0,295.66,163.67Z"/><path class="cls-2" d="M257.05,223.38c6-8.35,12.91-18.2,19.2-27.34,5.19-7.54,10-14.6,13.58-19.93l5.83-8.67.71-1.06-.71-.49-4.28-2.95h0a23.11,23.11,0,0,0-4.35-5.33c-3.21-3.09-7.09-6.24-11.56-7.09a12,12,0,0,0-1.8-.21,2.11,2.11,0,0,0-.51,0l-3.27-2.26-1.44,1.82c-1.44,1.82-3.88,4.88-7,8.71-5.71,7.09-13.6,16.79-21.39,26-2.35,2.79-4.69,5.53-7,8.14-1,1.11-1.92,2.21-2.86,3.27-4,4.55-7.69,8.55-10.65,11.47-11,3.55-22.45,4.61-33.92,5-9,.31-18.06.34-27.07.85-3.66.2-7.32.48-11,.91-2.56.29-5.07.69-7.55,1.15l-1.77.34q-3.92.79-7.72,1.88H69.55c-15.47,3.76-26.42,15.91-34.18,31.4a163.16,163.16,0,0,0-11.71,24.7c-6.6,16.92-10.6,34.6-13.79,52.43-2.24,12.6-7.94,33.09,7.7,39.49,9.71,4,18.86,1.52,26.92-3.65a111.21,111.21,0,0,0,5.27,41.12A4.19,4.19,0,0,0,51,405a4.38,4.38,0,0,0,4.19,3.15l1.55-.14a248.48,248.48,0,0,0,29.91-4.32c3.12-.13,6.24-.43,9.36-.85a187.38,187.38,0,0,0,20.6-4.28c2.5-.35,5-.71,7.51-1.12,14.4-2.35,29.74-5,43.42-10.24a16,16,0,0,0,3-1.52,9.55,9.55,0,0,0,4.69-9.4c-.7-7.68-2.31-15.36-3.3-23q-2.94-22.87-4.68-45.9c-.62-8.06-1-16.13-1.66-24.19l-.37-8,3.61-.62c6.65-1.13,13.2-2.65,19.75-4.3,12-3,24.83-6.45,35.83-12.39,8.57-4.63,15.51-11.59,21.24-19.38l1.13-1.4c.45-.56.92-1.15,1.4-1.77C250.76,232,253.78,227.9,257.05,223.38Zm-35.62-13.15a.42.42,0,0,1,.61-.47,17.46,17.46,0,0,1,7.75,8.2c.48,1-.63,2.72-1.82,1.82A17.72,17.72,0,0,1,221.43,210.23ZM41.79,354.74C41,339.09,43.26,323.33,46.07,308c2.9-15.89,6.41-31.77,11.65-47.06a.21.21,0,0,1,.41.11c-2.28,15.48-6.23,30.65-9,46.05a401.69,401.69,0,0,0-5.06,47.68A1.16,1.16,0,0,1,41.79,354.74ZM232.47,214.37c.81,1.21-1.11,2.7-2,1.56-2.27-2.81-4.5-5.69-7.05-8.27a.51.51,0,0,1,.61-.79A23.6,23.6,0,0,1,232.47,214.37ZM132.27,358.88c1.68.77.77,3.33-.9,3.33-11.06,0-21.66-6.35-29.79-13.37A71.64,71.64,0,0,1,90,335.75c-3.23-4.56-7.34-9.92-8.35-15.52-.08-.44.4-1,.85-.66,3.94,2.91,6.49,7.7,9.4,11.57a76.67,76.67,0,0,0,11.75,12.67C112.17,351,122.31,354.28,132.27,358.88ZM21,356.37a14.45,14.45,0,0,0,1.22,1.13,10.19,10.19,0,0,1-1.32-.42C21,356.84,21,356.6,21,356.37ZM95,273c3.93,9.45,7.25,19.11,11.54,28.42,4.11,8.92,9,17.45,13.14,26.33a1.62,1.62,0,0,1-2.8,1.64c-5.57-8.19-9.72-17.51-13.54-26.62-4-9.47-7.88-19.24-10.1-29.29A.91.91,0,0,1,95,273ZM17.23,329.08h0l0-.12Zm168.43-66.37c-2.7.86-5.42,1.68-8.13,2.5,1.14-.63,2.29-1.26,3.42-1.91,4.78-1.14,10.28-2.51,16-4C193.15,260.43,189.36,261.54,185.66,262.71Z"/><path class="cls-5" d="M901.09,267.24c-1.49,11.93-6.84,21-16.3,25.37,0,.86-.12,1.72-.18,2.57.21.8.41,1.6.61,2.41.56,2.32.73,4.4,2.72,6a2.43,2.43,0,0,1,.81,1.18,1.18,1.18,0,0,1,1.13-.38c5.54,1.36,11.16,2.49,16.78,3.67,1-11.51.53-29.31,1.06-41.7a8.63,8.63,0,0,1-6.63.86Z"/><path class="cls-5" d="M873,210.5a63.29,63.29,0,0,0-13.93.05c-5.7.76-7.56,2.35-7.56,2.35a18.83,18.83,0,0,0-4.43,2.36A38.82,38.82,0,0,0,836,227.55,64.69,64.69,0,0,0,829.43,243c-7.42,25.5,3.71,39.41-8.81,53.79-3.63,4.16-5.61,11.75-6.3,20.39,19-10.75,34.67-13.85,34.67-13.85a1.48,1.48,0,0,0,.13.18c.09-.06.17-.13.26-.18,5.33-3.11,5.71-9.08,5.5-12.2-7.63-5.08-11.76-14.18-13.11-25.09l-.51,0a8.55,8.55,0,1,1,0-17.09l.51,0c1.7-13.69,7.78-24.55,19.66-28.15l1.63,1.46c2.35,6.52,7.53,12.87,12.09,17,6.53,5.9,16.72,12.22,25.92,11.45a4,4,0,0,0,1.61-.48l.69,0a8.59,8.59,0,0,1,5.32,1.83c-.49-12.6-7.9-29.61-22.18-37.43a34.47,34.47,0,0,0-12.52-4C873.67,210.59,873.34,210.53,873,210.5Z"/><path class="cls-9" d="M748.35,424.46c2-2.91,5.4-5.44,11-5.27a18.19,18.19,0,0,1,12,5,4.84,4.84,0,0,0,3.1-5.08c-2.6-5.06-9.1-6.61-14.43-6.24a20.58,20.58,0,0,0-14.46,7.69,2.4,2.4,0,0,1-.7.59C744.84,422.87,746.4,423.92,748.35,424.46Z"/><path class="cls-3" d="M771.39,424.17a18.19,18.19,0,0,0-12-5c-5.65-.17-9,2.36-11,5.27a18.44,18.44,0,0,0-2.94,8.2H777.3A24.68,24.68,0,0,0,771.39,424.17Z"/><path class="cls-9" d="M902.68,250.23a4,4,0,0,1-1.61.48c-9.2.77-19.39-5.55-25.92-11.45-4.56-4.11-9.74-10.46-12.09-17l-1.63-1.46c-11.88,3.6-18,14.46-19.66,28.15l-.51,0a8.55,8.55,0,1,0,0,17.09l.51,0c1.35,10.91,5.48,20,13.11,25.09.21,3.12-.17,9.09-5.5,12.2-.09,0-.17.12-.26.18.1.14.24.34.44.6a.94.94,0,0,0-.68.74,6.3,6.3,0,0,0-.11,2.1c-.38,2.63,1.07,5.75,2.55,7.68,2.87,3.73,8.1,6.31,12.62,7.32a15.84,15.84,0,0,0,6.5.09,2,2,0,0,0,1.44.07A23.46,23.46,0,0,0,887,309.18c.06-.09.13-.16.2-.25a1.72,1.72,0,0,0,.35-1.08v0a3.36,3.36,0,0,0,.92-1.07c0-.39,0-.78,0-1.17l-.23-.21a.25.25,0,0,1,.31-.39h0a.62.62,0,0,1,.12-.19,2.43,2.43,0,0,0-.81-1.18c-2-1.62-2.16-3.7-2.72-6-.2-.81-.4-1.61-.61-2.41.06-.85.13-1.71.18-2.57,9.46-4.35,14.81-13.44,16.3-25.37a8.63,8.63,0,0,0,6.63-.86,8.66,8.66,0,0,0,1-14.35,8.59,8.59,0,0,0-5.32-1.83Z"/><path class="cls-3" d="M911.94,490.53h0c-3.3,2.21-8.62,1.34-12.2,1.34q-8.38,0-16.77-.12c-10.08.14-20.19-.06-30.24-.75-2.89-.1-5.79-.22-8.68-.34-6.38-.28-12.75-.62-19.12-1.14-5.07-.41-12.35.11-16.62-2.95a2.28,2.28,0,0,1-.9-1.45c-5.79,3.26-48.15,27.64-67.25,53.09a65.36,65.36,0,0,0-4.09,5.14c-3.4,4.76-6,10-6.67,15.52a22.87,22.87,0,0,0,0,5.67c1.22,10.37,9.35,17.88,17.31,24.52,1.28,1.45,2.63,2.91,4,4.38,28.51,29.95,78.63,63,87.41,68.75q0,2.05.12,4.11c0,2.86-.09,5.72-.12,8.58-.1,10.47.46,20.9.51,31.36a3.86,3.86,0,0,0,2.79,3.66c.69.16,1.37.29,2.06.42a60.7,60.7,0,0,0,18.16.69c5.24-.57,12.17-2.28,13.8-8.19a8.63,8.63,0,0,0,.28-2,22,22,0,0,0-.88-5.67l.32-7.23-.35.48L876,668.54l2.82-65.19a254.76,254.76,0,0,0,3.63-30.11c.19-4.26.28-8.56.15-12.84,8.31-1.29,40.46-8.12,39.16-36.44l0-.66c-1.24-19.37-5-29.37-7.87-34.34A2,2,0,0,1,911.94,490.53ZM824.52,551a1.57,1.57,0,0,1-.1,2.59L834,609.2l-.49-.7c1.84,11,2.14,22.26,3,33.34,0,.56-.89.69-1,.14-1.81-11-3.36-22.37-2.45-33.51a.23.23,0,0,1,.28-.2L801,561.9l-.17,0c-.33.09-.56-.42-.24-.57,7.34-3.46,14.46-7.42,21.88-10.7a1.82,1.82,0,0,1,1-.15c-2.28-12.29-8.25-28.23-1.6-39.44,3.12-5.25,9.39-7.24,15-8.54,7.2-1.66,14.65-1.86,22-2.05a1.25,1.25,0,0,1,0,2.49c-10.92.3-31.95-.61-36.1,12.39C819.1,527,825,539.14,824.52,551Z"/><path class="cls-6" d="M805.79,450.63,807,468.79l1,14.64a1.71,1.71,0,0,0-.58,1.69,2.28,2.28,0,0,0,.9,1.45c4.27,3.06,11.55,2.54,16.62,2.95,6.37.52,12.74.86,19.12,1.14,2.89.12,5.79.24,8.68.34a257.49,257.49,0,0,1-41.79-6.08.25.25,0,0,1,.06-.49c33.75,1.94,67.13,4.4,100.94,1.95a1.8,1.8,0,0,1,2,1.93,15.35,15.35,0,0,0,1.5-6.53,2,2,0,0,1-1,.36,492.2,492.2,0,0,1-105.47-3.76c-.24,0-.17-.41.06-.41,35.22-.19,70.19,3.24,105.41.18a1.78,1.78,0,0,1,1.11.24c0-1.35,0-2.63.09-3.75.46-6.24,1.15-12.54,2.17-18.72a2.89,2.89,0,0,0-.17-1.65,5.58,5.58,0,0,0,.33-2.24,1.28,1.28,0,0,0-1.88-1.08l0-.32Z"/><path class="cls-2" d="M876.85,653.83,876,668.54l-1.19,19.84.35-.48C876.79,685.54,884,675,886.2,668,888.66,660.2,876.85,653.83,876.85,653.83ZM880,680.24c-1.24,2-4.41.15-3.15-1.85,1.55-2.49,2.92-5.08,4.25-7.69,1.17-2.31,2-4.88,3.72-6.83a.58.58,0,0,1,1,.25C886.55,669.55,882.72,675.83,880,680.24Z"/><polygon class="cls-5" points="1059.7 432.66 1058.42 432.66 1042.71 432.66 931.15 432.66 927.35 432.66 790.45 432.66 777.3 432.66 745.41 432.66 644.82 432.66 629.11 432.66 629.11 450.63 629.11 533.57 629.11 547.84 629.11 560.74 629.11 574.98 629.11 585.97 629.11 739.5 644.82 739.5 644.82 584.2 644.82 573.16 644.82 558.81 644.82 545.79 644.82 531.42 644.82 450.63 786.97 450.63 805.32 450.63 805.79 450.63 916.1 450.63 1042.71 450.63 1042.71 739.5 1058.42 739.5 1058.42 450.63 1059.7 450.63 1059.7 432.66"/><polygon class="cls-3" points="927.35 342.22 790.45 342.22 790.45 406.54 790.45 432.66 927.35 432.66 927.35 431.88 927.35 342.22"/><path class="cls-5" d="M791,288.35V264.47h.08a12.75,12.75,0,0,0,13-12.47V211.47a12.75,12.75,0,0,0-13-12.47H670.65a12.75,12.75,0,0,0-12.95,12.47V252a12.75,12.75,0,0,0,12.95,12.47H778.14Z"/><path class="cls-6" d="M911.94,490.53c-9.57.65-19.26,1.09-29,1.22q8.38.12,16.77.12C903.32,491.87,908.64,492.74,911.94,490.53Z"/><path class="cls-6" d="M889.88,304.41a1.18,1.18,0,0,0-1.13.38.62.62,0,0,0-.12.19h0a.25.25,0,0,0-.31.39l.23.21c0,.39,0,.78,0,1.17a3.36,3.36,0,0,1-.92,1.07v0a1.72,1.72,0,0,1-.35,1.08c-.07.09-.14.16-.2.25a23.46,23.46,0,0,1-15.15,12.89,2,2,0,0,1-1.44-.07,15.84,15.84,0,0,1-6.5-.09c-4.52-1-9.75-3.59-12.62-7.32-1.48-1.93-2.93-5-2.55-7.68a6.3,6.3,0,0,1,.11-2.1.94.94,0,0,1,.68-.74c-.2-.26-.34-.46-.44-.6a1.48,1.48,0,0,1-.13-.18s-15.66,3.1-34.67,13.85a134.91,134.91,0,0,0-24.14,17.32c-15.67,14.14-23.37,45.33-23.37,45.33-5.92,2.52-10.83,10.23-14.44,18-4.91,6.07-9.28,12.41-11.36,20.11-.59,2.2,2,4.3,3.89,3.26a2.4,2.4,0,0,0,.7-.59,20.58,20.58,0,0,1,14.46-7.69c5.33-.37,11.83,1.18,14.43,6.24a5.81,5.81,0,0,1,.31.61c.64,1.51,3,1.58,4,.51,3.32-3.5,7.49-6.43,10.52-10.14a2.43,2.43,0,0,0,.22-2.84l.93-.69V342.22h136.9v89.66a16.57,16.57,0,0,0,3.8.78c8.47,0,10.77-12.27,16.15-51.47.52-3.8.84-7.41,1-10.84.58-7.69.44-15.46-1.25-22.63-.14-1.79-.31-3.59-.56-5.38a39.33,39.33,0,0,0-6.93-17.77,19.17,19.17,0,0,0-5.34-7.79c-5-4.2-11.82-5.13-18-6.6-3.18-.75-6.37-1.43-9.57-2.1C901,306.9,895.42,305.77,889.88,304.41ZM778.1,385.76a44.83,44.83,0,0,1-5-2.06c-.92-.42-3.79-2.49-4.85-1.62-.26.22-.75,0-.62-.36.54-1.58,1.93-2,3.49-1.81a29.81,29.81,0,0,1,8.26,2.73C781.18,383.46,779.91,386.34,778.1,385.76Zm-13.74-2.18c4.85-.25,8.86,3.35,10.83,7.5a1.29,1.29,0,0,1-2.22,1.3c-2.38-3.33-5.71-5.72-8.81-8.3C764,383.91,764.14,383.6,764.36,383.58Zm-15.71,20.06c8.78-5.27,19.82-5.34,28.27.73,2.17,1.57.19,5.16-2.14,3.66-7.74-5-17-6.59-25.78-3.56C748.5,404.65,748.22,403.89,748.65,403.64Zm165.91-86.75-.91-.38,1,.3A.56.56,0,0,1,914.56,316.89Zm-49.91,13.23a22,22,0,0,1-19.46-24.88c.06-.44.7-.28.73.1.84,10.85,8.77,20.29,19.91,21.17,10.65.83,19.59-7,21.37-17.28.39-2.26,3.83-1.3,3.44.95C888.49,322.62,877.37,331.65,864.65,330.12Z"/><path class="cls-10" d="M771.15,379.91c-1.56-.21-2.95.23-3.49,1.81-.13.39.36.58.62.36,1.06-.87,3.93,1.2,4.85,1.62a44.83,44.83,0,0,0,5,2.06c1.81.58,3.08-2.3,1.31-3.12A29.81,29.81,0,0,0,771.15,379.91Z"/><path class="cls-10" d="M764.16,384.08c3.1,2.58,6.43,5,8.81,8.3a1.29,1.29,0,0,0,2.22-1.3c-2-4.15-6-7.75-10.83-7.5C764.14,383.6,764,383.91,764.16,384.08Z"/><path class="cls-10" d="M749,404.47c8.81-3,18-1.4,25.78,3.56,2.33,1.5,4.31-2.09,2.14-3.66-8.45-6.07-19.49-6-28.27-.73C748.22,403.89,748.5,404.65,749,404.47Z"/><path class="cls-10" d="M890.64,310.18c.39-2.25-3-3.21-3.44-.95-1.78,10.25-10.72,18.11-21.37,17.28-11.14-.88-19.07-10.32-19.91-21.17,0-.38-.67-.54-.73-.1a22,22,0,0,0,19.46,24.88C877.37,331.65,888.49,322.62,890.64,310.18Z"/><path class="cls-10" d="M911.94,486.38c-33.81,2.45-67.19,0-100.94-1.95a.25.25,0,0,0-.06.49A257.49,257.49,0,0,0,852.73,491c10,.69,20.16.89,30.24.75,9.71-.13,19.4-.57,29-1.22h0a2,2,0,0,0,1.9-1.57,2.38,2.38,0,0,0,.1-.65A1.8,1.8,0,0,0,911.94,486.38Z"/><path class="cls-10" d="M809,478c-.23,0-.3.38-.06.41a492.2,492.2,0,0,0,105.47,3.76,2,2,0,0,0,1-.36,2.13,2.13,0,0,0,.08-3.39,1.78,1.78,0,0,0-1.11-.24C879.19,481.21,844.22,477.78,809,478Z"/><path class="cls-2" d="M877.59,726.51c3.63-3.57,4.85-8.07,4.24-13.07-.55-4.43-1.69-10.6-6.13-12.64a8.63,8.63,0,0,1-.28,2c-1.63,5.91-8.56,7.62-13.8,8.19a60.7,60.7,0,0,1-18.16-.69c0,.64,0,1.35-.06,2.12a3.87,3.87,0,0,0-.24.37,52.68,52.68,0,0,1,8.59-.28c2,.16,2.7,3.29.49,3.67a21.55,21.55,0,0,1-10.16-1.14q-.2.44-.36.84c-.44,1-.86,2-1.29,2.93,4-.37,8.3-.6,11.87.44,1.79.52,2.08,3.58,0,3.92-4.14.68-8.91-.25-13.27-1.19-.75,1.7-1.51,3.39-2.32,5.06l-.49,1,2.33-.22c2.36-.26,4.7-1.18,7-.52a1.94,1.94,0,0,1,.45,3.5c-2.92,1.88-7.45,1.14-11.25,0a57.43,57.43,0,0,1-4.16,6.43h1.12a.75.75,0,0,1,0,1.5h-2.29c-.23.28-.45.56-.69.84a44.82,44.82,0,0,1-7.33,7c-2.49,1.85-4.88,3.77-5.33,7a6.56,6.56,0,0,0,3.71,7.12c3.18,1.36,7.22.43,10.48-.28a47.26,47.26,0,0,0,6.58-1.82,24.78,24.78,0,0,1,3.31-.35c3.74,0,13.52-8.51,19.42-16.15,1-.85,1.93-1.69,2.91-2.51l.65-.56C868,734.88,873.1,730.92,877.59,726.51Zm-38.84,29.76a.25.25,0,0,1-.07-.49c8.39-1.73,14.43-11.59,20.1-17.4a145.27,145.27,0,0,0,17.73-22.61c.38-.58,1.31,0,.93.54-5.7,8.78-12.61,16.84-19.08,25.07C853.4,747.68,847.44,755.78,838.75,756.27Z"/><path class="cls-11" d="M49.17,307.06c2.73-15.4,6.68-30.57,9-46.05a.21.21,0,0,0-.41-.11C52.48,276.19,49,292.07,46.07,308c-2.81,15.37-5,31.13-4.28,46.78a1.16,1.16,0,0,0,2.32,0A401.69,401.69,0,0,1,49.17,307.06Z"/><path class="cls-11" d="M224,206.87a.51.51,0,0,0-.61.79c2.55,2.58,4.78,5.46,7.05,8.27.92,1.14,2.84-.35,2-1.56A23.6,23.6,0,0,0,224,206.87Z"/><path class="cls-11" d="M228,219.78c1.19.9,2.3-.77,1.82-1.82a17.46,17.46,0,0,0-7.75-8.2.42.42,0,0,0-.61.47A17.72,17.72,0,0,0,228,219.78Z"/><path class="cls-11" d="M93.28,273.45c2.22,10.05,6.14,19.82,10.1,29.29,3.82,9.11,8,18.43,13.54,26.62a1.62,1.62,0,0,0,2.8-1.64c-4.15-8.88-9-17.41-13.14-26.33C102.29,292.08,99,282.42,95,273A.91.91,0,0,0,93.28,273.45Z"/><path class="cls-11" d="M91.86,331.14c-2.91-3.87-5.46-8.66-9.4-11.57-.45-.33-.93.22-.85.66,1,5.6,5.12,11,8.35,15.52a71.64,71.64,0,0,0,11.62,13.09c8.13,7,18.73,13.4,29.79,13.37,1.67,0,2.58-2.56.9-3.33-10-4.6-20.1-7.89-28.66-15.07A76.67,76.67,0,0,1,91.86,331.14Z"/><path class="cls-11" d="M877.44,716.31c.38-.58-.55-1.12-.93-.54a145.27,145.27,0,0,1-17.73,22.61c-5.67,5.81-11.71,15.67-20.1,17.4a.25.25,0,0,0,.07.49c8.69-.49,14.65-8.59,19.61-14.89C864.83,733.15,871.74,725.09,877.44,716.31Z"/><path class="cls-11" d="M840,714.31c.67.27,1.37.51,2.08.75a21.55,21.55,0,0,0,10.16,1.14c2.21-.38,1.46-3.51-.49-3.67a52.68,52.68,0,0,0-8.59.28c-1,.08-2,.16-3,.2A.66.66,0,0,0,840,714.31Z"/><path class="cls-11" d="M835.69,721.28c1.07.22,2.19.47,3.34.72,4.36.94,9.13,1.87,13.27,1.19,2.08-.34,1.79-3.4,0-3.92-3.57-1-7.86-.81-11.87-.44-1.55.14-3.06.3-4.46.41C834.88,719.33,834.46,721,835.69,721.28Z"/><path class="cls-11" d="M830.91,729.31c1.1.46,2.44,1,3.88,1.42,3.8,1.19,8.33,1.93,11.25,0a1.94,1.94,0,0,0-.45-3.5c-2.34-.66-4.68.26-7,.52l-2.33.22c-1.72.14-3.45.22-5.17.23A.54.54,0,0,0,830.91,729.31Z"/><path class="cls-11" d="M825.44,738.66h6.31a.75.75,0,0,0,0-1.5h-6.31A.75.75,0,0,0,825.44,738.66Z"/><path class="cls-11" d="M884.78,663.87c-1.75,2-2.55,4.52-3.72,6.83-1.33,2.61-2.7,5.2-4.25,7.69-1.26,2,1.91,3.84,3.15,1.85,2.76-4.41,6.59-10.69,5.79-16.12A.58.58,0,0,0,884.78,663.87Z"/><path class="cls-12" d="M111.1,519.19c-3-12.39-6.39-24.63-9.08-37.09s-4.33-25-7.09-37.38a.66.66,0,0,0-1.3.17c0,12.51,2.22,25.14,4.51,37.4,1.69,9,3.65,18.07,6.2,26.93,1,3.66,2.19,7.3,3.47,10.87a1.84,1.84,0,0,0,.73.93A1.69,1.69,0,0,0,111.1,519.19Z"/><path class="cls-12" d="M109.14,443c.7,3.63,4.19,5.46,6.94,7.44l14.32,10.3c1.86,1.34,3.69-1.15,2.77-2.84,4.74-5.63,9.78-11.16,14.2-17.05a2.22,2.22,0,0,0,1.27-1.74l.73-1a1.81,1.81,0,0,0-.68-2.55c0-4.24-.11-8.47,0-12.71.13-4.61.93-9.85-.18-14.36a.68.68,0,0,0-1.22-.16c-2,4-2.25,9.23-2.66,13.68a153.61,153.61,0,0,0-.88,16.74c0,.14,0,.27,0,.4-4.17,5.7-7.9,11.81-11.78,17.7q-4.83-3.36-9.68-6.7c-4.17-2.88-10-5.51-9.89-11.27.17-7.86.13-15.67-.16-23.52,11.33-1.25,22.79-4.11,33.78-6.81,2.86-.7,1.64-5.16-1.21-4.41-11.93,3.13-24.43,6.32-35.74,11.3-.11.05,0,.24.07.23.89-.07,1.78-.18,2.67-.27-.66,4.5-1.27,9-1.79,13.53C109.6,433.19,108.3,438.64,109.14,443Z"/><path class="cls-12" d="M53.66,424.7c3.35-.36,6.7-.66,10.06-.82,1.69-.08,3.38-.13,5.06-.16.48,0,4.78-.33,5.08.06.45.58-.29,7.24-.35,8.53-.17,3.43-.5,6.84-.92,10.24a2.35,2.35,0,0,0,0,.59,1.07,1.07,0,0,0-.54.42A182,182,0,0,1,59.25,460.5a71,71,0,0,1-4.66-7.05c-2-3.44-7.14.2-4.44,3.42a67.43,67.43,0,0,0,7.74,7.84,1.87,1.87,0,0,0,2.88-.37c4.53-6.35,8.87-12.87,12.94-19.53A2.94,2.94,0,0,0,78,442.55,132.75,132.75,0,0,0,78.63,428c0-2.45.54-6.56-2-8.12-2.19-1.35-6.06,0-8.31.37-5,.77-9.94,1.81-14.85,3C52.72,423.5,52.85,424.79,53.66,424.7Z"/><path class="cls-12" d="M134.19,598A183.14,183.14,0,0,0,144,619.38c1.07,2,4.21.15,3-1.77a119.29,119.29,0,0,1-10.2-20.33C136.15,595.7,133.58,596.39,134.19,598Z"/><path class="cls-12" d="M147.32,647.85c1.17.66,2.24-1.21,1.05-1.8a29.22,29.22,0,0,1-13-12.53c-.45-.85-1.75-.09-1.29.75A34.56,34.56,0,0,0,147.32,647.85Z"/><path class="cls-12" d="M47.14,596.05c-1,5.6.94,11.78,3.23,16.83.62,1.39,2.86.16,2.08-1.21-2.9-5.09-3.69-10-4.91-15.62A.21.21,0,0,0,47.14,596.05Z"/><path class="cls-5" d="M102.61,202c4.49-.3,11.48-.16,15.45-2.53a6.66,6.66,0,0,0,2.52-2.63,16.24,16.24,0,0,0,3.2-7.23,1.6,1.6,0,0,1,0-.21h0l.09-.52a1.49,1.49,0,0,0-.17-.93,10.32,10.32,0,0,1-5.21-2.77,12.21,12.21,0,0,1-1.9-14.08c2.27-4.41,8-8.68,13.19-7.58a7,7,0,0,1,4.79,3.8,10.92,10.92,0,0,1,1.13.73h0s6.44-6.45,12.57-12.77l3.25-3.37c6.83-7.15,7.59-28.61,0-28.61H147.9a19.24,19.24,0,0,0-7.79-1.79l-1.77-.08c-1,0-2,0-3,0-10.75,0-20.15-5.57-30.89-1.61l-.44.17c-8.6-.18-15.66,6.41-21.14,13.27a27.15,27.15,0,0,0-2.46,3.22,3.35,3.35,0,0,0-.53,2.66,18.41,18.41,0,0,0-1,3.46c-1.49,8.6,1.1,18.21,3.25,26.47,1.41,5.39,2.92,10.82,4.86,16l.59,1.62c1,3.94,1.15,9.32,3.74,12.46a7.74,7.74,0,0,0,4,2.47A21.94,21.94,0,0,0,102.61,202Z"/><path class="cls-13" d="M45.23,715.9a12.07,12.07,0,0,0-1.83.31c-1.48.37-4,1.1-5.44,2.45a3,3,0,0,0-.93,1.63c-.41,2.56,2.78,3,4.58,2.94a16.54,16.54,0,0,0,5.4-1.14,23.31,23.31,0,0,0-2.32,5.06c-.61,1.87,2.36,2.69,2.94.81a23,23,0,0,1,4.79-8.48,1.32,1.32,0,0,0,.28-1.28,1.37,1.37,0,0,0-.59-.78.46.46,0,0,0-.16-.15,12.54,12.54,0,0,0-3.44-1.22A11.22,11.22,0,0,0,45.23,715.9Zm5.31,1.7a26,26,0,0,1-5.09,2.32c-.46.14-5.71,1.46-5.76.28,0-.81,4.55-2.52,5-2.66A9.37,9.37,0,0,1,50.54,717.6Z"/><path class="cls-13" d="M53,725.91c-.73,1.07,1.2,2.16,1.73,1a20.74,20.74,0,0,1,3.84-5.72c.24-.26.48-.53.74-.78s-.07-.62-.34-.44-.77.56-1.14.85A21.85,21.85,0,0,0,53,725.91Z"/><path class="cls-13" d="M57.29,728.83c-.85,1.27,1.43,2.51,2,1.17a20.43,20.43,0,0,1,4.64-6.79c.12-.12.23-.25.36-.37a.28.28,0,0,0-.34-.44c-.28.17-.53.37-.8.55A22,22,0,0,0,57.29,728.83Z"/><path class="cls-13" d="M64.47,730c-.54.88,1,1.69,1.35.79a15.28,15.28,0,0,1,3.54-5.31l.39-.34c.11-.09,0-.28-.15-.2l-.53.39A17,17,0,0,0,64.47,730Z"/><path class="cls-13" d="M21.31,735.55c0,1.77,2.84,1.76,2.74,0a26.2,26.2,0,0,0-8.37-18.4c-.23-.2-.64.07-.44.34A28.7,28.7,0,0,1,21.31,735.55Z"/><path class="cls-13" d="M3.89,733.51c23.74,8.42,49.37,8.58,73.86,13.75a.84.84,0,0,0,.45-1.62c-24.28-6.54-50-5.51-74.28-12.25A.06.06,0,1,0,3.89,733.51Z"/><path class="cls-13" d="M138.3,732.1a.12.12,0,0,0,0,.24c7.35,2,11,8.39,12.81,15.24q-5.75.25-11.5.58a.19.19,0,0,0,0,.38c10.7.53,21.38,1.28,32.09,1.42s21.39-.22,32.06.42c.84,0,.85-1.28,0-1.31-10.7-.33-21.36-1.43-32.06-1.74-6.46-.19-12.91-.06-19.36.2C151.83,739.68,146.43,732.7,138.3,732.1Z"/><path class="cls-13" d="M167,727.93c-1.39.54-3.9,1.78-3.11,3.73.91,2.23,3.68,1.53,6.38.16a19.46,19.46,0,0,0-3.56,7.08c-.34,1.37,1.8,2,2.1.58,1-4.55,4.07-8.08,7.2-11.39L176,728c.85-.9-.4-2-1.32-1.32l-.69.52,0,0A13.38,13.38,0,0,0,167,727.93Zm-1.15,3.27c-1.42-1.23,3-2.81,3.55-3a12.47,12.47,0,0,1,4-.5,24.92,24.92,0,0,1-2.83,1.84C170,729.89,166.56,731.83,165.82,731.2Z"/><path class="cls-13" d="M175.61,736.49c-.81,1.8,2,2.79,2.39,1a21,21,0,0,1,3.21-7.46c.26-.37.53-.75.82-1.11a.22.22,0,0,0-.31-.31c-.46.37-.89.76-1.32,1.16A21,21,0,0,0,175.61,736.49Z"/><path class="cls-13" d="M183.88,739.9a21.33,21.33,0,0,1,3.08-8.44c.17-.26.34-.53.52-.79s-.31-.77-.59-.46-.62.71-.91,1.07a22.48,22.48,0,0,0-4.14,8.06C181.46,740.69,183.7,741.22,183.88,739.9Z"/><path class="cls-13" d="M190.65,739.34a17.42,17.42,0,0,1,1.61-7.24s0,0,0-.05c0-.23-.21-.46-.4-.25a1.46,1.46,0,0,0-.16.19,15.85,15.85,0,0,0-3.63,7C187.63,740.86,190.65,741.25,190.65,739.34Z"/><path class="cls-13" d="M822.8,515.37c4.15-13,25.18-12.09,36.1-12.39a1.25,1.25,0,0,0,0-2.49c-7.36.19-14.81.39-22,2.05-5.62,1.3-11.89,3.29-15,8.54-6.65,11.21-.68,27.15,1.6,39.44a1.82,1.82,0,0,0-1,.15c-7.42,3.28-14.54,7.24-21.88,10.7-.32.15-.09.66.24.57l.17,0c8-2.09,15.87-4.44,23.24-8.22l.15-.09a1.57,1.57,0,0,0,.1-2.59C825,539.14,819.1,527,822.8,515.37Z"/><path class="cls-13" d="M833.31,608.27a.23.23,0,0,0-.28.2c-.91,11.14.64,22.52,2.45,33.51.09.55,1,.42,1-.14-.85-11.08-1.15-22.36-3-33.34,0,0,0-.06,0-.09A.17.17,0,0,0,833.31,608.27Z"/></g></g></svg>