<svg xmlns="http://www.w3.org/2000/svg" viewBox="0 0 1119 805.79"><defs><style>.cls-1{fill:#fff;}.cls-2{fill:#7876fd;}.cls-3{fill:#dbdbdb;}.cls-4{fill:#61e6ba;}.cls-5{fill:#e2a17d;}.cls-6{fill:#0a2d4e;}.cls-7{fill:#9e6247;}.cls-20,.cls-8{fill:none;}.cls-8{stroke:#61e6ba;stroke-linecap:round;stroke-linejoin:round;stroke-width:0;}.cls-9{fill:#f4cdb8;}.cls-10{fill:#386a8c;}.cls-11{fill:#50adff;}.cls-12{fill:#224d70;}.cls-13{fill:#ffd0bb;}.cls-14{fill:#fafafa;}.cls-15{fill:#e2e2e2;}.cls-16{fill:#6363e5;}.cls-17{fill:#ddd;}.cls-18{fill:#59d3a7;}.cls-19{fill:#ededed;}.cls-21{fill:#ba8e73;}</style></defs><g id="Layer_2" data-name="Layer 2"><g id="Layer_1-2" data-name="Layer 1"><rect class="cls-1" x="442.37" y="1.82" width="624.84" height="540.81"/><path class="cls-2" d="M1069,544.44H440.55V0H1069Zm-624.84-3.63H1065.4V3.63H444.19Z"/><rect class="cls-3" x="468.88" y="96.47" width="557.95" height="39.22"/><rect class="cls-4" x="468.88" y="116.34" width="6.52" height="382.68"/><polygon class="cls-4" points="468.88 135.69 599.94 135.69 612.3 116.08 599.94 96.47 468.88 96.47 468.88 135.69"/><path class="cls-4" d="M479.42,62.37l.92-6.34h-2.87V52.77h3.44l.57-4h-3V45.51H482l.89-6.17H486l-.88,6.17h3.22l.92-6.17h3.15l-.92,6.17h2.84V48.8H491l-.57,4h2.94V56h-3.47L489,62.37h-3.18l.88-6.34H483.5l-.89,6.34Zm7.87-9.6.56-4h-3.22l-.57,4Z"/><path d="M517.35,53.32a1.44,1.44,0,0,0-.55-1.2,7.3,7.3,0,0,0-2-.88,14.12,14.12,0,0,1-2.27-.91A3.71,3.71,0,0,1,510.27,47a3.29,3.29,0,0,1,.61-1.94,4.08,4.08,0,0,1,1.76-1.32,6.53,6.53,0,0,1,2.56-.48,5.9,5.9,0,0,1,2.55.52,4,4,0,0,1,1.74,1.46,3.87,3.87,0,0,1,.62,2.15h-2.75a1.83,1.83,0,0,0-.58-1.43,2.38,2.38,0,0,0-1.62-.51,2.55,2.55,0,0,0-1.57.43,1.32,1.32,0,0,0,.09,2.22,7.35,7.35,0,0,0,1.93.82A8.46,8.46,0,0,1,519,50.69a3.52,3.52,0,0,1,1.07,2.61A3.22,3.22,0,0,1,518.8,56a5.73,5.73,0,0,1-3.53,1,6.75,6.75,0,0,1-2.81-.57,4.36,4.36,0,0,1-1.93-1.54,4,4,0,0,1-.67-2.28h2.76c0,1.48.88,2.21,2.65,2.21a2.55,2.55,0,0,0,1.53-.4A1.3,1.3,0,0,0,517.35,53.32Z"/><path d="M525,44.46V46.9h1.7v1.94H525v5a1.2,1.2,0,0,0,.21.79,1.12,1.12,0,0,0,.81.23,4.42,4.42,0,0,0,.78-.06v2a5.39,5.39,0,0,1-1.6.24,2.54,2.54,0,0,1-2.85-2.82V48.84h-1.45V46.9h1.45V44.46Z"/><path d="M533.73,49.38a7,7,0,0,0-1-.07,1.94,1.94,0,0,0-2,1v6.49h-2.65V46.9h2.5l.08,1.18a2.46,2.46,0,0,1,2.21-1.37,2.71,2.71,0,0,1,.82.12Z"/><path d="M540.48,56.82a3,3,0,0,1-.27-.89,3.18,3.18,0,0,1-2.5,1.08,3.51,3.51,0,0,1-2.42-.85,2.71,2.71,0,0,1-1-2.13,2.81,2.81,0,0,1,1.17-2.42,5.83,5.83,0,0,1,3.38-.85h1.22v-.57a1.6,1.6,0,0,0-.35-1.1,1.37,1.37,0,0,0-1.11-.41,1.53,1.53,0,0,0-1,.32,1.08,1.08,0,0,0-.39.88h-2.65a2.64,2.64,0,0,1,.54-1.6,3.47,3.47,0,0,1,1.5-1.15,5.47,5.47,0,0,1,2.18-.42,4.37,4.37,0,0,1,2.92.92,3.23,3.23,0,0,1,1.07,2.6v4.3a4.78,4.78,0,0,0,.4,2.14v.15ZM538.29,55a2.33,2.33,0,0,0,1.08-.26,1.77,1.77,0,0,0,.73-.7V52.31h-1c-1.32,0-2,.46-2.12,1.38v.15a1.09,1.09,0,0,0,.35.82A1.39,1.39,0,0,0,538.29,55Z"/><path d="M548,44.46V46.9h1.69v1.94H548v5a1.2,1.2,0,0,0,.21.79,1.09,1.09,0,0,0,.8.23,4.42,4.42,0,0,0,.78-.06v2a5.39,5.39,0,0,1-1.6.24,2.54,2.54,0,0,1-2.85-2.82V48.84h-1.45V46.9h1.45V44.46Z"/><path d="M555.72,57a4.9,4.9,0,0,1-3.56-1.34,4.8,4.8,0,0,1-1.37-3.57v-.26a6,6,0,0,1,.58-2.67A4.27,4.27,0,0,1,553,47.35a4.65,4.65,0,0,1,2.42-.64,4.11,4.11,0,0,1,3.2,1.29,5.2,5.2,0,0,1,1.17,3.64v1.08h-6.32a2.49,2.49,0,0,0,.78,1.56,2.34,2.34,0,0,0,1.64.59,2.86,2.86,0,0,0,2.39-1.11l1.3,1.46A3.94,3.94,0,0,1,558,56.53,5.23,5.23,0,0,1,555.72,57Zm-.3-8.16a1.65,1.65,0,0,0-1.28.54,2.7,2.7,0,0,0-.63,1.52h3.69V50.7a2,2,0,0,0-.48-1.37A1.72,1.72,0,0,0,555.42,48.85Z"/><path d="M560.92,51.79A5.78,5.78,0,0,1,562,48.11a3.53,3.53,0,0,1,2.93-1.4,3.1,3.1,0,0,1,2.54,1.12l.11-.93H570v9.59a4.29,4.29,0,0,1-.59,2.27,3.86,3.86,0,0,1-1.67,1.47,6,6,0,0,1-2.51.5,5.44,5.44,0,0,1-2.13-.43,3.75,3.75,0,0,1-1.57-1.13l1.17-1.61a3.11,3.11,0,0,0,2.41,1.11,2.26,2.26,0,0,0,1.64-.57,2.11,2.11,0,0,0,.59-1.6V56a3.1,3.1,0,0,1-2.42,1,3.52,3.52,0,0,1-2.89-1.4,5.79,5.79,0,0,1-1.11-3.71Zm2.65.19a3.56,3.56,0,0,0,.55,2.12,1.72,1.72,0,0,0,1.48.77,1.84,1.84,0,0,0,1.74-.91V49.78a1.84,1.84,0,0,0-1.72-.91,1.72,1.72,0,0,0-1.5.78A4.11,4.11,0,0,0,563.57,52Z"/><path d="M575.74,53.07l1.84-6.17h2.84l-4,11.47-.22.52a3,3,0,0,1-2.94,1.94,4,4,0,0,1-1.17-.17v-2h.4a2.25,2.25,0,0,0,1.13-.23,1.55,1.55,0,0,0,.58-.76l.31-.82L571,46.9h2.86Z"/><rect class="cls-2" x="512.83" y="173.95" width="55.53" height="55.53" rx="12"/><rect class="cls-3" x="612.46" y="178.01" width="167.81" height="20.17" rx="5.54"/><rect class="cls-3" x="612.46" y="207.6" width="411.23" height="20.17" rx="5.54"/><rect class="cls-2" x="515.5" y="259.46" width="55.53" height="55.53" rx="12"/><rect class="cls-3" x="613.32" y="259.24" width="112.07" height="20.17" rx="5.54"/><rect class="cls-3" x="613.32" y="288.83" width="411.23" height="50.86" rx="6.8"/><rect class="cls-2" x="513.63" y="150.8" width="472.92" height="1.82"/><rect class="cls-2" x="440.48" y="71.53" width="624.84" height="1.82"/><rect class="cls-2" x="440.48" y="27.94" width="624.84" height="1.82"/><rect class="cls-2" x="633.85" y="36.44" width="1.82" height="28.05"/><path d="M487.24,118a1.41,1.41,0,0,0-.55-1.2,7,7,0,0,0-2-.88,13.86,13.86,0,0,1-2.26-.92,3.7,3.7,0,0,1-2.28-3.31,3.21,3.21,0,0,1,.61-1.93,4,4,0,0,1,1.75-1.33,6.76,6.76,0,0,1,2.57-.47,6,6,0,0,1,2.55.52,4.1,4.1,0,0,1,1.74,1.46,3.87,3.87,0,0,1,.62,2.15h-2.76a1.82,1.82,0,0,0-.57-1.43,2.39,2.39,0,0,0-1.63-.51,2.53,2.53,0,0,0-1.57.43,1.35,1.35,0,0,0-.56,1.12,1.27,1.27,0,0,0,.66,1.09,7.32,7.32,0,0,0,1.93.83,8.23,8.23,0,0,1,3.42,1.75A3.49,3.49,0,0,1,490,118a3.22,3.22,0,0,1-1.32,2.72,5.71,5.71,0,0,1-3.53,1,6.78,6.78,0,0,1-2.81-.56,4.5,4.5,0,0,1-1.93-1.55,4,4,0,0,1-.66-2.27h2.76c0,1.47.88,2.21,2.64,2.21a2.51,2.51,0,0,0,1.53-.4A1.3,1.3,0,0,0,487.24,118Z"/><path d="M494.87,109.15v2.44h1.7v2h-1.7v4.95a1.19,1.19,0,0,0,.21.79,1.06,1.06,0,0,0,.81.24,4.58,4.58,0,0,0,.78-.06v2a5.8,5.8,0,0,1-1.61.23,2.52,2.52,0,0,1-2.84-2.81v-5.35h-1.45v-2h1.45v-2.44Z"/><path d="M503.62,114.08a7,7,0,0,0-.95-.07,2,2,0,0,0-2,1v6.5H498v-9.93h2.51l.07,1.19a2.46,2.46,0,0,1,2.21-1.37,2.78,2.78,0,0,1,.83.12Z"/><path d="M510.38,121.52a2.83,2.83,0,0,1-.27-.89,3.19,3.19,0,0,1-2.5,1.07,3.53,3.53,0,0,1-2.42-.84,2.71,2.71,0,0,1-1-2.13,2.8,2.8,0,0,1,1.17-2.42,5.75,5.75,0,0,1,3.38-.85H510v-.57a1.65,1.65,0,0,0-.35-1.1,1.39,1.39,0,0,0-1.12-.42,1.62,1.62,0,0,0-1,.32,1.11,1.11,0,0,0-.38.88h-2.65A2.69,2.69,0,0,1,505,113a3.56,3.56,0,0,1,1.51-1.15,5.4,5.4,0,0,1,2.18-.42,4.36,4.36,0,0,1,2.91.92,3.23,3.23,0,0,1,1.08,2.59v4.31a4.71,4.71,0,0,0,.4,2.13v.16Zm-2.2-1.84a2.34,2.34,0,0,0,1.09-.26,1.73,1.73,0,0,0,.73-.71V117h-1c-1.33,0-2,.46-2.12,1.37v.16a1.09,1.09,0,0,0,.35.82A1.36,1.36,0,0,0,508.18,119.68Z"/><path d="M517.87,109.15v2.44h1.7v2h-1.7v4.95a1.19,1.19,0,0,0,.21.79,1.06,1.06,0,0,0,.81.24,4.58,4.58,0,0,0,.78-.06v2a5.73,5.73,0,0,1-1.6.23,2.53,2.53,0,0,1-2.85-2.81v-5.35h-1.45v-2h1.45v-2.44Z"/><path d="M525.62,121.7a4.86,4.86,0,0,1-3.56-1.34,4.76,4.76,0,0,1-1.37-3.56v-.26a6,6,0,0,1,.58-2.68,4.18,4.18,0,0,1,1.64-1.81,4.52,4.52,0,0,1,2.41-.64,4.14,4.14,0,0,1,3.21,1.28,5.23,5.23,0,0,1,1.17,3.65v1.08h-6.32a2.43,2.43,0,0,0,.77,1.56,2.37,2.37,0,0,0,1.64.59,2.88,2.88,0,0,0,2.4-1.11l1.3,1.46a4,4,0,0,1-1.62,1.31A5.21,5.21,0,0,1,525.62,121.7Zm-.31-8.15a1.69,1.69,0,0,0-1.28.53,2.83,2.83,0,0,0-.62,1.53h3.68v-.21a2,2,0,0,0-.47-1.37A1.73,1.73,0,0,0,525.31,113.55Z"/><path d="M530.82,116.48a5.8,5.8,0,0,1,1.09-3.68,3.51,3.51,0,0,1,2.93-1.39,3.08,3.08,0,0,1,2.54,1.12l.11-.94h2.4v9.6a4.22,4.22,0,0,1-.59,2.27,3.75,3.75,0,0,1-1.66,1.46,5.84,5.84,0,0,1-2.52.51A5.45,5.45,0,0,1,533,125a3.8,3.8,0,0,1-1.57-1.12l1.18-1.62a3.11,3.11,0,0,0,2.4,1.12,2.28,2.28,0,0,0,1.65-.57,2.12,2.12,0,0,0,.58-1.6v-.53a3.05,3.05,0,0,1-2.41,1,3.53,3.53,0,0,1-2.9-1.39,5.9,5.9,0,0,1-1.1-3.72Zm2.65.2a3.63,3.63,0,0,0,.54,2.12,1.73,1.73,0,0,0,1.49.77,1.85,1.85,0,0,0,1.73-.91v-4.18a1.82,1.82,0,0,0-1.71-.91,1.72,1.72,0,0,0-1.5.78A4,4,0,0,0,533.47,116.68Z"/><path d="M545.64,117.77l1.83-6.18h2.85l-4,11.47-.22.53a3,3,0,0,1-2.94,1.94,4.3,4.3,0,0,1-1.17-.17v-2h.4a2.2,2.2,0,0,0,1.12-.23,1.59,1.59,0,0,0,.59-.77l.31-.81-3.48-10h2.85Z"/><rect class="cls-2" x="514.52" y="363.98" width="55.53" height="55.53" rx="12"/><rect class="cls-3" x="614.15" y="368.04" width="167.81" height="20.17" rx="5.54"/><rect class="cls-3" x="614.89" y="397.64" width="411.23" height="51.26" rx="5.54"/><path class="cls-1" d="M562.47,175.16H522.26a9.28,9.28,0,0,0-9.27,9.27v41.64a9.28,9.28,0,0,0,9.27,9.27h2c.16-7.42,2.46-15,8.86-18.19a7.85,7.85,0,0,1,3.4-.79l2,0v-2.5a10.61,10.61,0,0,1-8.57-9.91h0a4,4,0,0,1-4.06-3.81,3.83,3.83,0,0,1,2.5-3.53h0L530.6,185c0-2.86,3-5.59,12.5-5.18,10.78.48,12.5,2.32,12.5,5.18a7.17,7.17,0,0,1-.18,2l1.91,10.06a3.85,3.85,0,0,1,2.8,3.63,3.94,3.94,0,0,1-4.07,3.81h0a10.63,10.63,0,0,1-8.67,9.38v2.39l2.09,0c8.1,0,11.14,10.81,11.32,19.1h1.72a9.27,9.27,0,0,0,9.26-9.27V184.43A9.27,9.27,0,0,0,562.47,175.16Z"/><path class="cls-4" d="M549.43,216.24l-2.09,0v3.38l-3.91,3.54-4.91-3.63v-3.21l-2,0a7.85,7.85,0,0,0-3.4.79c-6.4,3.17-8.7,10.77-8.86,18.19h36.53C560.57,227.05,557.53,216.24,549.43,216.24Z"/><path class="cls-2" d="M562.47,172.8H522.26a11.65,11.65,0,0,0-11.63,11.63v41.64a11.65,11.65,0,0,0,11.63,11.63h40.21a11.64,11.64,0,0,0,11.62-11.63V184.43A11.64,11.64,0,0,0,562.47,172.8Zm9.26,53.27a9.27,9.27,0,0,1-9.26,9.27H522.26a9.28,9.28,0,0,1-9.27-9.27V184.43a9.28,9.28,0,0,1,9.27-9.27h40.21a9.27,9.27,0,0,1,9.26,9.27Z"/><path class="cls-5" d="M543.43,223.18l3.91-3.54v-5.77a10.63,10.63,0,0,0,8.67-9.38h0a3.94,3.94,0,0,0,4.07-3.81,3.85,3.85,0,0,0-2.8-3.63l.09.52-1.54-.3-2.28-8.33c-1.69.81-4.79,1.29-10.5,1.24-6.05,0-9.27-.8-10.92-2l-2.25,8.09-1.56.29a3.83,3.83,0,0,0-2.5,3.53,4,4,0,0,0,4.06,3.81h0a10.61,10.61,0,0,0,8.57,9.91v5.71Z"/><path class="cls-6" d="M532.18,188.21c1.65,1.17,4.87,1.93,10.92,2,5.71,0,8.81-.43,10.5-1.24l2.28,8.33,1.54.3-.09-.52L555.42,187a7.17,7.17,0,0,0,.18-2c0-2.86-1.72-4.7-12.5-5.18-9.47-.41-12.5,2.32-12.5,5.18l-2.23,11.59h0l1.56-.29Z"/><path class="cls-1" d="M562.41,258.44H522a9.32,9.32,0,0,0-9.31,9.31v41.82a9.31,9.31,0,0,0,8.28,9.25c.17-8.54,2.83-17.29,10.27-20.94a9.06,9.06,0,0,1,3.93-.91l3.16,0v-.59c-3.93-1-6.78-3.69-6.78-8.13l0-1.75h0a4,4,0,0,1-4.08-3.83,3.89,3.89,0,0,1,3-3.71,88.71,88.71,0,0,1,.15-14s13.14-4.2,25.32.87l-1,12.76a3.88,3.88,0,0,1,3,3.68,3.93,3.93,0,0,1-3.79,3.82v1.89c0,4.56-2.91,7.42-7,8.45v.47l3,0c9.41,0,12.92,12.48,13.12,22a9.32,9.32,0,0,0,8.39-9.27V267.75A9.31,9.31,0,0,0,562.41,258.44Z"/><path class="cls-6" d="M531.72,278.81l0-1.43a10.65,10.65,0,0,1,10.62-10.63h1.2a10.66,10.66,0,0,1,10.63,10.63v1a4.6,4.6,0,0,1,.84.14l1-12.76c-12.18-5.07-25.32-.87-25.32-.87a88.71,88.71,0,0,0-.15,14,4.56,4.56,0,0,1,1-.13Z"/><rect class="cls-7" x="544.83" y="279.32" width="7.33" height="3.98" rx="0.73"/><rect class="cls-7" x="534.13" y="279.32" width="7.33" height="3.98" rx="0.73"/><path class="cls-6" d="M550.21,296.83l-3,0v2.44a9.26,9.26,0,0,1-8.2.27l-.67-.33v-2.3l-3.16,0a9.06,9.06,0,0,0-3.93.91c-7.44,3.65-10.1,12.4-10.27,20.94a8.77,8.77,0,0,0,1,.06h40.38c.31,0,.62,0,.92,0C563.13,309.31,559.62,296.83,550.21,296.83Z"/><path class="cls-2" d="M562.41,256.07H522a11.69,11.69,0,0,0-11.68,11.68v41.82A11.69,11.69,0,0,0,522,321.25h40.38a11.69,11.69,0,0,0,11.68-11.68V267.75A11.69,11.69,0,0,0,562.41,256.07Zm9.31,53.5a9.32,9.32,0,0,1-8.39,9.27c-.3,0-.61,0-.92,0H522a8.77,8.77,0,0,1-1-.06,9.31,9.31,0,0,1-8.28-9.25V267.75a9.32,9.32,0,0,1,9.31-9.31h40.38a9.31,9.31,0,0,1,9.31,9.31Z"/><path class="cls-7" d="M539,299.57a9.26,9.26,0,0,0,8.2-.27v-2.91c4-1,7-3.89,7-8.45v-1.89a3.93,3.93,0,0,0,3.79-3.82,3.88,3.88,0,0,0-3-3.68,4.6,4.6,0,0,0-.84-.14v-1a10.66,10.66,0,0,0-10.63-10.63h-1.2a10.65,10.65,0,0,0-10.62,10.63l0,1.43h-.14a4.56,4.56,0,0,0-1,.13,3.89,3.89,0,0,0-3,3.71,4,4,0,0,0,4.08,3.83h0l0,1.75c0,4.44,2.85,7.1,6.78,8.13v2.89Zm-4.17-21h5.87a1.47,1.47,0,0,1,1.47,1.47v1h1.89v-1a1.46,1.46,0,0,1,1.46-1.47h5.88a1.46,1.46,0,0,1,1.46,1.47v2.52a1.46,1.46,0,0,1-1.46,1.47h-5.88a1.46,1.46,0,0,1-1.46-1.47v-.77H542.2v.77a1.47,1.47,0,0,1-1.47,1.47h-5.87a1.47,1.47,0,0,1-1.47-1.47v-2.52A1.47,1.47,0,0,1,534.86,278.58Z"/><path class="cls-6" d="M533.39,282.57a1.47,1.47,0,0,0,1.47,1.47h5.87a1.47,1.47,0,0,0,1.47-1.47v-.77h1.89v.77a1.46,1.46,0,0,0,1.46,1.47h5.88a1.46,1.46,0,0,0,1.46-1.47v-2.52a1.46,1.46,0,0,0-1.46-1.47h-5.88a1.46,1.46,0,0,0-1.46,1.47v1H542.2v-1a1.47,1.47,0,0,0-1.47-1.47h-5.87a1.47,1.47,0,0,0-1.47,1.47Zm11.44-2.52a.73.73,0,0,1,.72-.73h5.88a.73.73,0,0,1,.73.73v2.52a.73.73,0,0,1-.73.73h-5.88a.73.73,0,0,1-.72-.73Zm-10-.73h5.87a.73.73,0,0,1,.73.73v2.52a.73.73,0,0,1-.73.73h-5.87a.73.73,0,0,1-.73-.73v-2.52A.73.73,0,0,1,534.86,279.32Z"/><path class="cls-1" d="M540.12,399v3.67h0V399Z"/><path class="cls-1" d="M572.6,412.17V371.49a9.06,9.06,0,0,0-9.06-9.05H524.27a9.07,9.07,0,0,0-9.06,9.05v40.68a9.07,9.07,0,0,0,9.06,9.05h1.36a26.31,26.31,0,0,1,1.92-9.65,5.6,5.6,0,0,1-1.37-1.54c-1.65-2.9,0-2.63.83-6.08s.28-4,.28-4a15.69,15.69,0,0,1-1.66-6,11.76,11.76,0,0,1,1.8-7.46c1.93-3.59.82-5.11,2.12-9.11s2.29-5.25,6.16-8.55,9.64-1.38,9.64-1.38,2-.2,3.91-.62,4.89,1.66,6.82,4.06,4.26,7.52,4.26,10.93-.93,7.05.16,9.84c.9,2.31.41,9.24-.41,13.72,3.69,3.65,5.26,10.13,5.43,15.56A9.06,9.06,0,0,0,572.6,412.17Z"/><line class="cls-8" x1="572.74" y1="422.03" x2="569.17" y2="422.03"/><path class="cls-4" d="M559.57,407.8c-1.07,3.76-10.42-1.67-10.82-1.9l-3.8,3.45-4.8-3.55v-3.13h0v1.27c0,5.51-.82,8.71-3.17,9.82a4.7,4.7,0,0,1-4.2,0,13.33,13.33,0,0,1-5.2-2.19,26.31,26.31,0,0,0-1.92,9.65h37.91a8.65,8.65,0,0,0,2-.22c-.17-5.43-1.74-11.91-5.43-15.56C559.93,406.34,559.75,407.15,559.57,407.8Z"/><path class="cls-2" d="M574.9,412.17V371.49a11.36,11.36,0,0,0-11.36-11.35H524.27a11.37,11.37,0,0,0-11.36,11.35v40.68a11.38,11.38,0,0,0,11.36,11.36h39.27a11.38,11.38,0,0,0,11.36-11.36ZM565.52,421a8.65,8.65,0,0,1-2,.22H524.27a9.07,9.07,0,0,1-9.06-9.05V371.49a9.07,9.07,0,0,1,9.06-9.05h39.27a9.06,9.06,0,0,1,9.06,9.05v40.68A9.06,9.06,0,0,1,565.52,421Z"/><path class="cls-9" d="M548.74,399.15a10.36,10.36,0,0,0,6.8-9.71v-8.58a10.36,10.36,0,0,0-10.33-10.34h-.38c-.79,1.08-2.3,3.15-3.43,4.68-1.58,2.16-5.49,3.17-5.49,6.48,0,.35,0,.69,0,1a1.36,1.36,0,0,1,.84-.3h5.71a1.36,1.36,0,0,1,1.36,1.36v0s-.06.42-.16,1h2.3c-.1-.58-.15-1-.16-1v0a1.36,1.36,0,0,1,1.36-1.36h5.71a1.35,1.35,0,0,1,1.35,1.36v0s-.25,1.81-.6,3.24a2.17,2.17,0,0,1-2.11,1.65h-3.15a2,2,0,0,1-1.92-1.49c-.15-.58-.28-1.23-.38-1.81h-2.49c-.13.75-.3,1.65-.5,2.42a1.7,1.7,0,0,1-1.65,1.28h-3.44a1.93,1.93,0,0,1-1.88-1.49c-.26-1-.47-2.27-.59-3a5.07,5.07,0,0,1-1.76,2.47v2.43a10.39,10.39,0,0,0,6.41,9.56h0v6.79l4.8,3.55,3.8-3.45h0Z"/><path class="cls-10" d="M537,413.76c2.35-1.11,3.17-4.31,3.17-9.82V399a10.39,10.39,0,0,1-6.41-9.56V387a5.07,5.07,0,0,0,1.76-2.47c-.07-.46-.11-.75-.11-.76v0a1.36,1.36,0,0,1,.51-1.06c0-.31,0-.65,0-1,0-3.31,3.91-4.32,5.49-6.48,1.13-1.53,2.64-3.6,3.43-4.68h.38a10.36,10.36,0,0,1,10.33,10.34v8.58a10.36,10.36,0,0,1-6.8,9.71v6.74h0c.4.23,9.75,5.66,10.82,1.9.18-.65.36-1.46.52-2.36.82-4.48,1.31-11.41.41-13.72-1.09-2.79-.16-6.43-.16-9.84S558,373.36,556.08,371s-4.88-4.49-6.82-4.06-3.91.62-3.91.62-5.77-1.92-9.64,1.38-4.86,4.54-6.16,8.55-.19,5.52-2.12,9.11a11.76,11.76,0,0,0-1.8,7.46,15.69,15.69,0,0,0,1.66,6s.55.52-.28,4-2.48,3.18-.83,6.08a5.6,5.6,0,0,0,1.37,1.54,13.33,13.33,0,0,0,5.2,2.19A4.7,4.7,0,0,0,537,413.76Z"/><path class="cls-9" d="M548.32,388.09h3.15a1.59,1.59,0,0,0,1.55-1.21c.33-1.31.56-3,.59-3.16a.78.78,0,0,0-.78-.76h-5.71a.78.78,0,0,0-.78.76A33.66,33.66,0,0,0,547,387,1.4,1.4,0,0,0,548.32,388.09Z"/><path class="cls-9" d="M537.94,388.49h3.44a1.12,1.12,0,0,0,1.09-.84c.4-1.57.7-3.7.73-3.93a.78.78,0,0,0-.78-.76h-5.71a.78.78,0,0,0-.78.76c0,.22.31,2.19.69,3.73A1.35,1.35,0,0,0,537.94,388.49Z"/><path class="cls-2" d="M537.94,389.07h3.44a1.7,1.7,0,0,0,1.65-1.28c.2-.77.37-1.67.5-2.42H546c.1.58.23,1.23.38,1.81a2,2,0,0,0,1.92,1.49h3.15a2.17,2.17,0,0,0,2.11-1.65c.35-1.43.6-3.22.6-3.24v0a1.35,1.35,0,0,0-1.35-1.36h-5.71a1.36,1.36,0,0,0-1.36,1.36v0s.06.44.16,1h-2.3c.1-.6.16-1,.16-1v0a1.36,1.36,0,0,0-1.36-1.36h-5.71a1.36,1.36,0,0,0-1.35,1.36v0s0,.3.11.76c.12.77.33,2,.59,3A1.93,1.93,0,0,0,537.94,389.07Zm9.18-6.11h5.71a.78.78,0,0,1,.78.76c0,.2-.26,1.85-.59,3.16a1.59,1.59,0,0,1-1.55,1.21h-3.15a1.4,1.4,0,0,1-1.36-1,33.66,33.66,0,0,1-.62-3.32A.78.78,0,0,1,547.12,383Zm-10.41,0h5.71a.78.78,0,0,1,.78.76c0,.23-.33,2.36-.73,3.93a1.12,1.12,0,0,1-1.09.84h-3.44a1.35,1.35,0,0,1-1.32-1c-.38-1.54-.66-3.51-.69-3.73A.78.78,0,0,1,536.71,383Z"/><circle class="cls-2" cx="458.17" cy="15.99" r="3.03"/><circle class="cls-2" cx="468.58" cy="15.99" r="3.03"/><circle class="cls-2" cx="479.04" cy="15.99" r="3.03"/><path class="cls-2" d="M780.22,756.15s0,10.32-1.72,12.9-7.74,11.18-13.76,13.76a7.21,7.21,0,0,0-4.3,8.59s13.76,3.44,19.78,0,17.2-24.07,24.94-30.95-14.48-20.76-14.48-20.76Z"/><path class="cls-2" d="M791.4,764.75s-7.74,13.76-13.76,16.34-18.92,2.58-21.49,7.74-2.58,4.29-2.58,4.29,53.31,2.58,61.9,0,0-30.09,0-30.09Z"/><path class="cls-5" d="M597.9,555s5.4-7.2,7.2-9,3.22-3.14,5-3.14.39,3.14-1.42,4.94c0,0,7.21-3.6,9-3.6s5.4,0,7.2,3.6-6.19,8.67-8,8.67-13.62,5.74-13.62,5.74Z"/><path class="cls-11" d="M877.09,777.38a1.17,1.17,0,0,1-1.14-.93L849.58,653.63C847,641.55,837.4,633.08,826.26,633l-11.08,0c-13.63,0-25.16,10.74-27.49,25.66L769.35,776a1.17,1.17,0,0,1-2.31-.36L785.38,658.3c2.51-16,15-27.64,29.7-27.64h.11l11.08,0c12.24,0,22.77,9.28,25.6,22.44L878.23,776a1.17,1.17,0,0,1-.89,1.39Z"/><path class="cls-11" d="M849.37,684.31s44.69.22,50.84-10.32,20.21-105.44,16.7-105.44-45.69-.88-45.69-.88l-39.54,38.66-18.45,58Z"/><path class="cls-4" d="M852.69,624.45s-61.21,36.27-61.21,43.07V765l24.94-2.27,6.8-72.55s72.54-13.6,77.08-29.47,0-36.27,0-36.27Z"/><path class="cls-4" d="M811.88,631.25s-56.67,11.34-61.21,18.14,29.47,106.55,29.47,106.55l24.94-13.6L787,676.59l74.81-24.94-9.07-20.4Z"/><polygon class="cls-12" points="901.72 619.96 901.72 636.41 841.93 636.41 832.44 611.27 896.71 603.23 901.72 619.96"/><path class="cls-11" d="M630.19,770.21a1.17,1.17,0,0,1-1.15-1L609,651.79c-2.54-15-15.74-25.86-31.38-25.92l-12.66,0h-.11A27.47,27.47,0,0,0,538,646.25L511.67,756.42a1.17,1.17,0,1,1-2.27-.55l26.33-110.18a29.8,29.8,0,0,1,29.16-22.21H565l12.66,0c16.77.07,30.94,11.79,33.67,27.87l20,117.45a1.16,1.16,0,0,1-1,1.34A.68.68,0,0,1,630.19,770.21Z"/><path class="cls-11" d="M468.6,567.78a10,10,0,0,0-6.53,10c1.18,22,6.12,92.49,21.66,100.63,18.45,9.67,69.42,12.31,69.42,12.31S543.48,573,532.94,571.19C523.51,569.62,489.52,560.32,468.6,567.78Z"/><path class="cls-13" d="M1028.26,757.06s7.83,11,6.26,17.23-14.09,20.36-14.09,20.36l18.79-1.57,11-23.49-7.83-15.67Z"/><path class="cls-13" d="M974,749.69s-13.57,29-16.25,31.64S944.4,788,944.4,788s28.08,0,32.09-4,10.39-28.7,10.39-28.7Z"/><path class="cls-4" d="M979.65,777.81s-10.51,4.73-13.19,7.4-22.73,1.34-22.73,1.34-4-1.34-8,2.67a29.69,29.69,0,0,0-5.35,6.69s42.79-1.34,45.46-1.34S986.88,781,979.65,777.81Z"/><path class="cls-4" d="M1050.19,769.59s-9.4,11-11,15.66l-1.56,4.7s-20.36-1.57-23.5,0-6.26,11-6.26,11,26.62,1.57,31.32,0,17.23-15.66,17.23-21.93S1050.19,769.59,1050.19,769.59Z"/><path class="cls-13" d="M1013.74,490.61s1.89,30.6,14.71,35.72c10.5,4.21,20-.51,29.41-14.71s4.65-38.54-7.18-40.9c-9.55-1.91-20.64-2.28-27.05,6.35C1022.09,479.14,1013.74,475.9,1013.74,490.61Z"/><path class="cls-13" d="M1043.16,517.93V541s2.1-2.1,8.4-4.2a9.19,9.19,0,0,0,6.3-8.41V511.62Z"/><path class="cls-14" d="M1043.16,538.94s-6.31,18.91-8.41,29.42,4.2,58.84,4.2,58.84v6.3s31.52,4.2,46.23-2.1l6.31-8.41s-4.21-56.73-14.71-71.44a200.35,200.35,0,0,0-18.92-23.12Z"/><path class="cls-13" d="M1045,568.83l-16.57,21s-49.47-6.88-53.65-6.39-9.45,9.58-11,14-3.19,8.84-1.1,8.59,5-11.17,9.45-9.57,10.44-1.23,14.61-1.72,25.78,3.32,32.53,6.76,11.66,9.2,21.36,1.72,25.54-34.74,25.54-34.74Z"/><path class="cls-4" d="M1091.49,625.1s4.2,33.62-6.31,42-77.75,9.47-77.75,9.47,39.93,74.59,39.93,83l-12.61,12.61s-58.84-73.55-58.84-94.56,67.25-46.23,67.25-46.23Z"/><polygon class="cls-4" points="977.24 673.37 965.41 763.78 987.89 767.59 1008.53 692.86 977.24 673.37"/><rect class="cls-15" x="947.62" y="613.84" width="74.25" height="6.55"/><rect class="cls-15" x="898.34" y="581.24" width="71.45" height="6.3" transform="translate(1127.08 -500.39) rotate(68.06)"/><path class="cls-11" d="M1111.2,564.16s-15.6,93.61-26.52,98.29-73.33,1.56-79.57,4.68-14,10.92,18.72,9.36,60.85,0,60.85,0,12.48,0,17.16-20.28S1119,564.16,1119,564.16Z"/><path class="cls-11" d="M987.47,794.37a1.33,1.33,0,0,1-.28,0,1.17,1.17,0,0,1-.85-1.42l29.52-118.08A28.71,28.71,0,0,1,1044,653.35h12.18c16.16,0,29.85,11.24,32.55,26.72L1108.4,793a1.17,1.17,0,0,1-2.3.4l-19.68-112.93c-2.5-14.36-15.22-24.79-30.25-24.79H1044a26.4,26.4,0,0,0-25.87,19.72L988.6,793.49A1.16,1.16,0,0,1,987.47,794.37Z"/><path class="cls-2" d="M1013.74,482.2s16.81,10.51,23.11,12.61,8.41,4.21,8.41,4.21-2.1,25.21-6.31,33.62-4.2,14.71-2.1,18.91,31.52-2.1,39.93-8.41-8.41-50.43-12.61-60.94-21-16.81-29.42-14.71S1013.74,475.9,1013.74,482.2Z"/><circle class="cls-13" cx="1045.26" cy="503.22" r="8.41"/><path class="cls-13" d="M1015.78,504.42s-2,9.3-2,11.41,8.4-2.11,8.4-2.11Z"/><polygon class="cls-7" points="825.49 547.37 818.68 606.31 844.05 606.31 836.82 549.64 825.49 547.37"/><path class="cls-12" d="M850.42,522.43s-20.49,3.69-25,12.75a46.76,46.76,0,0,0-4.45,19l11.68,2.71,1.92,56.23,65.75,2.27,9.07-58.94h4.53s-.1-37.18-25-34.91a196.71,196.71,0,0,1-22.57.9Z"/><path class="cls-5" d="M532.06,479.81s12.36,10.82,14.94,22c2.63,11.43-.53,28.37-12,28.37s-34.31-6.86-34.31-32S532.06,479.81,532.06,479.81Z"/><ellipse class="cls-12" cx="516.81" cy="484" rx="21.08" ry="9.73" transform="translate(-125.93 186.96) rotate(-18.32)"/><path class="cls-12" d="M510.33,492.11l2.4,31.63c-3.43,1-11.56-7.4-14.94-17.57a32.59,32.59,0,0,1-.43-18.92Z"/><circle class="cls-5" cx="508.7" cy="508.32" r="8.11"/><path class="cls-4" d="M513.27,533.37s-19.81,5.4-30.61,19.8-11.61,51.45-9,55.82c6.28,10.55,66.62,0,66.62,0s21.61,0,28.81-5.4,39.61-43.21,39.61-43.21l-10.8-7.21S570.89,573,565.49,573s-1.8-30.61-7.2-34.21-23.41-5.4-23.41-5.4Z"/><path class="cls-5" d="M510.45,515l1.8,21.61s5.4,5.4,10.8,5.4,9-7.2,9-7.2V515Z"/><polygon class="cls-4" points="485.43 594.98 485.43 640.32 551.17 631.25 557.97 601.78 485.43 594.98"/><path class="cls-2" d="M551.17,629s47.61,24.94,54.41,31.74,58.95,95.22,58.95,95.22l-22.68,13.6-54.4-77.08s-90.69-9.07-97.49-18.14-4.53-34-4.53-34Z"/><path class="cls-2" d="M551.17,629s70.28,11.34,74.82,13.61,2.26,49.87,0,54.4-18.14,68-18.14,68l-18.14-4.54,6.8-90.68-86.14-13.6Z"/><path class="cls-5" d="M543.88,607.26s12.61-1.8,16.21,0,12.6,9,12.6,9H543.88Z"/><polygon class="cls-15" points="650.12 620.07 565.49 620.07 579.89 569.66 664.52 569.66 650.12 620.07"/><rect class="cls-15" x="525.88" y="616.47" width="77.43" height="3.6"/><path class="cls-7" d="M839.1,482.9s-7.66,23,0,33.22,25.55,7.66,35.77,0,10.22-30.66,2.56-40.88S841.66,465,839.1,482.9Z"/><path class="cls-12" d="M839.1,482.9l-2.45-16.71a4.4,4.4,0,0,1,3.39-4.93c8.73-2,30-5.7,44.22.47A4.59,4.59,0,0,1,887,466c0,8.36,0,37.55-9.67,48.1l-1.76-25.49s-.85-14.91-7.18-15.41-24.28-1.53-26.8,4.09Z"/><circle class="cls-7" cx="878.39" cy="496.56" r="7.66"/><path class="cls-7" d="M852.69,515.63v9.07s2.27,6.8,9.07,6.8,9.07-9.07,9.07-9.07V511.1Z"/><rect class="cls-15" x="767.91" y="616.39" width="75.71" height="3.6" transform="translate(1611.53 1236.38) rotate(180)"/><path class="cls-7" d="M912.16,556.07l-16.4.37-4.53,40.8s-52.14,9.07-58.94,9.07-15.87-4.53-20.41-4.53-14.55,9.07-15.21,13.6H855s40.8,0,49.87-2.27S912.16,556.07,912.16,556.07Z"/><polygon class="cls-15" points="722.13 619.99 804.89 619.99 790.8 569.57 708.05 569.57 722.13 619.99"/><path class="cls-12" d="M848.35,495.66V494.2h3.57v1.46a2.78,2.78,0,0,0,2.78,2.77h11.11a2.77,2.77,0,0,0,2.77-2.77v-4.77a2.78,2.78,0,0,0-2.77-2.78H854.7a2.79,2.79,0,0,0-2.78,2.78v1.91h-3.57v-1.91a2.79,2.79,0,0,0-2.78-2.78H834.46a2.78,2.78,0,0,0-2.77,2.78v4.77a2.77,2.77,0,0,0,2.77,2.77h11.11A2.78,2.78,0,0,0,848.35,495.66Zm5-4.77a1.38,1.38,0,0,1,1.38-1.38h11.11a1.37,1.37,0,0,1,1.37,1.38v4.77a1.37,1.37,0,0,1-1.37,1.38H854.7a1.38,1.38,0,0,1-1.38-1.38Zm-20.24,4.77v-4.77a1.38,1.38,0,0,1,1.38-1.38h11.11a1.38,1.38,0,0,1,1.38,1.38v4.77a1.38,1.38,0,0,1-1.38,1.38H834.46A1.38,1.38,0,0,1,833.08,495.66Z"/><path class="cls-11" d="M582.58,799.46a1.16,1.16,0,0,1-1.14-.93l-24-113.81c-2.55-15-15.75-25.9-31.39-26l-12.66,0h-.11a27.46,27.46,0,0,0-26.89,20.43l-33.92,119.4a1.17,1.17,0,0,1-2.25-.63l33.91-119.38a29.8,29.8,0,0,1,29.15-22.15h.12l12.66,0c16.78.07,30.94,11.79,33.68,27.87l23.94,113.76a1.17,1.17,0,0,1-.9,1.39Z"/><path class="cls-11" d="M831.24,797.73h-.16a1.17,1.17,0,0,1-1-1.32l18-128.08c2.36-16.05,14.1-27.67,28-27.67h.09l10.39,0c11.53,0,21.43,9.27,24.08,22.44L935.34,786a1.17,1.17,0,0,1-2.29.46l-24.7-122.82c-2.43-12.07-11.39-20.53-21.8-20.57l-10.39,0h-.08c-12.68,0-23.45,10.78-25.64,25.67l-18,128.08A1.18,1.18,0,0,1,831.24,797.73Z"/><rect class="cls-14" x="510.97" y="619.3" width="517.46" height="7.65" rx="1.5"/><rect class="cls-14" x="1002.22" y="622.57" width="8.74" height="183.22" rx="4.37"/><rect class="cls-14" x="544.89" y="620.96" width="8.74" height="183.22" rx="4.37"/><path class="cls-4" d="M592.46,760.77a3.81,3.81,0,0,0-4.05,2.71c-1.78,6-5.35,19.07-3.37,21s38.73,1.92,53.8,1.79a3.82,3.82,0,0,0,3.24-5.79c-3.63-6-10-14.67-16.63-15.78C617.33,763.4,599.64,761.51,592.46,760.77Z"/><path class="cls-4" d="M644.05,768.51a4.29,4.29,0,0,0-2,4.08c.36,3.55,1.07,9.56,1.94,11.24,1,1.95,39.53,2.33,54.16,2.4a4.28,4.28,0,0,0,4.07-5.67c-1.7-5-5.12-11.66-11.4-13.23-8.06-2-19.79-7.7-24.54-10.09a4.27,4.27,0,0,0-4.17.17Z"/><path class="cls-4" d="M653.32,455.48H573.7c-4.71,0-8.56,2.93-8.56,6.51v21.18a6.24,6.24,0,0,0,3.62,5.31,10.35,10.35,0,0,0,4.94,1.21h0v12.47l5.91-8.65,2.14-3.13.47-.69h71.05c4.7,0,8.55-2.93,8.55-6.52V462C661.87,458.41,658,455.48,653.32,455.48Z"/><path class="cls-2" d="M815.2,490.79v-12.1h0c4,0,7.33-2.84,7.33-6.31V451.85c0-3.47-3.3-6.31-7.33-6.31H747.07c-4,0-7.33,2.84-7.33,6.31v20.53c0,3.47,3.3,6.31,7.33,6.31H807.9l.08.14,3.66,6.06Z"/><path class="cls-4" d="M487,639.76a14,14,0,0,0,4.76,1.94,26.65,26.65,0,0,0,5.28.29,86.69,86.69,0,0,0,11.11-1.61,65.58,65.58,0,0,1,11.19-1,49.63,49.63,0,0,0,11.52-1.22,41.08,41.08,0,0,0,11.68-5.1c1.52-.92.53-3.7-1.27-3a80.6,80.6,0,0,1-27.41,5.72v2.5a132.3,132.3,0,0,0,25-4.58,1.24,1.24,0,0,0-.33-2.43,10,10,0,0,0-6.49,2.68,1.14,1.14,0,0,0,1.1,1.89,28.14,28.14,0,0,0,7.59-4l-1.57-.9a2.56,2.56,0,0,1-.37,1.13c-.55.95.83,2.11,1.57,1.21l1.33-1.56L540,631c0,.81,0,1.61.06,2.41,0,1,1.56,1.58,2,.55.35-.8.71-1.59,1.07-2.38l-2.07-.56v1.56c0,1.24,2,1.6,2.23.3l.26-1.3a1.21,1.21,0,0,0-.53-1.31c-1.75-1-3.35,1.73-1.62,2.77a2,2,0,0,0,2.35-.39,3,3,0,0,0,.47-2.71c-.26-1.37-2.4-1-2.39.32V632a1.24,1.24,0,0,0,2.43.32l.6-1.51h-2.41c.08.3.12.27.12-.1l-.1.09c-.14,0-.47.23-.63.28a9.42,9.42,0,0,1-1.91.24c-1.54.15-3.07.38-4.6.58-3.08.4-6.15.78-9.22,1.19l-18.4,2.5c-1.71.24-1.28,3,.41,3a102.11,102.11,0,0,0,26.93-4.45c1.54-.48,1.36-3.2-.41-3q-15.75,2-31.31,5.28l.79,2.89c5.27-1.37,10.54-2.75,15.82-4.1,1.87-.48,1.08-3.31-.79-2.89l-17.79,4,.83,3,8-1.86-.84-3-11.28,4a1.62,1.62,0,0,0,.43,3.17,3.63,3.63,0,0,0,3.7-2.73,1.67,1.67,0,0,0-1.14-2,10,10,0,0,0-6.9.23,1.69,1.69,0,0,0-1.14,2,1.64,1.64,0,0,0,2,1.15l3.24-1.34a1.67,1.67,0,0,0,1.13-2,1.64,1.64,0,0,0-2-1.13,14.31,14.31,0,0,0-4.84,2.54c-1.1.85-.17,2.78,1.13,2.72a3.41,3.41,0,0,0,3.31-3.2c.13-1.1-1.11-1.69-2-1.52a16.08,16.08,0,0,1-6.8-.19,1.59,1.59,0,0,0-1.74.71,5.3,5.3,0,0,0-.76,3.11,1.54,1.54,0,0,0,1.52,1.52,252.24,252.24,0,0,0,44.17-5.07,1.81,1.81,0,0,0-1-3.49q-12.81,2-25.61,4.09c-2.09.35-1.48,3.51.49,3.57,12.37.42,24.58-2.57,36.37-6l-1.35-3.2A39.71,39.71,0,0,1,529.71,635c-1.85.36-1.45,3.46.45,3.31a26.5,26.5,0,0,0,9.16-2.41,1.68,1.68,0,0,0,.6-2.29,1.71,1.71,0,0,0-2.29-.6,21.53,21.53,0,0,1-7.47,1.93l.45,3.31a49,49,0,0,0,11.53-3.79c1.85-.85.51-3.65-1.35-3.19-11.65,2.88-23.33,6.23-35.44,5.74l.48,3.57c8.54-1.34,17.07-2.73,25.6-4.11l-1-3.49a230.42,230.42,0,0,1-43.21,5.51l1.52,1.53a2.46,2.46,0,0,1,.38-1.56l-1.74.71a20,20,0,0,0,8.46.26l-2-1.52c0-.07-.09,0-.15,0l.8,3a11.22,11.22,0,0,1,3.77-1.92l-.86-3.12-3.25,1.3.87,3.16a7.43,7.43,0,0,1,5.17-.26l-1.14-2c-.08.33-.2.39-.56.37l.43,3.17,11.26-4a1.58,1.58,0,0,0-.84-3l-8,1.91c-1.94.46-1.12,3.45.83,3L520,635.24l-.79-2.89c-5.27,1.39-10.55,2.74-15.82,4.1-1.88.49-1.08,3.28.79,2.89q15.15-3.17,30.52-5.15l-.4-3a98.93,98.93,0,0,1-26.12,4.32l.41,3c7-.94,13.92-1.86,20.88-2.84,3.44-.49,6.9-.92,10.33-1.46,2.2-.34,6.36-1.22,5-4.4-.47-1.09-2-.58-2.28.3l-.57,1.53,2.42.33,0-1.71-2.39.32c.09.47.16,1.8.72,1.73l-.89-.12.15.08-.53-1.3-.22,1.31,2.23.3-.05-1.56a1.12,1.12,0,0,0-2.19-.3c-.3.72-.59,1.44-.9,2.15l2,.54c-.06-.8-.11-1.6-.16-2.41s-1.15-1.48-1.76-.73c-.43.54-.85,1.08-1.28,1.61l1.57,1.21a4.45,4.45,0,0,0,.73-2.14,1.05,1.05,0,0,0-1.57-.91,27.17,27.17,0,0,1-7.14,3.58l1.1,1.89a7.56,7.56,0,0,1,4.89-1.81l-.33-2.43a165.56,165.56,0,0,1-24.39,4.47c-1.56.16-1.63,2.55,0,2.5a93.56,93.56,0,0,0,28.28-5l-1.26-3c-6.18,3.49-13.38,5-20.42,5.14a71.09,71.09,0,0,0-11.28,1c-3.43.64-6.8,1.64-10.25,2.25a25.25,25.25,0,0,1-11.31-.3.81.81,0,0,0-.62,1.47Z"/><path class="cls-16" d="M790.13,772.5a7,7,0,0,0-1.68-5.59,7.49,7.49,0,0,0-2.39-1.86c-.83-.4-2.11-1-3-.53s-1,1.88-1,2.86a9.24,9.24,0,0,0,.7,3.15,9.9,9.9,0,0,0,4.35,4.94,1,1,0,0,0,1.29-1.29c-.83-1.68,1.41-2.92,2.63-3.4a11.9,11.9,0,0,1,5.51-1.23l-.47-1.75a149.39,149.39,0,0,1-17,8.74l1.31,1.7c1.71-1.56,3.65-3.38,6.09-3.51,1.79-.1,4,1.18,3.29,3.25-.52,1.55,2,2.27,2.46.67.81-3.06-1.69-5.83-4.66-6.17-3.51-.4-6.32,2-8.71,4.23-1,.89.26,2.18,1.31,1.7a169.62,169.62,0,0,0,16.89-9,1,1,0,0,0-.48-1.75,9.66,9.66,0,0,0-3.88.52,21.11,21.11,0,0,0-3.63,1.44c-2,1.08-3.35,3.31-2.25,5.5l1.29-1.29a7.91,7.91,0,0,1-3.21-3.25,7.91,7.91,0,0,1-.94-3.33c0-.16-.05-1.11-.05-1.11s.15.05.28.08a3.58,3.58,0,0,1,.56.16,4.78,4.78,0,0,1,1,.43,7.25,7.25,0,0,1,1.78,1.39,7.59,7.59,0,0,1,2,4.2c0,.32.57.48.63.09Z"/><path class="cls-16" d="M777.19,776.28c.18.31.53.37.85.49l.92.35c.66.27,1.32.53,2,.82a29.41,29.41,0,0,1,3.75,2,1.08,1.08,0,0,0,1.09-1.87,33.09,33.09,0,0,0-4.22-1.62,18.6,18.6,0,0,0-2.11-.53q-.55-.11-1.11-.18a1.37,1.37,0,0,0-1,0,.36.36,0,0,0-.13.48Z"/><path class="cls-16" d="M772.62,780.77a1.64,1.64,0,0,0,.8.34c.36.08.71.19,1.07.27a13.38,13.38,0,0,1,2.21.67,13.65,13.65,0,0,1,1.91,1,5.78,5.78,0,0,0,2.26,1.15c.81.07,1.14-.88.85-1.49-.38-.81-1.48-1.17-2.26-1.5a12.51,12.51,0,0,0-2.33-.7,15,15,0,0,0-2.41-.29,5.77,5.77,0,0,0-1.17.09,1.43,1.43,0,0,0-.93.35.1.1,0,0,0,0,.15Z"/><path class="cls-16" d="M768.2,783.61a6,6,0,0,1-.74-.13.31.31,0,0,0-.24.57,12.65,12.65,0,0,0,3.8,1.13l4,.9a1.06,1.06,0,1,0,.28-2.09l-4-.39a13.11,13.11,0,0,0-4-.12l.24.57c.21-.1.45-.16.67-.24s.12-.18,0-.2Z"/><path class="cls-16" d="M758.81,791.74a115.24,115.24,0,0,0,20.84,1c7.13-.18,14.23-.72,21.31-1.54q5.92-.68,11.82-1.61c1.31-.2.75-2.18-.55-2-13.78,2-27.64,2.71-41.55,3.2-3.95.14-7.88.25-11.82.56-.19,0-.27.32-.05.35Z"/><path class="cls-16" d="M816.4,771.19a21.11,21.11,0,0,0-5.24,7.82,21.74,21.74,0,0,0-1.68,9.51,1,1,0,0,0,2,0,26.38,26.38,0,0,1,5.34-17c.16-.24-.19-.48-.39-.3Z"/><path class="cls-16" d="M771.18,777l3.84,1.28a.82.82,0,1,0,.43-1.58l-4-.58a.48.48,0,0,0-.56.32.46.46,0,0,0,.32.56Z"/><path class="cls-16" d="M774,773.7l3.57,1.5a.82.82,0,0,0,.65-.09.84.84,0,0,0-.2-1.55l-3.8-.66a.41.41,0,0,0-.22.8Z"/><path class="cls-16" d="M779.27,765.71a6,6,0,0,0-2.08-2.17,1.36,1.36,0,0,0-2.05,1.23,5.94,5.94,0,0,0,.87,2.83,10.77,10.77,0,0,0,1.83,2.61,1,1,0,0,0,1.08.21,1,1,0,0,0,.6-.9,6.48,6.48,0,0,1,.13-.77,3.68,3.68,0,0,1,.15-.47,1.58,1.58,0,0,1,.1-.26,8,8,0,0,1,.46-.81,5.41,5.41,0,0,1,.52-.69,17.56,17.56,0,0,1,2.86-2.56l-1.2-1.56c-2.18,2.13-4.37,4.23-6.56,6.33a1,1,0,0,0,1.25,1.64l.28-.14c-.18.07.14,0,.18-.05l.29-.08.15,0h0a4.85,4.85,0,0,1,.66,0s.33,0,.12,0l.3.06a3.86,3.86,0,0,1,.58.17c-.19-.07.1.05.12.06a2.2,2.2,0,0,1,.26.15l.26.16c-.17-.11.06.06.09.09a3,3,0,0,1,.26.24s.23.3.12.14a1.11,1.11,0,0,0,1.47.39,1.09,1.09,0,0,0,.39-1.48,5.14,5.14,0,0,0-6.54-1.48l1.26,1.63c2.16-2.13,4.31-4.28,6.49-6.4a1,1,0,0,0,.07-1.3,1,1,0,0,0-1.27-.25c-2.36,1.76-5.16,4-5.19,7.27l1.68-.7a9.1,9.1,0,0,1-2.45-3.6,1.18,1.18,0,0,1-.09-.54,1.29,1.29,0,0,0,0-.19s0,.07,0,.08c-.2.19-.11,0-.06.06s.19.09.26.13a5.55,5.55,0,0,1,1.7,1.46c.3.39.91-.1.67-.51Z"/><path class="cls-2" d="M579.51,673.43c1,3.63,3.13,7,4.92,10.27s3.57,6.62,5.46,9.86q5.82,10,11.93,19.76c8.11,13,16.8,25.65,25.76,38.06q7.59,10.5,15.56,20.7a1.76,1.76,0,0,0,2.47,0,1.79,1.79,0,0,0,0-2.47q-13.92-18-26.89-36.75t-25-38.2c-2.26-3.66-4.55-7.31-6.81-11s-4.14-7.47-7-10.54a.3.3,0,0,0-.49.28Z"/><path class="cls-2" d="M644.14,770.94a12.22,12.22,0,0,0,2.71-.39,28.51,28.51,0,0,0,2.68-1.11,34.87,34.87,0,0,0,5-3c3.43-2.42,6.82-4.92,10.2-7.42l-2-2.54a48.3,48.3,0,0,1-8.65,7.88,51.33,51.33,0,0,1-4.94,3.06,12.82,12.82,0,0,1-5.7,1.93l.82,3a188.15,188.15,0,0,0,17.24-12.59c1.55-1.27-.43-3.58-2.07-2.69-5.46,3-10.91,6-16.38,8.91l1.74,3,5.76-3.72c1.92-1.24,3.92-2.41,5.76-3.75l-2.38-2.38a4.83,4.83,0,0,1-1.3,1.44,1.53,1.53,0,0,0-.61,1.86,1.48,1.48,0,0,0,1.76.86,6.5,6.5,0,0,0,3.16-2.41c1.09-1.45-1-3.19-2.39-2.38-2,1.14-3.85,2.5-5.76,3.75L643.05,766a1.72,1.72,0,0,0,1.74,3c5.45-3,10.91-6,16.37-8.93l-2.07-2.68c-5.28,4.34-10.79,8.42-16.46,12.22-1.25.84-.89,3.08.81,3,4.38-.19,8.46-2.88,11.94-5.33a56.46,56.46,0,0,0,9.64-8.49c1.15-1.28-.39-3.66-2-2.53-3.32,2.39-6.59,4.85-9.92,7.23-1.49,1-3,2.12-4.52,3.08-.82.51-1.62,1-2.46,1.51s-1.54,1.11-2.37,1.6c-.55.32-.37,1.39.35,1.3Z"/><path class="cls-2" d="M616.48,724.58A131.38,131.38,0,0,0,611,742.8c-1.51,6.16-2.89,12.34-4.29,18.52l2.17-1.23a67.19,67.19,0,0,0-9.91-1.18q-4.92-.35-9.87-.24l1.91,1.91a291.24,291.24,0,0,1-.18-32A260.63,260.63,0,0,1,594.46,697q1.57-8.84,3.64-17.59l-3.27-.9a267.89,267.89,0,0,0-5.81,54.6q0,7.71.52,15.42a1.71,1.71,0,0,0,3.42,0q2.63-20.81,5.14-41.62.72-6,1.45-11.95a1.73,1.73,0,0,0-1.51-1.72,1.8,1.8,0,0,0-1.92,1.26,103.86,103.86,0,0,0-7.81,44.84,1.76,1.76,0,0,0,3.52,0l4.5-35.13c.26-2-3.12-2.45-3.56-.48A190.05,190.05,0,0,0,589,725a75.73,75.73,0,0,0-.43,10.54,56.73,56.73,0,0,0,1.49,10.7c.49,2.16,3.8,1.24,3.31-.91-3.07-13.44.07-27.5,2.95-40.66l-3.56-.49q-2.21,17.56-4.4,35.13h3.52a101.44,101.44,0,0,1,7.66-43.91l-3.43-.47c-1.69,13.87-3.45,27.74-5.1,41.62l-1.42,12H593a237.26,237.26,0,0,1,2.21-54c.8-5.08,1.73-10.14,2.93-15.14.5-2.12-2.7-3-3.27-.9a253.57,253.57,0,0,0-8.21,63.77c0,6.11.09,12.24.54,18.32a2,2,0,0,0,1.91,1.92c3.23-.11,6.46-.09,9.68.1s6.42.69,9.63,1a1.77,1.77,0,0,0,1.7-1.3c.88-6.31,2.08-12.53,3.47-18.75s3-12.35,4.07-18.61a.59.59,0,0,0-1.14-.32Z"/><path class="cls-2" d="M1055.41,476.87c5.84,6.65,9.81,14.74,12.6,23.09,1.45,4.36,2.72,8.78,3.91,13.22,1.31,4.87,2.56,9.87,2.48,15a21.59,21.59,0,0,1-4.45,13.25,1.79,1.79,0,0,0,0,2.47,1.77,1.77,0,0,0,2.47,0c7.45-7.49,6.32-19.45,3.69-28.75-2.58-9.14-5.56-18.44-10.25-26.75a38.85,38.85,0,0,0-10-11.91.3.3,0,0,0-.43.43Z"/><path class="cls-4" d="M536.18,534.57a63.74,63.74,0,0,0,9.92,3.11c3.25.87,6.63,1.82,9.34,3.91,6.76,5.23,6.38,14.6,6.18,22.26-.14,5.08-.35,10.16-.39,15.24,0,2.09,3.11,2.06,3.23,0a130.54,130.54,0,0,0-.25-20.55c-.6-6.09-1.2-12.86-4.77-18.06-1.05-1.53-3.51-.15-2.52,1.48,2.91,4.78,3.58,10.49,3.54,16-.05,6.44-1.37,12.91-.67,19.33a1.32,1.32,0,0,0,2.64,0c.2-3.44.41-6.88.67-10.32.24-3.22.49-6.44.47-9.67-.05-5.84-1.08-11.74-4.13-16.81L556.92,542c3.37,5,3.83,11.52,4.33,17.33a109.12,109.12,0,0,1,0,19.8h3.23c.22-4.76.27-9.53.39-14.29s.27-9.31-.73-13.87a19.17,19.17,0,0,0-5.62-10.36,21.71,21.71,0,0,0-9.65-4.52c-4.07-.94-8.28-1.23-12.34-2.26-.45-.11-.78.58-.33.78Z"/><path class="cls-4" d="M598.09,554.44a5.75,5.75,0,0,0,1,.85c.35.26.74.47,1.11.71s.8.5,1.19.75l.53.35.28.21s.35.25.18.12.08.07.1.09l.27.22.53.46c.34.29.67.59,1,.91s.62.64.91,1l.22.27c.06.07.28.34,0,0,.22.27.42.54.66.79a1.79,1.79,0,0,0,2.81-2.17,10.49,10.49,0,0,0-2.11-2.4,14.16,14.16,0,0,0-2.56-1.88,11.63,11.63,0,0,0-2.79-1.25,5.24,5.24,0,0,0-3.08-.15.69.69,0,0,0-.3,1.12Z"/><path class="cls-4" d="M792,762.93a17.08,17.08,0,0,1,2,.35c.85.25,1.7.53,2.56.76a31.91,31.91,0,0,0,5.49.9,34.91,34.91,0,0,0,11.33-1.07l-1.26-3a38.37,38.37,0,0,1-19,3.12v3.13c4,.19,8,.38,12,.22a44.75,44.75,0,0,0,5.66-.51,7.2,7.2,0,0,0,4.34-2,1.59,1.59,0,0,0-2.25-2.25,6.55,6.55,0,0,1-3.4,1.22,52.94,52.94,0,0,1-5.49.41c-3.61.11-7.22,0-10.83-.18-2-.09-2,2.94,0,3.13a40.86,40.86,0,0,0,20.66-3.42c1.71-.77.48-3.48-1.27-3A41.58,41.58,0,0,1,801,762.13a48.84,48.84,0,0,1-5.79-.41c-1.09-.15-2.92-.32-3.28,1a.15.15,0,0,0,.1.19Z"/><path class="cls-4" d="M781.08,755a2.6,2.6,0,0,0,1.72,0c.72-.17,1.43-.36,2.13-.56a32.19,32.19,0,0,0,4.26-1.62,44.94,44.94,0,0,0,7.74-4.49l-1.72-2.22a62.09,62.09,0,0,1-14.45,8.85,1.5,1.5,0,0,0-.53,2,1.52,1.52,0,0,0,2,.53,53.58,53.58,0,0,0,15-9.42,1.42,1.42,0,0,0,0-2,1.45,1.45,0,0,0-2,0,43.9,43.9,0,0,1-7,4.73c-1.21.66-2.46,1.25-3.7,1.85-.67.32-1.34.63-2,.91a2.94,2.94,0,0,0-1.49.95.34.34,0,0,0,.12.46Z"/><path class="cls-4" d="M836.26,631.87c-2.45-.27-5-.58-7.41-.64s-4.93,0-7.38.18a133.31,133.31,0,0,0-14.64,1.67,263.29,263.29,0,0,0-28.7,6.6Q770,642,762.05,644.5c-2.31.73-1.34,4.37,1,3.64A328.21,328.21,0,0,1,819,635.91q8.16-1,16.34-1.65a1.91,1.91,0,0,0,1.86-1.86,1.87,1.87,0,0,0-1.86-1.85c-9.39.43-18.77.93-28.16,1.33v3.59l16.6-2.06a68.5,68.5,0,0,1,8-.86c1.66,0,4.08.59,3.91,2.69l3.67-.5a7.2,7.2,0,0,0-4.14-5.09c-2.36-1.11-5-1.11-7.54-1q-8,.27-16,1.07a213.24,213.24,0,0,0-31.23,5.46q-7.65,1.94-15.13,4.47A38.17,38.17,0,0,0,754,645.21a14,14,0,0,0-5.79,11.2c.09,5.41,3,10.5,5.21,15.31l7.65,17c2.6,5.78,5.12,11.6,8,17.26,1.1,2.17,4.94.63,4-1.69-4-9.89-8.7-19.52-13.14-29.22L756.63,668c-1-2.25-2.15-4.48-3-6.82a13.07,13.07,0,0,1-1-6.67,9.07,9.07,0,0,1,2-4.13c2.31-2.72,5.65-4.45,8.91-5.76a140.29,140.29,0,0,1,13.67-4.54,202.89,202.89,0,0,1,29-6q8.37-1.11,16.83-1.58a45,45,0,0,1,8.29-.18c2,.25,4,1.21,4.38,3.37a1.85,1.85,0,0,0,2,1.34,1.9,1.9,0,0,0,1.62-1.83c.23-2.77-1.94-5.1-4.43-5.94-2.83-1-6-.2-8.88.17l-18.89,2.41a1.86,1.86,0,0,0-1.79,1.8,1.81,1.81,0,0,0,1.79,1.79c9.39-.44,18.77-.79,28.16-1.21v-3.71a329.25,329.25,0,0,0-57.5,9.44q-8,2.06-15.78,4.51l1,3.64c9.36-3,18.66-6.23,28.16-8.83a175,175,0,0,1,28.6-5.49c2.7-.27,5.4-.46,8.11-.55s5.55-.3,8.34-.28c.73,0,.7-1,0-1.12Z"/><path class="cls-4" d="M835,630.49a10.16,10.16,0,0,0,4.06,1.07c1.33.13,1.32-1.95,0-2.08l-2-.2c-1.26-.13-1.41,1.78-.29,2.13a89.51,89.51,0,0,1,17.43,7.78l1.25-3c-5.63-1.24-11.22-2.54-16.77-4.12-2-.56-2.63,2.27-.82,3,3.68,1.46,7.35,2.95,11,4.42l.46-3.37a49.08,49.08,0,0,1-9-1,1.76,1.76,0,0,0-.94,3.4,44.19,44.19,0,0,0,9.33,1.78,1.78,1.78,0,0,0,1.71-1.29,1.87,1.87,0,0,0-.81-2,101.74,101.74,0,0,0-13-8.14l-1.36,3.24a97.31,97.31,0,0,0,37,7.66c2.14,0,2.11-3.2,0-3.31a109.15,109.15,0,0,1-36.07-7.77c-1.86-.76-3.13,2.32-1.37,3.24a101.67,101.67,0,0,1,13,8.13l.89-3.29a40.07,40.07,0,0,1-8.39-1.65l-.94,3.4a47.17,47.17,0,0,0,10,1c2,0,2.21-2.72.45-3.37q-5.55-2-11.11-4.1l-.82,3c5.5,1.66,11.09,3.17,16.73,4.28,1.72.33,3-2.05,1.25-3a73.87,73.87,0,0,0-18.49-7.06l-.29,2.13,2,.11v-2.08a10,10,0,0,0-4.06.83.11.11,0,0,0,0,.18Z"/><path class="cls-4" d="M749.11,660.82c3.34,16.36,8.88,32.27,15.17,47.7q2.69,6.59,5.59,13.07c.63,1.4,3,.41,2.49-1q-7.25-20.49-14-41.16-1.92-5.91-3.79-11.85c-.56-1.77-3.35-1-2.79.77a402.23,402.23,0,0,0,15.82,43c.63,1.41,3.1.4,2.53-1.07-5.5-14.13-11-28.23-15.56-42.69l-2.79.77q6.61,20.7,13.76,41.22,2.05,5.88,4.15,11.74l2.49-1q-5.13-11.31-9.61-22.88c-3-7.73-5.7-15.53-8.51-23.31-1.59-4.42-3.06-8.88-4.62-13.31a.2.2,0,0,0-.38.1Z"/><path class="cls-4" d="M966.17,763.11c1.21,1.3,3.21,2,4.81,2.66a40.32,40.32,0,0,0,5.58,1.8c3.29.86,7.3,1.81,10.4-.1a1.62,1.62,0,0,0-.38-2.93q-4.74-1-9.5-2l-4.76-1c-1.23-.26-2.63-.65-3.75.13a2.32,2.32,0,0,0-.58,3.24c.8,1.21,2.26,1.55,3.58,1.78a36.36,36.36,0,0,0,9.37.54c1.91-.15,1.91-3.16,0-3a33.54,33.54,0,0,1-6.94-.06,10.74,10.74,0,0,1-3.09-.62c-.07,0-.37-.28-.43-.27s-.28.92-.27.93a6.25,6.25,0,0,0,1.49.31c4.67,1.06,9.34,2.11,14,3.1l-.39-2.92a5.91,5.91,0,0,1-4,.62,48.77,48.77,0,0,1-4.92-.88c-1.67-.36-3.33-.78-5-1.17a19.76,19.76,0,0,0-5-1,.49.49,0,0,0-.34.83Z"/><path class="cls-4" d="M1035,769.52c.3.39.51.81,1.06.87a3.34,3.34,0,0,0,1.79-.5,14.74,14.74,0,0,0,3.09-2.42,26.67,26.67,0,0,0,4.93-6.31,1.3,1.3,0,0,0-2.25-1.31L1035.85,770a1.34,1.34,0,0,0,.48,1.83,1.36,1.36,0,0,0,1.82-.48l7.68-10.2-2.25-1.31a33.31,33.31,0,0,1-3.74,5.45c-.72.84-1.48,1.62-2.27,2.38a9.11,9.11,0,0,1-1.14,1.1,4,4,0,0,1-.58.31c-.21.1-.45.37-.7.24s-.28.07-.19.19Z"/><path class="cls-14" d="M1073,549.83a178.71,178.71,0,0,1,10.52,28.44,158,158,0,0,1,5.55,29.56c.25,2.8.42,5.61.51,8.41,0,1.47.08,2.93.09,4.4a16.07,16.07,0,0,0,.26,4.49,1.72,1.72,0,0,0,3.28,0,12,12,0,0,0,.26-4c0-1.29-.07-2.57-.13-3.86q-.19-3.87-.57-7.72c-.5-5.16-1.25-10.3-2.26-15.39a138.09,138.09,0,0,0-9-29.3,154.39,154.39,0,0,0-8-15.38.32.32,0,0,0-.55.32Z"/><path class="cls-14" d="M1041.08,633.26c7,.79,14.1.25,21.09-.24,6.23-.44,12.53-.82,18.61-2.31a38.57,38.57,0,0,0,9.79-3.78,1.88,1.88,0,0,0,.77-2.34,1.91,1.91,0,0,0-2.21-1.08c-11.62,1.75-23.36,2.85-35.08,3.61-2.38.15-2.41,3.84,0,3.73a94.67,94.67,0,0,0,21.54-3.48c2.32-.67,1.35-4.15-1-3.62a89.22,89.22,0,0,1-19.41,2.21c-2.81,0-5.78-.32-8.51.52a9.32,9.32,0,0,0-3.56,2.07c-.64.58-1.37,1.62-2.3,1.56v3.66a159.77,159.77,0,0,0,24.51-3.72c2.35-.57,1.36-4.18-1-3.63a149.24,149.24,0,0,1-23.5,3.69,1.83,1.83,0,0,0,0,3.66c2.89.22,4-2.63,6.44-3.54,2.56-1,5.63-.48,8.3-.51a93.86,93.86,0,0,0,20-2.35l-1-3.62a89.94,89.94,0,0,1-20.54,3.37v3.73c11.91-.78,23.75-2.1,35.58-3.66l-1-3.49c-5.2,2.78-11.06,4-16.89,4.71-6.41.73-12.87,1.08-19.3,1.66A72,72,0,0,0,1040.9,632c-.76.2-.52,1.2.18,1.28Z"/><path class="cls-14" d="M1045.16,569c.72-.32,1.57.4,2.07.85.77.72,1.52,1.47,2.29,2.19,1.55,1.46,3.07,2.94,4.59,4.42,3.06,3,5.94,6.12,8.94,9.14,1.07,1.07,3.47.73,3.71-1,.87-6.12,1.65-12.25,2.44-18.38h-4.71a42.73,42.73,0,0,1-1.16,9.82l4-1A90.73,90.73,0,0,0,1052,560a2.39,2.39,0,0,0-3.08-.18,2.34,2.34,0,0,0-.61,3,148.38,148.38,0,0,0,10.12,14.61l3.33-3.33q-6.12-6.23-12.26-12.43c-1.89-1.91-5.29.58-3.78,2.92A87.72,87.72,0,0,0,1061.53,583a2.57,2.57,0,0,0,3.34.2,2.54,2.54,0,0,0,.66-3.29,68.71,68.71,0,0,0-13.2-14,2.61,2.61,0,0,0-4.32,2.52c.37,2.1,1.79,3.77,3.14,5.34s2.78,3.07,4.27,4.5,2.92,2.76,4.47,4c1.88,1.54,4,2.74,6.54,2a2.7,2.7,0,0,0,1.87-3.29l-5.52-15.61-4.92,2.07,6.69,14.36a2.71,2.71,0,0,0,5-2.09L1065,565.88l-5.29,1.46,3,7.89c.5,1.31,1,2.64,1.5,3.94.63,1.58,1.81,3.07,3.7,2.94a2.83,2.83,0,0,0,2.78-2.77l.29-9.72-5.5.74q2.07,7.62,4.11,15.24a2.85,2.85,0,1,0,5.5-1.51q-2.1-7.61-4.21-15.22c-.85-3.07-5.42-2.4-5.5.75l-.24,9.72,2.77-2.78.3,0,1.22.71c-.19-.16-.14-.22-.05,0s-.14-.4-.17-.48l-.55-1.43-1.24-3.22-2.42-6.27a2.82,2.82,0,0,0-3.37-1.92,2.78,2.78,0,0,0-1.92,3.38l4.58,13.9,5-2.09q-3.37-7.17-6.72-14.35c-1.28-2.74-5.94-.8-4.92,2.08l5.55,15.6,1.87-3.29c-.33.11-.4.13-.21,0s.13,0-.21-.09l-.54-.3a15,15,0,0,1-1.66-1.25c-1.32-1.1-2.58-2.26-3.81-3.46s-2.32-2.36-3.41-3.6a7.4,7.4,0,0,1-2.17-3.46l-4.32,2.52a69.78,69.78,0,0,1,12.45,12.9l4-3.09a76.39,76.39,0,0,1-15.25-17.23l-3.79,2.92q6.17,6.18,12.34,12.35a2.39,2.39,0,0,0,3.33,0,2.42,2.42,0,0,0,0-3.33,125.07,125.07,0,0,1-9.39-13.65l-3.69,2.85A95,95,0,0,1,1064,578.38c1.13,1.39,3.61.59,4-1.06a48.68,48.68,0,0,0,1.26-11.09,2.36,2.36,0,1,0-4.71,0c-.72,5.93-1.45,11.85-2.09,17.79l3.79-1.57c-3.46-3.42-7.09-6.71-10.77-9.88a55.68,55.68,0,0,0-5.65-4.41c-1.61-1.07-3.84-2.19-5.65-.95a1,1,0,0,0,1,1.78Z"/><path class="cls-14" d="M1073.1,549.27c.64.86,1.06,1.83,1.61,2.74s1.25,2,1.8,3c1,2,2.14,3.94,3.12,6a93.22,93.22,0,0,1,9.86,37.77,105.66,105.66,0,0,1-.39,15c-.16,1.76,2.77,2.16,3.11.42,3.52-18.18-.38-37.16-9.36-53.21a48.37,48.37,0,0,0-4.19-6.38c-.75-.95-1.5-1.91-2.26-2.85s-1.84-1.89-2.68-2.91c-.28-.35-.89.11-.62.47Z"/><path class="cls-16" d="M557.87,642.25a102.58,102.58,0,0,0,16,3.82c4.62.79,9.28,1.5,13.81,2.73a34.12,34.12,0,0,1,11.86,5.39c4,3.07,6.73,7.49,9.14,11.86,3.29,5.94,6.4,12,9.75,17.88.55,1,2,.11,1.49-.87-2.88-5.55-5.94-11-8.94-16.51-2.45-4.49-5-9.11-8.86-12.61-7-6.39-16.62-7.84-25.59-9.21-6.17-1-12.31-1.87-18.41-3.22a.38.38,0,0,0-.2.74Z"/><path class="cls-16" d="M593,701.34c2.36,4.89,5.62,9.35,8.73,13.79A145.74,145.74,0,0,0,611.48,728c.59.68,1.78-.22,1.26-1-3.09-4.48-6.52-8.75-9.74-13.13s-6.11-8.86-9.64-12.9c-.19-.22-.5.06-.38.3Z"/><path class="cls-17" d="M1051,558.37a7.8,7.8,0,0,1-3,2.77,7.35,7.35,0,0,0-2.56,1.92c-1.61,2.22-.08,5,1.35,6.89,2.12,2.79,4.57,5.38,6.87,8,1.14,1.32,2.24,2.71,3.45,4a2.23,2.23,0,0,0,3.29.27c3.18-2.56,6.19-5.44,9.11-8.28.65-.63-.31-1.55-1-1-1.56,1.33-3.08,2.7-4.6,4.08s-2.86,2.94-4.46,4.12c-.69.51-1.1.12-1.59-.4s-.68-.76-1-1.13l-1.78-2c-1.36-1.51-2.71-3-4.07-4.53s-2.76-2.84-3.94-4.41c-1-1.29-2-3.08-1.21-4.71.61-1.31,2.14-1.87,3.29-2.61a5,5,0,0,0,2.15-2.85c.08-.21-.23-.32-.34-.15Z"/><path class="cls-17" d="M1080.59,582.22c-3.29,4.68-6.29,9.61-9.28,14.49-.26.42.39.79.65.38,3.08-4.82,6.19-9.67,9-14.68a.19.19,0,0,0-.33-.19Z"/><path class="cls-17" d="M1083.61,595.36c-1.69,1.9-3.33,3.84-5.12,5.65a76,76,0,0,1-5.64,5.13c-.46.37.19,1,.64.64a55.14,55.14,0,0,0,5.75-5.16,40.8,40.8,0,0,0,4.87-5.87c.2-.3-.26-.66-.5-.39Z"/><path class="cls-18" d="M501,569.83a9.59,9.59,0,0,0-.53,3.25c-.12,1.26-.27,2.52-.41,3.78-.26,2.5-.6,5-1,7.47s-1,4.74-1.3,7.14c-.12,1.09-.62,4.8,1.57,4.22a.85.85,0,0,0,.62-.81v-.12a.87.87,0,0,0-1.09-.84,36.6,36.6,0,0,0-4.69,2.23,11.76,11.76,0,0,0-3.95,3c-.34.45.22,1.1.72.94a21.53,21.53,0,0,0,4.18-2.29c1.43-.84,2.92-1.54,4.4-2.27l-1.27-.52,0,.11.39-1-.08.05.64-.09c.16,0,.1-1,.11-1.13a14.87,14.87,0,0,1,.18-1.65c.16-1.07.41-2.11.64-3.17.43-2,.77-4.1,1.06-6.17s.54-3.91.67-5.88c.07-1.07.11-2.15.14-3.22a7.31,7.31,0,0,0-.22-2.95c-.12-.31-.6-.47-.78-.11Z"/><path class="cls-18" d="M498.29,596a7.37,7.37,0,0,0-1.94,3.37,9.5,9.5,0,0,0-.36,3.93.69.69,0,0,0,.68.68.67.67,0,0,0,.68-.68,12,12,0,0,1,.25-3.58,11.09,11.09,0,0,1,.51-1.7c.12-.28.25-.56.39-.83a7,7,0,0,0,.35-.86c.12-.34-.33-.52-.56-.33Z"/><path class="cls-18" d="M498.72,597.22c3.17,1.16,6.66,1.3,10,1.81s6.86,1.13,10.26,1.81a165.43,165.43,0,0,1,20,5.35q1.4.46,2.76,1c.25.09.82.21,1,.46s0,.7,0,.93a39.65,39.65,0,0,0-.38,6.05,1.08,1.08,0,0,0,2.12.28,34.76,34.76,0,0,0,.6-5.6c.15-1.64.18-3.16-1.49-4a36.94,36.94,0,0,0-4.94-1.82q-2.68-.91-5.4-1.74A130.6,130.6,0,0,0,511.19,597c-4-.5-8.45-1.3-12.47-.4-.36.08-.3.56,0,.67Z"/><path class="cls-18" d="M552.11,557.23a15.57,15.57,0,0,0,.22,2.89c.09,1,.19,1.93.25,2.9.12,1.93.14,3.88.09,5.82-.09,3.86-.47,7.69-.84,11.53s-.8,7.72-1.08,11.58a52.41,52.41,0,0,0,0,11.61c.15,1,1.6.67,1.64-.22.09-2,0-3.92,0-5.88s.13-3.92.27-5.88c.26-3.92.67-7.84,1-11.76a114.49,114.49,0,0,0,.45-11.71c0-1.94-.14-3.89-.35-5.82a16.2,16.2,0,0,0-1-5.22c-.15-.31-.57-.13-.59.16Z"/><path class="cls-18" d="M487.42,614.73a55.23,55.23,0,0,0,9.42,2.26,68.94,68.94,0,0,0,9.52.91.9.9,0,0,0,0-1.79,67.36,67.36,0,0,1-9.62-.8c-3.06-.46-6.14-1-9.23-1.24-.4,0-.43.54-.09.66Z"/><path class="cls-18" d="M541,605.33a4.37,4.37,0,0,0-.83,2c-.17.74-.31,1.5-.43,2.25a41.59,41.59,0,0,0-.58,4.7c-.06,1.15,1.76,1.16,1.79,0,.05-1.5.08-3,.19-4.51,0-.73.12-1.47.2-2.2a4.82,4.82,0,0,0-.06-2.14.17.17,0,0,0-.28-.08Z"/><path class="cls-18" d="M599,554.29a9.2,9.2,0,0,0,1.15.72,11.18,11.18,0,0,1,1.07.49,22.24,22.24,0,0,1,2.28,1.29l.52.37.13.09.18.14c.33.27.66.53,1,.82.67.6,1.26,1.27,1.87,1.93a1.62,1.62,0,0,0,2.12.13,1.59,1.59,0,0,0,.41-2.08,14.19,14.19,0,0,0-7.52-5c-.46-.11-.92-.2-1.39-.27a1.77,1.77,0,0,0-1,.06c-.15,0-.16.06,0,0l-.21,0-.38.06c-.58.09-.61.93-.16,1.19Z"/><path class="cls-18" d="M594.29,556.84a14.19,14.19,0,0,0,2.13,1.72c.78.6,1.5,1.28,2.24,1.93a24.67,24.67,0,0,1,3.73,4.3,1.58,1.58,0,0,0,2.68,0,19.26,19.26,0,0,1,4.11-3.9,1.39,1.39,0,0,0,.55-1.69,1.33,1.33,0,0,0-1.6-.78,13.6,13.6,0,0,0-5.74,4.8h2.68a20,20,0,0,0-4.75-4.7,14.08,14.08,0,0,0-2.73-1.47,7,7,0,0,0-3.07-.78.34.34,0,0,0-.23.57Z"/><path class="cls-18" d="M589.1,781.88c7.87.73,15.75,1,23.65,1.13l11.63.15,5.82.07c2,0,4.15.19,6.2,0a1,1,0,0,0,0-2c-2-.23-4.15-.15-6.2-.2l-5.82-.14-11.63-.29c-7.89-.19-15.77-.19-23.65.25a.52.52,0,0,0,0,1Z"/><path class="cls-18" d="M646,782.72c3.34.25,6.7.22,10,.29s6.7.09,10.05.11c6.76,0,13.52,0,20.28,0l5.6,0a16.9,16.9,0,0,0,5.59-.5.66.66,0,0,0,0-1.26,15,15,0,0,0-4.81-.44l-5,0c-3.34,0-6.69,0-10,.05-6.76.1-13.53.12-20.28.32-3.8.12-7.62.12-11.4.44a.5.5,0,0,0,0,1Z"/><path class="cls-18" d="M668.29,767.17a17.31,17.31,0,0,1,2.75-4.7,25.39,25.39,0,0,1,1.89-2,8.13,8.13,0,0,0,2-2.16.83.83,0,0,0-.93-1.2,5.11,5.11,0,0,0-2.63,1.82,17.19,17.19,0,0,0-1.93,2.4,22.84,22.84,0,0,0-2.73,5.4.81.81,0,0,0,.57,1,.82.82,0,0,0,1-.56Z"/><path class="cls-18" d="M670.07,769.59a58.56,58.56,0,0,1,7.64-8.41c.86-.76-.44-2.07-1.27-1.27a32.94,32.94,0,0,0-6.92,9.36.32.32,0,0,0,.55.32Z"/><path class="cls-18" d="M676.17,770.5a23.49,23.49,0,0,1,2.3-3.9,34.69,34.69,0,0,1,2.95-3.34.93.93,0,0,0,0-1.29.92.92,0,0,0-1.29,0,14.28,14.28,0,0,0-3,3.75,18.86,18.86,0,0,0-1.88,4.38c-.16.55.7.95.95.4Z"/><path class="cls-18" d="M612.91,769.4l2-3.81,1-1.87a14.33,14.33,0,0,0,1-2.06.92.92,0,0,0-.54-1.09.93.93,0,0,0-1.16.38,13.83,13.83,0,0,0-.91,1.9l-.86,1.93-1.72,3.85a.78.78,0,0,0,.27,1,.77.77,0,0,0,1-.27Z"/><path class="cls-18" d="M617.08,771a19.31,19.31,0,0,1,2.17-3.73,36.42,36.42,0,0,1,2.79-3.16.91.91,0,1,0-1.29-1.29,13.72,13.72,0,0,0-2.91,3.56,20.13,20.13,0,0,0-1.87,4.15c-.2.64.83,1.11,1.11.47Z"/><path class="cls-18" d="M620,772.27a60.47,60.47,0,0,1,6.86-7.27,1,1,0,0,0-1.48-1.48,62.25,62.25,0,0,0-6.67,7.75c-.54.75.71,1.72,1.29,1Z"/><path class="cls-18" d="M836.3,639.61c-8.63,2.09-17.3,4.2-25.52,7.62a52.26,52.26,0,0,0-10.93,5.8,20.12,20.12,0,0,0-6.92,8.72,28.4,28.4,0,0,0-1.69,6.53,32.27,32.27,0,0,0-.66,6.78c.09,1.19,2,1.65,2.24.3.32-1.91.16-3.9.29-5.84a31,31,0,0,1,.91-5.65,17.37,17.37,0,0,1,6.2-9.33,47.5,47.5,0,0,1,10.39-5.87,108.06,108.06,0,0,1,12.1-4.43c4.57-1.4,9.2-2.59,13.83-3.78a.44.44,0,0,0-.24-.85Z"/><path class="cls-18" d="M791.73,694a25.72,25.72,0,0,0-.16,5.48c0,1.87.1,3.75.14,5.62.09,3.81.16,7.63.25,11.44.18,7.56.41,15.13.47,22.69,0,4.34,0,8.67.13,13a.47.47,0,0,0,.94,0c.38-7.61.08-15.27,0-22.89s-.2-15.13-.53-22.69q-.13-3.2-.3-6.4a28.4,28.4,0,0,0-.64-6.25.18.18,0,0,0-.35,0Z"/><path class="cls-18" d="M773.75,672.05a45.94,45.94,0,0,0,6,4.19c2.06,1.24,4.37,2.58,6.85,1.86a1.2,1.2,0,0,0-.64-2.32c-2,.53-4-.68-5.7-1.53-2-1-3.84-2.1-5.74-3.18-.6-.34-1.31.5-.76,1Z"/><path class="cls-18" d="M772.82,679.11a14.37,14.37,0,0,0,6.54,2,13.36,13.36,0,0,0,6.82-1.27c1-.46.28-2.11-.72-1.73a16.44,16.44,0,0,1-12.24.06c-.55-.23-.88.65-.4.94Z"/><path class="cls-18" d="M816.15,687.18s.1.19.09.14,0,.07,0,.08a1,1,0,0,0,.13.5,2.8,2.8,0,0,0,.64.69,12.34,12.34,0,0,0,1.5,1.07,10.3,10.3,0,0,0,3.37,1.32,1.14,1.14,0,0,0,1.41-.93,1.07,1.07,0,0,0-.23-.84,1.18,1.18,0,0,0-.88-.44l-.18,0-.38-.08c-.27,0-.53-.1-.8-.17a10.18,10.18,0,0,1-1.51-.48l0,0-.17-.07-.35-.17c-.23-.11-.46-.24-.68-.36s-.47-.28-.72-.4a1.06,1.06,0,0,0-.5-.12.67.67,0,0,1-.34,0,.26.26,0,0,0-.35.35Z"/><path class="cls-18" d="M814.19,690.75a14.22,14.22,0,0,0,1.6,1,10.13,10.13,0,0,0,1.78.7,9.16,9.16,0,0,0,3.82.38.92.92,0,0,0,.89-.89.9.9,0,0,0-.89-.88c-.59,0-1.19,0-1.79,0A9.83,9.83,0,0,1,818,691a12.55,12.55,0,0,1-1.68-.43,8.47,8.47,0,0,1-1.62-.66c-.55-.33-1,.49-.49.84Z"/><path class="cls-18" d="M792.5,748.78a47.76,47.76,0,0,0-1.08,9.17c-.2,3.18-.27,6.37-.3,9.55a.79.79,0,0,0,.78.78c4.71-.39,9.42-.74,14.15-.87a34.26,34.26,0,0,0,6.56-.47c1.51-.34,3.17-1.47,2.95-3.22-.17-1.28-2.19-1.34-2.07,0s-3.27,1.29-4,1.33c-2,.11-3.94.2-5.91.35-4,.31-7.92.73-11.86,1.35l1,.75c-.07-3.12-.06-6.24,0-9.36a85.59,85.59,0,0,0,0-9.34.07.07,0,0,0-.14,0Z"/><path class="cls-18" d="M780.28,757.7A66.2,66.2,0,0,0,792.62,752a1,1,0,0,0-1-1.7c-3.89,2.2-7.72,4.52-11.8,6.37-.59.27-.16,1.28.45,1.06Z"/><path class="cls-18" d="M977.39,681.63c2.59,6.58,5.74,12.92,8.87,19.27s6.3,12.9,9.87,19.09c.48.84,1.7.1,1.29-.75-3.1-6.38-6.53-12.62-9.78-18.93s-6.33-12.69-9.83-18.86c-.13-.22-.51-.07-.42.18Z"/><path class="cls-18" d="M1043.91,749.56c-2.79,2.34-5.34,5-8.09,7.34a84,84,0,0,1-8.65,6.75,1.23,1.23,0,0,0-.43,1.64,25.37,25.37,0,0,0,4.81,7.1c1,1,2.09,2.27,3.63,2.1s2.47-1.66,3.41-2.61c2.26-2.32,4.48-4.69,6.71-7l3.43-3.57c1-1,1.93-2.09,1.57-3.59s-1.7-3-2.57-4.32c-1-1.51-1.9-3.4-3.28-4.59-1-.82-2.76-.06-2.28,1.33a13.21,13.21,0,0,0,1.92,3.2l2.15,3.1c.34.49.71,1,1,1.48s.29.4,0,.74a30.84,30.84,0,0,1-2.56,2.68l-5.17,5.34-2.66,2.73c-.44.46-.87.93-1.3,1.39s-.66.9-1.11,1h.76c-.8-.12-1.44-1-2-1.54s-1.12-1.21-1.64-1.86a34.52,34.52,0,0,1-2.82-4.26l-.18,1.46c2.9-2.38,5.8-4.73,8.52-7.32a50.54,50.54,0,0,0,7.33-8.21c.25-.37-.27-.7-.57-.45Z"/><path class="cls-18" d="M966.77,751.2c-.81,3.15-1.79,6.33-2.33,9.54a4.48,4.48,0,0,0,.7,3.78c1,1.08,2.59,1.46,3.9,1.89a55.38,55.38,0,0,0,9.85,2.1,43.78,43.78,0,0,0,5,.4c1.5,0,3.72,0,4.54-1.45a1.47,1.47,0,0,0-.87-2.14,4.4,4.4,0,0,0-2.1.18,9.39,9.39,0,0,1-1.91.06c-1.35,0-2.7-.17-4-.29a65.51,65.51,0,0,1-8.58-1.38,13.5,13.5,0,0,1-3.79-1c-.93-.56-.6-2-.49-2.9q.52-4.34,1-8.68c0-.48-.72-.56-.83-.11Z"/><path class="cls-18" d="M967.11,751a16.87,16.87,0,0,0,4.5,1c1.48.2,2.95.37,4.44.48a74.9,74.9,0,0,0,9.59.21c.67,0,3.08-.59,3.44.14.21.43-.09,1.41-.16,1.84-.13.77-.28,1.54-.44,2.31a67.44,67.44,0,0,1-2.49,8.7c-.57,1.59,1.93,2.25,2.52.69a53.94,53.94,0,0,0,2.65-9.78c.24-1.37.69-3,.32-4.42a3.18,3.18,0,0,0-3.21-2.23c-1.69-.08-3.43.1-5.12.16s-3.58.12-5.37.15-3.58,0-5.37,0a26.09,26.09,0,0,0-5.23.22.27.27,0,0,0-.07.49Z"/><path class="cls-6" d="M833.91,541.6a14.83,14.83,0,0,0-.54,4.46c-.09,1.67-.13,3.34-.16,5q-.08,4.81-.08,9.64c0,6.48.17,13,.42,19.45.15,3.73.33,7.45.7,11.16a.38.38,0,0,0,.76,0c0-6.48-.37-13-.48-19.44s-.14-13-.08-19.46c0-1.86.07-3.72,0-5.59,0-1.69.21-3.6-.32-5.23a.14.14,0,0,0-.27,0Z"/><path class="cls-6" d="M889,541.91c.4,3.24.85,6.48,1.31,9.71l.36,2.48a2.39,2.39,0,0,0,.55,1.55,3.34,3.34,0,0,0,1.85.54c.79.12,1.58.18,2.38.25,3.35.26,6.7.53,10.05.7l5,.25a24.52,24.52,0,0,0,4.92,0c1.06-.17,1-1.82,0-2a23.7,23.7,0,0,0-4.54-.33l-4.64-.21-9.08-.4a28.7,28.7,0,0,0-4.44-.14c-.35-.1-.47-.08-.35.08s.07.08,0-.15a7.15,7.15,0,0,1-.2-1.14l-.39-2.27c-.54-3-1.08-6-1.67-9-.12-.63-1.22-.5-1.13.15Z"/><rect class="cls-4" x="134.2" y="680.38" width="117.5" height="113.41" transform="translate(385.89 1474.17) rotate(180)"/><path class="cls-13" d="M235.2,544.51s14.43,5.35,16.5,27.81,7.21,32.1,7.21,32.1l-11.85,19.49L232.11,587.3Z"/><path class="cls-4" d="M209.44,538.09H183.67s6.18,81.31,5.15,85.59-5.15,26.75-5.15,26.75h62.87s-7.21-41.73,2.06-61c5.26-10.91-13.14-44.63-13.14-44.63Z"/><polygon class="cls-19" points="299.11 624.75 287.77 618.33 200.16 645.08 237.27 651.5 299.11 624.75"/><path class="cls-13" d="M186.76,538.09c-14.43-3.21-24.73,39.58-14.43,72.75,8.82,28.36,7.22,17.12,33,20.33,13.35,1.66,35.05,4.28,35.05,4.28l4.12-9.63s-40.2-19.26-53.6-16.05c0,0,1-34.24,3.1-49.21C194.76,554.85,193.89,539.67,186.76,538.09Z"/><polygon class="cls-19" points="302.2 633.31 314.57 589.45 247.57 602.28 237.19 651.95 302.2 633.31"/><path class="cls-2" d="M183.67,650.43s-3.09,21.39,6.18,30,54.63,8.56,66,8.56,23.7-4.28,23.7-4.28L262,772.39h21.65s37.1-92,37.1-112.34-100.49-9.62-100.49-9.62Z"/><path class="cls-2" d="M289.62,633.7s16.5-7,22.13.22c2.3,3,33.74,98.89,33.74,98.89L330,742.44S294,661.12,275.4,655.78s-27.12-7.4-27.12-7.4Z"/><polygon class="cls-13" points="213.73 519.83 210.47 538.09 223.87 566.98 229 522.24 213.73 519.83"/><path class="cls-13" d="M207.38,490.46A38.59,38.59,0,0,0,194.6,513c-2.32,14.34,4.14,24.59,15.37,21s27.64-14,28-25.76S223.14,480.91,207.38,490.46Z"/><path class="cls-10" d="M227.66,512.51s.18,9.32-.36,13.71-2.32,15.31-7.14,24.95c-2.61,5.22-7.09,11.63-7.86,16.41s6.85,7.87,12.4,8,10.33,5.13,19.24-2.89,4.78-24.17,4.39-31.17-5.17-17.61-2.46-25-1.61-21-8.84-26.51-16.86-3.39-16.86-3.39-5.43-4.11-12.4,1.35-7.36,7.84-7.36,7.84l5-2.89Z"/><ellipse class="cls-13" cx="227.79" cy="517.98" rx="7.49" ry="7.94" transform="translate(-322.71 387.06) rotate(-52.88)"/><path class="cls-2" d="M194.63,511.62l4.92,1.64a2.43,2.43,0,0,0,2.88-1c.59-1,1.2-2.13,1.7-3.11l3.56,1.19c-.08.84-.16,1.8-.18,2.68a3.08,3.08,0,0,0,2.13,3l4.52,1.51a3.1,3.1,0,0,0,3.69-1.27c1.08-1.81,2.16-4.18,2.17-4.21l0,0a2.1,2.1,0,0,0-1.39-2.52l-8.18-2.73A1.93,1.93,0,0,0,208,508V508c0,.05-.09.64-.19,1.48l-3.28-1.09c.38-.78.62-1.33.63-1.34l0-.05a2.09,2.09,0,0,0-1.39-2.52l-8.18-2.73a2,2,0,0,0-1.33,0,1.82,1.82,0,0,0-1.16,1.22v.05s-.07.45-.15,1.11c-.14,1.13-.34,2.93-.4,4.5A3,3,0,0,0,194.63,511.62Zm15.61-4.08,8.18,2.73a1.2,1.2,0,0,1,.8,1.42c-.12.27-1.12,2.43-2.12,4.1a2.26,2.26,0,0,1-2.71.93l-4.51-1.5a2.21,2.21,0,0,1-1.52-2.11c0-2,.41-4.58.45-4.89A1.11,1.11,0,0,1,210.24,507.54Zm-14.89-5,8.17,2.72a1.21,1.21,0,0,1,.81,1.43c-.14.3-1.43,3.11-2.64,5.09a1.6,1.6,0,0,1-1.91.64l-4.92-1.64a2.12,2.12,0,0,1-1.47-2.07c.09-2.32.49-5.17.53-5.49A1.1,1.1,0,0,1,195.35,502.58Z"/><path class="cls-20" d="M8.76,449.38l0,0,0,0Z"/><path class="cls-4" d="M69.92,447.62a2.6,2.6,0,0,0-.89-1.95c-1.49-5.35-2.87-11.21-2.87-11.21-1.59-6.43-3.83-4.83-12.56-4.83s-15.74,9.24-16,15.33c0,1.15,0,2.38,0,3.67l-.67-.09-.1.78.82.1c0,.4.05.8.08,1.21a6.13,6.13,0,0,0-1.67-.24,6,6,0,0,0-5.37,3.34c-4.4-10.65-7.28-23.91,1.58-30.4,16.15-11.84,32.67-4.34,37.31.53s.77,16.77.77,23.85a21.78,21.78,0,0,1-.11,2.18c-.12-.38-.24-.78-.36-1.18Z"/><path class="cls-21" d="M57.41,498.41c.42,1.44-1.08-.49-1.61.81-1.11,2.7-3.43-10-6.3-9.94-3.79.1-8.6-2.44-11.24-5.91a10.34,10.34,0,0,1-1.46-2.57,6.84,6.84,0,0,1-.35-4.07c0-.51-.06-1-.05-1.54,0-2,.33-4,.25-5.92-.06-1.3-.1-2.62-.17-3.93,0-1.07-.13-2.13-.24-3.19H36.1a6,6,0,0,1-1.48-.19,5.84,5.84,0,0,1-3.89-8.24,6,6,0,0,1,5.37-3.34,6.13,6.13,0,0,1,1.67.24c0-.41-.06-.81-.08-1.21l7.33.93v1.71a2.65,2.65,0,0,0,2.66,2.63h4.87a2.65,2.65,0,0,0,2.66-2.63v-1.61h4.51v1.17a2.65,2.65,0,0,0,2.66,2.63h4.87a2.65,2.65,0,0,0,2.67-2.63v-2.91c.12.4.24.8.36,1.18a32.26,32.26,0,0,0,1.2,3.27c1.91,4.2.43,15.12-5.32,18.27A21.46,21.46,0,0,1,56.69,474l.09,1.07.41,4.58C57.16,480,57.5,498.11,57.41,498.41ZM40.1,460.63l0,0,0,0Z"/><path class="cls-21" d="M69.12,428.25s5.63,21.69,4,28.12S69.93,473.24,63.5,474s-22.5-4-24.91-6.43-4.82-22.49-3.21-28.11,12.85-16.07,23.3-13.66Z"/><path class="cls-14" d="M11.28,767.28V795.4H70.73s-.8-20.89-9.64-21.7-29.73-4-29.73-4Z"/><path class="cls-14" d="M53.86,761.65S80.37,764.87,86,773.7a34.56,34.56,0,0,1,5.63,16.88H29.76L33,752Z"/><polygon class="cls-12" points="49.04 604.99 36.99 772.1 6.46 772.1 4.85 584.11 60.28 588.12 61.09 764.06 36.99 761.65 49.04 604.99"/><path class="cls-2" d="M36.18,474.84S19.31,482.08,11.28,503s-8.84,91.59-8.84,91.59H65.91V552l-4-53.65Z"/><path class="cls-2" d="M98,512.33l.34-.61c.82-.61,1.88-1.59,1.26-2.29l5.86-10.62h14.25l-3.78,7.5-5.55,11C107.59,513.91,100,512.61,98,512.33Z"/><path class="cls-2" d="M93.15,520.58c5.19-.21,12.36-.11,15.84-1l-.78,1.55-4.76.2-10.93.44Z"/><path class="cls-21" d="M93.15,521.16a19.51,19.51,0,0,0-5.58.71C84,523.54,59,549.34,41.86,550.08c-6,.26-9.62-1.57-11.49-4.19l-10.56-17c1-1.75,1.93-3.5,3-5.22a90.22,90.22,0,0,1,5.95-8.95A55.07,55.07,0,0,1,33,510.39L44.5,528.26c17.59-4.73,51.06-20,53.81-19.43a2.41,2.41,0,0,1,1.32.6c.62.7-.44,1.68-1.26,2.29-.45.32-.82.54-.82.54l.48.07c2,.28,9.56,1.58,12.38,5a5.9,5.9,0,0,1,.43.59c.66,1.08-.17,1.77-1.85,2.21C105.51,521.05,98.34,521,93.15,521.16Z"/><path class="cls-12" d="M264.68,772.39l-4.35,21.4,52.26,1.39a4.25,4.25,0,0,0,3.57-6.74c-4-5.42-10.19-12.18-17.27-13.13-12.05-1.61-21.22-3.17-21.22-3.17Z"/><path class="cls-12" d="M330.22,742.37l10.45,19.28,46.12-28.73a2.9,2.9,0,0,0-.61-5.43c-5.51-1.32-13.15-2.79-19.8-2.79C354.33,724.7,330.22,742.37,330.22,742.37Z"/><path class="cls-11" d="M339.12,468H259.5c-4.7,0-8.55,2.93-8.55,6.51v21.18a6.24,6.24,0,0,0,3.61,5.31,10.49,10.49,0,0,0,4.94,1.21h.06v12.47l5.91-8.65,2.13-3.13.48-.69h71c4.71,0,8.56-2.94,8.56-6.52V474.48C347.68,470.9,343.83,468,339.12,468Z"/><path class="cls-17" d="M37.84,778a23.78,23.78,0,0,1,4.6-6.43A1.17,1.17,0,0,0,40.79,770a25.51,25.51,0,0,0-5,6.91c-.66,1.34,1.35,2.53,2,1.17Z"/><path class="cls-17" d="M42.4,780.22a28.38,28.38,0,0,1,5.36-7.62c1.06-1.07-.59-2.73-1.65-1.65A30.63,30.63,0,0,0,40.38,779c-.65,1.35,1.36,2.53,2,1.18Z"/><path class="cls-17" d="M48.19,781.9a28.36,28.36,0,0,1,3.5-6.39c.88-1.22-1.15-2.39-2-1.18a31.24,31.24,0,0,0-3.73,6.95c-.54,1.4,1.72,2,2.25.62Z"/><path class="cls-17" d="M61.14,768.44l3.72-4.55c.94-1.16-.7-2.82-1.65-1.65l-3.72,4.55c-.94,1.15.7,2.81,1.65,1.65Z"/><path class="cls-17" d="M65.87,770.77a28,28,0,0,1,5.54-5.86c1.17-.93-.49-2.58-1.65-1.65a30.1,30.1,0,0,0-5.91,6.33c-.86,1.24,1.16,2.41,2,1.18Z"/><path class="cls-17" d="M68.32,772.66l4.25-4.42c1-1.08-.61-2.74-1.65-1.65L66.67,771c-1,1.08.61,2.73,1.65,1.65Z"/><path class="cls-17" d="M71.57,787.76q8.55.6,17.13.38a1.17,1.17,0,0,0,0-2.33q-8.58.23-17.13-.39c-1.5-.1-1.5,2.23,0,2.34Z"/><path class="cls-17" d="M13.43,792.87q26.4-.74,52.81-.7a1.17,1.17,0,0,0,0-2.33q-26.41,0-52.81.7c-1.5,0-1.51,2.38,0,2.33Z"/><path class="cls-12" d="M4.56,596.6c-.24,6.77.42,13.56.73,20.33s.63,13.57.8,20.37c.33,13.53.27,27.08,0,40.62s-.62,27.24-.94,40.86-.57,27.11-.52,40.67l0,5.2c0,1.56-.06,3.16.09,4.71a3.35,3.35,0,0,0,2.32,3.06,21.51,21.51,0,0,0,4.6.63,62.87,62.87,0,0,0,19.33-1.45c1.54-.35,3.07-.75,4.58-1.21,2.21-.66,1.27-4.13-1-3.46a64.52,64.52,0,0,1-18.4,2.79c-1.58,0-3.16,0-4.74-.07-.73,0-1.46-.07-2.18-.13-.34,0-.68,0-1-.09L8,769.35c-.29-.08,0,.11,0,0a6.51,6.51,0,0,1-.08-1.65l0-2.69c0-1.61,0-3.22,0-4.82-.08-13.3.14-26.6.42-39.9s.66-26.47.88-39.71.3-26.57,0-39.85q-.21-9.9-.71-19.8A182.27,182.27,0,0,0,6.61,601.3c-.27-1.63-.56-3.24-1-4.85a.56.56,0,0,0-1.1.15Z"/><path class="cls-12" d="M59.21,596.53c-1.71,4.79-1.88,10-1.82,15s.5,10,.74,15.05c.48,10.38-.45,20.77-.93,31.14-1,20.94-1.46,41.89-1.8,62.85-.19,11.74-.32,23.47-.46,35.21a1.6,1.6,0,0,0,3.19,0c.09-20.89.15-41.79.62-62.68q.34-15.66,1-31.32.33-7.81.75-15.63c.27-5.14.59-10.28.55-15.42,0-5.66-.48-11.3-.84-17s-.24-11.43-.14-17.16a.43.43,0,0,0-.84-.11Z"/><path class="cls-12" d="M33.88,762.21a32,32,0,0,0,6.89,1.28c2.43.34,4.87.56,7.31.78s4.73.41,7.09.59c1.79.13,5.26.78,5.87-1.62a1.34,1.34,0,0,0-.92-1.63,19.13,19.13,0,0,0-2.73,0c-1.06-.08-2.12-.2-3.18-.29-2.29-.22-4.59-.4-6.89-.57s-4.46-.32-6.7-.38a31,31,0,0,0-6.74.17c-.92.18-.73,1.4,0,1.67Z"/><path class="cls-10" d="M206.23,491a8.22,8.22,0,0,0-3.22,2.1,9.17,9.17,0,0,0-2,3.42c-.18.53.51.83.88.51,1.67-1.45,3.39-2.81,5.15-4.15.51-.39,0-1.27-.52-.88-1.55,1.12-3.06,2.33-4.53,3.56l.72.73a36,36,0,0,0,4.94-5.53.49.49,0,0,0-.18-.67c-.92-.56-1.8.49-2.43,1-.89.79-1.72,1.62-2.55,2.48a.62.62,0,0,0,.75,1,2.94,2.94,0,0,0,1.33-1.74c.14-.51-.46-1.05-.93-.72-.28.19-.57.3-.84.51s-.47.41-.69.63a10.89,10.89,0,0,0-1.18,1.44,9.28,9.28,0,0,0-1.41,3.44.84.84,0,0,0,1.53.65,24.13,24.13,0,0,1,8.84-7.29c.69-.34.2-1.54-.52-1.25a20.89,20.89,0,0,0-5.47,3.12,23.58,23.58,0,0,0-4.3,4.57l1.54.65a9.19,9.19,0,0,1,1.12-2.95,7.79,7.79,0,0,1,.89-1.24c.18-.2.36-.39.55-.57s.37-.45.58-.61l-.94-.72a1.55,1.55,0,0,1-.72,1l.75,1c.62-.64,1.26-1.26,1.87-1.9.21-.22,1.51-1.82,1.74-1.67l-.17-.66a50.32,50.32,0,0,1-4.82,5.29c-.48.47.24,1.18.72.73a41.87,41.87,0,0,1,4.33-3.41l-.52-.88c-1.85,1.34-3.64,2.79-5.38,4.28l.89.52a10.92,10.92,0,0,1,4.33-5.61c.09-.06,0-.24-.09-.19Z"/><path class="cls-2" d="M18.9,527.45c7.28-6.55,14.72-12.89,22.57-18.75l-1.42-1.84a123.68,123.68,0,0,0-26.63,28.58l2.1,1.22a196.42,196.42,0,0,1,23.64-30l-1.75-1.75c-7.43,8.13-14.24,16.8-21,25.46l2,1.53q10.84-14.07,22.59-27.42l-1.81-1.82Q28.84,516,18.49,529.22l2.17,1.68c4.87-7.13,9.74-14.3,15.51-20.74L34,508.49c-4.61,6.42-9.26,12.8-13.77,19.29-.95,1.37,1.24,2.58,2.21,1.29,4.73-6.34,9.31-12.78,13.94-19.19.91-1.27-1.12-2.82-2.17-1.67-6,6.6-11,13.93-15.95,21.29-1,1.51,1.33,2.77,2.39,1.4q10.23-13.33,20.49-26.65c.88-1.15-1.07-2.65-2-1.56q-11.94,13.6-23,28c-.86,1.12,1.1,2.66,2,1.53,6.79-8.68,13.59-17.35,21-25.5,1.07-1.18-.64-2.91-1.75-1.75a198.49,198.49,0,0,0-24,30.5c-.84,1.32,1.24,2.51,2.1,1.22a121.63,121.63,0,0,1,26.19-28.14c1-.81-.35-2.64-1.42-1.84a144,144,0,0,0-22,20.13.45.45,0,0,0,.64.64Z"/><path class="cls-2" d="M2.1,594.71a22.91,22.91,0,0,0,6.08,1.36c2,.27,4.08.46,6.12.62,4.22.33,8.45.49,12.68.71,8.16.42,16.38,1,24.55.32,2.28-.19,4.55-.47,6.8-.88,1.07-.19,2.13-.42,3.19-.68A7.26,7.26,0,0,0,65,594.73c1.16-1,.11-2.56-1.13-2.72a7.65,7.65,0,0,0-2.94.5c-.94.24-1.88.45-2.83.64a56.62,56.62,0,0,1-5.8.83,104.46,104.46,0,0,1-11.87.37c-8.12-.15-16.24-.73-24.36-.83-2.3,0-4.61-.1-6.91-.11a45,45,0,0,0-6.87.11.66.66,0,0,0-.15,1.19Z"/><path class="cls-2" d="M35.82,474.27a41.12,41.12,0,0,0-4.45,3.46c-1.37,1.32-2.75,2.65-4.07,4a94.37,94.37,0,0,0-7.47,8.76A63.44,63.44,0,0,0,9.51,511.89a205.35,205.35,0,0,0-5,25.05c-1.27,8.61-2.16,17.26-2.82,25.93C.91,572.61.22,582.41,0,592.17c0,1.92,2.81,1.88,3,0,.61-8.56.82-17.14,1.39-25.71s1.29-17,2.34-25.41a238,238,0,0,1,4.35-25c1.84-7.83,4.5-15.25,9-22a85.65,85.65,0,0,1,7.84-9.86c1.43-1.59,2.85-3.18,4.31-4.74a53.12,53.12,0,0,0,3.91-4.95c.12-.16-.11-.39-.27-.27Z"/><path class="cls-2" d="M285.07,676.49c-.61,1.5-1.35,3-1.88,4.48s-1,2.93-1.43,4.42q-1.33,4.64-2.5,9.32c-1.54,6.13-2.88,12.3-4.17,18.48-2.62,12.45-5.33,24.86-8.94,37.06q-3,10.37-6.89,20.48a1.38,1.38,0,0,0,.95,1.67,61.14,61.14,0,0,0,18.41,1.91,8,8,0,0,0,3.91-.94,5.91,5.91,0,0,0,2.24-3.42c1-3.07,2-6.15,2.94-9.23,3.94-12.37,7.87-24.75,11.91-37.08,2.27-6.93,4.75-13.83,6.7-20.85.38-1.36-1.59-1.85-2.08-.57-2.21,5.78-4,11.75-6,17.63s-3.91,11.77-5.9,17.65-3.92,11.5-5.88,17.26l-3,8.81L282,768c-.33,1-.54,2.42-1.63,2.81a14.5,14.5,0,0,1-4.31.37c-1.73,0-3.47,0-5.2-.06a51.54,51.54,0,0,1-9.9-1.3l.94,1.66A276.8,276.8,0,0,0,273,734.94c2.82-12.39,5-24.93,7.59-37.37.74-3.51,1.53-7,2.4-10.5.42-1.68.85-3.36,1.25-5s.71-3.65,1.16-5.46a.16.16,0,0,0-.3-.08Z"/><path class="cls-2" d="M308.63,691.79a5.79,5.79,0,0,1,.34-1.48l-.81-.11a23.22,23.22,0,0,0,1.46,4.88c.61,1.69,1.32,3.35,2,5q2,5.11,4.14,10.19c2.76,6.66,5.49,13.34,8.28,20,.71,1.68,1.43,3.36,2.24,5,.42.84.86,1.67,1.33,2.47a4.5,4.5,0,0,0,1.9,2.22,1.24,1.24,0,0,0,1.83-1.05c0-1.56-1.34-3-2.05-4.38s-1.45-2.93-2.13-4.42c-1.44-3.2-2.81-6.43-4.22-9.65-2.88-6.6-5.74-13.22-8.7-19.79-.84-1.87-1.66-3.76-2.53-5.63a23.87,23.87,0,0,0-2.83-5.12c-.28-.34-.78,0-.69.4a5.71,5.71,0,0,1,.23,1.48.11.11,0,0,0,.22,0Z"/><path class="cls-2" d="M301.36,680.34c2.38,10.48,6.89,20.4,11.54,30s9.94,19.26,15.27,28.68c.67,1.18,1.48,2.18,3,2s2.68-1.26,3.82-2c2.79-1.82,5.56-3.64,8.32-5.49,1.67-1.12.1-3.83-1.58-2.71-2.28,1.54-4.55,3.08-6.82,4.64-1.11.77-2.22,1.52-3.29,2.33a2.9,2.9,0,0,0-.58.43l-.29.17c.23.1.27.09.12,0a13.15,13.15,0,0,1-.92-1.59c-2.5-4.39-5-8.77-7.48-13.19-5-8.92-9.81-17.91-14-27.24-2.38-5.31-4.57-10.72-6.83-16.09a.15.15,0,0,0-.29.08Z"/><path class="cls-4" d="M55.44,423.21c2.87,1.06,5.75,2.07,8.54,3.35,1.22.56,2.48,1.06,3.66,1.71a14.74,14.74,0,0,1,3,2.31l.78-1c-.9-.65-1.62-1.52-2.47-2.24a27.58,27.58,0,0,0-2.45-1.85c-.42-.28-1,.29-.72.72,1.13,1.54,2.3,3.05,3.48,4.55.43.55,1.39-.18,1-.75l-3.36-4.6c-.47-.65-1.56-.06-1.1.64,1.71,2.58,3.38,5.2,5.15,7.74.52.75,1.73.07,1.24-.72a27.34,27.34,0,0,0-5.61-6.38,19.35,19.35,0,0,0-7.37-4.12c-.8-.2-1.4,1-.59,1.39a35,35,0,0,1,7,3.78,21,21,0,0,1,5.34,6l1.24-.72c-1.72-2.59-3.53-5.11-5.29-7.66l-1.1.64,3.39,4.58,1-.75c-1.16-1.45-2.33-2.89-3.54-4.31l-.63.83c1.68.95,3.71,2.27,4.57,4.06.31.66,1.4.2,1.18-.5-.84-2.59-4.08-4-6.38-5a51.33,51.33,0,0,0-9.48-3.12.71.71,0,0,0-.38,1.37Z"/><path class="cls-14" d="M277.12,618.07a1.58,1.58,0,0,0-1.65-.56,2.14,2.14,0,0,0-1.55,1.32,2.69,2.69,0,0,0,2.71,3.44,3.31,3.31,0,0,0,2.51-1.41,3.17,3.17,0,0,0,.44-2.72,2.61,2.61,0,0,0-2.41-1.84,3.09,3.09,0,0,0-2.39,1.08,3.76,3.76,0,0,0-.71,3.14,3.2,3.2,0,0,0,1.88,2.57,2.78,2.78,0,0,0,2.88-1.11,5,5,0,0,0,1.2-2.73,2.52,2.52,0,0,0-1.92-2.64,3.08,3.08,0,0,0-3.2,1.4,5,5,0,0,0-.74,2.73,3.48,3.48,0,0,0,1,2.57,2.66,2.66,0,0,0,1.71.69,2.92,2.92,0,0,0,1.85-.73,3.68,3.68,0,0,0,1.26-3.39,2.47,2.47,0,0,0-3.1-1.92,2.11,2.11,0,0,0-1.5,1.95,1.9,1.9,0,0,0,1.38,1.92,1.68,1.68,0,0,0,1.85-.71,1.18,1.18,0,0,0-.7-1.72h0a.74.74,0,0,1,.33.17.62.62,0,0,1,.18.18c.08.12.11.15.07.08l.13.32,0-.1.05.38a6.59,6.59,0,0,0-.1-.76l.06.42a.6.6,0,0,1,0-.19l-.06.42,0-.09-.16.38a.47.47,0,0,1,.07-.12l-.25.32a.27.27,0,0,1,.08-.07l-.33.25a.71.71,0,0,1,.15-.08l-.39.16.16,0-.43.06h.16l-.42-.06a1.12,1.12,0,0,1,.26.08l-.38-.17a1.22,1.22,0,0,1,.19.12l-.32-.25a1.8,1.8,0,0,1,.2.19l-.25-.32a.84.84,0,0,1,.12.23l-.16-.39a1.47,1.47,0,0,1,.08.3l-.06-.43a2.41,2.41,0,0,1,0,.38l0-.42a2.66,2.66,0,0,1-.18.67l.16-.37a3.33,3.33,0,0,1-.28.48l.24-.32a2,2,0,0,1-.38.39l.31-.24a1.69,1.69,0,0,1-.29.17l.37-.15a1.77,1.77,0,0,1-.31.08l.4,0h-.26l.39.06-.26-.07.36.15L277,621l.3.23a1.14,1.14,0,0,1-.22-.22l.23.3a1.5,1.5,0,0,1-.19-.32l.15.35a2.54,2.54,0,0,1-.17-.67l.05.4a3.75,3.75,0,0,1,0-.82l-.05.39a4.84,4.84,0,0,1,.28-1.12l-.14.35a3,3,0,0,1,.28-.49l-.23.29a2.19,2.19,0,0,1,.34-.34l-.3.23.34-.19-.36.15a2.93,2.93,0,0,1,.37-.1l-.39,0a1.61,1.61,0,0,1,.38,0l-.4,0a1,1,0,0,1,.3.08l-.35-.15.21.12-.3-.23a1.45,1.45,0,0,1,.21.22l-.23-.3a1.28,1.28,0,0,1,.15.25l-.15-.35a1.39,1.39,0,0,1,.1.33l-.06-.38a2,2,0,0,1,0,.49l.05-.38a3.46,3.46,0,0,1-.23.82l.14-.33a3.11,3.11,0,0,1-.2.41,1.62,1.62,0,0,1-.1.18s-.1.22-.16.24.19-.23.1-.13l-.1.12-.15.15-.1.1.12-.1a.88.88,0,0,1-.23.14s.29-.1.16-.08l-.09,0c.23-.1.28,0,.15,0s-.16,0,0,0-.11-.07.13,0,.06,0,0,0,.18.19.11.09,0,0,0,.06a3.3,3.3,0,0,0-.23-.41c-.06-.12.05.13.05.12s0-.09-.05-.14l-.09-.28a1.74,1.74,0,0,1,0-.22.8.8,0,0,0,0-.15s0,.28,0,.15-.07-.44,0-.55-.06.28,0,.14,0-.07,0-.1a2.33,2.33,0,0,1,.07-.25c.08-.26-.1.18,0,0l.12-.2c.07-.13-.19.21-.09.11l.06-.07c.05,0,.11-.09.15-.14s-.14.13-.13.1l.07-.05.21-.11c.12-.08-.28.1-.14,0l.09,0,.19-.05.09,0s-.31,0-.19,0h.23c.25,0-.27-.06-.08,0l.17,0c.19,0-.16-.06-.14-.07l.08,0,.07,0c.17.1-.16-.15-.08-.06l.07.07c.14.12-.05-.07-.06-.1a.86.86,0,0,0,.1.16.43.43,0,0,0,.05.12s-.08-.25-.06-.14.05.17.07.26,0-.16,0-.15a.57.57,0,0,0,0,.13,1.41,1.41,0,0,1,0,.2c0,.2.06-.27,0,0a2.5,2.5,0,0,1-.07.26c0,.11.06-.13.06-.12a.3.3,0,0,0,0,.08c0,.07-.07.14-.11.2a1,1,0,0,0-.08.11s.16-.18.08-.1l-.18.19s-.2.17-.06.07-.07,0-.1.06a1,1,0,0,1-.19.12l-.09.05.07,0a1.72,1.72,0,0,0-.21.07s-.19,0-.22.05.21,0,.11,0h-.23c-.13,0,0,0,.07,0l-.21-.05-.09,0c-.16,0,0,0,.05,0s-.13-.07-.17-.09l-.1-.07c-.1-.06,0,0,0,0s-.13-.11-.16-.15-.16-.21,0,0c-.08-.12-.16-.24-.23-.37s0-.11,0,0c0,0,0-.08,0-.12s-.05-.25,0-.11a1.93,1.93,0,0,1,0-.24s0-.1,0,0,0-.05,0-.06l0-.1,0-.06v0a.75.75,0,0,0,.07-.12c.06-.09,0,0,.08-.1l.16-.15a2.17,2.17,0,0,1,.65-.29,1.16,1.16,0,0,1,.78,0c.08,0,.18-.09.12-.16Z"/><path class="cls-6" d="M39.05,620c-.78,17.78-.6,35.6-.65,53.4s-.18,35.46-.52,53.19q-.14,7.49-.3,14.95c-.11,5-.42,10.11-.32,15.14a.66.66,0,0,0,1.31,0c.3-4.44.24-8.93.32-13.39s.16-8.93.23-13.4c.15-8.86.27-17.73.41-26.59.27-17.73.51-35.47.44-53.2,0-10.05-.13-20.07-.67-30.1a.13.13,0,0,0-.25,0Z"/><path class="cls-6" d="M16.76,689.54c1.66,9.62,3.19,19.27,5,28.86.06.29.49.17.44-.12-1.57-9.63-3.45-19.22-5.2-28.82,0-.17-.3-.1-.27.08Z"/><path class="cls-6" d="M12.7,712.5a63.24,63.24,0,0,0,12.73,31.29c.25.32.82-.11.57-.44a66.4,66.4,0,0,1-13.12-30.87c0-.1-.19-.08-.18,0Z"/><path class="cls-6" d="M285.75,780.41a19.43,19.43,0,0,0,2.64-3.51c.84-1.23,1.71-2.42,2.51-3.68a.79.79,0,1,0-1.36-.8,37.78,37.78,0,0,0-2.38,3.76,14.18,14.18,0,0,0-1.82,4,.25.25,0,0,0,.41.23Z"/><path class="cls-6" d="M290.7,783c.46-.61.95-1.21,1.37-1.86l1.17-1.81a29.41,29.41,0,0,0,2.28-3.82.79.79,0,0,0-1.37-.79,28.32,28.32,0,0,0-2.21,3.86l-1,1.9c-.36.68-.65,1.4-.95,2.11a.41.41,0,0,0,.71.41Z"/><path class="cls-6" d="M296,784.8c1.71-2.58,3.37-5.2,4.83-7.94.43-.81-.78-1.52-1.23-.72-1.52,2.71-2.84,5.53-4.09,8.37a.28.28,0,0,0,.49.29Z"/><path class="cls-6" d="M268.26,790.43q11.61.84,23.25,1.5c3.87.22,7.74.42,11.62.57l5.81.22a43.53,43.53,0,0,0,5.82.11c.5-.05.7-.84.13-1a43,43,0,0,0-5.56-.49l-5.81-.38q-5.91-.39-11.82-.67-11.71-.54-23.44-.93c-.67,0-.66,1,0,1Z"/><path class="cls-6" d="M343.88,756.21c5.27-3.41,10.31-7.16,15.45-10.77s10.36-7.34,15.6-10.94a101.45,101.45,0,0,0,8.57-6.1c.44-.37-.12-1-.59-.76a76.8,76.8,0,0,0-7.93,5.09c-2.59,1.78-5.18,3.56-7.76,5.37q-7.82,5.46-15.44,11.17c-2.81,2.09-5.56,4.25-8.21,6.53-.22.19.07.57.31.41Z"/><path class="cls-6" d="M351.74,729.17l0,4.37c0,.73,0,1.46.07,2.18a8.42,8.42,0,0,0,.26,2.19c.19.55,1.09.66,1.23,0a7.65,7.65,0,0,0,0-2.19c-.05-.73-.12-1.45-.2-2.18l-.51-4.37c-.07-.54-.89-.58-.88,0Z"/><path class="cls-6" d="M357.16,725.89a19.28,19.28,0,0,0,0,4.86l.17,2.42a10.76,10.76,0,0,0,.39,2.53c.22.65,1.38.82,1.49,0a41.74,41.74,0,0,0-1.16-9.81c-.14-.37-.79-.48-.88,0Z"/><path class="cls-6" d="M361.88,726l-.23,4.73a31.25,31.25,0,0,0,0,4.74.93.93,0,0,0,1.86,0,32.61,32.61,0,0,0,0-4.74l-.23-4.73a.67.67,0,0,0-1.34,0Z"/><path class="cls-16" d="M291.4,652.71c-.47,6.09,2.74,12.07,5.1,17.49,2.69,6.19,5.45,12.34,8.23,18.48,1.54,3.42,2.92,7,4.75,10.31.27.48,1.1.16.91-.39-1-3-2.47-5.92-3.73-8.83q-2-4.6-4-9.19l-3.95-9c-1.3-3-2.7-5.86-3.89-8.85A48.72,48.72,0,0,1,292,652.62c-.06-.35-.57-.24-.59.09Z"/><path class="cls-16" d="M284.31,674.77a21.4,21.4,0,0,0-3.66,4.64,18.65,18.65,0,0,0-2.34,5.49.8.8,0,0,0,1.55.43c.67-1.77,1.28-3.55,2.12-5.25a39.8,39.8,0,0,1,2.93-4.85c.25-.37-.29-.75-.6-.46Z"/><path class="cls-16" d="M280.62,673.91a15.71,15.71,0,0,0-2.75,10.41c.08.84,1.4.86,1.33,0a17.7,17.7,0,0,1,2.18-10,.44.44,0,0,0-.76-.44Z"/><path class="cls-16" d="M266.57,651.73c4.05.59,8.09,1.3,12.15,1.88,2,.29,4,.59,6,.91a38.87,38.87,0,0,0,6,.88.79.79,0,0,0,.21-1.55,33.88,33.88,0,0,0-5.86-.91q-3.11-.41-6.22-.76c-4.07-.46-8.19-.68-12.28-.9-.26,0-.32.41-.06.45Z"/><path class="cls-16" d="M282.83,719.89a81.28,81.28,0,0,0-3.74,30.77c0,.42.69.43.67,0a93.56,93.56,0,0,1,3.1-30.76s0,0,0,0Z"/><path class="cls-16" d="M329.57,725.18a6.81,6.81,0,0,0,5.45,6.3.6.6,0,0,0,.72-.41.59.59,0,0,0-.41-.73,6.36,6.36,0,0,1-5.13-5.24c-.05-.36-.65-.28-.63.08Z"/><path class="cls-16" d="M329.14,717a9.88,9.88,0,0,0,1.56,1.9,11.55,11.55,0,0,0,2,1.48.58.58,0,1,0,.58-1,11.33,11.33,0,0,1-3.58-2.8c-.25-.3-.76.09-.55.42Z"/><path class="cls-16" d="M31.56,500.44a41,41,0,0,0,2.59,5.84A48.53,48.53,0,0,1,37,512.47l.26-1c-6.42,6.77-12.66,13.73-19.17,20.41l1.53.41a39.32,39.32,0,0,0-2.4-5.8,1,1,0,0,0-1.75.73A38.14,38.14,0,0,0,17.93,533a.92.92,0,0,0,1.44.19c6.31-6.87,12.91-13.48,19.31-20.27a1.05,1.05,0,0,0,0-1.44,24.58,24.58,0,0,1-1.7-2.89l-1.69-3A43.32,43.32,0,0,0,32,500.17c-.18-.22-.53,0-.46.27Z"/><path class="cls-16" d="M56.64,502.55a.11.11,0,0,0,0-.22.11.11,0,0,0,0,.22Z"/><path class="cls-16" d="M57.28,508.34a.63.63,0,0,0-.14.59,1,1,0,0,0,.09.22l.11.13.15.11-.1-.08a.64.64,0,0,0,.33.18.5.5,0,0,0,.27,0,.65.65,0,0,0,.21-.05.66.66,0,0,0,.24-.17.91.91,0,0,0,.13-.19,1,1,0,0,0,.13-.46v0l0-.21a1.57,1.57,0,0,0-.09-.23l0,0-.13-.17,0,0a1.12,1.12,0,0,0-.42-.25,1.45,1.45,0,0,0-.3-.05h0a1.24,1.24,0,0,0-.27,0l-.05,0-.24.1a1.27,1.27,0,0,0-.47.45,1.72,1.72,0,0,0-.21.43l0,.11c0,.1,0,.2,0,.3v.06a1.12,1.12,0,0,0,0,.36,1.28,1.28,0,0,0,.11.27l0,.05h0l.15.21a.69.69,0,0,0,.22.16,1.39,1.39,0,0,0,.28.12,1.58,1.58,0,0,0,.38.05l.24,0a.74.74,0,0,0,.32-.16.44.44,0,0,0,.16-.17.73.73,0,0,0,.17-.31l0-.25,0-.25a.73.73,0,0,0-.17-.31.67.67,0,0,0-.26-.24l-.09-.05.2.15-.06-.06.15.2-.16-.21c-.06-.06-.14-.11-.2-.16l.19.15-.05,0,.15.19a.22.22,0,0,1-.05-.08l.1.23a.65.65,0,0,1,0-.13l0,.25a.54.54,0,0,1,0-.18l0,.24a.83.83,0,0,1,.06-.21l-.09.21a.82.82,0,0,1,.12-.2l-.14.17.08-.07-.17.13.08,0-.19.08.07,0-.21,0h.09l-.2,0,.09,0-.17-.07,0,0-.14-.11,0,.05-.11-.15,0,.06-.07-.16a.19.19,0,0,1,0,.08l0-.18v.09l0-.17c0,.08,0,.17,0,.25l0-.16a.07.07,0,0,1,0,.05l.06-.14,0,.05.09-.11,0,0,.11-.08,0,0,.11-.05h.19l-.07,0,.1.05-.07,0,.09.06-.06-.05.06.08a.43.43,0,0,0,0-.07l0,.09s0,0,0-.06l0,.1a.06.06,0,0,1,0-.06l0,.09v0a.41.41,0,0,0,0-.22.36.36,0,0,0-.14-.16.35.35,0,0,0-.4,0Z"/><path class="cls-16" d="M57,516.33l-.16.43a.73.73,0,0,0,0,.36.62.62,0,0,0,.18.3.7.7,0,0,0,.48.2.72.72,0,0,0,.48-.2.62.62,0,0,0,.18-.3.73.73,0,0,0,0-.36l-.16-.43-.06-.12a.29.29,0,0,0-.13-.14.45.45,0,0,0-.31-.11.48.48,0,0,0-.26.07.51.51,0,0,0-.24.3Z"/><path class="cls-18" d="M208.59,588.51a21.24,21.24,0,0,0,3.27,8.3,24.28,24.28,0,0,0,6,6.77c.69.53,1.54-.61.92-1.19a39.19,39.19,0,0,1-5.68-6.46,55.64,55.64,0,0,1-3.93-7.59.33.33,0,0,0-.62.17Z"/><path class="cls-18" d="M206.5,599a16.62,16.62,0,0,0,12.25,10.34c.9.18,1.28-1.14.38-1.37a21.13,21.13,0,0,1-12.27-9.13c-.11-.17-.44-.07-.36.16Z"/><path class="cls-16" d="M36.23,474.27c-.24,1.05.69,2.34,1.2,3.19a38.12,38.12,0,0,0,2.26,3.23,62.75,62.75,0,0,0,5.25,6c3.8,3.87,7.94,7.37,12.08,10.87a1.28,1.28,0,0,0,2.09-.55,6.7,6.7,0,0,0,.17-4.86,1.13,1.13,0,0,0-2.05.26,26.15,26.15,0,0,1-.54,3.93l2.1-.55c-4.11-3.37-8.22-6.74-12-10.47-1.88-1.84-3.68-3.78-5.38-5.79-.82-1-1.58-2-2.35-3-.61-.81-1.38-2.25-2.41-2.54a.34.34,0,0,0-.41.24Z"/><path class="cls-16" d="M36.33,474.09a49.11,49.11,0,0,0-2.45,9.74c-.25,1.28-.8,2.84-.43,4.14s1.6,2.13,2.51,2.92a29.42,29.42,0,0,0,14.41,6.71,32.58,32.58,0,0,0,4.62.47c1.48,0,3.24.15,4.59-.53a1.22,1.22,0,0,0-.29-2.2c-1.47-.31-3.11.1-4.61.1a25.84,25.84,0,0,1-4.56-.39A29.12,29.12,0,0,1,41.3,492a32.69,32.69,0,0,1-3.89-2.46A13.3,13.3,0,0,1,35.58,488c-.71-.73-.36-1.68-.21-2.57.61-3.74,1.44-7.5,1.25-11.29a.15.15,0,0,0-.29,0Z"/><path class="cls-16" d="M58.09,490a3.46,3.46,0,0,1,.7,4.28l1,.28a22.81,22.81,0,0,0-.35-6.06c-.13-.67-1.12-.48-1.15.16-.06,1.81-.11,3.63-.23,5.44h1v-4.76a.49.49,0,0,0-1,0l0,2.75c0,.65.93.62,1,0a12.91,12.91,0,0,0-.2-3.67c-.1-.57-1-.42-1,.13,0,1.17,0,2.35-.08,3.52h1.09c0-1.61,0-3.23,0-4.85l-1.16.16c.51,1.7,1,3.4,1.53,5.1.24.85.49,1.7.73,2.56a2.4,2.4,0,0,1,.13.8c0,.12-.11.31,0,.3l.67.67a21.89,21.89,0,0,0-2-9.81c-.31-.66-1.25-.28-1.28.34-.08,1.93-.28,3.81-.21,5.74a.74.74,0,0,0,1.47,0c.1-.88.2-1.76.29-2.65H57.61l-.17,2.08c-.07,1,1.45,1,1.52,0l.17-2.08a.76.76,0,0,0-.76-.76.79.79,0,0,0-.76.76c-.09.88-.17,1.77-.24,2.65h1.47a24,24,0,0,1,.09-5.55H57.61a35.81,35.81,0,0,1,1.86,9.28.68.68,0,0,0,.85.64,1.47,1.47,0,0,0,1.1-1.5,7.45,7.45,0,0,0-.63-2.61c-.65-2.08-1.27-4.18-1.9-6.27a.59.59,0,0,0-1.16.15c0,1.62,0,3.24.05,4.85a.55.55,0,0,0,1.09,0c0-1.17,0-2.35,0-3.52l-1,.13a12.2,12.2,0,0,1,.17,3.41h1v-2.75h-1v4.76a.48.48,0,0,0,1,0c.11-1.82.29-3.63.45-5.44l-1.14.15a36.87,36.87,0,0,1,.38,5.75.55.55,0,0,0,1,.27,3.68,3.68,0,0,0,.27-2.92,3.94,3.94,0,0,0-1.7-2.2c-.17-.1-.38.15-.22.29Z"/><path class="cls-16" d="M58.31,496.26c0,4.16.27,8.31.36,12.47q.07,3,0,6.07L58.62,518a16.71,16.71,0,0,0,0,3c.09.6,1,.53,1.14,0a14.25,14.25,0,0,0,.25-3c0-1,.09-2,.09-3,0-2.15,0-4.3-.1-6.45a64.46,64.46,0,0,0-1.53-12.3.08.08,0,0,0-.15,0Z"/><path class="cls-16" d="M60.48,495.12a123.71,123.71,0,0,1,1.92,12.71,74.08,74.08,0,0,1,0,12.55c0,.25.37.25.4,0,1-8.37.84-17.32-2.18-25.3a.08.08,0,0,0-.15,0Z"/><path class="cls-16" d="M60.16,544.55c-.79,7.13-1,14.32-1.08,21.49s-.22,14.33.1,21.48a.29.29,0,0,0,.58,0c.28-7.15.29-14.32.43-21.48s.4-14.33.18-21.49c0-.14-.19-.13-.21,0Z"/></g></g></svg>