<svg id="Layer_1" data-name="Layer 1" xmlns="http://www.w3.org/2000/svg" xmlns:xlink="http://www.w3.org/1999/xlink" viewBox="0 0 1920 1080"><defs><style>.cls-1{fill:#50adff;}.cls-2{fill:#51acff;}.cls-3{fill:#52abff;}.cls-4{fill:#53a9ff;}.cls-5{fill:#54a8ff;}.cls-6{fill:#54a7ff;}.cls-7{fill:#55a6ff;}.cls-8{fill:#56a5ff;}.cls-9{fill:#57a3fe;}.cls-10{fill:#58a2fe;}.cls-11{fill:#59a1fe;}.cls-12{fill:#5aa0fe;}.cls-13{fill:#5b9ffe;}.cls-14{fill:#5b9efe;}.cls-15{fill:#5c9cfe;}.cls-16{fill:#5d9bfe;}.cls-17{fill:#5e9afe;}.cls-18{fill:#5f99fe;}.cls-19{fill:#6098fe;}.cls-20{fill:#6097fe;}.cls-21{fill:#6196fe;}.cls-22{fill:#6295fe;}.cls-23{fill:#6393fe;}.cls-24{fill:#6492fe;}.cls-25{fill:#6591fd;}.cls-26{fill:#6590fd;}.cls-27{fill:#668ffd;}.cls-28{fill:#678efd;}.cls-29{fill:#688dfd;}.cls-30{fill:#688cfd;}.cls-31{fill:#698bfd;}.cls-32{fill:#6a8afd;}.cls-33{fill:#6b89fd;}.cls-34{fill:#6c88fd;}.cls-35{fill:#6c87fd;}.cls-36{fill:#6d86fd;}.cls-37{fill:#6e85fd;}.cls-38{fill:#6e84fd;}.cls-39{fill:#6f83fd;}.cls-40{fill:#7082fd;}.cls-41{fill:#7181fd;}.cls-42{fill:#7180fd;}.cls-43{fill:#727ffc;}.cls-44{fill:#737efc;}.cls-45{fill:#747dfc;}.cls-46{fill:#747cfc;}.cls-47{fill:#757bfc;}.cls-48{fill:#767afc;}.cls-49{fill:#7679fc;}.cls-50{fill:#7779fc;}.cls-51{fill:#7778fc;}.cls-52{fill:#7877fc;}.cls-53{fill:#61e6ba;}.cls-54{fill:#fff;}.cls-55{fill:#7876fd;}</style></defs><title>Artboard 5</title><image width="305" height="316" transform="translate(1630.15 530.12) scale(0.25)" xlink:href="../../Integration%20Logo/jsw_white.png"/><rect class="cls-1" x="8.54" y="869.86" width="33.51" height="3"/><rect class="cls-2" x="42.06" y="869.86" width="33.51" height="3"/><rect class="cls-3" x="75.57" y="869.86" width="33.51" height="3"/><rect class="cls-4" x="109.08" y="869.86" width="33.51" height="3"/><rect class="cls-5" x="142.59" y="869.86" width="33.51" height="3"/><rect class="cls-6" x="176.1" y="869.86" width="33.51" height="3"/><rect class="cls-7" x="209.61" y="869.86" width="33.51" height="3"/><rect class="cls-8" x="243.13" y="869.86" width="33.51" height="3"/><rect class="cls-9" x="276.64" y="869.86" width="33.51" height="3"/><rect class="cls-10" x="310.15" y="869.86" width="33.51" height="3"/><rect class="cls-11" x="343.66" y="869.86" width="33.51" height="3"/><rect class="cls-12" x="377.17" y="869.86" width="33.51" height="3"/><rect class="cls-13" x="410.68" y="869.86" width="33.51" height="3"/><rect class="cls-14" x="444.19" y="869.86" width="33.51" height="3"/><rect class="cls-15" x="477.71" y="869.86" width="33.51" height="3"/><rect class="cls-16" x="511.22" y="869.86" width="33.51" height="3"/><rect class="cls-17" x="544.73" y="869.86" width="33.51" height="3"/><rect class="cls-18" x="578.24" y="869.86" width="33.51" height="3"/><rect class="cls-19" x="611.75" y="869.86" width="33.51" height="3"/><rect class="cls-20" x="645.26" y="869.86" width="33.51" height="3"/><rect class="cls-21" x="678.77" y="869.86" width="33.51" height="3"/><rect class="cls-22" x="712.29" y="869.86" width="33.51" height="3"/><rect class="cls-23" x="745.8" y="869.86" width="33.51" height="3"/><rect class="cls-24" x="779.31" y="869.86" width="33.51" height="3"/><rect class="cls-25" x="812.82" y="869.86" width="33.51" height="3"/><rect class="cls-26" x="846.33" y="869.86" width="33.51" height="3"/><rect class="cls-27" x="879.84" y="869.86" width="33.51" height="3"/><rect class="cls-28" x="913.36" y="869.86" width="33.51" height="3"/><rect class="cls-29" x="946.87" y="869.86" width="33.51" height="3"/><rect class="cls-30" x="980.38" y="869.86" width="33.51" height="3"/><rect class="cls-31" x="1013.89" y="869.86" width="33.51" height="3"/><rect class="cls-32" x="1047.4" y="869.86" width="33.51" height="3"/><rect class="cls-33" x="1080.91" y="869.86" width="33.51" height="3"/><rect class="cls-34" x="1114.42" y="869.86" width="33.51" height="3"/><rect class="cls-35" x="1147.94" y="869.86" width="33.51" height="3"/><rect class="cls-36" x="1181.45" y="869.86" width="33.51" height="3"/><rect class="cls-37" x="1214.96" y="869.86" width="33.51" height="3"/><rect class="cls-38" x="1248.47" y="869.86" width="33.51" height="3"/><rect class="cls-39" x="1281.98" y="869.86" width="33.51" height="3"/><rect class="cls-40" x="1315.49" y="869.86" width="33.51" height="3"/><rect class="cls-41" x="1349.01" y="869.86" width="33.51" height="3"/><rect class="cls-42" x="1382.52" y="869.86" width="33.51" height="3"/><rect class="cls-43" x="1416.03" y="869.86" width="33.51" height="3"/><path class="cls-44" d="M1505.55,869.86a7.69,7.69,0,0,1,.61,3h10.4v-3Z"/><path class="cls-44" d="M1449.54,869.86v3h41.28a7.69,7.69,0,0,1,.61-3Z"/><rect class="cls-45" x="1516.56" y="869.86" width="33.51" height="3"/><rect class="cls-46" x="1550.07" y="869.86" width="33.51" height="3"/><rect class="cls-47" x="1583.59" y="869.86" width="33.51" height="3"/><rect class="cls-48" x="1617.1" y="869.86" width="33.51" height="3"/><rect class="cls-49" x="1650.61" y="869.86" width="33.51" height="3"/><rect class="cls-50" x="1684.12" y="869.86" width="33.51" height="3"/><rect class="cls-51" x="1717.63" y="869.86" width="33.51" height="3"/><path class="cls-52" d="M1815.12,810.46v48.9a10.59,10.59,0,0,1-10.66,10.5h-53.32v3h53.32a13.62,13.62,0,0,0,13.71-13.5V810.7a7,7,0,0,1-.92.06A7.88,7.88,0,0,1,1815.12,810.46Z"/><path class="cls-52" d="M1804.46,721a10.59,10.59,0,0,1,10.66,10.5v64.25a7.51,7.51,0,0,1,2.13-.31,7,7,0,0,1,.92.06v-64a13.62,13.62,0,0,0-13.71-13.5H1787v3Z"/><path class="cls-1" d="M1131,403.44a13.77,13.77,0,0,0,14,13.5h1.39v-3H1145a10.77,10.77,0,0,1-11-10.5V325a7.52,7.52,0,0,1-3,.61Z"/><path class="cls-1" d="M1145,231.17a13.77,13.77,0,0,0-14,13.5v65.55a7.69,7.69,0,0,1,3,.61V244.67a10.77,10.77,0,0,1,11-10.5h1.39v-3Z"/><rect class="cls-2" x="1146.35" y="231.17" width="15.39" height="3"/><rect class="cls-2" x="1146.35" y="413.94" width="15.39" height="3"/><rect class="cls-3" x="1161.74" y="413.94" width="15.39" height="3"/><rect class="cls-3" x="1161.74" y="231.17" width="15.39" height="3"/><rect class="cls-4" x="1177.14" y="413.94" width="15.39" height="3"/><rect class="cls-4" x="1177.14" y="231.17" width="15.39" height="3"/><rect class="cls-5" x="1192.53" y="413.94" width="3.51" height="3"/><rect class="cls-5" x="1192.53" y="231.17" width="15.39" height="3"/><rect class="cls-6" x="1207.92" y="231.17" width="15.39" height="3"/><rect class="cls-7" x="1223.31" y="231.17" width="15.39" height="3"/><rect class="cls-8" x="1238.71" y="231.17" width="15.39" height="3"/><rect class="cls-9" x="1254.1" y="231.17" width="15.39" height="3"/><rect class="cls-10" x="1269.49" y="231.17" width="15.39" height="3"/><rect class="cls-11" x="1284.88" y="231.17" width="15.39" height="3"/><rect class="cls-12" x="1300.27" y="231.17" width="15.39" height="3"/><rect class="cls-13" x="1315.67" y="231.17" width="15.39" height="3"/><rect class="cls-14" x="1331.06" y="231.17" width="15.39" height="3"/><rect class="cls-15" x="1346.45" y="231.17" width="15.39" height="3"/><rect class="cls-16" x="1361.84" y="231.17" width="15.39" height="3"/><rect class="cls-17" x="1377.24" y="231.17" width="15.39" height="3"/><path class="cls-18" d="M1397,231.17h-4.34v3h4.42c0-.13,0-.26,0-.39C1397,232.91,1397,232,1397,231.17Z"/><path class="cls-27" d="M1538.17,231.17h0c0,.87,0,1.74-.07,2.61,0,.13,0,.26,0,.39h8.46v-3Z"/><rect class="cls-28" x="1546.55" y="231.17" width="15.39" height="3"/><rect class="cls-29" x="1561.95" y="231.17" width="15.39" height="3"/><rect class="cls-30" x="1577.34" y="231.17" width="15.39" height="3"/><rect class="cls-31" x="1592.73" y="231.17" width="15.39" height="3"/><rect class="cls-32" x="1608.12" y="231.17" width="15.39" height="3"/><rect class="cls-33" x="1623.52" y="231.17" width="15.39" height="3"/><rect class="cls-34" x="1638.91" y="231.17" width="15.39" height="3"/><rect class="cls-35" x="1654.3" y="231.17" width="15.39" height="3"/><rect class="cls-36" x="1669.69" y="231.17" width="15.39" height="3"/><path class="cls-37" d="M1685.08,231.17v3h2.3a7.55,7.55,0,0,1-.61-3Z"/><path class="cls-38" d="M1702.11,231.17a7.73,7.73,0,0,1-.61,3h14.37v-3Z"/><rect class="cls-39" x="1715.87" y="231.17" width="15.39" height="3"/><rect class="cls-40" x="1731.26" y="231.17" width="15.39" height="3"/><rect class="cls-41" x="1746.65" y="231.17" width="15.39" height="3"/><rect class="cls-42" x="1762.05" y="231.17" width="15.39" height="3"/><rect class="cls-43" x="1777.44" y="231.17" width="15.39" height="3"/><polygon class="cls-44" points="1808.22 231.16 1792.83 231.16 1792.83 234.16 1823.62 234.16 1823.62 231.16 1808.22 231.16"/><rect class="cls-45" x="1823.62" y="231.17" width="15.39" height="3"/><rect class="cls-46" x="1839.01" y="231.17" width="15.39" height="3"/><rect class="cls-47" x="1854.4" y="231.17" width="15.39" height="3"/><rect class="cls-48" x="1869.79" y="231.17" width="15.39" height="3"/><rect class="cls-49" x="1885.19" y="231.17" width="15.39" height="3"/><rect class="cls-50" x="1900.58" y="231.17" width="15.39" height="3"/><rect class="cls-51" x="1915.97" y="231.17" width="15.39" height="3"/><rect class="cls-1" x="1196.04" y="413.94" width="11.39" height="3"/><path class="cls-2" d="M1207.92,416.94h5.19c-.21-1-.38-2-.53-3h-5.15v3Z"/><path class="cls-13" d="M1344.12,416.94v-3h-10.36c-.16,1-.33,2-.54,3Z"/><polygon class="cls-14" points="1346.45 416.94 1355.51 416.94 1355.51 413.94 1344.12 413.94 1344.12 416.94 1346.45 416.94"/><polygon class="cls-15" points="1361.85 416.94 1366.9 416.94 1366.9 413.94 1355.51 413.94 1355.51 416.94 1361.85 416.94"/><polygon class="cls-16" points="1377.24 416.94 1378.29 416.94 1378.29 413.94 1366.9 413.94 1366.9 416.94 1377.24 416.94"/><rect class="cls-17" x="1378.29" y="413.94" width="11.39" height="3"/><polygon class="cls-18" points="1392.63 416.94 1401.07 416.94 1401.07 413.94 1389.68 413.94 1389.68 416.94 1392.63 416.94"/><path class="cls-19" d="M1408,416.94h2.69c-.21-1-.38-2-.53-3h-9.11v3Z"/><path class="cls-30" d="M1530.82,416.94h6.93v-3h-6.4C1531.2,415,1531,416,1530.82,416.94Z"/><polygon class="cls-31" points="1546.55 416.94 1549.14 416.94 1549.14 413.94 1537.75 413.94 1537.75 416.94 1546.55 416.94"/><rect class="cls-32" x="1549.14" y="413.94" width="11.39" height="3"/><polygon class="cls-33" points="1561.95 416.94 1571.92 416.94 1571.92 413.94 1560.53 413.94 1560.53 416.94 1561.95 416.94"/><polygon class="cls-34" points="1577.34 416.94 1583.31 416.94 1583.31 413.94 1571.92 413.94 1571.92 416.94 1577.34 416.94"/><polygon class="cls-35" points="1592.73 416.94 1594.7 416.94 1594.7 413.94 1583.31 413.94 1583.31 416.94 1592.73 416.94"/><path class="cls-36" d="M1605.26,416.94c-.2-1-.38-2-.53-3h-10v3Z"/><path class="cls-46" d="M1731.26,416.94h.13v-3h-5.48c-.15,1-.33,2-.53,3Z"/><rect class="cls-47" x="1731.39" y="413.94" width="11.39" height="3"/><polygon class="cls-48" points="1746.65 416.94 1754.17 416.94 1754.17 413.94 1742.78 413.94 1742.78 416.94 1746.65 416.94"/><polygon class="cls-49" points="1761.96 416.94 1762.05 416.94 1765.56 416.94 1765.56 413.94 1761.96 413.94 1754.17 413.94 1754.17 416.94 1761.96 416.94"/><rect class="cls-50" x="1765.56" y="413.94" width="11.39" height="3"/><rect class="cls-51" x="1786.96" y="565.83" width="1.38" height="3"/><polygon class="cls-51" points="1777.44 416.94 1788.34 416.94 1788.34 413.94 1776.95 413.94 1776.95 416.94 1777.44 416.94"/><path class="cls-52" d="M1792.83,416.94h4.58a10.59,10.59,0,0,1,10.66,10.5V555.33a10.59,10.59,0,0,1-10.66,10.5h-9.07v3h9.07a13.62,13.62,0,0,0,13.71-13.5V427.44a13.62,13.62,0,0,0-13.71-13.5h-9.07v3Z"/><path class="cls-1" d="M1131,579.33V707.48c0,6.68,5.26,12.23,12.15,13.3v-3c-5.16-1-9-5.23-9-10.26V579.33c0-5,3.87-9.24,9-10.26v-3C1136.22,567.1,1131,572.65,1131,579.33Z"/><path class="cls-2" d="M1145.52,565.83a15.78,15.78,0,0,0-2.41.2v3a11.87,11.87,0,0,1,2.41-.24h9.73v-3Z"/><path class="cls-2" d="M1143.11,720.78a15.78,15.78,0,0,0,2.41.2h9.73v-3h-9.73a12.62,12.62,0,0,1-2.41-.24Z"/><rect class="cls-3" x="1155.25" y="717.98" width="12.15" height="3"/><rect class="cls-3" x="1155.25" y="565.83" width="12.15" height="3"/><rect class="cls-4" x="1167.4" y="717.98" width="12.15" height="3"/><rect class="cls-4" x="1167.4" y="565.83" width="12.15" height="3"/><polygon class="cls-5" points="1191.7 720.98 1191.7 717.98 1181.45 717.98 1179.55 717.98 1179.55 720.98 1191.7 720.98"/><rect class="cls-5" x="1179.55" y="565.83" width="12.15" height="3"/><polygon class="cls-6" points="1203.09 720.98 1203.85 720.98 1203.85 717.98 1203.09 717.98 1191.7 717.98 1191.7 720.98 1203.09 720.98"/><polygon class="cls-6" points="1196.04 565.83 1191.7 565.83 1191.7 568.83 1196.04 568.83 1203.85 568.83 1203.85 565.83 1196.04 565.83"/><polygon class="cls-7" points="1216 720.98 1216 717.98 1214.96 717.98 1203.85 717.98 1203.85 720.98 1216 720.98"/><polygon class="cls-7" points="1203.85 565.83 1203.85 568.83 1207.43 568.83 1213.48 568.83 1213.48 565.83 1203.85 565.83"/><path class="cls-8" d="M1219.61,721c.14-1,.3-2,.49-3H1216v3Z"/><rect class="cls-17" x="1335.9" y="565.83" width="1.58" height="3"/><path class="cls-18" d="M1349.63,721v-3h-9.18c.2,1,.36,2,.5,3Z"/><polygon class="cls-18" points="1337.48 565.83 1337.48 568.83 1344.12 568.83 1349.63 568.83 1349.63 565.83 1337.48 565.83"/><rect class="cls-19" x="1349.63" y="717.98" width="12.15" height="3"/><polygon class="cls-19" points="1349.63 565.83 1349.63 568.83 1355.51 568.83 1361.77 568.83 1361.77 565.83 1349.63 565.83"/><path class="cls-20" d="M1366.84,721a8.12,8.12,0,0,1-.1-1.21A7.5,7.5,0,0,1,1367,718h-5.19v3Z"/><polygon class="cls-20" points="1361.77 565.83 1361.77 568.83 1366.9 568.83 1373.92 568.83 1373.92 565.83 1361.77 565.83"/><path class="cls-21" d="M1382,721h4.09v-3h-4.21a7.5,7.5,0,0,1,.22,1.79A8.12,8.12,0,0,1,1382,721Z"/><polygon class="cls-21" points="1373.92 565.83 1373.92 568.83 1378.29 568.83 1386.07 568.83 1386.07 565.83 1373.92 565.83"/><rect class="cls-22" x="1386.07" y="717.98" width="12.15" height="3"/><polygon class="cls-22" points="1386.07 565.83 1386.07 568.83 1389.68 568.83 1398.22 568.83 1398.22 565.83 1386.07 565.83"/><rect class="cls-23" x="1398.22" y="717.98" width="12.15" height="3"/><polygon class="cls-23" points="1398.22 565.83 1398.22 568.83 1401.07 568.83 1410.37 568.83 1410.37 565.83 1398.22 565.83"/><path class="cls-24" d="M1417.21,721c.14-1,.3-2,.49-3h-7.33v3Z"/><rect class="cls-24" x="1410.37" y="565.83" width="0.71" height="3"/><path class="cls-34" d="M1544,721v-3h-6c.2,1,.36,2,.5,3Z"/><polygon class="cls-34" points="1533.49 565.83 1533.49 568.83 1537.75 568.83 1544 568.83 1544 565.83 1533.49 565.83"/><polygon class="cls-35" points="1556.15 720.98 1556.15 717.98 1550.08 717.98 1544 717.98 1544 720.98 1556.15 720.98"/><polygon class="cls-35" points="1544 565.83 1544 568.83 1549.14 568.83 1556.15 568.83 1556.15 565.83 1544 565.83"/><rect class="cls-36" x="1556.15" y="717.98" width="12.15" height="3"/><path class="cls-36" d="M1562,565.83h-5.86v3h5.94a7.3,7.3,0,0,1-.2-1.69A8.08,8.08,0,0,1,1562,565.83Z"/><rect class="cls-37" x="1568.29" y="717.98" width="12.15" height="3"/><path class="cls-37" d="M1577.11,565.83a7.1,7.1,0,0,1,.13,1.31,7.3,7.3,0,0,1-.2,1.69h3.4v-3Z"/><polygon class="cls-38" points="1592.59 720.98 1592.59 717.98 1583.59 717.98 1580.44 717.98 1580.44 720.98 1592.59 720.98"/><polygon class="cls-38" points="1580.44 565.83 1580.44 568.83 1583.31 568.83 1592.59 568.83 1592.59 565.83 1580.44 565.83"/><rect class="cls-39" x="1592.59" y="717.98" width="12.15" height="3"/><polygon class="cls-39" points="1592.59 565.83 1592.59 568.83 1594.7 568.83 1604.74 568.83 1604.74 565.83 1592.59 565.83"/><path class="cls-40" d="M1611.76,721c.14-1,.3-2,.5-3h-7.52v3Z"/><rect class="cls-40" x="1604.74" y="565.83" width="0.9" height="3"/><path class="cls-49" d="M1738.37,721v-3h-5.76c.19,1,.35,2,.49,3Z"/><polygon class="cls-49" points="1728.05 565.83 1728.05 568.83 1731.39 568.83 1738.37 568.83 1738.37 565.83 1728.05 565.83"/><rect class="cls-50" x="1738.37" y="717.98" width="12.15" height="3"/><polygon class="cls-50" points="1738.37 565.83 1738.37 568.83 1742.78 568.83 1750.52 568.83 1750.52 565.83 1738.37 565.83"/><polygon class="cls-51" points="1762.66 720.98 1762.66 717.98 1751.14 717.98 1750.52 717.98 1750.52 720.98 1762.66 720.98"/><polygon class="cls-51" points="1750.52 565.83 1750.52 568.83 1754.17 568.83 1762.66 568.83 1762.66 565.83 1750.52 565.83"/><polygon class="cls-52" points="1774.81 720.98 1786.96 720.98 1786.96 717.98 1784.65 717.98 1762.66 717.98 1762.66 720.98 1774.81 720.98"/><polygon class="cls-52" points="1774.81 565.83 1762.66 565.83 1762.66 568.83 1765.56 568.83 1776.95 568.83 1786.96 568.83 1786.96 565.83 1774.81 565.83"/><path class="cls-53" d="M1335.9,561.51a55.74,55.74,0,0,0-55.58-55.58h-11.26a55.74,55.74,0,0,0-55.58,55.58v11.26a55.74,55.74,0,0,0,55.58,55.58h11.26a55.74,55.74,0,0,0,55.58-55.58V561.51Zm-25.42,30c-.88,2.31-1.91,4.67-4.7,4.94s-5.63,0-8.53,0v-5.32h5.44c2.27,0,2.52-.42,1.43-2.31q-13.65-23.72-27.31-47.44c-.2-.37-.41-.73-.64-1.08-.76-1.17-1.55-1.24-2.24-.07-2.17,3.65-4.26,7.33-6.37,11,15.58,11.23,23,26.41,23,45.54h-17.29c.68-12.66-4.35-22.69-14.61-30.35l-3.1,5.73a24.1,24.1,0,0,1,9.32,12.54,30,30,0,0,1,1.65,12,6.15,6.15,0,0,1-1,.16c-6.4,0-12.81,0-19.22,0-3.58,0-6-1.91-6.55-5.34a6.21,6.21,0,0,1,.44-3.49c1.29-2.68,2.85-5.24,4.46-8.12l4.83,2.64c-1.4,2.48-2.65,4.66-3.86,6.86-.61,1.1-.32,1.72.93,1.74,4.72.05,9.44,0,14.34,0-1.26-8.07-5.86-13.47-12.8-17.28,3-5,5.85-9.93,8.79-14.94,13.3,6.88,19.67,18.24,21.8,32.61,1.71,0,3.44,0,5.16,0,.41,0,.82-.06,1.49-.1-2.1-16.93-10.17-29.68-25.31-37.89,2.4-4.22,4.76-8.4,7.13-12.57.65-1.14,1.27-2.3,2-3.41a6.78,6.78,0,0,1,11.89.12q14.24,24.66,28.41,49.35c.41.71.71,1.49,1.07,2.24Z"/><path class="cls-54" d="M1281,537.71a6.78,6.78,0,0,0-11.89-.12c-.69,1.11-1.31,2.27-2,3.41-2.37,4.17-4.73,8.35-7.13,12.57,15.14,8.21,23.21,21,25.31,37.89-.67,0-1.08.09-1.49.1-1.72,0-3.45,0-5.16,0-2.13-14.37-8.5-25.73-21.8-32.61-2.94,5-5.83,9.91-8.79,14.94,6.94,3.81,11.54,9.21,12.8,17.28-4.9,0-9.62,0-14.34,0-1.25,0-1.54-.64-.93-1.74,1.21-2.2,2.46-4.38,3.86-6.86l-4.83-2.64c-1.61,2.88-3.17,5.44-4.46,8.12a6.21,6.21,0,0,0-.44,3.49c.6,3.43,3,5.31,6.55,5.34,6.41,0,12.82,0,19.22,0a6.15,6.15,0,0,0,1-.16,30,30,0,0,0-1.65-12,24.1,24.1,0,0,0-9.32-12.54l3.1-5.73c10.26,7.66,15.29,17.69,14.61,30.35h17.29c0-19.13-7.41-34.31-23-45.54,2.11-3.64,4.2-7.32,6.37-11,.69-1.17,1.48-1.1,2.24.07.23.35.44.71.64,1.08q13.67,23.72,27.31,47.44c1.09,1.89.84,2.3-1.43,2.31h-5.44v5.32c2.9,0,5.74.21,8.53,0s3.82-2.63,4.7-4.94v-2.2c-.36-.75-.66-1.53-1.07-2.24Q1295.22,562.37,1281,537.71Z"/><path class="cls-55" d="M1533.5,561.51a55.74,55.74,0,0,0-55.58-55.58h-11.26a55.74,55.74,0,0,0-55.58,55.58v11.26a55.74,55.74,0,0,0,55.58,55.58h11.26a55.74,55.74,0,0,0,55.58-55.58V561.51Zm-64.45-15.25a14.27,14.27,0,0,1-14.27,14.09c-7.81,0-13.93-6-14.29-14.09Zm-28.39,46.67,28.44-34.25v34.25Zm33.39-46.74h28.5l-28.5,34.33Zm0,46.81a14.22,14.22,0,0,1,14-14.09c7.85-.13,14,5.74,14.55,14.09Z"/><path class="cls-54" d="M1502.55,546.19h-28.5v34.33Z"/><path class="cls-54" d="M1469.1,558.68l-28.44,34.25h28.44Z"/><path class="cls-54" d="M1454.78,560.35a14.27,14.27,0,0,0,14.27-14.09h-28.56C1440.85,554.39,1447,560.35,1454.78,560.35Z"/><path class="cls-54" d="M1488.12,578.91a14.22,14.22,0,0,0-14,14.09h28.57C1502.09,584.65,1496,578.78,1488.12,578.91Z"/><path class="cls-53" d="M1465.13,461.28h11.27a55.78,55.78,0,0,0,54.42-44.34c.21-1,.38-2,.53-3a54.64,54.64,0,0,0,.62-8.24V394.44a55.74,55.74,0,0,0-55.57-55.58h-11.27a55.74,55.74,0,0,0-55.57,55.58V405.7a54.64,54.64,0,0,0,.62,8.24c.15,1,.32,2,.53,3A55.78,55.78,0,0,0,1465.13,461.28Zm-2.23-104.93a46,46,0,0,1,53.7,34.44c5.46,22.59-7.8,46.38-29.88,53.62-2.23.73-3.56-.22-3.56-2.57,0-3.65,0-7.3,0-11,0-3.43-.42-6.7-2.93-9.4,2.18-.46,4.24-.78,6.23-1.33,8.83-2.42,13.75-8.49,14.44-17.63a25.47,25.47,0,0,0-.35-8.17,16.76,16.76,0,0,0-3.58-7.05,1.52,1.52,0,0,1-.36-1.64,16.08,16.08,0,0,0-.56-10.62,1.45,1.45,0,0,0-1.13-.68,13.49,13.49,0,0,0-6.18,1.63c-1.67.82-3.24,1.82-4.89,2.68a2.2,2.2,0,0,1-1.39.23,45,45,0,0,0-21.57,0,2.22,2.22,0,0,1-1.49-.26c-3-1.86-6.1-3.59-9.67-4.2-2.13-.35-2.34-.24-2.92,1.8a16.73,16.73,0,0,0-.08,9.71,1.41,1.41,0,0,1-.26,1.13,18.63,18.63,0,0,0-4.19,14,26.53,26.53,0,0,0,2.1,9.22c2.54,5.55,7.12,8.53,12.81,10,1.59.42,3.22.63,4.83.94l1.07.22a11.05,11.05,0,0,0-2.75,5.63c-.05.27-.42.56-.71.68-5.15,2.16-9.7.72-12.69-4a9.51,9.51,0,0,0-6.22-4.65,5.8,5.8,0,0,0-2,0c-.34.05-.89.35-.92.59a1.75,1.75,0,0,0,.48,1.11,3.1,3.1,0,0,0,.92.77,12.34,12.34,0,0,1,5.09,6.26c1.73,4.27,5.07,6.18,9.43,6.48a57,57,0,0,0,6.34-.21c0,.21,0,.59,0,1,0,2.23,0,4.45,0,6.68,0,2.41-1.33,3.42-3.6,2.63a45.06,45.06,0,0,1-23.17-17.68A45.54,45.54,0,0,1,1462.9,356.35Z"/><path class="cls-54" d="M1433.46,426.71a45.06,45.06,0,0,0,23.17,17.68c2.27.79,3.62-.22,3.6-2.63,0-2.23,0-4.45,0-6.68,0-.38,0-.76,0-1a57,57,0,0,1-6.34.21c-4.36-.3-7.7-2.21-9.43-6.48a12.34,12.34,0,0,0-5.09-6.26,3.1,3.1,0,0,1-.92-.77,1.75,1.75,0,0,1-.48-1.11c0-.24.58-.54.92-.59a5.8,5.8,0,0,1,2,0,9.51,9.51,0,0,1,6.22,4.65c3,4.7,7.54,6.14,12.69,4,.29-.12.66-.41.71-.68a11.05,11.05,0,0,1,2.75-5.63l-1.07-.22c-1.61-.31-3.24-.52-4.83-.94-5.69-1.49-10.27-4.47-12.81-10a26.53,26.53,0,0,1-2.1-9.22,18.63,18.63,0,0,1,4.19-14,1.41,1.41,0,0,0,.26-1.13,16.73,16.73,0,0,1,.08-9.71c.58-2,.79-2.15,2.92-1.8,3.57.61,6.64,2.34,9.67,4.2a2.22,2.22,0,0,0,1.49.26,45,45,0,0,1,21.57,0,2.2,2.2,0,0,0,1.39-.23c1.65-.86,3.22-1.86,4.89-2.68a13.49,13.49,0,0,1,6.18-1.63,1.45,1.45,0,0,1,1.13.68,16.08,16.08,0,0,1,.56,10.62,1.52,1.52,0,0,0,.36,1.64,16.76,16.76,0,0,1,3.58,7.05,25.47,25.47,0,0,1,.35,8.17c-.69,9.14-5.61,15.21-14.44,17.63-2,.55-4,.87-6.23,1.33,2.51,2.7,3,6,2.93,9.4,0,3.66,0,7.31,0,11,0,2.35,1.33,3.3,3.56,2.57,22.08-7.24,35.34-31,29.88-53.62a46,46,0,1,0-83.14,35.92Z"/><path class="cls-55" d="M1676.42,384c.41,0,1-.17,1.2-.47,1.41-2.52,2.74-5.1,4.28-8-2.87,0-5.19,0-7.51,0a1.77,1.77,0,0,0-1.17.81c-1.39,2.41-2.71,4.86-4.25,7.65C1671.63,384,1674,384.05,1676.42,384Z"/><path class="cls-55" d="M1647.54,414.05v12.63l8.44-6.32Z"/><path class="cls-55" d="M1659.69,461.28H1671a55.8,55.8,0,0,0,54.43-44.34c.2-1,.38-2,.53-3a56,56,0,0,0,.62-8.24V394.44A55.74,55.74,0,0,0,1671,338.86h-11.26a55.74,55.74,0,0,0-55.58,55.58V405.7a56,56,0,0,0,.62,8.24c.15,1,.33,2,.53,3A55.8,55.8,0,0,0,1659.69,461.28Zm-25.1-88.92c0-6.22,3.43-9.64,9.65-9.64h40.6c6.11,0,9.58,3.44,9.59,9.51q0,28.9,0,57.8c0,6.09-3.47,9.54-9.55,9.54h-40.8c-6,0-9.47-3.46-9.48-9.41q0-14.49,0-29T1634.59,372.36Z"/><path class="cls-55" d="M1656.62,402.2c3.77-1.15,7.61-2,11.6-1.46,3.33.45,4.78,2.12,4.79,5.48,0,4.26,0,8.53,0,12.8v7.59h8.39c0-7.94.21-15.73-.07-23.5-.18-4.92-3.24-8.07-7.9-9.46a19.06,19.06,0,0,0-5.89-.86c-3.78.11-7.54.59-11.57.93v-18h-8.48v29.56C1650.72,404.17,1653.65,403.11,1656.62,402.2Z"/><path class="cls-54" d="M1634.6,430.16c0,5.95,3.51,9.41,9.48,9.41h40.8c6.08,0,9.54-3.45,9.55-9.54q0-28.9,0-57.8c0-6.07-3.48-9.51-9.59-9.51h-40.6c-6.22,0-9.64,3.42-9.65,9.64q0,14.4,0,28.8T1634.6,430.16Zm12.94-3.48V414.05l8.44,6.31Zm25.68-50.3a1.77,1.77,0,0,1,1.17-.81c2.32-.08,4.64,0,7.51,0-1.54,2.91-2.87,5.49-4.28,8-.16.3-.79.46-1.2.47-2.39,0-4.79,0-7.45,0C1670.51,381.24,1671.83,378.79,1673.22,376.38Zm-25.72-.69H1656v18c4-.34,7.79-.82,11.57-.93a19.06,19.06,0,0,1,5.89.86c4.66,1.39,7.72,4.54,7.9,9.46.28,7.77.07,15.56.07,23.5H1673V419c0-4.27,0-8.54,0-12.8,0-3.36-1.46-5-4.79-5.48-4-.54-7.83.31-11.6,1.46-3,.91-5.9,2-9.12,3.05Z"/><path class="cls-53" d="M1728.05,561.51a55.74,55.74,0,0,0-55.58-55.58h-11.26a55.74,55.74,0,0,0-55.58,55.58v11.26a55.74,55.74,0,0,0,55.58,55.58h11.26a55.74,55.74,0,0,0,55.58-55.58V561.51Z"/><path class="cls-55" d="M1284.8,401.92l0,0h0Z"/><path class="cls-55" d="M1285.42,403.06a.75.75,0,0,0-.21.55.77.77,0,1,0,1.54,0h0a.77.77,0,0,0-.79-.75h0A.76.76,0,0,0,1285.42,403.06Z"/><path class="cls-55" d="M1261.07,404.32h0Z"/><path class="cls-55" d="M1262.4,402.38l0,0Z"/><path class="cls-55" d="M1263.27,402h0Z"/><path class="cls-55" d="M1263.17,404.2a.77.77,0,0,0,.24.54.76.76,0,0,0,.55.21.77.77,0,1,0,0-1.54h0a.78.78,0,0,0-.74.79Z"/><path class="cls-55" d="M1261.46,403.47l0,0Z"/><path class="cls-55" d="M1293.56,411.11l3.77-2.64,1.06-7.48a127.21,127.21,0,0,0-12.84-1.63,50.52,50.52,0,0,1-6.35,1.73,27.14,27.14,0,0,1-2.88.47h-.11a18.38,18.38,0,0,1,2.93.56.52.52,0,0,1,.35.34h0l2.21,7.28Zm-8.8-9.19a1.89,1.89,0,0,1,1.35-.65c1.54-.06,3,1.86,3.14,4.28,0,.13,0,.22,0,.34v.23a3.5,3.5,0,0,1-.06.48,2.29,2.29,0,0,1-.07.28c0,.05,0,.12,0,.17a1.49,1.49,0,0,1,1.76.87v0l0,0a3.49,3.49,0,0,0-2.14,0,15.44,15.44,0,0,1-2.1.22H1286a2.89,2.89,0,0,1-1.38-.26.54.54,0,0,1-.12-.09l-.14-.11a1.64,1.64,0,0,1-.21-.25.5.5,0,0,1-.08-.12,2.1,2.1,0,0,1-.18-.4l0-.06a4.08,4.08,0,0,1-.17-1.08A5.43,5.43,0,0,1,1284.76,401.92Z"/><path class="cls-55" d="M1284.52,402.27Z"/><path class="cls-55" d="M1262.8,402.13l.08,0Z"/><path class="cls-55" d="M1299.7,384.51l-1-.39a107.59,107.59,0,0,0-10.66-2.08,13.24,13.24,0,0,1-2.17-1.24,13.57,13.57,0,0,0-1.37-.82v0l1.28.16a102.24,102.24,0,0,1,13.32,2.23,29,29,0,0,0-4-7.34,22.38,22.38,0,0,0-5.45-5.16,26,26,0,0,0-14.7-4,25.47,25.47,0,0,0-14.69,4.17,26.22,26.22,0,0,0-9.45,12.65c.68-.18,8.32-1.36,12.45-2l2.44-.38v0a16,16,0,0,0-1.8,1.2,17.64,17.64,0,0,1-1.74,1.17c-.26.09-2.33.39-4.33.69-1.56.22-3.17.46-3.92.6a34.65,34.65,0,0,0-5.39,1.31c-1,.45-1.81.87-2.56,1.31s-1.64,1.2-1.66,1.44,0,.59,0,1v.48a20.17,20.17,0,0,0,.18,2.9,16.83,16.83,0,0,0,.57,2.54c.13.44.71.35.72.35s1.5-.4,4.23-.92l-.56-.12a13.74,13.74,0,0,1-1.75-.57,7,7,0,0,1-.83-.4,2.73,2.73,0,0,1-.74-.56l0,0,.05,0c2.93,1,9.08.49,14.11,0a126.43,126.43,0,0,1,29.1,0c5,.52,11.18,1,14.11,0l0,0,0,0a2.91,2.91,0,0,1-.73.56,8.83,8.83,0,0,1-.83.4,13.38,13.38,0,0,1-1.76.57l-.2,0c3,.55,4.57,1,4.65,1l.33-.05c0-.15.45-1.92.57-2.84a22.66,22.66,0,0,0,.19-2.91c0-.53,0-1-.07-1.45a4.72,4.72,0,0,0-1.66-1.44c-.76-.44-1.6-.87-2.56-1.31l-1-.44Zm-16.94-6.83h-4.35V375.9h-1v8.2h1.47v4.63h-7.59V384.1h1.47v-8.2h-.94v1.78h-4.35v-6.13h15.24Z"/><path class="cls-55" d="M1295.79,419.07l.42-.88Z"/><path class="cls-55" d="M1251.85,401l1.09,8.8,3.73,2.62,11.87-2.64,2.23-7.32a.5.5,0,0,1,.23-.3l.11-.05h0a18.73,18.73,0,0,1,2.62-.52l2.18-1.32a17.51,17.51,0,0,0,1.85-1.3l-2.57,0h0c-3.35,0-6.75.13-10.09.38a49.4,49.4,0,0,0-5,2.78h0l-3,2,2.08-3c.32-.46.67-.92,1-1.35C1257.29,400.13,1254.41,400.55,1251.85,401Zm7.44,7.89a2.46,2.46,0,0,1,1.73-1.23c0-.06,0-.14-.07-.21l0-.12a4.7,4.7,0,0,1-.17-1.07,5.52,5.52,0,0,1,.2-1.58.75.75,0,0,1,0-.16,6.13,6.13,0,0,1,.22-.6l.09-.19a4.27,4.27,0,0,1,.3-.51c0-.07.09-.12.13-.18s.17-.25.27-.36a2.5,2.5,0,0,1,1.71-.84h0a2.22,2.22,0,0,1,1.88,1.27,6.4,6.4,0,0,1,.76,3.1,2.51,2.51,0,0,1-.51,1.82l-.1.08-.18.12a3.75,3.75,0,0,1-1.76.28h-1.7a5.55,5.55,0,0,0-2.8.39h0Z"/><path class="cls-55" d="M1285.32,401.52l.11-.06Z"/><path class="cls-55" d="M1276.85,428.47l.28,0c.33,0,.68-.07,1.11-.13-.42-.44-.84-.89-1.25-1.34v0l-.65,1.47h.06Z"/><path class="cls-55" d="M1303,392.83l-.11,0Z"/><path class="cls-55" d="M1267.54,461.28h11.26a55.78,55.78,0,0,0,54.42-44.34c.21-1,.38-2,.54-3a56,56,0,0,0,.61-8.24V394.44a55.74,55.74,0,0,0-55.57-55.58h-11.26A55.74,55.74,0,0,0,1212,394.44V405.7a54.64,54.64,0,0,0,.62,8.24c.15,1,.32,2,.53,3A55.79,55.79,0,0,0,1267.54,461.28Zm-28.61-54.23a38.78,38.78,0,0,1,6.38-7.61l-.09,0-.14-.06-.47-.21-.11-.05-.37-.18-.17-.09-.1-.16a1.14,1.14,0,0,1-.12-.19v0l-.1-.18-.05-.09-.14-.28c-.12-.25-.22-.49-.32-.75a15.51,15.51,0,0,1-.5-1.5,19.12,19.12,0,0,1-.58-3.09,18.17,18.17,0,0,1-.09-3.13c0-.14,0-.28,0-.42h0c0-.36.07-.75.12-1.13s.08-.53.13-.78a7.55,7.55,0,0,1,.19-.79l0-.21.15-.12a14,14,0,0,1,2.61-1.56c.69-.33,1.43-.63,2.26-.94a34.9,34.9,0,0,1,1.57-3.67h0a33.63,33.63,0,0,1,3.91-6.13,29.42,29.42,0,0,1,5.12-5,27.67,27.67,0,0,1,33.85,0,30,30,0,0,1,6.31,6.55,34.3,34.3,0,0,1,4.29,8.24c.84.31,1.58.62,2.26.94a14,14,0,0,1,2.61,1.56l.14.12.06.21c.09.3.14.55.19.79s.09.53.12.78a13.72,13.72,0,0,1,.15,1.56h0a18,18,0,0,1-.09,3.13,18.67,18.67,0,0,1-.58,3.08,15.7,15.7,0,0,1-.5,1.51c-.1.25-.21.5-.32.74a2.55,2.55,0,0,1-.19.37l-.1.18a1.57,1.57,0,0,1-.12.21l-.11.17-.17.08-.46.23h0l-.47.21c-.27.12-.55.23-.82.33l-.12.05a5.68,5.68,0,0,1-.8.13,3.91,3.91,0,0,0-.71.11l-.21,2h0c0,.24-.41,3.42-.6,5.12h0l-2.11,4.7-.72,3a30.62,30.62,0,0,1-1.8,4.61h0l.1-.05c1.36-.71,4-1.85,4-1.86l2-.89-1.08,2c-.54,1-2.38,4.5-3.58,6.9a6,6,0,0,1-2.64,2.7,10.59,10.59,0,0,1-2.76.94l-.62.15c-1,.29-3,.75-4.83,1.21l-.4.09h-.07a22.78,22.78,0,0,1-3.93,1.94,22.09,22.09,0,0,1-7.86,1.44h-.08a22.69,22.69,0,0,1-7.77-1.41l-3.28.4c-.6.06-1.2.09-1.79.1-4.76,0-7.28-2.42-9.12-4.78s-4-5.77-4.47-6.43v0l-1.42-2.21,2.4,1.07,5.2,2.4.25.11h.06l.14-.05a28.88,28.88,0,0,1-3.82-7.73l-.42-1.28c0-.09,0-.18-.08-.27s0-.11,0-.16a3.09,3.09,0,0,0-.09-.31l-1.85-1.3a.51.51,0,0,1-.21-.35l-.9-7.33L1248,403l-.07-.54a57.31,57.31,0,0,0-7.9,5.49h0l-3.6,3.16Z"/><path class="cls-55" d="M1276.13,432.78a23.74,23.74,0,0,0,7.17-1.63,6.71,6.71,0,0,1-4.21-2h0l-.17-.17a15.85,15.85,0,0,1-1.74.25h-.25l-.5,0h-.53a2.34,2.34,0,0,1-.25.3l-.12.15a6.58,6.58,0,0,1-2.3,1.62l-.09,0-.36.16a10.1,10.1,0,0,1-2.11.55h0l-.36.05A17.59,17.59,0,0,0,1276.13,432.78Z"/><path class="cls-55" d="M1277.64,429.17a7,7,0,0,0,.78-.11C1278.17,429.11,1277.9,429.14,1277.64,429.17Z"/><path class="cls-55" d="M1285.71,401.36l.15,0Z"/><path class="cls-55" d="M1273,415.56l-.14,0Z"/><path class="cls-55" d="M1273.76,415.76l-.09,0Z"/><path class="cls-55" d="M1297.45,415.07c.15-.43.3-.87.43-1.31s.19-.69.26-1l-.47.33-1.35,1-1.47,1a.46.46,0,0,1-.35.09l-14.59-1.66-.22,0-.85-.1a.5.5,0,0,1-.43-.36l-2.28-7.51a7.18,7.18,0,0,0-2,0l-2.21,7.29a.52.52,0,0,1-.38.35l-1.06.24L1256,416.61h-.11a.53.53,0,0,1-.3-.09l-.56-.39-1.7-1.19h0l-.64-.45c0,.13.08.26.13.38v0s.22.66.63,1.63a32.88,32.88,0,0,0,3.47,6.21c2.75-.81,5.12-1.56,6-1.84l.08,0a19.21,19.21,0,0,1,2.76-3.4,5,5,0,0,1,2.77-1.62l.86,0a19.48,19.48,0,0,1,2.22.13,2.64,2.64,0,0,1-.75-1.33l0-.11v0l0,0a7.26,7.26,0,0,0,1.37.77,6.55,6.55,0,0,0,3.34.51,8.43,8.43,0,0,0,4.28-1.86l0,0v0a2.71,2.71,0,0,1-1.1,1.93,15.36,15.36,0,0,1,3.69-.87,1.85,1.85,0,0,1,1.33.54l.09.07a.39.39,0,0,0,.1.08l4.34,3.45.27,0c.9.1,2.77.31,4,.42a21.61,21.61,0,0,0,2.23.14q.32,0,.63,0A35.38,35.38,0,0,0,1297.45,415.07Z"/><path class="cls-55" d="M1297.16,415.88c-.1.29-.22.58-.33.86Z"/><path class="cls-54" d="M1261.05,407.69h0a2.46,2.46,0,0,0-1.7,1.17,5.67,5.67,0,0,1,2.77-.37h1.7a2.75,2.75,0,0,0,2-.47,2.46,2.46,0,0,0,.5-1.8,6.29,6.29,0,0,0-.75-3.08,2.23,2.23,0,0,0-1.86-1.26h0a1.52,1.52,0,0,0-.42.06h0a2,2,0,0,0-.39.14l-.08,0a2.57,2.57,0,0,0-.38.23l0,0a3,3,0,0,0-.38.34,4,4,0,0,0-.54.72l0,0a4.58,4.58,0,0,0-.38.84h0a5.55,5.55,0,0,0-.29,2A4,4,0,0,0,1261.05,407.69Zm2.87-4.31h0a.79.79,0,0,1,.79.78.8.8,0,0,1-.78.82h0a.8.8,0,0,1-.8-.78h0A.8.8,0,0,1,1263.92,403.38Z"/><path class="cls-54" d="M1261.21,403.94l.09-.19Z"/><path class="cls-54" d="M1261,404.7a.75.75,0,0,1,0-.16A.75.75,0,0,0,1261,404.7Z"/><path class="cls-54" d="M1261.6,403.24c0-.07.09-.12.13-.18S1261.64,403.17,1261.6,403.24Z"/><path class="cls-54" d="M1261,407.47l0-.12Z"/><path class="cls-54" d="M1265.75,408.13l-.18.12Z"/><path class="cls-54" d="M1284.52,402.27h0a5.85,5.85,0,0,0-.83,3.48c0,1.11.32,1.77.9,2.09a4.13,4.13,0,0,0,2,.24,15.45,15.45,0,0,0,2.09-.22,3.63,3.63,0,0,1,2.13,0,1.49,1.49,0,0,0-1.75-.81h0v0a3.1,3.1,0,0,0,.18-1.51c-.18-2.4-1.58-4.31-3.11-4.25a1.9,1.9,0,0,0-.25,0l-.15,0-.28.1-.11.06a2.13,2.13,0,0,0-.52.4l0,0A2.72,2.72,0,0,0,1284.52,402.27Zm.88.77a.8.8,0,0,1,.56-.24h0a.8.8,0,0,1,.82.78h0a.82.82,0,0,1-.79.82h0a.8.8,0,0,1-.8-.79A.76.76,0,0,1,1285.4,403Z"/><path class="cls-54" d="M1283.85,406.89l0-.06Z"/><path class="cls-54" d="M1284.11,407.41a.5.5,0,0,1-.08-.12A.5.5,0,0,0,1284.11,407.41Z"/><path class="cls-54" d="M1284.46,407.77l-.14-.11Z"/><path class="cls-54" d="M1289.19,406.6a2.86,2.86,0,0,1-.07.28A2.29,2.29,0,0,0,1289.19,406.6Z"/><path class="cls-54" d="M1289.25,405.89v0Z"/><polygon class="cls-54" points="1267.55 371.58 1267.55 377.65 1271.84 377.65 1271.84 375.87 1272.84 375.87 1272.84 384.13 1271.37 384.13 1271.37 388.7 1278.91 388.7 1278.91 384.13 1277.44 384.13 1277.44 375.87 1278.44 375.87 1278.44 377.65 1282.73 377.65 1282.73 371.58 1267.55 371.58"/><path class="cls-54" d="M1267.52,371.55v6.13h4.35V375.9h.94v8.2h-1.47v4.63h7.59V384.1h-1.47v-8.2h1v1.78h4.35v-6.13Zm15.21,6.1h-4.29v-1.78h-1v8.26h1.47v4.57h-7.54v-4.57h1.47v-8.26h-1v1.78h-4.29v-6.07h15.18Z"/><path class="cls-54" d="M1262.11,408.54h1.7a3.75,3.75,0,0,0,1.76-.28l.18-.12.1-.08a2.51,2.51,0,0,0,.51-1.82,6.4,6.4,0,0,0-.76-3.1,2.22,2.22,0,0,0-1.88-1.27h0a2.5,2.5,0,0,0-1.71.84c-.1.11-.18.24-.27.36s-.09.11-.13.18a4.27,4.27,0,0,0-.3.51l-.09.19a6.13,6.13,0,0,0-.22.6.75.75,0,0,0,0,.16,5.52,5.52,0,0,0-.2,1.58,4.7,4.7,0,0,0,.17,1.07l0,.12c0,.07,0,.15.07.21a2.46,2.46,0,0,0-1.73,1.23v0h0A5.55,5.55,0,0,1,1262.11,408.54Zm-1-4.23a4.58,4.58,0,0,1,.38-.84l0,0a4,4,0,0,1,.54-.72,3,3,0,0,1,.38-.34l0,0a2.57,2.57,0,0,1,.38-.23l.08,0a2,2,0,0,1,.39-.14h0a1.52,1.52,0,0,1,.42-.06h0a2.23,2.23,0,0,1,1.86,1.26,6.29,6.29,0,0,1,.75,3.08,2.46,2.46,0,0,1-.5,1.8,2.75,2.75,0,0,1-2,.47h-1.7a5.67,5.67,0,0,0-2.77.37,2.46,2.46,0,0,1,1.7-1.17h0a4,4,0,0,1-.27-1.41,5.55,5.55,0,0,1,.29-2Z"/><path class="cls-54" d="M1263.39,404.76a.82.82,0,0,0,.55.22h0a.8.8,0,0,0,.78-.82.79.79,0,0,0-.79-.78h0a.8.8,0,0,0-.78.82h0A.81.81,0,0,0,1263.39,404.76Zm.52-1.35h0a.77.77,0,1,1,0,1.54.76.76,0,0,1-.55-.21.77.77,0,0,1-.24-.54h0A.78.78,0,0,1,1263.91,403.41Z"/><path class="cls-54" d="M1283.85,406.89a2.1,2.1,0,0,0,.18.4.5.5,0,0,0,.08.12,1.64,1.64,0,0,0,.21.25l.14.11a.54.54,0,0,0,.12.09,2.89,2.89,0,0,0,1.38.26h.62a15.44,15.44,0,0,0,2.1-.22,3.49,3.49,0,0,1,2.14,0l0,0v0a1.49,1.49,0,0,0-1.76-.87c0-.05,0-.12,0-.17a2.86,2.86,0,0,0,.07-.28,3.5,3.5,0,0,0,.06-.48v-.23c0-.12,0-.21,0-.34-.19-2.42-1.6-4.34-3.14-4.28a1.89,1.89,0,0,0-1.35.65,5.43,5.43,0,0,0-1.1,3.83,4.08,4.08,0,0,0,.17,1.08Zm1-5a2.13,2.13,0,0,1,.52-.4l.11-.06.28-.1.15,0a1.9,1.9,0,0,1,.25,0c1.53-.06,2.93,1.85,3.11,4.25a3.1,3.1,0,0,1-.18,1.51v0h0a1.49,1.49,0,0,1,1.75.81,3.63,3.63,0,0,0-2.13,0,15.45,15.45,0,0,1-2.09.22,4.13,4.13,0,0,1-2-.24c-.58-.32-.86-1-.9-2.09a5.85,5.85,0,0,1,.83-3.48h0a2.72,2.72,0,0,1,.25-.32h0Z"/><path class="cls-54" d="M1286,404.4h0a.82.82,0,0,0,.79-.82h0a.8.8,0,0,0-.82-.78h0a.8.8,0,0,0-.56.24.76.76,0,0,0-.22.57A.8.8,0,0,0,1286,404.4Zm0-1.57a.77.77,0,0,1,.79.75h0a.77.77,0,1,1-1.54,0,.75.75,0,0,1,.21-.55.76.76,0,0,1,.54-.23Z"/><path class="cls-54" d="M1273.13,431.4l.09,0Z"/><path class="cls-54" d="M1275.52,429.74l.12-.15Z"/><path class="cls-54" d="M1300.42,384.82l-.72-.31Z"/><path class="cls-54" d="M1236.5,410.93l3.46-3a58.86,58.86,0,0,1,7.93-5.5h0l.07.59.18,1.43.9,7.32a.5.5,0,0,0,.2.34l1.85,1.3h0l.1.32c0,.05,0,.11,0,.16s0,.18.08.28l.42,1.27a29,29,0,0,0,3.83,7.74v0h0l-.17,0-.07,0-.25-.12c-1.25-.57-4.15-1.92-5.2-2.39l-2.31-1,1.38,2.15c.42.66,2.63,4.07,4.46,6.43s4.36,4.77,9.1,4.77a17.7,17.7,0,0,0,1.78-.1c1.19-.14,2.41-.28,3.29-.4h0a22.59,22.59,0,0,0,7.76,1.41h.08a22,22,0,0,0,7.85-1.44,22.78,22.78,0,0,0,3.93-1.94h.07l.41-.09c1.87-.45,3.81-.92,4.82-1.2l.62-.16c1.51-.34,4-.92,5.39-3.63,1.19-2.39,3-5.88,3.58-6.9l0,0,1-1.9-2,.86s-2.65,1.15-4,1.86l-.11.05,0,0,0,0,0,0a28.56,28.56,0,0,0,1.82-4.63l.73-3,2.1-4.7c.52-4.52.59-5.07.6-5.14h0l.21-2h0a4.42,4.42,0,0,1,.73-.12,4.51,4.51,0,0,0,.79-.13l.12,0,.82-.34.49-.22.46-.22.16-.08.1-.16.13-.21.1-.18c.06-.11.12-.23.18-.37s.23-.49.33-.74c.18-.49.35-1,.5-1.5a19.71,19.71,0,0,0,.57-3.08,18,18,0,0,0,.09-3.13h0c0-.52-.07-1-.14-1.55,0-.26-.08-.52-.13-.78s-.1-.5-.19-.8l0-.19-.14-.12a13.72,13.72,0,0,0-2.61-1.56c-.68-.32-1.42-.63-2.26-.93h0a33.76,33.76,0,0,0-4.29-8.24,29.76,29.76,0,0,0-6.3-6.55,27.65,27.65,0,0,0-33.81,0,29.42,29.42,0,0,0-5.12,5,33.29,33.29,0,0,0-3.91,6.13h0a33.86,33.86,0,0,0-1.57,3.66h0c-.84.3-1.58.61-2.27.93a13.93,13.93,0,0,0-2.6,1.56l-.14.12-.06.19c-.07.27-.13.53-.18.8s-.09.49-.13.78-.09.75-.12,1.1h0v0l0,.43a20.43,20.43,0,0,0,.09,3.13,20.14,20.14,0,0,0,.58,3.08q.22.76.51,1.5c.1.26.2.5.32.74s.09.19.14.29l0,.08.11.2.12.19.1.16.16.08.37.18.12.06.46.21.14.06.11,0h0l0,0a38.26,38.26,0,0,0-6.39,7.62Zm23.58-8.84a52.36,52.36,0,0,1,5-2.77h0c3.35-.26,6.75-.39,10.1-.39h0l2.61,0h0l0,0a18.31,18.31,0,0,1-1.89,1.33l-2.18,1.32h0a18.39,18.39,0,0,0-2.62.52h0l-.11,0a.53.53,0,0,0-.22.27l-2.23,7.34h0l-11.89,2.64h0l-3.75-2.63h0l-1.09-8.83h0c2.58-.47,5.48-.9,8.39-1.22h0l0,0c-.37.44-.73.91-1.06,1.38l-2,2.86Zm33.48,9.05-11.88-1.35h0l-2.22-7.3h0a.48.48,0,0,0-.33-.32,17.83,17.83,0,0,0-3.09-.57v0l.28,0c.13,0,1.2-.14,2.87-.48a50.59,50.59,0,0,0,6.36-1.73h0a127.37,127.37,0,0,1,12.86,1.63h0l-1.07,7.53h0l-3.78,2.65Zm-17.27,17.36c.28-.62.49-1.1.66-1.49l0-.09v0c.42.47.85.93,1.28,1.38l0,0h0c-.44.07-.8.11-1.14.14l-.28,0-.46,0h-.1Zm7.08,2.65a23.4,23.4,0,0,1-7.24,1.66c-.36,0-.72,0-1.09,0a18.54,18.54,0,0,1-4.82-.67l-.06,0h.06l.43-.07h0a10,10,0,0,0,2.11-.55,6.33,6.33,0,0,0,3.11-2.26h.55l.49,0h.26l.47-.06c.26,0,.53-.06.78-.11l.49-.08h0l.17.18h0a6.67,6.67,0,0,0,4.25,1.95h.06Zm12.1-11.41h0c-.21,0-.43,0-.64,0-.68,0-1.35-.05-2.23-.13-1.24-.11-3.1-.32-4-.42l-.28,0h0l-4.35-3.44-.1-.08a.6.6,0,0,1-.08-.08,1.84,1.84,0,0,0-1.32-.53,15.77,15.77,0,0,0-3.76.89l-.08,0,.07,0a2.74,2.74,0,0,0,1.15-1.93,8.33,8.33,0,0,1-4.27,1.85,6.06,6.06,0,0,1-1.81-.07l-.09,0a5.41,5.41,0,0,1-.72-.18l-.14,0c-.2-.07-.39-.12-.59-.21a7.67,7.67,0,0,1-1.34-.74s0,0,0,.06a2.68,2.68,0,0,0,.77,1.35l0,0h0a18.13,18.13,0,0,0-2.26-.14c-.29,0-.58,0-.86,0a5,5,0,0,0-2.75,1.61,18.75,18.75,0,0,0-2.75,3.4h0l-.09,0c-.89.29-3.26,1-6,1.85h0a32.06,32.06,0,0,1-3.47-6.22c-.43-1-.63-1.61-.64-1.63v0l-.15-.42v0l.73.51h0l1.68,1.18.57.4a.54.54,0,0,0,.28.08h.1l14.49-3.22,1.06-.24a.5.5,0,0,0,.36-.33l2.22-7.31h0a6.75,6.75,0,0,1,1-.08,6.65,6.65,0,0,1,1,.08h0l2.29,7.51a.48.48,0,0,0,.4.35l1.07.12,14.59,1.66a.49.49,0,0,0,.33-.09l1.47-1,1.35-.94.54-.38v0c-.08.32-.16.66-.27,1s-.28.88-.43,1.31-.21.53-.32.8l-.33.86c-.2.5-.41,1-.62,1.45l-.42.88C1295.68,419.29,1295.58,419.52,1295.47,419.74ZM1245,394.91a16.56,16.56,0,0,1-.57-2.54,20.17,20.17,0,0,1-.18-2.9V389c0-.4,0-.7,0-1s.89-1,1.67-1.46,1.6-.87,2.57-1.31a34.17,34.17,0,0,1,5.4-1.32c.74-.14,2.35-.37,3.91-.6,2-.29,4.07-.6,4.33-.69a18,18,0,0,0,1.73-1.16c.69-.49,1.4-1,1.72-1.17l-2.35.37c-4.2.65-12,1.86-12.47,2h0v0a26.21,26.21,0,0,1,9.47-12.69,25.54,25.54,0,0,1,14.71-4.18,26,26,0,0,1,14.72,4,22.56,22.56,0,0,1,5.45,5.16,29.64,29.64,0,0,1,4,7.37v0h0a102.46,102.46,0,0,0-13.34-2.23c-.54-.07-.95-.11-1.18-.15.25.13.74.44,1.29.79a12.59,12.59,0,0,0,2.16,1.23,108.23,108.23,0,0,1,10.66,2.08c.81.33,1.76.72,2.67,1.15s1.8.86,2.57,1.31,1.65,1.21,1.67,1.46c0,.44.06.91.06,1.45a20.85,20.85,0,0,1-.18,2.91h0c-.13,1-.57,2.83-.57,2.85h0l-.36.06h0s-1.66-.45-4.72-1l-.07,0h.07l.27-.06a15.48,15.48,0,0,0,1.75-.56,8.72,8.72,0,0,0,.82-.4,3.05,3.05,0,0,0,.69-.52c-.14.05-.32.08-.47.12l-.11,0a20.22,20.22,0,0,1-4.46.4c-2.82,0-6.11-.28-9-.58a126.43,126.43,0,0,0-29.1,0c-5,.51-11.11,1-14.07,0a3.57,3.57,0,0,0,.69.52c.27.15.57.28.83.4a14.86,14.86,0,0,0,1.75.56l.64.13h.07l-.07,0c-2.79.53-4.3.93-4.32.94h-.13A.59.59,0,0,1,1245,394.91Z"/><path class="cls-54" d="M1240,407.93h0a57.31,57.31,0,0,1,7.9-5.49l.07.54.18,1.43.9,7.33a.51.51,0,0,0,.21.35l1.85,1.3a3.09,3.09,0,0,1,.09.31c0,.05,0,.11,0,.16s0,.18.08.27l.42,1.28a28.88,28.88,0,0,0,3.82,7.73l-.14.05h-.06l-.25-.11-5.2-2.4-2.4-1.07,1.42,2.21v0c.43.66,2.64,4.07,4.47,6.43s4.36,4.78,9.12,4.78c.59,0,1.19,0,1.79-.1l3.28-.4a22.69,22.69,0,0,0,7.77,1.41h.08a22.09,22.09,0,0,0,7.86-1.44,22.78,22.78,0,0,0,3.93-1.94h.07l.4-.09c1.88-.46,3.82-.92,4.83-1.21l.62-.15a10.59,10.59,0,0,0,2.76-.94,6,6,0,0,0,2.64-2.7c1.2-2.4,3-5.89,3.58-6.9l1.08-2-2,.89s-2.65,1.15-4,1.86l-.1.05h0a30.62,30.62,0,0,0,1.8-4.61l.72-3,2.11-4.7h0c.19-1.7.56-4.88.6-5.12h0l.21-2a3.91,3.91,0,0,1,.71-.11,5.68,5.68,0,0,0,.8-.13l.12-.05c.27-.1.55-.21.82-.33l.47-.21h0l.46-.23.17-.08.11-.17a1.57,1.57,0,0,0,.12-.21l.1-.18a2.55,2.55,0,0,0,.19-.37c.11-.24.22-.49.32-.74a15.7,15.7,0,0,0,.5-1.51,18.67,18.67,0,0,0,.58-3.08,18,18,0,0,0,.09-3.13h0a13.72,13.72,0,0,0-.15-1.56c0-.25-.07-.52-.12-.78s-.1-.49-.19-.79l-.06-.21-.14-.12a14,14,0,0,0-2.61-1.56c-.68-.32-1.42-.63-2.26-.94a34.3,34.3,0,0,0-4.29-8.24,30,30,0,0,0-6.31-6.55,27.67,27.67,0,0,0-33.85,0,29.42,29.42,0,0,0-5.12,5,33.63,33.63,0,0,0-3.91,6.13h0a34.9,34.9,0,0,0-1.57,3.67c-.83.31-1.57.61-2.26.94a14,14,0,0,0-2.61,1.56l-.15.12,0,.21a7.55,7.55,0,0,0-.19.79c0,.25-.09.5-.13.78s-.09.77-.12,1.13h0c0,.14,0,.28,0,.42a18.17,18.17,0,0,0,.09,3.13,19.12,19.12,0,0,0,.58,3.09,15.51,15.51,0,0,0,.5,1.5c.1.26.2.5.32.75l.14.28.05.09.1.18v0a1.14,1.14,0,0,0,.12.19l.1.16.17.09.37.18.11.05.47.21.14.06.09,0a38.78,38.78,0,0,0-6.38,7.61l-2.56,4Zm5.38-8.48,0,0h0l-.11,0-.14-.06-.46-.21-.12-.06-.37-.18-.16-.08-.1-.16-.12-.19-.11-.2,0-.08c0-.1-.1-.19-.14-.29s-.22-.48-.32-.74q-.29-.74-.51-1.5a20.14,20.14,0,0,1-.58-3.08,20.43,20.43,0,0,1-.09-3.13l0-.43v0h0c0-.35.07-.73.12-1.1s.08-.54.13-.78.11-.53.18-.8l.06-.19.14-.12a13.93,13.93,0,0,1,2.6-1.56c.69-.32,1.43-.63,2.27-.93h0a33.86,33.86,0,0,1,1.57-3.66h0a33.29,33.29,0,0,1,3.91-6.13,29.42,29.42,0,0,1,5.12-5,27.65,27.65,0,0,1,33.81,0,29.76,29.76,0,0,1,6.3,6.55,33.76,33.76,0,0,1,4.29,8.24h0c.84.3,1.58.61,2.26.93a13.72,13.72,0,0,1,2.61,1.56l.14.12,0,.19c.09.3.14.56.19.8s.09.52.13.78c.07.51.12,1,.14,1.55h0a18,18,0,0,1-.09,3.13,19.71,19.71,0,0,1-.57,3.08c-.15.5-.32,1-.5,1.5-.1.25-.21.5-.33.74s-.12.26-.18.37l-.1.18-.13.21-.1.16-.16.08-.46.22-.49.22-.82.34-.12,0a4.51,4.51,0,0,1-.79.13,4.42,4.42,0,0,0-.73.12h0l-.21,2h0c0,.07-.08.62-.6,5.14l-2.1,4.7-.73,3a28.56,28.56,0,0,1-1.82,4.63l0,0,0,0,0,0,.11-.05c1.35-.71,4-1.85,4-1.86l2-.86-1,1.9,0,0c-.54,1-2.39,4.51-3.58,6.9-1.35,2.71-3.88,3.29-5.39,3.63l-.62.16c-1,.28-3,.75-4.82,1.2l-.41.09h-.07a22.78,22.78,0,0,1-3.93,1.94,22,22,0,0,1-7.85,1.44h-.08a22.59,22.59,0,0,1-7.76-1.41h0c-.88.12-2.1.26-3.29.4a17.7,17.7,0,0,1-1.78.1c-4.74,0-7.26-2.41-9.1-4.77s-4-5.77-4.46-6.43l-1.38-2.15,2.31,1c1,.47,3.95,1.82,5.2,2.39l.25.12.07,0,.17,0h0v0a29,29,0,0,1-3.83-7.74l-.42-1.27c0-.1-.06-.19-.08-.28s0-.11,0-.16l-.1-.32h0l-1.85-1.3a.5.5,0,0,1-.2-.34l-.9-7.32L1248,403l-.07-.59h0a58.86,58.86,0,0,0-7.93,5.5l-3.46,3,2.46-3.86A38.26,38.26,0,0,1,1245.35,399.45Z"/><path class="cls-54" d="M1296.83,416.74c.11-.28.23-.57.33-.86s.22-.52.32-.8.29-.87.43-1.31.19-.72.27-1v0l-.54.38-1.35.94-1.47,1a.49.49,0,0,1-.33.09l-14.59-1.66-1.07-.12a.48.48,0,0,1-.4-.35l-2.29-7.51h0a6.65,6.65,0,0,0-1-.08,6.75,6.75,0,0,0-1,.08h0l-2.22,7.31a.5.5,0,0,1-.36.33l-1.06.24L1256,416.58h-.1a.54.54,0,0,1-.28-.08l-.57-.4-1.68-1.18h0l-.73-.51v0l.15.42v0s.21.64.64,1.63a32.06,32.06,0,0,0,3.47,6.22h0c2.76-.81,5.13-1.56,6-1.85l.09,0h0a18.75,18.75,0,0,1,2.75-3.4,5,5,0,0,1,2.75-1.61c.28,0,.57,0,.86,0a18.13,18.13,0,0,1,2.26.14h0l0,0a2.68,2.68,0,0,1-.77-1.35s0,0,0-.06a7.67,7.67,0,0,0,1.34.74c.2.09.39.14.59.21l.14,0a5.41,5.41,0,0,0,.72.18l.09,0a6.06,6.06,0,0,0,1.81.07,8.33,8.33,0,0,0,4.27-1.85,2.74,2.74,0,0,1-1.15,1.93l-.07,0,.08,0a15.77,15.77,0,0,1,3.76-.89,1.84,1.84,0,0,1,1.32.53.6.6,0,0,0,.08.08l.1.08,4.35,3.44h0l.28,0c.9.1,2.76.31,4,.42.88.08,1.55.13,2.23.13.21,0,.43,0,.64,0h0c.11-.22.21-.45.32-.67l.42-.88C1296.42,417.72,1296.63,417.24,1296.83,416.74Zm-2,3a21.61,21.61,0,0,1-2.23-.14c-1.23-.11-3.1-.32-4-.42l-.27,0L1284,415.7a.39.39,0,0,1-.1-.08l-.09-.07a1.85,1.85,0,0,0-1.33-.54,15.36,15.36,0,0,0-3.69.87,2.71,2.71,0,0,0,1.1-1.93v0l0,0a8.43,8.43,0,0,1-4.28,1.86,6.55,6.55,0,0,1-3.34-.51,7.26,7.26,0,0,1-1.37-.77l0,0v0l0,.11a2.64,2.64,0,0,0,.75,1.33,19.48,19.48,0,0,0-2.22-.13l-.86,0a5,5,0,0,0-2.77,1.62,19.21,19.21,0,0,0-2.76,3.4l-.08,0c-.89.28-3.26,1-6,1.84a32.88,32.88,0,0,1-3.47-6.21c-.41-1-.61-1.58-.63-1.63v0c0-.12-.09-.25-.13-.38l.64.45h0l1.7,1.19.56.39a.53.53,0,0,0,.3.09h.11l14.49-3.23,1.06-.24a.52.52,0,0,0,.38-.35l2.21-7.29a7.18,7.18,0,0,1,2,0l2.28,7.51a.5.5,0,0,0,.43.36l.85.1.22,0,14.59,1.66a.46.46,0,0,0,.35-.09l1.47-1,1.35-1,.47-.33c-.07.31-.16.64-.26,1s-.28.88-.43,1.31a35.38,35.38,0,0,1-2,4.64Q1295.14,419.74,1294.82,419.74Z"/><path class="cls-54" d="M1276.3,428.52h.09l.46,0,.28,0c.34,0,.7-.07,1.14-.14h0l0,0c-.43-.45-.86-.91-1.28-1.38v0l0,.09c-.17.39-.38.87-.66,1.49h0Zm.68-1.5v0c.41.45.83.9,1.25,1.34-.43.06-.78.11-1.11.13l-.28,0-.46,0h-.06Z"/><path class="cls-54" d="M1297.35,408.49l1.07-7.53h0a127.37,127.37,0,0,0-12.86-1.63h0a50.59,50.59,0,0,1-6.36,1.73c-1.67.34-2.74.47-2.87.48l-.28,0v0a17.83,17.83,0,0,1,3.09.57.48.48,0,0,1,.33.32h0l2.22,7.3h0l11.88,1.35h0l3.78-2.65Zm-17.86-6a.52.52,0,0,0-.35-.34,18.38,18.38,0,0,0-2.93-.56h.11a27.14,27.14,0,0,0,2.88-.47,50.52,50.52,0,0,0,6.35-1.73,127.21,127.21,0,0,1,12.84,1.63l-1.06,7.48-3.77,2.64-11.86-1.35-2.21-7.28Z"/><path class="cls-54" d="M1260.23,399.79l0,0h0c-2.91.32-5.81.75-8.39,1.22h0l1.09,8.83h0l3.75,2.63h0l11.89-2.64h0l2.23-7.34a.53.53,0,0,1,.22-.27l.11,0h0a18.39,18.39,0,0,1,2.62-.52h0l2.18-1.32a18.31,18.31,0,0,0,1.89-1.33l0,0h0l-2.61,0h0c-3.35,0-6.75.13-10.1.39h0a52.36,52.36,0,0,0-5,2.77l-2.9,1.94,2-2.86C1259.5,400.7,1259.86,400.23,1260.23,399.79Zm-3.16,4.35,3-2h0a49.4,49.4,0,0,1,5-2.78c3.34-.25,6.74-.38,10.09-.38h0l2.57,0a17.51,17.51,0,0,1-1.85,1.3l-2.18,1.32a18.73,18.73,0,0,0-2.62.52h0l-.11.05a.5.5,0,0,0-.23.3l-2.23,7.32-11.87,2.64-3.73-2.62-1.09-8.8c2.56-.47,5.44-.89,8.33-1.22-.36.43-.71.89-1,1.35Z"/><path class="cls-54" d="M1245.78,395.29s1.53-.41,4.32-.94l.07,0h-.07l-.64-.13a14.86,14.86,0,0,1-1.75-.56c-.26-.12-.56-.25-.83-.4a3.57,3.57,0,0,1-.69-.52c3,.94,9.07.47,14.07,0a126.43,126.43,0,0,1,29.1,0c2.92.3,6.21.58,9,.58a20.22,20.22,0,0,0,4.46-.4l.11,0c.15,0,.33-.07.47-.12a3.05,3.05,0,0,1-.69.52,8.72,8.72,0,0,1-.82.4,15.48,15.48,0,0,1-1.75.56l-.27.06h-.07l.07,0c3.06.56,4.7,1,4.72,1h0l.36-.06h0s.44-1.89.57-2.85h0a20.85,20.85,0,0,0,.18-2.91c0-.54,0-1-.06-1.45,0-.25-.9-1-1.67-1.46s-1.61-.87-2.57-1.31-1.86-.82-2.67-1.15A108.23,108.23,0,0,0,1288.1,382a12.59,12.59,0,0,1-2.16-1.23c-.55-.35-1-.66-1.29-.79.23,0,.64.08,1.18.15a102.46,102.46,0,0,1,13.34,2.23h0v0a29.64,29.64,0,0,0-4-7.37,22.56,22.56,0,0,0-5.45-5.16,26,26,0,0,0-14.72-4,25.54,25.54,0,0,0-14.71,4.18,26.21,26.21,0,0,0-9.47,12.69v0h0c.45-.15,8.27-1.36,12.47-2l2.35-.37c-.32.17-1,.68-1.72,1.17a18,18,0,0,1-1.73,1.16c-.26.09-2.33.4-4.33.69-1.56.23-3.17.46-3.91.6a34.17,34.17,0,0,0-5.4,1.32c-1,.44-1.81.87-2.57,1.31s-1.65,1.21-1.67,1.46,0,.58,0,1v.48a20.17,20.17,0,0,0,.18,2.9,16.56,16.56,0,0,0,.57,2.54.59.59,0,0,0,.62.39Zm54.64-10.47,1,.44c1,.44,1.8.87,2.56,1.31a4.72,4.72,0,0,1,1.66,1.44c0,.44.06.92.07,1.45a22.66,22.66,0,0,1-.19,2.91c-.12.92-.53,2.69-.57,2.84l-.33.05c-.08,0-1.7-.45-4.65-1l.2,0a13.38,13.38,0,0,0,1.76-.57,8.83,8.83,0,0,0,.83-.4,2.91,2.91,0,0,0,.73-.56l0,0,0,0c-2.93,1-9.08.49-14.11,0a126.43,126.43,0,0,0-29.1,0c-5,.52-11.18,1-14.11,0l-.05,0,0,0a2.73,2.73,0,0,0,.74.56,7,7,0,0,0,.83.4,13.74,13.74,0,0,0,1.75.57l.56.12c-2.73.52-4.22.92-4.23.92s-.59.09-.72-.35a16.83,16.83,0,0,1-.57-2.54,20.17,20.17,0,0,1-.18-2.9V389c0-.39,0-.7,0-1s.9-1,1.66-1.44,1.59-.86,2.56-1.31A34.65,34.65,0,0,1,1254,384c.75-.14,2.36-.38,3.92-.6,2-.3,4.07-.6,4.33-.69a17.64,17.64,0,0,0,1.74-1.17,16,16,0,0,1,1.8-1.2v0l-2.44.38c-4.13.64-11.77,1.82-12.45,2a26.22,26.22,0,0,1,9.45-12.65,25.47,25.47,0,0,1,14.69-4.17,26,26,0,0,1,14.7,4,22.38,22.38,0,0,1,5.45,5.16,29,29,0,0,1,4,7.34,102.24,102.24,0,0,0-13.32-2.23l-1.28-.16v0a13.57,13.57,0,0,1,1.37.82,13.24,13.24,0,0,0,2.17,1.24,107.59,107.59,0,0,1,10.66,2.08l1,.39Z"/><path class="cls-54" d="M1279.11,429.17h0l-.17-.18h0l-.49.08a7,7,0,0,1-.78.11l-.47.06h-.26l-.49,0h-.55a6.33,6.33,0,0,1-3.11,2.26,10,10,0,0,1-2.11.55h0l-.43.07h-.06l.06,0a18.54,18.54,0,0,0,4.82.67c.37,0,.73,0,1.09,0a23.4,23.4,0,0,0,7.24-1.66l.05,0h-.06A6.67,6.67,0,0,1,1279.11,429.17Zm-8.45,2.94a10.1,10.1,0,0,0,2.11-.55l.36-.16.09,0a6.58,6.58,0,0,0,2.3-1.62l.12-.15a2.34,2.34,0,0,0,.25-.3h.53l.5,0h.25a15.85,15.85,0,0,0,1.74-.25l.17.17h0a6.71,6.71,0,0,0,4.21,2,23.74,23.74,0,0,1-7.17,1.63,17.59,17.59,0,0,1-5.84-.62l.36-.05Z"/><path class="cls-53" d="M1416.67,728.58v11.26a55.74,55.74,0,0,0,55.58,55.58h11.26a55.74,55.74,0,0,0,55.58-55.58V728.58a56.07,56.07,0,0,0-.54-7.6c-.14-1-.3-2-.5-3a55.78,55.78,0,0,0-54.54-45h-11.26a55.8,55.8,0,0,0-54.55,45c-.19,1-.35,2-.49,3A54.5,54.5,0,0,0,1416.67,728.58ZM1498,761.49q-9.78,6.24-19.57,12.48a.72.72,0,0,1-.91,0q-5.91-3.79-11.86-7.57l-7.75-4.94-.43-.29,3.33-2.14,13.69-8.71c1-.64,2-1.26,3-1.92a.74.74,0,0,1,1,0c3.77,2.43,7.56,4.83,11.34,7.24l8.08,5.16.56.38Zm-60.21-44.32q9.48-6,19-12.09a.94.94,0,0,1,1.2,0q9.72,6.23,19.47,12.42a.65.65,0,0,0,.85,0c6.26-4,12.55-8,18.8-12a1.89,1.89,0,0,1,2.46-.1c6.29,4.1,12.65,8.11,19,12.15l.35.23-20.37,13,20.38,13-4.6,2.94q-7.75,4.93-15.51,9.89a.63.63,0,0,1-.8,0q-9.95-6.36-19.92-12.69l-.17-.15,20.34-13-2.2-1.41q-8.88-5.65-17.76-11.32a.65.65,0,0,0-.84,0q-9.78,6.25-19.57,12.48l-.36.24,20.35,13-1,.65-17.43,11.1c-.52.34-1.08.64-1.58,1a.78.78,0,0,1-1,0q-9.82-6.28-19.67-12.54c-.08-.05-.15-.12-.3-.23l20.35-13-20.37-13C1437.22,717.57,1437.52,717.36,1437.83,717.17Z"/><path class="cls-54" d="M1457.23,730.78l-20.35,13c.15.11.22.18.3.23q9.84,6.27,19.67,12.54a.78.78,0,0,0,1,0c.5-.37,1.06-.67,1.58-1l17.43-11.1,1-.65-20.35-13,.36-.24q9.78-6.24,19.57-12.48a.65.65,0,0,1,.84,0q8.87,5.67,17.76,11.32l2.2,1.41-20.34,13,.17.15q10,6.35,19.92,12.69a.63.63,0,0,0,.8,0q7.76-5,15.51-9.89l4.6-2.94-20.38-13,20.37-13-.35-.23c-6.33-4-12.69-8.05-19-12.15a1.89,1.89,0,0,0-2.46.1c-6.25,4-12.54,8-18.8,12a.65.65,0,0,1-.85,0q-9.73-6.21-19.47-12.42a.94.94,0,0,0-1.2,0q-9.46,6.06-19,12.09c-.31.19-.61.4-1,.63Z"/><path class="cls-54" d="M1489.85,755.64c-3.78-2.41-7.57-4.81-11.34-7.24a.74.74,0,0,0-1,0c-1,.66-2,1.28-3,1.92L1460.85,759l-3.33,2.14.43.29,7.75,4.94q5.94,3.78,11.86,7.57a.72.72,0,0,0,.91,0q9.78-6.26,19.57-12.48l.45-.31-.56-.38Z"/><path class="cls-55" d="M1611.23,728.58v11.26a55.73,55.73,0,0,0,55.57,55.58h11.26a55.74,55.74,0,0,0,55.58-55.58V728.58a54.5,54.5,0,0,0-.54-7.6c-.14-1-.3-2-.49-3a55.79,55.79,0,0,0-54.55-45H1666.8a55.79,55.79,0,0,0-54.54,45c-.2,1-.36,2-.5,3A56.07,56.07,0,0,0,1611.23,728.58Zm54.49-31.81c4-1.43,7.6-1.27,10.49,2.29.37.44.87.78,1.22,1.23a2,2,0,0,0,2.78.6,25.09,25.09,0,0,1,11.2-2.54c4.89.14,8.25,2.79,7.95,6.79a19.44,19.44,0,0,1-2.25,6.78,30.43,30.43,0,0,1-3.37,4.7,13.87,13.87,0,0,1,3.37,9.08,28.67,28.67,0,0,1,.13,3.46c-.13,1.53.58,2.06,2,2.43a16.14,16.14,0,0,1,4.1,1.75,5.76,5.76,0,0,1,2.35,7.25,5.34,5.34,0,0,0-.14,2.55,3.48,3.48,0,0,0,1.92,2.79,3.84,3.84,0,0,1,1.39,2.61,12.14,12.14,0,0,1-.16,4.12c-2.3,10.41-9,16.72-18.91,19.84-2.12.66-4.37.94-6.55,1.39H1677c-.5-.1-1-.24-1.51-.31-10.12-1.41-18-6.17-22.85-15.37a3.35,3.35,0,0,0-2.69-1.93,11.77,11.77,0,0,1-9.58-14.37,2.41,2.41,0,0,0-1.07-3,7.19,7.19,0,0,1-3.22-7.35,21.73,21.73,0,0,1,1.29-5.33c3-7.56,7.93-13.76,13.66-19.37C1655.28,702.62,1660,698.86,1665.72,696.77Z"/><path class="cls-55" d="M1656.68,741a6.79,6.79,0,0,0-6.48-4.58,7.54,7.54,0,0,0-6.81,4.77,9.17,9.17,0,0,0,5.57,11.93c4.33,1.62,8.1-.72,8.55-5.33.06-.63,0-1.27,0-1.9l.29,0A37,37,0,0,0,1656.68,741Zm-3.76,8.32a3.08,3.08,0,0,1-1.55-1.81,6,6,0,0,1,.31-2.68,2.14,2.14,0,0,0-1.34-2.92c-1.33-.52-2.2.18-2.82,1.29a6.51,6.51,0,0,1-1,1.52c-.82-1.65-.17-3,.9-4.12a3.34,3.34,0,0,1,4.1-.75,3.71,3.71,0,0,1,2.14,4,9.83,9.83,0,0,1-.58,1.79c-.8,2.12-.6,2.46,1.63,2.73l.16.56C1654.23,749.1,1653.41,749.59,1652.92,749.36Z"/><path class="cls-55" d="M1673,710.08l-.44-.38-9.31,7.69c.12.18.23.36.34.55a30.11,30.11,0,0,1,23.08-4.65c0-.21,0-.41,0-.62l-6.88-1.8,1-1.22-.25-.55-8.22,2.86C1672.63,711.36,1672.83,710.72,1673,710.08Z"/><path class="cls-55" d="M1639.14,729.48c-1,3.36-.63,6.29,2.43,8a49.46,49.46,0,0,1,5.46-3.31,3.43,3.43,0,0,0,1.91-1.92c1.29-2.76,2.57-5.54,4.09-8.18,5.13-8.92,12.91-15.07,21.51-20.33.46-.28.9-.6,1.37-.91-4-4.84-5.73-5.23-11.26-2.65-.26.12-.51.26-.77.39a51.07,51.07,0,0,0-15.6,13C1644.3,718.31,1640.9,723.44,1639.14,729.48Z"/><path class="cls-55" d="M1691.91,720c-1.66-.7-3,.09-4.23,1.17a7.9,7.9,0,0,1-5.91,2c-1.32-.08-2.65-.21-4-.32a7.85,7.85,0,0,0-8.52,7.22c-.38,3.65,1.09,6.53,3.55,9,1.3,1.31,1.45,2.26.19,3.89a14,14,0,0,0,4.63,21.37c9.3,4.78,22.91.2,27.29-9.3a21,21,0,0,0,1.4-5.47,2.09,2.09,0,0,0-.93-1.79c-1.09-.29-1.2-1-1.43-1.83s-.54-1.67-.84-2.59c-7.12,5-14.81,6.39-23.07,5.35-1.09-.14-2,.13-2.51,1.93l11.64,1.2c-1.57,1.1-4,1.17-11.65,0,.29,1.88,1.75,2.48,3.21,2.94a17.48,17.48,0,0,0,10.08.12c3.72-1.07,7.33-2.56,11.21-3.95a34.53,34.53,0,0,1-3.09,2.45,25.06,25.06,0,0,1-15,3.76,15.7,15.7,0,0,1-5.44-1.52,4.79,4.79,0,0,1-2.72-6c.76-2.36,2.21-3,5.4-2.66a29,29,0,0,0,18.58-4,11.11,11.11,0,0,0,3-2.8,2.81,2.81,0,0,0-.89-4.44,22.47,22.47,0,0,0-4.93-2,2.73,2.73,0,0,1-2.26-2.81c-.1-2.37-.21-4.73-.45-7.08C1694.06,722.27,1693.54,720.73,1691.91,720Zm-14.05,16.65c1.21-2,3.34-2.17,4.77-.44Zm-3-2.41a4.57,4.57,0,0,1,8.09.25C1680.29,733.15,1677.63,733.42,1674.89,734.28Zm13.61,4.21a6.36,6.36,0,0,1-1.5-1.13c.32-.3.69-.9,1-.85a8.77,8.77,0,0,1,2.08,1.06C1689.22,738.08,1688.74,738.58,1688.5,738.49Zm1.68-7.22a9.7,9.7,0,0,1-.4-2.7c0-.56.56-1.08.87-1.62.47.35,1.24.62,1.37,1.06.4,1.45.57,3,.82,4.37C1691.18,733,1690.47,732.47,1690.18,731.27Zm1.94,5.91c-.32-.39-.91-.8-.88-1.17s.57-.9.89-1.36l1.36,1.21Z"/><path class="cls-54" d="M1637.32,726.22a21.73,21.73,0,0,0-1.29,5.33,7.19,7.19,0,0,0,3.22,7.35,2.41,2.41,0,0,1,1.07,3,11.77,11.77,0,0,0,9.58,14.37,3.35,3.35,0,0,1,2.69,1.93c4.84,9.2,12.73,14,22.85,15.37.51.07,1,.21,1.51.31h6.24c2.18-.45,4.43-.73,6.55-1.39,9.93-3.12,16.61-9.43,18.91-19.84a12.14,12.14,0,0,0,.16-4.12,3.84,3.84,0,0,0-1.39-2.61,3.48,3.48,0,0,1-1.92-2.79,5.34,5.34,0,0,1,.14-2.55,5.76,5.76,0,0,0-2.35-7.25,16.14,16.14,0,0,0-4.1-1.75c-1.37-.37-2.08-.9-2-2.43a28.67,28.67,0,0,0-.13-3.46,13.87,13.87,0,0,0-3.37-9.08,30.43,30.43,0,0,0,3.37-4.7,19.44,19.44,0,0,0,2.25-6.78c.3-4-3.06-6.65-7.95-6.79a25.09,25.09,0,0,0-11.2,2.54,2,2,0,0,1-2.78-.6c-.35-.45-.85-.79-1.22-1.23-2.89-3.56-6.54-3.72-10.49-2.29-5.77,2.09-10.44,5.85-14.74,10.08C1645.25,712.46,1640.29,718.66,1637.32,726.22Zm20.19,21.61c-.45,4.61-4.22,6.95-8.55,5.33a9.17,9.17,0,0,1-5.57-11.93,7.54,7.54,0,0,1,6.81-4.77,6.79,6.79,0,0,1,6.48,4.58,37,37,0,0,1,1.12,4.84l-.29,0C1657.51,746.56,1657.57,747.2,1657.51,747.83Zm36.72-24c.24,2.35.35,4.71.45,7.08a2.73,2.73,0,0,0,2.26,2.81,22.47,22.47,0,0,1,4.93,2,2.81,2.81,0,0,1,.89,4.44,11.11,11.11,0,0,1-3,2.8,29,29,0,0,1-18.58,4c-3.19-.31-4.64.3-5.4,2.66a4.79,4.79,0,0,0,2.72,6,15.7,15.7,0,0,0,5.44,1.52,25.06,25.06,0,0,0,15-3.76,34.53,34.53,0,0,0,3.09-2.45c-3.88,1.39-7.49,2.88-11.21,3.95a17.48,17.48,0,0,1-10.08-.12c-1.46-.46-2.92-1.06-3.21-2.94,7.64,1.16,10.08,1.09,11.65,0l-11.64-1.2c.46-1.8,1.42-2.07,2.51-1.93,8.26,1,16-.37,23.07-5.35.3.92.6,1.75.84,2.59s.34,1.54,1.43,1.83a2.09,2.09,0,0,1,.93,1.79,21,21,0,0,1-1.4,5.47c-4.38,9.5-18,14.08-27.29,9.3A14,14,0,0,1,1673,743c1.26-1.63,1.11-2.58-.19-3.89-2.46-2.47-3.93-5.35-3.55-9a7.85,7.85,0,0,1,8.52-7.22c1.32.11,2.65.24,4,.32a7.9,7.9,0,0,0,5.91-2c1.22-1.08,2.57-1.87,4.23-1.17S1694.06,722.27,1694.23,723.85Zm-13.57-14.75.25.55-1,1.22,6.88,1.8c0,.21,0,.41,0,.62a30.11,30.11,0,0,0-23.08,4.65c-.11-.19-.22-.37-.34-.55l9.31-7.69.44.38c-.21.64-.41,1.28-.6,1.88Zm-16.78-8.49c.26-.13.51-.27.77-.39,5.53-2.58,7.22-2.19,11.26,2.65-.47.31-.91.63-1.37.91-8.6,5.26-16.38,11.41-21.51,20.33-1.52,2.64-2.8,5.42-4.09,8.18a3.43,3.43,0,0,1-1.91,1.92,49.46,49.46,0,0,0-5.46,3.31c-3.06-1.75-3.42-4.68-2.43-8,1.76-6,5.16-11.17,9.14-15.91A51.07,51.07,0,0,1,1663.88,700.61Z"/><path class="cls-54" d="M1692.84,732.38c-.25-1.4-.42-2.92-.82-4.37-.13-.44-.9-.71-1.37-1.06-.31.54-.85,1.06-.87,1.62a9.7,9.7,0,0,0,.4,2.7C1690.47,732.47,1691.18,733,1692.84,732.38Z"/><path class="cls-54" d="M1678.72,732a4.08,4.08,0,0,0-3.83,2.32c2.74-.86,5.4-1.13,8.09.25A4.06,4.06,0,0,0,1678.72,732Z"/><path class="cls-54" d="M1677.86,736.69l4.77-.44C1681.2,734.52,1679.07,734.71,1677.86,736.69Z"/><path class="cls-54" d="M1691.24,736c0,.37.56.78.88,1.17l1.37-1.32-1.36-1.21C1691.81,735.11,1691.28,735.54,1691.24,736Z"/><path class="cls-54" d="M1687,737.36a6.36,6.36,0,0,0,1.5,1.13c.24.09.72-.41,1.53-.92a8.77,8.77,0,0,0-2.08-1.06C1687.69,736.46,1687.32,737.06,1687,737.36Z"/><path class="cls-54" d="M1653.11,745.64a9.83,9.83,0,0,0,.58-1.79,3.71,3.71,0,0,0-2.14-4,3.34,3.34,0,0,0-4.1.75c-1.07,1.13-1.72,2.47-.9,4.12a6.51,6.51,0,0,0,1-1.52c.62-1.11,1.49-1.81,2.82-1.29a2.14,2.14,0,0,1,1.34,2.92,6,6,0,0,0-.31,2.68,3.08,3.08,0,0,0,1.55,1.81c.49.23,1.31-.26,2-.43l-.16-.56C1652.51,748.1,1652.31,747.76,1653.11,745.64Z"/><path class="cls-55" d="M1219.07,728.58v11.26a55.74,55.74,0,0,0,55.58,55.58h11.26a55.74,55.74,0,0,0,55.58-55.58V728.58a56.07,56.07,0,0,0-.54-7.6c-.14-1-.3-2-.5-3a55.78,55.78,0,0,0-54.54-45h-11.26a55.8,55.8,0,0,0-54.55,45c-.19,1-.35,2-.49,3A54.5,54.5,0,0,0,1219.07,728.58Zm64.62-.64c-.11-1-.23-2-.29-2.94A15.93,15.93,0,0,1,1302,708.57a15.68,15.68,0,0,1,8.44,4.31,1.17,1.17,0,0,0,1.27.32,32.29,32.29,0,0,0,8.55-3.24c.21-.13.44-.23.78-.41a12.66,12.66,0,0,1-2.58,4.87c-1.18,1.36-2.55,2.55-3.9,3.88,1.43-.3,2.88-.55,4.29-.93s2.78-.92,4.32-1.44a23.13,23.13,0,0,1-1.82,2.4c-1.79,1.81-3.65,3.56-5.52,5.29a1.42,1.42,0,0,0-.52,1.16,46.17,46.17,0,0,1-14.54,34.9,41.59,41.59,0,0,1-22.11,11.09,46.3,46.3,0,0,1-24.43-2,45.19,45.19,0,0,1-8.23-4l-.35-.28a32.39,32.39,0,0,0,23.37-6.58c-7.28-.63-12.15-4.26-14.86-11.09a17.44,17.44,0,0,0,7.12-.34,16,16,0,0,1-9.14-5.65,15.69,15.69,0,0,1-3.51-10.16,16.51,16.51,0,0,0,7.14,1.94,16,16,0,0,1-6.61-9.7,15.82,15.82,0,0,1,1.74-11.52A45.61,45.61,0,0,0,1283.69,727.94Z"/><path class="cls-54" d="M1249.13,722.82a16,16,0,0,0,6.61,9.7,16.51,16.51,0,0,1-7.14-1.94,15.69,15.69,0,0,0,3.51,10.16,16,16,0,0,0,9.14,5.65,17.44,17.44,0,0,1-7.12.34c2.71,6.83,7.58,10.46,14.86,11.09a32.39,32.39,0,0,1-23.37,6.58l.35.28a45.19,45.19,0,0,0,8.23,4,46.3,46.3,0,0,0,24.43,2,41.59,41.59,0,0,0,22.11-11.09,46.17,46.17,0,0,0,14.54-34.9,1.42,1.42,0,0,1,.52-1.16c1.87-1.73,3.73-3.48,5.52-5.29a23.13,23.13,0,0,0,1.82-2.4c-1.54.52-2.91,1.05-4.32,1.44s-2.86.63-4.29.93c1.35-1.33,2.72-2.52,3.9-3.88a12.66,12.66,0,0,0,2.58-4.87c-.34.18-.57.28-.78.41a32.29,32.29,0,0,1-8.55,3.24,1.17,1.17,0,0,1-1.27-.32,15.68,15.68,0,0,0-8.44-4.31A15.93,15.93,0,0,0,1283.4,725c.06,1,.18,1.9.29,2.94a45.61,45.61,0,0,1-32.82-16.64A15.82,15.82,0,0,0,1249.13,722.82Z"/><path class="cls-1" d="M1467.57,160.57h0a70.06,70.06,0,0,0-18.93,2.61h37.86A70.06,70.06,0,0,0,1467.57,160.57Z"/><path class="cls-2" d="M1486.5,163.18h-37.86a71.3,71.3,0,0,0-7.62,2.62h53.1A70.54,70.54,0,0,0,1486.5,163.18Z"/><path class="cls-3" d="M1494.12,165.8H1441q-2.89,1.19-5.65,2.61h64.4Q1497,167,1494.12,165.8Z"/><path class="cls-4" d="M1499.77,168.41h-64.4c-1.58.82-3.14,1.69-4.65,2.62h73.7C1502.91,170.1,1501.35,169.23,1499.77,168.41Z"/><path class="cls-5" d="M1504.42,171h-73.7c-1.34.82-2.64,1.7-3.92,2.61h81.54C1507.06,172.73,1505.76,171.85,1504.42,171Z"/><path class="cls-6" d="M1508.34,173.64H1426.8q-1.77,1.26-3.45,2.62h88.44C1510.67,175.35,1509.51,174.48,1508.34,173.64Z"/><path class="cls-7" d="M1511.79,176.26h-88.44c-1,.84-2.08,1.71-3.08,2.61h94.6C1513.87,178,1512.84,177.1,1511.79,176.26Z"/><path class="cls-8" d="M1514.87,178.87h-94.6c-.93.85-1.84,1.72-2.73,2.62H1517.6C1516.71,180.59,1515.8,179.72,1514.87,178.87Z"/><path class="cls-9" d="M1517.6,181.49H1417.54q-1.26,1.27-2.46,2.61h105Q1518.86,182.77,1517.6,181.49Z"/><path class="cls-10" d="M1520.06,184.1h-105c-.77.85-1.51,1.73-2.24,2.62H1522.3C1521.57,185.83,1520.83,185,1520.06,184.1Z"/><path class="cls-11" d="M1522.3,186.72H1412.84c-.7.85-1.37,1.72-2,2.61h113.52C1523.67,188.44,1523,187.57,1522.3,186.72Z"/><path class="cls-12" d="M1524.33,189.33H1410.81c-.64.86-1.26,1.73-1.85,2.62h117.22C1525.59,191.06,1525,190.19,1524.33,189.33Z"/><path class="cls-13" d="M1526.18,192H1409q-.87,1.28-1.68,2.61h120.58Q1527.05,193.22,1526.18,192Z"/><path class="cls-14" d="M1527.86,194.56H1407.28c-.53.86-1,1.73-1.52,2.61h123.62C1528.89,196.29,1528.39,195.42,1527.86,194.56Z"/><path class="cls-15" d="M1448.52,199.78h82.22c-.44-.88-.89-1.76-1.36-2.62H1405.76c-.47.86-.92,1.74-1.36,2.62h44.12Z"/><path class="cls-16" d="M1448.42,199.79h-44c-.44.86-.85,1.73-1.24,2.61h39.55A8,8,0,0,1,1448.42,199.79Z"/><path class="cls-16" d="M1493.8,202.4H1532c-.39-.88-.8-1.75-1.24-2.61h-42.65A8,8,0,0,1,1493.8,202.4Z"/><path class="cls-17" d="M1495.52,205h37.58c-.36-.88-.73-1.75-1.12-2.62H1493.8A9.37,9.37,0,0,1,1495.52,205Z"/><path class="cls-17" d="M1442.71,202.4h-39.55c-.39.87-.76,1.74-1.12,2.62H1441A9.4,9.4,0,0,1,1442.71,202.4Z"/><path class="cls-18" d="M1441,205H1402c-.34.86-.68,1.73-1,2.61h39.17A10.22,10.22,0,0,1,1441,205Z"/><path class="cls-18" d="M1496.29,207.63h37.8c-.31-.88-.65-1.75-1-2.61h-37.58A9.85,9.85,0,0,1,1496.29,207.63Z"/><path class="cls-19" d="M1496.41,209.17a9.64,9.64,0,0,1-.06,1.08H1535c-.27-.88-.58-1.75-.89-2.62h-37.8A11.16,11.16,0,0,1,1496.41,209.17Z"/><path class="cls-19" d="M1440.1,209.17a11.16,11.16,0,0,1,.12-1.54h-39.17c-.31.87-.62,1.74-.89,2.62h40A9.64,9.64,0,0,1,1440.1,209.17Z"/><path class="cls-20" d="M1440.16,210.25h-40c-.27.86-.51,1.74-.75,2.61h41.37A10.16,10.16,0,0,1,1440.16,210.25Z"/><path class="cls-20" d="M1495.71,212.86h40c-.24-.87-.48-1.75-.75-2.61h-38.63A10.18,10.18,0,0,1,1495.71,212.86Z"/><path class="cls-21" d="M1494.2,215.48h42.18c-.21-.88-.42-1.75-.65-2.62h-40A9.44,9.44,0,0,1,1494.2,215.48Z"/><path class="cls-21" d="M1440.78,212.86h-41.37c-.23.87-.44,1.74-.64,2.62h43.54A9.75,9.75,0,0,1,1440.78,212.86Z"/><path class="cls-22" d="M1442.31,215.48h-43.54c-.2.86-.39,1.73-.55,2.61h47.7A8.39,8.39,0,0,1,1442.31,215.48Z"/><path class="cls-22" d="M1492.82,216.85l-1.39,1.24h45.49c-.16-.88-.35-1.75-.54-2.61H1494.2A8.51,8.51,0,0,1,1492.82,216.85Z"/><path class="cls-23" d="M1478.91,219.52a.65.65,0,0,0-.51-1h-29.88a7.53,7.53,0,0,1-2.6-.47h-47.7c-.17.87-.33,1.74-.46,2.62h80.56Z"/><path class="cls-23" d="M1488.5,220.71h48.88c-.13-.88-.29-1.75-.46-2.62h-45.49Z"/><path class="cls-24" d="M1485.57,223.32h52.15c-.1-.87-.21-1.75-.34-2.61H1488.5Z"/><path class="cls-24" d="M1478.32,220.71h-80.56c-.13.86-.24,1.74-.34,2.61H1477Z"/><path class="cls-25" d="M1482.65,225.94H1538c-.07-.88-.14-1.75-.23-2.62h-52.15Z"/><path class="cls-25" d="M1477,223.32h-79.59c-.09.87-.17,1.74-.23,2.62h78.52Z"/><path class="cls-26" d="M1464.69,226.73c.39-.34.9.2.62.65l-.59,1.17h9.68l1.31-2.61h-78.52c-.06.86-.12,1.73-.15,2.61h65.61Z"/><path class="cls-26" d="M1479.72,228.55h58.38c0-.88-.09-1.75-.15-2.61h-55.3Z"/><path class="cls-27" d="M1476.79,231.17h61.38c0-.87,0-1.74-.07-2.61h-58.38Z"/><polygon class="cls-27" points="1469.59 231.16 1473.09 231.16 1474.4 228.55 1464.72 228.55 1463.42 231.16 1469.59 231.16"/><path class="cls-27" d="M1423.41,231.17h36.31l2.93-2.62H1397c0,.87-.07,1.74-.07,2.61h26.44Z"/><path class="cls-28" d="M1397,233.78h59.75l2.93-2.61H1397C1397,232,1397,232.91,1397,233.78Z"/><polygon class="cls-28" points="1469.59 231.16 1463.42 231.16 1462.11 233.78 1471.79 233.78 1473.09 231.16 1469.59 231.16"/><path class="cls-28" d="M1515.77,231.17h-39l-2.93,2.61h64.24c0-.87.07-1.74.07-2.61h-22.4Z"/><path class="cls-29" d="M1453.86,236.39l2.93-2.61H1397c0,.13,0,.26,0,.39,0,.74.09,1.48.14,2.22Z"/><path class="cls-29" d="M1473.86,233.78l-2,1.82c-.39.34-.9-.2-.62-.65l.59-1.17h-9.68l-1.31,2.61H1538c0-.74.11-1.48.14-2.22,0-.13,0-.26,0-.39Z"/><path class="cls-30" d="M1450.94,239l2.92-2.62h-56.67c.06.88.14,1.75.23,2.62Z"/><path class="cls-30" d="M1460.8,236.39l-1.3,2.62h78.22c.09-.87.16-1.74.23-2.62Z"/><path class="cls-31" d="M1448,241.62l2.93-2.61h-53.52c.1.87.21,1.75.34,2.61Z"/><path class="cls-31" d="M1459.5,239l-1.31,2.61h79.19c.13-.86.24-1.74.34-2.61Z"/><path class="cls-32" d="M1445.08,244.24l2.93-2.62h-50.25c.13.88.29,1.75.46,2.62Z"/><path class="cls-32" d="M1458.19,241.62l-.59,1.19a.64.64,0,0,0,.51,1H1488a7.53,7.53,0,0,1,2.6.47h46.33c.17-.87.33-1.74.46-2.62Z"/><path class="cls-33" d="M1490.59,244.24a8.39,8.39,0,0,1,3.61,2.61h42.18c.19-.86.38-1.73.54-2.61Z"/><path class="cls-33" d="M1442.3,246.85a9.4,9.4,0,0,1,1.38-1.37l1.4-1.24h-46.86c.16.88.35,1.75.55,2.61Z"/><path class="cls-34" d="M1440.8,249.47a9.66,9.66,0,0,1,1.5-2.62h-43.53c.2.88.41,1.75.64,2.62Z"/><path class="cls-34" d="M1494.2,246.85a9.46,9.46,0,0,1,1.52,2.62h40c.23-.87.44-1.74.65-2.62Z"/><path class="cls-35" d="M1495.72,249.47a10.17,10.17,0,0,1,.63,2.61H1535c.27-.86.51-1.74.75-2.61Z"/><path class="cls-35" d="M1440.16,252.08a10.18,10.18,0,0,1,.64-2.61h-41.39c.24.87.48,1.75.75,2.61Z"/><path class="cls-36" d="M1440.22,254.7a11.16,11.16,0,0,1-.12-1.54,9.64,9.64,0,0,1,.06-1.08h-40c.27.88.58,1.75.89,2.62Z"/><path class="cls-36" d="M1496.35,252.08a9.64,9.64,0,0,1,.06,1.08,11.16,11.16,0,0,1-.12,1.54h37.8c.31-.87.62-1.74.89-2.62Z"/><path class="cls-37" d="M1441,257.31a10.22,10.22,0,0,1-.76-2.61h-39.17c.31.88.65,1.75,1,2.61Z"/><path class="cls-37" d="M1496.29,254.7a9.85,9.85,0,0,1-.77,2.61h37.58c.34-.86.68-1.73,1-2.61Z"/><path class="cls-38" d="M1495.52,257.31a9.37,9.37,0,0,1-1.72,2.62H1532c.39-.87.76-1.74,1.12-2.62Z"/><path class="cls-38" d="M1442.71,259.93a9.4,9.4,0,0,1-1.73-2.62H1402c.36.88.73,1.75,1.12,2.62Z"/><path class="cls-39" d="M1448.42,262.54a8,8,0,0,1-5.71-2.61h-39.55c.39.88.8,1.75,1.24,2.61Z"/><path class="cls-39" d="M1493.8,259.93a8,8,0,0,1-5.71,2.61h42.65c.44-.86.85-1.73,1.24-2.61Z"/><path class="cls-40" d="M1488.09,262.54H1404.4c.44.88.89,1.76,1.36,2.62h123.62c.47-.86.92-1.74,1.36-2.62Z"/><path class="cls-41" d="M1405.76,265.16c.49.88,1,1.75,1.52,2.61h120.58c.53-.86,1-1.73,1.52-2.61Z"/><path class="cls-42" d="M1407.28,267.77q.81,1.34,1.68,2.61h117.22q.87-1.28,1.68-2.61Z"/><path class="cls-43" d="M1409,270.38c.59.89,1.21,1.76,1.85,2.62h113.52c.64-.86,1.26-1.73,1.85-2.62Z"/><path class="cls-44" d="M1410.81,273q2,2.72,4.27,5.23h105q2.26-2.52,4.27-5.23Z"/><path class="cls-45" d="M1415.08,278.23q1.2,1.33,2.46,2.61H1517.6q1.26-1.27,2.46-2.61Z"/><path class="cls-46" d="M1417.54,280.84c.89.9,1.8,1.77,2.73,2.62h94.6c.93-.85,1.84-1.72,2.73-2.62Z"/><path class="cls-47" d="M1420.27,283.46c1,.9,2,1.77,3.08,2.61h88.44c1-.84,2.08-1.71,3.08-2.61Z"/><path class="cls-48" d="M1423.35,286.07q1.68,1.37,3.45,2.62h81.54c1.17-.84,2.33-1.71,3.45-2.62Z"/><path class="cls-49" d="M1426.8,288.69c1.28.91,2.58,1.79,3.92,2.61h73.7c1.34-.82,2.64-1.7,3.92-2.61Z"/><path class="cls-50" d="M1430.72,291.3c1.51.93,3.07,1.8,4.65,2.62h64.4c1.58-.82,3.14-1.69,4.65-2.62Z"/><path class="cls-51" d="M1435.37,293.92q2.76,1.43,5.65,2.61h53.1q2.89-1.18,5.65-2.61Z"/><path class="cls-52" d="M1441,296.53a69.94,69.94,0,0,0,26.55,5.23h0a69.94,69.94,0,0,0,26.55-5.23Z"/><path class="cls-54" d="M1464.72,228.55l.59-1.17c.28-.45-.23-1-.62-.65l-2,1.82-2.93,2.62-2.93,2.61-2.93,2.61-2.92,2.62-2.93,2.61-2.93,2.62-1.4,1.24a9.4,9.4,0,0,0-1.38,1.37,9.66,9.66,0,0,0-1.5,2.62,10.18,10.18,0,0,0-.64,2.61,9.64,9.64,0,0,0-.06,1.08,11.16,11.16,0,0,0,.12,1.54,10.22,10.22,0,0,0,.76,2.61,9.4,9.4,0,0,0,1.73,2.62,8,8,0,0,0,5.71,2.61h39.67a8,8,0,0,0,5.71-2.61,9.37,9.37,0,0,0,1.72-2.62,9.85,9.85,0,0,0,.77-2.61,11.16,11.16,0,0,0,.12-1.54,9.64,9.64,0,0,0-.06-1.08,10.17,10.17,0,0,0-.63-2.61,9.46,9.46,0,0,0-1.52-2.62,8.39,8.39,0,0,0-3.61-2.61,7.53,7.53,0,0,0-2.6-.47h-29.88a.64.64,0,0,1-.51-1l.59-1.19,1.31-2.61,1.3-2.62,1.31-2.61,1.31-2.61Z"/><path class="cls-54" d="M1479.72,228.55l2.93-2.61,2.92-2.62,2.93-2.61,2.93-2.62,1.39-1.24a8.51,8.51,0,0,0,1.38-1.37,9.44,9.44,0,0,0,1.51-2.62,10.18,10.18,0,0,0,.64-2.61,9.64,9.64,0,0,0,.06-1.08,11.16,11.16,0,0,0-.12-1.54,9.85,9.85,0,0,0-.77-2.61,9.37,9.37,0,0,0-1.72-2.62,8,8,0,0,0-5.71-2.61h-39.67a8,8,0,0,0-5.71,2.61A9.4,9.4,0,0,0,1441,205a10.22,10.22,0,0,0-.76,2.61,11.16,11.16,0,0,0-.12,1.54,9.64,9.64,0,0,0,.06,1.08,10.16,10.16,0,0,0,.62,2.61,9.75,9.75,0,0,0,1.53,2.62,8.39,8.39,0,0,0,3.61,2.61,7.53,7.53,0,0,0,2.6.47h29.88a.65.65,0,0,1,.51,1l-.59,1.19-1.31,2.61-1.3,2.62-1.31,2.61-1.31,2.62-1.3,2.61-.59,1.17c-.28.45.23,1,.62.65l2-1.82,2.93-2.61Z"/><path class="cls-55" d="M1123.29,317.89a7.66,7.66,0,0,0,7.67,7.67,7.52,7.52,0,0,0,3-.61,7.67,7.67,0,1,0-10.67-7.06Z"/><path class="cls-55" d="M1577.11,565.83a7.66,7.66,0,0,0-15.1,0,8.08,8.08,0,0,0-.12,1.31,7.3,7.3,0,0,0,.2,1.69,7.66,7.66,0,0,0,15,0,7.3,7.3,0,0,0,.2-1.69A7.1,7.1,0,0,0,1577.11,565.83Z"/><path class="cls-55" d="M1366.84,721a7.66,7.66,0,0,0,15.14,0,8.12,8.12,0,0,0,.1-1.21,7.5,7.5,0,0,0-.22-1.79,7.66,7.66,0,0,0-14.9,0,7.5,7.5,0,0,0-.22,1.79A8.12,8.12,0,0,0,1366.84,721Z"/><path class="cls-55" d="M1694.44,223.49a7.67,7.67,0,0,0-7.67,7.68,7.55,7.55,0,0,0,.61,3,7.67,7.67,0,1,0,7.06-10.68Z"/><path class="cls-55" d="M1498.49,865.19a7.67,7.67,0,1,0,7.06,4.67A7.68,7.68,0,0,0,1498.49,865.19Z"/><path class="cls-55" d="M1815.12,795.73a7.67,7.67,0,0,0,0,14.73,7.88,7.88,0,0,0,2.13.3,7,7,0,0,0,.92-.06,7.66,7.66,0,0,0,0-15.22,7,7,0,0,0-.92-.06A7.51,7.51,0,0,0,1815.12,795.73Z"/></svg>