<svg id="Layer_1" data-name="Layer 1" xmlns="http://www.w3.org/2000/svg" viewBox="0 0 2034.39 714.93"><defs><style>.cls-1{fill:#61e6ba;}.cls-2{fill:#7876fd;}</style></defs><title>Artboard 6</title><path class="cls-1" d="M397.08,721.06c-46.93,0-88.06-13.72-120.57-41-29.55-24.75-39.18-59.87-29.45-107.36,8.5-41.51,30.41-87.28,51.6-131.55,30.8-64.35,59.89-125.14,45.28-165.78-5.53-15.4-17-26.94-34.93-35.27-28.38-13.16-62.16-19.85-100.42-19.9h-.39c-30.59,0-64.07,4.22-99.53,12.55C48,247,1.92,268.68,1.47,268.89l-1.92-4c.46-.22,46.84-22,108-36.41,35.82-8.41,69.68-12.68,100.64-12.68h.35c38.93,0,73.36,6.87,102.34,20.31,19.11,8.86,31.3,21.23,37.26,37.82,15.25,42.4-14.24,104-45.46,169.22-42.51,88.81-86.46,180.64-23.31,233.56,29.28,24.53,65.4,37.91,107.36,39.74,38.62,1.69,80.93-6.33,125.74-23.85,69.5-27.18,141.29-76.79,197-136.12,58-61.79,94.11-128.54,101.75-188,11.84-92,61-181.53,134.87-245.63a396.62,396.62,0,0,1,129.4-75.31c50.72-17.73,104.37-24.8,159.47-21,45.19,3.1,96.33,8.2,150.49,13.59,218,21.72,489.24,48.75,630-29.38l2.17,3.91c-72,40-177.41,52.69-292.35,52.69-111.75,0-232.49-12-340.25-22.77-54.11-5.39-105.23-10.48-150.34-13.58-54.5-3.74-107.55,3.26-157.69,20.78a392.22,392.22,0,0,0-128,74.47c-73.06,63.39-121.66,151.89-133.36,242.82-7.77,60.34-44.32,128-102.93,190.44-56.11,59.8-128.5,109.82-198.6,137.22C472.54,713,433.09,721.06,397.08,721.06Z"/><path class="cls-2" d="M394.22,714.93q-3.45,0-6.85-.08c-47.36-1-86.58-12.7-113.42-33.79-32.8-25.79-47.48-64.91-43.63-116.28,5.5-73.6,20.29-110.21,32.17-139.63,14.21-35.2,22.79-56.44,2.94-115.74-20.22-60.4-72.54-86-112.87-96.87C107,200.29,50.39,199.84,1,211.34L0,207c50.06-11.66,107.53-11.2,153.73,1.24,59.34,16,99.43,50.47,115.94,99.77,20.38,60.86,11.06,83.92-3,118.83-11.77,29.13-26.41,65.39-31.86,138.3-3.73,49.79,10.38,87.61,41.93,112.42,55.93,44,157.77,38.78,233.89,14.14,59.79-19.35,141.64-129.13,199.78-217.82C777.3,371.79,840.24,256.29,872.93,187.11c31.17-66,91.79-122.67,166.29-155.55A370.72,370.72,0,0,1,1166.09.75c47.84-3,96.46,3,144.53,17.93,56.77,17.61,178.58,41,436.46,52.2,154.32,6.72,286,5.88,287.28,5.87l0,4.48c-1.31,0-133.06.85-287.49-5.88-90.71-4-171.39-9.72-239.8-17.11C1421.5,49,1355,37.11,1309.29,23c-47.54-14.74-95.62-20.71-142.92-17.74A366.67,366.67,0,0,0,1041,35.65C967.49,68.1,907.7,124,877,189,819.06,311.57,625,659.36,512,695.94,473.94,708.25,432.41,714.93,394.22,714.93Z"/></svg>