<svg xmlns="http://www.w3.org/2000/svg" viewBox="0 0 1026.73 1080"><defs><style>.cls-1{fill:none;}.cls-2{fill:#6363e5;}.cls-3{fill:#7876fd;}.cls-4{fill:#50adff;}.cls-5{fill:#50acff;}.cls-6{fill:#51acff;}.cls-7{fill:#52abff;}.cls-8{fill:#52aaff;}.cls-9{fill:#53a9ff;}.cls-10{fill:#53a8ff;}.cls-11{fill:#54a8ff;}.cls-12{fill:#55a7ff;}.cls-13{fill:#55a6ff;}.cls-14{fill:#56a5ff;}.cls-15{fill:#57a4fe;}.cls-16{fill:#57a3fe;}.cls-17{fill:#58a2fe;}.cls-18{fill:#59a1fe;}.cls-19{fill:#5aa0fe;}.cls-20{fill:#5a9ffe;}.cls-21{fill:#5b9efe;}.cls-22{fill:#5c9dfe;}.cls-23{fill:#5c9cfe;}.cls-24{fill:#5d9bfe;}.cls-25{fill:#5e9afe;}.cls-26{fill:#5f99fe;}.cls-27{fill:#6098fe;}.cls-28{fill:#6097fe;}.cls-29{fill:#6196fe;}.cls-30{fill:#6295fe;}.cls-31{fill:#6394fe;}.cls-32{fill:#6393fe;}.cls-33{fill:#6492fd;}.cls-34{fill:#6591fd;}.cls-35{fill:#6690fd;}.cls-36{fill:#678ffd;}.cls-37{fill:#678dfd;}.cls-38{fill:#688cfd;}.cls-39{fill:#698bfd;}.cls-40{fill:#6a8afd;}.cls-41{fill:#6b89fd;}.cls-42{fill:#6b88fd;}.cls-43{fill:#6c87fd;}.cls-44{fill:#6d86fd;}.cls-45{fill:#6e85fd;}.cls-46{fill:#6f84fd;}.cls-47{fill:#7082fd;}.cls-48{fill:#7081fd;}.cls-49{fill:#7180fd;}.cls-50{fill:#727ffc;}.cls-51{fill:#737efc;}.cls-52{fill:#747dfc;}.cls-53{fill:#757cfc;}.cls-54{fill:#757afc;}.cls-55{fill:#7679fc;}.cls-56{fill:#7778fc;}.cls-57{fill:#7877fc;}.cls-58{fill:#61e6ba;}.cls-59{fill:#fff;}.cls-60{fill:#386a8c;}.cls-61{fill:#fcbc77;}.cls-62{fill:#dbdbdb;}.cls-63{fill:#adadad;}.cls-64{fill:#0a2d4e;}.cls-65{fill:#59d3a7;}</style></defs><title>Artboard 2</title><g id="Layer_3" data-name="Layer 3"><path class="cls-1" d="M690.61,812c-.52,2.76-7.94,5.54-17.88,7.62H702.5L690.12,780l.23,3.76-1.79.2a3,3,0,0,1-1.94,1.21l-1.34.24C688.15,794.19,691.63,806.54,690.61,812Z"/><path class="cls-1" d="M582.6,764.08h63.78l-4.25-42.72H583.69l3.81,18.34-1.24-.09C586.84,745.55,587.45,758.46,582.6,764.08Z"/><path class="cls-1" d="M209.42,970.54a1.18,1.18,0,0,0,.19-.11,11.5,11.5,0,0,0-4.72-2.91A18.14,18.14,0,0,0,209.42,970.54Z"/><path class="cls-1" d="M570.24,819.61h49.21c-1.66-1.11-2.51-2.51-2.28-4.25.5-3.71,3.59-7.64,7.93-11.44l-.56-.4c-.53-.4-.6-1.4.21-1.57a13.74,13.74,0,0,1,3.09-.29c1.87-1.46,3.88-2.89,6-4.27l-.08-.07a.62.62,0,0,1,0-.84,6.24,6.24,0,0,1,3.76-1.43c2.24-1.37,4.5-2.68,6.7-3.89L644,791a.33.33,0,0,1,0-.46,5.52,5.52,0,0,1,4.09-1.51l1.62-.84-.94.1-1.13-11.38H556.79Z"/><path class="cls-1" d="M307.21,528.67l8.55-5.25,3.17-3.79a18.64,18.64,0,0,1-7.29,1.92C308.5,521.87,307.39,525,307.21,528.67Z"/><path class="cls-1" d="M967.49,111.72V66.23H74.64v45.49ZM128.15,83.94a4.52,4.52,0,1,1-4.51,4.52A4.52,4.52,0,0,1,128.15,83.94Zm-15.58,0a4.52,4.52,0,1,1-4.51,4.52A4.52,4.52,0,0,1,112.57,83.94Zm-15.5,0a4.52,4.52,0,1,1-4.52,4.52A4.51,4.51,0,0,1,97.07,83.94Z"/><path class="cls-1" d="M565.28,625.15a1.25,1.25,0,0,1,.48.51c4.09,8.21,4.92,19.3,6.48,28.31.18,1.09.34,2.19.51,3.28L632.32,655c-.11-.85-.22-1.7-.34-2.55q-2-14.91-3.9-29.81H565.41l-2.11.56.2,1A2.18,2.18,0,0,1,565.28,625.15Z"/><path class="cls-1" d="M633.45,663.58,574,665.83c.75,5.72,1.42,11.45,2.17,17.14a1,1,0,0,1-.27.84l5.13,24.7h59C637.39,693.61,635.41,678.56,633.45,663.58Z"/><path class="cls-1" d="M708,419.14c0,.28,0,.56-.06.84l.28,0C708.11,419.67,708,419.41,708,419.14Z"/><path class="cls-1" d="M967.49,115.15H74.64V619.2H192.73c5.4-18.16,23.82-43.41,37.43-56.11,2-1.83,3.73-3.43,5.32-4.84,6.62-7.61,13.73-12.74,23.37-14.58,5.56-1.84,11.33-1.83,17.3-2l1.35-.25.09-11.59-.18-.34a2.78,2.78,0,0,1-4.69,0c-8.23-12.62-19.59-23.52-25.07-37.78-3.64-9.48-4.22-24.36,5.57-30.3,2.84-5.05,10.23-8.3,16.87-8.32l1.38-.49c4.72-2.25,9.23-3.88,12.31-4.18,9.15-.88,16.33-.64,18.3,4.12a18.14,18.14,0,0,1,1.05,6.6h0c3.95,3.55,7.8,11.73,7.8,11.73a141.15,141.15,0,0,1,6.49,16.29,8,8,0,0,1,3.49,1.87c2.17,2.33.76,5.27-1.15,7.21.18,1,.32,2,.42,2.94.7,6.81,3.08,12.74,1.83,16.83l67.25-80.43,1.75.86c2.16-5.35,14.4-35,20.71-34.48,6.94.59,1.69,16.46,1.69,16.46s9.87,9.51,2.6,21.16a9.54,9.54,0,0,1-9.05,4.63l3.16,1.54s-27,78.65-48.56,114.24q-2.82,16.44-5.88,32.82-.42,4.34-.81,8.67-.8,8.9-1.71,17.78H510.57c-2.53-7.45-4.05-15-1.28-22.84,3.88-10.94,14-17.67,23.89-22.7,13.76-7,27.67-13.92,41.69-20.62,21.93-11.66,42.39-21.48,48.21-24.24a3.93,3.93,0,0,1-2.32-2.85l-.15-.9c-3.19-5.23-3-13.77-3.82-19-.2-1.27-.41-2.55-.62-3.83-3.53-11.15-10.1-21.64-11.69-33.29a61.19,61.19,0,0,1,1.87-24l-8.49-22.31a5.16,5.16,0,0,1-2.26-3.39,6.47,6.47,0,0,1,.72-4.35c-16.43-30.27-43.7-81.25-46.35-90.78-2.19-7.89-5.63-15.78-6-23.15l-56.13,12-7.1-37.25,173.58-37.18,1.22,6.4a1.08,1.08,0,0,1,1.27.12,27.15,27.15,0,0,1,2.66,3.16,1.23,1.23,0,0,1,1.21,1c.09.4.17.81.26,1.21a30.11,30.11,0,0,1,2.4,5.07H843.89v35.33H665.2a2.35,2.35,0,0,1,.36.47,9.32,9.32,0,0,1,.67,2,2.45,2.45,0,0,1-1.69,3,2.05,2.05,0,0,1-1.25,0c.13,8.4-.2,17,.23,23.25.39,5.69.61,14.95.72,25.51.76-.3,1.19-.45,1.19-.45a29.07,29.07,0,0,1,3.24-.44v-.08l-.49-.08c-.6-.09-.42-1,.14-1a43.89,43.89,0,0,1,4.73.16,17,17,0,0,1,6,.89c11.48,2.5,21.76,9.48,26.35,20.94,7.09,17.71.87,37.84,6.33,56a1.6,1.6,0,0,1-1.52,2l-3.61.62a1.34,1.34,0,0,1-.35.05,21.56,21.56,0,0,1-3.18,1.09,69.7,69.7,0,0,1-29.67,4.69c-.58,0-1.35,0-2.2-.08a.9.9,0,0,1,.19.48c0,.11,0,.23,0,.34a3.63,3.63,0,0,1,1.21-.32l1.84-.16a2.66,2.66,0,0,1,2.63,2.63c-.18,21.7.61,43.42.95,65.11.09,5.61.09,11.23.24,16.84.11,3.72,1.4,8.75-.39,12.24a6.81,6.81,0,0,1-3.41,3.09l.08,1.31c0,.13,0,.25.07.38,4.14,7.07,4.3,16.48,4.74,24.38.63,11.27.52,22.52.22,33.8q-.21,8.31-.34,16.6l.82,13.16H967.49ZM460.76,148.38H537.2v35.33H460.76Zm-363.69,0h346.1v35.33H97.07ZM337.66,202.7V238H295.8V202.7Zm-241,0H286.16V238H96.61ZM305.34,343.32H96.55V308H305.34Zm51,0H314.45V308h41.86Zm10.31-52.49H97.07V255.5H366.62ZM555.56,238H346.77V202.7H555.56Zm182.9,0H564V202.7h174.5Zm194.13,52.8H856.66V255.5h75.93Zm0-52.8H758.09V202.7h174.5Zm0-54.32H551.37V148.38H932.59Z"/><path class="cls-1" d="M626.14,607.1c-15.37,3.76-34.5,8.69-47.6,12.1h49.1Q626.88,613.16,626.14,607.1Z"/><path class="cls-1" d="M535.23,708.51h1c-3.49-11.82-7.6-26.21-11.43-40.81l-2.37.09Z"/><path class="cls-1" d="M211.4,970.53a.47.47,0,0,1,0,.17l.15-.1a21.26,21.26,0,0,0,6.92-4.05,17.84,17.84,0,0,0,3.58-4.37,9.61,9.61,0,0,0-2.8-.07,7.65,7.65,0,0,0-3.48,1.09,9.17,9.17,0,0,0-4,6.79.55.55,0,0,1-.39.49A.09.09,0,0,1,211.4,970.53Z"/><path class="cls-1" d="M305.71,971.21,301.5,971a12.56,12.56,0,0,1,3,2.22C304.89,972.54,305.3,971.87,305.71,971.21Z"/><path class="cls-1" d="M642.08,416.15c-1.62-5.44-3-10.9-4.14-16.43a1.12,1.12,0,0,0-.05-.13,15.44,15.44,0,0,1-5.91-2.8c-3.7-3.08-7.91-9.6-9.86-13.93-4.45-9.88,7-18.66,14.42-23h0c-.29-.63-.54-1.26-.76-1.88-.8-2.22-.37-4.67,1.94-5.75,1.88-.88,3.91-.29,5.75.41.85.32,1.76.65,2.65,1l1-.56L651,290.83H591.15l-18.62,4a2.37,2.37,0,0,1,.54,1.42c.25,4.22-3.42,6.39-5.26,9.82s-2,7.05-1.81,10.72c4.55,14,32.12,54.17,49.09,78.18l.69-.7a2.36,2.36,0,0,1,3.28,0c.48.57,1,1.13,1.47,1.69a2.49,2.49,0,0,1,.64,1.72l21.63,19.52,0-.19A1.34,1.34,0,0,1,642.08,416.15Z"/><path class="cls-1" d="M565.78,296.49a2.33,2.33,0,0,1,.17-.26l-.44.1A1.91,1.91,0,0,0,565.78,296.49Z"/><path class="cls-1" d="M276,758.16c0,.18-.1.37-.14.55s0,.49.05.74Z"/><path class="cls-1" d="M705.66,388.26c.07.49.15,1,.22,1.48,0-.51,0-1,0-1.53Z"/><polygon class="cls-1" points="607.6 938.15 621.25 981.44 621.25 980.83 752.88 980.83 739.54 938.15 607.6 938.15"/><path class="cls-1" d="M544.14,736.78l.59-.27s-.06-.21-.18-.56a4.38,4.38,0,0,1-.9-2.88c-.82-2.63-2.07-6.66-3.6-11.71h-.77Z"/><path class="cls-1" d="M657.68,251.92v-.07a1.36,1.36,0,0,1,.11-.42c0-.37,0-.74.05-1.1s-.24-.4-.36-.6C657.55,250.46,657.62,251.19,657.68,251.92Z"/><polygon class="cls-1" points="722.18 882.58 590.09 882.58 603.55 925.3 735.52 925.3 722.18 882.58"/><polygon class="cls-1" points="718.16 869.73 706.52 832.46 574.29 832.46 586.04 869.73 718.16 869.73"/><path class="cls-2" d="M74.64,619.2V115.15H967.49V619.2H680.08l.22,3.43H970.93V62.79H71.2V622.63H191.84c.24-1.11.54-2.26.89-3.43Zm892.85-553v45.49H74.64V66.23Z"/><path class="cls-2" d="M353.16,619.2c-.12,1.14-.23,2.29-.35,3.43h159c-.43-1.14-.84-2.29-1.24-3.43Z"/><path class="cls-2" d="M627.64,619.2h-49.1l-13.13,3.43h62.67C627.93,621.49,627.79,620.34,627.64,619.2Z"/><path class="cls-3" d="M97.07,93a4.52,4.52,0,1,0-4.52-4.51A4.51,4.51,0,0,0,97.07,93Z"/><path class="cls-3" d="M112.57,93a4.52,4.52,0,1,0-4.51-4.51A4.51,4.51,0,0,0,112.57,93Z"/><path class="cls-3" d="M128.15,93a4.52,4.52,0,1,0-4.51-4.51A4.51,4.51,0,0,0,128.15,93Z"/><rect class="cls-4" x="97.07" y="148.38" width="346.1" height="35.33"/><rect class="cls-4" x="460.76" y="148.38" width="1.42" height="35.33"/><rect class="cls-5" x="462.18" y="148.38" width="1.42" height="35.33"/><rect class="cls-6" x="463.6" y="148.38" width="1.42" height="35.33"/><rect class="cls-7" x="465.01" y="148.38" width="1.42" height="35.33"/><rect class="cls-8" x="466.43" y="148.38" width="1.42" height="35.33"/><rect class="cls-9" x="467.84" y="148.38" width="1.42" height="35.33"/><rect class="cls-10" x="469.26" y="148.38" width="1.42" height="35.33"/><rect class="cls-11" x="470.67" y="148.38" width="1.42" height="35.33"/><rect class="cls-12" x="472.09" y="148.38" width="1.42" height="35.33"/><rect class="cls-13" x="473.5" y="148.38" width="1.42" height="35.33"/><rect class="cls-14" x="474.92" y="148.38" width="1.42" height="35.33"/><rect class="cls-15" x="476.34" y="148.38" width="1.42" height="35.33"/><rect class="cls-16" x="477.75" y="148.38" width="1.42" height="35.33"/><rect class="cls-17" x="479.17" y="148.38" width="1.42" height="35.33"/><rect class="cls-18" x="480.58" y="148.38" width="1.42" height="35.33"/><rect class="cls-19" x="482" y="148.38" width="1.42" height="35.33"/><rect class="cls-20" x="483.41" y="148.38" width="1.42" height="35.33"/><rect class="cls-21" x="484.83" y="148.38" width="1.42" height="35.33"/><rect class="cls-22" x="486.24" y="148.38" width="1.42" height="35.33"/><rect class="cls-23" x="487.66" y="148.38" width="1.42" height="35.33"/><rect class="cls-24" x="489.07" y="148.38" width="1.42" height="35.33"/><rect class="cls-25" x="490.49" y="148.38" width="1.42" height="35.33"/><rect class="cls-26" x="491.91" y="148.38" width="1.42" height="35.33"/><rect class="cls-27" x="493.32" y="148.38" width="1.42" height="35.33"/><rect class="cls-28" x="494.74" y="148.38" width="1.42" height="35.33"/><rect class="cls-29" x="496.15" y="148.38" width="1.42" height="35.33"/><rect class="cls-30" x="497.57" y="148.38" width="1.42" height="35.33"/><rect class="cls-31" x="498.98" y="148.38" width="1.42" height="35.33"/><rect class="cls-32" x="500.4" y="148.38" width="1.42" height="35.33"/><rect class="cls-33" x="501.81" y="148.38" width="1.42" height="35.33"/><rect class="cls-34" x="503.23" y="148.38" width="1.42" height="35.33"/><rect class="cls-35" x="504.65" y="148.38" width="1.42" height="35.33"/><rect class="cls-36" x="506.06" y="148.38" width="1.42" height="35.33"/><rect class="cls-37" x="507.48" y="148.38" width="1.42" height="35.33"/><rect class="cls-38" x="508.89" y="148.38" width="1.42" height="35.33"/><rect class="cls-39" x="510.31" y="148.38" width="1.42" height="35.33"/><rect class="cls-40" x="511.72" y="148.38" width="1.42" height="35.33"/><rect class="cls-41" x="513.14" y="148.38" width="1.42" height="35.33"/><rect class="cls-42" x="514.55" y="148.38" width="1.42" height="35.33"/><rect class="cls-43" x="515.97" y="148.38" width="1.42" height="35.33"/><rect class="cls-44" x="517.38" y="148.38" width="1.42" height="35.33"/><rect class="cls-45" x="518.8" y="148.38" width="1.42" height="35.33"/><rect class="cls-46" x="520.22" y="148.38" width="1.42" height="35.33"/><rect class="cls-47" x="521.63" y="148.38" width="1.42" height="35.33"/><rect class="cls-48" x="523.05" y="148.38" width="1.42" height="35.33"/><rect class="cls-49" x="524.46" y="148.38" width="1.42" height="35.33"/><rect class="cls-50" x="525.88" y="148.38" width="1.42" height="35.33"/><rect class="cls-51" x="527.29" y="148.38" width="1.42" height="35.33"/><rect class="cls-52" x="528.71" y="148.38" width="1.42" height="35.33"/><rect class="cls-53" x="530.12" y="148.38" width="1.42" height="35.33"/><rect class="cls-54" x="531.54" y="148.38" width="1.42" height="35.33"/><rect class="cls-55" x="532.96" y="148.38" width="1.42" height="35.33"/><rect class="cls-56" x="534.37" y="148.38" width="1.42" height="35.33"/><rect class="cls-57" x="535.79" y="148.38" width="1.42" height="35.33"/><rect class="cls-58" x="551.37" y="148.38" width="381.22" height="35.33"/><rect class="cls-3" x="96.61" y="202.7" width="189.55" height="35.33"/><rect class="cls-58" x="295.8" y="202.7" width="41.86" height="35.33"/><rect class="cls-59" x="346.77" y="202.7" width="208.78" height="35.33"/><rect class="cls-3" x="563.96" y="202.7" width="174.5" height="35.33"/><rect class="cls-4" x="758.09" y="202.7" width="3.23" height="35.33"/><rect class="cls-5" x="761.32" y="202.7" width="3.23" height="35.33"/><rect class="cls-6" x="764.55" y="202.7" width="3.23" height="35.33"/><rect class="cls-7" x="767.79" y="202.7" width="3.23" height="35.33"/><rect class="cls-8" x="771.02" y="202.7" width="3.23" height="35.33"/><rect class="cls-9" x="774.25" y="202.7" width="3.23" height="35.33"/><rect class="cls-10" x="777.48" y="202.7" width="3.23" height="35.33"/><rect class="cls-11" x="780.71" y="202.7" width="3.23" height="35.33"/><rect class="cls-12" x="783.94" y="202.7" width="3.23" height="35.33"/><rect class="cls-13" x="787.17" y="202.7" width="3.23" height="35.33"/><rect class="cls-14" x="790.41" y="202.7" width="3.23" height="35.33"/><rect class="cls-15" x="793.64" y="202.7" width="3.23" height="35.33"/><rect class="cls-16" x="796.87" y="202.7" width="3.23" height="35.33"/><rect class="cls-17" x="800.1" y="202.7" width="3.23" height="35.33"/><rect class="cls-18" x="803.33" y="202.7" width="3.23" height="35.33"/><rect class="cls-19" x="806.56" y="202.7" width="3.23" height="35.33"/><rect class="cls-20" x="809.8" y="202.7" width="3.23" height="35.33"/><rect class="cls-21" x="813.03" y="202.7" width="3.23" height="35.33"/><rect class="cls-22" x="816.26" y="202.7" width="3.23" height="35.33"/><rect class="cls-23" x="819.49" y="202.7" width="3.23" height="35.33"/><rect class="cls-24" x="822.72" y="202.7" width="3.23" height="35.33"/><rect class="cls-25" x="825.95" y="202.7" width="3.23" height="35.33"/><rect class="cls-26" x="829.18" y="202.7" width="3.23" height="35.33"/><rect class="cls-27" x="832.42" y="202.7" width="3.23" height="35.33"/><rect class="cls-28" x="835.65" y="202.7" width="3.23" height="35.33"/><rect class="cls-29" x="838.88" y="202.7" width="3.23" height="35.33"/><rect class="cls-30" x="842.11" y="202.7" width="3.23" height="35.33"/><rect class="cls-31" x="845.34" y="202.7" width="3.23" height="35.33"/><rect class="cls-32" x="848.57" y="202.7" width="3.23" height="35.33"/><rect class="cls-33" x="851.8" y="202.7" width="3.23" height="35.33"/><rect class="cls-34" x="855.04" y="202.7" width="3.23" height="35.33"/><rect class="cls-35" x="858.27" y="202.7" width="3.23" height="35.33"/><rect class="cls-36" x="861.5" y="202.7" width="3.23" height="35.33"/><rect class="cls-37" x="864.73" y="202.7" width="3.23" height="35.33"/><rect class="cls-38" x="867.96" y="202.7" width="3.23" height="35.33"/><rect class="cls-39" x="871.19" y="202.7" width="3.23" height="35.33"/><rect class="cls-40" x="874.42" y="202.7" width="3.23" height="35.33"/><rect class="cls-41" x="877.66" y="202.7" width="3.23" height="35.33"/><rect class="cls-42" x="880.89" y="202.7" width="3.23" height="35.33"/><rect class="cls-43" x="884.12" y="202.7" width="3.23" height="35.33"/><rect class="cls-44" x="887.35" y="202.7" width="3.23" height="35.33"/><rect class="cls-45" x="890.58" y="202.7" width="3.23" height="35.33"/><rect class="cls-46" x="893.81" y="202.7" width="3.23" height="35.33"/><rect class="cls-47" x="897.05" y="202.7" width="3.23" height="35.33"/><rect class="cls-48" x="900.28" y="202.7" width="3.23" height="35.33"/><rect class="cls-49" x="903.51" y="202.7" width="3.23" height="35.33"/><rect class="cls-50" x="906.74" y="202.7" width="3.23" height="35.33"/><rect class="cls-51" x="909.97" y="202.7" width="3.23" height="35.33"/><rect class="cls-52" x="913.2" y="202.7" width="3.23" height="35.33"/><rect class="cls-53" x="916.43" y="202.7" width="3.23" height="35.33"/><rect class="cls-54" x="919.67" y="202.7" width="3.23" height="35.33"/><rect class="cls-55" x="922.9" y="202.7" width="3.23" height="35.33"/><rect class="cls-56" x="926.13" y="202.7" width="3.23" height="35.33"/><rect class="cls-57" x="929.36" y="202.7" width="3.23" height="35.33"/><rect class="cls-4" x="97.07" y="255.5" width="4.99" height="35.33"/><rect class="cls-5" x="102.06" y="255.5" width="4.99" height="35.33"/><rect class="cls-6" x="107.05" y="255.5" width="4.99" height="35.33"/><rect class="cls-7" x="112.04" y="255.5" width="4.99" height="35.33"/><rect class="cls-8" x="117.03" y="255.5" width="4.99" height="35.33"/><rect class="cls-9" x="122.02" y="255.5" width="4.99" height="35.33"/><rect class="cls-10" x="127.02" y="255.5" width="4.99" height="35.33"/><rect class="cls-11" x="132.01" y="255.5" width="4.99" height="35.33"/><rect class="cls-12" x="137" y="255.5" width="4.99" height="35.33"/><rect class="cls-13" x="141.99" y="255.5" width="4.99" height="35.33"/><rect class="cls-14" x="146.98" y="255.5" width="4.99" height="35.33"/><rect class="cls-15" x="151.97" y="255.5" width="4.99" height="35.33"/><rect class="cls-16" x="156.97" y="255.5" width="4.99" height="35.33"/><rect class="cls-17" x="161.96" y="255.5" width="4.99" height="35.33"/><rect class="cls-18" x="166.95" y="255.5" width="4.99" height="35.33"/><rect class="cls-19" x="171.94" y="255.5" width="4.99" height="35.33"/><rect class="cls-20" x="176.93" y="255.5" width="4.99" height="35.33"/><rect class="cls-21" x="181.92" y="255.5" width="4.99" height="35.33"/><rect class="cls-22" x="186.92" y="255.5" width="4.99" height="35.33"/><rect class="cls-23" x="191.91" y="255.5" width="4.99" height="35.33"/><rect class="cls-24" x="196.9" y="255.5" width="4.99" height="35.33"/><rect class="cls-25" x="201.89" y="255.5" width="4.99" height="35.33"/><rect class="cls-26" x="206.88" y="255.5" width="4.99" height="35.33"/><rect class="cls-27" x="211.88" y="255.5" width="4.99" height="35.33"/><rect class="cls-28" x="216.87" y="255.5" width="4.99" height="35.33"/><rect class="cls-29" x="221.86" y="255.5" width="4.99" height="35.33"/><rect class="cls-30" x="226.85" y="255.5" width="4.99" height="35.33"/><rect class="cls-31" x="231.84" y="255.5" width="4.99" height="35.33"/><rect class="cls-32" x="236.83" y="255.5" width="4.99" height="35.33"/><rect class="cls-33" x="241.83" y="255.5" width="4.99" height="35.33"/><rect class="cls-34" x="246.82" y="255.5" width="4.99" height="35.33"/><rect class="cls-35" x="251.81" y="255.5" width="4.99" height="35.33"/><rect class="cls-36" x="256.8" y="255.5" width="4.99" height="35.33"/><rect class="cls-37" x="261.79" y="255.5" width="4.99" height="35.33"/><rect class="cls-38" x="266.78" y="255.5" width="4.99" height="35.33"/><rect class="cls-39" x="271.78" y="255.5" width="4.99" height="35.33"/><rect class="cls-40" x="276.77" y="255.5" width="4.99" height="35.33"/><rect class="cls-41" x="281.76" y="255.5" width="4.99" height="35.33"/><rect class="cls-42" x="286.75" y="255.5" width="4.99" height="35.33"/><rect class="cls-43" x="291.74" y="255.5" width="4.99" height="35.33"/><rect class="cls-44" x="296.73" y="255.5" width="4.99" height="35.33"/><rect class="cls-45" x="301.73" y="255.5" width="4.99" height="35.33"/><rect class="cls-46" x="306.72" y="255.5" width="4.99" height="35.33"/><rect class="cls-47" x="311.71" y="255.5" width="4.99" height="35.33"/><rect class="cls-48" x="316.7" y="255.5" width="4.99" height="35.33"/><rect class="cls-49" x="321.69" y="255.5" width="4.99" height="35.33"/><rect class="cls-50" x="326.68" y="255.5" width="4.99" height="35.33"/><rect class="cls-51" x="331.68" y="255.5" width="4.99" height="35.33"/><rect class="cls-52" x="336.67" y="255.5" width="4.99" height="35.33"/><rect class="cls-53" x="341.66" y="255.5" width="4.99" height="35.33"/><rect class="cls-54" x="346.65" y="255.5" width="4.99" height="35.33"/><rect class="cls-55" x="351.64" y="255.5" width="4.99" height="35.33"/><rect class="cls-56" x="356.63" y="255.5" width="4.99" height="35.33"/><rect class="cls-57" x="361.63" y="255.5" width="4.99" height="35.33"/><rect class="cls-59" x="856.66" y="255.5" width="75.94" height="35.33"/><path class="cls-4" d="M651.53,282.68s-.44-1.88-.94-4.58l-59.44,12.73H651Z"/><path class="cls-4" d="M663.22,283.27a1.3,1.3,0,0,1-.65.79c.24,1.95.4,4,.51,6.11a2.49,2.49,0,0,1,2.12.66H843.89V255.5H663.35C666.51,264.24,665.86,274.42,663.22,283.27Z"/><rect class="cls-58" x="314.45" y="307.99" width="41.86" height="35.33"/><rect class="cls-58" x="96.55" y="307.99" width="208.78" height="35.33"/><path class="cls-3" d="M550,285.66c10.46-10.05,12.26,8.35,15.54,10.67l.44-.1a5.21,5.21,0,0,1,4.88-2.24,2.5,2.5,0,0,1,1.7.83l18.62-4,59.44-12.73c-1.05-5.64-2.37-14.87-.5-18.09,3.7-6.4-2.31,2.65,6.43,9a7.6,7.6,0,0,1,1,.84c0-1.39-.07-2.78-.08-4.18-.2-1.47-.42-2.94-.59-4.41-.6-5.17-1.15-10.35-1.72-15.53a.82.82,0,0,1,.46-.84l-1.22-6.4L480.75,275.71l7.1,37.25,56.13-12A18.68,18.68,0,0,1,550,285.66Z"/><path class="cls-60" d="M302.81,978.68c-3.78,2.73-11.07,3.88-14.9.71s-1.27-7,2.42-8.7l.6-.26L262,968.92c-.29,2-.63,4.55-.95,7.33,9.86,2.72,15.66,11.23,19.19,20.39.29.75-.91,1.23-1.27.54-4.36-8.33-8.87-16.86-17.94-20.77-1.2,10.64-2,24.79,1.69,27.19,6.07,3.93,83.84,3.9,84.41,0,1.79-12.21-5-19.23-13.81-23.2-2.7,2.42-5.36,4.9-8.19,7.17-2.4,1.92-5.05-1.69-2.54-3.29,2.71-1.73,5.54-3.29,8.35-4.87a51.46,51.46,0,0,0-5.46-1.69.43.43,0,0,1-.14.49,96.37,96.37,0,0,1-11.06,7.45c-.05,0-.11,0-.06-.08a97.53,97.53,0,0,1,10.3-8.1c-1.86-.44-3.72-.79-5.53-1.06a1,1,0,0,1-.16.2c-1.92,1.75-4.36,2.6-6.65,3.78s-4.91,2.43-7.38,3.64a.65.65,0,0,1-.79-1,41.44,41.44,0,0,1,6.13-5.17c1-.69,2.07-1.43,3.15-2.08-.8-.06-1.59-.11-2.35-.14a16.13,16.13,0,0,1-5.78-1.3l-.37.91C304.13,976.93,304.52,977.44,302.81,978.68Zm1.68,23.07c14.31.34,27.82-1.66,41.95-3.36,1-.13,1.24,1.62.24,1.79-13.69,2.31-28.32,2.53-42.19,2.87s-28.71.56-42-3.49a.21.21,0,0,1,.06-.42C276.51,999,290.51,1001.42,304.49,1001.75Z"/><path class="cls-60" d="M297.09,971.5a7.75,7.75,0,0,0-3,.27q-4.77.18-.46,6.76c3,.92,8.91-2.16,10.36-4.47a.86.86,0,0,1,.07-.1A15.18,15.18,0,0,0,297.09,971.5Z"/><path class="cls-60" d="M211.14,971.4a14.52,14.52,0,0,1-12.43,3.52c-2.88-.5-7.25-2.35-5.88-6.06a4.93,4.93,0,0,1,1.33-1.9c-.69,0-1.35,0-1.94-.06-1.14-.07-2.29-.19-3.44-.35a37,37,0,0,1-.17,9.81c-.07.43-.75.31-.74-.1.07-3.33.13-6.59,0-9.83a57.53,57.53,0,0,1-11.69-3.11c-2.62-1-6-1.88-8.21-3.75l-1.74-.23c-3,7.7-7.15,18.7-8.79,25.06,9.66,9.41,26.95,12,39.81,13.82a142.76,142.76,0,0,0,45.61-1c.61-.11.86.84.26.93A161.79,161.79,0,0,1,197,999c-13.29-1.72-30.07-4.06-39.62-14.5-.19.73-.34,1.41-.45,2-1.71,9.05,26,13.51,45.09,17s41.91-.72,41.91-.72,6.28-20-20.95-28.09a1.21,1.21,0,0,1-.6,1.12,55.26,55.26,0,0,0-10.51,8.6c-.51.52-1.42-.17-1-.78a33.4,33.4,0,0,1,9.61-9.63c-.6-.15-1.19-.31-1.82-.45-1-.22-1.93-.46-2.83-.71a1.18,1.18,0,0,1-.3.46,42.32,42.32,0,0,1-11.77,7.48c-.73.31-1.46-.73-1-1.34a23.33,23.33,0,0,1,9.65-7.7l-.06,0L212,972A.59.59,0,0,1,211.14,971.4Zm7,17.23A41.54,41.54,0,0,1,223,983c1.79-1.74,3.57-3.75,5.85-4.83.64-.3,1.63.39,1.1,1.11-1.43,1.92-3.46,3.28-5.25,4.86-2,1.73-3.9,3.37-5.95,5C218.41,989.33,217.85,989,218.12,988.63Z"/><path class="cls-60" d="M196.85,968.05c-2.47,1.38-1.27,3.69,1,4.34a12.46,12.46,0,0,0,4.3.38,18,18,0,0,0,7.31-2.23,18.14,18.14,0,0,1-4.53-3A10.12,10.12,0,0,0,196.85,968.05Z"/><path class="cls-61" d="M320.18,499.12c-.1-.95-.24-1.94-.42-2.94,1.91-1.94,3.32-4.88,1.15-7.21a8,8,0,0,0-3.49-1.87,141.15,141.15,0,0,0-6.49-16.29s-3.85-8.18-7.8-11.73h0a38.57,38.57,0,0,1-.49,6.11l-9.45,11.07L295,493.74,289.6,495c-.57-3.13-3.58-5.6-7.07-5.92-5.74-.52-10.28,4.78-10.91,10.11a11.94,11.94,0,0,0,6.8,12.35c1.59,2.95,2.92,5.19,2.92,5.19l1.32,12.86-4.92.47-.15-.29-.09,11.59a84.47,84.47,0,0,0,18.65-5.93l11.06-6.78c.18-3.71,1.29-6.8,4.43-7.12a18.64,18.64,0,0,0,7.29-1.92L322,516C323.26,511.86,320.88,505.93,320.18,499.12Z"/><path class="cls-3" d="M282.66,529.61l-1.32-12.86s-1.33-2.24-2.92-5.19a11.94,11.94,0,0,1-6.8-12.35c.63-5.33,5.17-10.63,10.91-10.11,3.49.32,6.5,2.79,7.07,5.92l5.38-1.28-1.79-17.48,9.45-11.07a38.57,38.57,0,0,0,.49-6.11,18.14,18.14,0,0,0-1.05-6.6c-2-4.76-9.15-5-18.3-4.12-3.08.3-7.59,1.93-12.31,4.18l-1.38.49c-6.64,0-14,3.27-16.87,8.32-9.79,5.94-9.21,20.82-5.57,30.3,5.48,14.26,16.84,25.16,25.07,37.78a2.78,2.78,0,0,0,4.69,0l.18.34.15.29Z"/><path class="cls-61" d="M416,439.52c7.27-11.65-2.6-21.16-2.6-21.16s5.25-15.87-1.69-16.46c-6.31-.54-18.55,29.13-20.71,34.48L407,444.15A9.54,9.54,0,0,0,416,439.52Z"/><path class="cls-58" d="M308.05,971.33l.25-2.57a13.54,13.54,0,0,0-1.69,2.5Z"/><path class="cls-62" d="M529.21,744.2a12.21,12.21,0,0,1,3.34,3.18c.62.92-.56,1.79-1.4,1.4a22.36,22.36,0,0,1-4.6-3.15c-1.75,1-3.54,1.94-5.31,3a3.49,3.49,0,0,1,.44.2,7.13,7.13,0,0,1,2,1.72,1.67,1.67,0,1,1-2.62,2,4.92,4.92,0,0,0-1-1.59c-.35-.35-.68-.7-1-1-10,5.93-19,12.51-18.52,16.78.73,6,23.94,3.45,44.95,1.39l-8.73-27.69C534.46,741.48,531.91,742.78,529.21,744.2Zm13,22c-10,.94-20.47,1.92-30.5,1.37-.26,0-.34-.42-.06-.48,9.91-1.91,20.48-2.35,30.56-2.77C543.41,764.23,543.36,766.05,542.18,766.16Z"/><path class="cls-62" d="M552.74,764.08H582.6c4.85-5.62,4.24-18.53,3.66-24.47l-1.42-.11a4.42,4.42,0,0,1-3.6,2.43l-.9.08c-4,2.07-9.76,2.22-13.6,2.1-7.76-.24-14.57-2.87-21-7.07a4.56,4.56,0,0,1-.64-.5l-.36,0-.59.27Zm1.71-3.13c9.88-2.8,20.4-3,30.57-3.8a.38.38,0,0,1,.1.74c-10,1.92-20.34,4.25-30.61,3.48A.21.21,0,0,1,554.45,761Z"/><path class="cls-58" d="M574,665.83l59.46-2.25c-.37-2.86-.75-5.73-1.13-8.59l-59.57,2.26C573.2,660.1,573.61,663,574,665.83Z"/><path class="cls-58" d="M690.12,780l12.38,39.65H672.73c-18.35,3.85-45.29,5.33-53.28,0H570.24l-13.45-42.68h90.87l-1.28-12.85H552.74l-8.6-27.3-4.86-15.42h.77c-1.15-3.77-2.45-8.09-3.85-12.85h-1L522.4,667.79l2.37-.09q-1.12-4.28-2.21-8.55l-5.89.23h-.12a4.08,4.08,0,0,0-.61.09l-.25.07-.45.17-.25.12a3,3,0,0,0-.42.27l-.2.13a4.18,4.18,0,0,0-.53.5l0,0a4.16,4.16,0,0,0-.41.57l-.12.22a4.54,4.54,0,0,0-.21.45c0,.1-.07.2-.1.3a1.59,1.59,0,0,0-.07.2L422.76,1004a4.35,4.35,0,0,0,2.83,5.31,4,4,0,0,0,5-3l86.56-327.93L530,719v2.38h.75l6,19,8.73,27.69,75.15,238.46a4.11,4.11,0,0,0,3.86,3,3.9,3.9,0,0,0,1.29-.23,4.37,4.37,0,0,0,2.57-5.45l-3.19-10.11H756.89l3.61,11.54a4.09,4.09,0,0,0,3.86,3,3.87,3.87,0,0,0,1.28-.22,4.37,4.37,0,0,0,2.58-5.45L688,745.69Zm16.4,52.5,11.64,37.27H586l-11.75-37.27ZM590.09,882.58H722.18l13.35,42.72h-132Zm31.16,98.25v.61L607.6,938.15H739.54l13.34,42.68Z"/><path class="cls-58" d="M641.73,717.37c-.59-3-1.14-5.9-1.67-8.86H581l2.67,12.85h58.44Z"/><path class="cls-61" d="M602,408.22c4.26-4.5,8.69-8.86,13.07-13.26-17-24-44.54-64.22-49.09-78.18-.15-3.67,0-7.32,1.81-10.72s5.51-5.6,5.26-9.82a2.37,2.37,0,0,0-.54-1.42,2.5,2.5,0,0,0-1.7-.83,5.21,5.21,0,0,0-4.88,2.24,2.33,2.33,0,0,0-.17.26,1.91,1.91,0,0,1-.27-.16c-3.28-2.32-5.08-20.72-15.54-10.67a18.68,18.68,0,0,0-6,15.28c.36,7.37,3.8,15.26,6,23.15,2.65,9.53,29.92,60.51,46.35,90.78C597.64,412.3,600.23,410.11,602,408.22Z"/><path class="cls-61" d="M671.69,373.45a31.61,31.61,0,0,0,1.13,4.25A36.91,36.91,0,0,0,671.69,373.45Z"/><path class="cls-4" d="M661.74,421.78l-.51-.12a6.21,6.21,0,0,0,.44,1.38A7.61,7.61,0,0,0,661.74,421.78Z"/><path class="cls-62" d="M649.28,789.06c2.35.1,4.58.25,6.54,1.65a1.63,1.63,0,0,1-.81,3c-2.19.25-4.13-.41-6.25-.8-1.67-.31-3.31-.58-4.58-1.75-2.2,1.21-4.46,2.52-6.7,3.89a21.6,21.6,0,0,1,3.22,0c3,.21,5.92.7,8.26,2.64,1.84,1.52.29,4.62-1.89,4.59-2.64,0-5.07-1.26-7.52-2.15-1.84-.66-4.4-1.21-5.75-2.74-2.08,1.38-4.09,2.81-6,4.27a14.51,14.51,0,0,1,5.27,1.18c2.48,1,1.61,4.88-1.14,4.15a20.6,20.6,0,0,1-6.87-3.07c-4.34,3.8-7.43,7.73-7.93,11.44-.23,1.74.62,3.14,2.28,4.25,8,5.33,34.93,3.85,53.28,0,9.94-2.08,17.36-4.86,17.88-7.62,1-5.45-2.46-17.8-5.33-26.62-2.21.41-4.43.79-6.66,1.1a52,52,0,0,1-19.18,1.82c-.41,0-.86-.1-1.32-.17a40.29,40.29,0,0,1-4.27-.35h-.06l-4.06.45-1.62.84C648.5,789,648.89,789,649.28,789.06ZM666,813.24c6.78-2.7,13.31-6.37,20.28-8.55.37-.12.53.39.25.59-5.43,3.89-12,6.3-18.14,8.79-6.69,2.7-13.72,5.69-20.82,7.1-.61.12-1.1-.81-.45-1.08C653.25,817.48,659.76,815.71,666,813.24Z"/><path class="cls-3" d="M680.08,619.2,679.26,606q.13-8.29.34-16.6c.3-11.28.41-22.53-.22-33.8-.44-7.9-.6-17.31-4.74-24.38,0-.13,0-.25-.07-.38l-.08-1.31c-5.31,2.44-14.28.69-19,.61L641,529.93a77.07,77.07,0,0,1-15.61-.46,7.66,7.66,0,0,1-2.3-.67c-5.82,2.76-26.28,12.58-48.21,24.24-14,6.7-27.93,13.63-41.69,20.62-9.91,5-20,11.76-23.89,22.7-2.77,7.81-1.25,15.39,1.28,22.84.4,1.14.81,2.29,1.24,3.43,1.7,4.54,3.59,9,4.93,13.49a5.2,5.2,0,0,0,.71,1.52c1.51,6.9,3.25,14.17,5.11,21.51q1.08,4.27,2.21,8.55c3.83,14.6,7.94,29,11.43,40.81,1.4,4.76,2.7,9.08,3.85,12.85,1.53,5,2.78,9.08,3.6,11.71a4.38,4.38,0,0,0,.9,2.88c.12.35.18.56.18.56l.36,0a4.56,4.56,0,0,0,.64.5c6.44,4.2,13.25,6.83,21,7.07,3.84.12,9.62,0,13.6-2.1l.9-.08a4.42,4.42,0,0,0,3.6-2.43l1.42.11,1.24.09-3.81-18.34L581,708.51l-5.13-24.7a1.31,1.31,0,0,1-2.15-.51c-2.25-9.65-4.87-19.3-6.64-29.06C566,648,564,640.89,563.34,634.09a27.44,27.44,0,0,1-4-.44.27.27,0,0,1,0-.51,27.37,27.37,0,0,1,3.91-.44c-.08-1.17-.12-2.33-.11-3.47-3.85,1.49-9,.72-11.33-2.76-.12-.18.05-.38.24-.4,1.8-.21,3.62-.22,5.42-.44a41.36,41.36,0,0,0,5.42-1.37,2.41,2.41,0,0,1,.64-.07l-.2-1,2.11-.56,13.13-3.43c13.1-3.41,32.23-8.34,47.6-12.1q.74,6,1.5,12.1c.15,1.14.29,2.29.44,3.43q1.9,14.91,3.9,29.81c.12.85.23,1.7.34,2.55.38,2.86.76,5.73,1.13,8.59,2,15,3.94,30,6.61,44.93.53,3,1.08,5.91,1.67,8.86l.4,4,4.25,42.72,1.28,12.85,1.13,11.38.94-.1,4.06-.45h.06a40.29,40.29,0,0,0,4.27.35c.46.07.91.12,1.32.17a52,52,0,0,0,19.18-1.82c2.23-.31,4.45-.69,6.66-1.1l1.34-.24a3,3,0,0,0,1.94-1.21l1.79-.2-.23-3.76L688,745.69,680.3,622.63ZM671,567.29c.3-.88,1.67-.52,1.4.38-4.95,16.68-16.72,33.2-33.95,38.58-.27.09-.41-.3-.19-.44C653.21,596.31,665.2,584.37,671,567.29Zm10.67,139.1c1.16,11.09.14,22.27-1.12,33.31-.12,1-1.69,1-1.61,0,.83-11.09.7-22.22,1.55-33.31A.59.59,0,0,1,681.68,706.39Zm-.53-37.57c-.86,13.76-2,27.76-4.85,41.27-.16.76-1.25.42-1.14-.31,2.06-13.66,4.42-27.18,5.66-41C680.84,668.62,681.16,668.61,681.15,668.82Z"/><path class="cls-58" d="M319.79,722.3l-30.37-5.38q-28.31-5-56.43-10.78l-5.81-.37L221.26,730c-6.66,18-10.45,36.93-13.69,56L165.24,959.21l1,.13,1.74.23c2.22,1.87,5.59,2.75,8.21,3.75a57.53,57.53,0,0,0,11.69,3.11l.92.12c1.15.16,2.3.28,3.44.35.59,0,1.25.06,1.94.06,3.05,0,6.73-.36,8.92-2.31a5.64,5.64,0,0,0,.68-.7,9.48,9.48,0,0,0,1.57-5.83l17.58-52.22q3.12-6.51,6.13-13.06c7.35-16.05,14.27-32.26,20.34-48.84s11.63-33.24,16.69-50.1q4-13.15,7.39-26.45c.24-1,.5-1.93.77-2.91q-.15-15.72-.71-31.41s.07,0,.08,0q1.32,12.79,2.22,25.58c0-.18.09-.37.14-.55l-.09,1.29a753.77,753.77,0,0,1,.89,90.32c-.15,3-4.85,3-4.67,0q2-33.72,2.17-67.6l-13.18,186.7.95,0,28.9,1.51a12.47,12.47,0,0,1,10.57.56l4.21.22a17.7,17.7,0,0,1,2.69-3.44l9.93-103.62q2-12.74,4-25.47c2.88-19,5.57-38.12,7.72-57.26s4-38.83,1.83-58.15l.07-.75C328.43,723.86,324.07,723.06,319.79,722.3ZM214.45,839.82c2.28.42,4.16,1.68,6.37,2.38a33.07,33.07,0,0,0,7.18,1.34c3.84.33,3,5.94-.69,5.14-4.63-1-11.33-3.81-13.21-8.52C214,839.94,214.26,839.78,214.45,839.82Zm-1.4-5.5c-.09-.1,0-.27.14-.19a28.07,28.07,0,0,0,10.89,4.55c1.47.24.83,2.73-.62,2.25A22.42,22.42,0,0,1,213.05,834.32ZM274,854.88a12.73,12.73,0,0,0,4.52,5,42.27,42.27,0,0,0,5.17,2.8c1.59.68.13,3.35-1.38,2.36-3.78-2.48-6.33-6.1-8.45-10A.08.08,0,0,1,274,854.88Zm-1.34,7.59a10,10,0,0,0,11.92,3.88c3.45-1.29,5.07,4.87,1.5,5.44-6.51,1-13.11-2.06-15.33-8.51C270.32,862.1,272,861.52,272.64,862.47Z"/><path class="cls-3" d="M669.29,373.38a35,35,0,0,0,3.13,10.88c-.35.54-.69,1.09-1,1.63-.6.66-1.22,1.3-1.86,1.93-.92.87.2,2.09,1.23,1.68a1,1,0,0,0,.91.1c.44-.17.88-.3,1.32-.44a6.53,6.53,0,0,1,2.36,4.82,8,8,0,0,1-.15,1.77,7.34,7.34,0,0,1-6.31,8.26c-3.11.47-6.31.31-8.36-2.37a7.5,7.5,0,0,1-1.41-3.45q-1.26.57-2.49,1.08l0,.07L658.4,421l.18,0c.45,3.48.76,5.75,4.55,6.74.27.07.55.11.82.18,1.38.93,3.76,1.22,5.93,1.33a.84.84,0,0,1,1.31.05c.85,0,1.62,0,2.2.08a69.7,69.7,0,0,0,29.67-4.69,21.56,21.56,0,0,0,3.18-1.09,1.34,1.34,0,0,0,.35-.05l3.61-.62a1.6,1.6,0,0,0,1.52-2c-5.46-18.17.76-38.3-6.33-56C700.8,353.48,690.52,346.5,679,344a17,17,0,0,0-6-.89,43.89,43.89,0,0,0-4.73-.16c-.56,0-.74.93-.14,1l.49.08v.08c.05,1.25.33,8.75.93,15.92C669.22,364.44,668.75,368.85,669.29,373.38Zm36.37,14.88.2-.05c0,.51,0,1,0,1.53C705.81,389.25,705.73,388.75,705.66,388.26Zm2.3,30.88c.07.27.15.53.22.8l-.28,0C707.92,419.7,708,419.42,708,419.14ZM672.82,377.7a31.61,31.61,0,0,1-1.13-4.25A36.91,36.91,0,0,1,672.82,377.7Zm-11.59,44,.51.12a7.61,7.61,0,0,1-.07,1.26A6.21,6.21,0,0,1,661.23,421.66Z"/><path class="cls-61" d="M655.09,245.77c.57,5.18,1.12,10.36,1.72,15.53.17,1.47.39,2.94.59,4.41,0,1.4,0,2.79.08,4.18a7.6,7.6,0,0,0-1-.84c-8.74-6.39-2.73-15.44-6.43-9-1.87,3.22-.55,12.45.5,18.09.5,2.7.94,4.58.94,4.58l-.51,8.15-3.89,62.26-1,.56c-.89-.37-1.8-.7-2.65-1-1.84-.7-3.87-1.29-5.75-.41-2.31,1.08-2.74,3.53-1.94,5.75.22.62.47,1.25.76,1.88h0c-7.39,4.34-18.87,13.12-14.42,23,2,4.33,6.16,10.85,9.86,13.93a15.44,15.44,0,0,0,5.91,2.8,1.12,1.12,0,0,1,.05.13c1.11,5.53,2.52,11,4.14,16.43a1.34,1.34,0,0,0,.67.85l0,.19L658.4,421l-1.79-21.63,0-.07q1.23-.51,2.49-1.08a7.5,7.5,0,0,0,1.41,3.45c2.05,2.68,5.25,2.84,8.36,2.37a7.34,7.34,0,0,0,6.31-8.26,8,8,0,0,0,.15-1.77,6.53,6.53,0,0,0-2.36-4.82c-.44.14-.88.27-1.32.44a1,1,0,0,1-.91-.1c-1,.41-2.15-.81-1.23-1.68.64-.63,1.26-1.27,1.86-1.93.34-.54.68-1.09,1-1.63a35,35,0,0,1-3.13-10.88c-.54-4.53-.07-8.94.31-13.33-.6-7.17-.88-14.67-.93-15.92a29.07,29.07,0,0,0-3.24.44s-.43.15-1.19.45c-.11-10.56-.33-19.82-.72-25.51-.43-6.25-.1-14.85-.23-23.25a2.05,2.05,0,0,0,1.25,0,2.45,2.45,0,0,0,1.69-3,9.32,9.32,0,0,0-.67-2,2.35,2.35,0,0,0-.36-.47,2.49,2.49,0,0,0-2.12-.66c-.11-2.11-.27-4.16-.51-6.11a1.3,1.3,0,0,0,.65-.79c2.64-8.85,3.29-19,.13-27.77a30.11,30.11,0,0,0-2.4-5.07c-.09-.4-.17-.81-.26-1.21a1.23,1.23,0,0,0-1.21-1,27.15,27.15,0,0,0-2.66-3.16,1.08,1.08,0,0,0-1.27-.12A.82.82,0,0,0,655.09,245.77Zm2.7,5.66a1.36,1.36,0,0,0-.11.42v.07c-.06-.73-.13-1.46-.2-2.19.12.2.25.39.36.6S657.81,251.06,657.79,251.43Z"/><path class="cls-3" d="M354.87,601.42q.39-4.33.81-8.67,3.07-16.38,5.88-32.82c21.58-35.59,48.56-114.24,48.56-114.24L407,444.15,391,436.38l-1.75-.86L322,516l-3.08,3.68-3.17,3.79-8.55,5.25-11.06,6.78a84.47,84.47,0,0,1-18.65,5.93l-1.35.25c-6,.21-11.74.2-17.3,2-9.64,1.84-16.75,7-23.37,14.58-1.59,1.41-3.35,3-5.32,4.84-13.61,12.7-32,37.95-37.43,56.11-.35,1.17-.65,2.32-.89,3.43-1.5,7.09-.59,12.75,4,15.6,14.76,9.18,39.28-10.4,44.06-14.44.07.94.15,1.87.26,2.81l-4.92,30c-3.58,14.43-6.78,29-10.3,43.44a4.23,4.23,0,0,0,2.38,4.89l-.14.84,5.81.37q28.15,5.73,56.43,10.78l30.37,5.38c4.28.76,8.64,1.56,12.12.22a9.2,9.2,0,0,0,5.21-5.45c1.55-3.68,1.9-8,2.67-11.87,1-5.09,2-10.17,3-15.26q2.89-15.26,5.31-30.62c1.93-12.2,3.45-24.43,4.75-36.69.12-1.14.23-2.29.35-3.43Q354.07,610.32,354.87,601.42Zm-15.76-24.49c.27-.33.84.11.59.45-12.31,16.92-26.55,32.43-41.62,46.92-.77.75-1.95-.43-1.18-1.17A484.56,484.56,0,0,0,339.11,576.93Zm-66.75,97c22.36-13.61,41.67-30.75,56.72-52.27.12-.17.39,0,.28.16-14.2,21.87-33.37,40.75-56,53.83A1,1,0,0,1,272.36,673.91ZM388.57,441.19c2.43-.12,4.69,1.82,6.78,2.91,2.82,1.46,5.87,2.59,8.58,4.25.89.54.31,2-.72,1.72a45.74,45.74,0,0,1-8.3-4.1c-2.12-1.21-5.31-2.42-6.36-4.74C388.54,441.21,388.55,441.19,388.57,441.19ZM243.06,586.68c.13-.5.81-.34.85.12a154.86,154.86,0,0,1-1.41,34.61c-.31,2.11-3.66,1.53-3.63-.5A153.55,153.55,0,0,1,243.06,586.68ZM281.15,711c-15-2.05-31.85-2.85-45.88-9-.29-.13-.08-.57.2-.49,14.53,4.08,30.2,5.23,45.11,7.35,16.59,2.37,33.23,4.28,49.84,6.51.9.12.95,1.53,0,1.45C314,715.38,297.51,713.19,281.15,711Z"/><path class="cls-2" d="M576.16,683c-.75-5.69-1.42-11.42-2.17-17.14-.38-2.86-.79-5.73-1.24-8.58-.17-1.09-.33-2.19-.51-3.28-1.56-9-2.39-20.1-6.48-28.31a1.25,1.25,0,0,0-.48-.51,2.18,2.18,0,0,0-1.78-1,2.41,2.41,0,0,0-.64.07,41.36,41.36,0,0,1-5.42,1.37c-1.8.22-3.62.23-5.42.44-.19,0-.36.22-.24.4,2.38,3.48,7.48,4.25,11.33,2.76,0,1.14,0,2.3.11,3.47a27.37,27.37,0,0,0-3.91.44.27.27,0,0,0,0,.51,27.44,27.44,0,0,0,4,.44c.68,6.8,2.63,13.92,3.76,20.15,1.77,9.76,4.39,19.41,6.64,29.06a1.31,1.31,0,0,0,2.15.51A1,1,0,0,0,576.16,683Z"/><path class="cls-2" d="M675.16,709.78c-.11.73,1,1.07,1.14.31,2.84-13.51,4-27.51,4.85-41.27,0-.21-.31-.2-.33,0C679.58,682.6,677.22,696.12,675.16,709.78Z"/><path class="cls-2" d="M680.5,706.39c-.85,11.09-.72,22.22-1.55,33.31-.08,1,1.49,1,1.61,0,1.26-11,2.28-22.22,1.12-33.31A.59.59,0,0,0,680.5,706.39Z"/><path class="cls-63" d="M655,793.71a1.63,1.63,0,0,0,.81-3c-2-1.4-4.19-1.55-6.54-1.65-.39,0-.78,0-1.17,0a5.52,5.52,0,0,0-4.09,1.51.33.33,0,0,0,0,.46l.16.14c1.27,1.17,2.91,1.44,4.58,1.75C650.88,793.3,652.82,794,655,793.71Z"/><path class="cls-63" d="M647.07,802.28c2.18,0,3.73-3.07,1.89-4.59-2.34-1.94-5.26-2.43-8.26-2.64a21.6,21.6,0,0,0-3.22,0,6.24,6.24,0,0,0-3.76,1.43.62.62,0,0,0,0,.84l.08.07c1.35,1.53,3.91,2.08,5.75,2.74C642,801,644.43,802.23,647.07,802.28Z"/><path class="cls-63" d="M633.11,802.84a14.51,14.51,0,0,0-5.27-1.18,13.74,13.74,0,0,0-3.09.29c-.81.17-.74,1.17-.21,1.57l.56.4A20.6,20.6,0,0,0,632,807C634.72,807.72,635.59,803.87,633.11,802.84Z"/><path class="cls-63" d="M647.1,820.09c-.65.27-.16,1.2.45,1.08,7.1-1.41,14.13-4.4,20.82-7.1,6.17-2.49,12.71-4.9,18.14-8.79.28-.2.12-.71-.25-.59-7,2.18-13.5,5.85-20.28,8.55C659.76,815.71,653.25,817.48,647.1,820.09Z"/><path class="cls-63" d="M532.55,747.38a12.21,12.21,0,0,0-3.34-3.18,39.22,39.22,0,0,0-6-3.08.75.75,0,0,0-.76,1.3c1.4.94,2.71,2.1,4.06,3.21a22.36,22.36,0,0,0,4.6,3.15C532,749.17,533.17,748.3,532.55,747.38Z"/><path class="cls-63" d="M554.51,761.37c10.27.77,20.58-1.56,30.61-3.48a.38.38,0,0,0-.1-.74c-10.17.84-20.69,1-30.57,3.8A.21.21,0,0,0,554.51,761.37Z"/><path class="cls-63" d="M511.62,767.05c-.28.06-.2.46.06.48,10,.55,20.51-.43,30.5-1.37,1.18-.11,1.23-1.93,0-1.88C532.1,764.7,521.53,765.14,511.62,767.05Z"/><path class="cls-63" d="M520,750.93a4.92,4.92,0,0,1,1,1.59,1.67,1.67,0,1,0,2.62-2,7.13,7.13,0,0,0-2-1.72,3.49,3.49,0,0,0-.44-.2,4.5,4.5,0,0,0-2.07-.3c-.57.05-1.09.85-.53,1.29l.35.32C519.35,750.23,519.68,750.58,520,750.93Z"/><path class="cls-64" d="M194.16,967a4.93,4.93,0,0,0-1.33,1.9c-1.37,3.71,3,5.56,5.88,6.06a14.52,14.52,0,0,0,12.43-3.52.59.59,0,0,0,.82.55l.36-.17a60.74,60.74,0,0,0,10.75-6c2.52-1.74,5.09-5.15.94-6.83-6.91-2.81-14.56,2.82-13.52,10a11,11,0,0,0-7.41-4.23C200.89,966.6,197.21,967,194.16,967Zm17.64,3a9.17,9.17,0,0,1,4-6.79,7.65,7.65,0,0,1,3.48-1.09,9.61,9.61,0,0,1,2.8.07,17.84,17.84,0,0,1-3.58,4.37,21.26,21.26,0,0,1-6.92,4.05l-.15.1a.47.47,0,0,0,0-.17.09.09,0,0,0,0,0A.55.55,0,0,0,211.8,970Zm-2.19.44a1.18,1.18,0,0,1-.19.11,18,18,0,0,1-7.31,2.23,12.46,12.46,0,0,1-4.3-.38c-2.23-.65-3.43-3-1-4.34a10.12,10.12,0,0,1,8-.53A11.5,11.5,0,0,1,209.61,970.43Z"/><path class="cls-64" d="M202.73,979.5c-.43.61.3,1.65,1,1.34a42.32,42.32,0,0,0,11.77-7.48,1.18,1.18,0,0,0,.3-.46,1.36,1.36,0,0,0-1.61-1.78c-.61.19-1.23.43-1.84.68A23.33,23.33,0,0,0,202.73,979.5Z"/><path class="cls-64" d="M210.87,983.69c-.4.61.51,1.3,1,.78a55.26,55.26,0,0,1,10.51-8.6,1.21,1.21,0,0,0,.6-1.12,1.25,1.25,0,0,0-1.9-1.11l-.62.42A33.4,33.4,0,0,0,210.87,983.69Z"/><path class="cls-64" d="M218.71,989.09c2-1.62,4-3.26,5.95-5,1.79-1.58,3.82-2.94,5.25-4.86.53-.72-.46-1.41-1.1-1.11-2.28,1.08-4.06,3.09-5.85,4.83a41.54,41.54,0,0,0-4.84,5.67C217.85,989,218.41,989.33,218.71,989.09Z"/><path class="cls-64" d="M187.87,976.26c0,.41.67.53.74.1a37,37,0,0,0,.17-9.81l-.92-.12C188,969.67,187.94,972.93,187.87,976.26Z"/><path class="cls-64" d="M197,999a161.79,161.79,0,0,0,46.09-.86c.6-.09.35-1-.26-.93a142.76,142.76,0,0,1-45.61,1c-12.86-1.83-30.15-4.41-39.81-13.82l0,0a0,0,0,1,0-.07.07l.07.08C167,995,183.73,997.31,197,999Z"/><path class="cls-64" d="M262.49,999.56c13.29,4.05,28.23,3.84,42,3.49s28.5-.56,42.19-2.87c1-.17.78-1.92-.24-1.79-14.13,1.7-27.64,3.7-41.95,3.36-14-.33-28-2.77-41.94-2.61A.21.21,0,0,0,262.49,999.56Z"/><path class="cls-64" d="M305.71,971.21c-.41.66-.82,1.33-1.22,2a12.52,12.52,0,0,0-13.56-2.78l-.6.26c-3.69,1.73-6.14,5.62-2.42,8.7s11.12,2,14.9-.71c1.71-1.24,1.32-1.75,2-3.43l.37-.91a32.42,32.42,0,0,1,1.42-3.08,13.54,13.54,0,0,1,1.69-2.5,6.07,6.07,0,0,1,2.91-2q8.46.36,1.79,3.53a21.39,21.39,0,0,1-5.13,2.1.49.49,0,0,0,.25.94c2.19-.6,9.56-3.21,9.09-6.58-.3-2.11-3.28-1.81-4.65-1.41a9.92,9.92,0,0,0-4.16,2.39A17.7,17.7,0,0,0,305.71,971.21Zm-12.11,7.32q-4.31-6.59.46-6.76a7.75,7.75,0,0,1,3-.27A15.18,15.18,0,0,1,304,974a.86.86,0,0,0-.07.1C302.51,976.37,296.58,979.45,293.6,978.53Z"/><path class="cls-64" d="M304,983a.65.65,0,0,0,.79,1c2.47-1.21,4.94-2.37,7.38-3.64s4.73-2,6.65-3.78a1,1,0,0,0,.16-.2c.87-1.08-.34-2.54-1.62-2.31a12.09,12.09,0,0,0-4.08,1.67c-1.08.65-2.13,1.39-3.15,2.08A41.44,41.44,0,0,0,304,983Z"/><path class="cls-64" d="M314.31,985.66a96.37,96.37,0,0,0,11.06-7.45.43.43,0,0,0,.14-.49.54.54,0,0,0-.79-.36l-.17.12a97.53,97.53,0,0,0-10.3,8.1C314.2,985.62,314.26,985.69,314.31,985.66Z"/><path class="cls-64" d="M325.16,987.57c2.83-2.27,5.49-4.75,8.19-7.17l1.2-1.07c.74-.66-.21-1.82-1.05-1.35s-1.68,1-2.53,1.43c-2.81,1.58-5.64,3.14-8.35,4.87C320.11,985.88,322.76,989.49,325.16,987.57Z"/><path class="cls-64" d="M279,997.18c.36.69,1.56.21,1.27-.54-3.53-9.16-9.33-17.67-19.19-20.39l-.3-.09a.05.05,0,0,0,0,.1l.31.15C270.13,980.32,274.64,988.85,279,997.18Z"/><path class="cls-2" d="M638.27,605.81c-.22.14-.08.53.19.44,17.23-5.38,29-21.9,33.95-38.58.27-.9-1.1-1.26-1.4-.38C665.2,584.37,653.21,596.31,638.27,605.81Z"/><path class="cls-2" d="M296.9,623.13c-.77.74.41,1.92,1.18,1.17,15.07-14.49,29.31-30,41.62-46.92.25-.34-.32-.78-.59-.45A484.56,484.56,0,0,1,296.9,623.13Z"/><path class="cls-2" d="M273.36,675.63c22.63-13.08,41.8-32,56-53.83.11-.17-.16-.33-.28-.16-15.05,21.52-34.36,38.66-56.72,52.27A1,1,0,0,0,273.36,675.63Z"/><path class="cls-2" d="M242.5,621.41a154.86,154.86,0,0,0,1.41-34.61c0-.46-.72-.62-.85-.12a153.55,153.55,0,0,0-4.19,34.23C238.84,622.94,242.19,623.52,242.5,621.41Z"/><path class="cls-2" d="M394.91,446a45.74,45.74,0,0,0,8.3,4.1c1,.33,1.61-1.18.72-1.72-2.71-1.66-5.76-2.79-8.58-4.25-2.09-1.09-4.35-3-6.78-2.91,0,0,0,0,0,0C389.6,443.55,392.79,444.76,394.91,446Z"/><path class="cls-2" d="M330.42,715.34c-16.61-2.23-33.25-4.14-49.84-6.51-14.91-2.12-30.58-3.27-45.11-7.35-.28-.08-.49.36-.2.49,14,6.15,30.83,6.95,45.88,9,16.36,2.22,32.81,4.41,49.27,5.82C331.37,716.87,331.32,715.46,330.42,715.34Z"/><path class="cls-65" d="M276.76,849.77a753.77,753.77,0,0,0-.89-90.32c0-.25,0-.5-.05-.74q-.9-12.8-2.22-25.58s-.08,0-.08,0q.57,15.69.71,31.41c.06,5.88.06,11.75,0,17.63q-.15,33.84-2.17,67.6C271.91,852.76,276.61,852.77,276.76,849.77Z"/><path class="cls-65" d="M282.29,865c1.51,1,3-1.68,1.38-2.36a42.27,42.27,0,0,1-5.17-2.8,12.73,12.73,0,0,1-4.52-5,.08.08,0,0,0-.14.08C276,858.91,278.51,862.53,282.29,865Z"/><path class="cls-65" d="M224.08,838.68a28.07,28.07,0,0,1-10.89-4.55c-.12-.08-.23.09-.14.19a22.42,22.42,0,0,0,10.41,6.61C224.91,841.41,225.55,838.92,224.08,838.68Z"/><path class="cls-65" d="M227.31,848.68c3.68.8,4.53-4.81.69-5.14a33.07,33.07,0,0,1-7.18-1.34c-2.21-.7-4.09-2-6.37-2.38-.19,0-.44.12-.35.34C216,844.87,222.68,847.68,227.31,848.68Z"/><path class="cls-65" d="M286.06,871.79c3.57-.57,1.95-6.73-1.5-5.44a10,10,0,0,1-11.92-3.88c-.61-1-2.32-.37-1.91.81C273,869.73,279.55,872.82,286.06,871.79Z"/><path class="cls-4" d="M677.9,526.48c1.79-3.49.5-8.52.39-12.24-.15-5.61-.15-11.23-.24-16.84-.34-21.69-1.13-43.41-.95-65.11a2.66,2.66,0,0,0-2.63-2.63l-1.84.16a3.63,3.63,0,0,0-1.21.32c0-.11,0-.23,0-.34a.9.9,0,0,0-.19-.48.84.84,0,0,0-1.31-.05c-2.17-.11-4.55-.4-5.93-1.33-.27-.07-.55-.11-.82-.18-3.79-1-4.1-3.26-4.55-6.74l-.18,0-15.6-3.78-21.63-19.52a2.49,2.49,0,0,0-.64-1.72c-.5-.56-1-1.12-1.47-1.69a2.36,2.36,0,0,0-3.28,0l-.69.7c-4.38,4.4-8.81,8.76-13.07,13.26-1.79,1.89-4.38,4.08-5.7,6.65a6.47,6.47,0,0,0-.72,4.35,5.16,5.16,0,0,0,2.26,3.39l8.49,22.31a61.19,61.19,0,0,0-1.87,24c1.59,11.65,8.16,22.14,11.69,33.29.21,1.28.42,2.56.62,3.83.82,5.23.63,13.77,3.82,19l.15.9a3.93,3.93,0,0,0,2.32,2.85,7.66,7.66,0,0,0,2.3.67,77.07,77.07,0,0,0,15.61.46l14.51.25c4.71.08,13.68,1.83,19-.61A6.81,6.81,0,0,0,677.9,526.48Z"/></g></svg>