<svg xmlns="http://www.w3.org/2000/svg" viewBox="0 0 1690.01 1080"><defs><style>.cls-1{fill:none;}.cls-2{fill:#61e6ba;}.cls-3{fill:#224d70;}.cls-4{fill:#6363e5;}.cls-5{fill:#9b7324;}.cls-6{fill:#7876fd;}.cls-7{fill:#50adff;}.cls-8{fill:#dbdbdb;}.cls-9{fill:#386a8c;}.cls-10{fill:#eab18b;}.cls-11{fill:#969696;}.cls-12{fill:#727272;}.cls-13{fill:#0a2d4e;}.cls-14{fill:#fff;}.cls-15{fill:#995f5b;}.cls-16{fill:#172e4b;}.cls-17{fill:#adadad;}.cls-18{fill:#59d3a7;}.cls-19{fill:#ddd;}.cls-20{fill:#3a98dd;}</style></defs><title>Artboard 1</title><g id="Layer_3" data-name="Layer 3"><path class="cls-1" d="M1012.88,777.74l-15.1,87.72q19.92.1,39.53.34l-8.43-223.6Z"/><path class="cls-1" d="M1380.31,343.89l0,.08.06-.05Z"/><path class="cls-1" d="M558.87,756a85.15,85.15,0,0,1-20.24-17.3H524.87a10.69,10.69,0,0,1-.35,1.46L475,892.9c40.5-5.78,88.13-10.83,141.29-15L573.45,764.35C569,761.92,564.13,759.16,558.87,756Z"/><path class="cls-1" d="M461.71,738.65V713.83h.75v-37.5H412.23V903.59q17.36-3.58,37.83-6.9l51.25-158Z"/><path class="cls-1" d="M1364.3,647.25s3,162.49,2.33,234.29q22.47,2.09,43.27,4.39c-3.15-20.44-6.92-45.91-8.49-60.42C1398.5,798.57,1364.3,647.25,1364.3,647.25Z"/><path class="cls-1" d="M645.2,794.9c-14.57-9.82-25.47-11.13-42.74-17.39l37.19,98.67q30-2.13,62-3.87c-.52-9.93-1.18-20.84-2-31.57C675.87,819.65,654.12,800.92,645.2,794.9Z"/><polygon class="cls-1" points="939.92 501.51 950.5 501.51 950.38 501.49 939.92 501.51"/><path class="cls-1" d="M954.59,735.52c.39-12.06.85-24.12,2-36.13,2.33-23.77,5.09-47.65,9.19-71.18,3.7-21.19,6.41-42.72,11.06-63.74L978.48,552a3.46,3.46,0,0,1-2.32-2.23c-1.37-3.49-1.41-8.93-1.48-12.84a35,35,0,0,1,.31-7.92c.06-4.38.19-9.32.32-13.53-1.67,5.42-5.14,11-12.22,14-7.26,3.08-17.15-2.36-25.86-11.36L656.1,560.89c1.86,2.85,3.76,5.78,5.62,8.7l115,.29,4.37,2.58-18.49,79.32h-7.08L752,658.32h93.59v5.86a7.59,7.59,0,0,1,.24,1.8V866.81c29.92-.69,60.59-1.14,91.85-1.32l13.38-102.73Z"/><path class="cls-1" d="M549.15,472.08c.18.44.37.85.55,1.28l-.73-1.91Z"/><polygon class="cls-1" points="1025.42 450.82 1025.55 450.11 1025.24 449.82 1025.42 450.82"/><polygon class="cls-1" points="431.51 658.32 462.45 658.32 462.45 642.28 431.51 658.32"/><path class="cls-1" d="M714.31,743.44c12,8.32,27.42,17.17,33.71,31,3.16,7,4,15,4.88,22.57.71,6.15,1.27,12.3,1.59,18.47,20,19,37.85,38.44,50.09,52.43q12.33-.37,24.83-.71V676.33H637.17l68.16,60.74Q709.78,740.31,714.31,743.44Z"/><path class="cls-2" d="M1466.91,893.12c1.14,16.87,1.81,27.82,1.81,27.82l-3.22-.22a66.11,66.11,0,0,0,6.07,2.63,5.15,5.15,0,0,1,3.75-2.2,2.18,2.18,0,0,1,2.14,2.15,3.59,3.59,0,0,1-.36,1.88q2.43.69,5.09,1.24a11.15,11.15,0,0,0,1-1.29,1.81,1.81,0,0,1,3.29,1.39c-.06.21-.14.42-.21.63,2,.3,4.12.54,6.32.69,1.41-1.19,2.9-2.26,4.24-3.28.67-.51,1.69.34,1.42,1.09s-.64,1.84-1,2.79c23.32,4.56,29,30.87,29,30.87H1416.47V917.39l-1.62-.11s-2.24-13.82-4.95-31.35q-20.79-2.31-43.27-4.39c-.17,17.63-.56,29.79-1.28,32.74a4,4,0,0,1-.23.61c.51,15.46,1.17,42.64-.37,42.64-2.15,0-99.5,2.76-99.5,2.76s-4.84-.55,3.23-16a25.49,25.49,0,0,1,6.1-7,.31.31,0,0,1,.33-.33h0a85.54,85.54,0,0,1,10.55-7.36c-.2-.3-.42-.59-.59-.9-1.22-2.12,1.85-3.8,3.22-1.88l.59.88c2.07-1.19,4.21-2.35,6.37-3.49-.87-2.05,1.86-4.43,3.52-2.48l.42.46c1.8-.91,3.61-1.79,5.38-2.63-1.45-1-2.86-2.13-4.27-3.3-.7-.58.06-1.76.88-1.5a68.07,68.07,0,0,1,7.23,2.68l.37.16c1.29-.59,2.55-1.17,3.78-1.71-4-.91-6.48-1.59-6.48-1.59s2.35-4.35,1.59-37.61c-63.73-4.65-134.87-8-210.84-9.81,1.16,18.14,2.53,30.39,4.32,33.52l-13.52,1.87c8.54,5.29,29.07,16.83,45.66,16.83,14.47,0,8.12,23.08-2.8,22.58-6.13-.28-35.81-.79-58.64-2v6h-28.38V933.25c-1-6.15-.92-18.49-.83-24.8l-3.55.49-1.63-43.14q-19.59-.24-39.53-.34l-6.44,37.41-.31,0a34.81,34.81,0,0,0,16.07,16.3c16.74,8,20.09,13.34,16.07,16.76S999.74,944.57,975,938a120.74,120.74,0,0,0-17.76-3.48v6.6H931.57V927.57c-1.23-7,2.6-20,6-29.48l-4.1-.37,4.2-32.23c-31.26.18-61.93.63-91.85,1.32v10.43c8.37-2.87,15.77-4.27,18.72-1.77,4.45,3.77-5.87,21.41-18.72,37.45v14.55a7.66,7.66,0,0,1-7.66,7.66h-1.09a7.66,7.66,0,0,1-7.08-4.74c-6.33,6-12.1,10.21-15.84,10.68-10.56,1.32-22.51-13.63-28.43-22.2-2.93-1.14-5.42-3.64-7.38-6.66-5.92-5.46-15.61-14.37-27.18-24.93a115.72,115.72,0,0,1-1,13.86c3.74,1.83,2.59,8.17-1.36,9.43-.33.11-.68.18-1,.27l-.12.33a.78.78,0,0,1,1,.53c2.77-3.37,6.14-6.46,10.11-8.07,3.14-1.27,9.16-1.94,11.41,1.49,3.13,4.75-7.36,7.65-15.16,8.9,17.42,6.39,34.85,15.22,27.37,23.18-5.57,5.92-75.44,7-79.73.34-1.79-2.77,0-25,0-25l.09-.33c-2.4-1.62-3.49-5.23-1.38-7.53a28.54,28.54,0,0,1-.47-12.29c.48-3.25.86-6.49,1.19-9.73-.16-3.29-.33-6.75-.52-10.35q-32,1.74-62,3.87l10.68,28.35a10.75,10.75,0,0,1-6.78,13.91,11.44,11.44,0,0,1-14.48-6.52l-12.81-34c-53.16,4.15-100.79,9.2-141.29,15l-6.44,19.86a11.4,11.4,0,0,1-14.16,7.14,10.78,10.78,0,0,1-7.43-13.59l3.12-9.62q-20.44,3.31-37.83,6.9v23.88a7.66,7.66,0,0,1-7.66,7.66h-1.08a7.66,7.66,0,0,1-7.66-7.66V907.19c-43.5,10.22-68,21.75-68,34,0,41.84,287.57,75.76,642.32,75.76s642.32-33.92,642.32-75.76C1612.48,922.92,1557.87,906.19,1466.91,893.12Z"/><path class="cls-2" d="M752,912.91c7.12-.88,20-3.37,16-8.07-3.33-4-11.31.6-14.12,2.75a45.88,45.88,0,0,0-4.82,4.32Z"/><path class="cls-2" d="M817.18,882.67a14.12,14.12,0,0,1,3.61-5.6.79.79,0,0,1,1.22.16c1.78,2.89.8,6.83.14,10.16,2.22-1.09,4.68-2.27,7.26-3.45V867.22q-12.51.33-24.83.71C809.93,874.05,814.23,879.12,817.18,882.67Z"/><path class="cls-2" d="M820.48,882.14c-1.32-2.61-1.89-.39-2.19,1.86l2.58,3.14A8.76,8.76,0,0,0,820.48,882.14Z"/><path class="cls-3" d="M1328,320.1a4.86,4.86,0,0,1,1.55-3.55c2.62-9.77,5-20.49,5-20.49,2.8-11.76,6.73-8.83,22-8.83s27.64,16.89,28,28c.07,2.09.09,4.34,0,6.7l1.19-.16.18,1.42-1.45.19c0,.73-.09,1.46-.15,2.21a10.25,10.25,0,0,1,2.94-.44,10.43,10.43,0,0,1,9.42,6.11c7.73-19.48,12.77-43.71-2.77-55.57-28.35-21.64-57.34-7.94-65.47,1s-1.36,30.65-1.36,43.6c0,1.39.07,2.71.19,4,.21-.68.42-1.41.64-2.15Z"/><path class="cls-3" d="M1387.07,346.67q-.28,2.91-.42,5.84c1-1.81,2.1-3.88,3.26-6.17a10.05,10.05,0,0,1-2.59.35Z"/><path class="cls-4" d="M937.23,518.18a75.43,75.43,0,0,1-5.07-5.8L652.21,554.92c1.25,1.93,2.56,3.93,3.89,6Z"/><polygon class="cls-4" points="462.45 642.28 462.45 634.97 417.4 658.32 431.51 658.32 462.45 642.28"/><path class="cls-4" d="M395.83,669.5,367,684.42A19.72,19.72,0,0,0,333.66,696L28.8,745.65l1.05,6.4,304.07-49.5a19.74,19.74,0,1,0,37-12.83l24.92-12.91V669.5Z"/><path class="cls-4" d="M1083.62,406.26l109-115a19.73,19.73,0,0,0,31.06-22.87l400.88-213.3-22.8,55.49,6,2.47,28.54-69.47-81.43-6-.48,6.48,67.72,5-402,213.91a19.74,19.74,0,0,0-31.59,23.22L1075.58,405.31A17.56,17.56,0,0,1,1083.62,406.26Z"/><path class="cls-3" d="M1312.41,915.87c-1.23.54-2.49,1.12-3.78,1.71,2.31,1,4.79,1.81,6.62,3.56,1.6,1.53-.07,4.06-2.08,3.58-2.58-.61-4.73-2.44-6.91-3.87-.64-.42-1.23-.87-1.84-1.31-1.77.84-3.58,1.72-5.38,2.63a61.84,61.84,0,0,0,8.3,7.72c1.12.88-.09,3-1.41,2.43a22.29,22.29,0,0,1-5.59-2.89,36.22,36.22,0,0,1-4.84-4.59,2.16,2.16,0,0,1-.4-.65c-2.16,1.14-4.3,2.3-6.37,3.49a51.2,51.2,0,0,0,3.07,4.56,27.38,27.38,0,0,0,4.86,4.64.41.41,0,0,1-.42.71c-4-1.67-8.24-4.35-10.73-8a85.54,85.54,0,0,0-10.55,7.36c7.44.11,15.41,4.84,19.87,10.67.88,1.14-1,2.51-1.95,1.51a41.21,41.21,0,0,0-8.11-7.21,52.61,52.61,0,0,0-10-4.29.36.36,0,0,1-.23-.35,25.49,25.49,0,0,0-6.1,7c-8.07,15.48-3.23,16-3.23,16s97.35-2.76,99.5-2.76c1.54,0,.88-27.18.37-42.64C1361.16,925.82,1326.93,919.22,1312.41,915.87Zm-17.21,33.38h1.86a.08.08,0,0,1,0,.15h-1.86A.08.08,0,0,1,1295.2,949.25Zm69.2,3.11c-31,1.34-62.26.61-93.29.74-.54,0-.52-.78,0-.83,30.73-3,62.46-4.66,93.29-2.12A1.11,1.11,0,0,1,1364.4,952.36Z"/><path class="cls-3" d="M1416.47,959.31h109.72s-5.64-26.31-29-30.87c-1.19,3.28-2.66,6.66-5.42,8.71-1.94,1.43-4.8-1-4.06-3.13a14.79,14.79,0,0,1,4.81-6.18c-2.2-.15-4.3-.39-6.32-.69a17.66,17.66,0,0,1-3,5.63c-1.52,2-4.06,4.05-6.68,3.4a2.67,2.67,0,0,1-1.57-3.86c.79-1.69,3.1-2.56,4.59-3.57a12.33,12.33,0,0,0,2.56-2.33q-2.65-.55-5.09-1.24a12.81,12.81,0,0,1-2.25,2.92,21,21,0,0,1-4.08,3.43c-1.85,1.25-3.64-1.12-2.82-2.82a21,21,0,0,1,3-4.57c.22-.27.44-.53.67-.79a66.11,66.11,0,0,1-6.07-2.63l-49-3.33Zm25.23-12.06c8.73.28,17.45.8,26.19,1.09q15.4.49,30.84.85a2.57,2.57,0,0,1,.1-.65c1.53-4.95,6.09-11.29,11.87-11a.28.28,0,0,1,.19.47c-1.5,1.83-3.42,3.27-4.77,5.24a19.76,19.76,0,0,0-2.75,6.08c6.13.11,12.27.21,18.4.25a1.25,1.25,0,0,1,0,2.49c-18,.84-35.89,1.2-53.88.67-9.22-.27-18.45-.56-27.65-1.33-7.68-.65-16-.8-23.27-3.63-.06,0-.07-.12,0-.13C1425,945.85,1433.59,947,1441.7,947.25Z"/><path class="cls-5" d="M1275.12,433.6l-8.51-21.9-30.32,18.47s-8.92-67.41-16-79.88c-9.73-17-25.34-21.64-18.23-12.9,3.08,3.78.59,2.36-9.38,3.39-16.17,1.69-24.13,15.89-17.36,14.85s36.11-5.46,30.91,22.1c-4.47,23.65-5.12,79.32,9.35,85.93s40.8-7,58.94-18.57l-5.56-11.49Z"/><path class="cls-2" d="M1301.55,454.2a14.09,14.09,0,0,1-1.2-.83l.49.93Z"/><path class="cls-5" d="M1341.19,316.72h-8.54a3.34,3.34,0,0,0-3.29,3.38v7.32a3.34,3.34,0,0,0,3.29,3.39h8.54a3.35,3.35,0,0,0,3.29-3.39V320.1A3.34,3.34,0,0,0,1341.19,316.72Z"/><path class="cls-5" d="M1370.25,323.86h0v-2.95a3.35,3.35,0,0,0-3.3-3.39h-8.54a3.35,3.35,0,0,0-3.29,3.39v7.32a3.34,3.34,0,0,0,3.29,3.38H1367a3.35,3.35,0,0,0,3.3-3.38v-4.1Z"/><path class="cls-5" d="M1341.19,315.29a4.75,4.75,0,0,1,4.68,4.81v3.76h7.9v-2.95a4.75,4.75,0,0,1,4.68-4.81H1367a4.75,4.75,0,0,1,4.68,4.81v2.76l12.94-1.71c.09-2.36.07-4.61,0-6.7-.37-11.14-12.7-28-28-28s-19.24-2.93-22,8.83c0,0-2.42,10.72-5,20.49a4.59,4.59,0,0,1,3.13-1.26Z"/><path class="cls-5" d="M1350.65,380.44a13.43,13.43,0,0,0,.51,8.12c1.94,4.94,7.6,7.55,12.64,7.7,6.66.19,15.09-4.45,19.73-10.8a19,19,0,0,0,2.57-4.7,13.1,13.1,0,0,0,.6-7.43c.08-.94.11-1.88.1-2.83-.06-3.59-.58-7.22-.44-10.81.1-2.39.17-4.79.29-7.18q.13-2.92.42-5.84l.25,0a10.05,10.05,0,0,0,2.59-.35,10.7,10.7,0,0,0,7.87-10.41,10.88,10.88,0,0,0-1-4.64,10.43,10.43,0,0,0-9.42-6.11,10.25,10.25,0,0,0-2.94.44c.06-.75.11-1.48.15-2.21l-12.86,1.7v3.12A4.75,4.75,0,0,1,1367,333h-8.54a4.75,4.75,0,0,1-4.68-4.81v-3h-7.9v2.14a4.75,4.75,0,0,1-4.68,4.81h-8.54a4.75,4.75,0,0,1-4.68-4.81V322.1c-.22.74-.43,1.47-.64,2.15a63.12,63.12,0,0,1-2.1,6c-3.37,7.68-.75,27.65,9.33,33.41a36.62,36.62,0,0,0,16.63,4.7l-.17,2-.72,8.38A9.91,9.91,0,0,0,1350.65,380.44Zm29.66-36.55,0,0-.06.05Z"/><path class="cls-6" d="M1300.84,454.3l-.49-.93c-1.21-.92-2.77-2.43-1.86-3.5l-8.62-16.27h-21l5.56,11.49,8.16,16.86C1286.78,456.73,1297.93,454.74,1300.84,454.3Z"/><path class="cls-6" d="M1308,467.84c-7.64-.31-18.18-.16-23.31-1.59l1.16,2.38,7,.3,16.08.67Z"/><path class="cls-5" d="M1308,467.84c3.8.16,6.88.44,8.21,1.08,5.28,2.57,40.62,31.82,65.84,32.95,8.85.4,14.14-2.4,16.9-6.42l17-15.8c-1.43-2.68-2.85-5.36-4.36-8a137.69,137.69,0,0,0-8.74-13.72c-1.62-2.19-4.14-4.35-6.25-6.6l-18.39,17.11c-25.87-7.26-73.7-20.39-77.75-19.5a3.44,3.44,0,0,0-1.94.93c-.91,1.07.65,2.58,1.86,3.5a14.09,14.09,0,0,0,1.2.83l-.71.1c-2.91.44-14.06,2.43-18.21,7.65a10.73,10.73,0,0,0-.64.91c-1,1.65.25,2.7,2.72,3.39C1289.84,467.68,1300.38,467.53,1308,467.84Z"/><path class="cls-7" d="M1305.93,914.28s2.51.68,6.48,1.59c14.52,3.35,48.75,10,52.71-1a4,4,0,0,0,.23-.61c.72-2.95,1.11-15.11,1.28-32.74.69-71.8-2.33-234.29-2.33-234.29s34.2,151.32,37.11,178.26c1.57,14.51,5.34,40,8.49,60.42,2.71,17.53,4.95,31.35,4.95,31.35l1.62.11,49,3.33,3.22.22s-.67-11-1.81-27.82c-3.21-47.63-10.21-142.52-16.66-171.81-7.32-33.23-19.58-118.4-23.37-145.18a10.58,10.58,0,0,1-2.42.54c-40.37,4.35-81.34-3.56-121.2-9.37l-.08.05c-1,10.29-9.91,110.39-.94,220.25,3.42,42,4.85,70.19,5.28,89.07C1308.28,909.93,1305.93,914.28,1305.93,914.28ZM1416.24,582.8a.07.07,0,0,1,.14,0c.18,6.75.82,14.31,8,16.93,2.39.87,2.24,5-.65,4.75-4-.36-7.08-3.46-8.55-7.14C1413.31,592.72,1414.93,587.34,1416.24,582.8Zm-51.39,1.7a.07.07,0,0,1,.14,0v2.31c.17-1,.34-1.93.52-2.89,0-.23.42-.17.4.06-.94,18.31-.63,36.56-1.15,54.85a1.31,1.31,0,0,1-2.62,0c-1.64-16.79-.14-34.52,2.71-51.22Zm-58.56,10.65c4.1-2.74,7.87-5.46,10.51-9.74,2.3-3.74,2.85-8.12,4.88-11.86a.84.84,0,0,1,1.52.2c1.88,4.63-.73,11.07-3.22,15-2.86,4.58-6.88,8.54-12,10.28C1305.51,599.88,1304.38,596.43,1306.29,595.15Z"/><path class="cls-3" d="M589.65,512.11a.67.67,0,0,1,.54-1l.49-.06a.59.59,0,0,1,.29,0c5.38-.6,9.7,1.89,12.92,5.7,3.41,2,6.36,4.91,7,8.83,0,0,2.58.14,6.29.75v-16L588.33,510v4.16A11.33,11.33,0,0,1,589.65,512.11Z"/><path class="cls-3" d="M462.46,658.32h29.2c-1.31-3-1.26-10.17-.91-16.23l-5.35.44s-3.14-26,1.3-27.72l4.43-1.72S502.21,549,510,541.71c6.27-5.9,33.46-25,43.72-32.09l-91.23-1v149.7Z"/><path class="cls-3" d="M587.58,676.33h-5.39l.78.87Z"/><path class="cls-3" d="M524.87,738.65h13.76a104.34,104.34,0,0,1-17.4-29.14c-6.11.4-10.12.27-10.12.27l2.39-27.16q-.62-3.32-1-6.29h-50v37.5h-.75v24.82h39.6l-51.25,158-3.12,9.62a10.78,10.78,0,0,0,7.43,13.59,11.4,11.4,0,0,0,14.16-7.14L475,892.9l49.55-152.79A10.69,10.69,0,0,0,524.87,738.65Z"/><path class="cls-3" d="M573.45,764.35l42.81,113.57,12.81,34a11.44,11.44,0,0,0,14.48,6.52,10.75,10.75,0,0,0,6.78-13.91l-10.68-28.35-37.19-98.67A210.21,210.21,0,0,1,573.45,764.35Z"/><path class="cls-8" d="M817.11,900.21a8.85,8.85,0,0,0-.54,3.62q.76-2.49,1.44-5A5.46,5.46,0,0,0,817.11,900.21Z"/><path class="cls-8" d="M829.41,883.94c-2.58,1.18-5,2.36-7.26,3.45-.09.43-.17.85-.24,1.25-.38,2.23-.84,4.44-1.33,6.64a11,11,0,0,1,4.37-.21.75.75,0,0,1,0,1.49,16.38,16.38,0,0,0-4.86.79q-1.35,5.65-3.16,11.18a.88.88,0,0,1-1.71-.23,24.12,24.12,0,0,1,.12-6.5c-5.75,6.9-14.13,12.78-21,16.38a10,10,0,0,1-8.58.69c5.92,8.57,17.87,23.52,28.43,22.2,3.74-.47,9.51-4.65,15.84-10.68a7.68,7.68,0,0,1-.58-2.92Zm-1.19,39.21a106.86,106.86,0,0,1-15.07,12.68c-.13.09-.28-.11-.16-.22,1.75-1.64,3.49-3.31,5.23-5a.46.46,0,0,1-.21-.08,66.93,66.93,0,0,0-11.8-6.75c-5.81-2.47-11.17-2.24-17.3-1.35a.05.05,0,0,1,0-.1c5-1,10.08-1.83,15.08-.28,5.2,1.61,10.06,4.6,14.55,7.61a.48.48,0,0,1,.21.46c2.81-2.69,5.64-5.37,8.56-7.91A.65.65,0,0,1,828.22,923.15Z"/><path class="cls-8" d="M864.54,875.47c-2.95-2.5-10.35-1.1-18.72,1.77v35.68C858.67,896.88,869,879.24,864.54,875.47Zm-2.64,6.67c.39-.56,1.29-.06.93.54A130.79,130.79,0,0,1,847.1,903c-.07.07-.2,0-.14-.11C852.18,896.14,857,889.16,861.9,882.14Z"/><path class="cls-9" d="M817.81,891.47a21.85,21.85,0,0,1,.85,4.65l0,0,.3-1.18c.47-2,1.47-5,1.87-7.77L818.29,884c-.15,1.11-.23,2.21-.29,2.77A39,39,0,0,0,817.81,891.47Z"/><path class="cls-9" d="M514.05,676.33h-1.58q.42,3,1,6.29Z"/><path class="cls-8" d="M747.76,914.72a.7.7,0,0,1-.68-.65c-.24.26-.48.52-.71.79,0,0,0,0,0,0-1.1,1.16-2.25,2.29-3.45,3.36.66-.21,1.37-.34,2-.52,1.42-.38,2.84-.8,4.26-1.19.55-.66,1.11-1.3,1.69-1.93A22.05,22.05,0,0,1,747.76,914.72Z"/><path class="cls-8" d="M750,916.28c1.33-.36,2.65-.7,4-1,.89-.18,1.27,1.15.38,1.37-1.73.41-3.51.68-5.27,1-.78,1.2-1.52,2.42-2.29,3.64a19.36,19.36,0,0,1,4.09-.8l.29-.28a37,37,0,0,1,5.52-4.71c.4-.25.77.3.48.62a38.9,38.9,0,0,1-4.77,4.18c2-.28,3.93-.57,5.9-.8a.66.66,0,0,1,.14,0l.44-.41c.37-.29,1,.1.71.55-.15.2-.31.39-.47.58a.89.89,0,0,1-.82,1h-.06c-.25.25-.49.51-.75.75,2-.21,4-.57,6-.58.69,0,.87,1.09.17,1.23a35.37,35.37,0,0,1-7.38.56l-.54.51-4.36,4.35c-.17.17-.43-.09-.26-.27l3.86-4.38.2-.24c-1.29,0-2.55-.13-3.74-.28-.15,0-.23-.28,0-.3,1.55-.24,3.11-.34,4.67-.46l.66-.79-4.87.28-1.08.07c-1.68,1.45-3.35,2.91-5.08,4.3-.09.07-.2,0-.13-.12,1.28-1.44,2.64-2.78,4-4.1a13.48,13.48,0,0,1-3-.11l-.12.19a.43.43,0,0,1-.75-.43,28.67,28.67,0,0,1,2.42-3.6l-.45.07c-1.39.23-3.9.27-5.53,1a29.53,29.53,0,0,1-7.65,4.84c-2.34,1-9.22,3.14-10.36-.68-1.05-3.5,6.4-7.57,8.72-8.66a23.89,23.89,0,0,1,13.57-2l.92-1h-2c-5.67,1.1-11.74.88-17.44,1.08-7.47.28-14.93.44-22.4.53a4.72,4.72,0,0,1-2.68-.83l-.09.33s-1.79,22.23,0,25c4.29,6.64,74.16,5.58,79.73-.34,7.48-8-9.95-16.79-27.37-23.18-1.4.22-2.71.39-3.84.51C750.78,915.11,750.36,915.69,750,916.28Zm31.65,15.05c.84-.4,1.57.8.74,1.25-9.07,4.94-23.24,3.09-33.21,3.51-13.11.54-26.52-.37-39.56,1-.15,0-.18-.24,0-.27,2.45-.45,4.91-.78,7.39-1,0,0,0,0,0,0a31.55,31.55,0,0,0-14.14-19.45.11.11,0,0,1,.11-.18,28.84,28.84,0,0,1,15.53,19.22.82.82,0,0,1,0,.31c7.81-.72,15.7-.75,23.52-1.09,6.21-.26,12.43-.58,18.64-.9C767.1,933.33,775.64,934.15,781.61,931.33Z"/><path class="cls-8" d="M748.4,912.6a.52.52,0,0,1-.1.11h0a.34.34,0,0,1,.21.53c.78,0,2-.16,3.45-.33l-2.89-1Z"/><path class="cls-8" d="M745.62,913.21a24,24,0,0,0-9.71,1.28,23.52,23.52,0,0,0-4.87,2.35,21.13,21.13,0,0,0-3.14,2.44q-1.85,1-.35,2.7c.16,2.23,1.41,2.66,3.73,1.31a19.31,19.31,0,0,0,4-1.52,26.87,26.87,0,0,0,4.74-3.14A59,59,0,0,0,745.62,913.21Z"/><path class="cls-10" d="M558.19,508.76a.68.68,0,0,1,.81.41q1.13,3.45,2.09,7a27.65,27.65,0,0,0,26,2.8,13,13,0,0,1,1.25-4.79v-5.09c11.37-.76,16.36-12.72,18.4-25.7a6.6,6.6,0,0,0,3.69-8.25,11.61,11.61,0,0,0-2.53-4,156.08,156.08,0,0,0-.61-21.31c-.2-1-.41-1.94-.64-2.87-.44-1.22-7.63-20.47-17.84-21.62a38.63,38.63,0,0,0-19.38,3.17,20.38,20.38,0,0,1,0,12.37c-1.52,4.72-6.08,16.11-8.63,22.4a8.76,8.76,0,0,0-.9-.67c-1.79-2.66-5.33-2.68-7.9-.41-2.83,2.5-3.09,7-2,10.38a14.14,14.14,0,0,0,7.25,8.27,7,7,0,0,0,1.67.55l-.72,2.47a1,1,0,0,1,0,.24l-1,6.65a.58.58,0,0,1-.49.5l.88,15.65s.06.55.17,1.42A.8.8,0,0,1,558.19,508.76Z"/><path class="cls-8" d="M565.94,557c-1.27-7.25-2.73-14.5-4.12-21.76C563,542.11,564.36,549.59,565.94,557Z"/><path class="cls-8" d="M614.5,618.78q-11-30.22-19.22-61.32c-2.75-10.28-5.75-20.71-7.64-31.19a29.42,29.42,0,0,1-.56-7.32,27.65,27.65,0,0,1-26-2.8C565.45,532,567.52,548.87,570,565q2.41,16.07,4.28,32.21c1,7.33,2,16,2.9,25,16.19-1.39,31.67-2.62,38-2.79A1.27,1.27,0,0,1,614.5,618.78Z"/><path class="cls-2" d="M491.13,613.09l-4.43,1.72c-4.44,1.72-1.3,27.72-1.3,27.72l5.35-.44c.08-1.36.17-2.67.26-3.86-.15.81-.26,1.71-.45,2.75-.27,1.5-2.25.91-2.41-.32-.69-5.39,1.38-8.92,6.38-10.74a50.41,50.41,0,0,1,24.07-2.28.53.53,0,0,1,.41.48l9.27-1.41s25.17-2.41,48.85-4.46c-.89-9-1.92-17.7-2.9-25,.83,7.26,1.6,14.52,2.21,21.8.11,1.39-2,1.34-2.15,0-2.17-19.22-4.53-38.42-7.59-57.52-.24-1.49-.5-3-.76-4.47-1.58-7.44-3-14.92-4.12-21.76-1.62-8.48-3.11-17-4-25.51-4.68,3-12,6.41-13.32,12.41-1,4.85.84,12.14,1.4,17.09.73,6.45,1.35,13.19,2.9,19.51C550.49,565.6,554,568,559.67,571c6.19,3.2,5.65,5.39,3,11.4-3.57,8.14-2.27,14,1.42,21.69,2.4,5,5.13,9.88,7.51,14.91.69,1.47-1.39,2.75-2.21,1.29-5.06-8.93-13.57-20.86-12.06-31.79.27-2,1.22-3.49,1.65-5.38,1.88-2.77,2-5.85.24-9.24l-3.83-2.07c-3.39-2-6.06-4.07-7.61-7.84-1.66-4-1.86-9-2.45-13.33q-1.56-11.33-2.23-22.73c-.22-3.65-1.11-7.25,1-10.37,2.66-3.91,8.91-7.07,12.92-9.17a.76.76,0,0,1,.76,0c-.11-.87-.17-1.37-.17-1.42v0l-3.94,2.74c-10.26,7.13-37.45,26.19-43.72,32.09C502.21,549,491.13,613.09,491.13,613.09Zm44.92,10.18c-.12.83-1.52.62-1.46-.2.27-3.45,1.29-9.84-.8-12.7-2.85-3.9-7.54-2.14-11.45-1.73-7.08.75-15.67.65-22.26,3.62-.53.23-1.2-.45-.67-.87,3.6-2.89,7.7-3.25,12.2-3.9,6-.85,12.53-2.24,18.57-1.86C538.37,606.13,537,617.24,536.05,623.27Zm-10.47-28.21c.91-10,2.8-20.29,6.84-29.26.26-.57,1-.12.92.38-1.8,12.69-4.72,24.94-5.71,37.78-.13,1.67-2.7,1.71-2.63,0l.09-1.87a1.14,1.14,0,0,1-1.65.54c-5.16-3.62-11.15-3.58-17.21-4-.31,0-.42-.51-.07-.58,6.35-1.22,13.39-1.45,18.72,2.76a1.08,1.08,0,0,1,.26.32c0-.57.07-1.14.11-1.71a30.71,30.71,0,0,0-7.52-7.82c-2.66-2-5.65-4.46-8.76-5.65-.54-.21-.52-1.14.14-1.09,3.83.3,7.27,2.75,10.37,4.85A27,27,0,0,1,525.58,595.06Z"/><path class="cls-2" d="M511.11,709.78s4,.13,10.12-.27c15.56-1,44.71-5.62,55.68-25.07,1-1.69,1.62-4.48,2.05-8.11H514.05l-.55,6.29Z"/><path class="cls-2" d="M522,658.32h36.85v-6.51C546.66,654.17,533.53,656.63,522,658.32Z"/><path class="cls-2" d="M559.06,651.78h20.25c0-1.28-.12-2.57-.19-3.87C573.11,649,566.26,650.38,559.06,651.78Z"/><path class="cls-2" d="M603.89,516.76a28,28,0,0,1,4,6.56c4.67,10.47,8.76,23.9,6.25,35.41-.48,2.19-2.28,4.91-2.52,7.06q-2.49,1.9-.81,2.17a10.37,10.37,0,0,1,3,.85c2.58,1.32,3.85,3.84,4.79,6.47,4.39,12.35,3.84,27.23,2.23,40-.16,1.26-2.13,1.3-2,0a112.53,112.53,0,0,0-2-34.87c-.81-3.7-1.32-7.15-5.38-9.32-.9-.48-2-.11-2.91-.84a3.39,3.39,0,0,1-1.36-2.35c-.06-.55.5-1.06.59-1.55.48-2.72,2.71-5.54,3.31-8.44,1.22-5.94.17-12.19-1.31-18-2.71-10.65-6.15-25-18.67-27-3.71,9,.52,19.6,2.77,28.63Q597,554,600.54,566.38C605.47,583.79,611,601,617,618.09a1.07,1.07,0,0,1-.45,1.35h.26a69.77,69.77,0,0,1,10,1.35l12.75-51.26,22.21.06c-1.86-2.92-3.76-5.85-5.62-8.7-1.33-2-2.64-4-3.89-6-4.13-6.34-7.69-11.89-9.59-15.45-4.52-8.48-17.56-11.84-25.45-13.13-3.71-.61-6.29-.75-6.29-.75C610.25,521.67,607.3,518.81,603.89,516.76Z"/><path class="cls-10" d="M558.87,651.78h.19c7.2-1.4,14.05-2.74,20.06-3.87,7.18-1.35,13.17-2.39,17-2.79,8.62-.9,17.25-1.77,25.07-2l5.55-22.35a69.77,69.77,0,0,0-10-1.35h-.26a1.46,1.46,0,0,1-1.47,0c-6.28.17-21.76,1.4-38,2.79-23.68,2-48.85,4.46-48.85,4.46L519,628.12a.58.58,0,0,1-.41.69c-5.25,1.14-10.66,1.18-15.93,2.25-2.27.46-5.26.75-7.32,1.82-3.27,1.71-4,3.21-4.34,5.35-.09,1.19-.18,2.5-.26,3.86-.35,6.06-.4,13.23.91,16.23H522c11.51-1.69,24.64-4.15,36.85-6.51Z"/><polygon class="cls-11" points="645.2 572.46 625.35 651.78 755.56 651.78 762.64 651.78 781.13 572.46 645.2 572.46"/><polygon class="cls-12" points="625.35 651.78 619.06 651.78 579.31 651.78 559.06 651.78 558.87 651.78 558.87 651.81 558.87 658.32 751.99 658.32 755.56 651.78 625.35 651.78"/><path class="cls-8" d="M621.21,643.14c-7.82.21-16.45,1.08-25.07,2-3.85.4-9.84,1.44-17,2.79.07,1.3.14,2.59.19,3.87h46l19.85-79.32H781.13l-4.37-2.58-115-.29-22.21-.06-12.75,51.26Z"/><path class="cls-6" d="M403.49,935.13h1.08a7.66,7.66,0,0,0,7.66-7.66V676.33H829.41V927.47a7.66,7.66,0,0,0,7.66,7.66h1.09a7.66,7.66,0,0,0,7.66-7.66V666a7.59,7.59,0,0,0-.24-1.8v-5.86H395.83V927.47A7.66,7.66,0,0,0,403.49,935.13Z"/><path class="cls-13" d="M1043.32,933.25v12.41h28.38v-6c22.83,1.17,52.51,1.68,58.64,2,10.92.5,17.27-22.58,2.8-22.58-16.59,0-37.12-11.54-45.66-16.83l-45,6.2C1042.4,914.76,1042.36,927.1,1043.32,933.25Z"/><path class="cls-13" d="M931.57,927.57v13.58H957.2v-6.6A120.74,120.74,0,0,1,975,938c24.78,6.54,44.19,1.3,48.21-2.13s.67-8.81-16.07-16.76A34.81,34.81,0,0,1,991,902.84l-53.46-4.75C934.17,907.62,930.34,920.54,931.57,927.57Z"/><path class="cls-14" d="M1071.86,559.48l-92.8-7.28,0-.07a3.32,3.32,0,0,1-.55-.09l-1.61,12.43c-4.65,21-7.36,42.55-11.06,63.74-4.1,23.53-6.86,47.41-9.19,71.18-1.18,12-1.64,24.07-2,36.13l-3.54,27.24L937.67,865.49l-4.2,32.23,4.1.37L991,902.84l.31,0,6.44-37.41,15.1-87.72,16-135.54,8.43,223.6,1.63,43.14,3.55-.49,45-6.2,13.52-1.87c-1.79-3.13-3.16-15.38-4.32-33.52,0-.06,0-.13,0-.19,4.59-46.25,1.83-93.43-.88-139.63-1.38-23.64-4.09-47-7.25-70.46-1.76-13.13-3.29-26.3-5-39.45-.56-4.45-1-9-1.64-13.58-1.67-17.68-3.3-33.34-4.68-45.95-.69.48-1.4.95-2.16,1.4A4,4,0,0,1,1071.86,559.48Zm-102.13,146a9,9,0,0,0,3.15,3.33,1.84,1.84,0,0,1,.64,2.45,1.81,1.81,0,0,1-2.46.65,5.89,5.89,0,0,1-2.24-2.89,8.26,8.26,0,0,1-.51-3.16C968.33,705.15,969.39,704.76,969.73,705.47Zm2.31-1.4c-2.9-4.09-3.32-9.62-3.13-14.51,0-.22.37-.29.41-.06.93,4.94,3.29,9,5.12,13.56C975,704.54,972.83,705.18,972,704.07Zm1-15.6c-3-5.78-1.9-12.79-1.08-19,0-.09.14-.1.14,0,.09,6.3,2.72,11.76,3.59,17.85C975.93,688.85,973.88,690.06,973.07,688.47Zm14.12,206.44c-14.62,1.56-30.4-1.48-44.64-4.62a.83.83,0,0,1,.22-1.63c14.72.56,30.36.31,44.82,3.27C989.41,892.3,988.75,894.75,987.19,894.91Zm-3.88-316a1.66,1.66,0,0,1-1.67-2.87,38.19,38.19,0,0,0,15.52-20.2c.26-.77,1.56-.69,1.49.2A27.57,27.57,0,0,1,983.31,578.9Zm51.55,20.27c-1,13.66-3.11,27.35-7.32,40.4-.23.71-1.45.62-1.36-.19,1.46-13.41,3.37-26.75,4.43-40.21s.4-27.19,1.67-40.67c.06-.73,1.18-1,1.35-.18C1036.49,571.52,1035.82,585.77,1034.86,599.17Zm60.49,295.77c-5.85,3.81-14.9,3.57-21.73,4.26a123.57,123.57,0,0,1-26.08.17,1,1,0,0,1-.25-1.9,235.85,235.85,0,0,1,25.43-4.94c7-1.06,15.09-3.91,22-2.14A2.52,2.52,0,0,1,1095.35,894.94Zm-18.67-322.87c-1.38,4-6.78,2.69-9.3.61-3.67-3-3.69-8-3.16-12.33a1,1,0,0,1,1.94,0c.2,3,.61,6.4,2.78,8.65s3.82,1,6.27,1.15A1.53,1.53,0,0,1,1076.68,572.07Z"/><path class="cls-2" d="M991.82,414l7.61-4.46c4.47-9.61,5.07-20.58,6.72-31.1l.76-6.5a13.18,13.18,0,0,1-4.8-.1A15,15,0,0,1,990.59,360c-1-6.22,2.55-13.54,9.21-14.55a10.32,10.32,0,0,1,5.88.73,26.91,26.91,0,0,0,16.17-7.41c7.47-6.91,15.53-22.34,18.38-28.08,9.67-.41,19,3.47,25.21,14.91a88.42,88.42,0,0,1,3.63,26.17c1.27,1.68,2.47,3.44,3.27,4.7,1.9-18.55,1.19-36.34-9.51-45-13.4-10.82-22.69-9.44-22.69-9.44s-21.78-14.2-38.18,3.4a43.57,43.57,0,0,0-6.57,10.53c-7.3,9.39-11.39,21.23-14.83,33.11a307.28,307.28,0,0,0-7.79,34.47c-1.68,10-4.58,21.76-3.21,31.89a1.29,1.29,0,0,0,.2.55c-.12,1.19-.23,2.31-.3,3.34a108.36,108.36,0,0,1,19.33-7.19Z"/><path class="cls-2" d="M1066.36,370.2c-4.67,14-15.69,22.07-28.22,20.84,0,6.8-.62,15.2,6.59,17.08a2.39,2.39,0,0,1,.72.33H1059l3.09-2.5s1.63-.18,4.1-.3c-.12-9.54,2.78-23.94,4.89-38.85A17.83,17.83,0,0,1,1066.36,370.2Z"/><path class="cls-15" d="M1065.44,325.55c-6.16-11.44-15.54-15.32-25.21-14.91-2.85,5.74-10.91,21.17-18.38,28.08a26.91,26.91,0,0,1-16.17,7.41,10.32,10.32,0,0,0-5.88-.73c-6.66,1-10.23,8.33-9.21,14.55a15,15,0,0,0,11.52,11.93,13.18,13.18,0,0,0,4.8.1l-.76,6.5c-1.65,10.52-2.25,21.49-6.72,31.1L991.82,414l30.45,19.41,3,16.37.31.29,3-17,30.4-24.64h-13.52a2.39,2.39,0,0,0-.72-.33c-7.21-1.88-6.57-10.28-6.59-17.08,12.53,1.23,23.55-6.82,28.22-20.84a17.83,17.83,0,0,0,4.69-3.4c2.29-2.38,3.55-5.41,2.24-8.76a16.9,16.9,0,0,0-1-1.62c-.8-1.26-2-3-3.27-4.7A88.42,88.42,0,0,0,1065.44,325.55Zm-62.08,45.53a2.1,2.1,0,0,1-1-.65,1.86,1.86,0,0,1-.57-.84,1.93,1.93,0,0,1-.07-.53,2.24,2.24,0,0,1,.9-2.5,2.14,2.14,0,0,1,1.23-.36,1.86,1.86,0,0,1,1.21,0,2.2,2.2,0,0,1,1.3,2.61,2.1,2.1,0,0,1-.32.77A2.23,2.23,0,0,1,1003.36,371.08Z"/><path class="cls-6" d="M972.06,420.64l12,32.93c10.31.21,25.77,1.14,38.6,1.15,21.68,0,83,42.86,83,42.86l1.14,1.8a82.92,82.92,0,0,1-2.86-7.79c-.11-.37.48-.63.64-.27a169.88,169.88,0,0,0,25.67,40.18c2,2.42-1.78,5.19-3.37,2.6-1.78-2.9-3.6-5.74-5.41-8.57-15.2,9.46-29.79-.35-47.21-9.19-17.94-9.11-49.45-44.44-49.45-44.44s-7.84,4.58-15.31,6.19c-5.81,1.25-12.22.67-17.25-2.17l9.3,25.47-51.17.1.11,0h26.06a36.21,36.21,0,0,1-1.24,14c-.13,4.21-.26,9.15-.32,13.53a35,35,0,0,0-.31,7.92c.07,3.91.11,9.35,1.48,12.84a3.46,3.46,0,0,0,2.32,2.23,3.32,3.32,0,0,0,.55.09l0,.07,92.8,7.28a4,4,0,0,0,3.22-.48c.76-.45,1.47-.92,2.16-1.4,3.65-2.55,6.39-5.65,7.64-10.25,1.43-5.23,1.45-11.07,1.25-16.56,9.69,6.35,30.45,18.91,36.72,14.25,8.27-6.15,22.33-17.15,13.66-51.52-.77-3.07-1.74-6.21-2.86-9.39-1.75-18-13.14-34.13-22.77-49.42-5.86-9.32-15.59-24.31-27.26-28.45a17.56,17.56,0,0,0-8-.95,15.12,15.12,0,0,0-1.86.33c-2.82-.14-5.49-.09-7.56,0-2.47.12-4.1.3-4.1.3l-3.09,2.5-30.4,24.64-3,17-.13.71-.18-1-3-16.37L991.82,414l-3-1.94a108.36,108.36,0,0,0-19.33,7.19c-1,.5-2,1-3.05,1.59Zm16,124.17c.2.4-.42.75-.59.35a18.52,18.52,0,0,1-1.4-10.25.14.14,0,0,1,.27,0A18,18,0,0,0,988.05,544.81ZM982.41,543c.3.64-.66,1.2-1,.55-3.8-8.33.75-16.56,1.4-25.05,0-.26.42-.27.41,0C983,526.7,978.7,535.13,982.41,543Zm118.3-54.11c-5.9-1.86-10.46-6.6-14.47-11.07a.21.21,0,0,1,.29-.3,37.09,37.09,0,0,0,5.5,3.93c-3.86-4.92-6.33-10.82-9.22-16.72,0-.09.08-.16.12-.08a86.55,86.55,0,0,0,12.8,18.9c2,1.07,3.92,2.13,5.83,3.32C1102.6,487.55,1101.93,489.31,1100.71,488.92ZM991.14,441.74c.24-.27.63.12.39.39a8.93,8.93,0,0,0-1.86,3.57.27.27,0,0,1-.53-.14A9.36,9.36,0,0,1,991.14,441.74Z"/><path class="cls-15" d="M1009.5,478.09c7.47-1.61,15.31-6.19,15.31-6.19s31.51,35.33,49.45,44.44c17.42,8.84,32,18.65,47.21,9.19-5.43-8.49-10.76-16.88-14.67-26.15l-1.14-1.8s-61.29-42.85-83-42.86c-12.83,0-28.29-.94-38.6-1.15l8.16,22.35C997.28,478.76,1003.69,479.34,1009.5,478.09Z"/><path class="cls-2" d="M925,453.53c6.73,2.8,14.94,12,14.94,23.39v24.59l10.46,0,51.17-.1-9.3-25.47-8.16-22.35-12-32.93-5.65.24-56.09,2.4,11.13,29.43A7.57,7.57,0,0,1,925,453.53Z"/><path class="cls-15" d="M963.09,529.54c7.08-3,10.55-8.6,12.22-14a36.21,36.21,0,0,0,1.24-14H939.92V476.92c0-11.39-8.21-20.59-14.94-23.39a7.57,7.57,0,0,0-3.53-.82c-3.24.38-3.37,6.28-4,24.21-.35,10.78,6.06,24.58,14.66,35.46a75.43,75.43,0,0,0,5.07,5.8C945.94,527.18,955.83,532.62,963.09,529.54Z"/><path class="cls-2" d="M328.69,451.36h147.9l17.74,32.73V451.36h.22a17.75,17.75,0,0,0,17.69-17.7V379.3a17.75,17.75,0,0,0-17.69-17.7H328.69A17.75,17.75,0,0,0,311,379.3v54.36A17.75,17.75,0,0,0,328.69,451.36Z"/><path class="cls-7" d="M787.78,312.08h137l16.56,32.73V312a17.74,17.74,0,0,0,16.73-17.65V240a17.74,17.74,0,0,0-17.69-17.69H787.78A17.74,17.74,0,0,0,770.08,240v54.36A17.75,17.75,0,0,0,787.78,312.08Z"/><path class="cls-6" d="M1447.57,263.35h143.72a17.74,17.74,0,0,0,17.7-17.69V212.44a17.75,17.75,0,0,0-17.7-17.7H1430.52a17.75,17.75,0,0,0-17.69,17.7v33.22a17.74,17.74,0,0,0,17.46,17.68v25Z"/><path class="cls-14" d="M1385.8,321.8l-1.19.16-12.94,1.71v-2.76a4.75,4.75,0,0,0-4.68-4.81h-8.54a4.75,4.75,0,0,0-4.68,4.81v2.95h-7.9V320.1a4.75,4.75,0,0,0-4.68-4.81h-8.54a4.59,4.59,0,0,0-3.13,1.26,4.86,4.86,0,0,0-1.55,3.55v7.32a4.75,4.75,0,0,0,4.68,4.81h8.54a4.75,4.75,0,0,0,4.68-4.81v-2.14h7.9v3a4.75,4.75,0,0,0,4.68,4.81H1367a4.75,4.75,0,0,0,4.68-4.81v-3.12l12.86-1.7,1.45-.19Zm-41.32,5.62a3.35,3.35,0,0,1-3.29,3.39h-8.54a3.34,3.34,0,0,1-3.29-3.39V320.1a3.34,3.34,0,0,1,3.29-3.38h8.54a3.34,3.34,0,0,1,3.29,3.38Zm22.51,4.19h-8.54a3.34,3.34,0,0,1-3.29-3.38v-7.32a3.35,3.35,0,0,1,3.29-3.39H1367a3.35,3.35,0,0,1,3.3,3.39v2.95h0l0,.27v4.1A3.35,3.35,0,0,1,1367,331.61Z"/><path class="cls-9" d="M816.51,890.64c-.48-.35-1.25.07-2.33,1.26-4.82,2.58.45,5.08,2,2.58C816.63,893.75,816.61,892.22,816.51,890.64Z"/><path class="cls-9" d="M818,896.61a13.59,13.59,0,0,0-.17-1.7,10.3,10.3,0,0,1-.18,2C817.78,896.81,817.9,896.71,818,896.61Z"/><path class="cls-9" d="M794.3,918.18c6.91-3.6,15.29-9.48,21-16.38a11.41,11.41,0,0,1,.78-2.58.63.63,0,0,1-.3-.1c-2.88-1.75-10.2-8.64-5.4-12.13,2.65-1.93,4.58-.93,5.91,1.12a9.66,9.66,0,0,1,0-1.61,18.81,18.81,0,0,1,.86-3.83c-2.95-3.55-7.25-8.62-12.6-14.74-12.24-14-30.05-33.42-50.09-52.43-.32-6.17-.88-12.32-1.59-18.47-.88-7.54-1.72-15.59-4.88-22.57-6.29-13.85-21.72-22.7-33.71-31q-4.51-3.13-9-6.37l-68.16-60.74H587.58l-4.61.87-.78-.87H579c-.43,3.63-1.09,6.42-2.05,8.11-11,19.45-40.12,24-55.68,25.07a104.34,104.34,0,0,0,17.4,29.14A85.15,85.15,0,0,0,558.87,756c5.26,3.21,10.08,6,14.58,8.4a210.21,210.21,0,0,0,29,13.16c17.27,6.26,28.17,7.57,42.74,17.39,8.92,6,30.67,24.75,54.4,45.84.83,10.73,1.49,21.64,2,31.57.19,3.6.36,7.06.52,10.35-.33,3.24-.71,6.48-1.19,9.73a28.54,28.54,0,0,0,.47,12.29c-2.11,2.3-1,5.91,1.38,7.53a4.72,4.72,0,0,0,2.68.83c7.47-.09,14.93-.25,22.4-.53,5.7-.2,11.77,0,17.44-1.08h2l.09-.09a.79.79,0,0,1,.25-.17l.12-.33c.34-.09.69-.16,1-.27,4-1.26,5.1-7.6,1.36-9.43a115.72,115.72,0,0,0,1-13.86c11.57,10.56,21.26,19.47,27.18,24.93,2,3,4.45,5.52,7.38,6.66A10,10,0,0,0,794.3,918.18ZM656.1,741.6c19.95,15.56,40.3,30.94,59.27,47.68.4.35-.14,1.05-.56.74-19.63-14.58-38.47-30.3-57.75-45.33-20-15.57-40.65-30.46-60-46.8-.17-.14,0-.41.23-.3C617.64,711.09,636.86,726.6,656.1,741.6Zm80.1,129.2s0,.11-.07.08a244.23,244.23,0,0,1-34.26-27.83.05.05,0,0,1,.07-.08C713.34,852.27,724.6,861.74,736.2,870.8Z"/><path class="cls-16" d="M597.3,697.59c-.18-.11-.4.16-.23.3,19.34,16.34,40,31.23,60,46.8,19.28,15,38.12,30.75,57.75,45.33.42.31,1-.39.56-.74-19-16.74-39.32-32.12-59.27-47.68C636.86,726.6,617.64,711.09,597.3,697.59Z"/><path class="cls-16" d="M701.87,843.05a244.23,244.23,0,0,0,34.26,27.83s.11,0,.07-.08c-11.6-9.06-22.86-18.53-34.26-27.83A.05.05,0,0,0,701.87,843.05Z"/><path class="cls-17" d="M747.32,911.43l-.92,1a23.89,23.89,0,0,0-13.57,2c-2.32,1.09-9.77,5.16-8.72,8.66,1.14,3.82,8,1.66,10.36.68a29.53,29.53,0,0,0,7.65-4.84c1.63-.74,4.14-.78,5.53-1l.45-.07a28.67,28.67,0,0,0-2.42,3.6.43.43,0,0,0,.75.43l.12-.19a13.48,13.48,0,0,0,3,.11c-1.38,1.32-2.74,2.66-4,4.1-.07.08,0,.19.13.12,1.73-1.39,3.4-2.85,5.08-4.3l1.08-.07,4.87-.28-.66.79c-1.56.12-3.12.22-4.67.46-.19,0-.11.28,0,.3,1.19.15,2.45.23,3.74.28l-.2.24-3.86,4.38c-.17.18.09.44.26.27l4.36-4.35.54-.51a35.37,35.37,0,0,0,7.38-.56c.7-.14.52-1.23-.17-1.23-2,0-4,.37-6,.58.26-.24.5-.5.75-.75h.06a.89.89,0,0,0,.82-1c.16-.19.32-.38.47-.58.31-.45-.34-.84-.71-.55l-.44.41a.66.66,0,0,0-.14,0c-2,.23-3.93.52-5.9.8a38.9,38.9,0,0,0,4.77-4.18c.29-.32-.08-.87-.48-.62a37,37,0,0,0-5.52,4.71l-.29.28a19.36,19.36,0,0,0-4.09.8c.77-1.22,1.51-2.44,2.29-3.64,1.76-.28,3.54-.55,5.27-1,.89-.22.51-1.55-.38-1.37-1.34.26-2.66.6-4,1,.4-.59.82-1.17,1.26-1.75,1.13-.12,2.44-.29,3.84-.51,7.8-1.25,18.29-4.15,15.16-8.9-2.25-3.43-8.27-2.76-11.41-1.49-4,1.61-7.34,4.7-10.11,8.07a.78.78,0,0,0-1-.53.79.79,0,0,0-.25.17Zm-12.09,10.34a19.31,19.31,0,0,1-4,1.52c-2.32,1.35-3.57.92-3.73-1.31q-1.5-1.72.35-2.7a21.13,21.13,0,0,1,3.14-2.44,23.52,23.52,0,0,1,4.87-2.35,24,24,0,0,1,9.71-1.28,59,59,0,0,1-5.65,5.42A26.87,26.87,0,0,1,735.23,921.77Zm13.93-5.27c-1.42.39-2.84.81-4.26,1.19-.65.18-1.36.31-2,.52,1.2-1.07,2.35-2.2,3.45-3.36,0,0,0,0,0,0,.23-.27.47-.53.71-.79a.7.7,0,0,0,.68.65,22.05,22.05,0,0,0,3.09-.15C750.27,915.2,749.71,915.84,749.16,916.5Zm4.74-8.91c2.81-2.15,10.79-6.7,14.12-2.75,4,4.7-8.93,7.19-16,8.07-1.46.17-2.67.29-3.45.33a.34.34,0,0,0-.21-.53h0a.52.52,0,0,0,.1-.11l.68-.69A45.88,45.88,0,0,1,753.9,907.59Z"/><path class="cls-17" d="M742,934.57c-7.82.34-15.71.37-23.52,1.09a.82.82,0,0,0,0-.31,28.84,28.84,0,0,0-15.53-19.22.11.11,0,0,0-.11.18,31.55,31.55,0,0,1,14.14,19.45s0,0,0,0c-2.48.26-4.94.59-7.39,1-.15,0-.12.29,0,.27,13-1.4,26.45-.49,39.56-1,10-.42,24.14,1.43,33.21-3.51.83-.45.1-1.65-.74-1.25-6,2.82-14.51,2-21,2.34C754.38,934,748.16,934.31,742,934.57Z"/><path class="cls-17" d="M827.29,922.23c-2.92,2.54-5.75,5.22-8.56,7.91a.48.48,0,0,0-.21-.46c-4.49-3-9.35-6-14.55-7.61-5-1.55-10.06-.69-15.08.28a.05.05,0,0,0,0,.1c6.13-.89,11.49-1.12,17.3,1.35a66.93,66.93,0,0,1,11.8,6.75.46.46,0,0,0,.21.08c-1.74,1.67-3.48,3.34-5.23,5-.12.11,0,.31.16.22a106.86,106.86,0,0,0,15.07-12.68A.65.65,0,0,0,827.29,922.23Z"/><path class="cls-17" d="M847.1,903a130.79,130.79,0,0,0,15.73-20.35c.36-.6-.54-1.1-.93-.54-4.88,7-9.72,14-14.94,20.78C846.9,903,847,903.1,847.1,903Z"/><path class="cls-17" d="M822,877.23a.79.79,0,0,0-1.22-.16,14.12,14.12,0,0,0-3.61,5.6,18.81,18.81,0,0,0-.86,3.83,9.66,9.66,0,0,0,0,1.61c-1.33-2.05-3.26-3.05-5.91-1.12-4.8,3.49,2.52,10.38,5.4,12.13a.63.63,0,0,0,.3.1,11.41,11.41,0,0,0-.78,2.58,24.12,24.12,0,0,0-.12,6.5.88.88,0,0,0,1.71.23q1.82-5.52,3.16-11.18a16.38,16.38,0,0,1,4.86-.79.75.75,0,0,0,0-1.49,11,11,0,0,0-4.37.21c.49-2.2.95-4.41,1.33-6.64.07-.4.15-.82.24-1.25C822.81,884.06,823.79,880.12,822,877.23Zm-1.53,4.91a8.76,8.76,0,0,1,.39,5c-.4,2.76-1.4,5.74-1.87,7.77l-.3,1.18,0,0a21.85,21.85,0,0,0-.85-4.65,39,39,0,0,1,.19-4.7c.06-.56.14-1.66.29-2.77C818.59,881.75,819.16,879.53,820.48,882.14Zm-3.37,18.07a5.46,5.46,0,0,1,.9-1.39q-.68,2.52-1.44,5A8.85,8.85,0,0,1,817.11,900.21Zm-2.93-8.31c1.08-1.19,1.85-1.61,2.33-1.26.1,1.58.12,3.11-.34,3.84C814.63,897,809.36,894.48,814.18,891.9Zm3.67,3a13.59,13.59,0,0,1,.17,1.7c-.12.1-.24.2-.35.31A10.3,10.3,0,0,0,817.85,894.91Z"/><path class="cls-18" d="M530.18,605.63c-6-.38-12.6,1-18.57,1.86-4.5.65-8.6,1-12.2,3.9-.53.42.14,1.1.67.87,6.59-3,15.18-2.87,22.26-3.62,3.91-.41,8.6-2.17,11.45,1.73,2.09,2.86,1.07,9.25.8,12.7-.06.82,1.34,1,1.46.2C537,617.24,538.37,606.13,530.18,605.63Z"/><path class="cls-18" d="M509,585.9c3.11,1.19,6.1,3.65,8.76,5.65a30.71,30.71,0,0,1,7.52,7.82c0,.57-.07,1.14-.11,1.71a1.08,1.08,0,0,0-.26-.32c-5.33-4.21-12.37-4-18.72-2.76-.35.07-.24.56.07.58,6.06.47,12,.43,17.21,4a1.14,1.14,0,0,0,1.65-.54L525,604c-.07,1.71,2.5,1.67,2.63,0,1-12.84,3.91-25.09,5.71-37.78.07-.5-.66-.95-.92-.38-4,9-5.93,19.23-6.84,29.26a27,27,0,0,0-6.1-5.4c-3.1-2.1-6.54-4.55-10.37-4.85C508.45,584.76,508.43,585.69,509,585.9Z"/><path class="cls-18" d="M570,565c-2.43-16.14-4.5-33-8.86-48.86q-1-3.52-2.09-7a.68.68,0,0,0-.81-.41.8.8,0,0,0-.38-.43.76.76,0,0,0-.76,0c-4,2.1-10.26,5.26-12.92,9.17-2.12,3.12-1.23,6.72-1,10.37q.68,11.42,2.23,22.73c.59,4.29.79,9.28,2.45,13.33,1.55,3.77,4.22,5.82,7.61,7.84l3.83,2.07c1.73,3.39,1.64,6.47-.24,9.24-.43,1.89-1.38,3.39-1.65,5.38-1.51,10.93,7,22.86,12.06,31.79.82,1.46,2.9.18,2.21-1.29-2.38-5-5.11-9.89-7.51-14.91-3.69-7.73-5-13.55-1.42-21.69,2.63-6,3.17-8.2-3-11.4-5.69-2.94-9.18-5.36-10.86-12.19-1.55-6.32-2.17-13.06-2.9-19.51-.56-5-2.44-12.24-1.4-17.09,1.29-6,8.64-9.39,13.32-12.41.88,8.53,2.37,17,4,25.51,1.39,7.26,2.85,14.51,4.12,21.76.26,1.49.52,3,.76,4.47,3.06,19.1,5.42,38.3,7.59,57.52.16,1.34,2.26,1.39,2.15,0-.61-7.28-1.38-14.54-2.21-21.8Q572.37,581.08,570,565Z"/><path class="cls-18" d="M587.64,526.27c1.89,10.48,4.89,20.91,7.64,31.19q8.31,31.06,19.22,61.32a1.27,1.27,0,0,0,.58.68,1.46,1.46,0,0,0,1.47,0,1.07,1.07,0,0,0,.45-1.35c-6-17.08-11.53-34.3-16.46-51.71Q597,554,594,541.55c-2.25-9-6.48-19.63-2.77-28.63,12.52,2,16,16.35,18.67,27,1.48,5.78,2.53,12,1.31,18-.6,2.9-2.83,5.72-3.31,8.44-.09.49-.65,1-.59,1.55a3.39,3.39,0,0,0,1.36,2.35c.91.73,2,.36,2.91.84,4.06,2.17,4.57,5.62,5.38,9.32a112.53,112.53,0,0,1,2,34.87c-.13,1.3,1.84,1.26,2,0,1.61-12.75,2.16-27.63-2.23-40-.94-2.63-2.21-5.15-4.79-6.47a10.37,10.37,0,0,0-3-.85q-1.68-.27.81-2.17c.24-2.15,2-4.87,2.52-7.06,2.51-11.51-1.58-24.94-6.25-35.41a28,28,0,0,0-4-6.56c-3.22-3.81-7.54-6.3-12.92-5.7a.59.59,0,0,0-.29,0l-.49.06a.67.67,0,0,0-.54,1,11.33,11.33,0,0,0-1.32,2,13,13,0,0,0-1.25,4.79A29.42,29.42,0,0,0,587.64,526.27Z"/><path class="cls-18" d="M495.35,632.88c2.06-1.07,5-1.36,7.32-1.82,5.27-1.07,10.68-1.11,15.93-2.25a.58.58,0,0,0,.41-.69.53.53,0,0,0-.41-.48,50.41,50.41,0,0,0-24.07,2.28c-5,1.82-7.07,5.35-6.38,10.74.16,1.23,2.14,1.82,2.41.32.19-1,.3-1.94.45-2.75C491.4,636.09,492.08,634.59,495.35,632.88Z"/><path class="cls-6" d="M557.25,490.76l1-6.65a1,1,0,0,0,0-.24l.72-2.47a7,7,0,0,1-1.67-.55,14.14,14.14,0,0,1-7.25-8.27c-1.13-3.39-.87-7.88,2-10.38,2.57-2.27,6.11-2.25,7.9.41a8.76,8.76,0,0,1,.9.67c2.55-6.29,7.11-17.68,8.63-22.4a20.38,20.38,0,0,0,0-12.37,38.63,38.63,0,0,1,19.38-3.17c10.21,1.15,17.4,20.4,17.84,21.62l0,.06s7.8-22.39,7.58-26.69S603,418.89,603,418.89l6-8.12s2.75-4.78-10.08-1.44S572.31,394,564.14,394.52s-15.66,29.63-15.66,29.63c-17.87-2.39-14.86,8.69-12.48,11.92,4.36,5.89,8.11,22.64,8.11,22.64l.74,1.93c1.46,9.16,2.75,18.31,7.76,26.11.13.32.23.54.33.74a.73.73,0,0,0,.11.3c1.54,2.29.83,1.51,3,3.3a.93.93,0,0,0,.76.17A.58.58,0,0,0,557.25,490.76Zm-8.1-18.68-.18-.63.73,1.91C549.52,472.93,549.33,472.52,549.15,472.08Z"/><path class="cls-4" d="M1126.88,534.1c1.59,2.59,5.41-.18,3.37-2.6a169.88,169.88,0,0,1-25.67-40.18c-.16-.36-.75-.1-.64.27a82.92,82.92,0,0,0,2.86,7.79c3.91,9.27,9.24,17.66,14.67,26.15C1123.28,528.36,1125.1,531.2,1126.88,534.1Z"/><path class="cls-4" d="M1101.56,486.9c-1.91-1.19-3.87-2.25-5.83-3.32a86.55,86.55,0,0,1-12.8-18.9c0-.08-.16,0-.12.08,2.89,5.9,5.36,11.8,9.22,16.72a37.09,37.09,0,0,1-5.5-3.93.21.21,0,0,0-.29.3c4,4.47,8.57,9.21,14.47,11.07C1101.93,489.31,1102.6,487.55,1101.56,486.9Z"/><path class="cls-4" d="M989.67,445.7a8.93,8.93,0,0,1,1.86-3.57c.24-.27-.15-.66-.39-.39a9.36,9.36,0,0,0-2,3.82A.27.27,0,0,0,989.67,445.7Z"/><path class="cls-4" d="M982.85,518.53c-.65,8.49-5.2,16.72-1.4,25.05.3.65,1.26.09,1-.55-3.71-7.9.59-16.33.85-24.5C983.27,518.26,982.87,518.27,982.85,518.53Z"/><path class="cls-4" d="M986.33,535a.14.14,0,0,0-.27,0,18.52,18.52,0,0,0,1.4,10.25c.17.4.79.05.59-.35A18,18,0,0,1,986.33,535Z"/><path class="cls-19" d="M975.72,687.35c-.87-6.09-3.5-11.55-3.59-17.85,0-.1-.13-.09-.14,0-.82,6.18-1.88,13.19,1.08,19C973.88,690.06,975.93,688.85,975.72,687.35Z"/><path class="cls-19" d="M974.44,703.06c-1.83-4.58-4.19-8.62-5.12-13.56,0-.23-.4-.16-.41.06-.19,4.89.23,10.42,3.13,14.51C972.83,705.18,975,704.54,974.44,703.06Z"/><path class="cls-19" d="M971.06,711.9a1.81,1.81,0,0,0,2.46-.65,1.84,1.84,0,0,0-.64-2.45,9,9,0,0,1-3.15-3.33c-.34-.71-1.4-.32-1.42.38a8.26,8.26,0,0,0,.51,3.16A5.89,5.89,0,0,0,971.06,711.9Z"/><path class="cls-19" d="M997.16,555.83A38.19,38.19,0,0,1,981.64,576a1.66,1.66,0,0,0,1.67,2.87A27.57,27.57,0,0,0,998.65,556C998.72,555.14,997.42,555.06,997.16,555.83Z"/><path class="cls-19" d="M1032.28,558.5c-1.27,13.48-.6,27.14-1.67,40.67s-3,26.8-4.43,40.21c-.09.81,1.13.9,1.36.19,4.21-13.05,6.34-26.74,7.32-40.4,1-13.4,1.63-27.65-1.23-40.85C1033.46,557.5,1032.34,557.77,1032.28,558.5Z"/><path class="cls-19" d="M1068.94,569c-2.17-2.25-2.58-5.69-2.78-8.65a1,1,0,0,0-1.94,0c-.53,4.33-.51,9.32,3.16,12.33,2.52,2.08,7.92,3.4,9.3-.61a1.53,1.53,0,0,0-1.47-1.92C1072.76,570,1071,571.11,1068.94,569Z"/><path class="cls-2" d="M1424.46,576.67a10.58,10.58,0,0,0,2.42-.54,9.21,9.21,0,0,0,1.87-.89,6.39,6.39,0,0,0,4.58-5.22c3.67-22.14,6.61-44.35,9.26-66.6,8.36-35.37,11.47-75.65-1.7-101.64-12.34-24.37-39.42-30-54.09-31.28,0,.95,0,1.89-.1,2.83a13.1,13.1,0,0,1-.6,7.43,1.41,1.41,0,0,1,1,1.78c-2.57,11.24-11.62,21.31-24.28,19.91-10.5-1.16-18.54-11.41-13.28-21.5.15-.3.57-.08.51.21-2.12,10.25,6.62,16.13,15.69,16.54,9.62.44,15.8-3.79,17.81-12.24-4.64,6.35-13.07,11-19.73,10.8-5-.15-10.7-2.76-12.64-7.7a13.43,13.43,0,0,1-.51-8.12,9.91,9.91,0,0,1-.35-1.77l.72-8.38c-7.07-.39-19.54-.52-29.48,2.37-14.74,4.28-56.92,33.9-56.92,33.9l2,5.14,8.51,21.9h14.75l8.62,16.27a3.44,3.44,0,0,1,1.94-.93c4-.89,51.88,12.24,77.75,19.5l18.39-17.11a17.83,17.83,0,0,1-2.94-3.9c-1.41-2.74-.66-4.52.43-7.35,2-5.19,4.41-11.24,7.61-15.76a1.39,1.39,0,0,1,2.52,1.07c-.62,4-2.25,7.75-3.63,11.57-1.58,4.35-3.06,6.53-.26,10.35,3.58,4.87,7.53,9.31,10.82,14.42,3.86,6,7.24,12.3,10.61,18.58a33.66,33.66,0,0,0,2.37,4.44c.82,1.07,0,1.73,1.36-.75,1.81-3.2,4.34-6.06,6.18-9.3,1.54-2.7,5.73-.26,4.18,2.45-1.86,3.25-7.15,14.58-12.36,13.6-2.24-.42-3.14-3-4.09-4.69-1.18-2.12-2.32-4.27-3.45-6.41l-17,15.8c-2.76,4-8,6.82-16.9,6.42-25.22-1.13-60.56-30.38-65.84-32.95-1.33-.64-4.41-.92-8.21-1.08l.93,1.76-16.08-.67c1.23,21.63,3.13,53.08,4.55,68.49-.63,8.83-.93,17.66-.7,26.36.11,3.87,3.93,5,6.46,3.57l.08-.05C1343.12,573.11,1384.09,581,1424.46,576.67Z"/><path class="cls-18" d="M1402.82,457.93a137.69,137.69,0,0,1,8.74,13.72c1.51,2.64,2.93,5.32,4.36,8,1.13,2.14,2.27,4.29,3.45,6.41,1,1.7,1.85,4.27,4.09,4.69,5.21,1,10.5-10.35,12.36-13.6,1.55-2.71-2.64-5.15-4.18-2.45-1.84,3.24-4.37,6.1-6.18,9.3-1.4,2.48-.54,1.82-1.36.75a33.66,33.66,0,0,1-2.37-4.44c-3.37-6.28-6.75-12.58-10.61-18.58-3.29-5.11-7.24-9.55-10.82-14.42-2.8-3.82-1.32-6,.26-10.35,1.38-3.82,3-7.56,3.63-11.57a1.39,1.39,0,0,0-2.52-1.07c-3.2,4.52-5.62,10.57-7.61,15.76-1.09,2.83-1.84,4.61-.43,7.35a17.83,17.83,0,0,0,2.94,3.9C1398.68,453.58,1401.2,455.74,1402.82,457.93Z"/><path class="cls-18" d="M1365.72,397.7c-9.07-.41-17.81-6.29-15.69-16.54.06-.29-.36-.51-.51-.21-5.26,10.09,2.78,20.34,13.28,21.5,12.66,1.4,21.71-8.67,24.28-19.91a1.41,1.41,0,0,0-1-1.78,19,19,0,0,1-2.57,4.7C1381.52,393.91,1375.34,398.14,1365.72,397.7Z"/><path class="cls-6" d="M1006,369.58a2.1,2.1,0,0,0,.32-.77,2.2,2.2,0,0,0-1.3-2.61,1.86,1.86,0,0,0-1.21,0,2.14,2.14,0,0,0-1.23.36,2.24,2.24,0,0,0-.9,2.5,1.93,1.93,0,0,0,.07.53,1.86,1.86,0,0,0,.57.84,2.1,2.1,0,0,0,1,.65A2.23,2.23,0,0,0,1006,369.58Z"/><path class="cls-20" d="M1362.14,638.83a1.31,1.31,0,0,0,2.62,0c.52-18.29.21-36.54,1.15-54.85,0-.23-.36-.29-.4-.06-.18,1-.35,1.92-.52,2.89V584.5a.07.07,0,0,0-.14,0v3.11C1362,604.31,1360.5,622,1362.14,638.83Z"/><path class="cls-20" d="M1320,588.79c2.49-4,5.1-10.41,3.22-15a.84.84,0,0,0-1.52-.2c-2,3.74-2.58,8.12-4.88,11.86-2.64,4.28-6.41,7-10.51,9.74-1.91,1.28-.78,4.73,1.65,3.92C1313.1,597.33,1317.12,593.37,1320,588.79Z"/><path class="cls-20" d="M1423.7,604.49c2.89.25,3-3.88.65-4.75-7.15-2.62-7.79-10.18-8-16.93a.07.07,0,0,0-.14,0c-1.31,4.54-2.93,9.92-1.09,14.55C1416.62,601,1419.65,604.13,1423.7,604.49Z"/><path class="cls-13" d="M1313.17,924.72c2,.48,3.68-2.05,2.08-3.58-1.83-1.75-4.31-2.58-6.62-3.56l-.37-.16a68.07,68.07,0,0,0-7.23-2.68c-.82-.26-1.58.92-.88,1.5,1.41,1.17,2.82,2.25,4.27,3.3.61.44,1.2.89,1.84,1.31C1308.44,922.28,1310.59,924.11,1313.17,924.72Z"/><path class="cls-13" d="M1300.34,929.43a22.29,22.29,0,0,0,5.59,2.89c1.32.53,2.53-1.55,1.41-2.43a61.84,61.84,0,0,1-8.3-7.72l-.42-.46c-1.66-2-4.39.43-3.52,2.48a2.16,2.16,0,0,0,.4.65A36.22,36.22,0,0,0,1300.34,929.43Z"/><path class="cls-13" d="M1296.24,937.59a.41.41,0,0,0,.42-.71,27.38,27.38,0,0,1-4.86-4.64,51.2,51.2,0,0,1-3.07-4.56l-.59-.88c-1.37-1.92-4.44-.24-3.22,1.88.17.31.39.6.59.9C1288,933.24,1292.28,935.92,1296.24,937.59Z"/><path class="cls-13" d="M1468,928.71c-.82,1.7,1,4.07,2.82,2.82a21,21,0,0,0,4.08-3.43,12.81,12.81,0,0,0,2.25-2.92,3.59,3.59,0,0,0,.36-1.88,2.18,2.18,0,0,0-2.14-2.15,5.15,5.15,0,0,0-3.75,2.2c-.23.26-.45.52-.67.79A21,21,0,0,0,1468,928.71Z"/><path class="cls-13" d="M1479.63,928.75c-1.49,1-3.8,1.88-4.59,3.57a2.67,2.67,0,0,0,1.57,3.86c2.62.65,5.16-1.45,6.68-3.4a17.66,17.66,0,0,0,3-5.63c.07-.21.15-.42.21-.63a1.81,1.81,0,0,0-3.29-1.39,11.15,11.15,0,0,1-1,1.29A12.33,12.33,0,0,1,1479.63,928.75Z"/><path class="cls-13" d="M1487.75,934c-.74,2.17,2.12,4.56,4.06,3.13,2.76-2,4.23-5.43,5.42-8.71.35-1,.67-1.89,1-2.79s-.75-1.6-1.42-1.09c-1.34,1-2.83,2.09-4.24,3.28A14.79,14.79,0,0,0,1487.75,934Z"/><path class="cls-13" d="M1297.06,949.4a.08.08,0,0,0,0-.15h-1.86a.08.08,0,0,0,0,.15Z"/><path class="cls-13" d="M1274.81,937.62a52.61,52.61,0,0,1,10,4.29,41.21,41.21,0,0,1,8.11,7.21c.95,1,2.83-.37,1.95-1.51-4.46-5.83-12.43-10.56-19.87-10.67h0a.31.31,0,0,0-.33.33A.36.36,0,0,0,1274.81,937.62Z"/><path class="cls-13" d="M1271.11,952.27c-.52.05-.54.83,0,.83,31-.13,62.29.6,93.29-.74a1.11,1.11,0,0,0,0-2.21C1333.57,947.61,1301.84,949.3,1271.11,952.27Z"/><path class="cls-13" d="M1417,947.73c7.24,2.83,15.59,3,23.27,3.63,9.2.77,18.43,1.06,27.65,1.33,18,.53,35.91.17,53.88-.67a1.25,1.25,0,0,0,0-2.49c-6.13,0-12.27-.14-18.4-.25a19.76,19.76,0,0,1,2.75-6.08c1.35-2,3.27-3.41,4.77-5.24a.28.28,0,0,0-.19-.47c-5.78-.24-10.34,6.1-11.87,11a2.57,2.57,0,0,0-.1.65q-15.42-.35-30.84-.85c-8.74-.29-17.46-.81-26.19-1.09-8.11-.26-16.74-1.4-24.73.35C1416.9,947.61,1416.91,947.71,1417,947.73Z"/><path class="cls-19" d="M987.59,891.93c-14.46-3-30.1-2.71-44.82-3.27a.83.83,0,0,0-.22,1.63c14.24,3.14,30,6.18,44.64,4.62C988.75,894.75,989.41,892.3,987.59,891.93Z"/><path class="cls-19" d="M1094.75,890.39c-6.94-1.77-15,1.08-22,2.14a235.85,235.85,0,0,0-25.43,4.94,1,1,0,0,0,.25,1.9,123.57,123.57,0,0,0,26.08-.17c6.83-.69,15.88-.45,21.73-4.26A2.52,2.52,0,0,0,1094.75,890.39Z"/></g></svg>