<svg xmlns="http://www.w3.org/2000/svg" viewBox="0 0 1030.19 1080"><defs><style>.cls-1{fill:none;}.cls-2{fill:#fff;}.cls-3{fill:#dbdbdb;}.cls-4{fill:#50adff;}.cls-5{fill:#969696;}.cls-6{fill:#61e6ba;}.cls-7{fill:#e2a17d;}.cls-8{fill:#0a2d4e;}.cls-9{fill:#9e6247;}.cls-10{fill:#c1714d;}.cls-11{fill:#7876fd;}.cls-12{fill:#dba791;}.cls-13{fill:#6363e5;}.cls-14{fill:#d69b61;}.cls-15{fill:#ebf5f8;}.cls-16{fill:#c8dee3;}.cls-17{fill:#f9bf46;}.cls-18{fill:#e88632;}.cls-19{fill:#1d8fcd;}.cls-20{fill:#753c2f;}.cls-21{fill:#f4cdb8;}.cls-22{fill:#386a8c;}.cls-23{fill:#e5a87a;}.cls-24{fill:#59d3a7;}</style></defs><title>Artboard 3</title><g id="Layer_3" data-name="Layer 3"><polygon class="cls-1" points="463.47 807.49 463.47 798.81 461.43 798.81 463.47 807.49"/><path class="cls-1" d="M463.21,694.48h.26V679.27h-2.65C461.65,684.34,462.44,689.43,463.21,694.48Z"/><polygon class="cls-2" points="87.11 83.99 90.36 83.99 90.93 79.99 87.68 79.99 87.11 83.99"/><rect class="cls-2" x="44.93" y="36.63" width="519.25" height="22.7"/><path class="cls-2" d="M185.66,85.06v.15A1,1,0,0,0,186,86a1.33,1.33,0,0,0,.92.31,2.31,2.31,0,0,0,1-.25,1.7,1.7,0,0,0,.7-.68V83.73h-.95C186.42,83.73,185.74,84.17,185.66,85.06Z"/><path class="cls-2" d="M130.7,80.41a1.69,1.69,0,0,0-1.45.73,4,4,0,0,0-.51,2.25,3.57,3.57,0,0,0,.51,2.08,1.84,1.84,0,0,0,2.91,0,3.86,3.86,0,0,0,.52-2.27,3.46,3.46,0,0,0-.52-2.06A1.69,1.69,0,0,0,130.7,80.41Z"/><path class="cls-2" d="M564.17,60.46H44.93v42.76H564.17ZM97.46,80H94.1l-.57,4h3v3.28H93l-.9,6.39H88.89l.9-6.39H86.54l-.89,6.39H82.44l.92-6.39H80.47V84h3.46l.58-4h-3V76.67H85l.89-6.2h3.17l-.89,6.2h3.25l.92-6.2h3.18l-.93,6.2h2.86Zm13.89,5.1a2.61,2.61,0,0,0,2.24,1,3,3,0,0,0,2.13-.63V83.28h-2.41v-2h5v5.12a4.57,4.57,0,0,1-2,1.32,8.31,8.31,0,0,1-2.89.47,5.77,5.77,0,0,1-2.92-.72,5,5,0,0,1-1.94-2.11,7.63,7.63,0,0,1-.7-3.25v-.88a7.93,7.93,0,0,1,.65-3.32,4.81,4.81,0,0,1,1.87-2.15,6.17,6.17,0,0,1,6.42.34,4.68,4.68,0,0,1,1.53,3.17h-2.57a2.59,2.59,0,0,0-.78-1.61,2.51,2.51,0,0,0-1.66-.51,2.37,2.37,0,0,0-2.06,1,5.37,5.37,0,0,0-.71,3V82A5.08,5.08,0,0,0,111.35,85.09Zm14.34-4.17a8.54,8.54,0,0,0-.92-.07,1.87,1.87,0,0,0-1.89,1v6.24h-2.55V78.54h2.41l.07,1.13a2.36,2.36,0,0,1,2.12-1.31,2.52,2.52,0,0,1,.79.12Zm8.31,6a4.75,4.75,0,0,1-6.57,0,5.06,5.06,0,0,1-1.23-3.59v-.12a5.69,5.69,0,0,1,.54-2.52A4,4,0,0,1,128.32,79a4.51,4.51,0,0,1,2.38-.61,4.35,4.35,0,0,1,3.15,1.18,4.75,4.75,0,0,1,1.36,3.21l0,.65A5,5,0,0,1,134,86.92Zm12.36,1.15h-2.13l-1.81-6-1.8,6h-2.13l-2.43-9.53h2.46l1.24,6.06,1.75-6.06h1.84l1.73,6.07,1.25-6.07h2.46Zm8.47-.06a5.06,5.06,0,0,1-1.55.23,2.43,2.43,0,0,1-2.73-2.7V80.4h-1.39V78.54h1.39V76.19h2.55v2.35h1.63V80.4H153.1v4.76a1.17,1.17,0,0,0,.2.76,1.05,1.05,0,0,0,.78.23,4.22,4.22,0,0,0,.75-.06Zm9.49.06h-2.54V82a1.75,1.75,0,0,0-.36-1.21,1.5,1.5,0,0,0-1.17-.39,1.75,1.75,0,0,0-1.62.86v6.78h-2.54V74.54h2.54v5a3.19,3.19,0,0,1,2.55-1.22q3.09,0,3.14,3.6Zm17,0H178.7v-5.5h-5.16v5.5H170.9V75.24h2.64v5.2h5.16v-5.2h2.64Zm10.24,0H189a3,3,0,0,1-.25-.86,3.08,3.08,0,0,1-2.41,1,3.4,3.4,0,0,1-2.32-.81,2.61,2.61,0,0,1-.92-2,2.72,2.72,0,0,1,1.12-2.33,5.6,5.6,0,0,1,3.25-.82h1.17V81.7a1.57,1.57,0,0,0-.34-1.06,1.33,1.33,0,0,0-1.07-.39,1.56,1.56,0,0,0-1,.3,1.07,1.07,0,0,0-.36.85h-2.55a2.56,2.56,0,0,1,.51-1.53,3.43,3.43,0,0,1,1.45-1.11,5.19,5.19,0,0,1,2.09-.4,4.16,4.16,0,0,1,2.8.89,3.09,3.09,0,0,1,1,2.48v4.14a4.45,4.45,0,0,0,.38,2Zm4.17-2.52a1.55,1.55,0,0,0,1.37.64,1.64,1.64,0,0,0,1.14-.39,1.35,1.35,0,0,0,.46-1h2.39a3.37,3.37,0,0,1-.53,1.78,3.56,3.56,0,0,1-1.43,1.25,4.37,4.37,0,0,1-2,.44,4.11,4.11,0,0,1-3.22-1.3,5.1,5.1,0,0,1-1.18-3.58v-.17a5.11,5.11,0,0,1,1.17-3.52,4.1,4.1,0,0,1,3.21-1.31,4,4,0,0,1,2.87,1,3.63,3.63,0,0,1,1.1,2.71h-2.39a1.76,1.76,0,0,0-.46-1.21,1.52,1.52,0,0,0-1.16-.47,1.55,1.55,0,0,0-1.35.65,3.78,3.78,0,0,0-.45,2.11v.26A3.82,3.82,0,0,0,195.75,85.55Zm12.72,2.52L206,84.24l-.92.92v2.91h-2.54V74.54h2.54V82l.5-.63L208,78.54h3.05l-3.44,4,3.74,5.56Zm31,7.72h-1.14V67.54h1.14Z"/><path class="cls-2" d="M44.93,104.36V531.12H232.29V446.61h-8.24a7.76,7.76,0,0,1-7.73-7.74V403.13a7.76,7.76,0,0,1,7.73-7.74h8.24v-9.48h-9.67a6.32,6.32,0,0,1-6.3-6.31v-7.7a6.32,6.32,0,0,1,6.3-6.31h9.67v-61.4h-9.67a6.32,6.32,0,0,1-6.3-6.31v-7.7a6.32,6.32,0,0,1,6.3-6.3h9.67v-9.49h-9.67a6.31,6.31,0,0,1-6.3-6.3v-7.7a6.32,6.32,0,0,1,6.3-6.31h9.67V200.65H117.81v-1.14H232.29V178H564.17v-73.6ZM177.67,415.9a12.34,12.34,0,0,1-6.23,10.72,12.22,12.22,0,0,1-6.12,1.63H122.59a12.36,12.36,0,0,1-12.35-12.35V371.65a12.37,12.37,0,0,1,12.35-12.36h42.73a12.37,12.37,0,0,1,12.35,12.36ZM122.83,243.62h42.54a12.3,12.3,0,0,1,12.3,12.3V300a12.3,12.3,0,0,1-12.3,12.29H122.83A12.31,12.31,0,0,1,110.53,300V255.92A12.31,12.31,0,0,1,122.83,243.62Zm81-67.77H78.46V494.06H71.89V136.35H539.32v39.5Z"/><polygon class="cls-3" points="203.87 136.35 216.31 156.1 203.87 175.85 539.32 175.85 539.32 136.35 203.87 136.35"/><path class="cls-4" d="M203.87,136.35h-132V494.06h6.57V175.85H203.87l12.45-19.75ZM93.35,159.91a4.27,4.27,0,0,1-1.93,1.38,7.91,7.91,0,0,1-2.8.46,5.51,5.51,0,0,1-2.86-.73,4.85,4.85,0,0,1-1.91-2.09,7.29,7.29,0,0,1-.7-3.17v-1a6.77,6.77,0,0,1,1.39-4.54,4.82,4.82,0,0,1,3.88-1.63,5.09,5.09,0,0,1,3.4,1.06,4.57,4.57,0,0,1,1.52,3.05H91.16a2.47,2.47,0,0,0-2.69-2.32,2.64,2.64,0,0,0-2.28,1.08,5.46,5.46,0,0,0-.8,3.17v1a5.26,5.26,0,0,0,.87,3.23A2.92,2.92,0,0,0,88.7,160a3.19,3.19,0,0,0,2.43-.78v-2.51H88.49V155h4.86Zm7.23-5.91a6.13,6.13,0,0,0-.87-.07,2,2,0,0,0-2,1.13v6.52H95.59v-9.53h2l.05,1.06a2.44,2.44,0,0,1,2.15-1.24,1.85,1.85,0,0,1,.76.13Zm9,5.43a4,4,0,0,1-1.55,1.72,4.47,4.47,0,0,1-2.33.6,4.1,4.1,0,0,1-3.22-1.34,5.13,5.13,0,0,1-1.22-3.58v-.1a5.63,5.63,0,0,1,.56-2.53,4.1,4.1,0,0,1,1.56-1.73,4.42,4.42,0,0,1,2.31-.6,4.2,4.2,0,0,1,3.13,1.24,4.93,4.93,0,0,1,1.3,3.3v.5A5.56,5.56,0,0,1,109.53,159.43Zm11.73,2.15H119.5l-2-6.55-2,6.55h-1.76l-2.61-9.53h2.09l1.54,6.51,2-6.51h1.61l2,6.58,1.51-6.58h2.09Zm8.45,0a5.1,5.1,0,0,1-1.41.2c-1.64,0-2.47-.9-2.47-2.72v-5.4h-1.56v-1.58h1.56v-2.32H128v2.32h1.68v1.58H128V159a1.19,1.19,0,0,0,.21.79,1,1,0,0,0,.77.24,3.82,3.82,0,0,0,.75-.08Zm9.43,0H137v-6.15a1.92,1.92,0,0,0-.42-1.4,1.78,1.78,0,0,0-1.26-.4,2.06,2.06,0,0,0-1.92,1.14v6.81h-2.14V148.05h2.14v5a3.35,3.35,0,0,1,2.65-1.22q3,0,3.09,3.48Zm17.05,0H154v-5.69h-5.74v5.69H146V148.75h2.22v5.34H154v-5.34h2.22Zm10.31,0h-2.19a3.41,3.41,0,0,1-.25-.89,3.32,3.32,0,0,1-2.5,1.06,3.38,3.38,0,0,1-2.34-.81,2.63,2.63,0,0,1-.91-2,2.71,2.71,0,0,1,1.13-2.34,5.54,5.54,0,0,1,3.24-.81H164v-.63a1.5,1.5,0,0,0-1.67-1.63,1.85,1.85,0,0,0-1.2.37,1.12,1.12,0,0,0-.46.93h-2.15a2.42,2.42,0,0,1,.52-1.47,3.45,3.45,0,0,1,1.42-1.07,4.91,4.91,0,0,1,2-.39,4,4,0,0,1,2.67.84,3,3,0,0,1,1,2.37v4.3a4.73,4.73,0,0,0,.37,2.05Zm4.17-2.3a1.9,1.9,0,0,0,1.62.77,1.93,1.93,0,0,0,1.33-.47,1.59,1.59,0,0,0,.56-1.15h2a3.19,3.19,0,0,1-.55,1.66,3.73,3.73,0,0,1-1.41,1.22,4.23,4.23,0,0,1-1.92.44,4.06,4.06,0,0,1-3.17-1.29,5.13,5.13,0,0,1-1.18-3.58v-.22a5,5,0,0,1,1.17-3.48,4,4,0,0,1,3.17-1.31,3.92,3.92,0,0,1,2.77,1,3.55,3.55,0,0,1,1.12,2.61h-2a2,2,0,0,0-.55-1.35,1.82,1.82,0,0,0-1.34-.53,1.88,1.88,0,0,0-1.6.75,3.85,3.85,0,0,0-.58,2.29V157A3.89,3.89,0,0,0,170.67,159.28Zm13.07,2.3-2.83-4.09-.95,1v3.11h-2.14V148.05H180v7.8l.67-.83,2.64-3h2.57l-3.54,4,3.92,5.56Z"/><path class="cls-4" d="M161.05,157.52a1.34,1.34,0,0,0-.6,1.17,1.25,1.25,0,0,0,.41,1,1.58,1.58,0,0,0,1.1.37,2.48,2.48,0,0,0,1.19-.31,2,2,0,0,0,.84-.83v-1.8h-1.15A3.13,3.13,0,0,0,161.05,157.52Z"/><path class="cls-4" d="M105.64,153.59a2,2,0,0,0-1.67.83,4.2,4.2,0,0,0-.61,2.49,3.86,3.86,0,0,0,.6,2.3,2.11,2.11,0,0,0,3.38,0,4.25,4.25,0,0,0,.6-2.47,3.73,3.73,0,0,0-.62-2.29A2,2,0,0,0,105.64,153.59Z"/><path class="cls-4" d="M95.53,70.47H92.35l-.92,6.2H88.18l.89-6.2H85.9L85,76.67H81.47V80h3l-.58,4H80.47v3.28h2.89l-.92,6.39h3.21l.89-6.39h3.25l-.9,6.39H92.1l.9-6.39h3.49V84h-3l.57-4h3.36V76.67H94.6ZM90.36,84H87.11l.57-4h3.25Z"/><path d="M111.29,78.21a2.37,2.37,0,0,1,2.06-1,2.51,2.51,0,0,1,1.66.51,2.59,2.59,0,0,1,.78,1.61h2.57a4.68,4.68,0,0,0-1.53-3.17,6.17,6.17,0,0,0-6.42-.34A4.81,4.81,0,0,0,108.54,78a7.93,7.93,0,0,0-.65,3.32v.88a7.63,7.63,0,0,0,.7,3.25,5,5,0,0,0,1.94,2.11,5.77,5.77,0,0,0,2.92.72,8.31,8.31,0,0,0,2.89-.47,4.57,4.57,0,0,0,2-1.32V81.33h-5v2h2.41v2.21a3,3,0,0,1-2.13.63,2.61,2.61,0,0,1-2.24-1,5.08,5.08,0,0,1-.77-3v-.82A5.37,5.37,0,0,1,111.29,78.21Z"/><path d="M122.81,79.67l-.07-1.13h-2.41v9.53h2.55V81.83a1.87,1.87,0,0,1,1.89-1,8.54,8.54,0,0,1,.92.07l0-2.44a2.52,2.52,0,0,0-.79-.12A2.36,2.36,0,0,0,122.81,79.67Z"/><path d="M133.85,79.54a4.35,4.35,0,0,0-3.15-1.18,4.51,4.51,0,0,0-2.38.61,4,4,0,0,0-1.58,1.72,5.69,5.69,0,0,0-.54,2.52v.12a5.06,5.06,0,0,0,1.23,3.59,4.75,4.75,0,0,0,6.57,0,5,5,0,0,0,1.23-3.52l0-.65A4.75,4.75,0,0,0,133.85,79.54Zm-1.69,5.94a1.84,1.84,0,0,1-2.91,0,3.57,3.57,0,0,1-.51-2.08,4,4,0,0,1,.51-2.25,1.81,1.81,0,0,1,2.91,0,3.46,3.46,0,0,1,.52,2.06A3.86,3.86,0,0,1,132.16,85.48Z"/><polygon points="145.08 84.61 143.35 78.54 141.51 78.54 139.76 84.6 138.52 78.54 136.06 78.54 138.49 88.07 140.62 88.07 142.42 82.07 144.23 88.07 146.36 88.07 148.79 78.54 146.33 78.54 145.08 84.61"/><path d="M153.3,85.92a1.17,1.17,0,0,1-.2-.76V80.4h1.63V78.54H153.1V76.19h-2.55v2.35h-1.39V80.4h1.39v5.14a2.43,2.43,0,0,0,2.73,2.7,5.06,5.06,0,0,0,1.55-.23V86.09a4.22,4.22,0,0,1-.75.06A1.05,1.05,0,0,1,153.3,85.92Z"/><path d="M161.18,78.36a3.19,3.19,0,0,0-2.55,1.22v-5h-2.54V88.07h2.54V81.29a1.75,1.75,0,0,1,1.62-.86,1.5,1.5,0,0,1,1.17.39,1.75,1.75,0,0,1,.36,1.21v6h2.54V82Q164.27,78.36,161.18,78.36Z"/><polygon points="178.7 80.44 173.54 80.44 173.54 75.24 170.9 75.24 170.9 88.07 173.54 88.07 173.54 82.57 178.7 82.57 178.7 88.07 181.34 88.07 181.34 75.24 178.7 75.24 178.7 80.44"/><path d="M191.2,81.73a3.09,3.09,0,0,0-1-2.48,4.16,4.16,0,0,0-2.8-.89,5.19,5.19,0,0,0-2.09.4,3.43,3.43,0,0,0-1.45,1.11,2.56,2.56,0,0,0-.51,1.53h2.55a1.07,1.07,0,0,1,.36-.85,1.56,1.56,0,0,1,1-.3,1.33,1.33,0,0,1,1.07.39,1.57,1.57,0,0,1,.34,1.06v.54h-1.17a5.6,5.6,0,0,0-3.25.82,2.72,2.72,0,0,0-1.12,2.33,2.61,2.61,0,0,0,.92,2,3.4,3.4,0,0,0,2.32.81,3.08,3.08,0,0,0,2.41-1,3,3,0,0,0,.25.86h2.58v-.15a4.45,4.45,0,0,1-.38-2Zm-2.56,3.64a1.7,1.7,0,0,1-.7.68,2.31,2.31,0,0,1-1,.25A1.33,1.33,0,0,1,186,86a1,1,0,0,1-.33-.78v-.15c.08-.89.76-1.33,2-1.33h.95Z"/><path d="M195.75,81.06a1.55,1.55,0,0,1,1.35-.65,1.52,1.52,0,0,1,1.16.47,1.76,1.76,0,0,1,.46,1.21h2.39a3.63,3.63,0,0,0-1.1-2.71,4,4,0,0,0-2.87-1,4.1,4.1,0,0,0-3.21,1.31,5.11,5.11,0,0,0-1.17,3.52v.17a5.1,5.1,0,0,0,1.18,3.58,4.11,4.11,0,0,0,3.22,1.3,4.37,4.37,0,0,0,2-.44,3.56,3.56,0,0,0,1.43-1.25,3.37,3.37,0,0,0,.53-1.78h-2.39a1.35,1.35,0,0,1-.46,1,1.64,1.64,0,0,1-1.14.39,1.55,1.55,0,0,1-1.37-.64,3.82,3.82,0,0,1-.45-2.12v-.26A3.78,3.78,0,0,1,195.75,81.06Z"/><polygon points="211.09 78.54 208.04 78.54 205.6 81.4 205.1 82.03 205.1 74.54 202.56 74.54 202.56 88.07 205.1 88.07 205.1 85.16 206.02 84.25 208.47 88.07 211.39 88.07 207.65 82.51 211.09 78.54"/><path class="cls-5" d="M216.32,260.39v7.7a6.31,6.31,0,0,0,6.3,6.3h9.67V254.08h-9.67A6.32,6.32,0,0,0,216.32,260.39Z"/><path class="cls-3" d="M216.32,290.18v7.7a6.32,6.32,0,0,0,6.3,6.31h9.67V283.88h-9.67A6.32,6.32,0,0,0,216.32,290.18Z"/><path class="cls-5" d="M216.32,371.9v7.7a6.32,6.32,0,0,0,6.3,6.31h9.67V365.59h-9.67A6.32,6.32,0,0,0,216.32,371.9Z"/><path class="cls-3" d="M216.32,403.13v35.74a7.76,7.76,0,0,0,7.73,7.74h8.24V395.39h-8.24A7.76,7.76,0,0,0,216.32,403.13Z"/><rect class="cls-3" x="117.81" y="199.51" width="114.48" height="1.14"/><rect x="567.59" y="103.22" width="1.2" height="1.14"/><rect x="44.93" y="103.22" width="519.25" height="1.14"/><rect x="567.59" y="59.33" width="1.2" height="1.14"/><rect x="44.93" y="59.33" width="519.25" height="1.14"/><rect x="238.29" y="67.54" width="1.14" height="28.24"/><path d="M88.49,156.69h2.64v2.51a3.19,3.19,0,0,1-2.43.78,2.92,2.92,0,0,1-2.44-1.15,5.26,5.26,0,0,1-.87-3.23v-1a5.46,5.46,0,0,1,.8-3.17,2.64,2.64,0,0,1,2.28-1.08,2.47,2.47,0,0,1,2.69,2.32h2.18a4.57,4.57,0,0,0-1.52-3.05,5.09,5.09,0,0,0-3.4-1.06,4.82,4.82,0,0,0-3.88,1.63,6.77,6.77,0,0,0-1.39,4.54v1a7.29,7.29,0,0,0,.7,3.17A4.85,4.85,0,0,0,85.76,161a5.51,5.51,0,0,0,2.86.73,7.91,7.91,0,0,0,2.8-.46,4.27,4.27,0,0,0,1.93-1.38V155H88.49Z"/><path d="M97.68,153.11l-.05-1.06h-2v9.53h2.14v-6.52a2,2,0,0,1,2-1.13,6.13,6.13,0,0,1,.87.07v-2a1.85,1.85,0,0,0-.76-.13A2.44,2.44,0,0,0,97.68,153.11Z"/><path d="M108.77,153.11a4.2,4.2,0,0,0-3.13-1.24,4.42,4.42,0,0,0-2.31.6,4.1,4.1,0,0,0-1.56,1.73,5.63,5.63,0,0,0-.56,2.53v.1a5.13,5.13,0,0,0,1.22,3.58,4.1,4.1,0,0,0,3.22,1.34,4.47,4.47,0,0,0,2.33-.6,4,4,0,0,0,1.55-1.72,5.56,5.56,0,0,0,.55-2.52v-.5A4.93,4.93,0,0,0,108.77,153.11Zm-1.43,6.09a2.11,2.11,0,0,1-3.38,0,3.86,3.86,0,0,1-.6-2.3,4.2,4.2,0,0,1,.61-2.49,2,2,0,0,1,1.67-.83,2,2,0,0,1,1.68.85,3.73,3.73,0,0,1,.62,2.29A4.25,4.25,0,0,1,107.34,159.2Z"/><polygon points="120.26 158.63 118.28 152.05 116.67 152.05 114.71 158.56 113.17 152.05 111.08 152.05 113.69 161.58 115.45 161.58 117.46 155.03 119.5 161.58 121.26 161.58 123.86 152.05 121.77 152.05 120.26 158.63"/><path d="M128.19,159.74A1.19,1.19,0,0,1,128,159v-5.32h1.68v-1.58H128v-2.32h-2.15v2.32h-1.56v1.58h1.56V159c0,1.82.83,2.72,2.47,2.72a5.1,5.1,0,0,0,1.41-.2V159.9a3.82,3.82,0,0,1-.75.08A1,1,0,0,1,128.19,159.74Z"/><path d="M136.05,151.87a3.35,3.35,0,0,0-2.65,1.22v-5h-2.14v13.53h2.14v-6.81a2.06,2.06,0,0,1,1.92-1.14,1.78,1.78,0,0,1,1.26.4,1.92,1.92,0,0,1,.42,1.4v6.15h2.14v-6.23Q139.1,151.87,136.05,151.87Z"/><polygon points="153.97 154.09 148.24 154.09 148.24 148.75 146.01 148.75 146.01 161.58 148.24 161.58 148.24 155.89 153.97 155.89 153.97 161.58 156.19 161.58 156.19 148.75 153.97 148.75 153.97 154.09"/><path d="M166.13,155.08a3,3,0,0,0-1-2.37,4,4,0,0,0-2.67-.84,4.91,4.91,0,0,0-2,.39,3.45,3.45,0,0,0-1.42,1.07,2.42,2.42,0,0,0-.52,1.47h2.15a1.12,1.12,0,0,1,.46-.93,1.85,1.85,0,0,1,1.2-.37,1.5,1.5,0,0,1,1.67,1.63v.63h-1.31a5.54,5.54,0,0,0-3.24.81,2.71,2.71,0,0,0-1.13,2.34,2.63,2.63,0,0,0,.91,2,3.38,3.38,0,0,0,2.34.81,3.32,3.32,0,0,0,2.5-1.06,3.41,3.41,0,0,0,.25.89h2.19v-.15a4.73,4.73,0,0,1-.37-2.05ZM164,158.9a2,2,0,0,1-.84.83A2.48,2.48,0,0,1,162,160a1.58,1.58,0,0,1-1.1-.37,1.25,1.25,0,0,1-.41-1,1.34,1.34,0,0,1,.6-1.17,3.13,3.13,0,0,1,1.79-.42H164Z"/><path d="M170.69,154.34a1.88,1.88,0,0,1,1.6-.75,1.82,1.82,0,0,1,1.34.53,2,2,0,0,1,.55,1.35h2a3.55,3.55,0,0,0-1.12-2.61,3.92,3.92,0,0,0-2.77-1,4,4,0,0,0-3.17,1.31,5,5,0,0,0-1.17,3.48v.22a5.13,5.13,0,0,0,1.18,3.58,4.06,4.06,0,0,0,3.17,1.29,4.23,4.23,0,0,0,1.92-.44,3.73,3.73,0,0,0,1.41-1.22,3.19,3.19,0,0,0,.55-1.66h-2a1.59,1.59,0,0,1-.56,1.15,1.93,1.93,0,0,1-1.33.47,1.9,1.9,0,0,1-1.62-.77,3.89,3.89,0,0,1-.56-2.31v-.34A3.85,3.85,0,0,1,170.69,154.34Z"/><polygon points="185.84 152.05 183.27 152.05 180.63 155.02 179.96 155.85 179.96 148.05 177.82 148.05 177.82 161.58 179.96 161.58 179.96 158.47 180.91 157.49 183.74 161.58 186.22 161.58 182.3 156.02 185.84 152.05"/><polygon class="cls-4" points="44.93 531.12 44.93 104.36 44.93 103.22 44.93 60.46 44.93 59.33 44.93 36.63 564.17 36.63 564.17 59.33 564.17 60.46 564.17 103.22 564.17 104.36 564.17 177.96 567.59 177.96 567.59 104.36 567.59 103.22 567.59 60.46 567.59 59.33 567.59 33.21 41.51 33.21 41.51 534.53 232.29 534.53 232.29 531.12 44.93 531.12"/><path class="cls-2" d="M113,300a9.81,9.81,0,0,0,9.8,9.8h2.08c.16-7.85,2.6-15.89,9.37-19.25a8.3,8.3,0,0,1,3.6-.83l2.16,0V287A11.24,11.24,0,0,1,131,276.55h0a4.18,4.18,0,0,1-4.3-4,4,4,0,0,1,2.65-3.72l2.36-12.27c0-3,3.2-5.92,13.22-5.48,11.41.51,13.23,2.46,13.23,5.48a7.54,7.54,0,0,1-.19,2.1l2,10.65a4.08,4.08,0,0,1,3,3.84,4.17,4.17,0,0,1-4.3,4h0a11.24,11.24,0,0,1-9.18,9.92v2.53l2.21,0c8.58,0,11.78,11.44,12,20.21h1.81a9.82,9.82,0,0,0,9.81-9.8V255.92a9.82,9.82,0,0,0-9.81-9.81H122.83a9.81,9.81,0,0,0-9.8,9.81Z"/><path class="cls-6" d="M151.58,289.57l-2.21,0v3.57l-4.14,3.76L140,293.07v-3.39l-2.16,0a8.3,8.3,0,0,0-3.6.83c-6.77,3.36-9.21,11.4-9.37,19.25h38.65C163.36,301,160.16,289.57,151.58,289.57Z"/><path class="cls-4" d="M110.53,255.92V300a12.31,12.31,0,0,0,12.3,12.29h42.54A12.3,12.3,0,0,0,177.67,300V255.92a12.3,12.3,0,0,0-12.3-12.3H122.83A12.31,12.31,0,0,0,110.53,255.92Zm12.3-9.81h42.54a9.82,9.82,0,0,1,9.81,9.81V300a9.82,9.82,0,0,1-9.81,9.8H122.83A9.81,9.81,0,0,1,113,300V255.92A9.81,9.81,0,0,1,122.83,246.11Z"/><path class="cls-7" d="M145.23,296.92l4.14-3.76v-6.1a11.24,11.24,0,0,0,9.18-9.92h0a4.17,4.17,0,0,0,4.3-4,4.08,4.08,0,0,0-3-3.84l.1.54-1.63-.31L156,260.69c-1.78.85-5.06,1.36-11.11,1.31-6.4-.05-9.8-.85-11.55-2.09L131,268.48l-1.65.31a4,4,0,0,0-2.65,3.72,4.18,4.18,0,0,0,4.3,4h0A11.24,11.24,0,0,0,140,287v6Z"/><path class="cls-8" d="M133.33,259.91c1.75,1.24,5.15,2,11.55,2.09,6.05.05,9.33-.46,11.11-1.31l2.42,8.81,1.63.31-.1-.54-2-10.65a7.54,7.54,0,0,0,.19-2.1c0-3-1.82-5-13.23-5.48-10-.44-13.22,2.46-13.22,5.48l-2.36,12.27,1.65-.31Z"/><path class="cls-2" d="M165.32,361.8H122.59a9.86,9.86,0,0,0-9.85,9.85V415.9a9.87,9.87,0,0,0,8.76,9.79c.18-9,3-18.3,10.86-22.17a9.87,9.87,0,0,1,4.17-1l3.34,0v-.63c-4.16-1.08-7.17-3.9-7.17-8.6l0-1.85h0a4.19,4.19,0,0,1-4.32-4.05,4.11,4.11,0,0,1,3.22-3.92,94.28,94.28,0,0,1,.15-14.83s13.91-4.44,26.8.92l-1.05,13.5a4.11,4.11,0,0,1,3.13,3.9,4.18,4.18,0,0,1-4,4v2c0,4.83-3.08,7.85-7.37,8.94v.5l3.15,0c10,0,13.68,13.2,13.89,23.28a9.86,9.86,0,0,0,8.88-9.8V371.65A9.86,9.86,0,0,0,165.32,361.8Z"/><path class="cls-8" d="M132.84,383.35l0-1.52a11.28,11.28,0,0,1,11.24-11.24h1.28a11.28,11.28,0,0,1,11.24,11.24v1.1a5,5,0,0,1,.88.14l1.05-13.5c-12.89-5.36-26.8-.92-26.8-.92a94.28,94.28,0,0,0-.15,14.83,4.42,4.42,0,0,1,1.1-.14Z"/><rect class="cls-9" x="146.71" y="383.89" width="7.75" height="4.21" rx="0.77"/><rect class="cls-9" x="135.39" y="383.89" width="7.75" height="4.21" rx="0.77"/><path class="cls-8" d="M152.4,402.42l-3.15,0V405a9.78,9.78,0,0,1-8.67.28l-.71-.34v-2.44l-3.34,0a9.87,9.87,0,0,0-4.17,1c-7.86,3.87-10.68,13.13-10.86,22.17a9.82,9.82,0,0,0,1.09.06h42.73c.33,0,.65,0,1-.05C166.08,415.62,162.37,402.42,152.4,402.42Z"/><path class="cls-4" d="M165.32,359.29H122.59a12.37,12.37,0,0,0-12.35,12.36V415.9a12.36,12.36,0,0,0,12.35,12.35h42.73a12.22,12.22,0,0,0,6.12-1.63,12.34,12.34,0,0,0,6.23-10.72V371.65A12.37,12.37,0,0,0,165.32,359.29Zm9.85,56.61a9.86,9.86,0,0,1-8.88,9.8c-.32,0-.64.05-1,.05H122.59a9.85,9.85,0,0,1-9.85-9.85V371.65a9.86,9.86,0,0,1,9.85-9.85h42.73a9.86,9.86,0,0,1,9.85,9.85Z"/><path class="cls-9" d="M140.58,405.31a9.78,9.78,0,0,0,8.67-.28V402c4.29-1.09,7.37-4.11,7.37-8.94v-2a4.18,4.18,0,0,0,4-4,4.11,4.11,0,0,0-3.13-3.9,5,5,0,0,0-.88-.14v-1.1a11.28,11.28,0,0,0-11.24-11.24H144.1a11.28,11.28,0,0,0-11.24,11.24l0,1.52h-.14a4.42,4.42,0,0,0-1.1.14,4.11,4.11,0,0,0-3.22,3.92,4.19,4.19,0,0,0,4.32,4.05h0l0,1.85c0,4.7,3,7.52,7.17,8.6V405Zm-4.42-16.43a1.55,1.55,0,0,1-1.55-1.55v-2.67a1.56,1.56,0,0,1,1.55-1.55h6.22a1.56,1.56,0,0,1,1.55,1.55v1.07h2v-1.07a1.55,1.55,0,0,1,1.55-1.55h6.22a1.56,1.56,0,0,1,1.55,1.55v2.67a1.55,1.55,0,0,1-1.55,1.55h-6.22a1.54,1.54,0,0,1-1.55-1.55v-.82h-2v.82a1.55,1.55,0,0,1-1.55,1.55Z"/><path class="cls-8" d="M143.93,387.33v-.82h2v.82a1.54,1.54,0,0,0,1.55,1.55h6.22a1.55,1.55,0,0,0,1.55-1.55v-2.67a1.56,1.56,0,0,0-1.55-1.55h-6.22a1.55,1.55,0,0,0-1.55,1.55v1.07h-2v-1.07a1.56,1.56,0,0,0-1.55-1.55h-6.22a1.56,1.56,0,0,0-1.55,1.55v2.67a1.55,1.55,0,0,0,1.55,1.55h6.22A1.55,1.55,0,0,0,143.93,387.33Zm2.78-2.67a.78.78,0,0,1,.77-.77h6.22a.78.78,0,0,1,.77.77v2.67a.77.77,0,0,1-.77.77h-6.22a.77.77,0,0,1-.77-.77Zm-11.32,2.67v-2.67a.78.78,0,0,1,.77-.77h6.22a.78.78,0,0,1,.77.77v2.67a.77.77,0,0,1-.77.77h-6.22A.77.77,0,0,1,135.39,387.33Z"/><path class="cls-2" d="M338.5,225.17a1.66,1.66,0,0,0-1.44.75,3.92,3.92,0,0,0-.53,2.24,3.52,3.52,0,0,0,.52,2,1.67,1.67,0,0,0,1.43.74,1.75,1.75,0,0,0,1.66-.87v-4A1.75,1.75,0,0,0,338.5,225.17Z"/><path class="cls-2" d="M314.64,225.15a1.58,1.58,0,0,0-1.22.51,2.68,2.68,0,0,0-.61,1.47h3.54v-.2a1.83,1.83,0,0,0-.46-1.31A1.64,1.64,0,0,0,314.64,225.15Z"/><path class="cls-2" d="M389,225.17a1.67,1.67,0,0,0-1.67,1v3.77a1.71,1.71,0,0,0,1.69,1,1.58,1.58,0,0,0,1.62-1.22,6.36,6.36,0,0,0,.18-1.77,3.77,3.77,0,0,0-.46-2.11A1.54,1.54,0,0,0,389,225.17Z"/><path class="cls-2" d="M460.26,675.86h3.21V591.35H441C448.3,611.31,454.86,643.12,460.26,675.86Z"/><path class="cls-2" d="M235.71,249.09V675.86H367.13V658.13c0-26.82,25.8-78.38,25.8-78.38a36.77,36.77,0,0,1-.91-12.39c.19-1.78-.77-5.11-2.27-9a13,13,0,0,1-5.91,2.39,53.19,53.19,0,0,0-12.48,4.17,12.31,12.31,0,0,1-12.12,10.19h-.17l-18,28.09-1.94-.23a6.24,6.24,0,0,0-.41,1.4c-1,7.61-5.13,18.56-9.45,19.64s0-7,0-7a12.93,12.93,0,0,1-10.28,6.9,2.78,2.78,0,0,1-2.41-4.57l5.78-6.77a2.75,2.75,0,0,0,.43-.69l4.56-10.32-1-.12,12.36-26.3h-22a12.31,12.31,0,0,1-12.3-12.3V518.73a12.32,12.32,0,0,1,12.3-12.3h40.15c-.74-11.83-.44-15.82,2.55-21.28a29.51,29.51,0,0,1,1.49-4.7c2.15-5.17,5.38-9.14,6.53-14.75,1.82-8.8,6.12-18.25,15.19-21.38,6.62-2.28,21.56-3,26,3.67a2,2,0,0,1,1.17.38,7.58,7.58,0,0,1,2.34,2.63,1,1,0,0,1,.72.36c.08.08.15.17.23.26a17.81,17.81,0,0,1,8.66,10.93c.28.46.56.95.82,1.47a1.2,1.2,0,0,1,.47.16c.87.5,1.76,1,2.58,1.55a2.54,2.54,0,0,1,1.26,2.2,5.08,5.08,0,0,1-.6,2.13,2.82,2.82,0,0,1-1.5,1.23,30.92,30.92,0,0,1,.34,4.48c0,2.88,0,5.14-.15,6.94l19.69-10.2,6.25-23.58H413.4a6.32,6.32,0,0,1-6.3-6.31v-7.7a6.32,6.32,0,0,1,6.3-6.31h44c1.06-3.2,2.43-6.33,3.75-9.48H413.4a6.32,6.32,0,0,1-6.3-6.31v-7.7a6.31,6.31,0,0,1,6.3-6.3h50.07V346.49H755v-97.4Zm134,149.49v44.06a12.32,12.32,0,0,1-12.3,12.3H314.88a12.32,12.32,0,0,1-12.3-12.3V398.58a12.32,12.32,0,0,1,12.3-12.3h42.54A12.32,12.32,0,0,1,369.72,398.58ZM728,345.39H308.59v-1.14H728Zm-302.72-24.8h-156V638.8h-6.57V281.09H730.1v39.5Z"/><path class="cls-2" d="M463.47,510.33v-30c-6.52,7.61-17.35,19.33-27.4,30Z"/><path class="cls-2" d="M435.81,540.13h27.66v-9.48H434.54A32,32,0,0,1,435.81,540.13Z"/><path class="cls-2" d="M302.94,222.12h-1.31v8.56h1.28a2.86,2.86,0,0,0,2.37-1,4.53,4.53,0,0,0,.84-2.9v-.68a4.64,4.64,0,0,0-.81-3A2.87,2.87,0,0,0,302.94,222.12Z"/><path class="cls-2" d="M379.11,225.15a1.58,1.58,0,0,0-1.23.51,2.68,2.68,0,0,0-.61,1.47h3.54v-.2a1.87,1.87,0,0,0-.45-1.31A1.65,1.65,0,0,0,379.11,225.15Z"/><polygon class="cls-2" points="275.67 228.66 278.66 228.66 279.19 224.98 276.19 224.98 275.67 228.66"/><path class="cls-2" d="M755,248V205.2H235.71V248ZM285.2,225h-3.09l-.53,3.68h2.73v3h-3.22l-.82,5.88h-3l.82-5.88h-3l-.82,5.88h-3l.86-5.88h-2.66v-3h3.18l.53-3.68h-2.79v-3h3.25l.82-5.72h2.93l-.83,5.72h3l.86-5.72h2.92l-.85,5.72h2.63Zm23.59,1.71a6.69,6.69,0,0,1-.73,3.18A5.26,5.26,0,0,1,306,232a6.12,6.12,0,0,1-3,.78h-4V220h3.95a5.94,5.94,0,0,1,3,.76,5.33,5.33,0,0,1,2.09,2.17,6.67,6.67,0,0,1,.74,3.19Zm10.06,2.18h-6.06a2.39,2.39,0,0,0,.74,1.5,2.27,2.27,0,0,0,1.57.56,2.75,2.75,0,0,0,2.3-1.07l1.25,1.4a3.82,3.82,0,0,1-1.55,1.27,5.11,5.11,0,0,1-2.17.45,4.71,4.71,0,0,1-3.41-1.28,4.57,4.57,0,0,1-1.32-3.43V228a5.81,5.81,0,0,1,.56-2.57,4.08,4.08,0,0,1,1.57-1.74,4.39,4.39,0,0,1,2.32-.61,4,4,0,0,1,3.08,1.23,5,5,0,0,1,1.12,3.5Zm8,3.31a4.89,4.89,0,0,1-2.89.8,5,5,0,0,1-2.13-.43,3.55,3.55,0,0,1-1.46-1.17,2.72,2.72,0,0,1-.53-1.6h2.42a1.3,1.3,0,0,0,.5,1,1.94,1.94,0,0,0,1.25.37,1.89,1.89,0,0,0,1.11-.28.87.87,0,0,0,.37-.73.81.81,0,0,0-.46-.73,5.17,5.17,0,0,0-1.49-.48c-2.26-.48-3.4-1.44-3.4-2.89a2.63,2.63,0,0,1,1.06-2.12,4.22,4.22,0,0,1,2.75-.85,4.55,4.55,0,0,1,2.9.85,2.68,2.68,0,0,1,1.09,2.22h-2.55a1.21,1.21,0,0,0-.35-.9,1.47,1.47,0,0,0-1.1-.36,1.52,1.52,0,0,0-1,.29.92.92,0,0,0-.36.74.81.81,0,0,0,.4.69,4.33,4.33,0,0,0,1.36.45,10.44,10.44,0,0,1,1.6.42,2.65,2.65,0,0,1,2,2.57A2.5,2.5,0,0,1,326.82,232.18Zm5.44.63h-2.55v-9.54h2.55ZM332,221.76a1.63,1.63,0,0,1-2.07,0,1.25,1.25,0,0,1-.39-.95,1.22,1.22,0,0,1,.38-.94,1.65,1.65,0,0,1,2.08,0,1.23,1.23,0,0,1,.39.94A1.25,1.25,0,0,1,332,221.76Zm10.68,10.73a4,4,0,0,1-.57,2.17,3.61,3.61,0,0,1-1.6,1.41,5.49,5.49,0,0,1-2.41.49,5.17,5.17,0,0,1-2-.42,3.61,3.61,0,0,1-1.51-1.08l1.13-1.55a3,3,0,0,0,2.3,1.07,2.14,2.14,0,0,0,1.58-.55,2,2,0,0,0,.56-1.53V232a2.92,2.92,0,0,1-2.31,1,3.38,3.38,0,0,1-2.78-1.34,5.57,5.57,0,0,1-1.06-3.56V228a5.61,5.61,0,0,1,1-3.53,3.38,3.38,0,0,1,2.82-1.34,3,3,0,0,1,2.44,1.07l.1-.9h2.31Zm10.13.32h-2.55v-6.1a1.65,1.65,0,0,0-.35-1.18,1.58,1.58,0,0,0-1.17-.36,1.74,1.74,0,0,0-1.61.91v6.73H344.6v-9.54H347l.08,1.11a3.3,3.3,0,0,1,2.74-1.28,2.73,2.73,0,0,1,2.25.89,4.15,4.15,0,0,1,.76,2.66Zm6.88-4.47h-5v-2.05h5Zm11.61,4.47h-2.13l-1.81-6-1.8,6h-2.13L361,223.27h2.46l1.24,6.07,1.75-6.07h1.84l1.73,6.07,1.25-6.07h2.46Zm12-3.94h-6.07a2.39,2.39,0,0,0,.74,1.5,2.29,2.29,0,0,0,1.57.56,2.75,2.75,0,0,0,2.3-1.07l1.25,1.4a3.82,3.82,0,0,1-1.55,1.27,5.09,5.09,0,0,1-2.16.45A4.72,4.72,0,0,1,376,231.7a4.57,4.57,0,0,1-1.31-3.43V228a5.8,5.8,0,0,1,.55-2.57,4.08,4.08,0,0,1,1.57-1.74,4.39,4.39,0,0,1,2.32-.61,4,4,0,0,1,3.08,1.23,5,5,0,0,1,1.13,3.5Zm10-.74a5.76,5.76,0,0,1-1,3.57,3.24,3.24,0,0,1-2.73,1.28,2.94,2.94,0,0,1-2.47-1.19l-.12,1h-2.29V219.28h2.55v4.85a2.88,2.88,0,0,1,2.31-1,3.28,3.28,0,0,1,2.74,1.28,5.78,5.78,0,0,1,1,3.61Zm76.32,12.39h-1.14V212.28h1.14Z"/><rect class="cls-2" x="235.71" y="181.37" width="519.25" height="22.69"/><polygon class="cls-3" points="425.24 281.09 440.57 300.84 425.24 320.59 730.1 320.59 730.1 281.09 425.24 281.09"/><path class="cls-6" d="M440.57,300.84l-15.33-19.75H262.67V638.8h6.57V320.59h156Zm-106.68.89h-4.63V300h4.63Zm-26.59-7.42a1.13,1.13,0,0,1-.32.81,1.22,1.22,0,0,1-.9.32,1.18,1.18,0,0,1-.89-.32,1.2,1.2,0,0,1,0-1.63,1.15,1.15,0,0,1,.89-.33,1.19,1.19,0,0,1,.9.33A1.14,1.14,0,0,1,307.3,294.31Zm-26.23,11.26a6.22,6.22,0,0,1-3.08.75H274.3V293.49h3.79a5.86,5.86,0,0,1,3,.76,5.1,5.1,0,0,1,2,2.15,6.85,6.85,0,0,1,.72,3.19v.64a6.9,6.9,0,0,1-.72,3.21A5.18,5.18,0,0,1,281.07,305.57Zm11.15.45a4.85,4.85,0,0,1-2.15.47,4.43,4.43,0,0,1-3.29-1.28,4.61,4.61,0,0,1-1.27-3.41v-.27a5.69,5.69,0,0,1,.55-2.55,4.19,4.19,0,0,1,1.55-1.75,4.13,4.13,0,0,1,2.22-.62,3.74,3.74,0,0,1,3,1.24,5.3,5.3,0,0,1,1.06,3.52v.86h-6.23a2.85,2.85,0,0,0,.79,1.87,2.39,2.39,0,0,0,1.74.68,2.86,2.86,0,0,0,2.39-1.19l1.16,1.11A3.86,3.86,0,0,1,292.22,306Zm9.72-.33a4.48,4.48,0,0,1-2.79.8,5,5,0,0,1-2.09-.42,3.45,3.45,0,0,1-1.43-1.16,2.79,2.79,0,0,1-.51-1.6h2.08a1.51,1.51,0,0,0,.57,1.17,2.26,2.26,0,0,0,1.4.41,2.19,2.19,0,0,0,1.29-.32,1,1,0,0,0,.44-.84,1,1,0,0,0-.47-.88,5.07,5.07,0,0,0-1.56-.52,8.2,8.2,0,0,1-1.83-.59,2.41,2.41,0,0,1-1.6-2.24,2.54,2.54,0,0,1,1-2.06,4.11,4.11,0,0,1,2.64-.83,4.29,4.29,0,0,1,2.76.84,2.71,2.71,0,0,1,1.06,2.2h-2.15a1.33,1.33,0,0,0-.45-1,1.78,1.78,0,0,0-1.22-.41,1.89,1.89,0,0,0-1.15.33,1,1,0,0,0-.44.87.87.87,0,0,0,.41.77,5.93,5.93,0,0,0,1.67.55,7.59,7.59,0,0,1,2,.66,2.73,2.73,0,0,1,1.07.92,2.36,2.36,0,0,1,.35,1.3A2.48,2.48,0,0,1,301.94,305.69Zm3.07.63v-9.53h2.14v9.53ZM316.34,309a4.46,4.46,0,0,1-3.15,1.08,5.11,5.11,0,0,1-2.05-.44,3.63,3.63,0,0,1-1.52-1.14l1-1.28a3.07,3.07,0,0,0,2.43,1.17,2.39,2.39,0,0,0,1.69-.58,2.21,2.21,0,0,0,.61-1.7v-.64a3.12,3.12,0,0,1-2.46,1,3.34,3.34,0,0,1-2.74-1.33,5.72,5.72,0,0,1-1.06-3.68,5.63,5.63,0,0,1,1-3.55,3.37,3.37,0,0,1,2.78-1.32,3.13,3.13,0,0,1,2.56,1.14l.1-1h1.92V306A3.84,3.84,0,0,1,316.34,309Zm9.07-2.67v-6.18a2,2,0,0,0-.39-1.34,1.65,1.65,0,0,0-1.28-.44,2.06,2.06,0,0,0-1.93,1.17v6.79h-2.14v-9.53h2l.06,1.1a3.44,3.44,0,0,1,2.77-1.28q3,0,3,3.41v6.3Zm17.86,0-2-6.55-2,6.55h-1.76l-2.61-9.53h2.09l1.54,6.5,1.95-6.5h1.62l2,6.57,1.51-6.57h2.09l-2.6,9.53Zm12.13-.3a4.81,4.81,0,0,1-2.14.47,4.44,4.44,0,0,1-3.3-1.28,4.64,4.64,0,0,1-1.26-3.41v-.27a5.69,5.69,0,0,1,.55-2.55,4.08,4.08,0,0,1,3.76-2.37,3.74,3.74,0,0,1,3,1.24,5.25,5.25,0,0,1,1.06,3.52v.86h-6.23a2.9,2.9,0,0,0,.79,1.87,2.39,2.39,0,0,0,1.74.68,2.89,2.89,0,0,0,2.4-1.19l1.15,1.11A3.86,3.86,0,0,1,355.4,306Zm8,.47a3.11,3.11,0,0,1-2.61-1.2l-.1,1h-1.94V292.79h2.14v4.91a3.1,3.1,0,0,1,2.49-1.09,3.27,3.27,0,0,1,2.74,1.29,5.86,5.86,0,0,1,1,3.62v.13a5.65,5.65,0,0,1-1,3.53A3.22,3.22,0,0,1,363.39,306.49Z"/><path class="cls-6" d="M280.67,303.44a4.74,4.74,0,0,0,1-3.15v-.71a4.93,4.93,0,0,0-.91-3.19,3.19,3.19,0,0,0-2.63-1.1h-1.56v9.25H278A3.34,3.34,0,0,0,280.67,303.44Z"/><path class="cls-6" d="M364.4,304a3.92,3.92,0,0,0,.57-2.26v-.28a4,4,0,0,0-.55-2.32,1.81,1.81,0,0,0-1.59-.78,2,2,0,0,0-1.95,1.22v3.93a2,2,0,0,0,2,1.24A1.8,1.8,0,0,0,364.4,304Z"/><path class="cls-6" d="M315.36,303.64v-4.19a2,2,0,0,0-1.9-1.09,1.89,1.89,0,0,0-1.64.84,4.31,4.31,0,0,0-.59,2.47,3.86,3.86,0,0,0,.59,2.26,1.9,1.9,0,0,0,1.62.82A2,2,0,0,0,315.36,303.64Z"/><path class="cls-6" d="M355,300.5a2.57,2.57,0,0,0-.58-1.62,1.76,1.76,0,0,0-1.39-.55,1.8,1.8,0,0,0-1.42.61,3.22,3.22,0,0,0-.69,1.72H355Z"/><path class="cls-6" d="M291.78,300.5a2.51,2.51,0,0,0-.57-1.62,2,2,0,0,0-2.81.06,3.15,3.15,0,0,0-.69,1.72h4.07Z"/><path class="cls-6" d="M283.42,216.21H280.5l-.86,5.72h-3l.83-5.72h-2.93l-.82,5.72h-3.25v3h2.79l-.53,3.68h-3.18v3h2.66l-.86,5.88h3l.82-5.88h3l-.82,5.88h3l.82-5.88h3.22v-3h-2.73l.53-3.68h3.09v-3h-2.63Zm-4.76,12.45h-3l.52-3.68h3Z"/><path d="M306,220.74a5.94,5.94,0,0,0-3-.76H299v12.83h4a6.12,6.12,0,0,0,3-.78,5.26,5.26,0,0,0,2.07-2.16,6.69,6.69,0,0,0,.73-3.18v-.59a6.67,6.67,0,0,0-.74-3.19A5.33,5.33,0,0,0,306,220.74Zm.16,6a4.53,4.53,0,0,1-.84,2.9,2.86,2.86,0,0,1-2.37,1h-1.28v-8.56h1.31a2.87,2.87,0,0,1,2.37,1,4.64,4.64,0,0,1,.81,3Z"/><path d="M314.65,223.1a4.39,4.39,0,0,0-2.32.61,4.08,4.08,0,0,0-1.57,1.74,5.81,5.81,0,0,0-.56,2.57v.25a4.57,4.57,0,0,0,1.32,3.43,4.71,4.71,0,0,0,3.41,1.28,5.11,5.11,0,0,0,2.17-.45,3.82,3.82,0,0,0,1.55-1.27l-1.25-1.4a2.75,2.75,0,0,1-2.3,1.07,2.27,2.27,0,0,1-1.57-.56,2.39,2.39,0,0,1-.74-1.5h6.06v-1a5,5,0,0,0-1.12-3.5A4,4,0,0,0,314.65,223.1Zm1.7,4h-3.54a2.68,2.68,0,0,1,.61-1.47,1.58,1.58,0,0,1,1.22-.51,1.64,1.64,0,0,1,1.25.47,1.83,1.83,0,0,1,.46,1.31Z"/><path d="M325.92,227.5a10.44,10.44,0,0,0-1.6-.42,4.33,4.33,0,0,1-1.36-.45.81.81,0,0,1-.4-.69.92.92,0,0,1,.36-.74,1.52,1.52,0,0,1,1-.29,1.47,1.47,0,0,1,1.1.36,1.21,1.21,0,0,1,.35.9h2.55a2.68,2.68,0,0,0-1.09-2.22,4.55,4.55,0,0,0-2.9-.85,4.22,4.22,0,0,0-2.75.85,2.63,2.63,0,0,0-1.06,2.12c0,1.45,1.14,2.41,3.4,2.89a5.17,5.17,0,0,1,1.49.48.81.81,0,0,1,.46.73.87.87,0,0,1-.37.73,1.89,1.89,0,0,1-1.11.28,1.94,1.94,0,0,1-1.25-.37,1.3,1.3,0,0,1-.5-1h-2.42a2.72,2.72,0,0,0,.53,1.6,3.55,3.55,0,0,0,1.46,1.17,5,5,0,0,0,2.13.43,4.89,4.89,0,0,0,2.89-.8,2.5,2.5,0,0,0,1.12-2.11A2.65,2.65,0,0,0,325.92,227.5Z"/><path d="M331,219.5a1.42,1.42,0,0,0-1,.37,1.22,1.22,0,0,0-.38.94,1.25,1.25,0,0,0,.39.95,1.63,1.63,0,0,0,2.07,0,1.25,1.25,0,0,0,.39-.95,1.23,1.23,0,0,0-.39-.94A1.42,1.42,0,0,0,331,219.5Z"/><rect x="329.71" y="223.27" width="2.55" height="9.53"/><path d="M340.29,224.17a3,3,0,0,0-2.44-1.07,3.38,3.38,0,0,0-2.82,1.34,5.61,5.61,0,0,0-1,3.53v.11a5.57,5.57,0,0,0,1.06,3.56,3.38,3.38,0,0,0,2.78,1.34,2.92,2.92,0,0,0,2.31-1v.51a2,2,0,0,1-.56,1.53,2.14,2.14,0,0,1-1.58.55,3,3,0,0,1-2.3-1.07l-1.13,1.55a3.61,3.61,0,0,0,1.51,1.08,5.17,5.17,0,0,0,2,.42,5.49,5.49,0,0,0,2.41-.49,3.61,3.61,0,0,0,1.6-1.41,4,4,0,0,0,.57-2.17v-9.22h-2.31Zm-.15,5.89a1.75,1.75,0,0,1-1.66.87,1.67,1.67,0,0,1-1.43-.74,3.52,3.52,0,0,1-.52-2,3.92,3.92,0,0,1,.53-2.24,1.66,1.66,0,0,1,1.44-.75,1.75,1.75,0,0,1,1.64.87Z"/><path d="M349.82,223.1a3.3,3.3,0,0,0-2.74,1.28l-.08-1.11h-2.4v9.54h2.55v-6.73a1.74,1.74,0,0,1,1.61-.91,1.58,1.58,0,0,1,1.17.36,1.65,1.65,0,0,1,.35,1.18v6.1h2.55v-6.16a4.15,4.15,0,0,0-.76-2.66A2.73,2.73,0,0,0,349.82,223.1Z"/><rect x="354.75" y="226.29" width="4.96" height="2.05"/><polygon points="370.04 229.34 368.31 223.28 366.46 223.28 364.72 229.34 363.48 223.28 361.02 223.28 363.45 232.81 365.57 232.81 367.38 226.81 369.19 232.81 371.32 232.81 373.75 223.28 371.29 223.28 370.04 229.34"/><path d="M379.11,223.1a4.39,4.39,0,0,0-2.32.61,4.08,4.08,0,0,0-1.57,1.74,5.8,5.8,0,0,0-.55,2.57v.25A4.57,4.57,0,0,0,376,231.7,4.72,4.72,0,0,0,379.4,233a5.09,5.09,0,0,0,2.16-.45,3.82,3.82,0,0,0,1.55-1.27l-1.25-1.4a2.75,2.75,0,0,1-2.3,1.07,2.29,2.29,0,0,1-1.57-.56,2.39,2.39,0,0,1-.74-1.5h6.07v-1a5,5,0,0,0-1.13-3.5A4,4,0,0,0,379.11,223.1Zm1.7,4h-3.54a2.68,2.68,0,0,1,.61-1.47,1.58,1.58,0,0,1,1.23-.51,1.65,1.65,0,0,1,1.25.47,1.87,1.87,0,0,1,.45,1.31Z"/><path d="M389.62,223.1a2.88,2.88,0,0,0-2.31,1v-4.85h-2.55v13.53h2.29l.12-1a2.94,2.94,0,0,0,2.47,1.19,3.24,3.24,0,0,0,2.73-1.28,5.76,5.76,0,0,0,1-3.57V228a5.78,5.78,0,0,0-1-3.61A3.28,3.28,0,0,0,389.62,223.1Zm1,6.61a1.58,1.58,0,0,1-1.62,1.22,1.71,1.71,0,0,1-1.69-1v-3.77a1.67,1.67,0,0,1,1.67-1,1.54,1.54,0,0,1,1.36.66,3.77,3.77,0,0,1,.46,2.11A6.36,6.36,0,0,1,390.62,229.71Z"/><path class="cls-5" d="M407.1,405.12v7.7a6.32,6.32,0,0,0,6.3,6.31h47.77c.82-2,1.61-3.94,2.3-5.93V398.82H413.4A6.31,6.31,0,0,0,407.1,405.12Z"/><path class="cls-3" d="M454.75,434.54h1.14a39.73,39.73,0,0,1,1.53-5.93h-44a6.32,6.32,0,0,0-6.3,6.31v7.7a6.32,6.32,0,0,0,6.3,6.31h37.53Z"/><path class="cls-5" d="M428.21,518.66a33.87,33.87,0,0,1,6.33,12h28.93V510.33h-27.4C433.36,513.22,430.7,516,428.21,518.66Z"/><path class="cls-3" d="M435.47,544.39l-4.3,28.76c3.39,3.35,6.66,9.7,9.79,18.2h22.51V540.13H435.81A34.11,34.11,0,0,1,435.47,544.39Z"/><rect class="cls-3" x="308.59" y="344.25" width="419.38" height="1.14"/><rect x="235.71" y="247.96" width="519.25" height="1.14"/><rect x="235.71" y="204.06" width="519.25" height="1.14"/><rect x="468.53" y="212.28" width="1.14" height="28.24"/><path d="M283.14,303.44a6.9,6.9,0,0,0,.72-3.21v-.64a6.85,6.85,0,0,0-.72-3.19,5.1,5.1,0,0,0-2-2.15,5.86,5.86,0,0,0-3-.76H274.3v12.83H278a6.22,6.22,0,0,0,3.08-.75A5.18,5.18,0,0,0,283.14,303.44Zm-5.16,1.1h-1.45v-9.25h1.56a3.19,3.19,0,0,1,2.63,1.1,4.93,4.93,0,0,1,.91,3.19v.71a4.74,4.74,0,0,1-1,3.15A3.34,3.34,0,0,1,278,304.54Z"/><path d="M292.59,303.59a2.86,2.86,0,0,1-2.39,1.19,2.39,2.39,0,0,1-1.74-.68,2.85,2.85,0,0,1-.79-1.87h6.23v-.86a5.3,5.3,0,0,0-1.06-3.52,3.74,3.74,0,0,0-3-1.24,4.13,4.13,0,0,0-2.22.62,4.19,4.19,0,0,0-1.55,1.75,5.69,5.69,0,0,0-.55,2.55v.27a4.61,4.61,0,0,0,1.27,3.41,4.43,4.43,0,0,0,3.29,1.28,4.85,4.85,0,0,0,2.15-.47,3.86,3.86,0,0,0,1.53-1.32Zm-4.19-4.65a2,2,0,0,1,2.81-.06,2.51,2.51,0,0,1,.57,1.62v.16h-4.07A3.15,3.15,0,0,1,288.4,298.94Z"/><path d="M303,303.61a2.36,2.36,0,0,0-.35-1.3,2.73,2.73,0,0,0-1.07-.92,7.59,7.59,0,0,0-2-.66,5.93,5.93,0,0,1-1.67-.55.87.87,0,0,1-.41-.77,1,1,0,0,1,.44-.87,1.89,1.89,0,0,1,1.15-.33,1.78,1.78,0,0,1,1.22.41,1.33,1.33,0,0,1,.45,1h2.15a2.71,2.71,0,0,0-1.06-2.2,4.29,4.29,0,0,0-2.76-.84,4.11,4.11,0,0,0-2.64.83,2.54,2.54,0,0,0-1,2.06,2.41,2.41,0,0,0,1.6,2.24,8.2,8.2,0,0,0,1.83.59,5.07,5.07,0,0,1,1.56.52,1,1,0,0,1,.47.88,1,1,0,0,1-.44.84,2.19,2.19,0,0,1-1.29.32,2.26,2.26,0,0,1-1.4-.41,1.51,1.51,0,0,1-.57-1.17h-2.08a2.79,2.79,0,0,0,.51,1.6,3.45,3.45,0,0,0,1.43,1.16,5,5,0,0,0,2.09.42,4.48,4.48,0,0,0,2.79-.8A2.48,2.48,0,0,0,303,303.61Z"/><rect x="305.01" y="296.79" width="2.14" height="9.53"/><path d="M305.19,293.49a1.2,1.2,0,0,0,0,1.63,1.18,1.18,0,0,0,.89.32,1.22,1.22,0,0,0,.9-.32,1.2,1.2,0,0,0,0-1.63,1.19,1.19,0,0,0-.9-.33A1.15,1.15,0,0,0,305.19,293.49Z"/><path d="M317.5,296.79h-1.92l-.1,1a3.13,3.13,0,0,0-2.56-1.14,3.37,3.37,0,0,0-2.78,1.32,5.63,5.63,0,0,0-1,3.55,5.72,5.72,0,0,0,1.06,3.68,3.34,3.34,0,0,0,2.74,1.33,3.12,3.12,0,0,0,2.46-1v.64a2.21,2.21,0,0,1-.61,1.7,2.39,2.39,0,0,1-1.69.58,3.07,3.07,0,0,1-2.43-1.17l-1,1.28a3.63,3.63,0,0,0,1.52,1.14,5.11,5.11,0,0,0,2.05.44,4.46,4.46,0,0,0,3.15-1.08,3.84,3.84,0,0,0,1.16-3Zm-5.68,7.14a3.86,3.86,0,0,1-.59-2.26,4.31,4.31,0,0,1,.59-2.47,1.89,1.89,0,0,1,1.64-.84,2,2,0,0,1,1.9,1.09v4.19a2,2,0,0,1-1.92,1.11A1.9,1.9,0,0,1,311.82,303.93Z"/><path d="M327.56,300q-.06-3.4-3-3.41a3.44,3.44,0,0,0-2.77,1.28l-.06-1.1h-2v9.53h2.14v-6.79a2.06,2.06,0,0,1,1.93-1.17,1.65,1.65,0,0,1,1.28.44,2,2,0,0,1,.39,1.34v6.18h2.15Z"/><rect x="329.26" y="300" width="4.62" height="1.73"/><polygon points="347.63 296.79 345.54 296.79 344.03 303.37 342.05 296.79 340.43 296.79 338.48 303.3 336.94 296.79 334.85 296.79 337.46 306.32 339.22 306.32 341.23 299.77 343.27 306.32 345.03 306.32 347.63 296.79"/><path d="M355.78,303.59a2.89,2.89,0,0,1-2.4,1.19,2.39,2.39,0,0,1-1.74-.68,2.9,2.9,0,0,1-.79-1.87h6.23v-.86a5.25,5.25,0,0,0-1.06-3.52,3.74,3.74,0,0,0-3-1.24,4.08,4.08,0,0,0-3.76,2.37,5.69,5.69,0,0,0-.55,2.55v.27a4.64,4.64,0,0,0,1.26,3.41,4.44,4.44,0,0,0,3.3,1.28,4.81,4.81,0,0,0,2.14-.47,3.86,3.86,0,0,0,1.53-1.32Zm-4.2-4.65a1.8,1.8,0,0,1,1.42-.61,1.76,1.76,0,0,1,1.39.55,2.57,2.57,0,0,1,.58,1.62v.16h-4.08A3.22,3.22,0,0,1,351.58,298.94Z"/><path d="M367.11,301.65v-.13a5.86,5.86,0,0,0-1-3.62,3.27,3.27,0,0,0-2.74-1.29,3.1,3.1,0,0,0-2.49,1.09v-4.91h-2.14v13.53h1.94l.1-1a3.11,3.11,0,0,0,2.61,1.2,3.22,3.22,0,0,0,2.72-1.31A5.65,5.65,0,0,0,367.11,301.65Zm-4.26,3.1a2,2,0,0,1-2-1.24v-3.93a2,2,0,0,1,1.95-1.22,1.81,1.81,0,0,1,1.59.78,4,4,0,0,1,.55,2.32v.28a3.92,3.92,0,0,1-.57,2.26A1.8,1.8,0,0,1,362.85,304.75Z"/><path class="cls-6" d="M460.82,679.27h2.65v-3.41h-3.21C460.45,677,460.64,678.13,460.82,679.27Z"/><path class="cls-6" d="M235.71,675.86V181.37H755V346.49h3.41V178H232.29V679.27H367.13v-3.41Z"/><path class="cls-2" d="M357.42,388.77H314.88a9.82,9.82,0,0,0-9.81,9.81v44.06a9.84,9.84,0,0,0,8.72,9.75c.18-8.9,3-16.67,10.82-20.51a9.75,9.75,0,0,1,4.15-1l3.33,0v-1.67a9.18,9.18,0,0,1-6.24-4.6,13.23,13.23,0,0,1-1.16-6.32,4.17,4.17,0,0,1-4.05-4,4.06,4.06,0,0,1,2.7-3.75c0-.76.16-7.22,4.89-10.2h0a14.9,14.9,0,0,1,8.86-3,12.37,12.37,0,0,1,8.68,2.81h0c4.85,3.26,4.71,10.05,4.71,10.05a.13.13,0,0,1-.06.06,4,4,0,0,1,2.33,3.59,4.14,4.14,0,0,1-3.95,4c.18,5.14-.73,6-.73,6a8.16,8.16,0,0,1-6.65,5.39v1.59l3.14,0c9.92,0,13.61,11.67,13.83,21.62a9.83,9.83,0,0,0,8.84-9.76V398.58A9.82,9.82,0,0,0,357.42,388.77Z"/><path class="cls-10" d="M327.55,416.44c.13,1,.22,4.62.83,5.49s16.73.35,17.25-.26.4-5.12,1.12-5.62a3.15,3.15,0,0,1,2-.28v.49c0,.58.06,1.11.08,1.6a4.14,4.14,0,0,0,3.95-4,4,4,0,0,0-2.33-3.59c-.15.11-.69.24-2.43-.78s-2.86-6.92-3.2-9.13a49.56,49.56,0,0,1-7.92.8,33.31,33.31,0,0,1-8-.66c-.28,2-1.32,8.29-3.14,9.4-2.15,1.31-2.4.71-2.4.71v-.07a4.06,4.06,0,0,0-2.7,3.75,4.17,4.17,0,0,0,4.05,4,21.7,21.7,0,0,1,.3-3.09S327.42,415.44,327.55,416.44Z"/><path class="cls-11" d="M344.56,430.78l-3.14,0v1a9.73,9.73,0,0,1-8.63.28l-.7-.34v-.87l-3.33,0a9.75,9.75,0,0,0-4.15,1c-7.83,3.84-10.64,11.61-10.82,20.51a9.82,9.82,0,0,0,1.09.06h42.54c.33,0,.65,0,1-.05C358.17,442.45,354.48,430.78,344.56,430.78Z"/><path class="cls-6" d="M357.42,386.28H314.88a12.32,12.32,0,0,0-12.3,12.3v44.06a12.32,12.32,0,0,0,12.3,12.3h42.54a12.32,12.32,0,0,0,12.3-12.3V398.58A12.32,12.32,0,0,0,357.42,386.28Zm9.81,12.3v44.06a9.83,9.83,0,0,1-8.84,9.76c-.32,0-.64.05-1,.05H314.88a9.8,9.8,0,0,1-9.81-9.81V398.58a9.82,9.82,0,0,1,9.81-9.81h42.54A9.82,9.82,0,0,1,367.23,398.58Z"/><path class="cls-10" d="M332.79,432.1a9.73,9.73,0,0,0,8.63-.28v-2.6a31.66,31.66,0,0,1-5.15.41,16.53,16.53,0,0,1-4.18-.41v2.54Z"/><path class="cls-8" d="M341.42,429.22a8.16,8.16,0,0,0,6.65-5.39s.91-.83.73-6c0-.49-.05-1-.08-1.6v-.49a3.15,3.15,0,0,0-2,.28c-.72.5-.59,5-1.12,5.62s-16.64,1.13-17.25.26-.7-4.49-.83-5.49-2.56-1.23-2.56-1.23a21.7,21.7,0,0,0-.3,3.09,13.23,13.23,0,0,0,1.16,6.32,9.18,9.18,0,0,0,6.24,4.6,16.53,16.53,0,0,0,4.18.41A31.66,31.66,0,0,0,341.42,429.22Z"/><path class="cls-8" d="M325.74,409.88c1.82-1.11,2.86-7.44,3.14-9.4a33.31,33.31,0,0,0,8,.66,49.56,49.56,0,0,0,7.92-.8c.34,2.21,1.4,8.08,3.2,9.13s2.28.89,2.43.78a.13.13,0,0,0,.06-.06s.14-6.79-4.71-10.05h0a12.37,12.37,0,0,0-8.68-2.81,14.9,14.9,0,0,0-8.86,3h0c-4.73,3-4.89,9.44-4.89,10.2v.07S323.59,411.19,325.74,409.88Z"/><path class="cls-2" d="M361.38,572.36a9.81,9.81,0,0,0,7-6.1,49.14,49.14,0,0,1-5,2.08l-2,3.19C361.36,571.81,361.38,572.09,361.38,572.36Z"/><path class="cls-2" d="M306.9,518.73v44.06a9.82,9.82,0,0,0,9.8,9.81h1.48c.18-7.85,2.91-15.89,10.48-19.25a10.15,10.15,0,0,1,4-.83h.24c.06-.62.14-1.26.24-1.95a9.83,9.83,0,0,0-5.9-2.26c-3.83,0-2.4-.66-4.87-4.49s-4.64-1.91-4.64-5.19,1.09-1.64,0-5.47-1.37-4.65,1.91-7.93,4.65-3.34,4.92-6.59,3.24-1,5.43-4.31,4.39-4,9.59-2.93,7.13-1.76,9.32,1.8.79,3.66,3,5.55c1.95,1.65,1.68,1.21,2,2.55,2.18-2.51,3.49-5.95,3.08-11.84l0-.53H316.7A9.82,9.82,0,0,0,306.9,518.73Z"/><path class="cls-8" d="M360.74,572.47a6.09,6.09,0,0,0,.64-.11c0-.27,0-.55,0-.83Z"/><path class="cls-6" d="M318.18,572.6H316.7a9.82,9.82,0,0,1-9.8-9.81V518.73a9.82,9.82,0,0,1,9.8-9.8H357c-.06-.87-.12-1.7-.17-2.5H316.7a12.32,12.32,0,0,0-12.3,12.3v44.06a12.31,12.31,0,0,0,12.3,12.3h22l1.17-2.49Z"/><path class="cls-6" d="M361.38,572.36a6.09,6.09,0,0,1-.64.11l-1.67,2.62h.17a12.31,12.31,0,0,0,12.12-10.19c-1,.46-2,.92-2.95,1.36A9.81,9.81,0,0,1,361.38,572.36Z"/><path class="cls-12" d="M341.79,521.52c-2.73,1.91-3.54,2.34-6.54,2.89s.54,3-3,4.93-5.85,1.58-5.16,7.07c1,7.68,5.24,11.07,6.48,11.91.34-1.66.8-3.52,1.4-5.6,2.94-10.3,8.58-13.81,13.44-17a35.92,35.92,0,0,0-3-6.25S344.53,519.6,341.79,521.52Z"/><path class="cls-11" d="M351.94,518.75c-2.23-1.89-.83-2-3-5.55s-4.13-.75-9.32-1.8-7.41-.36-9.59,2.93-5.15,1.06-5.43,4.31-1.64,3.31-4.92,6.59-3,4.1-1.91,7.93,0,2.19,0,5.47,2.18,1.37,4.64,5.19,1,4.49,4.87,4.49a9.83,9.83,0,0,1,5.9,2.26c.11-.71.24-1.45.4-2.25-1.24-.84-5.51-4.23-6.48-11.91-.69-5.49,1.6-5.16,5.16-7.07s0-4.38,3-4.93,3.81-1,6.54-2.89,3.57-2,3.57-2a35.92,35.92,0,0,1,3,6.25A25.49,25.49,0,0,0,354,521.3C353.62,520,353.89,520.4,351.94,518.75Z"/><polygon class="cls-13" points="463.47 798.81 463.47 798.69 461.43 798.8 461.43 798.81 463.47 798.81"/><path class="cls-13" d="M463.47,696.24v-1.76h-.26C463.3,695.07,463.38,695.66,463.47,696.24Z"/><path class="cls-14" d="M457.42,428.61a39.73,39.73,0,0,0-1.53,5.93h7.58V413.2c-.69,2-1.48,4-2.3,5.93C459.85,422.28,458.48,425.41,457.42,428.61Z"/><path class="cls-14" d="M311.45,786.44c-1.3-.91-2.83-1.85-4.14-2.94l-4,4.25c.74.89,5.74,6.93,8.76,10.18a7.86,7.86,0,0,1,1.2,2l6.11-6.8c-.48-.38-1-.76-1.43-1.15C316.25,790.54,313.65,788.63,311.45,786.44Z"/><path class="cls-14" d="M463.47,807.49l-2-8.68h-.14a3.41,3.41,0,0,1-1.41,1,65,65,0,0,1-14.65,3.45l1.52,10.51,16.72-2.62Z"/><path class="cls-3" d="M303.32,787.75l-.1-.13c-22-2.51-28.4,13.38-22.08,16.62s10.59,10.79,17.28,20.17S320.73,837,325.19,837s6.8-2.71-1.05-10.58c-5.12-5.14-8-20.47-10.86-26.56a7.86,7.86,0,0,0-1.2-2C309.06,794.68,304.06,788.64,303.32,787.75Z"/><path class="cls-3" d="M446.75,813.78l-1.44.22s-5.59,12,0,16.49c2.56,2,9.62,1.53,18.16.48V811.16Z"/><polygon class="cls-14" points="343.37 565.22 343.26 565.48 343.38 565.22 343.37 565.22"/><path class="cls-14" d="M322.81,611.83a2.75,2.75,0,0,1-.43.69l-5.78,6.77a2.78,2.78,0,0,0,2.41,4.57,12.93,12.93,0,0,0,10.28-6.9s-4.33,8.11,0,7,8.43-12,9.45-19.64a6.24,6.24,0,0,1,.41-1.4l-11.78-1.44Z"/><path class="cls-4" d="M361.35,571.53l2-3.19c-4,1.34-8.1,1.62-13.7-.73-2.3-1-4.41-1.71-6.31-2.39l-.12.26-3.35,7.12-1.17,2.49-12.36,26.3,1,.12L339.15,603l1.94.23,18-28.09,1.67-2.62Z"/><path class="cls-14" d="M412.83,456.84a39.54,39.54,0,0,1-3.15,10.92c.64,7.28,1.27,15.47,1.58,22.06L425,482.71c.12-1.8.15-4.06.15-6.94a30.92,30.92,0,0,0-.34-4.48,2.82,2.82,0,0,0,1.5-1.23,5.08,5.08,0,0,0,.6-2.13,2.54,2.54,0,0,0-1.26-2.2c-.82-.58-1.71-1.05-2.58-1.55a1.2,1.2,0,0,0-.47-.16c-.26-.52-.54-1-.82-1.47a17.81,17.81,0,0,0-8.66-10.93c-.08-.09-.15-.18-.23-.26a1,1,0,0,0-.72-.36A9.19,9.19,0,0,1,412.83,456.84Z"/><path class="cls-13" d="M410,665.78c-1.87-13.63-2.82-27.85-7.19-41a.48.48,0,0,0-.94.13c.28,13.84,3.24,27.56,4.15,41.38.43,6.61,1.44,13.15,2.17,19.72s1,13.28,2.22,19.84c.06.32.49.2.53-.07C412.49,693,411.78,678.58,410,665.78Z"/><path class="cls-13" d="M382.58,703.34a55.44,55.44,0,0,1-13.24-5.09c-.13-.07-.31.08-.21.22a17.6,17.6,0,0,0,13.1,7.49A1.34,1.34,0,0,0,382.58,703.34Z"/><path class="cls-13" d="M381.43,708.36a13.22,13.22,0,0,1-12.7-5.44.05.05,0,0,0-.09.06,11.94,11.94,0,0,0,13.27,7.13C383.06,709.91,382.56,708.19,381.43,708.36Z"/><path class="cls-13" d="M394.54,579.56a.43.43,0,0,0,.11.84c11.27.43,22.22-1.43,33-4.58.44-.13.38-.89-.11-.84-7.88.78-15.76,1.62-23.57,2.86l-5.74,1C397,579.06,395.77,579.3,394.54,579.56Z"/><path class="cls-13" d="M347.87,741.44c-.06-.73-1.17-1-1.36-.18-2.68,11.79-.69,25.79,2,37.47.22,1,1.56.52,1.44-.4C349,771.9,348.26,765.46,348,759,347.82,753.14,348.35,747.23,347.87,741.44Z"/><path class="cls-13" d="M446.66,747.5a31.93,31.93,0,0,1-14.33-10.86.48.48,0,0,0-.83.49,27.53,27.53,0,0,0,14.42,13C447.61,750.81,448.28,748.16,446.66,747.5Z"/><path class="cls-4" d="M455.89,434.54h-1.14l-3.82,14.39-6.25,23.58L425,482.71l-13.73,7.11,0,.73c.67,15.53-4.46,32.29-15,43.47-.33.35-.63.7-.91,1.05a13,13,0,0,0-1.89,5.66c-.39,4.38.11,8.83-1.4,12.66a6.85,6.85,0,0,1-2.39,5c1.5,3.91,2.46,7.24,2.27,9a36.77,36.77,0,0,0,.91,12.39l5.3-.92,5.74-1,27.2-4.69,4.3-28.76a34.11,34.11,0,0,0,.34-4.26,32,32,0,0,0-1.27-9.48,33.87,33.87,0,0,0-6.33-12c2.49-2.63,5.15-5.44,7.86-8.33,10.05-10.7,20.88-22.42,27.4-30V434.54Z"/><path class="cls-8" d="M392.14,553.39c1.51-3.83,1-8.28,1.4-12.66a13,13,0,0,1,1.89-5.66c.28-.35.58-.7.91-1.05,10.49-11.18,15.62-27.94,15-43.47l0-.73c-.31-6.59-.94-14.78-1.58-22.06a39.54,39.54,0,0,0,3.15-10.92,9.19,9.19,0,0,0-.67-5.84,7.58,7.58,0,0,0-2.34-2.63,2,2,0,0,0-1.17-.38c-4.48-6.7-19.42-5.95-26-3.67-9.07,3.13-13.37,12.58-15.19,21.38-1.15,5.61-4.38,9.58-6.53,14.75a29.51,29.51,0,0,0-1.49,4.7c-3,5.46-3.29,9.45-2.55,21.28,0,.8.11,1.63.17,2.5l0,.53c.41,5.89-.9,9.33-3.08,11.84a25.49,25.49,0,0,1-5.57,4.44c-4.86,3.17-10.5,6.68-13.44,17-.6,2.08-1.06,3.94-1.4,5.6-.16.8-.29,1.54-.4,2.25s-.18,1.33-.24,1.95h-.24a10.15,10.15,0,0,0-4,.83c-7.57,3.36-10.3,11.4-10.48,19.25h21.73l3.35-7.12.11-.26h0c1.9.68,4,1.42,6.31,2.39,5.6,2.35,9.67,2.07,13.7.73a49.14,49.14,0,0,0,5-2.08c.95-.44,1.93-.9,2.95-1.36a53.19,53.19,0,0,1,12.48-4.17,13,13,0,0,0,5.91-2.39A6.85,6.85,0,0,0,392.14,553.39Z"/><polygon class="cls-2" points="562.39 391.76 560.79 396.56 564 396.56 562.39 391.76"/><polygon class="cls-2" points="509.94 397.25 510.5 393.3 507.29 393.3 506.72 397.25 509.94 397.25"/><path class="cls-2" d="M533.17,398.27a2.53,2.53,0,0,0,4.12,0,5.44,5.44,0,0,0,.72-3v-.63a5.44,5.44,0,0,0-.72-3.07,2.37,2.37,0,0,0-2.06-1,2.34,2.34,0,0,0-2.05,1,5.3,5.3,0,0,0-.74,3v.62A5.48,5.48,0,0,0,533.17,398.27Z"/><path class="cls-2" d="M986.14,416.5V373.74H466.89V416.5ZM611.41,401.34h-2.55v-9.53h2.55Zm48.84-20.52h1.14v28.25h-1.14ZM627.62,398a6,6,0,0,0-1.49-.48c-2.26-.47-3.4-1.43-3.4-2.88a2.59,2.59,0,0,1,1.06-2.12,4.2,4.2,0,0,1,2.75-.85,4.55,4.55,0,0,1,2.9.85,2.68,2.68,0,0,1,1.09,2.22H628a1.25,1.25,0,0,0-.35-.9,1.47,1.47,0,0,0-1.1-.36,1.57,1.57,0,0,0-1,.29.94.94,0,0,0-.35.74.77.77,0,0,0,.4.68,3.87,3.87,0,0,0,1.35.45,11.42,11.42,0,0,1,1.61.43,2.64,2.64,0,0,1,2,2.56,2.49,2.49,0,0,1-1.12,2.11,4.82,4.82,0,0,1-2.89.81,5,5,0,0,1-2.13-.43,3.49,3.49,0,0,1-1.46-1.17,2.72,2.72,0,0,1-.53-1.61h2.42a1.31,1.31,0,0,0,.5,1,2,2,0,0,0,1.25.36,1.89,1.89,0,0,0,1.11-.27.9.9,0,0,0,.37-.73A.82.82,0,0,0,627.62,398Zm-14.51-1.51a5,5,0,0,1,1.18-3.51,4.59,4.59,0,0,1,6.08-.3,3.61,3.61,0,0,1,1.09,2.71h-2.38a1.77,1.77,0,0,0-.46-1.21,1.71,1.71,0,0,0-2.51.19,3.76,3.76,0,0,0-.45,2.1v.27a3.78,3.78,0,0,0,.45,2.11,1.55,1.55,0,0,0,1.36.65,1.67,1.67,0,0,0,1.15-.39,1.37,1.37,0,0,0,.46-1h2.38a3.22,3.22,0,0,1-.52,1.77,3.41,3.41,0,0,1-1.43,1.25,4.38,4.38,0,0,1-2,.45,4.15,4.15,0,0,1-3.23-1.3,5.16,5.16,0,0,1-1.18-3.59Zm-4-8.06a1.66,1.66,0,0,1,2.09,0,1.28,1.28,0,0,1,.38,1,1.27,1.27,0,0,1-.39.95,1.46,1.46,0,0,1-1,.37,1.48,1.48,0,0,1-1-.37,1.27,1.27,0,0,1-.39-.95A1.28,1.28,0,0,1,609.09,388.4Zm-7.35,3.41h1.39v-2.34h2.55v2.34h1.63v1.87h-1.63v4.76a1.19,1.19,0,0,0,.2.76,1.05,1.05,0,0,0,.78.22,4.22,4.22,0,0,0,.75-.06v1.93a5.39,5.39,0,0,1-1.55.23,2.43,2.43,0,0,1-2.73-2.7v-5.14h-1.39Zm-6.38,0,1.78,5.93,1.76-5.93h2.73l-3.83,11-.22.51a2.89,2.89,0,0,1-2.81,1.86,4.06,4.06,0,0,1-1.13-.16V403.1H594a2.11,2.11,0,0,0,1.07-.22,1.45,1.45,0,0,0,.56-.74l.3-.78-3.33-9.56Zm-6.43-4h2.55v13.53h-2.55Zm-5,6.11a1.3,1.3,0,0,0-1.07-.4,1.48,1.48,0,0,0-1,.31,1,1,0,0,0-.37.85H579a2.56,2.56,0,0,1,.51-1.54,3.48,3.48,0,0,1,1.45-1.1,5.21,5.21,0,0,1,2.1-.4,4.15,4.15,0,0,1,2.79.88,3.1,3.1,0,0,1,1,2.49v4.13a4.39,4.39,0,0,0,.38,2.05v.15h-2.58a3,3,0,0,1-.25-.85,3.08,3.08,0,0,1-2.41,1,3.4,3.4,0,0,1-2.32-.81,2.61,2.61,0,0,1-.92-2,2.7,2.7,0,0,1,1.13-2.33,5.55,5.55,0,0,1,3.24-.82h1.17V395A1.55,1.55,0,0,0,583.94,393.92Zm-12.58-2.11.08,1.1a3.32,3.32,0,0,1,2.74-1.27,2.73,2.73,0,0,1,2.25.89,4.1,4.1,0,0,1,.76,2.66v6.15h-2.54v-6.09a1.65,1.65,0,0,0-.36-1.18,1.58,1.58,0,0,0-1.17-.36,1.75,1.75,0,0,0-1.61.91v6.72H569v-9.53Zm-7.75-3.29,4.8,12.82H565.6l-.89-2.64h-4.63l-.88,2.64h-2.81l4.77-12.82ZM543,390.4l5.31-1.9h.28v12.84H546v-9.81l-3,.94Zm-13.18,4.26a7.67,7.67,0,0,1,.68-3.34,5.09,5.09,0,0,1,1.93-2.21,5.66,5.66,0,0,1,5.7,0,5.16,5.16,0,0,1,1.93,2.21,7.77,7.77,0,0,1,.68,3.33v.57a7.65,7.65,0,0,1-.58,3.12,5.38,5.38,0,0,1-1.61,2.13l2.13,1.68L539,403.63l-2.74-2.19a6,6,0,0,1-1,.08,5.34,5.34,0,0,1-2.85-.77,5.12,5.12,0,0,1-1.94-2.19,7.35,7.35,0,0,1-.69-3.27Zm-29.62,2.59h3.43l.56-4h-3V390h3.5l.88-6.15h3.15l-.89,6.15H511l.92-6.15h3.15l-.92,6.15H517v3.28h-3.32l-.56,4H516v3.25h-3.46l-.89,6.33h-3.18l.88-6.33h-3.21l-.89,6.33h-3.18l.92-6.33h-2.86Z"/><path class="cls-2" d="M581.3,398.33v.15a1,1,0,0,0,.33.79,1.34,1.34,0,0,0,.92.3,2.19,2.19,0,0,0,1-.25,1.57,1.57,0,0,0,.7-.67V397h-.95C582.06,397,581.38,397.45,581.3,398.33Z"/><rect class="cls-2" x="466.89" y="349.9" width="519.25" height="22.7"/><path class="cls-2" d="M841,762.84s.25-1,.65-3H646a7.76,7.76,0,0,1-7.73-7.74V716.41a7.76,7.76,0,0,1,7.73-7.74H846.6c.18-7,.22-14.77.07-23.21a185.52,185.52,0,0,1,11.52-68H644.58a6.32,6.32,0,0,1-6.3-6.31v-7.7a6.32,6.32,0,0,1,6.3-6.31h226.2l1.12-.41c.29-6.64.1-15.32-2.54-18.88a63.91,63.91,0,0,1-9-3.45c-3.55-1.56-7.94-3-9.22-6.82a4.71,4.71,0,0,1-.44-3.5c.08-.35.18-.68.27-1a15.09,15.09,0,0,1,.83-2.76,34.8,34.8,0,0,1,4.54-8.81l.29-.46a4.52,4.52,0,0,1,.64-.78,35.74,35.74,0,0,1,5.45-5.55,7.05,7.05,0,0,1,.64-7c1.37-2,3.43-2.64,5.73-2.9,1.76-.21,3.51.06,5.27,0a23.28,23.28,0,0,0,6.1-1.3,119.44,119.44,0,0,0,12.28-11.24,22.07,22.07,0,0,1,.34-8.28H539.77v-1.14H893.53a4,4,0,0,1,2.84-2.36c7.54-5.73,15.79-2.7,23.15,2.36h39.62v1.14h-38c4.21,3.09,8.07,6.71,11.28,9.53a4,4,0,0,1,.7.83c.35.31.67.61.94.87,9.37,9,11.5,25.85,2.93,35.48-4.48,8.85-31.61,17.39-31.61,17.39V584a8.26,8.26,0,0,1,1,.08l.61-.23.18.41a7.59,7.59,0,0,1,3.9,2.78c2.19,2.72,3.53,6.44,4.6,10.16h37.19a6.32,6.32,0,0,1,6.3,6.31v7.7a6.32,6.32,0,0,1-6.3,6.31H921.43c.75,2.69,1.48,5.39,2.17,8.1.27.84.53,1.66.78,2.47a35.1,35.1,0,0,1,1,5.16c1.14,5.22,2.11,10.47,2.76,15.79,2,16.53,1.39,33-.51,49.38,0,3.46,0,6.9,0,10.3h23.78a7.76,7.76,0,0,1,7.73,7.74v35.74a7.76,7.76,0,0,1-7.73,7.74H927c-.05,1.9-.07,3-.07,3h-6.55c-1.36,18.19-3.57,52.7-3.42,81.55h69.22V417.63H466.89V844.39H829.3c.87-25.9,4.26-54.21,12.87-81.55Zm-89.9-70a6.32,6.32,0,0,1-6.31,6.3H644.58a6.31,6.31,0,0,1-6.3-6.3v-7.7a6.32,6.32,0,0,1,6.3-6.31H744.82a6.33,6.33,0,0,1,6.31,6.31Zm-214-77.35V571.47a12.31,12.31,0,0,1,12.3-12.3h42.54a12.32,12.32,0,0,1,12.3,12.3v44.06a12.32,12.32,0,0,1-12.3,12.3H549.39A12.31,12.31,0,0,1,537.09,615.53ZM639.59,626a1.5,1.5,0,0,1,1.49-1.5h18.79a1.5,1.5,0,0,1,1.49,1.5v9.81a1.49,1.49,0,0,1-1.49,1.49H641.08a1.49,1.49,0,0,1-1.49-1.49ZM801,567.36a6.32,6.32,0,0,1,6.31,6.3v7.7a6.33,6.33,0,0,1-6.31,6.31H644.58a6.32,6.32,0,0,1-6.3-6.31v-7.7a6.31,6.31,0,0,1,6.3-6.3Zm-307.1-78.23v-39.5H961.28v39.5H500.42V807.34h-6.57ZM605.73,728.48a12.32,12.32,0,0,1-12.3,12.3H550.89a12.32,12.32,0,0,1-12.3-12.3V684.42a12.32,12.32,0,0,1,12.3-12.3h42.54a12.32,12.32,0,0,1,12.3,12.3Z"/><polygon class="cls-2" points="860.54 564.32 860.54 564.32 860.54 564.31 860.54 564.32"/><polygon class="cls-3" points="625.83 489.13 961.28 489.13 961.28 449.63 625.83 449.63 638.28 469.38 625.83 489.13"/><path class="cls-11" d="M556.53,470.8a1.33,1.33,0,0,0-.6,1.17,1.22,1.22,0,0,0,.41,1,1.58,1.58,0,0,0,1.09.36,2.51,2.51,0,0,0,1.2-.3,2.1,2.1,0,0,0,.84-.83v-1.8h-1.16A3.08,3.08,0,0,0,556.53,470.8Z"/><path class="cls-11" d="M510.35,473.2a2.66,2.66,0,0,0,2.29-1.13,5.69,5.69,0,0,0,.79-3.29v-.67a5.58,5.58,0,0,0-.81-3.29,2.67,2.67,0,0,0-2.29-1.12,2.63,2.63,0,0,0-2.25,1.14,5.48,5.48,0,0,0-.83,3.19v.75a5.66,5.66,0,0,0,.81,3.25A2.64,2.64,0,0,0,510.35,473.2Z"/><path class="cls-11" d="M500.42,807.34V489.13H625.83l12.45-19.75-12.45-19.75h-132V807.34Zm85.09-332.48h-2.14v-9.53h2.14Zm16.65-3.47a5.06,5.06,0,0,0-1.57-.52,8.28,8.28,0,0,1-1.82-.59,2.41,2.41,0,0,1-1.6-2.24,2.52,2.52,0,0,1,1-2.06,4.11,4.11,0,0,1,2.64-.83,4.29,4.29,0,0,1,2.76.84,2.7,2.7,0,0,1,1,2.2h-2.14a1.35,1.35,0,0,0-.45-1,1.78,1.78,0,0,0-1.22-.41,1.89,1.89,0,0,0-1.15.33,1,1,0,0,0-.44.87.87.87,0,0,0,.41.77,5.93,5.93,0,0,0,1.67.55,7.59,7.59,0,0,1,2,.66,2.8,2.8,0,0,1,1.07.92,2.35,2.35,0,0,1,.34,1.3,2.47,2.47,0,0,1-1.06,2.08,4.48,4.48,0,0,1-2.79.8,5,5,0,0,1-2.09-.42,3.45,3.45,0,0,1-1.43-1.16,2.79,2.79,0,0,1-.51-1.6h2.08a1.51,1.51,0,0,0,.57,1.17,2.24,2.24,0,0,0,1.4.41,2.19,2.19,0,0,0,1.29-.32,1,1,0,0,0,.44-.84A1,1,0,0,0,602.16,471.39Zm-14.72-1.45a5,5,0,0,1,1.17-3.48,4,4,0,0,1,3.17-1.31,3.93,3.93,0,0,1,2.77,1,3.54,3.54,0,0,1,1.12,2.6h-2a1.93,1.93,0,0,0-.56-1.34,1.76,1.76,0,0,0-1.33-.53,1.88,1.88,0,0,0-1.6.75,3.83,3.83,0,0,0-.58,2.29v.34a3.93,3.93,0,0,0,.56,2.31,1.88,1.88,0,0,0,1.62.76,1.94,1.94,0,0,0,1.33-.46,1.59,1.59,0,0,0,.56-1.16h2a3.13,3.13,0,0,1-.55,1.66,3.64,3.64,0,0,1-1.41,1.22,4.24,4.24,0,0,1-1.92.45,4.09,4.09,0,0,1-3.18-1.29,5.16,5.16,0,0,1-1.17-3.58ZM583.55,462a1.39,1.39,0,0,1,1.8,0,1.23,1.23,0,0,1,0,1.63,1.43,1.43,0,0,1-1.8,0,1.23,1.23,0,0,1,0-1.63Zm-7.34,3.3h1.57V463h2.14v2.32h1.68v1.58h-1.68v5.32a1.13,1.13,0,0,0,.22.79,1,1,0,0,0,.77.24,3.33,3.33,0,0,0,.75-.09v1.66a5.1,5.1,0,0,1-1.41.2c-1.65,0-2.47-.91-2.47-2.72v-5.4h-1.57Zm-6.44,0,2,6.46,1.94-6.46H576l-3.79,11c-.58,1.6-1.57,2.41-3,2.41a4.11,4.11,0,0,1-1-.16v-1.67l.41,0a2.07,2.07,0,0,0,1.22-.3,1.86,1.86,0,0,0,.64-1l.31-.81-3.34-9.48Zm-5.78-4h2.14v13.53H564Zm-4.94,5.89a1.65,1.65,0,0,0-1.26-.44,1.89,1.89,0,0,0-1.19.36,1.13,1.13,0,0,0-.47.93H554a2.33,2.33,0,0,1,.52-1.46,3.42,3.42,0,0,1,1.41-1.07,5,5,0,0,1,2-.39,4,4,0,0,1,2.67.84,3,3,0,0,1,1,2.37v4.29a4.91,4.91,0,0,0,.36,2.06v.15h-2.19a3.61,3.61,0,0,1-.24-.89,3.61,3.61,0,0,1-4.85.24,2.62,2.62,0,0,1-.9-2,2.69,2.69,0,0,1,1.13-2.34,5.48,5.48,0,0,1,3.23-.82h1.32v-.62A1.68,1.68,0,0,0,559.05,467.22Zm-15-1.89h2l.06,1.1a3.44,3.44,0,0,1,2.78-1.28q3,0,3,3.41v6.3h-2.14v-6.18a2,2,0,0,0-.39-1.34,1.65,1.65,0,0,0-1.28-.44,2.05,2.05,0,0,0-1.93,1.17v6.79H544Zm-7.65-3.3h2l4.85,12.83h-2.32l-1-3h-5l-1,3h-2.32Zm-18.27,1.8,5-1.84h.28v12.87h-2.13V464.55l-3.15,1.08ZM505,468.13a7.75,7.75,0,0,1,.67-3.32,5,5,0,0,1,1.87-2.19,5.08,5.08,0,0,1,2.77-.77,5.22,5.22,0,0,1,2.8.76,4.9,4.9,0,0,1,1.87,2.16,7.88,7.88,0,0,1,.67,3.29v.72a7.85,7.85,0,0,1-.58,3.16,5.07,5.07,0,0,1-1.61,2.11l2.2,1.72-1.44,1.31-2.74-2.16a5.91,5.91,0,0,1-1.15.11,5.1,5.1,0,0,1-2.77-.76,5,5,0,0,1-1.88-2.17,7.58,7.58,0,0,1-.68-3.25Z"/><polygon class="cls-11" points="537.38 464.75 535.52 470.07 539.23 470.07 537.38 464.75"/><path class="cls-11" d="M503,400.5l-.92,6.33h3.18l.89-6.33h3.21l-.88,6.33h3.18l.89-6.33H516v-3.25h-2.93l.56-4H517V390h-2.82l.92-6.15h-3.15L511,390h-3.22l.89-6.15h-3.15l-.88,6.15h-3.5v3.28h3l-.56,4h-3.43v3.25Zm4.28-7.21h3.22l-.57,4h-3.22Z"/><path d="M530.46,398.56a5.12,5.12,0,0,0,1.94,2.19,5.34,5.34,0,0,0,2.85.77,6,6,0,0,0,1-.08l2.74,2.19,1.68-1.48-2.13-1.68a5.38,5.38,0,0,0,1.61-2.13,7.65,7.65,0,0,0,.58-3.12v-.57a7.77,7.77,0,0,0-.68-3.33,5.16,5.16,0,0,0-1.93-2.21,5.66,5.66,0,0,0-5.7,0,5.09,5.09,0,0,0-1.93,2.21,7.67,7.67,0,0,0-.68,3.34v.63A7.35,7.35,0,0,0,530.46,398.56Zm2-4a5.3,5.3,0,0,1,.74-3,2.34,2.34,0,0,1,2.05-1,2.37,2.37,0,0,1,2.06,1,5.44,5.44,0,0,1,.72,3.07v.63a5.44,5.44,0,0,1-.72,3,2.53,2.53,0,0,1-4.12,0,5.48,5.48,0,0,1-.73-3Z"/><polygon points="545.99 401.34 548.54 401.34 548.54 388.5 548.26 388.5 542.95 390.4 542.95 392.47 545.99 391.53 545.99 401.34"/><path d="M556.39,401.34h2.81l.88-2.64h4.63l.89,2.64h2.81l-4.8-12.82h-2.45Zm6-9.58,1.61,4.8h-3.21Z"/><path d="M569,401.34h2.54v-6.72a1.75,1.75,0,0,1,1.61-.91,1.58,1.58,0,0,1,1.17.36,1.65,1.65,0,0,1,.36,1.18v6.09h2.54v-6.15a4.1,4.1,0,0,0-.76-2.66,2.73,2.73,0,0,0-2.25-.89,3.32,3.32,0,0,0-2.74,1.27l-.08-1.1H569Z"/><path d="M583.11,395.52a5.55,5.55,0,0,0-3.24.82,2.7,2.7,0,0,0-1.13,2.33,2.61,2.61,0,0,0,.92,2,3.4,3.4,0,0,0,2.32.81,3.08,3.08,0,0,0,2.41-1,3,3,0,0,0,.25.85h2.58v-.15a4.39,4.39,0,0,1-.38-2.05V395a3.1,3.1,0,0,0-1-2.49,4.15,4.15,0,0,0-2.79-.88,5.21,5.21,0,0,0-2.1.4,3.48,3.48,0,0,0-1.45,1.1,2.56,2.56,0,0,0-.51,1.54h2.55a1,1,0,0,1,.37-.85,1.48,1.48,0,0,1,1-.31,1.3,1.3,0,0,1,1.07.4,1.55,1.55,0,0,1,.34,1.06v.54Zm1.17,3.13a1.57,1.57,0,0,1-.7.67,2.19,2.19,0,0,1-1,.25,1.34,1.34,0,0,1-.92-.3,1,1,0,0,1-.33-.79v-.15c.08-.88.76-1.32,2-1.32h.95Z"/><rect x="588.93" y="387.81" width="2.55" height="13.53"/><path d="M595.66,402.15a1.45,1.45,0,0,1-.56.74,2.11,2.11,0,0,1-1.07.22h-.39V405a4.06,4.06,0,0,0,1.13.16,2.89,2.89,0,0,0,2.81-1.86l.22-.51,3.83-11H598.9l-1.76,5.93-1.78-5.93h-2.73l3.33,9.56Z"/><path d="M603.13,398.82a2.43,2.43,0,0,0,2.73,2.7,5.39,5.39,0,0,0,1.55-.23v-1.93a4.22,4.22,0,0,1-.75.06,1.05,1.05,0,0,1-.78-.22,1.19,1.19,0,0,1-.2-.76v-4.76h1.63v-1.87h-1.63v-2.34h-2.55v2.34h-1.39v1.87h1.39Z"/><rect x="608.86" y="391.81" width="2.55" height="9.53"/><path d="M610.14,390.67a1.46,1.46,0,0,0,1-.37,1.27,1.27,0,0,0,.39-.95,1.28,1.28,0,0,0-.38-1,1.66,1.66,0,0,0-2.09,0,1.28,1.28,0,0,0-.38,1,1.27,1.27,0,0,0,.39.95A1.48,1.48,0,0,0,610.14,390.67Z"/><path d="M617.52,401.52a4.38,4.38,0,0,0,2-.45,3.41,3.41,0,0,0,1.43-1.25,3.22,3.22,0,0,0,.52-1.77h-2.38a1.37,1.37,0,0,1-.46,1,1.67,1.67,0,0,1-1.15.39,1.55,1.55,0,0,1-1.36-.65,3.78,3.78,0,0,1-.45-2.11v-.27a3.76,3.76,0,0,1,.45-2.1,1.71,1.71,0,0,1,2.51-.19,1.77,1.77,0,0,1,.46,1.21h2.38a3.61,3.61,0,0,0-1.09-2.71,4.59,4.59,0,0,0-6.08.3,5,5,0,0,0-1.18,3.51v.17a5.16,5.16,0,0,0,1.18,3.59A4.15,4.15,0,0,0,617.52,401.52Z"/><path d="M626.6,399.71a2,2,0,0,1-1.25-.36,1.31,1.31,0,0,1-.5-1h-2.42a2.72,2.72,0,0,0,.53,1.61,3.49,3.49,0,0,0,1.46,1.17,5,5,0,0,0,2.13.43,4.82,4.82,0,0,0,2.89-.81,2.49,2.49,0,0,0,1.12-2.11,2.64,2.64,0,0,0-2-2.56,11.42,11.42,0,0,0-1.61-.43,3.87,3.87,0,0,1-1.35-.45.77.77,0,0,1-.4-.68.94.94,0,0,1,.35-.74,1.57,1.57,0,0,1,1-.29,1.47,1.47,0,0,1,1.1.36,1.25,1.25,0,0,1,.35.9h2.55a2.68,2.68,0,0,0-1.09-2.22,4.55,4.55,0,0,0-2.9-.85,4.2,4.2,0,0,0-2.75.85,2.59,2.59,0,0,0-1.06,2.12c0,1.45,1.14,2.41,3.4,2.88a6,6,0,0,1,1.49.48.82.82,0,0,1,.46.74.9.9,0,0,1-.37.73A1.89,1.89,0,0,1,626.6,399.71Z"/><rect class="cls-5" x="638.28" y="567.36" width="168.98" height="20.31" rx="6.31"/><path class="cls-3" d="M870.78,597.15H644.58a6.32,6.32,0,0,0-6.3,6.31v7.7a6.32,6.32,0,0,0,6.3,6.31H858.19a124.43,124.43,0,0,1,8.61-18.85Z"/><path class="cls-3" d="M921.43,617.47h31.41a6.32,6.32,0,0,0,6.3-6.31v-7.7a6.32,6.32,0,0,0-6.3-6.31H915.65c.73,2.55,1.35,5.1,2,7.34C919,608.8,920.22,613.13,921.43,617.47Z"/><rect class="cls-5" x="638.28" y="678.87" width="112.85" height="20.31" rx="6.31"/><path class="cls-3" d="M951.41,759.89a7.76,7.76,0,0,0,7.73-7.74V716.41a7.76,7.76,0,0,0-7.73-7.74H927.63c-.1,23-.51,43.74-.67,51.22Z"/><path class="cls-3" d="M842,758.33c1.41-7.38,3.94-23.86,4.61-49.66H646a7.76,7.76,0,0,0-7.73,7.74v35.74a7.76,7.76,0,0,0,7.73,7.74H841.68c.05-.21.09-.42.14-.66A7.86,7.86,0,0,1,842,758.33Z"/><path class="cls-3" d="M959.14,513.93v-1.14H919.52c.54.37,1.07.75,1.6,1.14Z"/><path class="cls-3" d="M539.77,512.79v1.14H893.08a7.73,7.73,0,0,1,.45-1.14Z"/><rect x="989.55" y="416.5" width="1.2" height="1.14"/><rect x="466.89" y="416.5" width="519.25" height="1.14"/><rect x="989.55" y="372.6" width="1.2" height="1.14"/><rect x="466.89" y="372.6" width="519.25" height="1.14"/><rect x="660.25" y="380.82" width="1.14" height="28.24"/><path d="M507.58,474.27a5.1,5.1,0,0,0,2.77.76,5.91,5.91,0,0,0,1.15-.11l2.74,2.16,1.44-1.31-2.2-1.72a5.07,5.07,0,0,0,1.61-2.11,7.85,7.85,0,0,0,.58-3.16v-.72a7.88,7.88,0,0,0-.67-3.29,4.9,4.9,0,0,0-1.87-2.16,5.22,5.22,0,0,0-2.8-.76,5.08,5.08,0,0,0-2.77.77,5,5,0,0,0-1.87,2.19,7.75,7.75,0,0,0-.67,3.32v.72a7.58,7.58,0,0,0,.68,3.25A5,5,0,0,0,507.58,474.27Zm-.33-6.24a5.48,5.48,0,0,1,.83-3.19,2.63,2.63,0,0,1,2.25-1.14,2.67,2.67,0,0,1,2.29,1.12,5.58,5.58,0,0,1,.81,3.29v.67a5.69,5.69,0,0,1-.79,3.29,2.86,2.86,0,0,1-4.58,0,5.66,5.66,0,0,1-.81-3.25Z"/><polygon points="521.25 474.86 523.39 474.86 523.39 461.99 523.11 461.99 518.11 463.83 518.11 465.63 521.25 464.55 521.25 474.86"/><path d="M534.89,471.87h5l1,3h2.32L538.38,462h-2l-4.85,12.83h2.32Zm2.49-7.12,1.85,5.32h-3.71Z"/><path d="M546.17,468.07a2.05,2.05,0,0,1,1.93-1.17,1.65,1.65,0,0,1,1.28.44,2,2,0,0,1,.39,1.34v6.18h2.14v-6.3q-.06-3.4-3-3.41a3.44,3.44,0,0,0-2.78,1.28l-.06-1.1h-2v9.53h2.14Z"/><path d="M558.15,469a5.48,5.48,0,0,0-3.23.82,2.69,2.69,0,0,0-1.13,2.34,2.62,2.62,0,0,0,.9,2,3.61,3.61,0,0,0,4.85-.24,3.61,3.61,0,0,0,.24.89H562v-.15a4.91,4.91,0,0,1-.36-2.06v-4.29a3,3,0,0,0-1-2.37,4,4,0,0,0-2.67-.84,5,5,0,0,0-2,.39,3.42,3.42,0,0,0-1.41,1.07,2.33,2.33,0,0,0-.52,1.46h2.14a1.13,1.13,0,0,1,.47-.93,1.89,1.89,0,0,1,1.19-.36,1.65,1.65,0,0,1,1.26.44,1.68,1.68,0,0,1,.42,1.19V469Zm1.32,3.15a2.1,2.1,0,0,1-.84.83,2.51,2.51,0,0,1-1.2.3,1.58,1.58,0,0,1-1.09-.36,1.22,1.22,0,0,1-.41-1,1.33,1.33,0,0,1,.6-1.17,3.08,3.08,0,0,1,1.78-.42h1.16Z"/><rect x="563.99" y="461.33" width="2.14" height="13.53"/><path d="M570.81,474.81l-.31.81a1.86,1.86,0,0,1-.64,1,2.07,2.07,0,0,1-1.22.3l-.41,0v1.67a4.11,4.11,0,0,0,1,.16c1.39,0,2.38-.81,3-2.41l3.79-11h-2.28l-1.94,6.46-2-6.46h-2.3Z"/><path d="M577.78,472.31c0,1.81.82,2.72,2.47,2.72a5.1,5.1,0,0,0,1.41-.2v-1.66a3.33,3.33,0,0,1-.75.09,1,1,0,0,1-.77-.24,1.13,1.13,0,0,1-.22-.79v-5.32h1.68v-1.58h-1.68V463h-2.14v2.32h-1.57v1.58h1.57Z"/><rect x="583.37" y="465.33" width="2.14" height="9.53"/><path d="M584.45,464a1.22,1.22,0,0,0,.9-.32,1.23,1.23,0,0,0,0-1.63,1.21,1.21,0,0,0-2.11.82,1.17,1.17,0,0,0,.31.81A1.22,1.22,0,0,0,584.45,464Z"/><path d="M591.79,475a4.24,4.24,0,0,0,1.92-.45,3.64,3.64,0,0,0,1.41-1.22,3.13,3.13,0,0,0,.55-1.66h-2a1.59,1.59,0,0,1-.56,1.16,1.94,1.94,0,0,1-1.33.46,1.88,1.88,0,0,1-1.62-.76,3.93,3.93,0,0,1-.56-2.31v-.34a3.83,3.83,0,0,1,.58-2.29,1.88,1.88,0,0,1,1.6-.75,1.76,1.76,0,0,1,1.33.53,1.93,1.93,0,0,1,.56,1.34h2a3.54,3.54,0,0,0-1.12-2.6,3.93,3.93,0,0,0-2.77-1,4,4,0,0,0-3.17,1.31,5,5,0,0,0-1.17,3.48v.22a5.16,5.16,0,0,0,1.17,3.58A4.09,4.09,0,0,0,591.79,475Z"/><path d="M600.9,473.43a2.24,2.24,0,0,1-1.4-.41,1.51,1.51,0,0,1-.57-1.17h-2.08a2.79,2.79,0,0,0,.51,1.6,3.45,3.45,0,0,0,1.43,1.16,5,5,0,0,0,2.09.42,4.48,4.48,0,0,0,2.79-.8,2.47,2.47,0,0,0,1.06-2.08,2.35,2.35,0,0,0-.34-1.3,2.8,2.8,0,0,0-1.07-.92,7.59,7.59,0,0,0-2-.66,5.93,5.93,0,0,1-1.67-.55.87.87,0,0,1-.41-.77,1,1,0,0,1,.44-.87,1.89,1.89,0,0,1,1.15-.33,1.78,1.78,0,0,1,1.22.41,1.35,1.35,0,0,1,.45,1h2.14a2.7,2.7,0,0,0-1-2.2,4.29,4.29,0,0,0-2.76-.84,4.11,4.11,0,0,0-2.64.83,2.52,2.52,0,0,0-1,2.06,2.41,2.41,0,0,0,1.6,2.24,8.28,8.28,0,0,0,1.82.59,5.06,5.06,0,0,1,1.57.52,1,1,0,0,1,.47.88,1,1,0,0,1-.44.84A2.19,2.19,0,0,1,600.9,473.43Z"/><path class="cls-11" d="M989.55,372.6V346.49H463.47V696.24c-.09-.58-.17-1.17-.26-1.76-.77-5.05-1.56-10.14-2.39-15.21-.18-1.14-.37-2.27-.56-3.41-5.4-32.74-12-64.55-19.3-84.51-3.13-8.5-6.4-14.85-9.79-18.2L404,577.84c7.81-1.24,15.69-2.08,23.57-2.86.49-.05.55.71.11.84-10.78,3.15-21.73,5-33,4.58a.43.43,0,0,1-.11-.84c1.23-.26,2.46-.5,3.69-.73l-5.3.92s-25.8,51.56-25.8,78.38v39.19l-60.9,78a3,3,0,0,0-1.86,2.39l-.39.5.33.27c.06,2.09,1.36,3.69,3,5.06,1.31,1.09,2.84,2,4.14,2.94,2.2,2.19,4.8,4.1,6.51,5.51.47.39,1,.77,1.43,1.15a61.58,61.58,0,0,0,14.41,8.69l6.65,5.26L411,712.45l6.85,88.82,1.47-.08a.38.38,0,0,0,.17.35c5.29,3.51,12.84,3,18.87,2.46q3.45-.29,6.89-.73a65,65,0,0,0,14.65-3.45,3.41,3.41,0,0,0,1.41-1h.14l2-.11v49.12H829.21c0-1.14,0-2.27.09-3.42H466.89V349.9H986.14V844.39H916.92c0,1.15,0,2.29,0,3.42h72.61V372.6ZM348.47,778.73c-2.65-11.68-4.64-25.68-2-37.47.19-.81,1.3-.55,1.36.18.48,5.79-.05,11.7.16,17.52.23,6.5,1,12.94,1.88,19.37C350,779.25,348.69,779.69,348.47,778.73Zm33.44-68.62A11.94,11.94,0,0,1,368.64,703a.05.05,0,0,1,.09-.06,13.22,13.22,0,0,0,12.7,5.44C382.56,708.19,383.06,709.91,381.91,710.11Zm.32-4.15a17.6,17.6,0,0,1-13.1-7.49c-.1-.14.08-.29.21-.22a55.44,55.44,0,0,0,13.24,5.09A1.34,1.34,0,0,1,382.23,706Zm28.74-.15c0,.27-.47.39-.53.07-1.24-6.56-1.49-13.2-2.22-19.84s-1.74-13.11-2.17-19.72c-.91-13.82-3.87-27.54-4.15-41.38a.48.48,0,0,1,.94-.13c4.37,13.12,5.32,27.34,7.19,41C411.78,678.58,412.49,693,411,705.81Zm34.95,44.37a27.53,27.53,0,0,1-14.42-13,.48.48,0,0,1,.83-.49,31.93,31.93,0,0,0,14.33,10.86C448.28,748.16,447.61,750.81,445.92,750.18Z"/><path class="cls-15" d="M656,632.92a.73.73,0,0,0,.63-.29,1.21,1.21,0,0,0,.23-.78,1.16,1.16,0,0,0-.23-.77.74.74,0,0,0-.62-.3,1,1,0,0,0-.56.18,1,1,0,0,0-.36.46v.22a1.55,1.55,0,0,0,.26.93A.77.77,0,0,0,656,632.92Z"/><path class="cls-15" d="M641.08,637.11h18.79a1.28,1.28,0,0,0,1.28-1.27V626a1.28,1.28,0,0,0-1.28-1.28H641.08A1.28,1.28,0,0,0,639.8,626v9.81A1.28,1.28,0,0,0,641.08,637.11Zm13.41-5.77a3.06,3.06,0,0,1,.55-2,2,2,0,0,1,1.64-.7h.1v.51h-.11a1.54,1.54,0,0,0-1.1.41,1.71,1.71,0,0,0-.48,1.12,1.3,1.3,0,0,1,1-.43,1.25,1.25,0,0,1,1,.43,1.69,1.69,0,0,1,.36,1.12,1.65,1.65,0,0,1-.39,1.15,1.45,1.45,0,0,1-2.15-.08,2.09,2.09,0,0,1-.41-1.33Zm-12.16-1.09,1.79.12a5.05,5.05,0,0,0,1.67-2.34c.15-.55-.25-1.22-.22-1.77s.79-.77,1.54-.17.37,2.54.37,3.09,1.08.64,1.08.64H650s.75,0,.93.55-.56,1-.56,1h0a.86.86,0,0,1,.51.9.81.81,0,0,1-.49.66h0s.35.07.35.69-.85.73-.85.73l0,0H650l0,0a.62.62,0,0,1,.23.57c-.32,1.3-2.62.46-2.62.46a4.56,4.56,0,0,1-2.86-1l-1.8.34s-.84-.15-1.19-1.74A3.88,3.88,0,0,1,642.33,630.25Z"/><path class="cls-16" d="M641.08,637.33h18.79a1.49,1.49,0,0,0,1.49-1.49V626a1.5,1.5,0,0,0-1.49-1.5H641.08a1.5,1.5,0,0,0-1.49,1.5v9.81A1.49,1.49,0,0,0,641.08,637.33ZM639.8,626a1.28,1.28,0,0,1,1.28-1.28h18.79a1.28,1.28,0,0,1,1.28,1.28v9.81a1.28,1.28,0,0,1-1.28,1.27H641.08a1.28,1.28,0,0,1-1.28-1.27Z"/><path class="cls-17" d="M642.87,634.9l1.8-.34a4.56,4.56,0,0,0,2.86,1s2.3.84,2.62-.46a.62.62,0,0,0-.23-.57,2.21,2.21,0,0,1-.73.11c-.66,0-1.43-.28-1.67.13s.2.79.2.79-.34,0-.4-.47a.8.8,0,0,1,.24-.69.86.86,0,0,1-.41-.8h0a2.74,2.74,0,0,1-1,.27,2.59,2.59,0,0,0,1.13-.77l.11-.13c-.34-.19-.32-.48-.27-.89s.37-.4.37-.4l-.31-.14c-.32-.14-.32-.77-.18-1.2s.51-.49.91-.48a6.09,6.09,0,0,1,.76.09h-.94c-.52,0-1.16,1.21-.31,1.53a8.48,8.48,0,0,0,2.91,0h0s.73-.49.56-1-.93-.55-.93-.55h-1.39s-1.08-.1-1.08-.64.38-2.49-.37-3.09-1.52-.38-1.54.17.37,1.22.22,1.77a5.05,5.05,0,0,1-1.67,2.34l-1.79-.12a3.88,3.88,0,0,0-.65,2.91C642,634.75,642.87,634.9,642.87,634.9Z"/><path class="cls-17" d="M648,631.66c-.59,0-.75.2-.79.45a.81.81,0,0,0,.25.75,19.77,19.77,0,0,0,2.91.09v0a.81.81,0,0,0,.49-.66.86.86,0,0,0-.51-.9l.11.08Z"/><path class="cls-17" d="M647.9,633a.74.74,0,0,0-.51.33l0,.07a.6.6,0,0,0-.08.21.85.85,0,0,0,.52.81,12.38,12.38,0,0,0,2.11.06l0,0s.85-.11.85-.73-.35-.69-.35-.69h0C650.09,633,648.14,633,647.9,633Z"/><path class="cls-18" d="M647.45,631.43c-.85-.32-.21-1.55.31-1.53h.94a6.09,6.09,0,0,0-.76-.09c-.4,0-.76,0-.91.48s-.14,1.06.18,1.2l.31.14s-.33,0-.37.4-.07.7.27.89l-.11.13a2.59,2.59,0,0,1-1.13.77,2.74,2.74,0,0,0,1-.27h0a.86.86,0,0,0,.41.8.8.8,0,0,0-.24.69c.06.45.4.47.4.47s-.43-.39-.2-.79,1-.11,1.67-.13a2.21,2.21,0,0,0,.73-.11l0,0h-.06a12.38,12.38,0,0,1-2.11-.06.85.85,0,0,1-.52-.81.6.6,0,0,1,.08-.21l0-.07a.74.74,0,0,1,.51-.33c.24,0,2.19,0,2.45,0h0v0a19.77,19.77,0,0,1-2.91-.09.81.81,0,0,1-.25-.75c0-.25.2-.43.79-.45l2.46-.14-.11-.08h0A8.48,8.48,0,0,1,647.45,631.43Z"/><path class="cls-19" d="M656,633.42a1.37,1.37,0,0,0,1.06-.44,1.65,1.65,0,0,0,.39-1.15,1.69,1.69,0,0,0-.36-1.12,1.25,1.25,0,0,0-1-.43,1.3,1.3,0,0,0-1,.43,1.71,1.71,0,0,1,.48-1.12,1.54,1.54,0,0,1,1.1-.41h.11v-.51h-.1a2,2,0,0,0-1.64.7,3.06,3.06,0,0,0-.55,2v.23a2.09,2.09,0,0,0,.41,1.33A1.36,1.36,0,0,0,656,633.42Zm-.91-2a1,1,0,0,1,.36-.46,1,1,0,0,1,.56-.18.74.74,0,0,1,.62.3,1.16,1.16,0,0,1,.23.77,1.21,1.21,0,0,1-.23.78.73.73,0,0,1-.63.29.77.77,0,0,1-.65-.35,1.55,1.55,0,0,1-.26-.93Z"/><path class="cls-2" d="M562,710.06c-.11-.19-.22-.39-.32-.6a2.14,2.14,0,0,0,.31.59Z"/><path class="cls-2" d="M593.43,674.62H550.89a9.81,9.81,0,0,0-9.81,9.8v44.06a9.82,9.82,0,0,0,9.81,9.81H553c.17-7.86,2.61-15.89,9.38-19.25a8.29,8.29,0,0,1,3.59-.83l2.17,0v-3.07a11,11,0,0,1-1.61-.7l0,0c-.4.73-.56.73-1.46.73s-1.7-1.38-2.51-1.78a1.89,1.89,0,0,1-1-1.22s-1.3,1.3-2.59.81-1.3-.4-1.3-1.86-.25-2-.82-2-1.54.81-2.27.4.73-2.59,0-3.57-1.84,2.18-2.93,2.29-1.42-.33-1.42-.33,1.41-.27,1.09-1.36-1.14-.71-1.09-1.42a10,10,0,0,0,0-2.79c-.22-.87-1.91-1-1.91-1s1-.32.38-1.52-.6-2.26-1.69-2.34-1.09-.67-1.09-.67,1.09-.27,1-1.09.17-1.42-.71-1.53-.71.87-1.63.87a1.42,1.42,0,0,1-1.26-.92s.71.82.71-.49,2-1.37,2.4-2.63,1.91-3.71,2.79-4,.43-.61-.33-.63-.55.52-1.58.52a2.41,2.41,0,0,1-1.59-.52s2,.14,2.13-.3,2.83-1.69,3.44-2.62,4-1.74,5-2.29a14.64,14.64,0,0,1,8.19-.93,63.09,63.09,0,0,1,7.64,2,16,16,0,0,1,8.25-2.18c4.58.16,5-.5,6.77,0a14.25,14.25,0,0,1,4.48,2.57c.92.71,1.64,2.4,3.16,2.78s2.57.88,3,2.19,1.53,1.42.82,3.38-1.14,1.92-.71,2.57,1.06.55.94,1.75S598,698,597.21,698s-2.57.16-2.57.82,1.31.65,1.42,1.75.38,2.56-.27,2.45-1.42-.93-1.42.22a7.47,7.47,0,0,1-.71,2.62s-2.62,2.08-3.55,2.13-1.31.06-1.42,1.31-.49,2.24-.93,2.35-.93,1-.93,1-.22-1.69-.93-1-.11,1.26-1.58,1.26-1.31-.71-2.35,0-.93.87-1.58.71l-.51-.21a11,11,0,0,1-2.45,1.46v3.26l2.2,0c8.58,0,11.79,11.44,12,20.21h1.81a9.82,9.82,0,0,0,9.81-9.81V684.42A9.81,9.81,0,0,0,593.43,674.62Zm-13.31,38.9.2.05Z"/><path class="cls-11" d="M593.43,672.12H550.89a12.32,12.32,0,0,0-12.3,12.3v44.06a12.32,12.32,0,0,0,12.3,12.3h42.54a12.32,12.32,0,0,0,12.3-12.3V684.42A12.32,12.32,0,0,0,593.43,672.12Zm9.81,56.36a9.82,9.82,0,0,1-9.81,9.81h-1.81c-.2-8.77-3.41-20.21-12-20.21l-2.2,0v3.57l-4.14,3.75-5.19-3.84v-3.39l-2.17,0a8.29,8.29,0,0,0-3.59.83c-6.77,3.36-9.21,11.39-9.38,19.25h-2.07a9.82,9.82,0,0,1-9.81-9.81V684.42a9.81,9.81,0,0,1,9.81-9.8h42.54a9.81,9.81,0,0,1,9.81,9.8Z"/><path class="cls-20" d="M579.88,713.38h0s3.66-4.42,3.66-9.12-1.26-6.21-1.92-6.75a23.15,23.15,0,0,1-2.25-3.93,13.16,13.16,0,0,1-.5-3.25,4,4,0,0,0-2.7-3.44c-1.2-.32-1.59-.92-2.35-.65s-.53,0-.53,0a1.19,1.19,0,0,0-1.53.13s-2.73,1.87-2.81,3.9.32,1.21-.65,2.92-.33,2.43-1.46,2.92-1,2.35-1,2.35a2.56,2.56,0,0,1-.56-2.19c.16-1.54,1-.48,1.21-1.7a4.58,4.58,0,0,1,.49-2.15c.49-1,1.06-2.56,1.06-2.56s-2.32,3.81-2.79,4.63-4.35,3.57-4.35,5.76a25.84,25.84,0,0,0,0,4.31,24.91,24.91,0,0,0,.83,4.91c.1.21.21.41.32.6.66.82,3,3.28,3,3.28s1.85.36,1.51,1.08a11,11,0,0,0,1.61.7v6.46l5.19,3.84,4.14-3.75v-6.83A11,11,0,0,0,579.88,713.38Z"/><path class="cls-8" d="M580.32,713.57l-.2-.05Z"/><path class="cls-8" d="M565,713.34s-2.29-2.46-3-3.28h0a2.14,2.14,0,0,1-.31-.59,24.91,24.91,0,0,1-.83-4.91,25.84,25.84,0,0,1,0-4.31c0-2.19,3.89-5,4.35-5.76s2.79-4.63,2.79-4.63-.57,1.54-1.06,2.56a4.58,4.58,0,0,0-.49,2.15c-.16,1.22-1.05.16-1.21,1.7a2.56,2.56,0,0,0,.56,2.19s-.16-1.86,1-2.35.49-1.22,1.46-2.92.57-.89.65-2.92,2.81-3.9,2.81-3.9a1.19,1.19,0,0,1,1.53-.13s-.23.27.53,0,1.15.33,2.35.65a4,4,0,0,1,2.7,3.44,13.16,13.16,0,0,0,.5,3.25,23.15,23.15,0,0,0,2.25,3.93c.66.54,1.92,2,1.92,6.75s-3.66,9.12-3.66,9.12h0l.51.21c.65.16.54,0,1.58-.71s.87,0,2.35,0,.87-.55,1.58-1.26.93,1,.93,1,.49-.87.93-1,.82-1.09.93-2.35.49-1.25,1.42-1.31,3.55-2.13,3.55-2.13a7.47,7.47,0,0,0,.71-2.62c0-1.15.76-.33,1.42-.22s.38-1.36.27-2.45-1.42-1.1-1.42-1.75,1.8-.82,2.57-.82,1.47-1.53,1.59-2.73-.5-1.09-.94-1.75,0-.6.71-2.57-.44-2.07-.82-3.38-1.42-1.8-3-2.19-2.24-2.07-3.16-2.78a14.25,14.25,0,0,0-4.48-2.57c-1.8-.49-2.19.17-6.77,0a16,16,0,0,0-8.25,2.18,63.09,63.09,0,0,0-7.64-2,14.64,14.64,0,0,0-8.19.93c-1,.55-4.43,1.37-5,2.29s-3.27,2.19-3.44,2.62-2.13.3-2.13.3a2.41,2.41,0,0,0,1.59.52c1,0,.82-.54,1.58-.52s1.2.31.33.63-2.35,2.79-2.79,4-2.4,1.31-2.4,2.63-.71.49-.71.49a1.42,1.42,0,0,0,1.26.92c.92,0,.76-1,1.63-.87s.66.71.71,1.53-1,1.09-1,1.09,0,.6,1.09.67,1,1.13,1.69,2.34-.38,1.52-.38,1.52,1.69.17,1.91,1a10,10,0,0,1,0,2.79c-.05.71.76.32,1.09,1.42s-1.09,1.36-1.09,1.36.33.44,1.42.33,2.2-3.26,2.93-2.29-.73,3.17,0,3.57,1.71-.4,2.27-.4.82.48.82,2,0,1.38,1.3,1.86,2.59-.81,2.59-.81a1.89,1.89,0,0,0,1,1.22c.81.4,1.62,1.78,2.51,1.78s1.06,0,1.46-.73l0,0C566.83,713.7,565,713.34,565,713.34Z"/><path class="cls-2" d="M566.55,601.26v4h0v-4Z"/><path class="cls-2" d="M550.86,625.34a28.47,28.47,0,0,1,2.08-10.46,5.9,5.9,0,0,1-1.48-1.67c-1.79-3.14,0-2.84.9-6.58s.3-4.3.3-4.3a17,17,0,0,1-1.8-6.47c0-3-.15-4.19,1.95-8.08s.89-5.53,2.3-9.87,2.48-5.68,6.67-9.25,10.43-1.5,10.43-1.5a40.16,40.16,0,0,0,4.25-.68c2.1-.46,5.29,1.81,7.38,4.41s4.62,8.14,4.62,11.83-1,7.64.17,10.66c1,2.51.44,10-.44,14.86,4,4,5.69,11,5.88,16.86a9.82,9.82,0,0,0,7.66-9.57V571.47a9.82,9.82,0,0,0-9.8-9.81H549.39a9.82,9.82,0,0,0-9.81,9.81v44.06a9.82,9.82,0,0,0,9.81,9.81Z"/><path class="cls-6" d="M587.62,610.79c-1.15,4.08-11.28-1.8-11.72-2l-4.11,3.73-5.2-3.84v-3.39h0v1.38c0,6-.88,9.43-3.42,10.63a5.08,5.08,0,0,1-4.56,0,14.35,14.35,0,0,1-5.63-2.37,28.47,28.47,0,0,0-2.08,10.46h41.07a10.1,10.1,0,0,0,2.14-.24c-.19-5.89-1.89-12.9-5.88-16.86C588,609.22,587.82,610.09,587.62,610.79Z"/><path class="cls-11" d="M591.93,627.83a12.32,12.32,0,0,0,12.3-12.3V571.47a12.32,12.32,0,0,0-12.3-12.3H549.39a12.31,12.31,0,0,0-12.3,12.3v44.06a12.31,12.31,0,0,0,12.3,12.3Zm-52.35-12.3V571.47a9.82,9.82,0,0,1,9.81-9.81h42.54a9.82,9.82,0,0,1,9.8,9.81v44.06a9.82,9.82,0,0,1-7.66,9.57,10.1,10.1,0,0,1-2.14.24H549.39A9.82,9.82,0,0,1,539.58,615.53Z"/><path class="cls-21" d="M575.89,601.43a11.23,11.23,0,0,0,7.37-10.51v-9.3a11.22,11.22,0,0,0-11.19-11.2h-.42l-3.71,5.07c-1.71,2.34-5.94,3.43-5.94,7,0,.39,0,.75,0,1.09a1.46,1.46,0,0,1,.91-.32h6.19a1.47,1.47,0,0,1,1.47,1.47v0l-.17,1.1h2.49c-.11-.62-.17-1.06-.17-1.1v0a1.47,1.47,0,0,1,1.47-1.47h6.19a1.47,1.47,0,0,1,1.47,1.47v0s-.26,2-.64,3.51a2.35,2.35,0,0,1-2.29,1.78h-3.42a2.13,2.13,0,0,1-2.07-1.61c-.16-.63-.3-1.33-.42-2h-2.69c-.14.82-.33,1.79-.54,2.63a1.85,1.85,0,0,1-1.79,1.38h-3.73a2.1,2.1,0,0,1-2-1.61c-.27-1.13-.5-2.46-.63-3.3a5.39,5.39,0,0,1-1.91,2.67v2.65a11.23,11.23,0,0,0,6.94,10.34l0,0v7.35l5.2,3.84,4.11-3.73h0Z"/><path class="cls-22" d="M563.13,617.25c2.54-1.2,3.42-4.66,3.42-10.63v-5.36a11.23,11.23,0,0,1-6.94-10.34v-2.65a5.39,5.39,0,0,0,1.91-2.67c-.08-.49-.12-.81-.12-.82v0a1.45,1.45,0,0,1,.55-1.15c0-.34,0-.7,0-1.09,0-3.58,4.23-4.67,5.94-7l3.71-5.07h.42a11.22,11.22,0,0,1,11.19,11.2v9.3a11.23,11.23,0,0,1-7.37,10.51v7.3h0c.44.25,10.57,6.13,11.72,2,.2-.7.39-1.57.57-2.55.88-4.85,1.41-12.35.44-14.86-1.18-3-.17-7-.17-10.66s-2.52-9.23-4.62-11.83-5.28-4.87-7.38-4.41a40.16,40.16,0,0,1-4.25.68s-6.24-2.08-10.43,1.5-5.26,4.91-6.67,9.25-.21,6-2.3,9.87-1.95,5.09-1.95,8.08a17,17,0,0,0,1.8,6.47s.6.56-.3,4.3-2.69,3.44-.9,6.58a5.9,5.9,0,0,0,1.48,1.67,14.35,14.35,0,0,0,5.63,2.37A5.08,5.08,0,0,0,563.13,617.25Z"/><path class="cls-21" d="M575.43,589.45h3.42a1.72,1.72,0,0,0,1.68-1.31c.35-1.42.6-3.2.63-3.42a.84.84,0,0,0-.84-.83h-6.19a.84.84,0,0,0-.84.83c0,.22.3,2.13.67,3.59A1.53,1.53,0,0,0,575.43,589.45Z"/><path class="cls-21" d="M564.19,589.89h3.73a1.22,1.22,0,0,0,1.18-.92c.44-1.69.76-4,.8-4.25a.85.85,0,0,0-.85-.83h-6.19a.84.84,0,0,0-.84.83c0,.24.33,2.37.74,4A1.47,1.47,0,0,0,564.19,589.89Z"/><path class="cls-11" d="M564.19,590.51h3.73a1.85,1.85,0,0,0,1.79-1.38c.21-.84.4-1.81.54-2.63h2.69c.12.63.26,1.33.42,2a2.13,2.13,0,0,0,2.07,1.61h3.42a2.35,2.35,0,0,0,2.29-1.78c.38-1.55.64-3.49.64-3.51v0a1.47,1.47,0,0,0-1.47-1.47h-6.19a1.47,1.47,0,0,0-1.47,1.47v0s.06.48.17,1.1h-2.49l.17-1.1v0a1.47,1.47,0,0,0-1.47-1.47h-6.19a1.46,1.46,0,0,0-1.46,1.47v0s0,.33.12.82c.13.84.36,2.17.63,3.3A2.1,2.1,0,0,0,564.19,590.51Zm9.94-6.62h6.19a.84.84,0,0,1,.84.83c0,.22-.28,2-.63,3.42a1.72,1.72,0,0,1-1.68,1.31h-3.42a1.53,1.53,0,0,1-1.47-1.14c-.37-1.46-.64-3.37-.67-3.59A.84.84,0,0,1,574.13,583.89Zm-11.27,0h6.19a.85.85,0,0,1,.85.83c0,.25-.36,2.56-.8,4.25a1.22,1.22,0,0,1-1.18.92h-3.73a1.47,1.47,0,0,1-1.43-1.14c-.41-1.66-.71-3.79-.74-4A.84.84,0,0,1,562.86,583.89Z"/><path class="cls-3" d="M843.35,1017.82c-2,.94-4.86,2.3-8.31,3.82,1.19.35,2.29.87,3.47,1.32a26.55,26.55,0,0,1,5,2.2c4.13,2.66.55,8.5-3.79,6.49a16.86,16.86,0,0,1-7.74-8.37,1.51,1.51,0,0,1-.05-.28c-1.79.76-3.67,1.54-5.6,2.31a9.83,9.83,0,0,1,1.79,1c1.93,1.44,3.94,3.54,2.7,6.09a2.57,2.57,0,0,1-2.21,1.27c-2.06.11-3.05-1.84-4.17-3.21a26,26,0,0,0-3.05-3.25l0,0c-1,.36-1.94.7-2.91,1,.52.37,1,.78,1.49,1.19,1.38,1.22,3,2.68,3.5,4.49a1.51,1.51,0,0,1-1.84,1.84c-1.58-.52-2.83-1.71-4.28-2.5s-3.17-1.44-4.61-2.39a2.51,2.51,0,0,1-.65-.6l-1.71.47c-1.05.27-2,.56-3,.86,1.63.84,2.76,3.28,3.49,4.7a23.94,23.94,0,0,1,2.24,8.18c6.18-.47,12.39-.65,18.55-.93,11.54-.54,23-.79,34.55-.36a1.07,1.07,0,0,1,0,2.13c-11.14,1.05-22.26,1.58-33.43,2s-22.33,1.26-33.42.3c-.72-.06-1-1.21-.18-1.36,3.14-.59,6.31-1,9.5-1.34a28,28,0,0,0-1.53-7.47c-.52-1.56-2-3.39-1.76-5.09-11.38,4.31-13,10.75-13.95,16.45-1.07,6.44,60.2,1.36,67.65,1.88,12.11.86,11.51-5.94,12-9.32s-2.4-24.83-2.4-24.83H866A71.91,71.91,0,0,1,843.35,1017.82Zm14.73,21.68a14.78,14.78,0,0,1,8.65-11.65c.16-.07.35.13.2.25a15.84,15.84,0,0,0-6.12,11.77C860.75,1041.87,857.79,1041.5,858.08,1039.5Z"/><path class="cls-3" d="M915.56,1011.79c-1.3,1.66-3,3.79-4.82,6a7.78,7.78,0,0,1,4.1,2.05c1.67,1.6-.09,4.13-2.14,3.68a22,22,0,0,0-4.72-.07,2.48,2.48,0,0,1-1.61-.56l-.54.6a10.52,10.52,0,0,1,7.27,5.15,1.29,1.29,0,0,1-1.75,1.75,24.9,24.9,0,0,0-8.09-2.22,2,2,0,0,1-1.29-.68,28.72,28.72,0,0,1-2.88,2.45l-.65.44a10.71,10.71,0,0,1,8,3.89,1.35,1.35,0,0,1-1.3,2.23c-2.57-.48-5.16-.92-7.77-1.22a2.56,2.56,0,0,1-2.34-2.89c-1.52.84-3.18,1.69-4.88,2.57a14.33,14.33,0,0,1,8,6.39,1.87,1.87,0,0,1-.38,2.46c17.42-4.15,32.63-15.12,49.79-20.38l-.09-.17a16.33,16.33,0,0,1,2.77-16.46c.36-.44,1,.13.76.58a15.69,15.69,0,0,0-.41,14.56,1.62,1.62,0,0,1-.76,2.33.6.6,0,0,1-.26.2c-20,9.39-39.16,23.63-62.27,22.18a.64.64,0,0,1,0-1.28,57.93,57.93,0,0,0,8.08-1,1.73,1.73,0,0,1-.83-.89,15.9,15.9,0,0,0-5.68-6.81,1,1,0,0,1-.45-.77c-6,3.12-11.77,6.42-11.93,9.55-.28,5.23,19.24,4.76,27,4.76s23.94-11.18,35-14.77,18.44-4.87,17.72-11.85c-.52-5-4.67-16.51-7-22.6a2.22,2.22,0,0,1-.68.55C939.63,1006,926.38,1014.48,915.56,1011.79Z"/><path class="cls-6" d="M868.27,800.07a1.78,1.78,0,0,0-1.18,0c-3.27,1.24-3.41,3-2.64,4.68L871,806C869.84,803.34,868.85,801.26,868.27,800.07Z"/><path class="cls-6" d="M871.48,870.13C874,854.82,877.26,840,881.22,825c.74-2.8,1.51-5.59,2.29-8.37a13.71,13.71,0,0,1-1.08,1.61c-1.36,1.71-2.52,2.1-3.56,1.62-.85,1.21-2.29.48-4.22-4.8-.52-1.42-1.06-2.8-1.59-4.14l-8.25-1.16-.36-.05h0c-3.66-.57-9.57-3.66-8.21-10.72,2-10.51,11.59-14.32,11.59-14.32l2.63-21.79H867a3.34,3.34,0,0,1-1.44,1c-5.89,2-13,1.93-19.1.94a5.8,5.8,0,0,1-3.76-1.92h-.52c-8.61,27.34-12,55.65-12.87,81.55,0,1.15-.06,2.28-.09,3.42-.2,7.73-.19,15.25,0,22.43.84,35.2,1.95,123.6,2.18,141.61a3.42,3.42,0,0,0,0,1.62c0,1,0,1.62,0,1.62h1a2.67,2.67,0,0,0,.92.47,47.35,47.35,0,0,0,10,2.26A71.91,71.91,0,0,0,866,1016.5c1.16-.24,2.3-.49,3.43-.76a2.72,2.72,0,0,0,1.23-.65h1l0-114.32a2.37,2.37,0,0,1-2.9,1.82,21.28,21.28,0,0,1-9.15-3.37c-.4-.27-.29-1,.27-1a35.67,35.67,0,0,0,8.88-.38,2.3,2.3,0,0,1,2.9,1.76v-28A2.29,2.29,0,0,1,871.48,870.13Zm-7.7,134.07c-8.87,2.41-20.31,4.25-29.28,1.7a.59.59,0,0,1,0-1.13c4.09-.93,8.34-1,12.51-1.47a149.68,149.68,0,0,0,15.69-3C865.24,999.73,866.31,1003.52,863.78,1004.2Zm-4.25-93.75a33.44,33.44,0,0,1,5.82-.47,1.81,1.81,0,0,1,0,3.62,33.44,33.44,0,0,1-5.82-.47A1.4,1.4,0,0,1,859.53,910.45Z"/><path class="cls-6" d="M920.34,762.84H887.46l-5,29.11s3.65,8.38,3.25,16.6l.13,0q.93-3.17,1.88-6.33c1.91-6.4,3.76-13.73,7.87-19.11a1,1,0,0,1,1.88.51c.77,7.1-1.63,14.7-3.31,21.54-.38,1.55-.77,3.1-1.15,4.65l14.19,2.51,3.32,1.78-3.32,1.58-15.12-2.13c-1.11,4.48-2.24,9-3.42,13.43-4,15-8.18,29.59-13.13,44.22a2,2,0,0,1-3.25,1l39.61,139.62,1.86-.62a17,17,0,0,0,1.84.57c10.82,2.69,24.07-5.8,33.05-10.27a2.22,2.22,0,0,0,.68-.55,2.67,2.67,0,0,0-.26-3.45c-3.54-13.57-26-99.79-29.37-115.18-1.77-8.17-2.55-20.56-2.72-34.53,0-1.13,0-2.27,0-3.42C916.77,815.54,919,781,920.34,762.84ZM940,995.19c-7.25,3.51-16.08,6.57-24.15,7.15a1.34,1.34,0,0,1-1.28-1,2.59,2.59,0,0,1,.32-2.44.49.49,0,0,1,.88.11c.06.26,21.06-6.88,22.75-7.35C940.53,991.1,941.93,994.23,940,995.19Zm-18.45-96.9a28.78,28.78,0,0,1-3.78,3,38.83,38.83,0,0,1-4.25,2.07c-2.07,1-4.5-1.64-2.58-3.35,1.16-1,2.29-2.19,3.53-3.13a22.83,22.83,0,0,1,4.17-2.36C920.92,893.42,923.65,896.37,921.5,898.29Zm-2.09-11a2.64,2.64,0,0,1-.92,3.5,7.41,7.41,0,0,1-3.91,1.21,5.44,5.44,0,0,1-3.51-.89,1.34,1.34,0,0,1,0-2.3c1.64-.78,3.23-1.57,4.83-2.44A2.61,2.61,0,0,1,919.41,887.3Z"/><path class="cls-5" d="M912.7,1023.53c2,.45,3.81-2.08,2.14-3.68a7.78,7.78,0,0,0-4.1-2.05,5.55,5.55,0,0,0-4.06.88,2.7,2.7,0,0,0-.31,4.22,2.48,2.48,0,0,0,1.61.56A22,22,0,0,1,912.7,1023.53Z"/><path class="cls-5" d="M911.35,1030.4a1.29,1.29,0,0,0,1.75-1.75,10.52,10.52,0,0,0-7.27-5.15,10,10,0,0,0-1.91-.14,2.68,2.68,0,0,0-1.95,4.14,2,2,0,0,0,1.29.68A24.9,24.9,0,0,1,911.35,1030.4Z"/><path class="cls-5" d="M897.38,1035.29c2.61.3,5.2.74,7.77,1.22a1.35,1.35,0,0,0,1.3-2.23,10.71,10.71,0,0,0-8-3.89c-.35,0-.7,0-1.06,0a2.3,2.3,0,0,0-2.34,2A2.56,2.56,0,0,0,897.38,1035.29Z"/><path class="cls-5" d="M888.87,1036.65a15.9,15.9,0,0,1,5.68,6.81,1.73,1.73,0,0,0,.83.89,57.93,57.93,0,0,1-8.08,1,.64.64,0,0,0,0,1.28c23.11,1.45,42.31-12.79,62.27-22.18a.6.6,0,0,0,.26-.2,1.62,1.62,0,0,0,.76-2.33,15.69,15.69,0,0,1,.41-14.56c.25-.45-.4-1-.76-.58a16.33,16.33,0,0,0-2.77,16.46l.09.17c-17.16,5.26-32.37,16.23-49.79,20.38a1.87,1.87,0,0,0,.38-2.46,14.33,14.33,0,0,0-8-6.39l-.51-.17a1,1,0,0,0-.78,1.85Z"/><path class="cls-5" d="M839.72,1031.65c4.34,2,7.92-3.83,3.79-6.49a26.55,26.55,0,0,0-5-2.2c-1.18-.45-2.28-1-3.47-1.32a10.16,10.16,0,0,0-1.15-.26c-1-.16-2.12.55-2,1.62a1.51,1.51,0,0,0,.05.28A16.86,16.86,0,0,0,839.72,1031.65Z"/><path class="cls-5" d="M824.44,1030.49c1.12,1.37,2.11,3.32,4.17,3.21a2.57,2.57,0,0,0,2.21-1.27c1.24-2.55-.77-4.65-2.7-6.09a9.83,9.83,0,0,0-1.79-1,11.83,11.83,0,0,0-3.27-.92,1.79,1.79,0,0,0-1.93.78,1.72,1.72,0,0,0,.24,2l0,0A26,26,0,0,1,824.44,1030.49Z"/><path class="cls-5" d="M812.72,1030.88c1.44.95,3.09,1.56,4.61,2.39s2.7,2,4.28,2.5a1.51,1.51,0,0,0,1.84-1.84c-.5-1.81-2.12-3.27-3.5-4.49-.47-.41-1-.82-1.49-1.19a10.48,10.48,0,0,0-3.85-1.85,2.46,2.46,0,0,0-2.54,3.88A2.51,2.51,0,0,0,812.72,1030.88Z"/><path class="cls-5" d="M860.81,1039.87a15.84,15.84,0,0,1,6.12-11.77c.15-.12,0-.32-.2-.25a14.78,14.78,0,0,0-8.65,11.65C857.79,1041.5,860.75,1041.87,860.81,1039.87Z"/><path class="cls-5" d="M807.17,1037.41a28,28,0,0,1,1.53,7.47c-3.19.33-6.36.75-9.5,1.34-.82.15-.54,1.3.18,1.36,11.09,1,22.31.06,33.42-.3s22.29-.9,33.43-2a1.07,1.07,0,0,0,0-2.13c-11.55-.43-23-.18-34.55.36-6.16.28-12.37.46-18.55.93a23.94,23.94,0,0,0-2.24-8.18c-.73-1.42-1.86-3.86-3.49-4.7a2.59,2.59,0,0,0-1.23-.29.73.73,0,0,0-.67.51,2.65,2.65,0,0,0-.09.49C805.18,1034,806.65,1035.85,807.17,1037.41Z"/><path class="cls-11" d="M915.43,539.15c.32,2.23-1.34,5.36-3.17,8a7.67,7.67,0,0,1,1.08.23l.19.06.47.17c5.56,2,7.53,10,4.38,15.08-2.41,3.87-8.12,7.09-13,6.6V578s27.13-8.54,31.61-17.39c8.57-9.63,6.44-26.48-2.93-35.48-.27-.26-.59-.56-.94-.87a4,4,0,0,0-.7-.83c-3.21-2.82-7.07-6.44-11.28-9.53-.53-.39-1.06-.77-1.6-1.14-7.36-5.06-15.61-8.09-23.15-2.36a4,4,0,0,0-2.84,2.36,7.73,7.73,0,0,0-.45,1.14,22.07,22.07,0,0,0-.34,8.28l.53-.56S914.76,534.49,915.43,539.15Z"/><path class="cls-23" d="M890.32,587a27.52,27.52,0,0,1,9.49-2.77,1.52,1.52,0,0,1,1.25.39,15.59,15.59,0,0,1,4.3-.63V569.32c4.9.49,10.61-2.73,13-6.6,3.15-5.05,1.18-13.06-4.38-15.08l-.47-.17-.19-.06a7.67,7.67,0,0,0-1.08-.23c1.83-2.67,3.49-5.8,3.17-8-.67-4.66-22.16-17.5-22.16-17.5l-.53.56a119.44,119.44,0,0,1-12.28,11.24,23.28,23.28,0,0,1-6.1,1.3c-1.76.08-3.51-.19-5.27,0-2.3.26-4.36.91-5.73,2.9a7.05,7.05,0,0,0-.64,7,35.74,35.74,0,0,0-5.45,5.55,4.52,4.52,0,0,0-.64.78l-.29.46a34.8,34.8,0,0,0-4.54,8.81,15.09,15.09,0,0,0-.83,2.76c-.09.34-.19.67-.27,1a4.71,4.71,0,0,0,.44,3.5c1.28,3.79,5.67,5.26,9.22,6.82a63.91,63.91,0,0,0,9,3.45c2.64,3.56,2.83,12.24,2.54,18.88l.39-.14A84.76,84.76,0,0,1,890.32,587Zm-29.78-22.64h0Z"/><path class="cls-11" d="M927,759.89c.16-7.48.57-28.22.67-51.22,0-3.4,0-6.84,0-10.3,1.9-16.38,2.54-32.85.51-49.38-.65-5.32-1.62-10.57-2.76-15.79a35.1,35.1,0,0,0-1-5.16c-.25-.81-.51-1.63-.78-2.47-.69-2.71-1.42-5.41-2.17-8.1-1.21-4.34-2.48-8.67-3.77-13-.66-2.24-1.28-4.79-2-7.34-1.07-3.72-2.41-7.44-4.6-10.16a7.59,7.59,0,0,0-3.9-2.78l-.18-.41-.61.23a8.26,8.26,0,0,0-1-.08,15.59,15.59,0,0,0-4.3.63,1.52,1.52,0,0,0-1.25-.39,27.52,27.52,0,0,0-9.49,2.77,84.76,84.76,0,0,0-18,9.64l-.39.14-1.12.41-4,1.47a124.43,124.43,0,0,0-8.61,18.85,185.52,185.52,0,0,0-11.52,68c.15,8.44.11,16.17-.07,23.21-.67,25.8-3.2,42.28-4.61,49.66a7.86,7.86,0,0,0-.17.9c-.05.24-.09.45-.14.66-.4,2-.65,3-.65,3h1.66a5.8,5.8,0,0,0,3.76,1.92c6.08,1,13.21,1,19.1-.94a3.34,3.34,0,0,0,1.44-1h3.47l2.92-24.23c-2.7-.15-5.76-.38-7.47-1.53-2-1.38-1.91-4.11-2-6.28-.33-5.54-.36-11.1-.39-16.65-.11-21,.35-42.79,4.92-63.37.14-.67,1.14-.49,1.15.15.27,18.46-1.12,37-1.12,55.44q0,6.66.16,13.33c.06,2.92-.72,12.18,1.16,13.4,2.21,1.45,9.79.92,12.47,1.17,3.54.33,7.23.36,10.7,1.23,1.64-5.56,3.63-11.06,5.2-16.6q3.23-11.43,6-23c3.69-15.26,5.23-31.37,9.84-46.35a.7.7,0,0,1,1.36.18c.63,15.61-3.58,32.2-6.91,47.36S894.08,741,894.15,740.69c-.86,0-1.82,0-2.84-.1l-3.85,22.25h39.43S926.91,761.79,927,759.89Z"/><path class="cls-24" d="M894.13,805.19c1.68-6.84,4.08-14.44,3.31-21.54a1,1,0,0,0-1.88-.51c-4.11,5.38-6,12.71-7.87,19.11q-.95,3.16-1.88,6.33l7.17,1.26C893.36,808.29,893.75,806.74,894.13,805.19Z"/><path class="cls-24" d="M875.5,871.23c5-14.63,9.18-29.27,13.13-44.22,1.18-4.47,2.31-9,3.42-13.43l-6.95-1a15.4,15.4,0,0,1-1.59,4c-.78,2.78-1.55,5.57-2.29,8.37-4,15-7.26,29.85-9.74,45.16a2.29,2.29,0,0,0,.23,1.45,2.09,2.09,0,0,0,.54.64A2,2,0,0,0,875.5,871.23Z"/><path class="cls-24" d="M868.8,897.85a35.67,35.67,0,0,1-8.88.38c-.56,0-.67.72-.27,1a21.28,21.28,0,0,0,9.15,3.37,2.37,2.37,0,0,0,2.9-1.82,2.53,2.53,0,0,0,0-1.16A2.3,2.3,0,0,0,868.8,897.85Z"/><path class="cls-24" d="M859.53,913.13a33.44,33.44,0,0,0,5.82.47,1.81,1.81,0,0,0,0-3.62,33.44,33.44,0,0,0-5.82.47A1.4,1.4,0,0,0,859.53,913.13Z"/><path class="cls-24" d="M911.07,888.82a1.34,1.34,0,0,0,0,2.3,5.44,5.44,0,0,0,3.51.89,7.41,7.41,0,0,0,3.91-1.21,2.56,2.56,0,1,0-2.59-4.42C914.3,887.25,912.71,888,911.07,888.82Z"/><path class="cls-24" d="M918.59,894.52a22.83,22.83,0,0,0-4.17,2.36c-1.24.94-2.37,2.08-3.53,3.13-1.92,1.71.51,4.33,2.58,3.35a38.83,38.83,0,0,0,4.25-2.07,28.78,28.78,0,0,0,3.78-3C923.65,896.37,920.92,893.42,918.59,894.52Z"/><path class="cls-24" d="M915.72,999a.49.49,0,0,0-.88-.11,2.59,2.59,0,0,0-.32,2.44,1.34,1.34,0,0,0,1.28,1c8.07-.58,16.9-3.64,24.15-7.15,2-1,.58-4.09-1.48-3.51C936.78,992.15,915.78,999.29,915.72,999Z"/><path class="cls-24" d="M862.7,1000.29a149.68,149.68,0,0,1-15.69,3c-4.17.47-8.42.54-12.51,1.47a.59.59,0,0,0,0,1.13c9,2.55,20.41.71,29.28-1.7C866.31,1003.52,865.24,999.73,862.7,1000.29Z"/><path class="cls-23" d="M891.31,740.59c-4.66-.3-10.55-1.22-14.4-1.73-1-.13-2.2-.18-3.53-.25l-2.92,24.23-2.63,21.79s-9.58,3.81-11.59,14.32c-1.36,7.06,4.55,10.15,8.21,10.72V804.8c-.77-1.7-.63-3.44,2.64-4.68a1.78,1.78,0,0,1,1.18,0c.58,1.19,1.57,3.27,2.71,5.89.66,1.5,1.37,3.16,2.08,4.93.53,1.34,1.07,2.72,1.59,4.14,1.93,5.28,3.37,6,4.22,4.8,1,.48,2.2.09,3.56-1.62a13.71,13.71,0,0,0,1.08-1.61,15.4,15.4,0,0,0,1.59-4l-5.29-.74c0-1.72,0-3.15,0-4.34l5.89,1c.4-8.22-3.25-16.6-3.25-16.6l5-29.11Z"/><path class="cls-8" d="M864.45,804.8v4.87h0l.36.05,8.25,1.16c-.71-1.77-1.42-3.43-2.08-4.93Z"/><path class="cls-8" d="M879.81,811.85l5.29.74,6.95,1,15.12,2.13,3.32-1.58-3.32-1.78L893,809.84l-7.17-1.26-.13,0-5.89-1C879.82,808.7,879.83,810.13,879.81,811.85Z"/><path class="cls-13" d="M891.31,740.59c1,.07,2,.11,2.84.1-.07.32,10.92-28.3,14.29-43.59s7.54-31.75,6.91-47.36a.7.7,0,0,0-1.36-.18c-4.61,15-6.15,31.09-9.84,46.35q-2.8,11.55-6,23c-1.57,5.54-3.56,11-5.2,16.6-3.47-.87-7.16-.9-10.7-1.23-2.68-.25-10.26.28-12.47-1.17-1.88-1.22-1.1-10.48-1.16-13.4q-.17-6.66-.16-13.33c0-18.48,1.39-37,1.12-55.44,0-.64-1-.82-1.15-.15-4.57,20.58-5,42.35-4.92,63.37,0,5.55.06,11.11.39,16.65.13,2.17,0,4.9,2,6.28,1.71,1.15,4.77,1.38,7.47,1.53,1.33.07,2.57.12,3.53.25C880.76,739.37,886.65,740.29,891.31,740.59Z"/></g></svg>