<?xml version="1.0" encoding="utf-8"?>
<!-- Generator: Adobe Illustrator 16.0.0, SVG Export Plug-In . SVG Version: 6.00 Build 0)  -->
<!DOCTYPE svg PUBLIC "-//W3C//DTD SVG 1.1//EN" "http://www.w3.org/Graphics/SVG/1.1/DTD/svg11.dtd">
<svg version="1.1" id="Layer_1" xmlns="http://www.w3.org/2000/svg" xmlns:xlink="http://www.w3.org/1999/xlink" x="0px" y="0px"
	 width="200px" height="200px" viewBox="0 0 200 200" enable-background="new 0 0 200 200" xml:space="preserve">
<g id="Layer_1_1_">
	<g>
		<g>
			<path fill="#D6E5EA" d="M44.322,122.523c0.695,4.166,1.941,9.722,2.635,13.541l105.871,0.183c0-5.53,2.156-12.063,2.258-14.418"
				/>
			<g>
				<path fill="#45A98E" d="M43.599,122.723c0.791,4.53,1.786,9.021,2.635,13.541c0.061,0.324,0.411,0.551,0.723,0.551
					c35.29,0.063,70.581,0.123,105.871,0.185c0.419,0.001,0.736-0.342,0.75-0.75c0.162-4.938,1.764-9.554,2.258-14.418
					c0.098-0.962-1.402-0.952-1.5,0c-0.136,1.34-3.167,13.665-1.521,13.668c-0.566-0.001-1.137-0.002-1.705-0.003
					c-3.576-0.007-7.155-0.014-10.733-0.02c-12.994-0.021-25.987-0.045-38.983-0.067c-13.302-0.021-26.603-0.045-39.902-0.067
					c-3.96-0.007-7.921-0.014-11.882-0.021c-0.817-0.002-1.634-0.004-2.451-0.006c0.405,0.002-1.854-11.526-2.11-12.989
					C44.879,121.372,43.434,121.775,43.599,122.723L43.599,122.723z"/>
			</g>
		</g>
		<g>
			<path fill="#FFFFFF" d="M43.281,122.523c-0.347-1.043-0.322-2.086-0.347-3.475c-0.174-9.55,6.597-8.333,15.278-8.333
				c11.458,0,22.917,0,34.722,0c20.138,0,40.625,0,60.763,0l0.348,0.694c0,3.473,1.042,6.943,1.042,10.417"/>
			<g>
				<path fill="#45A98E" d="M44.004,122.324c-0.954-4.217-0.454-9.242,4.307-10.53c3.658-0.989,8.067-0.326,11.81-0.326
					c11.587,0,23.175,0,34.763,0c11.771,0,23.54,0,35.312,0c5.883,0,11.766,0,17.646,0c1.305,0,2.604,0,3.906,0
					c1.512-0.516,2.053,0.044,1.624,1.681c0.129,2.908,0.835,5.766,0.965,8.683c0.043,0.964,1.543,0.968,1.5,0
					c-0.155-3.515,0.054-8.399-1.489-11.49c-0.115-0.231-0.396-0.372-0.648-0.372c-25.442,0-50.885,0-76.328,0
					c-6.386,0-12.771,0-19.157,0c-3.443,0-6.895-0.246-10.299,0.381c-5.75,1.063-6.431,7.621-5.354,12.377
					C42.771,123.666,44.217,123.266,44.004,122.324L44.004,122.324z"/>
			</g>
		</g>
		<g>
			<g>
				<path fill="#45A98E" d="M44.322,122.926c18.709-0.813,37.419-0.189,56.134-0.023c18.099,0.162,36.19-0.773,54.282,0.023
					c0.969,0.043,0.964-1.457,0-1.5c-18.09-0.799-36.187,0.098-54.282-0.023c-18.718-0.125-37.422-0.788-56.134,0.023
					C43.359,121.469,43.355,122.969,44.322,122.926L44.322,122.926z"/>
			</g>
		</g>
		<g>
			<g>
				<path fill="#45A98E" d="M95.74,121.758c1.281-4.986,9.152-4.916,10.445,0c0.246,0.936,1.692,0.538,1.446-0.398
					c-1.669-6.344-11.69-6.42-13.339,0C94.053,122.297,95.499,122.693,95.74,121.758L95.74,121.758z"/>
			</g>
		</g>
		<g>
			<path fill="#D6E5EA" d="M149.375,121.559c0.688-1.686,1.375-4.057,4.625-3.59h0.762l0.324,3.86L149.375,121.559z"/>
			<g>
				<path fill="#45A98E" d="M150.1,121.758c0.381-0.947,0.732-2.041,1.592-2.672c0.886-0.648,2.055-0.367,3.07-0.367
					c-0.25-0.25-0.5-0.5-0.75-0.75c0.108,1.287,0.217,2.573,0.324,3.86c0.25-0.25,0.5-0.5,0.75-0.75
					c-1.902-0.091-3.809-0.181-5.711-0.271c-0.968-0.047-0.963,1.455,0,1.5c1.902,0.09,3.809,0.18,5.711,0.271
					c0.385,0.019,0.783-0.354,0.75-0.75c-0.107-1.287-0.216-2.573-0.324-3.86c-0.033-0.408-0.313-0.75-0.75-0.75
					c-1.43,0-2.779-0.195-4.01,0.707c-1.128,0.827-1.598,2.188-2.102,3.434C148.29,122.257,149.741,122.645,150.1,121.758z"/>
			</g>
		</g>
		<g>
			<path fill="#D6E5EA" d="M42.76,118.01c2.604,0.174,4.861,1.215,6.077,3.473v0.732l-5.586,0.656L42.76,118.01z"/>
			<g>
				<path fill="#45A98E" d="M42.76,118.76c1.882,0.155,5.327,1.18,5.327,3.455c0.25-0.25,0.5-0.5,0.75-0.75
					c-1.862,0.219-3.724,0.438-5.586,0.656c0.25,0.25,0.5,0.5,0.75,0.75c-0.164-1.621-0.327-3.24-0.49-4.861
					c-0.096-0.953-1.597-0.963-1.5,0c0.164,1.621,0.327,3.24,0.49,4.861c0.037,0.367,0.315,0.801,0.75,0.75
					c1.862-0.219,3.724-0.438,5.586-0.656c0.406-0.048,0.75-0.305,0.75-0.75c0-3.27-4.127-4.732-6.827-4.955
					C41.795,117.18,41.803,118.682,42.76,118.76z"/>
			</g>
		</g>
		<g>
			<path fill="#D6E5EA" d="M149.184,111.76c0.521,1.563,2.433,2.258,3.994,2.432H154l-0.65-3.474h-4.475L149.184,111.76z"/>
			<g>
				<path fill="#45A98E" d="M148.459,111.959c0.875,2.241,3.322,2.98,5.541,2.98c0.52,0,0.813-0.477,0.725-0.949
					c-0.218-1.156-0.435-2.314-0.649-3.473c-0.063-0.324-0.411-0.553-0.726-0.553c-1.49,0-2.981,0-4.475,0
					c-0.48,0-0.861,0.479-0.725,0.95C148.254,111.266,148.355,111.609,148.459,111.959c0.273,0.926,1.723,0.53,1.447-0.398
					c-0.104-0.348-0.205-0.694-0.309-1.041c-0.24,0.315-0.481,0.633-0.725,0.948c1.49,0,2.982,0,4.477,0
					c-0.242-0.185-0.482-0.366-0.726-0.551c0.217,1.156,0.435,2.313,0.649,3.474c0.24-0.316,0.481-0.634,0.725-0.949
					c-1.458,0-3.487-0.33-4.096-1.881C149.559,110.67,148.107,111.057,148.459,111.959z"/>
			</g>
		</g>
		<g>
			<path fill="#D6E5EA" d="M44.322,115.059c2.604,0.174,5.208-1.216,5.729-3.819v-0.747c0,0-4.526-0.077-5.729,2.291
				C43.119,115.15,44.322,115.059,44.322,115.059z"/>
			<g>
				<path fill="#45A98E" d="M44.322,115.809c3.215,0.137,6.479-1.846,6.479-5.316c0-0.413-0.341-0.745-0.75-0.75
					c-1.926-0.021-4.008,0.402-5.538,1.615C43.574,112.104,41.891,115.902,44.322,115.809c0.964-0.037,0.968-1.537,0-1.5
					c-0.042,0.002,0.138,0.035,0.196,0.121c-0.121-0.177,0.401-1.164,0.451-1.27c0.368-0.768,1.189-1.174,1.951-1.439
					c0.987-0.348,2.085-0.492,3.131-0.479c-0.25-0.25-0.5-0.5-0.75-0.75c0,2.658-2.6,3.92-4.979,3.816
					C43.354,114.268,43.359,115.768,44.322,115.809z"/>
			</g>
		</g>
	</g>
	<g>
		<g>
			<polygon fill="#FFFFFF" points="64.3,136.424 65.078,131.711 49.115,126.066 50.479,142.857 55.196,143.402 59.918,140.789 			
				"/>
			<g>
				<path fill="#45A98E" d="M65.023,136.623c0.259-1.57,0.519-3.143,0.778-4.713c0.07-0.426-0.107-0.773-0.524-0.922
					c-5.321-1.883-10.642-3.764-15.963-5.646c-0.438-0.154-0.987,0.256-0.949,0.725c0.455,5.598,0.91,11.192,1.365,16.791
					c0.036,0.443,0.317,0.699,0.75,0.75c1.536,0.178,3.071,0.354,4.607,0.531c1.014,0.116,2.611-1.266,3.434-1.721
					c2.514-1.393,4.273-3.438,6.31-5.466c0.686-0.685-0.375-1.744-1.061-1.062c-1.728,1.721-3.315,3.74-5.454,4.926
					c-1.028,0.568-2.963,1.852-3.53,1.785c-1.435-0.166-2.871-0.332-4.306-0.498c0.25,0.25,0.5,0.5,0.75,0.75
					c-0.455-5.597-0.91-11.191-1.365-16.791c-0.316,0.242-0.633,0.482-0.949,0.725c5.321,1.883,10.642,3.764,15.963,5.646
					c-0.175-0.309-0.35-0.615-0.524-0.923c-0.259,1.57-0.519,3.142-0.778,4.714C63.42,137.17,64.866,137.576,65.023,136.623z"/>
			</g>
		</g>
		<g>
			<polyline fill="#FFFFFF" points="64.349,132.133 60.92,133.984 53.862,139.395 51.08,142.625 			"/>
			<g>
				<path fill="#45A98E" d="M63.97,131.486c-5.119,2.764-9.626,6.203-13.42,10.606c-0.628,0.729,0.428,1.796,1.061,1.062
					c3.653-4.241,8.021-7.621,13.117-10.373C65.579,132.32,64.821,131.025,63.97,131.486L63.97,131.486z"/>
			</g>
		</g>
		<g>
			<path fill="#FFFFFF" d="M61.13,139.447c0.283-0.764,0.258-2.348-0.069-3.012c-0.229-0.465-0.168-0.875-0.362-1.367"/>
			<g>
				<path fill="#45A98E" d="M61.853,139.648c0.507-1.592,0.051-3.25-0.431-4.777c-0.29-0.919-1.738-0.525-1.446,0.398
					c0.398,1.264,0.852,2.657,0.431,3.979C60.112,140.173,61.561,140.564,61.853,139.648L61.853,139.648z"/>
			</g>
		</g>
		<g>
			<path fill="#FFFFFF" d="M60.518,134.477c-0.618-0.808-1.343-1.396-2.232-1.901c-1.177-0.698-2.203-1.56-3.313-2.354
				c-0.785-0.544-1.531-1.158-2.372-1.66c-0.481-0.27-0.971-0.487-1.474-0.789c-0.46-0.239-0.916-0.717-1.417-0.834"/>
			<g>
				<path fill="#45A98E" d="M61.048,133.945c-1.396-1.668-3.423-2.676-5.148-3.971c-1.794-1.347-3.753-2.779-5.812-3.686
					c-0.876-0.389-1.641,0.904-0.757,1.295c1.859,0.816,3.617,2.104,5.263,3.282c1.784,1.28,3.983,2.45,5.394,4.138
					C60.609,135.749,61.664,134.682,61.048,133.945L61.048,133.945z"/>
			</g>
		</g>
		<g>
			<path fill="#FFFFFF" d="M58.423,141.523c-1.208-0.08-3.049-1.23-3.957-1.996"/>
			<g>
				<path fill="#45A98E" d="M58.423,140.773c-1.223-0.129-2.501-1.017-3.426-1.776c-0.74-0.608-1.808,0.444-1.061,1.062
					c1.271,1.045,2.817,2.039,4.487,2.217C59.385,142.376,59.375,140.875,58.423,140.773L58.423,140.773z"/>
			</g>
		</g>
		<g>
			<path fill="#FFFFFF" d="M53.847,139.314c-0.068-1.045-0.72-2.191-1.049-3.219c-0.362-1.188-0.724-2.375-1.165-3.547
				c-0.408-1.012-0.84-2.055-1.171-3.082c-0.232-0.781-0.183-1.551-0.525-2.294"/>
			<g>
				<path fill="#45A98E" d="M54.57,139.115c-0.321-1.975-1.264-3.981-1.897-5.883c-0.698-2.094-1.354-4.162-2.013-6.258
					c-0.29-0.918-1.738-0.525-1.446,0.397c0.662,2.104,1.26,4.167,2.013,6.258c0.671,1.861,1.579,3.931,1.897,5.884
					C53.278,140.468,54.724,140.063,54.57,139.115L54.57,139.115z"/>
			</g>
		</g>
	</g>
	<g>
		<path fill="#FFFFFF" d="M39.995,106.843c12.136-1.323,14.349,9.99,11.242,18.589l0,0c1.889-0.613,3.881-1.007,5.387,0.207
			c-1.912,2.549-7.156,5.291-10.277,5.938c-0.271-1.242,0.069-2.504,1.026-3.775l0.552-0.809
			c-7.464-1.976-13.966-11.815-9.247-18.979L39.995,106.843z"/>
		<g>
			<path fill="#45A588" d="M39.995,107.593c10.816-0.776,13.42,8.938,10.519,17.64c-0.184,0.552,0.394,1.068,0.922,0.922
				c1.325-0.706,2.626-0.771,3.904-0.19c-1.158,1.313-2.921,2.22-4.431,3.063c-1.17,0.629-2.387,1.141-3.65,1.537
				c-0.876,0.306,0.976-2.697,1.313-3.19c0.285-0.418-0.015-0.964-0.448-1.103c-6.966-2.238-14.748-12.559-7.599-18.896
				c0.725-0.643-0.34-1.7-1.061-1.061c-4.234,3.752-3.571,9.475-1.057,14.076c1.519,2.78,4.095,4.879,6.825,6.377
				c1.068,0.588,1.77,0.25,1.493,0.653c-0.949,1.392-1.218,2.505-1.129,4.154c0.026,0.487,0.458,0.852,0.949,0.724
				c3.959-1.031,7.877-3.033,10.608-6.13c0.305-0.346,0.3-0.94-0.152-1.178c-2.063-1.074-3.73-0.904-5.965-0.284
				c0.307,0.309,0.615,0.613,0.922,0.923c3.251-9.748-0.256-20.379-11.965-19.538C39.036,106.162,39.029,107.663,39.995,107.593z"/>
		</g>
	</g>
	<g>
		<path fill="#FFFFFF" d="M31.006,56.335c7.285,6.043,2.18,13.38-4.285,16.29l0,0c1.36,0.721,2.655,1.618,2.792,3.112
			c-2.452,0.311-6.809-1.129-8.852-2.519c0.545-0.821,1.432-1.313,2.657-1.467l0.748-0.128c-2.928-5.222-0.956-14.153,5.58-15.391
			L31.006,56.335z"/>
		<g>
			<path fill="#45A588" d="M30.476,56.865c6.163,5.636,2.181,12.021-4.133,15.112c-0.517,0.253-0.459,1.026,0,1.295
				c0.815,0.888,1.631,1.776,2.447,2.664c0.241-0.316,0.482-0.633,0.723-0.949c-2.973,0.139-5.955-0.886-8.474-2.417
				c0.051,0.393,0.101,0.785,0.152,1.178c1.023-1.104,1.903-1.201,3.073-1.402c0.506-0.087,0.647-0.707,0.448-1.102
				c-2.51-4.996-0.89-14.703,6.294-14.159c0.965,0.073,0.958-1.427,0-1.5c-8.372-0.634-10.577,10.471-7.589,16.416
				c0.149-0.367,0.299-0.734,0.448-1.102c-1.581,0.271-2.636,0.601-3.735,1.788c-0.331,0.357-0.272,0.92,0.152,1.178
				c2.737,1.664,6.002,2.772,9.23,2.622c0.475-0.022,0.868-0.464,0.723-0.949c-0.537-1.802-1.544-2.627-3.136-3.56
				c0,0.432,0,0.863,0,1.295c7.314-3.58,11.238-11.249,4.437-17.468C30.824,55.153,29.76,56.211,30.476,56.865z"/>
		</g>
	</g>
	<g>
		<path fill="#FFFFFF" d="M60.394,122.615c9.999-10.467,20.642-1.893,24.389,8.279l0,0c1.246-1.998,2.754-3.877,5.046-3.924
			c0.21,3.77-2.453,10.262-4.792,13.229c-1.194-0.92-1.848-2.322-1.95-4.209l-0.117-1.153c-8.279,3.907-21.689-0.056-22.878-10.155
			L60.394,122.615z"/>
		<g>
			<path fill="#45A588" d="M60.924,123.146c9.279-8.935,19.077-2.188,23.135,7.946c0.242,0.604,0.987,0.755,1.371,0.181
				c0.976-1.459,4.275-5.998,3.271-0.938c-0.35,1.764-1.083,3.521-1.786,5.148c-0.519,1.207-1.192,2.332-1.883,3.443
				c-0.372,0.598-1.293-3.889-1.313-4.093c-0.062-0.604-0.581-0.881-1.128-0.647c-8.002,3.408-23.088-0.347-21.474-11.375
				c0.139-0.943-1.307-1.353-1.446-0.396c-1.819,12.429,14.382,17.025,23.677,13.066c-0.376-0.215-0.752-0.432-1.128-0.646
				c0.239,2.354,0.555,4.19,2.287,5.896c0.37,0.363,0.897,0.235,1.178-0.151c2.79-3.867,4.844-8.794,4.895-13.608
				c0.005-0.521-0.48-0.81-0.949-0.725c-2.66,0.484-4.03,2.079-5.495,4.27c0.457,0.062,0.914,0.119,1.371,0.181
				c-4.542-11.341-15.593-18.285-25.642-8.609C59.166,122.758,60.228,123.816,60.924,123.146z"/>
		</g>
	</g>
	<g>
		<path fill="#FFFFFF" d="M70.59,103.258c5.122-2.688,8.059,1.917,8.179,6.248l0,0c0.727-0.598,1.539-1.115,2.412-0.843
			c-0.401,1.455-2.238,3.573-3.503,4.399c-0.335-0.5-0.404-1.115-0.202-1.842l0.103-0.453c-3.634,0.424-8.208-2.789-7.369-6.768
			L70.59,103.258z"/>
		<g>
			<path fill="#45A588" d="M70.968,103.906c4.308-2.047,6.833,1.621,7.051,5.6c0.028,0.508,0.64,1.018,1.128,0.646
				c0.546-0.533,1.224-0.78,2.034-0.739c-0.241-0.315-0.482-0.634-0.723-0.949c-0.561,1.578-1.812,2.979-3.158,3.952
				c0.342,0.089,0.684,0.18,1.026,0.27c-0.302-0.66-0.156-1.133-0.023-1.718c0.102-0.446-0.215-0.983-0.723-0.948
				c-3.083,0.211-8.256-2.629-6.342-6.381c0.439-0.859-0.855-1.619-1.295-0.759c-2.421,4.745,3.276,8.938,7.637,8.64
				c-0.241-0.315-0.482-0.634-0.723-0.949c-0.248,1.091-0.289,1.859,0.175,2.873c0.159,0.349,0.717,0.492,1.026,0.27
				c1.683-1.213,3.146-2.874,3.848-4.849c0.178-0.5-0.275-0.902-0.723-0.949c-1.151-0.122-1.874,0.254-2.791,0.944
				c0.376,0.217,0.752,0.433,1.128,0.646c-0.287-5.244-3.951-9.439-9.308-6.895C69.338,103.025,70.1,104.318,70.968,103.906z"/>
		</g>
	</g>
	<g>
		<path fill="#FFFFFF" d="M34.825,80.087c13.937-7.849,22.433,4.638,23.121,16.596l0,0c1.959-1.711,4.158-3.212,6.597-2.525
			c-0.99,4.055-5.892,10.063-9.32,12.449c-0.966-1.358-1.208-3.053-0.709-5.078l0.249-1.258
			c-10.01,1.467-22.914-7.035-20.922-18.097L34.825,80.087z"/>
		<g>
			<path fill="#45A588" d="M35.204,80.734c12.624-6.57,21.032,3.937,21.992,15.949c0.054,0.681,0.763,0.954,1.28,0.53
				c0.688-0.563,5.865-3.679,4.027-0.114c-0.832,1.613-2.022,3.111-3.147,4.51c-0.866,1.076-1.856,2.041-2.852,2.996
				c-1.973,1.893-1.111-3.672-1.019-4.137c0.085-0.432-0.205-1.005-0.723-0.949c-9.655,1.041-24.657-7.688-19.289-19.055
				c0.411-0.869-0.882-1.631-1.295-0.757c-2.888,6.114-0.064,12.941,5.244,16.859c3.083,2.275,6.718,4.049,10.58,4.451
				c1.215,0.125,2.373,0.168,3.594,0.129c0.106-0.148,0.213-0.297,0.319-0.446c-0.145,0.69-0.265,1.386-0.36,2.085
				c-0.25,1.548,0.305,2.885,1.021,4.199c0.178,0.328,0.706,0.511,1.026,0.269c4.232-3.198,8.076-7.771,9.665-12.896
				c0.158-0.508-0.26-0.896-0.723-0.949c-2.951-0.34-4.889,0.914-7.127,2.745c0.427,0.177,0.854,0.354,1.28,0.53
				C57.63,83.344,48.05,72.359,34.447,79.439C33.588,79.886,34.347,81.181,35.204,80.734z"/>
		</g>
	</g>
	<g>
		<path fill="#FFFFFF" d="M160.109,108.109c2.705,2.964,6.115-0.549,9.246,0.9c2.719,1.068,3.824,4.229,3.256,6.989
			c-1.338,4.438-8.422,4.103-10.334,8.044c-1.396,2.872,4.722,1.641,4.722,1.641c0.403,2.688-0.888,10.707-9.138,12.666
			c-2.248,0.53-2.094-5.92-2.965-4.341c-1.472,2.657-3.002,5.247-5.27,7.257c-5.016,4.672-12.164,4.949-15.302-2.929
			c-1.313-3.63-0.276-9.389,4.345-9.142c1.686-0.163,5.426,2.701,5.076,4.81c-0.577,3.324-4.225,1.259-3.334-1.921
			c-4.842,0.402-2.348,9.119,2.715,8.063c6.119-1.517,3.201-10.047,3.914-15.388c0.492-4.687,3.625-10.228,8.777-10.487
			c1.475-0.073,5.535,2.375,6.714,1.028c2.241-2.362-3.396-4.973-3.9-6.151c0.11-0.328,0.425-0.185,0.745-0.603L160.109,108.109z"/>
		<g>
			<path fill="#44A98D" d="M159.579,108.641c1.729,1.373,3.002,1.561,5.192,1.211c4.444-0.707,8.777,2.078,6.787,6.713
				c-0.711,1.65-3.258,2.541-4.781,3.218c-1.746,0.776-7.473,3.677-4.771,6.334c0.878,0.864,2.842,0.587,3.905,0.483
				c1.705-0.164,0.431-0.01,0.389-0.42c0.114,1.119-0.131,2.264-0.381,3.348c-0.407,1.772-1.332,3.334-2.462,4.734
				c-0.729,0.901-5.109,4.571-6.32,2.889c-0.744-1.032-0.361-3.405-1.646-4.03c-0.292-0.144-0.677-0.146-0.909,0.116
				c-3.848,4.354-5.452,10.005-12.244,10.572c-4.568,0.383-7.52-4.521-7.783-8.466c-0.171-2.53,1.012-5.229,4.118-5.396
				c0.687,0.264,1.373,0.527,2.06,0.791c2.554,2.07,2.695,2.52,0.435,1.346c0.063-0.518-0.521-0.811-0.949-0.725
				c-4.452,0.914-3.487,6.117-0.854,8.56c4.453,4.129,8.226-2.271,8.505-6.032c0.353-4.732-0.771-8.908,1.177-13.492
				c1.293-3.043,4.52-6.102,8.087-5.082c1.644,0.47,3.103,1.205,4.843,1.076c1.096-0.082,2.185-1.654,1.793-2.723
				c-0.619-1.688-4.543-4.148-3.272-4.911c0.828-0.497,0.073-1.794-0.759-1.295c-0.579,0.349-1.125,0.701-1.627,1.156
				c-0.229,0.207-0.31,0.651-0.116,0.909c0.646,0.873,1.506,1.476,2.354,2.146c1.226,0.668,1.271,1.718,0.139,3.149
				c-0.995-0.164-2.004-0.629-2.954-0.957c-2.259-0.776-4.976,0.047-6.691,1.668c-2.608,2.466-3.983,5.496-4.516,9.025
				c-0.638,4.248,1.041,8.846-0.744,12.914c-1.838,2.377-3.761,2.649-5.763,0.82c-2.293-2.125-0.541-2.941-0.283-5.079
				c-0.073,0.613,0.381,1.864,0.865,2.279c1.246,1.065,2.332,1.256,3.537,0.042c1.24-1.246,0.353-3.541-0.664-4.553
				c-2.006-2.004-4.002-3.016-6.813-2.172c-5.01,1.5-3.637,9.651-1.307,12.633c4.658,5.957,11.299,3.975,16.086-0.701
				c1.462-1.43,2.531-3.303,3.566-5.036c0.018-0.983,0.1-1.013,0.245-0.087c0.136,0.548,0.271,1.119,0.503,1.637
				c1.118,2.494,2.723,1.878,5.012,0.951c4.723-1.912,7.695-7.553,7.188-12.525c-0.052-0.511-0.438-0.82-0.949-0.725
				c-0.766,0.145-1.533,0.204-2.312,0.236c-3.997,0.164,2.053-3.672,3.047-4.119c2.289-1.03,5.062-2.195,5.8-4.879
				c0.734-2.676-0.438-5.365-2.382-7.141c-3.045-2.775-7.215,0.98-10.313-1.479C159.891,106.984,158.82,108.038,159.579,108.641z"/>
		</g>
	</g>
	<g>
		<g>
			<polygon fill="#FFFFFF" points="129.73,122.896 125.887,125.73 133.387,140.91 144.12,127.927 141.121,124.246 135.915,122.824 
							"/>
			<g>
				<path fill="#45A98E" d="M129.352,122.248c-1.281,0.945-2.563,1.891-3.845,2.834c-0.347,0.256-0.465,0.629-0.269,1.025
					c2.5,5.061,5,10.121,7.5,15.182c0.201,0.408,0.88,0.512,1.178,0.15c3.578-4.328,7.156-8.654,10.734-12.982
					c0.281-0.34,0.275-0.721,0-1.061c-0.974-1.193-1.943-2.386-2.916-3.578c-0.66-0.813-2.729-0.928-3.662-1.185
					c-2.776-0.758-5.461-0.521-8.342-0.487c-0.967,0.01-0.969,1.51,0,1.5c2.433-0.028,4.978-0.373,7.334,0.27
					c0.799,0.219,3.438,0.754,3.608,0.963c0.974,1.193,1.943,2.385,2.915,3.578c0-0.354,0-0.707,0-1.061
					c-3.577,4.328-7.154,8.653-10.732,12.981c0.393,0.052,0.785,0.103,1.178,0.149c-2.5-5.059-5-10.117-7.5-15.18
					c-0.09,0.342-0.18,0.685-0.27,1.025c1.28-0.943,2.563-1.889,3.846-2.834C130.879,122.977,130.132,121.674,129.352,122.248z"/>
			</g>
		</g>
		<g>
			<polyline fill="#FFFFFF" points="126.702,125.938 130.45,127.001 139.281,128.048 143.527,127.674 			"/>
			<g>
				<path fill="#45A98E" d="M126.503,126.66c5.597,1.59,11.229,2.273,17.024,1.764c0.957-0.084,0.965-1.585,0-1.5
					c-5.685,0.5-11.159-0.158-16.627-1.711C125.969,124.949,125.574,126.396,126.503,126.66L126.503,126.66z"/>
			</g>
		</g>
		<g>
			<path fill="#FFFFFF" d="M134.111,122.939c-0.736,0.353-1.822,1.504-2.053,2.207c-0.16,0.494-0.49,0.744-0.693,1.231"/>
			<g>
				<path fill="#45A98E" d="M133.732,122.293c-0.684,0.355-1.258,0.92-1.732,1.516c-0.25,0.313-0.475,0.642-0.617,1.019
					c-0.162,0.425-0.469,0.767-0.665,1.175c-0.417,0.866,0.876,1.629,1.296,0.758c0.146-0.306,0.34-0.572,0.521-0.857
					c0.179-0.281,0.261-0.609,0.438-0.896c0.355-0.57,0.922-1.104,1.519-1.415C135.348,123.141,134.589,121.846,133.732,122.293
					L133.732,122.293z"/>
			</g>
		</g>
		<g>
			<path fill="#FFFFFF" d="M131.081,126.93c-0.12,1.01-0.011,1.938,0.272,2.92c0.354,1.322,0.492,2.653,0.731,3.998
				c0.185,0.938,0.288,1.898,0.541,2.844c0.156,0.529,0.354,1.026,0.506,1.596c0.161,0.492,0.156,1.15,0.435,1.586"/>
			<g>
				<path fill="#45A98E" d="M130.331,126.93c-0.138,2.144,0.569,4.209,0.897,6.313c0.354,2.264,0.754,4.696,1.613,6.827
					c0.358,0.886,1.811,0.5,1.447-0.397c-0.764-1.885-1.132-4.028-1.479-6.022c-0.381-2.17-1.121-4.521-0.979-6.719
					C131.895,125.964,130.393,125.971,130.331,126.93L130.331,126.93z"/>
			</g>
		</g>
		<g>
			<path fill="#FFFFFF" d="M137.499,123.34c0.81,0.9,1.325,3.01,1.44,4.191"/>
			<g>
				<path fill="#45A98E" d="M136.969,123.871c0.786,0.947,1.09,2.467,1.223,3.66c0.104,0.951,1.605,0.961,1.5,0
					c-0.182-1.635-0.59-3.43-1.662-4.721C137.411,122.064,136.355,123.133,136.969,123.871L136.969,123.871z"/>
			</g>
		</g>
		<g>
			<path fill="#FFFFFF" d="M139.236,128.115c-0.68,0.797-1.014,2.074-1.493,3.039c-0.568,1.104-1.138,2.205-1.638,3.353
				c-0.414,1.011-0.832,2.06-1.313,3.024c-0.379,0.724-0.95,1.24-1.226,2.012"/>
			<g>
				<path fill="#45A98E" d="M138.59,127.736c-1.188,1.695-1.936,3.84-2.824,5.709c-0.916,1.928-1.94,3.806-2.843,5.719
					c-0.409,0.869,0.884,1.632,1.295,0.758c0.905-1.924,1.96-3.759,2.843-5.72c0.832-1.847,1.67-4.058,2.824-5.708
					C140.441,127.699,139.141,126.951,138.59,127.736L138.59,127.736z"/>
			</g>
		</g>
	</g>
	<g>
		<g>
			<polygon fill="#FFFFFF" points="87.588,124.52 84.88,129.287 99.833,141.701 105.025,123.074 100.162,120.615 94.04,121.555 			
				"/>
			<g>
				<path fill="#45A98E" d="M86.94,124.141c-0.902,1.59-1.806,3.178-2.708,4.769c-0.155,0.272-0.142,0.692,0.117,0.907
					c4.984,4.141,9.969,8.277,14.953,12.416c0.424,0.354,1.092,0.25,1.255-0.332c1.729-6.209,3.461-12.418,5.191-18.627
					c0.086-0.309-0.049-0.695-0.346-0.848c-1.575-0.797-3.151-1.594-4.729-2.391c-1.001-0.508-2.756,0.17-3.775,0.324
					c-3.582,0.553-6.38,1.99-9.692,3.512c-0.878,0.404-0.115,1.697,0.758,1.295c2.562-1.176,5.067-2.703,7.859-3.131
					c0.974-0.15,4.235-0.633,4.094-0.703c0.768,0.387,1.53,0.773,2.296,1.16c0.46,0.232,0.922,0.465,1.382,0.697
					c1.209,0.609,0.471,0.533,0.693-0.271c-1.729,6.191-3.454,12.391-5.182,18.582c0.418-0.107,0.836-0.223,1.254-0.33
					c-3.433-2.852-6.864-5.697-10.297-8.549c-1.505-1.25-3.01-2.5-4.516-3.75c-0.274-0.266-0.257-0.045,0.053,0.656
					c0.292-0.514,0.585-1.027,0.877-1.545c0.585-1.027,1.17-2.059,1.755-3.088C88.714,124.055,87.418,123.299,86.94,124.141z"/>
			</g>
		</g>
		<g>
			<polyline fill="#FFFFFF" points="85.832,129.121 90.26,128.488 100.009,125.461 104.288,123.084 			"/>
			<g>
				<path fill="#45A98E" d="M86.031,129.846c6.613-0.947,12.798-2.873,18.636-6.113c0.847-0.471,0.089-1.766-0.758-1.295
					c-5.718,3.174-11.802,5.033-18.276,5.961C84.679,128.535,85.086,129.98,86.031,129.846L86.031,129.846z"/>
			</g>
		</g>
		<g>
			<path fill="#FFFFFF" d="M92.202,122.52c-0.608,0.711-1.21,2.426-1.121,3.271c0.062,0.592-0.167,1.01-0.152,1.617"/>
			<g>
				<path fill="#45A98E" d="M91.672,121.988c-1.222,1.572-1.403,3.502-1.493,5.42c-0.045,0.967,1.455,0.963,1.5,0
					c0.067-1.443,0.124-3.162,1.054-4.359C93.318,122.295,92.265,121.227,91.672,121.988L91.672,121.988z"/>
			</g>
		</g>
		<g>
			<path fill="#FFFFFF" d="M90.888,128.119c0.346,1.113,0.894,2.035,1.651,2.934c0.99,1.221,1.754,2.553,2.635,3.85
				c0.628,0.896,1.188,1.855,1.895,2.729c0.411,0.481,0.852,0.912,1.276,1.437c0.399,0.443,0.7,1.136,1.194,1.462"/>
			<g>
				<path fill="#45A98E" d="M90.164,128.318c0.846,2.357,2.58,4.226,3.93,6.311c1.436,2.219,3.009,4.588,4.915,6.43
					c0.695,0.672,1.759-0.389,1.061-1.061c-1.632-1.576-2.986-3.611-4.248-5.475c-1.402-2.072-3.365-4.244-4.21-6.604
					C91.287,127.016,89.837,127.404,90.164,128.318L90.164,128.318z"/>
			</g>
		</g>
		<g>
			<path fill="#FFFFFF" d="M95.941,121.357c1.269,0.564,2.795,2.535,3.469,3.721"/>
			<g>
				<path fill="#45A98E" d="M95.563,122.004c1.388,0.674,2.444,2.152,3.2,3.453c0.485,0.836,1.782,0.08,1.295-0.758
					c-0.876-1.506-2.132-3.211-3.737-3.99C95.453,120.289,94.692,121.582,95.563,122.004L95.563,122.004z"/>
			</g>
		</g>
		<g>
			<path fill="#FFFFFF" d="M99.994,125.553c-0.341,1.152-0.095,2.646-0.146,3.885c-0.082,1.422-0.164,2.845-0.153,4.279
				c0.039,1.254,0.091,2.547,0.039,3.785c-0.06,0.934-0.418,1.742-0.345,2.68"/>
			<g>
				<path fill="#45A98E" d="M99.271,125.354c-0.41,2.365-0.242,4.888-0.318,7.289c-0.08,2.529-0.192,5.021-0.313,7.539
					c-0.047,0.969,1.453,0.963,1.5,0c0.106-2.201,0.375-4.238,0.306-6.465c-0.079-2.506-0.154-5.5,0.273-7.965
					C100.881,124.807,99.436,124.4,99.271,125.354L99.271,125.354z"/>
			</g>
		</g>
		<g>
			<path fill="#FFFFFF" d="M99.773,132.839c1.861,0.248,4.002,0.076,5.795-0.021c1.425-0.076,5.205,0.035,6.228,0.092
				c0.251,1.729,0.945,6.744,1.513,10.238c0.034,0.217,0.068,0.429,0.104,0.631c0,0,0.598,1.481,1.374-0.793
				c0.478-1.387,2.868-7.213,3.34-9.455c2.174,0.316,7.336,1.1,8.642,1.289c0.34,0.033,1.01,0.275,1.604,0.055
				c1.04-0.391,0.232-1.332,0.232-1.332c-0.799-0.575-1.304-0.979-2.379-1.754c-1.808-1.307-4-2.756-5.8-4.129
				c0,0,1.526-3.951,2.19-5.484c0.574-1.324,1.242-2.688,1.627-4.025c0.318-1.114-0.907-0.832-0.907-0.832
				c-1.287,1.041-2.834,2.324-3.505,2.922c-1.9,1.691-3.002,2.085-4.786,3.283c-2.495-2.133-8.185-7.695-8.692-7.467
				c-0.64,0.289-0.606,0.807-0.606,0.807c1.165,3.516,3.692,8.518,4.312,10.38c-3.543,1.375-7.318,2.685-10.613,4.646
				C99.442,131.887,98.741,132.699,99.773,132.839z"/>
			<g>
				<path fill="#44A98D" d="M99.773,133.589c2.245,0.181,4.437,0.017,6.68-0.044c1.954-0.053,4.564-0.827,4.882,1.402
					c0.353,2.469-0.011,8.068,1.94,9.82c0.188,0.168,0.477,0.289,0.729,0.19c2.479-0.942,3.615-7.312,4.357-9.519
					c1.056-3.127,7.809,1.588,10.385,0.08c3.072-1.801-2.633-4.727-3.563-5.385c-0.211-0.15-3.865-2.729-3.953-2.502
					c0.453-1.17,0.916-2.338,1.381-3.504c0.771-1.939,2.572-4.502,2.283-6.693c-0.045-0.344-0.195-0.617-0.549-0.725
					c-3.65-1.094-6.926,7.961-10.25,4.969c-1.326-1.193-5.83-6.934-7.947-6.352c-3.084,0.85,0.943,6.904,1.586,8.352
					c0.479,1.078,2.203,2.801,0.586,3.422c-1.609,0.619-3.24,1.209-4.815,1.916c-1.532,0.688-4.677,1.323-5.001,3.312
					c-0.055,0.333,0.03,0.668,0.345,0.847c0.181,0.104,0.363,0.206,0.544,0.311c0.843,0.478,1.598-0.818,0.757-1.295
					c0.332,0.188,5.733-2.547,5.475-2.438c1.525-0.633,3.084-1.196,4.626-1.788c0.354-0.137,0.679-0.512,0.522-0.922
					c-0.366-0.99-0.782-1.951-1.207-2.918c-0.368-0.826-0.735-1.652-1.104-2.479c0.42,0.944-1.783-4.572-1.422-4.291
					c2.639,2.041,4.963,4.504,7.473,6.699c0.248,0.217,0.609,0.305,0.907,0.116c1.201-0.762,2.534-1.442,3.64-2.344
					c0.854-0.695,5.146-5.263,3.498-1.366c-0.982,2.323-1.947,4.646-2.857,6.999c-0.129,0.334,0.093,0.661,0.345,0.849
					c1.446,1.064,2.911,2.098,4.386,3.125c0.328,0.229,4.432,2.944,1.877,2.566c-2.662-0.395-5.322-0.802-7.983-1.191
					c-0.396-0.059-0.813,0.094-0.925,0.523c-0.77,3.054-2.024,5.977-3.143,8.913c-0.619,1.631-0.773-2.845-0.888-3.615
					c-0.293-1.973-0.567-3.946-0.851-5.92c-0.049-0.335-0.422-0.537-0.726-0.551c-4.006-0.179-8.037,0.245-12.023-0.071
					C98.808,132.012,98.815,133.514,99.773,133.589z"/>
			</g>
		</g>
	</g>
	<g>
		<g>
			<path fill="#FFFFFF" d="M43.376,166.564c19.748,0.399,95.737,0.402,113.793,0.402v-0.347c0.729-9.793-0.694-20.834-1.39-30.558
				c-20.485,0-41.318,0.349-61.804,0.349c-8.681,0-17.361,0-26.389,0c-7.292,0-14.789-0.315-23.958,0.348
				C43.281,144.877,42.876,158.148,43.376,166.564"/>
			<g>
				<path fill="#45A98E" d="M43.376,167.314c37.916,0.744,75.871,0.402,113.793,0.402c0.409,0,0.75-0.341,0.75-0.75
					c0-10.387-0.612-20.535-1.39-30.902c-0.029-0.406-0.317-0.75-0.75-0.75c-19.319,0.01-38.639,0.297-57.959,0.344
					c-18.01,0.045-36.216-0.831-54.192,0.354c-0.421,0.026-0.732,0.319-0.75,0.75c-0.414,9.916-0.774,19.885-0.252,29.805
					c0.051,0.961,1.551,0.968,1.5,0c-0.32-6.071-0.257-12.153-0.13-18.229c0.062-2.999,0.166-5.997,0.277-8.994
					c0.127-3.39,7.701-2.215,10.338-2.245c15.039-0.176,30.093,0.098,45.134,0.061c16.112-0.039,32.226-0.258,48.338-0.324
					c1.925-0.008,3.851-0.012,5.774-0.014c1.976-0.004,1.502,3.422,1.593,4.506c0.306,3.637,0.622,7.271,0.868,10.912
					c0.244,3.625,0.33,7.252,0.271,10.884c-0.021,1.221-0.173,2.458-0.173,3.678c0-0.924-0.205-0.577-1.358-0.577
					c-35.086,0-70.182,0.092-105.267-0.307c-2.139-0.023-4.279-0.055-6.418-0.098C42.408,165.796,42.41,167.296,43.376,167.314
					L43.376,167.314z"/>
			</g>
		</g>
		<g>
			<g>
				<path fill="#45A98E" d="M94.267,137.105c-0.306,3.797,1.317,8.713,5.762,9.11c4.911,0.438,6.776-4.733,6.849-8.764
					c0.009-0.418-0.349-0.737-0.75-0.75c-3.704-0.116-7.408-0.229-11.111-0.349c-0.968-0.03-0.965,1.47,0,1.5
					c3.704,0.115,7.407,0.23,11.111,0.349c-0.25-0.25-0.5-0.5-0.75-0.75c-0.058,3.124-1.177,7.381-5.043,7.291
					c-3.772-0.089-4.805-4.698-4.568-7.64C95.844,136.143,94.344,136.148,94.267,137.105z"/>
			</g>
		</g>
		<g>
			<path fill="#D6E5EA" d="M43.334,158.127c5.034,1.216,6.075,3.486,6.075,8.521l-5.825-0.188L43.334,158.127z"/>
			<g>
				<path fill="#45A98E" d="M43.135,158.852c1.683,0.428,3.433,1,4.477,2.482c1.049,1.488,1.036,3.574,1.047,5.313
					c0.25-0.25,0.5-0.5,0.75-0.75c-1.942-0.063-3.883-0.125-5.825-0.188c0.25,0.25,0.5,0.5,0.75,0.75
					c-0.083-2.777-0.167-5.557-0.25-8.333c-0.029-0.965-1.529-0.968-1.5,0c0.083,2.776,0.167,5.556,0.25,8.333
					c0.013,0.419,0.332,0.736,0.75,0.75c1.942,0.063,3.883,0.125,5.825,0.188c0.407,0.015,0.753-0.351,0.75-0.75
					c-0.014-2.082-0.131-4.252-1.252-6.068c-1.147-1.86-3.367-2.663-5.374-3.176C42.595,157.165,42.198,158.611,43.135,158.852z"/>
			</g>
		</g>
		<g>
			<path fill="#D6E5EA" d="M156.648,161.064c-2.433-0.349-5.563,3.431-5.392,5.688l5.392,0.216V161.064z"/>
			<g>
				<path fill="#45A98E" d="M156.648,160.314c-3.061-0.274-6.229,3.541-6.142,6.438c0.015,0.421,0.332,0.732,0.75,0.75
					c1.798,0.072,3.595,0.145,5.392,0.216c0.408,0.017,0.75-0.354,0.75-0.75c0-1.968,0-3.935,0-5.901c0-0.969-1.5-0.969-1.5,0
					c0,1.968,0,3.936,0,5.901c0.25-0.25,0.5-0.5,0.75-0.75c-1.797-0.071-3.594-0.144-5.392-0.216c0.25,0.25,0.5,0.5,0.75,0.75
					c-0.063-2.133,2.386-5.141,4.642-4.938C157.611,161.902,157.604,160.4,156.648,160.314z"/>
			</g>
		</g>
		<g>
			<path fill="#D6E5EA" d="M149.703,136.934c0.174,3.299,3.299,5.209,6.25,5.209l-0.516-5.896l-5.734-0.173V136.934z"/>
			<g>
				<path fill="#45A98E" d="M148.953,136.934c0.313,3.66,3.482,5.877,7,5.959c0.382,0.008,0.785-0.35,0.75-0.75
					c-0.172-1.966-0.344-3.931-0.516-5.896c-0.037-0.417-0.313-0.737-0.75-0.75c-1.912-0.058-3.824-0.115-5.734-0.173
					c-0.409-0.014-0.75,0.351-0.75,0.75C148.953,136.359,148.953,136.648,148.953,136.934c0,0.969,1.5,0.969,1.5,0
					c0-0.285,0-0.572,0-0.858c-0.25,0.25-0.5,0.5-0.75,0.75c1.91,0.059,3.822,0.114,5.734,0.174c-0.25-0.25-0.5-0.5-0.75-0.75
					c0.172,1.965,0.344,3.931,0.516,5.896c0.25-0.25,0.5-0.5,0.75-0.75c-2.637-0.062-5.26-1.636-5.5-4.457
					C150.371,135.979,148.871,135.971,148.953,136.934z"/>
			</g>
		</g>
		<g>
			<path fill="#D6E5EA" d="M44.149,142.837c4.34,0,6.597-2.084,5.902-6.599l-6.423,0.521l-0.252,6.077L44.149,142.837
				L44.149,142.837z"/>
			<g>
				<path fill="#45A98E" d="M44.149,143.587c1.953-0.026,3.94-0.397,5.37-1.825c1.495-1.494,1.524-3.775,1.256-5.723
					c-0.042-0.307-0.426-0.575-0.723-0.551c-2.141,0.174-4.282,0.348-6.423,0.521c-0.421,0.034-0.732,0.315-0.75,0.75
					c-0.084,2.024-0.168,4.052-0.252,6.077c-0.017,0.409,0.354,0.75,0.75,0.75C43.634,143.587,43.891,143.587,44.149,143.587
					c0.967,0,0.967-1.5,0-1.5c-0.258,0-0.515,0-0.773,0c0.25,0.25,0.5,0.5,0.75,0.75c0.084-2.024,0.168-4.052,0.252-6.077
					c-0.25,0.25-0.5,0.5-0.75,0.75c2.141-0.174,4.282-0.348,6.423-0.521c-0.241-0.185-0.482-0.366-0.723-0.552
					c0.203,1.476,0.162,3.093-0.87,4.265c-1.043,1.183-2.839,1.366-4.309,1.387C43.183,142.1,43.181,143.6,44.149,143.587z"/>
			</g>
		</g>
		<g>
			<path fill="#44A98E" d="M99.972,139c-2.032,2.822,3.824,1.402,0.883,0C100.854,139,100.286,138.564,99.972,139z"/>
			<g>
				<path fill="#45A98E" d="M99.324,138.621c-0.538,0.766-0.853,1.844,0.037,2.482c0.605,0.436,1.483,0.297,2.12,0.021
					c0.771-0.332,1.164-1.085,0.813-1.874c-0.172-0.391-0.614-0.668-0.974-0.855c-0.637-0.334-1.314-0.531-1.879,0.073
					c-0.659,0.706,0.4,1.771,1.061,1.062c-0.252-0.008-0.293,0.009-0.122,0.047c-0.058-0.018,0.079,0.06,0.083,0.063
					c0.104,0.068,0.225,0.116,0.331,0.182c0.173,0.104,0.05,0.016,0.174,0.138c0.132,0.13-0.077-0.127,0.011,0.015
					c0.084,0.135-0.049-0.164-0.014-0.021c-0.039-0.148-0.023-0.152,0.037-0.286c-0.064,0.146,0.111-0.087-0.063,0.067
					c0.17-0.15-0.021,0.006-0.08,0.037c-0.039,0.021-0.195,0.082-0.004,0.006c-0.049,0.021-0.1,0.035-0.147,0.051
					c-0.084,0.025-0.17,0.043-0.256,0.058c0.224-0.038-0.053-0.004-0.11-0.004c-0.033,0-0.066-0.001-0.1-0.004
					c-0.173-0.011,0.175,0.032,0.01-0.001c-0.236-0.049,0.04,0.049-0.101-0.039c0.052,0.031,0.156,0.193,0.084,0.061
					c0.103,0.19,0.028-0.043,0.049,0.17c-0.005-0.049,0.02-0.205-0.012-0.01c0.042-0.264,0.154-0.399,0.347-0.675
					C101.178,138.585,99.875,137.836,99.324,138.621z"/>
			</g>
		</g>
		<g>
			<g>
				<path fill="#45A98E" d="M101.365,142.555c0-0.998,0-1.996,0-2.992c0-0.969-1.5-0.969-1.5,0c0,0.996,0,1.994,0,2.992
					C99.866,143.521,101.365,143.521,101.365,142.555L101.365,142.555z"/>
			</g>
		</g>
	</g>
	<g>
		<g>
			<g>
				<path fill="#45A98E" d="M122.63,137.125c6.962,0.089,12.496,2.863,12.078,10.898c-0.196,3.763-1.294,7.041,0.418,10.604
					c1.37,2.854,4.704,4.93,6.983,6.977c3.154,2.832,3.888,6.367,2.052,10.303c-1.765,3.781-6.445,2.91-9.325,1.492
					c-11.152-5.488-4.564-18.035-6.561-27.23c-1.328-6.119-5.782-13.871-12.646-14.542c-0.963-0.095-0.953,1.407,0,1.5
					c7.883,0.771,11.46,11.319,11.413,17.878c-0.041,5.751-1.489,11.583,0.67,17.127c2.392,6.141,11.755,10.975,16.999,5.604
					c2.057-2.105,2.758-6.695,1.412-9.32c-2.489-4.855-8.703-6.932-10.363-12.232c-1.627-5.201,2.649-11.02-1.306-15.88
					c-3.127-3.843-7.052-4.612-11.825-4.674C121.662,135.611,121.663,137.111,122.63,137.125L122.63,137.125z"/>
			</g>
		</g>
		<g>
			<path fill="#D6E5EA" d="M140.163,161.066c-2.864-0.397-2.864,3.42-0.317,3.58c1.271,0.078,1.828-0.797,1.75-1.988
				c-0.08-1.114-0.477-1.352-1.513-1.75"/>
			<g>
				<path fill="#45A98E" d="M140.163,160.316c-1.296-0.146-2.513,0.482-2.864,1.789c-0.313,1.162,0.301,2.41,1.333,2.973
					c1.39,0.756,3.097,0.189,3.604-1.314c0.229-0.683,0.168-1.664-0.172-2.304c-0.373-0.708-1.071-0.997-1.781-1.274
					c-0.902-0.354-1.289,1.099-0.398,1.446c0.786,0.308,1.094,0.666,0.945,1.567c-0.139,0.848-1.071,0.83-1.665,0.451
					c-0.405-0.258-0.504-0.828-0.39-1.256c0.166-0.615,0.873-0.637,1.389-0.578C141.124,161.924,141.113,160.423,140.163,160.316
					L140.163,160.316z"/>
			</g>
		</g>
		<g>
			<path fill="#D6E5EA" d="M145.797,169.555c-2.863-0.397-2.863,3.42-0.316,3.578c1.271,0.08,1.828-0.795,1.75-1.988
				c-0.08-1.112-0.479-1.352-1.513-1.75"/>
			<g>
				<path fill="#45A98E" d="M145.797,168.805c-1.296-0.145-2.512,0.483-2.863,1.789c-0.313,1.162,0.301,2.41,1.334,2.971
					c1.392,0.756,3.096,0.191,3.604-1.313c0.229-0.684,0.168-1.664-0.171-2.305c-0.375-0.707-1.072-0.998-1.782-1.275
					c-0.899-0.354-1.289,1.098-0.397,1.447c0.785,0.308,1.094,0.667,0.944,1.568c-0.139,0.846-1.069,0.828-1.665,0.451
					c-0.404-0.26-0.504-0.83-0.39-1.258c0.166-0.613,0.873-0.635,1.388-0.576C146.758,170.41,146.747,168.908,145.797,168.805
					L145.797,168.805z"/>
			</g>
		</g>
		<g>
			<path fill="#D6E5EA" d="M135.212,152.336c-2.862-0.398-2.862,3.42-0.317,3.579c1.272,0.079,1.83-0.796,1.75-1.988
				c-0.08-1.114-0.478-1.353-1.512-1.75"/>
			<g>
				<path fill="#45A98E" d="M135.212,151.586c-1.296-0.145-2.512,0.482-2.864,1.789c-0.313,1.162,0.301,2.41,1.334,2.973
					c1.389,0.756,3.096,0.189,3.604-1.313c0.229-0.685,0.168-1.664-0.17-2.306c-0.375-0.707-1.072-0.998-1.782-1.273
					c-0.9-0.354-1.289,1.1-0.396,1.445c0.785,0.309,1.092,0.666,0.943,1.568c-0.139,0.848-1.07,0.829-1.666,0.45
					c-0.402-0.258-0.504-0.829-0.389-1.255c0.166-0.615,0.873-0.637,1.388-0.578C136.173,153.191,136.162,151.691,135.212,151.586
					L135.212,151.586z"/>
			</g>
		</g>
		<g>
			<path fill="#D6E5EA" d="M131.755,174.012c-2.864-0.396-2.864,3.422-0.317,3.58c1.271,0.079,1.828-0.796,1.75-1.988
				c-0.08-1.112-0.479-1.353-1.513-1.75"/>
			<g>
				<path fill="#45A98E" d="M131.755,173.262c-1.296-0.145-2.513,0.484-2.864,1.79c-0.313,1.162,0.301,2.41,1.334,2.972
					c1.392,0.756,3.096,0.19,3.604-1.313c0.229-0.686,0.168-1.664-0.171-2.304c-0.375-0.71-1.072-0.998-1.782-1.276
					c-0.899-0.354-1.289,1.1-0.397,1.447c0.785,0.308,1.094,0.667,0.944,1.566c-0.139,0.849-1.069,0.83-1.665,0.451
					c-0.404-0.258-0.504-0.828-0.39-1.255c0.166-0.614,0.874-0.636,1.389-0.579C132.716,174.867,132.705,173.367,131.755,173.262
					L131.755,173.262z"/>
			</g>
		</g>
		<g>
			<path fill="#D6E5EA" d="M135.212,142.646c-2.862-0.396-2.862,3.42-0.317,3.58c1.272,0.08,1.83-0.795,1.75-1.988
				c-0.08-1.113-0.478-1.354-1.512-1.75"/>
			<g>
				<path fill="#45A98E" d="M135.212,141.896c-1.296-0.145-2.512,0.482-2.864,1.791c-0.313,1.16,0.301,2.408,1.334,2.971
					c1.389,0.756,3.096,0.191,3.604-1.313c0.229-0.684,0.168-1.663-0.17-2.305c-0.375-0.708-1.072-0.998-1.782-1.274
					c-0.9-0.354-1.289,1.098-0.396,1.445c0.785,0.309,1.092,0.667,0.943,1.566c-0.139,0.849-1.07,0.83-1.666,0.451
					c-0.402-0.258-0.504-0.828-0.389-1.256c0.166-0.613,0.873-0.635,1.388-0.578C136.173,143.503,136.162,142.002,135.212,141.896
					L135.212,141.896z"/>
			</g>
		</g>
		<g>
			<path fill="#D6E5EA" d="M142.17,177.132c-2.863-0.397-2.863,3.42-0.318,3.579c1.272,0.079,1.83-0.796,1.75-1.988
				c-0.08-1.113-0.478-1.353-1.512-1.75"/>
			<g>
				<path fill="#45A98E" d="M142.17,176.382c-1.296-0.146-2.513,0.483-2.863,1.789c-0.313,1.162,0.299,2.41,1.332,2.972
					c1.391,0.756,3.096,0.19,3.604-1.313c0.229-0.684,0.168-1.664-0.171-2.305c-0.375-0.707-1.072-0.998-1.782-1.274
					c-0.901-0.354-1.289,1.101-0.397,1.447c0.785,0.307,1.092,0.666,0.944,1.567c-0.14,0.846-1.071,0.828-1.665,0.449
					c-0.404-0.258-0.504-0.828-0.39-1.255c0.166-0.614,0.874-0.636,1.389-0.578C143.131,177.988,143.12,176.486,142.17,176.382
					L142.17,176.382z"/>
			</g>
		</g>
		<g>
			<path fill="#D6E5EA" d="M127.551,162.523c-2.863-0.398-2.863,3.42-0.316,3.578c1.271,0.08,1.828-0.795,1.75-1.988
				c-0.08-1.113-0.479-1.354-1.512-1.75"/>
			<g>
				<path fill="#45A98E" d="M127.551,161.773c-1.296-0.146-2.512,0.481-2.863,1.789c-0.313,1.162,0.302,2.41,1.334,2.971
					c1.391,0.757,3.097,0.191,3.604-1.313c0.229-0.685,0.168-1.664-0.171-2.306c-0.375-0.707-1.072-0.997-1.782-1.274
					c-0.901-0.354-1.289,1.1-0.397,1.446c0.787,0.308,1.094,0.666,0.945,1.567c-0.14,0.848-1.07,0.828-1.664,0.449
					c-0.406-0.258-0.506-0.828-0.392-1.254c0.166-0.615,0.873-0.637,1.388-0.578C128.512,163.38,128.501,161.879,127.551,161.773
					L127.551,161.773z"/>
			</g>
		</g>
		<g>
			<path fill="#D6E5EA" d="M127.551,149.232c-2.863-0.398-2.863,3.42-0.316,3.578c1.271,0.08,1.828-0.795,1.75-1.988
				c-0.08-1.113-0.479-1.353-1.512-1.75"/>
			<g>
				<path fill="#45A98E" d="M127.551,148.482c-1.296-0.146-2.512,0.481-2.863,1.789c-0.313,1.162,0.302,2.41,1.334,2.971
					c1.391,0.757,3.097,0.191,3.604-1.313c0.229-0.685,0.168-1.664-0.171-2.306c-0.375-0.707-1.072-0.997-1.782-1.274
					c-0.901-0.354-1.289,1.1-0.397,1.446c0.787,0.308,1.094,0.667,0.945,1.568c-0.14,0.847-1.07,0.827-1.664,0.448
					c-0.406-0.258-0.506-0.828-0.392-1.254c0.166-0.615,0.873-0.637,1.388-0.578C128.512,150.089,128.501,148.588,127.551,148.482
					L127.551,148.482z"/>
			</g>
		</g>
		<g>
			<path fill="#D6E5EA" d="M123.922,139.592c-2.863-0.398-2.863,3.42-0.316,3.579c1.271,0.079,1.828-0.795,1.75-1.987
				c-0.08-1.115-0.479-1.354-1.513-1.75"/>
			<g>
				<path fill="#45A98E" d="M123.922,138.842c-1.296-0.145-2.512,0.482-2.863,1.789c-0.313,1.162,0.301,2.41,1.334,2.973
					c1.391,0.756,3.096,0.189,3.604-1.313c0.229-0.686,0.168-1.665-0.171-2.307c-0.375-0.707-1.072-0.995-1.782-1.273
					c-0.901-0.354-1.289,1.1-0.397,1.446c0.787,0.308,1.094,0.668,0.944,1.567c-0.139,0.849-1.069,0.83-1.665,0.45
					c-0.404-0.258-0.504-0.827-0.39-1.255c0.166-0.615,0.873-0.637,1.388-0.578C124.883,140.447,124.872,138.947,123.922,138.842
					L123.922,138.842z"/>
			</g>
		</g>
	</g>
	<g>
		<path fill="#FFFFFF" d="M49.834,38.546c-7.038-5.675-12.938,0.494-14.438,7.096l0,0c-0.931-1.136-2.017-2.178-3.441-2.023
			c0.173,2.354,2.348,6.159,4.037,7.809c0.665-0.667,0.957-1.588,0.868-2.765l-0.02-0.724c5.442,1.751,13.428-1.786,13.349-8.139
			L49.834,38.546z"/>
		<g>
			<path fill="#45A588" d="M50.212,37.898c-7.138-5.209-13.577,0.032-15.539,7.544c0.418-0.11,0.835-0.221,1.253-0.331
				c-1.231-1.378-2.161-2.08-3.972-2.243c-0.535-0.048-0.788,0.512-0.723,0.949c0.447,3.042,2.154,5.915,4.229,8.14
				c0.354,0.38,0.907,0.225,1.178-0.152c0.904-1.257,0.993-2.336,0.95-3.867c-0.316,0.241-0.633,0.482-0.949,0.723
				c6.209,1.678,16.1-2.587,13.917-10.316c-0.263-0.93-1.71-0.534-1.446,0.398c1.874,6.635-7.016,9.838-12.072,8.471
				c-0.46-0.125-0.963,0.232-0.949,0.723c0.031,1.132,0.102,1.931-0.745,3.11c0.393-0.051,0.785-0.101,1.178-0.152
				c-1.904-2.041-3.435-4.693-3.844-7.478c-0.241,0.316-0.482,0.633-0.723,0.949c1.255,0.213,2.226,0.814,2.911,1.803
				c0.378,0.424,1.116,0.194,1.253-0.331c1.7-6.508,6.921-11.329,13.336-6.648C50.238,39.765,50.985,38.462,50.212,37.898z"/>
		</g>
	</g>
	<g>
		<path fill="#FFFFFF" d="M62.125,77.891c0.905-0.153,1.882-0.542,2.707-0.847c0.654-0.241,2.438-0.734,2.924-0.855
			c0.367,0.772,1.415,3.017,2.184,4.568c0.048,0.096,0.094,0.19,0.14,0.279c0,0,0.493,0.607,0.529-0.568
			c0.021-0.717,0.3-3.786,0.196-4.902c1.062-0.166,3.588-0.545,4.226-0.643c0.163-0.034,0.511-0.017,0.756-0.208
			c0.43-0.332-0.083-0.655-0.083-0.655c-0.455-0.155-0.75-0.271-1.365-0.478c-1.033-0.349-2.268-0.71-3.307-1.093
			c0,0,0.143-2.068,0.232-2.881c0.078-0.702,0.193-1.434,0.18-2.117c-0.011-0.567-0.543-0.257-0.543-0.257
			c-0.452,0.672-0.99,1.495-1.217,1.871c-0.645,1.066-1.103,1.408-1.764,2.227c-1.475-0.639-4.937-2.417-5.141-2.237
			c-0.257,0.228-0.168,0.466-0.168,0.466c1.051,1.474,2.956,3.448,3.513,4.229c-1.458,1.153-3.034,2.311-4.29,3.703
			C61.833,77.493,61.623,77.974,62.125,77.891z"/>
		<g>
			<path fill="#44A98D" d="M62.324,78.614c1.105-0.264,2.141-0.658,3.216-1.017c0.453-0.14,0.908-0.274,1.365-0.401
				c0.895-0.256,0.289-0.448,0.663,0.344c0.546,1.157,1.131,3.722,2.384,4.301c0.341,0.158,0.618,0.11,0.909-0.117
				c1.051-0.818,0.677-4.019,0.713-5.171c0.024-0.767,1.53-0.584,2.725-0.765c0.579-0.087,1.797-0.06,2.136-0.693
				c0.936-1.75-1.513-2.11-2.702-2.499c-0.252-0.083-1.891-0.949-1.938-0.262c0.038-0.539,0.079-1.078,0.121-1.616
				c0.1-1.284,0.583-2.715,0.031-3.922c-0.106-0.232-0.405-0.374-0.648-0.372c-0.408,0.003-0.802,0.068-1.045,0.433
				c-0.911,1.367-1.796,2.694-2.864,3.946c0.303-0.039,0.606-0.078,0.909-0.117c-0.995-0.445-4.985-3.185-6.05-2.12
				c-1.558,1.558,2.501,4.666,3.345,5.756c0-0.354,0-0.707,0-1.061c-1.307,1.025-4.76,2.796-4.49,4.764
				c0.033,0.24,0.298,0.474,0.524,0.524c0.1,0.022,0.199,0.044,0.299,0.066c0.942,0.209,1.343-1.237,0.398-1.446
				c1.319,0.292,3.225-1.98,4.33-2.847c0.35-0.274,0.226-0.771,0-1.061c-1.029-1.33-2.058-2.886-3.671-3.364
				c1.571,0.466,3.064,1.416,4.559,2.084c0.292,0.131,0.676,0.156,0.909-0.117c0.979-1.147,1.809-2.285,2.632-3.549
				c-0.594,0.152-0.784,0.584-0.568,1.295c-0.038,0.369-0.071,0.738-0.1,1.108c-0.05,0.59-0.091,1.182-0.132,1.772
				c-0.024,0.346,0.25,0.618,0.551,0.723c0.829,0.29,1.663,0.562,2.5,0.829c0.52,0.165,1.036,0.339,1.549,0.523
				c0.261-0.342,0.243-0.463-0.051-0.364c-1.409,0.214-2.818,0.425-4.226,0.643c-0.313,0.048-0.565,0.42-0.551,0.723
				c0.038,0.787,0.369,4.612-0.254,5.097c0.303-0.039,0.606-0.078,0.909-0.117c-0.902-0.417-1.851-3.776-2.305-4.735
				c-0.143-0.303-0.543-0.424-0.847-0.345c-1.9,0.498-3.725,1.247-5.631,1.702C60.984,77.392,61.383,78.838,62.324,78.614z"/>
		</g>
	</g>
	<g>
		<path fill="#FFFFFF" d="M101.885,94.487c-9.452,0.503-9.733,9.437-6.281,15.629l0,0c-1.521-0.233-3.097-0.286-4.097,0.832
			c1.782,1.712,6.138,3.155,8.606,3.261c0.053-0.984-0.364-1.908-1.256-2.764l-0.523-0.549c5.465-2.444,9.212-10.789,4.705-15.682
			L101.885,94.487z"/>
		<g>
			<path fill="#45A588" d="M101.885,93.737c-9.28,0.852-10.744,9.479-6.929,16.757c0.216-0.376,0.432-0.752,0.647-1.128
				c-1.805-0.199-3.017-0.157-4.475,0.935c-0.35,0.262-0.562,0.844-0.152,1.18c2.568,2.102,5.859,3.172,9.137,3.479
				c0.377,0.035,0.792-0.369,0.75-0.75c-0.182-1.682-0.826-2.609-2-3.843c-0.051,0.394-0.101,0.784-0.152,1.179
				c5.98-3.061,10.632-13.233,3.553-17.705c-0.822-0.518-1.574,0.78-0.76,1.295c6.182,3.903,1.333,12.617-3.55,15.114
				c-0.442,0.228-0.47,0.845-0.152,1.179c0.803,0.844,1.396,1.986-0.423,1.547c-1.92-0.464-3.81-1.301-5.343-2.557
				c-0.051,0.395-0.101,0.786-0.152,1.18c1.182-0.791,2.421-1.033,3.718-0.729c0.603,0.065,0.885-0.675,0.647-1.128
				c-3.195-6.096-2.523-13.752,5.634-14.5C102.84,95.149,102.85,93.649,101.885,93.737z"/>
		</g>
	</g>
	<g>
		<path fill="#FFFFFF" d="M152.412,97.569c-9.34-4.155-13.994,4.299-13.713,11.949l0,0c-1.35-0.972-2.84-1.793-4.35-1.209
			c0.873,2.521,4.354,6.047,6.678,7.359c0.533-0.924,0.586-2.018,0.146-3.273l-0.231-0.785c6.455,0.332,14.156-5.854,12.224-12.771
			L152.412,97.569z"/>
		<g>
			<path fill="#45A588" d="M152.611,96.846c-9.209-3.697-14.766,4.026-14.662,12.671c0.376-0.218,0.752-0.434,1.129-0.647
				c-1.73-1.136-2.924-1.63-4.928-1.286c-0.525,0.09-0.619,0.701-0.447,1.104c1.365,3.179,4.046,5.81,6.945,7.629
				c0.441,0.276,0.938-0.014,1.104-0.448c0.618-1.625,0.4-2.81-0.087-4.456c-0.241,0.314-0.481,0.633-0.724,0.947
				c7.197,0.029,16.705-7.428,12.117-15.167c-0.492-0.831-1.789-0.077-1.295,0.757c4.021,6.781-4.826,12.936-10.822,12.912
				c-0.48-0.002-0.861,0.48-0.726,0.949c0.368,1.242,0.681,2.103,0.089,3.66c0.365-0.15,0.733-0.3,1.102-0.449
				c-2.688-1.687-5.146-4.149-6.408-7.09c-0.148,0.365-0.299,0.732-0.448,1.102c1.459-0.137,2.716,0.24,3.771,1.134
				c0.479,0.315,1.138-0.099,1.131-0.646c-0.092-7.646,4.433-14.57,12.764-11.227C153.111,98.653,153.497,97.201,152.611,96.846z"/>
		</g>
	</g>
	<g>
		<path fill="#FFFFFF" d="M150.414,67.624c12.673-2.827,16.343,8.873,14.068,18.329l0,0c1.922-0.869,3.984-1.52,5.72-0.413
			c-1.724,2.92-6.945,6.435-10.171,7.481c-0.43-1.281-0.219-2.651,0.646-4.11l0.485-0.918c-8.122-1.211-16.154-10.852-12.006-18.98
			L150.414,67.624z"/>
		<g>
			<path fill="#45A588" d="M150.613,68.347c11.242-2.076,15.174,7.947,13.146,17.407c-0.106,0.499,0.353,1.152,0.923,0.922
				c1.17-0.838,2.362-0.794,3.58,0.132c-1.162,1.331-2.68,2.337-4.132,3.321c-0.759,0.489-1.541,0.938-2.347,1.345
				c-1.945,1.048-0.084-2.892,0.027-3.103c0.213-0.402,0.047-1.001-0.449-1.102c-7.563-1.535-17.297-11.509-10.418-19.115
				c0.646-0.715-0.409-1.779-1.062-1.061c-4.024,4.452-2.774,10.35,0.437,14.939c1.615,2.307,4.248,4.443,6.853,5.518
				c2.622,1.083,3.446-0.315,2.212,2.412c-0.514,1.134-0.263,2.115-0.074,3.258c0.063,0.378,0.568,0.657,0.922,0.524
				c4.119-1.551,8.09-4.172,10.619-7.826c0.301-0.433-0.031-0.94-0.447-1.102c-2.295-0.888-3.836-0.504-6.117,0.413
				c0.308,0.308,0.613,0.615,0.923,0.922c2.312-10.779-2.623-21.536-14.991-19.251C149.266,67.076,149.668,68.522,150.613,68.347z"
				/>
		</g>
	</g>
	<g>
		<path fill="#FFFFFF" d="M135.243,63.046c-0.836-0.416-1.669-1.082-2.382-1.621c-0.564-0.426-2.152-1.432-2.59-1.692
			c-0.584,0.642-2.266,2.515-3.47,3.796c-0.073,0.079-0.146,0.157-0.219,0.23c0,0-0.658,0.445-0.347-0.708
			c0.189-0.703,0.822-3.768,1.255-4.822c-0.983-0.474-3.327-1.588-3.917-1.871c-0.15-0.081-0.493-0.167-0.676-0.424
			c-0.319-0.45,0.271-0.613,0.271-0.613c0.488-0.016,0.811-0.042,1.467-0.062c1.107-0.035,2.416-0.022,3.537-0.088
			c0,0,0.471-2.052,0.623-2.868c0.133-0.705,0.235-1.45,0.449-2.109c0.179-0.548,0.604-0.091,0.604-0.091
			c0.242,0.787,0.522,1.746,0.633,2.177c0.313,1.226,0.656,1.693,1.06,2.685c1.621-0.187,5.513-0.896,5.653-0.66
			c0.187,0.297,0.027,0.502,0.027,0.502c-1.457,1.122-3.891,2.479-4.66,3.076c1.076,1.55,2.27,3.139,3.078,4.863
			C135.645,62.746,135.707,63.275,135.243,63.046z"/>
		<g>
			<path fill="#44A98D" d="M135.622,62.398c-1.72-1.003-3.271-2.269-4.972-3.313c-0.275-0.17-0.688-0.127-0.908,0.117
				c-0.596,0.655-1.188,1.312-1.782,1.966c-0.38,0.418-0.763,0.835-1.146,1.25c-0.801,0.597-0.726,0.769,0.227,0.516
				c0.377-1.506,0.65-3.041,1.176-4.506c0.105-0.295-0.063-0.71-0.345-0.847c-1.188-0.57-2.377-1.136-3.565-1.703
				c-0.427-0.204-0.979,0.184,0.334,0.13c1.18-0.048,2.358-0.038,3.537-0.088c0.324-0.014,0.647-0.217,0.725-0.551
				c0.324-1.427,0.607-2.858,0.891-4.294c-0.583-0.075-0.646,0.199-0.188,0.821c0.123,0.463,0.256,0.923,0.398,1.379
				c0.213,0.706,0.602,1.395,0.895,2.066c0.094,0.213,0.418,0.401,0.646,0.372c1.609-0.205,3.21-0.49,4.823-0.671
				c0.61,0.049,0.573-0.102-0.104-0.454c-0.437,0.303-0.879,0.596-1.324,0.879c-0.916,0.593-1.861,1.135-2.75,1.767
				c-0.313,0.221-0.521,0.669-0.271,1.026c0.795,1.134,2.009,3.933,3.325,4.035c-0.967-0.075-0.958,1.426,0,1.5
				c0.104,0.008,0.207,0.016,0.311,0.024c0.238,0.019,0.547-0.151,0.647-0.372c0.825-1.803-2.04-4.591-2.988-5.944
				c-0.09,0.342-0.18,0.684-0.271,1.026c1.355-0.964,4.088-1.905,4.932-3.345c0.381-0.65,0.023-1.668-0.805-1.673
				c-0.756-0.005-4.924,0.972-5.17,0.408c-0.578-1.321-0.633-4.225-2.215-4.717c-0.242-0.075-0.562,0.001-0.729,0.193
				c-0.663,0.751-0.705,1.745-0.878,2.708c-0.104,0.583-0.241,1.162-0.368,1.74c-0.284,1.293-0.024,0.606-1.308,0.633
				c-0.734,0.016-4.661-0.534-4.297,1.298c0.256,1.275,4.453,2.842,4.516,2.675c-0.417,1.165-1.791,4.605-0.975,5.767
				c0.217,0.306,0.483,0.396,0.849,0.345c1.228-0.172,2.317-2.103,3.075-2.938c1.091-1.199,0.508-1.145,1.884-0.255
				c1.159,0.75,2.215,1.627,3.409,2.326C135.702,64.182,136.456,62.886,135.622,62.398z"/>
		</g>
	</g>
	<g>
		<path fill="#FFFFFF" d="M136.376,37.603c5.853-4.403,10.462,0.755,11.495,6.143l0,0c0.785-0.895,1.693-1.708,2.843-1.544
			c-0.204,1.901-2.069,4.924-3.483,6.213c-0.519-0.558-0.729-1.312-0.625-2.263l0.035-0.585c-4.455,1.269-10.824-1.814-10.586-6.957
			L136.376,37.603z"/>
		<g>
			<path fill="#45A588" d="M136.755,38.251c5.197-3.549,9.226,0.477,10.394,5.694c0.123,0.55,0.875,0.727,1.254,0.331
				c0.558-0.758,1.326-1.2,2.313-1.325c-0.239-0.316-0.481-0.633-0.724-0.949c-0.402,2.224-1.707,4.298-3.29,5.882
				c0.394,0.051,0.784,0.101,1.178,0.152c-0.621-0.931-0.54-1.584-0.485-2.469c0.028-0.505-0.5-0.829-0.949-0.723
				c-4.057,0.95-11-1.848-9.342-7.041c0.295-0.924-1.154-1.316-1.447-0.398c-2.018,6.323,6.031,10.093,11.188,8.886
				c-0.316-0.241-0.633-0.482-0.949-0.723c-0.076,1.263-0.018,2.162,0.692,3.226c0.267,0.399,0.819,0.509,1.179,0.152
				c1.758-1.76,3.229-4.071,3.676-6.544c0.082-0.451-0.2-0.979-0.724-0.949c-1.502,0.085-2.321,0.665-3.372,1.764
				c0.418,0.11,0.836,0.221,1.254,0.331c-1.396-6.228-6.604-10.685-12.599-6.591C135.204,37.497,135.953,38.798,136.755,38.251z"/>
		</g>
	</g>
	<g>
		<g>
			<path fill="#D5E4E9" d="M167.471,93.281c2.461,2.917,4.25,6.116,7.4,8.367c4.107,2.936,9.283,3.322,13.1,6.884
				c10.094,9.424-2.712,22.259-12.971,22.471c-0.966,0.021-0.968,1.521,0,1.5c9.01-0.188,17.798-6.967,17.906-16.431
				c0.057-4.926-3.624-9.057-7.631-11.364c-3.063-1.763-6.578-2.563-9.646-4.354c-3.115-1.816-4.83-5.443-7.1-8.133
				C167.904,91.48,166.852,92.547,167.471,93.281L167.471,93.281z"/>
		</g>
	</g>
	<g>
		<g>
			<path fill="#D5E4E9" d="M152.801,48.724c10.377,4.052-4.939,12.588-8.354,14.556c-4.646,2.679-8.967,5.895-13.002,9.417
				c-8.295,7.239-14.754,16.719-16.195,27.791c-0.125,0.958,1.377,0.946,1.5,0c2.098-16.106,15.218-27.993,28.455-35.912
				c4.125-2.467,9.02-4.273,11.416-8.709c1.796-3.322-0.166-7.317-3.422-8.588C152.297,46.925,151.91,48.376,152.801,48.724
				L152.801,48.724z"/>
		</g>
	</g>
	<g>
		<g>
			<path fill="#D5E4E9" d="M74.677,79.476c11.263,2.295,16.51,14.796,12.819,25.127c-0.326,0.912,1.124,1.303,1.446,0.396
				c3.955-11.07-1.863-24.526-13.867-26.972C74.132,77.837,73.729,79.283,74.677,79.476L74.677,79.476z"/>
		</g>
	</g>
	<g>
		<g>
			<path fill="#D5E4E9" d="M23,80.001c-0.005,9.444-1.414,59.838,17.699,52.226c0.888-0.354,0.501-1.807-0.398-1.447
				C23.486,137.477,24.495,88.957,24.5,80.001C24.5,79.034,23,79.034,23,80.001L23,80.001z"/>
		</g>
	</g>
</g>
</svg>
