<?xml version="1.0" encoding="utf-8"?>
<!-- Generator: Adobe Illustrator 16.0.0, SVG Export Plug-In . SVG Version: 6.00 Build 0)  -->
<!DOCTYPE svg PUBLIC "-//W3C//DTD SVG 1.1//EN" "http://www.w3.org/Graphics/SVG/1.1/DTD/svg11.dtd">
<svg version="1.1" xmlns="http://www.w3.org/2000/svg" xmlns:xlink="http://www.w3.org/1999/xlink" x="0px" y="0px" width="200px"
	 height="200px" viewBox="0 0 200 200" enable-background="new 0 0 200 200" xml:space="preserve">
<g id="white">
	<polygon fill="#FFFFFF" points="52.65,69.254 78.166,78.778 91.698,84.81 90.329,154.016 79.012,158.955 64.714,163.223 
		24.714,144.81 27.254,78.778 40.315,72.952 	"/>
	<polygon fill="#FFFFFF" points="141.033,112.655 142.832,154.101 162.877,159.875 195.257,148.501 195.257,130.289 
		193.201,109.668 184.794,106.867 171.455,104.066 	"/>
	<polygon fill="#FFFFFF" points="142.832,167.968 134.991,163.223 139.841,159.329 113.991,151.521 99,156.974 98.571,157.666 
		96.032,157.666 94.375,169.271 118.604,171.583 123.65,173.683 	"/>
	<polygon fill="#D6E5EA" points="100.829,159.329 123.65,173.683 143.333,167.968 134.991,163.223 130.347,166.506 123.65,167.65 
		100,158.46 	"/>
	<polyline fill="#D6E5EA" points="26.75,102.75 57,113.5 66.327,118.625 47.875,121.25 6.667,106.667 26.338,102.588 	"/>
</g>
<g id="Layer_1">
	<g>
		<g>
			<g>
				<path fill="#44A587" d="M24.335,145.457c13.145,6.546,26.509,12.617,40,18.413c0.878,0.378,1.644-0.914,0.757-1.295
					c-13.49-5.797-26.855-11.868-40-18.413C24.229,143.732,23.469,145.026,24.335,145.457L24.335,145.457z"/>
			</g>
		</g>
		<g>
			<g>
				<path fill="#44A587" d="M65.23,163.628c8.831-2.021,17.435-4.751,25.477-8.965c0.857-0.449,0.099-1.743-0.757-1.295
					c-7.933,4.156-16.415,6.822-25.119,8.813C63.889,162.396,64.289,163.843,65.23,163.628L65.23,163.628z"/>
			</g>
		</g>
		<g>
			<g>
				<path fill="#44A587" d="M27.055,79.501c13.118,5.301,26.291,10.466,39.365,15.873c0.894,0.37,1.279-1.082,0.398-1.446
					c-13.075-5.407-26.248-10.572-39.365-15.873C26.556,77.692,26.17,79.144,27.055,79.501L27.055,79.501z"/>
			</g>
		</g>
		<g>
			<g>
				<path fill="#44A587" d="M65.869,95.286c0.965,22.456-0.588,44.854-0.952,67.301c-0.016,0.968,1.484,0.966,1.5,0
					c0.364-22.447,1.917-44.846,0.952-67.301C67.328,94.322,65.828,94.318,65.869,95.286L65.869,95.286z"/>
			</g>
		</g>
		<g>
			<g>
				<path fill="#44A587" d="M66.818,95.374c9.009-1.348,16.793-6.396,25.079-9.841c0.88-0.366,0.495-1.818-0.398-1.446
					c-8.28,3.442-16.084,8.496-25.079,9.841C65.466,94.07,65.873,95.516,66.818,95.374L66.818,95.374z"/>
			</g>
		</g>
		<g>
			<g>
				<path fill="#44A587" d="M27.632,79.425c7.92-4.075,16.433-7.753,25.217-9.448c0.949-0.183,0.546-1.629-0.398-1.446
					c-8.895,1.716-17.551,5.471-25.576,9.6C26.015,78.573,26.774,79.867,27.632,79.425L27.632,79.425z"/>
			</g>
		</g>
		<g>
			<g>
				<path fill="#44A587" d="M52.451,69.977c13.026,4.971,26.39,9.191,38.869,15.48c0.861,0.434,1.621-0.86,0.757-1.295
					c-12.595-6.347-26.08-10.614-39.227-15.631C51.944,68.185,51.557,69.636,52.451,69.977L52.451,69.977z"/>
			</g>
		</g>
		<g>
			<g>
				<path fill="#44A587" d="M26.42,103.312c13.123,5.458,27.126,8.665,39.821,15.161c0.859,0.439,1.618-0.854,0.757-1.295
					c-12.811-6.557-26.936-9.805-40.179-15.313C25.925,101.493,25.54,102.945,26.42,103.312L26.42,103.312z"/>
			</g>
		</g>
		<g>
			<g>
				<path fill="#44A587" d="M37.959,89.372c-0.147,0.313-0.294,0.626-0.442,0.939c-0.367,0.433-0.236,1.075,0.331,1.253
					c5.104,1.609,10.611,4.366,16.072,4.154c0.964-0.038,0.968-1.538,0-1.5c-5.294,0.206-10.718-2.538-15.674-4.1
					c0.11,0.418,0.221,0.835,0.331,1.253c0.568-0.671,0.597-0.724,0.828-1.601C39.652,88.834,38.205,88.437,37.959,89.372
					L37.959,89.372z"/>
			</g>
		</g>
		<g>
			<g>
				<path fill="#44A587" d="M90.948,84.81c-1.7,23.045-1.383,46.118-1.369,69.206c0,0.967,1.5,0.968,1.5,0
					c-0.014-23.088-0.331-46.161,1.369-69.206C92.52,83.844,91.019,83.851,90.948,84.81L90.948,84.81z"/>
			</g>
		</g>
		<g>
			<g>
				<path fill="#44A587" d="M26.504,78.778c0.89,11.435-0.572,22.995-0.635,34.441c-0.005,0.968,1.495,0.967,1.5,0
					c0.063-11.446,1.524-23.006,0.635-34.441C27.929,77.82,26.429,77.813,26.504,78.778L26.504,78.778z"/>
			</g>
		</g>
		<g>
			<g>
				<path fill="#44A587" d="M25.464,144.81c0.031-3.384,0.417-6.758,0.286-10.143c-0.038-0.964-1.538-0.968-1.5,0
					c0.131,3.385-0.255,6.759-0.286,10.143C23.955,145.777,25.455,145.776,25.464,144.81L25.464,144.81z"/>
			</g>
		</g>
	</g>
	<g>
		<g>
			<g>
				<path fill="#44A587" d="M192.451,109.668c1.301,12.922,2.052,25.843,2.056,38.833c0,0.968,1.5,0.968,1.5,0
					c-0.004-12.99-0.755-25.911-2.056-38.833C193.855,108.715,192.354,108.706,192.451,109.668L192.451,109.668z"/>
			</g>
		</g>
		<g>
			<g>
				<path fill="#44A587" d="M195.058,147.777c-10.707,3.868-21.515,7.435-32.38,10.828c-0.92,0.288-0.527,1.736,0.398,1.447
					c10.866-3.395,21.673-6.961,32.38-10.828C196.358,148.898,195.97,147.448,195.058,147.777L195.058,147.777z"/>
			</g>
		</g>
		<g>
			<g>
				<path fill="#44A587" d="M162.819,158.418c-6.749-1.118-13.383-2.602-19.788-5.041c-0.905-0.345-1.293,1.106-0.398,1.447
					c6.405,2.438,13.038,3.922,19.788,5.041C163.366,160.021,163.772,158.576,162.819,158.418L162.819,158.418z"/>
			</g>
		</g>
		<g>
			<g>
				<path fill="#44A587" d="M193.002,108.944c-10.621,3.117-21.266,6.152-31.866,9.335c-0.924,0.277-0.53,1.726,0.398,1.447
					c10.602-3.184,21.246-6.219,31.866-9.335C194.326,110.119,193.933,108.672,193.002,108.944L193.002,108.944z"/>
			</g>
		</g>
		<g>
			<g>
				<path fill="#44A587" d="M160.585,119.376c-0.172,13.204,0.485,26.382,0.771,39.579c0.021,0.966,1.521,0.968,1.5,0
					c-0.285-13.197-0.942-26.375-0.771-39.579C162.098,118.408,160.598,118.409,160.585,119.376L160.585,119.376z"/>
			</g>
		</g>
		<g>
			<g>
				<path fill="#44A587" d="M161.335,118.253c-6.989-0.771-13.431-3.741-20.103-5.762c-0.928-0.28-1.322,1.167-0.398,1.447
					c6.816,2.063,13.361,5.027,20.501,5.814C162.296,119.858,162.285,118.357,161.335,118.253L161.335,118.253z"/>
			</g>
		</g>
		<g>
			<g>
				<path fill="#44A587" d="M193.4,108.944c-6.625-2.474-13.541-4.611-20.559-5.602c-0.945-0.133-1.354,1.313-0.398,1.447
					c7.017,0.99,13.933,3.127,20.559,5.602C193.91,110.73,194.298,109.28,193.4,108.944L193.4,108.944z"/>
			</g>
		</g>
		<g>
			<g>
				<path fill="#44A587" d="M171.929,103.157c-10.225,2.822-20.599,5.146-30.581,8.774c-0.901,0.328-0.513,1.778,0.398,1.447
					c9.983-3.63,20.356-5.953,30.581-8.774C173.259,104.347,172.862,102.899,171.929,103.157L171.929,103.157z"/>
			</g>
		</g>
		<g>
			<g>
				<path fill="#44A587" d="M193.516,122.946c-10.411,3.139-21.137,5.183-31.353,8.961c-0.899,0.333-0.511,1.783,0.398,1.447
					c10.216-3.779,20.941-5.823,31.353-8.961C194.838,124.115,194.444,122.667,193.516,122.946L193.516,122.946z"/>
			</g>
		</g>
		<g>
			<g>
				<path fill="#44A587" d="M194.543,135.269c-10.76,2.446-21.048,6.712-31.865,9.148c-0.943,0.213-0.544,1.659,0.398,1.447
					c10.818-2.438,21.105-6.702,31.865-9.148C195.885,136.501,195.484,135.055,194.543,135.269L194.543,135.269z"/>
			</g>
		</g>
		<g>
			<g>
				<path fill="#44A587" d="M183.226,116.215c0.2,0.551,0.262,0.694,0.707,1.078c0.11-0.418,0.221-0.836,0.331-1.254
					c-4.104,0.94-8.398,2.514-12.649,2.4c-0.968-0.025-0.966,1.475,0,1.5c4.396,0.117,8.81-1.482,13.048-2.453
					c0.527-0.121,0.755-0.89,0.331-1.254c-0.106-0.139-0.214-0.277-0.32-0.416C184.346,114.914,182.896,115.304,183.226,116.215
					L183.226,116.215z"/>
			</g>
		</g>
		<g>
			<g>
				<path fill="#44A587" d="M185.476,128.867c0.192,0.325,0.385,0.651,0.577,0.977c0.115-0.282,0.23-0.564,0.345-0.847
					c-3.764,1.651-8.936,3.086-13.042,2.351c-0.945-0.169-1.35,1.276-0.398,1.447c4.553,0.814,10.041-0.679,14.198-2.503
					c0.324-0.142,0.396-0.542,0.345-0.847c-0.127-0.747-0.401-1.139-0.964-1.639C185.816,127.166,184.751,128.224,185.476,128.867
					L185.476,128.867z"/>
			</g>
		</g>
		<g>
			<g>
				<path fill="#44A587" d="M187.594,140.485c0.173,0.436,0.344,0.871,0.515,1.307c0.115-0.282,0.23-0.564,0.345-0.847
					c-3.276,1.992-8.699,3.958-12.527,2.911c-0.935-0.255-1.33,1.192-0.398,1.447c4.271,1.167,10.027-0.84,13.684-3.063
					c0.265-0.161,0.467-0.534,0.345-0.847c-0.172-0.436-0.343-0.871-0.515-1.307C188.69,139.198,187.239,139.585,187.594,140.485
					L187.594,140.485z"/>
			</g>
		</g>
		<g>
			<g>
				<path fill="#44A587" d="M140.283,113.215c0.633,13.626,1.748,27.239,1.799,40.886c0.004,0.967,1.504,0.968,1.5,0
					c-0.051-13.646-1.166-27.26-1.799-40.886C141.738,112.252,140.238,112.247,140.283,113.215L140.283,113.215z"/>
			</g>
		</g>
	</g>
	<g>
		<g>
			<path fill="#44A587" d="M98.372,158.39c8.659,2.366,15.921,8.206,24.825,9.82c7.552,1.368,11.809-4.949,17.765-8.233
				c0.847-0.467,0.09-1.763-0.758-1.295c-2.443,1.348-4.547,3.05-6.716,4.792c-4.141,3.327-7.755,3.922-12.885,2.646
				c-7.683-1.908-14.165-7.081-21.833-9.178C97.836,156.688,97.44,158.135,98.372,158.39L98.372,158.39z"/>
		</g>
	</g>
	<g>
		<g>
			<path fill="#44A587" d="M140.782,158.605c-8.834-2.11-17.67-4.563-26.139-7.869c-0.902-0.352-1.289,1.1-0.398,1.447
				c8.469,3.306,17.304,5.758,26.139,7.869C141.324,160.277,141.723,158.831,140.782,158.605L140.782,158.605z"/>
		</g>
	</g>
	<g>
		<g>
			<path fill="#44A587" d="M114.245,150.736c-5.705,0.813-10.888,3.371-16.052,5.791c-0.875,0.41-0.113,1.703,0.757,1.295
				c5.055-2.368,10.112-4.845,15.694-5.639C115.599,152.047,115.19,150.603,114.245,150.736L114.245,150.736z"/>
		</g>
	</g>
	<g>
		<g>
			<path fill="#44A587" d="M99.955,159.603c7.333,5.543,14.986,10.791,23.316,14.728c0.87,0.411,1.632-0.882,0.758-1.295
				c-8.33-3.938-15.984-9.185-23.317-14.728C99.94,157.724,99.194,159.027,99.955,159.603L99.955,159.603z"/>
		</g>
	</g>
	<g>
		<g>
			<path fill="#44A587" d="M124.167,174.406c6.369-2.207,12.813-4.127,19.365-5.715c0.94-0.229,0.541-1.675-0.398-1.447
				c-6.552,1.589-12.996,3.509-19.365,5.715C122.86,173.274,123.251,174.724,124.167,174.406L124.167,174.406z"/>
		</g>
	</g>
	<g>
		<g>
			<path fill="#44A587" d="M143.85,166.927c-2.854-0.41-5.152-2.096-7.439-3.733c-0.789-0.564-1.536,0.737-0.758,1.295
				c2.388,1.709,4.822,3.457,7.799,3.886C144.396,168.51,144.804,167.064,143.85,166.927L143.85,166.927z"/>
		</g>
	</g>
	<g>
		<g>
			<path fill="#44A587" d="M94.127,169.988c8.4,1.046,16.92,0.882,25.251,2.513c0.944,0.185,1.348-1.261,0.398-1.447
				c-8.463-1.655-17.115-1.503-25.649-2.565C93.168,168.369,93.18,169.87,94.127,169.988L94.127,169.988z"/>
		</g>
	</g>
	<g>
		<g>
			<path fill="#44A587" d="M94.877,169.238c0.445-3.806,1.069-7.628,1.878-11.373c-0.241,0.184-0.482,0.367-0.723,0.551
				c1.434,0.164,2.868,0.328,4.302,0.492c0.96,0.109,0.95-1.392,0-1.5c-1.434-0.164-2.868-0.328-4.302-0.492
				c-0.313-0.036-0.659,0.254-0.723,0.551c-0.837,3.877-1.471,7.832-1.932,11.771C93.265,170.198,94.766,170.188,94.877,169.238
				L94.877,169.238z"/>
		</g>
	</g>
	<g>
		<path fill="#FFFFFF" d="M47.875,121.25c2.5-1.125,6.25-0.5,8.875-0.75c3.125-0.25,6.25-1.125,9.25-1.875l0.25,0.25"/>
		<g>
			<path fill="#44A587" d="M48.074,121.974c3.193-1.111,6.695-0.512,10.015-0.867c1.001-0.106,7.326-2.006,7.631-1.701
				c0.685,0.685,1.745-0.376,1.061-1.061c-1.316-1.316-4.68,0.483-6.222,0.825c-4.245,0.941-8.779-0.071-12.883,1.356
				C46.768,120.843,47.158,122.292,48.074,121.974L48.074,121.974z"/>
		</g>
	</g>
	<g display="none">
		<path display="inline" fill="#FFFFFF" d="M42.291,127.701c0.994-1.18,1.82-2.743,2.545-4.028c0.576-1.022,2.323-3.595,2.814-4.277
			c1.309,0.589,5.096,2.322,7.767,3.473c0.166,0.071,0.327,0.14,0.483,0.206c0,0,1.292,0.241,0.057-1.302
			c-0.752-0.941-3.735-5.176-5.082-6.49c1.179-1.367,4.001-4.604,4.709-5.423c0.173-0.222,0.636-0.579,0.745-1.089
			c0.19-0.894-0.819-0.751-0.819-0.751c-0.751,0.299-1.255,0.472-2.268,0.874c-1.703,0.678-3.676,1.559-5.421,2.199
			c0,0-2.067-2.803-2.837-3.939c-0.665-0.984-1.314-2.049-2.074-2.906c-0.633-0.715-0.976,0.261-0.976,0.261
			c0.153,1.352,0.359,2.992,0.477,3.721c0.334,2.065,0.12,3.002,0.164,4.771c-2.582,0.787-8.952,2.275-9.017,2.729
			c-0.082,0.571,0.292,0.778,0.292,0.778c2.95,0.743,7.536,1.198,9.099,1.594c-0.61,3.063-1.37,6.261-1.464,9.408
			C41.485,127.509,41.74,128.355,42.291,127.701z"/>
		<g display="inline">
			<path fill="#44A98D" d="M42.938,128.08c1.354-1.847,2.404-3.858,3.643-5.779c1.397-2.167,1.146-2.051,3.456-1.006
				c1.698,0.769,4.585,2.978,6.555,2.431c0.239-0.067,0.472-0.272,0.524-0.524c0.454-2.198-3.329-5.598-4.612-7.209
				c-1.782-2.235,4.576-4.621,4.576-7.222c0-3.006-4.248-0.514-5.357-0.061c-0.199,0.081-3.716,1.377-3.411,1.791
				c-0.742-1.008-1.475-2.021-2.203-3.04c-0.956-1.337-1.801-3.385-3.354-4.111c-0.327-0.153-0.633-0.121-0.909,0.117
				c-2.395,2.068,2.433,8.296-1.193,9.298c-1.417,0.391-7.32,0.956-7.817,2.765c-0.774,2.813,5.79,2.614,7.126,2.813
				c1.053,0.156,2.216-0.203,1.95,1.102c-0.331,1.625-0.696,3.26-0.891,4.908c-0.156,1.314-0.849,3.104,0.286,4.121
				c0.261,0.233,0.597,0.283,0.909,0.117c0.151-0.08,0.303-0.161,0.454-0.241c0.855-0.453,0.097-1.748-0.757-1.295
				c1.066-0.565,1.444-7.205,1.759-8.754c0.078-0.381-0.104-0.834-0.524-0.923c-1.333-0.281-2.682-0.466-4.029-0.666
				c-0.75-0.111-3.549-1.02-4.106-0.826c2.532-0.878,5.19-1.412,7.761-2.162c0.322-0.095,0.55-0.386,0.551-0.724
				c0.003-1.136,0.027-2.267-0.003-3.402c-0.017-0.625-1.291-5.448,0.35-3.065c1.146,1.664,2.303,3.313,3.501,4.94
				c0.186,0.253,0.514,0.473,0.847,0.345c1.377-0.532,2.74-1.092,4.102-1.66c0.084-0.035,3.112-1.023,2.933-0.827
				c-1.608,1.771-3.145,3.613-4.709,5.423c-0.274,0.316-0.295,0.746,0,1.061c1.838,1.961,3.331,4.211,4.965,6.339
				c0.907,0.173,0.668,0.021-0.717-0.454c-0.856-0.377-1.71-0.758-2.563-1.141c-1.336-0.598-2.667-1.206-4.001-1.809
				c-0.397-0.18-0.772-0.093-1.026,0.269c-1.893,2.705-3.412,5.65-5.359,8.306C41.07,128.104,42.373,128.852,42.938,128.08z"/>
		</g>
	</g>
	<g>
		<g>
			<path fill="#44A587" d="M25.875,102.125c-6.492,0.65-12.644,2.905-19.074,3.901c-0.789,0.123-0.639,1.236,0,1.447
				c6.54,2.156,13.079,4.313,19.619,6.469c0.467,0.153,0.949-0.255,0.949-0.724c0-3.544,0-7.087,0-10.631
				c0-0.451-0.486-0.901-0.949-0.724c-0.248,0.096-0.496,0.191-0.744,0.287c-0.893,0.345-0.505,1.796,0.398,1.447
				c0.248-0.096,0.496-0.191,0.744-0.287c-0.316-0.241-0.633-0.482-0.949-0.724c0,3.544,0,7.087,0,10.631
				c0.316-0.241,0.633-0.482,0.949-0.724c-6.54-2.156-13.079-4.313-19.619-6.469c0,0.482,0,0.965,0,1.447
				c6.296-0.976,12.321-3.212,18.676-3.849C26.828,103.529,26.837,102.028,25.875,102.125z"/>
		</g>
	</g>
	<g>
		<g>
			<g>
				<path fill="#D6E5EA" d="M36.422,123.359c0.374,1.219,0.71,2.487,2.023,2.565c2.651,0.27,2.809-1.095,3.743-2.823"/>
				<g>
					<path fill="#44A98D" d="M35.699,123.559c0.275,0.898,0.548,1.761,1.191,2.468c0.673,0.74,1.915,0.747,2.821,0.634
						c1.802-0.227,2.378-1.761,3.125-3.18c0.45-0.855-0.845-1.614-1.295-0.758c-0.414,0.787-0.72,1.862-1.533,2.326
						c-0.498,0.284-1.619,0.269-2.057-0.083c-0.489-0.393-0.632-1.24-0.805-1.806C36.863,122.237,35.415,122.631,35.699,123.559
						L35.699,123.559z"/>
				</g>
			</g>
			<g>
				<path fill="#FFFFFF" d="M21.411,89.777c-3.048,0.641-8,3.451-8.527,7.098C11.53,92.68,6.58,91.01,2.539,91.977
					c-0.844,6.072,4.044,8.581,9.393,9.342l0.049,0.225c1.518,7.228,5.094,11.897,11.25,16.498
					c7.782,4.493,14.479,4.105,22.302,2.617c7.511-1.428,17.153-7.851,13.53-17.226c-6.392-5.73-16.468-4.317-23.042-0.815
					c-3.197,1.617-6.572,3.507-10.279,3.814c-3.708,0.307-10.963,1.686-10.912-5.721c4.612-0.499,9.119-6.164,6.809-10.982"/>
				<g>
					<path fill="#44A98D" d="M21.212,89.054c-3.965,1.051-7.94,3.456-9.051,7.622c0.457-0.06,0.914-0.12,1.371-0.179
						c-1.973-4.578-6.502-6.043-11.192-5.242c-0.341,0.058-0.529,0.414-0.551,0.723c-0.413,5.796,3.451,8.646,8.719,9.858
						c1.334,0.307,2.648,5.819,3.668,7.692c1.756,3.225,4.527,5.821,7.327,8.123c9.1,7.48,29.621,6.782,36.768-3.572
						c2.947-4.27,3.57-9.88-1.087-12.944c-5.542-3.647-13.243-2.536-19.052-0.322c-4.423,1.686-19.003,10.268-22.278,2.085
						c-0.61-1.525,4.359-3.863,5.216-5.125c1.81-2.665,2.372-5.154,1.291-8.242c-0.317-0.907-1.767-0.517-1.446,0.398
						c1.678,4.79-1.552,9.077-6.285,10.06c-0.311,0.064-0.569,0.408-0.551,0.723c0.345,6.069,4.798,7.083,10.126,6.617
						c10.286-0.899,17.701-8.922,28.632-6.401c9.24,2.131,6.605,11.084,0.977,15.392c-4.193,3.209-9.67,4.026-14.763,4.509
						c-12.787,1.21-23.696-7.407-26.396-19.707c-0.051-0.232-0.283-0.483-0.524-0.524c-3.225-0.547-6.357-1.448-8.249-4.352
						c-2.505-3.847,1.013-3.958,3.455-3.446c2.358,0.495,3.991,2.345,4.9,4.455c0.267,0.621,1.217,0.396,1.371-0.179
						c0.978-3.665,4.57-5.663,8.003-6.574C22.545,90.252,22.148,88.806,21.212,89.054L21.212,89.054z"/>
				</g>
			</g>
		</g>
		<g>
			<path fill="#D6E5EA" d="M59.008,104.314c3.93,9.435-6.671,15.07-14.293,16.674c-4.065,0.854-8.173,0.657-12.148,0.255
				c-4.349-0.499-7.9-2.664-11.032-4.526c4.946,2.498,13.011,3.006,18.092,1.938c4.742-0.997,9.318-1.978,13.294-4.935
				C55.549,111.93,58.874,107.882,59.008,104.314z"/>
			<g>
				<path fill="#44A98D" d="M58.285,104.514c2.957,8.348-4.727,13.062-11.63,15.214c-8.543,2.665-17.264,0.776-24.742-3.658
					c-0.252,0.432-0.504,0.863-0.757,1.295c11.517,5.222,36.337,2.926,38.575-12.851c0.134-0.945-1.311-1.354-1.446-0.398
					c-2.077,14.645-25.642,16.818-36.372,11.954c-0.864-0.392-1.605,0.792-0.757,1.295c9.058,5.372,19.266,6.611,29.21,2.632
					c6.753-2.702,12.027-8.366,9.364-15.881C59.41,103.21,57.961,103.6,58.285,104.514z"/>
			</g>
		</g>
		<g>
			<path fill="#D6E5EA" d="M41.599,102.811c-1.488,0.489-1.337,2.05,0.321,1.522C43.578,103.808,43.005,102.071,41.599,102.811"/>
			<g>
				<path fill="#44A98D" d="M41.4,102.087c-0.931,0.335-1.7,1.038-1.538,2.099c0.169,1.102,1.604,1.099,2.387,0.825
					c0.89-0.31,1.645-1.153,1.373-2.146c-0.302-1.101-1.56-1.111-2.401-0.702c-0.87,0.423-0.109,1.717,0.757,1.295
					c0.123-0.06,0.212-0.078,0.321-0.076c-0.048-0.001-0.146-0.062-0.021,0.013c-0.062-0.037-0.077-0.064-0.103-0.13
					c0.049,0.126,0.012,0.015,0.021-0.048c-0.022,0.161,0.044-0.035-0.041,0.119c-0.04,0.071-0.195,0.183-0.305,0.229
					c-0.211,0.088-0.423,0.131-0.649,0.122c0.041,0.001,0.103,0.045-0.015-0.024c0.051,0.03,0.106,0.062,0.123,0.124
					c0.044,0.157-0.002,0.088,0.056,0.021c0.113-0.133,0.271-0.215,0.434-0.272C42.702,103.209,42.312,101.759,41.4,102.087
					L41.4,102.087z"/>
			</g>
		</g>
		<g>
			<g>
				<path fill="#44A98D" d="M51.259,109.566c0.092,0.057,0.114,0.071,0.066,0.042c-0.093-0.081-0.076-0.313-0.063-0.39
					c0.019-0.098,0.085-0.179,0.165-0.233c-0.141,0.096,0.149-0.042-0.02,0.006c0.11-0.009,0.122-0.011,0.038-0.006
					c-0.142,0.007,0.098,0.024,0.135,0.043c0.104,0.054,0.213,0.2,0.217,0.327c0.004,0.142,0.049-0.11,0.056-0.13
					c-0.115,0.149-0.229,0.299-0.345,0.448c0.152-0.09,0.091,0.013-0.072-0.031c0.934,0.256,1.33-1.191,0.398-1.447
					c-0.849-0.232-1.464,0.358-1.538,1.16c-0.061,0.663,0.522,1.053,1.095,1.128c0.464,0.061,1.004-0.247,1.225-0.645
					c0.35-0.628-0.07-1.234-0.603-1.567C51.193,107.756,50.441,109.055,51.259,109.566z"/>
			</g>
		</g>
	</g>
	<g>
		<path fill="#FFFFFF" d="M47.667,121c-7-2-12.542-4.833-19.208-7.166c-7-2.333-15.125-5.167-21.792-7.167
			c0,6.333-0.333,13.666-0.667,20c13.333,5,27.667,13.333,41.667,15.333c1.333-6.667,0-14,0.333-21"/>
		<g>
			<path fill="#45A588" d="M47.866,120.276c-6.563-1.97-12.772-4.846-19.208-7.166c-7.181-2.588-14.489-4.944-21.792-7.167
				c-0.47-0.143-0.947,0.246-0.949,0.724c-0.028,6.673-0.321,13.337-0.667,20c-0.019,0.354,0.248,0.607,0.551,0.724
				c13.803,5.293,26.901,12.964,41.667,15.333c0.369,0.059,0.85-0.09,0.922-0.524c1.175-7.041,0.154-14.11,0.36-21.199
				c0.028-0.968-1.472-0.965-1.5,0c-0.138,4.722,0.235,9.428,0.271,14.148c0.02,2.529,0.379,6.191-3.021,5.531
				c-2.869-0.557-5.672-1.447-8.443-2.36c-5.682-1.871-11.153-4.37-16.615-6.793c-1.677-0.743-12.726-4.211-12.609-6.463
				c0.233-4.494,0.416-8.991,0.526-13.49c0.061-2.482-0.725-4.143,2.279-3.206c2.833,0.885,5.648,1.83,8.463,2.771
				c9.859,3.296,19.423,7.602,29.366,10.586C48.396,122.002,48.79,120.554,47.866,120.276L47.866,120.276z"/>
		</g>
	</g>
	<g>
		<g>
			<path fill="#44A587" d="M17.612,114.993c-0.76,0.93-1.027,1.579-1.172,2.753c-0.032,0.256,0.166,0.523,0.372,0.647
				c4.713,2.847,11.855,5.569,17.403,4.203c0.939-0.231,0.541-1.678-0.398-1.447c-2.725,0.672-5.604-0.046-8.252-0.754
				c-1.451-0.388-2.864-0.906-4.261-1.452c-1.368-0.533-4.121-1.065-2.63-2.89C19.279,115.312,18.225,114.244,17.612,114.993
				L17.612,114.993z"/>
		</g>
	</g>
	<g>
		<path fill="#FFFFFF" d="M66,138.625l0.125,0.5c-6,0.375-11.875,3.625-18.25,2.875H48"/>
		<g>
			<path fill="#44A587" d="M65.277,138.824c0.042,0.167,0.083,0.334,0.125,0.5c0.241-0.316,0.482-0.633,0.723-0.949
				c-6.187,0.574-11.955,3.365-18.25,2.875c0,0.5,0,1,0,1.5c0.042,0,0.083,0,0.125,0c0.967,0,0.967-1.5,0-1.5
				c-0.042,0-0.083,0-0.125,0c-0.979,0-0.952,1.426,0,1.5c6.325,0.492,12.043-2.299,18.25-2.875c0.488-0.045,0.85-0.444,0.723-0.949
				c-0.042-0.167-0.083-0.334-0.125-0.5C66.489,137.487,65.042,137.886,65.277,138.824L65.277,138.824z"/>
		</g>
	</g>
	<g display="none">
		<path display="inline" fill="#FFFFFF" d="M62.754,44.726c-0.418-18.179-19.139-20.51-32.366-15.153l0,0
			c0.593-2.863,0.807-5.865-1.469-8.002c-3.71,3.065-7.033,11.103-7.417,15.804c2.061,0.3,4.024-0.315,5.876-1.848l1.189-0.89
			c4.759,10.942,22.008,19.782,32.577,12.15L62.754,44.726z"/>
		<g display="inline">
			<path fill="#45A588" d="M63.504,44.726C62.631,26.888,44.402,23.357,30.189,28.85c0.307,0.308,0.615,0.615,0.922,0.922
				c0.602-3.392,0.587-6.015-1.662-8.732c-0.268-0.324-0.783-0.257-1.061,0c-4.39,4.065-6.936,10.475-7.636,16.334
				c-0.05,0.417,0.379,0.737,0.75,0.75c2.534,0.088,4.142-0.485,6.255-1.951c0.984-0.682,0.381-0.698,0.662-0.107
				c0.516,1.087,1.231,2.073,1.926,3.048c2.827,3.964,7.012,6.882,11.354,8.949c6.954,3.311,16.498,3.708,21.585-2.807
				c0.588-0.753-0.466-1.822-1.061-1.061c-9.157,11.727-28.066,0.481-33.008-9.938c-0.161-0.34-0.718-0.5-1.026-0.269
				c-0.858,0.642-1.716,1.255-2.599,1.867c-4.732,3.282-2.204-3.449-1.946-4.217c0.715-2.131,1.756-4.113,2.896-6.039
				c0.611-0.995,1.317-1.918,2.121-2.77c1.393,2.072,1.727,4.253,1.003,6.543c-0.089,0.5,0.337,1.149,0.922,0.922
				c13.13-5.075,30.587-2.504,31.417,14.43C62.052,45.689,63.552,45.693,63.504,44.726z"/>
		</g>
	</g>
	<g>
		<path fill="#FFFFFF" d="M154.374,79.91c-3.812,3.64,2.601,7.799,5.2,4.16C162.693,79.391,156.975,77.311,154.374,79.91"/>
		<g>
			<path fill="#44A98D" d="M153.844,79.38c-1.696,1.705-1.892,4.143,0.044,5.755c1.798,1.499,4.513,1.457,6.074-0.348
				c1.473-1.702,1.884-4.573-0.174-5.986C157.96,77.544,155.421,77.888,153.844,79.38c-0.704,0.666,0.358,1.725,1.061,1.061
				c0.97-0.917,2.461-1.19,3.682-0.615c1.685,0.793,1.143,2.61,0.341,3.866c-0.846,1.324-2.643,1.21-3.819,0.489
				c-1.531-0.938-1.353-2.585-0.203-3.74C155.587,79.754,154.526,78.693,153.844,79.38L153.844,79.38z"/>
		</g>
	</g>
	<g>
		<path fill="#FFFFFF" d="M71.609,10.551c-4.808,4.591,3.28,9.837,6.559,5.246C82.102,9.896,74.889,7.272,71.609,10.551"/>
		<g>
			<path fill="#44A98D" d="M71.079,10.021c-2.07,2.08-2.304,5.016,0.055,6.982c2.191,1.827,5.489,1.752,7.384-0.438
				c1.769-2.044,2.305-5.536-0.179-7.243C76.106,7.786,73.008,8.196,71.079,10.021c-0.704,0.666,0.358,1.725,1.061,1.061
				c1.292-1.222,3.26-1.57,4.881-0.807c2.228,1.049,1.566,3.473,0.5,5.144c-1.125,1.76-3.505,1.656-5.086,0.687
				c-2.038-1.25-1.835-3.477-0.295-5.024C72.823,10.395,71.762,9.334,71.079,10.021L71.079,10.021z"/>
		</g>
	</g>
	<g>
		<path fill="#FFFFFF" d="M66.11,36.826c-5.504-14.79-21.517-11.388-30.843-3.239l0,0c-0.325-2.517-1.003-5.039-3.476-6.146
			c-2.173,3.566-2.616,11.101-1.596,15.065c1.775-0.34,3.211-1.401,4.294-3.184l0.722-1.067c7.008,7.621,23.663,9.975,30.163,0.717
			L66.11,36.826z"/>
		<g>
			<path fill="#45A588" d="M66.833,36.626c-5.934-14.527-21.811-12.211-32.096-3.57c0.418,0.11,0.835,0.221,1.253,0.331
				c-0.466-2.937-1.243-5.027-3.82-6.594c-0.337-0.205-0.839-0.089-1.026,0.269c-2.44,4.666-2.749,10.552-1.671,15.643
				c0.083,0.392,0.549,0.639,0.922,0.524c1.476-0.455,2.908-1.019,3.864-2.327c1.723-2.356,0.85-1.324,3.037,0.189
				c3.369,2.33,7.28,3.946,11.373,4.416c7.121,0.817,15.605-1.005,18.164-8.482c0.314-0.917-1.135-1.308-1.446-0.398
				c-4.133,12.076-22.782,8.057-29.644,1.098c-0.357-0.362-0.911-0.243-1.178,0.152c-0.567,0.838-3.521,5.021-3.871,3.37
				c-0.343-1.621-0.276-3.362-0.243-5.009c0.037-1.79,0.359-3.556,0.753-5.295c0.846-3.733,3.113,1.419,3.339,2.844
				c0.097,0.61,0.871,0.652,1.253,0.331c9.273-7.791,24.085-10.567,29.589,2.908C65.748,37.908,67.2,37.522,66.833,36.626z"/>
		</g>
	</g>
	<g>
		<path fill="#FFFFFF" d="M161.655,59.511c4.346-11.675,16.984-8.989,24.347-2.557l0,0c0.257-1.987,0.792-3.978,2.743-4.851
			c1.716,2.815,2.065,8.763,1.26,11.893c-1.4-0.269-2.534-1.106-3.39-2.514l-0.57-0.842c-5.531,6.016-18.679,7.874-23.811,0.566
			L161.655,59.511z"/>
		<g>
			<path fill="#45A588" d="M162.379,59.71c4.404-10.522,15.81-8.28,23.093-2.226c0.386,0.321,1.152,0.279,1.254-0.331
				c-0.035-1.376,0.686-2.321,2.163-2.833c0.353,1.178,0.58,2.382,0.682,3.612c0.244,2.037,0.181,6.847-2.878,2.33
				c-0.269-0.397-0.818-0.51-1.178-0.152c-5.359,5.34-19.904,8.659-23.136-0.797c-0.312-0.91-1.761-0.519-1.447,0.398
				c1.948,5.7,8.156,7.271,13.661,6.91c3.318-0.217,6.512-1.468,9.313-3.202c0.996-0.617,1.784-1.968,2.063-1.558
				c1.058,1.563,2.096,2.25,3.838,2.858c0.367,0.128,0.845-0.142,0.923-0.524c0.836-4.115,0.587-8.687-1.336-12.47
				c-0.18-0.354-0.697-0.481-1.026-0.269c-2.064,1.327-2.69,2.909-3.088,5.299c0.418-0.11,0.836-0.221,1.254-0.331
				c-8.317-6.914-20.764-8.666-25.601,2.888C160.559,60.204,162.011,60.589,162.379,59.71z"/>
		</g>
	</g>
	<g display="none">
		<path display="inline" fill="#FFFFFF" d="M99.754,73.614c4.561-15.107-10.25-22.082-22.604-21.232l0,0
			c1.263-2.201,2.249-4.62,0.948-6.996c-3.887,1.526-8.797,7.259-10.382,11.033c1.62,0.802,3.405,0.826,5.346,0.061l1.221-0.413
			c0.972,10.308,12.813,22.254,23.588,18.812L99.754,73.614z"/>
		<g display="inline">
			<path fill="#45A588" d="M100.477,73.813c4.019-15.065-10.008-22.83-23.327-22.181c0.216,0.376,0.432,0.752,0.647,1.128
				c1.378-2.615,2.06-4.738,1.024-7.574c-0.176-0.482-0.64-0.666-1.102-0.448c-4.682,2.2-8.469,6.679-10.651,11.302
				c-0.218,0.461-0.033,0.926,0.448,1.102c1.38,0.505,2.827,0.932,4.318,0.487c2.706-0.808,1.711-0.472,2.477,2.245
				c1.121,3.975,3.712,7.462,6.559,10.369c4.867,4.969,13.052,8.191,19.262,4.019c0.798-0.536,0.048-1.836-0.757-1.295
				C88.804,80.07,76.34,65.854,75.033,56.067c-0.06-0.45-0.438-0.896-0.949-0.723c-1.279,0.433-2.394,0.807-3.815,0.943
				c-3.32,0.319,0.946-4.087,1.376-4.63c0.875-1.104,1.895-2.078,2.917-3.042c0.893-0.824,1.868-1.529,2.925-2.117
				c0.604,2.008,0.277,3.843-0.984,5.504c-0.251,0.477,0.053,1.157,0.647,1.128c12.209-0.595,25.659,6.119,21.881,20.283
				C98.781,74.351,100.228,74.748,100.477,73.813z"/>
		</g>
	</g>
	<g display="none">
		<path display="inline" fill="#FFFFFF" d="M123.798,141.85c5.924-4.476,2.232-11.235-2.699-14.34l0,0
			c1.09-0.485,2.136-1.131,2.302-2.395c-1.902-0.498-5.357,0.318-7.007,1.313c0.393,0.754,1.064,1.259,2.015,1.505l0.578,0.184
			c-2.49,4.187-1.304,12.011,3.746,13.691L123.798,141.85z"/>
		<g display="inline">
			<path fill="#45A588" d="M124.328,142.38c5.864-4.907,2.593-11.854-2.851-15.518c0,0.432,0,0.863,0,1.295
				c1.411-0.711,2.159-1.366,2.646-2.843c0.118-0.36-0.135-0.855-0.524-0.923c-2.594-0.448-5.273,0.168-7.585,1.389
				c-0.336,0.178-0.502,0.704-0.269,1.026c0.833,1.15,1.677,1.6,3.041,2.033c-0.149-0.367-0.299-0.735-0.448-1.103
				c-2.571,4.835-1.455,14.59,5.459,14.862c0.968,0.038,0.964-1.462,0-1.5c-5.716-0.226-6.172-8.83-4.164-12.604
				c0.233-0.438,0.025-0.952-0.448-1.103c-0.854-0.271-1.481-0.428-2.145-1.344c-0.09,0.343-0.18,0.685-0.269,1.026
				c1.921-1.015,4.261-1.612,6.429-1.236c-0.175-0.308-0.35-0.615-0.524-0.923c-0.377,0.978-1.029,1.626-1.957,1.946
				c-0.535,0.27-0.436,1.002,0,1.295c4.653,3.131,7.631,8.907,2.548,13.162C122.524,141.94,123.592,142.996,124.328,142.38z"/>
		</g>
	</g>
	<g display="none">
		<path display="inline" fill="#FFFFFF" d="M118.022,111.923c8.489-9.665-0.138-19.846-9.589-23.394l0,0
			c1.682-1.206,3.23-2.667,3.069-4.869c-3.4-0.183-8.979,2.41-11.433,4.673c0.932,1.143,2.247,1.764,3.944,1.853l1.046,0.107
			c-2.764,7.975,1.979,20.84,11.137,21.93L118.022,111.923z"/>
		<g display="inline">
			<path fill="#45A588" d="M118.553,112.453c8.044-10.135,0.471-20.382-9.92-24.647c0.11,0.418,0.221,0.835,0.331,1.253
				c1.984-1.534,3.093-2.869,3.289-5.399c0.031-0.401-0.364-0.759-0.75-0.75c-4.367,0.103-8.643,2.131-11.963,4.893
				c-0.313,0.26-0.271,0.793,0,1.061c0.97,0.956,1.788,1.436,3.074,1.879c2.099,0.724,1.638-0.652,1.187,1.437
				c-0.769,3.563-0.024,7.387,1.17,10.755c1.967,5.549,7.037,10.734,13.251,9.711c0.953-0.157,0.547-1.603-0.398-1.447
				c-10.192,1.68-14.287-13.222-12.039-20.707c0.151-0.505-0.256-0.901-0.724-0.949c-0.685-0.066-1.367-0.148-2.048-0.247
				c-3.406-0.471,1.507-2.973,1.541-2.991c1.173-0.585,2.387-1.059,3.644-1.421c2.94-0.948,0.837,2.24-0.294,3.114
				c-0.501,0.387-0.119,1.069,0.331,1.253c9.105,3.738,16.627,12.855,9.258,22.14C116.897,112.142,117.951,113.211,118.553,112.453z
				"/>
		</g>
	</g>
</g>
<g id="extra">
	<g>
		<g>
			<path fill="#FFFFFF" d="M127.161,103.211c-0.967-0.591-1.827-1.575-2.795-2.166l-0.327-0.135
				c-8.156,3.39-16.39,6.812-24.546,10.201c-0.078,0.032-0.078,0.032-0.078,0.032l0.032,0.078c0,1.083-0.437,1.986-0.252,3.082l0,0
				c0.689,2.963,2.385,5.957,3.537,8.728c1.023,2.463,1.848,5.099,3.147,7.355l0.236,0.354c1.718,0.008,4.02-1.4,5.56-2.04
				c1.923-0.8,3.847-1.599,5.771-2.398c4.002-1.663,7.767-3.679,11.768-5.342c1.309-0.544,2.431-1.101,3.63-1.688l0.244-0.282
				c-0.497-2.501-1.835-5.283-2.64-7.656c-0.935-2.681-2.207-5.31-3.295-7.927"/>
			<g>
				<path fill="#44A587" d="M127.54,102.563c-4.094-3.02-3.758-2.353-8.953-0.193c-6.457,2.684-12.907,5.384-19.372,8.05
					c-0.34,0.141-0.693,0.513-0.524,0.923c0.411,0.995-0.173,3.323,0.202,4.644c0.448,1.575,1.239,3.108,1.916,4.588
					c1.555,3.398,2.562,7.407,4.659,10.545c0.208,0.311,0.49,0.393,0.847,0.345c3.911-0.53,7.714-2.936,11.33-4.438
					c4.849-2.016,9.645-4.288,14.394-6.528c1.958-0.924,1.92-1.123,1.384-3.236c-1.236-4.868-3.655-9.623-5.622-14.233
					c-0.378-0.887-1.67-0.122-1.295,0.758c1.739,4.075,3.374,8.169,4.946,12.312c0.641,1.688,1.552,2.264-0.17,3.105
					c-1.912,0.934-3.893,1.727-5.829,2.605c-4.17,1.893-8.304,3.812-12.534,5.569c-1.271,0.528-2.508,1.077-3.749,1.672
					c-2.549,1.222-2.271,1.67-3.371-0.436c-1.69-3.239-2.833-6.914-4.36-10.252c-1.117-2.441-1.578-4.488-1.241-7.14
					c-0.026-0.502-0.194-0.298-0.505,0.613c1.167-0.485,2.333-0.97,3.5-1.455c4.095-1.701,8.189-3.403,12.285-5.105
					c2.337-0.972,4.675-1.942,7.012-2.914c2.173-0.903,2.642,0.279,4.293,1.498C127.563,104.434,128.309,103.131,127.54,102.563
					L127.54,102.563z"/>
			</g>
		</g>
		<polygon fill="#D6E5EA" points="123.625,101.585 100.125,111.667 100.125,113.337 125.375,102.625 		"/>
		<g>
			<g>
				<path fill="#44A587" d="M126.342,102.216c-9.052,3.329-17.907,7.442-26.828,11.149c-0.88,0.366-0.495,1.818,0.398,1.447
					c8.918-3.706,17.775-7.821,26.828-11.149C127.641,103.332,127.252,101.882,126.342,102.216L126.342,102.216z"/>
			</g>
		</g>
		<g>
			<g>
				<path fill="#44A587" d="M128.502,106.191c-9.16,3.801-18.346,7.539-27.504,11.339c-0.88,0.365-0.495,1.817,0.399,1.447
					c9.159-3.801,18.345-7.539,27.504-11.339C129.78,107.273,129.396,105.821,128.502,106.191L128.502,106.191z"/>
			</g>
		</g>
		<g>
			<g>
				<path fill="#44A587" d="M108.59,108.484c-0.275-0.579-1.655-2.679-1.027-3.079c1.003-0.64,2.194-1.065,3.287-1.518
					c1.024-0.423,2.06-0.822,3.099-1.206c1.728-0.639,2.021,1.344,2.46,2.652c0.307,0.912,1.756,0.521,1.447-0.398
					c-0.492-1.462-0.92-3.603-2.624-4.071c-1.279-0.352-3.656,1.12-4.78,1.577c-1.317,0.536-3.18,1.031-4.19,2.086
					c-1.166,1.216,0.5,3.592,1.035,4.715C107.712,110.115,109.004,109.354,108.59,108.484L108.59,108.484z"/>
			</g>
		</g>
	</g>
	<g>
		<g>
			<path fill="#D6E5EA" d="M107.618,73.65c0.669,0.272,0.929,0.91,1.348,1.464c0.652,0.821,1.542,1.474,2.242,2.278
				c0.967,1.167,1.905,2.399,2.984,3.419c0.246,0.235,0.784,0.962,1.105,0.954c0.789-0.019,0.904-0.573,1.142-0.741
				c0.684-0.439,1.266-1.507,1.666-2.197"/>
			<g>
				<path fill="#44A98D" d="M107.239,74.297c0.639,0.391,1.114,1.253,1.612,1.822c0.562,0.64,1.241,1.182,1.826,1.803
					c1.308,1.389,2.38,2.984,3.816,4.26c1.645,1.461,3.65-1.927,4.259-2.978c0.486-0.838-0.811-1.593-1.295-0.757
					c-0.171,0.295-1.695,2.858-2.211,2.401c-0.933-0.829-1.75-1.851-2.545-2.809c-0.883-1.064-1.811-2.009-2.789-2.981
					c-0.73-0.725-1.025-1.511-1.916-2.056C107.169,72.496,106.416,73.793,107.239,74.297L107.239,74.297z"/>
			</g>
		</g>
		<g>
			<path fill="#FFFFFF" d="M107.676,73.24c0.905-2.284,2.408-5.048,3.44-7.431c1.579-3.642,3.35-6.431,4.933-9.831
				c0,0,8.261,3.66,11.485,5.501l-0.183,0.392c-2.561,5.494-5.061,11.545-7.68,17.169l0,0C116,77.924,111.207,74.886,107.676,73.24"
				/>
			<g>
				<path fill="#44A587" d="M108.323,73.619c2.079-4.922,4.482-9.743,6.979-14.463c1.259-2.38-0.127-2.761,2.629-1.513
					c1.952,0.884,3.893,1.794,5.822,2.727c2.488,1.202,3.357,0.24,2.253,2.634c-1.435,3.112-2.785,6.263-4.164,9.4
					c-0.692,1.576-1.397,3.146-2.107,4.713c-0.896,1.979-3.305-0.197-4.477-0.775c-2.429-1.198-4.769-2.566-7.204-3.75
					c-0.866-0.421-1.627,0.872-0.758,1.295c4.058,1.972,7.893,4.404,12.176,5.875c0.293,0.101,0.714-0.057,0.847-0.345
					c2.685-5.825,5.154-11.747,7.862-17.561c0.169-0.363,0.113-0.815-0.269-1.026c-3.713-2.05-7.611-3.78-11.485-5.501
					c-0.35-0.155-0.835-0.127-1.026,0.269c-2.785,5.758-5.881,11.361-8.373,17.262C106.656,73.742,107.948,74.507,108.323,73.619
					L108.323,73.619z"/>
			</g>
		</g>
		<g>
			<g>
				<path fill="#44A587" d="M113.737,57.786c0.177,0.083,0.346,0.169,0.508,0.276c0.811,0.534,1.562-0.766,0.758-1.295
					c-0.163-0.107-0.332-0.193-0.508-0.276C113.625,56.081,112.863,57.374,113.737,57.786L113.737,57.786z"/>
			</g>
		</g>
		<g>
			<g>
				<path fill="#44A587" d="M112.574,60.658c0.139,0.042,0.261,0.09,0.392,0.151c0.872,0.404,1.634-0.888,0.758-1.295
					c-0.246-0.114-0.491-0.226-0.751-0.303C112.043,58.936,111.649,60.383,112.574,60.658L112.574,60.658z"/>
			</g>
		</g>
		<g>
			<g>
				<path fill="#44A587" d="M110.921,63.319c0.156,0.074,0.299,0.151,0.442,0.246c0.811,0.535,1.561-0.765,0.758-1.295
					c-0.145-0.095-0.287-0.172-0.442-0.246C110.809,61.613,110.047,62.906,110.921,63.319L110.921,63.319z"/>
			</g>
		</g>
		<g>
			<g>
				<path fill="#44A587" d="M109.633,65.743c0.24,0.112,0.48,0.224,0.72,0.335c0.871,0.405,1.634-0.887,0.758-1.295
					c-0.24-0.112-0.48-0.223-0.72-0.335C109.52,64.041,108.757,65.334,109.633,65.743L109.633,65.743z"/>
			</g>
		</g>
		<g>
			<g>
				<path fill="#44A587" d="M108.314,68.232c0.186,0.087,0.37,0.173,0.555,0.259c0.871,0.408,1.633-0.885,0.758-1.295
					c-0.186-0.087-0.37-0.173-0.555-0.259C108.201,66.529,107.439,67.822,108.314,68.232L108.314,68.232z"/>
			</g>
		</g>
		<g>
			<g>
				<path fill="#44A587" d="M107.77,70.571c-0.007,0.005-0.014,0.011-0.021,0.016c0.378,0.157,0.824-0.167,0.923-0.524
					c0.118-0.431-0.146-0.766-0.524-0.922c-0.123-0.051-0.245-0.064-0.378-0.07C106.802,69.03,106.806,70.53,107.77,70.571
					L107.77,70.571z"/>
			</g>
		</g>
		<g>
			<g>
				<path fill="#44A587" d="M106.372,72.74c0.077,0.036,0.153,0.071,0.229,0.106c0.871,0.405,1.634-0.887,0.758-1.295
					c-0.077-0.036-0.153-0.071-0.229-0.106C106.258,71.042,105.495,72.335,106.372,72.74L106.372,72.74z"/>
			</g>
		</g>
		<g>
			<g>
				<path fill="#44A587" d="M116.31,60.524c-0.51,0.979-1.738,2.669-1.357,3.872c0.225,0.711,0.695,0.99,1.357,1.266
					c1.283,0.534,2.547,1.088,3.808,1.675c0.558,0.259,1.145,0.722,1.78,0.424c0.735-0.344,0.828-1.157,1.207-1.807
					c0.363-0.623,0.906-1.527,0.715-2.287c-0.166-0.657-0.648-0.8-1.218-1.065c-0.253,0.432-0.505,0.864-0.758,1.295
					c0.034,0.016,0.067,0.031,0.101,0.047c0.871,0.404,1.634-0.887,0.758-1.295c-1.788-0.833-3.57-1.678-5.357-2.512
					c-0.871-0.407-1.634,0.886-0.758,1.295c1.788,0.834,3.569,1.68,5.357,2.513c0.253-0.432,0.505-0.864,0.758-1.295
					c-0.034-0.016-0.067-0.031-0.101-0.047c-0.871-0.404-1.634,0.887-0.758,1.295c0.613,0.286,0.497,0.291,0.157,0.959
					c-0.191,0.377-0.436,0.719-0.581,1.12c-0.215,0.259-0.169,0.394,0.135,0.404c-0.215-0.135-0.441-0.248-0.68-0.339
					c-0.669-0.311-1.337-0.623-2.006-0.935c-0.534-0.249-2.563-0.741-2.357-1.399c0.278-0.889,0.665-1.604,1.093-2.427
					C118.051,60.425,116.756,59.666,116.31,60.524L116.31,60.524z"/>
			</g>
		</g>
	</g>
	<g>
		<line fill="#FFFFFF" x1="116.636" y1="56.239" x2="107.983" y2="73.342"/>
		<g>
			<path fill="#44A587" d="M115.988,55.861c-2.884,5.701-5.769,11.402-8.652,17.103c-0.436,0.861,0.858,1.62,1.295,0.757
				c2.884-5.701,5.769-11.402,8.652-17.103C117.719,55.757,116.425,54.998,115.988,55.861L115.988,55.861z"/>
		</g>
	</g>
</g>
</svg>
