<svg xmlns="http://www.w3.org/2000/svg" xmlns:xlink="http://www.w3.org/1999/xlink" width="48" height="48">
  <defs>
    <radialGradient cx="5" cy="41.5" r="5" fx="5" fy="41.5" id="j" xlink:href="#a" gradientUnits="userSpaceOnUse" gradientTransform="matrix(.59382 0 0 1.53665 41.14 -103.936)"/>
    <linearGradient id="b">
      <stop offset="0" stop-opacity="0"/>
      <stop offset=".5"/>
      <stop offset="1" stop-opacity="0"/>
    </linearGradient>
    <linearGradient x1="17.554" y1="46" x2="17.554" y2="35" id="i" xlink:href="#b" gradientUnits="userSpaceOnUse" gradientTransform="matrix(1.75703 0 0 1.39696 -17.394 -16.412)"/>
    <linearGradient id="a">
      <stop offset="0"/>
      <stop offset="1" stop-opacity="0"/>
    </linearGradient>
    <radialGradient cx="5" cy="41.5" r="5" fx="5" fy="41.5" id="h" xlink:href="#a" gradientUnits="userSpaceOnUse" gradientTransform="matrix(.59382 0 0 1.53665 -6.66 -103.936)"/>
    <linearGradient id="c">
      <stop offset="0" stop-color="#c9af8b"/>
      <stop offset=".239" stop-color="#ad8757"/>
      <stop offset=".276" stop-color="#c2a57f"/>
      <stop offset="1" stop-color="#9d7d53"/>
    </linearGradient>
    <linearGradient x1="15.464" y1="7.976" x2="15.464" y2="45.042" id="l" xlink:href="#c" gradientUnits="userSpaceOnUse"/>
    <linearGradient id="d">
      <stop offset="0" stop-color="#dac197"/>
      <stop offset=".239" stop-color="#c1a581"/>
      <stop offset=".276" stop-color="#dbc298"/>
      <stop offset="1" stop-color="#a68b60"/>
    </linearGradient>
    <linearGradient x1="24.823" y1="15.378" x2="24.997" y2="37.277" id="k" xlink:href="#d" gradientUnits="userSpaceOnUse" gradientTransform="matrix(1.28223 0 0 1.55726 -6.07 -15.29)"/>
    <linearGradient id="e">
      <stop offset="0" stop-color="#fff" stop-opacity="0"/>
      <stop offset="1" stop-color="#fff" stop-opacity="0"/>
    </linearGradient>
    <linearGradient x1="23.452" y1="30.555" x2="43.007" y2="45.934" id="m" xlink:href="#e" gradientUnits="userSpaceOnUse" gradientTransform="matrix(1.28223 0 0 1.1747 -6.07 -5.303)"/>
    <linearGradient id="f">
      <stop offset="0" stop-color="#fff"/>
      <stop offset=".302" stop-color="#fff"/>
      <stop offset=".344" stop-color="#fff" stop-opacity=".69"/>
      <stop offset="1" stop-color="#fff" stop-opacity="0"/>
    </linearGradient>
    <linearGradient x1="26" y1="22" x2="26" y2="8" id="n" xlink:href="#f" gradientUnits="userSpaceOnUse"/>
    <linearGradient id="g">
      <stop offset="0" stop-color="#fff" stop-opacity="0"/>
      <stop offset=".245" stop-color="#fff"/>
      <stop offset=".774" stop-color="#fff"/>
      <stop offset="1" stop-color="#fff" stop-opacity="0"/>
    </linearGradient>
    <linearGradient x1="44.995" y1="17.5" x2="3.005" y2="17.5" id="o" xlink:href="#g" gradientUnits="userSpaceOnUse" spreadMethod="reflect"/>
  </defs>
  <g opacity=".4">
    <path transform="matrix(-.99266 0 0 -.97615 .275 1.293)" fill="url(#h)" d="M-3.69-47.848h2.96v15.367h-2.96z"/>
    <path fill="url(#i)" d="M3.69 32.482h40.412V47.85H3.69z" transform="matrix(.99266 0 0 .97615 .275 1.293)"/>
    <path transform="matrix(.99266 0 0 -.97615 .275 1.293)" fill="url(#j)" d="M44.11-47.848h2.96v15.367h-2.96z"/>
  </g>
  <path d="M9.01 8.5H38.51c1.722 0 2.497-.287 2.992 1l3.002 8v25.674c0 1.553.103 1.316-1.62 1.316H5.118c-1.722 0-1.62.237-1.62-1.316V17.5l3.003-8c.48-1.26.79-1 2.51-1z" fill="url(#k)" stroke="url(#l)" stroke-width=".994" stroke-linecap="round" display="block" overflow="visible"/>
  <path d="M9.948 9.513H37.6c1.615 0 2.614.556 3.29 2.086l2.33 6.42v23.143c0 1.46-.82 2.196-2.434 2.196H7.053c-1.614 0-2.273-.81-2.273-2.27V18.02l2.254-6.56c.45-1.184 1.3-1.947 2.914-1.947z" opacity=".505" fill="none" stroke="url(#m)" stroke-width=".742" display="block" overflow="visible"/>
  <path d="M22 8h4v14h-4V8z" opacity=".4" fill="url(#n)" overflow="visible"/>
  <path d="M8.858 41h1.596v-5.196c.35-.085 1.12.25.96-.348-.102-.335.226-1.1-.21-1.104-.484.05-.932.06-.75-.556v-1.664H8.858v2.22c-.427-.005-.982-.137-.78.487.086.35-.25 1.123.347.964.627-.204.397.448.433.834V41zm10.1-6.648h-1.463c.003.555.108 1.228-.437.416-1.637-1.296-4.374-.3-4.925 1.69-.66 1.81.3 4.176 2.286 4.595 1.093.292 2.364.01 3.075-.917.048.38-.21 1.063.417.864.31-.11 1.076.24 1.047-.21v-6.438zm-3.467 1.308c1.582-.09 2.458 1.89 1.674 3.144-.78 1.464-3.383 1.034-3.58-.65-.26-1.205.596-2.55 1.907-2.494zM20.15 41h1.595c.027-1.407-.058-2.82.05-4.222-.04-1.15 1.695-.623 1.378-1.672.046-.582.108-1.3-.765-.817-.802.59-.682.733-.934.062H20.15V41zm4.06 0h1.595v-1.536H24.21V41zm8.294-6.648c-.003.514.117 1.19-.412.4-1.628-1.253-4.3-.305-4.845 1.667-.66 1.848.33 4.307 2.39 4.67 1.042.236 2.216-.085 2.867-.966.17 1.43-1.238 2.555-2.59 2.036-.635-.358-1.133-.787-1.91-.62-.628-.07-1.19-.027-.463.69 1.392 1.957 5.01 1.964 6.12-.29.59-1.495.297-3.135.368-4.702v-2.886h-1.524zm-1.992 1.308c1.458-.092 2.303 1.618 1.784 2.857-.5 1.64-3.25 1.53-3.557-.183-.35-1.205.365-2.745 1.772-2.674zM34.858 41h5.064v-1.428h-3.156l2.928-3.792v-1.428h-4.5v1.428h2.592l-2.928 3.792V41z" style="text-align:start;line-height:100%;-inkscape-font-specification:URW Gothic L Semi-Bold" font-size="12" font-weight="bold" opacity=".4" font-family="URW Gothic L"/>
  <path d="M3.505 17.5h40.99" opacity=".4" fill="none" stroke="url(#o)" stroke-linecap="square"/>
</svg>
