<svg width="16" height="16" viewBox="0 0 16 16" fill="none" xmlns="http://www.w3.org/2000/svg">
<path d="M8 1.33325C4.32 1.33325 1.33333 4.31992 1.33333 7.99992C1.33333 11.6799 4.32 14.6666 8 14.6666C11.68 14.6666 14.6667 11.6799 14.6667 7.99992C14.6667 4.31992 11.68 1.33325 8 1.33325ZM4.9 12.3333C5.77333 11.7066 6.84 11.3333 8 11.3333C9.16 11.3333 10.2267 11.7066 11.1 12.3333C10.2267 12.9599 9.16 13.3333 8 13.3333C6.84 13.3333 5.77333 12.9599 4.9 12.3333ZM12.0933 11.4133C10.9667 10.5333 9.54667 9.99992 8 9.99992C6.45333 9.99992 5.03333 10.5333 3.90667 11.4133C3.13333 10.4866 2.66667 9.29992 2.66667 7.99992C2.66667 5.05325 5.05333 2.66659 8 2.66659C10.9467 2.66659 13.3333 5.05325 13.3333 7.99992C13.3333 9.29992 12.8667 10.4866 12.0933 11.4133Z" fill="black"/>
<path d="M8 4C6.71333 4 5.66667 5.04667 5.66667 6.33333C5.66667 7.62 6.71333 8.66667 8 8.66667C9.28667 8.66667 10.3333 7.62 10.3333 6.33333C10.3333 5.04667 9.28667 4 8 4ZM8 7.33333C7.44667 7.33333 7 6.88667 7 6.33333C7 5.78 7.44667 5.33333 8 5.33333C8.55333 5.33333 9 5.78 9 6.33333C9 6.88667 8.55333 7.33333 8 7.33333Z" fill="black"/>
</svg>
