<svg width="16" height="17" viewBox="0 0 16 17" fill="none" xmlns="http://www.w3.org/2000/svg">
<path d="M4.66667 6.98901H1.33333V5.65568H4.66667V6.98901ZM4.66667 8.98901H1.33333V10.3223H4.66667V8.98901ZM13.7267 13.6557L11.1733 11.1023C10.64 11.449 10.0133 11.6557 9.33333 11.6557C7.49333 11.6557 6 10.1623 6 8.32235C6 6.48235 7.49333 4.98901 9.33333 4.98901C11.1733 4.98901 12.6667 6.48235 12.6667 8.32235C12.6667 9.00235 12.46 9.62901 12.1133 10.1557L14.6667 12.7157L13.7267 13.6557ZM11.3333 8.32235C11.3333 7.22235 10.4333 6.32235 9.33333 6.32235C8.23333 6.32235 7.33333 7.22235 7.33333 8.32235C7.33333 9.42235 8.23333 10.3223 9.33333 10.3223C10.4333 10.3223 11.3333 9.42235 11.3333 8.32235ZM1.33333 13.6557H8V12.3223H1.33333V13.6557Z" fill="black"/>
</svg>
