<svg width="16" height="16" viewBox="0 0 16 16" fill="none" xmlns="http://www.w3.org/2000/svg"><path d="M13.026 0.611 C 12.665 0.669,12.312 0.828,12.015 1.066 C 11.926 1.138,10.406 2.646,8.636 4.418 C 5.636 7.423,5.416 7.649,5.377 7.773 C 5.286 8.064,4.667 10.591,4.667 10.675 C 4.667 11.014,4.986 11.333,5.325 11.333 C 5.409 11.333,7.936 10.714,8.227 10.623 C 8.351 10.584,8.576 10.365,11.570 7.377 C 13.335 5.615,14.850 4.085,14.938 3.976 C 15.127 3.741,15.258 3.491,15.339 3.208 C 15.425 2.911,15.424 2.421,15.338 2.122 C 15.136 1.416,14.581 0.858,13.893 0.668 C 13.670 0.606,13.235 0.578,13.026 0.611 M13.572 1.962 C 13.770 2.021,13.979 2.230,14.038 2.428 C 14.091 2.607,14.091 2.726,14.038 2.908 C 13.997 3.050,13.922 3.127,10.824 6.227 L 7.653 9.401 6.972 9.571 C 6.597 9.664,6.284 9.733,6.276 9.724 C 6.267 9.716,6.336 9.403,6.429 9.028 L 6.599 8.347 9.773 5.176 C 12.760 2.190,12.954 2.002,13.080 1.964 C 13.255 1.911,13.399 1.911,13.572 1.962 M2.369 2.027 C 1.672 2.145,1.067 2.623,0.819 3.253 C 0.672 3.626,0.680 3.314,0.680 8.667 C 0.680 12.707,0.687 13.665,0.715 13.773 C 0.918 14.541,1.459 15.082,2.227 15.285 C 2.424 15.337,12.243 15.337,12.440 15.285 C 13.095 15.111,13.615 14.667,13.847 14.080 C 13.992 13.716,13.987 13.829,13.987 11.067 L 13.987 8.493 13.924 8.366 C 13.795 8.104,13.482 7.958,13.189 8.024 C 13.000 8.066,12.824 8.201,12.743 8.366 L 12.680 8.493 12.667 11.013 L 12.653 13.533 12.578 13.661 C 12.493 13.806,12.332 13.934,12.185 13.974 C 12.120 13.991,10.445 13.998,7.276 13.994 L 2.467 13.987 2.341 13.913 C 2.199 13.829,2.091 13.701,2.038 13.553 C 1.985 13.405,1.985 3.928,2.038 3.780 C 2.091 3.632,2.199 3.504,2.341 3.421 L 2.467 3.347 4.987 3.333 L 7.507 3.320 7.633 3.258 C 8.039 3.058,8.121 2.513,7.794 2.195 C 7.583 1.991,7.716 2.000,4.948 2.003 C 3.598 2.005,2.437 2.016,2.369 2.027 " stroke="none" fill-rule="evenodd"></path></svg>