<svg xmlns="http://www.w3.org/2000/svg" width="24" height="24" viewBox="0 0 24 24" fill="none" stroke="currentColor" stroke-width="2" stroke-linecap="round" stroke-linejoin="round" class="feather feather-settings"><path d="M11.499 0.040 C 10.963 0.137,10.475 0.364,10.089 0.695 C 9.420 1.269,9.061 1.974,9.016 2.800 C 8.978 3.498,8.883 3.668,8.472 3.775 C 8.155 3.858,8.024 3.811,7.629 3.477 C 7.239 3.147,6.697 2.863,6.300 2.780 C 5.938 2.704,5.323 2.704,4.953 2.780 C 4.783 2.814,4.500 2.919,4.280 3.028 C 3.958 3.188,3.842 3.275,3.518 3.598 C 2.896 4.220,2.638 4.831,2.637 5.686 C 2.636 6.520,2.848 7.075,3.422 7.740 C 3.686 8.046,3.720 8.114,3.720 8.339 C 3.720 8.558,3.611 8.790,3.441 8.933 C 3.309 9.044,3.231 9.063,2.748 9.100 C 1.526 9.193,0.489 10.036,0.114 11.240 C -0.021 11.674,-0.021 12.486,0.114 12.920 C 0.238 13.319,0.437 13.689,0.679 13.971 C 1.275 14.667,1.964 15.020,2.820 15.066 C 3.040 15.077,3.283 15.106,3.360 15.129 C 3.634 15.210,3.800 15.440,3.800 15.741 C 3.800 15.966,3.766 16.034,3.502 16.340 C 2.928 17.005,2.716 17.560,2.717 18.394 C 2.718 19.249,2.976 19.860,3.598 20.482 C 4.220 21.104,4.831 21.362,5.686 21.363 C 6.520 21.364,7.075 21.152,7.740 20.578 C 8.046 20.314,8.114 20.280,8.339 20.280 C 8.558 20.280,8.790 20.389,8.933 20.558 C 9.037 20.683,9.056 20.766,9.101 21.315 C 9.198 22.482,10.061 23.519,11.240 23.886 C 11.674 24.021,12.486 24.021,12.920 23.886 C 13.319 23.762,13.689 23.563,13.971 23.321 C 14.667 22.725,15.020 22.036,15.066 21.180 C 15.077 20.960,15.106 20.717,15.129 20.640 C 15.210 20.366,15.440 20.200,15.741 20.200 C 15.966 20.200,16.034 20.234,16.340 20.498 C 17.005 21.072,17.560 21.284,18.394 21.283 C 19.249 21.282,19.860 21.024,20.482 20.402 C 21.104 19.780,21.362 19.169,21.363 18.314 C 21.364 17.480,21.152 16.925,20.578 16.260 C 20.314 15.954,20.280 15.886,20.280 15.661 C 20.280 15.360,20.446 15.130,20.720 15.049 C 20.797 15.026,21.023 14.997,21.223 14.985 C 22.451 14.908,23.507 14.057,23.886 12.840 C 23.964 12.588,23.979 12.453,23.979 12.000 C 23.979 11.547,23.964 11.412,23.886 11.160 C 23.762 10.761,23.563 10.391,23.321 10.108 C 22.723 9.410,22.030 9.063,21.140 9.014 C 20.920 9.003,20.684 8.976,20.617 8.955 C 20.368 8.880,20.200 8.597,20.200 8.251 C 20.200 8.035,20.235 7.965,20.498 7.660 C 21.072 6.995,21.284 6.440,21.283 5.606 C 21.282 4.751,21.024 4.140,20.402 3.518 C 20.078 3.195,19.962 3.108,19.640 2.948 C 19.420 2.839,19.137 2.734,18.967 2.700 C 18.597 2.624,17.982 2.624,17.620 2.700 C 17.223 2.783,16.681 3.067,16.291 3.397 C 15.941 3.694,15.765 3.771,15.551 3.722 C 15.148 3.632,15.025 3.427,14.985 2.777 C 14.908 1.556,14.041 0.474,12.861 0.129 C 12.500 0.023,11.832 -0.020,11.499 0.040 M12.331 2.063 C 12.551 2.138,12.822 2.387,12.908 2.593 C 12.942 2.674,12.985 2.934,13.004 3.172 C 13.075 4.045,13.439 4.741,14.070 5.207 C 15.102 5.970,16.474 5.899,17.459 5.033 C 17.809 4.726,17.989 4.642,18.300 4.642 C 18.863 4.642,19.278 5.057,19.278 5.620 C 19.278 5.927,19.195 6.110,18.904 6.440 C 18.249 7.185,18.038 8.069,18.293 9.009 C 18.411 9.446,18.502 9.645,18.722 9.943 C 19.189 10.575,19.893 10.933,20.793 10.997 C 21.050 11.015,21.326 11.057,21.407 11.091 C 21.726 11.226,22.000 11.646,22.000 12.001 C 22.000 12.176,21.897 12.462,21.779 12.618 C 21.584 12.873,21.379 12.962,20.890 13.004 C 20.138 13.069,19.697 13.234,19.218 13.629 C 18.055 14.588,17.943 16.295,18.967 17.459 C 19.274 17.809,19.358 17.989,19.358 18.300 C 19.358 18.863,18.943 19.278,18.380 19.278 C 18.073 19.278,17.890 19.195,17.560 18.904 C 17.221 18.605,16.821 18.385,16.422 18.278 C 15.974 18.157,15.314 18.179,14.887 18.331 C 13.808 18.712,13.170 19.582,13.083 20.789 C 13.064 21.048,13.029 21.311,13.004 21.373 C 12.930 21.563,12.757 21.759,12.564 21.872 C 12.408 21.963,12.334 21.980,12.080 21.980 C 11.826 21.980,11.752 21.963,11.596 21.872 C 11.266 21.678,11.080 21.339,11.080 20.933 C 11.080 20.814,11.051 20.578,11.017 20.408 C 10.856 19.626,10.316 18.932,9.600 18.586 C 9.125 18.357,8.806 18.281,8.315 18.281 C 7.644 18.280,7.062 18.508,6.520 18.984 C 6.190 19.275,6.007 19.358,5.700 19.358 C 5.137 19.358,4.722 18.943,4.722 18.380 C 4.722 18.073,4.805 17.890,5.096 17.560 C 6.135 16.379,6.031 14.673,4.862 13.709 C 4.372 13.305,3.926 13.142,3.148 13.084 C 2.759 13.055,2.654 13.032,2.508 12.947 C 1.932 12.609,1.835 11.851,2.306 11.380 C 2.506 11.180,2.767 11.080,3.089 11.080 C 3.196 11.080,3.422 11.051,3.592 11.017 C 4.812 10.766,5.733 9.615,5.733 8.340 C 5.733 7.679,5.494 7.065,5.033 6.541 C 4.726 6.191,4.642 6.011,4.642 5.700 C 4.642 5.137,5.057 4.722,5.620 4.722 C 5.927 4.722,6.110 4.805,6.440 5.096 C 7.185 5.751,8.069 5.962,9.009 5.707 C 9.446 5.589,9.645 5.498,9.943 5.278 C 10.575 4.811,10.933 4.107,10.997 3.207 C 11.035 2.667,11.090 2.507,11.319 2.286 C 11.595 2.018,11.962 1.937,12.331 2.063 M11.358 8.061 C 10.230 8.237,9.143 8.974,8.569 9.953 C 7.320 12.083,8.233 14.785,10.512 15.704 C 12.558 16.528,14.877 15.538,15.704 13.488 C 16.090 12.530,16.090 11.469,15.705 10.516 C 15.172 9.197,14.001 8.269,12.605 8.058 C 12.144 7.989,11.816 7.990,11.358 8.061 M12.523 10.073 C 13.262 10.266,13.850 10.924,13.967 11.690 C 14.067 12.343,13.873 12.933,13.403 13.404 C 13.002 13.807,12.547 14.000,12.000 14.000 C 11.485 14.000,11.038 13.822,10.653 13.465 C 9.323 12.229,10.189 10.005,12.000 10.005 C 12.143 10.005,12.378 10.036,12.523 10.073 " stroke="none" fill-rule="evenodd" fill="black"></path></svg>