<svg xmlns="http://www.w3.org/2000/svg" width="24" height="24" viewBox="0 0 24 24" fill="none" stroke="currentColor" stroke-width="2" stroke-linecap="round" stroke-linejoin="round" class="feather feather-twitter"><path d="M15.840 2.024 C 14.986 2.180,14.643 2.283,14.100 2.542 C 12.730 3.197,11.696 4.399,11.244 5.860 C 11.109 6.299,11.001 6.931,11.000 7.289 L 11.000 7.518 10.810 7.496 C 8.458 7.219,6.487 6.287,4.898 4.701 C 4.528 4.331,4.331 4.100,3.835 3.453 C 3.425 2.920,2.746 2.852,2.299 3.299 C 1.879 3.719,1.319 5.775,1.157 7.495 C 1.072 8.393,1.145 9.809,1.321 10.668 C 1.553 11.804,2.072 13.065,2.677 13.961 C 3.415 15.055,4.426 16.047,5.590 16.819 C 5.749 16.925,5.880 17.018,5.880 17.026 C 5.880 17.086,4.618 17.543,4.060 17.685 C 3.268 17.888,2.363 17.999,1.480 18.001 C 1.042 18.003,0.771 18.021,0.673 18.056 C 0.163 18.238,-0.111 18.805,0.061 19.322 C 0.170 19.652,0.366 19.812,1.121 20.188 C 2.904 21.076,4.510 21.572,6.420 21.823 C 7.084 21.910,8.772 21.943,9.488 21.883 C 11.880 21.681,14.154 20.880,16.100 19.555 C 19.841 17.008,21.998 12.623,22.000 7.564 L 22.000 6.989 22.173 6.784 C 22.967 5.849,23.564 4.711,23.902 3.489 C 23.956 3.297,23.999 3.076,24.000 2.997 C 24.001 2.590,23.699 2.176,23.316 2.063 C 22.902 1.940,22.768 1.975,22.120 2.381 C 21.867 2.539,21.507 2.751,21.320 2.851 C 20.972 3.037,20.237 3.360,20.162 3.360 C 20.139 3.360,19.955 3.235,19.754 3.082 C 19.158 2.630,18.388 2.285,17.559 2.100 C 17.269 2.036,16.068 1.983,15.840 2.024 M17.120 4.058 C 17.870 4.203,18.427 4.504,19.000 5.074 C 19.165 5.238,19.372 5.405,19.460 5.445 C 19.694 5.552,19.983 5.538,20.408 5.402 C 20.611 5.336,20.782 5.289,20.789 5.295 C 20.795 5.302,20.679 5.446,20.530 5.616 C 19.895 6.341,19.886 6.363,19.960 7.030 C 20.011 7.492,19.997 8.136,19.916 9.040 C 19.534 13.311,17.284 16.820,13.780 18.607 C 13.101 18.953,12.850 19.061,12.211 19.283 C 11.356 19.579,10.384 19.790,9.460 19.879 C 8.862 19.937,7.535 19.927,6.900 19.860 C 6.237 19.790,5.363 19.637,5.043 19.535 C 5.012 19.525,5.221 19.437,5.509 19.339 C 6.527 18.993,7.474 18.536,8.324 17.981 C 8.728 17.717,8.844 17.592,8.941 17.318 C 9.017 17.102,9.016 16.901,8.938 16.671 C 8.829 16.352,8.680 16.232,7.920 15.849 C 6.789 15.279,6.023 14.745,5.299 14.021 C 4.372 13.095,3.713 11.953,3.396 10.726 C 3.078 9.491,3.040 8.176,3.280 6.719 C 3.398 6.002,3.364 6.026,3.761 6.390 C 4.657 7.210,5.468 7.773,6.500 8.290 C 8.086 9.084,9.571 9.460,11.310 9.508 C 12.257 9.534,12.392 9.510,12.667 9.269 C 12.954 9.017,12.974 8.931,13.004 7.860 C 13.026 7.068,13.045 6.845,13.115 6.585 C 13.349 5.710,13.978 4.888,14.741 4.459 C 15.460 4.055,16.337 3.907,17.120 4.058 " stroke="none" fill-rule="evenodd" fill="black"></path></svg>