<?xml version="1.0" encoding="UTF-8" standalone="no"?>
<!-- Created with Inkscape (http://www.inkscape.org/) -->

<svg
   xmlns:dc="http://purl.org/dc/elements/1.1/"
   xmlns:cc="http://creativecommons.org/ns#"
   xmlns:rdf="http://www.w3.org/1999/02/22-rdf-syntax-ns#"
   xmlns:svg="http://www.w3.org/2000/svg"
   xmlns="http://www.w3.org/2000/svg"
   xmlns:sodipodi="http://sodipodi.sourceforge.net/DTD/sodipodi-0.dtd"
   xmlns:inkscape="http://www.inkscape.org/namespaces/inkscape"
   width="55.663654mm"
   height="42.700615mm"
   viewBox="0 0 197.23342 151.30139"
   id="svg4716"
   version="1.1"
   inkscape:version="0.91 r13725"
   sodipodi:docname="whale.svg">
  <defs
     id="defs4718" />
  <sodipodi:namedview
     id="base"
     pagecolor="#ffffff"
     bordercolor="#666666"
     borderopacity="1.0"
     inkscape:pageopacity="0.0"
     inkscape:pageshadow="2"
     inkscape:zoom="0.7"
     inkscape:cx="31.182162"
     inkscape:cy="-189.90084"
     inkscape:document-units="px"
     inkscape:current-layer="layer1"
     showgrid="false"
     fit-margin-top="0"
     fit-margin-left="0"
     fit-margin-right="0"
     fit-margin-bottom="0"
     inkscape:window-width="1855"
     inkscape:window-height="1056"
     inkscape:window-x="65"
     inkscape:window-y="24"
     inkscape:window-maximized="1" />
  <metadata
     id="metadata4721">
    <rdf:RDF>
      <cc:Work
         rdf:about="">
        <dc:format>image/svg+xml</dc:format>
        <dc:type
           rdf:resource="http://purl.org/dc/dcmitype/StillImage" />
        <dc:title></dc:title>
      </cc:Work>
    </rdf:RDF>
  </metadata>
  <g
     inkscape:label="Layer 1"
     inkscape:groupmode="layer"
     id="layer1"
     transform="translate(-124.24043,-96.711512)">
    <g
       id="g504"
       transform="matrix(1.25,0,0,-1.25,224.20375,234.69159)">
      <path
         d="m 0,0 c 0.334,-3.667 0.529,-7.449 4.196,-8.449 7.333,-2.334 8.594,1.421 12.261,5.754"
         style="fill:#d6e5ea;fill-opacity:1;fill-rule:nonzero;stroke:none"
         id="path506"
         inkscape:connector-curvature="0" />
    </g>
    <g
       id="g508"
       transform="matrix(1.25,0,0,-1.25,222.32875,234.69159)">
      <path
         d="m 0,0 c 0.53,-5.884 1.861,-9.593 8.216,-10.554 5.295,-0.8 7.835,3.209 10.802,6.799 1.222,1.479 -0.888,3.613 -2.122,2.121 -1.818,-2.2 -3.593,-5.609 -6.706,-6.01 C 8.202,-7.9 5.23,-7.191 4.096,-5.468 3.11,-3.974 3.153,-1.708 3,0 2.828,1.911 -0.174,1.927 0,0"
         style="fill:#45a98d;fill-opacity:1;fill-rule:nonzero;stroke:none"
         id="path510"
         inkscape:connector-curvature="0" />
    </g>
    <g
       id="g512"
       transform="matrix(1.25,0,0,-1.25,196.11535,104.83684)">
      <path
         d="m 0,0 c -9,0 -24.667,-5 -28.333,-15 -1.333,12.667 -14.333,20.333 -26.333,20 -6,-16.667 6.333,-26.666 21,-31.999 l 0,-0.667 c 0,-21.333 7.334,-36.666 22,-53.333 19.333,-17.334 38.498,-20.22 61.5,-20.667 22.087,-0.43 53.166,12 48.5,40.666 -14.666,20 -44,22.001 -64.667,16.001 -10,-2.667 -20.666,-6 -31.333,-4.667 -10.667,1.333 -32,1.751 -27.446,22.667 C -11.779,-28.332 4.334,-15 0.667,0"
         style="fill:#ffffff;fill-opacity:1;fill-rule:nonzero;stroke:none"
         id="path514"
         inkscape:connector-curvature="0" />
    </g>
    <g
       id="g516"
       transform="matrix(1.25,0,0,-1.25,196.11535,102.96184)">
      <path
         d="m 0,0 c -11.147,-0.216 -25.184,-5.057 -29.779,-16.101 l 2.892,0 C -28.77,-2.619 -41.847,5.052 -54.666,5 -55.36,4.997 -55.9,4.539 -56.112,3.899 c -5.719,-17.235 7.139,-28.256 22.048,-33.844 -0.368,0.482 -0.735,0.964 -1.102,1.446 0,-23.349 10.457,-46.506 29.333,-60.663 17.943,-13.457 43.439,-17.736 65.394,-14.913 16.834,2.165 35.516,11.143 39.96,28.915 1.07,4.281 0.885,8.733 0.259,13.059 -0.22,1.528 -2.908,3.773 -3.877,4.814 -1.892,2.036 -4.084,3.768 -6.321,5.405 -8.417,6.158 -19.002,8.825 -29.243,9.665 -7.871,0.645 -15.867,-0.169 -23.55,-1.911 -11.527,-2.615 -22.412,-6.74 -34.455,-5.538 -5.707,0.57 -11.494,1.159 -16.936,3.062 -8.083,2.826 -10.633,9.646 -9.064,17.706 -0.482,-0.367 -0.964,-0.734 -1.446,-1.101 15.427,-1.042 30.486,13.133 27.225,28.898 -0.391,1.893 -3.283,1.09 -2.892,-0.798 2.885,-13.952 -10.992,-26.001 -24.333,-25.1 -0.623,0.042 -1.326,-0.484 -1.447,-1.101 -1.504,-7.728 -0.146,-14.825 6.749,-19.315 5.957,-3.879 13.802,-4.318 20.662,-5.077 13.754,-1.521 25.929,3.229 39.159,5.999 11.269,2.361 23.235,1.961 34.273,-1.296 5.643,-1.664 10.946,-4.422 15.581,-8.035 2.109,-1.644 3.969,-3.576 5.72,-5.588 2.553,-2.934 1.855,-8.317 1.275,-11.829 -1.686,-10.192 -9.633,-17.487 -18.387,-22.054 -8.7,-4.539 -18.888,-6.471 -28.639,-6.371 -12.614,0.13 -25.28,1.4 -37.185,5.771 -27.769,10.199 -44.815,38.469 -44.815,67.396 0,0.713 -0.468,1.209 -1.102,1.446 -13.366,5.011 -25.128,14.554 -19.952,30.154 -0.482,-0.367 -0.964,-0.734 -1.446,-1.101 11.618,0.047 23.181,-6.686 24.887,-18.899 0.232,-1.666 2.407,-1.167 2.892,0 C -22.871,-7.248 -9.596,-3.186 0,-3 1.932,-2.962 1.936,0.038 0,0"
         style="fill:#45a98d;fill-opacity:1;fill-rule:nonzero;stroke:none"
         id="path518"
         inkscape:connector-curvature="0" />
    </g>
    <g
       id="g520"
       transform="matrix(1.25,0,0,-1.25,318.40175,181.84122)">
      <path
         d="m 0,0 c 5.5,-29 -28,-40.5 -50.5,-40.5 -12,0 -23.5,3 -34.5,6.5 -12,4 -20.75,12.229 -28.5,19.354 12.5,-10 35,-16.229 50,-16.229 14,0 27.521,0.042 40.521,6.042 C -14.479,-21.333 -2.5,-10 0,0"
         style="fill:#d6e5ea;fill-opacity:1;fill-rule:nonzero;stroke:none"
         id="path522"
         inkscape:connector-curvature="0" />
    </g>
    <g
       id="g524"
       transform="matrix(1.25,0,0,-1.25,316.59385,182.33985)">
      <path
         d="m 0,0 c 3.878,-22.644 -17.503,-34.059 -36.592,-37.514 -12.68,-2.295 -25.426,-0.536 -37.775,2.745 -7.196,1.913 -13.996,4.293 -20.339,8.248 -5.963,3.717 -11.137,8.599 -16.287,13.335 l -2.121,-2.121 C -95.556,-28.92 -72.788,-32.426 -51.196,-31.863 -29.839,-31.306 -3.731,-23.172 2.893,0 3.426,1.864 0.53,2.654 0,0.798 c -2.713,-9.491 -10.827,-17.406 -19.103,-22.355 -10.026,-5.995 -22.495,-7.055 -33.888,-7.352 -20.021,-0.523 -41.75,3.123 -58.002,15.723 -1.482,1.148 -3.583,-0.777 -2.121,-2.121 4.975,-4.577 9.987,-9.067 15.553,-12.922 6.835,-4.733 14.461,-7.228 22.397,-9.432 13.68,-3.801 27.628,-5.062 41.599,-2.325 20.407,3.997 40.428,17.595 36.458,40.784 C 2.566,2.702 -0.324,1.892 0,0"
         style="fill:#45a98d;fill-opacity:1;fill-rule:nonzero;stroke:none"
         id="path526"
         inkscape:connector-curvature="0" />
    </g>
    <g
       id="g528"
       transform="matrix(1.25,0,0,-1.25,257.77675,165.90372)">
      <path
         d="M 0,0 C -4.5,-0.5 -5,-5 0,-4.5 5,-4 4.417,1.25 0,0"
         style="fill:#d6e5ea;fill-opacity:1;fill-rule:nonzero;stroke:none"
         id="path530"
         inkscape:connector-curvature="0" />
    </g>
    <g
       id="g532"
       transform="matrix(1.25,0,0,-1.25,257.77675,164.02872)">
      <path
         d="m 0,0 c -2.334,-0.3 -4.917,-1.518 -5.064,-4.184 -0.166,-2.978 3.529,-3.568 5.705,-3.234 2.161,0.332 4.683,1.999 4.371,4.502 -0.339,2.723 -3.067,3.478 -5.41,2.862 -1.871,-0.491 -1.077,-3.385 0.796,-2.892 0.645,0.169 0.987,0.192 1.488,0.022 -0.283,0.096 0.076,-0.07 0.119,-0.097 -0.267,0.174 0.015,-0.047 0.061,-0.101 -0.273,0.309 0.074,-0.25 -0.089,0.15 0.03,-0.074 0.097,-0.445 0.05,-0.062 0.007,-0.08 0.009,-0.16 0.006,-0.241 C 2.032,-3.666 2.107,-2.978 2.008,-3.367 1.91,-3.754 2.147,-3.128 1.955,-3.497 1.942,-3.521 1.683,-3.864 1.856,-3.658 1.477,-4.109 0.967,-4.292 0.299,-4.447 c -0.659,-0.152 -1.386,-0.141 -2.032,0.043 -0.199,0.057 -0.274,0.134 -0.345,0.203 0.214,-0.208 0.002,0.011 -0.045,0.096 0.186,-0.348 0.02,0.228 0.06,-0.196 -0.009,0.097 0.061,0.428 -0.009,0.075 0.013,0.067 0.171,0.404 0.031,0.12 0.137,0.279 0.099,0.203 0.407,0.483 0.28,0.254 1.082,0.552 1.634,0.623 0.811,0.104 1.5,0.604 1.5,1.5 C 1.5,-0.761 0.813,0.104 0,0"
         style="fill:#45a98d;fill-opacity:1;fill-rule:nonzero;stroke:none"
         id="path534"
         inkscape:connector-curvature="0" />
    </g>
    <g
       id="g536"
       transform="matrix(1.25,0,0,-1.25,253.73985,137.65722)">
      <path
         d="M 0,0 C -1.834,1.969 -8.667,15.753 -4.167,16.983 -0.834,17.969 -0.5,4.431 0,1.231"
         style="fill:#d6e5ea;fill-opacity:1;fill-rule:nonzero;stroke:none"
         id="path538"
         inkscape:connector-curvature="0" />
    </g>
    <g
       id="g540"
       transform="matrix(1.25,0,0,-1.25,255.06565,136.3316)">
      <path
         d="m 0,0 c -1.39,1.625 -2.284,3.847 -3.148,5.775 -0.927,2.066 -2.927,6.171 -1.928,8.475 0.25,0.578 0.839,-1.622 0.959,-2.052 0.46,-1.659 0.667,-3.402 0.867,-5.107 0.286,-2.435 0.401,-4.89 0.743,-7.32 0.269,-1.909 3.158,-1.093 2.893,0.798 -0.34,2.415 -0.7,20.42 -6.739,16.509 C -9.375,15.12 -8.093,10.776 -7.2,7.987 -6.097,4.544 -4.497,0.655 -2.121,-2.121 -0.861,-3.593 1.25,-1.461 0,0"
         style="fill:#45a98d;fill-opacity:1;fill-rule:nonzero;stroke:none"
         id="path542"
         inkscape:connector-curvature="0" />
    </g>
    <g
       id="g544"
       transform="matrix(1.25,0,0,-1.25,258.94735,132.73422)">
      <path
         d="M 0,0 C 0.667,1.969 0.667,10.091 3.334,7.384 6.167,4.431 2,0.984 0.667,-0.247"
         style="fill:#d6e5ea;fill-opacity:1;fill-rule:nonzero;stroke:none"
         id="path546"
         inkscape:connector-curvature="0" />
    </g>
    <g
       id="g548"
       transform="matrix(1.25,0,0,-1.25,260.75525,133.23284)">
      <path
         d="M 0,0 C 0.676,2.184 0.33,4.718 1.311,6.812 1.379,6.958 1.451,7.042 1.29,6.92 0.958,6.669 0.37,7.153 0.827,6.723 1.479,6.107 1.436,5.3 1.085,4.548 0.458,3.205 -0.769,2.194 -1.84,1.213 -3.27,-0.096 -1.143,-2.211 0.281,-0.908 1.973,0.639 3.796,2.356 4.265,4.7 4.703,6.892 3.265,9.583 0.918,9.83 -2.604,10.202 -2.272,2.803 -2.893,0.798 -3.466,-1.056 -0.569,-1.842 0,0"
         style="fill:#45a98d;fill-opacity:1;fill-rule:nonzero;stroke:none"
         id="path550"
         inkscape:connector-curvature="0" />
    </g>
    <g
       id="g552"
       transform="matrix(1.25,0,0,-1.25,287.38865,196.29185)">
      <path
         d="M 0,0 C 0.119,-0.11 0.233,-0.224 0.341,-0.346 0.55,-0.581 0.139,-0.06 0.303,-0.3 0.343,-0.358 0.376,-0.42 0.408,-0.482 0.202,-0.091 0.307,-0.22 0.348,-0.352 0.388,-0.481 0.375,-0.695 0.33,-0.163 0.341,-0.292 0.282,-0.513 0.371,0.045 0.352,-0.075 0.244,-0.285 0.467,0.231 0.323,-0.102 0.72,0.484 0.514,0.28 0.354,0.123 0.855,0.527 0.668,0.397 0.627,0.369 0.583,0.346 0.54,0.322 0.332,0.211 0.933,0.476 0.709,0.393 0.66,0.374 0.608,0.36 0.558,0.346 0.505,0.331 0.452,0.321 0.398,0.311 0.154,0.265 0.828,0.358 0.58,0.338 0.47,0.329 0.359,0.333 0.249,0.341 0.001,0.359 0.676,0.272 0.433,0.318 0.381,0.328 0.329,0.342 0.277,0.357 -0.031,0.445 0.651,0.149 0.309,0.35 0.045,0.503 0.604,0.048 0.354,0.336 0.659,-0.016 0.549,0.07 0.482,0.194 0.694,-0.198 0.604,-0.124 0.564,0.023 0.5,0.256 0.603,-0.412 0.591,-0.161 c -0.006,0.122 0.045,0.36 -0.034,-0.157 0.021,0.138 0.214,0.581 0.011,0.132 0.078,0.172 0.182,0.333 0.287,0.49 -0.298,-0.23 -0.597,-0.46 -0.896,-0.69 0.138,0.05 0.28,0.086 0.423,0.118 0.362,0.083 -0.337,-0.017 0.055,0.004 0.176,-0.007 0.157,0 -0.056,0.02 -0.186,0.097 -0.212,0.099 -0.077,0.009 0.658,-0.487 1.673,-0.11 2.051,0.539 0.448,0.763 0.119,1.566 -0.538,2.052 -0.729,0.54 -1.833,0.436 -2.644,0.155 -0.808,-0.28 -1.391,-1.258 -1.519,-2.094 -0.215,-1.406 0.55,-2.679 1.982,-2.992 1.034,-0.226 2.38,-0.028 3.093,0.836 1.062,1.287 0.519,2.821 -0.608,3.86 C 1.521,2.675 0.596,2.717 0,2.121 -0.561,1.561 -0.602,0.554 0,0"
         style="fill:#45a98d;fill-opacity:1;fill-rule:nonzero;stroke:none"
         id="path554"
         inkscape:connector-curvature="0" />
    </g>
  </g>
</svg>
