<?xml version="1.0" encoding="utf-8"?>
<!-- Generator: Adobe Illustrator 16.0.0, SVG Export Plug-In . SVG Version: 6.00 Build 0)  -->
<!DOCTYPE svg PUBLIC "-//W3C//DTD SVG 1.1//EN" "http://www.w3.org/Graphics/SVG/1.1/DTD/svg11.dtd">
<svg version="1.1" id="Layer_1" xmlns="http://www.w3.org/2000/svg" xmlns:xlink="http://www.w3.org/1999/xlink" x="0px" y="0px"
	 width="120px" height="100px" viewBox="0 0 120 100" enable-background="new 0 0 120 100" xml:space="preserve">
<g>
	<path fill="#FFFFFF" d="M44.923,57.865c-0.419-18.562-17.487-19.336-29.532-12.714l0,0c0.535-2.983,0.723-6.072-1.356-8.063
		c-3.374,3.455-6.386,11.966-6.727,16.807c1.881,0.129,3.666-0.668,5.354-2.395l1.082-1.015
		c4.361,10.787,20.103,18.345,29.716,9.628L44.923,57.865z"/>
	<g>
		<path fill="#45AE91" d="M45.973,57.865c-0.346-7.348-3.119-13.711-10.27-16.521c-6.705-2.635-14.79-0.295-20.842,2.9
			c0.514,0.395,1.028,0.79,1.542,1.186c0.531-3.457,0.613-6.268-1.626-9.085c-0.341-0.43-1.138-0.396-1.485,0
			c-4.134,4.7-6.396,11.396-7.034,17.549c-0.057,0.549,0.521,1.079,1.05,1.05c3.143-0.174,4.945-1.622,7.178-3.717
			c-0.55-0.07-1.1-0.142-1.649-0.212c5.25,11.802,24.386,20.605,32.993,7.38c0.741-1.139-1.078-2.19-1.813-1.061
			c-7.803,11.992-24.842,2.79-29.366-7.38c-0.286-0.643-1.2-0.634-1.649-0.212c-1.627,1.526-2.96,2.95-5.692,3.102
			c0.35,0.35,0.7,0.7,1.05,1.05c0.58-5.59,2.672-11.804,6.419-16.064c-0.495,0-0.99,0-1.485,0c1.382,2.247,1.744,4.595,1.086,7.042
			c-0.138,0.897,0.667,1.648,1.542,1.186c5.333-2.814,11.371-4.414,17.385-3.221c7.352,1.458,10.246,8.215,10.567,15.028
			C43.937,59.213,46.037,59.22,45.973,57.865z"/>
	</g>
</g>
<g>
	<path fill="#FFFFFF" d="M40.118,88.271c-0.291-12.798-12.059-13.332-20.364-8.767l0,0c0.369-2.058,0.498-4.187-0.936-5.56
		c-2.325,2.38-4.403,8.251-4.639,11.589c1.297,0.09,2.528-0.46,3.693-1.651l0.746-0.699c3.006,7.438,13.86,12.649,20.49,6.637
		L40.118,88.271z"/>
	<g>
		<path fill="#45AE91" d="M41.167,88.271c-0.716-12.479-12.134-14.765-21.943-9.673c0.514,0.395,1.028,0.79,1.542,1.186
			c0.336-2.462,0.412-4.271-1.042-6.369c-0.356-0.514-1.182-0.764-1.649-0.212c-2.898,3.42-4.434,7.92-4.946,12.331
			c-0.062,0.532,0.525,1.101,1.05,1.05c2.257-0.219,3.519-1.1,5.182-2.658c-0.55-0.07-1.1-0.142-1.649-0.212
			c3.837,8.29,17.192,14.482,23.312,5.088c0.741-1.139-1.078-2.19-1.813-1.061c-5.34,8.2-16.611,1.553-19.685-5.088
			c-0.295-0.638-1.194-0.639-1.649-0.212c-1.077,1.01-1.878,1.866-3.697,2.043c0.35,0.35,0.7,0.7,1.05,1.05
			c0.443-3.817,1.826-7.89,4.332-10.847c-0.55-0.07-1.1-0.142-1.649-0.212c0.277,1.583,0.553,3.167,0.83,4.75
			c-0.123,0.898,0.655,1.646,1.542,1.186c8.193-4.251,18.158-3.053,18.784,7.86C39.145,89.616,41.246,89.624,41.167,88.271z"/>
	</g>
</g>
<g>
	<path fill="#FFFFFF" d="M86.227,87.393c-0.588-16.825-16.074-17.339-26.919-11.203l0,0c0.45-2.711,0.587-5.516-1.324-7.295
		c-3.018,3.168-5.658,10.918-5.911,15.312c1.705,0.098,3.316-0.646,4.828-2.228l0.969-0.936c4.073,9.734,18.431,16.416,27.055,8.405
		L86.227,87.393z"/>
	<g>
		<path fill="#45AE91" d="M87.276,87.393c-0.379-6.149-2.722-12.573-9.051-14.784c-6.531-2.28-13.542-0.524-19.448,2.675
			c0.514,0.395,1.028,0.79,1.542,1.186c0.446-3.175,0.497-5.759-1.594-8.316c-0.343-0.419-1.14-0.405-1.485,0
			c-3.713,4.359-5.692,10.415-6.218,16.054c-0.051,0.544,0.516,1.086,1.05,1.05c2.875-0.192,4.521-1.522,6.539-3.471
			c-0.55-0.07-1.1-0.142-1.649-0.212c4.94,10.683,22.458,18.528,30.17,6.35c0.728-1.148-1.091-2.2-1.813-1.061
			c-6.923,10.932-22.348,2.726-26.544-6.35c-0.292-0.631-1.199-0.646-1.649-0.212c-1.435,1.386-2.62,2.692-5.054,2.855
			c0.35,0.35,0.7,0.7,1.05,1.05c0.471-5.054,2.282-10.67,5.604-14.569c-0.495,0-0.99,0-1.485,0c1.26,1.989,1.611,4.08,1.054,6.273
			c-0.125,0.887,0.661,1.664,1.542,1.186c10.884-5.896,24.442-4.268,25.339,10.297C85.26,88.737,87.36,88.746,87.276,87.393z"/>
	</g>
</g>
<g>
	<path fill="#FFFFFF" d="M77.176,45.887c-6.533,6.236,4.454,13.365,8.909,7.128C91.431,44.995,81.63,41.432,77.176,45.887"/>
	<g>
		<path fill="#43AD91" d="M76.434,45.145c-2.824,2.836-3.145,6.847,0.072,9.529c2.989,2.492,7.49,2.395,10.077-0.596
			c2.417-2.794,3.143-7.559-0.249-9.89C83.288,42.096,79.063,42.656,76.434,45.145c-0.985,0.933,0.502,2.415,1.484,1.484
			c1.743-1.649,4.403-2.123,6.593-1.092c3.011,1.418,2.108,4.691,0.668,6.947c-1.519,2.378-4.735,2.229-6.867,0.922
			c-2.752-1.688-2.472-4.689-0.394-6.777C78.874,45.669,77.39,44.184,76.434,45.145L76.434,45.145z"/>
	</g>
</g>
<g>
	<path fill="#FFFFFF" d="M27.529,9.695c-4.561,4.354,3.11,9.331,6.22,4.976C37.482,9.073,30.64,6.585,27.529,9.695"/>
	<g>
		<path fill="#43AD91" d="M26.787,8.953c-2.084,2.093-2.327,5.118,0.051,7.101c2.211,1.844,5.558,1.81,7.483-0.416
			c1.83-2.115,2.31-5.651-0.238-7.401C31.84,6.694,28.72,7.124,26.787,8.953c-0.985,0.933,0.502,2.415,1.485,1.484
			c1.107-1.047,2.822-1.37,4.219-0.713c1.936,0.912,1.268,2.982,0.352,4.416c-0.966,1.513-3.025,1.35-4.36,0.531
			c-1.749-1.072-1.515-2.924-0.21-4.234C29.228,9.478,27.743,7.992,26.787,8.953L26.787,8.953z"/>
	</g>
</g>
</svg>
