<?xml version="1.0" encoding="utf-8"?>
<!-- Generator: Adobe Illustrator 16.0.0, SVG Export Plug-In . SVG Version: 6.00 Build 0)  -->
<!DOCTYPE svg PUBLIC "-//W3C//DTD SVG 1.1//EN" "http://www.w3.org/Graphics/SVG/1.1/DTD/svg11.dtd">
<svg version="1.1" id="Layer_1" xmlns="http://www.w3.org/2000/svg" xmlns:xlink="http://www.w3.org/1999/xlink" x="0px" y="0px"
	 width="130px" height="120px" viewBox="0 0 130 120" enable-background="new 0 0 130 120" xml:space="preserve">
<g>
	<g>
		<g>
			<path fill="#CADEE3" d="M45.124,110.572c-0.229,2.579-0.568,5.222,1.845,6.374c4.781,2.534,6.127,0.094,9.206-2.446"/>
			<g>
				<path fill="#43AD91" d="M44.074,110.572c-0.146,1.628-0.4,3.448,0.262,5.001c0.719,1.685,2.138,2.353,3.755,3.026
					c3.715,1.548,6.223-1.156,8.826-3.357c1.035-0.875-0.458-2.354-1.485-1.484c-1.582,1.337-3.066,3.239-5.308,3.194
					c-1.639-0.032-3.557-1.078-4.006-2.68c-0.319-1.142-0.047-2.544,0.056-3.7C46.295,109.223,44.194,109.234,44.074,110.572
					L44.074,110.572z"/>
			</g>
		</g>
		<g>
			<path fill="#FFFFFF" d="M42.594,35.848c-6.229-1.128-17.7,0.369-21.492,6.83c0.665-8.935-7.372-15.871-15.719-17.146
				c-6.243,10.785,1.04,19.252,10.523,24.783l-0.084,0.461c-2.674,14.766,0.479,26.3,8.541,39.675
				c11.208,14.423,24.112,18.822,39.977,22.017c15.234,3.067,38.304-1.64,38.669-22.067c-7.644-15.682-27.698-20.745-42.755-19.185
				C53,71.809,45.199,72.779,37.983,70.519c-7.217-2.26-21.93-5.225-16.156-19.132c9.062,2.595,21.887-4.613,21.229-15.456"/>
			<g>
				<path fill="#43AD91" d="M42.874,34.835c-7.829-1.202-17.949,0.256-22.678,7.313c0.652,0.176,1.305,0.353,1.957,0.53
					c0.235-9.642-7.473-16.458-16.49-18.158c-0.452-0.085-0.955,0.044-1.186,0.483c-5.043,9.556-0.891,17.673,7.172,23.794
					c0.158,0.12,3.022,2.465,3.204,1.47c-0.217,1.194-0.389,2.382-0.556,3.583c-0.381,2.737-0.471,5.489-0.434,8.25
					c0.084,6.254,1.731,12.367,4.063,18.129c8.583,21.211,29.5,31.981,51.507,33.995c8.392,0.768,17.365-0.816,24.552-5.325
					c3.123-1.959,5.61-4.731,7.44-7.906c1.37-2.379,3.873-8.448,2.492-11.122c-4.641-8.986-12.83-14.541-22.285-17.601
					c-11.142-3.605-22-1.481-33.394-1.381c-6.38,0.057-13.122-1.879-18.988-4.406c-6.627-2.855-8.996-7.971-6.409-14.816
					c-0.431,0.244-0.861,0.489-1.292,0.733c10.584,2.555,22.716-5.047,22.558-16.468c-0.019-1.353-2.119-1.355-2.1,0
					c0.138,10.04-10.626,16.682-19.9,14.443c-0.596-0.144-1.084,0.185-1.292,0.733C14.382,68.13,37.713,73.082,49.972,72.974
					c10.825-0.097,20.443-1.816,31.101,1.32c5.191,1.528,10.016,4.143,14.135,7.64c2.233,1.897,4.054,4.209,5.625,6.667
					c1.729,2.707,0.868,5.743-0.021,8.592c-2.793,8.951-12.269,13.111-20.762,14.565c-9.753,1.671-19.826-0.79-29.072-3.784
					c-24.307-7.871-38.628-32.27-34.058-57.379c0.086-0.475-0.052-0.926-0.483-1.186C9.47,45.2,2.581,39.039,4.567,30.092
					c1.223-5.503,5.725-2.261,8.966-0.123c4.314,2.847,6.643,7.626,6.52,12.708c-0.027,1.1,1.401,1.358,1.957,0.53
					c4.132-6.167,13.489-7.394,20.306-6.347C43.64,37.063,44.208,35.04,42.874,34.835L42.874,34.835z"/>
			</g>
		</g>
	</g>
	<g>
		<path fill="#CADEE3" d="M102.585,90.756c0.172,20.762-24.459,24.522-40.034,21.702c-8.306-1.506-15.89-5.024-23.064-8.826
			c-7.804-4.273-12.829-11.068-17.3-16.971c7.399,8.489,22.191,15.622,32.574,17.503c9.69,1.755,19.055,3.423,28.805,0.899
			C89.886,103.706,99.6,97.362,102.585,90.756z"/>
		<g>
			<path fill="#43AD91" d="M101.535,90.756c-0.26,16.104-15.962,21.38-29.695,21.476c-8.974,0.063-17.484-2.636-25.566-6.357
				c-9.986-4.599-16.625-11.086-23.181-19.743c-0.55,0.425-1.1,0.849-1.649,1.272c10.835,11.905,26.586,17.037,42.048,19.268
				c14.553,2.1,32.613-0.856,39.999-15.385c0.612-1.204-1.199-2.268-1.813-1.061c-7.735,15.215-26.521,16.207-41.218,13.877
				c-13.82-2.191-27.911-7.613-37.531-18.184c-0.793-0.871-2.374,0.315-1.649,1.272c6.837,9.027,13.642,15.556,23.935,20.496
				c8.75,4.2,17.995,6.704,27.716,6.637c14.712-0.103,30.436-6.948,30.704-23.568C103.657,89.401,101.557,89.403,101.535,90.756z"/>
		</g>
	</g>
	<g>
		<path fill="#CADEE3" d="M70.613,75.85c-3.178-0.219-4.088,2.834-0.564,3.114S73.827,75.538,70.613,75.85"/>
		<g>
			<path fill="#43AD91" d="M70.613,74.8c-1.485-0.077-3.552,0.543-3.83,2.263c-0.339,2.095,1.896,2.92,3.597,2.967
				c1.687,0.046,3.377-0.93,3.535-2.717C74.073,75.519,72.094,74.684,70.613,74.8c-1.341,0.104-1.352,2.206,0,2.1
				c0.238-0.019,0.472-0.021,0.71-0.001c0.069,0.006,0.296,0.102,0.326,0.118c0.092,0.05,0.103,0.064,0.137,0.118
				c0.04,0.063,0.028,0.041,0.03,0.096c0.011,0.266,0.056-0.215-0.002,0.05c-0.011,0.051-0.12,0.283-0.018,0.073
				c-0.014,0.028-0.18,0.26-0.043,0.092c-0.063,0.077-0.137,0.143-0.21,0.208c-0.115,0.103-0.607,0.256-1.007,0.274
				c-0.517,0.023-1.085-0.057-1.519-0.299c-0.268-0.15,0.077,0.094-0.127-0.095c-0.21-0.193,0.075,0.146-0.062-0.081
				c0.111,0.186,0.007,0.009-0.011-0.064c0.068,0.289,0.049-0.14,0.002,0.15c0.009-0.054,0.11-0.282,0.009-0.069
				c0.016-0.032,0.181-0.252,0.045-0.09c0.141-0.168,0.117-0.142,0.369-0.282c0.337-0.188,0.903-0.222,1.369-0.198
				C71.968,76.97,71.961,74.869,70.613,74.8L70.613,74.8z"/>
		</g>
	</g>
	<g>
		<path fill="#CADEE3" d="M71.211,59.802c-1.022-1.593-4.023-11.991-0.755-12.278c2.43-0.264,0.966,9.149,0.909,11.426"/>
		<g>
			<path fill="#43AD91" d="M72.117,59.273c-0.765-1.311-1.113-2.924-1.474-4.381c-0.429-1.734-1.162-4.393-0.343-6.115
				c0.273-0.573,0.453,1.333,0.469,1.531c0.08,1.005,0.028,2.025-0.02,3.03c-0.088,1.875-0.358,3.737-0.435,5.612
				c-0.055,1.354,2.045,1.349,2.1,0c0.078-1.927,2.174-14.344-2.752-12.287c-2.184,0.912-1.81,4.159-1.565,6.012
				c0.33,2.516,0.908,5.434,2.207,7.657C70.986,61.501,72.802,60.445,72.117,59.273L72.117,59.273z"/>
		</g>
	</g>
	<g>
		<path fill="#CADEE3" d="M74.587,57.598c0.71-1.278,1.728-6.902,3.235-4.692c1.59,2.4-1.726,4.262-2.804,4.947"/>
		<g>
			<path fill="#43AD91" d="M75.493,58.128c0.748-1.434,0.828-3.532,1.883-4.728c0.19-0.215-0.211,0.143-0.475,0
				c0.02,0.01,0.196,0.349,0.232,0.444c0.169,0.451-0.036,0.914-0.316,1.272c-0.613,0.787-1.498,1.306-2.329,1.828
				c-1.143,0.72-0.089,2.538,1.061,1.813c1.244-0.784,2.491-1.603,3.276-2.884c0.828-1.354,0.521-3.538-0.958-4.339
				c-2.674-1.45-3.495,4.206-4.187,5.533C73.055,58.267,74.867,59.33,75.493,58.128L75.493,58.128z"/>
		</g>
	</g>
	<g>
		<g>
			<path fill="#43AD91" d="M83.922,95.575c0.059,0.079,0.115,0.158,0.168,0.241c0.159,0.247,0.019-0.022,0.063,0.103
				c0.098,0.273,0.008-0.133,0.009,0.013c0.034-0.194,0.039-0.238,0.015-0.133c0.083-0.177,0.1-0.219,0.05-0.126
				c0.125-0.148,0.151-0.185,0.08-0.108c-0.078,0.069-0.043,0.042,0.104-0.08c-0.211,0.142,0.193-0.061,0.028-0.01
				c-0.259,0.08,0.205-0.01,0.022,0.005c-0.072,0.006-0.146,0.002-0.218-0.004c0.455,0.033-0.342-0.16,0.059,0.019
				c-0.079-0.035-0.277-0.186-0.005,0.027c-0.082-0.064-0.178-0.241,0.003,0.03c-0.051-0.094-0.035-0.054,0.045,0.12
				c-0.027-0.105-0.024-0.061,0.009,0.134c-0.03-0.265-0.051,0.18-0.003,0.002c0.037-0.135-0.107,0.184,0.049-0.065
				c0.065-0.092,0.063-0.091-0.005,0.004c0.044-0.05,0.09-0.099,0.137-0.146c-0.154,0.09-0.309,0.181-0.463,0.271
				c-0.214,0.035-0.192,0.021-0.006,0.01c0.068-0.003,0.136-0.003,0.204,0c-0.021-0.003-0.043-0.007-0.064-0.01
				c0.179,0.056,0.14,0.028-0.117-0.083c0.955,0.962,2.439-0.523,1.484-1.484c-0.452-0.455-1.11-0.58-1.729-0.503
				c-0.639,0.079-1.083,0.505-1.362,1.077c-0.44,0.903-0.162,1.967,0.765,2.431c0.813,0.405,1.758,0.36,2.479-0.2
				c0.843-0.653,0.56-1.861,0.013-2.593c-0.342-0.457-0.9-0.69-1.437-0.376C83.847,94.403,83.578,95.115,83.922,95.575z"/>
		</g>
	</g>
</g>
<g>
	<g>
		<path fill="#43AD91" d="M36.817,4.616c-0.067,8.346,2.915,17.812,12.951,18.399c8.418,0.493,16.947,0.206,25.381,0.273
			c4.373,0.035,8.726,0.035,13.097-0.097c4.707-0.143,5.016,6.959,2.969,10.097c-0.599,0.916,0.553,1.923,1.437,1.437
			c4.314-2.378,9.352-6.628,9.683-11.857c-0.35,0.35-0.7,0.7-1.05,1.05c8.521-0.024,17.044-0.049,25.565-0.074
			c1.354-0.004,1.354-2.104,0-2.1c-8.521,0.024-17.044,0.049-25.565,0.074c-0.6,0.001-1.014,0.478-1.05,1.05
			c-0.268,4.228-5.229,8.163-8.644,10.044c0.479,0.479,0.958,0.958,1.437,1.437c1.812-2.775,2.355-9.226,0.521-12.053
			c-0.943-1.453-3.988-1.176-5.302-1.204c-4.351-0.09-8.738,0.132-13.097,0.097c-8.57-0.069-17.963,0.912-26.432-0.45
			c-8.243-1.325-9.855-9.241-9.8-16.123C38.928,3.262,36.828,3.263,36.817,4.616L36.817,4.616z"/>
	</g>
</g>
</svg>
