<?xml version="1.0" encoding="utf-8"?>
<svg viewBox="0 0 420 111" xmlns="http://www.w3.org/2000/svg">
  <g>
    <g>
      <path fill="#FFFFFF" d="M144.557,40.775c9.612-16.227,25.267-8.557,33.016,3.256l0,0c0.992-2.903,2.733-5.653,5.628-6.39 c1.376,4.727-0.094,13.749-2.19,18.203c-1.787-0.813-3.029-2.404-3.715-4.765l-0.49-1.433c-9.358,7.395-27.548,6.312-32.028-6.161 L144.557,40.775z"/>
      <g>
        <path d="M145.402,41.27c9.032-14.062,23.288-8.373,31.325,3.256c0.511,0.738,1.469,0.564,1.791-0.234 c0.945-2.346,4.083-6.902,4.24-2.003c0.076,2.342-0.347,4.769-0.76,7.052c-0.304,1.684-0.826,3.309-1.376,4.924 c-0.472,1.389-2.529-3.879-2.871-4.876c-0.186-0.546-0.897-0.981-1.438-0.585c-9.165,6.685-29.568,6.725-30.777-8.026 c-0.102-1.25-2.062-1.26-1.959,0c0.654,8.002,7.601,13.341,15.387,14.221c4.508,0.511,9.277,0.173,13.473-1.703 c3.328-1.487,3.247-3.713,4.533-0.326c0.662,1.741,2.028,2.796,3.546,3.726c0.595,0.361,1.203-0.023,1.439-0.586 c2.405-5.738,3.542-12.597,2.189-18.724c-0.104-0.474-0.728-0.883-1.204-0.685c-3.379,1.41-4.966,3.732-6.312,7.074 c0.597-0.078,1.194-0.155,1.791-0.234c-9.017-13.048-24.927-18.482-34.708-3.256C143.026,41.347,144.723,42.328,145.402,41.27z" style="fill: rgb(95, 95, 251);"/>
      </g>
    </g>
    <g>
      <path fill="#FFFFFF" d="M242.92,37.914c-1.209-18.821,16.043-21.311,29.104-15.924l0,0c-0.817-2.958-0.93-6.211,1.046-8.451 c3.802,3.129,7.675,11.409,8.456,16.269c-1.936,0.336-3.856-0.277-5.757-1.841l-1.209-0.907 c-3.562,11.384-19.195,20.744-29.926,12.969L242.92,37.914z"/>
      <g>
        <path d="M243.899,37.914c-0.554-16.79,14.609-20.125,27.864-14.979c0.743,0.288,1.349-0.548,1.205-1.206 c-0.523-2.38-1.622-9.554,2.315-4.161c1.082,1.48,1.891,3.162,2.709,4.792c1.017,2.024,1.696,4.138,2.298,6.304 c0.411,1.476-4.364-1.794-5.238-2.45c-0.544-0.409-1.245,0.051-1.44,0.585C269.7,37.636,252.89,48.676,243.611,37.22 c-0.796-0.982-2.174,0.413-1.387,1.386c4.761,5.879,13.155,6.575,19.805,3.318c4.277-2.096,7.631-4.919,10.508-8.695 c0.521-0.682,3.173-4.088,2.13-4.87c2.322,1.74,3.981,2.458,6.856,2.428c0.668-0.006,1.069-0.618,0.943-1.239 c-1.245-6.091-4.135-12.402-8.708-16.702c-0.473-0.447-1.187-0.341-1.538,0.197c-1.945,2.994-1.897,5.773-1.145,9.205 c0.402-0.402,0.803-0.803,1.206-1.205c-14.633-5.681-30.935-1.063-30.343,16.87C241.981,39.175,243.94,39.179,243.899,37.914z" style="fill: rgb(95, 95, 251);"/>
      </g>
    </g>
    <g enable-background="new    ">
      <path d="M148.504,77.275l0.836,3.213c0.183,0.705,0.353,1.358,0.47,2.012h0.039 c0.144-0.641,0.353-1.319,0.562-1.999l1.032-3.226h0.966l0.98,3.16c0.235,0.758,0.418,1.424,0.562,2.064h0.039 c0.104-0.641,0.274-1.307,0.483-2.051l0.901-3.174h1.136l-2.038,6.321h-1.045l-0.967-3.018c-0.222-0.705-0.405-1.332-0.562-2.076 h-0.026c-0.156,0.757-0.353,1.41-0.574,2.09l-1.019,3.004h-1.045l-1.907-6.321H148.504z" style="fill: rgb(95, 95, 251);"/>
      <path d="M157.659,74.323h1.149v3.944h0.026c0.183-0.326,0.47-0.614,0.823-0.81 c0.339-0.196,0.744-0.327,1.175-0.327c0.849,0,2.208,0.522,2.208,2.704v3.762h-1.149v-3.631c0-1.019-0.379-1.881-1.463-1.881 c-0.745,0-1.333,0.522-1.542,1.149c-0.065,0.156-0.078,0.326-0.078,0.549v3.813h-1.149V74.323z" style="fill: rgb(95, 95, 251);"/>
      <path d="M165.546,80.645c0.026,1.555,1.019,2.194,2.168,2.194c0.823,0,1.319-0.144,1.75-0.326l0.196,0.823 c-0.405,0.183-1.097,0.392-2.103,0.392c-1.946,0-3.108-1.28-3.108-3.188s1.123-3.409,2.965-3.409c2.063,0,2.612,1.816,2.612,2.979 c0,0.235-0.026,0.418-0.039,0.535H165.546z M168.916,79.822c0.013-0.731-0.3-1.868-1.594-1.868c-1.162,0-1.672,1.071-1.763,1.868 H168.916z" style="fill: rgb(95, 95, 251);"/>
      <path d="M171.449,79.247c0-0.744-0.013-1.385-0.052-1.972h1.006l0.039,1.24h0.052 c0.287-0.849,0.979-1.385,1.75-1.385c0.131,0,0.222,0.014,0.327,0.039v1.085c-0.118-0.026-0.235-0.04-0.392-0.04 c-0.81,0-1.385,0.614-1.542,1.477c-0.026,0.156-0.052,0.34-0.052,0.535v3.37h-1.136V79.247z" style="fill: rgb(95, 95, 251);"/>
      <path d="M176.229,80.645c0.026,1.555,1.019,2.194,2.168,2.194c0.823,0,1.319-0.144,1.75-0.326l0.196,0.823 c-0.405,0.183-1.097,0.392-2.103,0.392c-1.946,0-3.108-1.28-3.108-3.188s1.123-3.409,2.965-3.409c2.063,0,2.612,1.816,2.612,2.979 c0,0.235-0.026,0.418-0.039,0.535H176.229z M179.599,79.822c0.013-0.731-0.3-1.868-1.594-1.868c-1.162,0-1.672,1.071-1.763,1.868 H179.599z" style="fill: rgb(95, 95, 251);"/>
      <path d="M190.359,74.323v7.641c0,0.562,0.013,1.202,0.052,1.633h-1.032l-0.052-1.097h-0.026 c-0.353,0.705-1.123,1.24-2.155,1.24c-1.528,0-2.704-1.293-2.704-3.213c-0.013-2.104,1.293-3.396,2.834-3.396 c0.967,0,1.62,0.457,1.907,0.967h0.026v-3.774H190.359z M189.209,79.848c0-0.144-0.013-0.339-0.052-0.482 c-0.17-0.732-0.797-1.333-1.659-1.333c-1.188,0-1.894,1.045-1.894,2.442c0,1.28,0.627,2.338,1.868,2.338 c0.771,0,1.476-0.509,1.685-1.371c0.039-0.156,0.052-0.313,0.052-0.496V79.848z" style="fill: rgb(95, 95, 251);"/>
      <path d="M197.985,80.384c0,2.338-1.619,3.356-3.147,3.356c-1.711,0-3.03-1.254-3.03-3.252 c0-2.116,1.385-3.357,3.135-3.357C196.758,77.131,197.985,78.45,197.985,80.384z M192.97,80.449c0,1.384,0.797,2.429,1.92,2.429 c1.098,0,1.92-1.031,1.92-2.455c0-1.071-0.535-2.43-1.894-2.43S192.97,79.247,192.97,80.449z" style="fill: rgb(95, 95, 251);"/>
      <path d="M202.202,79.339c0-0.81-0.025-1.463-0.052-2.063h1.032l0.052,1.084h0.026 c0.47-0.771,1.215-1.229,2.246-1.229c1.528,0,2.678,1.293,2.678,3.214c0,2.272-1.385,3.396-2.873,3.396 c-0.836,0-1.567-0.365-1.946-0.992h-0.026v3.435h-1.137V79.339z M203.339,81.023c0,0.17,0.026,0.326,0.053,0.471 c0.209,0.797,0.9,1.345,1.724,1.345c1.215,0,1.92-0.992,1.92-2.442c0-1.267-0.666-2.351-1.881-2.351 c-0.783,0-1.515,0.562-1.737,1.423c-0.039,0.145-0.078,0.314-0.078,0.471V81.023z" style="fill: rgb(95, 95, 251);"/>
      <path d="M210.273,80.645c0.026,1.555,1.019,2.194,2.168,2.194c0.823,0,1.319-0.144,1.75-0.326l0.196,0.823 c-0.405,0.183-1.098,0.392-2.104,0.392c-1.945,0-3.108-1.28-3.108-3.188s1.124-3.409,2.965-3.409c2.064,0,2.612,1.816,2.612,2.979 c0,0.235-0.025,0.418-0.039,0.535H210.273z M213.644,79.822c0.013-0.731-0.301-1.868-1.594-1.868 c-1.163,0-1.672,1.071-1.764,1.868H213.644z" style="fill: rgb(95, 95, 251);"/>
      <path d="M221.896,80.384c0,2.338-1.62,3.356-3.148,3.356c-1.711,0-3.03-1.254-3.03-3.252 c0-2.116,1.385-3.357,3.135-3.357C220.668,77.131,221.896,78.45,221.896,80.384z M216.881,80.449c0,1.384,0.796,2.429,1.92,2.429 c1.097,0,1.92-1.031,1.92-2.455c0-1.071-0.536-2.43-1.894-2.43C217.468,77.993,216.881,79.247,216.881,80.449z" style="fill: rgb(95, 95, 251);"/>
      <path d="M223.345,79.339c0-0.81-0.025-1.463-0.052-2.063h1.032l0.052,1.084h0.026 c0.47-0.771,1.215-1.229,2.246-1.229c1.528,0,2.678,1.293,2.678,3.214c0,2.272-1.385,3.396-2.873,3.396 c-0.836,0-1.567-0.365-1.946-0.992h-0.026v3.435h-1.137V79.339z M224.481,81.023c0,0.17,0.026,0.326,0.053,0.471 c0.209,0.797,0.9,1.345,1.724,1.345c1.215,0,1.92-0.992,1.92-2.442c0-1.267-0.666-2.351-1.881-2.351 c-0.783,0-1.515,0.562-1.737,1.423c-0.039,0.145-0.078,0.314-0.078,0.471V81.023z" style="fill: rgb(95, 95, 251);"/>
      <path d="M230.774,74.323h1.149v9.273h-1.149V74.323z" style="fill: rgb(95, 95, 251);"/>
      <path d="M234.497,80.645c0.025,1.555,1.019,2.194,2.168,2.194c0.823,0,1.319-0.144,1.75-0.326l0.196,0.823 c-0.405,0.183-1.098,0.392-2.103,0.392c-1.946,0-3.109-1.28-3.109-3.188s1.123-3.409,2.965-3.409c2.064,0,2.612,1.816,2.612,2.979 c0,0.235-0.025,0.418-0.039,0.535H234.497z M237.866,79.822c0.014-0.731-0.3-1.868-1.593-1.868c-1.163,0-1.672,1.071-1.764,1.868 H237.866z" style="fill: rgb(95, 95, 251);"/>
      <path d="M244.553,75.459v1.816h1.646v0.875h-1.646v3.408c0,0.784,0.222,1.229,0.862,1.229 c0.301,0,0.522-0.039,0.666-0.078l0.053,0.861c-0.223,0.092-0.575,0.157-1.02,0.157c-0.535,0-0.967-0.17-1.24-0.483 c-0.327-0.34-0.444-0.901-0.444-1.646V78.15h-0.979v-0.875h0.979V75.76L244.553,75.459z" style="fill: rgb(95, 95, 251);"/>
      <path d="M247.49,74.323h1.149v3.944h0.026c0.183-0.326,0.471-0.614,0.823-0.81c0.34-0.196,0.744-0.327,1.176-0.327 c0.849,0,2.207,0.522,2.207,2.704v3.762h-1.149v-3.631c0-1.019-0.379-1.881-1.463-1.881c-0.745,0-1.332,0.522-1.541,1.149 c-0.065,0.156-0.079,0.326-0.079,0.549v3.813h-1.149V74.323z" style="fill: rgb(95, 95, 251);"/>
      <path d="M256.018,75.498c0.013,0.393-0.274,0.706-0.731,0.706c-0.404,0-0.692-0.313-0.692-0.706 c0-0.404,0.301-0.718,0.719-0.718C255.743,74.78,256.018,75.094,256.018,75.498z M254.737,83.597v-6.321h1.149v6.321H254.737z" style="fill: rgb(95, 95, 251);"/>
      <path d="M257.794,78.986c0-0.653-0.013-1.189-0.052-1.711h1.019l0.065,1.045h0.026 c0.313-0.602,1.045-1.189,2.09-1.189c0.875,0,2.233,0.522,2.233,2.691v3.774h-1.149v-3.645c0-1.019-0.379-1.867-1.463-1.867 c-0.758,0-1.346,0.535-1.541,1.175c-0.053,0.145-0.079,0.34-0.079,0.536v3.801h-1.149V78.986z" style="fill: rgb(95, 95, 251);"/>
      <path d="M266.178,80.175h0.026c0.156-0.223,0.379-0.497,0.562-0.719l1.854-2.181h1.385l-2.442,2.599l2.782,3.723 h-1.398l-2.181-3.03l-0.588,0.653v2.377h-1.137v-9.273h1.137V80.175z" style="fill: rgb(95, 95, 251);"/>
    </g>
    <g enable-background="new    ">
      <path d="M148.341,92.945l0.836,3.214c0.183,0.705,0.353,1.358,0.47,2.011h0.039 c0.144-0.64,0.353-1.318,0.562-1.998l1.032-3.227h0.966l0.98,3.161c0.235,0.758,0.418,1.424,0.562,2.063h0.039 c0.104-0.64,0.274-1.306,0.483-2.05l0.901-3.175h1.136l-2.038,6.322h-1.045l-0.967-3.018c-0.222-0.705-0.405-1.332-0.562-2.076 h-0.026c-0.156,0.758-0.353,1.41-0.574,2.09l-1.019,3.004h-1.045l-1.907-6.322H148.341z" style="fill: rgb(95, 95, 251);"/>
      <path d="M158.005,96.315c0.026,1.555,1.019,2.194,2.168,2.194c0.823,0,1.319-0.144,1.75-0.326l0.196,0.822 c-0.405,0.184-1.097,0.393-2.103,0.393c-1.946,0-3.108-1.28-3.108-3.188c0-1.906,1.123-3.409,2.965-3.409 c2.063,0,2.612,1.815,2.612,2.979c0,0.235-0.026,0.418-0.039,0.535H158.005z M161.375,95.493c0.013-0.731-0.3-1.868-1.594-1.868 c-1.162,0-1.672,1.071-1.763,1.868H161.375z" style="fill: rgb(95, 95, 251);"/>
      <path d="M166.52,98.092c0.339,0.223,0.94,0.457,1.515,0.457c0.836,0,1.228-0.418,1.228-0.94 c0-0.548-0.327-0.849-1.175-1.162c-1.137-0.405-1.672-1.032-1.672-1.789c0-1.02,0.823-1.855,2.181-1.855 c0.64,0,1.202,0.184,1.554,0.393l-0.287,0.836c-0.248-0.157-0.706-0.366-1.293-0.366c-0.68,0-1.058,0.392-1.058,0.862 c0,0.522,0.378,0.758,1.202,1.071c1.097,0.418,1.659,0.966,1.659,1.906c0,1.11-0.862,1.895-2.364,1.895 c-0.692,0-1.332-0.17-1.776-0.432L166.52,98.092z" style="fill: rgb(95, 95, 251);"/>
      <path d="M171.847,89.994h1.149v3.944h0.026c0.183-0.326,0.47-0.614,0.823-0.81 c0.339-0.196,0.744-0.327,1.175-0.327c0.849,0,2.208,0.522,2.208,2.704v3.762h-1.149v-3.631c0-1.02-0.379-1.881-1.463-1.881 c-0.745,0-1.333,0.522-1.542,1.149c-0.065,0.156-0.078,0.326-0.078,0.548v3.814h-1.149V89.994z" style="fill: rgb(95, 95, 251);"/>
      <path d="M184.816,96.055c0,2.338-1.62,3.356-3.148,3.356c-1.711,0-3.03-1.254-3.03-3.252 c0-2.116,1.385-3.357,3.135-3.357C183.588,92.802,184.816,94.121,184.816,96.055z M179.8,96.12c0,1.384,0.797,2.429,1.92,2.429 c1.097,0,1.92-1.031,1.92-2.455c0-1.071-0.536-2.43-1.894-2.43S179.8,94.918,179.8,96.12z" style="fill: rgb(95, 95, 251);"/>
      <path d="M191.555,97.543c0,0.653,0.013,1.229,0.052,1.725h-1.019l-0.065-1.032h-0.026 c-0.3,0.51-0.967,1.176-2.09,1.176c-0.993,0-2.181-0.549-2.181-2.769v-3.697h1.149v3.501c0,1.202,0.365,2.012,1.41,2.012 c0.771,0,1.307-0.536,1.516-1.045c0.065-0.17,0.104-0.379,0.104-0.588v-3.88h1.149V97.543z" style="fill: rgb(95, 95, 251);"/>
      <path d="M193.46,89.994h1.149v9.273h-1.149V89.994z" style="fill: rgb(95, 95, 251);"/>
      <path d="M202.001,89.994v7.641c0,0.562,0.014,1.202,0.053,1.633h-1.032l-0.052-1.098h-0.026 c-0.353,0.706-1.124,1.241-2.155,1.241c-1.528,0-2.704-1.293-2.704-3.213c-0.013-2.103,1.293-3.396,2.835-3.396 c0.966,0,1.619,0.458,1.906,0.967h0.026v-3.774H202.001z M200.852,95.519c0-0.144-0.013-0.339-0.052-0.483 c-0.17-0.73-0.797-1.332-1.659-1.332c-1.188,0-1.894,1.045-1.894,2.442c0,1.28,0.627,2.339,1.867,2.339 c0.771,0,1.477-0.51,1.686-1.372c0.039-0.156,0.052-0.313,0.052-0.496V95.519z" style="fill: rgb(95, 95, 251);"/>
      <path d="M212.122,92.945c-0.026,0.458-0.053,0.967-0.053,1.737v3.671c0,1.449-0.287,2.338-0.901,2.887 c-0.613,0.574-1.502,0.757-2.299,0.757c-0.757,0-1.593-0.183-2.103-0.522l0.287-0.875c0.418,0.262,1.071,0.496,1.855,0.496 c1.175,0,2.037-0.613,2.037-2.207v-0.705h-0.026c-0.353,0.588-1.031,1.058-2.011,1.058c-1.568,0-2.691-1.332-2.691-3.082 c0-2.143,1.397-3.357,2.848-3.357c1.098,0,1.698,0.575,1.973,1.098h0.025l0.053-0.954H212.122z M210.934,95.44 c0-0.196-0.014-0.365-0.065-0.522c-0.209-0.666-0.771-1.215-1.606-1.215c-1.098,0-1.881,0.928-1.881,2.391 c0,1.24,0.627,2.272,1.867,2.272c0.706,0,1.346-0.444,1.594-1.176c0.065-0.195,0.092-0.418,0.092-0.613V95.44z" style="fill: rgb(95, 95, 251);"/>
      <path d="M219.696,96.055c0,2.338-1.62,3.356-3.148,3.356c-1.711,0-3.03-1.254-3.03-3.252 c0-2.116,1.385-3.357,3.135-3.357C218.468,92.802,219.696,94.121,219.696,96.055z M214.681,96.12c0,1.384,0.797,2.429,1.92,2.429 c1.097,0,1.92-1.031,1.92-2.455c0-1.071-0.535-2.43-1.895-2.43C215.269,93.664,214.681,94.918,214.681,96.12z" style="fill: rgb(95, 95, 251);"/>
      <path d="M225.298,91.13v1.815h1.646v0.876h-1.646v3.409c0,0.783,0.223,1.228,0.862,1.228 c0.3,0,0.522-0.039,0.666-0.079l0.052,0.862c-0.222,0.092-0.574,0.157-1.019,0.157c-0.535,0-0.966-0.17-1.24-0.483 c-0.327-0.34-0.444-0.901-0.444-1.646v-3.448h-0.979v-0.876h0.979v-1.515L225.298,91.13z" style="fill: rgb(95, 95, 251);"/>
      <path d="M233.879,96.055c0,2.338-1.62,3.356-3.148,3.356c-1.711,0-3.03-1.254-3.03-3.252 c0-2.116,1.385-3.357,3.135-3.357C232.65,92.802,233.879,94.121,233.879,96.055z M228.863,96.12c0,1.384,0.796,2.429,1.92,2.429 c1.097,0,1.92-1.031,1.92-2.455c0-1.071-0.536-2.43-1.894-2.43C229.45,93.664,228.863,94.918,228.863,96.12z" style="fill: rgb(95, 95, 251);"/>
      <path d="M238.095,89.994h1.149v9.273h-1.149V89.994z" style="fill: rgb(95, 95, 251);"/>
      <path d="M246.467,97.543c0,0.653,0.014,1.229,0.053,1.725h-1.019l-0.065-1.032h-0.026 c-0.301,0.51-0.967,1.176-2.09,1.176c-0.993,0-2.182-0.549-2.182-2.769v-3.697h1.149v3.501c0,1.202,0.366,2.012,1.411,2.012 c0.771,0,1.306-0.536,1.515-1.045c0.065-0.17,0.104-0.379,0.104-0.588v-3.88h1.149V97.543z" style="fill: rgb(95, 95, 251);"/>
      <path d="M248.372,94.657c0-0.653-0.013-1.188-0.052-1.712h1.019l0.065,1.045h0.026 c0.313-0.601,1.045-1.188,2.09-1.188c0.875,0,2.233,0.522,2.233,2.691v3.774h-1.149v-3.645c0-1.019-0.379-1.867-1.463-1.867 c-0.758,0-1.346,0.535-1.541,1.176c-0.053,0.144-0.079,0.339-0.079,0.535v3.801h-1.149V94.657z" style="fill: rgb(95, 95, 251);"/>
      <path d="M260.127,99.032c-0.301,0.157-0.967,0.366-1.815,0.366c-1.907,0-3.148-1.293-3.148-3.227 c0-1.946,1.332-3.356,3.396-3.356c0.679,0,1.279,0.17,1.594,0.326l-0.262,0.889c-0.274-0.157-0.705-0.301-1.332-0.301 c-1.45,0-2.233,1.071-2.233,2.391c0,1.463,0.94,2.364,2.194,2.364c0.652,0,1.084-0.17,1.41-0.314L260.127,99.032z" style="fill: rgb(95, 95, 251);"/>
      <path d="M261.47,89.994h1.149v3.944h0.026c0.183-0.326,0.471-0.614,0.823-0.81 c0.339-0.196,0.744-0.327,1.175-0.327c0.85,0,2.208,0.522,2.208,2.704v3.762h-1.149v-3.631c0-1.02-0.379-1.881-1.463-1.881 c-0.744,0-1.332,0.522-1.541,1.149c-0.065,0.156-0.079,0.326-0.079,0.548v3.814h-1.149V89.994z" style="fill: rgb(95, 95, 251);"/>
      <path d="M269.606,96.772l-0.026-0.339c-0.078-0.706,0.157-1.477,0.81-2.26c0.588-0.692,0.915-1.202,0.915-1.79 c0-0.666-0.418-1.11-1.241-1.123c-0.471,0-0.992,0.157-1.319,0.405l-0.313-0.823c0.432-0.313,1.176-0.522,1.868-0.522 c1.502,0,2.181,0.928,2.181,1.92c0,0.889-0.496,1.528-1.123,2.273c-0.574,0.679-0.783,1.254-0.744,1.92l0.013,0.339H269.606z M269.319,98.602c0-0.483,0.326-0.823,0.783-0.823s0.771,0.34,0.771,0.823c0,0.457-0.3,0.81-0.783,0.81 C269.633,99.411,269.319,99.059,269.319,98.602z" style="fill: rgb(95, 95, 251);"/>
    </g>
    <path fill="none" stroke-miterlimit="10" d="M280.289,89.604c0,8.276-5.96,14.988-13.311,14.988H150.821 c-7.352,0-13.311-6.715-13.311-14.988v-4.038c0-8.279,5.959-14.99,13.311-14.99h116.158c7.351,0,13.311,6.711,13.311,14.99V89.604z " style="stroke: rgb(95, 95, 251);"/>
    <g>
      <g>
        <path d="M175.954,70.422c-1.986-7.318-4.144-14.592-6.475-21.804c-1.114-3.448-3.612-16.132-7.979-17.372 c-0.731-0.208-1.04,0.926-0.312,1.133c2.136,0.607,3.679,6.667,4.295,8.286c1.662,4.366,3.068,8.833,4.457,13.292 c1.73,5.561,3.355,11.159,4.882,16.777C175.019,71.464,176.154,71.155,175.954,70.422L175.954,70.422z" style="fill: rgb(95, 95, 251);"/>
      </g>
    </g>
    <g>
      <g>
        <path d="M148.762,50.899c-3.859,9.029-8.502,18.4-10.646,28.009c-0.165,0.738,0.969,1.052,1.133,0.313 c2.121-9.509,6.71-18.799,10.527-27.728C150.071,50.804,149.059,50.205,148.762,50.899L148.762,50.899z" style="fill: rgb(95, 95, 251);"/>
      </g>
    </g>
    <g>
      <g>
        <path d="M279.623,78.77c-2.714-6.038-27.085-59.414-30.994-56.632c-0.61,0.436-0.026,1.455,0.594,1.015 c1.874-1.333,26.91,50.704,29.387,56.211C278.919,80.052,279.932,79.454,279.623,78.77L279.623,78.77z" style="fill: rgb(95, 95, 251);"/>
      </g>
    </g>
    <g>
      <g>
        <path d="M245.511,41.103c2.234,9.843,4.018,19.957,6.902,29.629c0.217,0.727,1.351,0.416,1.133-0.311 c-2.885-9.675-4.665-19.789-6.902-29.632C246.478,40.051,245.346,40.364,245.511,41.103L245.511,41.103z" style="fill: rgb(95, 95, 251);"/>
      </g>
    </g>
    <g>
      <path fill="#FFFFFF" d="M150.659,23.457c-0.916-1.369-0.198-3.086-0.955-4.513c-0.765-1.351-2.205-1.935-3.54-1.055 c-1.134,0.79-1.504,2.014-0.646,3.144c0.962,1.26,2.476,1.431,3.838,2.007c0.517,0.213,1.033,0.424,1.421,0.813"/>
      <g>
        <path d="M151.503,22.962c-0.521-0.912-0.37-1.982-0.494-2.992c-0.123-0.997-0.549-1.808-1.242-2.524 c-1.314-1.362-3.222-1.087-4.586-0.025c-1.557,1.211-1.264,3.237-0.125,4.574c1.296,1.524,3.59,1.306,5.028,2.549 c0.95,0.823,2.342-0.558,1.385-1.385c-0.816-0.706-1.801-1.073-2.812-1.418c-0.992-0.34-3.502-1.23-2.34-2.691 c1.131-1.422,2.613-0.061,2.778,1.273c0.161,1.292,0.047,2.45,0.719,3.626C150.439,25.047,152.132,24.061,151.503,22.962 L151.503,22.962z" style="fill: rgb(95, 95, 251);"/>
      </g>
    </g>
    <g>
      <path fill="#FFFFFF" d="M237.055,20.187c-1.552-1.014-1.567-3.114-2.98-4.259c-1.389-1.062-3.143-1.035-4.137,0.468 c-0.828,1.321-0.673,2.75,0.717,3.544c1.554,0.882,3.198,0.392,4.867,0.388c0.632-0.008,1.259-0.017,1.83,0.215"/>
      <g>
        <path d="M237.55,19.341c-0.869-0.651-1.204-1.815-1.692-2.739c-0.459-0.866-1.154-1.499-2.01-1.958 c-1.778-0.952-3.612-0.239-4.757,1.259c-1.075,1.409-0.757,3.671,0.719,4.653c2.331,1.551,4.82,0.189,7.282,0.934 c1.211,0.366,1.727-1.525,0.521-1.89c-1.33-0.402-2.714-0.226-4.079-0.132c-1.006,0.072-2.04-0.002-2.826-0.71 c-0.757-0.684-0.021-1.931,0.595-2.371c1.389-1,2.693,0.83,3.202,1.874c0.542,1.114,1.052,2.019,2.055,2.772 C237.571,21.793,238.546,20.09,237.55,19.341L237.55,19.341z" style="fill: rgb(95, 95, 251);"/>
      </g>
    </g>
    <g>
      <path fill="#FFFFFF" d="M164.135,24.142c0.722-1.479,2.567-1.721,3.42-3.094c0.783-1.34,0.565-2.878-0.868-3.59 c-1.255-0.583-2.497-0.289-3.043,1.021c-0.604,1.465,0.009,2.86,0.196,4.328c0.077,0.555,0.153,1.107,0.013,1.638"/>
      <g>
        <path d="M164.98,24.636c0.907-1.568,2.992-1.845,3.694-3.667c0.561-1.457,0.302-3.309-1.16-4.163 c-1.382-0.806-3.272-0.904-4.311,0.514c-1.661,2.267,0.111,4.46-0.295,6.865c-0.209,1.234,1.678,1.764,1.888,0.52 c0.18-1.066,0.023-2.073-0.183-3.127c-0.154-0.792-0.324-1.54-0.186-2.354c0.201-1.187,1.361-1.307,2.181-0.656 c1.272,1.012-0.307,2.499-1.158,3.043c-0.872,0.56-1.636,1.122-2.164,2.035C162.656,24.743,164.348,25.728,164.98,24.636 L164.98,24.636z" style="fill: rgb(95, 95, 251);"/>
      </g>
    </g>
    <g>
      <path fill="#FFFFFF" d="M247.341,15.211c0.814-1.668,2.895-1.942,3.855-3.489c0.883-1.511,0.636-3.244-0.978-4.045 c-1.415-0.658-2.815-0.325-3.431,1.152c-0.68,1.652,0.01,3.223,0.221,4.876c0.086,0.625,0.173,1.247,0.015,1.845"/>
      <g>
        <path d="M248.187,15.706c1.018-1.759,3.369-2.075,4.151-4.104c0.613-1.59,0.354-3.616-1.25-4.55 c-1.493-0.872-3.56-1.008-4.688,0.533c-1.854,2.529,0.134,5.015-0.321,7.707c-0.208,1.234,1.679,1.764,1.889,0.52 c0.198-1.178,0.02-2.295-0.206-3.458c-0.18-0.916-0.367-1.775-0.208-2.715c0.245-1.444,1.679-1.582,2.666-0.794 c1.507,1.199-0.307,2.967-1.329,3.623c-0.967,0.62-1.811,1.24-2.395,2.25C245.862,15.812,247.554,16.798,248.187,15.706 L248.187,15.706z" style="fill: rgb(95, 95, 251);"/>
      </g>
    </g>
  </g>
</svg>