<?xml version="1.0" encoding="utf-8"?>
<svg viewBox="0 0 500 31.167" xmlns="http://www.w3.org/2000/svg">
  <g>
    <g>
      <path d="M233.006,16.372c5.379-13.783,20.508-10.705,29.249-2.705h-0.336c0.336-2,1.345-4.69,3.697-5.699 c2.018,3.361,2.354,10.43,1.345,14.127c-1.681-0.335-3.024-1.34-4.033-3.021l-0.673-1.007c-6.725,7.06-22.525,9.069-28.577,0.329 L233.006,16.372z" fill="#FFFFFF"/>
      <g>
        <path d="M233.653,16.767c5.429-12.632,19.265-10.011,28.071-2.538c0.177-0.427,0.354-0.854,0.53-1.28 c0.378,0,3.369-3.171,3.509-2.81c0.57,1.485,0.749,3.229,0.91,4.778c0.134,1.293,0.086,2.598,0.036,3.893 c-0.17,4.408-2.528,0.799-3.808-1.119c-0.269-0.402-0.816-0.504-1.178-0.151c-6.557,6.404-24.212,10.003-27.996-1.351 c-0.304-0.913-1.753-0.521-1.446,0.398c2.299,6.9,10.019,8.748,16.621,8.232c4.026-0.314,7.925-1.813,11.279-4.014 c2.005-1.316,1.3-2.453,2.917-0.215c0.901,1.249,2.262,1.793,3.662,2.235c0.376,0.118,0.835-0.136,0.923-0.524 c1.078-4.767,0.84-10.3-1.421-14.697c-0.185-0.359-0.69-0.471-1.026-0.269c-2.494,1.501-3.459,3.324-4.042,6.163 c-0.097,0.473,0.212,0.949,0.724,0.949c0.112,0,0.224,0,0.336,0c0.615,0,1.046-0.844,0.53-1.28 c-9.523-8.081-24.611-10.691-30.427,2.841C231.98,16.888,233.272,17.652,233.653,16.767z" style="fill: rgb(95, 95, 251);"/>
      </g>
    </g>
    <g>
      <g>
        <path d="M194.364,17.817c3.688-4.228,10.546-1.83,14.887-0.005c3.016,1.269,5.127,0.001,7.446-1.995 c0.734-0.632-0.332-1.688-1.061-1.061c-2.906,2.501-4.576,2.189-7.735,0.88c-1.662-0.689-3.512-1.194-5.302-1.396 c-3.414-0.386-6.904-0.226-9.295,2.517C192.671,17.482,193.728,18.548,194.364,17.817L194.364,17.817z" style="fill: rgb(95, 95, 251);"/>
      </g>
    </g>
    <g>
      <g>
        <path d="M284.364,17.817c3.687-4.229,10.546-1.83,14.887-0.005c3.017,1.269,5.127,0.001,7.445-1.995 c0.734-0.632-0.332-1.688-1.061-1.061c-2.906,2.502-4.575,2.189-7.734,0.88c-1.662-0.689-3.512-1.194-5.303-1.396 c-3.413-0.386-6.904-0.226-9.295,2.517C282.671,17.482,283.728,18.548,284.364,17.817L284.364,17.817z" style="fill: rgb(95, 95, 251);"/>
      </g>
    </g>
  </g>
</svg>