<?xml version="1.0" encoding="utf-8"?>
<svg viewBox="0 0 500 153" xmlns="http://www.w3.org/2000/svg">
  <g id="white">
    <rect x="-0.182" y="107.813" fill="#FFFFFF" width="500" height="45"/>
  </g>
  <g id="Layer_1_1_">
    <g id="drawing">
      <g>
        <g>
          <path d="M218.308,74.364c4.116-0.239,7.158-2.237,9.276-5.518l-0.776-0.806 c-3.608-1.491-8.023-2.207-11.841-1.014" style="fill: rgba(120, 118, 253, 0.3);"/>
          <g>
            <path d="M218.308,75.614c4.453-0.383,7.852-2.455,10.355-6.137c0.318-0.467,0.175-1.13-0.195-1.515 c-3.149-3.268-9.747-3.262-13.833-2.141c-1.553,0.426-0.893,2.838,0.665,2.411c3.188-0.875,8.9-1.098,11.401,1.498 c-0.065-0.505-0.13-1.01-0.195-1.515c-1.974,2.902-4.685,4.597-8.197,4.899C216.714,73.251,216.701,75.752,218.308,75.614 L218.308,75.614z" style="fill: rgb(95, 95, 251);"/>
          </g>
        </g>
        <g>
          <path d="M213.89,71.352c-7.308,18.523-20.401,33.616-39.043,41.014c-15.302,6.354-40.894,4.923-50.558-10.915 l-0.896-2.864c-10.231-44.472,65.619-58.225,88.646-29.8L213.89,71.352z" style="fill: rgb(255, 255, 255);"/>
          <g>
            <path d="M212.684,71.02c-9.304,23.02-29.324,42.537-55.18,43.599c-10.982,0.451-22.817-2.62-30.244-11.135 c-5.198-5.961-4.172-16.549-1.567-23.411c5.819-15.329,24.168-22.363,39.125-24.314c15.304-1.996,33.434,0.581,44.689,12.04 c1.255,1.277,2.261,2.738,3.305,4.185c0.933,1.294,3.104,0.049,2.158-1.262c-17.234-23.904-57.492-22.672-79.602-6.5 c-11.122,8.135-17.094,22.176-12.863,35.706c2.48,7.934,11.119,12.691,18.544,15.1c9.193,2.982,19.526,2.682,28.811,0.332 c21.472-5.432,37.232-23.873,45.237-43.673C215.7,70.189,213.28,69.545,212.684,71.02z" style="fill: rgb(95, 95, 251);"/>
          </g>
        </g>
        <g display="none">
          <path display="inline" d="M183.078,57.728c-7.21-0.255-14.093-0.362-21.236,1.084 c-9.992,1.551-20.491,4.833-27.59,12.29c7.322,1.64,13.899,5.085,20.626,9.007l0.477-0.149c2.7-4.772,7.859-14.243,13.423-15.72 c3.653-0.88,7.859,2.521,11.006,3.371c0,0,3.594-1.438,4.905-7.056c1.083-4.64,17.781,4.282,17.781,4.282 S190.903,58.004,183.078,57.728z" fill="#D5E4E9"/>
          <g display="inline">
            <path d="M183.078,55.228c-17.356-0.578-37.612,1.151-50.594,14.107c-1.303,1.3-0.739,3.728,1.103,4.178 c6.026,1.473,11.515,4.002,16.932,6.983c1.826,1.005,5.332,3.67,6.994,0.727c2.208-3.912,4.433-7.81,7.383-11.222 c1.89-2.187,3.99-3.812,6.995-3.056c2.166,0.544,4.035,1.993,6.142,2.708c2.295,0.779,3.452,0.037,5.194-1.424 c1.176-0.985,2.011-2.416,2.714-3.747c0.26-0.607,0.51-1.218,0.749-1.833c1.124-2.796-0.519-0.885,0.39-0.933 c4.588-0.241,10.183,3.185,14.128,5.278c2.842,1.508,5.315-2.685,2.523-4.317C197.489,59.029,190.358,55.755,183.078,55.228 c-3.219-0.233-3.196,4.769,0,5c6.373,0.461,12.678,3.581,18.129,6.768c0.841-1.439,1.682-2.878,2.523-4.317 c-4.549-2.414-9.506-4.811-14.596-5.75c-2.064-0.381-4.626-0.373-6.049,1.426c-1.052,1.33-1.229,3.162-2.02,4.658 c-0.423,0.8-1.123,1.54-1.863,2.063c-1.166,0.825,0.08-0.286-0.396-0.493c-3.828-1.667-7.395-3.905-11.672-2.412 c-3.761,1.313-6.443,4.922-8.708,7.992c-1.322,1.791-2.457,3.724-3.583,5.64c-0.34,0.579-2.105,2.357-0.392,1.821 c1.206-0.377-2.928-2.281-2.956-2.296c-5.246-2.887-10.757-5.213-16.579-6.636c0.368,1.393,0.735,2.786,1.103,4.178 c11.997-11.972,31.095-13.174,47.059-12.642C186.304,60.335,186.293,55.335,183.078,55.228z" fill="#D5E4E9"/>
          </g>
        </g>
        <g>
          <g>
            <path d="M135.917,72.202c5.341,2.006,10.72,4.134,15.108,7.88c1.219,1.041,2.996-0.719,1.768-1.768 c-4.734-4.042-10.445-6.357-16.21-8.524C135.069,69.223,134.422,71.64,135.917,72.202L135.917,72.202z" style="fill: rgb(95, 95, 251);"/>
          </g>
        </g>
        <g>
          <g>
            <path d="M152.253,81.143c1.791,5.728,3.58,11.453,5.37,17.181c0.479,1.532,2.893,0.878,2.411-0.665 c-1.791-5.729-3.58-11.453-5.37-17.182C154.185,78.943,151.771,79.598,152.253,81.143L152.253,81.143z" style="fill: rgb(95, 95, 251);"/>
          </g>
        </g>
        <g>
          <g>
            <path d="M157.617,97.732c-4.003,3.934-7.302,8.504-11.305,12.438c-1.151,1.131,0.617,2.898,1.768,1.768 c4.003-3.934,7.302-8.504,11.305-12.438C160.536,98.368,158.767,96.602,157.617,97.732L157.617,97.732z" style="fill: rgb(95, 95, 251);"/>
          </g>
        </g>
        <g>
          <g>
            <path d="M155.5,78.785c2.104-6.087,6.629-11.339,11.744-15.152c1.276-0.951,0.032-3.123-1.262-2.158 c-5.665,4.223-10.56,9.898-12.893,16.645C152.561,79.648,154.977,80.299,155.5,78.785L155.5,78.785z" style="fill: rgb(95, 95, 251);"/>
          </g>
        </g>
        <g>
          <g>
            <path d="M167.861,64.618c4.862,2.148,9.724,4.295,14.586,6.442c1.46,0.645,2.734-1.508,1.262-2.158 c-4.862-2.147-9.724-4.294-14.586-6.442C167.663,61.814,166.389,63.968,167.861,64.618L167.861,64.618z" style="fill: rgb(95, 95, 251);"/>
          </g>
        </g>
        <g>
          <g>
            <path d="M160.554,99.076c5.123,1.013,10.329,1.492,15.451,2.505c1.575,0.312,2.246-2.099,0.665-2.411 c-5.123-1.012-10.329-1.492-15.451-2.505C159.645,96.354,158.974,98.764,160.554,99.076L160.554,99.076z" style="fill: rgb(95, 95, 251);"/>
          </g>
        </g>
        <g>
          <g>
            <path d="M177.55,100.632c3.783-3.39,7.016-7.335,9.739-11.616c0.868-1.365-1.296-2.617-2.158-1.263 c-2.615,4.11-5.719,7.858-9.349,11.111C174.579,99.943,176.354,101.705,177.55,100.632L177.55,100.632z" style="fill: rgb(120, 118, 253);"/>
          </g>
        </g>
        <g>
          <g>
            <path d="M182.744,72.998c2.402,4.611,3.459,9.669,4.125,14.79c0.205,1.575,2.708,1.595,2.5,0 c-0.725-5.578-1.85-11.027-4.467-16.052C184.158,70.306,182,71.57,182.744,72.998L182.744,72.998z" style="fill: rgb(95, 95, 251);"/>
          </g>
        </g>
        <g>
          <g>
            <path d="M187.936,89.471c2.697,0.652,5.398,1.301,8.023,2.206c1.528,0.527,2.179-1.888,0.665-2.411 c-2.625-0.906-5.327-1.553-8.023-2.207C187.034,86.68,186.37,89.09,187.936,89.471L187.936,89.471z" style="fill: rgb(95, 95, 251);"/>
          </g>
        </g>
        <g>
          <g>
            <path d="M183.842,68.807c1.99-2.317,3.054-4.98,3.782-7.919c0.387-1.565-2.024-2.229-2.411-0.665 c-0.618,2.497-1.439,4.838-3.138,6.816C181.03,68.255,182.79,70.032,183.842,68.807L183.842,68.807z" style="fill: rgb(95, 95, 251);"/>
          </g>
        </g>
        <g>
          <g>
            <path d="M166.894,60.939c-0.498-1.591-0.995-3.182-1.492-4.772c-0.48-1.533-2.894-0.878-2.411,0.665 c0.498,1.59,0.995,3.181,1.492,4.772C164.962,63.137,167.376,62.482,166.894,60.939L166.894,60.939z" style="fill: rgb(95, 95, 251);"/>
          </g>
        </g>
        <g>
          <g>
            <path d="M201.237,65.123c1.8,4.066,4.205,8.594,3.245,13.175c-0.33,1.573,2.081,2.242,2.411,0.665 c1.121-5.349-1.384-10.33-3.498-15.102C202.744,62.389,200.59,63.663,201.237,65.123L201.237,65.123z" style="fill: rgb(95, 95, 251);"/>
          </g>
        </g>
        <g>
          <path d="M118.383,87.581c-7.159,2.237-14.556,0.358-21.059,1.343c-4.295,1.342-14.884,9.366-13.869,14.288 c1.163,5.399,13.93,7.695,18.374,6.83c6.502-0.983,12.766-6.085,18.344-8.353" style="fill: rgba(120, 118, 253, 0.3);"/>
          <g>
            <path d="M118.05,86.375c-5.769,1.536-11.52,0.928-17.405,1.012c-3.655,0.053-6.035,1.202-9.033,3.205 c-3.998,2.672-10.935,8.094-9.119,13.702c1.711,5.284,10.486,6.599,15.016,7.079c8.733,0.924,15.763-5.298,23.295-8.604 c1.473-0.646,0.2-2.802-1.262-2.158c-6.289,2.76-12.127,7.813-19.192,8.343c-4.793,0.358-11.354-1.082-14.86-4.501 c-4.305-4.198,7.402-11.854,10.168-13.426c3.394-1.93,8.207-1.145,11.949-1.053c3.799,0.09,7.438-0.209,11.108-1.188 C120.271,88.372,119.61,85.96,118.05,86.375L118.05,86.375z" style="fill: rgb(95, 95, 251);"/>
          </g>
        </g>
        <g display="none">
          <path display="inline" d="M128.02,67.806c-6.689-13.919-1.546-33.149,17.069-34.553 c1.231,4.581-2.968,7.838-4.702,11.743c-2.32,5.372-2.468,7.868-1.824,13.917" fill="#D6E5EA"/>
          <g display="inline">
            <path d="M129.099,67.175c-4.393-9.64-3.532-22.173,5.381-28.97c2.082-1.588,4.564-2.505,7.071-3.162 c4.962-1.3-0.804,6.768-1.657,8.168c-2.935,4.815-3.112,10.284-2.581,15.701c0.156,1.589,2.657,1.604,2.5,0 c-0.556-5.678-0.113-10.579,2.927-15.566c2.153-3.533,4.246-6.119,3.555-10.426c-0.081-0.502-0.703-0.968-1.206-0.917 c-18.472,1.853-25.326,20.685-18.148,36.434C127.608,69.902,129.762,68.63,129.099,67.175L129.099,67.175z" fill="#44A98D"/>
          </g>
        </g>
        <g>
          <path d="M132.432,114.098c-0.774,7.575-4.802,11.453-0.357,18.969c2.446,4.476,11.007,11.752,15.72,13.424 c1.134-9.783-6.651-16.258-1.074-26.904" style="fill: rgba(120, 118, 253, 0.3);"/>
          <g>
            <path d="M131.226,113.766c-1.054,7.821-4.204,13.354,0.262,20.75c3.344,5.539,10.017,10.773,15.974,13.18 c0.808,0.326,1.529-0.479,1.583-1.205c0.681-9.272-5.557-17.133-1.245-26.273c0.684-1.447-1.471-2.719-2.158-1.262 c-1.911,4.051-2.505,7.792-1.831,12.216c0.806,5.286,3.138,9.82,2.734,15.319c0.527-0.402,1.055-0.805,1.583-1.206 c-5.206-2.103-9.741-6.317-13.357-10.517c-5.686-6.603-2.126-12.965-1.132-20.338 C133.849,112.854,131.441,112.173,131.226,113.766L131.226,113.766z" style="fill: rgb(95, 95, 251);"/>
          </g>
        </g>
        <g>
          <path d="M194.434,51.507c5.661-2.491,9.66-8.756,13.421-13.459c7.334,4.324,4.264,16.01-2.791,19.248" style="fill: rgba(120, 118, 253, 0.3);"/>
          <g>
            <path d="M195.064,52.586c5.991-2.914,9.668-8.575,13.674-13.654c-0.505,0.065-1.01,0.13-1.515,0.195 c6.59,4.351,3.218,14.005-2.791,17.089c-1.435,0.736-0.169,2.893,1.262,2.158c7.823-4.015,10.879-16.066,2.791-21.406 c-0.426-0.281-1.185-0.223-1.515,0.195c-3.864,4.899-7.386,10.451-13.168,13.264C192.353,51.133,193.621,53.289,195.064,52.586 L195.064,52.586z" style="fill: rgb(95, 95, 251);"/>
          </g>
        </g>
        <g>
          <path d="M211.862,86.652c8.023,2.207,7.517,12.32,4.713,18.435c-4.235-1.819-6.503-7.397-11.036-10.171" style="fill: rgba(120, 118, 253, 0.3);"/>
          <g>
            <path d="M211.53,87.859c7.073,2.287,6.384,11.025,3.966,16.597c0.57-0.149,1.14-0.299,1.71-0.448 c-4.526-2.269-6.844-7.354-11.036-10.171c-1.342-0.903-2.592,1.265-1.262,2.158c4.216,2.835,6.431,7.862,11.036,10.171 c0.551,0.275,1.427,0.205,1.71-0.448c3.099-7.14,3.349-17.42-5.459-20.27C210.656,84.95,210.003,87.365,211.53,87.859 L211.53,87.859z" style="fill: rgb(95, 95, 251);"/>
          </g>
        </g>
        <g>
          <g>
            <path d="M100.69,96.087c0.148,0.093,0.193,0.118,0.135,0.077c0.111,0.113,0.13,0.134,0.058,0.061 c0.068,0.135,0.081,0.15,0.038,0.043c0.047,0.115,0.082,0.237,0.119,0.356c0.483,1.532,2.897,0.877,2.411-0.665 c-0.274-0.869-0.692-1.563-1.5-2.029C100.554,93.12,99.296,95.281,100.69,96.087L100.69,96.087z" style="fill: rgb(95, 95, 251);"/>
          </g>
        </g>
        <g>
          <g>
            <path d="M94.257,110.018c3.247-1.549,6.479-3.147,8.621-6.146c0.94-1.313-1.229-2.562-2.158-1.263 c-1.848,2.584-4.944,3.923-7.725,5.248C91.541,108.553,92.81,110.708,94.257,110.018L94.257,110.018z" style="fill: rgb(95, 95, 251);"/>
          </g>
        </g>
        <g>
          <path d="M127.5,66.5c-1.25-7-2.75-11.75,3-17.25c4-4,10.5-7.75,16-6.75c-1.75,1.75-3.75,2.75-4.75,5.5 c-0.75,2.5,1.25,5.75,0.5,7.75" style="fill: rgba(120, 118, 253, 0.29);"/>
          <g>
            <path d="M128.706,66.167c-0.995-5.433-2.165-10.288,1.623-14.943c3.759-4.62,10.166-8.137,16.172-7.475 c-0.294-0.711-0.589-1.422-0.884-2.134c-1.984,1.836-3.786,3.261-4.945,5.753c-1.176,2.526,0.776,5.478,0.374,8.048 c-0.247,1.577,2.162,2.254,2.411,0.665c0.244-1.563,0.08-2.807-0.25-4.353c-0.895-4.193,1.422-5.794,4.178-8.346 c0.879-0.813,0.116-2.023-0.884-2.134c-7.334-0.809-14.342,3.785-18.815,9.283c-3.87,4.757-2.393,10.828-1.391,16.299 C126.585,68.417,128.994,67.744,128.706,66.167L128.706,66.167z" style="fill: rgb(95, 95, 251);"/>
          </g>
        </g>
      </g>
      <g>
        <g>
          <path fill="#FFFFFF" d="M101.383,104.189c6,2.244,11.43,6.434,16.523,9.551l0.503,1.607 c-3.854,6.502-10.557,13.305-15.986,18.533l-0.904,0.871c-14.68-3.652-32.342-18.732-44.977-27.146l0,0 c2.554-5.95,9.685-14.211,13.337-19.473l1.441-1.039c4.391,2.748,10.213,6.309,14.603,9.057c0,0-5.405,8.505,1.092,11.025 c6.498,2.523,7.017,3.299,12.696-1.715"/>
          <g>
            <path d="M101.051,105.395c4.284,1.738,8.124,4.174,11.978,6.696c1.281,0.839,3.578,1.681,4.045,3.173 c0.215,0.688-3.996,5.479-4.199,5.733c-2.447,3.071-5.199,5.901-7.958,8.69c-1.256,1.27-2.543,2.508-3.829,3.746 c-0.227,0.219-3.952-1.398-4.374-1.56c-14.599-5.53-26.74-16.731-39.541-25.347c0.149,0.57,0.299,1.141,0.449,1.709 c2.783-6.012,7.152-11.184,11.123-16.434c0.607-0.805,1.313-2.263,2.139-2.857c1.075-0.774,2.465,0.887,3.66,1.628 c3.583,2.221,7.174,4.427,10.749,6.657c-0.149-0.568-0.299-1.14-0.448-1.709c-2.146,3.482-3.421,8.043-0.54,11.427 c1.556,1.825,5.897,3.174,8.188,3.387c3.338,0.31,5.724-1.937,8.103-3.985c1.223-1.057-0.554-2.815-1.768-1.77 c-1.604,1.383-3.287,3.167-5.541,3.328c-1.982,0.142-5.014-1.5-6.667-2.313c-3.268-1.604-0.876-6.77,0.383-8.813 c0.365-0.594,0.119-1.356-0.448-1.71c-4.858-3.034-9.744-6.023-14.603-9.058c-0.349-0.218-0.916-0.25-1.262,0 c-2.834,2.043-4.595,5.176-6.703,7.945c-3.137,4.121-6.339,8.292-8.525,13.014c-0.3,0.65-0.158,1.303,0.449,1.711 c8.029,5.402,15.669,11.354,23.74,16.701c4.312,2.854,8.782,5.454,13.465,7.649c1.873,0.878,7.114,3.92,9.034,2.795 c3.422-2.004,6.505-6.335,9.172-9.226c2.541-2.754,7.271-7.209,8.293-10.926c0.682-2.479-2.396-3.846-3.891-4.811 c-4.544-2.936-8.977-5.848-14.009-7.891C100.221,102.378,99.577,104.797,101.051,105.395L101.051,105.395z" style="fill: rgb(95, 95, 251);"/>
          </g>
        </g>
        <g>
          <g>
            <path d="M70.37,91.534c5.325,6.302,6.877,14.672,9.733,22.205c0.565,1.491,2.983,0.845,2.41-0.665 c-3.03-7.991-4.728-16.623-10.376-23.307C71.096,88.533,69.336,90.311,70.37,91.534L70.37,91.534z" style="fill: rgb(95, 95, 251);"/>
          </g>
        </g>
        <g>
          <g>
            <path d="M82.717,115.395c10.313,0.791,20.489,2.896,30.866,2.713c1.61-0.026,1.613-2.526,0-2.5 c-10.377,0.185-20.554-1.922-30.866-2.713C81.108,112.77,81.12,115.271,82.717,115.395L82.717,115.395z" style="fill: rgb(95, 95, 251);"/>
          </g>
        </g>
        <g>
          <g>
            <path d="M90.896,116.251c1.412,6.218,7.455,11.46,7.49,17.972c0.009,1.611,2.509,1.611,2.5,0 c-0.037-6.895-6.105-12.146-7.58-18.637C92.949,114.016,90.539,114.682,90.896,116.251L90.896,116.251z" style="fill: rgb(95, 95, 251);"/>
          </g>
        </g>
        <g>
          <g>
            <path d="M77.354,105.152c-7.06-0.664-13.814,1.106-20.812,1.207c-1.611,0.021-1.613,2.521,0,2.5 c6.998-0.1,13.752-1.87,20.812-1.207C78.959,107.803,78.944,105.301,77.354,105.152L77.354,105.152z" style="fill: rgb(95, 95, 251);"/>
          </g>
        </g>
      </g>
    </g>
    <g id="addons">
      <g>
        <path fill="#FFFFFF" d="M237.333,41c-4.333,4.667,8,9.333,10.667,3.667C251.333,37.667,237.667,33.333,237.333,41"/>
        <g>
          <path d="M236.449,40.116c-5.62,6.571,10.605,12.924,13.15,3.782c2.198-7.899-12.817-12.056-13.517-2.898 c-0.123,1.609,2.378,1.597,2.5,0c0.384-5.032,8.557-2.582,8.69,1.52c0.097,2.97-3.054,3.78-5.404,3.39 c-1.679-0.278-5.52-1.842-3.652-4.026C239.259,40.666,237.499,38.889,236.449,40.116L236.449,40.116z" style="fill: rgb(95, 95, 251);"/>
        </g>
      </g>
      <g>
        <path fill="#FFFFFF" d="M103.75,56.25c-0.25,2.75,4.75,3.25,5,0c0-2.5-4-3.25-4.75-0.75"/>
        <g>
          <path d="M102.5,56.25c-0.202,4.04,6.036,4.706,7.283,1.111c1.529-4.41-5.484-6.519-6.988-2.194 c-0.531,1.527,1.884,2.177,2.41,0.665c0.445-1.281,2.851-0.444,2.136,0.89c-0.536,1.002-2.394,0.578-2.341-0.473 C105.081,54.638,102.58,54.646,102.5,56.25L102.5,56.25z" style="fill: rgb(120, 118, 253);"/>
        </g>
      </g>
      <g>
        <path fill="#FFFFFF" d="M226.431,126.038c1.111-8.854,10.455-9.121,16.708-5.89l-0.197,0.049c-0.15-1.426,0.092-2.951,1.32-3.889 c1.676,1.668,2.914,5.748,2.87,8.061c-1.032,0.051-1.968-0.34-2.806-1.176l-0.541-0.489c-2.891,5.121-11.834,8.633-16.663,4.414 L226.431,126.038z"/>
        <g>
          <path d="M227.154,126.236c1.361-7.993,9.473-8.406,15.607-5.44c0.06-0.457,0.119-0.914,0.179-1.371 c-0.066,0.017-0.131,0.033-0.197,0.05c0.316,0.24,0.633,0.481,0.949,0.724c-0.178-6.425,4.915,5.86,0.623,1.977 c-0.366-0.332-0.91-0.271-1.178,0.152c-2.836,4.458-12.269,9.258-16.059,3.333c-0.519-0.813-1.818-0.063-1.295,0.757 c4.44,6.94,15.18,2.12,18.649-3.333c-0.393,0.051-0.785,0.102-1.178,0.15c1.263,1.146,2.165,1.722,3.877,1.886 c0.395,0.038,0.767-0.37,0.75-0.75c-0.139-3.113-1.086-6.177-3.089-8.591c-0.254-0.307-0.801-0.278-1.061,0 c-1.267,1.363-1.591,2.572-1.54,4.419c0.014,0.493,0.468,0.844,0.949,0.723c0.066-0.019,0.131-0.032,0.197-0.049 c0.601-0.149,0.772-1.084,0.179-1.371c-7.004-3.388-16.282-2.64-17.81,6.338C225.546,126.784,226.992,127.189,227.154,126.236z" style="fill: rgb(95, 95, 251);"/>
        </g>
      </g>
      <g>
        <path d="M163.968,28.991c1.859-14.825,17.504-15.271,27.971-9.86l-0.329,0.083c-0.25-2.387,0.155-4.94,2.21-6.509 c2.805,2.793,4.878,9.623,4.805,13.493c-1.73,0.085-3.295-0.569-4.697-1.967l-0.906-0.821 c-4.842,8.573-19.814,14.452-27.898,7.39L163.968,28.991z" fill="#FFFFFF"/>
        <g>
          <path d="M164.691,29.19c2.165-13.718,16.428-14.555,26.87-9.412c0.06-0.457,0.119-0.914,0.179-1.371 c0.367-0.093,2.489-4.02,2.768-3.624c0.928,1.318,1.529,2.98,2.071,4.463c0.451,1.233,0.727,2.522,0.998,3.802 c0.925,4.373-2.296,1.396-4.024-0.169c-0.362-0.329-0.916-0.274-1.178,0.152c-4.855,7.868-21.23,15.793-27.759,5.581 c-0.519-0.812-1.818-0.061-1.295,0.757c3.978,6.222,12.046,6.06,18.396,3.905c3.751-1.272,7.078-3.636,9.781-6.49 c1.709-1.804,0.805-2.944,2.981-1.115c1.192,1.001,2.666,1.19,4.146,1.278c0.401,0.024,0.76-0.359,0.75-0.75 c-0.123-4.929-1.729-10.28-5.024-14.023c-0.27-0.306-0.786-0.276-1.061,0c-2.072,2.087-2.559,4.117-2.43,7.04 c0.021,0.492,0.462,0.846,0.949,0.723c0.11-0.028,0.22-0.055,0.329-0.083c0.604-0.152,0.769-1.08,0.179-1.371 c-11.299-5.566-26.757-4.37-29.073,10.309C163.096,29.738,164.541,30.144,164.691,29.19z" style="fill: rgb(95, 95, 251);"/>
        </g>
      </g>
      <g>
        <path fill="#FFFFFF" d="M327.167,56.042c3.362,1.931,5.288-3.551,8.82-3.561c3.002-0.188,5.13,2.279,5.489,5.104 c0.17,4.727-6.851,7.501-7.405,12.016c-0.403,3.289,5.146-0.526,5.146-0.526c1.286,2.333,2.688,10.38-4.707,15.806 c-2.014,1.477-4.003-4.615-4.329-2.759c-0.55,3.121-1.186,6.208-2.729,9.069c-3.336,6.545-10.214,9.926-15.884,3.938 c-2.483-2.818-3.387-8.645,1.2-10.425c1.589-0.89,6.184,0.155,6.544,2.274c0.539,3.354-3.698,3.016-3.888-0.343 c-4.586,2.487,0.736,9.536,5.318,6.343c5.463-4.078-0.211-10.773-1.286-16.069c-1.076-4.59,0.141-11.129,5.078-13.617 c1.411-0.711,6.184-0.196,6.883-1.965c1.403-3.184-4.955-3.164-5.842-4.043c-0.001-0.354,0.352-0.355,0.524-0.886L327.167,56.042 z"/>
        <g>
          <path d="M326.968,56.765c1.618,0.618,2.659,0.399,4.118-0.492c1.183-0.723,2.166-1.817,3.329-2.584 c5.476,0.245,7.326,2.419,5.552,6.524c-0.596,0.904-1.272,1.738-2.037,2.502c-1.012,1.093-7.101,6.835-3.936,8.689 c0.987,0.578,2.104,0.121,3.063-0.267c0.725-0.292,1.396-0.7,2.061-1.102c0.246-0.149-0.043,0.668,0.188,1.726 c0.969,4.394-1.045,8.589-4.108,11.606c-2.268,2.23-3.188-1.989-4.668-2.303c-0.304-0.063-0.709,0.027-0.85,0.345 c-0.685,1.563-0.797,3.483-1.213,5.146c-1.01,4.031-3.272,7.676-6.792,9.928c-3.821,2.447-8.473,0.187-10.55-3.359 c-1.188-2.025-1.172-4.787,0.322-6.693c0.986-0.432,1.977-0.861,2.965-1.293c1.688-0.378,2.27,0.057,1.739,1.303 c-0.092-0.449-0.725-0.721-1.104-0.447c-3.876,2.773-1.604,7.533,2.556,8.501c2.349,0.546,4.279-1.319,5.494-3.029 c2.018-2.835-0.13-7.302-1.232-9.963c-2.037-4.907-2.942-9.645-0.223-14.555c1.556-2.804,4.027-3.075,6.805-3.514 c0.804-0.127,2.474-0.248,3.064-1.009c0.868-1.115,1.261-2.461,0.123-3.598c-0.667-0.667-1.632-0.948-2.499-1.235 c-1.157-0.384-3.764-0.154-1.771-0.822c0.912-0.306,0.521-1.755-0.398-1.446c-1.148,0.386-1.461,0.488-2.035,1.586 c-0.189,0.365-0.094,0.809,0.271,1.026c0.82,0.493,1.758,0.654,2.681,0.876c0.777,0.172,1.527,0.428,2.25,0.768 c2.59,1.19-3.978,2.604-4.021,2.609c-2.588,0.272-4.305,1.969-5.765,4.002c-4.778,6.658,0.07,14.024,1.803,20.624 c0.925,3.703-0.986,5.604-5.731,5.699c-4.026-1.889-0.504-2.794-1.438-4.486c0.52,0.94,0.963,1.443,1.943,1.892 c0.956,0.437,2.473,0.009,2.861-1.039c1.723-4.622-5.585-6.622-8.58-4.176c-4.719,3.854-1.819,10.047,2.306,12.987 c6.33,4.514,12.758-2.322,15.289-7.564c0.941-1.951,1.379-4.143,1.818-6.244c0.284-1.361,0.845,0.438,1.6,1.238 c1.425,1.514,2.818,0.299,4.037-0.688c4.424-3.578,6.084-10.602,3.609-15.731c-0.17-0.353-0.706-0.484-1.026-0.269 c-0.92,0.616-1.878,1.141-2.908,1.558c-0.938-1.411-0.729-2.623,0.621-3.634c0.729-0.919,1.622-1.736,2.438-2.575 c1.474-1.514,3.731-4.021,3.212-6.39c-0.624-2.833-2.009-4.65-4.785-5.553c-3.961-1.288-6.425,4.87-10.051,3.485 C326.461,54.973,326.073,56.424,326.968,56.765z" style="fill: rgb(95, 95, 251);"/>
        </g>
      </g>
      <g>
        <path fill="#FFFFFF" d="M277.75,98.635c-0.25,2.75,4.75,3.25,5,0c0-2.5-4-3.25-4.75-0.75"/>
        <g>
          <path d="M276.5,98.635c-0.202,4.04,6.036,4.706,7.283,1.111c1.529-4.41-5.484-6.52-6.988-2.194 c-0.531,1.527,1.885,2.177,2.41,0.665c0.445-1.281,2.852-0.443,2.136,0.891c-0.536,1.002-2.394,0.578-2.341-0.474 C279.081,97.023,276.58,97.029,276.5,98.635L276.5,98.635z" style="fill: rgb(95, 95, 251);"/>
        </g>
      </g>
    </g>
  </g>
</svg>