<svg width="515" height="501" viewBox="0 0 515 501" fill="none" xmlns="http://www.w3.org/2000/svg">
<path d="M177.2 16.838L21.6488 172.389L177.2 327.941L332.751 172.389L177.2 16.838Z" fill="url(#paint0_linear_2704_427)"/>
<path d="M332.759 172.386L177.208 327.938L332.759 483.489L488.311 327.938L332.759 172.386Z" fill="url(#paint1_linear_2704_427)"/>
<path d="M177.203 16.8393L332.751 172.387L488.306 16.8393H177.203Z" fill="url(#paint2_linear_2704_427)"/>
<path d="M177.203 327.942L21.6488 483.49H332.752L177.203 327.942Z" fill="url(#paint3_linear_2704_427)"/>
<path d="M177.203 327.942L21.6488 483.49H332.752L177.203 327.942Z" fill="url(#paint4_linear_2704_427)"/>
<defs>
<linearGradient id="paint0_linear_2704_427" x1="253.855" y1="248.282" x2="107.058" y2="102.95" gradientUnits="userSpaceOnUse">
<stop stop-color="#3B95C9"/>
<stop offset="1" stop-color="#59B1E3"/>
</linearGradient>
<linearGradient id="paint1_linear_2704_427" x1="266.019" y1="257.765" x2="408.411" y2="407.496" gradientUnits="userSpaceOnUse">
<stop stop-color="#59B1E3"/>
<stop offset="1" stop-color="#9BD0F0"/>
</linearGradient>
<linearGradient id="paint2_linear_2704_427" x1="462.051" y1="-16.1196" x2="170.943" y2="139.551" gradientUnits="userSpaceOnUse">
<stop stop-color="#59B1E3"/>
<stop offset="1" stop-color="#9BD0F0"/>
</linearGradient>
<linearGradient id="paint3_linear_2704_427" x1="341.914" y1="352.945" x2="50.8514" y2="529.612" gradientUnits="userSpaceOnUse">
<stop stop-color="#59B1E3"/>
<stop offset="1" stop-color="#9BD0F0"/>
</linearGradient>
<linearGradient id="paint4_linear_2704_427" x1="253.96" y1="405.411" x2="168.818" y2="492.024" gradientUnits="userSpaceOnUse">
<stop stop-color="#3B95C9"/>
<stop offset="1" stop-color="#9BD0F0" stop-opacity="0"/>
</linearGradient>
</defs>
</svg>
