<?xml version="1.0" encoding="utf-8"?>
<!-- Generator: Adobe Illustrator 23.0.2, SVG Export Plug-In . SVG Version: 6.00 Build 0)  -->
<svg version="1.1" id="Слой_1" xmlns="http://www.w3.org/2000/svg" xmlns:xlink="http://www.w3.org/1999/xlink" x="0px" y="0px"
	 viewBox="0 0 1485.9 1081" style="enable-background:new 0 0 1485.9 1081;" xml:space="preserve">
<style type="text/css">
	.st0{fill:#E9F4FE;}
	.st1{fill:#5584DB;}
	.st2{fill:#8FBBEF;}
	.st3{fill:#FFFFFF;}
	.st4{fill:#6ABC44;}
	.st5{fill:#FF7400;}
	.st6{fill:#45CD05;}
	.st7{fill:#71A0EA;}
	.st8{fill:#34405B;}
	.st9{fill:#247B77;}
	.st10{fill:#3CAF99;}
	.st11{fill:#FCC05E;}
	.st12{fill:#39215B;}
	.st13{fill:#329587;}
	.st14{fill:#FFE088;}
	.st15{fill:#DD9E85;}
	.st16{fill:#DB9A7D;}
	.st17{fill:#F9CCA0;}
	.st18{clip-path:url(#SVGID_2_);fill:#C9886F;}
	.st19{clip-path:url(#SVGID_4_);fill:#329587;}
	.st20{clip-path:url(#SVGID_4_);fill:#247B77;}
	.st21{clip-path:url(#SVGID_4_);fill:#3CAF99;}
	.st22{clip-path:url(#SVGID_6_);fill:#247B77;}
	.st23{clip-path:url(#SVGID_6_);fill:#329587;}
	.st24{clip-path:url(#SVGID_6_);fill:#3CAF99;}
	.st25{clip-path:url(#SVGID_8_);fill:#247B77;}
	.st26{clip-path:url(#SVGID_8_);fill:#329587;}
	.st27{clip-path:url(#SVGID_8_);fill:#3CAF99;}
	.st28{clip-path:url(#SVGID_10_);fill:#F9CCA0;}
	.st29{clip-path:url(#SVGID_10_);fill:#DB9A7D;}
	.st30{fill:#212B46;}
	.st31{fill:#3B4256;}
	.st32{fill:#4A5372;}
	.st33{fill:#B3CBDD;}
	.st34{clip-path:url(#SVGID_14_);fill:#39215B;}
	.st35{clip-path:url(#SVGID_16_);fill:#39215B;}
</style>
<g>
	<circle class="st0" cx="739.3" cy="525" r="525"/>
	<path class="st1" d="M1183.4,839.5H298.9V284.7c0-16.8,13.6-30.3,30.3-30.3h823.9c16.8,0,30.3,13.6,30.3,30.3V839.5z"/>
	<rect x="325.1" y="301.4" class="st0" width="828.3" height="509.7"/>
	<rect x="609.3" y="325.3" class="st2" width="179.6" height="34.2"/>
	<rect x="982.8" y="316.8" class="st3" width="152" height="22.8"/>
	<rect x="463.2" y="710.6" class="st2" width="499.9" height="34.6"/>
	<rect x="325.1" y="301.4" class="st3" width="214.4" height="315.6"/>
	<rect x="325.1" y="610.8" class="st3" width="214.4" height="200.4"/>
	<rect x="535" y="402.2" class="st3" width="408.5" height="238.9"/>
	<path class="st2" d="M947.7,643.4H534.8V400h412.9V643.4z M539.2,639h404.1V404.4H539.2V639z"/>
	<g>
		<rect x="1025.9" y="365.1" class="st2" width="97.4" height="4.1"/>
		<rect x="1025.9" y="383.2" class="st2" width="84.9" height="4.1"/>
		<rect x="1025.9" y="401.2" class="st2" width="97.4" height="4.1"/>
		<rect x="1025.9" y="419.3" class="st2" width="97.4" height="4.1"/>
		<rect x="1025.9" y="437.4" class="st2" width="81.8" height="4.1"/>
		<rect x="1025.9" y="455.5" class="st2" width="97.4" height="4.1"/>
		<rect x="1025.9" y="473.5" class="st2" width="75.2" height="4.1"/>
		<rect x="1025.9" y="491.6" class="st2" width="97.4" height="4.1"/>
		<rect x="1025.9" y="509.7" class="st2" width="56.8" height="4.1"/>
		<rect x="1025.9" y="527.8" class="st2" width="97.4" height="4.1"/>
		<rect x="1025.9" y="545.8" class="st2" width="97.4" height="4.1"/>
		<rect x="1025.9" y="563.9" class="st2" width="38.4" height="4.1"/>
		<rect x="1025.9" y="582" class="st2" width="62.9" height="4.1"/>
		<rect x="1025.9" y="600.1" class="st2" width="34.3" height="4.1"/>
		<rect x="1025.9" y="618.1" class="st2" width="81.8" height="4.1"/>
		<rect x="1025.9" y="636.2" class="st2" width="97.4" height="4.1"/>
		<rect x="1025.9" y="654.3" class="st2" width="81.8" height="4.1"/>
		<rect x="1025.9" y="672.4" class="st2" width="97.4" height="4.1"/>
		<rect x="1025.9" y="690.4" class="st2" width="97.4" height="4.1"/>
		<rect x="1025.9" y="708.5" class="st2" width="75.2" height="4.1"/>
		<rect x="1025.9" y="726.6" class="st2" width="97.4" height="4.1"/>
		<rect x="1025.9" y="743.1" class="st2" width="48.7" height="4.1"/>
		<rect x="1025.9" y="759.7" class="st2" width="69.7" height="4.1"/>
		<rect x="1025.9" y="776.2" class="st2" width="97.4" height="4.1"/>
		<rect x="1025.9" y="792.7" class="st2" width="72.6" height="4.1"/>
	</g>
	<circle class="st4" cx="1014.4" cy="367.2" r="3.3"/>
	<circle class="st4" cx="1014.4" cy="385.2" r="3.3"/>
	<circle class="st4" cx="1014.4" cy="403.3" r="3.3"/>
	<circle class="st4" cx="1014.4" cy="421.4" r="3.3"/>
	<circle class="st4" cx="1014.4" cy="439.5" r="3.3"/>
	<circle class="st4" cx="1014.4" cy="457.5" r="3.3"/>
	<circle class="st4" cx="1014.4" cy="475.6" r="3.3"/>
	<circle class="st4" cx="1014.4" cy="493.7" r="3.3"/>
	<circle class="st5" cx="1014.4" cy="511.8" r="3.3"/>
	<circle class="st6" cx="1014.4" cy="529.8" r="3.3"/>
	<circle class="st6" cx="1014.4" cy="547.9" r="3.3"/>
	<circle class="st5" cx="1014.4" cy="566" r="3.3"/>
	<circle class="st5" cx="1014.4" cy="584.1" r="3.3"/>
	<circle class="st5" cx="1014.4" cy="602.1" r="3.3"/>
	<circle class="st5" cx="1014.4" cy="620.2" r="3.3"/>
	<circle class="st5" cx="1014.4" cy="638.3" r="3.3"/>
	<circle class="st5" cx="1014.4" cy="656.4" r="3.3"/>
	<circle class="st5" cx="1014.4" cy="674.4" r="3.3"/>
	<circle class="st5" cx="1014.4" cy="692.5" r="3.3"/>
	<circle class="st5" cx="1014.4" cy="710.6" r="3.3"/>
	<circle class="st5" cx="1014.4" cy="728.7" r="3.3"/>
	<circle class="st5" cx="1014.4" cy="745.2" r="3.3"/>
	<circle class="st5" cx="1014.4" cy="761.7" r="3.3"/>
	<circle class="st5" cx="1014.4" cy="778.3" r="3.3"/>
	<circle class="st5" cx="1014.4" cy="794.8" r="3.3"/>
	<rect x="592.4" y="503.2" class="st3" width="370.6" height="8.3"/>
	<rect x="592.4" y="538.7" class="st3" width="370.6" height="8.3"/>
	<rect x="592.4" y="569.8" class="st3" width="370.6" height="8.3"/>
	<rect x="592.4" y="663" class="st3" width="370.6" height="8.3"/>
	<polygon class="st7" points="1183.4,839.5 298.9,839.5 22.4,1021.1 1458.3,1021.1 	"/>
	<polygon class="st1" points="855.3,915 618.7,915 587.6,1001.6 890.8,1001.6 	"/>
	<path class="st8" d="M1398.3,1081H82.3c-33.1,0-60-26.8-60-60v0h1435.9v0C1458.3,1054.2,1431.4,1081,1398.3,1081z"/>
	<path class="st9" d="M1080.6,428l-21.4-69.1L840,492.7l-261.2-18.9l25.3,76.8l223.3,16.6c17.1,1.3,34.2-2.7,49-11.4l196.6-110
		C1079.5,442.4,1082.6,435,1080.6,428z"/>
	<circle class="st10" cx="130.2" cy="471.4" r="13.7"/>
	<circle class="st10" cx="1109.6" cy="158.3" r="13.7"/>
	<circle class="st10" cx="211.3" cy="555.7" r="7.6"/>
	<path class="st10" d="M230.3,455.5c-14.7,0-26.6-11.9-26.6-26.6c0-14.7,11.9-26.6,26.6-26.6c14.7,0,26.6,11.9,26.6,26.6
		C256.9,443.5,245,455.5,230.3,455.5z M230.3,409c-11,0-19.9,8.9-19.9,19.9c0,11,8.9,19.9,19.9,19.9c11,0,19.9-8.9,19.9-19.9
		C250.2,417.9,241.3,409,230.3,409z"/>
	<path class="st10" d="M1237.6,424.2c-14.7,0-26.6-11.9-26.6-26.6c0-14.7,11.9-26.6,26.6-26.6c14.7,0,26.6,11.9,26.6,26.6
		C1264.2,412.2,1252.3,424.2,1237.6,424.2z M1237.6,377.6c-11,0-19.9,8.9-19.9,19.9c0,11,8.9,19.9,19.9,19.9
		c11,0,19.9-8.9,19.9-19.9C1257.5,386.6,1248.6,377.6,1237.6,377.6z"/>
	<g>
		<path class="st11" d="M877.1,573.4c0,0,2.4-17.9-35.5-47c-37.9-29.1-94.2-68.4-84.7-169s106-128.2,143.2-131.5
			s119.1,15.3,146.5,82.9c27.4,67.6,19,108.4-11.7,164.1c-30.6,55.7-32,80.5-32,80.5L877.1,573.4z"/>
		<path class="st1" d="M1010.5,573.2l-135.4,21.5c-2.8,0.4-5.4-1.5-5.8-4.2l-1.7-10.5c-0.4-2.8,1.5-5.4,4.2-5.8l135.4-21.5
			c2.8-0.4,5.4,1.5,5.8,4.2l1.7,10.5C1015.2,570.2,1013.3,572.8,1010.5,573.2z"/>
		<path class="st1" d="M1013.8,593.8l-135.4,21.5c-2.8,0.4-5.4-1.5-5.8-4.2l-1.7-10.5c-0.4-2.8,1.5-5.4,4.2-5.8l135.4-21.5
			c2.8-0.4,5.4,1.5,5.8,4.2l1.7,10.5C1018.5,590.7,1016.6,593.3,1013.8,593.8z"/>
		<path class="st1" d="M1017.1,614.3l-135.4,21.5c-2.8,0.4-5.4-1.5-5.8-4.2l-1.7-10.5c-0.4-2.8,1.5-5.4,4.2-5.8l135.4-21.5
			c2.8-0.4,5.4,1.5,5.8,4.2l1.7,10.5C1021.7,611.3,1019.8,613.9,1017.1,614.3z"/>
		<path class="st1" d="M1020.3,634.9l-135.4,21.5c-2.8,0.4-5.4-1.5-5.8-4.2l-1.7-10.5c-0.4-2.8,1.5-5.4,4.2-5.8l135.4-21.5
			c2.8-0.4,5.4,1.5,5.8,4.2l1.7,10.5C1025,631.8,1023.1,634.4,1020.3,634.9z"/>
		<path class="st12" d="M985.2,661.5l-58.5,9.3c-11.6,1.8-23.4-3.4-31-13.7l-1.6-2.1l117-18.6v0
			C1007.7,649.8,997.6,659.5,985.2,661.5z"/>
		
			<rect x="839.3" y="582.2" transform="matrix(0.9877 -0.1566 0.1566 0.9877 -80.23 152.5463)" class="st3" width="177.2" height="6.3"/>
		
			<rect x="847.5" y="602.9" transform="matrix(0.9877 -0.1566 0.1566 0.9877 -83.3738 154.0831)" class="st3" width="177.2" height="6.3"/>
		
			<rect x="855.7" y="623.7" transform="matrix(0.9877 -0.1566 0.1566 0.9877 -86.5178 155.6199)" class="st3" width="177.2" height="6.3"/>
	</g>
	<path class="st13" d="M719.7,852.4H468.1c-2.5,0,12.4-0.2,13-2.6c31.8-146.6-1-179.4-3-243.7C475.2,509.2,522,458,593.9,458h0
		c43.9,1.6,139.4,115.7,117.4,185.8C694.9,696.3,724.2,848,724.2,848C724.2,850.4,722.2,852.4,719.7,852.4z"/>
	<path class="st10" d="M645.5,224.6l-6.6-0.6c0.1-1,2.5-25.5,16.2-52.8c12.7-25.3,37.9-57.8,85.6-68.4c37.9-8.4,75.4,4.5,108.4,37.3
		c24.7,24.6,38,51.2,38.5,52.3l-6,3c-0.5-1.1-53.2-105.3-139.6-86.1C655.6,128.5,645.6,223.6,645.5,224.6z"/>
	<path class="st10" d="M436.7,225.8l-5.9-3.1c0.2-0.5,24.9-47.7,73-94C547.8,86.3,621.1,36,720.6,36c0.9,0,1.7,0,2.6,0
		c88.9,0.8,148.9,43.3,183.5,78.8c37.5,38.4,53.7,76.1,54.4,77.7l-6.1,2.6c-0.2-0.4-16.5-38.3-53.2-75.8
		C868,84.8,809.6,43.4,723.1,42.7c-98.5-0.9-171.1,48.9-214.6,90.7C461.2,178.9,437,225.3,436.7,225.8z"/>
	<polygon class="st10" points="961.1,199.8 920.8,174.8 924.3,169.1 956,188.8 960.8,157.3 967.4,158.2 	"/>
	<polygon class="st10" points="639.1,231.2 630.6,189.2 637.1,187.9 643.2,218 669.4,192.9 674,197.8 	"/>
	<path class="st1" d="M1386.8,836.4h-122.6c-1.8,0-3.3-1.5-3.3-3.3s1.5-3.3,3.3-3.3h122.6c1.8,0,3.3,1.5,3.3,3.3
		S1388.7,836.4,1386.8,836.4z"/>
	<path class="st1" d="M1482.3,797h-218.1c-1.8,0-3.3-1.5-3.3-3.3s1.5-3.3,3.3-3.3h218.1c1.8,0,3.3,1.5,3.3,3.3
		S1484.2,797,1482.3,797z"/>
	<path class="st1" d="M1482.6,758.9h-218.1c-1.8,0-3.3-1.5-3.3-3.3s1.5-3.3,3.3-3.3h218.1c1.8,0,3.3,1.5,3.3,3.3
		S1484.4,758.9,1482.6,758.9z"/>
	<path class="st14" d="M894.9,570.6c0,0,9.4-76-46.9-114.7c-56.3-38.8-36.1-126.2,41.1-138.4c118-18.7,142.3,74.8,104.4,115.4
		s-12.1,124.1-12.1,124.1L894.9,570.6z"/>
	<path class="st15" d="M1072.2,374.5c-3.4-3.7-9.2-3.8-12.7-0.1c-11.2,12.1-32.5,40.2-15.6,66c22.2,34.1,60,9.6,50-24.8
		C1087.8,394.3,1078.5,381.3,1072.2,374.5z"/>
	<path class="st9" d="M492,562.7c0,0,67.7,173.5,117.8,192s97.1-33.5,97.1-33.5L492,562.7z"/>
	<path class="st10" d="M905,628.7l-3.4-11.5c-5.1-17.2-23.2-27.1-40.4-22l-193,56.8L559.8,523.4c-13.9-16.9-39-19.3-55.9-5.4l0,0
		c-16.9,13.9-19.3,39-5.4,55.9l113,134.4c16.5,20,43.3,28.2,68.1,20.8l203.3-59.8C900.3,664.2,910.1,646,905,628.7z"/>
	<path class="st3" d="M917.4,367.2l-18.6,3c-4.9,0.8-8.3,5.4-7.5,10.4l29.5,185.9l36.5-5.8l-29.5-185.9
		C927,369.8,922.3,366.4,917.4,367.2z"/>
	<g>
		<path class="st12" d="M672.3,406.5c0,0,5.8,55.6,0,68.4c-14.1,31.2-62.3,2.3-62.3,2.3l16.8-61.8L672.3,406.5z"/>
		
			<ellipse transform="matrix(0.1931 -0.9812 0.9812 0.1931 164.778 966.1804)" class="st15" cx="669.8" cy="382.9" rx="22.1" ry="18.9"/>
		<path class="st16" d="M672.6,399.4c4.1,0.5,7.6-1.7,9.4-5.8c1.5-3.4,1.3-7-0.5-8.7c-0.8-0.8-2.7-1.7-6,0.6c-4,2.9-7.2,1.1-8.7-1.3
			c-1.8-2.9-1.6-7.5,2.3-10.7c2.7-2.2,5.2-3,7.4-2.3c4.5,1.4,6.5,8.6,6.5,8.7l2-0.7c-0.1-0.3-2.3-8.3-7.8-10.1
			c-2.8-0.9-5.9,0-9.3,2.7c-5,4-5.2,9.9-2.8,13.7c2,3.3,6.5,5.2,11.4,1.8c0.9-0.6,2.6-1.6,3.5-0.7c1.1,1,1.1,3.7,0,6.1
			c-0.7,1.5-2.7,5-7.2,4.4L672.6,399.4z"/>
		<path class="st12" d="M586,264.1c-34.6-13.1-84.5,19.4-95.7,116s-2.4,102.1-1.3,107.6c3.5,18.6,38.7,27.3,75.3-6.9
			c6.4-6,4.3-34.7,4.3-34.7L586,264.1z"/>
		<g>
			<path class="st17" d="M563.4,424.7l1.4,58.7c0,0,37.3,21.7,63.5,1.2l-2.3-52.5L563.4,424.7z"/>
			<polygon class="st15" points="627.5,481.4 563.7,446.9 563.6,436.9 626.4,443.2 			"/>
		</g>
		<path class="st17" d="M662.7,428.9c-23.9,36-65.6,37.2-99.1,11.6s-40.3-83.8-16.4-119.8c23.9-36,77.1-39.3,110.7-13.7
			S686.6,392.9,662.7,428.9z"/>
		<circle class="st12" cx="596.1" cy="373.4" r="5.5"/>
		<circle class="st12" cx="654.4" cy="374.5" r="5.5"/>
		<polygon class="st12" points="620.5,405.7 632.7,405.7 627.6,372.4 625.3,372.8 630.1,403.4 620.4,403.5 		"/>
		<path class="st12" d="M584,360.3c10.2-5.9,21.2,0.3,21.3,0.4l1.1-2c-0.5-0.3-12.2-6.9-23.5-0.4L584,360.3z"/>
		<path class="st12" d="M648.4,363.4c0.1,0,7.3-3.7,14.8,0.1l1-2c-8.6-4.3-16.5-0.2-16.9-0.1L648.4,363.4z"/>
		<path class="st12" d="M638.6,309.4c-52.8-22.6-75.6,26.2-87.5,59.7c-22,61.6-19.9,72.1-19.9,72.1l-24.9-105.3
			c0,0,17.8-53.7,33-59.3C611,249.7,638.6,309.4,638.6,309.4z"/>
		<path class="st17" d="M642.4,377.4c0,0,3.2-4.5,10.8-3.4c7.6,1.1,12.1,0.8,12.1,0.8l-2.9-6.9l-18.1-1.8L642.4,377.4z"/>
		<path class="st17" d="M583.5,374.2c0,0,4.5,0.1,12-1.3s11,2.9,11,2.9l5.1-9l-15.5-6.2l-14,9.4L583.5,374.2z"/>
		<path class="st12" d="M643.2,378l-1.5-1.1c0.1-0.2,3.7-4.9,11.7-3.8c7.4,1,11.9,0.8,11.9,0.7l0.1,1.8c-0.2,0-4.7,0.3-12.3-0.8
			C646.2,374,643.3,377.8,643.2,378z"/>
		<path class="st12" d="M605.9,376.4c-0.1-0.2-3.2-3.9-10.1-2.6c-7.5,1.4-12,1.3-12.2,1.3l0-1.8c0,0,4.5,0.1,11.9-1.3
			c8-1.5,11.7,3.1,11.9,3.3L605.9,376.4z"/>
		<path class="st12" d="M623.6,424.2c-8.7,0-15.3-4.2-15.4-4.2l1.1-1.6c0.1,0.1,14.4,9,28-0.4l1.1,1.6
			C633.3,423.1,628.1,424.2,623.6,424.2z"/>
		<path class="st12" d="M585.7,263.1c0,0,19.3-23.1,54.4,0.6c38.3,25.9,51.3,31.9,41.2,89.9c0,0-50.2-42.1-122.3-47.3
			C549,305.5,585.7,263.1,585.7,263.1z"/>
		<path class="st12" d="M540.1,394.2c0,0-4,21.4,17.1,42.7l-16.2,11l-23.1-42.8L540.1,394.2z"/>
		<ellipse class="st17" cx="542.7" cy="383.2" rx="20.1" ry="23.7"/>
		<path class="st16" d="M544.6,398.9c3.7-0.9,6.2-4.1,6.5-8.6c0.3-3.7-1-7.1-3.1-8c-1-0.4-2.9-0.7-5,2.5c-2.7,4-6,3.4-8,1.7
			c-2.5-2.1-3.7-6.5-1.3-10.8c1.7-3,3.7-4.6,5.8-4.6c4.4-0.2,8.4,6,8.4,6l1.5-1.3c-0.2-0.3-4.6-7.1-10-6.9c-2.8,0.1-5.2,2-7.3,5.6
			c-3.1,5.4-1.5,11.1,1.7,13.8c2.8,2.4,7.3,2.8,10.6-2.1c0.6-0.9,1.8-2.3,2.9-1.8c1.2,0.6,2.1,3.2,1.9,5.8c-0.1,1.6-0.8,5.6-5,6.6
			L544.6,398.9z"/>
		<path class="st15" d="M588.7,310.4c0,0,12.3,5.5,37.7,19.8c25.4,14.3,55.5,32.6,55.5,32.6l-0.6-9
			C681.3,353.7,644.4,323.5,588.7,310.4z"/>
	</g>
	<g>
		<defs>
			<path id="SVGID_1_" d="M1072.5,374.4c-3.4-3.7-9.2-3.8-12.7-0.1c-11.2,12.1-32.5,40.2-15.6,66c22.2,34.1,60,9.6,50-24.8
				C1088,394.3,1078.8,381.3,1072.5,374.4z"/>
		</defs>
		<clipPath id="SVGID_2_">
			<use xlink:href="#SVGID_1_"  style="overflow:visible;"/>
		</clipPath>
		<path class="st18" d="M1039.5,412.5l-1.9-2.8c1.1-0.8,27.9-18.9,36.8-22.8l1.3,3.1C1067.1,393.7,1039.8,412.3,1039.5,412.5z"/>
		<path class="st18" d="M1041,434.4l-1.8-2.8c1.5-0.9,36.3-22.8,47.1-27.4l1.3,3.1C1077.1,411.7,1041.4,434.2,1041,434.4z"/>
		<path class="st18" d="M1050.7,449.2l-1.6-2.9c10.6-5.7,39.1-21.6,43.1-26.2l2.5,2.2C1089.5,428.3,1052.2,448.4,1050.7,449.2z"/>
	</g>
	<polygon class="st1" points="1302.5,988.2 935.4,992 890.8,858.6 1159.8,863.8 	"/>
	<rect x="890.8" y="896" class="st7" width="337.4" height="11.7"/>
	<rect x="908.8" y="944.6" class="st7" width="370.3" height="11.7"/>
	
		<rect x="956.7" y="844.9" transform="matrix(0.9222 -0.3867 0.3867 0.9222 -273.0619 442.1524)" class="st7" width="11.7" height="109.9"/>
	
		<rect x="1045.7" y="841.3" transform="matrix(0.8799 -0.4751 0.4751 0.8799 -312.7768 610.5063)" class="st7" width="11.7" height="165.6"/>
	
		<rect x="1135.9" y="830" transform="matrix(0.7882 -0.6154 0.6154 0.7882 -324.7162 897.6612)" class="st7" width="11.7" height="181.2"/>
	<g>
		<polygon class="st1" points="355.6,891.1 382.2,857.8 446.9,857.1 427.8,891.8 		"/>
		<polygon class="st1" points="414.3,940.3 434.6,903.5 498.5,904.2 482.7,941 		"/>
		<polygon class="st1" points="503.5,892.5 441,891.9 460.3,857 519.1,856.5 		"/>
		<polygon class="st1" points="511.2,904.3 563.4,904.8 550.7,941.6 495.3,941.1 		"/>
		<polygon class="st1" points="317.2,939.4 346.4,902.7 421.4,903.4 401,940.2 		"/>
		<polygon class="st1" points="281.8,983.8 307.9,950.9 394.6,951.8 375.9,985.7 		"/>
		<polygon class="st1" points="407.9,951.9 546.7,953.3 534.4,988.8 389.1,985.9 		"/>
		<polygon class="st1" points="302.4,939.2 222.7,938.4 267.3,901.9 331.6,902.5 		"/>
		<polygon class="st1" points="516.2,892.7 531.8,856.4 580.3,855.9 567.5,893.2 		"/>
		<polygon class="st1" points="340.8,891 280.2,890.4 323.7,858.3 367.1,857.9 		"/>
		<polygon class="st1" points="167.4,981.5 208.4,950 293.1,950.8 267.8,982.6 268.8,983.5 		"/>
	</g>
	<g>
		<polygon class="st10" points="176.2,725.6 78.2,659.7 0,748.1 		"/>
		<g>
			<defs>
				<path id="SVGID_3_" d="M179.4,847.7l-152,19.4c-6.7,0.9-12.8-3.9-13.6-10.5L0,748.1l176.2-22.5L190,834.1
					C190.8,840.8,186.1,846.9,179.4,847.7z"/>
			</defs>
			<clipPath id="SVGID_4_">
				<use xlink:href="#SVGID_3_"  style="overflow:visible;"/>
			</clipPath>
			
				<rect x="7" y="736.4" transform="matrix(0.992 -0.1265 0.1265 0.992 -100.0879 18.5224)" class="st19" width="177.6" height="121.5"/>
			<polygon class="st20" points="0,748.1 97.9,814.1 176.2,725.6 			"/>
			<polygon class="st21" points="15.4,868.6 93.3,778.2 191.5,846.2 			"/>
		</g>
	</g>
	<g>
		<defs>
			<path id="SVGID_5_" d="M1384.3,348.3L1273,323.9c-4.9-1.1-7.9-5.9-6.9-10.7l15.5-70.5c1.1-4.9,5.9-7.9,10.7-6.9l111.2,24.4
				c4.9,1.1,7.9,5.9,6.9,10.7l-15.5,70.5C1393.9,346.3,1389.1,349.4,1384.3,348.3z"/>
		</defs>
		<clipPath id="SVGID_6_">
			<use xlink:href="#SVGID_5_"  style="overflow:visible;"/>
		</clipPath>
		
			<rect x="1272.4" y="246.9" transform="matrix(0.9767 0.2145 -0.2145 0.9767 93.8136 -280.3164)" class="st22" width="131.9" height="90.3"/>
		<polygon class="st23" points="1264.2,322 1341.4,278.2 1393.1,350.3 		"/>
		<polygon class="st24" points="1283.6,233.8 1335.6,304.4 1412.4,262.1 		"/>
	</g>
	<g>
		<defs>
			<path id="SVGID_7_" d="M1112,719.4l-67.7,26.2c-4.6,1.8-9.9-0.5-11.7-5.2l-15.9-41c-1.8-4.6,0.5-9.9,5.2-11.7l67.7-26.2
				c4.6-1.8,9.9,0.5,11.7,5.2l15.9,41C1118.9,712.4,1116.6,717.6,1112,719.4z"/>
		</defs>
		<clipPath id="SVGID_8_">
			<use xlink:href="#SVGID_7_"  style="overflow:visible;"/>
		</clipPath>
		
			<rect x="1021.6" y="672.6" transform="matrix(0.9325 -0.3611 0.3611 0.9325 -182.0877 432.769)" class="st25" width="90.7" height="62"/>
		<polygon class="st26" points="1035.8,748.9 1063.4,694.5 1120.4,716.1 		"/>
		<polygon class="st27" points="1013.4,691 1070.1,711.7 1098,658.3 		"/>
	</g>
	<path class="st12" d="M886.7,601c0,0-25.1-12.2-32.1,19c-5.1,22.8,17.8,51.1,44.2,29.8C923,630.3,886.7,601,886.7,601z"/>
	<g>
		<path class="st17" d="M889.3,603.7c30.8-26,55.7-34,32.7-3.3C899.1,631.1,889.3,603.7,889.3,603.7z"/>
		<g>
			<defs>
				<path id="SVGID_9_" d="M970.2,602c-2.8,19.1-2.3,36-38.7,43.8c-18.9,4-60.9,12.2-64.9-6.6s8.4-41.1,27.5-38.4
					c36.2,5.1,45.3-15.8,62-17.3C966.2,582.6,972.4,586.7,970.2,602z"/>
			</defs>
			<clipPath id="SVGID_10_">
				<use xlink:href="#SVGID_9_"  style="overflow:visible;"/>
			</clipPath>
			<path class="st28" d="M970.2,602c-2.8,19.1-2.3,36-38.7,43.8c-18.9,4-53.5,9.3-61.4-8.3c-7.9-17.5,4.9-39.4,24-36.7
				c36.2,5.1,45.3-15.8,62-17.3C966.2,582.6,972.4,586.7,970.2,602z"/>
			<path class="st29" d="M930.6,612.9l-0.8-2c28.6-10.9,39-23.5,39.1-23.6l1.7,1.3C970.2,589.2,959.8,601.8,930.6,612.9z"/>
			<path class="st29" d="M938.9,622.2l-0.5-2.1c17.6-4.3,31.6-16.7,31.7-16.8l1.4,1.6C971,605.4,957,617.8,938.9,622.2z"/>
			<path class="st29" d="M941.7,636c-2.6,0.6-5.2,0.9-7.8,0.9l0-2.1c14.4,0,32.4-11.9,32.6-12l1.2,1.8
				C967.1,624.9,954.6,633.2,941.7,636z"/>
		</g>
	</g>
	<g>
		<defs>
			<path id="SVGID_11_" d="M742.5,888.6c26.9-7.5,39.9,35.6,102.1,45.2c26.4,4.1,38.9,49,31.3,58c-19.2,23-97.6-1.7-118.4-4.2
				c-12.7-1.5-42.2-10.1-42.2-10.1L742.5,888.6z"/>
		</defs>
		<clipPath id="SVGID_12_">
			<use xlink:href="#SVGID_11_"  style="overflow:visible;"/>
		</clipPath>
	</g>
	<rect x="958.7" y="744.8" class="st2" width="4.4" height="66"/>
	<rect x="348.2" y="355.2" class="st2" width="92.2" height="4.4"/>
	<rect x="348.2" y="380.4" class="st2" width="92.2" height="4.4"/>
	<rect x="348.2" y="405.5" class="st2" width="92.2" height="4.4"/>
	<rect x="348.2" y="494.8" class="st2" width="92.2" height="4.4"/>
	<rect x="348.2" y="518.8" class="st2" width="117.6" height="4.4"/>
	<rect x="348.2" y="542.7" class="st2" width="92.2" height="4.4"/>
	<rect x="348.2" y="566.7" class="st2" width="51.2" height="4.4"/>
	<rect x="348.2" y="590.8" class="st2" width="117.6" height="4.4"/>
	<rect x="348.2" y="614.7" class="st2" width="92.2" height="4.4"/>
	<rect x="348.2" y="638.9" class="st2" width="58.5" height="4.4"/>
	<rect x="348.2" y="660.9" class="st2" width="77.6" height="4.4"/>
	<rect x="348.2" y="683" class="st2" width="63.7" height="4.4"/>
	<rect x="348.2" y="705.1" class="st2" width="92.2" height="4.4"/>
	<path class="st17" d="M564.7,483.4c0,0,46.7,41.5,55.6,42.4c8.8,0.9,8-41.2,8-41.2L564.7,483.4z"/>
	<path class="st10" d="M656.8,636.7c-15.5-68.5-38-109.6-38.2-110l3.4-1.9c0.2,0.4,22.9,42,38.6,111L656.8,636.7z"/>
	<path class="st9" d="M661.7,667.7h-3.9c0-15.5,9.6-17.4,10-17.5l0.7,3.8l-0.3-1.9l0.4,1.9C668.2,654,661.7,655.5,661.7,667.7z"/>
	<path class="st10" d="M680,810.8h-3.9c0-15.8-5.7-63.6-5.8-64.1l3.9-0.5C674.4,748.2,680,794.7,680,810.8z"/>
	<g>
		<path class="st30" d="M490.9,794.3l-9.8,48.2l157.1,62.8l85.9-70.6l-8.8-40.5C715.4,794.3,639.8,816.4,490.9,794.3z"/>
		<path class="st31" d="M732.7,927.8c0,0-262.5-113.5-304.1-131.2s-104.8-40-132.9,25.3c-28.1,65.4,153.8,134,416.2,185.1
			C711.8,1007,749.3,979.9,732.7,927.8z"/>
		<path class="st0" d="M723.1,934.8c14.7-6.7,36.5-4.7,68.2,17.2c30.5,21,62.8,12.1,83.3,51.6c24.8,47.6,0,53.5-32.1,46.5
			c-44.7-9.8-88.2-28.8-130.6-45.7C711.9,1004.4,704.8,943.1,723.1,934.8z"/>
		<path class="st32" d="M504.9,921.6c0,0,262.5-113.5,304.1-131.2c41.7-17.7,104.8-40,132.9,25.3c27.7,64.3-147.8,131.8-403.4,182.5
			c-9.1,1.8-18.5-1.7-24.1-9.1C505.1,976.6,494.6,953.9,504.9,921.6z"/>
		<path class="st0" d="M504.9,921.6c-14.7-6.7-36.5-4.7-68.2,17.2c-30.5,21-55.4,16.9-83.3,51.6c-73.2,90.7,126.9,15.1,162.8,0.8
			C516.1,991.2,523.2,929.9,504.9,921.6z"/>
	</g>
	<path class="st33" d="M711.4,999.8c0,0,2.2-42.8,72.2-52.8l-12.6-7l-61.3,18.3C704,969.9,711.4,999.8,711.4,999.8z"/>
	<path class="st12" d="M506.5,922.5c0,0,30,0,30,44.4c0,38-28.1,19.1-28.1,19.1S523.8,935.7,506.5,922.5z"/>
	<path class="st33" d="M508.4,924.1c0,0,11.6,55.6-40.6,85.6l48.3-18.6C516.1,991.2,526.4,944.5,508.4,924.1z"/>
	<g>
		<defs>
			<path id="SVGID_13_" d="M504.9,921.6c-14.7-6.7-36.5-4.7-68.2,17.2c-30.5,21-55.4,16.9-83.3,51.6
				c-73.2,90.7,126.9,15.1,162.8,0.8C516.1,991.2,523.2,929.9,504.9,921.6z"/>
		</defs>
		<clipPath id="SVGID_14_">
			<use xlink:href="#SVGID_13_"  style="overflow:visible;"/>
		</clipPath>
		<path class="st34" d="M482.9,1011.3l-4.1-0.5c0-0.2,2.4-22.1-11.4-33l2.5-3.2C485.6,986.9,483.1,1010.3,482.9,1011.3z"/>
		<path class="st34" d="M461.1,1019.2l-4.1-0.5c0-0.2,2.4-22.1-11.4-33l2.5-3.2C463.7,994.8,461.2,1018.2,461.1,1019.2z"/>
		<path class="st34" d="M438.8,1027.4l-4.1-0.5c0-0.2,2.4-22.1-11.4-33l2.5-3.2C441.4,1003,438.9,1026.4,438.8,1027.4z"/>
	</g>
	<g>
		<defs>
			<path id="SVGID_15_" d="M724.3,934c15-5.9,36.7-2.7,67.2,20.8c29.3,22.6,54.4,19.9,80.4,56c68.2,94.5-127.5,8.3-162.6-8
				C709.4,1002.9,705.6,941.3,724.3,934z"/>
		</defs>
		<clipPath id="SVGID_16_">
			<use xlink:href="#SVGID_15_"  style="overflow:visible;"/>
		</clipPath>
		<path class="st35" d="M741.4,1024.7c-0.1-1-1.3-24.5,14.9-35.9l2.3,3.3c-14.3,10.1-13.2,32.1-13.2,32.3L741.4,1024.7z"/>
		<path class="st35" d="M762.8,1033.8c-0.1-1-1.3-24.5,14.9-35.9l2.3,3.3c-14.4,10.1-13.2,32.1-13.2,32.3L762.8,1033.8z"/>
		<path class="st35" d="M784.6,1043.2c-0.1-1-1.3-24.5,14.9-35.9l2.3,3.3c-14.3,10.1-13.2,32.1-13.2,32.3L784.6,1043.2z"/>
	</g>
	<path class="st3" d="M509.2,930.3c0,0-153.2,43.9-171.7,88.8c0,0,1.5-15.9,18.4-32.4s18.3-18.2,40.8-28.4
		c26.3-11.9,41.2-22,53.6-28c12.4-6.1,35.6-21.5,58.1-6.1l4.2,6.1H509.2z"/>
	<path class="st3" d="M753,954.7c0,0,83.7,19.5,129.6,73.6c0,0-4.2-27.9-22.5-44.1c-18.2-16.2-44.8-16.9-63.5-30.5
		c-18.1-13.2-19.9-9.1-19.9-9.1L753,954.7z"/>
</g>
</svg>
