<?xml version="1.0" encoding="utf-8"?>
<!-- Generator: Adobe Illustrator 21.1.0, SVG Export Plug-In . SVG Version: 6.00 Build 0)  -->
<svg version="1.1" id="Слой_1" xmlns="http://www.w3.org/2000/svg" xmlns:xlink="http://www.w3.org/1999/xlink" x="0px" y="0px"
	 viewBox="0 0 859 1079.7" style="enable-background:new 0 0 859 1079.7;" xml:space="preserve">
<style type="text/css">
	.st0{fill:#E9F4FE;}
	.st1{fill:#247B77;}
	.st2{fill:#FFFFFF;}
	.st3{fill:#39215B;}
	.st4{fill:#AA6D65;}
	.st5{fill:#5584DB;}
	.st6{fill:#71A0EA;}
	.st7{fill:#8FBBEF;}
	.st8{fill:#4A586D;}
	.st9{fill:#212B46;}
	.st10{fill:#329587;}
	.st11{fill:#3CAF99;}
	.st12{fill:#CE8C80;}
	.st13{fill:#841A38;}
	.st14{clip-path:url(#SVGID_2_);fill:#CE8C80;}
	.st15{clip-path:url(#SVGID_2_);fill:#AA6D65;}
	.st16{fill:#FCC05E;}
	.st17{clip-path:url(#SVGID_4_);fill:#FFFFFF;}
	.st18{fill:#4A5372;}
	.st19{clip-path:url(#SVGID_6_);fill:#FFFFFF;}
	.st20{clip-path:url(#SVGID_8_);fill:#8E5B57;}
</style>
<g>
	<path class="st0" d="M404.8,1079.7H137.3c-6.6,0-12-5.4-12-12v-11.2c0-6.6,5.4-12,12-12h267.6c6.6,0,12,5.4,12,12v11.2
		C416.8,1074.3,411.4,1079.7,404.8,1079.7z"/>
	<g>
		
			<ellipse transform="matrix(0.9999 -1.124874e-02 1.124874e-02 0.9999 -5.5309 4.0984)" class="st0" cx="361.6" cy="493.7" rx="361.6" ry="361.6"/>
		<path class="st1" d="M445.9,281.7l-0.9,2.5l-62.7-79.3c-12-15.2-34-17.7-49.1-5.7c-15.2,12-17.7,34-5.7,49.1
			c0,0,73,110.7,109.3,134.4c22.9,15,36.5,4.7,45.3-19.3h0l11.5-20.3C467.6,328.2,460.5,301.4,445.9,281.7z"/>
		<path class="st1" d="M623.8,415.4l-97.4-53.7l0,0c-24.1-12.9-47.2-27.2-71.5-39.4l-13.2,7.7c-22.1,12.8-21.5,44.9,1,57l150.9,83.3
			c11.6,6.4,26.1,2.2,32.5-9.4l7.1-12.8C639.6,436.4,635.4,421.8,623.8,415.4z"/>
		<path class="st2" d="M628.3,422.2c0,0-21.9-20.2-40.5-5.4c-25.8,20.5-5.8,49.7,14.6,52.1C622.8,471.3,628.3,422.2,628.3,422.2z"/>
		<path class="st3" d="M633,426.7c0,0-13-15.9-32.1-6s-25,37.3-3.5,46.8C618.8,477.1,633,426.7,633,426.7z"/>
		<path class="st4" d="M667.7,455.7c-6.4,18.2-8.8,29.9-30.7,26.4c-19.1-3-45.7-13.2-44.8-35.2c0.8-19.3,25.4-31.9,40.8-20.2
			c32.4,24.8,17.4-5,33.7,0.3C679.4,431.2,674.5,436.6,667.7,455.7z"/>
		<g>
			<g>
				<path class="st5" d="M857.8,427.5L791.2,615c-4.1,11.7-17,17.8-28.6,13.6l-113.3-40.2c-11.7-4.1-17.8-17-13.6-28.6l66.6-187.5
					c4.1-11.7,17-17.8,28.6-13.6l113.3,40.2C855.8,403,861.9,415.8,857.8,427.5z"/>
				<path class="st5" d="M661.1,418.8l46.1,16.4L677.4,519l-46.1-16.4L661.1,418.8 M652.6,401.1l-39,110l72.2,25.6l39-110
					L652.6,401.1L652.6,401.1z"/>
			</g>
			
				<rect x="570.2" y="448.4" transform="matrix(0.3227 -0.9465 0.9465 0.3227 19.7696 975.8944)" class="st6" width="243.2" height="51.4"/>
			<path class="st7" d="M744.5,465.6l-16.6,48.8c-0.6,1.7-2.4,2.6-4.1,2L693,506c-1.7-0.6-2.6-2.4-2-4.1l16.6-48.8
				c0.6-1.7,2.4-2.6,4.1-2l30.7,10.5C744.1,462.1,745,463.9,744.5,465.6z"/>
		</g>
		<path class="st4" d="M608.9,431.6c39.1-21.1,67.8-24.1,36.1,3.8C613.3,463.3,608.9,431.6,608.9,431.6z"/>
		<path class="st8" d="M471.7,341.8l-43.5-6.9c-5.6-0.9-8.6-7-5.8-12l41.1-74.1c2.4-4.4,7.4-6.8,12.4-6l40.8,6.5
			c5.6,0.9,8.6,7,5.8,12l-42.5,76.5C478.4,340.7,475,342.4,471.7,341.8z"/>
		
			<ellipse transform="matrix(0.5939 -0.8045 0.8045 0.5939 -12.5217 501.4812)" class="st9" cx="490.5" cy="263.1" rx="6" ry="5.1"/>
		<path class="st9" d="M471.3,243c-3.3,0.7-6.1,2.8-7.8,5.9L422.3,323c-2.7,4.9,0.3,11.1,5.8,12l43.5,6.9c1.7,0.3,3.3,0,4.8-0.7
			L471.3,243z"/>
		<path class="st10" d="M425.3,490.1l-175.3,13.2l-17.4-231.3c-3.6-48.4,32.6-90.6,81-94.2l0,0c48.4-3.6,90.6,32.6,94.2,81
			L425.3,490.1z"/>
		<circle class="st11" cx="33.5" cy="272.2" r="10.2"/>
		<circle class="st11" cx="93.9" cy="335" r="5.7"/>
		<path class="st11" d="M108.1,260.3c-10.9,0-19.8-8.9-19.8-19.8c0-10.9,8.9-19.8,19.8-19.8c10.9,0,19.8,8.9,19.8,19.8
			C127.9,251.4,119,260.3,108.1,260.3z M108.1,225.7c-8.2,0-14.8,6.6-14.8,14.8c0,8.2,6.6,14.8,14.8,14.8c8.2,0,14.8-6.6,14.8-14.8
			C122.9,232.3,116.3,225.7,108.1,225.7z"/>
		<path class="st12" d="M294.8,121.2l-3.7,61.4c0,0,37.3,16.7,54.7-6.1l2-44.4L294.8,121.2z"/>
		<path class="st13" d="M405.9,203.3"/>
		<path class="st11" d="M399.8,321.3L269.5,337l39.7-90.9c7.7-17.7-0.4-38.3-18.1-46.1h0c-17.7-7.7-38.3,0.4-46.1,18.1l-55.8,128.3
			l-0.3,0l-1.5,3.6c-12,27.9,10.7,58.3,40.8,54.8l178.9-21.4c14.4-1.7,24.7-14.8,22.8-29.2l-1.3-10.3
			C426.9,329.7,414,319.7,399.8,321.3z"/>
		<path class="st9" d="M425.3,490.1l64.5,151.5c12.2,28.8,2.7,62.1-22.8,80.2l-214,144.4c0,0,101,70.2,3.5,115.3
			c0,0-71.4-101.5-70.1-127.4c1.3-25.8,190.7-162,190.7-162l-24.5-196.5L425.3,490.1z"/>
		<path class="st12" d="M291.1,182.6c0,0,32.2,14.4,50.4,15.3c5.9,0.3,4.4-21.1,4.4-21.1L291.1,182.6z"/>
		<polygon class="st2" points="341.4,197.9 319.5,210.7 291.1,182.6 291.1,182.6 		"/>
		<path class="st2" d="M346,181.5l14.5,20.7l-19.1-4.4C341.4,197.7,346.7,190.5,346,181.5z"/>
		<path class="st2" d="M408.6,322.8c-1.6-0.4-3.3-0.4-4.9-0.1c-5,1.1-15.8,5-20.5,19.2c-4.1,12.5-3.2,24.4,4.4,32.4
			c8.9,9.4,24.3,10.6,34,1.9c2.5-2.2,4.7-5.1,6.2-9C433.7,352.2,430.7,328.2,408.6,322.8z"/>
		<path class="st3" d="M413.5,330.9c-1.8-5.9-20.1-3.4-23.5,19.3c-4,26.5,27.5,32.9,31.6,18.1C425.5,353.9,416.2,340,413.5,330.9z"
			/>
		<path class="st12" d="M413.5,330.9c24-24.6,44.5-33.4,27.5-5.5C424.1,353.4,413.5,330.9,413.5,330.9z"/>
		<g>
			<defs>
				<path id="SVGID_1_" d="M482,322.9c-0.8,16.4,1,30.7-29.3,40.3c-15.7,5-50.7,15.4-55.6-0.3c-5-15.7,3.8-35.5,20.2-34.8
					c31.2,1.4,37.1-17.1,51.2-19.8C477.1,306.7,482.7,309.7,482,322.9z"/>
			</defs>
			<clipPath id="SVGID_2_">
				<use xlink:href="#SVGID_1_"  style="overflow:visible;"/>
			</clipPath>
			<path class="st14" d="M482,322.9c-0.8,16.4,1,30.7-29.3,40.3c-15.7,5-50.7,15.4-55.6-0.3c-5-15.7,3.8-35.5,20.2-34.8
				c31.2,1.4,37.1-17.1,51.2-19.8C477.1,306.7,482.7,309.7,482,322.9z"/>
			<path class="st15" d="M449.3,335.4l-0.8-1.6c23.4-11.6,31.2-23.1,31.3-23.2l1.5,1C481,312,473.2,323.6,449.3,335.4z"/>
			<path class="st15" d="M457.2,342.6l-0.6-1.7c14.6-5.1,25.5-16.8,25.6-16.9l1.3,1.2C483,325.8,472.2,337.4,457.2,342.6z"/>
			<path class="st15" d="M460.7,354.1c-2.2,0.7-4.4,1.2-6.5,1.4l-0.2-1.8c12.3-1.1,26.5-12.7,26.7-12.8l1.1,1.4
				C481.3,342.6,471.3,350.7,460.7,354.1z"/>
		</g>
		<polygon class="st1" points="309.2,246.1 307.2,332.5 269.5,337 		"/>
		<polygon class="st1" points="242.5,403.1 244.6,430.3 380.8,386.6 		"/>
		<path class="st16" d="M253.1,866.1L202,831.9c-9.6,9.8-15.4,17.6-15.6,22.1c-1.3,25.9,70.3,127.8,70.3,127.8
			C354.4,936.6,253.1,866.1,253.1,866.1z"/>
		<g>
			<defs>
				<path id="SVGID_3_" d="M425.3,490.1l64.5,151.5c12.2,28.8,2.7,62.1-22.8,80.2l-214,144.4c0,0,101,70.2,3.5,115.3
					c0,0-71.4-101.5-70.1-127.4c1.3-25.8,190.7-162,190.7-162l-24.5-196.5L425.3,490.1z"/>
			</defs>
			<clipPath id="SVGID_4_">
				<use xlink:href="#SVGID_3_"  style="overflow:visible;"/>
			</clipPath>
			<path class="st17" d="M265.7,900.9l-1.5-1.5c19.9-20.5,33.9-12.6,34.5-12.3l-1.1,1.8C297.1,888.7,284.5,881.6,265.7,900.9z"/>
			<path class="st17" d="M256.7,892.2l-1.5-1.5c19.9-20.5,33.9-12.6,34.5-12.3l-1.1,1.8C288.1,879.9,275.4,872.9,256.7,892.2z"/>
			<path class="st17" d="M248.1,883.8l-1.5-1.5c19.9-20.5,33.9-12.6,34.5-12.3l-1.1,1.8C279.5,871.5,266.8,864.5,248.1,883.8z"/>
		</g>
		<path class="st18" d="M250.1,503.3l56.1,255.6l-34,235.6l-5.6,51.8c-0.5,4.5,3,8.4,7.6,8.4h143.8c0,0,16.3-81.1-57.7-62.7
			c-5.1,1.3-18.8,6.2-18.8,6.2l51.7-253.2l-15.3-251.4L250.1,503.3z"/>
		<polygon class="st3" points="431.7,505.1 253.7,519.8 250.1,503.3 425.3,490.1 		"/>
		<path class="st3" d="M294.7,572l-0.6-4.2c23.4-3.3,39-13.8,46.4-31.5c5.5-13.2,4.2-25.4,4.2-25.6l4.2-0.5
			c0.1,0.5,1.5,13.5-4.5,27.7C339,551.1,325.9,567.7,294.7,572z"/>
		<path class="st16" d="M360.3,992c-5.1,1.3-18.9,6.3-18.9,6.3l-70.8,10.3l-4.5,38.3c-0.5,4.6,3.1,8.6,7.6,8.6h144.5
			C418.3,1055.5,434.7,973.3,360.3,992z"/>
		<g>
			<defs>
				<path id="SVGID_5_" d="M250.1,503.3l56.1,255.6L262,998.3l3.7,56.5h152.3c0,0,16.3-81.1-57.7-62.7c-5.1,1.3-18.8,6.2-18.8,6.2
					l51.7-253.2l-15.3-251.4L250.1,503.3z"/>
			</defs>
			<clipPath id="SVGID_6_">
				<use xlink:href="#SVGID_5_"  style="overflow:visible;"/>
			</clipPath>
			<path class="st19" d="M382.6,1013.3h-2.1c0-28.6,15.5-32.7,16.2-32.9l0.5,2.1l-0.2-1l0.3,1C396.5,982.7,382.6,986.5,382.6,1013.3
				z"/>
			<path class="st19" d="M370,1013.3h-2.1c0-28.6,15.5-32.7,16.2-32.9l0.5,2.1l-0.2-1l0.3,1C384,982.7,370,986.5,370,1013.3z"/>
			<path class="st19" d="M358,1013.3h-2.1c0-28.6,15.5-32.7,16.2-32.9l0.5,2.1l-0.2-1l0.3,1C371.9,982.7,358,986.5,358,1013.3z"/>
		</g>
		<path class="st4" d="M345.9,184.9c0,0-42.4-15.4-53.3-27.5l1.1-20.2l53.2,10.7L345.9,184.9z"/>
		<path class="st12" d="M378.1,148.9c-20.4,29-55.5,29.5-83.6,8.3c-28-21.2-33.2-68.5-12.9-97.5s66.6-39.5,94.6-18.3
			S398.5,119.9,378.1,148.9z"/>
		<path class="st3" d="M343.9,106.4c-1.2,1.6-3.5,1.9-5,0.7c-1.6-1.3-1.9-3.6-0.6-5.2c1.2-1.6,3.5-1.9,5-0.7
			S345.1,104.8,343.9,106.4z"/>
		<path class="st3" d="M382.8,108.2c-1.2,1.6-3.5,1.9-5,0.7c-1.6-1.3-1.9-3.6-0.6-5.2c1.2-1.6,3.5-1.9,5-0.7
			C383.8,104.2,384,106.6,382.8,108.2z"/>
		<polygon class="st3" points="357.3,126.5 365.3,126.5 362.2,103.9 360.7,104.1 363.6,125 357.3,124.9 		"/>
		<path class="st3" d="M334.2,92.4c6.4-4.4,13.9-0.6,14-0.6l0.7-1.4c-0.3-0.2-8.3-4.2-15.5,0.7L334.2,92.4z"/>
		<path class="st3" d="M375.1,95c0,0,4.8-2.5,9.7,0.2l0.7-1.4c-5.6-3-10.9-0.3-11.1-0.2L375.1,95z"/>
		<path class="st3" d="M359.8,140.8c-4.3,0.1-8.4-1.3-8.6-1.4l0.5-1.3c0.1,0,11.7,4,15.6-2.3l1.2,0.7
			C366.5,139.7,363.1,140.7,359.8,140.8z"/>
		<path class="st4" d="M300.1,90c18.3-20,48.6,1.7,57.8-10.8s33-8.9,33-8.9l-38.1-16.2l-51.6,16.4L300.1,90z"/>
		<path class="st3" d="M410.6,57.2c-14.5,22.6-22,9.8-44.1,8.4c-21.7-1.4-6.6,19.2-34,9s-28.2,20-42,23.8
			c-20.1,5.6-1.9,39.2-1.9,39.2l-9,2.7c0,0-33.3-17.9-31.5-61.3c1.4-33.1,10-55.3,28.8-52.7c3.1-28.4,30.8-22.2,46-20.9
			c15.2,1.3,27-15.1,47.5,4.1C409.1,45.7,447.5-0.6,410.6,57.2z"/>
		<path class="st12" d="M268.9,101.7c-0.1,9.9,7.6,18,17.2,18.1c9.6,0.1,17.4-7.8,17.5-17.7s-7.6-18-17.2-18.1
			C276.8,83.8,269,91.8,268.9,101.7z"/>
		<path class="st4" d="M287.7,113.8c3.2-0.7,5.4-3.1,5.7-6.4c0.3-2.8-0.8-5.4-2.6-6.1c-0.8-0.3-2.5-0.6-4.4,1.9
			c-2.3,3-5.2,2.5-6.9,1.2c-2.1-1.6-3.2-5-1-8.2c1.5-2.3,3.2-3.4,5-3.4c3.8-0.1,7.2,4.6,7.2,4.7l1.3-1c-0.2-0.2-3.9-5.4-8.6-5.4
			c-2.4,0-4.5,1.4-6.4,4.2c-2.7,4.1-1.4,8.4,1.4,10.5c2.4,1.9,6.3,2.2,9.2-1.5c0.5-0.7,1.5-1.8,2.5-1.4c1.1,0.4,1.8,2.4,1.6,4.4
			c-0.1,1.2-0.8,4.2-4.4,4.9L287.7,113.8z"/>
		<path class="st2" d="M278.9,97.4c5.4-3.8,8.6-0.7,9.9,2.5s1.2,6.4-2.2,7.6c-3.4,1.2-6.6-5.8-4.9,5.4c1.6,11.3,1.6,11.3,1.6,11.3
			l-3.4,0.3C280,124.5,273,101.4,278.9,97.4z"/>
		<g>
			<defs>
				<path id="SVGID_7_" d="M655.3,434.9l-11.3,32h19.8l7.7-21.3c0,0,2.8-8,2.9-9.4c0.1-1.4-12.1-5.2-12.1-5.2L655.3,434.9z"/>
			</defs>
			<clipPath id="SVGID_8_">
				<use xlink:href="#SVGID_7_"  style="overflow:visible;"/>
			</clipPath>
			<path class="st20" d="M672.7,442.4c0-0.1-3.8-6.6-9.4-6.9c-3.5-0.2-7.1,2.1-10.6,6.9l-1.1-0.8c3.8-5.2,7.8-7.7,11.8-7.4
				c6.3,0.4,10.3,7.3,10.5,7.6L672.7,442.4z"/>
			<path class="st20" d="M646.1,458.9l-1.2-0.7c6.1-10.6,12.7-16.4,18.3-16c2.5,0.2,5.9,1.8,8.3,8.1l-1.3,0.5
				c-1.7-4.5-4.1-7-7.1-7.2C658.2,443.2,651.8,448.9,646.1,458.9z"/>
			<path class="st20" d="M645.2,466.6c-0.6,0-1-0.1-1.1-0.2l0.5-1.3c0,0,4.4,1.3,8.6-8.6c1.3-3,3.1-4.8,5.4-5.2
				c4.9-0.9,10,4.5,10.3,4.7l-1,0.9c0-0.1-4.9-5.1-9-4.3c-1.8,0.3-3.3,1.8-4.4,4.4C650.9,465.5,647.1,466.6,645.2,466.6z"/>
		</g>
	</g>
</g>
</svg>
