<svg id="_1" data-name="1" xmlns="http://www.w3.org/2000/svg" xmlns:xlink="http://www.w3.org/1999/xlink" viewBox="0 0 1053.94 1044.25"><defs><style>.cls-1{fill:none;}.cls-2{fill:#e9f4fe;}.cls-3{fill:#39215b;}.cls-4{fill:#c7bee5;}.cls-5{fill:#247b77;}.cls-6{fill:#3caf99;}.cls-7{fill:#329587;}.cls-8{fill:#fcafa7;}.cls-9{fill:#f78e81;}.cls-10{fill:#fff;}.cls-11{fill:#212b46;}.cls-12{fill:#34405b;}.cls-13{fill:#ffd69f;}.cls-14{fill:#fcc05e;}.cls-15{fill:#454f6b;}.cls-16{fill:#5584db;}.cls-17{fill:#71a0ea;}.cls-18{fill:#8fbbef;}.cls-19{fill:#6095e2;}.cls-20{fill:#fcfcfc;}.cls-21{fill:#332258;}.cls-22{fill:#1d6d67;}.cls-23{fill:#f29d91;}.cls-24{clip-path:url(#clip-path);}.cls-25{clip-path:url(#clip-path-2);}.cls-26{fill:#e5877a;}</style><clipPath id="clip-path"><path class="cls-1" d="M503.45,973.53c-11.61,31.25-16.93,60-81.26,60-33.33,0-107.34-1.33-107.34-34.67S343.91,932.5,375.21,944c59.35,21.77,82.26-10.28,111-6.81C503.75,939.28,512.78,948.41,503.45,973.53Z"/></clipPath><clipPath id="clip-path-2"><path class="cls-1" d="M520.49,875.26c11.61,31.25,28.1,59.42,92.43,59.42,33.33,0,96.17-.74,96.17-34.08s-29-66.12-60.36-54.89c-66.25,23.7-72.56-7.5-102.2-7.32C523.48,838.52,509.68,846.19,520.49,875.26Z"/></clipPath></defs><title>Illustration_1Монтажная область 1</title><path class="cls-2" d="M1053.87,597.28C1058.55,948.6,814.25,905,532.23,905S32.6,931.45,32.6,597.28c0-282,228.62-510.63,510.63-510.63S1050.11,315.29,1053.87,597.28Z"/><path class="cls-3" d="M543.54,32c-84.79-8.09-155.16,40.83-171.44,106.8-10.19,41.32-1.88,63.84-8,97.07-4.68,25.42-60.58,28.84-74.84,92.23-6.56,29.19,27.8,93.51,14.25,124.73-27.08,62.39-121.7,71.26-50.22,183.75,91.7,144.3,684.53,72.55,684.53,72.55S879,584.48,816.81,507.92c-46.48-57.2-16.08-88.75-18.22-156.22-1.58-50.08-23.16-69-25.71-92.47-3.19-29.42,19-77.68-13.1-145.92-19-40.39-49.13-85.89-123.31-106.65C521.65-25.49,494.9,69.29,494.9,69.29"/><path class="cls-4" d="M451.39,375.29a44.53,44.53,0,1,1,44.53-44.53A44.58,44.58,0,0,1,451.39,375.29Zm0-83.87a39.35,39.35,0,1,0,39.35,39.35A39.39,39.39,0,0,0,451.39,291.42Z"/><path class="cls-5" d="M802.8,509.88c-71.37-70.1-139.29-76.77-225.94-71.11L653.62,492a80.66,80.66,0,0,0-2.56,114L791.77,747.26l-318.85-4,89,154.2,382.72,9.11c65.69-16.12,153.86-58.75,83.16-150.75C948.8,653,838.28,544.73,802.8,509.88Z"/><path class="cls-6" d="M231,835a4.65,4.65,0,0,1-1.53-7.21L409.85,616.69a81.17,81.17,0,0,0-1.56-111,4.63,4.63,0,0,1,.62-6.95l60.47-44.19a4.65,4.65,0,0,0-2.67-8.4c-80-.84-136.74,21.55-203.09,90C220.54,580.62,95.11,720.68,18.05,807.1c-31.58,35.42-20.28,91.22,22.57,111.6l246,116.73a66.32,66.32,0,0,0,89-33h0a91.18,91.18,0,0,0-44-119.3Z"/><path class="cls-7" d="M551.27,432.81h0A241.27,241.27,0,0,1,792.54,674.07v55.37a185.9,185.9,0,0,1-185.9,185.9H495.9A185.9,185.9,0,0,1,310,729.44V674.07A241.27,241.27,0,0,1,551.27,432.81Z"/><path class="cls-8" d="M609.21,330.07l-1.6,127.17s-66.77,31.34-113.89-5.46l3-108.33Z"/><polygon class="cls-9" points="494.25 433.46 608.47 366.65 607.49 355.03 496.17 365 494.25 433.46"/><path class="cls-8" d="M441.2,327c33.13,62.63,104.09,74,166.72,40.82S694.28,243.65,661.15,181s-123.35-79.89-186-46.76S408.08,264.34,441.2,327Z"/><path class="cls-3" d="M639.48,297.89h0s3.13,45.43,37.59,41.29c23.41-2.82,21.87-29.35,21.87-29.35L666.18,277l-23.06,11.44Z"/><circle class="cls-6" cx="41.99" cy="372.7" r="17.65"/><circle class="cls-6" cx="173.07" cy="292.89" r="9.79"/><path class="cls-6" d="M89,227.26A34.24,34.24,0,1,1,123.19,193,34.27,34.27,0,0,1,89,227.26Zm0-59.81A25.58,25.58,0,1,0,114.53,193,25.61,25.61,0,0,0,89,167.45Z"/><circle class="cls-3" cx="533.75" cy="248.11" r="8.41" transform="translate(-52.87 296.35) rotate(-29.63)"/><circle class="cls-3" cx="442.98" cy="238.94" r="8.41" transform="translate(-60.21 250.27) rotate(-29.63)"/><polygon class="cls-3" points="489.09 292.65 470.37 290.11 484.97 240.37 488.31 241.35 474.85 287.2 489.56 289.2 489.09 292.65"/><path class="cls-3" d="M498.19,320.62h-.72l.08-3.48c13.58.38,32-9.54,32.22-9.64l1.65,3.06C530.65,311,512.59,320.62,498.19,320.62Z"/><path class="cls-3" d="M553.5,224.06c-13.53-12-32-6.08-32.2-6l-1.09-3.3c.83-.28,20.59-6.61,35.61,6.72Z"/><path class="cls-3" d="M457.74,216.19c-.1-.07-10.31-7.13-22.6-2.85L434,210.05c14-4.88,25.28,3,25.76,3.3Z"/><path class="cls-3" d="M462.16,142.65c73.79-56.12,134.46,50.54,159.17,114.9,38.83,101.15,68,100.22,68,100.22l38.43-143.46S708.68,125,683.94,112.55C567.19,53.73,462.16,142.65,462.16,142.65Z"/><circle class="cls-8" cx="647.23" cy="261.03" r="38.01" transform="translate(302.42 867.78) rotate(-82.36)"/><path class="cls-9" d="M640.46,285.56c-6.85-2.39-10.73-8.09-10.4-15.24.28-5.94,3.42-11,7.48-12,1.9-.47,5.59-.41,8.94,5.29,4.15,7.06,10.48,6.92,14.65,4.66,5.13-2.78,8.4-9.47,4.71-16.85-2.6-5.21-5.94-8.17-9.92-8.8-8.28-1.34-17,7.42-17.12,7.51l-2.53-2.51c.41-.41,10.14-10.12,20.22-8.53,5.18.83,9.4,4.44,12.54,10.73,4.7,9.41.44,18-6.19,21.58-5.8,3.16-14.36,2.63-19.42-6-.93-1.59-2.84-4.16-5-3.64-2.44.6-4.58,4.5-4.77,8.69a11.29,11.29,0,0,0,8,11.71Z"/><path class="cls-10" d="M657.81,374.59a44.53,44.53,0,1,1,44.53-44.53A44.58,44.58,0,0,1,657.81,374.59Zm0-83.87a39.35,39.35,0,1,0,39.35,39.35A39.39,39.39,0,0,0,657.81,290.72Z"/><path class="cls-9" d="M448.77,155.48c40.53-37.74,152,57,152,57s-37.15-82-94.24-85.54C486.79,125.74,465,130.11,448.77,155.48Z"/><path class="cls-5" d="M656.77,647.62,658,635.2c7.29-75.08-29.3-140.07-107-147.62h0C473.26,480,424.84,536.76,417.54,611.84l-1.21,12.42a31.72,31.72,0,0,0-31.68,28.64l-18.2,187.38c-4.22,43.48,26.67,59,70.15,63.18l79.68,18.4,10.15,1.49-14-11.24c79.92,7.76,150.33-29,158.09-108.9l.31-3.17h0L680,706.4,682.13,684h0l.21-2.21A31.72,31.72,0,0,0,656.77,647.62ZM489.32,550.34c14.54-14.47,33.83-20.65,57.34-18.36S587.9,544,599.39,561c11.83,17.51,16.87,42.32,14.2,69.85l-1.19,12.27-51.7-5-24.12-2.34h0l-75.82-7.37,1.19-12.27C464.61,588.62,474.34,565.25,489.32,550.34Z"/><rect class="cls-11" x="603.65" y="563.36" width="304.14" height="424.14" rx="40.41" ry="40.41" transform="translate(528.72 -283.28) rotate(32.16)"/><rect class="cls-11" x="591.13" y="555.49" width="304.14" height="424.14" rx="47.4" ry="47.4" transform="translate(522.6 -277.83) rotate(32.16)"/><path class="cls-12" d="M942.85,642.58,769.32,533.47a49.34,49.34,0,0,0-26.12-7.6v483.38a49.54,49.54,0,0,0,42.24-23.19l173-275.12A49.58,49.58,0,0,0,942.85,642.58Z"/><circle class="cls-10" cx="733.46" cy="758.36" r="24.54" transform="translate(-124.7 1372.07) rotate(-81.53)"/><path class="cls-13" d="M571.26,524.93C594.77,527.22,612.51,537,624,554c11.83,17.51,16.87,42.32,14.2,69.85L637,636.53,485.32,621.8l1.23-12.69c2.67-27.53,12.4-50.9,27.38-65.81,14.54-14.47,33.83-20.65,57.34-18.36m4.31-44.4h0C497.87,473,449.45,529.72,442.15,604.8l-5.55,57.08L677,685.24l5.55-57.08c7.29-75.08-29.3-140.07-107-147.62Z"/><path class="cls-14" d="M487.19,628.05H606.25a90,90,0,0,1,90,90v63.74A145.33,145.33,0,0,1,550.93,927.14H509.62A112.44,112.44,0,0,1,397.18,814.7V718.06A90,90,0,0,1,487.19,628.05Z" transform="translate(77.75 -49.22) rotate(5.55)"/><path class="cls-13" d="M664.4,638.78l-103.22-10L532.26,926.44l4.13.4A145.39,145.39,0,0,0,695.16,796.18l10.43-107.35A45.84,45.84,0,0,0,664.4,638.78Z"/><circle class="cls-15" cx="550.43" cy="739.45" r="32.05" transform="translate(-238.78 1215.8) rotate(-84.45)"/><rect class="cls-15" x="529" y="721.99" width="34.51" height="120.79" rx="3.33" ry="3.33" transform="translate(78.21 -49.15) rotate(5.55)"/><path class="cls-16" d="M252.22,559.59c77.74,46.93,221,9.79,221,9.79,104.08,331.26-68.76,474.86-68.76,474.86S180.58,1025.31,76.5,694C76.5,694,215.29,642.55,252.22,559.59Z"/><path class="cls-17" d="M252.22,559.59C215.29,642.55,76.5,694,76.5,694c104.08,331.26,328,350.21,328,350.21Z"/><path class="cls-18" d="M252.22,559.59C215.29,642.55,76.5,694,76.5,694c104.08,331.26,328,350.21,328,350.21s172.84-143.6,68.76-474.86C473.25,569.39,330,606.52,252.22,559.59ZM393.1,1008S202.68,991.9,114.17,710.18c0,0,118-43.79,149.44-114.34,66.11,39.91,188,8.33,188,8.33C540.1,885.88,393.1,1008,393.1,1008Z"/><path class="cls-19" d="M252.22,559.59h0l11.39,36.24h0c66.13,42.21,187.93,8.65,187.93,8.65,85.54,282.59-59.5,402.14-59.5,402.14l1.07,1.38,11.39,36.24h0S577.42,900,473.34,568.76C473.34,568.76,331.11,604.92,252.22,559.59Z"/><path class="cls-20" d="M516.75,489.81a95.22,95.22,0,0,1,21.32-7.53,120.59,120.59,0,0,1,45.56-1.74,114.57,114.57,0,0,1,22.32,5.93c3.63,1.32,7.12,3,10.62,4.61,3.38,1.87,6.84,3.59,10,5.76a113.5,113.5,0,0,1,18.05,14.22,129.08,129.08,0,0,1,26.58,36.55c-9.52-11.61-19.65-22.4-30.95-31.6-1.37-1.2-2.85-2.26-4.32-3.32s-2.87-2.22-4.37-3.24c-3-2-6-4.07-9.17-5.78a120.14,120.14,0,0,0-19.46-9.3,134.94,134.94,0,0,0-42.29-8.56,158.4,158.4,0,0,0-21.94.55A154.85,154.85,0,0,0,516.75,489.81Z"/><path class="cls-5" d="M631.93,882.94l5.73-35.62,294.16-63.9,12.83,123.14-229,55q-1.09.26-2.17.49C666.37,971.9,624.28,930.49,631.93,882.94Z"/><path class="cls-21" d="M630.09,849.88s86.83-40.12,94.07,35c5.49,57-58,67.92-76.45,54.77C627.37,925.17,630.09,849.88,630.09,849.88Z"/><path class="cls-6" d="M78.88,937.56l32.73-129.85L363.79,927.55a49.13,49.13,0,0,1,19.88,71.5h0a87.12,87.12,0,0,1-109.87,30.66Z"/><path class="cls-21" d="M382.8,943.62s-55.59-30.43-85.94,20.93c-44.32,75,48.83,61.68,48.83,61.68Z"/><path class="cls-7" d="M62.86,830.48,60,824.81c28.36-14.18,53.57-15.41,63-15.29l2.34,4.66,3.78,1.76C128.87,815.93,96.44,813.7,62.86,830.48Z"/><path class="cls-7" d="M120.91,805.61c-4.3-1.52-23.6-7.82-37.16-3.49l-1.93-6c11.89-3.8,26.77-.76,35.33,1.68Z"/><path class="cls-22" d="M987.59,788c-22.56-18.12-57.23-4.37-57.58-4.23l4.88-7.64c12.06-3.59,37.3-8.64,56.67,6.92Z"/><path class="cls-8" d="M361.58,943.23c67.71-36.19,117.17-41.09,62.24,6.87S361.58,943.23,361.58,943.23Z"/><path class="cls-23" d="M520.49,875.26c11.61,31.25,28.1,59.42,92.43,59.42,33.33,0,96.17-.74,96.17-34.08s-29-66.12-60.36-54.89c-66.25,23.7-72.56-7.5-102.2-7.32C523.48,838.52,509.68,846.19,520.49,875.26Z"/><path class="cls-23" d="M676.49,848.62c-67.71-36.19-117.17-41.09-62.24,6.87S676.49,848.62,676.49,848.62Z"/><g class="cls-24"><path class="cls-8" d="M503.45,973.53c-11.61,31.25-16.93,60-81.26,60-33.33,0-107.34-1.33-107.34-34.67S343.91,932.5,375.21,944c59.35,21.77,82.26-10.28,111-6.81C503.75,939.28,512.78,948.41,503.45,973.53Z"/><path class="cls-9" d="M432.54,977.63,432,974c52.36-8.06,74.49-25.55,74.7-25.72l2.31,2.85C508.08,951.88,486,969.41,432.54,977.63Z"/><path class="cls-9" d="M443.31,996.44l-.1-3.66c31.24-.89,59.48-16.82,59.76-17l1.82,3.18C503.6,979.65,475.46,995.52,443.31,996.44Z"/><path class="cls-9" d="M443.05,1020.62a63.5,63.5,0,0,1-13.47-1.33l.78-3.58c24.37,5.31,59-8.33,59.39-8.46l1.36,3.4C489.9,1011.14,465.78,1020.62,443.05,1020.62Z"/></g><g class="cls-25"><path class="cls-26" d="M584.6,871.38c-34.95-3.68-62.33-25.46-63.48-26.39l2.3-2.85c.27.22,27.72,22,61.57,25.6Z"/><path class="cls-26" d="M582.39,890.62c-42.29-1.84-65.82-20.57-66.8-21.36l2.31-2.85c.23.19,23.65,18.77,64.65,20.55Z"/><path class="cls-26" d="M590.5,917.17A227.21,227.21,0,0,1,529,901.79l1.47-3.36a223.36,223.36,0,0,0,60.4,15.09Z"/></g></svg>