<svg width="16" height="16" viewBox="0 0 16 16" fill="none" xmlns="http://www.w3.org/2000/svg"><path d="M7.520 1.349 C 5.602 1.522,3.958 2.388,2.796 3.840 C 0.982 6.104,0.844 9.277,2.455 11.689 C 4.513 14.770,8.631 15.591,11.707 13.533 C 14.948 11.364,15.641 6.881,13.204 3.840 C 12.150 2.523,10.683 1.677,8.995 1.412 C 8.665 1.361,7.805 1.324,7.520 1.349 M8.493 2.694 C 9.697 2.807,10.809 3.314,11.677 4.146 C 13.569 5.960,13.873 8.855,12.397 11.000 C 12.296 11.147,12.186 11.299,12.153 11.339 L 12.093 11.412 11.853 11.240 C 9.870 9.823,7.254 9.608,5.082 10.684 C 4.715 10.866,4.452 11.023,4.147 11.240 L 3.907 11.412 3.847 11.339 C 3.702 11.164,3.404 10.705,3.271 10.450 C 2.493 8.966,2.471 7.176,3.211 5.667 C 3.501 5.077,3.821 4.635,4.284 4.185 C 4.738 3.745,5.102 3.488,5.667 3.211 C 6.540 2.782,7.518 2.603,8.493 2.694 M7.640 4.028 C 6.517 4.204,5.672 5.194,5.672 6.333 C 5.672 7.664,6.785 8.727,8.107 8.659 C 9.363 8.594,10.328 7.584,10.328 6.333 C 10.328 5.765,10.146 5.273,9.762 4.804 C 9.516 4.505,8.972 4.172,8.560 4.069 C 8.348 4.016,7.857 3.994,7.640 4.028 M8.347 5.399 C 8.611 5.493,8.829 5.713,8.935 5.996 C 9.022 6.229,9.002 6.542,8.886 6.779 C 8.784 6.986,8.616 7.148,8.400 7.249 C 8.276 7.307,8.215 7.317,8.000 7.318 C 7.768 7.319,7.732 7.312,7.570 7.233 C 7.370 7.136,7.213 6.980,7.102 6.769 C 7.033 6.638,7.027 6.603,7.027 6.333 C 7.027 6.065,7.033 6.028,7.100 5.901 C 7.242 5.631,7.458 5.452,7.734 5.374 C 7.906 5.326,8.169 5.337,8.347 5.399 M8.880 11.411 C 9.307 11.485,9.703 11.602,10.086 11.767 C 10.379 11.893,10.868 12.162,11.036 12.290 L 11.099 12.338 10.863 12.491 C 10.276 12.873,9.607 13.129,8.827 13.272 C 8.470 13.337,7.530 13.337,7.173 13.272 C 6.392 13.129,5.677 12.852,5.097 12.468 L 4.901 12.338 4.964 12.290 C 5.133 12.161,5.622 11.892,5.918 11.765 C 6.412 11.553,7.019 11.400,7.573 11.350 C 7.846 11.325,8.582 11.359,8.880 11.411 " stroke="none" fill-rule="evenodd"></path></svg>