<svg xmlns="http://www.w3.org/2000/svg" height="48" width="48"><path d="M22.520 8.047 C 22.344 8.064,21.804 8.117,21.320 8.164 C 16.261 8.661,11.240 11.151,7.345 15.092 C 5.254 17.208,3.856 19.170,2.547 21.826 L 1.982 22.972 2.275 23.626 C 2.922 25.070,3.981 26.842,5.054 28.280 C 5.848 29.344,6.163 29.706,7.267 30.828 C 11.090 34.713,15.434 36.969,20.640 37.772 C 21.631 37.925,22.121 37.951,24.000 37.951 C 25.879 37.951,26.369 37.925,27.360 37.772 C 32.559 36.970,36.895 34.718,40.736 30.828 C 42.721 28.817,44.250 26.653,45.496 24.092 L 46.015 23.023 45.723 22.372 C 44.739 20.174,43.064 17.656,41.379 15.840 C 37.342 11.489,32.458 8.888,27.029 8.199 C 26.082 8.079,23.189 7.981,22.520 8.047 M27.160 11.235 C 32.839 12.156,37.917 15.386,41.194 20.160 C 41.826 21.080,42.800 22.803,42.800 23.000 C 42.800 23.197,41.826 24.920,41.194 25.840 C 38.965 29.088,35.597 31.865,32.094 33.344 C 29.415 34.476,26.918 34.981,24.000 34.981 C 19.567 34.981,15.610 33.704,11.971 31.099 C 9.240 29.145,7.134 26.742,5.436 23.644 L 5.088 23.008 5.427 22.378 C 7.456 18.609,10.436 15.583,14.143 13.529 C 16.244 12.364,18.640 11.555,20.904 11.244 C 21.397 11.176,21.908 11.106,22.040 11.088 C 22.651 11.004,26.397 11.111,27.160 11.235 M22.921 14.569 C 20.288 14.846,17.786 16.560,16.479 18.983 C 15.186 21.380,15.186 24.620,16.479 27.017 C 17.383 28.694,19.097 30.249,20.736 30.881 C 21.938 31.345,22.631 31.470,24.000 31.470 C 25.369 31.470,26.062 31.345,27.264 30.881 C 28.903 30.249,30.617 28.694,31.521 27.017 C 32.814 24.620,32.814 21.380,31.521 18.983 C 30.185 16.506,27.720 14.847,24.954 14.563 C 24.053 14.471,23.845 14.471,22.921 14.569 M25.471 17.598 C 26.332 17.818,27.111 18.252,27.799 18.895 C 28.834 19.861,29.360 20.884,29.535 22.268 C 29.773 24.151,29.172 25.823,27.795 27.109 C 26.725 28.109,25.516 28.576,24.000 28.576 C 22.360 28.576,21.212 28.097,20.037 26.923 C 18.871 25.757,18.444 24.706,18.444 23.000 C 18.444 21.294,18.871 20.243,20.037 19.077 C 20.852 18.263,21.534 17.854,22.497 17.601 C 23.310 17.389,24.647 17.387,25.471 17.598 " stroke="none" fill-rule="evenodd" fill="black"></path></svg>