<svg width="16" height="17" viewBox="0 0 16 17" fill="none" xmlns="http://www.w3.org/2000/svg"><path d="M9.032 5.016 C 7.713 5.124,6.571 6.040,6.163 7.313 C 5.545 9.246,6.777 11.267,8.785 11.617 C 8.966 11.649,9.130 11.656,9.440 11.645 C 10.027 11.625,10.407 11.524,10.931 11.248 L 11.182 11.116 12.458 12.391 L 13.733 13.666 14.200 13.200 L 14.666 12.733 13.394 11.444 L 12.123 10.154 12.172 10.070 C 12.487 9.534,12.635 9.039,12.658 8.440 C 12.674 8.032,12.630 7.710,12.503 7.314 C 12.160 6.238,11.265 5.391,10.175 5.108 C 9.956 5.051,9.829 5.033,9.413 5.003 C 9.347 4.998,9.176 5.004,9.032 5.016 M1.333 6.320 L 1.333 6.987 3.000 6.987 L 4.667 6.987 4.667 6.320 L 4.667 5.653 3.000 5.653 L 1.333 5.653 1.333 6.320 M9.606 6.359 C 10.355 6.431,11.037 7.028,11.259 7.805 C 11.336 8.075,11.341 8.565,11.270 8.827 C 11.032 9.704,10.236 10.320,9.341 10.320 C 9.014 10.320,8.762 10.262,8.467 10.119 C 7.400 9.603,7.021 8.318,7.631 7.287 C 7.758 7.071,8.085 6.749,8.313 6.615 C 8.616 6.436,9.116 6.306,9.387 6.337 C 9.423 6.341,9.522 6.351,9.606 6.359 M1.333 9.653 L 1.333 10.320 3.000 10.320 L 4.667 10.320 4.667 9.653 L 4.667 8.987 3.000 8.987 L 1.333 8.987 1.333 9.653 M1.333 12.987 L 1.333 13.653 4.667 13.653 L 8.000 13.653 8.000 12.987 L 8.000 12.320 4.667 12.320 L 1.333 12.320 1.333 12.987 " stroke="none" fill-rule="evenodd"></path></svg>