<svg width="16" height="16" viewBox="0 0 16 16" fill="none" xmlns="http://www.w3.org/2000/svg"><path d="M7.240 1.378 C 6.713 1.443,6.085 1.598,5.631 1.777 C 5.460 1.844,5.309 1.909,5.297 1.921 C 5.284 1.933,5.416 2.189,5.594 2.498 C 5.873 2.981,5.923 3.053,5.978 3.050 C 6.012 3.048,6.166 3.002,6.320 2.948 C 6.473 2.894,6.764 2.817,6.966 2.778 L 7.333 2.707 7.333 2.033 C 7.333 1.663,7.330 1.362,7.327 1.364 C 7.323 1.366,7.284 1.372,7.240 1.378 M8.667 2.038 L 8.667 2.707 9.034 2.778 C 9.236 2.817,9.527 2.894,9.680 2.948 C 9.834 3.002,9.988 3.048,10.022 3.050 C 10.077 3.053,10.127 2.981,10.406 2.498 C 10.584 2.189,10.716 1.933,10.703 1.921 C 10.691 1.909,10.540 1.844,10.369 1.777 C 9.908 1.596,9.272 1.439,8.753 1.379 L 8.667 1.369 8.667 2.038 M3.821 2.824 C 3.502 3.081,2.972 3.620,2.761 3.901 C 2.676 4.015,2.611 4.113,2.616 4.119 C 2.653 4.155,3.742 4.775,3.758 4.768 C 3.768 4.764,3.873 4.646,3.991 4.507 C 4.180 4.282,4.481 3.993,4.703 3.820 L 4.780 3.761 4.453 3.187 C 4.274 2.871,4.117 2.613,4.104 2.613 C 4.092 2.613,3.964 2.708,3.821 2.824 M11.550 3.170 C 11.372 3.477,11.227 3.738,11.228 3.750 C 11.229 3.763,11.320 3.845,11.430 3.933 C 11.640 4.101,11.991 4.458,12.139 4.656 C 12.192 4.726,12.242 4.767,12.264 4.758 C 12.343 4.730,13.385 4.119,13.386 4.101 C 13.388 4.053,12.934 3.530,12.649 3.251 C 12.350 2.958,11.942 2.613,11.895 2.613 C 11.883 2.613,11.727 2.864,11.550 3.170 M7.762 4.712 C 7.605 4.768,7.433 4.944,7.377 5.107 C 7.339 5.220,7.333 5.398,7.333 6.559 C 7.333 7.995,7.336 8.028,7.486 8.342 C 7.546 8.469,7.739 8.676,8.665 9.608 C 9.880 10.829,9.910 10.853,10.193 10.853 C 10.384 10.853,10.515 10.801,10.650 10.672 C 10.791 10.537,10.852 10.395,10.852 10.200 C 10.852 9.912,10.839 9.895,9.705 8.760 L 8.667 7.719 8.667 6.478 C 8.667 5.070,8.666 5.065,8.467 4.866 C 8.282 4.681,8.016 4.623,7.762 4.712 M1.910 5.300 C 1.869 5.368,1.673 5.896,1.603 6.132 C 1.528 6.382,1.416 6.917,1.375 7.220 L 1.359 7.333 2.033 7.333 L 2.707 7.333 2.778 6.966 C 2.817 6.764,2.893 6.473,2.947 6.320 C 3.001 6.166,3.051 6.015,3.058 5.984 C 3.070 5.934,3.001 5.887,2.511 5.604 C 2.202 5.426,1.944 5.280,1.937 5.280 C 1.929 5.280,1.917 5.289,1.910 5.300 M13.493 5.600 C 13.024 5.873,12.947 5.926,12.950 5.979 C 12.952 6.013,12.998 6.166,13.052 6.320 C 13.106 6.473,13.183 6.764,13.222 6.966 L 13.293 7.333 13.966 7.333 L 14.639 7.333 14.624 7.207 C 14.586 6.899,14.447 6.280,14.350 5.987 C 14.219 5.592,14.099 5.299,14.065 5.290 C 14.051 5.286,13.794 5.425,13.493 5.600 M1.375 8.780 C 1.416 9.083,1.528 9.618,1.603 9.868 C 1.690 10.160,1.881 10.663,1.920 10.703 C 1.933 10.717,2.185 10.587,2.498 10.406 C 2.981 10.127,3.053 10.077,3.050 10.022 C 3.048 9.988,3.002 9.834,2.948 9.680 C 2.894 9.527,2.817 9.236,2.778 9.034 L 2.707 8.667 2.033 8.667 L 1.359 8.667 1.375 8.780 M13.222 9.034 C 13.183 9.236,13.106 9.527,13.052 9.680 C 12.998 9.834,12.952 9.988,12.950 10.022 C 12.947 10.077,13.019 10.127,13.502 10.406 C 13.819 10.589,14.067 10.717,14.081 10.703 C 14.093 10.691,14.159 10.537,14.226 10.363 C 14.401 9.911,14.551 9.316,14.625 8.780 L 14.641 8.667 13.967 8.667 L 13.293 8.667 13.222 9.034 M3.187 11.550 C 2.879 11.727,2.622 11.877,2.616 11.882 C 2.587 11.909,2.961 12.348,3.306 12.694 C 3.654 13.042,4.090 13.412,4.118 13.384 C 4.147 13.356,4.773 12.264,4.773 12.243 C 4.773 12.230,4.742 12.199,4.703 12.174 C 4.547 12.071,4.154 11.694,3.969 11.470 C 3.862 11.338,3.767 11.230,3.760 11.229 C 3.753 11.228,3.495 11.373,3.187 11.550 M12.139 11.344 C 11.991 11.542,11.640 11.899,11.430 12.067 C 11.303 12.168,11.235 12.241,11.243 12.265 C 11.267 12.337,11.880 13.386,11.898 13.386 C 11.942 13.387,12.358 13.034,12.649 12.749 C 12.939 12.465,13.387 11.948,13.387 11.897 C 13.387 11.874,12.282 11.226,12.246 11.227 C 12.235 11.228,12.187 11.280,12.139 11.344 M5.818 13.113 C 5.761 13.212,5.615 13.465,5.493 13.675 C 5.365 13.897,5.283 14.066,5.296 14.080 C 5.309 14.093,5.463 14.159,5.637 14.226 C 6.089 14.401,6.684 14.551,7.220 14.625 L 7.333 14.641 7.333 13.963 L 7.333 13.286 7.180 13.267 C 6.966 13.241,6.361 13.084,6.159 13.002 C 6.067 12.964,5.975 12.933,5.957 12.933 C 5.938 12.933,5.875 13.014,5.818 13.113 M9.867 12.990 C 9.700 13.065,9.139 13.217,8.881 13.256 L 8.667 13.289 8.667 13.965 L 8.667 14.641 8.780 14.625 C 9.316 14.551,9.911 14.401,10.363 14.226 C 10.537 14.159,10.691 14.093,10.703 14.081 C 10.740 14.045,10.097 12.948,10.036 12.941 C 10.009 12.938,9.933 12.960,9.867 12.990 " stroke="none" fill-rule="evenodd"></path></svg>