<svg width="16" height="16" viewBox="0 0 16 16" fill="none" xmlns="http://www.w3.org/2000/svg"><path d="M1.726 2.188 C 1.670 2.202,1.592 2.230,1.551 2.251 C 1.440 2.308,1.265 2.511,1.227 2.626 C 1.183 2.758,1.204 3.052,1.266 3.174 C 1.292 3.225,1.632 3.587,2.022 3.980 L 2.730 4.692 2.357 5.073 C 2.152 5.282,1.902 5.555,1.802 5.680 C 1.528 6.022,1.199 6.531,0.991 6.933 C 0.824 7.258,0.804 7.314,0.786 7.504 C 0.757 7.812,0.828 8.072,1.059 8.502 C 1.678 9.655,2.572 10.640,3.664 11.370 C 4.672 12.044,5.699 12.430,6.947 12.604 C 7.377 12.664,8.505 12.672,8.933 12.618 C 9.311 12.571,9.828 12.469,10.117 12.385 L 10.355 12.316 11.531 13.490 C 12.821 14.778,12.814 14.772,13.120 14.772 C 13.619 14.773,13.930 14.333,13.770 13.851 C 13.730 13.730,13.282 13.275,8.016 8.006 C 4.109 4.095,2.273 2.276,2.200 2.241 C 2.069 2.178,1.860 2.154,1.726 2.188 M7.467 2.685 C 6.818 2.731,6.247 2.842,5.673 3.032 C 5.428 3.114,5.227 3.188,5.227 3.197 C 5.227 3.206,5.470 3.457,5.768 3.754 L 6.309 4.295 6.582 4.229 C 7.081 4.108,7.489 4.072,8.172 4.087 C 8.824 4.102,9.180 4.147,9.680 4.277 C 11.319 4.705,12.711 5.760,13.565 7.222 C 13.673 7.408,13.769 7.586,13.776 7.617 C 13.801 7.713,13.484 8.283,13.179 8.691 C 12.991 8.941,12.401 9.551,12.137 9.767 L 11.942 9.928 12.430 10.417 C 12.699 10.686,12.927 10.907,12.936 10.907 C 12.971 10.907,13.389 10.534,13.646 10.274 C 14.131 9.782,14.536 9.237,14.890 8.600 C 15.302 7.858,15.323 7.544,15.002 6.920 C 14.368 5.690,13.504 4.727,12.347 3.959 C 11.197 3.197,10.042 2.803,8.641 2.694 C 8.310 2.669,7.753 2.664,7.467 2.685 M7.633 4.641 C 7.346 4.677,6.853 4.809,6.853 4.849 C 6.853 4.859,7.072 5.085,7.340 5.351 L 7.827 5.834 8.111 5.849 C 8.560 5.872,8.872 6.003,9.197 6.306 C 9.579 6.663,9.778 7.087,9.798 7.591 L 9.807 7.820 10.296 8.310 C 10.566 8.579,10.794 8.800,10.804 8.800 C 10.861 8.800,10.979 8.336,11.019 7.953 C 11.055 7.607,11.023 7.187,10.934 6.849 C 10.687 5.904,9.918 5.085,8.987 4.773 C 8.611 4.647,8.033 4.591,7.633 4.641 M4.369 6.329 L 5.043 7.004 4.996 7.317 C 4.863 8.208,5.193 9.148,5.874 9.821 C 6.313 10.254,6.858 10.535,7.467 10.643 C 7.700 10.684,8.327 10.685,8.520 10.644 L 8.653 10.617 8.913 10.874 C 9.056 11.016,9.164 11.140,9.153 11.151 C 9.098 11.204,8.517 11.258,8.000 11.258 C 7.185 11.258,6.566 11.160,5.855 10.916 C 4.360 10.402,3.069 9.300,2.309 7.889 L 2.184 7.657 2.294 7.438 C 2.457 7.114,2.664 6.792,2.892 6.507 C 3.105 6.241,3.644 5.653,3.675 5.653 C 3.685 5.653,3.997 5.957,4.369 6.329 " stroke="none" fill-rule="evenodd"></path></svg>