<?xml version="1.0" encoding="UTF-8" standalone="no"?>
<svg
   xmlns:dc="http://purl.org/dc/elements/1.1/"
   xmlns:cc="http://creativecommons.org/ns#"
   xmlns:rdf="http://www.w3.org/1999/02/22-rdf-syntax-ns#"
   xmlns:svg="http://www.w3.org/2000/svg"
   xmlns="http://www.w3.org/2000/svg"
   xmlns:sodipodi="http://sodipodi.sourceforge.net/DTD/sodipodi-0.dtd"
   xmlns:inkscape="http://www.inkscape.org/namespaces/inkscape"
   width="249.75"
   height="256"
   viewBox="0 0 249.75 256"
   id="svg2"
   version="1.1"
   inkscape:version="0.48.5 r10040"
   sodipodi:docname="airbrake-isotype.svg">
  <metadata
     id="metadata12">
    <rdf:RDF>
      <cc:Work
         rdf:about="">
        <dc:format>image/svg+xml</dc:format>
        <dc:type
           rdf:resource="http://purl.org/dc/dcmitype/StillImage" />
      </cc:Work>
    </rdf:RDF>
  </metadata>
  <defs
     id="defs10" />
  <sodipodi:namedview
     pagecolor="#ffffff"
     bordercolor="#666666"
     borderopacity="1"
     objecttolerance="10"
     gridtolerance="10"
     guidetolerance="10"
     inkscape:pageopacity="0"
     inkscape:pageshadow="2"
     inkscape:window-width="640"
     inkscape:window-height="480"
     id="namedview8"
     showgrid="false"
     fit-margin-top="0"
     fit-margin-left="0"
     fit-margin-right="0"
     fit-margin-bottom="0"
     inkscape:zoom="1.0703125"
     inkscape:cx="125"
     inkscape:cy="128"
     inkscape:window-x="0"
     inkscape:window-y="0"
     inkscape:window-maximized="0"
     inkscape:current-layer="svg2" />
  <title
     id="title4">isotype</title>
  <path
     d="M 124.874,0 249.75,64 V 192 L 124.875,256 0,192 V 64 L 124.874,0 z m -15.087,136.526 11.185,-29.77 c 2.384,-6.52 5.136,-17.727 5.136,-17.727 h 0.364 c 0,0 2.75,11.206 5.136,17.728 l 11.183,29.769 h -33.004 z m -43.273,48.498 h 14.484 c 9.17,0 12.286,-2.174 15.22,-9.7 l 8.069,-20.737 h 44.004 l 8.07,20.736 c 2.935,7.527 6.233,9.701 15.403,9.701 h 14.303 v -18.562 h -2.936 c -3.115,0 -4.585,-0.67 -5.681,-3.68 L 138.943,66.286 H 113.82 l -38.69,96.496 c -1.099,3.01 -2.564,3.68 -5.684,3.68 h -2.933 v 18.562 z"
     id="path6"
     inkscape:connector-curvature="0"
     style="fill:#f58c54;fill-rule:evenodd" />
</svg>
