<svg xmlns="http://www.w3.org/2000/svg" width="866" height="650" viewBox="0 0 2048 1537"><path fill="#FEFFFF" d="M0 0h2048v1537H0z"/><path fill="#4A5BA7" d="M1146 212h21l28 2 30 4 28 6 31 9 26 10 24 11 25 13 22 14 17 12 16 13 11 9 16 15 12 12 7 8 11 13 12 16 16 24 11 19 13 25 8 19 10 28 7 25 5 22 5 35 1 15v54l-3 28-5 28-7 27-11 33-14 32-10 19-10 17-14 24-15 26-17 29-15 26-13 22-12 21-14 24-17 29-28 48-15 26-10 17-15 26-16 27-13 23-9 15-14 24-15 26-12 19-11 12-5 5-11 9-17 9-14 5-18 4-9 1h-9l-16-2-21-6-14-7 2-5 16-28 10-17 15-26 17-29 11-19 14-24 15-26 13-22 12-21 9-15 11-19 14-24 30-52 12-20 13-23 13-22 42-72 12-21 17-29 16-27 12-22 10-21 9-25 8-32 4-31v-43l-3-27-5-24-8-27-8-20-8-17-14-24-12-17-11-14-16-17-10-10-11-9-14-11-15-10-21-12-23-11-25-9-17-5-26-5-26-3h-35l-24 2-28 5-26 7-21 8-20 9-22 12-19 13-10 8-13 11-12 11-14 15-12 15-18 27-14 27-8 19-8 24-6 27-3 20-1 11v40l3 26 6 29 7 23 10 24 8 16 8 15 11 16 13 17 10 11 7 8 13 13-2 5-13 23-6 10-12 21-34 58-13 23-20 34-11 19-15 26-10 17-15 26-28 48-10 17-8 10-9 10-14 11-12 7-18 7-12 3-7 1h-28l-21-5-16-7-4-3 14-25 12-20 30-52 9-15 12-21 28-48 15-26 9-15 16-28 11-19 13-22 12-21 14-24 6-10-1-5-8-11-15-26-14-29-11-28-9-29-2-8-2-1-2 6-15 26-16 27-15 26-12 21-15 26-10 17-11 19-9 15-16 28-9 13-9 10-7 7-16 11-15 7-11 4-14 3-9 1h-14l-19-3-16-5-13-6 1-5 16-28 15-25 14-25 10-17 13-22 15-26 16-27 16-28 14-24 17-29 16-28 14-24 11-19 9-15 16-28 14-24 17-29 15-26 10-17 15-26 17-29 12-21 12-20 8-12 12-17 8-10 9-11 9-10 12-13 15-14 14-12 17-13 17-12 15-9 18-10 16-8 23-10 28-10 29-8 31-6 34-4z"/><path fill="#4A5BA7" d="M1130 501h20l21 3 19 5 20 8 18 10 16 12 12 11 11 12 12 18 9 17 7 19 5 23 1 7v33l-3 18-6 21-8 18-14 24-12 21-16 27-8 14-14 24-15 26-17 29-28 48-10 17-15 26-10 17-14 24-17 29-15 26-42 72-10 17-15 26-14 24-13 22-15 26-10 13-11 11-16 11-14 7-19 6-19 3h-9l-21-3-16-5-14-7 2-6 12-21 10-17 13-22 12-21 16-27 16-28 28-48 15-26 14-24 15-26 13-22 15-26 11-19 14-24 15-26 13-22 15-26 16-27 16-28 3-6-11-2-20-7-19-10-17-12-12-11-11-11-12-16-10-18-8-20-5-18-3-22v-19l3-22 5-19 6-15 8-16 10-15 9-11 14-14 17-13 17-10 19-8 22-6z"/><path fill="#FEFFFF" d="M1132 612h15l11 3 10 5 11 10 6 9 5 15v16l-4 13-6 10-10 10-14 7-7 2h-19l-10-3-11-6-7-6-7-10-4-9-2-8v-16l4-13 7-11 8-8 10-6z"/></svg>