<svg xmlns="http://www.w3.org/2000/svg" xml:space="preserve" viewBox="0 0 652 652"><path d="M278.8 107.4c29.4-33.3 78-43.1 118-23.9 53.1 25.6 72.5 90.7 43.6 141l-65.1 112.9c-3.6 6.3-9.6 10.9-16.6 12.8s-14.5.9-20.8-2.7l78.8-136.7c21-36.5 6.9-83.7-31.6-102.4-28.9-14-64.2-7-85.6 17a73.07 73.07 0 0 0-18.6 47.9c-.2 17.7 6 34.9 17.4 48.4 2.1 2.4 4.3 4.7 6.6 6.8l-46 80c-1.8 3.1-4.2 5.9-7 8.1-2.9 2.2-6.1 3.8-9.6 4.7s-7.1 1.2-10.7.7-7-1.6-10.1-3.4l49.9-86.8c-7.2-10.4-12.3-22-15.2-34.3l-30.6 53.3c-3.6 6.3-9.6 10.9-16.6 12.8s-14.5.9-20.8-2.7l79.1-137.5c3.4-5.7 7.2-11 11.5-16m91.4 43.8c19.1 11 25.6 35.6 14.6 54.7l-75.9 131.5c-3.6 6.3-9.6 10.9-16.6 12.8s-14.5.9-20.8-2.7L342 225c-5.7-1.2-11-3.6-15.6-7.1s-8.5-7.9-11.2-13c-2.8-5.1-4.4-10.7-4.8-16.5s.5-11.6 2.6-17 5.3-10.3 9.4-14.3 9.1-7.1 14.6-9.1c5.4-1.9 11.2-2.7 17-2.1 5.6.6 11.2 2.4 16.2 5.3m-27.6 24.7c-1.3 1-2.4 2.3-3.2 3.7-1.2 2.2-1.8 4.6-1.7 7.1.2 2.5 1.1 4.9 2.6 6.8 1.5 2 3.6 3.4 5.9 4.2s4.9.9 7.3.2c2.4-.6 4.5-2 6.2-3.9 1.6-1.9 2.7-4.2 3-6.6.3-2.5-.1-5-1.2-7.2s-2.8-4.1-5-5.3c-1.4-.8-3-1.4-4.6-1.6s-3.3-.1-4.9.3c-1.6.6-3.1 1.3-4.4 2.3" style="fill:#615eff"/><path d="m36 533.7 46.9-120.3h27.5l46.9 120.3h-26.2l-10.1-27H72.4l-10.1 26.9H36zm129.3-107.5c0-3.8 1.2-6.9 3.5-9.3 2.4-2.4 5.5-3.5 9.3-3.5s7 1.2 9.3 3.5c2.4 2.4 3.5 5.5 3.5 9.3 0 3.9-1.2 7-3.5 9.3-2.4 2.4-5.5 3.5-9.3 3.5-3.9 0-6.9-1.2-9.3-3.5-2.3-2.3-3.5-5.4-3.5-9.3m1.3 107.5v-80.2h23.1v80.2zm42.6-80.2v80.2h23.1v-35.4q0-12.6 5.7-19.5t15-6.9c3 0 6 .5 9.1 1.5l3.2-20c-3.7-1.1-7.3-1.6-10.7-1.6-10.2 0-18.2 4.4-24.1 13.1v-11.5h-21.3zm65 80.2V413.4h23.1v48c3.4-3 7.2-5.3 11.5-7s9-2.6 14-2.6c7.5 0 14.2 1.8 20.1 5.5 5.9 3.6 10.5 8.5 13.9 14.8s5.1 13.4 5.1 21.4-1.7 15.2-5.1 21.5-8 11.2-13.9 14.8q-8.85 5.4-20.1 5.4c-5.2 0-10-.9-14.5-2.6-4.5-1.8-8.4-4.4-11.8-7.6l-.6 8.7zm126.3-41-18.8-39.2h-24.1l37.4 76.2-18.3 44.1H401l49.9-120.3h-24.4l-21.7 52.3c-.5-2.6-1.2-5-1.9-7.2s-1.5-4.2-2.4-5.9m53.5-39.2h13.2v-20h23.1v20h19.5v20h-19.5V503q0 5.7 3.6 9c2.5 2.1 5.6 3.2 9.3 3.2 2.8 0 5.6-.6 8.6-1.8v18.9q-7.65 3-15 3c-9.5 0-16.8-2.5-22-7.6-5.1-5.1-7.6-12.5-7.6-22v-32.2H454zm99.6 57.8c-3.8-2.8-6.5-6.4-7.9-10.8h62.6v-7c0-8.1-1.8-15.2-5.5-21.5-3.6-6.3-8.6-11.2-14.9-14.8s-13.4-5.4-21.5-5.4-15.4 1.8-21.8 5.5c-6.4 3.6-11.4 8.5-15.1 14.8-3.7 6.2-5.5 13.3-5.5 21.2 0 8.1 1.9 15.3 5.8 21.7 3.8 6.3 9.2 11.3 16 14.9s14.6 5.4 23.5 5.4q8.4 0 17.4-2.7c6.1-1.8 12.2-5.2 18.4-10l-14-16.7c-3 2.8-6.3 5.2-10 7-3.6 1.8-8.2 2.6-13.8 2.6-5.2 0-9.8-1.4-13.7-4.2" style="fill:#1a194d"/><path d="M113 485.1c-3.2-9.4-6.1-17.8-8.6-25.3-2.5-7.4-5.1-15.1-7.7-23-2.6 7.9-5.2 15.6-7.8 23-2.5 7.4-5.4 15.9-8.6 25.3zm207 30.1c5.9 0 10.7-2.1 14.6-6.2s5.8-9.3 5.8-15.5-1.9-11.4-5.8-15.5c-3.8-4.1-8.7-6.2-14.6-6.2s-10.7 2.1-14.6 6.2c-3.8 4.1-5.8 9.3-5.8 15.5s1.9 11.4 5.8 15.5c3.8 4.2 8.7 6.2 14.6 6.2m263.1-31.7c-1.3-2.8-3.1-5.3-5.5-7.2-3.5-2.9-7.6-4.3-12.5-4.3s-9.2 1.5-12.8 4.4c-2.4 2-4.3 4.4-5.6 7.2h36.4z" style="fill:#fff"/></svg>