<svg version="1" xmlns="http://www.w3.org/2000/svg" width="1040" height="1040" viewBox="0 0 780 780"><path d="M355.5 52.7c-10.4 1-36.9 5.6-48.3 8.4-40.7 9.9-84.2 30-118.6 54.7-29.9 21.5-61.1 53.6-81.5 83.7-16.3 24.1-34.5 61.2-42.5 86.6C33 385.6 47.8 493.9 104.5 579c51.4 77.1 127 127.4 219.5 146 19.1 3.8 33.4 5 63.1 5 29.2 0 45.7-1.2 63.4-4.6 67.1-12.9 124.4-42.6 173.3-89.9 46.6-45 78.6-100.2 93.8-162 7.1-29.1 9.4-49.4 9.4-84.5 0-31.3-2.5-51.9-9.5-80.1C682 167.3 560.1 63.6 416.5 53c-13.1-.9-52-1.1-61-.3zm44.1 135.4c10.6 2.7 7.7-3.5 98.6 215.4 39.7 95.6 50.1 122 52.3 133.2.5 2.4 0 4.8-1.9 8.8-3.9 8.7-14.4 14.3-24.8 13.3-4.1-.4-6.3-1.6-14.5-7.9-8.6-6.5-70.5-56-150.1-119.9-13.9-11.1-25.5-20.1-25.7-19.8-.9.8-15.1 35.6-37.4 91.5L274.8 556h-49.6l9-21.8c51.5-124.9 118.6-285.6 131.9-315.7 10.7-24.3 11.4-25.3 17.8-28.7 5.8-3.1 8.9-3.4 15.7-1.7z"/><path d="M391.6 265.2c-.8 1.8-3.7 8.7-6.4 15.4-7.1 16.8-22.1 54.7-29.8 74.7l-6.5 16.8 2.8 2.2c36.4 28.9 127 99.7 127.5 99.7s.8-.5.8-1.1c0-1.1-31.5-79.3-59.9-148.7-21.6-52.7-25.2-61.1-26.2-61.8-.5-.3-1.6 1-2.3 2.8z"/></svg>