<svg xmlns="http://www.w3.org/2000/svg" width="512" height="512"><path d="M331.108 467.524c-1.777-.215-8.204-.752-14.28-1.194l-11.049-.803-2.446-5.4c-1.685-3.72-2.494-8.634-2.6-15.785-.083-5.711-.691-11.238-1.35-12.282-.66-1.045-1.278-13.244-1.374-27.11-.096-13.866-.641-26.666-1.211-28.443-.903-2.816-1.429-139.02-.631-163.55.161-4.977-.024-19.459-.413-32.181-.503-16.449-.253-24.48.866-27.797.916-2.715 1.238-7.098.77-10.483-.442-3.2-.454-10.764-.027-16.808.427-6.044.47-14.77.094-19.393-.376-4.622-.197-12.185.397-16.807.595-4.622.743-12.913.33-18.424-.484-6.46-.28-10.02.572-10.02.728 0 1.323-.833 1.323-1.851s1.6-2.954 3.556-4.302c4.257-2.935 19.609-7.825 26.827-8.546 2.844-.284 6.05-.884 7.126-1.332 3.274-1.367 93.175.784 104.708 2.505 4.828.72 33.522 1.087 37.084.473.58-.1 5.573-.113 11.095-.029 9.43.144 10.315.408 14.606 4.355 2.512 2.311 4.754 5.657 4.982 7.434.227 1.778.833 4.223 1.346 5.434.512 1.21.735 11.419.494 22.686-.505 23.62-1.382 26.036-10.996 30.288-5.482 2.425-8.986 2.585-61.195 2.788-30.46.119-55.729.564-56.154.99-1.019 1.019-1.84 71.989-1.018 87.949l.642 12.443 8.547.27c16.847.53 69.549 1.353 81.602 1.272 11.862-.079 12.404.045 15.631 3.553 3.472 3.774 4.56 6.256 8.314 18.97 1.715 5.805 2.085 10.495 1.583 20.04-1.062 20.218-5.474 27.182-18.63 29.408-7.364 1.246-55.787 2.18-58.35 1.126-1.215-.5-9.01-.99-17.322-1.088-13.92-.164-15.38.05-18.475 2.713-4.877 4.195-7.366 12.306-6.435 20.965a3146.63 3146.63 0 0 1 1.433 13.637c1.23 12.02 1.565 118.907.386 123.497-1.357 5.287-6.666 9.022-13.439 9.455-2.448.157-4.872.705-5.386 1.22-.882.881-24.55 1-31.533.157zm-6.787-43.334c1.955-.084 4.064-.06 4.687.054.622.114 2.148-.713 3.39-1.838 1.718-1.554 2.108-3.388 1.629-7.642-.382-3.385-.061-5.95.81-6.49.794-.49 1.443-2.072 1.443-3.516 0-2.651 16.621-20.494 19.09-20.494 2.925 0 2.58-5.077-.48-7.082-3.753-2.459-4.208-8.756-.813-11.268 1.255-.93 2.988-3.29 3.85-5.245.863-1.956 2.436-3.556 3.496-3.556 1.852 0 1.838-.795-.11-6.14-.697-1.913-.953-1.777-1.652.873-1.012 3.838-9.995 9.231-13.843 8.312-2.112-.505-2.93.082-3.55 2.555-.443 1.765-1.2 4.238-1.682 5.494-.682 1.777-.387 2.096 1.329 1.438 1.57-.603 2.542.04 3.377 2.236.644 1.695 1.79 3.463 2.544 3.93.755.466 1.373 2.78 1.373 5.14 0 3.586-.663 4.567-4.032 5.962-6.16 2.551-8.316.474-7.969-7.677.155-3.634.123-6.608-.072-6.608s-2.325 1.454-4.735 3.232c-5.297 3.908-5.758 3.939-9.097.6-4.96-4.961-5.035-1.15-.135 6.862 3.7 6.05 5.904 8.3 9.005 9.189 4.677 1.34 5.042 2.77 1.866 7.303-1.233 1.758-2.078 4.163-1.878 5.345.2 1.181-.208 2.5-.907 2.932-.698.432-.954 2.726-.57 5.099.676 4.162.525 4.344-4.286 5.169-6.024 1.033-10.805 4.774-10.805 8.454 0 2.702 0 2.702 2.586.116 1.422-1.422 4.185-2.655 6.14-2.739zm40.28 1.123c1.482-1.937 1.43-2.263-.366-2.263-1.29 0-2.098 1.08-2.098 2.801 0 1.541.165 2.56.366 2.263.202-.296 1.145-1.557 2.098-2.801zm5.294-23.595c0-2.011-.733-3.232-1.94-3.232-2.086 0-2.396 1.184-1.154 4.419 1.208 3.147 3.094 2.424 3.094-1.187zm-52.362-38.14c.44-.711.401-1.937-.085-2.724-.87-1.406-3.08.749-3.127 3.047-.03 1.417 2.28 1.185 3.212-.323zm30.383-57.921c0-1.991-.671-4.291-1.491-5.111-2.23-2.23-6.266.45-6.266 4.161 0 2.931.494 3.251 6.787 4.394.533.097.97-1.453.97-3.444zm24.803-65.262c-.754-.909-1.779-6.144-2.276-11.634l-.905-9.982-5.18-1.395c-4.569-1.23-5.49-1.085-7.802 1.227l-2.621 2.621 2.672 2.327c3.058 2.663 4.88 8.889 2.95 10.082-1.84 1.137-1.612 3.389.318 3.138 4.39-.57 7.667.339 9.673 2.683 1.218 1.422 2.738 2.585 3.378 2.585.64 0 .547-.743-.207-1.652zm-28.035-38.427c-.44-.711-1.712-1.293-2.828-1.293-1.626 0-1.871-.979-1.237-4.944.777-4.864.729-4.936-2.966-4.394-3.174.466-4.089-.091-5.902-3.598-1.245-2.408-1.82-5.448-1.37-7.243 1.217-4.846-1.484-3.619-3.151 1.432-.822 2.49-1.712 4.526-1.979 4.526-1.34 0-7.995-3.318-9.98-4.976-2.076-1.734-2.263-1.553-2.263 2.19 0 3.642.403 4.078 3.763 4.078 2.45 0 6.09 1.841 10.435 5.275 3.697 2.922 7.496 4.958 8.52 4.566 1.016-.39 1.847-.187 1.847.45 0 1.842 3.876 5.224 5.986 5.224 1.058 0 1.564-.582 1.125-1.293zm-28.444-38.786c-.625-1.012-1.369-1.088-2.23-.226-.712.711-.872 1.976-.355 2.811.625 1.013 1.369 1.088 2.23.226.712-.711.871-1.976.355-2.811zm24.588 1.293c2.86 0 3.427-4.13.893-6.491-2.055-1.914-2.72-1.977-4.807-.452-1.332.974-3.536 1.771-4.898 1.771-1.728 0-2.24.619-1.692 2.045.431 1.125.784 2.652.784 3.394 0 .821 1.581 1.033 4.04.54 2.223-.444 4.779-.807 5.68-.807zm28.808-19.026c-.168-11.526-1.932-14.652-2.58-4.57-.36 5.624-.693 6.176-3.949 6.55-1.955.226-3.555.607-3.555.848s1.246 2.774 2.77 5.628c2.395 4.488 3.088 4.991 5.12 3.722 1.988-1.241 2.326-3.12 2.194-12.178zm-47.923 4.28c-1.45-1.1-1.968-2.56-1.417-3.997.556-1.449.099-2.694-1.27-3.46-1.177-.659-2.14-2.332-2.14-3.72 0-1.386-.436-2.522-.969-2.523-.533 0-.772 3.167-.53 7.039.44 7.075 1.167 7.978 6.671 8.287 1.528.085 1.455-.26-.345-1.625zm20.813-7.557c.937-3.022 2.88-6.754 4.316-8.293 1.858-1.992 2.342-3.646 1.678-5.737-.85-2.679-1.072-2.745-2.527-.756-2.223 3.04-2.555 2.85-5.188-2.99-2.212-4.906-5.877-7.687-3.834-2.91.532 1.245 1.242 3.863 1.578 5.818.413 2.407 1.398 3.556 3.05 3.556 3.628 0 2.974 2.308-2.087 7.37-4.993 4.993-5.232 5.627-2.974 7.886 2.71 2.709 4.237 1.703 5.988-3.944zm-19.054-13.421c2.733.546 3.758.252 3.758-1.08 0-1.006-.582-2.19-1.293-2.63-.711-.439-1.293-2.84-1.293-5.334 0-4.103-.278-4.452-2.909-3.657-4.209 1.271-5.625 2.914-3.953 4.586.777.777 1.204 3.831.949 6.788-.256 2.956-.138 4.295.26 2.975.565-1.874 1.548-2.235 4.481-1.648zm35.035-11.466c4.375-1.778 8.727-3.233 9.671-3.233.944 0 1.717-.581 1.717-1.293 0-.71 1.163-1.292 2.585-1.292 1.423 0 2.586-.533 2.586-1.185 0-1.334-8.12-7.957-12.71-10.366-1.658-.87-3.83-3.427-4.827-5.682-1.752-3.964-1.803-3.801-1.511 4.9.29 8.664.168 9.066-3.254 10.737-2.855 1.394-3.555 2.615-3.555 6.191 0 2.45.302 4.455.672 4.455.37 0 4.251-1.455 8.626-3.232zm46.974-8.14c-.373-.973-.679-2.303-.679-2.956 0-1.693-1.542-1.404-4.518.845-1.859 1.404-2.144 2.218-1.019 2.914 2.714 1.677 6.957 1.128 6.216-.804zm41.028-.587c1.892-2.832 2.014-2.846 4.576-.544 2.026 1.821 3.206 2.058 5.127 1.03 1.785-.955 2.95-.892 4.092.22 1.253 1.22 2.342.685 5.047-2.48 6.069-7.102 12.41-6.87 16.269.594 1.622 3.137 2.483 3.533 6.801 3.13 9.345-.87 10.762-1.494 10.762-4.733 0-3.335-3.663-5.11-6.645-3.22-2.634 1.669-7.073 1.38-8.688-.566-.967-1.164-1.092-4.505-.39-10.343.947-7.859.83-8.623-1.316-8.623-1.295 0-2.355-.517-2.355-1.149s-2.036-1.53-4.525-1.998c-3.232-.606-4.525-1.53-4.525-3.237 0-1.314-.872-2.724-1.94-3.133-1.066-.41-1.938-1.636-1.938-2.725 0-2.948-3.182-2.4-7.59 1.31l-3.91 3.29-2.024-3.087c-1.41-2.151-4.168-3.568-9.09-4.67-6.77-1.515-7.25-1.443-11.37 1.7l-4.303 3.282-2.833-2.833c-2.524-2.525-3.28-2.664-6.938-1.284-2.887 1.09-4.592 1.147-5.743.191-.9-.747-3.272-1.17-5.27-.941-2.993.343-3.702 1.112-4.02 4.36-.263 2.688.458 4.71 2.263 6.342 1.456 1.319 2.648 3.47 2.648 4.783 0 1.312.831 2.385 1.847 2.385s2.643.796 3.616 1.769c.973.973 2.963 2.148 4.424 2.611 2.228.707 3.716-.763 9.247-9.137l6.591-9.981 1.36 3.575c2.161 5.685 1.295 11.163-1.765 11.163-.855 0-2.683.92-4.064 2.045-1.94 1.581-2.025 1.895-.374 1.382 1.61-.5 2.34.43 2.967 3.77.59 3.147 1.94 5.006 4.652 6.408 2.102 1.087 3.92 2.98 4.042 4.205.122 1.226.35 3.102.51 4.169.158 1.067.349 2.376.424 2.909.269 1.894 2.436.928 4.351-1.94zm-.232-17.055c-7.585-5.597-8.358-7.606-5.26-13.677l2.69-5.276 3.919 3.297c2.155 1.814 5.183 3.307 6.728 3.317 4.311.03 5.577 1.453 6.488 7.29.803 5.146.669 5.429-3.23 6.787-5.647 1.97-6.483 1.84-11.335-1.738zM17.474 465.206c-5.038-.967-10.448-2.447-12.02-3.289-5.13-2.745-6.882-12.44-4.22-23.352.781-3.2 1.434-8.465 1.452-11.7.017-3.236.553-6.436 1.192-7.112.638-.675 1.463-3.555 1.833-6.4 1.201-9.222 5.07-23.19 7.342-26.503 2.4-3.5 3.96-8.603 4.623-15.125.23-2.274 1.905-7.847 3.72-12.384 1.815-4.536 3.3-9.197 3.3-10.357 0-1.16 1.6-3.592 3.556-5.405 2.246-2.082 3.663-4.838 3.85-7.486.388-5.545.997-8.94 2.025-11.302 1.047-2.406 4.654-17.297 8.612-35.554 1.625-7.493 4.959-18.982 6.377-21.979 2.258-4.768 4.024-11.344 4.024-14.984 0-1.985.581-3.97 1.292-4.409.711-.44 1.293-2.439 1.293-4.443 0-2.004.87-4.365 1.931-5.247 1.268-1.052 1.698-2.93 1.25-5.468-.374-2.127-.03-4.651.766-5.61.796-.96 1.126-2.263.734-2.898-.392-.635.692-5.03 2.41-9.765 1.718-4.736 3.327-10.8 3.577-13.477.25-2.677.894-5.58 1.433-6.453.54-.872.584-1.586.1-1.586-.485 0-.291-.727.43-1.616.72-.889 1.995-4.951 2.83-9.028.837-4.076 2.063-7.747 2.727-8.157.663-.41 1.206-3.067 1.206-5.904 0-2.838.82-6.746 1.822-8.684 1.002-1.938 2.11-6.128 2.462-9.31.352-3.18 1.542-8.111 2.644-10.956 1.102-2.844 2.3-7.79 2.661-10.989.751-6.638 1.998-11.694 3.347-13.575.51-.711 1.3-4.143 1.755-7.627.454-3.484 1.322-6.975 1.927-7.757.605-.783 1.804-7.533 2.665-14.999 2.685-23.299 7.783-35.135 15.891-36.894 2.342-.508 4.638-1.52 5.101-2.249.526-.827 9.566-1.303 24.081-1.267 23.247.058 25.455.398 35.195 5.426 1.067.55 2.734 4.72 3.705 9.266.97 4.545 2.093 9.137 2.494 10.204.401 1.066.887 2.812 1.08 3.878 1.002 5.545 7.22 29.94 9.062 35.554 3.054 9.312 5.534 20.455 4.813 21.622-.341.552-.159 1.731.406 2.62.564.889 1.084 1.907 1.154 2.262.07.356.805 2.28 1.633 4.278.827 1.997 1.866 6.07 2.308 9.05.441 2.98 2.229 9.918 3.971 15.417 1.743 5.499 2.906 10.444 2.584 10.99-.321.545.027 2.446.775 4.223 1.591 3.787 4.39 14.059 9.684 35.554 2.102 8.533 5.34 21.066 7.194 27.851 1.855 6.785 3.938 16.331 4.63 21.214.691 4.883 1.785 9.222 2.43 9.643.646.42 3.018 8.471 5.27 17.89 2.254 9.419 4.665 18.62 5.36 20.449.695 1.828 2.129 7.212 3.185 11.964 1.057 4.753 2.825 11.841 3.928 15.752 1.103 3.911 2.05 9.438 2.105 12.283.055 2.844 1.11 7.207 2.344 9.696 2.244 4.525 6.497 19.765 7.216 25.858.21 1.777 1.362 6.432 2.56 10.343 1.198 3.91 2.476 9.147 2.84 11.636.365 2.488 1.077 5.106 1.584 5.818 1.304 1.829 7.189 19.503 8.94 26.845 1.946 8.165 1.858 15.438-.222 18.283-5.838 7.984-60.812 9.661-75.838 2.313-6.059-2.963-12.965-12.884-13.37-19.208-.176-2.729-.696-5.563-1.157-6.297-.46-.734-.573-5.098-.25-9.696 1.085-15.423.718-23.52-1.467-32.439-3.784-15.44-11.529-19.597-36.162-19.411-27.787.21-43.146 1.613-46.498 4.25-5.791 4.556-7.994 15.194-9.096 43.931-1.063 27.697-4.869 36.217-18.03 40.366-9.953 3.137-45.34 4.12-58.36 1.622zm54.344-24.166a1.444 1.444 0 0 0-1.981-.468 1.444 1.444 0 0 0-.468 1.982 1.444 1.444 0 0 0 1.981.468 1.444 1.444 0 0 0 .468-1.982zm93.473-97.196c-.217-.65-1.763-.073-3.437 1.282-2.685 2.175-2.852 2.82-1.42 5.496l1.623 3.033 1.814-4.315c.998-2.372 1.637-4.846 1.42-5.496zm46.831.058c.023-.511-.831-.594-1.898-.185-1.066.41-1.94 1.957-1.94 3.439 0 2.647.035 2.65 1.9.185 1.043-1.38 1.916-2.928 1.938-3.439zm9.533-5.65c1.156-2.426 1.53-4.41.83-4.41-.699 0-1.271.614-1.271 1.365 0 .752-1.798 3.008-3.995 5.015-3.865 3.53-3.892 3.629-.83 3.044 2.007-.384 3.932-2.217 5.266-5.015zM89.1 339.981c.018-1.6.438-4.508.934-6.464.58-2.293.388-3.555-.543-3.555-.794 0-1.444 1.198-1.444 2.662 0 1.624-.56 2.316-1.437 1.774-2.846-1.759-3.328 2.266-.64 5.336 3.317 3.788 3.09 3.77 3.13.248zm31.27-13.76c0-1.345-.938-2.806-2.084-3.246-1.525-.585-1.871-.247-1.293 1.26.435 1.133.79 2.594.79 3.247s.582 1.187 1.293 1.187 1.293-1.101 1.293-2.447zm117.651-.138c0-.71-.256-1.292-.57-1.292-.314 0-.93.581-1.37 1.292-.439.711-.182 1.293.571 1.293.753 0 1.37-.582 1.37-1.293zm-11.502-2.968c-1.659-1.66-3.342-.377-2.113 1.61.476.77 1.457 1.035 2.181.587.883-.546.861-1.269-.068-2.197zM59.604 320.76c0-.71-.582-.933-1.293-.494-.711.44-1.293 1.381-1.293 2.092 0 .711.582.934 1.293.494.711-.44 1.293-1.38 1.293-2.092zm54.752-.535c-.645-1.683-3.037-2.752-3.037-1.357 0 1.92 1.748 4.502 2.665 3.935.605-.374.773-1.534.372-2.578zm28.773-2.84c-1.314-1.315-2.398.664-1.32 2.409.814 1.317 1.119 1.319 1.557.005.3-.899.193-1.985-.237-2.415zm49.351-4.446c8.508-9.404 8.712-9.899 5.503-13.315-1.811-1.928-2.323-3.31-1.431-3.862.764-.473 1.39-1.966 1.39-3.318 0-1.353 1.091-3.5 2.425-4.772 1.334-1.272 2.801-3.54 3.26-5.037.46-1.499 1.942-3.244 3.293-3.879 2.218-1.043 2.288-1.53.723-5.033-1.533-3.43-1.746-3.544-1.839-.986-.14 3.883-9.269 9.735-13.52 8.668-2.455-.616-3.18-.177-3.703 2.24-.357 1.654-1.078 4.025-1.6 5.27-.721 1.713-.33 2.262 1.613 2.262 1.86 0 3.364 1.856 5.469 6.75 2.75 6.392 2.782 6.821.606 8.08-1.264.732-4.315 3.053-6.78 5.157l-4.481 3.827-2.43-3c-3.096-3.824-3.062-6.027.156-10.119 1.423-1.808 2.586-4.354 2.586-5.66 0-2.132-.489-2.037-4.848.947-2.667 1.826-4.732 3.759-4.589 4.296.143.536.4 3.367.573 6.29.278 4.71.74 5.409 4.06 6.138 2.946.647 3.602 1.372 3.072 3.397-1.12 4.288 4.963 1.77 10.492-4.341zm-84.07 4.497c-1.244-.325-3.28-.325-4.525 0-1.244.325-.226.591 2.263.591 2.488 0 3.506-.266 2.262-.591zm50.693-12.917c.978-.863-.094-11.295-1.313-12.774-.621-.754-1.996-6.572-3.054-12.929-1.058-6.357-2.519-13.54-3.245-15.961-.727-2.423-1.674-6.774-2.106-9.67-.432-2.897-1.61-7.241-2.619-9.653-1.007-2.413-1.832-6.099-1.832-8.192s-.59-4.907-1.31-6.254c-.72-1.346-1.475-4.904-1.676-7.907-.683-10.204-2.901-6.351-6.611 11.482-2.036 9.784-4.25 18.492-4.92 19.35-.671.857-.912 2.057-.536 2.666.376.608-1.354 10.088-3.845 21.065-2.49 10.978-4.856 22.105-5.257 24.726l-.728 4.766 5.654.457c6.496.525 32.509-.388 33.398-1.172zm-52.655-23.122c-.392-2.053.51-5.69 2.302-9.277 2.61-5.225 2.764-6.407 1.348-10.322-1.384-3.828-1.296-4.755.658-6.914 1.29-1.426 1.622-2.494.773-2.494-1.417 0-5.997 4.57-9.82 9.796-1.706 2.334-1.912 2.344-4.277.204-2.552-2.31-4.213-1.835-4.213 1.205 0 .948.78 1.724 1.735 1.724.955 0 2.786 2.182 4.07 4.848a1371.76 1371.76 0 0 0 3.435 7.094c.607 1.234 1.103 3.32 1.103 4.632 0 1.314.372 2.76.827 3.215 1.601 1.602 2.697-.373 2.06-3.71zm110.477-26.663c-.412-1.032-.719-.725-.78.78-.057 1.364.249 2.127.678 1.698.43-.43.476-1.545.102-2.478zm-6.997-21.99c.285.495.323.125.084-.822s-.434-2.838-.434-4.202c0-1.526-.895-2.48-2.327-2.48-2.964 0-5.43 2.447-5.43 5.39 0 1.5-.666 2.03-1.94 1.542-1.2-.461-1.939.006-1.939 1.226 0 3.014 2.799 3.3 7.35.752 2.264-1.269 4.35-1.902 4.636-1.407zm-57.237-59.22c0-.71-.256-1.292-.57-1.292-.314 0-.93.582-1.37 1.293-.439.71-.182 1.293.571 1.293.753 0 1.37-.582 1.37-1.293zm23.718-61.411c-1.946-5.713-3.62-7.283-4.608-4.321-.698 2.093-12.313-4.878-13.298-7.981-.424-1.336.478-5.333 2.005-8.883 3.103-7.212 2.572-10.055-1.412-7.567-2.223 1.388-2.526 3.076-2.526 14.072v12.495l4.89-.656c4.214-.566 5.662-.012 10.466 4.001 3.066 2.562 5.775 4.658 6.02 4.658.245 0-.446-2.618-1.537-5.818zm-65.11-29.49c.01-.575-.562-.686-1.273-.246-.71.44-1.284 1.783-1.273 2.985.017 1.884.193 1.918 1.273.247.69-1.067 1.262-2.41 1.273-2.985zm6.993-17.377c.637-4.298.41-5.495-1.047-5.495-4.423 0-8.72 9.74-6.662 15.1 1.387 3.615 6.737-3.05 7.709-9.605z" fill="#020202"/></svg>