<?xml version="1.0" encoding="UTF-8" standalone="no"?>
<!-- Created with Inkscape (http://www.inkscape.org/) -->

<svg
   xmlns:dc="http://purl.org/dc/elements/1.1/"
   xmlns:cc="http://creativecommons.org/ns#"
   xmlns:rdf="http://www.w3.org/1999/02/22-rdf-syntax-ns#"
   xmlns:svg="http://www.w3.org/2000/svg"
   xmlns="http://www.w3.org/2000/svg"
   xmlns:sodipodi="http://sodipodi.sourceforge.net/DTD/sodipodi-0.dtd"
   xmlns:inkscape="http://www.inkscape.org/namespaces/inkscape"
   id="svg2"
   version="1.1"
   inkscape:version="0.48.5 r10040"
   width="512"
   height="512"
   sodipodi:docname="appfollow.png">
  <metadata
     id="metadata8">
    <rdf:RDF>
      <cc:Work
         rdf:about="">
        <dc:format>image/svg+xml</dc:format>
        <dc:type
           rdf:resource="http://purl.org/dc/dcmitype/StillImage" />
        <dc:title></dc:title>
      </cc:Work>
    </rdf:RDF>
  </metadata>
  <defs
     id="defs6" />
  <sodipodi:namedview
     pagecolor="#ffffff"
     bordercolor="#666666"
     borderopacity="1"
     objecttolerance="10"
     gridtolerance="10"
     guidetolerance="10"
     inkscape:pageopacity="0"
     inkscape:pageshadow="2"
     inkscape:window-width="1164"
     inkscape:window-height="702"
     id="namedview4"
     showgrid="false"
     inkscape:zoom="0.921875"
     inkscape:cx="83.842004"
     inkscape:cy="256.50449"
     inkscape:window-x="0"
     inkscape:window-y="0"
     inkscape:window-maximized="0"
     inkscape:current-layer="svg2" />
  <path
     style="fill:#020202"
     d="m 331.10837,467.52356 c -1.7777,-0.21451 -8.20399,-0.75146 -14.28063,-1.19322 l -11.04844,-0.8032 -2.44635,-5.40068 c -1.68462,-3.71905 -2.49392,-8.63393 -2.59912,-15.78447 -0.084,-5.71107 -0.69222,-11.23812 -1.35155,-12.28234 -0.65933,-1.04421 -1.27733,-13.24357 -1.37332,-27.10969 -0.0961,-13.86612 -0.641,-26.66562 -1.21109,-28.44333 -0.903,-2.8158 -1.42879,-139.02045 -0.63136,-163.54911 0.16183,-4.97758 -0.0239,-19.45933 -0.41286,-32.18165 -0.50283,-16.44885 -0.25241,-24.47932 0.86678,-27.79689 0.91591,-2.71502 1.2377,-7.09756 0.7697,-10.48333 -0.44229,-3.19987 -0.45451,-10.76321 -0.0272,-16.80742 0.42736,-6.0442 0.46963,-14.77113 0.094,-19.39317 -0.37569,-4.62204 -0.19685,-12.18538 0.39744,-16.80742 0.59427,-4.62204 0.74259,-12.912622 0.32959,-18.423516 -0.48417,-6.459841 -0.28087,-10.019807 0.57216,-10.019807 0.72772,0 1.32313,-0.833079 1.32313,-1.851286 0,-1.018206 1.59994,-2.954136 3.55542,-4.302065 4.25763,-2.934829 19.60889,-7.825079 26.82723,-8.545994 2.84433,-0.284072 6.05087,-0.883591 7.12564,-1.332264 3.27445,-1.366943 93.17549,0.784152 104.70833,2.505393 4.82796,0.72056 33.52196,1.08664 37.08388,0.473118 0.58082,-0.100043 5.57349,-0.112997 11.09483,-0.02879 9.42993,0.143818 10.31583,0.407947 14.60657,4.354959 2.51228,2.311022 4.75399,5.656345 4.98157,7.434053 0.22759,1.777707 0.83324,4.222618 1.34588,5.433153 0.51265,1.210522 0.73502,11.419425 0.49417,22.686459 -0.5049,23.619399 -1.38206,26.035549 -10.9959,30.288209 -5.48191,2.4249 -8.98566,2.58453 -61.19527,2.78804 -30.45923,0.11869 -55.7283,0.56388 -56.15348,0.98925 -1.01878,1.01919 -1.83997,71.98929 -1.01768,87.94922 l 0.64109,12.44278 8.5479,0.26958 c 16.8467,0.53128 69.54825,1.35367 81.60147,1.27335 11.86218,-0.079 12.40421,0.0441 15.63157,3.55224 3.47199,3.77399 4.55969,6.25585 8.31395,18.97024 1.71416,5.80525 2.08459,10.49492 1.58296,20.03961 -1.06265,20.21868 -5.4743,27.18226 -18.63107,29.40829 -7.36377,1.24589 -55.78643,2.18017 -58.349,1.12579 -1.21484,-0.49984 -9.01005,-0.98916 -17.32266,-1.08737 -13.92031,-0.16444 -15.37923,0.0498 -18.47444,2.71223 -4.87701,4.19517 -7.36659,12.306 -6.43514,20.96512 0.42438,3.94526 1.06932,10.08216 1.4332,13.63758 1.23017,12.02008 1.5643,118.9072 0.38604,123.49663 -1.3573,5.28683 -6.66595,9.02181 -13.43883,9.45509 -2.44846,0.15663 -4.87234,0.70538 -5.38639,1.21943 -0.88179,0.88178 -24.54987,0.99978 -31.53276,0.1572 z m -6.78761,-43.33353 c 1.95548,-0.0842 4.06458,-0.06 4.68689,0.0539 0.62232,0.1139 2.14817,-0.71306 3.39081,-1.83763 1.71712,-1.55398 2.10791,-3.3881 1.62835,-7.64272 -0.38151,-3.38476 -0.0609,-5.95042 0.81105,-6.48928 0.79312,-0.49014 1.44203,-2.07267 1.44203,-3.51668 0,-2.65105 16.62141,-20.49373 19.09099,-20.49373 2.92383,0 2.57916,-5.07644 -0.48078,-7.0814 -3.75337,-2.45929 -4.20779,-8.75623 -0.81322,-11.26881 1.25533,-0.92916 2.98825,-3.28934 3.85091,-5.24482 0.86266,-1.95548 2.43538,-3.55541 3.49494,-3.55541 1.85224,0 1.83803,-0.79576 -0.10964,-6.14117 -0.69662,-1.91184 -0.95263,-1.77642 -1.65173,0.87367 -1.0124,3.83782 -9.99549,9.23145 -13.84312,8.31168 -2.11269,-0.50502 -2.92944,0.0827 -3.54991,2.5549 -0.44322,1.76597 -1.20024,4.2386 -1.68227,5.49473 -0.68196,1.77715 -0.38715,2.09613 1.32875,1.43768 1.57039,-0.60261 2.54246,0.041 3.37691,2.23571 0.64446,1.69506 1.78942,3.46366 2.54437,3.93025 0.75493,0.46657 1.37262,2.77969 1.37262,5.14025 0,3.58603 -0.66307,4.56656 -4.03151,5.96183 -6.15989,2.5515 -8.31656,0.47403 -7.96917,-7.67653 0.15493,-3.63466 0.12257,-6.60846 -0.072,-6.60846 -0.19454,0 -2.32515,1.45449 -4.7347,3.23219 -5.29699,3.908 -5.75821,3.93838 -9.0973,0.59929 -4.96045,-4.96045 -5.03548,-1.15034 -0.13513,6.86242 3.69984,6.04979 5.90456,8.29941 9.00519,9.18867 4.677,1.34133 5.04214,2.77088 1.86547,7.30341 -1.23222,1.75816 -2.07707,4.16325 -1.87745,5.34466 0.19962,1.18141 -0.20838,2.5011 -0.90667,2.93266 -0.69829,0.43158 -0.95459,2.72595 -0.56956,5.09862 0.67539,4.16189 0.52427,4.34411 -4.28697,5.16905 -6.0236,1.03279 -10.80507,4.77386 -10.80507,8.45393 0,2.70175 0,2.70175 2.58576,0.11598 1.42217,-1.42217 4.18569,-2.65466 6.14117,-2.73886 z m 40.28016,1.12276 c 1.48239,-1.93671 1.4297,-2.26254 -0.36585,-2.26254 -1.28948,0 -2.09762,1.07921 -2.09762,2.80124 0,1.54068 0.16464,2.55882 0.36585,2.26254 0.20121,-0.29629 1.14514,-1.55684 2.09762,-2.80124 z m 5.2938,-23.59503 c 0,-2.01115 -0.73263,-3.2322 -1.93931,-3.2322 -2.08666,0 -2.39602,1.18414 -1.15456,4.41933 1.20781,3.1475 3.09387,2.42382 3.09387,-1.18713 z m -52.36157,-38.13991 c 0.43948,-0.71108 0.40109,-1.93678 -0.0853,-2.72378 -0.86897,-1.40602 -3.08016,0.74856 -3.1271,3.047 -0.029,1.41717 2.28038,1.18482 3.21241,-0.32322 z m 30.38264,-57.92095 c 0,-1.99103 -0.67092,-4.29099 -1.49094,-5.11101 -2.22992,-2.22991 -6.26633,0.45071 -6.26633,4.16156 0,2.9309 0.49405,3.25068 6.78761,4.39345 0.53332,0.0968 0.96966,-1.45297 0.96966,-3.444 z m 24.80292,-65.26187 c -0.75419,-0.90876 -1.77829,-6.14407 -2.27578,-11.63406 l -0.90452,-9.98177 -5.18045,-1.39495 c -4.56855,-1.23019 -5.49009,-1.08531 -7.80195,1.22655 l -2.62151,2.62151 2.67216,2.327 c 3.0581,2.66307 4.87968,8.8886 2.94978,10.08133 -1.84027,1.13735 -1.61176,3.38928 0.31848,3.13862 4.38984,-0.57004 7.6666,0.33855 9.67335,2.68227 1.2177,1.42217 2.73772,2.58576 3.37785,2.58576 0.64012,0 0.54679,-0.74353 -0.20741,-1.65226 z M 344.6836,201.96806 c -0.43948,-0.71109 -1.71176,-1.29288 -2.82731,-1.29288 -1.62668,0 -1.87171,-0.97896 -1.23759,-4.94451 0.77771,-4.86352 0.72914,-4.93549 -2.96557,-4.39321 -3.17418,0.46587 -4.08874,-0.0917 -5.90214,-3.59845 -1.24542,-2.4084 -1.82017,-5.44763 -1.36963,-7.24269 1.21637,-4.84643 -1.48457,-3.61909 -3.15162,1.43212 -0.82138,2.48879 -1.71181,4.52508 -1.97875,4.52508 -1.34073,0 -7.99523,-3.31743 -9.98038,-4.97545 -2.07601,-1.73392 -2.26253,-1.55343 -2.26253,2.18931 0,3.64235 0.40278,4.07902 3.76253,4.07902 2.44954,0 6.09109,1.8406 10.43524,5.27445 3.69669,2.92207 7.49649,4.95833 8.51979,4.56566 1.01592,-0.38985 1.84713,-0.18684 1.84713,0.45115 0,1.84109 3.87645,5.22328 5.9866,5.22328 1.0578,0 1.5637,-0.5818 1.12423,-1.29288 z m -28.44333,-38.78635 c -0.62552,-1.01212 -1.36925,-1.08722 -2.23117,-0.2253 -0.71108,0.71108 -0.87064,1.97605 -0.35458,2.81105 0.62552,1.01212 1.36925,1.08722 2.23117,0.2253 0.71108,-0.71108 0.87064,-1.97605 0.35458,-2.81105 z m 24.58798,1.29288 c 2.85882,0 3.42673,-4.12995 0.89256,-6.49089 -2.05452,-1.91408 -2.7205,-1.9766 -4.80649,-0.45129 -1.33184,0.97386 -3.53617,1.77066 -4.8985,1.77066 -1.72751,0 -2.23952,0.61879 -1.69221,2.04506 0.43163,1.12478 0.78476,2.65199 0.78476,3.39381 0,0.82105 1.58072,1.0326 4.04025,0.54069 2.22213,-0.44442 4.77797,-0.80804 5.67963,-0.80804 z m 28.8076,-19.02573 c -0.16831,-11.52634 -1.93233,-14.6514 -2.57926,-4.56931 -0.36087,5.62391 -0.69353,6.17563 -3.94948,6.55027 -1.95548,0.225 -3.55541,0.60637 -3.55541,0.84748 0,0.24111 1.24651,2.77369 2.77003,5.62795 2.39524,4.4874 3.08804,4.99098 5.12028,3.72182 1.98751,-1.24122 2.32609,-3.12073 2.19384,-12.17821 z m -47.9233,4.28077 c -1.45012,-1.10039 -1.96762,-2.56101 -1.41636,-3.99755 0.55596,-1.44883 0.0986,-2.69454 -1.27042,-3.46072 -1.17648,-0.65839 -2.13906,-2.33175 -2.13906,-3.71859 0,-1.38683 -0.43634,-2.5223 -0.96966,-2.52327 -0.53331,-9.7e-4 -0.77226,3.16625 -0.53098,7.03826 0.44083,7.07482 1.16801,7.978 6.67216,8.28695 1.52785,0.0857 1.45452,-0.25902 -0.34568,-1.62508 z m 20.81352,-7.5572 c 0.93732,-3.0221 2.87928,-6.75428 4.31544,-8.29371 1.85813,-1.99173 2.34234,-3.64617 1.67892,-5.73643 -0.85031,-2.67911 -1.07256,-2.74564 -2.5271,-0.75643 -2.22326,3.04048 -2.55501,2.84926 -5.18837,-2.9905 -2.21214,-4.90566 -5.87727,-7.68642 -3.83411,-2.90898 0.53219,1.2444 1.24227,3.86247 1.57795,5.81795 0.4131,2.40651 1.39848,3.55542 3.04934,3.55542 3.62853,0 2.97515,2.3082 -2.08606,7.3694 -4.99335,4.99336 -5.23251,5.62767 -2.97362,7.88656 2.70919,2.70919 4.2362,1.70354 5.98761,-3.94328 z m -19.05372,-13.42168 c 2.73271,0.54654 3.75739,0.25222 3.75739,-1.07921 0,-1.00689 -0.5818,-2.19027 -1.29288,-2.62974 -0.71108,-0.43948 -1.29288,-2.8402 -1.29288,-5.33494 0,-4.10239 -0.27802,-4.45191 -2.90897,-3.65702 -4.20878,1.27157 -5.62488,2.91457 -3.95306,4.58639 0.77683,0.77683 1.20369,3.83126 0.94858,6.78762 -0.25512,2.95637 -0.13797,4.29526 0.2603,2.97532 0.56538,-1.87373 1.54794,-2.23514 4.48152,-1.64842 z m 35.03506,-11.46622 c 4.37496,-1.77771 8.72687,-3.2322 9.6709,-3.2322 0.94402,0 1.71641,-0.5818 1.71641,-1.29288 0,-0.71108 1.1636,-1.29288 2.58576,-1.29288 1.42217,0 2.58576,-0.53291 2.58576,-1.18424 0,-1.3347 -8.12091,-7.95778 -12.71078,-10.366385 -1.65781,-0.869965 -3.82979,-3.426774 -4.82663,-5.681812 -1.75226,-3.963926 -1.80241,-3.801243 -1.51088,4.900293 0.29027,8.663384 0.16845,9.065354 -3.25386,10.736784 -2.8547,1.39423 -3.55542,2.61437 -3.55542,6.19099 0,2.44998 0.30246,4.45452 0.67213,4.45452 0.36967,0 4.25164,-1.45449 8.62661,-3.23219 z m 46.97348,-8.14006 c -0.37315,-0.97241 -0.67845,-2.30223 -0.67845,-2.95516 0,-1.69285 -1.54273,-1.40459 -4.51878,0.84436 -1.8587,1.40458 -2.14327,2.21882 -1.0184,2.91403 2.71335,1.67694 6.95693,1.12855 6.21563,-0.80323 z m 41.0286,-0.58687 c 1.89129,-2.83125 2.01353,-2.84577 4.57521,-0.5434 2.0261,1.82101 3.20645,2.05816 5.12726,1.03018 1.78486,-0.95523 2.94998,-0.89255 4.09252,0.22016 1.25244,1.21976 2.34192,0.68422 5.04636,-2.4805 6.06877,-7.10164 12.40941,-6.870241 16.26918,0.59374 1.62225,3.13709 2.48327,3.53348 6.80099,3.13096 9.34457,-0.87112 10.76155,-1.49446 10.76155,-4.73396 0,-3.3344 -3.66243,-5.10908 -6.64449,-3.21968 -2.63415,1.66895 -7.0733,1.37984 -8.68809,-0.56587 -0.96649,-1.16456 -1.09226,-4.504904 -0.38942,-10.343026 0.94612,-7.858916 0.82946,-8.622955 -1.31653,-8.622955 -1.29506,0 -2.35465,-0.517048 -2.35465,-1.148994 0,-0.631946 -2.03628,-1.531001 -4.52507,-1.997898 -3.23253,-0.606425 -4.52507,-1.531259 -4.52507,-3.237755 0,-1.313875 -0.8727,-2.723733 -1.93932,-3.133045 -1.06663,-0.4093 -1.93932,-1.635129 -1.93932,-2.724082 0,-2.948913 -3.18123,-2.399776 -7.59032,1.310229 l -3.91008,3.290104 -2.02334,-3.088014 c -1.40928,-2.15082 -4.16825,-3.568034 -9.09062,-4.669606 -6.76892,-1.514826 -7.24887,-1.443059 -11.36958,1.699954 l -4.30232,3.281546 -2.833,-2.832994 c -2.52423,-2.524229 -3.28047,-2.664092 -6.93857,-1.283311 -2.8865,1.089534 -4.59164,1.146266 -5.74257,0.191074 -0.90035,-0.747219 -3.27212,-1.171102 -5.2706,-0.941952 -2.9928,0.343168 -3.70167,1.112315 -4.01955,4.361344 -0.26293,2.687273 0.45829,4.708727 2.26254,6.341555 1.45666,1.318271 2.64848,3.470267 2.64848,4.782228 0,1.311948 0.83114,2.385373 1.84697,2.385373 1.01584,0 2.6429,0.795935 3.61572,1.768748 0.97281,0.972814 2.96371,2.148014 4.42423,2.611563 2.22807,0.707166 3.71638,-0.763574 9.2469,-9.137767 l 6.59143,-9.980581 1.35903,3.57455 c 2.16181,5.685976 1.2961,11.163487 -1.76436,11.163487 -0.85464,0 -2.68323,0.920194 -4.06353,2.044868 -1.94091,1.581449 -2.02572,1.894688 -0.37423,1.38223 1.60927,-0.499362 2.34029,0.429481 2.96695,3.769878 0.59034,3.146749 1.93981,5.005598 4.6522,6.408229 2.10136,1.08665 3.92017,2.97893 4.0418,4.20507 0.12166,1.22614 0.35068,3.10203 0.50901,4.16866 0.15832,1.06662 0.34971,2.37566 0.42529,2.90897 0.2684,1.89376 2.43583,0.9277 4.35101,-1.93931 z m -0.23212,-17.054789 c -7.58571,-5.596547 -8.3585,-7.605602 -5.26103,-13.677166 l 2.69127,-5.275306 3.91841,3.297138 c 2.15514,1.813429 5.18283,3.306045 6.72822,3.316931 4.31073,0.03038 5.57655,1.452678 6.48744,7.289416 0.80318,5.146535 0.66889,5.428861 -3.22884,6.787611 -5.64763,1.968769 -6.48433,1.840438 -11.33547,-1.738624 z M 17.474302,465.20578 c -5.038683,-0.96703 -10.4481375,-2.44698 -12.0210145,-3.28876 -5.12990803,-2.74544 -6.881164,-12.43945 -4.218687,-23.35223 0.780704,-3.19987 1.433685,-8.46512 1.451062,-11.70055 0.01732,-3.23542 0.553817,-6.4353 1.192059,-7.11083 0.638256,-0.67553 1.463448,-3.55541 1.833767,-6.39974 1.200748,-9.22276 5.0697765,-23.19071 7.3414415,-26.50401 2.399672,-3.50002 3.959272,-8.60277 4.62266,-15.12456 0.231348,-2.2743 1.905613,-7.84699 3.72062,-12.38378 1.814994,-4.53679 3.299994,-9.19764 3.299994,-10.35747 0,-1.15983 1.599937,-3.5918 3.555416,-5.40437 2.24679,-2.08261 3.663707,-4.83808 3.849623,-7.48638 0.389246,-5.54466 0.997636,-8.93964 2.025281,-11.3016 1.047153,-2.40684 4.654323,-17.29725 8.612908,-35.55415 1.62476,-7.49335 4.95823,-18.98267 6.37689,-21.97894 2.25768,-4.7683 4.02321,-11.34415 4.02321,-14.98473 0,-1.98516 0.58179,-3.96897 1.29288,-4.40844 0.71108,-0.43948 1.29288,-2.43886 1.29288,-4.44307 0,-2.00422 0.86898,-4.36522 1.93107,-5.24668 1.26796,-1.05231 1.69718,-2.93026 1.24995,-5.46884 -0.37462,-2.12639 -0.03,-4.65083 0.76598,-5.60985 0.79592,-0.95902 1.12611,-2.26308 0.73376,-2.89791 -0.39235,-0.63484 0.69209,-5.02906 2.40986,-9.76495 1.71778,-4.73589 3.32734,-10.80072 3.57681,-13.47739 0.24946,-2.67667 0.89466,-5.58038 1.43377,-6.45267 0.5391,-0.87228 0.58372,-1.58597 0.0992,-1.58597 -0.48457,0 -0.29107,-0.72725 0.43002,-1.6161 0.72108,-0.88885 1.99506,-4.95127 2.83105,-9.0276 0.83598,-4.07633 2.06263,-7.74689 2.72588,-8.1568 0.66324,-0.4099 1.20589,-3.06701 1.20589,-5.9047 0,-2.83767 0.82012,-6.74535 1.82249,-8.68372 1.00237,-1.93836 2.11048,-6.12749 2.46247,-9.30916 0.352,-3.18167 1.54152,-8.11204 2.64341,-10.95637 1.10186,-2.84434 2.29955,-7.78959 2.6615,-10.98947 0.75089,-6.63822 1.99742,-11.69401 3.34703,-13.57522 0.51015,-0.71108 1.29958,-4.14316 1.75428,-7.62683 0.45471,-3.48368 1.32196,-6.97445 1.92722,-7.757274 0.60527,-0.782824 1.80442,-7.532167 2.66479,-14.998539 2.68478,-23.298973 7.782798,-35.134914 15.891278,-36.894336 2.34208,-0.508196 4.63752,-1.520021 5.10099,-2.2485 0.52636,-0.827315 9.56598,-1.302957 24.08133,-1.267098 23.247,0.05743 25.45458,0.397745 35.19484,5.425581 1.06663,0.550582 2.73374,4.720181 3.7047,9.265771 0.97097,4.545605 2.09342,9.137417 2.49433,10.204042 0.40092,1.066625 0.88676,2.81201 1.07963,3.878635 1.00267,5.544716 7.22025,29.939408 9.06185,35.554158 3.05418,9.31164 5.53466,20.45443 4.81319,21.62177 -0.34114,0.55198 -0.15848,1.73084 0.40591,2.6197 0.5644,0.88885 1.08382,1.90699 1.1543,2.26253 0.0705,0.35554 0.80522,2.28054 1.63275,4.27776 0.82754,1.99723 1.86609,6.06979 2.30786,9.05015 0.44179,2.98036 2.22902,9.91789 3.97161,15.41675 1.74261,5.49886 2.90536,10.44411 2.58389,10.98946 -0.32144,0.54535 0.027,2.44604 0.77435,4.22375 1.59185,3.78655 4.38981,14.05841 9.6846,35.55415 2.10182,8.533 5.33906,21.06585 7.19383,27.85077 1.85478,6.78492 3.93807,16.33115 4.62954,21.21384 0.69149,4.88268 1.78555,9.22189 2.43125,9.6427 0.64571,0.4208 3.01721,8.47145 5.27,17.89034 2.25279,9.41888 4.6646,18.62082 5.35958,20.44875 0.69497,1.82793 2.12831,7.21197 3.18517,11.96453 1.05688,4.75255 2.82417,11.84087 3.92731,15.75183 1.10315,3.91096 2.05048,9.43801 2.10518,12.28235 0.0547,2.84433 1.10937,7.20779 2.3437,9.69658 2.24434,4.52531 6.49723,19.76445 7.21622,25.85757 0.20978,1.77771 1.36165,6.43207 2.55972,10.34303 1.19808,3.91095 2.47642,9.14711 2.84075,11.6359 0.36435,2.48879 1.07705,5.10687 1.58378,5.81795 1.30341,1.82907 7.18876,19.50307 8.93948,26.84578 1.94667,8.16452 1.85864,15.43812 -0.22127,18.28256 -5.83818,7.98419 -60.81228,9.66112 -75.8381,2.31337 -6.05904,-2.96293 -12.96542,-12.88439 -13.37102,-19.20837 -0.17503,-2.72884 -0.69519,-5.56238 -1.15592,-6.29676 -0.46073,-0.73437 -0.57316,-5.09783 -0.24987,-9.69659 1.08425,-15.42229 0.71785,-23.51986 -1.46779,-32.43855 -3.78377,-15.44007 -11.52852,-19.59742 -36.16164,-19.41147 -27.78721,0.20976 -43.14557,1.61396 -46.49839,4.2513 -5.790828,4.55507 -7.993578,15.19349 -9.096108,43.93066 -1.06258,27.69604 -4.86832,36.21663 -18.02923,40.36524 -9.95375,3.13765 -45.339645,4.12115 -58.360934,1.62207 z m 54.34372,-24.16565 c -0.41627,-0.67356 -1.30794,-0.88405 -1.9815,-0.46777 -0.67355,0.41627 -0.88404,1.30794 -0.46776,1.98149 0.41627,0.67355 1.30794,0.88405 1.98149,0.46777 0.67355,-0.41627 0.88405,-1.30794 0.46777,-1.98149 z m 93.472948,-97.19595 c -0.21668,-0.65006 -1.76325,-0.0732 -3.4368,1.28201 -2.68554,2.17463 -2.85229,2.81997 -1.42004,5.49617 l 1.62281,3.03222 1.814,-4.31424 c 0.9977,-2.37284 1.63672,-4.8461 1.42003,-5.49616 z m 46.83148,0.0578 c 0.0226,-0.51098 -0.83158,-0.59419 -1.8982,-0.18489 -1.06663,0.40931 -1.93932,1.95673 -1.93932,3.43873 0,2.64685 0.0336,2.65012 1.89821,0.1849 1.044,-1.38031 1.91669,-2.92774 1.93931,-3.43874 z m 9.5324,-5.65077 c 1.15653,-2.42523 1.5304,-4.40955 0.83082,-4.40955 -0.69957,0 -1.27195,0.61459 -1.27195,1.36576 0,0.75116 -1.79766,3.00766 -3.99479,5.01442 -3.86482,3.52998 -3.89185,3.629 -0.83083,3.04385 2.00744,-0.38375 3.93259,-2.21666 5.26675,-5.01442 z m -132.555178,1.73162 c 0.0182,-1.59994 0.43848,-4.50891 0.93394,-6.46439 0.58115,-2.29368 0.38854,-3.55542 -0.54276,-3.55542 -0.79398,0 -1.4436,1.19793 -1.4436,2.66207 0,1.62394 -0.56056,2.31562 -1.43743,1.77367 -2.84543,-1.75857 -3.32757,2.26607 -0.63926,5.3363 3.31652,3.78771 3.08905,3.7697 3.12911,0.24777 z M 120.3692,326.22271 c 0,-1.34609 -0.93746,-2.80717 -2.08326,-3.24685 -1.52478,-0.58512 -1.87138,-0.24725 -1.29288,1.26029 0.43472,1.13285 0.79039,2.59393 0.79039,3.24686 0,0.65292 0.58179,1.18713 1.29288,1.18713 0.71108,0 1.29287,-1.10135 1.29287,-2.44743 z m 117.65193,-0.13832 c 0,-0.71109 -0.25656,-1.29288 -0.57013,-1.29288 -0.31357,0 -0.92971,0.58179 -1.36918,1.29288 -0.43948,0.71108 -0.18292,1.29288 0.57013,1.29288 0.75305,0 1.36918,-0.5818 1.36918,-1.29288 z m -11.5017,-2.96871 c -1.6594,-1.6594 -3.34216,-0.37687 -2.11365,1.6109 0.47588,0.76999 1.45753,1.03393 2.18144,0.58653 0.88303,-0.54575 0.86073,-1.26891 -0.0678,-2.19743 z M 59.603922,320.76027 c 0,-0.71109 -0.58179,-0.93332 -1.29288,-0.49384 -0.71108,0.43947 -1.29287,1.38083 -1.29287,2.09191 0,0.71108 0.58179,0.93332 1.29287,0.49384 0.71109,-0.43947 1.29288,-1.38083 1.29288,-2.09191 z m 54.752548,-0.53526 c -0.64578,-1.68287 -3.03741,-2.75153 -3.03741,-1.35721 0,1.92084 1.74786,4.50223 2.66476,3.93555 0.60552,-0.37422 0.77321,-1.53448 0.37265,-2.57834 z m 28.77278,-2.84063 c -1.31423,-1.31422 -2.39861,0.6644 -1.32031,2.40912 0.81455,1.31799 1.11909,1.31901 1.55701,0.005 0.29944,-0.89827 0.19292,-1.98473 -0.2367,-2.41434 z m 49.35106,-4.4456 c 8.50747,-9.40373 8.71197,-9.89854 5.50262,-13.31473 -1.81094,-1.92766 -2.32343,-3.31076 -1.43114,-3.86222 0.76457,-0.47252 1.39012,-1.96573 1.39012,-3.31822 0,-1.35251 1.09139,-3.4999 2.42533,-4.77199 1.33394,-1.2721 2.80123,-3.53875 3.26064,-5.037 0.45942,-1.49827 1.94066,-3.24366 3.29164,-3.87864 2.21803,-1.04252 2.28818,-1.53086 0.72301,-5.03318 -1.53284,-3.42998 -1.74549,-3.54402 -1.83835,-0.98587 -0.14095,3.88291 -9.26899,9.73477 -13.52038,8.66774 -2.45493,-0.61614 -3.18057,-0.17712 -3.70284,2.24029 -0.35726,1.65364 -1.07752,4.02477 -1.60058,5.26917 -0.72048,1.71405 -0.32926,2.26253 1.61385,2.26253 1.85962,0 3.36333,1.8561 5.46878,6.75033 2.74962,6.39168 2.78182,6.82099 0.60612,8.08049 -1.26379,0.73159 -4.31465,3.05215 -6.77969,5.15678 l -4.48189,3.82663 -2.42941,-3.00019 c -3.09613,-3.82357 -3.06209,-6.02664 0.15635,-10.11822 1.42216,-1.80799 2.58575,-4.35486 2.58575,-5.65969 0,-2.13306 -0.4892,-2.03755 -4.84829,0.94654 -2.66656,1.82544 -4.73148,3.75828 -4.58871,4.29519 0.14276,0.53691 0.40069,3.36779 0.57316,6.29082 0.27785,4.70906 0.74038,5.40834 4.05947,6.13733 2.94627,0.64711 3.60215,1.37236 3.07256,3.39752 -1.12131,4.28794 4.96242,1.77057 10.49188,-4.34141 z m -84.07023,4.49711 c -1.2444,-0.32519 -3.28068,-0.32519 -4.52507,0 -1.2444,0.3252 -0.22626,0.59127 2.26253,0.59127 2.48879,0 3.50694,-0.26607 2.26254,-0.59127 z m 50.6928,-12.91698 c 0.97829,-0.86269 -0.0939,-11.29527 -1.31273,-12.77394 -0.62158,-0.75406 -1.99601,-6.57201 -3.0543,-12.92878 -1.05829,-6.35677 -2.51853,-13.53951 -3.24498,-15.96164 -0.72646,-2.42213 -1.67431,-6.77379 -2.10633,-9.67036 -0.43202,-2.89656 -1.61015,-7.24018 -2.61807,-9.65246 -1.00791,-2.41229 -1.83258,-6.09857 -1.83258,-8.19173 0,-2.09316 -0.58951,-4.90724 -1.31002,-6.25352 -0.72051,-1.34629 -1.47454,-4.9047 -1.67562,-7.9076 -0.68326,-10.20353 -2.90137,-6.35135 -6.61147,11.48202 -2.0356,9.78455 -4.24985,18.49186 -4.92057,19.34956 -0.6707,0.8577 -0.9117,2.05744 -0.53553,2.66609 0.37616,0.60865 -1.35396,10.0883 -3.84471,21.06591 -2.49076,10.9776 -4.85638,22.10406 -5.25692,24.72545 l -0.72828,4.76618 5.65395,0.45694 c 6.49599,0.525 32.5089,-0.38794 33.39816,-1.17212 z m -52.65472,-23.12158 c -0.39248,-2.05308 0.50964,-5.68957 2.30144,-9.27731 2.60955,-5.22511 2.76392,-6.40679 1.34832,-10.32156 -1.38422,-3.82799 -1.29597,-4.75534 0.65807,-6.91452 1.29088,-1.4264 1.62188,-2.49363 0.77342,-2.49363 -1.41767,0 -5.99751,4.56876 -9.81975,9.79599 -1.7065,2.33377 -1.912768,2.34361 -4.277188,0.20383 -2.55245,-2.30993 -4.21371,-1.83481 -4.21371,1.20513 0,0.94811 0.78108,1.72384 1.73573,1.72384 0.95465,0 2.78563,2.18173 4.06887,4.84829 1.283218,2.66656 2.829318,5.85854 3.435778,7.09329 0.60645,1.23475 1.10265,3.31951 1.10265,4.63281 0,1.3133 0.37205,2.75986 0.82677,3.2146 1.60177,1.60177 2.6977,-0.37275 2.0596,-3.71076 z m 110.47722,-26.66368 c -0.41271,-1.03136 -0.71907,-0.72502 -0.78111,0.78112 -0.0561,1.3629 0.24943,2.12652 0.67905,1.69691 0.42961,-0.42963 0.47553,-1.54474 0.10201,-2.47803 z m -6.99757,-21.99016 c 0.28549,0.49505 0.32354,0.12528 0.0846,-0.82176 -0.239,-0.947 -0.43455,-2.83784 -0.43455,-4.20185 0,-1.52624 -0.89499,-2.48001 -2.32718,-2.48001 -2.96413,0 -5.43009,2.44752 -5.43009,5.38952 0,1.50135 -0.66597,2.03103 -1.93932,1.54241 -1.20091,-0.46083 -1.93931,0.006 -1.93931,1.22572 0,3.01448 2.79884,3.30087 7.34949,0.75201 2.26453,-1.26836 4.3509,-1.90109 4.63641,-1.40604 z m -57.23665,-59.21876 c 0,-0.71108 -0.25656,-1.29287 -0.57013,-1.29287 -0.31358,0 -0.92971,0.58179 -1.36918,1.29287 -0.43948,0.71109 -0.18292,1.29288 0.57013,1.29288 0.75305,0 1.36918,-0.58179 1.36918,-1.29288 z m 23.71824,-61.41172 c -1.94671,-5.71328 -3.62115,-7.28325 -4.60856,-4.32102 -0.69763,2.0929 -12.31326,-4.87845 -13.29798,-7.981052 -0.42404,-1.335996 0.47838,-5.333291 2.00537,-8.882863 3.10234,-7.211598 2.57148,-10.055452 -1.41261,-7.567346 -2.2228,1.38815 -2.52582,3.07643 -2.52582,14.072153 l 0,12.494768 4.89054,-0.65597 c 4.21387,-0.5652 5.66189,-0.0116 10.46535,4.00166 3.06615,2.5617 5.77535,4.65762 6.02046,4.65762 0.24509,0 -0.44644,-2.61807 -1.53675,-5.81795 z M 111.29926,82.623723 c 0.0104,-0.575279 -0.562,-0.686389 -1.27308,-0.246913 -0.71109,0.439475 -1.28397,1.782853 -1.27309,2.985281 0.0171,1.884073 0.19302,1.918205 1.27309,0.246914 0.68931,-1.066624 1.2622,-2.410002 1.27308,-2.985282 z m 6.99255,-17.377552 c 0.63762,-4.298471 0.40965,-5.494732 -1.04717,-5.494732 -4.4226,0 -8.71922,9.7388 -6.66192,15.100043 1.38705,3.614616 6.73686,-3.051077 7.70909,-9.605311 z"
     id="path3223"
     inkscape:connector-curvature="0" />
</svg>
