<svg xmlns="http://www.w3.org/2000/svg" width="64" height="64" viewBox="-9.72 -1.86 64 64"><path fill="#f99d1c" fill-rule="evenodd" d="m20.68 28.297-8.765 2.296A38.25 38.25 0 0 0-9.72 21.062c6.47-4.592 20.6-13.08 40.835-13.148l-5 4.6s21.357-.765 26.713-8.07c-.07.696-.487 1.6-.696 2.226-1.53 4.452-4.313 8.07-7.8 10.852-3.34 2.713-7.235 4.66-11.06 6.26-3.965 1.67-7.93 3.2-12.035 4.383a1.3 1.3 0 0 1-.557.139m33.6-.14s-19.757-1.46-40.348 5c2.713 2.783 5 5.983 6.817 9.46 10.783-5.913 25.74-13.426 33.53-14.47m-32 17.4c1.252 3.27 2.087 6.678 2.365 10.296L43.15 36.366z"/></svg>