<svg xmlns="http://www.w3.org/2000/svg" width="256" height="256"><defs><radialGradient fx="0" fy="0" cx="0" cy="0" r="1" gradientUnits="userSpaceOnUse" gradientTransform="matrix(56.42373 0 0 -56.42373 208.795 292.202)" spreadMethod="pad" id="a"><stop offset="0" stop-color="#ffb900"/><stop offset=".6" stop-color="#f95d8f"/><stop offset=".999" stop-color="#f95353"/><stop offset="1" stop-color="#f95353"/></radialGradient></defs><path d="M186.383 325.214c0-12.379 10.034-22.414 22.412-22.414 12.377 0 22.411 10.035 22.411 22.414 0 12.376-10.034 22.413-22.411 22.413-12.378 0-22.412-10.037-22.412-22.413m29.114-50.429c0-12.377 10.033-22.411 22.412-22.411 12.378 0 22.411 10.034 22.411 22.411 0 12.379-10.033 22.413-22.411 22.413-12.379 0-22.412-10.034-22.412-22.413m-58.228 0c0-12.377 10.034-22.411 22.411-22.411 12.379 0 22.413 10.034 22.413 22.411 0 12.379-10.034 22.411-22.413 22.411-12.377 0-22.411-10.032-22.411-22.411" fill="url(#a)" transform="matrix(2.4842 0 0 -2.4842 -390.689 873.263)"/></svg>