<?xml version="1.0" encoding="UTF-8" standalone="no"?>
<!-- Created with Inkscape (http://www.inkscape.org/) -->

<svg
   xmlns:dc="http://purl.org/dc/elements/1.1/"
   xmlns:cc="http://creativecommons.org/ns#"
   xmlns:rdf="http://www.w3.org/1999/02/22-rdf-syntax-ns#"
   xmlns:svg="http://www.w3.org/2000/svg"
   xmlns="http://www.w3.org/2000/svg"
   xmlns:sodipodi="http://sodipodi.sourceforge.net/DTD/sodipodi-0.dtd"
   xmlns:inkscape="http://www.inkscape.org/namespaces/inkscape"
   id="svg2"
   version="1.1"
   inkscape:version="0.48.5 r10040"
   width="256"
   height="256"
   xml:space="preserve"
   sodipodi:docname="asana.svg"><metadata
     id="metadata8"><rdf:RDF><cc:Work
         rdf:about=""><dc:format>image/svg+xml</dc:format><dc:type
           rdf:resource="http://purl.org/dc/dcmitype/StillImage" /><dc:title></dc:title></cc:Work></rdf:RDF></metadata><defs
     id="defs6"><clipPath
       clipPathUnits="userSpaceOnUse"
       id="clipPath16"><path
         d="M 0,600 790,600 790,0 0,0 0,600 z"
         id="path18"
         inkscape:connector-curvature="0" /></clipPath><radialGradient
       fx="0"
       fy="0"
       cx="0"
       cy="0"
       r="1"
       gradientUnits="userSpaceOnUse"
       gradientTransform="matrix(56.423729,0,0,-56.423729,208.79465,292.2019)"
       spreadMethod="pad"
       id="radialGradient52"><stop
         style="stop-opacity:1;stop-color:#ffb900"
         offset="0"
         id="stop54" /><stop
         style="stop-opacity:1;stop-color:#f95d8f"
         offset="0.6"
         id="stop56" /><stop
         style="stop-opacity:1;stop-color:#f95353"
         offset="0.999123"
         id="stop58" /><stop
         style="stop-opacity:1;stop-color:#f95353"
         offset="1"
         id="stop60" /></radialGradient></defs><sodipodi:namedview
     pagecolor="#ffffff"
     bordercolor="#666666"
     borderopacity="1"
     objecttolerance="10"
     gridtolerance="10"
     guidetolerance="10"
     inkscape:pageopacity="0"
     inkscape:pageshadow="2"
     inkscape:window-width="1280"
     inkscape:window-height="683"
     id="namedview4"
     showgrid="false"
     fit-margin-top="0"
     fit-margin-left="0"
     fit-margin-right="0"
     fit-margin-bottom="0"
     inkscape:zoom="0.62933333"
     inkscape:cx="-156.49091"
     inkscape:cy="59.5325"
     inkscape:window-x="0"
     inkscape:window-y="0"
     inkscape:window-maximized="1"
     inkscape:current-layer="g10"
     width="256px" /><g
     id="g10"
     inkscape:groupmode="layer"
     inkscape:label="Asana_All_Logo_Lockups-RGB"
     transform="matrix(1.25,0,0,-1.25,-196.58625,571.4675)"><g
       id="g40"
       transform="matrix(1.9873655,0,0,1.9873655,-155.28199,-241.43664)"><g
         id="g42"><g
           id="g48"><g
             id="g50"><path
               d="m 186.383,325.214 c 0,-12.379 10.034,-22.414 22.412,-22.414 l 0,0 c 12.377,0 22.411,10.035 22.411,22.414 l 0,0 c 0,12.376 -10.034,22.413 -22.411,22.413 l 0,0 c -12.378,0 -22.412,-10.037 -22.412,-22.413 m 29.114,-50.429 c 0,-12.377 10.033,-22.411 22.412,-22.411 l 0,0 c 12.378,0 22.411,10.034 22.411,22.411 l 0,0 c 0,12.379 -10.033,22.413 -22.411,22.413 l 0,0 c -12.379,0 -22.412,-10.034 -22.412,-22.413 m -58.228,0 c 0,-12.377 10.034,-22.411 22.411,-22.411 l 0,0 c 12.379,0 22.413,10.034 22.413,22.411 l 0,0 c 0,12.379 -10.034,22.411 -22.413,22.411 l 0,0 c -12.377,0 -22.411,-10.032 -22.411,-22.411"
               style="fill:url(#radialGradient52);stroke:none"
               id="path62"
               inkscape:connector-curvature="0" /></g></g></g></g></g></svg>