<svg xmlns="http://www.w3.org/2000/svg" id="Layer_1" viewBox="0 0 256 256"><style id="style3"/><path d="M222.533 47.71L149.224 5.235C143.406 1.746 135.842 0 127.115 0c-8.145 0-16.29 1.745-22.109 5.236L32.861 47.71c-12.219 6.982-20.946 23.855-20.946 37.818v84.946c0 13.963 8.727 30.836 20.946 37.818l72.727 42.473c5.818 3.49 13.382 5.236 21.527 5.236 8.146 0 16.291-1.745 21.527-5.236l73.31-42.473c11.636-6.982 22.109-24.436 22.109-37.818V85.527c.581-13.963-9.31-30.836-21.528-37.818zm-42.472 122.763c-.582.582-1.746.582-2.328.582-1.745 0-3.49-1.164-4.654-2.91l-29.091-58.181-29.091 58.181c-1.164 1.746-2.91 2.91-4.655 2.91-.581 0-1.745 0-2.327-.582-2.327-1.164-3.49-4.073-2.327-6.982l32.582-64.582L127.115 76.8l-45.964 91.927c-1.163 2.328-4.072 3.491-6.981 2.328-2.328-1.164-3.491-4.073-2.328-6.982l50.619-101.237c.581-1.745 2.327-2.909 4.654-2.909s3.491 1.164 4.655 2.91l12.218 24.436 5.818 11.054 32.582 65.164c1.163 2.909 0 5.818-2.327 6.982z" id="path21" fill="#363d45"/></svg>