<?xml version="1.0" encoding="UTF-8" standalone="no"?>
<svg
   xmlns:dc="http://purl.org/dc/elements/1.1/"
   xmlns:cc="http://creativecommons.org/ns#"
   xmlns:rdf="http://www.w3.org/1999/02/22-rdf-syntax-ns#"
   xmlns:svg="http://www.w3.org/2000/svg"
   xmlns="http://www.w3.org/2000/svg"
   xmlns:sodipodi="http://sodipodi.sourceforge.net/DTD/sodipodi-0.dtd"
   xmlns:inkscape="http://www.inkscape.org/namespaces/inkscape"
   id="Layer_1"
   x="0px"
   y="0px"
   viewBox="0 0 256 256"
   xml:space="preserve"
   version="1.1"
   inkscape:version="0.48.5 r10040"
   width="100%"
   height="100%"
   sodipodi:docname="assembla.svg"><metadata
     id="metadata27"><rdf:RDF><cc:Work
         rdf:about=""><dc:format>image/svg+xml</dc:format><dc:type
           rdf:resource="http://purl.org/dc/dcmitype/StillImage" /></cc:Work></rdf:RDF></metadata><defs
     id="defs25" /><sodipodi:namedview
     pagecolor="#ffffff"
     bordercolor="#666666"
     borderopacity="1"
     objecttolerance="10"
     gridtolerance="10"
     guidetolerance="10"
     inkscape:pageopacity="0"
     inkscape:pageshadow="2"
     inkscape:window-width="1280"
     inkscape:window-height="683"
     id="namedview23"
     showgrid="false"
     inkscape:zoom="2.0878421"
     inkscape:cx="152.54985"
     inkscape:cy="156.40976"
     inkscape:window-x="0"
     inkscape:window-y="0"
     inkscape:window-maximized="1"
     inkscape:current-layer="Layer_1" /><style
     type="text/css"
     id="style3"> .st0{fill:#363C44;} .st1{fill:#363D45;} </style><path
     class="st1"
     d="M 222.53324,47.709091 149.22415,5.2363639 C 143.40596,1.745454 135.84233,0 127.11506,0 118.9696,0 110.82416,1.745454 105.00597,5.2363639 L 32.86052,47.709091 C 20.642338,54.690909 11.915065,71.563636 11.915065,85.527273 v 84.945457 c 0,13.96364 8.727273,30.83636 20.945455,37.81817 l 72.72727,42.47274 C 111.40598,254.25455 118.9696,256 127.11506,256 c 8.14545,0 16.2909,-1.74545 21.52727,-5.23636 l 73.3091,-42.47274 c 11.63636,-6.98181 22.10908,-24.43636 22.10908,-37.81817 V 85.527273 C 244.64233,71.563636 234.75142,54.690909 222.53324,47.709091 z M 180.06052,170.47273 c -0.58182,0.58182 -1.74546,0.58182 -2.32728,0.58182 -1.74545,0 -3.49091,-1.16364 -4.65454,-2.9091 l -29.09091,-58.18181 -29.09092,58.18181 c -1.16363,1.74546 -2.90908,2.9091 -4.65454,2.9091 -0.58181,0 -1.74545,0 -2.32726,-0.58182 -2.32728,-1.16364 -3.49091,-4.07273 -2.32728,-6.98182 L 138.16961,98.909091 127.11506,76.8 81.151429,168.72727 c -1.163637,2.32728 -4.072727,3.49091 -6.981819,2.32728 -2.327272,-1.16364 -3.490909,-4.07273 -2.327272,-6.98182 L 122.46051,62.836364 c 0.58183,-1.745455 2.32728,-2.909091 4.65455,-2.909091 2.32727,0 3.49091,1.163636 4.65454,2.909091 l 12.21819,24.436363 5.81818,11.054546 32.58182,65.163637 c 1.16363,2.90909 0,5.81818 -2.32727,6.98182 z"
     id="path21"
     inkscape:connector-curvature="0"
     style="fill:#363d45" /></svg>