<svg xmlns="http://www.w3.org/2000/svg" width="256" height="256" viewBox="0 0 26.214 26.215" preserveAspectRatio="xMidYMid"><path d="M13.108 2.183C6.05 2.183.523 11.161 0 18.744c2.214 3.843 7.554 5.288 13.108 5.288 5.553 0 10.894-1.445 13.107-5.288-.523-7.583-6.051-16.56-13.107-16.56" fill="#b6deff"/><path d="M24.371 16.938s-1.559-3.37-3.143-5.335c-1.585-1.967-3.52-4.109-4.666-4.109-1.144 0-4.342 5.663-5.809 5.663-1.467 0-2.23-2.567-4.034-2.567-1.805 0-4.672 6.19-4.672 6.19l-.195 1.05s.997 4.416 11.418 4.416c10.423 0 11.256-4.344 11.256-4.344l-.155-.964" fill="#6c6"/><path d="M10.917 15.573c-1.619 0-2.449-1.597-2.899-2.583-.404-.888-.474-2.29-1.622-2.329a.89.89 0 0 1 .323-.071c1.804 0 2.567 2.567 4.034 2.567 1.467 0 4.665-5.663 5.81-5.663.215 0 .458.076.721.212-.195-.026-.444-.008-.637.185-.37.37-3.727 7.682-5.73 7.682" fill="#17ad49"/></svg>