<svg xmlns="http://www.w3.org/2000/svg" width="100" height="100"><path fill="#ffcc2a" d="M81.103 59.577c-3.088 0-6.275-.973-8.975-2.738l-15.1-10.295a3.743 3.743 0 0 1-1.635-3.097c0-1.24.61-2.4 1.635-3.098l14.961-10.2c2.807-1.841 6.022-2.832 9.113-2.832 8.03 0 12.822 6.031 12.822 16.131 0 10.101-4.792 16.131-12.822 16.131m-61.674-.002c-8.03 0-12.825-6.03-12.825-16.131 0-10.1 4.793-16.131 12.822-16.131 3.087 0 6.276.972 8.977 2.737l15.097 10.295a3.748 3.748 0 0 1 .002 6.195l-14.96 10.201c-2.812 1.841-6.027 2.832-9.115 2.832m30.837-18.429a3.743 3.743 0 0 1-2.111-.651l-14.211-9.69a3.75 3.75 0 0 1-1.542-3.936 19.169 19.169 0 0 1 2.421-5.856 31.072 31.072 0 0 0-1.962-2.925 6.824 6.824 0 0 1-1.313-5.097 6.811 6.811 0 0 1 2.677-4.528 6.79 6.79 0 0 1 4.126-1.382 6.905 6.905 0 0 1 5.497 2.743 45.76 45.76 0 0 1 2.087 3.008 17.81 17.81 0 0 1 9.418.216 45.581 45.581 0 0 1 2.225-3.227A6.911 6.911 0 0 1 63.07 7.08c1.501 0 2.927.475 4.128 1.38a6.813 6.813 0 0 1 2.677 4.533 6.842 6.842 0 0 1-1.312 5.095 29.967 29.967 0 0 0-2.392 3.683 18.979 18.979 0 0 1 1.96 5.102 3.758 3.758 0 0 1-1.542 3.931l-14.212 9.69a3.757 3.757 0 0 1-2.113.651m-.013 51.777A3.746 3.746 0 0 1 47.788 92L36.72 82.364c-5.566-4.487-9.113-11.531-9.732-19.343a3.747 3.747 0 0 1 1.877-3.552c.358-.205.717-.415 1.068-.643l18.218-12.423a3.744 3.744 0 0 1 4.226 0l18.362 12.516c.266.176.6.368.932.558a3.744 3.744 0 0 1 1.862 3.547c-.62 7.802-4.17 14.846-9.738 19.338l-11.083 9.641a3.748 3.748 0 0 1-2.461.92"/><path fill="#4d4c4e" d="M81.103 55.827c-2.368 0-4.856-.773-6.923-2.126L59.144 43.446l14.957-10.2c2.146-1.406 4.633-2.181 7.002-2.181 5.852 0 9.072 4.397 9.072 12.381 0 7.981-3.22 12.381-9.072 12.381M61.391 79.484l-10.316 8.973-.823.713-.817-.713-10.308-8.971c-4.831-3.867-7.865-10.025-8.401-16.762.426-.245.848-.493 1.261-.762l6.177-4.211 12.101-8.253 12.11 8.253 6.255 4.262c.377.251.776.481 1.168.711-.537 6.737-3.578 12.89-8.406 16.76M19.426 55.827c-5.847 0-9.072-4.4-9.072-12.381 0-7.983 3.225-12.381 9.072-12.381 2.368 0 4.856.775 6.926 2.127l15.04 10.253-14.961 10.201c-2.148 1.406-4.633 2.18-7.001 2.18h-.003zm17.047-44.371a3.125 3.125 0 0 1 4.375.62 39.868 39.868 0 0 1 3.407 5.315 14.087 14.087 0 0 1 12.721.366 40.178 40.178 0 0 1 3.593-5.681 3.121 3.121 0 0 1 2.5-1.247 3.122 3.122 0 0 1 2.494 5.004c-1.74 2.313-2.907 4.395-3.696 6.176a15.35 15.35 0 0 1 2.605 5.696l-14.211 9.69-14.211-9.69a15.365 15.365 0 0 1 3.17-6.401c-.775-1.618-1.848-3.455-3.37-5.471a3.129 3.129 0 0 1 .62-4.377m44.631 12.108c-3.161 0-6.411.845-9.341 2.381a22.758 22.758 0 0 0-1.322-4.008c.343-.527.72-1.062 1.122-1.6 3.521-4.677 2.576-11.355-2.103-14.875a10.556 10.556 0 0 0-6.387-2.135c-3.32 0-6.496 1.585-8.493 4.238a58.88 58.88 0 0 0-.915 1.256 21.37 21.37 0 0 0-3.398-.271c-.871 0-1.736.051-2.59.153-.271-.381-.55-.762-.832-1.138a10.673 10.673 0 0 0-8.491-4.238c-2.323 0-4.533.74-6.388 2.138-4.678 3.518-5.622 10.193-2.101 14.873.206.276.407.55.597.823a23.056 23.056 0 0 0-1.69 4.772c-2.911-1.531-6.161-2.371-9.342-2.371-7.643 0-16.572 5.205-16.572 19.881 0 14.673 8.928 19.881 16.572 19.881a19.15 19.15 0 0 0 3.818-.405c.003.131-.005.261.003.395.698 8.806 4.728 16.787 11.062 21.918l10.202 8.88.812.71a7.475 7.475 0 0 0 4.926 1.846 7.483 7.483 0 0 0 4.92-1.838l.82-.712 10.215-8.887c6.335-5.136 10.366-13.115 11.068-21.913.01-.133 0-.263.002-.395a19.25 19.25 0 0 0 3.826.402c7.646 0 16.572-5.207 16.572-19.881 0-14.676-8.926-19.881-16.572-19.881"/><path fill="#4d4c4e" d="M38.494 57.751c-.146.927-.253 1.875-.253 2.856 0 .398.036.788.063 1.183h23.91c.022-.395.056-.785.056-1.183 0-.978-.08-1.931-.217-2.856H38.495zm5.441 15.81l.133.112.581.505h11.213l.71-.617c1.057-.84 1.972-1.87 2.756-3.02H41.18c.786 1.15 1.696 2.182 2.753 3.02"/></svg>