<svg xmlns="http://www.w3.org/2000/svg" id="bitbucket" width="256" height="256" viewBox="0 0 256.00001 256"><style id="style3">.st0{fill:#172b4d}</style><g id="g3022" transform="translate(-33.725 -172.14) scale(1.8127)"><path id="path35" d="M89.219 94.963v.002-.002c-33.675 0-61.172 9.053-61.172 20.294 0 2.961 7.343 45.415 10.256 62.251 1.306 7.551 20.818 18.621 50.9 18.621l.031-.09v.09c30.081 0 49.593-11.07 50.899-18.621 2.913-16.836 10.256-59.29 10.256-62.251.001-11.24-27.495-20.294-61.17-20.294zm0 87.527c-10.739 0-19.445-8.707-19.445-19.445 0-10.74 8.706-19.445 19.445-19.445s19.445 8.705 19.445 19.445c0 10.738-8.706 19.445-19.445 19.445zm-.011-60.96c-21.636-.035-39.169-3.794-39.162-8.398.007-4.604 17.554-8.307 39.19-8.272 21.636.034 39.169 3.793 39.162 8.398-.008 4.605-17.554 8.306-39.19 8.272z" class="st0" fill="#172b4d"/><path id="path37" d="M133.185 194.382c-.93 0-1.675.658-1.675.658s-15.064 11.929-42.29 11.93c-27.227-.001-42.29-11.93-42.29-11.93s-.746-.658-1.675-.658c-1.111 0-2.164.746-2.164 2.393 0 .174.017.348.049.518 2.338 12.514 4.046 21.393 4.346 22.744 2.041 9.205 20.048 16.151 41.733 16.152h.002c21.686-.001 39.692-6.947 41.733-16.152.3-1.352 2.008-10.23 4.346-22.744.032-.17.049-.344.049-.518 0-1.647-1.054-2.393-2.164-2.393z" class="st0" fill="#172b4d"/><circle id="circle39" r="9.745" cy="163.039" cx="89.2" class="st0" fill="#172b4d"/></g></svg>