<?xml version="1.0" encoding="UTF-8" standalone="no"?>
<!-- Generator: Adobe Illustrator 19.1.0, SVG Export Plug-In . SVG Version: 6.00 Build 0)  -->

<svg
   xmlns:dc="http://purl.org/dc/elements/1.1/"
   xmlns:cc="http://creativecommons.org/ns#"
   xmlns:rdf="http://www.w3.org/1999/02/22-rdf-syntax-ns#"
   xmlns:svg="http://www.w3.org/2000/svg"
   xmlns="http://www.w3.org/2000/svg"
   xmlns:sodipodi="http://sodipodi.sourceforge.net/DTD/sodipodi-0.dtd"
   xmlns:inkscape="http://www.inkscape.org/namespaces/inkscape"
   version="1.1"
   id="bitbucket"
   x="0px"
   y="0px"
   width="256"
   height="256"
   viewBox="0 0 256.00001 256"
   xml:space="preserve"
   inkscape:version="0.48.5 r10040"
   sodipodi:docname="bitbucket_rgb_slate.svg"><metadata
     id="metadata45"><rdf:RDF><cc:Work
         rdf:about=""><dc:format>image/svg+xml</dc:format><dc:type
           rdf:resource="http://purl.org/dc/dcmitype/StillImage" /></cc:Work></rdf:RDF></metadata><defs
     id="defs43" /><sodipodi:namedview
     pagecolor="#ffffff"
     bordercolor="#666666"
     borderopacity="1"
     objecttolerance="10"
     gridtolerance="10"
     guidetolerance="10"
     inkscape:pageopacity="0"
     inkscape:pageshadow="2"
     inkscape:window-width="1280"
     inkscape:window-height="683"
     id="namedview41"
     showgrid="false"
     inkscape:zoom="0.37982043"
     inkscape:cx="101.36369"
     inkscape:cy="133.86"
     inkscape:window-x="0"
     inkscape:window-y="0"
     inkscape:window-maximized="1"
     inkscape:current-layer="bitbucket" /><style
     type="text/css"
     id="style3">
	.st0{fill:#172B4D;}
</style><g
     id="g3022"
     transform="matrix(1.8126974,0,0,1.8126974,-33.725232,-172.13918)"><path
       id="path35"
       d="m 89.219,94.963 v 0.002 -0.002 c -33.675,0 -61.172,9.053 -61.172,20.294 0,2.961 7.343,45.415 10.256,62.251 1.306,7.551 20.818,18.621 50.9,18.621 l 0.031,-0.09 v 0.09 c 30.081,0 49.593,-11.07 50.899,-18.621 2.913,-16.836 10.256,-59.29 10.256,-62.251 10e-4,-11.24 -27.495,-20.294 -61.17,-20.294 z m 0,87.527 c -10.739,0 -19.445,-8.707 -19.445,-19.445 0,-10.74 8.706,-19.445 19.445,-19.445 10.739,0 19.445,8.705 19.445,19.445 0,10.738 -8.706,19.445 -19.445,19.445 z m -0.011,-60.96 c -21.636,-0.035 -39.169,-3.794 -39.162,-8.398 0.007,-4.604 17.554,-8.307 39.19,-8.272 21.636,0.034 39.169,3.793 39.162,8.398 -0.008,4.605 -17.554,8.306 -39.19,8.272 z"
       class="st0"
       inkscape:connector-curvature="0"
       style="fill:#172b4d" /><path
       id="path37"
       d="m 133.185,194.382 c -0.93,0 -1.675,0.658 -1.675,0.658 0,0 -15.064,11.929 -42.29,11.93 -27.227,-0.001 -42.29,-11.93 -42.29,-11.93 0,0 -0.746,-0.658 -1.675,-0.658 -1.111,0 -2.164,0.746 -2.164,2.393 0,0.174 0.017,0.348 0.049,0.518 2.338,12.514 4.046,21.393 4.346,22.744 2.041,9.205 20.048,16.151 41.733,16.152 l 0,0 h 0.001 0.001 l 0,0 c 21.686,-0.001 39.692,-6.947 41.733,-16.152 0.3,-1.352 2.008,-10.23 4.346,-22.744 0.032,-0.17 0.049,-0.344 0.049,-0.518 0,-1.647 -1.054,-2.393 -2.164,-2.393 z"
       class="st0"
       inkscape:connector-curvature="0"
       style="fill:#172b4d" /><circle
       id="circle39"
       r="9.7449999"
       cy="163.039"
       cx="89.199997"
       class="st0"
       sodipodi:cx="89.199997"
       sodipodi:cy="163.039"
       sodipodi:rx="9.7449999"
       sodipodi:ry="9.7449999"
       style="fill:#172b4d"
       d="m 98.944997,163.039 c 0,5.38202 -4.362985,9.745 -9.745,9.745 -5.382015,0 -9.745,-4.36298 -9.745,-9.745 0,-5.38201 4.362985,-9.745 9.745,-9.745 5.382015,0 9.745,4.36299 9.745,9.745 z" /></g></svg>