<?xml version="1.0" encoding="UTF-8" standalone="no"?>
<svg
   xmlns:dc="http://purl.org/dc/elements/1.1/"
   xmlns:cc="http://creativecommons.org/ns#"
   xmlns:rdf="http://www.w3.org/1999/02/22-rdf-syntax-ns#"
   xmlns:svg="http://www.w3.org/2000/svg"
   xmlns="http://www.w3.org/2000/svg"
   xmlns:sodipodi="http://sodipodi.sourceforge.net/DTD/sodipodi-0.dtd"
   xmlns:inkscape="http://www.inkscape.org/namespaces/inkscape"
   enable-background="new 0 0 150 50"
   id="bonusly_logo"
   version="1.1"
   viewBox="0 0 256 256"
   x="0px"
   xml:space="preserve"
   y="0px"
   inkscape:version="0.48.5 r10040"
   width="100%"
   height="100%"
   sodipodi:docname="bonusly_logo.svg"><metadata
     id="metadata11"><rdf:RDF><cc:Work
         rdf:about=""><dc:format>image/svg+xml</dc:format><dc:type
           rdf:resource="http://purl.org/dc/dcmitype/StillImage" /></cc:Work></rdf:RDF></metadata><defs
     id="defs9" /><sodipodi:namedview
     pagecolor="#ffffff"
     bordercolor="#666666"
     borderopacity="1"
     objecttolerance="10"
     gridtolerance="10"
     guidetolerance="10"
     inkscape:pageopacity="0"
     inkscape:pageshadow="2"
     inkscape:window-width="1280"
     inkscape:window-height="683"
     id="namedview7"
     showgrid="false"
     inkscape:zoom="1.0933333"
     inkscape:cx="17.606707"
     inkscape:cy="61.585366"
     inkscape:window-x="0"
     inkscape:window-y="0"
     inkscape:window-maximized="1"
     inkscape:current-layer="bonusly_logo" /><path
     class="logo-mark"
     d="M 109.81966,11.795309 C 488.87209,28.706879 12.432339,446.24771 0.18602943,120.84578 -0.98028577,89.355268 2.5186597,50.28371 34.592327,40.953189 c 0,62.397861 -12.829467,156.869391 76.393643,156.869391 65.89681,0 96.80416,-80.47575 51.31787,-128.29467 l 0,0 0,0 C 147.7249,56.115286 130.23017,47.367922 109.81966,47.367922 c -5.83158,0 -11.663161,0.583158 -16.911575,2.33263 v 36.155771 c 4.665264,-2.332631 10.496835,-4.082103 16.328415,-4.082103 51.90102,0 50.15155,76.39365 1.74947,76.39365 -36.738927,0 -39.654715,-28.57473 -39.654715,-56.56629 V 59.031074 49.117395 43.868977 C 71.914412,14.12794 72.49757,10.045837 109.81966,11.795309 z"
     style="fill:#1ec659"
     id="path5"
     inkscape:connector-curvature="0" /></svg>