<svg xmlns="http://www.w3.org/2000/svg" viewBox="0 0 256 256"><path class="logo-mark" d="M109.82 11.795C488.872 28.707 12.432 446.248.186 120.845-.98 89.356 2.519 50.285 34.592 40.954c0 62.398-12.83 156.87 76.394 156.87 65.897 0 96.804-80.476 51.318-128.295-14.58-13.413-32.074-22.16-52.484-22.16-5.832 0-11.664.583-16.912 2.333v36.155c4.665-2.332 10.497-4.082 16.328-4.082 51.902 0 50.152 76.394 1.75 76.394-36.739 0-39.655-28.575-39.655-56.566V43.869c.583-29.741 1.167-33.823 38.489-32.074z" fill="#1ec659"/></svg>