<?xml version="1.0" encoding="UTF-8" standalone="no"?>
<!-- Created with Inkscape (http://www.inkscape.org/) -->

<svg
   xmlns:dc="http://purl.org/dc/elements/1.1/"
   xmlns:cc="http://creativecommons.org/ns#"
   xmlns:rdf="http://www.w3.org/1999/02/22-rdf-syntax-ns#"
   xmlns:svg="http://www.w3.org/2000/svg"
   xmlns="http://www.w3.org/2000/svg"
   xmlns:sodipodi="http://sodipodi.sourceforge.net/DTD/sodipodi-0.dtd"
   xmlns:inkscape="http://www.inkscape.org/namespaces/inkscape"
   id="svg2"
   version="1.1"
   inkscape:version="0.48.5 r10040"
   width="256"
   height="256"
   sodipodi:docname="chartbeat.png">
  <metadata
     id="metadata8">
    <rdf:RDF>
      <cc:Work
         rdf:about="">
        <dc:format>image/svg+xml</dc:format>
        <dc:type
           rdf:resource="http://purl.org/dc/dcmitype/StillImage" />
        <dc:title></dc:title>
      </cc:Work>
    </rdf:RDF>
  </metadata>
  <defs
     id="defs6" />
  <sodipodi:namedview
     pagecolor="#ffffff"
     bordercolor="#666666"
     borderopacity="1"
     objecttolerance="10"
     gridtolerance="10"
     guidetolerance="10"
     inkscape:pageopacity="0"
     inkscape:pageshadow="2"
     inkscape:window-width="1280"
     inkscape:window-height="683"
     id="namedview4"
     showgrid="false"
     inkscape:zoom="1.1841155"
     inkscape:cx="179.45884"
     inkscape:cy="96"
     inkscape:window-x="0"
     inkscape:window-y="0"
     inkscape:window-maximized="1"
     inkscape:current-layer="svg2" />
  <g
     id="g3015"
     transform="matrix(0.92418773,0,0,0.92418773,-6.05e-7,39.257669)">
    <path
       style="fill:#b1e2f8"
       d="M 93.951949,189.7466 C 86.911777,185.00223 84.404243,174.96753 88.557692,168.15976 90.344584,165.23092 264.64919,5.637398 269.75,2.2598419 c 2.0085,-1.32995053 2.51833,-1.31404366 4.75,0.1482011 5.77063,3.7810646 8.0908,0.9411496 -79.33334,97.105282 -45.0078,49.507325 -83.05375,90.569825 -84.54656,91.249995 -4.53907,2.06814 -12.842069,1.56168 -16.668151,-1.01672 z M 57.225821,99.25 57.5,82.5 109.83632,82.241036 c 29.67595,-0.146839 52.1907,0.120455 52,0.617342 -0.18498,0.481968 -8.97282,8.136002 -19.52853,17.008964 L 123.11558,116 90.033609,116 56.951642,116 57.225821,99.25 z M 0,57.5 0,41 105.25,41.03327 c 99.58966,0.03148 105.1402,0.125595 103.20831,1.75 -1.12293,0.944201 -9.95173,8.35423 -19.61955,16.46673 L 171.2609,74 85.630449,74 0,74 0,57.5 z M 33,17 33,0 145.58546,0 258.17092,0 237.91233,17 217.65375,34 125.32687,34 33,34 33,17 z"
       id="path3021"
       inkscape:connector-curvature="0" />
    <path
       style="fill:#53abd0"
       d="M 94.984398,190.1459 C 87.534801,186.18186 84.625304,174.83618 89.279096,167.89788 92.509661,163.08146 267.99085,3.1366287 270.90478,2.3525591 c 3.15589,-0.8491747 5.52017,0.7240594 5.90498,3.9292734 0.22139,1.8440171 -0.77714,3.7977415 -3.5,6.8480895 C 239.44785,51.064581 115.86678,186.35053 112.88425,188.75 c -3.39325,2.7299 -4.86995,3.25 -9.22759,3.25 -3.13226,0 -6.5685,-0.73466 -8.672262,-1.8541 z M 58,99.5 58,83 l 51.71429,0 c 44.46795,0 51.5091,0.197084 50.25,1.406513 -0.80536,0.773583 -9.54763,8.198583 -19.42728,16.499997 L 122.57403,116 90.287015,116 58,116 58,99.5 z M 33,16.5 33,0 145.25,0.03326928 C 251.44424,0.06474373 257.39127,0.15915424 255.48463,1.7832693 254.37617,2.7274712 245.53988,10.1375 235.84842,18.25 L 218.2276,33 125.6138,33 33,33 33,16.5 z"
       id="path3019"
       inkscape:connector-curvature="0" />
    <path
       style="fill:#647c8b"
       d="m 94.92168,189.7262 c -7.242237,-4.88054 -9.714393,-12.49987 -6.52915,-20.12323 0.965395,-2.31052 22.20662,-22.30509 69.25,-65.18572 C 194.96414,70.398132 235.49846,33.437342 247.7188,22.282156 260.77524,10.363748 270.74575,2 271.89737,2 274.40709,2 277,4.5848312 277,7.0867273 277,9.5166821 115.13471,187.77371 110.67963,190.25 c -4.5138,2.50892 -11.607603,2.27312 -15.75795,-0.5238 z"
       id="path3017"
       inkscape:connector-curvature="0" />
  </g>
</svg>
