<svg xmlns="http://www.w3.org/2000/svg" width="256" height="256"><path d="M86.83 214.62c-6.507-4.386-8.825-13.66-4.986-19.951C83.495 191.962 244.586 44.468 249.3 41.346c1.856-1.229 2.327-1.214 4.39.137 5.333 3.495 7.477.87-73.32 89.744-41.595 45.754-76.757 83.703-78.136 84.332-4.195 1.911-11.869 1.443-15.405-.94zm-33.943-83.637l.254-15.48 48.368-.24c27.427-.135 48.234.112 48.058.571-.17.446-8.292 7.52-18.048 15.72l-17.737 14.91H52.634l.253-15.48zM0 92.398V77.15l97.27.031c92.04.03 97.17.116 95.385 1.617-1.038.873-9.198 7.721-18.133 15.219l-16.245 13.632H0v-15.25zm30.498-37.43v-15.71h208.1l-18.722 15.71-18.723 15.712H30.498V54.97z" fill="#b1e2f8"/><path d="M87.783 214.988c-6.884-3.663-9.573-14.149-5.272-20.561 2.985-4.451 165.163-152.27 167.856-152.995 2.917-.785 5.102.669 5.457 3.631.205 1.704-.718 3.51-3.234 6.33C221.295 86.45 107.083 211.48 104.326 213.697c-3.136 2.523-4.5 3.004-8.528 3.004-2.895 0-6.07-.68-8.015-1.714zm-34.18-83.774v-15.249h47.794c41.096 0 47.604.182 46.44 1.3-.744.715-8.824 7.577-17.954 15.25l-16.602 13.948H53.602v-15.249zM30.498 54.507v-15.25l103.74.031c98.144.03 103.64.117 101.878 1.618-1.025.872-9.191 7.72-18.148 15.218l-16.285 13.632H30.498v-15.25z" fill="#53abd0"/><path d="M87.725 214.6c-6.693-4.51-8.977-11.552-6.034-18.597.892-2.136 20.523-20.614 64-60.244 34.492-31.44 71.954-65.599 83.248-75.908 12.066-11.015 21.28-18.745 22.345-18.745 2.32 0 4.716 2.389 4.716 4.701 0 2.246-149.594 166.989-153.711 169.277-4.172 2.32-10.728 2.101-14.564-.484z" fill="#647c8b"/></svg>