<?xml version="1.0" encoding="utf-8"?>
<!-- Generator: Adobe Illustrator 18.1.1, SVG Export Plug-In . SVG Version: 6.00 Build 0)  -->
<svg version="1.1" id="Layer_1" xmlns="http://www.w3.org/2000/svg" xmlns:xlink="http://www.w3.org/1999/xlink" x="0px" y="0px"
	 viewBox="0 0 200 200" enable-background="new 0 0 200 200" xml:space="preserve">
<path id="mark_63_" fill="#064C64" d="M74.7,100c0-13.2,10.7-23.8,23.8-23.8c13.1,0,23.8,10.7,23.8,23.8c0,13.1-10.7,23.8-23.8,23.8
	C85.4,123.8,74.7,113.1,74.7,100z M98.5,0C51.8,0,12.7,32,1.6,75.2c-0.1,0.3-0.1,0.6-0.1,1c0,2.6,2.1,4.8,4.8,4.8h40.3
	c1.9,0,3.6-1.1,4.3-2.8l0,0c8.3-18,26.5-30.6,47.6-30.6c28.9,0,52.4,23.5,52.4,52.4c0,28.9-23.5,52.4-52.4,52.4
	c-21.1,0-39.3-12.5-47.6-30.6l0,0c-0.8-1.6-2.4-2.8-4.3-2.8H6.3c-2.6,0-4.8,2.1-4.8,4.8c0,0.3,0.1,0.6,0.1,1
	C12.6,168,51.8,200,98.5,200c55.2,0,100-44.8,100-100C198.5,44.8,153.7,0,98.5,0z"/>
</svg>
