<svg xmlns="http://www.w3.org/2000/svg" id="Layer_1" viewBox="0 0 288 224.3"><style id="style3">.st0{fill:#6515dd}</style><g id="g5" transform="translate(-144 -175.8)"><g id="g7"><g id="g9"><path class="st0" d="M164.9 358.3c-11.5 0-20.9 9.4-20.9 20.9 0 11.5 9.4 20.9 20.9 20.9 11.5 0 20.9-9.4 20.9-20.9 0-11.5-9.3-20.9-20.9-20.9z" id="path11" fill="#6515dd"/></g><path class="st0" d="M422.2 175.8l-131.6 42v-41.5l-141.9 45.3v120.3l122.4-39.1v41.3L432 292.8l-43.6-42.6 33.8-74.4zM271.1 282.2L168.3 315v-79.1l102.8-32.8v79.1zm124.5 1.7l-105 33.5v-79l96.7-30.9-22.2 46.8 30.5 29.6z" id="path13" fill="#6515dd"/></g></g></svg>