<svg width="220" height="214" viewBox="0 0 220 214" fill="none" xmlns="http://www.w3.org/2000/svg">
<rect x="1" y="1" width="218.019" height="212.231" rx="16.0174" fill="#182436"/>
<rect x="0.666304" y="0.666304" width="218.686" height="212.898" rx="16.3511" stroke="white" stroke-opacity="0.1" stroke-width="0.667392"/>
<path d="M93.9837 57.9999L61 90.9836L93.9837 123.967L126.967 90.9836L93.9837 57.9999Z" fill="url(#paint0_linear_1366_39846)"/>
<path d="M126.969 90.9828L93.9854 123.967L126.969 156.95L159.953 123.967L126.969 90.9828Z" fill="url(#paint1_linear_1366_39846)"/>
<path d="M93.9844 58L126.967 90.9831L159.952 58H93.9844Z" fill="url(#paint2_linear_1366_39846)"/>
<path d="M93.9844 123.968L61 156.951H126.968L93.9844 123.968Z" fill="url(#paint3_linear_1366_39846)"/>
<path d="M93.9844 123.968L61 156.951H126.968L93.9844 123.968Z" fill="url(#paint4_linear_1366_39846)"/>
<defs>
<linearGradient id="paint0_linear_1366_39846" x1="110.238" y1="107.076" x2="79.1106" y2="76.2594" gradientUnits="userSpaceOnUse">
<stop stop-color="#3B95C9"/>
<stop offset="1" stop-color="#59B1E3"/>
</linearGradient>
<linearGradient id="paint1_linear_1366_39846" x1="112.817" y1="109.087" x2="143.011" y2="140.836" gradientUnits="userSpaceOnUse">
<stop stop-color="#59B1E3"/>
<stop offset="1" stop-color="#9BD0F0"/>
</linearGradient>
<linearGradient id="paint2_linear_1366_39846" x1="154.385" y1="51.0113" x2="92.6569" y2="84.0202" gradientUnits="userSpaceOnUse">
<stop stop-color="#59B1E3"/>
<stop offset="1" stop-color="#9BD0F0"/>
</linearGradient>
<linearGradient id="paint3_linear_1366_39846" x1="128.91" y1="129.269" x2="67.1922" y2="166.73" gradientUnits="userSpaceOnUse">
<stop stop-color="#59B1E3"/>
<stop offset="1" stop-color="#9BD0F0"/>
</linearGradient>
<linearGradient id="paint4_linear_1366_39846" x1="110.26" y1="140.394" x2="92.2063" y2="158.76" gradientUnits="userSpaceOnUse">
<stop stop-color="#3B95C9"/>
<stop offset="1" stop-color="#9BD0F0" stop-opacity="0"/>
</linearGradient>
</defs>
</svg>
