<svg xmlns="http://www.w3.org/2000/svg" width="256" height="256" viewBox="0 0 26.214 26.214" preserveAspectRatio="xMinYMin meet"><path d="M25.126 13.192c0 6.64-5.383 12.022-12.022 12.022-6.64 0-12.022-5.383-12.022-12.022 0-6.64 5.383-12.022 12.022-12.022 6.64 0 12.022 5.382 12.022 12.022" fill="#fff"/><path d="M13.107 26.214a13.021 13.021 0 0 1-9.268-3.839A13.021 13.021 0 0 1 0 13.107c0-3.5 1.363-6.792 3.84-9.268A13.02 13.02 0 0 1 13.106 0a13.02 13.02 0 0 1 9.268 3.839 13.021 13.021 0 0 1 3.84 9.268 13.02 13.02 0 0 1-3.84 9.268 13.021 13.021 0 0 1-9.268 3.84zm0-24.784A11.6 11.6 0 0 0 4.85 4.85a11.6 11.6 0 0 0-3.42 8.257 11.6 11.6 0 0 0 3.42 8.257 11.6 11.6 0 0 0 8.257 3.42 11.6 11.6 0 0 0 8.257-3.42 11.6 11.6 0 0 0 3.42-8.257 11.6 11.6 0 0 0-3.42-8.257 11.6 11.6 0 0 0-8.257-3.42z" fill="#3c4655"/><path d="M8.866 9.745c0-.724.004-1.408-.003-2.093-.001-.157.097-.213.207-.268.487-.243 1.014-.364 1.537-.498 2.137-.546 4.231-.339 6.295.363.54.184.536.197.536.761v1.723c-.084.012-.122-.04-.167-.07-1.215-.833-2.535-1.447-3.93-1.908a.79.79 0 0 0-.542.005c-1.346.47-2.62 1.084-3.795 1.894-.034.024-.07.046-.138.09" fill="#3c4655"/><path d="M11.076 4.728c0-.281.015-.564-.005-.844-.016-.229.095-.347.278-.435.401-.193.83-.29 1.268-.342.723-.087 1.424.024 2.1.285.396.153.425.204.425.618 0 .542-.004 1.083.002 1.624.001.145-.014.2-.189.166a9.233 9.233 0 0 0-3.717.007c-.155.033-.166-.024-.164-.148.006-.31.002-.62.002-.93" fill="#6e717e"/><path d="M22.813 16.147c-.381-.246-.749-.514-1.134-.754-.778-.485-1.568-.947-2.452-1.218-.267-.082-.54-.163-.826-.074-.282.087-.512.26-.733.445-.47.396-.882.853-1.323 1.279-.052.05-.085.136-.178.13-.026-.04-.006-.073.004-.107.439-1.457 1.136-2.77 2.167-3.897.107-.117.112-.175-.014-.283-1.484-1.27-3.125-2.265-4.993-2.866a.616.616 0 0 0-.416-.003c-1.854.655-3.543 1.595-5.033 2.887-.114.099-.098.148-.004.249a8.527 8.527 0 0 1 1.637 2.555c.173.41.357.817.434 1.26.16.665.31 2.213.392 2.29-1.072-.261-1.288-.38-1.964-.708-.886-.431-1.791-.704-2.795-.643a6.19 6.19 0 0 0-1.682.34c-.1.034-.314.151-.273.236.013.04.023.042.04.08a9.983 9.983 0 0 0 2.317 3.26c2.023 1.887 4.42 2.867 7.19 2.874 1.819.005 3.522-.475 5.09-1.397 2.231-1.312 3.79-3.185 4.647-5.634.05-.144.028-.22-.098-.3zm-9.3-2.24c-.03 1.554-.235 2.293-.353 3.411-.009.086-.047.31-.047.31l-.075-.313c-.124-1.016-.222-1.779-.339-2.795a19.716 19.716 0 0 1-.12-2.46c.004-.486.195-.97.302-1.456.07-.319.124-.608.226-.953.12.595.25 1.195.398 1.783.208.828.023 1.65.007 2.472z" fill="#3c4655"/><path d="M9.949 15.79c.445.52 1.003.9 1.585 1.243.41.24.841.44 1.307.553.075.018.458.097.555.105.13.012.213.02.397.027-.443.194-.868.348-1.31.426-1.295.164-2.43.042-3.59-.499-.712-.332-1.402-.694-2.191-.815a5.749 5.749 0 0 0-2.947.325c-.047.018-.08.093-.128.11-.186-.36-.295-.75-.422-1.132-.03-.094-.03-.094.074-.204 1.038-.906 2.2-1.506 3.624-1.437 1.044.05 1.956.452 2.775 1.085l.27.213" fill="#777885"/></svg>