<?xml version="1.0" encoding="UTF-8" standalone="no"?>
<svg
   xmlns:dc="http://purl.org/dc/elements/1.1/"
   xmlns:cc="http://creativecommons.org/ns#"
   xmlns:rdf="http://www.w3.org/1999/02/22-rdf-syntax-ns#"
   xmlns:svg="http://www.w3.org/2000/svg"
   xmlns="http://www.w3.org/2000/svg"
   xmlns:sodipodi="http://sodipodi.sourceforge.net/DTD/sodipodi-0.dtd"
   xmlns:inkscape="http://www.inkscape.org/namespaces/inkscape"
   width="256"
   height="256"
   viewBox="0 0 26.2144 26.2144"
   preserveAspectRatio="xMinYMin meet"
   id="svg2"
   version="1.1"
   inkscape:version="0.48.5 r10040"
   sodipodi:docname="codeship.svg">
  <metadata
     id="metadata20">
    <rdf:RDF>
      <cc:Work
         rdf:about="">
        <dc:format>image/svg+xml</dc:format>
        <dc:type
           rdf:resource="http://purl.org/dc/dcmitype/StillImage" />
      </cc:Work>
    </rdf:RDF>
  </metadata>
  <defs
     id="defs18" />
  <sodipodi:namedview
     pagecolor="#ffffff"
     bordercolor="#666666"
     borderopacity="1"
     objecttolerance="10"
     gridtolerance="10"
     guidetolerance="10"
     inkscape:pageopacity="0"
     inkscape:pageshadow="2"
     inkscape:window-width="1280"
     inkscape:window-height="683"
     id="namedview16"
     showgrid="false"
     inkscape:zoom="0.0944"
     inkscape:cx="-79.449153"
     inkscape:cy="1250"
     inkscape:window-x="0"
     inkscape:window-y="0"
     inkscape:window-maximized="1"
     inkscape:current-layer="svg2" />
  <g
     id="g2997"
     transform="matrix(0.10256868,0,0,0.10256868,-0.02159104,-0.02153976)">
    <path
       id="path4"
       d="m 245.177,128.825 c 0,64.731 -52.476,117.207 -117.207,117.207 -64.731,0 -117.206,-52.476 -117.206,-117.207 0,-64.731 52.475,-117.207 117.206,-117.207 64.731,0 117.207,52.476 117.207,117.207"
       inkscape:connector-curvature="0"
       style="fill:#ffffff" />
    <path
       id="path6"
       d="M 128,255.789 C 93.866,255.789 61.776,242.496 37.64,218.36 13.504,194.224 0.211,162.134 0.211,128 0.211,93.866 13.504,61.776 37.64,37.64 61.776,13.503 93.866,0.21 128,0.21 c 34.134,0 66.224,13.292 90.36,37.429 24.136,24.136 37.429,56.226 37.429,90.36 0,34.134 -13.293,66.224 -37.429,90.36 -24.136,24.136 -56.226,37.429 -90.36,37.429 z M 128,14.152 C 97.59,14.152 69,25.994 47.497,47.497 25.994,69 14.152,97.59 14.152,128 c 0,30.41 11.842,59 33.345,80.503 C 69,230.006 97.59,241.848 128,241.848 c 30.41,0 59,-11.842 80.503,-33.345 C 230.006,187 241.848,158.41 241.848,128 241.848,97.59 230.006,69 208.503,47.497 187,25.994 158.41,14.152 128,14.152 z"
       inkscape:connector-curvature="0"
       style="fill:#3c4655" />
    <path
       id="path8"
       d="m 86.65,95.216 c 0,-7.052 0.036,-13.727 -0.027,-20.401 -0.015,-1.531 0.94,-2.074 2.018,-2.612 4.75,-2.372 9.885,-3.55 14.985,-4.854 20.835,-5.329 41.251,-3.309 61.37,3.535 5.271,1.793 5.227,1.924 5.227,7.42 v 16.798 c -0.822,0.113 -1.19,-0.385 -1.628,-0.686 -11.845,-8.117 -24.713,-14.108 -38.322,-18.6 -1.841,-0.609 -3.457,-0.583 -5.279,0.053 -13.124,4.58 -25.535,10.565 -36.998,18.464 -0.336,0.232 -0.683,0.449 -1.346,0.883"
       inkscape:connector-curvature="0"
       style="fill:#3c4655" />
    <path
       id="path10"
       d="m 108.195,46.309 c 0,-2.744 0.148,-5.5 -0.047,-8.23 -0.16,-2.231 0.923,-3.389 2.708,-4.246 3.914,-1.88 8.097,-2.819 12.363,-3.333 7.051,-0.85 13.884,0.235 20.481,2.78 3.86,1.49 4.134,1.986 4.134,6.029 0,5.278 -0.034,10.556 0.022,15.833 0.015,1.409 -0.135,1.953 -1.84,1.614 -12.075,-2.4 -24.175,-2.44 -36.242,0.074 -1.51,0.315 -1.62,-0.235 -1.598,-1.443 0.056,-3.025 0.019,-6.052 0.019,-9.078"
       inkscape:connector-curvature="0"
       style="fill:#6e717e" />
    <path
       id="path12"
       d="m 222.63,157.638 c -3.72,-2.4 -7.304,-5.016 -11.06,-7.356 -7.579,-4.722 -15.286,-9.232 -23.9,-11.87 -2.61,-0.801 -5.269,-1.594 -8.06,-0.728 -2.747,0.854 -4.991,2.534 -7.141,4.345 -4.583,3.862 -8.6,8.314 -12.902,12.468 -0.506,0.489 -0.826,1.326 -1.736,1.266 -0.255,-0.396 -0.06,-0.711 0.04,-1.043 4.28,-14.2 11.071,-27.01 21.126,-37.99 1.044,-1.139 1.092,-1.708 -0.138,-2.762 -14.465,-12.39 -30.462,-22.081 -48.673,-27.946 -1.399,-0.45 -2.665,-0.523 -4.062,-0.03 -18.072,6.394 -34.544,15.557 -49.065,28.149 -1.114,0.965 -0.96,1.446 -0.037,2.428 6.865,7.302 12.066,15.699 15.953,24.908 1.686,3.994 3.48,7.968 4.232,12.29 1.553,6.48 3.03,21.574 3.827,22.32 -10.457,-2.544 -12.561,-3.693 -19.15,-6.899 -8.643,-4.204 -17.464,-6.858 -27.248,-6.266 -5.89,0.357 -10.862,1.436 -16.405,3.309 -0.98,0.332 -3.058,1.48 -2.66,2.303 0.13,0.393 0.229,0.415 0.397,0.791 5.41,12.094 12.9,22.734 22.581,31.766 19.725,18.402 43.097,27.958 70.102,28.031 17.733,0.049 34.339,-4.635 49.628,-13.626 21.75,-12.79 36.941,-31.053 45.308,-54.93 0.49,-1.4 0.269,-2.137 -0.956,-2.928 z m -90.681,-21.846 c -0.288,15.16 -2.285,22.362 -3.433,33.263 -0.088,0.838 -0.461,3.023 -0.461,3.023 0,0 -0.663,-2.789 -0.733,-3.052 -1.21,-9.906 -2.157,-17.342 -3.297,-27.256 -0.916,-7.964 -1.268,-16 -1.183,-23.98 0.05,-4.743 1.906,-9.465 2.949,-14.197 0.684,-3.105 1.212,-5.93 2.209,-9.294 1.175,5.801 2.44,11.657 3.881,17.392 2.029,8.064 0.22,16.08 0.068,24.1 z"
       inkscape:connector-curvature="0"
       style="fill:#3c4655" />
    <path
       id="path14"
       d="m 97.207,154.155 c 4.344,5.069 9.778,8.78 15.458,12.12 3.989,2.345 8.198,4.298 12.741,5.393 0.73,0.176 4.467,0.94 5.413,1.026 1.259,0.115 2.073,0.19 3.87,0.261 -4.32,1.885 -8.467,3.39 -12.78,4.154 -12.624,1.599 -23.692,0.404 -34.997,-4.865 -6.945,-3.236 -13.67,-6.765 -21.363,-7.949 -9.745,-1.5 -19.557,-0.352 -28.726,3.168 -0.459,0.176 -0.79,0.905 -1.252,1.071 -1.808,-3.516 -2.878,-7.305 -4.11,-11.036 -0.304,-0.918 -0.304,-0.918 0.716,-1.987 10.127,-8.836 21.457,-14.687 35.33,-14.012 10.181,0.496 19.073,4.41 27.057,10.584 0.885,0.685 1.762,1.381 2.643,2.072"
       inkscape:connector-curvature="0"
       style="fill:#777885" />
  </g>
</svg>
