<svg version="1.1" id="Layer_1" xmlns="http://www.w3.org/2000/svg" xmlns:xlink="http://www.w3.org/1999/xlink" x="0px" y="0px"
	 width="100%" viewBox="0 0 1398 779" enable-background="new 0 0 1398 779" xml:space="preserve">
<path fill="#FFFFFF" opacity="1.000000" stroke="none" 
	d="
M810.000000,780.000000 
	C540.030884,780.000000 270.561768,780.000000 1.046335,780.000000 
	C1.046335,520.393982 1.046335,260.787964 1.046335,1.090980 
	C466.885925,1.090980 932.771912,1.090980 1398.828857,1.090980 
	C1398.828857,260.666565 1398.828857,520.333252 1398.828857,780.000000 
	C1202.787720,780.000000 1006.643860,780.000000 810.000000,780.000000 
M1100.614014,558.068298 
	C1112.744873,549.879822 1125.692505,542.660095 1136.818604,533.279724 
	C1154.247925,518.585388 1168.219727,500.693634 1179.159668,480.523682 
	C1194.093140,452.990814 1201.221313,423.415924 1201.812744,392.322815 
	C1202.007935,382.059967 1200.274414,371.722198 1198.969238,361.476440 
	C1195.492920,334.185028 1185.131836,309.414001 1170.018921,286.678955 
	C1159.144409,270.319916 1145.940186,256.008270 1130.411377,243.721268 
	C1112.296143,229.387817 1092.393677,218.440659 1070.559937,211.439209 
	C1049.162476,204.577698 1027.084106,200.856049 1004.434387,203.036942 
	C992.543396,204.181915 980.432922,204.601990 968.867371,207.276855 
	C935.671875,214.954208 906.322937,230.634216 881.694214,254.165054 
	C871.664368,263.747681 862.653442,274.704010 854.712097,286.103455 
	C836.311523,312.516663 825.661987,342.218353 823.291138,374.263275 
	C822.006287,391.629272 822.296692,409.188049 825.819092,426.614777 
	C830.652161,450.525177 839.275757,472.672760 852.531189,493.109741 
	C862.626892,508.675079 874.289429,522.915466 888.972473,534.282898 
	C899.775085,542.646179 910.757202,551.073486 922.665100,557.651367 
	C947.060486,571.127136 973.676086,578.020508 1001.456299,579.920349 
	C1017.152039,580.993774 1032.857178,579.697083 1048.260742,576.743469 
	C1066.347412,573.275330 1083.706055,567.296204 1100.614014,558.068298 
M387.063629,276.937469 
	C388.491241,276.629547 389.954163,275.948853 391.340179,276.080139 
	C396.544739,276.573212 401.725586,277.320251 406.912811,277.991791 
	C427.298584,280.630981 444.828552,289.628510 460.186340,302.832520 
	C471.639160,312.679199 480.623657,324.658020 486.732452,338.550690 
	C488.235291,341.968536 490.051453,343.130310 493.732819,343.083893 
	C509.396240,342.886414 525.063599,343.000000 540.729492,343.000000 
	C551.710205,343.000000 562.690857,343.000000 574.171509,343.000000 
	C561.141357,295.397308 534.399719,258.340210 493.177887,232.104752 
	C451.823914,205.785187 406.467438,197.136948 358.375061,205.138153 
	C273.012909,219.339935 205.984756,291.149902 201.170029,380.996735 
	C198.309052,434.384644 215.683823,481.363739 252.176270,520.379639 
	C286.204254,556.760681 329.002747,576.525940 378.612640,579.819092 
	C461.383728,585.313599 546.554688,533.671997 572.836365,442.000000 
	C571.260010,442.000000 569.812195,442.000000 568.364380,442.000000 
	C542.532288,442.000000 516.699585,442.087341 490.868866,441.898560 
	C487.307129,441.872528 485.782104,443.163422 484.294800,446.152161 
	C473.751312,467.339172 457.844818,483.548523 436.943451,494.410980 
	C414.021942,506.323303 389.558838,509.553955 364.591339,502.645020 
	C334.363617,494.280487 311.999878,475.376770 297.064850,447.921112 
	C289.773682,434.517426 285.596497,420.094086 283.817749,404.793274 
	C282.272675,391.502502 282.550629,378.360565 285.394257,365.486328 
	C291.335541,338.587738 304.651489,316.001343 326.623871,298.820709 
	C344.155151,285.112671 363.809845,277.461151 387.063629,276.937469 
M644.461426,458.035553 
	C636.258057,469.162476 628.054688,480.289398 619.421204,491.999664 
	C648.011963,491.999664 675.657898,492.046051 703.302673,491.883331 
	C704.946472,491.873657 707.124939,490.588074 708.134949,489.218109 
	C718.612976,475.006409 728.876343,460.636749 739.250000,446.347748 
	C751.822754,429.029602 764.305054,411.641937 777.181580,394.551880 
	C779.341125,391.685730 778.876648,390.012970 777.242065,387.764648 
	C755.035278,357.218811 732.846313,326.659882 710.557373,296.174042 
	C708.335510,293.135193 706.106262,290.690460 701.161926,290.790924 
	C678.009094,291.261566 654.841431,291.000000 631.679016,291.000000 
	C627.946533,291.000000 624.214050,291.000000 619.764282,291.000000 
	C645.166565,324.882507 670.065186,358.093170 694.896545,391.214203 
	C690.856995,396.546692 686.918091,401.713623 683.013611,406.906494 
	C670.330872,423.774017 657.660645,440.650970 644.461426,458.035553 
z"/>
<path fill="#E04130" opacity="1.000000" stroke="none" 
	d="
M1100.304321,558.286865 
	C1083.706055,567.296204 1066.347412,573.275330 1048.260742,576.743469 
	C1032.857178,579.697083 1017.152039,580.993774 1001.456299,579.920349 
	C973.676086,578.020508 947.060486,571.127136 922.665100,557.651367 
	C910.757202,551.073486 899.775085,542.646179 888.972473,534.282898 
	C874.289429,522.915466 862.626892,508.675079 852.531189,493.109741 
	C839.275757,472.672760 830.652161,450.525177 825.819092,426.614777 
	C822.296692,409.188049 822.006287,391.629272 823.291138,374.263275 
	C825.661987,342.218353 836.311523,312.516663 854.712097,286.103455 
	C862.653442,274.704010 871.664368,263.747681 881.694214,254.165054 
	C906.322937,230.634216 935.671875,214.954208 968.867371,207.276855 
	C980.432922,204.601990 992.543396,204.181915 1004.434387,203.036942 
	C1027.084106,200.856049 1049.162476,204.577698 1070.559937,211.439209 
	C1092.393677,218.440659 1112.296143,229.387817 1130.411377,243.721268 
	C1145.940186,256.008270 1159.144409,270.319916 1170.018921,286.678955 
	C1185.131836,309.414001 1195.492920,334.185028 1198.969238,361.476440 
	C1200.274414,371.722198 1202.007935,382.059967 1201.812744,392.322815 
	C1201.221313,423.415924 1194.093140,452.990814 1179.159668,480.523682 
	C1168.219727,500.693634 1154.247925,518.585388 1136.818604,533.279724 
	C1125.692505,542.660095 1112.744873,549.879822 1100.304321,558.286865 
M1119.000000,393.493530 
	C1118.338257,384.477692 1118.468506,375.318909 1116.872070,366.471771 
	C1111.245605,335.293060 1094.667603,310.756775 1068.485229,293.407227 
	C1045.735596,278.332275 1020.121948,273.132050 993.197998,278.194794 
	C968.132874,282.907959 947.411865,295.515656 931.020020,315.359985 
	C912.742249,337.487427 904.848022,363.195099 904.179565,391.330475 
	C903.995361,399.083649 905.770081,406.924927 907.031494,414.662933 
	C910.564941,436.337097 920.471252,455.056763 934.930969,471.252533 
	C945.614441,483.218658 958.646973,492.174408 973.629395,498.307861 
	C993.013062,506.243073 1013.008728,508.415100 1033.271851,503.707397 
	C1057.895874,497.986420 1078.701660,485.245514 1094.199951,465.106567 
	C1110.120850,444.418549 1119.473267,421.096252 1119.000000,393.493530 
z"/>
<path fill="#00A6DF" opacity="1.000000" stroke="none" 
	d="
M386.605591,276.964386 
	C363.809845,277.461151 344.155151,285.112671 326.623871,298.820709 
	C304.651489,316.001343 291.335541,338.587738 285.394257,365.486328 
	C282.550629,378.360565 282.272675,391.502502 283.817749,404.793274 
	C285.596497,420.094086 289.773682,434.517426 297.064850,447.921112 
	C311.999878,475.376770 334.363617,494.280487 364.591339,502.645020 
	C389.558838,509.553955 414.021942,506.323303 436.943451,494.410980 
	C457.844818,483.548523 473.751312,467.339172 484.294800,446.152161 
	C485.782104,443.163422 487.307129,441.872528 490.868866,441.898560 
	C516.699585,442.087341 542.532288,442.000000 568.364380,442.000000 
	C569.812195,442.000000 571.260010,442.000000 572.836365,442.000000 
	C546.554688,533.671997 461.383728,585.313599 378.612640,579.819092 
	C329.002747,576.525940 286.204254,556.760681 252.176270,520.379639 
	C215.683823,481.363739 198.309052,434.384644 201.170029,380.996735 
	C205.984756,291.149902 273.012909,219.339935 358.375061,205.138153 
	C406.467438,197.136948 451.823914,205.785187 493.177887,232.104752 
	C534.399719,258.340210 561.141357,295.397308 574.171509,343.000000 
	C562.690857,343.000000 551.710205,343.000000 540.729492,343.000000 
	C525.063599,343.000000 509.396240,342.886414 493.732819,343.083893 
	C490.051453,343.130310 488.235291,341.968536 486.732452,338.550690 
	C480.623657,324.658020 471.639160,312.679199 460.186340,302.832520 
	C444.828552,289.628510 427.298584,280.630981 406.912811,277.991791 
	C401.725586,277.320251 396.544739,276.573212 391.340179,276.080139 
	C389.954163,275.948853 388.491241,276.629547 386.605591,276.964386 
z"/>
<path fill="#00204D" opacity="1.000000" stroke="none" 
	d="
M644.723511,457.779907 
	C657.660645,440.650970 670.330872,423.774017 683.013611,406.906494 
	C686.918091,401.713623 690.856995,396.546692 694.896545,391.214203 
	C670.065186,358.093170 645.166565,324.882507 619.764282,291.000000 
	C624.214050,291.000000 627.946533,291.000000 631.679016,291.000000 
	C654.841431,291.000000 678.009094,291.261566 701.161926,290.790924 
	C706.106262,290.690460 708.335510,293.135193 710.557373,296.174042 
	C732.846313,326.659882 755.035278,357.218811 777.242065,387.764648 
	C778.876648,390.012970 779.341125,391.685730 777.181580,394.551880 
	C764.305054,411.641937 751.822754,429.029602 739.250000,446.347748 
	C728.876343,460.636749 718.612976,475.006409 708.134949,489.218109 
	C707.124939,490.588074 704.946472,491.873657 703.302673,491.883331 
	C675.657898,492.046051 648.011963,491.999664 619.421204,491.999664 
	C628.054688,480.289398 636.258057,469.162476 644.723511,457.779907 
z"/>
<path fill="#FFFFFF" opacity="1.000000" stroke="none" 
	d="
M1119.000000,393.991577 
	C1119.473267,421.096252 1110.120850,444.418549 1094.199951,465.106567 
	C1078.701660,485.245514 1057.895874,497.986420 1033.271851,503.707397 
	C1013.008728,508.415100 993.013062,506.243073 973.629395,498.307861 
	C958.646973,492.174408 945.614441,483.218658 934.930969,471.252533 
	C920.471252,455.056763 910.564941,436.337097 907.031494,414.662933 
	C905.770081,406.924927 903.995361,399.083649 904.179565,391.330475 
	C904.848022,363.195099 912.742249,337.487427 931.020020,315.359985 
	C947.411865,295.515656 968.132874,282.907959 993.197998,278.194794 
	C1020.121948,273.132050 1045.735596,278.332275 1068.485229,293.407227 
	C1094.667603,310.756775 1111.245605,335.293060 1116.872070,366.471771 
	C1118.468506,375.318909 1118.338257,384.477692 1119.000000,393.991577 
z"/>
</svg>