<svg xmlns="http://www.w3.org/2000/svg" xml:space="preserve" viewBox="0 0 1398 779"><path fill="#fff" d="M810 780H1.046V1.091H1398.83V780zm290.614-221.932c12.13-8.188 25.079-15.408 36.205-24.788 17.429-14.695 31.4-32.586 42.34-52.756 14.934-27.533 22.062-57.108 22.654-88.201.195-10.263-1.539-20.6-2.844-30.847-3.476-27.291-13.837-52.062-28.95-74.797-10.875-16.36-24.079-30.67-39.608-42.958-18.115-14.333-38.017-25.28-59.851-32.282-21.398-6.861-43.476-10.583-66.126-8.402-11.89 1.145-24.001 1.565-35.567 4.24-33.195 7.677-62.544 23.357-87.173 46.888-10.03 9.583-19.04 20.539-26.982 31.938-18.4 26.414-29.05 56.115-31.42 88.16-1.286 17.366-.995 34.925 2.527 52.352 4.833 23.91 13.457 46.058 26.712 66.495 10.096 15.565 21.758 29.805 36.441 41.173 10.803 8.363 21.785 16.79 33.693 23.368 24.395 13.476 51.011 20.37 78.791 22.27 15.696 1.073 31.401-.224 46.805-3.178 18.086-3.468 35.445-9.447 52.353-18.675m-713.55-281.13c1.427-.308 2.89-.99 4.276-.858 5.205.493 10.386 1.24 15.573 1.912 20.386 2.639 37.916 11.637 53.273 24.84 11.453 9.847 20.438 21.826 26.546 35.719 1.503 3.418 3.32 4.58 7 4.533 15.664-.198 31.332-.084 46.997-.084h33.443c-13.03-47.603-39.772-84.66-80.994-110.895-41.354-26.32-86.71-34.968-134.803-26.967-85.362 14.202-152.39 86.012-157.205 175.859-2.86 53.388 14.514 100.367 51.006 139.383 34.028 36.38 76.827 56.146 126.437 59.44 82.77 5.494 167.942-46.148 194.223-137.82h-4.472c-25.832 0-51.664.087-77.495-.101-3.562-.026-5.087 1.264-6.574 4.253-10.544 21.187-26.45 37.397-47.352 48.259-22.921 11.912-47.384 15.143-72.352 8.234-30.227-8.365-52.591-27.268-67.526-54.724-7.291-13.404-11.469-27.827-13.247-43.128-1.545-13.29-1.267-26.432 1.576-39.307 5.942-26.898 19.257-49.485 41.23-66.665 17.531-13.708 37.186-21.36 60.44-21.884M644.46 458.036 619.421 492c28.591 0 56.237.046 83.882-.117 1.643-.01 3.822-1.295 4.832-2.665 10.478-14.212 20.741-28.581 31.115-42.87 12.573-17.318 25.055-34.706 37.932-51.796 2.16-2.866 1.695-4.539.06-6.787-22.207-30.546-44.396-61.105-66.685-91.591-2.221-3.039-4.45-5.484-9.395-5.383-23.153.47-46.32.209-69.483.209h-11.915l75.133 100.214c-4.04 5.333-7.979 10.5-11.883 15.692-12.683 16.868-25.353 33.745-38.553 51.13"/><path fill="#e04130" d="M1100.304 558.287c-16.598 9.01-33.957 14.988-52.043 18.456-15.404 2.954-31.109 4.25-46.805 3.177-27.78-1.9-54.396-8.793-78.79-22.269-11.909-6.578-22.89-15.005-33.694-23.368-14.683-11.368-26.345-25.608-36.44-41.173-13.256-20.437-21.88-42.585-26.713-66.495-3.522-17.427-3.813-34.986-2.528-52.352 2.371-32.045 13.02-61.746 31.421-88.16 7.941-11.399 16.952-22.355 26.982-31.938 24.629-23.53 53.978-39.21 87.173-46.888 11.566-2.675 23.676-3.095 35.567-4.24 22.65-2.181 44.728 1.54 66.126 8.402 21.834 7.002 41.736 17.949 59.851 32.282 15.53 12.287 28.733 26.599 39.608 42.958 15.113 22.735 25.474 47.506 28.95 74.797 1.305 10.246 3.039 20.584 2.844 30.847-.592 31.093-7.72 60.668-22.653 88.2-10.94 20.17-24.912 38.062-42.341 52.757-11.126 9.38-24.074 16.6-36.515 25.007M1119 393.494c-.662-9.016-.531-18.175-2.128-27.022-5.626-31.179-22.204-55.715-48.387-73.065-22.75-15.075-48.363-20.275-75.287-15.212-25.065 4.713-45.786 17.32-62.178 37.165-18.278 22.127-26.172 47.835-26.84 75.97-.185 7.754 1.59 15.595 2.851 23.333 3.534 21.674 13.44 40.394 27.9 56.59 10.683 11.966 23.716 20.921 38.698 27.055 19.384 7.935 39.38 10.107 59.643 5.4 24.624-5.722 45.43-18.462 60.928-38.601 15.92-20.688 25.273-44.01 24.8-71.613"/><path fill="#00a6df" d="M386.606 276.964c-22.796.497-42.45 8.149-59.982 21.857-21.973 17.18-35.288 39.767-41.23 66.665-2.843 12.875-3.121 26.017-1.576 39.307 1.778 15.301 5.956 29.724 13.247 43.128 14.935 27.456 37.299 46.36 67.526 54.724 24.968 6.909 49.43 3.678 72.352-8.234 20.902-10.862 36.808-27.072 47.352-48.259 1.487-2.989 3.012-4.28 6.574-4.253 25.83.188 51.663.101 77.495.101h4.472c-26.281 91.672-111.452 143.314-194.223 137.82-49.61-3.294-92.409-23.06-126.437-59.44-36.492-39.016-53.867-85.995-51.006-139.383 4.815-89.847 71.843-161.657 157.205-175.859 48.092-8.001 93.449.647 134.803 26.967C534.4 258.34 561.14 295.397 574.172 343h-33.443c-15.665 0-31.333-.114-46.996.084-3.682.046-5.498-1.115-7-4.533-6.11-13.893-15.094-25.872-26.547-35.718-15.357-13.204-32.887-22.202-53.273-24.841-5.187-.672-10.368-1.419-15.573-1.912-1.386-.131-2.849.55-4.734.884"/><path fill="#00204d" d="M644.724 457.78c12.937-17.129 25.607-34.006 38.29-50.874 3.904-5.192 7.843-10.36 11.883-15.692L619.764 291h11.915c23.162 0 46.33.262 69.483-.21 4.944-.1 7.174 2.345 9.395 5.384 22.29 30.486 44.478 61.045 66.685 91.59 1.635 2.249 2.1 3.922-.06 6.788-12.877 17.09-25.36 34.478-37.932 51.796-10.374 14.289-20.637 28.658-31.115 42.87-1.01 1.37-3.189 2.656-4.832 2.665-27.645.163-55.291.117-83.882.117 8.634-11.71 16.837-22.838 25.303-34.22"/><path fill="#fff" d="M1119 393.992c.473 27.104-8.88 50.427-24.8 71.115-15.498 20.139-36.304 32.88-60.928 38.6-20.263 4.708-40.259 2.536-59.643-5.4-14.982-6.133-28.015-15.088-38.698-27.054-14.46-16.196-24.366-34.916-27.9-56.59-1.26-7.738-3.036-15.58-2.851-23.333.668-28.135 8.562-53.843 26.84-75.97 16.392-19.844 37.113-32.452 62.178-37.165 26.924-5.063 52.538.137 75.287 15.212 26.183 17.35 42.76 41.886 48.387 73.065 1.597 8.847 1.466 18.006 2.128 27.52"/></svg>