<?xml version="1.0" encoding="UTF-8" standalone="no"?>
<svg width="256px" height="276px" viewBox="0 0 256 276" version="1.1" xmlns="http://www.w3.org/2000/svg" xmlns:xlink="http://www.w3.org/1999/xlink" preserveAspectRatio="xMidYMid">
	<g fill="#9B1B1D">
		<path d="M105.637,54.539 C105.637,54.539 105.636,29.056 105.706,18.677 C105.783,7.471 112.854,0.407 123.949,0.374 C134.848,0.341 145.747,0.342 156.646,0.374 C167.628,0.405 174.719,7.384 174.745,18.306 C174.795,39.585 174.763,60.864 174.752,82.143 C174.751,83.264 174.626,84.384 174.531,85.969 C154.491,74.365 134.042,72.644 113.252,82.272 C97.71,89.469 86.94,101.464 81.214,117.64 C69.796,149.899 87.261,185.336 119.91,196.39 C153.792,207.86 192.118,189.008 201.618,150.299 C202.59,151.109 234.73,182.672 249.843,197.651 C258.055,205.79 258.042,215.538 249.865,223.673 C242.415,231.086 234.941,238.476 227.449,245.846 C219.122,254.036 209.251,254.069 200.983,245.944 C193.487,238.578 174.663,220.176 174.663,220.176 C174.663,220.176 174.815,246.647 174.743,257.416 C174.673,267.888 167.571,274.994 157.134,275.051 C145.976,275.113 134.817,275.104 123.659,275.054 C113.009,275.008 105.847,267.956 105.719,257.243 C105.596,246.865 105.69,220.393 105.69,220.393 C105.69,220.393 87.538,238.619 80.13,245.89 C71.808,254.058 61.98,254.059 53.664,245.904 C46.253,238.636 38.868,231.342 31.498,224.032 C22.917,215.52 22.948,205.998 31.368,197.458 C39.551,189.158 56.505,171.787 56.505,171.787 C56.505,171.787 29.662,171.832 18.374,171.774 C6.755,171.715 0.067,164.983 0.029,153.365 C-0.006,142.855 -0.014,132.345 0.032,121.835 C0.081,110.499 6.825,103.738 18.222,103.662 C29.25,103.589 56.644,103.644 56.644,103.644 C56.644,103.644 38.143,85.149 30.516,77.547 C22.688,69.744 22.622,59.87 30.378,52.11 C38.175,44.31 46.007,36.545 53.91,28.852 C61.35,21.611 71.62,21.541 78.948,28.901 C87.447,37.436 105.637,54.539 105.637,54.539"></path>
		<path d="M165.772,137.581 C165.784,151.544 154.634,162.635 140.54,162.68 C126.224,162.725 115.011,151.617 115.067,137.448 C115.122,123.581 126.491,112.401 140.48,112.458 C154.512,112.515 165.759,123.688 165.772,137.581"></path>
	</g>
</svg>