<svg xmlns="http://www.w3.org/2000/svg" width="112" height="126.147" style="max-height:500px"><path d="m0 48.696 56.038 39.22V39.442L0 0Z" style="fill:#0061fe;stroke-width:1.76245;--darkreader-inline-fill:#349bff"/><path d="M112.076.002 56.038 39.445v48.47l56.038-39.22z" style="fill:#1e1919;stroke-width:1.76245;--darkreader-inline-fill:#d7d3ce"/><path d="m112.076 78.676-56.038-39.22V87.93l56.038 39.443Z" style="fill:#0061fe;stroke-width:1.76245;--darkreader-inline-fill:#349bff"/><path d="m0 127.369 56.038-39.442v-48.47L0 78.676ZM176.157 16.792h35.166c22.488 0 40.855 13.05 40.855 42.654v6.327c0 29.714-17.33 43.161-40.325 43.161h-35.696zM195.8 33.479v58.548h15.125c12.656 0 21.32-8.4 21.32-26.872v-4.783c0-18.473-8.907-26.871-21.98-26.871H195.8zm66.828.904h15.631l2.448 17.326c2.977-11.882 10.605-17.966 24.43-17.966h4.785v19.773h-8.004c-16.029 0-19.91 5.555-19.91 21.316v34.124h-19.38zm51.439 38.884v-2.072c0-25.063 16.028-38.51 37.746-38.51 22.225 0 37.614 13.69 37.614 38.51v2.072c0 24.557-15.125 37.607-37.614 37.607-24.032 0-37.746-13.05-37.746-37.607m55.715-.264v-1.808c0-13.953-6.989-22.087-17.969-22.087-10.848 0-18.102 7.627-18.102 22.087v1.808c0 13.446 6.858 20.941 17.97 20.941 11.134 0 18.1-7.362 18.1-20.941m29.854-38.62h16.292l1.94 14.218c4.013-9.567 12.28-15.894 24.562-15.894 19.006 0 31.419 13.69 31.419 38.775v2.072c0 24.556-13.825 37.342-31.42 37.342-11.882 0-19.776-5.29-23.789-13.954v37.607h-19.004zm54.546 38.752V71.46c0-14.858-7.628-22.22-17.836-22.22-10.848 0-18.102 8.266-18.102 22.088v1.432c0 13.183 6.99 21.449 17.705 21.449 11.133 0 18.233-7.363 18.233-21.074M502.4 95.377l-1.542 13.58h-16.801V9.428h19.006v38.246c4.145-9.7 12.413-14.99 24.165-14.99 17.704.132 30.889 12.41 30.889 37.21v2.204c0 24.821-12.413 38.775-31.42 38.775-12.28 0-20.284-5.93-24.297-15.497M538.606 72.1v-1.808c0-13.689-7.498-21.183-17.838-21.183-10.737 0-18.1 8.663-18.1 21.448v1.543c0 13.954 7.099 21.978 17.835 21.978 11.245 0 18.103-7.23 18.103-21.978m28.176 1.168v-2.072c0-25.063 15.897-38.51 37.614-38.51 22.224 0 37.746 13.69 37.746 38.51v2.072c0 24.557-15.256 37.607-37.746 37.607-24.054 0-37.614-13.05-37.614-37.607m55.695-.264v-1.808c0-13.953-6.99-22.087-17.97-22.087-10.848 0-18.102 7.627-18.102 22.087v1.808c0 13.446 6.858 20.941 17.97 20.941 11.265 0 18.102-7.362 18.102-20.941m44.999-2.712-26.104-35.93h22.357l15.123 22.352L694.11 34.36h22.224l-26.502 35.8 27.914 38.774h-21.981l-17.198-24.689-16.67 24.689h-22.753Z" style="fill:#1e1919;stroke-width:1.76245;--darkreader-inline-fill:#d7d3ce"/><path d="M783.4 110.823c22.207 0 33.882-12.436 33.755-27.283-.127-19.542-15.608-22.968-30.582-26.014-12.69-2.665-24.364-4.314-24.364-15.354 0-7.74 5.964-14.466 18.654-14.466 14.212 0 20.938 6.09 21.699 17.384h12.816c-.888-17.257-11.928-27.917-34.262-27.917-20.937 0-31.343 11.802-31.343 25.126 0 18.907 15.355 22.333 29.948 25.252 12.943 2.411 25.125 4.441 24.998 16.243 0 8.375-6.472 15.989-21.192 15.989-16.37 0-23.602-7.614-23.983-21.319h-13.197c.761 20.43 10.786 32.359 37.054 32.359m52.966-83.625c5.71 0 8.629-2.538 8.629-8.756 0-6.345-2.919-8.756-8.63-8.756-5.71 0-8.755 2.411-8.755 8.756 0 6.472 2.538 8.756 8.756 8.756m6.09 81.721V36.462h-12.562v72.457zm45.616 33.247c25.76 0 36.927-9.898 36.927-24.237 0-12.436-8.375-20.304-27.79-20.304h-17.004c-9.137.127-12.563-2.03-12.563-6.09 0-4.315 3.3-6.98 18.146-6.98h2.411c20.05 0 32.105-9.517 32.105-24.745v-.507c0-10.279-7.106-19.67-20.43-21.319h-.254c15.989-.507 20.557-4.949 20.557-15.227v-2.158h-13.959v1.396c0 9.137-2.284 12.69-16.37 13.451-1.649 0-5.202.254-6.47.508-16.751 1.65-26.268 10.279-26.268 23.603v.127c0 10.913 5.202 17.892 15.735 20.937-10.66 1.904-16.116 6.98-16.116 14.086 0 6.852 4.314 11.547 13.705 12.943-11.42 2.792-16.37 8.756-16.37 16.75 0 10.914 7.74 17.766 32.866 17.766zm.127-66.747c-12.055 0-18.78-5.457-18.78-15.355v-.254c-.127-9.644 6.598-15.354 17.004-15.989.888-.126 1.65-.253 2.791-.253 10.025 0 18.654 3.933 18.781 16.116v.253c0 9.771-6.98 15.482-19.796 15.482m-2.284 56.468c-13.959 0-19.796-4.949-19.796-11.166v-.127c0-6.98 5.584-11.675 17.131-12.563h13.451c12.31 0 16.877 4.188 16.877 10.532 0 7.868-7.233 13.324-25.379 13.324zm60.027-60.91c0-15.354 7.868-25.76 22.08-25.76 14.086 0 19.542 9.01 19.542 22.461v41.241H1000V64.886c0-18.273-9.644-30.455-28.298-30.455-13.705 0-22.714 7.36-26.521 18.527l-1.27-16.496h-10.405v72.457h12.436z" style="fill:#0061fe;stroke-width:1.76245;--darkreader-inline-fill:#349bff"/></svg>