<svg xmlns="http://www.w3.org/2000/svg" width="32" height="32"><path d="M14.728 31.907c-5.43-.479-10.192-3.592-12.76-8.343C.802 21.4.217 19.327.079 16.86A15.754 15.754 0 0 1 4.561 4.893C7.087 2.3 10.137.732 13.728.18c1.042-.16 3.5-.162 4.531-.003 3.407.526 6.36 1.97 8.772 4.293 2.033 1.959 3.459 4.269 4.256 6.897.457 1.509.66 2.929.66 4.617 0 2.53-.52 4.779-1.62 7.017a15.634 15.634 0 0 1-3.036 4.256c-2.485 2.501-5.713 4.093-9.248 4.56-.88.117-2.508.16-3.315.09z" fill="#1c6af0"/><g fill="#fff"><path d="M11.707 15.291l-5.189-3.172v9.696zm7.793.455l-3.511 2.162-3.517-2.15L7.11 22.5h17.757z"/><path d="M15.988 16.864l9.494-5.847V9.5H6.518v1.576zm9.494 4.979v-9.781l-5.219 3.214z"/></g></svg>