<svg xmlns="http://www.w3.org/2000/svg" xmlns:xlink="http://www.w3.org/1999/xlink" viewBox="-0.921 210.038 228.723 221.823" width="224.72" height="217.82"><defs><path d="M205.23 383.31c-.42-6.57 1.43-13.93 3.29-19.29 1.15-2.5 2.15-5.07 3.07-7.65v-.07c20.08-56.67-9.57-118.91-66.31-138.99-56.74-20.08-118.84 9.65-138.92 66.32-20.08 56.66 9.58 118.91 66.32 138.99 31.29 11.07 65.95 7.29 94.11-10.36 2.86-1.36 5.29-2.15 6.64-1.58 14.44 6.08 30.23 7.94 45.67 5.22 2.71-.43 9.64-3 2.71-8.15-7-5.14-15.72-12.14-16.58-24.44z" id="a"/><path d="M150.07 270.55c6.79 0 12.29 5.5 12.29 12.29v.5c0 6.79-5.5 12.29-12.29 12.29H76.89c-6.79 0-12.29-5.5-12.29-12.29v-.5c0-6.79 5.5-12.29 12.29-12.29h73.18z" id="b"/><path d="M123.13 307.78c6.79 0 12.29 5.5 12.29 12.29v.57c0 6.79-5.5 12.29-12.29 12.29H76.89c-6.79 0-12.29-5.5-12.29-12.29v-.57c0-6.79 5.5-12.29 12.29-12.29h46.24z" id="c"/><path d="M85.25 344.37c6.79 0 12.29 5.5 12.29 12.29v.5c0 6.79-5.5 12.29-12.29 12.29h-8.36c-6.79 0-12.29-5.5-12.29-12.29v-.5c0-6.79 5.5-12.29 12.29-12.29h8.36z" id="d"/></defs><use xlink:href="#a" fill="#0abe51"/><use xlink:href="#a" fill-opacity="0" stroke="#000" stroke-opacity="0"/><use xlink:href="#b" fill="#fff"/><use xlink:href="#b" fill-opacity="0" stroke="#000" stroke-opacity="0"/><use xlink:href="#c" fill="#fff"/><use xlink:href="#c" fill-opacity="0" stroke="#000" stroke-opacity="0"/><use xlink:href="#d" fill="#fff"/><use xlink:href="#d" fill-opacity="0" stroke="#000" stroke-opacity="0"/></svg>