<svg xmlns="http://www.w3.org/2000/svg" viewBox="0 0 256 256"><g fill="none" fill-rule="evenodd"><path fill="#7E7EFC" fill-rule="nonzero" d="M128 256C57.344 256 0 198.656 0 128S57.344 0 128 0h96c17.664 0 32 14.336 32 32v96c0 28.35-9.232 54.557-24.851 75.776C207.839 235.44 170.306 256 128 256z"/><g fill="#FFF" transform="rotate(-140 110.288 104.658)"><ellipse cx="67.385" cy="166.647" rx="20" ry="19.25"/><path d="M39.062 103.13c11.883-8.954 25.343-12.54 40.005-10.659 14.67 1.88 26.54 8.722 35.283 20.334 3.124 4.149 2.211 10.107-2.037 13.308l-.003.002c-4.251 3.202-10.23 2.431-13.355-1.718-5.71-7.585-13.157-11.87-22.765-13.101-9.605-1.232-18.047 1.011-25.806 6.859l-.017.012c-4.25 3.202-10.227 2.437-13.354-1.71-3.129-4.146-2.22-10.107 2.028-13.31l.021-.017zM18.345 55.362c.115-.086.233-.171.353-.253 21.063-14.49 43.564-20.322 66.881-17.33 23.313 2.987 43.202 14.256 59.11 33.49 3.311 4.004 2.666 9.992-1.443 13.375-4.168 3.35-10.122 2.88-13.434-1.124C116.816 67.805 101.404 59 82.7 56.604c-18.704-2.4-36.163 2.188-53.372 14.026-4.384 3.017-10.318 1.987-13.254-2.3-2.856-4.168-1.822-9.884 2.271-12.968z"/></g></g></svg>