<svg xmlns="http://www.w3.org/2000/svg" viewBox="0 0 270.79 270.96"><path d="M190.4 69.05c-.55.08-3.52.33-6.6.56A113.51 113.51 0 0 0 166.4 72l-3.4.77c-.88.19-2.23.53-3 .76-3.44 1-4.67 1.33-5.71 1.53a2.55 2.55 0 0 0-1.32.57 1.55 1.55 0 0 1-1.11.35 2.37 2.37 0 0 0-1.28.32 9.4 9.4 0 0 1-2 .82 30 30 0 0 0-4.3 1.71 3.29 3.29 0 0 1-1.14.35c-4 0-26.69 14-37.16 23-1.79 1.53-11.88 11.65-13.2 13.23L90 118.8c-1 1.21-1.89 2.29-2 2.4-.67.62-6.24 8.74-8.14 11.87a133 133 0 0 0-8.66 16.33c-2 4.56-2.4 5.42-2.4 5.8a2.86 2.86 0 0 1-.39 1.1c-.82 1.47-2.93 8.16-4.45 14.1a119.69 119.69 0 0 0-3.64 21 176.68 176.68 0 0 0-.21 23.4A137.62 137.62 0 0 0 71.88 260a127.81 127.81 0 0 0 6.58 12.46 4.94 4.94 0 0 1 .74 1.34c0 .32 6.47 9.84 7.76 11.43.46.56 1.29 1.63 1.84 2.36s1.18 1.53 1.41 1.77 1.39 1.61 2.6 3A147.22 147.22 0 0 0 111 309.8c.88.66 1.69 1.29 1.8 1.4 2.16 2.24 17.25 11.53 23 14.16 4.22 1.92 6.07 2.75 6.9 3.08l1.9.76 1.9.75 1.9.74c1.64.64 4.91 1.77 6.2 2.13 7.22 2 8.44 2.32 13.6 3.37 14.49 2.94 33.23 3.33 47.2 1 5.11-.86 10.92-2.06 13.6-2.82 4-1.14 10.65-3.17 11.7-3.59l1.8-.71 2-.8 2-.82c8.39-3.44 26.86-14.13 30.23-17.51.3-.29 1.2-1 2-1.63A156.8 156.8 0 0 0 295.84 293c3.9-4.46 10.6-13.33 12.14-16.07a4 4 0 0 1 .92-1.25.63.63 0 0 0 .3-.54 4.39 4.39 0 0 1 .75-1.47c4.1-5.78 11.43-22.37 14.07-31.86.18-.66.54-1.92.79-2.8s.61-2.32.8-3.2.54-2.41.78-3.4a155.5 155.5 0 0 0 2.47-16c.62-5.67.94-113.25.36-117.4a27.16 27.16 0 0 0-1.66-7.1 3.28 3.28 0 0 1-.36-1.25c0-1.84-4.63-8.79-8.06-12.1-5.5-5.3-11-7.94-19.1-9.17-3.43-.53-105.89-.83-109.64-.33m14.18 65c24.95 4.45 42.32 16.9 53.8 38.57 3.83 7.22 7.22 19.81 7.22 26.8v2.2h-35.18l-2.61-3.3c-3.82-4.82-10.59-13.54-13.91-17.9-5.1-6.68-6.22-7.6-9.28-7.6-3.87 0-5.11 1.35-7.38 8-.94 2.75-1.86 5.36-2.05 5.8s-.72 2-1.19 3.4-1 3-1.2 3.4-.73 2-1.19 3.4a32.81 32.81 0 0 1-1.23 3.3 3.5 3.5 0 0 0-.38 1.43 1.79 1.79 0 0 1-.26 1c-.25.24-1.09 2.61-5 14.07-2.25 6.59-2.21 6.54-3.29 5.35-.48-.52-3.55-4.55-6.82-8.95-9.55-12.83-5.73-11.4-30.49-11.4-17.75 0-19.79-.06-20-.64-.47-1.23 1.2-11.39 2.67-16.16.17-.55.54-1.81.82-2.8a9.52 9.52 0 0 1 .85-2.18 1.63 1.63 0 0 0 .33-.92c0-.78 3.79-8.54 5.68-11.64 4.11-6.7 12.43-15.84 17.92-19.66a25.83 25.83 0 0 0 2.17-1.69 2.67 2.67 0 0 1 1.31-.71.48.48 0 0 0 .52-.4.41.41 0 0 1 .43-.4 8 8 0 0 0 2.1-1.13c5.67-3.81 15.32-7.21 26.07-9.19 2.86-.53 16.7-.56 19.58-.05m3.2 59.47c2.75 3.37 5.29 6.63 9.74 12.5 7 9.25 4.09 8.39 28.64 8.4h18.75l-.24 2.37c-.34 3.27-2.38 10.88-3.15 11.81a1.86 1.86 0 0 0-.33 1 21.36 21.36 0 0 1-1.6 3.82 21.38 21.38 0 0 0-1.59 3.7c0 .27-.14.5-.3.51a6.07 6.07 0 0 0-1.28 2 5.68 5.68 0 0 1-1.3 2c-.17 0-.32.22-.33.5 0 1.22-7.7 10.64-11.22 13.74-1 .86-2 1.85-2.37 2.2a82.41 82.41 0 0 1-8.4 6.28 16.22 16.22 0 0 0-2.27 1.35 17.3 17.3 0 0 1-2.63 1.49c-.52.2-2.29 1-3.92 1.75s-3.61 1.61-4.38 1.88-1.76.63-2.2.81a91.86 91.86 0 0 1-13 3.06c-3.61.51-16.7.38-20-.21-1.65-.29-3.68-.62-4.5-.73a3.43 3.43 0 0 1-1.73-.56 2.49 2.49 0 0 0-1.57-.36 2.46 2.46 0 0 1-1.6-.4 1.53 1.53 0 0 0-1.14-.4 2.37 2.37 0 0 1-1.28-.32 9.4 9.4 0 0 0-2-.82c-.88-.28-2-.67-2.4-.87-7.2-3.21-11.34-5.55-15.8-8.93-10.8-8.16-20-20.46-24-32.26-.26-.77-.62-1.76-.79-2.2a56.76 56.76 0 0 1-1.58-5.7l-.85-3.39c-.85-3.36-2.17-3.13 17.3-3l17.3.1 4.51 6c2.47 3.3 4.65 6.18 4.82 6.4s1.66 2.2 3.29 4.4 3.07 4.09 3.19 4.2 1.26 1.57 2.53 3.24c4.84 6.4 10.61 5.5 13-2a22 22 0 0 1 1.3-3.38 2.24 2.24 0 0 0 .33-1.22 2.24 2.24 0 0 1 .33-1.22 21 21 0 0 0 1.27-3.38 21 21 0 0 1 1.27-3.38 2 2 0 0 0 .33-1.1 3.5 3.5 0 0 1 .38-1.42 32.81 32.81 0 0 0 1.23-3.3c.46-1.43 1-3 1.2-3.4s.8-2.15 1.35-3.8 2.17-6.4 3.61-10.56 2.63-7.63 2.63-7.7c0-.41.88-.05 1.38.56" transform="translate(-59.22 -68.6)" style="fill-rule:evenodd;fill:#ec7c04"/><path d="M329.79 155c0 30.58 0 43 .11 27.67s.06-40.38 0-55.6-.11-2.65-.11 27.93M191.9 133.88a4.35 4.35 0 0 0 1.61 0c.38-.11 0-.18-.91-.18s-1.19.09-.7.18m4.81 0a4.24 4.24 0 0 0 1.59 0c.39-.11 0-.18-.9-.18s-1.19.09-.69.18M145.2 154.2a9.27 9.27 0 0 0-1.57 1.8 13.67 13.67 0 0 0 2-1.8 9.27 9.27 0 0 0 1.57-1.8 13.67 13.67 0 0 0-2 1.8m-85.88 43c0 1.21.08 1.7.17 1.1a9 9 0 0 0 0-2.2c-.09-.61-.17-.11-.17 1.1m65.08 2.4c0 .88.14 1.6.31 1.6s.24-.72.16-1.6a4.5 4.5 0 0 0-.31-1.6 4.12 4.12 0 0 0-.16 1.6m-65.08 11c0 1.32.08 1.81.17 1.09a10.69 10.69 0 0 0 0-2.4c-.09-.6-.17 0-.17 1.31M247 251.7l-1.2 1.3 1.3-1.18a9.18 9.18 0 0 0 1.3-1.3c0-.3-.33 0-1.42 1.18m-5.21 5.2-1.17 1.3 1.3-1.18c1.21-1.09 1.48-1.42 1.17-1.42a10.53 10.53 0 0 0-1.3 1.3m52 38.8-1.58 1.7 1.7-1.58c1.58-1.47 1.88-1.82 1.58-1.82a19.38 19.38 0 0 0-1.7 1.7" transform="translate(-59.22 -68.6)" style="fill:#f9cfa0;fill-rule:evenodd"/><path d="M183.4 69.22c-1.14.17.06.21 2.8.09a43.28 43.28 0 0 0 5-.36c.27-.25-5.63 0-7.77.27m115.6 0a15.15 15.15 0 0 0 2.6.31c1.59 0-1-.64-2.8-.64h-1.4l1.6.33M176.2 70l-1.2.31h1.2a11.61 11.61 0 0 0 2.4-.31l1.2-.31h-1.2a11.61 11.61 0 0 0-2.4.31m127.6 0a4.36 4.36 0 0 0 1.4.34c.38 0 .3-.12-.2-.34a4.36 4.36 0 0 0-1.4-.34c-.38 0-.3.12.2.34m-132.8.8c-1.08.27-1.1.31-.2.31a7.31 7.31 0 0 0 2-.31c1.34-.43-.11-.43-1.8 0m135.4 0a2.69 2.69 0 0 0 1.2.39c.53 0 .53 0 0-.39a2.69 2.69 0 0 0-1.2-.39c-.53 0-.53 0 0 .39m-139.6.8c-.8.26-.84.32-.2.33a4.58 4.58 0 0 0 1.6-.33c1-.44 0-.44-1.4 0m-3.6.8-1 .32h1a3.32 3.32 0 0 0 1.6-.35c.76-.49-.06-.49-1.6 0m-3.4.8-.8.34h.8a3 3 0 0 0 1.4-.37c.79-.51-.2-.51-1.4 0m152.2-.21a11.44 11.44 0 0 0 2.1 1.51 39.88 39.88 0 0 1 9.54 9.42 17.3 17.3 0 0 0 1.83 2.54c.59 0-3.33-5.34-5.63-7.69S312 72.3 312 72.93M157.2 74c-.82.26-.86.33-.2.35a2.82 2.82 0 0 0 1.4-.35c.7-.45.21-.45-1.2 0m-2.8.8c-.82.26-.86.33-.2.35a2.82 2.82 0 0 0 1.4-.35c.7-.45.21-.45-1.2 0m-2.6.8c-.77.33-.77.34.08.37a1.42 1.42 0 0 0 1.12-.37c.29-.47-.1-.47-1.2 0m-3.11 1.08c-1 .36-1.82.72-1.73.82s3.08-.73 3.62-1.18.38-.39-1.89.36m-9.09 3.72c-.77.42-1.22.77-1 .77a7.06 7.06 0 0 0 1.8-.77c.77-.42 1.22-.77 1-.77a7.06 7.06 0 0 0-1.8.77m-6.5 3c-1.55.84-1.37 1.13.2.33s1.77-1 1.27-.94a5.43 5.43 0 0 0-1.47.61m-7.2 4c-1.5.81-1.4 1.15.1.37a3.63 3.63 0 0 0 1.2-.81c0-.26 0-.24-1.3.44m-6.24 4a91.7 91.7 0 0 0-10.82 8.13c-.79.73.27 0 2.36-1.63s5.8-4.27 8.2-5.9 4.57-3.08 4.78-3.27c1-.9-.37-.1-4.52 2.66m207.57-.73a1.42 1.42 0 0 0 .37 1.12c.47.29.47-.1 0-1.2-.33-.77-.34-.77-.37.08M328 93a3 3 0 0 0 .37 1.4c.51.79.51-.2 0-1.4l-.34-.8v.8m.86 3.4c0 1.77.6 4.39.64 2.8a15.15 15.15 0 0 0-.31-2.6l-.33-1.6v1.4m-229.73 12c-4.22 4.21-7.56 7.77-7.42 7.91s.65-.27 1.13-.91c1.13-1.49 11.3-11.68 13.08-13.11.74-.6 1.25-1.19 1.12-1.32s-3.69 3.22-7.91 7.43m-8.79 9.54c-2.48 2.78-2.88 3.3-2.54 3.28a9.9 9.9 0 0 0 2.09-2.2c1.83-2.32 2.07-2.9.45-1.08m-3.65 4.4c-1 1.19-3.27 4.64-2.86 4.38a31.4 31.4 0 0 0 3.63-5.08 2.75 2.75 0 0 0-.77.7m-7 10.4c-2.19 3.52-3 4.9-2.75 4.9a12 12 0 0 0 1.59-2.35c.76-1.29 1.69-2.82 2.07-3.4s.59-1 .48-1a8.35 8.35 0 0 0-1.39 1.9M186 134c-.59.19.22.23 2 .1a21.1 21.1 0 0 0 3.17-.37c.33-.28-4.19-.05-5.17.27m12.83-.27a21.1 21.1 0 0 0 3.17.37c1.78.13 2.59.09 2-.1-1-.32-5.5-.55-5.17-.27M181 134.8l-.8.34h.8a7.11 7.11 0 0 0 1.8-.33l1-.32h-1a5.19 5.19 0 0 0-1.8.33m26 0a12.13 12.13 0 0 0 2 .33h.8l-.8-.34a5.67 5.67 0 0 0-2-.32h-1.2l1.2.31m-29.4.8c-.8.26-.84.32-.2.33a4.58 4.58 0 0 0 1.6-.33c1-.44 0-.44-1.4 0m33.4 0a4.58 4.58 0 0 0 1.6.33c.64 0 .6-.07-.2-.33-1.37-.44-2.42-.44-1.4 0m-37.51 1.08c-1 .36-1.83.71-1.74.8a8.78 8.78 0 0 0 2.51-.63c1.28-.44 2.07-.8 1.74-.8a13.74 13.74 0 0 0-2.51.63m40.71-.28a4.36 4.36 0 0 0 1.4.34c.38 0 .3-.12-.2-.34a4.36 4.36 0 0 0-1.4-.34c-.38 0-.3.12.2.34m-45.6 2c-2.92 1.18-7 3.16-7 3.39s.14.14.3 0c1.34-.71 5.86-2.72 7.4-3.29a8.43 8.43 0 0 0 1.9-.85c0-.27-.58-.11-2.6.7m51-.38c4.61 2.16 7.75 3.51 7.87 3.39s-6.58-3.3-7.87-3.62l-1-.24 1 .47M75.79 139.3l-.64 1.3.82-1c.78-1 1-1.6.64-1.6a4.14 4.14 0 0 0-.82 1.3m83.49 3.7c-1.76 1.24-2.18 1.77-.68.85 2.08-1.28 2.79-1.82 2.39-1.8a6.31 6.31 0 0 0-1.71.95m70.94.17a15.15 15.15 0 0 0 3.38 2 14.52 14.52 0 0 0-3.47-2.29c-.16 0-.12.15.09.34m-75.59 2.67c-.42.32-.69.66-.59.76s.62-.17 1.17-.59.81-.76.59-.76a2.86 2.86 0 0 0-1.17.59m80.57.28a18.4 18.4 0 0 0 2.4 2c1.32 1 2.39 1.73 2.39 1.57s-.5-.65-1.1-1.07-1.68-1.22-2.39-1.75-1.3-.89-1.3-.79m-83.1 1.64c-.71.48-1.29 1-1.3 1.2 0 .36 2.24-1.14 2.61-1.75s.19-.46-1.31.55m-5.7 5.06a40.59 40.59 0 0 0-3.6 3.59 50.13 50.13 0 0 0 4-3.58 46.11 46.11 0 0 0 3.6-3.59c-.11 0-1.91 1.61-4 3.58m97 .21c1.55 1.54 3.6 3.67 4.56 4.73a8.34 8.34 0 0 0 1.88 1.79c.18-.18-6.43-7-8-8.33-.68-.55 0 .27 1.6 1.81m-176 4.6c-.15.47-.18 1-.07 1.06s.32-.19.47-.66.18-.95.07-1.06-.32.19-.47.66m74.09.11c-3.79 4.72-8.26 11.09-7.78 11.09a14.34 14.34 0 0 0 1.68-2.3 67.93 67.93 0 0 1 6.17-8.2c.77-.82 1.23-1.49 1-1.48s-.7.41-1.09.89m109.69 4c1.64 2.25 3 3.85 2.58 3.1a35.88 35.88 0 0 0-3.63-4.8 6.62 6.62 0 0 0 1.05 1.7m-186.15 2.87a4 4 0 0 0-.22 1.31c0 .37.2.14.39-.51.38-1.26.24-1.89-.17-.8m189.78 2.48c1 1.7 1.57 2.39 1.57 2a14.52 14.52 0 0 0-2.29-3.47 4.54 4.54 0 0 0 .72 1.5m-191.55 4.33a32 32 0 0 0-.86 4.14c0 .33.47-1.1 1-3.18a24.42 24.42 0 0 0 .86-4.14 11.78 11.78 0 0 0-1 3.18m69.3-1c-.35.68-.57 1.3-.48 1.39s.46-.47.82-1.23c.82-1.73.54-1.86-.34-.16m124.18-.24c.67 1.31 1.23 2 1.22 1.6a3.79 3.79 0 0 0-.82-1.4c-.54-.66-.68-.73-.4-.2m-53 2.49a7 7 0 0 0 2 0c.49-.09 0-.17-1.11-.17s-1.5.09-.89.18m54.83 1c.73 1.74 1.82 3.75 1.84 3.38a21.62 21.62 0 0 0-2.2-4.71c-.1 0 .06.6.36 1.33m-58.05.17c-1 .94-1 1-.11.31 1.71-1.33 1.79-1.41 1.51-1.41a5.07 5.07 0 0 0-1.4 1.1m6.91-.85 2 1.75 1.6 1.4-1.2-1.33a9.7 9.7 0 0 0-2-1.75c-.44-.23-.62-.26-.4-.07m3.63 3.77c1.62 2.15 5.09 6.38 5.24 6.38a55.79 55.79 0 0 0-5.23-6.69c-.32-.19-.32-.1 0 .31m-13.6 2.27c-.38 1-.89 2.41-1.12 3s-.34 1.2-.24 1.3a10.16 10.16 0 0 0 1.26-2.88 15.28 15.28 0 0 0 .93-3.2c-.08-.08-.46.71-.83 1.76m63.17-.89c.14.44.78 2.4 1.43 4.35a33.88 33.88 0 0 1 1.18 4.2 2.67 2.67 0 0 0 .4 1.25c.62 1 0-1.75-1.31-5.8a33.48 33.48 0 0 0-1.57-4.2c-.3-.46-.33-.42-.13.2m-199 .83a17.58 17.58 0 0 1-.28 2.2l-.2 1 .43-1a5 5 0 0 0 .27-2.2l-.15-1.21-.07 1.2m-1 5.77a10.75 10.75 0 0 0-.1 2.73c.24.25.74-4.15.54-4.77-.1-.29-.3.63-.44 2m156.47-.17a28.67 28.67 0 0 0 2.06 2.6c1.12 1.24 1.17 1.26.46.2a28.67 28.67 0 0 0-2.06-2.6c-1.11-1.24-1.17-1.26-.46-.2m-21.54-.5c0 .06-.18.72-.39 1.48s-.24 1.2-.06 1c.41-.44.95-2.57.66-2.57-.12 0-.21.05-.21.1m-69 1.35a20.32 20.32 0 0 1-.66 2.22 4.1 4.1 0 0 0-.26 1.8c.08.4.45-.52.82-2.05a11.84 11.84 0 0 0 .51-2.95c-.09-.09-.27.35-.41 1m67.23 3.85c-1.17 3.52-1.42 4.46-1.09 4.07s2.17-5.81 2-6-.48.78-.87 1.94m-133.97 3.07a26.26 26.26 0 0 0-.13 4.33c.26.26.73-5.52.57-7.09-.07-.77-.27.47-.44 2.76m162.3-1.21a24.67 24.67 0 0 0 2.38 2.75c.22.14-.48-.87-1.56-2.25a24.67 24.67 0 0 0-2.38-2.75c-.22-.14.48.87 1.56 2.25m41.91-1.55a10.71 10.71 0 0 0 .3 2.2c.27 1.07.3 1.09.3.2a10.71 10.71 0 0 0-.3-2.2c-.27-1.07-.3-1.09-.3-.2m-139 2.08a9.41 9.41 0 0 0-.2 2.32c0 1.07.11.88.36-.8.33-2.31.25-3.07-.16-1.52m81 2.38c-.54 1.54-.54 1.65 0 1.34a1.34 1.34 0 0 0 .4-1c0-1.7 1.3-.52 5.77 5.22 2.57 3.3 4.77 6 4.88 6s-.11-.43-.52-.95l-1.93-2.5c-1.34-1.74-5.94-7.58-6.82-8.65s-1.24-.87-1.74.56m58.84.54a26.58 26.58 0 0 0 .3 3.2c.31 2 .31 2 .34.4a17.33 17.33 0 0 0-.3-3.2c-.28-1.37-.33-1.43-.34-.4m-39.8.3c.21.28 1.5 1.89 2.88 3.6l2.49 3.1H248c9.66 0 17.57-.14 17.57-.3s-7.9-.25-17.56-.19l-17.57.11-2.7-3.41a35.48 35.48 0 0 0-2.88-3.41c-.1 0 0 .23.19.5m-100.9 3.29c-.46 3.74-2.33 3.42 19.71 3.31l19.51-.09-19.55-.11-19.56-.11.27-2.59c.32-3.15 0-3.49-.38-.41m80.48-.13a7.51 7.51 0 0 0-.52 2.22 5.23 5.23 0 0 0 .83-1.91 7.51 7.51 0 0 0 .52-2.22c-.09-.09-.47.77-.83 1.91M59.35 203.8c0 2.64.07 3.67.15 2.28a47.94 47.94 0 0 0 0-4.8c-.07-1.25-.14-.12-.14 2.52m130.3-2.73a7.62 7.62 0 0 1-.31 1.2c-.2.57-.15.63.24.27a1.33 1.33 0 0 0 .3-1.2c-.1-.41-.21-.53-.23-.27m-23.25 1.45a9.85 9.85 0 0 0 1.3 1.3L169 205l-1.18-1.3c-1.09-1.21-1.42-1.48-1.42-1.18m2.86 3.38c.33.39 1.63 2.09 2.89 3.8a22.93 22.93 0 0 0 2.53 3.1c.14 0 0-.31-.34-.7s-1.63-2.09-2.89-3.8a22.93 22.93 0 0 0-2.53-3.1c-.14 0 0 .31.34.7m48.92 1.43a7.26 7.26 0 0 0 1.3 1.47c.27 0-1.46-2.34-2-2.66-.25-.15.05.38.67 1.19M201 208.4c-.15.47-.18.95-.07 1.06s.32-.19.47-.66.18-1 .07-1.06-.32.19-.47.66m-14 .4c-.15.47-.18.95-.07 1.06s.32-.19.47-.66.18-.95.07-1.06-.32.19-.47.66m142 4.59a30 30 0 0 0-.09 4.85 22.15 22.15 0 0 0 .49-4.45 29.85 29.85 0 0 0 .09-4.84 22.11 22.11 0 0 0-.49 4.44m-107.78-2.18a13.6 13.6 0 0 0 2.41 2.4c.4.21-.16-.52-1.25-1.64a10.89 10.89 0 0 1-2-2.4.41.41 0 0 0-.44-.37c-.24 0 .32.9 1.25 2M59.89 215a35.67 35.67 0 0 0 .36 4.17c.28.31.09-4.57-.24-6.37-.23-1.23-.27-.53-.12 2.2m115.7-.61a7.76 7.76 0 0 0 1.3 1.47c.25.15 0-.38-.66-1.19-1.34-1.76-1.85-2-.64-.28m49.34-.15c.41.43 39.87.89 39.87.46 0-.16-8.44-.3-18.75-.3s-19.36-.12-20.1-.26-1.21-.11-1 .1m-100 .78a3.63 3.63 0 0 0 .19 1.9c.43 1.23.43 1.22.22-.42l-.22-1.7h34.39l4.14 5.48c2.28 3 4.38 5.76 4.66 6.1 1.88 2.23-.9-1.78-4.42-6.38l-4.13-5.4-17.29-.1c-15.4-.1-17.33 0-17.54.52m53.05 2.57a7.76 7.76 0 0 0 1.3 1.47c.25.15 0-.38-.66-1.19-1.34-1.75-1.85-2-.64-.28m5.81.41c-.15.47-.18.95-.07 1.06s.32-.19.47-.66.18-1 .07-1.06-.32.19-.47.66m79.67 2.88a57.72 57.72 0 0 1-2.64 8.71c-.69 1.87-1.1 3.21-.91 3a7.43 7.43 0 0 0 .86-1.79c.27-.77.65-1.76.84-2.2 1.06-2.5 2.93-9.55 2.71-10.22-.08-.23-.46.9-.86 2.5m-137.86-1.65a3.37 3.37 0 0 0 .4 1.57c.27.42.31.19.13-.8-.32-1.73-.54-2.05-.53-.77m202.66 1.53a14.15 14.15 0 0 0-.22 2.79c0 1.1.13.87.4-1 .38-2.63.25-4-.18-1.84M60.64 222a52 52 0 0 0 1.4 8.4c.33.93.34.91.18-.2-.28-2-1-6.3-1.39-8.4l-.39-2 .2 2.2m65.77.43a3.37 3.37 0 0 0 .4 1.57c.27.42.31.18.13-.8-.31-1.72-.54-2-.53-.77m.82 3a1.42 1.42 0 0 0 .37 1.12c.47.29.47-.1 0-1.2-.33-.77-.35-.77-.37.08m200.22.73a6.32 6.32 0 0 0-.21 1.92c0 1.11.09 1 .4-.5.35-1.83.25-2.57-.19-1.42M128 227.48a4.34 4.34 0 0 0 .35 1.4c.2.51.47 1.26.61 1.68s.33.66.44.55a5.25 5.25 0 0 0-.58-2.16c-.44-1.07-.81-1.73-.82-1.47m42.64 2.12c1.93 2.48 3 3.4 1.26 1.1-.53-.71-1.32-1.79-1.74-2.39s-.92-1.09-1.08-1.1.54 1.07 1.56 2.39m156 1.28a6.68 6.68 0 0 0-.21 1.72c0 .44.19.1.4-.76.39-1.66.22-2.5-.19-1m-133.59.19a1.85 1.85 0 0 0-.25 1.1c0 .76.06.75.41-.13s.31-1.45-.16-1m-130.64 1.63a3.88 3.88 0 0 0 .41 1.77c.29.43.33.15.14-1-.33-2-.56-2.3-.55-.77m67.21-.79c0 .62 1.22 3 1.45 2.82a3.83 3.83 0 0 0-.62-1.72c-.45-.85-.82-1.34-.83-1.1m44.26 2c1.81 2.59 5.8 7.8 6 7.8.33 0 .09-.38-1.55-2.5-.93-1.2-2.15-2.79-2.7-3.52-1.69-2.24-3-3.61-1.72-1.78m18.42-.3c-.09.16-.59 1.65-1.13 3.3a10.34 10.34 0 0 1-2.5 4.53c-.84.84-1.16 1.33-.72 1.1 1.7-.91 3-3.33 4.46-8.13.31-1 .24-1.5-.11-.8m133.55.71a5.39 5.39 0 0 0-.21 1.72c0 .86.11.77.41-.49.37-1.6.25-2.39-.2-1.23M63.23 235.8c0 .82 1.48 5.92 1.52 5.2a24.68 24.68 0 0 0-.74-3.2c-.42-1.54-.77-2.44-.78-2m261.82 2a4 4 0 0 0-.22 1.31c0 .37.2.14.39-.51.38-1.26.24-1.89-.17-.8m-191.7 1.58a12.31 12.31 0 0 0 1.24 2c.61.75.61.72.06-.4a12.31 12.31 0 0 0-1.24-2c-.61-.75-.61-.72-.06.4m122.09 1.2c-.36.55-.5 1-.31 1s.55-.45.8-1 .39-1 .31-1a3.86 3.86 0 0 0-.8 1m68.81 0a4 4 0 0 0-.22 1.31c0 .37.2.14.39-.51.38-1.26.25-1.89-.17-.8m-259.42 1.26a7.72 7.72 0 0 0 .41 1.8c.23.75.51 1.61.61 1.92s.25.47.36.37a7 7 0 0 0-.58-2.36c-.42-1.19-.78-2-.8-1.73m116.22.54c.65.7 2.93 1.09 4.55.79 1.19-.22 1.05-.27-.93-.32a10 10 0 0 1-3.2-.5c-.67-.35-.77-.34-.42 0m-45.17 1.25a7.88 7.88 0 0 0 1.29 1.7c.31.26.06-.29-.55-1.23-1.3-2-1.81-2.29-.74-.47m186.61 2.85c-.66 2.05-1.77 5.14-2.46 6.87a15.42 15.42 0 0 0-1.11 3.3c.18.19 2.69-6.22 4.07-10.4a14.6 14.6 0 0 0 .87-3.32 17.43 17.43 0 0 0-1.37 3.55m-69.35-2.18c-1.26 1.53-1.72 2.24-1.26 2s2.29-2.66 2-2.66a2.49 2.49 0 0 0-.75.7m-114.43 3.25c.61.85 1.16 1.5 1.23 1.43s-1.69-3-2-3c-.16 0 .2.69.8 1.55m-72.24-.76a4.36 4.36 0 0 0 .34 1.4c.22.5.34.58.34.2a4.36 4.36 0 0 0-.34-1.4c-.22-.5-.34-.58-.34-.2m184.28.7c-1.26 1.53-1.72 2.24-1.26 2s2.29-2.66 2-2.66a2.65 2.65 0 0 0-.75.7m-110.36 2.04c0 .46 8.75 9.24 9.21 9.24.2 0-.85-1.13-2.33-2.5s-3.63-3.53-4.78-4.8-2.1-2.13-2.1-1.94m104.8 4.22c-1.87 2-2.68 3-1.8 2.2 1.95-1.7 5.58-5.55 5.36-5.69a35.35 35.35 0 0 0-3.56 3.49m-6.8 6.1c-1.21 1-3.1 2.4-4.19 3.15s-1.82 1.37-1.61 1.36c.64 0 8.45-5.89 8.16-6.14a10.21 10.21 0 0 0-2.36 1.63m78.67.34c-.94 2-.81 2.3.18.44a4.3 4.3 0 0 0 .65-1.69c-.09-.09-.46.47-.83 1.25m-164.42 1c4.64 3.44 11.91 7.58 11.15 6.36a1 1 0 0 0-.72-.4c-.65 0-8-4.5-10.52-6.43a12.1 12.1 0 0 0-2.35-1.57 11.34 11.34 0 0 0 2.44 2m-77.71 5.68c2.24 4.28 4.26 7.57 4.26 6.94a4.59 4.59 0 0 0-.75-1.4c-.41-.58-1.69-2.86-2.85-5.06a48.08 48.08 0 0 0-2.52-4.4 21.67 21.67 0 0 0 1.86 3.92m155.66-1.69a14.25 14.25 0 0 1-2.15 1.2c-.53.22-.85.5-.72.63s4.27-2.15 4.27-2.5-.15-.19-1.4.67m79.65 8c-1 1.51-1.43 2.61-.71 1.79a15.15 15.15 0 0 0 1.95-3.38 7.54 7.54 0 0 0-1.24 1.59M175 272.4a1.42 1.42 0 0 0 1.12.37c.85 0 .85 0 .08-.37-1.1-.47-1.49-.47-1.2 0m38.6 0c-.82.26-.86.33-.2.35a2.82 2.82 0 0 0 1.4-.35c.7-.45.21-.45-1.2 0m-35.41.78a1.78 1.78 0 0 0 1.3.42c1.25 0 1.11-.19-.42-.56-.75-.18-1-.13-.88.14m32.21 0c-.82.26-.86.33-.2.35a2.82 2.82 0 0 0 1.4-.35c.7-.45.21-.45-1.2 0m-28.6.78c.76.35 3.72.58 3.37.27a11.27 11.27 0 0 0-2.17-.39c-1.35-.16-1.74-.13-1.2.12m24.2 0-1.4.3h1.4a6.69 6.69 0 0 0 2.2-.32l.8-.34h-.8a16.12 16.12 0 0 0-2.2.32m-126.59.8c.89 1.63 6.7 10 7.8 11.2s1.12 1.2.42.2c-.47-.66-2.4-3.45-4.3-6.2-3.26-4.71-4.69-6.61-3.92-5.2m107.47.06a75.45 75.45 0 0 0 7.92.26 75.6 75.6 0 0 0 7.92-.26c.51-.14-3.06-.26-7.92-.26s-8.43.12-7.92.26m119.78 4c-.8 1.15-1.74 2.5-2.1 3s-.55.9-.43.9a46.7 46.7 0 0 0 4-5.5c.73-1.27-.19-.29-1.5 1.6m-4.08 5.77c-.62.81-.92 1.34-.67 1.19.51-.32 2.24-2.66 2-2.66a7.26 7.26 0 0 0-1.3 1.47m-2.76 3.53c-.81 1-1.33 1.79-1.15 1.78s3.1-3.58 2.79-3.58a12.66 12.66 0 0 0-1.64 1.8m-210.95.1c3.4 4 5.93 6.87 5.93 6.64a57.55 57.55 0 0 0-4.9-5.82 2.83 2.83 0 0 1-.7-1.1c0-.17-.21-.32-.46-.32s-.26.24.13.7m206.88 4.78c-1.29 1.48-2.14 2.56-1.89 2.4a38.16 38.16 0 0 0 4.43-5.08 25.13 25.13 0 0 0-2.54 2.68M96 296.34c0 .37 5.94 6.27 6.09 6a24.16 24.16 0 0 0-3-3.25 21.47 21.47 0 0 0-3.1-2.79m190 6.59c-1.2 1.14-3 2.76-3.93 3.6s-1.67 1.59-1.59 1.67a8.21 8.21 0 0 0 1.93-1.48c4.49-4 6.08-5.57 5.94-5.71a10.83 10.83 0 0 0-2.35 1.92m-183.12.37c3.25 3.07 9.93 8.49 9.92 8.05 0-.19-.58-.73-1.29-1.2a64 64 0 0 1-5-4.1 44.35 44.35 0 0 0-3.93-3.25c-.14 0 0 .22.27.5M278 309.8c-1 .77-1.59 1.39-1.4 1.38.38 0 3.71-2.77 3.36-2.77a13.75 13.75 0 0 0-2 1.39m-164.73 2.05a20 20 0 0 0 2.74 2.15c1.37 1 2.38 1.57 2.24 1.35a20.72 20.72 0 0 0-2.74-2.15c-1.37-1-2.38-1.57-2.24-1.35m156.82 3.67c-6 4.12-6.18 4.26-4.33 3.26 2.75-1.49 9.86-6.57 8.9-6.36-.06 0-2.11 1.41-4.57 3.1M120 316.5a36.54 36.54 0 0 0 5.1 3.45c1.71.91.9.12-1.2-1.17-1.15-.71-2.51-1.56-3-1.88s-.9-.51-.9-.4m142 4.17c-2.38 1.36-3.47 2.13-3 2.12a3.86 3.86 0 0 0 1.39-.79 4.13 4.13 0 0 1 1.4-.8 4.13 4.13 0 0 0 1.4-.8c1.35-1.06 1-1-1.2.27m-135.4 0a37 37 0 0 0 4 2.32c2 1.05 3.42 1.72 3.2 1.5a39.73 39.73 0 0 0-4-2.31c-2-1.06-3.42-1.73-3.2-1.51m127.66 4.09c-4 2-5.33 2.8-3.4 2.06a60.76 60.76 0 0 0 7.55-3.82c0-.28.2-.37-4.14 1.79m-116.92 1.66c.84.44 1.63.72 1.74.6s-2.5-1.47-3-1.43c-.14 0 .44.38 1.29.83m110.31 1.4c-.74.33-1.25.68-1.13.8s.9-.16 1.74-.6c1.78-.94 1.38-1.06-.61-.2M150 331.6a2.69 2.69 0 0 0 1.2.39c.53 0 .53 0 0-.39a2.69 2.69 0 0 0-1.2-.39c-.53 0-.53.05 0 .39m88 0c-.53.35-.53.39 0 .39a2.69 2.69 0 0 0 1.2-.39c.53-.34.53-.39 0-.39a2.69 2.69 0 0 0-1.2.39m-2.4.8c-.53.34-.53.39 0 .39a2.69 2.69 0 0 0 1.2-.39c.53-.35.53-.39 0-.39a2.69 2.69 0 0 0-1.2.39m-80.8.8a2.69 2.69 0 0 0 1.2.39c.53 0 .53 0 0-.39a2.69 2.69 0 0 0-1.2-.39c-.53 0-.53.05 0 .39m78.2 0c-.5.22-.58.34-.2.34a4.36 4.36 0 0 0 1.4-.34c.5-.22.58-.34.2-.34a4.36 4.36 0 0 0-1.4.34m-75.4.8a2.69 2.69 0 0 0 1.2.39c.53 0 .53 0 0-.39a2.69 2.69 0 0 0-1.2-.39c-.53 0-.53 0 0 .39m72.6 0-.8.34h.8a3 3 0 0 0 1.4-.37c.8-.51-.2-.51-1.4 0m-69.8.8a3 3 0 0 0 1.4.37h.8l-.8-.34c-1.2-.51-2.2-.51-1.4 0m67 0c-.5.22-.58.34-.2.34a4.36 4.36 0 0 0 1.4-.34c.5-.22.58-.34.2-.34a4.36 4.36 0 0 0-1.4.34m-63.6.78c.77.35 2.91.58 2.57.27a9 9 0 0 0-1.77-.39c-1.11-.17-1.36-.13-.8.12m60 0c-1.09.28-1.11.31-.2.32a5.19 5.19 0 0 0 1.8-.32c1-.42.07-.42-1.6 0m-56.4.79c.76.34 3.31.57 3 .27a9.71 9.71 0 0 0-2-.39c-1.2-.16-1.53-.12-1 .12m52.4 0-1.2.3h1.2a6.15 6.15 0 0 0 2-.33l.8-.34h-.8a11 11 0 0 0-2 .32m-48.2.78c1 .34 3.48.55 3.17.27a11.46 11.46 0 0 0-2.17-.38c-1.35-.15-1.67-.12-1 .11m43.6 0-1.4.29h1.4a6.69 6.69 0 0 0 2.2-.32l.8-.34h-.8a16.12 16.12 0 0 0-2.2.32M177 338c1.2.31 6.08.54 5.77.27a24.14 24.14 0 0 0-3.57-.37c-2-.12-2.89-.08-2.2.1m31.6 0-2.4.27h2.2a17 17 0 0 0 3.4-.29c1.54-.39.34-.39-3.2 0m-23.4.86a169.69 169.69 0 0 0 18.6 0c1.1-.14-3.13-.26-9.4-.26s-10.41.12-9.2.26" transform="translate(-59.22 -68.6)" style="fill:#f4bc84;fill-rule:evenodd"/><path d="M213.7 68.7c16 .06 42.2.06 58.2 0s2.91-.1-29.1-.1-45.1 0-29.1.1m-32 .38a3.3 3.3 0 0 0 1.4 0c.39-.11.07-.19-.7-.19s-1.08.08-.7.19m-6.1.53c-.62.2-.09.24 1.4.1a14.53 14.53 0 0 0 2.57-.37c.32-.27-3-.06-4 .27m127.63-.27a6.47 6.47 0 0 0 1.37.42c.88.19 1 .16.6-.14s-2.37-.62-2-.28m-132.43 1c-.41.26-.09.31 1 .14 2-.3 2.31-.53.77-.52a4 4 0 0 0-1.77.38m-4.4.82c-.42.27-.19.31.8.13 1.73-.31 2.05-.54.77-.53a3.34 3.34 0 0 0-1.57.4M320 78.6c.77.87 1.45 1.67 1.5 1.76s.19.09.29 0-.57-.9-1.5-1.77L318.6 77l1.4 1.6m9.48 19a9.12 9.12 0 0 0 .38 1.95c.32.37.1-2.61-.24-3.15-.24-.37-.29 0-.14 1.2m-222.71 3.1-1 1.1 1.2-1c.66-.55 1.28-1 1.37-1.1s0-.1-.23-.1a3.56 3.56 0 0 0-1.37 1.1m-3.51 2.94a9.37 9.37 0 0 0-2 2.17 10.15 10.15 0 0 0 2.33-2c2.71-2.74 2.5-2.83-.35-.15M88.74 119.1c-1.15 1.39-1.63 2.1-1.44 2.1a6.21 6.21 0 0 0 1.27-1.4c1.09-1.43 1.22-2 .17-.7m101 15.19a7 7 0 0 0 2 0c.49-.09 0-.17-1.11-.17s-1.5.09-.89.18m8.8 0a7 7 0 0 0 2 0c.49-.09 0-.17-1.11-.17s-1.5.09-.89.18m-13 .39a4.46 4.46 0 0 0 1.59 0c.39-.11 0-.18-.9-.18s-1.19.09-.69.18m17.19 0a5.44 5.44 0 0 0 1.8 0c.49-.09.09-.17-.9-.17s-1.39.08-.9.17m-22.2.8a3.3 3.3 0 0 0 1.4 0c.39-.1.07-.19-.7-.19s-1.08.09-.7.19m27.6 0a3.3 3.3 0 0 0 1.4 0c.38-.1.07-.19-.7-.19s-1.09.09-.7.19m-31.7.94c-.44.29-.28.33.6.14 1.47-.33 1.79-.56.77-.55a2.93 2.93 0 0 0-1.37.41m35.23-.28a6.47 6.47 0 0 0 1.37.42c.88.19 1 .15.6-.14s-2.37-.62-2-.28m-53.45 8.05c-.43.32-.6.58-.38.58a2.9 2.9 0 0 0 1.18-.58c.42-.33.59-.59.37-.59a2.74 2.74 0 0 0-1.17.59m79.16 4.12c.32.51 2.66 2.24 2.66 2a7.74 7.74 0 0 0-1.47-1.29c-.81-.62-1.34-.92-1.19-.67m-88.45 2.79-2 1.9 1.83-1.56c2.58-2.19 2.63-2.24 2.35-2.24a13.34 13.34 0 0 0-2.22 1.9m92.35.6c.09.06.79.64 1.56 1.3l1.4 1.2-1.16-1.36a4.59 4.59 0 0 0-1.56-1.3c-.22 0-.32.05-.22.1m4 3.62a10.29 10.29 0 0 0 1.3 1.31l1.3 1.17-1.17-1.3c-1.1-1.21-1.43-1.48-1.43-1.18m6.21 7.44a15 15 0 0 0 1.86 2.28c.21.13-.27-.67-1.08-1.8a15 15 0 0 0-1.86-2.28c-.21-.13.27.67 1.08 1.8m-114.71 1.94c-.7.82-1.23 1.7-1 1.7a6 6 0 0 0 1-1.2c1-1.3.95-1.63 0-.5m-72.27.57a7.71 7.71 0 0 1-.28 1.4c-.22.69-.21.69.23 0a2 2 0 0 0 .27-1.4c-.16-.62-.18-.62-.22 0m189.17.53a3.79 3.79 0 0 0 .82 1.4c.54.66.68.73.4.2-.67-1.3-1.23-2-1.22-1.6m-119.07 2.3c-1.37 2.34-1.46 2.53-.76 1.7s1.51-2.2 1.25-2.2c-.11 0-.33.22-.49.5m68.79 3.81c-.26.16.31.29 1.26.29s1.52-.13 1.26-.29a2.8 2.8 0 0 0-2.52 0m5.46 1.46c0 .42 1.21 1.56 1.42 1.34s-.18-.51-.62-.91-.8-.59-.8-.43m4 5a7.76 7.76 0 0 0 1.3 1.47c.25.15-.05-.38-.66-1.19-1.34-1.76-1.85-2-.64-.28m4.4 5.63a8.54 8.54 0 0 0 1.47 1.6c.11 0-.37-.72-1.07-1.6a8.54 8.54 0 0 0-1.47-1.6c-.11 0 .37.72 1.07 1.6m-156.94.48a7.64 7.64 0 0 0-.21 1.92c0 .59.18.27.39-.77.36-1.88.23-2.7-.18-1.15m-.8 6.8a11.12 11.12 0 0 0-.21 2.52c0 1.38.1 1.27.39-.77.36-2.43.26-3.38-.18-1.75m66.19.39a6.45 6.45 0 0 1-.31 1.4c-.2.56-.15.63.23.28a1.66 1.66 0 0 0 .32-1.4c-.1-.52-.21-.65-.24-.28m138.84 3.13c0 .77.09 1.08.19.7a3.3 3.3 0 0 0 0-1.4c-.1-.39-.19-.07-.19.7M125 198.7v2.3h38.4l-19.08-.11-19.08-.11-.15-2.2-.16-2.19v2.3m139.89.41-.06 1.71-17.36-.11c-9.55-.06-17.16 0-16.9.18s8.07.3 17.37.3c18.56 0 17.5.16 17.18-2.45-.14-1.2-.17-1.16-.23.37m-49.24 5.66a42.75 42.75 0 0 0 2.95 3.54 16.79 16.79 0 0 0-2.15-3.05 37.06 37.06 0 0 0-2.95-3.54 16.79 16.79 0 0 0 2.15 3.05m-45.05 2.16a7.49 7.49 0 0 0 1.31 1.47c.27 0-1.46-2.34-2-2.66-.25-.15.05.38.66 1.19m29.92 4.37c-.68 1.88-.59 2.39.14.73a4.34 4.34 0 0 0 .47-1.73c-.06-.2-.34.25-.61 1m129.18.9c0 1.1-.16 2.72-.27 3.6l-.19 1.6.41-1.6a13.38 13.38 0 0 0 .27-3.6l-.14-2-.08 2m-107 1.2a5 5 0 0 0 1.49 1c.18 0-.2-.45-.86-1a5.22 5.22 0 0 0-1.49-1c-.17 0 .22.45.86 1m-163.41 1a8.3 8.3 0 0 0 .39 2.57c.24.53.28 0 .12-1.6-.29-2.9-.55-3.39-.51-1m166.11.46c.25.17 9 .3 19.53.3h19.07l.18.9.17.9.06-.91c0-.5-.18-1-.45-1.1-.85-.31-39-.41-38.56-.1m-99.92.27a1.89 1.89 0 0 0 .19 1.3c.39.91.4.91.25-.16l-.15-1.09 16.85-.11 16.88-.02-16.88-.09c-9.79-.06-17 0-17.1.26m38.76 6.57a7.26 7.26 0 0 0 1.3 1.47c.27 0-1.46-2.34-2-2.66-.25-.15.05.38.67 1.19m164.7-.74a15.33 15.33 0 0 1-.28 1.8c-.19.86-.16.9.23.29a3.06 3.06 0 0 0 .29-1.8c-.11-.71-.19-.81-.24-.29M60 221.63a5.38 5.38 0 0 0 .39 1.77c.25.56.29.31.12-.8-.28-1.86-.55-2.36-.51-1m268 4.84a7.71 7.71 0 0 1-.28 1.4c-.22.69-.21.69.23 0a2 2 0 0 0 .27-1.4c-.16-.62-.18-.62-.22 0M60.83 227a3 3 0 0 0 .37 1.4c.51.8.51-.2 0-1.4l-.34-.8v.8m107.57.05a6 6 0 0 0 1.23 1.77l1.23 1.38-1.12-1.6c-.61-.88-1.16-1.67-1.22-1.77s-.12 0-.12.22m3.19 4.54a7.76 7.76 0 0 0 1.3 1.47c.25.15 0-.38-.66-1.19-1.34-1.75-1.85-2-.64-.28m155.66-.92a7.62 7.62 0 0 1-.31 1.2c-.2.57-.15.63.24.27a1.33 1.33 0 0 0 .3-1.2c-.1-.41-.21-.53-.23-.27m-193.86 8a22.72 22.72 0 0 0 1.87 2.9l.84 1-.73-1.2c-.4-.66-1.16-2-1.68-2.9a7.05 7.05 0 0 0-1.15-1.7 6.39 6.39 0 0 0 .85 1.9m44.58 1.46a10.71 10.71 0 0 0 1.27 1.3l1.28 1.17-1-1.28c-.82-1.08-1.57-1.65-1.57-1.19m5.06 3.57c.24.39 2.2.38 2.82 0 .26-.16-.31-.3-1.26-.29s-1.66.15-1.56.31m67.48 3.4c-.6.83-1.55 2-2.12 2.69-.9 1.05-.91 1.1-.1.42s3.83-4.61 3.5-4.61a7.48 7.48 0 0 0-1.28 1.5m-183.7 2.27c0 .56 2.08 5.85 2.26 5.66a15 15 0 0 0-1-3.1 9.94 9.94 0 0 0-1.22-2.56m78.47 4.81a11.83 11.83 0 0 0 2.41 2.18 12.72 12.72 0 0 0-2.29-2.36l-2.45-2.19 2.29 2.37m99.39-.39c-.62.55-1 1-.77 1a3.58 3.58 0 0 0 1.29-1c1.2-1.27.93-1.27-.52 0M69.2 255.68a11 11 0 0 0 1.41 3.12c.11 0-.08-.67-.42-1.48-.6-1.43-1-2.08-1-1.64m248.55 4.22c-.38.83-.76 1.64-.84 1.8s-.06.3 0 .3a4.64 4.64 0 0 0 .89-1.5c.38-.83.76-1.64.84-1.8s.07-.3-.05-.3a4.78 4.78 0 0 0-.89 1.5m-159.09 4.7c.89.74 3.43 2.11 2.8 1.51a14.91 14.91 0 0 0-2-1.28c-.88-.5-1.24-.6-.8-.23m69 1.8c-.77.42-1.26.77-1.08.78a7.21 7.21 0 0 0 2.68-1.39c0-.26 0-.25-1.6.61m-63.2 1.4a10 10 0 0 0 2.2 1c.22 0-.41-.43-1.4-1a10 10 0 0 0-2.2-1c-.22 0 .41.43 1.4 1m18 5.8c1.54.49 2.36.49 1.6 0a3.32 3.32 0 0 0-1.6-.35h-1l1 .32m23.6 0c-.42.27-.18.31.8.13 1.72-.32 2-.54.77-.53a3.37 3.37 0 0 0-1.57.4m-17.4.81c2.84.44 5 .41 2.8 0a17.33 17.33 0 0 0-3.2-.3c-1.57 0-1.56 0 .4.34m9.6 0-1.2.3h1.2a26.58 26.58 0 0 0 3.2-.3l2-.31h-2a16.25 16.25 0 0 0-3.2.3M307 279c-.36.55-.5 1-.31 1s.55-.45.8-1 .39-1 .31-1a3.86 3.86 0 0 0-.8 1m-221.89 5a36.28 36.28 0 0 0 2.48 3.2c.69.77.33.14-.81-1.4-2.44-3.31-3.42-4.36-1.67-1.8m216.18 3a7.31 7.31 0 0 0-1.14 1.76 13.56 13.56 0 0 0 2.6-3.37c-.08-.08-.74.65-1.46 1.61M92 292.6c.55.66 1 1.28 1.1 1.37s.19.08.3 0-.39-.73-1.1-1.37l-1.3-1.2 1 1.2m204.43.32-1 1.28 1.28-1.18c1.32-1.22 1.47-1.44 1-1.4a4.62 4.62 0 0 0-1.27 1.3m-200.44 4a9.56 9.56 0 0 0 1.3 1.31l1.3 1.17-1.17-1.3c-1.1-1.21-1.43-1.48-1.43-1.18m192.59 4.38-2.79 2.9 2.9-2.79c2.69-2.59 3.08-3 2.79-3-.06 0-1.37 1.3-2.9 2.9m-187.79.5a20.64 20.64 0 0 0 2.37 2.2 14.43 14.43 0 0 0-2-2.2 20.64 20.64 0 0 0-2.37-2.2 14.43 14.43 0 0 0 2 2.2m182.58 4.3-1.18 1.3 1.3-1.17a10.29 10.29 0 0 0 1.3-1.31c0-.3-.33 0-1.42 1.18m-177.29.51c.6.63 1.16 1.07 1.24 1s-.4-.62-1.08-1.15l-1.25-1 1.09 1.14m11.91 9.13c.53.66 2 1.65 2 1.35a6.64 6.64 0 0 0-1.3-1.09c-.8-.59-1.08-.69-.73-.26m4.63 3.06c.27.44 2.6 1.73 2.6 1.45a5.86 5.86 0 0 0-1.42-1c-.79-.46-1.32-.66-1.18-.44m142.7.45c-1.36.87-1.81 1.46-.6.79.92-.5 2.36-1.61 2.1-1.62a8.17 8.17 0 0 0-1.5.83m-110.07 14.48a6.26 6.26 0 0 0 1.37.42c.88.19 1 .16.6-.14s-2.37-.62-2-.28m67.17 2.67c-.42.27-.19.31.8.13 1.73-.31 2.05-.54.77-.53a3.34 3.34 0 0 0-1.57.4m-54.37.53a9.71 9.71 0 0 0 2 .39c1.2.16 1.53.12 1-.12-.76-.34-3.31-.57-3-.27m50.17.27c-.53.24-.2.28 1 .12a9.71 9.71 0 0 0 2-.39c.34-.3-2.21-.07-3 .27m-43.8.79a7.06 7.06 0 0 0 1.8.32c.63 0 .59-.07-.2-.32a7.06 7.06 0 0 0-1.8-.32c-.63 0-.59.07.2.32m38.8 0c-.79.25-.83.32-.2.32a7.06 7.06 0 0 0 1.8-.32c.79-.25.83-.32.2-.32a7.06 7.06 0 0 0-1.8.32m-32.6.79c1.22.32 4.47.53 4.17.26a17.78 17.78 0 0 0-2.77-.37c-1.64-.13-2.16-.1-1.4.11m25.2 0c-1.36.24-1.42.29-.4.32a14.24 14.24 0 0 0 2.8-.3c2.09-.43 0-.45-2.4 0m-12.3.68a5.44 5.44 0 0 0 1.8 0c.49-.09.09-.17-.9-.17s-1.39.08-.9.17" transform="translate(-59.22 -68.6)" style="fill:#fce2c5;fill-rule:evenodd"/></svg>