<svg width="2500" height="2119" viewBox="0 0 256 217" xmlns="http://www.w3.org/2000/svg" preserveAspectRatio="xMidYMid"><path d="M219.172 0h-71.08c-.736 0-1.446.269-2 .754L130 12.181a3.035 3.035 0 0 1-4 0L109.91.754a3.032 3.032 0 0 0-2-.754H36.83c-.84 0-1.65.345-2.224.958C13.253 23.731.135 54.317.001 87.965-.273 157.81 56.328 215.492 126.168 216.47 197.699 217.469 256 159.784 256 88.482c0-33.854-13.145-64.634-34.607-87.524A3.043 3.043 0 0 0 219.172 0zm-27.587 32.946c12.98 14.844 20.86 34.265 20.86 55.536 0 48.156-40.312 86.895-89.026 84.321-43.439-2.295-78.304-37.851-79.81-81.324-.778-22.435 7.216-42.986 20.799-58.528 1.042-1.193.966-2.991-.151-4.111L38.119 2.618l86.078 61.768a6.071 6.071 0 0 0 7.607 0l86.02-61.71-26.08 26.161c-1.114 1.12-1.198 2.919-.159 4.11z" fill="#FF6B6B"/></svg>