<svg xmlns="http://www.w3.org/2000/svg" width="238" height="238" viewBox="0 0 238 238"><defs><radialGradient id="a" cx="157.52" cy="155.44" r="54.08" gradientTransform="translate(-103 -51)" gradientUnits="userSpaceOnUse"><stop offset="0" stop-color="#fff" stop-opacity=".18"/><stop offset="1" stop-color="#ccc" stop-opacity="0"/></radialGradient><clipPath id="b"><circle cx="170" cy="170" r="51"/></clipPath></defs><rect width="152" height="104" x="67" y="67" fill="#1e1e1c" rx="18"/><rect width="100" height="18" x="85" y="57" fill="#151513" rx="8"/><rect width="152" height="14" x="67" y="67" fill="#fff" opacity=".06" rx="18"/><rect width="152" height="16" x="67" y="155" opacity=".18" rx="18"/><circle cx="189" cy="97" r="7" fill="#888880" opacity=".4"/><circle cx="189" cy="97" r="4" fill="#555550" opacity=".6"/><rect width="22" height="44" x="215" y="87" fill="#151513" rx="8"/><rect width="14" height="14" x="219" y="91" fill="#2e2e2c" opacity=".8" rx="3"/><circle cx="67" cy="119" r="68" fill="#4a4a48"/><circle cx="67" cy="119" r="68" fill="none" stroke="#6a6a68" opacity=".5"/><circle cx="67" cy="119" r="60" fill="#363634"/><circle cx="67" cy="119" r="52" fill="#e8e6e0"/><circle cx="67" cy="119" r="52" fill="url(#a)"/><circle cx="67" cy="119" r="44" fill="none" stroke="#555550" stroke-width=".7" opacity=".3"/><circle cx="67" cy="119" r="34" fill="none" stroke="#555550" stroke-width=".5" opacity=".2"/><g stroke="#111110" stroke-linecap="round" stroke-width="6" clip-path="url(#b)" transform="translate(-103 -51)"><path fill="none" d="M198 162a28 28 0 1 0 0 16"/><path d="M198 170h-24"/></g></svg>