<svg xmlns="http://www.w3.org/2000/svg" width="256" height="255.448"><path d="M119.719 253.069C112.373 248.303 1.956 136.479.805 132.64c-2.705-9.026-.739-11.588 40.621-52.926l39.885-39.863 14.396 14.281c12.07 11.975 14.28 14.89 13.683 18.045-1.22 6.441.755 12.155 6.018 17.417l5.063 5.064v68.788l-4.54 4.35c-9.646 9.241-8.422 24.223 2.534 30.994 12.122 7.491 29.104-1.415 29.104-15.263 0-6.79-2.58-12.784-7.373-17.12-3.026-2.74-3.165-4.26-3.165-34.747 0-17.536.473-32.355 1.05-32.933.577-.577 6.335 4.206 12.796 10.629 11.202 11.136 11.747 11.993 11.752 18.487.015 17.865 18.195 26.899 31.537 15.672 2.494-2.098 5.3-6.373 6.237-9.5 1.447-4.828 1.255-6.698-1.275-12.417-3.431-7.756-10.105-11.785-19.523-11.785-5.435 0-6.924-1.048-18.967-13.355-12.389-12.66-13.07-13.698-13.079-19.947-.017-11.879-7.43-19.239-19.474-19.335-6.417-.051-7.266-.632-21.017-14.383L92.74 28.463l13.454-13.516C120.58.493 125.684-2.03 133.76 1.313c5.473 2.267 120.053 117.196 121.434 121.804 2.787 9.303 1.677 10.641-59.94 72.244-54.723 54.71-59.652 59.245-65.112 59.914-4.236.52-7.183-.105-10.422-2.206z" fill="#f2502a"/></svg>