<svg xmlns="http://www.w3.org/2000/svg" width="256" height="249.678"><path d="M128 0C57.317 0 0 57.304 0 128c0 56.552 36.676 104.531 87.534 121.457 6.397 1.185 8.746-2.777 8.746-6.158 0-3.05-.119-13.135-.174-23.83-35.61 7.742-43.124-15.103-43.124-15.103-5.822-14.793-14.212-18.73-14.212-18.73-11.613-7.943.876-7.78.876-7.78 12.853.903 19.62 13.192 19.62 13.192 11.417 19.567 29.945 13.91 37.25 10.639 1.15-8.271 4.465-13.92 8.126-17.116-28.43-3.235-58.318-14.212-58.318-63.258 0-13.973 5-25.394 13.189-34.357-1.33-3.224-5.71-16.243 1.242-33.874 0 0 10.748-3.438 35.207 13.122 10.21-2.836 21.16-4.258 32.038-4.309 10.878.051 21.836 1.473 32.066 4.31 24.43-16.561 35.164-13.123 35.164-13.123 6.968 17.63 2.586 30.65 1.257 33.874 8.207 8.963 13.172 20.384 13.172 34.357 0 49.164-29.944 59.987-58.447 63.156 4.591 3.972 8.682 11.762 8.682 23.704 0 17.126-.146 30.91-.146 35.126 0 3.409 2.302 7.398 8.79 6.143C219.37 232.498 256 184.535 256 128 256 57.304 198.692 0 128 0" fill="#1b1817" fill-rule="evenodd"/><path d="M48.481 183.778c-.282.638-1.282.83-2.194.393-.93-.42-1.45-1.287-1.149-1.925.276-.653 1.276-.835 2.205-.399.928.418 1.458 1.293 1.138 1.931m5.185 5.784c-.61.566-1.806.303-2.613-.592-.84-.892-.994-2.087-.375-2.66.63-.566 1.786-.3 2.624.592.839.903 1.002 2.085.364 2.66m5.047 7.371c-.784.547-2.069.036-2.862-1.102-.784-1.14-.784-2.506.02-3.053.792-.547 2.058-.053 2.86 1.075.783 1.157.783 2.522-.018 3.08m6.913 7.123c-.701.773-2.196.566-3.29-.492-1.118-1.03-1.43-2.495-.728-3.269.712-.775 2.215-.557 3.317.49 1.11 1.03 1.448 2.505.701 3.27m9.539 4.136c-.312 1.003-1.749 1.456-3.199 1.03-1.448-.438-2.395-1.61-2.102-2.624.3-1.009 1.746-1.484 3.207-1.028 1.445.437 2.395 1.603 2.094 2.622m10.475.766c.037 1.056-1.193 1.931-2.714 1.95-1.53.034-2.77-.82-2.788-1.859 0-1.066 1.204-1.93 2.732-1.958 1.522-.03 2.77.82 2.77 1.867m9.748-1.658c.182 1.028-.875 2.086-2.387 2.368-1.485.273-2.861-.365-3.05-1.384-.184-1.056.89-2.114 2.376-2.387 1.514-.263 2.868.356 3.061 1.403" fill="#1b1817"/></svg>