<svg xmlns="http://www.w3.org/2000/svg" viewBox="0 0 737 411"><path d="M491.7 312.8c-4.2 11.3-10.2 21-18 29.1-7.8 8.1-17.1 14.4-28 18.8s-22.9 6.7-36 6.7c-20.4 0-37.9-5.1-52.4-15.2s-24-23.9-28.5-41.5h29.6c2.9 6.4 6.5 11.6 11 15.5 4.4 3.9 9.2 6.8 14.2 8.8s9.8 3.3 14.5 4 8.5 1 11.7 1c10.9 0 20.1-1.9 27.8-5.8 7.7-3.9 13.9-8.9 18.6-15 4.8-6.1 8.2-13 10.3-20.8 2.1-7.8 3.2-15.5 3.2-23.3v-18c-6.2 8.4-14.4 15.6-24.5 21.5s-21.4 8.8-33.8 8.8-23.9-2.3-34.3-7-19.5-11.1-27.1-19.3c-7.7-8.2-13.7-17.8-18-28.6-4.3-10.9-6.5-22.5-6.5-35s2.2-24.1 6.5-35.1 10.3-20.5 18-28.6c7.7-8.1 16.7-14.5 27.1-19.3s21.9-7.2 34.3-7.2c12.7 0 24.2 3.1 34.6 9.3 10.4 6.2 18.6 13.7 24.6 22.3v-27.3h27.3v163.5c.2 13.8-1.9 26.4-6.2 37.7zm-26.6-139.9c-3.1-7.8-7.3-14.6-12.7-20.5-5.3-5.9-11.5-10.5-18.5-13.8-7-3.3-14.5-5-22.5-5s-15.5 1.7-22.6 5c-7.1 3.3-13.2 7.9-18.3 13.8-5.1 5.9-9.2 12.7-12.2 20.5-3 7.8-4.5 16.1-4.5 25 0 8.7 1.5 16.9 4.5 24.6 3 7.8 7 14.5 12.2 20.3 5.1 5.8 11.2 10.3 18.3 13.7 7.1 3.3 14.7 5 22.6 5 8 0 15.5-1.7 22.5-5s13.2-7.9 18.5-13.7c5.3-5.8 9.5-12.5 12.7-20.3 3.1-7.8 4.7-16 4.7-24.6 0-8.9-1.6-17.2-4.7-25zm173.3-58.4c10.5 4.8 19.6 11.3 27.3 19.5 7.7 8.2 13.7 17.8 18.1 28.8 4.4 11 6.7 22.7 6.7 35.1s-2.2 24-6.7 34.8c-4.4 10.8-10.5 20.2-18.1 28.3-7.7 8.1-16.8 14.5-27.3 19.1s-21.9 7-34.1 7c-12.2 0-23.5-2.3-34-7s-19.5-11-27.3-19.1c-7.8-8.1-13.9-17.5-18.3-28.3s-6.7-22.4-6.7-34.8 2.2-24.1 6.7-35.1c4.4-11 10.5-20.6 18.3-28.8 7.8-8.2 16.9-14.7 27.3-19.5s21.8-7.2 34-7.2 23.6 2.4 34.1 7.2zm-11.6 141.7c7-3.3 13.2-7.8 18.5-13.5 5.3-5.7 9.5-12.4 12.5-20.1 3-7.8 4.5-16 4.5-24.6 0-8.9-1.5-17.3-4.5-25.1-3-7.9-7.2-14.7-12.5-20.5-5.3-5.8-11.5-10.4-18.5-13.8s-14.5-5.2-22.5-5.2-15.5 1.7-22.5 5.2-13.1 8-18.3 13.8-9.3 12.6-12.3 20.5-4.5 16.3-4.5 25.1c0 8.7 1.5 16.9 4.5 24.6 3 7.8 7.1 14.5 12.3 20.1 5.2 5.7 11.3 10.2 18.3 13.5 7 3.3 14.5 5 22.5 5s15.5-1.7 22.5-5zM70.9 326c-4.6 0-9.2-1.1-13.4-3.4-9.2-4.9-15-14.5-15-25V184.3c0-15.7 12.7-28.3 28.3-28.3s28.3 12.7 28.3 28.3v60.4l90.6-60.4L55.1 94.5c-13-8.7-16.5-26.3-7.9-39.3 8.7-13 26.3-16.5 39.3-7.9l170.1 113.4c7.9 5.3 12.6 14.1 12.6 23.6s-4.7 18.3-12.6 23.6l-170 113.3c-4.8 3.2-10.2 4.8-15.7 4.8z"/></svg>