<svg width="1900" height="1900" viewBox="0 0 1900 1900" fill="none" xmlns="http://www.w3.org/2000/svg">
<path d="M1684.54 829.281H1231.21C1205.16 829.487 1185.37 855.951 1194.73 880.205L1303.66 1162.88C1308.49 1175.52 1298.68 1188.93 1285.17 1188.11L1146.06 1179.63C1139.64 1179.22 1133.47 1182.2 1129.72 1187.44L1021.19 1340.73C1015.59 1349.67 1003.67 1352.14 994.935 1346.23L834.661 1237.08C828.34 1232.77 820.067 1232.77 813.747 1237.08L591.552 1387.59C577.215 1397.31 558.51 1383.89 563.187 1367.19L624.902 1145.56C627.42 1136.47 622.743 1126.91 614.008 1123.37L496.384 1075.32C484.822 1070.59 481.123 1056.05 488.985 1046.39L592.991 918.026C598.181 911.602 598.54 902.558 593.864 895.724L506.559 769.159C498.388 757.34 506.148 741.154 520.433 740.023L655.99 729.592C666.114 728.821 673.719 720.085 673.154 709.962L662.414 519.884C661.643 506.164 675.466 496.4 688.158 501.642L856.706 571.63C864.054 574.713 872.584 572.709 877.826 566.697L993.496 436.895C1002.59 426.566 1019.4 429.289 1024.69 442.033L1094.16 621.218C1103.46 643.519 1131.26 651.227 1150.69 636.839L1423.45 433.863C1454.38 410.944 1434.49 361.973 1396.37 367.061L1217.08 391.161C1208.65 392.291 1200.53 387.564 1197.35 379.65L1103.51 137.723C1093.29 112.389 1060.14 106.326 1041.59 126.418L836.254 349.384C830.91 355.139 822.534 356.989 815.34 353.906L544.996 239.674C520.947 229.499 494.175 246.611 493.301 272.664L483.692 551.384C483.384 560.941 475.83 568.701 466.272 569.317L219.412 585.299C190.687 587.148 174.86 619.522 190.995 643.365L355.072 885.138C359.799 892.127 359.234 901.428 353.684 907.8L187.141 1099.11C170.594 1118.12 177.326 1147.77 200.501 1157.74L391.453 1240.06C399.881 1243.71 404.403 1252.91 402.09 1261.8L279.739 1738.97C271.106 1772.68 309.286 1798.74 337.497 1778.44L796.275 1448.85C802.699 1444.22 811.332 1444.17 817.806 1448.74L1026.74 1595.3C1043.91 1607.32 1067.6 1602.85 1079.16 1585.38L1210.04 1384.87C1213.94 1378.86 1220.98 1375.62 1228.08 1376.6L1540.92 1414.52C1566.2 1418.48 1591.22 1397.26 1582.33 1374.03L1452.27 1037.4C1448.88 1028.35 1452.27 1018.02 1463.53 1012.63L1700.68 900.194C1736.7 883.134 1724.31 829.024 1684.44 829.333L1684.54 829.281Z" fill="#8039DF"/>
</svg>
