<svg xmlns="http://www.w3.org/2000/svg" width="176" height="138" fill="none" viewBox="0 0 176 138"><path fill="url(#a)" d="M102.015 81.88c-6.829-4.718-6.921-14.778-.179-19.62L157 22.643c7.94-5.701 19-.038 19 9.737v77.755c0 9.675-10.861 15.359-18.821 9.859z" style="fill:url(#a)"/><path fill="url(#b)" d="M0 44C0 19.7 19.7 0 44 0h64c11.046 0 20 8.954 20 20v98c0 11.046-8.954 20-20 20H20c-11.046 0-20-8.954-20-20Z" style="fill:url(#b)"/><mask id="d" width="129" height="138" x="8" y="27" maskUnits="userSpaceOnUse"><path fill="#fff" d="M8 71c0-24.3 19.7-44 44-44h64c11.046 0 20 8.954 20 20v98c0 11.046-8.954 20-20 20H28c-11.046 0-20-8.954-20-20Z"/></mask><g filter="url(#c)" mask="url(#d)" transform="translate(-8 -27)"><path fill="url(#f)" d="m73.906 99.198 110-63.198v124z" style="fill:url(#f)"/></g><circle cx="30" cy="108" r="14" fill="#fff"/><defs><linearGradient id="a" x1="128.8" x2="227.2" y1="104.44" y2="104.44" gradientTransform="translate(-8 -27)" gradientUnits="userSpaceOnUse"><stop stop-color="#f6a100"/><stop offset="1" stop-color="#ffbe00"/></linearGradient><linearGradient id="f" x1="136.22" x2="78.5" y1="91.32" y2="91.19" gradientUnits="userSpaceOnUse"><stop offset=".15" stop-color="#ffb5e8"/><stop offset="1" stop-color="#ffdbf5" stop-opacity="0"/></linearGradient><radialGradient id="b" cx="0" cy="0" r="1" gradientTransform="matrix(-159.725 0 0 -135.852 152.325 69)" gradientUnits="userSpaceOnUse"><stop offset=".15" stop-color="#ffe921"/><stop offset="1" stop-color="#fec700"/></radialGradient><filter id="c" width="166" height="180" x="45.91" y="8" color-interpolation-filters="sRGB" filterUnits="userSpaceOnUse"><feFlood flood-opacity="0" result="BackgroundImageFix"/><feBlend in="SourceGraphic" in2="BackgroundImageFix" result="shape"/><feGaussianBlur result="effect1_foregroundBlur_37584_9338" stdDeviation="14"/></filter></defs></svg>