<svg xmlns="http://www.w3.org/2000/svg" viewBox="0 0 256 256" height="256" width="256"><defs><clipPath id="a"><path d="M0 3644.67V0h3650v3644.67H0z"/></clipPath></defs><g clip-path="url(#a)" transform="matrix(.07014 0 0 -.07014 0 255.813)"><path d="M3419.88 0H1994.4l-453.86 2921.28h1879.34c127.09 0 230.12-103.03 230.12-230.12V230.121C3650 103.031 3546.97 0 3419.88 0" fill="#e8e7e6"/><path d="M3419.88 0H1994.4l-453.86 2921.28h402.72L3650 1227.32V230.121C3650 103.031 3546.97 0 3419.88 0" fill="#dbdad8"/><path d="M1994.4 0l626.44 687.98h-862.96L1994.4 0" fill="#474faa"/><path d="M230.121 3644.67H1668.39l952.45-2956.69H230.121C103.027 687.98 0 791.012 0 918.102V3414.55c0 127.09 103.027 230.12 230.121 230.12" fill="#6484cb"/><path d="M3119.44 1921.95h300.44v140.63H2735.9v226.92h-230.12v-230.12h-370.75v-137.43h818.21s-48.71-234.05-246.77-450.19c-149.87 176.76-191.1 277.59-191.1 277.59h-182.18s34.79-85.25 150.22-255.69c21.15-31.23 61.91-79.52 113.05-136.28-151.14-154.6-234.51-231.27-234.51-231.27l115.06-95.89s105.95 95.7 223.29 214.98c190.54-201.55 428.73-435.509 428.73-435.509l108.67 118.258s-140.63 134.231-399.52 399.511c-10.38 10.64-20.34 21.04-30.1 31.32 42.78 47.03 83.18 94.27 116.39 138.08 150.22 198.16 194.97 425.09 194.97 425.09" fill="#5b7888"/><path d="M1019.6 2296.24c.02-77.9-.1-155.8.04-233.68 108.77.02 217.54.05 326.29 0-12.61-74.65-56.97-142.91-119.88-184.94-39.55-26.59-84.99-43.85-131.83-52.05-47.14-8.05-95.857-9.08-142.888.44-47.824 9.54-93.473 29.47-133.301 57.55-63.679 44.74-112.277 110.2-137.23 183.87-25.512 74.92-25.699 158.3.117 233.15 17.914 52.76 47.73 101.5 86.902 141.16 48.317 49.47 111.133 84.82 178.813 99.32 57.947 12.38 119.057 10.01 175.797-7.15 48.22-14.64 92.67-41.07 129.09-75.84 36.81 36.6 73.43 73.41 110.17 110.08 19.27 19.73 39.52 38.61 58.18 58.88-55.8 51.64-121.21 93.15-192.67 119.39-128.68 47.36-273.786 48.36-403.321 3.53-145.977-49.98-270.274-159.14-339.191-297.12-23.997-47.55-41.512-98.29-52.036-150.49-26.472-130.05-8.019-268.71 51.965-387.16 38.985-77.31 94.875-146.04 162.672-199.93 63.961-51 138.516-88.68 217.563-109.7 99.742-26.75 205.918-26.15 306.308-3.3 90.74 20.89 176.59 64.24 245.14 127.53 72.45 66.58 124.13 154.3 151.49 248.57 29.84 102.83 33.96 212.6 15.25 317.86-187.82.1-375.63.05-563.44.03" fill="#fff"/></g></svg>