<svg xmlns="http://www.w3.org/2000/svg" width="256" height="256"><defs><clipPath id="a"><path d="M0 512h512V0H0v512z"/></clipPath></defs><g clip-path="url(#a)" transform="matrix(.94037 0 0 -.94037 -112.733 368.734)"><path d="M192.038 382.149c2.057.334 4.285.368 6.214-.543 2.854-1.15 4.873-3.883 5.564-6.828.235-2.095.167-4.316-.824-6.23-1.8-3.954-6.585-6.235-10.787-5.138-4.312.964-7.52 5.113-7.477 9.519-.084 4.289 3.199 8.207 7.31 9.22m123.31.015c2.084.326 4.33.33 6.267-.626 3.203-1.412 5.374-4.756 5.606-8.222-.004-2.668-.896-5.454-2.873-7.322-1.682-1.772-4.104-2.751-6.521-2.861-3.743-.054-7.516 2.182-8.981 5.674-.95 1.864-.831 4.012-.71 6.03.71 3.562 3.693 6.503 7.212 7.327m-12.374-145.773c4.877.023 9.755.027 14.628 0-.06-19.384-.011-38.773-.022-58.157-4.86 0-9.717-.004-14.58.004-.011 19.384.042 38.77-.026 58.153" fill="#fff"/><path d="M315.348 382.164c-3.52-.824-6.502-3.765-7.212-7.326-.121-2.02-.24-4.167.71-6.031 1.465-3.492 5.238-5.728 8.98-5.674 2.417.11 4.84 1.089 6.521 2.86 1.978 1.869 2.87 4.655 2.874 7.323-.232 3.466-2.403 6.81-5.606 8.222-1.936.956-4.183.952-6.267.626m-123.31-.015c-4.11-1.014-7.394-4.931-7.31-9.22-.042-4.407 3.165-8.555 7.477-9.52 4.202-1.096 8.988 1.185 10.788 5.14.99 1.913 1.059 4.133.823 6.229-.691 2.945-2.71 5.678-5.564 6.828-1.928.91-4.157.877-6.214.543m-47.18 8.476c3.075 1.347 6.476 1.552 9.789 1.468 68.326-.007 136.652 0 204.977.004 7.455.126 14.716-4.482 17.73-11.311 1.272-2.691 1.81-5.678 1.757-8.646-.03-6.643.069-13.285-.038-19.924-2.205.839-4.581 1.063-6.923 1.078-77.31-.015-154.62-.007-231.93-.011-2.448-.065-4.954-.171-7.265-1.071-.1 6.9-.046 13.8-.068 20.698-.046 7.607 4.907 14.91 11.97 17.715m169.344-96.046c1.093.452 2.285.429 3.443.338-.069-19.45.007-38.902-.038-58.351l-.004-.175c-4.874.027-9.75.023-14.629 0v.17c-.007 13.449-.01 26.894.004 40.342-9.724-3.234-19.43-6.521-29.158-9.736-.03 4.39.023 8.783-.027 13.174 13.452 4.794 26.95 9.47 40.41 14.238m-118.995-6.989c6.092 4.643 13.718 7.042 21.332 7.327 7.553.265 15.372-.957 21.98-4.794 5.227-2.995 9.364-7.79 11.62-13.37 2.246-5.571 2.96-11.731 2.276-17.686-1.46-9.54-8.828-17.244-17.437-21.055a21.94 21.94 0 0 0 3.575-1.42 10.574 10.574 0 0 0-2.285-.205c-10.157.073-20.314-.068-30.464.069-.037 2.205-.09 4.414.05 6.616 7.322.174 15.046-.722 21.897 2.49 5.63 2.376 9.816 7.758 10.61 13.835.682 5.788.098 12.119-3.334 17.02-2.698 3.879-7.272 6.027-11.846 6.707-6.172.86-12.939.246-18.12-3.5-5.102-3.587-7.8-9.918-7.67-16.063-4.7-.126-9.403-.031-14.106-.046.091 2.58.288 5.177.96 7.679 1.617 6.517 5.606 12.374 10.962 16.397" fill="#c7c7c7"/><path d="M132.954 352.212c2.312.9 4.817 1.006 7.265 1.07 77.31.004 154.62-.003 231.93.012 2.342-.015 4.718-.239 6.923-1.078 6.681-2.41 12.093-8.597 12.792-15.764-1.359 4.912-4.297 9.482-8.688 12.188-3.18 1.985-6.893 3.132-10.65 3.098-77.558-.054-155.118-.054-232.679-.054-5.842.107-11.729-2.414-15.452-6.96-1.807-1.933-2.752-4.427-4.016-6.7 1.253 6.536 6.365 11.983 12.575 14.188M302.7 236.54l.273.022v-.17c.07-19.386.015-38.77.027-58.154 4.862-.008 9.721-.004 14.58-.004.01 19.384-.039 38.772.022 58.157l.004.175.235-.019c2.144-.259 4.308-.103 6.464-.126 18.268.012 36.541.034 54.81 0 2.11-30.55 4.095-61.11 6.182-91.66.205-3.493.65-7.08-.318-10.504l-.088-.11c-.895-1.006-1.412-2.258-2.053-3.427-3.428-5.595-9.797-9.36-16.4-9.296-72.882.042-145.759-.034-218.635-.008-2.285 0-4.616-.117-6.844.483-5.037 1.374-9.603 4.672-12.138 9.284-.532 1.01-1.025 2.046-1.735 2.941l-.09.126c-1.22 4.577-.229 9.322-.077 13.96 2.004 29.386 3.913 58.784 5.944 88.17 24.288.06 48.581.034 72.87.015.022-1.397.033-2.794.014-4.19 7.698-.149 15.752.774 23.044-2.274 4.923-1.92 8.965-6.035 10.521-11.118 1.716-5.625 1.52-11.85-.497-17.373-1.879-5.177-6.38-9.177-11.637-10.722-6.385-1.89-13.494-1.727-19.643.911-4.786 2.046-8.692 6.168-10.169 11.193-.702 2.213-.975 4.54-1.017 6.851-4.653-.03-9.307-.019-13.96-.004.087-5.887 1.514-11.865 4.801-16.807 3.504-5.405 8.94-9.352 14.895-11.668 7.55-2.945 15.892-3.602 23.874-2.379 7.762 1.23 15.365 4.706 20.637 10.654 4.844 5.375 7.35 12.564 7.68 19.734.443 6.843-1.132 14.032-5.478 19.468-2.445 3.218-5.804 5.541-9.235 7.583 1.67.21 3.355.164 5.037.156 17.21.015 34.42-.004 51.628.008 2.156.045 4.324-.133 6.472.121" fill="#4483ef"/><path d="M124.395 344.723c3.724 4.547 9.611 7.068 15.452 6.961 77.561 0 155.121 0 232.678.053 3.758.035 7.47-1.112 10.651-3.097 4.391-2.706 7.33-7.276 8.688-12.188.376-1.734.273-3.534.076-5.287-4.213-31.56-8.582-63.103-12.738-94.672-17.532.031-35.065-.015-52.593.004-2.923.023-5.849-.11-8.768.05l-.235.02c.045 19.448-.03 38.9.038 58.35-1.158.09-2.35.113-3.443-.339-13.459-4.767-26.957-9.443-40.409-14.237.05-4.392-.003-8.783.027-13.175 9.728 3.215 19.434 6.502 29.158 9.736-.015-13.448-.01-26.892-.004-40.34l-.273-.023c-20.37-.152-40.75-.004-61.12-.08-1.007.023-2.07-.288-3.027.133a21.94 21.94 0 0 1-3.575 1.42c8.608 3.811 15.976 11.516 17.437 21.054.683 5.956-.03 12.116-2.277 17.688-2.255 5.58-6.392 10.374-11.619 13.368-6.608 3.838-14.427 5.06-21.98 4.794-7.615-.284-15.24-2.683-21.332-7.325-5.356-4.024-9.345-9.88-10.962-16.398-.672-2.5-.869-5.097-.96-7.678 4.703.015 9.405-.08 14.104.045-.129 6.145 2.57 12.477 7.671 16.064 5.182 3.746 11.95 4.361 18.121 3.5 4.574-.68 9.148-2.829 11.846-6.708 3.432-4.9 4.016-11.23 3.333-17.02-.793-6.076-4.98-11.459-10.609-13.835-6.85-3.21-14.575-2.315-21.897-2.49l-.182-.004c.075-2.205-.012-4.414.05-6.623-24.3.038-48.605.046-72.908-.004-4.145 30.924-8.354 61.84-12.522 92.76-.478 2.914-.642 5.94.087 8.824 1.264 2.273 2.21 4.767 4.016 6.7m2.691-210.599c.71-.896 1.203-1.932 1.735-2.942 2.535-4.611 7.101-7.91 12.138-9.284 2.228-.6 4.56-.482 6.844-.482 72.877-.026 145.753.049 218.634.008 6.604-.065 12.973 3.7 16.401 9.295.641 1.169 1.158 2.422 2.053 3.428-1.609-6.23-6.619-11.4-12.745-13.32-3.417-1.191-7.079-.891-10.628-.93-70.983 0-141.966.005-212.949.005-2.83-.023-5.727-.05-8.452.835-6.248 1.852-11.384 7.07-13.03 13.387" fill="#3664d0"/></g></svg>