<?xml version="1.0" encoding="UTF-8" standalone="no"?>
<!-- Created with Inkscape (http://www.inkscape.org/) -->

<svg
   xmlns:dc="http://purl.org/dc/elements/1.1/"
   xmlns:cc="http://creativecommons.org/ns#"
   xmlns:rdf="http://www.w3.org/1999/02/22-rdf-syntax-ns#"
   xmlns:svg="http://www.w3.org/2000/svg"
   xmlns="http://www.w3.org/2000/svg"
   xmlns:sodipodi="http://sodipodi.sourceforge.net/DTD/sodipodi-0.dtd"
   xmlns:inkscape="http://www.inkscape.org/namespaces/inkscape"
   id="svg2"
   version="1.1"
   inkscape:version="0.48.5 r10040"
   width="256"
   height="256"
   xml:space="preserve"
   sodipodi:docname="Google-Calendar-icon.ai"><metadata
     id="metadata8"><rdf:RDF><cc:Work
         rdf:about=""><dc:format>image/svg+xml</dc:format><dc:type
           rdf:resource="http://purl.org/dc/dcmitype/StillImage" /><dc:title></dc:title></cc:Work></rdf:RDF></metadata><defs
     id="defs6"><clipPath
       clipPathUnits="userSpaceOnUse"
       id="clipPath16"><path
         d="M 0,512 512,512 512,0 0,0 0,512 z"
         id="path18"
         inkscape:connector-curvature="0" /></clipPath></defs><sodipodi:namedview
     pagecolor="#ffffff"
     bordercolor="#666666"
     borderopacity="1"
     objecttolerance="10"
     gridtolerance="10"
     guidetolerance="10"
     inkscape:pageopacity="0"
     inkscape:pageshadow="2"
     inkscape:window-width="1280"
     inkscape:window-height="683"
     id="namedview4"
     showgrid="false"
     fit-margin-top="0"
     fit-margin-left="0"
     fit-margin-right="0"
     fit-margin-bottom="0"
     inkscape:zoom="0.36875"
     inkscape:cx="-170.19225"
     inkscape:cy="170.13631"
     inkscape:window-x="0"
     inkscape:window-y="0"
     inkscape:window-maximized="1"
     inkscape:current-layer="g10" /><g
     id="g10"
     inkscape:groupmode="layer"
     inkscape:label="Google-Calendar-icon"
     transform="matrix(1.25,0,0,-1.25,-149.85327,405.86369)"><g
       id="g12"
       transform="matrix(0.75229239,0,0,0.75229239,29.695835,29.704122)"><g
         id="g14"
         clip-path="url(#clipPath16)"><g
           id="g20"
           transform="translate(192.0378,382.1485)"><path
             d="m 0,0 c 2.057,0.334 4.285,0.368 6.214,-0.543 2.854,-1.15 4.873,-3.883 5.564,-6.828 0.235,-2.095 0.167,-4.316 -0.824,-6.229 -1.799,-3.955 -6.585,-6.236 -10.787,-5.139 -4.312,0.964 -7.519,5.113 -7.477,9.519 C -7.394,-4.931 -4.111,-1.013 0,0"
             style="fill:#ffffff;fill-opacity:1;fill-rule:nonzero;stroke:none"
             id="path22"
             inkscape:connector-curvature="0" /></g><g
           id="g24"
           transform="translate(315.3475,382.1637)"><path
             d="m 0,0 c 2.084,0.326 4.331,0.33 6.267,-0.626 3.203,-1.412 5.374,-4.756 5.606,-8.222 -0.004,-2.668 -0.896,-5.454 -2.873,-7.322 -1.682,-1.772 -4.104,-2.751 -6.521,-2.861 -3.743,-0.054 -7.516,2.182 -8.981,5.674 -0.949,1.864 -0.831,4.012 -0.71,6.031 C -6.502,-3.765 -3.519,-0.824 0,0"
             style="fill:#ffffff;fill-opacity:1;fill-rule:nonzero;stroke:none"
             id="path26"
             inkscape:connector-curvature="0" /></g><g
           id="g28"
           transform="translate(302.9737,236.3911)"><path
             d="m 0,0 c 4.877,0.023 9.755,0.027 14.628,0 -0.06,-19.384 -0.011,-38.773 -0.022,-58.157 -4.859,0 -9.717,-0.004 -14.579,0.004 C 0.015,-38.769 0.068,-19.384 0,0"
             style="fill:#ffffff;fill-opacity:1;fill-rule:nonzero;stroke:none"
             id="path30"
             inkscape:connector-curvature="0" /></g><g
           id="g32"
           transform="translate(315.3475,382.1637)"><path
             d="m 0,0 c -3.519,-0.824 -6.502,-3.765 -7.212,-7.326 -0.121,-2.019 -0.239,-4.167 0.71,-6.031 1.465,-3.492 5.238,-5.728 8.981,-5.674 2.417,0.11 4.839,1.089 6.521,2.861 1.977,1.868 2.869,4.654 2.873,7.322 -0.232,3.466 -2.403,6.81 -5.606,8.222 C 4.331,0.33 2.084,0.326 0,0 m -123.31,-0.015 c -4.11,-1.014 -7.394,-4.931 -7.31,-9.22 -0.042,-4.407 3.165,-8.555 7.477,-9.519 4.202,-1.097 8.988,1.184 10.788,5.139 0.99,1.913 1.059,4.133 0.823,6.229 -0.691,2.945 -2.71,5.678 -5.564,6.828 -1.928,0.911 -4.157,0.877 -6.214,0.543 m -47.18,8.476 c 3.075,1.347 6.476,1.552 9.789,1.468 68.326,-0.007 136.652,0 204.977,0.004 7.455,0.126 14.716,-4.482 17.73,-11.311 1.272,-2.691 1.81,-5.678 1.757,-8.646 -0.03,-6.643 0.069,-13.285 -0.038,-19.924 -2.205,0.839 -4.581,1.063 -6.923,1.078 -77.31,-0.015 -154.62,-0.007 -231.93,-0.011 -2.448,-0.065 -4.954,-0.171 -7.265,-1.071 -0.099,6.901 -0.046,13.801 -0.068,20.698 -0.046,7.607 4.907,14.91 11.971,17.715"
             style="fill:#c7c7c7;fill-opacity:1;fill-rule:nonzero;stroke:none"
             id="path34"
             inkscape:connector-curvature="0" /></g><g
           id="g36"
           transform="translate(314.2012,294.5787)"><path
             d="M 0,0 C 1.093,0.452 2.285,0.429 3.443,0.338 3.374,-19.111 3.45,-38.564 3.405,-58.013 l -0.004,-0.175 c -4.874,0.027 -9.751,0.023 -14.629,0 l 0,0.171 c -0.007,13.448 -0.011,26.893 0.004,40.341 -9.724,-3.234 -19.43,-6.521 -29.158,-9.736 -0.03,4.391 0.023,8.783 -0.027,13.174 C -26.957,-9.444 -13.459,-4.767 0,0"
             style="fill:#c7c7c7;fill-opacity:1;fill-rule:nonzero;stroke:none"
             id="path38"
             inkscape:connector-curvature="0" /></g><g
           id="g40"
           transform="translate(195.2071,287.5909)"><path
             d="m 0,0 c 6.092,4.642 13.718,7.041 21.332,7.326 7.553,0.265 15.372,-0.957 21.98,-4.794 5.227,-2.995 9.364,-7.789 11.619,-13.369 2.247,-5.572 2.96,-11.732 2.277,-17.687 -1.461,-9.539 -8.828,-17.244 -17.437,-21.055 1.23,-0.372 2.429,-0.839 3.575,-1.42 -0.755,-0.144 -1.518,-0.227 -2.285,-0.205 -10.157,0.073 -20.314,-0.068 -30.464,0.069 -0.037,2.205 -0.091,4.414 0.05,6.616 7.322,0.174 15.046,-0.722 21.897,2.49 5.629,2.376 9.816,7.758 10.609,13.835 0.683,5.788 0.099,12.119 -3.333,17.02 -2.698,3.879 -7.272,6.027 -11.846,6.707 -6.172,0.861 -12.939,0.246 -18.12,-3.5 -5.102,-3.587 -7.801,-9.918 -7.671,-16.063 -4.7,-0.126 -9.402,-0.031 -14.105,-0.046 0.091,2.581 0.288,5.177 0.96,7.679 C -9.345,-9.88 -5.356,-4.023 0,0"
             style="fill:#c7c7c7;fill-opacity:1;fill-rule:nonzero;stroke:none"
             id="path42"
             inkscape:connector-curvature="0" /></g><g
           id="g44"
           transform="translate(132.9544,352.2121)"><path
             d="m 0,0 c 2.312,0.9 4.817,1.006 7.265,1.07 77.31,0.004 154.62,-0.003 231.93,0.012 2.342,-0.015 4.718,-0.239 6.923,-1.078 6.681,-2.41 12.093,-8.597 12.792,-15.764 -1.359,4.912 -4.297,9.482 -8.688,12.188 -3.181,1.985 -6.893,3.132 -10.651,3.098 C 162.014,-0.528 84.454,-0.528 6.893,-0.528 1.051,-0.421 -4.836,-2.942 -8.559,-7.489 c -1.807,-1.932 -2.752,-4.426 -4.016,-6.699 C -11.322,-7.652 -6.21,-2.205 0,0"
             style="fill:#4483ef;fill-opacity:1;fill-rule:nonzero;stroke:none"
             id="path46"
             inkscape:connector-curvature="0" /></g><g
           id="g48"
           transform="translate(302.7004,236.5392)"><path
             d="m 0,0 0.273,0.023 0,-0.171 c 0.069,-19.385 0.015,-38.769 0.027,-58.153 4.862,-0.008 9.721,-0.004 14.579,-0.004 0.011,19.384 -0.038,38.772 0.023,58.157 l 0.004,0.175 0.235,-0.019 c 2.144,-0.259 4.308,-0.103 6.464,-0.126 18.268,0.012 36.541,0.034 54.809,0 2.111,-30.551 4.096,-61.11 6.183,-91.661 0.205,-3.492 0.65,-7.079 -0.318,-10.503 l -0.088,-0.11 c -0.895,-1.006 -1.412,-2.258 -2.053,-3.427 -3.428,-5.595 -9.797,-9.36 -16.401,-9.296 -72.881,0.042 -145.758,-0.034 -218.634,-0.008 -2.285,0 -4.616,-0.117 -6.844,0.483 -5.037,1.374 -9.603,4.672 -12.138,9.284 -0.532,1.009 -1.025,2.046 -1.735,2.941 l -0.091,0.126 c -1.219,4.577 -0.228,9.322 -0.076,13.96 2.004,29.386 3.913,58.784 5.944,88.17 24.288,0.06 48.581,0.034 72.869,0.015 0.023,-1.397 0.034,-2.794 0.015,-4.191 7.698,-0.148 15.752,0.775 23.044,-2.273 4.923,-1.921 8.965,-6.035 10.521,-11.118 1.716,-5.625 1.519,-11.85 -0.497,-17.373 -1.879,-5.177 -6.38,-9.177 -11.637,-10.722 -6.385,-1.891 -13.494,-1.727 -19.643,0.911 -4.786,2.046 -8.692,6.168 -10.169,11.193 -0.702,2.213 -0.975,4.54 -1.017,6.851 -4.653,-0.03 -9.307,-0.019 -13.96,-0.004 0.087,-5.887 1.514,-11.865 4.801,-16.807 3.504,-5.405 8.939,-9.352 14.895,-11.668 7.549,-2.945 15.892,-3.602 23.874,-2.379 7.762,1.229 15.365,4.706 20.637,10.654 4.844,5.375 7.349,12.564 7.679,19.734 0.444,6.843 -1.131,14.032 -5.477,19.468 -2.445,3.218 -5.804,5.541 -9.235,7.583 1.67,0.209 3.355,0.164 5.037,0.156 17.209,0.015 34.419,-0.004 51.628,0.008 C -4.316,-0.076 -2.148,-0.254 0,0"
             style="fill:#4483ef;fill-opacity:1;fill-rule:nonzero;stroke:none"
             id="path50"
             inkscape:connector-curvature="0" /></g><g
           id="g52"
           transform="translate(124.3952,344.7232)"><path
             d="m 0,0 c 3.724,4.547 9.611,7.068 15.452,6.961 77.561,0 155.121,0 232.678,0.053 3.758,0.035 7.47,-1.112 10.651,-3.097 4.391,-2.706 7.329,-7.276 8.688,-12.188 0.376,-1.734 0.273,-3.534 0.076,-5.287 -4.213,-31.561 -8.582,-63.103 -12.738,-94.672 -17.532,0.031 -35.065,-0.015 -52.593,0.004 -2.923,0.023 -5.849,-0.11 -8.768,0.05 l -0.235,0.019 c 0.045,19.449 -0.031,38.901 0.038,58.35 -1.158,0.091 -2.35,0.114 -3.443,-0.338 -13.459,-4.767 -26.957,-9.443 -40.409,-14.237 0.05,-4.392 -0.003,-8.783 0.027,-13.175 9.728,3.215 19.434,6.502 29.158,9.736 -0.015,-13.448 -0.011,-26.892 -0.004,-40.34 l -0.273,-0.023 c -20.371,-0.152 -40.75,-0.004 -61.121,-0.08 -1.006,0.023 -2.069,-0.288 -3.026,0.133 -1.146,0.581 -2.345,1.048 -3.575,1.42 8.608,3.811 15.976,11.516 17.437,21.054 0.683,5.956 -0.03,12.116 -2.277,17.688 -2.255,5.58 -6.392,10.374 -11.619,13.368 -6.608,3.838 -14.427,5.06 -21.98,4.794 -7.615,-0.284 -15.24,-2.683 -21.332,-7.325 -5.356,-4.024 -9.345,-9.88 -10.962,-16.398 -0.672,-2.501 -0.869,-5.097 -0.96,-7.678 4.703,0.015 9.405,-0.08 14.104,0.045 -0.129,6.145 2.57,12.477 7.671,16.064 5.182,3.746 11.949,4.361 18.121,3.499 4.574,-0.679 9.148,-2.828 11.846,-6.707 3.432,-4.9 4.016,-11.231 3.333,-17.02 -0.793,-6.076 -4.98,-11.459 -10.609,-13.835 -6.851,-3.211 -14.575,-2.315 -21.897,-2.49 l -0.182,-0.004 c 0.075,-2.205 -0.012,-4.414 0.049,-6.623 -24.3,0.038 -48.604,0.046 -72.907,-0.004 -4.145,30.924 -8.354,61.839 -12.522,92.759 -0.478,2.915 -0.642,5.94 0.087,8.825 C -2.752,-4.426 -1.807,-1.932 0,0"
             style="fill:#3664d0;fill-opacity:1;fill-rule:nonzero;stroke:none"
             id="path54"
             inkscape:connector-curvature="0" /></g><g
           id="g56"
           transform="translate(127.0863,134.1246)"><path
             d="m 0,0 c 0.71,-0.896 1.203,-1.932 1.735,-2.942 2.535,-4.611 7.101,-7.91 12.138,-9.284 2.228,-0.6 4.559,-0.482 6.844,-0.482 72.877,-0.026 145.753,0.049 218.634,0.008 6.604,-0.065 12.973,3.7 16.401,9.295 0.641,1.169 1.158,2.422 2.053,3.428 -1.609,-6.229 -6.619,-11.399 -12.745,-13.319 -3.417,-1.192 -7.079,-0.892 -10.628,-0.93 -70.983,0 -141.966,0.004 -212.949,0.004 -2.831,-0.023 -5.727,-0.05 -8.452,0.835 C 6.783,-11.535 1.647,-6.316 0,0"
             style="fill:#3664d0;fill-opacity:1;fill-rule:nonzero;stroke:none"
             id="path58"
             inkscape:connector-curvature="0" /></g></g></g></g></svg>