<svg width="100" height="100" xmlns="http://www.w3.org/2000/svg"><path d="M62.509 37.5h24.61c3.388 0 6.456 1.414 8.714 3.693-5.068-2.336-16.08.8-26.984 8.085-10.553 7.047-17.728 15.797-18.217 21.555A13.48 13.48 0 0 1 50 66.796V50.52c0-7.193 5.6-13.02 12.509-13.02zm36.536 8.333c.613 1.5.955 3.13.955 4.849v15.83c0 6.989-5.598 12.655-12.5 12.655H62.882c-3.39 0-6.462-1.368-8.715-3.585 5.21 1.975 15.97-1.082 26.634-8.004 11.058-7.175 18.404-16.172 18.244-21.745zM50.002 86.665H100V100H50.002C22.377 100 0 77.622 0 50.004 0 22.384 22.377 0 50.002 0 69.187 0 85.838 10.806 94.22 26.672H78.284c-6.72-8.146-16.9-13.338-28.282-13.338-20.257 0-36.667 16.423-36.667 36.67 0 20.246 16.41 36.66 36.667 36.66z" fill="#01101B" fill-rule="evenodd"/></svg>