<svg xmlns="http://www.w3.org/2000/svg" width="240" height="240"><path d="M105 239.334c-18.732-2.966-31.104-7.37-46.893-16.694-12.234-7.225-26.512-20.167-35.305-32.002-7.807-10.507-16.233-27.822-19.531-40.136-2.493-9.305-2.679-11.423-2.679-30.5 0-19.136.18-21.165 2.7-30.5 6.812-25.226 23.56-49.643 45.028-65.645 9.15-6.82 26.798-15.915 36.423-18.77 23.436-6.95 52.072-6.75 73.812.516 27.476 9.183 54.327 31.258 68.908 56.65l2.727 4.75h-33.748l-6.47-6.578c-11.755-11.948-31.91-23.835-48.344-28.511C88.891 16.906 29 63.748 29 120.002c0 16.433 5.104 32.736 14.908 47.617 12.694 19.268 33.428 34.094 56.808 40.62 7.562 2.112 9.663 2.184 73.534 2.527l65.75.354v28.882l-66.25-.136c-36.438-.075-67.375-.314-68.75-.532zm40.324-48.771c-4.471-1.398-11.324-5.278-11.324-6.412 0-.378 3.263-.537 7.25-.353 10.902.502 24.11-3.237 41.274-11.686 7.714-3.797 17.732-9.652 22.262-13.011 15.257-11.313 27.513-26.096 30.342-36.599 2.181-8.099 2.508-8.407 3.824-3.604.83 3.03 1.1 11.735.872 28-.33 23.412-.354 23.646-3.03 28.728-3.546 6.731-10.744 12.987-17.122 14.881-6.818 2.025-67.903 2.071-74.348.056zm-20.657-20.227c-.367-.367-.667-11.995-.667-25.84v-25.174l3.047-6.097c3.42-6.845 8.166-11.5 14.902-14.617 4.372-2.023 6.03-2.106 42.122-2.106h37.572l5.849 3c3.217 1.65 5.997 3.45 6.177 4 .205.623-3.724 1.02-10.42 1.052-9.017.043-12.118.505-19.249 2.866-22.377 7.41-44.453 20.923-60.509 37.037-9.918 9.954-16.491 19.694-16.491 24.435 0 2.088-1.043 2.734-2.333 1.444z" fill="#cacacb"/><path d="M103.585 238.896c-26.503-3.866-53.06-17.749-71.349-37.3C11.025 178.921.124 151.429.035 120.383-.06 87.497 11.578 59.38 34.973 35.97c47.103-47.13 121.176-48.062 169.254-2.128 4.365 4.17 10.163 10.38 12.886 13.803C222.085 53.893 229 64.683 229 66.194c0 .444-7.178.808-15.951.808h-15.951l-7.03-6.933c-12.53-12.355-29.91-22.561-48.068-28.227-10.07-3.141-30.796-3.353-41.5-.424-28.226 7.724-50.928 26.472-63.138 52.145-6.554 13.778-8.678 24.142-8.085 39.44.552 14.22 2.082 20.702 7.734 32.763 10.927 23.319 30.816 41.32 55.085 49.855 14.545 5.115 17.637 5.309 85.154 5.347l62.75.034v29l-65.25-.121c-35.888-.068-67.912-.51-71.165-.985zm43.915-47.802c-3.837-.976-10.81-4.553-12.224-6.268-.891-1.082.852-1.34 9.567-1.413 9.304-.079 11.863-.507 20.157-3.367 34.253-11.816 64.801-36.972 70.712-58.231 1.39-5 1.814-5.642 2.717-4.118 1.646 2.774 1.422 47.6-.267 53.404-2.064 7.096-7.767 13.879-14.617 17.384l-5.897 3.017-33.574.178c-18.466.098-34.924-.166-36.574-.586zm-22.852-23.275c-.342-1.274-.627-12.022-.634-23.885-.01-16.43.349-22.79 1.508-26.693 2.019-6.799 9.626-15.156 16.708-18.357 5.23-2.363 5.542-2.382 40.27-2.382 19.25 0 36.608.343 38.573.763 3.48.742 13.55 6.448 12.765 7.232-.216.216-2.282-.032-4.592-.55-8.552-1.922-26.929 2.526-43.897 10.626-25.103 11.983-52.75 36.334-57.536 50.675-1.51 4.523-2.44 5.28-3.165 2.57z" fill="#aaaaac"/><path d="M104.52 238.888C44.426 230.137 0 179.605 0 120.002 0 59.19 45.608 8.742 107.648.932c43.999-5.538 89.16 16.074 115.323 55.188 3.316 4.958 6.029 9.434 6.029 9.948 0 .54-6.609.934-15.634.934h-15.634l-7.164-6.805C177.152 47.453 162.56 38.513 146 32.89c-8.054-2.734-11.335-3.292-21.552-3.67-8.639-.32-14.227.003-19.734 1.142-33.235 6.873-60.984 31.386-71.66 63.303-15.743 47.07 13.088 98.028 64.508 114.015l8.938 2.78 66.25.317 66.25.317v28.907l-64.25-.121c-35.337-.068-66.94-.514-70.23-.993zm43.214-47.974c-4.478-1.055-11.305-4.409-12.322-6.053-.527-.854.319-1.002 3.127-.546 5.412.878 15.782-.782 26.67-4.27 27.64-8.856 57.782-31.264 67.07-49.863 2.012-4.026 3.955-8.908 4.319-10.849 1.538-8.202 2.372.472 2.387 24.832l.015 25.663-3.25 6.271c-2.243 4.328-4.667 7.288-7.823 9.554-7.982 5.73-12.675 6.362-46.387 6.249-16.522-.055-31.734-.5-33.806-.988zm-23.245-25.142c-.352-2.348-.494-13.72-.315-25.27.301-19.417.5-21.376 2.627-26 3.638-7.904 10.792-14.347 18.414-16.583 1.852-.543 18.98-.945 39.277-.921l35.992.042 6.258 2.929c3.442 1.61 6.258 3.072 6.258 3.248 0 .176-4.162.375-9.25.441-20.666.27-50.444 14.012-74.217 34.25C138.394 147.391 127 162.17 127 167.135c0 3.722-1.904 2.688-2.511-1.363z" fill="#909193"/><path d="M110 239.372c-18.18-2.603-31.084-6.386-44-12.899-27.757-13.994-49.883-39.227-59.488-67.84-11.286-33.62-7.514-69.678 10.409-99.499C33.288 31.902 60.229 12 91.58 3.982c49.854-12.75 102.107 8.111 131.552 52.52l5.968 9-16.158.276-16.157.275-7.293-6.927c-14.03-13.328-33.285-24.185-50.053-28.224-46.22-11.133-97.18 21.924-109.098 70.772-2.226 9.122-2.226 27.535 0 36.657 8.065 33.055 34.629 60.272 68.158 69.836 7.91 2.256 8.752 2.285 74.25 2.599l66.25.317v28.92l-63.25-.137c-34.788-.075-64.375-.297-65.75-.494zm37.987-48.683c-4.273-.953-12.989-4.992-12.987-6.018 0-.093 3.938-.236 8.75-.318 11.126-.19 22.83-3.556 37.75-10.855 16.163-7.906 25.78-14.638 37.045-25.928 10.421-10.444 15.506-18.224 17.962-27.48l1.217-4.588.705 3.511c.387 1.93.561 14.53.387 28-.295 22.884-.458 24.752-2.481 28.49-2.99 5.521-8.889 10.967-14.835 13.693-4.839 2.219-6.016 2.3-36.5 2.508-22.002.15-33.162-.156-37.013-1.015zm-23.522-27.122c-.374-2.99-.502-14.128-.285-24.75.345-16.866.657-19.891 2.463-23.865 3.09-6.8 8.13-11.927 14.848-15.105l6.009-2.843 35.5.005c20.32.003 36.997.427 39 .992 1.925.543 5.166 2.003 7.203 3.244l3.702 2.257-9.702.102c-8.08.084-11.376.648-19.703 3.372-31.76 10.388-65.676 35.88-75.087 56.435-1.408 3.075-2.72 5.591-2.914 5.591-.195 0-.66-2.446-1.034-5.435z" fill="#737577"/><path d="M107.099 238.885c-15.578-1.807-33.748-7.952-47.599-16.098C-8.743 182.652-20.194 89.952 36.336 35.265 57.269 15.014 81.068 4.048 110.856.929c26.206-2.744 55.445 5.14 78.845 21.259 11.092 7.64 24.722 21.598 32.534 33.314l6.667 10-16.1.276-16.098.275-7.102-6.835c-22.883-22.026-51.683-33.315-77.288-30.295-22.09 2.605-42.196 12.77-57.86 29.25-8.506 8.95-12.856 15.28-17.862 25.996-6.198 13.268-8.071 21.774-8.003 36.333.068 14.423 1.82 22.162 8.007 35.367 13.203 28.183 39.77 48.757 69.838 54.082 3.732.662 29.422 1.051 69.25 1.051H239v29l-62.25-.13c-34.237-.07-65.58-.515-69.651-.987zm37.401-49.187c-3.519-1.408-9.5-4.603-9.5-5.074 0-.18 2.21-.116 4.91.144 9.916.953 23.956-2.77 41.062-10.886 27.477-13.038 48.487-32.519 54.643-50.666 2.976-8.773 3.355-6.37 3.371 21.358.016 25.963-.587 29.265-6.624 36.319-1.942 2.268-5.63 5.358-8.196 6.867l-4.666 2.742-36 .198c-26.082.144-36.826-.132-39-1.002zm-19.474-44.767c-.029-27.453.527-30.71 6.42-37.594 1.835-2.144 5.748-5.234 8.695-6.866l5.359-2.969 36.591-.295c35.021-.283 36.83-.206 42.159 1.788 9.347 3.497 8.898 4.491-2.091 4.625-11.776.143-21.427 2.966-37.572 10.991-26.319 13.081-48.527 32.259-56.617 48.891l-2.919 6-.025-24.571z" fill="#515255"/><path d="M109.135 238.923c-25.641-2.473-52.516-14.834-71.546-32.907C11.226 180.979-2.763 144.097.886 109.25c4.333-41.383 28.068-76.23 64.67-94.95C84.07 4.836 101.107.76 122.047.79c34.251.048 66.274 14.984 90.292 42.115 5.649 6.38 13.933 18.035 15.238 21.437.578 1.505-.841 1.661-15.099 1.661h-15.736l-6.596-6.596c-12.156-12.155-32.054-23.82-48.75-28.581-10.074-2.872-29.203-3.117-39.724-.508-35.52 8.807-65.63 39.835-72.254 74.457-9.418 49.215 29.95 99.86 82.556 106.205 4.885.59 33.574 1.022 67.75 1.022H239v28l-60.75-.136c-33.413-.075-64.514-.5-69.115-.943zm36.859-48.855c-1.379-.42-4.079-1.608-6-2.642l-3.494-1.88 9.009-.656c24.738-1.804 61.913-21.92 79.202-42.857 5.981-7.244 12.255-18.881 12.352-22.915l.064-2.616.997 2.5c.6 1.504.874 12.268.687 27-.31 24.435-.318 24.514-3.021 29.638-1.49 2.826-4.58 6.74-6.867 8.696-7.5 6.42-9.323 6.677-46.851 6.58-18.465-.047-34.7-.429-36.078-.848zM125 144.297v-24.975l3.06-6.123c3.474-6.953 8.519-11.469 15.98-14.304 4.536-1.723 8.05-1.893 39.29-1.893 36.029 0 40.983.508 46.4 4.753 2.165 1.696 1.93 1.75-8 1.854-11.94.124-19.864 2.39-36.38 10.406-24.518 11.898-49.017 32.604-56.665 47.89L125 169.27v-24.974z" fill="#3e4042"/><path d="M99.597 237.396c-23.461-4.237-46.54-16.349-63.623-33.389-17.601-17.558-28.996-38.713-33.423-62.051C.539 131.353.51 108.729 2.498 98.35c8.686-45.4 43.117-81.653 89.392-94.125 8.771-2.364 11.312-2.592 29.11-2.613 18.025-.022 20.24.177 29.277 2.632 30.395 8.256 59.733 30.512 75.15 57.007l2.763 4.75h-30.983l-6.854-6.823c-12.432-12.377-34.36-24.958-50.85-29.176-10.61-2.713-26.041-2.697-37.46.04-14.804 3.55-32.917 13.389-44.863 24.372C45.84 64.839 34 84.865 29.927 100.502c-2.87 11.02-2.877 27.923-.018 39 4.278 16.577 17.533 37.986 29.957 48.389 7.618 6.378 21.562 14.746 29.98 17.99 15.355 5.92 18.208 6.121 86.764 6.121H239v27l-65.75-.09c-52.285-.07-67.368-.381-73.653-1.516zm43.986-48.382c-7.559-2.99-7.616-3.83-.263-3.886 3.6-.028 9.522-.741 13.162-1.585 12.91-2.994 34.539-13.179 47.47-22.352 14.507-10.293 29.197-27.279 32.17-37.199.646-2.158 1.558-3.687 2.026-3.398.469.29.852 10.543.852 22.786 0 24.962-.792 29.597-6.276 36.726-1.773 2.306-5.699 5.588-8.724 7.294l-5.5 3.102-35 .229c-32.626.212-35.334.096-39.917-1.717zm-18.346-46.012l.263-25.5 2.734-4.65c3.831-6.518 10.696-12.24 17.102-14.254 4.713-1.482 9.726-1.656 40.273-1.394l34.891.298 5.5 2.715c5.234 2.583 5.321 2.687 1.809 2.15-9.233-1.413-27.87 4.059-47.052 13.815-24.087 12.25-46.538 32.238-53.711 47.82l-2.072 4.5.263-25.5z" fill="#202225"/></svg>