<?xml version="1.0" encoding="UTF-8" standalone="no"?>
<!-- Created with Inkscape (http://www.inkscape.org/) -->

<svg
   xmlns:dc="http://purl.org/dc/elements/1.1/"
   xmlns:cc="http://creativecommons.org/ns#"
   xmlns:rdf="http://www.w3.org/1999/02/22-rdf-syntax-ns#"
   xmlns:svg="http://www.w3.org/2000/svg"
   xmlns="http://www.w3.org/2000/svg"
   xmlns:sodipodi="http://sodipodi.sourceforge.net/DTD/sodipodi-0.dtd"
   xmlns:inkscape="http://www.inkscape.org/namespaces/inkscape"
   id="svg2"
   version="1.1"
   inkscape:version="0.48.5 r10040"
   width="240"
   height="240"
   sodipodi:docname="gosquared.png">
  <metadata
     id="metadata8">
    <rdf:RDF>
      <cc:Work
         rdf:about="">
        <dc:format>image/svg+xml</dc:format>
        <dc:type
           rdf:resource="http://purl.org/dc/dcmitype/StillImage" />
        <dc:title></dc:title>
      </cc:Work>
    </rdf:RDF>
  </metadata>
  <defs
     id="defs6" />
  <sodipodi:namedview
     pagecolor="#ffffff"
     bordercolor="#666666"
     borderopacity="1"
     objecttolerance="10"
     gridtolerance="10"
     guidetolerance="10"
     inkscape:pageopacity="0"
     inkscape:pageshadow="2"
     inkscape:window-width="640"
     inkscape:window-height="480"
     id="namedview4"
     showgrid="false"
     inkscape:zoom="0.98333333"
     inkscape:cx="140.33898"
     inkscape:cy="160.67797"
     inkscape:window-x="0"
     inkscape:window-y="0"
     inkscape:window-maximized="0"
     inkscape:current-layer="svg2" />
  <g
     id="g2987"
     transform="translate(0,0.00245242)">
    <path
       style="fill:#cacacb"
       d="M 105,239.33179 C 86.267776,236.36579 73.895616,231.96111 58.107487,222.63735 45.873118,215.41228 31.595292,202.47045 22.801667,190.63514 14.995293,180.12856 6.5693982,162.8137 3.2707881,150.5 0.77802428,141.19452 0.59197591,139.07624 0.59197591,120 c 0,-19.13622 0.17962988,-21.165259 2.70014929,-30.5 C 10.103598,64.273718 26.851582,39.856693 48.319609,23.854058 57.469434,17.033622 75.117506,7.9395135 84.742531,5.0852096 108.17927,-1.8649624 136.81543,-1.6649599 158.55482,5.6007341 186.03073,14.783678 212.88236,36.858501 227.46253,62.25 l 2.72751,4.75 -16.87391,0 -16.87391,0 -6.47111,-6.577624 C 178.21666,48.474446 158.06128,36.587355 141.62828,31.911094 88.890695,16.903811 29,63.745561 29,120 c 0,16.43232 5.104108,32.73506 14.90794,47.61659 12.693694,19.26814 33.428007,34.09422 56.80828,40.62078 7.56139,2.11075 9.66234,2.18294 73.53378,2.52647 l 65.75,0.35363 0,14.44126 0,14.44127 -66.25,-0.13618 c -36.4375,-0.0749 -67.375,-0.31431 -68.75,-0.53203 z m 40.32418,-48.77128 C 140.85283,189.1624 134,185.28248 134,184.14901 c 0,-0.37833 3.2625,-0.53749 7.25,-0.35368 10.90197,0.50255 24.11006,-3.237 41.27427,-11.68579 7.71334,-3.79677 17.73131,-9.65182 22.26215,-13.01123 15.25697,-11.31235 27.51275,-26.09551 30.34135,-36.59831 2.18122,-8.09905 2.50835,-8.40739 3.82385,-3.6043 0.8296,3.02894 1.10078,11.73496 0.87217,28 -0.32906,23.41199 -0.35375,23.64604 -3.03044,28.72765 -3.54564,6.73127 -10.74321,12.98731 -17.1209,14.88128 -6.81891,2.025 -67.90391,2.07091 -74.34827,0.0559 z M 124.66667,170.33333 C 124.3,169.96667 124,158.33854 124,144.49306 l 0,-25.17362 3.04683,-6.09724 c 3.42041,-6.84485 8.16641,-11.49982 14.90236,-14.616544 C 146.32085,96.582893 147.97907,96.5 184.07143,96.5 l 37.57142,0 5.849,3 c 3.21695,1.65 5.99677,3.45 6.17738,4 0.20456,0.62294 -3.72459,1.0194 -10.42042,1.05144 -9.01702,0.0432 -12.11828,0.50494 -19.24881,2.86618 -22.37697,7.41002 -44.4533,20.92271 -60.50899,37.03691 C 133.5734,154.4083 127,164.14839 127,168.88998 c 0,2.08773 -1.04348,2.7332 -2.33333,1.44335 z"
       id="path3001"
       inkscape:connector-curvature="0" />
    <path
       style="fill:#aaaaac"
       d="M 103.58475,238.89338 C 77.081706,235.02792 50.525635,221.14481 32.236387,201.59354 11.025043,178.91855 0.1242616,151.42665 0.03488797,120.38099 -0.05978518,87.494442 11.577966,59.377116 34.973457,35.967846 82.076247,-11.162685 156.1491,-12.094263 204.22715,33.839227 c 4.36442,4.169742 10.16318,10.381151 12.88613,13.803131 C 222.08531,53.890798 229,64.680926 229,66.191172 229,66.636027 221.82203,67 213.04895,67 l -15.95105,0 -7.03065,-6.933677 C 177.53934,47.711204 160.1592,37.505077 142,31.839827 131.93086,28.698487 111.20355,28.486553 100.5,31.415495 72.273845,39.13936 49.572437,57.888047 37.361981,83.560055 30.808353,97.338804 28.683827,107.70268 29.277059,123 c 0.551466,14.22035 2.08154,20.70264 7.73348,32.76356 10.927664,23.31903 30.81669,41.31942 55.085374,49.85455 14.544697,5.11527 17.637287,5.30946 85.154087,5.347 L 240,211 l 0,14.5 0,14.5 -65.25,-0.12194 c -35.8875,-0.0671 -67.91186,-0.51018 -71.16525,-0.98468 z M 147.5,191.09183 c -3.83682,-0.97676 -10.81038,-4.55305 -12.22371,-6.26874 -0.89129,-1.08198 0.8521,-1.33947 9.5669,-1.41299 9.30347,-0.0785 11.86325,-0.50606 20.15681,-3.36689 34.25278,-11.81534 64.80146,-36.9721 70.712,-58.23111 1.38996,-4.99943 1.81353,-5.64124 2.71732,-4.11737 1.64528,2.77411 1.42122,47.60012 -0.26695,53.40407 -2.06393,7.09584 -7.76699,13.87831 -14.61693,17.38344 l -5.89748,3.01776 -33.57398,0.17778 C 165.60829,191.77555 149.15,191.51187 147.5,191.09183 z m -22.85243,-23.27574 c -0.34114,-1.27385 -0.62641,-12.02191 -0.63392,-23.88459 -0.0104,-16.43085 0.34888,-22.78926 1.50829,-26.69341 2.0188,-6.79806 9.62584,-15.15558 16.70795,-18.356294 C 147.4591,96.518485 147.77164,96.5 182.5,96.5 c 19.25,0 36.60805,0.342986 38.57344,0.762191 3.47925,0.742099 13.54959,6.448109 12.76491,7.232789 -0.21592,0.21592 -2.28226,-0.032 -4.59187,-0.55093 -8.55286,-1.9217 -26.9293,2.52684 -43.89725,10.62657 -25.10291,11.983 -52.75042,36.33348 -57.53614,50.67483 -1.50948,4.52344 -2.44015,5.27922 -3.16552,2.57064 z"
       id="path2999"
       inkscape:connector-curvature="0" />
    <path
       style="fill:#909193"
       d="M 104.52015,238.88531 C 44.425636,230.13413 0,179.60268 0,120 0,59.186118 45.607679,8.7392486 107.64784,0.93021542 151.64702,-4.6079882 196.80816,17.003745 222.97116,56.117853 226.28702,61.07512 229,65.551576 229,66.065533 229,66.604974 222.39113,67 213.36617,67 l -15.63384,0 -7.16448,-6.805552 C 177.15165,47.45037 162.56035,38.510689 146,32.88897 c -8.05354,-2.733923 -11.33501,-3.292879 -21.55189,-3.671085 -8.6388,-0.319789 -14.22747,0.0038 -19.73409,1.142581 C 71.478664,37.233682 43.730018,61.746422 33.054275,93.663614 17.310502,140.73266 46.141724,191.6911 97.561637,207.67873 l 8.938363,2.77914 66.25,0.31752 66.25,0.31751 0,14.45355 0,14.45355 -64.25,-0.12194 c -35.3375,-0.0671 -66.94093,-0.51381 -70.22985,-0.99275 z m 43.21432,-47.97336 c -4.47859,-1.05514 -11.30576,-4.40927 -12.3221,-6.05373 -0.52762,-0.85372 0.31841,-1.00132 3.12702,-0.54554 5.41136,0.87814 15.7816,-0.78243 26.66892,-4.27046 27.64083,-8.85545 57.78262,-31.26346 67.07148,-49.86227 2.01072,-4.02603 3.95378,-8.90804 4.31789,-10.84892 1.53872,-8.20211 2.37247,0.47123 2.38701,24.8316 l 0.0153,25.66263 -3.25,6.27125 c -2.24293,4.32799 -4.66713,7.28849 -7.82332,9.55406 -7.98188,5.72953 -12.67458,6.36171 -46.38678,6.24898 -16.52194,-0.0553 -31.73439,-0.49967 -33.80543,-0.9876 z m -23.24589,-25.1426 C 124.1367,163.42121 123.99532,152.05 124.1744,140.5 c 0.30107,-19.41766 0.499,-21.37675 2.62682,-26 3.63783,-7.90412 10.79213,-14.34732 18.4133,-16.583107 1.85273,-0.54353 18.98106,-0.945317 39.27755,-0.92135 l 35.99207,0.0425 6.25793,2.928439 C 230.18393,101.57712 233,103.03895 233,103.21498 c 0,0.17603 -4.1625,0.3744 -9.25,0.44084 -20.66631,0.26986 -50.44433,14.01196 -74.21711,34.25006 C 138.39401,147.38856 127,162.16716 127,167.13215 c 0,3.72217 -1.90428,2.68883 -2.51142,-1.3628 z"
       id="path2997"
       inkscape:connector-curvature="0" />
    <path
       style="fill:#737577"
       d="M 110,239.36962 C 91.820456,236.76615 78.915836,232.98317 66,226.47103 38.243215,212.47612 16.117027,187.24336 6.5121584,158.63096 -4.7741261,125.0097 -1.00227,88.952984 16.920638,59.132046 33.287746,31.899718 60.22908,11.997754 91.581092,3.9792601 141.43453,-8.7711014 193.68835,12.090635 223.13338,56.5 l 5.96733,9 -16.15757,0.275285 -16.15757,0.275286 -7.29242,-6.927089 C 175.46224,45.795499 156.20758,34.938143 139.43994,30.899391 93.219548,19.766475 42.260698,52.823273 30.341521,101.67109 c -2.225959,9.12255 -2.225959,27.53527 0,36.65782 8.065434,33.0542 34.62919,60.27144 68.158479,69.83523 7.9092,2.256 8.7519,2.28549 74.25,2.59915 l 66.25,0.31725 0,14.45973 0,14.45973 -63.25,-0.13618 c -34.7875,-0.0749 -64.375,-0.29729 -65.75,-0.4942 z m 37.98743,-48.68302 c -4.27338,-0.95351 -12.98915,-4.99236 -12.98709,-6.01816 1.8e-4,-0.0926 3.93768,-0.23582 8.75,-0.31818 11.12604,-0.1904 22.83037,-3.55582 37.74966,-10.8544 16.16259,-7.9068 25.78016,-14.63821 37.04536,-25.9283 10.42072,-10.44375 15.50604,-18.22371 17.96175,-27.47938 l 1.21734,-4.58818 0.70415,3.51058 c 0.38728,1.93081 0.56178,14.53081 0.38777,28 -0.29563,22.8837 -0.45834,24.75169 -2.48164,28.48942 -2.98901,5.52175 -8.88852,10.96749 -14.83473,13.69368 -4.83877,2.21847 -6.01578,2.29933 -36.5,2.50766 -22.00158,0.15035 -33.16225,-0.15563 -37.01257,-1.01474 z m -23.52269,-27.12252 c -0.37355,-2.98976 -0.50152,-14.12726 -0.28439,-24.75 0.34473,-16.86543 0.65697,-19.89103 2.46287,-23.86489 3.09017,-6.79987 8.1296,-11.92656 14.84769,-15.104796 l 6.00909,-2.842816 35.5,0.0048 c 20.32015,0.0027 36.9966,0.427024 39,0.992241 1.925,0.543099 5.16618,2.003091 7.20261,3.244421 l 3.70262,2.25697 -9.70262,0.10113 c -8.07899,0.0842 -11.37599,0.64848 -19.70261,3.37203 -31.75938,10.38815 -65.67635,35.88033 -75.08693,56.43575 -1.40783,3.0751 -2.71932,5.59109 -2.91442,5.59109 -0.19511,0 -0.66037,-2.44617 -1.03391,-5.43592 z"
       id="path2995"
       inkscape:connector-curvature="0" />
    <path
       style="fill:#515255"
       d="M 107.09888,238.88229 C 91.521409,237.07591 73.350692,230.9308 59.5,222.78493 -8.7431481,182.64975 -20.194117,89.949943 36.335822,35.262375 57.269302,15.01114 81.068161,4.045667 110.8561,0.92669028 137.06241,-1.8172677 166.30127,6.0662156 189.70107,22.185141 200.79292,29.825755 214.42315,43.783272 222.23472,55.5 l 6.66703,10 -16.09889,0.275481 -16.09888,0.275481 -7.10199,-6.835873 C 166.71899,37.18953 137.91859,25.900589 112.31385,28.920323 90.223679,31.525561 70.117901,41.689744 54.453658,58.170701 45.947643,67.120208 41.597973,73.45075 36.592138,84.166489 30.394175,97.434153 28.520629,105.9401 28.589209,120.5 c 0.06793,14.42263 1.819804,22.16122 8.006356,35.3667 13.203398,28.18326 39.77048,48.75669 69.838095,54.08232 3.73245,0.6611 29.42213,1.05098 69.25,1.05098 L 239,211 l 0,14.5 0,14.5 -62.25,-0.12974 c -34.2375,-0.0713 -65.58051,-0.51594 -69.65112,-0.98797 z M 144.5,189.69561 c -3.51873,-1.40779 -9.5,-4.60273 -9.5,-5.0745 0,-0.18014 2.20908,-0.11526 4.90906,0.14417 9.91728,0.95293 23.95645,-2.76883 41.06289,-10.88568 27.47699,-13.0376 48.48711,-32.51878 54.64294,-50.66648 2.97572,-8.77258 3.35504,-6.36948 3.37146,21.35874 0.0154,25.96267 -0.587,29.26504 -6.62458,36.3186 -1.94133,2.268 -5.6294,5.35796 -8.19573,6.86659 L 219.5,190.5 l -36,0.19793 c -26.08232,0.1434 -36.82647,-0.13273 -39,-1.00232 z m -19.47445,-44.76747 c -0.0285,-27.45239 0.52771,-30.70968 6.41992,-37.5934 1.83531,-2.14415 5.74839,-5.23411 8.69573,-6.86659 L 145.5,97.5 182.0911,97.204584 c 35.02123,-0.282742 36.82998,-0.206041 42.1589,1.787762 9.34714,3.497214 8.89758,4.491484 -2.09122,4.625074 -11.77549,0.14315 -21.42641,2.96643 -37.57226,10.9914 -26.31823,13.08093 -48.52618,32.25849 -56.61683,48.89118 l -2.91859,6 -0.0256,-24.57186 z"
       id="path2993"
       inkscape:connector-curvature="0" />
    <path
       style="fill:#3e4042"
       d="M 109.13518,238.92058 C 83.493775,236.44713 56.618712,224.08611 37.588848,206.01329 11.226337,180.97659 -2.7630118,144.09479 0.88563546,109.2482 5.218737,67.864698 28.953824,33.017252 65.556708,14.299245 84.068544,4.8326494 101.10605,0.75706556 122.04586,0.78633126 c 34.25149,0.0478702 66.27386,14.98422674 90.29253,42.11559574 5.6482,6.380182 13.93242,18.034266 15.23798,21.436505 C 228.15404,65.84381 226.73471,66 212.47736,66 l -15.73662,0 -6.59621,-6.596206 C 177.98945,47.248708 158.09133,35.582696 141.39503,30.822584 131.32146,27.95061 112.19232,27.706015 101.67109,30.314654 66.15102,39.121523 36.040983,70.14951 29.416625,104.77191 20.000128,153.98749 59.36842,204.63302 111.97377,210.97795 116.85938,211.56722 145.5476,212 179.72377,212 L 239,212 l 0,14 0,14 -60.75,-0.13626 c -33.4125,-0.075 -64.51417,-0.49937 -69.11482,-0.94316 z m 36.85835,-48.85492 c -1.37857,-0.41934 -4.07857,-1.6082 -6,-2.64191 l -3.49353,-1.87947 9.00875,-0.65698 c 24.73825,-1.80407 61.91333,-21.91978 79.20175,-42.85666 5.98188,-7.24426 12.25514,-18.88136 12.35289,-22.915 l 0.0634,-2.61564 0.99747,2.5 c 0.59979,1.5033 0.87353,12.26766 0.68661,27 -0.31002,24.43457 -0.31809,24.51372 -3.02087,29.63785 -1.49051,2.82582 -4.58047,6.7389 -6.86659,8.69573 -7.50098,6.42056 -9.32358,6.67655 -46.85153,6.58047 -18.46452,-0.0473 -34.69977,-0.42905 -36.07833,-0.84839 z M 125,144.29408 l 0,-24.97464 3.05968,-6.12296 c 3.47457,-6.95323 8.51936,-11.46874 15.98028,-14.303661 C 148.57587,97.169308 152.0902,97 183.32923,97 c 36.02952,0 40.98375,0.507418 46.40086,4.75243 2.16473,1.69635 1.93025,1.75069 -8,1.85395 -11.94049,0.12416 -19.86445,2.39062 -36.38024,10.40572 -24.51814,11.89864 -49.01721,32.604 -56.66442,47.88988 L 125,169.26871 l 0,-24.97463 z"
       id="path2991"
       inkscape:connector-curvature="0" />
    <path
       style="fill:#202225"
       d="M 99.597082,237.39337 C 76.13567,233.15657 53.056724,221.04491 35.974348,204.00464 18.372819,186.44649 6.9778303,165.29162 2.5506211,141.95327 0.53940065,131.35098 0.51191516,108.72693 2.4976465,98.348444 11.184026,52.948838 45.61477,16.695507 91.890442,4.2236555 100.66112,1.8598524 103.20228,1.6317232 121,1.6103899 139.02519,1.5887839 141.23947,1.7878802 150.27735,4.2428454 180.67161,12.498864 210.00991,34.754579 225.42626,61.25 l 2.76378,4.75 -15.49157,0 -15.49157,0 -6.85345,-6.822991 C 177.92055,46.799361 155.99347,34.218318 139.50326,30.000835 128.89362,27.287345 113.46199,27.303967 102.04355,30.041186 87.239331,33.59004 69.126409,43.429468 57.179895,54.412331 45.841374,64.836245 33.999919,84.861717 29.927351,100.5 c -2.869612,11.01904 -2.877659,27.92264 -0.01857,39 4.278468,16.57662 17.533062,37.98572 29.957586,48.38812 7.617929,6.37809 21.561939,14.74615 29.979074,17.99099 C 105.20094,211.79872 108.05409,212 176.61047,212 L 239,212 l 0,13.5 0,13.5 -65.75,-0.0897 c -52.28524,-0.0714 -67.36842,-0.382 -73.652918,-1.51689 z m 43.986328,-48.38186 c -7.55909,-2.9899 -7.61604,-3.82966 -0.26352,-3.88609 3.59932,-0.0276 9.52215,-0.74085 13.16184,-1.58495 12.90966,-2.99395 34.53899,-13.17861 47.46996,-22.35231 14.50748,-10.29212 29.19746,-27.27852 32.16954,-37.19845 0.64665,-2.15832 1.55891,-3.6874 2.02725,-3.39795 0.46833,0.28945 0.85152,10.54304 0.85152,22.78576 0,24.96189 -0.79205,29.59711 -6.27564,36.72607 -1.7734,2.30552 -5.69936,5.58788 -8.72436,7.29413 l -5.5,3.10228 -35,0.2281 c -32.62562,0.21263 -35.33354,0.0962 -39.91659,-1.71659 z M 125.23687,143 125.5,117.5 l 2.7342,-4.6511 c 3.83125,-6.51729 10.69601,-12.23863 17.10226,-14.253643 4.71233,-1.482209 9.72529,-1.655739 40.27291,-1.394097 L 220.5,97.5 l 5.5,2.71469 c 5.23382,2.58331 5.32136,2.68735 1.80877,2.14974 -9.23263,-1.41309 -27.86897,4.05871 -47.05171,13.81482 C 156.67,128.42965 134.21947,148.41792 127.04552,164 l -2.07179,4.5 0.26314,-25.5 z"
       id="path2989"
       inkscape:connector-curvature="0" />
  </g>
</svg>
