<svg id="svg" version="1.1" xmlns="http://www.w3.org/2000/svg" xmlns:xlink="http://www.w3.org/1999/xlink" width="400" height="400" viewBox="0, 0, 400,400"><g id="svgg"><path id="path0" d="M205.355 63.582 C 203.568 64.941,201.771 66.420,201.203 67.000 C 199.372 68.868,197.339 71.271,196.462 72.600 C 195.882 73.480,195.316 74.290,195.204 74.400 C 194.714 74.881,192.453 79.915,192.218 81.050 C 191.862 82.763,190.572 83.851,188.200 84.437 C 187.100 84.709,185.840 85.152,185.400 85.421 C 184.960 85.690,183.970 86.112,183.200 86.357 C 182.430 86.602,180.630 87.427,179.200 88.189 C 177.770 88.950,175.999 89.847,175.264 90.181 C 174.530 90.516,173.366 91.262,172.679 91.840 C 171.208 93.078,169.420 93.022,165.216 91.605 C 159.987 89.844,147.603 89.739,142.416 91.413 C 141.417 91.735,139.593 92.266,138.363 92.592 C 133.888 93.779,132.842 97.854,134.407 108.000 C 135.091 112.432,138.169 121.698,139.466 123.231 C 139.760 123.579,140.000 124.035,140.000 124.245 C 140.000 124.455,140.630 125.605,141.400 126.800 C 142.176 128.004,142.800 129.488,142.800 130.129 C 142.800 131.466,141.681 136.010,141.207 136.600 C 141.030 136.820,140.603 138.620,140.257 140.600 C 138.731 149.353,137.653 151.918,135.472 151.989 C 133.914 152.040,124.769 160.265,122.509 163.648 C 116.124 173.203,115.112 176.084,117.300 178.476 C 124.171 185.989,134.694 192.046,143.968 193.828 C 147.234 194.456,147.860 194.872,149.593 197.570 C 151.687 200.829,152.548 201.999,155.743 205.932 C 159.297 210.305,159.149 209.532,157.786 216.600 C 156.662 222.423,156.662 223.838,157.778 229.935 C 158.891 236.017,159.493 237.458,161.092 237.859 C 162.236 238.146,168.329 237.737,170.400 237.234 C 177.458 235.520,182.889 233.328,186.877 230.585 C 188.964 229.149,189.987 229.104,194.200 230.267 C 199.126 231.626,212.520 233.189,214.086 232.588 C 215.093 232.202,217.054 233.439,219.823 236.208 C 225.107 241.492,235.819 246.344,238.152 244.509 C 242.247 241.288,246.952 231.669,247.564 225.271 L 247.853 222.245 250.226 220.243 C 253.885 217.158,260.592 210.314,261.742 208.493 C 263.817 205.205,265.157 204.000,266.741 203.998 C 270.560 203.992,276.879 202.134,279.154 200.349 C 279.679 199.937,280.314 199.600,280.565 199.600 C 282.190 199.600,283.520 196.593,282.654 194.880 C 282.353 194.286,281.887 192.864,281.619 191.720 C 281.350 190.576,280.876 189.429,280.565 189.171 C 280.254 188.913,280.000 188.474,280.000 188.196 C 280.000 187.252,276.818 182.918,274.400 180.567 C 273.435 179.629,273.391 179.359,273.150 172.898 C 272.556 157.018,265.665 143.156,254.608 135.600 C 253.803 135.050,252.636 134.195,252.015 133.700 C 251.393 133.205,250.711 132.800,250.498 132.800 C 250.286 132.800,249.483 132.373,248.714 131.851 C 247.945 131.330,246.392 130.596,245.263 130.221 C 244.133 129.846,243.123 129.398,243.016 129.227 C 242.910 129.055,241.693 128.681,240.312 128.397 C 238.930 128.112,237.276 127.617,236.636 127.296 C 235.141 126.547,223.540 126.146,220.400 126.735 C 214.270 127.884,209.122 130.070,204.456 133.505 C 200.732 136.246,194.000 144.468,194.000 146.275 C 194.000 146.510,193.746 146.913,193.435 147.171 C 193.124 147.429,192.650 148.576,192.381 149.720 C 192.113 150.864,191.606 152.340,191.256 153.000 C 190.126 155.129,190.328 167.507,191.543 170.600 C 192.543 173.145,194.771 177.665,195.192 178.000 C 195.329 178.110,195.952 178.879,196.575 179.708 C 200.574 185.034,209.393 189.200,216.667 189.200 C 222.278 189.200,229.600 186.235,229.600 183.962 C 229.600 182.605,227.642 182.276,226.377 183.421 C 224.306 185.295,215.731 185.031,211.593 182.966 C 199.695 177.026,196.282 164.905,203.046 152.600 C 214.662 131.466,248.025 139.407,254.068 164.744 C 254.710 167.438,254.322 178.278,253.521 180.000 C 253.163 180.770,252.659 182.336,252.400 183.480 C 252.141 184.624,251.676 185.771,251.365 186.029 C 251.054 186.287,250.800 186.811,250.800 187.193 C 250.800 187.576,250.350 188.551,249.800 189.362 C 249.250 190.172,248.800 190.976,248.800 191.149 C 248.800 193.796,238.249 203.486,232.400 206.209 C 231.630 206.567,230.280 207.195,229.400 207.604 C 228.520 208.014,227.080 208.466,226.200 208.610 C 225.320 208.754,223.790 209.170,222.800 209.536 C 220.245 210.479,209.152 210.452,206.000 209.496 C 204.790 209.128,202.725 208.620,201.411 208.367 C 200.097 208.114,198.390 207.567,197.617 207.153 C 196.844 206.739,195.994 206.400,195.728 206.400 C 195.059 206.400,189.431 203.561,189.267 203.141 C 189.193 202.953,188.923 202.800,188.667 202.799 C 187.590 202.797,183.422 199.659,179.104 195.600 C 160.748 178.345,157.679 151.259,171.259 126.353 C 174.766 119.922,181.730 112.365,187.600 108.623 C 188.590 107.991,189.850 107.186,190.400 106.832 C 193.434 104.884,200.056 102.417,206.200 100.948 C 212.266 99.497,230.007 99.195,233.805 100.477 C 234.907 100.849,236.707 101.351,237.805 101.591 C 240.660 102.217,247.929 105.096,250.000 106.422 C 250.330 106.633,251.050 107.021,251.600 107.283 C 252.150 107.546,253.136 108.130,253.792 108.580 C 254.447 109.031,255.278 109.580,255.639 109.800 C 267.475 117.024,278.690 132.247,282.408 146.137 C 282.811 147.642,283.199 148.925,283.270 148.987 C 283.702 149.364,285.167 149.577,285.346 149.288 C 285.962 148.291,283.696 132.543,282.633 130.441 C 282.344 129.868,281.885 128.454,281.613 127.299 C 281.342 126.143,280.971 125.106,280.790 124.994 C 280.609 124.882,280.154 123.848,279.778 122.695 C 279.402 121.543,278.954 120.420,278.782 120.200 C 278.610 119.980,277.713 118.360,276.789 116.600 C 275.865 114.840,274.769 113.028,274.354 112.574 C 273.939 112.120,273.600 111.622,273.600 111.468 C 273.600 111.314,272.565 109.886,271.300 108.294 C 269.004 105.405,268.069 104.330,266.134 102.353 C 265.148 101.345,265.105 101.102,265.021 95.953 C 264.869 86.645,262.934 82.000,259.209 82.000 C 254.013 82.000,250.254 82.941,245.541 85.422 C 243.294 86.604,242.622 86.631,240.636 85.618 C 239.792 85.188,238.176 84.644,237.045 84.409 C 235.913 84.174,234.516 83.738,233.940 83.439 C 233.364 83.140,231.343 82.676,229.448 82.407 C 225.158 81.798,224.525 81.315,222.496 77.106 C 220.026 71.982,216.811 68.165,211.843 64.458 C 208.617 62.050,207.558 61.907,205.355 63.582 " stroke="none" fill="#f48325" fill-rule="evenodd"></path><path id="path1" d="M0.000 200.000 L 0.000 400.000 200.000 400.000 L 400.000 400.000 400.000 200.000 L 400.000 0.000 200.000 0.000 L 0.000 0.000 0.000 200.000 M212.459 63.449 C 218.102 67.763,223.088 74.028,224.372 78.417 C 224.859 80.082,225.641 80.442,231.268 81.591 C 235.233 82.401,239.361 83.669,241.500 84.734 C 242.700 85.332,242.900 85.331,244.100 84.723 C 248.533 82.474,250.116 81.917,254.106 81.198 C 260.258 80.091,260.904 80.131,262.499 81.725 C 264.843 84.069,266.128 88.703,266.278 95.348 L 266.403 100.897 268.538 103.203 C 270.835 105.684,273.496 109.114,275.363 112.002 C 276.002 112.991,276.824 114.250,277.188 114.800 C 277.553 115.350,278.532 117.240,279.363 119.000 C 280.195 120.760,281.149 122.714,281.485 123.342 C 281.820 123.969,282.332 125.319,282.622 126.342 C 282.912 127.364,283.423 129.010,283.759 130.000 C 285.852 136.179,287.244 148.701,286.004 150.195 C 284.508 151.998,282.261 150.473,281.567 147.184 C 281.314 145.983,280.971 144.820,280.806 144.600 C 280.641 144.380,280.184 143.214,279.790 142.008 C 279.114 139.938,277.606 136.522,276.785 135.200 C 276.580 134.870,276.166 134.060,275.865 133.400 C 275.565 132.740,274.839 131.480,274.252 130.600 C 273.665 129.720,272.964 128.664,272.693 128.253 C 272.422 127.842,271.660 126.780,271.000 125.893 C 270.340 125.006,269.620 124.004,269.400 123.665 C 267.575 120.858,256.665 111.320,253.905 110.119 C 253.297 109.855,252.800 109.486,252.800 109.300 C 252.800 109.113,252.172 108.734,251.404 108.456 C 250.637 108.178,249.782 107.737,249.504 107.476 C 249.227 107.214,248.280 106.753,247.400 106.451 C 246.520 106.149,245.530 105.679,245.200 105.407 C 244.870 105.135,243.700 104.696,242.600 104.430 C 241.500 104.165,240.240 103.716,239.800 103.431 C 239.360 103.147,237.740 102.702,236.200 102.442 C 234.660 102.182,232.500 101.672,231.400 101.308 C 228.594 100.382,214.051 100.392,210.800 101.323 C 209.590 101.669,207.160 102.173,205.400 102.441 C 203.640 102.710,201.840 103.156,201.400 103.432 C 200.960 103.709,199.790 104.143,198.800 104.397 C 197.810 104.651,196.110 105.295,195.021 105.829 C 193.933 106.363,192.808 106.800,192.521 106.800 C 192.235 106.800,192.000 106.959,192.000 107.154 C 192.000 107.349,191.325 107.827,190.500 108.217 C 188.571 109.127,184.170 112.281,182.847 113.700 C 182.283 114.305,181.613 114.800,181.358 114.800 C 181.102 114.800,180.796 115.173,180.676 115.630 C 180.557 116.086,180.124 116.547,179.714 116.654 C 179.304 116.762,178.796 117.184,178.584 117.594 C 178.373 118.003,177.345 119.434,176.300 120.774 C 175.255 122.113,174.400 123.359,174.400 123.542 C 174.400 123.726,174.040 124.202,173.600 124.600 C 173.160 124.998,172.800 125.541,172.800 125.806 C 172.800 126.071,172.389 126.898,171.887 127.644 C 171.385 128.390,170.650 129.855,170.254 130.900 C 169.858 131.945,169.392 132.800,169.218 132.800 C 169.044 132.800,168.794 133.475,168.661 134.300 C 168.528 135.125,168.073 136.478,167.650 137.306 C 167.226 138.135,166.672 140.008,166.417 141.470 C 166.163 142.932,165.714 144.594,165.420 145.164 C 163.878 148.151,163.845 167.347,165.376 170.378 C 165.660 170.940,166.109 172.320,166.373 173.446 C 166.637 174.571,167.292 176.356,167.827 177.413 C 168.362 178.471,168.800 179.643,168.800 180.019 C 168.800 180.395,169.051 180.910,169.357 181.164 C 169.663 181.419,170.146 182.206,170.430 182.913 C 170.714 183.621,171.363 184.709,171.873 185.331 C 172.383 185.953,172.800 186.619,172.800 186.813 C 172.800 187.006,173.205 187.591,173.700 188.114 C 174.195 188.637,175.050 189.653,175.600 190.373 C 177.037 192.252,182.263 197.306,183.368 197.885 C 183.883 198.155,184.411 198.651,184.540 198.988 C 184.669 199.325,185.029 199.600,185.338 199.600 C 185.648 199.600,186.134 199.879,186.416 200.220 C 186.699 200.561,187.700 201.190,188.641 201.619 C 189.582 202.047,190.455 202.565,190.581 202.770 C 190.708 202.974,191.484 203.358,192.306 203.621 C 193.128 203.885,194.070 204.327,194.400 204.604 C 194.730 204.880,196.080 205.415,197.400 205.791 C 198.720 206.168,199.982 206.625,200.205 206.808 C 200.428 206.991,203.352 207.604,206.702 208.170 C 221.091 210.603,232.924 207.091,242.261 197.617 C 244.413 195.434,245.583 193.898,248.367 189.600 C 253.616 181.497,254.899 163.704,250.616 158.400 C 250.350 158.070,249.906 157.228,249.629 156.529 C 249.353 155.830,248.783 154.947,248.363 154.567 C 247.944 154.187,247.600 153.694,247.600 153.471 C 247.600 152.831,241.665 147.255,240.055 146.381 C 239.255 145.947,238.330 145.429,238.000 145.230 C 233.761 142.677,226.510 141.306,220.929 142.003 C 216.507 142.555,215.528 142.804,214.446 143.652 C 213.921 144.063,213.271 144.400,213.001 144.400 C 211.529 144.400,205.840 149.864,204.255 152.800 C 203.840 153.570,203.374 154.290,203.220 154.400 C 203.067 154.510,202.701 155.500,202.408 156.600 C 202.115 157.700,201.622 159.108,201.313 159.729 C 199.858 162.647,201.290 171.406,203.800 174.936 C 208.834 182.015,219.457 185.721,225.484 182.500 C 228.441 180.920,230.800 181.564,230.800 183.952 C 230.800 185.648,228.103 187.988,225.400 188.638 C 224.740 188.797,223.758 189.213,223.218 189.563 C 222.015 190.342,214.232 190.678,211.800 190.055 C 204.265 188.126,198.402 184.395,194.706 179.180 C 192.848 176.558,191.917 174.982,191.384 173.558 C 191.063 172.701,190.515 171.235,190.167 170.300 C 188.686 166.322,189.068 154.402,190.799 150.603 C 191.239 149.636,191.611 148.609,191.625 148.322 C 191.654 147.722,194.064 143.316,195.728 140.819 C 196.870 139.107,201.825 134.000,203.622 132.684 C 205.736 131.137,208.222 129.614,208.646 129.607 C 208.891 129.603,209.521 129.276,210.046 128.879 C 214.942 125.181,231.159 124.037,239.302 126.815 C 240.567 127.247,241.810 127.600,242.063 127.600 C 243.017 127.600,249.733 130.875,252.600 132.738 C 257.813 136.126,264.422 142.790,266.983 147.239 C 269.592 151.773,270.147 152.849,271.078 155.168 C 272.048 157.582,273.254 161.772,274.025 165.400 C 274.212 166.280,274.373 169.708,274.383 173.019 L 274.400 179.038 276.037 180.619 C 279.716 184.173,284.400 193.187,284.400 196.713 C 284.400 198.084,279.720 202.400,278.234 202.400 C 278.078 202.400,276.970 202.864,275.771 203.431 C 274.280 204.136,272.612 204.536,270.495 204.695 C 266.235 205.015,265.121 205.571,263.268 208.300 C 261.072 211.533,257.341 215.610,253.656 218.800 C 248.625 223.155,248.947 222.686,248.642 226.115 C 248.394 228.895,246.799 234.077,245.599 236.000 C 245.393 236.330,244.888 237.320,244.477 238.200 C 244.066 239.080,243.431 240.047,243.065 240.349 C 242.699 240.651,242.400 241.144,242.400 241.446 C 242.400 241.747,242.040 242.218,241.600 242.493 C 241.160 242.768,240.800 243.185,240.800 243.421 C 240.800 245.605,236.043 246.941,233.385 245.505 C 232.733 245.153,231.348 244.648,230.308 244.383 C 229.267 244.117,228.210 243.653,227.959 243.350 C 227.708 243.048,227.290 242.800,227.031 242.800 C 226.043 242.800,221.294 239.346,218.826 236.833 L 216.252 234.212 210.377 233.961 C 207.146 233.823,204.294 233.581,204.039 233.424 C 203.785 233.267,201.558 232.874,199.090 232.551 C 196.623 232.228,194.218 231.710,193.746 231.401 C 192.278 230.439,189.056 230.202,188.261 230.996 C 187.495 231.762,184.905 233.289,182.800 234.217 C 182.030 234.556,180.770 235.171,180.000 235.583 C 179.230 235.995,177.880 236.464,177.000 236.626 C 176.120 236.788,175.034 237.159,174.586 237.450 C 173.416 238.211,168.868 238.783,163.916 238.792 C 158.843 238.801,158.305 238.465,157.590 234.842 C 157.347 233.609,156.875 231.745,156.542 230.700 C 155.573 227.665,155.706 218.447,156.768 215.010 C 157.997 211.032,157.889 210.085,155.971 207.984 C 155.075 207.003,153.542 205.120,152.564 203.800 C 151.586 202.480,150.519 201.048,150.193 200.619 C 149.867 200.189,149.600 199.683,149.600 199.495 C 149.600 197.595,145.889 195.094,142.400 194.643 C 141.190 194.487,139.480 194.026,138.600 193.619 C 137.720 193.212,136.280 192.659,135.400 192.389 C 134.520 192.120,133.530 191.666,133.200 191.381 C 132.870 191.096,132.112 190.741,131.516 190.592 C 130.920 190.443,130.222 190.067,129.964 189.756 C 129.705 189.445,128.708 188.843,127.747 188.418 C 126.786 187.993,126.000 187.467,126.000 187.249 C 126.000 187.032,125.660 186.746,125.245 186.614 C 124.555 186.395,123.577 185.655,121.408 183.710 C 120.973 183.320,119.930 182.423,119.091 181.717 C 114.520 177.873,114.145 176.019,116.887 170.800 C 120.049 164.781,121.539 162.717,126.058 158.105 C 129.186 154.912,130.079 154.199,135.394 150.658 C 137.134 149.499,137.427 149.103,137.691 147.564 C 138.003 145.750,139.388 139.286,139.999 136.800 C 140.188 136.030,140.618 134.680,140.954 133.800 C 141.929 131.246,141.759 129.256,140.393 127.240 C 138.612 124.611,135.828 118.585,135.387 116.400 C 135.231 115.630,134.860 114.523,134.563 113.941 C 133.874 112.593,132.807 105.066,132.521 99.548 L 132.301 95.296 133.653 93.822 C 134.686 92.694,135.662 92.155,137.802 91.530 C 139.341 91.080,141.500 90.451,142.600 90.130 C 147.372 88.740,163.051 89.082,166.200 90.645 C 168.655 91.864,170.581 91.820,172.572 90.502 C 174.165 89.446,178.878 87.045,183.800 84.780 C 184.680 84.375,186.210 83.838,187.200 83.587 C 189.550 82.991,191.015 81.557,191.584 79.296 C 191.837 78.292,192.394 77.025,192.822 76.481 C 193.250 75.937,193.600 75.282,193.600 75.026 C 193.600 73.508,200.384 65.855,204.412 62.828 C 207.532 60.483,208.697 60.573,212.459 63.449 M68.800 260.385 C 69.790 260.570,72.112 261.006,73.959 261.353 C 75.807 261.700,77.607 262.234,77.959 262.541 C 78.312 262.848,79.293 263.322,80.141 263.594 C 81.871 264.150,88.021 268.137,88.518 269.024 C 88.695 269.341,89.094 269.600,89.406 269.600 C 89.717 269.600,90.158 269.948,90.386 270.374 C 91.248 271.984,90.612 274.800,89.386 274.800 C 89.064 274.800,88.800 275.047,88.800 275.350 C 88.800 276.535,86.089 278.924,84.785 278.887 C 83.472 278.850,81.600 277.853,81.600 277.191 C 81.600 276.976,81.344 276.800,81.031 276.800 C 80.718 276.800,79.953 276.376,79.331 275.858 C 78.709 275.340,77.539 274.701,76.732 274.437 C 75.925 274.174,75.064 273.718,74.819 273.423 C 73.342 271.643,59.591 271.805,57.272 273.630 C 56.733 274.053,55.981 274.400,55.600 274.400 C 55.220 274.400,54.299 274.937,53.554 275.594 C 52.809 276.250,51.906 276.790,51.547 276.794 C 51.187 276.797,50.796 277.173,50.676 277.630 C 50.557 278.086,50.086 278.557,49.630 278.676 C 49.173 278.796,48.800 279.132,48.800 279.424 C 48.800 279.716,48.428 280.215,47.973 280.534 C 47.518 280.853,46.775 281.808,46.323 282.657 C 45.870 283.506,45.380 284.290,45.233 284.400 C 45.086 284.510,44.712 285.389,44.402 286.353 C 44.091 287.317,43.559 288.384,43.219 288.724 C 42.243 289.700,42.306 304.763,43.289 305.747 C 43.669 306.126,44.181 307.188,44.429 308.107 C 44.676 309.026,45.311 310.292,45.839 310.920 C 46.368 311.548,46.800 312.298,46.800 312.588 C 46.800 312.877,47.072 313.219,47.403 313.346 C 47.735 313.473,48.214 314.033,48.468 314.589 C 48.721 315.145,49.161 315.600,49.444 315.600 C 49.728 315.600,50.105 315.858,50.281 316.173 C 50.713 316.945,53.079 318.648,54.800 319.427 C 55.570 319.776,56.920 320.397,57.800 320.807 C 61.011 322.306,72.153 322.176,74.000 320.619 C 74.330 320.341,75.185 319.917,75.899 319.678 C 80.675 318.077,87.143 310.037,87.832 304.844 L 88.103 302.800 75.296 302.800 C 60.166 302.800,60.852 302.989,60.509 298.719 C 59.975 292.065,58.909 292.400,80.631 292.400 C 102.566 292.400,100.570 291.792,100.448 298.437 C 100.370 302.727,99.922 305.685,99.211 306.600 C 99.041 306.820,98.779 307.842,98.630 308.872 C 98.481 309.901,98.009 311.190,97.580 311.735 C 97.151 312.280,96.800 312.988,96.800 313.307 C 96.800 313.627,96.368 314.525,95.840 315.303 C 95.312 316.081,94.760 317.096,94.613 317.559 C 94.466 318.022,93.998 318.587,93.573 318.814 C 93.148 319.042,92.800 319.470,92.800 319.766 C 92.800 320.482,86.458 326.800,85.739 326.800 C 85.429 326.800,85.078 327.054,84.959 327.363 C 84.840 327.673,84.170 328.162,83.471 328.449 C 82.772 328.736,81.861 329.283,81.446 329.665 C 81.031 330.047,80.154 330.478,79.497 330.623 C 78.839 330.767,77.738 331.212,77.051 331.611 C 72.981 333.972,53.600 333.635,53.600 331.203 C 53.600 331.037,52.886 330.788,52.013 330.648 C 51.140 330.509,50.105 330.058,49.713 329.647 C 49.321 329.236,48.589 328.773,48.087 328.619 C 47.585 328.464,46.719 327.947,46.163 327.469 C 45.607 326.991,44.603 326.150,43.932 325.600 C 43.261 325.050,42.057 323.907,41.256 323.061 C 40.455 322.214,39.421 321.134,38.957 320.661 C 38.494 320.187,37.831 319.247,37.484 318.571 C 37.137 317.895,36.571 317.108,36.226 316.822 C 35.882 316.536,35.600 315.999,35.600 315.629 C 35.600 315.258,35.168 314.370,34.640 313.654 C 34.112 312.939,33.559 311.708,33.411 310.918 C 33.263 310.129,32.890 309.098,32.582 308.628 C 30.789 305.893,30.753 288.642,32.533 285.814 C 32.815 285.366,33.280 284.193,33.567 283.207 C 33.853 282.221,34.428 280.982,34.844 280.453 C 35.260 279.925,35.600 279.301,35.600 279.068 C 35.600 276.168,45.503 266.601,51.200 263.996 C 51.750 263.745,52.920 263.179,53.800 262.740 C 54.680 262.300,56.840 261.665,58.600 261.327 C 60.360 260.990,62.520 260.576,63.400 260.407 C 65.565 259.992,66.677 259.987,68.800 260.385 M218.640 265.106 C 219.589 265.740,220.027 267.116,219.461 267.682 C 219.165 267.978,218.800 268.872,218.651 269.669 C 218.501 270.467,218.048 271.542,217.645 272.059 C 217.241 272.577,216.792 273.378,216.647 273.839 C 216.246 275.120,214.701 275.598,210.881 275.622 C 204.783 275.660,202.472 277.161,202.296 281.201 L 202.200 283.400 208.647 283.510 C 216.656 283.646,216.484 283.530,216.504 288.811 C 216.524 294.093,216.541 294.081,209.009 294.023 C 205.087 293.993,202.923 294.132,202.554 294.438 C 202.097 294.818,202.000 298.066,202.000 313.049 C 202.000 334.784,202.580 332.800,196.223 332.800 C 190.211 332.800,190.800 335.653,190.800 306.540 C 190.800 282.126,191.030 276.950,192.212 274.800 C 192.514 274.250,192.982 273.350,193.253 272.800 C 193.850 271.587,197.617 267.600,198.165 267.600 C 198.381 267.600,199.197 267.158,199.978 266.618 C 202.080 265.167,216.929 263.964,218.640 265.106 M167.700 284.955 C 169.405 285.770,170.800 286.569,170.800 286.731 C 170.800 286.892,171.328 287.224,171.974 287.468 C 173.301 287.969,173.600 287.621,173.600 285.581 C 173.600 284.006,174.543 283.600,178.200 283.600 C 183.326 283.600,182.800 280.792,182.800 308.134 C 182.800 335.392,183.283 332.800,178.200 332.800 C 174.073 332.800,173.600 332.547,173.600 330.344 C 173.600 328.406,173.169 328.189,171.752 329.411 C 171.118 329.958,170.240 330.518,169.800 330.657 C 169.360 330.796,168.582 331.236,168.072 331.635 C 167.561 332.033,166.301 332.474,165.272 332.613 C 164.242 332.753,162.833 333.122,162.140 333.434 C 160.530 334.157,156.921 334.161,154.714 333.442 C 153.771 333.134,152.309 332.763,151.464 332.617 C 149.632 332.299,148.000 331.601,148.000 331.136 C 148.000 330.951,147.669 330.800,147.264 330.800 C 143.344 330.800,136.002 320.994,133.937 313.000 C 133.334 310.665,133.737 302.661,134.518 301.470 C 134.861 300.946,135.263 299.871,135.411 299.082 C 135.559 298.292,136.112 297.061,136.640 296.346 C 137.168 295.630,137.600 294.826,137.600 294.559 C 137.600 293.953,143.679 287.600,144.259 287.600 C 144.492 287.600,145.169 287.150,145.762 286.600 C 146.356 286.050,147.060 285.600,147.327 285.600 C 147.593 285.600,148.509 285.226,149.361 284.770 C 153.454 282.576,162.924 282.672,167.700 284.955 M249.800 284.813 C 251.340 285.554,252.661 286.308,252.736 286.489 C 252.948 287.000,255.069 287.998,255.349 287.717 C 255.487 287.579,255.600 286.877,255.600 286.156 C 255.600 283.420,262.864 282.230,264.771 284.654 C 266.050 286.280,266.077 330.723,264.800 332.000 C 262.493 334.307,255.600 332.792,255.600 329.978 C 255.600 328.386,255.210 328.309,253.729 329.609 C 252.983 330.264,252.108 330.800,251.786 330.800 C 251.464 330.800,250.853 331.147,250.429 331.571 C 249.991 332.009,248.823 332.450,247.729 332.592 C 246.668 332.729,245.450 333.035,245.022 333.273 C 243.648 334.035,239.407 334.158,237.321 333.496 C 236.265 333.161,234.532 332.764,233.471 332.614 C 232.406 332.464,231.197 331.997,230.771 331.571 C 230.347 331.147,229.759 330.800,229.464 330.800 C 228.389 330.800,223.296 326.387,220.691 323.198 C 217.112 318.816,214.631 306.636,216.553 302.880 C 216.857 302.286,217.232 301.040,217.386 300.112 C 217.540 299.183,217.979 298.013,218.360 297.512 C 218.742 297.010,219.271 296.058,219.536 295.395 C 219.945 294.372,222.522 291.142,223.999 289.800 C 224.241 289.580,224.823 288.995,225.292 288.500 C 225.761 288.005,226.354 287.600,226.610 287.600 C 226.866 287.600,227.396 287.247,227.786 286.815 C 228.177 286.383,229.150 285.821,229.948 285.564 C 230.747 285.308,231.672 284.863,232.003 284.575 C 234.197 282.670,245.665 282.824,249.800 284.813 M302.865 284.770 C 306.136 286.484,307.503 287.541,309.629 290.000 C 310.295 290.770,311.076 291.670,311.365 292.000 C 312.202 292.957,312.800 294.280,312.800 295.174 C 312.800 295.628,312.951 296.000,313.136 296.000 C 314.402 296.000,314.588 298.219,314.721 314.844 C 314.880 334.664,315.453 332.800,309.194 332.800 C 303.094 332.800,303.600 334.321,303.600 315.980 L 303.600 300.937 302.309 298.969 C 301.599 297.886,300.873 296.938,300.694 296.862 C 300.516 296.786,299.803 296.246,299.109 295.662 C 295.515 292.638,288.395 294.848,285.963 299.741 L 284.800 302.082 284.800 316.812 C 284.800 334.355,285.335 332.800,279.303 332.800 C 272.941 332.800,273.600 335.626,273.600 308.338 C 273.600 281.259,273.168 283.600,278.167 283.600 C 281.673 283.600,282.346 283.806,282.807 285.018 C 283.200 286.052,285.105 285.879,287.002 284.635 C 290.018 282.659,298.983 282.735,302.865 284.770 M353.700 284.931 C 355.405 285.734,356.800 286.534,356.800 286.708 C 356.800 286.882,357.328 287.224,357.974 287.468 C 359.267 287.956,359.600 287.613,359.600 285.796 C 359.600 284.075,360.564 283.600,364.055 283.600 C 369.351 283.600,368.800 280.753,368.800 308.134 C 368.800 335.338,369.258 332.800,364.349 332.800 C 360.363 332.800,359.600 332.382,359.600 330.195 C 359.600 328.425,359.130 328.203,357.863 329.376 C 357.293 329.905,356.415 330.467,355.913 330.624 C 355.411 330.781,354.582 331.236,354.072 331.635 C 353.561 332.033,352.304 332.485,351.278 332.639 C 350.253 332.793,348.831 333.162,348.119 333.459 C 346.432 334.164,342.813 334.150,340.908 333.431 C 340.079 333.117,338.558 332.748,337.528 332.610 C 336.499 332.472,335.239 332.033,334.728 331.635 C 334.218 331.236,333.370 330.775,332.845 330.611 C 330.282 329.807,325.323 324.902,323.128 321.000 C 319.540 314.620,318.609 306.659,320.781 300.934 C 321.776 298.311,323.858 294.110,324.613 293.200 C 325.851 291.710,330.068 287.600,330.359 287.600 C 330.537 287.600,331.169 287.150,331.762 286.600 C 332.356 286.050,333.060 285.600,333.327 285.600 C 333.593 285.600,334.509 285.226,335.361 284.770 C 339.432 282.588,348.904 282.671,353.700 284.931 M114.884 284.543 C 116.267 285.966,116.883 286.017,119.031 284.884 C 121.293 283.692,133.353 283.011,135.153 283.975 C 136.134 284.500,136.289 286.195,135.466 287.411 C 135.173 287.845,134.703 289.041,134.423 290.069 C 134.143 291.097,133.324 292.582,132.603 293.369 L 131.292 294.800 127.046 294.800 C 124.621 294.800,122.800 294.964,122.800 295.181 C 122.800 295.391,122.186 295.854,121.436 296.210 C 119.588 297.087,119.050 297.768,117.838 300.769 L 116.800 303.338 116.800 317.589 C 116.800 328.140,116.675 331.965,116.320 332.320 C 115.504 333.136,107.882 332.959,106.836 332.100 L 105.984 331.400 106.092 308.012 L 106.200 284.624 107.200 284.118 C 109.043 283.185,113.822 283.450,114.884 284.543 M155.019 294.668 C 154.370 294.778,153.401 295.213,152.865 295.634 C 152.330 296.055,151.673 296.400,151.406 296.400 C 150.492 296.400,146.817 300.849,146.328 302.547 C 146.066 303.456,145.615 304.555,145.326 304.989 C 144.725 305.890,144.599 311.029,145.169 311.381 C 145.373 311.507,145.851 312.552,146.233 313.705 C 148.559 320.723,160.585 324.923,165.400 320.400 C 165.868 319.960,166.393 319.600,166.565 319.600 C 167.379 319.600,169.791 316.507,171.244 313.600 C 172.176 311.736,171.935 304.026,170.894 302.389 C 170.408 301.625,169.813 300.512,169.572 299.916 C 169.330 299.320,168.797 298.726,168.387 298.596 C 167.977 298.466,167.530 298.008,167.394 297.580 C 167.257 297.151,166.913 296.800,166.629 296.800 C 166.344 296.800,165.429 296.337,164.594 295.770 C 163.038 294.714,158.094 294.145,155.019 294.668 M237.430 294.667 C 236.786 294.777,235.619 295.302,234.837 295.833 C 234.054 296.365,233.295 296.800,233.149 296.800 C 232.704 296.800,230.400 299.094,230.400 299.538 C 230.400 299.767,230.073 300.190,229.672 300.477 C 229.224 300.799,228.584 302.407,228.006 304.666 L 227.068 308.331 228.006 311.823 C 228.566 313.904,229.319 315.719,229.872 316.316 C 230.383 316.866,230.800 317.465,230.800 317.646 C 230.800 318.786,235.441 321.330,238.264 321.736 C 241.919 322.263,246.374 321.626,247.598 320.402 C 248.039 319.961,248.554 319.600,248.742 319.600 C 249.223 319.600,250.799 318.057,252.128 316.285 C 254.914 312.569,254.919 303.262,252.137 300.480 C 251.842 300.184,251.600 299.686,251.600 299.371 C 251.600 299.057,251.426 298.800,251.214 298.800 C 251.001 298.800,250.275 298.260,249.600 297.600 C 248.925 296.940,248.143 296.400,247.862 296.400 C 247.581 296.400,246.963 296.038,246.488 295.597 C 245.594 294.763,240.143 294.204,237.430 294.667 M341.142 294.663 C 340.341 294.762,339.368 295.194,338.980 295.622 C 338.593 296.050,338.003 296.400,337.670 296.400 C 336.835 296.400,332.915 300.688,332.599 301.947 C 332.457 302.511,331.995 303.734,331.571 304.664 C 330.750 306.466,330.506 310.571,331.195 310.997 C 331.412 311.131,331.874 312.220,332.222 313.417 C 332.570 314.614,333.248 316.069,333.727 316.649 C 335.013 318.204,336.931 320.000,337.305 320.000 C 337.485 320.000,338.120 320.359,338.716 320.798 C 340.987 322.472,349.479 322.205,351.400 320.400 C 351.868 319.960,352.401 319.600,352.583 319.600 C 353.043 319.600,355.591 317.085,355.596 316.626 C 355.598 316.420,355.960 315.868,356.400 315.400 C 358.515 313.149,358.488 304.454,356.355 301.131 C 355.033 299.070,352.973 296.800,352.425 296.800 C 352.253 296.800,351.433 296.340,350.604 295.777 C 349.045 294.719,344.763 294.215,341.142 294.663 " stroke="none" fill="#1b1c1c" fill-rule="evenodd"></path><path id="path2" d="M59.400 262.798 C 57.233 263.267,52.828 264.889,51.600 265.671 C 51.050 266.021,50.130 266.553,49.556 266.853 C 45.649 268.898,39.005 275.360,38.235 277.863 C 38.089 278.338,37.706 278.827,37.385 278.950 C 37.063 279.074,36.800 279.412,36.800 279.703 C 36.800 279.993,36.419 280.944,35.953 281.815 C 32.044 289.128,31.743 307.544,35.468 311.496 C 35.725 311.769,36.156 312.669,36.426 313.496 C 36.695 314.323,37.340 315.509,37.858 316.131 C 38.376 316.753,38.800 317.419,38.800 317.613 C 38.800 317.960,39.878 319.254,41.804 321.215 C 42.352 321.773,42.800 322.448,42.800 322.715 C 42.800 322.982,43.019 323.200,43.286 323.200 C 43.553 323.200,44.138 323.559,44.586 323.998 C 47.623 326.977,52.929 329.670,58.800 331.213 C 60.614 331.690,70.584 331.690,72.400 331.214 C 76.323 330.184,81.968 327.793,83.568 326.483 C 83.916 326.198,85.199 325.183,86.420 324.226 C 89.360 321.922,92.757 317.660,94.586 313.981 C 95.400 312.341,96.319 310.495,96.628 309.877 C 97.236 308.660,98.632 300.809,98.899 297.105 C 99.112 294.153,100.519 294.344,79.600 294.485 L 62.600 294.600 62.478 296.983 C 62.410 298.294,62.459 299.779,62.585 300.283 L 62.815 301.200 75.808 301.200 C 88.403 301.200,88.825 301.225,89.626 302.026 C 90.466 302.866,90.428 304.752,89.548 305.849 C 89.349 306.095,88.910 307.230,88.572 308.369 C 88.234 309.509,87.713 310.535,87.414 310.650 C 87.116 310.764,86.767 311.279,86.637 311.794 C 86.111 313.891,78.994 320.800,77.360 320.800 C 77.106 320.800,76.692 321.048,76.441 321.350 C 76.190 321.653,75.133 322.112,74.092 322.370 C 73.052 322.628,71.390 323.102,70.400 323.422 C 68.088 324.170,63.112 324.170,60.800 323.422 C 59.810 323.102,58.129 322.623,57.064 322.358 C 55.999 322.093,55.034 321.634,54.921 321.338 C 54.807 321.042,54.398 320.800,54.012 320.800 C 53.069 320.800,47.200 316.252,47.200 315.522 C 47.200 315.365,46.795 314.795,46.300 314.256 C 44.751 312.570,44.511 312.190,43.070 309.157 C 35.654 293.542,43.557 275.861,60.200 270.834 C 66.822 268.834,74.598 270.469,81.400 275.292 C 85.254 278.025,84.667 277.946,86.448 275.966 C 87.321 274.995,88.319 273.894,88.666 273.520 C 89.304 272.833,89.143 270.800,88.451 270.800 C 88.267 270.800,87.631 270.350,87.037 269.799 C 86.443 269.249,85.427 268.524,84.778 268.189 C 84.130 267.854,83.599 267.449,83.599 267.290 C 83.598 267.130,82.788 266.667,81.799 266.260 C 80.809 265.854,80.000 265.379,80.000 265.205 C 80.000 265.031,79.405 264.777,78.678 264.641 C 77.950 264.504,76.645 264.014,75.778 263.550 C 74.020 262.611,62.670 262.090,59.400 262.798 M204.600 266.775 C 200.189 267.477,196.076 270.696,193.896 275.151 L 192.600 277.800 192.478 303.586 C 192.334 334.109,191.958 331.063,195.897 331.293 C 200.350 331.553,200.000 333.198,200.000 312.000 C 200.000 289.811,199.052 292.263,207.735 292.000 C 215.268 291.772,214.926 291.915,214.968 288.970 C 215.016 285.609,214.757 285.480,207.882 285.436 C 200.866 285.392,200.000 285.035,200.000 282.185 C 200.000 276.983,203.921 273.868,210.724 273.665 C 214.513 273.552,215.288 273.421,215.474 272.865 C 215.596 272.499,216.025 271.480,216.427 270.600 C 217.883 267.415,218.005 266.887,217.344 266.634 C 216.559 266.332,206.694 266.442,204.600 266.775 M152.631 285.408 C 152.207 285.728,151.217 286.103,150.431 286.241 C 148.168 286.638,145.003 288.706,142.200 291.617 C 139.264 294.667,138.800 295.233,138.800 295.762 C 138.800 296.052,138.383 296.903,137.872 297.655 C 135.167 301.641,134.980 314.690,137.575 318.376 C 137.971 318.939,138.420 319.802,138.573 320.294 C 139.394 322.939,145.573 328.661,148.859 329.821 C 149.779 330.145,150.747 330.590,151.012 330.810 C 154.163 333.425,165.807 331.636,171.294 327.694 C 173.769 325.916,174.509 326.197,174.800 329.025 C 175.033 331.287,175.663 331.626,179.000 331.283 C 181.760 331.000,181.588 332.524,181.588 308.400 C 181.588 284.583,181.710 285.817,179.317 285.417 C 176.393 284.928,174.800 285.792,174.800 287.866 C 174.800 289.141,174.605 289.676,174.029 289.984 C 173.223 290.416,172.000 290.164,172.000 289.567 C 172.000 289.377,171.415 288.918,170.700 288.549 C 169.985 288.179,169.220 287.668,169.000 287.412 C 168.780 287.156,167.571 286.637,166.314 286.257 C 165.056 285.878,163.921 285.395,163.790 285.184 C 163.386 284.530,153.529 284.728,152.631 285.408 M235.000 285.311 C 234.560 285.608,233.430 286.074,232.489 286.345 C 231.549 286.617,230.129 287.280,229.334 287.819 C 228.539 288.359,227.732 288.800,227.542 288.800 C 226.538 288.800,221.143 295.181,220.460 297.174 C 220.202 297.930,219.740 298.830,219.435 299.174 C 217.671 301.163,217.637 315.140,219.391 317.200 C 219.672 317.530,220.149 318.520,220.450 319.400 C 220.752 320.280,221.314 321.235,221.699 321.523 C 222.085 321.810,222.400 322.266,222.400 322.535 C 222.400 323.524,229.406 329.600,230.546 329.600 C 230.713 329.600,231.873 330.085,233.125 330.677 C 238.547 333.245,248.058 331.898,253.423 327.803 C 255.935 325.886,257.581 326.386,257.594 329.071 C 257.603 331.002,258.401 331.537,261.089 331.418 L 263.400 331.316 263.600 309.158 C 263.717 296.246,263.648 286.624,263.436 286.100 C 262.448 283.659,256.950 285.578,257.266 288.254 C 257.485 290.101,255.459 290.871,254.136 289.445 C 253.604 288.870,252.995 288.400,252.784 288.400 C 252.573 288.400,252.077 288.085,251.682 287.700 C 249.384 285.459,237.330 283.733,235.000 285.311 M289.600 285.400 C 289.050 285.715,287.970 286.185,287.200 286.444 C 286.430 286.704,285.371 287.250,284.846 287.658 C 283.409 288.776,282.478 288.590,281.738 287.039 C 280.825 285.124,277.573 284.483,276.242 285.954 C 275.615 286.646,275.561 288.515,275.577 308.654 C 275.598 333.597,275.291 331.636,279.129 331.379 C 280.378 331.295,281.805 331.221,282.300 331.213 L 283.200 331.200 283.200 317.255 C 283.200 302.168,283.401 300.052,285.057 297.727 C 289.796 291.069,298.835 291.056,303.463 297.699 C 305.135 300.099,305.326 301.822,305.569 316.715 C 305.830 332.646,305.577 331.618,309.164 331.377 C 310.394 331.294,311.805 331.221,312.300 331.213 L 313.200 331.200 313.200 316.086 C 313.200 301.998,313.146 300.818,312.400 298.696 C 311.960 297.444,311.600 296.204,311.600 295.939 C 311.600 294.000,304.374 286.400,302.529 286.400 C 302.221 286.400,301.262 286.040,300.400 285.600 C 298.427 284.594,291.243 284.461,289.600 285.400 M339.003 285.195 C 338.869 285.412,337.760 285.880,336.538 286.235 C 334.330 286.877,332.117 288.087,330.615 289.475 C 330.184 289.874,329.619 290.290,329.361 290.400 C 329.103 290.510,328.242 291.410,327.447 292.400 C 326.653 293.390,325.764 294.470,325.472 294.800 C 325.180 295.130,324.701 296.030,324.409 296.800 C 324.116 297.570,323.655 298.385,323.384 298.611 C 321.314 300.337,321.361 315.640,323.444 318.026 C 323.744 318.370,324.192 319.233,324.440 319.942 C 325.140 321.950,330.459 327.711,332.092 328.229 C 332.481 328.353,332.800 328.622,332.800 328.827 C 332.800 329.032,333.025 329.206,333.300 329.213 C 333.575 329.219,334.700 329.675,335.800 330.226 C 338.545 331.599,343.753 332.219,347.878 331.664 C 350.533 331.306,351.917 330.837,355.052 329.232 C 355.301 329.104,356.339 328.404,357.360 327.675 C 359.819 325.920,360.614 326.174,360.966 328.827 C 361.288 331.256,362.151 331.744,365.313 331.289 L 367.400 330.989 367.511 309.195 C 367.638 284.040,367.792 285.738,365.353 285.372 C 362.476 284.941,360.800 285.900,360.800 287.979 C 360.800 290.374,359.492 290.930,357.638 289.324 C 355.592 287.551,354.359 286.838,352.320 286.249 C 351.067 285.886,349.931 285.412,349.797 285.195 C 349.657 284.968,347.358 284.800,344.400 284.800 C 341.442 284.800,339.143 284.968,339.003 285.195 M108.478 286.023 C 107.772 287.154,107.793 329.978,108.500 330.896 C 108.921 331.441,109.507 331.501,112.200 331.272 L 115.400 331.000 115.600 315.600 L 115.800 300.200 117.000 298.259 C 119.308 294.525,122.088 293.227,127.814 293.210 L 131.029 293.200 132.483 290.149 C 134.686 285.526,134.542 285.365,128.353 285.539 C 122.774 285.695,118.717 286.389,117.630 287.373 C 116.240 288.631,114.722 288.374,113.826 286.729 C 112.858 284.952,109.430 284.499,108.478 286.023 M162.133 293.230 C 163.930 293.687,165.772 294.407,166.226 294.830 C 166.680 295.254,167.228 295.600,167.444 295.600 C 167.826 295.600,169.403 297.291,171.416 299.860 C 171.960 300.553,172.522 301.723,172.666 302.460 C 172.810 303.197,173.184 304.196,173.497 304.679 C 174.705 306.549,173.011 316.037,171.355 316.673 C 171.050 316.790,170.800 317.084,170.800 317.326 C 170.800 317.895,167.969 320.800,167.415 320.800 C 167.183 320.800,166.778 321.144,166.515 321.564 C 166.253 321.984,165.477 322.451,164.792 322.602 C 164.107 322.752,163.063 323.127,162.473 323.435 C 161.096 324.154,156.134 324.169,154.773 323.459 C 154.209 323.165,153.234 322.795,152.607 322.638 C 150.446 322.095,146.329 318.299,145.519 316.100 C 145.255 315.385,144.909 314.800,144.751 314.800 C 144.087 314.800,143.498 311.626,143.509 308.120 C 143.534 300.814,147.997 295.004,154.970 293.201 C 158.602 292.261,158.315 292.260,162.133 293.230 M244.533 293.230 C 246.330 293.687,248.172 294.407,248.626 294.830 C 249.080 295.254,249.599 295.600,249.779 295.600 C 249.958 295.600,250.713 296.275,251.457 297.100 C 252.200 297.925,253.059 298.870,253.366 299.200 C 256.106 302.144,257.166 310.292,255.263 313.785 C 254.789 314.656,254.400 315.598,254.400 315.878 C 254.400 317.057,248.577 322.186,246.369 322.952 C 243.479 323.955,238.259 324.259,237.077 323.494 C 236.595 323.182,235.675 322.797,235.034 322.639 C 228.382 320.999,223.265 308.699,226.701 302.606 C 227.196 301.729,227.600 300.854,227.600 300.661 C 227.600 298.681,233.575 294.115,237.400 293.173 C 241.050 292.274,240.761 292.271,244.533 293.230 M348.126 293.168 C 349.926 293.595,351.634 294.268,352.152 294.755 C 352.647 295.220,353.199 295.600,353.379 295.600 C 353.887 295.600,356.799 298.543,356.800 299.057 C 356.800 299.309,357.060 299.614,357.378 299.736 C 357.695 299.858,358.179 300.732,358.451 301.679 C 358.724 302.625,359.185 303.755,359.474 304.189 C 360.193 305.267,360.180 311.160,359.457 312.211 C 359.158 312.645,358.789 313.679,358.637 314.509 C 358.484 315.343,358.011 316.236,357.580 316.505 C 357.151 316.773,356.800 317.204,356.800 317.462 C 356.800 318.361,352.387 322.122,350.800 322.577 C 350.250 322.735,349.204 323.133,348.475 323.463 C 346.749 324.243,342.120 323.985,339.388 322.957 C 325.495 317.729,326.541 297.047,340.890 293.244 C 344.535 292.278,344.377 292.280,348.126 293.168 " stroke="none" fill="#cfcfd0" fill-rule="evenodd"></path><path id="path3" d="M204.412 62.828 C 200.384 65.855,193.600 73.508,193.600 75.026 C 193.600 75.282,193.250 75.937,192.822 76.481 C 192.394 77.025,191.837 78.292,191.584 79.296 C 191.015 81.557,189.550 82.991,187.200 83.587 C 186.210 83.838,184.680 84.375,183.800 84.780 C 178.878 87.045,174.165 89.446,172.572 90.502 C 170.581 91.820,168.655 91.864,166.200 90.645 C 163.051 89.082,147.372 88.740,142.600 90.130 C 141.500 90.451,139.341 91.080,137.802 91.530 C 135.662 92.155,134.686 92.694,133.653 93.822 L 132.301 95.296 132.521 99.548 C 132.807 105.066,133.874 112.593,134.563 113.941 C 134.860 114.523,135.231 115.630,135.387 116.400 C 135.828 118.585,138.612 124.611,140.393 127.240 C 141.759 129.256,141.929 131.246,140.954 133.800 C 140.618 134.680,140.188 136.030,139.999 136.800 C 139.388 139.286,138.003 145.750,137.691 147.564 C 137.427 149.103,137.134 149.499,135.394 150.658 C 130.079 154.199,129.186 154.912,126.058 158.105 C 121.539 162.717,120.049 164.781,116.887 170.800 C 114.145 176.019,114.520 177.873,119.091 181.717 C 119.930 182.423,120.973 183.320,121.408 183.710 C 123.577 185.655,124.555 186.395,125.245 186.614 C 125.660 186.746,126.000 187.032,126.000 187.249 C 126.000 187.467,126.786 187.993,127.747 188.418 C 128.708 188.843,129.705 189.445,129.964 189.756 C 130.222 190.067,130.920 190.443,131.516 190.592 C 132.112 190.741,132.870 191.096,133.200 191.381 C 133.530 191.666,134.520 192.120,135.400 192.389 C 136.280 192.659,137.720 193.212,138.600 193.619 C 139.480 194.026,141.190 194.487,142.400 194.643 C 145.889 195.094,149.600 197.595,149.600 199.495 C 149.600 199.683,149.867 200.189,150.193 200.619 C 150.519 201.048,151.586 202.480,152.564 203.800 C 153.542 205.120,155.075 207.003,155.971 207.984 C 157.889 210.085,157.997 211.032,156.768 215.010 C 155.706 218.447,155.573 227.665,156.542 230.700 C 156.875 231.745,157.347 233.609,157.590 234.842 C 158.305 238.465,158.843 238.801,163.916 238.792 C 168.868 238.783,173.416 238.211,174.586 237.450 C 175.034 237.159,176.120 236.788,177.000 236.626 C 177.880 236.464,179.230 235.995,180.000 235.583 C 180.770 235.171,182.030 234.556,182.800 234.217 C 184.905 233.289,187.495 231.762,188.261 230.996 C 189.056 230.202,192.278 230.439,193.746 231.401 C 194.218 231.710,196.623 232.228,199.090 232.551 C 201.558 232.874,203.785 233.267,204.039 233.424 C 204.294 233.581,207.146 233.823,210.377 233.961 L 216.252 234.212 218.826 236.833 C 221.294 239.346,226.043 242.800,227.031 242.800 C 227.290 242.800,227.708 243.048,227.959 243.350 C 228.210 243.653,229.267 244.117,230.308 244.383 C 231.348 244.648,232.733 245.153,233.385 245.505 C 236.043 246.941,240.800 245.605,240.800 243.421 C 240.800 243.185,241.160 242.768,241.600 242.493 C 242.040 242.218,242.400 241.747,242.400 241.446 C 242.400 241.144,242.699 240.651,243.065 240.349 C 243.431 240.047,244.066 239.080,244.477 238.200 C 244.888 237.320,245.393 236.330,245.599 236.000 C 246.799 234.077,248.394 228.895,248.642 226.115 C 248.947 222.686,248.625 223.155,253.656 218.800 C 257.341 215.610,261.072 211.533,263.268 208.300 C 265.121 205.571,266.235 205.015,270.495 204.695 C 272.612 204.536,274.280 204.136,275.771 203.431 C 276.970 202.864,278.078 202.400,278.234 202.400 C 279.720 202.400,284.400 198.084,284.400 196.713 C 284.400 193.187,279.716 184.173,276.037 180.619 L 274.400 179.038 274.383 173.019 C 274.373 169.708,274.212 166.280,274.025 165.400 C 273.254 161.772,272.048 157.582,271.078 155.168 C 270.147 152.849,269.592 151.773,266.983 147.239 C 264.422 142.790,257.813 136.126,252.600 132.738 C 249.733 130.875,243.017 127.600,242.063 127.600 C 241.810 127.600,240.567 127.247,239.302 126.815 C 231.159 124.037,214.942 125.181,210.046 128.879 C 209.521 129.276,208.891 129.603,208.646 129.607 C 208.222 129.614,205.736 131.137,203.622 132.684 C 201.825 134.000,196.870 139.107,195.728 140.819 C 194.064 143.316,191.654 147.722,191.625 148.322 C 191.611 148.609,191.239 149.636,190.799 150.603 C 189.068 154.402,188.686 166.322,190.167 170.300 C 190.515 171.235,191.063 172.701,191.384 173.558 C 191.917 174.982,192.848 176.558,194.706 179.180 C 198.402 184.395,204.265 188.126,211.800 190.055 C 214.232 190.678,222.015 190.342,223.218 189.563 C 223.758 189.213,224.740 188.797,225.400 188.638 C 228.103 187.988,230.800 185.648,230.800 183.952 C 230.800 181.564,228.441 180.920,225.484 182.500 C 219.457 185.721,208.834 182.015,203.800 174.936 C 201.290 171.406,199.858 162.647,201.313 159.729 C 201.622 159.108,202.115 157.700,202.408 156.600 C 202.701 155.500,203.067 154.510,203.220 154.400 C 203.374 154.290,203.840 153.570,204.255 152.800 C 205.840 149.864,211.529 144.400,213.001 144.400 C 213.271 144.400,213.921 144.063,214.446 143.652 C 215.528 142.804,216.507 142.555,220.929 142.003 C 226.510 141.306,233.761 142.677,238.000 145.230 C 238.330 145.429,239.255 145.947,240.055 146.381 C 241.665 147.255,247.600 152.831,247.600 153.471 C 247.600 153.694,247.944 154.187,248.363 154.567 C 248.783 154.947,249.353 155.830,249.629 156.529 C 249.906 157.228,250.350 158.070,250.616 158.400 C 254.899 163.704,253.616 181.497,248.367 189.600 C 245.583 193.898,244.413 195.434,242.261 197.617 C 232.924 207.091,221.091 210.603,206.702 208.170 C 203.352 207.604,200.428 206.991,200.205 206.808 C 199.982 206.625,198.720 206.168,197.400 205.791 C 196.080 205.415,194.730 204.880,194.400 204.604 C 194.070 204.327,193.128 203.885,192.306 203.621 C 191.484 203.358,190.708 202.974,190.581 202.770 C 190.455 202.565,189.582 202.047,188.641 201.619 C 187.700 201.190,186.699 200.561,186.416 200.220 C 186.134 199.879,185.648 199.600,185.338 199.600 C 185.029 199.600,184.669 199.325,184.540 198.988 C 184.411 198.651,183.883 198.155,183.368 197.885 C 182.263 197.306,177.037 192.252,175.600 190.373 C 175.050 189.653,174.195 188.637,173.700 188.114 C 173.205 187.591,172.800 187.006,172.800 186.813 C 172.800 186.619,172.383 185.953,171.873 185.331 C 171.363 184.709,170.714 183.621,170.430 182.913 C 170.146 182.206,169.663 181.419,169.357 181.164 C 169.051 180.910,168.800 180.395,168.800 180.019 C 168.800 179.643,168.362 178.471,167.827 177.413 C 167.292 176.356,166.637 174.571,166.373 173.446 C 166.109 172.320,165.660 170.940,165.376 170.378 C 163.845 167.347,163.878 148.151,165.420 145.164 C 165.714 144.594,166.163 142.932,166.417 141.470 C 166.672 140.008,167.226 138.135,167.650 137.306 C 168.073 136.478,168.528 135.125,168.661 134.300 C 168.794 133.475,169.044 132.800,169.218 132.800 C 169.392 132.800,169.858 131.945,170.254 130.900 C 170.650 129.855,171.385 128.390,171.887 127.644 C 172.389 126.898,172.800 126.071,172.800 125.806 C 172.800 125.541,173.160 124.998,173.600 124.600 C 174.040 124.202,174.400 123.726,174.400 123.542 C 174.400 123.359,175.255 122.113,176.300 120.774 C 177.345 119.434,178.373 118.003,178.584 117.594 C 178.796 117.184,179.304 116.762,179.714 116.654 C 180.124 116.547,180.557 116.086,180.676 115.630 C 180.796 115.173,181.102 114.800,181.358 114.800 C 181.613 114.800,182.283 114.305,182.847 113.700 C 184.170 112.281,188.571 109.127,190.500 108.217 C 191.325 107.827,192.000 107.349,192.000 107.154 C 192.000 106.959,192.235 106.800,192.521 106.800 C 192.808 106.800,193.933 106.363,195.021 105.829 C 196.110 105.295,197.810 104.651,198.800 104.397 C 199.790 104.143,200.960 103.709,201.400 103.432 C 201.840 103.156,203.640 102.710,205.400 102.441 C 207.160 102.173,209.590 101.669,210.800 101.323 C 214.051 100.392,228.594 100.382,231.400 101.308 C 232.500 101.672,234.660 102.182,236.200 102.442 C 237.740 102.702,239.360 103.147,239.800 103.431 C 240.240 103.716,241.500 104.165,242.600 104.430 C 243.700 104.696,244.870 105.135,245.200 105.407 C 245.530 105.679,246.520 106.149,247.400 106.451 C 248.280 106.753,249.227 107.214,249.504 107.476 C 249.782 107.737,250.637 108.178,251.404 108.456 C 252.172 108.734,252.800 109.113,252.800 109.300 C 252.800 109.486,253.297 109.855,253.905 110.119 C 256.665 111.320,267.575 120.858,269.400 123.665 C 269.620 124.004,270.340 125.006,271.000 125.893 C 271.660 126.780,272.422 127.842,272.693 128.253 C 272.964 128.664,273.665 129.720,274.252 130.600 C 274.839 131.480,275.565 132.740,275.865 133.400 C 276.166 134.060,276.580 134.870,276.785 135.200 C 277.606 136.522,279.114 139.938,279.790 142.008 C 280.184 143.214,280.641 144.380,280.806 144.600 C 280.971 144.820,281.314 145.983,281.567 147.184 C 282.261 150.473,284.508 151.998,286.004 150.195 C 287.244 148.701,285.852 136.179,283.759 130.000 C 283.423 129.010,282.912 127.364,282.622 126.342 C 282.332 125.319,281.820 123.969,281.485 123.342 C 281.149 122.714,280.195 120.760,279.363 119.000 C 278.532 117.240,277.553 115.350,277.188 114.800 C 276.824 114.250,276.002 112.991,275.363 112.002 C 273.496 109.114,270.835 105.684,268.538 103.203 L 266.403 100.897 266.278 95.348 C 266.128 88.703,264.843 84.069,262.499 81.725 C 260.904 80.131,260.258 80.091,254.106 81.198 C 250.116 81.917,248.533 82.474,244.100 84.723 C 242.900 85.331,242.700 85.332,241.500 84.734 C 239.361 83.669,235.233 82.401,231.268 81.591 C 225.641 80.442,224.859 80.082,224.372 78.417 C 223.088 74.028,218.102 67.763,212.459 63.449 C 208.697 60.573,207.532 60.483,204.412 62.828 M211.843 64.458 C 216.811 68.165,220.026 71.982,222.496 77.106 C 224.525 81.315,225.158 81.798,229.448 82.407 C 231.343 82.676,233.364 83.140,233.940 83.439 C 234.516 83.738,235.913 84.174,237.045 84.409 C 238.176 84.644,239.792 85.188,240.636 85.618 C 242.622 86.631,243.294 86.604,245.541 85.422 C 250.254 82.941,254.013 82.000,259.209 82.000 C 262.934 82.000,264.869 86.645,265.021 95.953 C 265.105 101.102,265.148 101.345,266.134 102.353 C 268.069 104.330,269.004 105.405,271.300 108.294 C 272.565 109.886,273.600 111.314,273.600 111.468 C 273.600 111.622,273.939 112.120,274.354 112.574 C 274.769 113.028,275.865 114.840,276.789 116.600 C 277.713 118.360,278.610 119.980,278.782 120.200 C 278.954 120.420,279.402 121.543,279.778 122.695 C 280.154 123.848,280.609 124.882,280.790 124.994 C 280.971 125.106,281.342 126.143,281.613 127.299 C 281.885 128.454,282.344 129.868,282.633 130.441 C 283.696 132.543,285.962 148.291,285.346 149.288 C 285.167 149.577,283.702 149.364,283.270 148.987 C 283.199 148.925,282.811 147.642,282.408 146.137 C 278.690 132.247,267.475 117.024,255.639 109.800 C 255.278 109.580,254.447 109.031,253.792 108.580 C 253.136 108.130,252.150 107.546,251.600 107.283 C 251.050 107.021,250.330 106.633,250.000 106.422 C 247.929 105.096,240.660 102.217,237.805 101.591 C 236.707 101.351,234.907 100.849,233.805 100.477 C 230.007 99.195,212.266 99.497,206.200 100.948 C 200.056 102.417,193.434 104.884,190.400 106.832 C 189.850 107.186,188.590 107.991,187.600 108.623 C 181.730 112.365,174.766 119.922,171.259 126.353 C 157.679 151.259,160.748 178.345,179.104 195.600 C 183.422 199.659,187.590 202.797,188.667 202.799 C 188.923 202.800,189.193 202.953,189.267 203.141 C 189.431 203.561,195.059 206.400,195.728 206.400 C 195.994 206.400,196.844 206.739,197.617 207.153 C 198.390 207.567,200.097 208.114,201.411 208.367 C 202.725 208.620,204.790 209.128,206.000 209.496 C 209.152 210.452,220.245 210.479,222.800 209.536 C 223.790 209.170,225.320 208.754,226.200 208.610 C 227.080 208.466,228.520 208.014,229.400 207.604 C 230.280 207.195,231.630 206.567,232.400 206.209 C 238.249 203.486,248.800 193.796,248.800 191.149 C 248.800 190.976,249.250 190.172,249.800 189.362 C 250.350 188.551,250.800 187.576,250.800 187.193 C 250.800 186.811,251.054 186.287,251.365 186.029 C 251.676 185.771,252.141 184.624,252.400 183.480 C 252.659 182.336,253.163 180.770,253.521 180.000 C 254.322 178.278,254.710 167.438,254.068 164.744 C 251.214 152.780,242.475 144.043,230.522 141.204 C 203.407 134.764,187.101 170.740,211.593 182.966 C 215.731 185.031,224.306 185.295,226.377 183.421 C 227.642 182.276,229.600 182.605,229.600 183.962 C 229.600 186.235,222.278 189.200,216.667 189.200 C 209.393 189.200,200.574 185.034,196.575 179.708 C 195.952 178.879,195.329 178.110,195.192 178.000 C 194.771 177.665,192.543 173.145,191.543 170.600 C 190.328 167.507,190.126 155.129,191.256 153.000 C 191.606 152.340,192.113 150.864,192.381 149.720 C 192.650 148.576,193.124 147.429,193.435 147.171 C 193.746 146.913,194.000 146.510,194.000 146.275 C 194.000 144.468,200.732 136.246,204.456 133.505 C 209.122 130.070,214.270 127.884,220.400 126.735 C 223.540 126.146,235.141 126.547,236.636 127.296 C 237.276 127.617,238.930 128.112,240.312 128.397 C 241.693 128.681,242.910 129.055,243.016 129.227 C 243.123 129.398,244.133 129.846,245.263 130.221 C 246.392 130.596,247.945 131.330,248.714 131.851 C 249.483 132.373,250.286 132.800,250.498 132.800 C 250.711 132.800,251.393 133.205,252.015 133.700 C 252.636 134.195,253.803 135.050,254.608 135.600 C 265.665 143.156,272.556 157.018,273.150 172.898 C 273.391 179.359,273.435 179.629,274.400 180.567 C 276.818 182.918,280.000 187.252,280.000 188.196 C 280.000 188.474,280.254 188.913,280.565 189.171 C 280.876 189.429,281.350 190.576,281.619 191.720 C 281.887 192.864,282.353 194.286,282.654 194.880 C 283.520 196.593,282.190 199.600,280.565 199.600 C 280.314 199.600,279.679 199.937,279.154 200.349 C 276.879 202.134,270.560 203.992,266.741 203.998 C 265.157 204.000,263.817 205.205,261.742 208.493 C 260.592 210.314,253.885 217.158,250.226 220.243 L 247.853 222.245 247.564 225.271 C 246.952 231.669,242.247 241.288,238.152 244.509 C 235.819 246.344,225.107 241.492,219.823 236.208 C 217.054 233.439,215.093 232.202,214.086 232.588 C 212.520 233.189,199.126 231.626,194.200 230.267 C 189.987 229.104,188.964 229.149,186.877 230.585 C 182.889 233.328,177.458 235.520,170.400 237.234 C 168.329 237.737,162.236 238.146,161.092 237.859 C 159.493 237.458,158.891 236.017,157.778 229.935 C 156.662 223.838,156.662 222.423,157.786 216.600 C 159.149 209.532,159.297 210.305,155.743 205.932 C 152.548 201.999,151.687 200.829,149.593 197.570 C 147.860 194.872,147.234 194.456,143.968 193.828 C 134.694 192.046,124.171 185.989,117.300 178.476 C 115.616 176.635,115.658 175.774,117.624 171.845 C 119.154 168.788,119.809 167.688,122.509 163.648 C 124.769 160.265,133.914 152.040,135.472 151.989 C 137.653 151.918,138.731 149.353,140.257 140.600 C 140.603 138.620,141.030 136.820,141.207 136.600 C 141.681 136.010,142.800 131.466,142.800 130.129 C 142.800 129.488,142.176 128.004,141.400 126.800 C 140.630 125.605,140.000 124.455,140.000 124.245 C 140.000 124.035,139.760 123.579,139.466 123.231 C 138.169 121.698,135.091 112.432,134.407 108.000 C 132.842 97.854,133.888 93.779,138.363 92.592 C 139.593 92.266,141.417 91.735,142.416 91.413 C 147.603 89.739,159.987 89.844,165.216 91.605 C 169.420 93.022,171.208 93.078,172.679 91.840 C 173.366 91.262,174.530 90.516,175.264 90.181 C 175.999 89.847,177.770 88.950,179.200 88.189 C 180.630 87.427,182.430 86.602,183.200 86.357 C 183.970 86.112,184.960 85.690,185.400 85.421 C 185.840 85.152,187.100 84.709,188.200 84.437 C 190.572 83.851,191.862 82.763,192.218 81.050 C 192.453 79.915,194.714 74.881,195.204 74.400 C 195.316 74.290,195.882 73.480,196.462 72.600 C 197.339 71.271,199.372 68.868,201.203 67.000 C 201.771 66.420,203.568 64.941,205.355 63.582 C 207.558 61.907,208.617 62.050,211.843 64.458 M63.400 260.407 C 62.520 260.576,60.360 260.990,58.600 261.327 C 56.840 261.665,54.680 262.300,53.800 262.740 C 52.920 263.179,51.750 263.745,51.200 263.996 C 48.860 265.066,45.965 266.994,43.368 269.212 C 40.901 271.319,35.600 278.045,35.600 279.068 C 35.600 279.301,35.260 279.925,34.844 280.453 C 34.428 280.982,33.853 282.221,33.567 283.207 C 33.280 284.193,32.815 285.366,32.533 285.814 C 30.753 288.642,30.789 305.893,32.582 308.628 C 32.890 309.098,33.263 310.129,33.411 310.918 C 33.559 311.708,34.112 312.939,34.640 313.654 C 35.168 314.370,35.600 315.258,35.600 315.629 C 35.600 315.999,35.882 316.536,36.226 316.822 C 36.571 317.108,37.137 317.895,37.484 318.571 C 37.831 319.247,38.494 320.187,38.957 320.661 C 39.421 321.134,40.455 322.214,41.256 323.061 C 42.057 323.907,43.261 325.050,43.932 325.600 C 44.603 326.150,45.607 326.991,46.163 327.469 C 46.719 327.947,47.585 328.464,48.087 328.619 C 48.589 328.773,49.321 329.236,49.713 329.647 C 50.105 330.058,51.140 330.509,52.013 330.648 C 52.886 330.788,53.600 331.037,53.600 331.203 C 53.600 333.635,72.981 333.972,77.051 331.611 C 77.738 331.212,78.839 330.767,79.497 330.623 C 80.154 330.478,81.031 330.047,81.446 329.665 C 81.861 329.283,82.772 328.736,83.471 328.449 C 84.170 328.162,84.840 327.673,84.959 327.363 C 85.078 327.054,85.429 326.800,85.739 326.800 C 86.458 326.800,92.800 320.482,92.800 319.766 C 92.800 319.470,93.148 319.042,93.573 318.814 C 93.998 318.587,94.466 318.022,94.613 317.559 C 94.760 317.096,95.312 316.081,95.840 315.303 C 96.368 314.525,96.800 313.627,96.800 313.307 C 96.800 312.988,97.151 312.280,97.580 311.735 C 98.009 311.190,98.481 309.901,98.630 308.872 C 98.779 307.842,99.041 306.820,99.211 306.600 C 99.922 305.685,100.370 302.727,100.448 298.437 C 100.570 291.792,102.566 292.400,80.631 292.400 C 58.909 292.400,59.975 292.065,60.509 298.719 C 60.852 302.989,60.166 302.800,75.296 302.800 L 88.103 302.800 87.832 304.844 C 87.143 310.037,80.675 318.077,75.899 319.678 C 75.185 319.917,74.330 320.341,74.000 320.619 C 72.153 322.176,61.011 322.306,57.800 320.807 C 56.920 320.397,55.570 319.776,54.800 319.427 C 53.079 318.648,50.713 316.945,50.281 316.173 C 50.105 315.858,49.728 315.600,49.444 315.600 C 49.161 315.600,48.721 315.145,48.468 314.589 C 48.214 314.033,47.735 313.473,47.403 313.346 C 47.072 313.219,46.800 312.877,46.800 312.588 C 46.800 312.298,46.368 311.548,45.839 310.920 C 45.311 310.292,44.676 309.026,44.429 308.107 C 44.181 307.188,43.669 306.126,43.289 305.747 C 42.306 304.763,42.243 289.700,43.219 288.724 C 43.559 288.384,44.091 287.317,44.402 286.353 C 44.712 285.389,45.086 284.510,45.233 284.400 C 45.380 284.290,45.870 283.506,46.323 282.657 C 46.775 281.808,47.518 280.853,47.973 280.534 C 48.428 280.215,48.800 279.716,48.800 279.424 C 48.800 279.132,49.173 278.796,49.630 278.676 C 50.086 278.557,50.557 278.086,50.676 277.630 C 50.796 277.173,51.187 276.797,51.547 276.794 C 51.906 276.790,52.809 276.250,53.554 275.594 C 54.299 274.937,55.220 274.400,55.600 274.400 C 55.981 274.400,56.733 274.053,57.272 273.630 C 59.591 271.805,73.342 271.643,74.819 273.423 C 75.064 273.718,75.925 274.174,76.732 274.437 C 77.539 274.701,78.709 275.340,79.331 275.858 C 79.953 276.376,80.718 276.800,81.031 276.800 C 81.344 276.800,81.600 276.976,81.600 277.191 C 81.600 277.853,83.472 278.850,84.785 278.887 C 86.089 278.924,88.800 276.535,88.800 275.350 C 88.800 275.047,89.064 274.800,89.386 274.800 C 90.612 274.800,91.248 271.984,90.386 270.374 C 90.158 269.948,89.717 269.600,89.406 269.600 C 89.094 269.600,88.695 269.341,88.518 269.024 C 88.021 268.137,81.871 264.150,80.141 263.594 C 79.293 263.322,78.312 262.848,77.959 262.541 C 77.607 262.234,75.807 261.700,73.959 261.353 C 72.112 261.006,69.790 260.570,68.800 260.385 C 66.677 259.987,65.565 259.992,63.400 260.407 M71.600 261.759 C 81.717 263.413,92.049 270.623,89.197 274.039 C 84.990 279.078,84.935 279.099,82.052 276.806 C 63.644 262.163,38.244 277.521,41.663 301.227 C 45.441 327.424,80.993 330.725,88.604 305.586 C 89.736 301.849,90.301 302.000,75.204 302.000 C 60.560 302.000,61.600 302.322,61.600 297.782 C 61.600 292.756,59.939 293.147,80.708 293.284 C 101.796 293.423,100.238 293.006,99.805 298.397 C 99.530 301.824,97.866 309.767,97.256 310.568 C 97.075 310.806,96.612 311.810,96.227 312.800 C 94.607 316.968,89.584 323.096,85.200 326.253 C 63.674 341.755,34.700 327.978,31.960 300.936 C 29.587 277.518,49.231 258.102,71.600 261.759 M204.000 265.267 C 202.369 265.499,200.870 266.002,199.978 266.618 C 199.197 267.158,198.381 267.600,198.165 267.600 C 197.617 267.600,193.850 271.587,193.253 272.800 C 192.982 273.350,192.514 274.250,192.212 274.800 C 191.030 276.950,190.800 282.126,190.800 306.540 C 190.800 335.653,190.211 332.800,196.223 332.800 C 202.580 332.800,202.000 334.784,202.000 313.049 C 202.000 298.066,202.097 294.818,202.554 294.438 C 202.923 294.132,205.087 293.993,209.009 294.023 C 216.541 294.081,216.524 294.093,216.504 288.811 C 216.484 283.530,216.656 283.646,208.647 283.510 L 202.200 283.400 202.296 281.201 C 202.472 277.161,204.783 275.660,210.881 275.622 C 214.701 275.598,216.246 275.120,216.647 273.839 C 216.792 273.378,217.241 272.577,217.645 272.059 C 218.048 271.542,218.501 270.467,218.651 269.669 C 218.800 268.872,219.165 267.978,219.461 267.682 C 220.027 267.116,219.589 265.740,218.640 265.106 C 218.030 264.698,207.168 264.818,204.000 265.267 M218.143 266.337 C 218.895 267.168,218.619 268.269,216.660 272.243 C 215.510 274.577,214.930 274.788,209.654 274.796 C 205.542 274.802,203.207 276.064,201.799 279.040 C 199.583 283.723,200.419 284.400,208.413 284.400 C 215.439 284.400,215.573 284.463,215.885 287.903 C 216.333 292.849,215.534 293.354,207.576 293.148 C 203.692 293.048,202.747 293.143,201.861 293.723 L 200.800 294.418 200.800 312.787 C 200.800 334.342,201.281 332.460,195.868 332.107 C 194.071 331.990,192.366 331.708,192.079 331.481 C 191.659 331.147,191.582 325.900,191.679 304.234 L 191.800 277.400 193.133 274.800 C 195.468 270.242,199.939 266.674,204.200 265.966 C 208.122 265.314,217.442 265.562,218.143 266.337 M152.555 283.589 C 151.650 283.782,150.213 284.313,149.361 284.770 C 148.509 285.226,147.593 285.600,147.327 285.600 C 147.060 285.600,146.356 286.050,145.762 286.600 C 145.169 287.150,144.492 287.600,144.259 287.600 C 143.679 287.600,137.600 293.953,137.600 294.559 C 137.600 294.826,137.168 295.630,136.640 296.346 C 136.112 297.061,135.559 298.292,135.411 299.082 C 135.263 299.871,134.861 300.946,134.518 301.470 C 133.737 302.661,133.334 310.665,133.937 313.000 C 136.002 320.994,143.344 330.800,147.264 330.800 C 147.669 330.800,148.000 330.951,148.000 331.136 C 148.000 331.601,149.632 332.299,151.464 332.617 C 152.309 332.763,153.771 333.134,154.714 333.442 C 156.921 334.161,160.530 334.157,162.140 333.434 C 162.833 333.122,164.242 332.753,165.272 332.613 C 166.301 332.474,167.561 332.033,168.072 331.635 C 168.582 331.236,169.360 330.796,169.800 330.657 C 170.240 330.518,171.118 329.958,171.752 329.411 C 173.169 328.189,173.600 328.406,173.600 330.344 C 173.600 332.547,174.073 332.800,178.200 332.800 C 183.283 332.800,182.800 335.392,182.800 308.134 C 182.800 280.792,183.326 283.600,178.200 283.600 C 174.543 283.600,173.600 284.006,173.600 285.581 C 173.600 287.621,173.301 287.969,171.974 287.468 C 171.328 287.224,170.800 286.892,170.800 286.731 C 170.800 284.568,158.167 282.393,152.555 283.589 M234.603 283.646 C 233.505 283.869,232.335 284.287,232.003 284.575 C 231.672 284.863,230.747 285.308,229.948 285.564 C 229.150 285.821,228.177 286.383,227.786 286.815 C 227.396 287.247,226.866 287.600,226.610 287.600 C 226.354 287.600,225.761 288.005,225.292 288.500 C 224.823 288.995,224.241 289.580,223.999 289.800 C 222.522 291.142,219.945 294.372,219.536 295.395 C 219.271 296.058,218.742 297.010,218.360 297.512 C 217.979 298.013,217.540 299.183,217.386 300.112 C 217.232 301.040,216.857 302.286,216.553 302.880 C 214.631 306.636,217.112 318.816,220.691 323.198 C 223.296 326.387,228.389 330.800,229.464 330.800 C 229.759 330.800,230.347 331.147,230.771 331.571 C 231.197 331.997,232.406 332.464,233.471 332.614 C 234.532 332.764,236.265 333.161,237.321 333.496 C 239.407 334.158,243.648 334.035,245.022 333.273 C 245.450 333.035,246.668 332.729,247.729 332.592 C 248.823 332.450,249.991 332.009,250.429 331.571 C 250.853 331.147,251.464 330.800,251.786 330.800 C 252.108 330.800,252.983 330.264,253.729 329.609 C 255.210 328.309,255.600 328.386,255.600 329.978 C 255.600 332.792,262.493 334.307,264.800 332.000 C 266.077 330.723,266.050 286.280,264.771 284.654 C 262.864 282.230,255.600 283.420,255.600 286.156 C 255.600 286.877,255.487 287.579,255.349 287.717 C 255.069 287.998,252.948 287.000,252.736 286.489 C 251.779 284.180,240.603 282.427,234.603 283.646 M289.493 283.612 C 288.665 283.820,287.544 284.280,287.002 284.635 C 285.105 285.879,283.200 286.052,282.807 285.018 C 282.346 283.806,281.673 283.600,278.167 283.600 C 273.168 283.600,273.600 281.259,273.600 308.338 C 273.600 335.626,272.941 332.800,279.303 332.800 C 285.335 332.800,284.800 334.355,284.800 316.812 L 284.800 302.082 285.963 299.741 C 288.395 294.848,295.515 292.638,299.109 295.662 C 299.803 296.246,300.516 296.786,300.694 296.862 C 300.873 296.938,301.599 297.886,302.309 298.969 L 303.600 300.937 303.600 315.980 C 303.600 334.321,303.094 332.800,309.194 332.800 C 315.453 332.800,314.880 334.664,314.721 314.844 C 314.588 298.219,314.402 296.000,313.136 296.000 C 312.951 296.000,312.800 295.628,312.800 295.174 C 312.800 294.280,312.202 292.957,311.365 292.000 C 311.076 291.670,310.295 290.770,309.629 290.000 C 307.503 287.541,306.136 286.484,302.865 284.770 C 300.111 283.326,293.062 282.716,289.493 283.612 M338.555 283.589 C 337.650 283.782,336.213 284.313,335.361 284.770 C 334.509 285.226,333.593 285.600,333.327 285.600 C 333.060 285.600,332.356 286.050,331.762 286.600 C 331.169 287.150,330.537 287.600,330.359 287.600 C 330.068 287.600,325.851 291.710,324.613 293.200 C 319.394 299.484,318.232 311.223,322.060 319.000 C 324.565 324.089,329.709 329.627,332.845 330.611 C 333.370 330.775,334.218 331.236,334.728 331.635 C 335.239 332.033,336.499 332.472,337.528 332.610 C 338.558 332.748,340.079 333.117,340.908 333.431 C 342.813 334.150,346.432 334.164,348.119 333.459 C 348.831 333.162,350.253 332.793,351.278 332.639 C 352.304 332.485,353.561 332.033,354.072 331.635 C 354.582 331.236,355.411 330.781,355.913 330.624 C 356.415 330.467,357.293 329.905,357.863 329.376 C 359.130 328.203,359.600 328.425,359.600 330.195 C 359.600 332.382,360.363 332.800,364.349 332.800 C 369.258 332.800,368.800 335.338,368.800 308.134 C 368.800 280.753,369.351 283.600,364.055 283.600 C 360.564 283.600,359.600 284.075,359.600 285.796 C 359.600 287.613,359.267 287.956,357.974 287.468 C 357.328 287.224,356.800 286.882,356.800 286.708 C 356.800 284.552,344.168 282.392,338.555 283.589 M107.200 284.118 L 106.200 284.624 106.092 308.012 L 105.984 331.400 106.836 332.100 C 107.882 332.959,115.504 333.136,116.320 332.320 C 116.675 331.965,116.800 328.140,116.800 317.589 L 116.800 303.338 117.838 300.769 C 119.050 297.768,119.588 297.087,121.436 296.210 C 122.186 295.854,122.800 295.391,122.800 295.181 C 122.800 294.964,124.621 294.800,127.046 294.800 L 131.292 294.800 132.603 293.369 C 133.324 292.582,134.143 291.097,134.423 290.069 C 134.703 289.041,135.173 287.845,135.466 287.411 C 136.289 286.195,136.134 284.500,135.153 283.975 C 133.353 283.011,121.293 283.692,119.031 284.884 C 116.883 286.017,116.267 285.966,114.884 284.543 C 113.822 283.450,109.043 283.185,107.200 284.118 M166.400 285.195 C 167.610 285.726,169.643 286.866,170.919 287.728 C 173.583 289.529,173.520 289.549,174.145 286.730 L 174.617 284.600 177.808 284.498 C 182.666 284.342,182.184 281.809,182.309 308.128 C 182.435 334.398,182.830 332.021,178.322 332.107 C 174.853 332.174,174.404 331.965,174.387 330.276 C 174.361 327.639,173.501 327.267,171.105 328.856 C 150.638 342.421,126.059 319.144,137.315 296.856 C 142.523 286.544,156.607 280.897,166.400 285.195 M249.312 285.515 C 250.803 286.209,252.620 287.232,253.349 287.788 C 255.306 289.281,255.845 289.113,256.391 286.839 C 256.930 284.591,257.269 284.414,261.051 284.405 C 264.883 284.397,264.600 282.474,264.600 308.490 C 264.600 334.422,264.949 332.120,261.000 332.233 C 257.681 332.327,256.418 331.581,256.406 329.520 C 256.397 327.873,255.260 327.459,253.801 328.572 C 234.550 343.253,208.312 319.147,219.478 297.039 C 224.936 286.234,239.100 280.762,249.312 285.515 M301.334 284.979 C 307.051 287.329,310.876 291.445,313.004 297.533 C 314.210 300.986,314.606 330.599,313.458 331.552 C 312.615 332.252,307.218 332.411,305.700 331.780 L 304.400 331.241 304.400 316.798 C 304.400 299.818,304.377 299.663,301.338 296.625 C 296.399 291.686,289.015 292.809,285.342 299.057 L 284.200 301.000 284.078 316.069 C 283.977 328.586,283.859 331.219,283.380 331.616 C 282.534 332.319,275.884 332.333,275.042 331.635 C 274.331 331.045,274.201 285.665,274.908 284.958 C 275.316 284.550,279.718 284.243,280.900 284.539 C 281.498 284.689,282.011 285.275,282.338 286.180 L 282.847 287.588 285.319 286.340 C 289.358 284.301,290.361 284.057,294.800 284.038 C 298.345 284.022,299.364 284.169,301.334 284.979 M352.728 285.335 C 354.119 285.939,356.167 287.074,357.280 287.856 C 359.529 289.437,359.771 289.342,360.216 286.703 C 360.538 284.801,361.285 284.398,364.474 284.406 C 368.563 284.416,368.185 282.077,368.309 308.128 C 368.435 334.492,368.853 332.062,364.186 332.133 C 360.909 332.183,360.418 331.902,360.406 329.976 C 360.392 327.567,359.498 327.264,357.138 328.868 C 341.611 339.420,320.602 327.637,320.646 308.400 C 320.672 297.227,327.280 288.251,338.200 284.556 C 341.159 283.555,349.685 284.012,352.728 285.335 M114.400 285.876 C 115.092 287.348,115.547 287.328,119.200 285.662 C 121.481 284.622,131.166 283.903,133.846 284.576 C 135.184 284.912,135.038 286.762,133.395 290.273 C 131.682 293.934,131.585 293.997,127.638 294.018 C 122.183 294.045,119.439 295.479,117.497 299.313 L 116.400 301.480 116.400 316.291 C 116.400 327.660,116.284 331.195,115.900 331.501 C 115.022 332.202,109.140 332.375,107.890 331.737 L 106.781 331.170 106.890 308.352 C 107.017 281.985,106.603 284.279,111.198 284.484 C 113.687 284.595,113.826 284.656,114.400 285.876 M154.804 294.060 C 146.570 296.009,141.877 306.553,145.708 314.496 C 152.568 328.719,172.764 324.005,172.795 308.173 C 172.814 298.546,164.246 291.825,154.804 294.060 M236.940 294.142 C 228.832 296.210,224.218 306.556,227.907 314.400 C 234.588 328.610,255.395 323.871,255.314 308.159 C 255.265 298.642,246.253 291.768,236.940 294.142 M340.899 294.041 C 332.521 296.045,327.865 306.931,331.917 315.041 C 336.097 323.407,347.078 325.569,353.922 319.375 C 365.389 308.998,355.860 290.461,340.899 294.041 M164.594 295.770 C 165.429 296.337,166.344 296.800,166.629 296.800 C 166.913 296.800,167.257 297.151,167.394 297.580 C 167.530 298.008,167.977 298.466,168.387 298.596 C 168.797 298.726,169.330 299.320,169.572 299.916 C 169.813 300.512,170.408 301.625,170.894 302.389 C 171.935 304.026,172.176 311.736,171.244 313.600 C 169.791 316.507,167.379 319.600,166.565 319.600 C 166.393 319.600,165.868 319.960,165.400 320.400 C 160.585 324.923,148.559 320.723,146.233 313.705 C 145.851 312.552,145.373 311.507,145.169 311.381 C 144.599 311.029,144.725 305.890,145.326 304.989 C 145.615 304.555,146.066 303.456,146.328 302.547 C 146.817 300.849,150.492 296.400,151.406 296.400 C 151.673 296.400,152.330 296.055,152.865 295.634 C 154.923 294.016,162.132 294.100,164.594 295.770 M246.488 295.597 C 246.963 296.038,247.581 296.400,247.862 296.400 C 248.143 296.400,248.925 296.940,249.600 297.600 C 250.275 298.260,251.001 298.800,251.214 298.800 C 251.426 298.800,251.600 299.057,251.600 299.371 C 251.600 299.686,251.842 300.184,252.137 300.480 C 254.919 303.262,254.914 312.569,252.128 316.285 C 250.799 318.057,249.223 319.600,248.742 319.600 C 248.554 319.600,248.039 319.961,247.598 320.402 C 246.374 321.626,241.919 322.263,238.264 321.736 C 235.441 321.330,230.800 318.786,230.800 317.646 C 230.800 317.465,230.383 316.866,229.872 316.316 C 229.319 315.719,228.566 313.904,228.006 311.823 L 227.068 308.331 228.006 304.666 C 228.584 302.407,229.224 300.799,229.672 300.477 C 230.073 300.190,230.400 299.767,230.400 299.538 C 230.400 299.094,232.704 296.800,233.149 296.800 C 233.295 296.800,234.054 296.365,234.837 295.833 C 237.306 294.156,244.779 294.004,246.488 295.597 M350.604 295.777 C 351.433 296.340,352.253 296.800,352.425 296.800 C 352.973 296.800,355.033 299.070,356.355 301.131 C 358.488 304.454,358.515 313.149,356.400 315.400 C 355.960 315.868,355.598 316.420,355.596 316.626 C 355.591 317.085,353.043 319.600,352.583 319.600 C 352.401 319.600,351.868 319.960,351.400 320.400 C 349.479 322.205,340.987 322.472,338.716 320.798 C 338.120 320.359,337.485 320.000,337.305 320.000 C 336.931 320.000,335.013 318.204,333.727 316.649 C 333.248 316.069,332.570 314.614,332.222 313.417 C 331.874 312.220,331.412 311.131,331.195 310.997 C 330.506 310.571,330.750 306.466,331.571 304.664 C 331.995 303.734,332.457 302.511,332.599 301.947 C 332.915 300.688,336.835 296.400,337.670 296.400 C 338.003 296.400,338.593 296.050,338.980 295.622 C 340.422 294.028,348.180 294.132,350.604 295.777 " stroke="none" fill="#6d5e50" fill-rule="evenodd"></path><path id="path4" d="M60.600 261.797 C 25.925 267.410,21.396 318.731,54.509 330.816 C 70.295 336.577,90.352 327.915,96.227 312.800 C 96.612 311.810,97.075 310.806,97.256 310.568 C 97.866 309.767,99.530 301.824,99.805 298.397 C 100.238 293.006,101.796 293.423,80.708 293.284 C 59.939 293.147,61.600 292.756,61.600 297.782 C 61.600 302.322,60.560 302.000,75.204 302.000 C 90.301 302.000,89.736 301.849,88.604 305.586 C 80.993 330.725,45.441 327.424,41.663 301.227 C 38.244 277.521,63.644 262.163,82.052 276.806 C 84.935 279.099,84.990 279.078,89.197 274.039 C 90.702 272.237,90.293 271.163,87.238 268.885 C 78.461 262.337,70.443 260.204,60.600 261.797 M75.778 263.550 C 76.645 264.014,77.950 264.504,78.678 264.641 C 79.405 264.777,80.000 265.031,80.000 265.205 C 80.000 265.379,80.809 265.854,81.799 266.260 C 82.788 266.667,83.598 267.130,83.599 267.290 C 83.599 267.449,84.130 267.854,84.778 268.189 C 85.427 268.524,86.443 269.249,87.037 269.799 C 87.631 270.350,88.267 270.800,88.451 270.800 C 89.143 270.800,89.304 272.833,88.666 273.520 C 88.319 273.894,87.321 274.995,86.448 275.966 C 84.667 277.946,85.254 278.025,81.400 275.292 C 58.913 259.348,31.089 283.930,43.070 309.157 C 44.511 312.190,44.751 312.570,46.300 314.256 C 46.795 314.795,47.200 315.365,47.200 315.522 C 47.200 316.252,53.069 320.800,54.012 320.800 C 54.398 320.800,54.807 321.042,54.921 321.338 C 55.034 321.634,55.999 322.093,57.064 322.358 C 58.129 322.623,59.810 323.102,60.800 323.422 C 63.112 324.170,68.088 324.170,70.400 323.422 C 71.390 323.102,73.052 322.628,74.092 322.370 C 75.133 322.112,76.190 321.653,76.441 321.350 C 76.692 321.048,77.106 320.800,77.360 320.800 C 78.994 320.800,86.111 313.891,86.637 311.794 C 86.767 311.279,87.116 310.764,87.414 310.650 C 87.713 310.535,88.234 309.509,88.572 308.369 C 88.910 307.230,89.349 306.095,89.548 305.849 C 90.428 304.752,90.466 302.866,89.626 302.026 C 88.825 301.225,88.403 301.200,75.808 301.200 L 62.815 301.200 62.585 300.283 C 62.459 299.779,62.410 298.294,62.478 296.983 L 62.600 294.600 79.600 294.485 C 100.519 294.344,99.112 294.153,98.899 297.105 C 98.632 300.809,97.236 308.660,96.628 309.877 C 96.319 310.495,95.400 312.341,94.586 313.981 C 92.757 317.660,89.360 321.922,86.420 324.226 C 85.199 325.183,83.916 326.198,83.568 326.483 C 81.968 327.793,76.323 330.184,72.400 331.214 C 70.584 331.690,60.614 331.690,58.800 331.213 C 52.929 329.670,47.623 326.977,44.586 323.998 C 44.138 323.559,43.553 323.200,43.286 323.200 C 43.019 323.200,42.800 322.982,42.800 322.715 C 42.800 322.448,42.352 321.773,41.804 321.215 C 39.878 319.254,38.800 317.960,38.800 317.613 C 38.800 317.419,38.376 316.753,37.858 316.131 C 37.340 315.509,36.695 314.323,36.426 313.496 C 36.156 312.669,35.725 311.769,35.468 311.496 C 31.743 307.544,32.044 289.128,35.953 281.815 C 36.419 280.944,36.800 279.993,36.800 279.703 C 36.800 279.412,37.063 279.074,37.385 278.950 C 37.706 278.827,38.089 278.338,38.235 277.863 C 39.005 275.360,45.649 268.898,49.556 266.853 C 50.130 266.553,51.050 266.021,51.600 265.671 C 52.828 264.889,57.233 263.267,59.400 262.798 C 62.670 262.090,74.020 262.611,75.778 263.550 M204.200 265.966 C 199.939 266.674,195.468 270.242,193.133 274.800 L 191.800 277.400 191.679 304.234 C 191.582 325.900,191.659 331.147,192.079 331.481 C 192.366 331.708,194.071 331.990,195.868 332.107 C 201.281 332.460,200.800 334.342,200.800 312.787 L 200.800 294.418 201.861 293.723 C 202.747 293.143,203.692 293.048,207.576 293.148 C 215.534 293.354,216.333 292.849,215.885 287.903 C 215.573 284.463,215.439 284.400,208.413 284.400 C 200.419 284.400,199.583 283.723,201.799 279.040 C 203.207 276.064,205.542 274.802,209.654 274.796 C 214.930 274.788,215.510 274.577,216.660 272.243 C 219.833 265.806,219.662 265.581,211.638 265.650 C 208.427 265.678,205.080 265.820,204.200 265.966 M217.344 266.634 C 218.005 266.887,217.883 267.415,216.427 270.600 C 216.025 271.480,215.596 272.499,215.474 272.865 C 215.288 273.421,214.513 273.552,210.724 273.665 C 203.921 273.868,200.000 276.983,200.000 282.185 C 200.000 285.035,200.866 285.392,207.882 285.436 C 214.757 285.480,215.016 285.609,214.968 288.970 C 214.926 291.915,215.268 291.772,207.735 292.000 C 199.052 292.263,200.000 289.811,200.000 312.000 C 200.000 333.198,200.350 331.553,195.897 331.293 C 191.958 331.063,192.334 334.109,192.478 303.586 L 192.600 277.800 193.896 275.151 C 196.076 270.696,200.189 267.477,204.600 266.775 C 206.694 266.442,216.559 266.332,217.344 266.634 M151.060 284.964 C 133.849 291.160,128.931 312.859,141.800 325.820 C 149.875 333.953,161.585 335.166,171.105 328.856 C 173.501 327.267,174.361 327.639,174.387 330.276 C 174.404 331.965,174.853 332.174,178.322 332.107 C 182.830 332.021,182.435 334.398,182.309 308.128 C 182.184 281.809,182.666 284.342,177.808 284.498 L 174.617 284.600 174.145 286.730 C 173.520 289.549,173.583 289.529,170.919 287.728 C 165.231 283.882,157.179 282.762,151.060 284.964 M233.542 284.936 C 212.420 292.546,211.012 321.251,231.289 330.870 C 238.219 334.157,247.752 333.185,253.801 328.572 C 255.260 327.459,256.397 327.873,256.406 329.520 C 256.418 331.581,257.681 332.327,261.000 332.233 C 264.949 332.120,264.600 334.422,264.600 308.490 C 264.600 282.474,264.883 284.397,261.051 284.405 C 257.269 284.414,256.930 284.591,256.391 286.839 C 255.845 289.113,255.306 289.281,253.349 287.788 C 248.518 284.104,239.468 282.800,233.542 284.936 M289.196 284.574 C 288.423 284.859,286.679 285.653,285.319 286.340 L 282.847 287.588 282.338 286.180 C 282.011 285.275,281.498 284.689,280.900 284.539 C 279.718 284.243,275.316 284.550,274.908 284.958 C 274.201 285.665,274.331 331.045,275.042 331.635 C 275.884 332.333,282.534 332.319,283.380 331.616 C 283.859 331.219,283.977 328.586,284.078 316.069 L 284.200 301.000 285.342 299.057 C 289.015 292.809,296.399 291.686,301.338 296.625 C 304.377 299.663,304.400 299.818,304.400 316.798 L 304.400 331.241 305.700 331.780 C 307.218 332.411,312.615 332.252,313.458 331.552 C 314.606 330.599,314.210 300.986,313.004 297.533 C 309.430 287.304,298.269 281.229,289.196 284.574 M338.200 284.556 C 327.280 288.251,320.672 297.227,320.646 308.400 C 320.602 327.637,341.611 339.420,357.138 328.868 C 359.498 327.264,360.392 327.567,360.406 329.976 C 360.418 331.902,360.909 332.183,364.186 332.133 C 368.853 332.062,368.435 334.492,368.309 308.128 C 368.185 282.077,368.563 284.416,364.474 284.406 C 361.285 284.398,360.538 284.801,360.216 286.703 C 359.771 289.342,359.529 289.437,357.280 287.856 C 352.345 284.387,343.316 282.826,338.200 284.556 M107.798 284.952 C 107.019 285.521,106.997 286.077,106.890 308.352 L 106.781 331.170 107.890 331.737 C 109.140 332.375,115.022 332.202,115.900 331.501 C 116.284 331.195,116.400 327.660,116.400 316.291 L 116.400 301.480 117.497 299.313 C 119.439 295.479,122.183 294.045,127.638 294.018 C 131.585 293.997,131.682 293.934,133.395 290.273 C 135.038 286.762,135.184 284.912,133.846 284.576 C 131.166 283.903,121.481 284.622,119.200 285.662 C 115.547 287.328,115.092 287.348,114.400 285.876 C 113.691 284.368,109.416 283.769,107.798 284.952 M163.790 285.184 C 163.921 285.395,165.056 285.878,166.314 286.257 C 167.571 286.637,168.780 287.156,169.000 287.412 C 169.220 287.668,169.985 288.179,170.700 288.549 C 171.415 288.918,172.000 289.377,172.000 289.567 C 172.000 290.164,173.223 290.416,174.029 289.984 C 174.605 289.676,174.800 289.141,174.800 287.866 C 174.800 285.792,176.393 284.928,179.317 285.417 C 181.710 285.817,181.588 284.583,181.588 308.400 C 181.588 332.524,181.760 331.000,179.000 331.283 C 175.663 331.626,175.033 331.287,174.800 329.025 C 174.509 326.197,173.769 325.916,171.294 327.694 C 165.807 331.636,154.163 333.425,151.012 330.810 C 150.747 330.590,149.779 330.145,148.859 329.821 C 145.573 328.661,139.394 322.939,138.573 320.294 C 138.420 319.802,137.971 318.939,137.575 318.376 C 134.980 314.690,135.167 301.641,137.872 297.655 C 138.383 296.903,138.800 296.052,138.800 295.762 C 138.800 295.233,139.264 294.667,142.200 291.617 C 145.003 288.706,148.168 286.638,150.431 286.241 C 151.217 286.103,152.207 285.728,152.631 285.408 C 153.529 284.728,163.386 284.530,163.790 285.184 M248.382 286.030 C 249.802 286.564,251.287 287.315,251.682 287.700 C 252.077 288.085,252.573 288.400,252.784 288.400 C 252.995 288.400,253.604 288.870,254.136 289.445 C 255.459 290.871,257.485 290.101,257.266 288.254 C 256.950 285.578,262.448 283.659,263.436 286.100 C 263.648 286.624,263.717 296.246,263.600 309.158 L 263.400 331.316 261.089 331.418 C 258.401 331.537,257.603 331.002,257.594 329.071 C 257.581 326.386,255.935 325.886,253.423 327.803 C 248.058 331.898,238.547 333.245,233.125 330.677 C 231.873 330.085,230.713 329.600,230.546 329.600 C 229.406 329.600,222.400 323.524,222.400 322.535 C 222.400 322.266,222.085 321.810,221.699 321.523 C 221.314 321.235,220.752 320.280,220.450 319.400 C 220.149 318.520,219.672 317.530,219.391 317.200 C 217.637 315.140,217.671 301.163,219.435 299.174 C 219.740 298.830,220.202 297.930,220.460 297.174 C 221.143 295.181,226.538 288.800,227.542 288.800 C 227.732 288.800,228.539 288.359,229.334 287.819 C 230.129 287.280,231.549 286.617,232.489 286.345 C 233.430 286.074,234.560 285.608,235.000 285.311 C 236.399 284.363,245.204 284.837,248.382 286.030 M300.400 285.600 C 301.262 286.040,302.221 286.400,302.529 286.400 C 304.374 286.400,311.600 294.000,311.600 295.939 C 311.600 296.204,311.960 297.444,312.400 298.696 C 313.146 300.818,313.200 301.998,313.200 316.086 L 313.200 331.200 312.300 331.213 C 311.805 331.221,310.394 331.294,309.164 331.377 C 305.577 331.618,305.830 332.646,305.569 316.715 C 305.326 301.822,305.135 300.099,303.463 297.699 C 298.835 291.056,289.796 291.069,285.057 297.727 C 283.401 300.052,283.200 302.168,283.200 317.255 L 283.200 331.200 282.300 331.213 C 281.805 331.221,280.378 331.295,279.129 331.379 C 275.291 331.636,275.598 333.597,275.577 308.654 C 275.561 288.515,275.615 286.646,276.242 285.954 C 277.573 284.483,280.825 285.124,281.738 287.039 C 282.478 288.590,283.409 288.776,284.846 287.658 C 285.371 287.250,286.430 286.704,287.200 286.444 C 287.970 286.185,289.050 285.715,289.600 285.400 C 291.243 284.461,298.427 284.594,300.400 285.600 M349.797 285.195 C 349.931 285.412,351.067 285.886,352.320 286.249 C 354.359 286.838,355.592 287.551,357.638 289.324 C 359.492 290.930,360.800 290.374,360.800 287.979 C 360.800 285.900,362.476 284.941,365.353 285.372 C 367.792 285.738,367.638 284.040,367.511 309.195 L 367.400 330.989 365.313 331.289 C 362.151 331.744,361.288 331.256,360.966 328.827 C 360.614 326.174,359.819 325.920,357.360 327.675 C 356.339 328.404,355.301 329.104,355.052 329.232 C 351.917 330.837,350.533 331.306,347.878 331.664 C 343.753 332.219,338.545 331.599,335.800 330.226 C 334.700 329.675,333.575 329.219,333.300 329.213 C 333.025 329.206,332.800 329.032,332.800 328.827 C 332.800 328.622,332.481 328.353,332.092 328.229 C 330.459 327.711,325.140 321.950,324.440 319.942 C 324.192 319.233,323.744 318.370,323.444 318.026 C 321.361 315.640,321.314 300.337,323.384 298.611 C 323.655 298.385,324.116 297.570,324.409 296.800 C 324.701 296.030,325.180 295.130,325.472 294.800 C 325.764 294.470,326.653 293.390,327.447 292.400 C 328.242 291.410,329.103 290.510,329.361 290.400 C 329.619 290.290,330.184 289.874,330.615 289.475 C 332.117 288.087,334.330 286.877,336.538 286.235 C 337.760 285.880,338.869 285.412,339.003 285.195 C 339.143 284.968,341.442 284.800,344.400 284.800 C 347.358 284.800,349.657 284.968,349.797 285.195 M113.826 286.729 C 114.722 288.374,116.240 288.631,117.630 287.373 C 118.717 286.389,122.774 285.695,128.353 285.539 C 134.542 285.365,134.686 285.526,132.483 290.149 L 131.029 293.200 127.814 293.210 C 122.088 293.227,119.308 294.525,117.000 298.259 L 115.800 300.200 115.600 315.600 L 115.400 331.000 112.200 331.272 C 109.507 331.501,108.921 331.441,108.500 330.896 C 107.793 329.978,107.772 287.154,108.478 286.023 C 109.430 284.499,112.858 284.952,113.826 286.729 M154.970 293.201 C 147.997 295.004,143.534 300.814,143.509 308.120 C 143.498 311.626,144.087 314.800,144.751 314.800 C 144.909 314.800,145.255 315.385,145.519 316.100 C 146.329 318.299,150.446 322.095,152.607 322.638 C 153.234 322.795,154.209 323.165,154.773 323.459 C 156.134 324.169,161.096 324.154,162.473 323.435 C 163.063 323.127,164.107 322.752,164.792 322.602 C 165.477 322.451,166.253 321.984,166.515 321.564 C 166.778 321.144,167.183 320.800,167.415 320.800 C 167.969 320.800,170.800 317.895,170.800 317.326 C 170.800 317.084,171.050 316.790,171.355 316.673 C 173.011 316.037,174.705 306.549,173.497 304.679 C 173.184 304.196,172.810 303.197,172.666 302.460 C 172.522 301.723,171.960 300.553,171.416 299.860 C 169.403 297.291,167.826 295.600,167.444 295.600 C 167.228 295.600,166.680 295.254,166.226 294.830 C 165.475 294.131,159.615 292.352,158.333 292.434 C 158.040 292.453,156.527 292.798,154.970 293.201 M237.400 293.173 C 233.575 294.115,227.600 298.681,227.600 300.661 C 227.600 300.854,227.196 301.729,226.701 302.606 C 223.265 308.699,228.382 320.999,235.034 322.639 C 235.675 322.797,236.595 323.182,237.077 323.494 C 238.259 324.259,243.479 323.955,246.369 322.952 C 248.577 322.186,254.400 317.057,254.400 315.878 C 254.400 315.598,254.789 314.656,255.263 313.785 C 257.166 310.292,256.106 302.144,253.366 299.200 C 253.059 298.870,252.200 297.925,251.457 297.100 C 250.713 296.275,249.958 295.600,249.779 295.600 C 249.599 295.600,249.080 295.254,248.626 294.830 C 247.869 294.126,241.984 292.344,240.733 292.442 C 240.440 292.464,238.940 292.794,237.400 293.173 M340.890 293.244 C 326.541 297.047,325.495 317.729,339.388 322.957 C 342.120 323.985,346.749 324.243,348.475 323.463 C 349.204 323.133,350.250 322.735,350.800 322.577 C 352.387 322.122,356.800 318.361,356.800 317.462 C 356.800 317.204,357.151 316.773,357.580 316.505 C 358.011 316.236,358.484 315.343,358.637 314.509 C 358.789 313.679,359.158 312.645,359.457 312.211 C 360.180 311.160,360.193 305.267,359.474 304.189 C 359.185 303.755,358.724 302.625,358.451 301.679 C 358.179 300.732,357.695 299.858,357.378 299.736 C 357.060 299.614,356.800 299.309,356.800 299.057 C 356.799 298.543,353.887 295.600,353.379 295.600 C 353.199 295.600,352.647 295.220,352.152 294.755 C 350.139 292.864,344.950 292.168,340.890 293.244 M164.649 295.007 C 177.458 301.273,174.769 320.215,160.702 322.815 C 147.958 325.171,139.336 309.144,147.728 298.700 C 151.596 293.887,159.040 292.262,164.649 295.007 M246.939 294.956 C 260.832 301.780,256.183 322.960,240.800 322.919 C 226.766 322.881,221.350 304.374,232.940 296.059 C 236.639 293.406,242.795 292.921,246.939 294.956 M349.807 294.485 C 364.616 300.995,360.418 323.048,344.400 322.895 C 330.171 322.760,325.139 303.706,337.228 295.744 C 340.433 293.634,346.492 293.027,349.807 294.485 " stroke="none" fill="#858587" fill-rule="evenodd"></path></g></svg>