<svg xmlns="http://www.w3.org/2000/svg" width="750" height="750"><path d="M0 375V0h750v750H0V375z" fill="#fcfdfd"/><path d="M0 375V0h750v750H0V375zm396.265 226.946c21.48-4.377 37.645-13.003 53.308-28.446 14.908-14.7 23.047-28.125 29.1-48 2.588-8.5 2.74-10.085 2.73-28.5-.007-16.837-.3-20.548-2.146-27.175-8.756-31.447-29.026-55.999-57.615-69.786-12.401-5.98-21.818-8.667-35.892-10.24-19.533-2.181-38.741 1.246-57.392 10.24-28.59 13.787-48.86 38.339-57.615 69.786-1.845 6.627-2.138 10.338-2.147 27.175-.009 18.415.143 20 2.731 28.5 6.065 19.915 15.634 35.54 30.197 49.309 25.456 24.065 60.523 34.11 94.741 27.137zm-33.647-15.02c-3.786-.52-10.986-2.318-16-3.996-57.147-19.114-80.448-86.381-47.221-136.318C316.399 421.06 344.433 406 375 406c41.875 0 77.533 28.008 88.59 69.584 2.485 9.35 2.543 31.971.105 41.745-8.358 33.515-33.787 59.127-67.186 67.669-9.086 2.324-24.597 3.206-33.891 1.928zM377.5 361.592c32.043-8.573 57.325-34.023 64.453-64.883 4.067-17.608 3.485-32.101-1.973-49.083-6.964-21.67-23.738-41.002-44.683-51.499-15.976-8.006-37.256-10.985-54.797-7.67-18.93 3.576-33.396 11.263-47 24.973-10.64 10.722-17.014 20.914-21.622 34.57-2.882 8.54-3.249 10.964-3.633 24-.309 10.46-.013 16.455 1.06 21.517 7.393 34.832 34.226 61.407 69.695 69.023 8.404 1.805 30.218 1.267 38.5-.948zm-38-16.405c-26.124-6.697-46.547-27.135-53.144-53.187-2.41-9.515-2.188-24.57.506-34.3 6.715-24.256 22.893-41.526 46.877-50.04 8.183-2.906 9.652-3.109 22.261-3.076 11.898.031 14.45.352 21.5 2.7 38.812 12.928 59.305 53.845 46.053 91.95-3.639 10.465-8.174 17.385-17.553 26.784-9.042 9.062-16.804 13.877-29 17.988-9.188 3.098-27.743 3.682-37.5 1.181zm95.079-167.083c12.845-5.834 13.476-23.208 1.095-30.167-3.054-1.717-4.996-2.075-9.308-1.717-8.95.742-14.403 6.18-15.143 15.1-1.116 13.458 11.197 22.306 23.356 16.784z" fill="#d0edeb"/><path d="M0 375V0h750v750H0V375zm389.566 228.928c15.846-2.204 31.653-8.136 45.434-17.048 10.05-6.5 26.508-23.756 32.744-34.331 30.272-51.341 14.61-116.074-35.738-147.703-17.493-10.99-35.527-16.074-57.006-16.074s-39.513 5.085-57.006 16.074c-38.602 24.25-57.966 69.127-48.94 113.42 4.436 21.767 12.984 37.653 28.946 53.793 5.775 5.84 13.425 12.509 17 14.82 22.486 14.544 48.997 20.605 74.566 17.049zm-30.224-18.407c-36.39-6.604-65.369-34.775-72.758-70.729-1.964-9.558-2.04-25.248-.17-34.954 5.341-27.708 23.502-51.3 49.516-64.325 23.495-11.763 54.645-11.763 78.14 0 26.729 13.383 45.364 38.28 49.955 66.743 1.545 9.58.752 28.869-1.531 37.244-2.71 9.934-10.677 25.406-17.336 33.663-20.585 25.524-54.014 38.128-85.816 32.358zm12.11-222.04c18.765-3.273 32.648-10.628 47.155-24.981 19.468-19.262 27.235-39.166 26.114-66.919-1.007-24.953-9.625-43.786-28.037-61.276-13.6-12.918-31.201-21.002-51.035-23.44-35.78-4.397-73.165 15.943-89.391 48.635-14.723 29.663-11.928 64.98 7.288 92.079 6.096 8.596 18.806 20.168 27.735 25.252 18.658 10.622 39.339 14.282 60.171 10.65zM348.5 345.94c-25.558-2.584-49.081-20.674-58.439-44.938C272.218 254.734 306.378 205 356 205c19.45 0 35.885 6.796 49.5 20.467 9.147 9.185 14.403 17.568 18.202 29.033 2.275 6.862 2.662 9.778 2.725 20.5.061 10.444-.312 13.734-2.269 20-6.932 22.201-23.013 39.342-44.142 47.054-4.417 1.611-10.615 3.18-13.773 3.486a827.3 827.3 0 0 0-8.243.832c-1.375.153-5.65-.041-9.5-.43zm88.51-168.191c5.364-3.65 7.314-7.078 7.793-13.698.368-5.098.05-6.628-2.171-10.418-7.62-13.001-26.876-10.544-31.691 4.045-2.456 7.44 1.47 17.305 8.208 20.625 5.046 2.486 13.793 2.214 17.861-.554z" fill="#b6e5e2"/><path d="M0 375V0h750v750H0V375zm402.166 227.079c66.515-18.07 100.383-90.83 70.772-152.038-6.269-12.956-12.061-21.159-21.646-30.65-36.805-36.449-93.513-41.716-137.073-12.733-32.646 21.722-51.534 61.788-47.343 100.427 5.012 46.21 37.082 83.786 80.947 94.845 11.284 2.845 12.191 2.922 30.177 2.562 12.814-.257 18.212-.796 24.166-2.413zM365 585.89c-25.124-2.848-49.707-17.617-64.072-38.495-4.679-6.801-10.69-20.089-13.07-28.896-3.156-11.671-3.152-31.7.008-43.5 8.468-31.632 31.12-54.949 62.838-64.681 7.945-2.438 10.297-2.7 24.296-2.7 14 0 16.352.262 24.297 2.7 31.717 9.732 54.37 33.05 62.838 64.681 3.16 11.8 3.163 31.829.008 43.5-2.38 8.807-8.391 22.095-13.07 28.896-14.767 21.462-38.666 35.553-65.344 38.528-5.307.592-10.005 1.018-10.439.946-.434-.071-4.164-.512-8.29-.98zm8.736-222.336c34.823-7.325 61.825-33.676 69.932-68.244 2.625-11.193 2.37-30.968-.541-41.811-2.38-8.87-8.37-22.086-13.172-29.065-9.208-13.383-25.747-26.514-40.603-32.235-32.59-12.55-68.536-5.938-94.217 17.33-11.516 10.436-21.913 27.86-26.236 43.97-3.05 11.366-3.056 32.592-.013 44 2.34 8.774 8.334 22.053 13.042 28.896 12.888 18.732 32.978 32.052 56.072 37.178 7.774 1.726 27.494 1.715 35.736-.019zM341.5 344.396c-3.85-.792-11.275-3.522-16.5-6.066-7.943-3.867-10.908-6.035-18.09-13.227-9.283-9.296-14.11-16.946-18.046-28.603-2.047-6.06-2.36-8.88-2.339-21 .023-12.707.283-14.739 2.816-22 7.696-22.062 24.993-38.626 47.659-45.636 6.004-1.857 9.794-2.32 19-2.32 13.13 0 21.453 2.047 33.5 8.236 10.568 5.43 23.77 19.067 29.255 30.22 5.324 10.824 7.434 19.968 7.384 32-.1 24.298-11.643 45.31-32.197 58.606-15.678 10.142-34.059 13.574-52.442 9.79zm94.25-165.517c11.488-5.561 13.439-21.238 3.706-29.783-8.367-7.347-23.163-4.555-27.815 5.249-2.014 4.243-2.133 12.812-.23 16.455 4.763 9.117 15.104 12.55 24.34 8.079z" fill="#8fd8d3"/><path d="M0 375V0h750v750H0V375zm401.074 227.692c13.334-3.465 23.2-7.786 33.965-14.878 22.07-14.54 38.364-37.06 45.523-62.92 3.524-12.728 4.447-34.293 2.019-47.169-8.35-44.278-40.993-78.04-85.022-87.933-12.554-2.82-32.564-2.82-45.118 0-19.974 4.489-37.161 13.492-51.49 26.974-18.251 17.172-28.939 36.602-33.532 60.96-2.428 12.875-1.505 34.44 2.019 47.167 10.09 36.45 37.935 65.358 73.297 76.096 13.063 3.966 20.927 4.987 35.265 4.577 10.186-.291 15.85-.997 23.074-2.874zm-42.37-18.28c-21.691-3.921-43.266-17.73-56.35-36.064-5.384-7.545-11.548-20.633-13.822-29.348-2.625-10.058-3.146-28.863-1.082-39.05 5.72-28.23 23.273-51.005 48.897-63.442 24.52-11.902 52.786-11.902 77.306 0 40.191 19.508 59.775 65.116 46.156 107.492-13.645 42.46-57.024 68.379-101.106 60.411zM378.5 363.075c16.712-4.295 35.629-16.108 46.27-28.896 14.295-17.176 21.21-36.065 21.223-57.972.012-19.147-4.5-34.955-14.198-49.733-35.637-54.31-114.01-54.945-150.655-1.22-4.416 6.475-9.726 17.873-12.244 26.28-2.997 10.012-3.718 30.304-1.47 41.4 7.38 36.42 35.907 64.648 72.308 71.55 10.366 1.966 28.147 1.32 38.766-1.41zm-40.127-20.055c-24.07-6.31-43.439-25.692-49.99-50.021-2.38-8.838-2.37-26.234.021-34.983 5.617-20.557 19.973-37.42 39.332-46.197 17.941-8.135 41.61-7.732 58.914 1.003 17.45 8.81 29.388 22.642 35.968 41.677 2.476 7.162 2.763 9.362 2.743 21-.02 11.315-.363 14.037-2.656 21-7.66 23.262-26.056 40.58-49.471 46.568-9.927 2.539-25.076 2.519-34.861-.047zm98.577-164.113c2.048-1.15 4.953-3.963 6.458-6.25 2.417-3.675 2.694-4.925 2.388-10.768-.283-5.418-.861-7.287-3.205-10.36-10.077-13.211-31.483-7.538-33.328 8.833-.888 7.872 3.613 16.367 10.187 19.23 4.772 2.079 13.167 1.75 17.5-.685z" fill="#69ccc6"/><path d="M0 375V0h750v750H0V375zm404 227.56c30.276-8.39 56.546-30.466 70.033-58.854 25.88-54.469 3.068-119.13-51.414-145.741-5.591-2.731-14.655-6.165-20.142-7.632-9.007-2.408-11.679-2.667-27.477-2.667s-18.47.26-27.477 2.667c-52.175 13.947-87.342 64.244-81.645 116.771 2.945 27.153 13.888 49.77 32.951 68.102 14.015 13.477 28.99 22.281 45.695 26.864 12.667 3.476 16.135 3.835 33.476 3.47 14.06-.295 17.905-.736 26-2.98zm-39.5-17.7c-30.891-3.592-59.28-25.163-71.386-54.24-5.214-12.524-6.532-19.595-6.455-34.62.06-11.643.44-14.738 2.765-22.5 5.327-17.786 13.067-30.297 26.316-42.54 33.023-30.518 85.497-30.518 118.52 0 13.25 12.243 20.989 24.754 26.316 42.54 2.325 7.762 2.705 10.857 2.765 22.5.077 15.025-1.241 22.096-6.455 34.62-15.167 36.431-53.25 58.79-92.386 54.24zm10.292-220.427c8.418-1.712 20.132-6.392 29.027-11.596 8.664-5.07 25.796-22.765 31.012-32.03 20.049-35.62 14.543-79.143-13.68-108.142-11.776-12.1-23.73-19.402-39.854-24.342-7.932-2.43-10.37-2.701-24.797-2.759-17.56-.07-24.624 1.298-37.994 7.36-35.283 15.999-56.976 54.044-52.626 92.297 4.477 39.372 32.903 70.648 72.12 79.353 8.055 1.788 27.675 1.713 36.792-.141zm-30.717-20.52c-25.137-4.932-45.082-22.027-53.432-45.795-3.902-11.109-4.76-25.998-2.17-37.64 5.278-23.726 23.307-43.342 47.027-51.169 6.927-2.285 9.677-2.64 20.5-2.64s13.573.355 20.5 2.64c32.075 10.584 51.935 41.009 48.342 74.06-1.762 16.21-7.953 28.717-20.417 41.25-6.633 6.67-9.757 8.942-17.5 12.722-13.996 6.835-29.438 9.203-42.85 6.572zm91.466-163.793c18.376-8.347 12.75-36.095-7.323-36.115-6.316-.006-10.767 1.731-14.404 5.622-3.518 3.762-4.814 7.39-4.814 13.478 0 14.004 13.756 22.823 26.541 17.015z" fill="#49c3bb"/><path d="M0 375V0h750v750H0V375zm393.074 230.382c35.494-6.092 65.184-28.375 80.93-60.74 7.368-15.144 10.045-26.069 10.695-43.642.614-16.602-.773-26.323-5.82-40.775-16.606-47.557-64.612-78.287-114.388-73.224-49.47 5.032-88.768 41.386-98.072 90.724-2.43 12.886-1.505 34.418 2.03 47.275 15.1 54.912 69.308 89.876 124.625 80.382zm-34.34-21.966c-20.435-3.694-40.547-15.956-53.282-32.486-34.864-45.25-18.782-110.578 33.125-134.56 22.16-10.24 50.686-10.24 72.846 0 31.684 14.638 51.577 45.494 51.577 80 0 55.64-49.483 96.95-104.266 87.046zm19.766-219.36c33.517-8.698 59.9-36.306 67.015-70.129 2.357-11.201 1.959-28.812-.905-40.049-3.026-11.876-6.244-19.102-13.083-29.38-12.286-18.465-31.994-32.167-54.226-37.702-12.292-3.06-30.31-3.06-42.602 0-17.23 4.29-31.197 12.404-44.199 25.678-10.961 11.19-17.62 22.777-22.712 39.526-2.903 9.546-3.57 30.024-1.338 41.081 7.47 37.016 36.326 65.332 73.892 72.508 9.783 1.87 27.842 1.143 38.158-1.533zm-40.284-22.075c-11.754-3.079-20.58-8.314-30.284-17.963-14.127-14.046-20.222-28.434-20.342-48.018-.08-12.837 1.278-18.733 7.127-30.951 3.827-7.998 5.851-10.774 13.153-18.044 13.929-13.87 28.777-19.967 48.63-19.973 4.95 0 11.925.685 15.5 1.524 22.373 5.255 41.8 23.24 49.626 45.944 2.459 7.132 2.758 9.41 2.758 21s-.3 13.868-2.757 21c-7.993 23.191-25.497 39.712-48.236 45.528-10.16 2.599-25.155 2.579-35.175-.047zm98.574-161.875c6.695-3.417 10.21-9.3 10.21-17.088 0-6.524-1.811-10.767-6.265-14.678-6.94-6.093-16.276-6.895-23.63-2.028-7.323 4.846-10.745 14.188-8.116 22.155 1.529 4.632 6.523 10.41 10.492 12.14 4.502 1.96 12.965 1.716 17.309-.5z" fill="#2cbab2"/><path d="M0 375V0h750v750H0V375zm396.351 230.499c30.03-6.203 55.349-23.458 71.841-48.96 33.816-52.29 17.735-121.534-35.951-154.802-8.441-5.23-19.594-9.85-31.21-12.925-10.763-2.849-32.587-3.552-44.702-1.439-46.77 8.157-83.14 45.055-90.907 92.226-4.28 25.998 1.771 54.385 16.402 76.935 18.082 27.87 46.523 45.857 79.676 50.392 8.88 1.215 25.32.542 34.851-1.427zM357.5 582.575c-34.837-8.052-59.906-32.79-68.113-67.212-2.412-10.118-2.198-27.606.474-38.664 7.59-31.418 29.965-54.695 61.857-64.347 7.769-2.352 10.455-2.658 23.282-2.658s15.513.306 23.282 2.658c31.894 9.653 54.29 32.954 61.85 64.347 2.601 10.799 2.854 27.468.576 37.936-6.919 31.797-30.581 57.088-62.208 66.49-9.104 2.706-32.053 3.518-41 1.45zm9-215.657c21.801-2.608 41.97-12.856 56.78-28.853 10.308-11.134 16.7-22.405 21.353-37.644 2.48-8.121 2.723-10.355 2.723-24.921 0-14.512-.25-16.818-2.685-24.788-10.292-33.69-36.737-58.338-69.879-65.132-9.902-2.03-27.683-2.033-37.492-.007-34.405 7.107-62.262 34.216-71.004 69.098-2.602 10.386-2.304 33.259.573 43.829 9.222 33.89 37.023 60.337 70.435 67.002 12.995 2.592 17.524 2.812 29.196 1.416zm-21.262-23.962c-15.141-2.713-28.287-9.937-39.043-21.454-25.807-27.634-23.883-70.472 4.324-96.303 12.402-11.356 28.346-17.504 45.481-17.537 12.05-.023 18.151 1.412 30 7.057 8.118 3.868 10.74 5.782 18.018 13.154C417.838 241.869 424 256.556 424 275.5c0 30.945-20.896 58.21-50.573 65.986-7.52 1.971-21.364 2.693-28.19 1.47zm91.855-162.283c16.437-8.678 13.282-33.265-4.826-37.609-18.81-4.513-32.69 18.134-19.984 32.606 6.414 7.305 16.57 9.353 24.81 5.003z" fill="#0ab2a8"/></svg>