<svg xmlns="http://www.w3.org/2000/svg" width="450" height="450"><defs><clipPath id="a"><path d="M0 360h360V0H0v360z"/></clipPath></defs><path d="M0 450h448.655V0H0v450z" fill="#3eb7a7"/><g clip-path="url(#a)" transform="matrix(1.25 0 0 -1.25 0 450)"><path d="M178.922 164.593c-23.715 0-43.007-19.292-43.007-43.006 0-23.718 19.292-43.009 43.007-43.009 23.716 0 43.008 19.291 43.008 43.008 0 23.715-19.292 43.007-43.008 43.007m0-95.318c-28.848 0-52.312 23.47-52.312 52.311 0 28.845 23.464 52.314 52.312 52.314 28.842 0 52.317-23.47 52.317-52.314 0-28.84-23.475-52.312-52.317-52.312m-9.086 192.154c-18.581 0-33.703-15.117-33.703-33.698 0-18.583 15.122-33.7 33.703-33.7 18.581 0 33.701 15.117 33.701 33.7 0 18.58-15.12 33.698-33.701 33.698m0-76.924c-23.836 0-43.226 19.388-43.226 43.226 0 23.832 19.39 43.22 43.226 43.22 23.835 0 43.224-19.388 43.224-43.22 0-23.838-19.389-43.226-43.224-43.226m25.534 97.368a8.852 8.852 0 0 0 17.702 0c0-4.889-3.964-8.855-8.853-8.855-4.887 0-8.85 3.966-8.85 8.855" fill="#fff"/></g></svg>