<svg xmlns="http://www.w3.org/2000/svg" xml:space="preserve" viewBox="0 0 51.4 107.71"><path d="M44.9 32c0 5.2-2.2 9.8-5.8 13.4-4 4-9.8 5-9.8 8.4 0 4.6 7.4 3.2 14.5 10.3 4.7 4.7 7.6 10.9 7.6 18.1 0 14.2-11.4 25.5-25.7 25.5S0 96.4 0 82.21C0 75 2.9 68.8 7.6 64.1c7.1-7.1 14.5-5.7 14.5-10.3 0-3.4-5.8-4.4-9.8-8.4-3.6-3.6-5.8-8.2-5.8-13.6C6.5 21.4 15 13 25.4 13c2 0 3.8.3 5.3.3 2.7 0 4.1-1.2 4.1-3.1 0-1.1-.5-2.5-.5-4 0-3.4 2.9-6.2 6.4-6.2S47 2.9 47 6.4c0 3.7-2.9 5.4-5.1 6.2-1.8.6-3.2 1.4-3.2 3.2 0 3.4 6.2 6.7 6.2 16.2m-2 50.21c0-9.9-7.3-17.9-17.2-17.9s-17.2 8-17.2 17.9c0 9.8 7.3 17.9 17.2 17.9S42.9 92 42.9 82.21M37 31.8c0-6.3-5.1-11.5-11.3-11.5s-11.3 5.2-11.3 11.5 5.1 11.5 11.3 11.5S37 38.1 37 31.8" style="fill:#23a47f"/></svg>