<?xml version="1.0" encoding="UTF-8" standalone="no"?>
<!-- Created with Inkscape (http://www.inkscape.org/) -->

<svg
   xmlns:dc="http://purl.org/dc/elements/1.1/"
   xmlns:cc="http://creativecommons.org/ns#"
   xmlns:rdf="http://www.w3.org/1999/02/22-rdf-syntax-ns#"
   xmlns:svg="http://www.w3.org/2000/svg"
   xmlns="http://www.w3.org/2000/svg"
   xmlns:sodipodi="http://sodipodi.sourceforge.net/DTD/sodipodi-0.dtd"
   xmlns:inkscape="http://www.inkscape.org/namespaces/inkscape"
   id="svg2"
   version="1.1"
   inkscape:version="0.48.5 r10040"
   width="750"
   height="750"
   sodipodi:docname="mark-green-background.png">
  <metadata
     id="metadata8">
    <rdf:RDF>
      <cc:Work
         rdf:about="">
        <dc:format>image/svg+xml</dc:format>
        <dc:type
           rdf:resource="http://purl.org/dc/dcmitype/StillImage" />
        <dc:title></dc:title>
      </cc:Work>
    </rdf:RDF>
  </metadata>
  <defs
     id="defs6" />
  <sodipodi:namedview
     pagecolor="#ffffff"
     bordercolor="#666666"
     borderopacity="1"
     objecttolerance="10"
     gridtolerance="10"
     guidetolerance="10"
     inkscape:pageopacity="0"
     inkscape:pageshadow="2"
     inkscape:window-width="640"
     inkscape:window-height="480"
     id="namedview4"
     showgrid="false"
     inkscape:zoom="0.31466667"
     inkscape:cx="560.42721"
     inkscape:cy="240.17032"
     inkscape:window-x="0"
     inkscape:window-y="0"
     inkscape:window-maximized="0"
     inkscape:current-layer="svg2" />
  <g
     id="g2987">
    <path
       style="fill:#fcfdfd"
       d="M 0,375 0,0 l 375,0 375,0 0,375 0,375 -375,0 -375,0 0,-375 z"
       id="path3003"
       inkscape:connector-curvature="0" />
    <path
       style="fill:#d0edeb"
       d="M 0,375 0,0 l 375,0 375,0 0,375 0,375 -375,0 -375,0 0,-375 z m 396.26545,226.9459 c 21.48012,-4.37736 37.64494,-13.00327 53.30719,-28.4459 14.9086,-14.69954 23.04768,-28.12478 29.10008,-48 2.58824,-8.4994 2.74015,-10.08463 2.73107,-28.5 -0.008,-16.83678 -0.30149,-20.54827 -2.14672,-27.17543 -8.75587,-31.44676 -29.02576,-55.99841 -57.61505,-69.78551 -12.40127,-5.98047 -21.81849,-8.66698 -35.89202,-10.23912 -19.53334,-2.18205 -38.741,1.24472 -57.39202,10.23912 -28.58929,13.7871 -48.85918,38.33875 -57.61505,69.78551 -1.84523,6.62716 -2.13842,10.33865 -2.14672,27.17543 -0.009,18.41537 0.14283,20.0006 2.73107,28.5 6.06463,19.91535 15.63364,35.54069 30.19695,49.30892 25.4553,24.06556 60.52323,34.11017 94.74122,27.13698 z m -33.64783,-15.01962 c -3.78531,-0.52047 -10.98531,-2.31865 -16,-3.99596 C 289.47141,563.81606 266.16989,496.54892 299.39665,446.61217 316.39892,421.05934 344.43329,406 375,406 c 41.87497,0 77.53298,28.00846 88.58906,69.58446 2.48626,9.34951 2.54383,31.97054 0.10624,41.74445 -8.35856,33.51492 -33.7878,59.12689 -67.1859,67.66869 -9.08685,2.32402 -24.59717,3.20667 -33.89178,1.92868 z M 377.5,361.59175 c 32.04311,-8.57269 57.3252,-34.02324 64.45302,-64.88249 4.06703,-17.60785 3.48448,-32.10127 -1.97283,-49.08317 -6.9637,-21.66941 -23.73818,-41.00245 -44.6836,-51.49906 -15.97577,-8.00611 -37.25574,-10.98495 -54.79659,-7.67059 -18.92944,3.57673 -33.39611,11.2636 -47,24.97345 -10.63932,10.7222 -17.01391,20.91424 -21.62181,34.57011 -2.88185,8.54058 -3.2488,10.96438 -3.63348,24 -0.30865,10.45931 -0.0129,16.45528 1.06122,21.51652 7.39246,34.83242 34.22556,61.40739 69.69407,69.02362 8.40431,1.80468 30.21807,1.26733 38.5,-0.94839 z m -38,-16.40477 C 313.37558,338.49042 292.95328,318.05158 286.35608,292 c -2.40964,-9.51539 -2.18767,-24.56985 0.50572,-34.29918 6.71516,-24.25715 22.89291,-41.52707 46.87699,-50.04168 8.18301,-2.90506 9.65215,-3.108 22.26121,-3.07509 11.89786,0.0311 14.44942,0.35149 21.5,2.70001 38.81163,12.92798 59.30487,53.84536 46.05308,91.95087 -3.63911,10.46424 -8.17444,17.38452 -17.55308,26.78354 -9.04218,9.06183 -16.80426,13.87645 -29,17.98797 -9.18755,3.09738 -27.74321,3.68153 -37.5,1.18054 z m 95.0786,-167.08331 c 12.84551,-5.83414 13.47661,-23.20811 1.09579,-30.16652 -3.05486,-1.71693 -4.99644,-2.07518 -9.30865,-1.71757 -8.94983,0.74219 -14.40262,6.18006 -15.14242,15.10098 -1.11598,13.45734 11.19672,22.30525 23.35528,16.78311 z"
       id="path3001"
       inkscape:connector-curvature="0" />
    <path
       style="fill:#b6e5e2"
       d="M 0,375 0,0 l 375,0 375,0 0,375 0,375 -375,0 -375,0 0,-375 z m 389.56567,228.92758 c 15.84622,-2.204 31.65381,-8.13528 45.43433,-17.04774 10.05008,-6.49981 26.50794,-23.75561 32.74376,-34.33128 C 498.01642,501.2075 482.3539,436.47511 432.00598,404.84619 414.51255,393.85669 396.47886,388.77151 375,388.77151 c -21.47886,0 -39.51255,5.08518 -57.00598,16.07468 -38.6017,24.24986 -57.96607,69.12719 -48.93992,113.41926 4.43592,21.76744 12.98419,37.65367 28.9459,53.79343 5.775,5.83943 13.425,12.50886 17,14.82096 22.48649,14.54298 48.99704,20.60401 74.56567,17.04774 z m -30.2241,-18.40705 c -36.38898,-6.60314 -65.36813,-34.77411 -72.75745,-70.72837 -1.96438,-9.55807 -2.04056,-25.24818 -0.16972,-34.95419 5.34068,-27.70771 23.50155,-51.29998 49.51577,-64.32452 23.49488,-11.76317 54.64478,-11.76317 78.13966,0 26.72872,13.38226 45.36375,38.27952 49.95534,66.74264 1.5453,9.57926 0.75202,28.86887 -1.53164,37.24391 -2.7088,9.93413 -10.67659,25.40642 -17.33535,33.66269 -20.58565,25.52438 -54.01388,38.12876 -85.81661,32.35784 z m 12.11056,-222.04014 c 18.76484,-3.27232 32.64805,-10.62702 47.15458,-24.98039 19.46798,-19.26244 27.23517,-39.16589 26.11454,-66.9186 -1.00759,-24.95318 -9.62493,-43.78672 -28.03732,-61.27669 -13.59912,-12.91783 -31.20105,-21.00208 -51.03522,-23.43956 -35.78008,-4.39711 -73.16451,15.94261 -89.39093,48.63485 -14.72275,29.66273 -11.92729,64.97983 7.28832,92.07856 6.09556,8.59625 18.80562,20.1686 27.73468,25.25208 18.65801,10.62237 39.33872,14.28265 60.17135,10.64975 z M 348.5,345.94135 C 322.94242,343.3566 299.41868,325.26724 290.06142,301.00305 272.21837,254.73446 306.3779,205 356,205 c 19.44911,0 35.88505,6.79592 49.5,20.46721 9.14721,9.18506 14.40278,17.56764 18.20249,29.03279 2.27421,6.86212 2.66172,9.77794 2.72441,20.5 0.0611,10.44387 -0.31211,13.73368 -2.26876,20 -6.93223,22.20101 -23.01293,39.3423 -44.14215,47.05351 -4.41667,1.61189 -10.61459,3.18066 -13.77315,3.48617 -3.15856,0.30551 -6.86784,0.68015 -8.24284,0.83254 -1.375,0.15239 -5.65,-0.0415 -9.5,-0.43087 z M 437.01017,177.75 c 5.36418,-3.65083 7.31358,-7.07766 7.79247,-13.69833 0.36872,-5.0974 0.0498,-6.62781 -2.17108,-10.41739 -7.61954,-13.00176 -26.87593,-10.54399 -31.69066,4.04479 -2.45565,7.4407 1.47003,17.30447 8.20834,20.62446 5.04567,2.48602 13.79323,2.21492 17.86093,-0.55353 z"
       id="path2999"
       inkscape:connector-curvature="0" />
    <path
       style="fill:#8fd8d3"
       d="M 0,375 0,0 l 375,0 375,0 0,375 0,375 -375,0 -375,0 0,-375 z m 402.16586,227.07871 c 66.51479,-18.06965 100.38353,-90.82899 70.7718,-152.03722 -6.26825,-12.95665 -12.06088,-21.15924 -21.64573,-30.65124 -36.80465,-36.4481 -93.51331,-41.71556 -137.07263,-12.73219 -32.64581,21.72177 -51.53383,61.78819 -47.34309,100.42703 5.01186,46.20951 37.08216,83.78627 80.94651,94.845 11.28383,2.84479 12.19136,2.92182 30.17728,2.56161 12.81432,-0.25664 18.21236,-0.79564 24.16586,-2.41299 z M 365,585.89059 c -25.12395,-2.84716 -49.70744,-17.61707 -64.07152,-38.49455 -4.67932,-6.80115 -10.69001,-20.08908 -13.07091,-28.89604 -3.15517,-11.67099 -3.15165,-31.69956 0.008,-43.5 8.46866,-31.63173 31.12127,-54.94864 62.83819,-64.68099 7.94482,-2.43787 10.29745,-2.69924 24.29659,-2.69924 13.99914,0 16.35177,0.26137 24.29659,2.69924 31.71692,9.73235 54.36953,33.04926 62.83819,64.68099 3.1593,11.80044 3.16282,31.82901 0.008,43.5 -2.3809,8.80696 -8.39159,22.09489 -13.07091,28.89604 -14.76603,21.4617 -38.66512,35.5532 -65.3432,38.52798 -5.30722,0.59179 -10.00473,1.0176 -10.43891,0.94624 -0.43417,-0.0714 -4.16441,-0.5122 -8.28941,-0.97967 z m 8.73633,-222.33513 c 34.82269,-7.32517 61.82515,-33.67622 69.93199,-68.24493 2.6249,-11.19294 2.36885,-30.96796 -0.54137,-41.81053 -2.3808,-8.87008 -8.37004,-22.08606 -13.17184,-29.06524 -9.2077,-13.38293 -25.74727,-26.51355 -40.60325,-32.23456 -32.59001,-12.55035 -68.53631,-5.93829 -94.21655,17.33045 -11.51644,10.43499 -21.91353,27.85929 -26.23654,43.96935 -3.04988,11.36558 -3.05595,32.59176 -0.0126,44 2.34061,8.77398 8.33407,22.05286 13.04231,28.89604 12.88776,18.73172 32.97723,32.05204 56.07152,37.1782 7.77366,1.7255 27.49362,1.71513 35.73633,-0.0188 z M 341.5,344.39631 c -3.85,-0.79236 -11.275,-3.52199 -16.5,-6.06585 -7.94316,-3.86723 -10.90779,-6.03498 -18.09053,-13.22783 -9.28261,-9.29569 -14.10922,-16.94595 -18.04561,-28.60263 -2.04638,-6.05986 -2.36046,-8.88028 -2.33852,-21 0.023,-12.70728 0.28301,-14.7387 2.81594,-22 7.69594,-22.0625 24.99321,-38.62564 47.65872,-45.636 6.00407,-1.85703 9.79376,-2.31972 19,-2.31972 13.12977,0 21.45277,2.04622 33.5,8.236 10.5683,5.42992 23.77021,19.06702 29.25535,30.21972 5.32347,10.82401 7.4335,19.96817 7.38405,32 -0.0999,24.29827 -11.64328,45.30975 -32.19742,58.60616 -15.67799,10.14204 -34.05894,13.57349 -52.44198,9.79015 z m 94.25026,-165.51746 c 11.48777,-5.56113 13.43858,-21.23779 3.70621,-29.78293 -8.3677,-7.34694 -23.16356,-4.555 -27.81574,5.24876 -2.01336,4.24283 -2.13314,12.8121 -0.23001,16.45498 4.76316,9.11742 15.10414,12.54997 24.33954,8.07919 z"
       id="path2997"
       inkscape:connector-curvature="0" />
    <path
       style="fill:#69ccc6"
       d="M 0,375 0,0 l 375,0 375,0 0,375 0,375 -375,0 -375,0 0,-375 z m 401.07377,227.69219 c 13.33432,-3.46469 23.19991,-7.7863 33.96531,-14.87846 22.07062,-14.53995 38.36398,-37.05995 45.52336,-62.92049 3.52352,-12.72741 4.44635,-34.29271 2.01843,-47.16812 -8.34957,-44.27829 -40.9928,-78.03926 -85.02147,-87.9327 -12.55445,-2.82104 -32.56435,-2.82104 -45.1188,0 -19.9741,4.48827 -37.16092,13.49184 -51.48973,26.97366 -18.25123,17.17237 -28.93864,36.60156 -33.53174,60.95904 -2.42792,12.87541 -1.50509,34.44071 2.01843,47.16812 10.09117,36.45053 37.93534,65.35767 73.29729,76.09547 13.06274,3.96655 20.92693,4.98727 35.26515,4.57718 10.18598,-0.29134 15.8502,-0.99678 23.07377,-2.8737 z M 358.70306,584.41127 C 337.01265,580.49084 315.43779,566.68289 302.3542,548.34788 296.97005,540.80267 290.80601,527.71525 288.53166,519 c -2.62487,-10.05838 -3.14575,-28.86331 -1.08166,-39.05001 5.72022,-28.23044 23.27287,-51.00468 48.89657,-63.44243 24.52011,-11.90206 52.78675,-11.90206 77.30686,0 40.1908,19.50861 59.77408,65.11628 46.15571,107.49244 -13.64522,42.45974 -57.0242,68.37884 -101.10608,60.41127 z M 378.5,363.07557 c 16.71153,-4.29439 35.62856,-16.10794 46.2706,-28.89564 14.29405,-17.17604 21.2088,-36.06471 21.22239,-57.97209 0.0119,-19.14728 -4.50079,-34.95442 -14.19778,-49.73246 -35.63744,-54.31081 -114.01049,-54.94522 -150.6555,-1.21952 -4.41608,6.47448 -9.72617,17.87228 -12.24356,26.28008 -2.99748,10.01128 -3.71777,30.30314 -1.46952,41.39873 7.37955,36.41958 35.90648,64.64793 72.3072,71.55039 10.36625,1.9657 28.14757,1.31919 38.76617,-1.40949 z M 338.37267,343.02126 C 314.3031,336.71078 294.93403,317.32945 288.38305,293 c -2.37985,-8.83846 -2.36935,-26.23389 0.0211,-34.98291 5.61661,-20.55663 19.97328,-37.41918 39.3315,-46.19662 17.94136,-8.13499 41.61058,-7.73206 58.91451,1.00294 17.44989,8.80867 29.38812,22.6416 35.96814,41.67659 2.47569,7.16179 2.7631,9.36208 2.74308,21 -0.0195,11.31459 -0.36386,14.03718 -2.65643,21 -7.65934,23.26242 -26.05604,40.5795 -49.4714,46.56814 -9.9269,2.53888 -25.07593,2.5185 -34.86089,-0.0469 z m 98.57748,-164.1134 c 2.04735,-1.15068 4.95318,-3.96318 6.45739,-6.25 2.41746,-3.67523 2.69476,-4.92517 2.38889,-10.76821 -0.28361,-5.41801 -0.86174,-7.2865 -3.20514,-10.35885 -10.0771,-13.21176 -31.48347,-7.53894 -33.32875,8.83232 -0.88725,7.8716 3.61323,16.36655 10.18788,19.23028 4.77184,2.07849 13.16697,1.74961 17.49973,-0.68554 z"
       id="path2995"
       inkscape:connector-curvature="0" />
    <path
       style="fill:#49c3bb"
       d="M 0,375 0,0 l 375,0 375,0 0,375 0,375 -375,0 -375,0 0,-375 z m 404,227.56091 c 30.27616,-8.39043 56.54554,-30.46689 70.03334,-58.85518 25.87908,-54.46863 3.06772,-119.1299 -51.41481,-145.74086 -5.59102,-2.73083 -14.65493,-6.16523 -20.14201,-7.63201 -9.00625,-2.40748 -11.6785,-2.66685 -27.47652,-2.66685 -15.79802,0 -18.47027,0.25937 -27.47652,2.66685 -52.17524,13.94714 -87.34228,64.24401 -81.64521,116.77122 2.94501,27.15305 13.88801,49.76976 32.95069,68.10164 14.01501,13.47772 28.98997,22.28161 45.6954,26.86468 12.66695,3.47513 16.1343,3.83455 33.47564,3.47005 14.05948,-0.29551 17.90515,-0.73622 26,-2.97954 z M 364.5,584.85958 C 333.60889,581.2681 305.21916,559.6971 293.11405,530.61932 287.90049,518.0958 286.58214,511.02505 286.65922,496 c 0.0597,-11.64267 0.44012,-14.73822 2.76485,-22.5 5.32694,-17.78551 13.06656,-30.29695 26.31588,-42.54073 33.02327,-30.51703 85.49683,-30.51703 118.5201,0 13.24932,12.24378 20.98894,24.75522 26.31588,42.54073 2.32473,7.76178 2.70512,10.85733 2.76485,22.5 0.0771,15.02505 -1.24127,22.0958 -6.45483,34.61932 -15.16658,36.43175 -53.24941,58.79037 -92.38595,54.24026 z m 10.29216,-220.42694 c 8.41781,-1.71173 20.13228,-6.3917 29.02638,-11.59614 8.66442,-5.07004 25.79687,-22.76495 31.0121,-32.03024 20.04905,-35.61876 14.54372,-79.14222 -13.67888,-108.14095 -11.77696,-12.10084 -23.73133,-19.40215 -39.85517,-24.34215 -7.93168,-2.4301 -10.36976,-2.70139 -24.79659,-2.75913 -17.55979,-0.0703 -24.62387,1.29827 -37.99447,7.36079 -35.28283,15.998 -56.97548,54.04312 -52.62566,92.29624 4.47702,39.3717 32.90267,70.64822 72.12013,79.35318 8.0548,1.7879 27.67475,1.71239 36.79216,-0.1416 z m -30.71697,-20.5199 c -25.13714,-4.93181 -45.08262,-22.02656 -53.43179,-45.79499 -3.90209,-11.10846 -4.76072,-25.998 -2.17059,-37.64014 5.27837,-23.72526 23.30721,-43.34176 47.02719,-51.1685 6.92651,-2.2855 9.67733,-2.63971 20.5,-2.63971 10.82267,0 13.57349,0.35421 20.5,2.63971 32.07514,10.58364 51.93493,41.00887 48.34187,74.05981 -1.7623,16.21062 -7.95243,28.71735 -20.41673,41.25062 -6.6335,6.67019 -9.75726,8.94106 -17.5,12.7219 -13.99603,6.83437 -29.43852,9.20257 -42.84995,6.5713 z m 91.46618,-163.7924 c 18.3758,-8.34697 12.74887,-36.09575 -7.32349,-36.11522 -6.3156,-0.006 -10.76643,1.73095 -14.40426,5.62172 -3.51785,3.76244 -4.81362,7.39058 -4.81362,13.4781 0,14.00442 13.75575,22.8231 26.54137,17.0154 z"
       id="path2993"
       inkscape:connector-curvature="0" />
    <path
       style="fill:#2cbab2"
       d="M 0,375 0,0 l 375,0 375,0 0,375 0,375 -375,0 -375,0 0,-375 z m 393.07378,230.38216 c 35.49459,-6.09202 65.18422,-28.37477 80.93044,-60.74014 7.3677,-15.14385 10.04503,-26.06894 10.69501,-43.64202 0.61409,-16.6025 -0.77334,-26.32313 -5.8198,-40.77488 -16.6067,-47.5573 -64.61214,-78.28746 -114.38801,-73.22425 -49.47065,5.03217 -88.76849,41.38563 -98.07229,90.72425 -2.42981,12.8854 -1.50511,34.41793 2.03019,47.27488 15.09927,54.91217 69.30765,89.87631 124.62446,80.38216 z m -34.33995,-21.96569 c -20.4346,-3.69441 -40.5465,-15.9568 -53.28232,-32.48665 -34.86388,-45.24996 -18.78183,-110.57809 33.12525,-134.56063 22.15991,-10.23851 50.68657,-10.23851 72.84648,0 C 443.10737,431.00815 463,461.8636 463,496.36987 c 0,55.6399 -49.48316,96.95091 -104.26617,87.0466 z M 378.5,364.05552 c 33.51738,-8.69703 59.90051,-36.30574 67.01533,-70.12838 2.35623,-11.20115 1.95819,-28.81252 -0.90518,-40.04892 -3.0265,-11.87662 -6.244,-19.10219 -13.08288,-29.3804 -12.28626,-18.46509 -31.99379,-32.1673 -54.22592,-37.70206 -12.29203,-3.06013 -30.31067,-3.06013 -42.6027,0 -17.22945,4.28933 -31.197,12.40402 -44.19865,25.67799 -10.96131,11.1909 -17.61927,22.77772 -22.71236,39.52625 -2.90275,9.54562 -3.56974,30.02358 -1.33808,41.0814 7.47036,37.01541 36.32672,65.33118 73.89201,72.50772 9.78337,1.86904 27.84215,1.14324 38.15843,-1.5336 z M 338.21553,341.98135 C 326.4622,338.90199 317.63642,333.66684 307.93243,324.01847 293.8053,309.9723 287.70953,295.58351 287.58952,276 c -0.0787,-12.8373 1.27894,-18.73298 7.12714,-30.95131 3.82783,-7.99726 5.85145,-10.77325 13.15357,-18.04394 13.9288,-13.86885 28.7765,-19.96691 48.62977,-19.97261 4.95,-0.001 11.925,0.68444 15.5,1.52412 22.37251,5.25478 41.79944,23.24024 49.62594,45.94374 2.45873,7.13242 2.75781,9.40982 2.75781,21 0,11.58912 -0.29924,13.86823 -2.75724,21 -7.99296,23.19121 -25.49669,39.71227 -48.23599,45.528 -10.16008,2.59851 -25.15483,2.57863 -35.17499,-0.0466 z M 436.78984,180.10641 C 443.4855,176.68908 447,170.80682 447,163.01754 c 0,-6.52342 -1.81131,-10.76667 -6.26527,-14.6773 -6.94009,-6.09348 -16.27606,-6.89485 -23.62987,-2.02833 -7.32326,4.8463 -10.74517,14.18788 -8.11569,22.15528 1.52852,4.63145 6.52272,10.40961 10.49224,12.13924 4.50144,1.96141 12.96474,1.71691 17.30843,-0.50002 z"
       id="path2991"
       inkscape:connector-curvature="0" />
    <path
       style="fill:#0ab2a8"
       d="M 0,375 0,0 l 375,0 375,0 0,375 0,375 -375,0 -375,0 0,-375 z m 396.35132,230.49896 c 30.03014,-6.2029 55.34831,-23.45753 71.84086,-48.96041 33.81568,-52.2901 17.73449,-121.53364 -35.95134,-154.80182 -8.44087,-5.23066 -19.59355,-9.84907 -31.21004,-12.92431 -10.76321,-2.84935 -32.58705,-3.55203 -44.70151,-1.43929 -46.76973,8.15654 -83.14102,45.05521 -90.9073,92.22543 -4.28055,25.9989 1.7713,54.38567 16.40213,76.93581 18.08186,27.86912 46.52266,45.8568 79.67588,50.39186 8.87976,1.21467 25.32053,0.54137 34.85132,-1.42727 z M 357.5,582.57496 c -34.83665,-8.05165 -59.90597,-32.78955 -68.11261,-67.21215 -2.41212,-10.11761 -2.19803,-27.60599 0.47333,-38.66416 7.58967,-31.41768 29.96559,-54.69416 61.85744,-64.34699 7.76878,-2.3514 10.45454,-2.65803 23.28184,-2.65803 12.8273,0 15.51306,0.30663 23.28184,2.65803 31.89455,9.65365 54.29097,32.95398 61.85073,64.34699 2.60049,10.79895 2.85336,27.46788 0.57549,37.93642 -6.91877,31.79697 -30.5813,57.08819 -62.20806,66.48983 -9.10413,2.70637 -32.05275,3.518 -41,1.45006 z m 9,-215.65707 c 21.80115,-2.6076 41.96916,-12.85613 56.77927,-28.85282 10.3084,-11.1343 16.70157,-22.40471 21.35367,-37.64399 2.47927,-8.12156 2.72334,-10.35503 2.72334,-24.92108 0,-14.5116 -0.24976,-16.81753 -2.68486,-24.78832 -10.2922,-33.68921 -36.73731,-58.33762 -69.87926,-65.1316 -9.90186,-2.02985 -27.68296,-2.03316 -37.49227,-0.007 -34.40442,7.10643 -62.26168,34.21611 -71.00347,69.09801 -2.60279,10.38576 -2.3042,33.25871 0.57214,43.82891 9.22222,33.89049 37.02394,60.33697 70.43557,67.0021 12.99499,2.59231 17.52348,2.81191 29.19587,1.41579 z m -21.26245,-23.96215 c -15.14054,-2.71274 -28.28636,-9.9364 -39.04245,-21.45391 -25.80697,-27.63385 -23.88346,-70.47171 4.32418,-96.30241 12.40146,-11.35643 28.34575,-17.50461 45.48072,-17.53754 12.05081,-0.0231 18.15148,1.412 30,7.05738 8.11777,3.86781 10.73942,5.78163 18.01847,13.15357 C 417.83793,241.86864 424,256.5563 424,275.5 c 0,30.94468 -20.89616,58.20948 -50.57299,65.9864 -7.51999,1.97064 -21.36408,2.69225 -28.18946,1.46934 z m 91.85517,-162.28251 c 16.43777,-8.67813 13.28271,-33.26503 -4.82614,-37.60928 -18.81018,-4.51249 -32.68954,18.1343 -19.98308,32.60616 6.41399,7.30513 16.56957,9.35314 24.80922,5.00312 z"
       id="path2989"
       inkscape:connector-curvature="0" />
  </g>
</svg>
