<svg xmlns="http://www.w3.org/2000/svg" width="225.038" height="298.103"><defs><clipPath id="a"><path d="M0 1080h1920V0H0v1080z"/></clipPath></defs><g clip-path="url(#a)" transform="matrix(1.25 0 0 -1.25 -1083.117 819.262)"><path d="M946.697 450.868c-19.84 0-38.464 5.1-54.63 14.008l-16.964-29.537c21.176-11.707 45.584-18.412 71.594-18.412 26.01 0 50.418 6.705 71.594 18.412l-16.962 29.537c-16.167-8.909-34.79-14.008-54.632-14.008" fill="#0ba0be"/><path d="M946.433 528.849c-25.605 0-45.278 20.922-45.278 46.527 0 25.606 19.673 46.528 45.278 46.528 25.918 0 44.966-20.922 44.966-46.528 0-25.605-19.048-46.527-44.966-46.527m100.09 90.56v36c-15 0-21.906-.92-25.98-2.784-4.071-1.864-3.494-1.775-7.278-4.571-3.456-2.555-9.3-8.65-13.073-12.84-14.08 12.589-32.834 20.1-53.76 20.1-45.277 0-79.938-34.66-79.938-79.938 0-44.965 34.66-80.251 79.939-80.251 44.966 0 79.939 35.286 79.939 80.25 0 16.47-4.644 31.52-12.695 44.023.022.002.062.012.076.012h32.77z"/></g></svg>