<?xml version="1.0" encoding="UTF-8" standalone="no"?>
<!-- Created with Inkscape (http://www.inkscape.org/) -->

<svg
   xmlns:dc="http://purl.org/dc/elements/1.1/"
   xmlns:cc="http://creativecommons.org/ns#"
   xmlns:rdf="http://www.w3.org/1999/02/22-rdf-syntax-ns#"
   xmlns:svg="http://www.w3.org/2000/svg"
   xmlns="http://www.w3.org/2000/svg"
   xmlns:sodipodi="http://sodipodi.sourceforge.net/DTD/sodipodi-0.dtd"
   xmlns:inkscape="http://www.inkscape.org/namespaces/inkscape"
   id="svg2"
   version="1.1"
   inkscape:version="0.48.5 r10040"
   width="256"
   height="256"
   sodipodi:docname="helloworld.png">
  <metadata
     id="metadata8">
    <rdf:RDF>
      <cc:Work
         rdf:about="">
        <dc:format>image/svg+xml</dc:format>
        <dc:type
           rdf:resource="http://purl.org/dc/dcmitype/StillImage" />
        <dc:title></dc:title>
      </cc:Work>
    </rdf:RDF>
  </metadata>
  <defs
     id="defs6" />
  <sodipodi:namedview
     pagecolor="#ffffff"
     bordercolor="#666666"
     borderopacity="1"
     objecttolerance="10"
     gridtolerance="10"
     guidetolerance="10"
     inkscape:pageopacity="0"
     inkscape:pageshadow="2"
     inkscape:window-width="1280"
     inkscape:window-height="683"
     id="namedview4"
     showgrid="false"
     inkscape:zoom="1.5733333"
     inkscape:cx="70.233051"
     inkscape:cy="150"
     inkscape:window-x="0"
     inkscape:window-y="0"
     inkscape:window-maximized="1"
     inkscape:current-layer="svg2" />
  <g
     id="g2987"
     transform="matrix(0.95522388,0,0,0.95522388,-15.283582,-15.18048)">
    <path
       style="fill:#d6d6d6"
       d="m 123,227.51891 c -16.73919,-5.40404 -22.0219,-27.40291 -9.69932,-40.39102 7.00504,-7.38337 18.49163,-9.30038 28.31635,-4.72573 13.95775,6.49908 17.84092,25.69318 7.61497,37.63991 -6.39208,7.4677 -16.9441,10.47532 -26.232,7.47684 z m 13.51022,-9.95873 c 4.6414,-1.9393 7.48134,-6.82398 7.48604,-12.87592 0.009,-11.02766 -8.63213,-17.81437 -17.93948,-14.0903 -9.24876,3.70062 -11.96277,15.61058 -5.34855,23.47114 4.23942,5.03827 9.38485,6.17633 15.80199,3.49508 z M 38.23538,221.75 c -1.022511,-3.4375 -4.756272,-16.48577 -8.297246,-28.99616 L 23.5,170.00769 19.75,170.00384 16,170 l 0,-4.5 0,-4.5 12.5,0 12.5,0 0,4.5 c 0,4.48083 -0.01499,4.5 -3.519052,4.5 -3.15245,0 -3.459376,0.2344 -2.946214,2.25 0.31506,1.2375 2.913539,10.41432 5.774398,20.39293 l 5.20156,18.14292 5.597874,-20.39292 L 56.70644,170 52.85322,170 49,170 l 0,-4.5 0,-4.5 15.5,0 15.5,0 0,4.5 0,4.5 -3.851757,0 -3.851757,0 5.580067,19.93836 c 3.069037,10.96609 5.713681,19.80474 5.876986,19.64143 C 84.090306,209.24303 95,171.37213 95,170.53988 95,170.24295 93.425,170 91.5,170 88.018519,170 88,169.97619 88,165.5 l 0,-4.5 12,0 12,0 0,4.43963 c 0,4.39272 -0.0389,4.44292 -3.68161,4.75 L 104.63678,170.5 96.568392,199.24855 88.5,227.99709 83.381412,227.99855 78.262823,228 71.39767,203.53374 C 67.621835,190.0773 64.244246,179.3898 63.891915,179.78374 63.539584,180.17768 60.691949,189.725 57.563836,201 49.186557,231.19514 50.67693,228 44.969694,228 l -4.875202,0 -1.859112,-6.25 z M 240.5,225.63197 c -5.87973,-2.76171 -7.67879,-4.59994 -10.42305,-10.64995 -2.30577,-5.08332 -2.69422,-13.1897 -0.91639,-19.12358 1.55066,-5.17565 7.2902,-11.70423 12.28363,-13.97231 7.08624,-3.21867 17.53418,-1.93064 22.76921,2.807 1.70159,1.53991 1.7866,1.22881 1.7866,-6.53814 L 266,170 l -4,0 -4,0 0,-4.5 0,-4.5 9,0 9,0 0,28.5 0,28.5 4,0 4,0 0,4.5 0,4.5 -9,0 -9,0 0,-2.65499 c 0,-2.48593 -0.11376,-2.55204 -1.7866,-1.03814 -5.5859,5.05517 -15.7742,6.05413 -23.7134,2.3251 z M 259.19088,217.25 c 6.23353,-3.63688 8.721,-14.21631 4.98185,-21.18834 -3.50517,-6.53577 -12.51709,-8.97832 -18.85891,-5.11143 -9.42175,5.74485 -8.66546,23.02083 1.18618,27.09574 3.42462,1.41652 9.55807,1.03183 12.69088,-0.79597 z M 160,222.5 l 0,-4.5 4.5,0 4.5,0 0,-14 0,-14 -4.5,0 -4.5,0 0,-4.5 0,-4.5 8.5,0 8.5,0 0,4.0348 0,4.03479 3.08227,-3.5105 c 3.17532,-3.6165 7.91822,-5.54365 13.66773,-5.55351 3.22168,-0.006 3.25,0.0368 3.25,4.85513 l 0,4.86071 -5.12648,0.60715 C 181.88325,191.51177 179,195.78608 179,209.41309 l 0,8.47733 4.75,0.30479 4.75,0.30479 0.3075,4.25 0.3075,4.25 -14.5575,0 -14.5575,0 0,-4.5 z m 38,0 0,-4.5 4,0 4,0 0,-24 0,-24 -4,0 -4,0 0,-4.5 0,-4.5 9,0 9,0 0,28.5 0,28.5 3.5,0 c 3.48148,0 3.5,0.0238 3.5,4.5 l 0,4.5 -12.5,0 -12.5,0 0,-4.5 z m -75.67582,-84.87959 c -6.9602,-2.27616 -11.24377,-5.55166 -14.35552,-10.97714 -2.46652,-4.30049 -2.95143,-6.25459 -2.95928,-11.92539 -0.005,-3.73016 0.60933,-8.26289 1.36552,-10.07273 5.56021,-13.307445 22.84757,-18.741469 35.24284,-11.07806 6.29097,3.889407 10.31136,10.34587 11.08005,17.79376 L 153.27981,117 134.6399,117 C 116.32148,117 116,117.03652 116,119.11765 c 0,3.24119 6.94085,9.59303 11.39587,10.42879 4.73943,0.88913 10.52715,-0.76934 14.57693,-4.177 3.25148,-2.73595 5.79657,-2.73135 9.5272,0.0172 1.95805,1.4426 1.92658,1.55104 -1.5,5.16943 -1.925,2.03277 -5.37059,4.54175 -7.65687,5.57552 -5.57983,2.52301 -14.76718,3.20627 -20.01895,1.48881 z M 143,108.07673 c 0,-1.61551 -5.13322,-7.09426 -8.06946,-8.612647 -6.11194,-3.16061 -14.25115,-0.612349 -17.38199,5.442037 -0.8517,1.64701 -1.54855,3.24191 -1.54855,3.54422 0,0.30231 6.075,0.54966 13.5,0.54966 7.58542,0 13.5,-0.4045 13.5,-0.92327 z m 89.22179,29.50911 c -10.21334,-3.32191 -16.23823,-12.07378 -16.19983,-23.53218 0.0276,-8.25082 2.30844,-13.4687 8.02685,-18.363447 12.10898,-10.364837 30.94737,-6.484423 37.57042,7.738927 7.42133,15.93767 -2.43869,33.39218 -19.79522,35.04209 -3.21045,0.30519 -7.0224,-0.0463 -9.60222,-0.88539 z m 14.47966,-10.54536 c 4.21044,-2.56725 6.64636,-7.42486 6.66669,-13.29442 0.0515,-14.871095 -19.60588,-19.505515 -25.5677,-6.02783 -5.86467,13.25805 7.10373,26.51548 18.90101,19.32225 z M 36,132.5 c 0,-4.47619 0.01852,-4.5 3.5,-4.5 l 3.5,0 0,-24 0,-24 -3.5,0 C 36.015099,80 36,79.980459 36,75.470123 L 36,70.940246 48.75,71.220123 61.5,71.5 61.807498,75.75 62.114996,80 58.057498,80 54,80 l 0,9 0,9 13.5,0 13.5,0 0,-9 0,-9 -3.5,0 C 74.015099,80 74,79.980459 74,75.470123 L 74,70.940246 86.75,71.220123 99.5,71.5 99.807498,75.75 100.115,80 96.057498,80 92,80 l 0,24 0,24 4,0 4,0 0,4.5 0,4.5 -13,0 -13,0 0,-4.5 c 0,-4.47619 0.01852,-4.5 3.5,-4.5 l 3.5,0 0,-10.5 0,-10.5 -13.5,0 -13.5,0 0,10.5 0,10.5 4,0 4,0 0,4.5 0,4.5 -13,0 -13,0 0,-4.5 z m 122,0.5 0,-4 4.5,0 4.5,0 0,-24.5 0,-24.5 -4.5575,0 -4.5575,0 0.3075,-4.25 0.3075,-4.25 9,0 9,0 0.26534,28.75 0.26533,28.75 3.48467,0 c 3.39877,0 3.48466,0.0986 3.48466,4 l 0,4 -13,0 -13,0 0,-4 z m 28,0 c 0,-4 0,-4 4,-4 l 4,0 0,-24.5 0,-24.5 -4.0575,0 -4.0575,0 0.3075,-4.25 0.3075,-4.25 9,0 9,0 0.26534,28.75 0.26533,28.75 2.98467,0 c 2.81544,0 2.98466,0.22679 2.98466,4 l 0,4 -12.5,0 -12.5,0 0,-4 z"
       id="path3001"
       inkscape:connector-curvature="0" />
    <path
       style="fill:#bdbdbd"
       d="m 123.9538,227.63884 c -13.57029,-3.66009 -20.96484,-19.65983 -15.43877,-33.40519 4.9008,-12.19006 20.95026,-17.79267 33.31659,-11.63027 19.19786,9.5667 16.5971,38.7373 -3.99903,44.85369 -6.08215,1.80621 -7.77382,1.82836 -13.87879,0.18177 z m 13.14008,-10.18739 c 4.45841,-2.30553 6.89798,-7.00527 6.90238,-13.29716 0.005,-6.78149 -2.19971,-10.59027 -7.65907,-13.2331 -9.60741,-4.65087 -19.42195,2.36681 -19.29527,13.79669 0.11905,10.74259 10.79362,17.52125 20.05196,12.73357 z M 36.690088,215.75 c -1.97069,-6.7375 -5.719903,-19.7875 -8.331584,-29 L 23.609994,170 19.804997,170 16,170 l 0,-4.5 0,-4.5 12.5,0 12.5,0 0,4.5 0,4.5 -3.616631,0 c -2.958419,0 -3.530316,0.31849 -3.142362,1.75 4.344442,16.03047 11.263419,39.23672 11.493071,38.54776 0.16538,-0.49613 2.689111,-9.6536 5.608291,-20.34991 L 56.64997,170.5 52.770427,170.18984 48.890884,169.87967 49.195442,165.68984 49.5,161.5 l 15,0 15,0 0.304558,4.18984 0.304558,4.18983 -3.886612,0.31017 -3.886613,0.31016 5.501116,19.74761 c 3.025614,10.86118 5.733351,19.51537 6.017194,19.23152 C 84.381673,208.95166 94.976211,172.11009 94.991545,170.75 94.996195,170.3375 93.425,170 91.5,170 88.018519,170 88,169.97619 88,165.5 l 0,-4.5 12,0 12,0 0,4.5 0,4.5 -3.75,0.0133 -3.75,0.0133 -8,28.7367 -8,28.7367 -5.061164,0.29571 -5.061164,0.29571 -6.854754,-24.54571 c -3.770114,-13.50014 -7.11759,-24.54296 -7.438836,-24.5396 -0.470533,0.005 -6.195931,19.69403 -13.156478,45.24389 -1.000599,3.67287 -1.120678,3.75 -5.838027,3.75 l -4.816416,0 -3.583073,-12.25 z M 241.5,226.16829 c -4.94623,-2.34604 -8.74115,-5.84851 -11.1393,-10.28089 -2.75608,-5.09391 -2.55679,-18.01061 0.36276,-23.51161 2.4723,-4.6583 7.22678,-9.02943 11.99442,-11.02733 6.35904,-2.66477 16.61925,-1.0683 21.49552,3.34467 1.70159,1.53991 1.7866,1.22881 1.7866,-6.53814 L 266,170 l -4,0 -4,0 0,-4.53893 0,-4.53894 8.75,0.28894 8.75,0.28893 0.26557,28.25 0.26558,28.25 3.98442,0 3.98443,0 0,4.5 0,4.5 -9,0 c -8.94688,0 -9,-0.0148 -9,-2.51419 l 0,-2.51419 -4.11657,2.72422 c -5.44285,3.60191 -14.5125,4.25707 -20.38343,1.47245 z m 18.08004,-9.05397 c 8.80889,-5.37165 8.50614,-21.91567 -0.48616,-26.56577 -4.08651,-2.11322 -9.94159,-1.9388 -13.79533,0.41097 -8.75066,5.33558 -9.00422,21.03278 -0.42575,26.35677 3.58416,2.2244 10.89286,2.12403 14.70724,-0.20197 z M 160.1925,222.75 c 0.30601,-4.22934 0.32816,-4.25149 4.5575,-4.5575 l 4.25,-0.3075 0,-13.9425 0,-13.9425 -4.5,0 -4.5,0 0,-4.5 0,-4.5 8.5,0 8.5,0 0,4.13486 0,4.13486 2.1714,-2.76049 c 2.73796,-3.48075 9.20067,-6.4587 14.0786,-6.48727 L 197,180 l 0,4.8601 0,4.86009 -5.37765,0.55503 C 181.47012,191.32302 179,194.95729 179,208.84634 l 0,9.04408 4.75,0.30479 4.75,0.30479 0.3075,4.25 0.3075,4.25 -14.615,0 -14.615,0 0.3075,-4.25 z m 38,0 c 0.29848,-4.12537 0.41747,-4.2591 4.0575,-4.56037 l 3.75,-0.31036 0,-23.93964 0,-23.93963 -4.0575,0 -4.0575,0 0.3075,-4.25 0.3075,-4.25 8.75,-0.28893 8.75,-0.28894 0,28.53894 0,28.53893 3.5,0 c 3.48148,0 3.5,0.0238 3.5,4.5 l 0,4.5 -12.5575,0 -12.5575,0 0.3075,-4.25 z m -74.475,-84.84158 c -5.27183,-1.24137 -8.69134,-3.18925 -12.41682,-7.0731 -4.392,-4.5787 -6.30068,-9.67224 -6.30068,-16.8141 0,-16.693816 14.81085,-27.470165 31.5,-22.919339 8.19823,2.235506 16.5,13.689009 16.5,22.764139 l 0,3.13398 -18.5,0 c -20.59595,0 -20.62068,0.01 -16.58092,6.63496 4.2766,7.01347 16.79693,8.18732 23.60156,2.21277 3.19663,-2.80668 3.68084,-2.93634 6.94388,-1.85944 1.92919,0.63669 3.81625,1.65699 4.19346,2.26732 1.29473,2.09492 -8.08721,9.32069 -14.40286,11.09277 -6.4446,1.80826 -8.84414,1.9007 -14.53762,0.56004 z M 143,108.40429 c 0,-1.96642 -3.86084,-6.51983 -7.04608,-8.31003 -4.65671,-2.617221 -9.50551,-2.665065 -13.65537,-0.134744 C 119.61139,101.59797 116,106.46634 116,108.45034 116,108.75265 122.075,109 129.5,109 c 7.425,0 13.5,-0.26807 13.5,-0.59571 z m 91.5,29.66064 c -14.11517,-3.43632 -21.72459,-17.57016 -17.33944,-32.20649 4.15013,-13.851916 22.59245,-20.245005 35.45718,-12.29135 13.14491,8.12688 15.30304,26.33692 4.44778,37.52988 -6.23702,6.43106 -14.40753,8.95401 -22.56552,6.96796 z M 246.69567,127.044 c 4.76918,-2.90795 6.73694,-6.55948 6.70674,-12.44551 -0.0362,-7.05946 -2.5062,-11.31451 -7.97106,-13.73188 -5.81168,-2.570785 -10.5195,-1.711792 -14.96111,2.72981 -5.84493,5.84494 -5.70235,16.0198 0.30288,21.61387 1.49978,1.39711 3.40188,2.78581 4.22688,3.086 3.24504,1.18079 8.65539,0.60149 11.69567,-1.25229 z M 36,132.5 c 0,-4.47619 0.01852,-4.5 3.5,-4.5 l 3.5,0 0,-24 0,-24 -3.557498,0 -3.557498,0 0.307498,-4.25 L 36.5,71.5 l 12.5,0 12.5,0 0.307498,4.25 L 62.114996,80 58.057498,80 54,80 l 0,9 0,9 13.5,0 13.5,0 0,-9 0,-9 -3.5,0 C 74.015099,80 74,79.980459 74,75.470123 L 74,70.940246 86.75,71.220123 99.5,71.5 99.807498,75.75 100.115,80 96.057498,80 92,80 l 0,23.93963 0,23.93964 3.75,0.31036 c 3.640035,0.30127 3.759017,0.435 4.057498,4.56037 L 100.115,137 87.057498,137 74,137 l 0,-4.5 c 0,-4.47619 0.01852,-4.5 3.5,-4.5 l 3.5,0 0,-10.5 0,-10.5 -13.5,0 -13.5,0 0,10.43963 0,10.43964 3.75,0.31036 c 3.640035,0.30127 3.759017,0.435 4.057498,4.56037 L 62.114996,137 49.057498,137 36,137 l 0,-4.5 z m 122,0.5 0,-4 4.5,0 4.5,0 0,-24.4425 0,-24.442504 -4.25,-0.307498 C 158.50958,79.500693 158.5,79.490981 158.5,75.5 l 0,-4 9,0 9,0 0.26534,28.75 0.26533,28.75 3.48467,0 c 3.39877,0 3.48466,0.0986 3.48466,4 l 0,4 -13,0 -13,0 0,-4 z m 28,0 c 0,-4 0,-4 4,-4 l 4,0 0,-24.43963 0,-24.439639 -3.75,-0.310366 C 186.59339,79.50773 186.5,79.40038 186.5,75.5 l 0,-4 9,0 9,0 0.26534,28.75 0.26533,28.75 2.98467,0 c 2.81544,0 2.98466,0.22679 2.98466,4 l 0,4 -12.5,0 -12.5,0 0,-4 z"
       id="path2999"
       inkscape:connector-curvature="0" />
    <path
       style="fill:#999999"
       d="m 32,199 -8.285405,-29 -3.857298,0 C 16.023784,170 16,169.97534 16,166 l 0,-4 12.5,0 12.5,0 0,4 c 0,3.90476 -0.08333,4 -3.5,4 -1.925,0 -3.5,0.32905 -3.5,0.73123 0,1.22701 11.274182,40.32921 11.544405,40.03942 C 45.68321,210.62179 48.152285,201.95 51.031238,191.5 53.910191,181.05 56.47906,171.9375 56.739837,171.25 57.071378,170.37594 55.978788,170 53.106989,170 L 49,170 l 0,-4 0,-4 15.5,0 15.5,0 0,3.9425 c 0,3.85726 -0.08361,3.94915 -3.866746,4.25 l -3.866747,0.3075 5.585578,20.19784 c 3.072068,11.1088 5.73701,20.0464 5.922094,19.86131 C 84.219255,210.11408 95,172.00278 95,170.87446 95,170.39351 93.425,170 91.5,170 88.083333,170 88,169.90476 88,166 l 0,-4 12,0 12,0 0,4 c 0,3.9553 -0.0419,4.00002 -3.75,4.00145 l -3.75,0.001 -8.069635,28.74854 -8.069634,28.74855 -4.933368,0.29369 -4.933367,0.2937 -6.989805,-25.00089 C 67.659798,189.33601 64.236843,178.40385 63.897624,178.79281 63.558406,179.18176 60.229892,190.4125 56.500927,203.75 L 49.720991,228 45.003198,228 40.285405,228 32,199 z m 86.04344,25.81436 C 110.65514,220.32665 107,213.5546 107,204.35369 c 0,-10.03268 4.13881,-17.26447 12.37579,-21.62436 5.32162,-2.81677 17.47222,-3.08342 22.26809,-0.48868 8.56836,4.6358 12.83183,12.09819 12.79904,22.40231 -0.0196,6.16062 -0.43306,7.80667 -3.00648,11.96907 -1.64107,2.65436 -4.92398,6.19003 -7.29537,7.85704 -3.80459,2.67452 -5.27172,3.0679 -12.47634,3.34529 -7.74231,0.29809 -8.44704,0.14288 -13.62129,-3 z m 20.05868,-8.10169 c 9.39479,-6.32423 8.21828,-21.55882 -2.02151,-26.17632 -12.22477,-5.5126 -23.54337,8.25682 -17.41065,21.18058 3.36782,7.09714 12.73361,9.50496 19.43216,4.99574 z m 105.54634,10.26071 c -21.07186,-6.31608 -20.54396,-39.14721 0.73921,-45.9726 5.34243,-1.71329 13.05618,-0.63459 17.77019,2.48499 l 3.84214,2.54261 0,-8.01419 0,-8.01419 -4,0 c -4,0 -4,0 -4,-4 l 0,-4 9,0 9,0 0,28.5 0,28.5 4,0 c 4,0 4,0 4,4 l 0,4 -9,0 c -8.99697,0 -9,-8.6e-4 -9,-2.56809 l 0,-2.5681 -2.75,1.91514 c -5.66301,3.94381 -13.07276,5.15136 -19.60154,3.19443 z m 17.05776,-10.51654 c 5.23881,-3.4326 7.06733,-15.03587 3.33426,-21.15829 -6.06271,-9.94319 -21.50655,-7.69943 -24.89709,3.61718 -1.61868,5.4027 -1.43623,7.84789 0.95402,12.78549 3.81982,7.8907 12.69753,9.93929 20.60881,4.75562 z M 160,223 l 0,-4 4.5,0 4.5,0 0,-14.5 0,-14.5 -4.5,0 -4.5,0 0,-4.5 0,-4.5 8.5,0 8.5,0 0.0317,4.25 0.0317,4.25 2.07212,-2.778 C 182.05905,182.80251 186.0959,181 191.95034,181 l 5.04966,0 0,4.5 0,4.5 -4.03212,0 c -2.21766,0 -5.60886,0.6588 -7.53599,1.46401 C 180.49215,193.52797 179,197.70472 179,209.46788 l 0,9.53212 4.5,0 4.5,0 0,4 0,4 -14,0 -14,0 0,-4 z m 38,0.0575 c 0,-3.92334 0.0207,-3.944 4.25,-4.25 l 4.25,-0.3075 0.26778,-24.25 0.26778,-24.25 -4.51778,0 -4.51778,0 0,-4 0,-4 9,0 9,0 0,28.5 0,28.5 3.5,0 c 3.41667,0 3.5,0.0952 3.5,4 l 0,4 -12.5,0 -12.5,0 0,-3.9425 z m -78.64466,-86.50408 c -1.72956,-0.75256 -4.96577,-3.01355 -7.19157,-5.02443 -11.10846,-10.03582 -9.06325,-29.75043 3.91898,-37.776731 15.13875,-9.359565 34.47858,0.304801 36.60914,18.294061 l 0.58146,4.90954 -19.08921,0.27207 -19.08921,0.27207 1.86874,4.17204 c 2.1305,4.75643 5.25541,7.1647 10.37468,7.99544 5.42225,0.87991 10.34243,-0.4483 14.19675,-3.83244 3.2771,-2.87733 3.69179,-2.98768 6.72862,-1.7904 5.12742,2.0215 5.36526,2.68441 2.17969,6.07525 -4.92126,5.23836 -11.77846,7.86513 -20.44341,7.8312 -4.125,-0.0162 -8.9151,-0.6451 -10.64466,-1.39767 z M 143,108.86803 c 0,-2.54582 -4.26233,-7.76463 -7.65733,-9.375664 C 129.643,96.787694 123.3812,97.916346 119.28435,102.38678 117.47796,104.3579 116,106.87724 116,107.98531 116,109.9054 116.63387,110 129.5,110 c 9.38256,0 13.5,-0.34524 13.5,-1.13197 z m 86.5,27.26631 c -12.12949,-5.52419 -17.05871,-20.74976 -10.75,-33.20503 8.3565,-16.498208 32.52757,-17.223075 41.91237,-1.25691 2.44459,4.15892 2.83442,5.86644 2.81445,12.3276 -0.0178,5.75149 -0.5321,8.4615 -2.20615,11.62421 -2.46451,4.65611 -7.21748,9.028 -11.98855,11.02733 -4.63889,1.94394 -14.97134,1.6738 -19.78212,-0.5172 z M 249.60432,124.7347 C 259.76083,113.65203 249.52296,95.372007 235.71223,99.929958 229.72568,101.9057 226,107.53889 226,114.61476 c 0,4.44427 2.06625,8.42175 6.16789,11.87305 2.87034,2.41524 3.86234,2.67442 8.70067,2.27318 4.70453,-0.39013 5.91457,-0.94784 8.73576,-4.02629 z M 36,132.5 c 0,-4.47619 0.01852,-4.5 3.5,-4.5 l 3.5,0 0,-24 0,-24 -3.5,0 C 36.083333,80 36,79.904762 36,76 l 0,-4 12.5,0 12.5,0 0,4 c 0,3.904762 -0.08333,4 -3.5,4 l -3.5,0 0,9 0,9 14,0 14,0 0,-9 0,-9 -4,0 c -4,0 -4,0 -4,-4 l 0,-4 12.5,0 12.5,0 0,4 c 0,3.904762 -0.08333,4 -3.5,4 l -3.5,0 0,24 0,24 3.5,0 c 3.481481,0 3.5,0.0238 3.5,4.5 l 0,4.5 -12.5,0 -12.5,0 0,-4.5 0,-4.5 4,0 4,0 0,-10.5 0,-10.5 -14,0 -14,0 0,10.5 0,10.5 3.5,0 c 3.481481,0 3.5,0.0238 3.5,4.5 l 0,4.5 -12.5,0 -12.5,0 0,-4.5 z m 123,0.5 c 0,-4 0,-4 4,-4 l 4,0 0,-24.5 0,-24.5 -4,0 c -4,0 -4,0 -4,-4 l 0,-4 8.5,0 8.5,0 0,28.5 0,28.5 3.5,0 c 3.41667,0 3.5,0.0952 3.5,4 l 0,4 -12,0 -12,0 0,-4 z m 28,0 c 0,-4 0,-4 4,-4 l 4,0 0,-24.5 0,-24.5 -4,0 c -4,0 -4,0 -4,-4 l 0,-4 8.5,0 8.5,0 0,28.5 0,28.5 3.5,0 c 3.41667,0 3.5,0.0952 3.5,4 l 0,4 -12,0 -12,0 0,-4 z"
       id="path2997"
       inkscape:connector-curvature="0" />
    <path
       style="fill:#777777"
       d="m 35.641496,211.25 c -2.611681,-9.2125 -6.360894,-22.2625 -8.331584,-29 L 23.726839,170 l -3.86342,0 C 16.022763,170 16,169.97643 16,166 l 0,-4 12.5,0 12.5,0 0,4 c 0,3.90476 -0.08333,4 -3.5,4 -1.925,0 -3.5,0.47854 -3.5,1.06342 0,0.81888 6.820429,25.33923 10.642707,38.26194 0.296948,1.00395 0.736846,1.62842 0.977551,1.38771 0.240706,-0.2407 2.690012,-8.71211 5.442903,-18.82536 C 53.816051,181.77447 56.308347,172.7125 56.601596,171.75 57.048621,170.28278 56.477539,170 53.067388,170 L 49,170 l 0,-4 0,-4 15.5,0 15.5,0 0,4 0,4 -4.106989,0 c -2.860915,0 -3.969325,0.37925 -3.653257,1.25 0.249553,0.6875 2.860098,9.92539 5.801213,20.52863 2.941114,10.60325 5.662257,18.70325 6.046984,18 C 84.953243,208.19695 95,172.5645 95,171.07728 95,170.48478 93.425,170 91.5,170 88.083333,170 88,169.90476 88,166 l 0,-4 12,0 12,0 0,4 c 0,3.96813 -0.0304,4 -3.81751,4 l -3.81751,0 -8.054432,28.75 -8.054437,28.75 -4.87336,0 -4.873361,0 -6.959577,-24.75 c -3.827767,-13.6125 -7.20488,-24.74616 -7.504695,-24.74147 -0.299815,0.005 -3.666075,11.2547 -7.480578,25 L 49.629081,228 l -4.619538,0 -4.619537,0 -4.74851,-16.75 z M 120.5,226.10015 c -12.31575,-5.71428 -17.13107,-20.57272 -10.75,-33.17084 10.47283,-20.67646 41.26741,-15.00143 44.75381,8.24752 1.58193,10.5491 -5.63079,22.75808 -15.11983,25.59333 -5.96811,1.78323 -14.22826,1.49016 -18.88398,-0.67001 z m 19.52481,-10.88967 c 9.18531,-9.18531 4.19789,-24.62447 -8.36615,-25.89842 -7.95646,-0.80676 -14.64795,6.03664 -14.65492,14.9876 -0.007,9.20334 5.35497,14.68968 14.36391,14.6966 4.30286,0.003 5.30733,-0.43595 8.65716,-3.78578 z m 103.58422,11.6087 c -2.28403,-0.63663 -5.85317,-2.99145 -8.64216,-5.70186 -3.943,-3.8319 -4.97086,-5.61397 -6.04258,-10.47643 -2.61637,-11.87064 2.1235,-22.87695 12.01121,-27.89089 7.77056,-3.94035 15.25237,-3.44713 22.3145,1.47105 l 2.75,1.91514 0,-8.0681 0,-8.06809 -4,0 c -4,0 -4,0 -4,-4 l 0,-4 9,0 9,0 0,28.5 0,28.5 4,0 c 4,0 4,0 4,4 l 0,4 -9,0 c -8.97313,0 -9,-0.008 -9,-2.54215 l 0,-2.54216 -4.39755,2.57714 c -5.06743,2.96971 -12.32079,3.90749 -17.99342,2.32635 z m 16.18871,-9.49536 c 3.9475,-2.461 6.19478,-7.29448 6.19478,-13.32382 0,-9.5488 -5.22084,-15 -14.36613,-15 -10.50039,0 -16.60604,11.84069 -11.68944,22.66932 3.36397,7.40903 12.75694,10.08327 19.86079,5.6545 z M 160,223 l 0,-4 4.5,0 4.5,0 0,-14.4425 0,-14.4425 -4.25,-0.3075 c -4.24042,-0.30681 -4.25,-0.31652 -4.25,-4.3075 l 0,-4 8,0 8,0 0.51582,4 c 0.49856,3.86617 0.55925,3.92293 1.81382,1.69649 2.15012,-3.81572 7.10083,-6.18861 12.92036,-6.19275 L 197,181 l 0,4.5 0,4.5 -4.03212,0 c -2.21766,0 -5.56278,0.63955 -7.43358,1.42122 C 180.35868,193.58373 179,197.22857 179,208.95034 L 179,219 l 4.5,0 4.5,0 0,4 0,4 -14,0 -14,0 0,-4 z m 38,0 0,-4 4.5,0 4.5,0 0,-24.4425 0,-24.4425 -4.25,-0.3075 c -4.12537,-0.29848 -4.2591,-0.41747 -4.56037,-4.0575 l -0.31036,-3.75 9.06036,0 9.06037,0 0,28.5 0,28.5 3.5,0 c 3.41667,0 3.5,0.0952 3.5,4 l 0,4 -12.5,0 -12.5,0 0,-4 z m -78,-86.31354 c -4.85322,-1.53828 -12.27515,-9.24292 -13.77768,-14.30248 C 98.821864,97.463865 127.04828,79.560161 145.75243,97.310472 149.26626,100.64511 153,109.26241 153,114.03751 l 0,2.96249 -19,0 c -10.45,0 -19,0.24293 -19,0.53984 0,2.17797 4.66607,8.89555 7.29034,10.49565 5.77012,3.51823 15.61757,2.0566 20.75474,-3.08057 l 2.22038,-2.22038 3.97666,1.92601 3.97665,1.926 -2.63285,3.12897 c -4.45313,5.29224 -11.81983,8.30125 -20.03226,8.18239 -3.87951,-0.0562 -8.62866,-0.6013 -10.55366,-1.21145 z m 23,-27.73612 c 0,-0.57731 -0.69685,-2.39721 -1.54855,-4.04422 -2.23113,-4.31454 -7.02902,-6.897936 -12.8191,-6.902382 -4.32331,-0.0033 -5.3018,0.430416 -8.75,3.878612 -2.13529,2.1353 -3.88235,4.8353 -3.88235,6 0,2.05229 0.41667,2.11765 13.5,2.11765 8.75913,0 13.5,-0.36862 13.5,-1.04966 z m 86.44419,27.16353 c -5.25272,-2.38586 -10.87486,-9.00876 -12.46317,-14.68168 -2.61747,-9.34865 1.03402,-21.458457 7.95677,-26.387891 13.95351,-9.935776 33.12381,-3.959859 37.69055,11.749191 3.64637,12.54307 -1.96057,25.08686 -13.34622,29.85805 -4.66015,1.95285 -14.96998,1.67342 -19.83793,-0.53767 z m 18.95996,-10.16385 c 6.30761,-5.53816 7.25555,-14.77419 2.19702,-21.40626 C 242.48011,93.896495 226,100.26411 226,114.04921 c 0,9.04584 5.60579,14.94023 14.2152,14.94705 3.83337,0.003 5.36487,-0.56667 8.18895,-3.04624 z M 36.192502,132.75 c 0.288625,-3.98915 0.506973,-4.26923 3.557498,-4.56336 L 43,127.87328 43,103.93664 43,80 39.5,80 C 36.083333,80 36,79.904762 36,76 l 0,-4 12.5,0 12.5,0 0,4 c 0,3.904762 -0.08333,4 -3.5,4 l -3.5,0 0,9 0,9 14,0 14,0 0,-9 0,-9 -4,0 c -4,0 -4,0 -4,-4 l 0,-4 12.5,0 12.5,0 0,4 c 0,3.904762 -0.08333,4 -3.5,4 l -3.5,0 0,24 0,24 3.5,0 c 3.481481,0 3.5,0.0238 3.5,4.5 l 0,4.5 -12.5,0 -12.5,0 0,-4.5 0,-4.5 4,0 4,0 0,-10.5 0,-10.5 -14,0 -14,0 0,10.5 0,10.5 3.5,0 c 3.481481,0 3.5,0.0238 3.5,4.5 l 0,4.5 -12.557498,0 -12.557498,0 0.307498,-4.25 z M 159,133 c 0,-4 0,-4 4,-4 l 4,0 0,-24.5 0,-24.5 -4,0 c -4,0 -4,0 -4,-4 l 0,-4 8.5,0 8.5,0 0,28.5 0,28.5 3.5,0 c 3.41667,0 3.5,0.0952 3.5,4 l 0,4 -12,0 -12,0 0,-4 z m 28,0 c 0,-4 0,-4 4,-4 l 4,0 0,-24.5 0,-24.5 -4,0 c -4,0 -4,0 -4,-4 l 0,-4 8.5,0 8.5,0 0,28.5 0,28.5 3.5,0 c 3.41667,0 3.5,0.0952 3.5,4 l 0,4 -12,0 -12,0 0,-4 z"
       id="path2995"
       inkscape:connector-curvature="0" />
    <path
       style="fill:#424242"
       d="M 40.67169,227.2778 C 40.39016,226.82228 37.39699,216.78592 34.020201,204.97479 30.643412,193.16365 26.988398,180.4625 25.897947,176.75 L 23.91531,170 19.957655,170 C 16.007058,170 16,169.99287 16,166 l 0,-4 12.5,0 12.5,0 0,4 c 0,3.97715 -0.0221,4 -3.867421,4 l -3.86742,0 6.019656,21.01443 c 3.31081,11.55794 6.151211,20.88288 6.312001,20.72209 C 45.907701,211.42563 57,171.29374 57,170.47984 57,170.21593 55.425,170 53.5,170 50.083333,170 50,169.90476 50,166 l 0,-4 14.5,0 14.5,0 0,4 c 0,3.90476 -0.08333,4 -3.5,4 -1.925,0 -3.485029,0.3375 -3.46673,0.75 0.0183,0.4125 2.658304,9.975 5.866679,21.25 l 5.833409,20.5 1.591295,-5.5 c 0.875212,-3.025 3.573728,-12.475 5.996703,-21 l 4.405407,-15.5 -3.863381,-0.3075 C 88.084157,169.8917 88,169.79912 88,165.9425 L 88,162 l 12,0 12,0 0,4 c 0,3.97978 -0.0196,4 -3.88225,4 l -3.88225,0 -7.257516,25.75 c -3.991632,14.1625 -7.672266,27.23603 -8.179188,29.05228 -0.890305,3.18989 -1.078131,3.292 -5.518465,3 L 78.683541,227.5 71.413447,202 c -4.851071,-17.01523 -7.490895,-24.83453 -7.933689,-23.5 -0.364978,1.1 -3.662717,12.575 -7.328309,25.5 l -6.664714,23.5 -4.151586,0.30301 c -2.283373,0.16666 -4.38193,-0.0697 -4.663459,-0.52521 z m 81.56719,-0.56087 c -5.54573,-2.09936 -10.3468,-6.71098 -12.98422,-12.47185 -7.89415,-17.24311 6.18112,-36.50625 24.65077,-33.73655 12.66174,1.89874 20.33434,11.02344 20.34129,24.19106 0.003,5.03146 -0.55842,7.19831 -2.9778,11.5 -4.2202,7.50359 -10.31818,11.16591 -19.14957,11.50083 -3.64064,0.13806 -8.08685,-0.3045 -9.88047,-0.98349 z m 16.03236,-9.56055 C 141.64877,215.19087 145,208.59789 145,203.91867 145,196.50487 138.08466,189 131.25325,189 122.75691,189 117,195.02528 117,203.91769 c 0,12.85825 10.59441,19.45194 21.27124,13.23869 z M 245.5,227.06493 C 234.77686,224.4544 228.63343,216.41784 228.63278,205 c -6.6e-4,-11.75715 6.11257,-20.70727 16.13358,-23.62046 6.6291,-1.92713 11.58495,-1.17679 17.65569,2.67316 l 4.57795,2.90325 0,-8.47797 0,-8.47798 -4.5,0 -4.5,0 0,-4 0,-4 9,0 9,0 0,28.5 0,28.5 4,0 c 4,0 4,0 4,4 l 0,4 -8.5,0 -8.5,0 0,-3 c 0,-3.5044 -0.98265,-3.78164 -3.50902,-0.99004 -1.78651,1.97408 -10.34021,5.08883 -13.42248,4.88768 -0.86268,-0.0563 -2.9185,-0.43102 -4.5685,-0.83271 z m 14.41342,-9.84622 c 4.22091,-3.14583 6.51515,-8.04145 6.51515,-13.90251 0,-11.47486 -11.62516,-18.44815 -21.26338,-12.75471 -9.79225,5.78442 -9.01825,23.42724 1.23107,28.06138 3.90507,1.76564 10.132,1.11879 13.51716,-1.40416 z M 160,223 l 0,-4 4.5,0 4.5,0 0,-15 0,-15 -4.5,0 c -4.47619,0 -4.5,-0.0185 -4.5,-3.5 l 0,-3.5 8.5,0 8.5,0 0.0266,4.25 0.0266,4.25 1.56597,-2.5 c 2.74694,-4.38537 6.41803,-6.37507 12.58537,-6.82118 l 5.79544,-0.4192 0,4.5 0,4.5 -5.9863,0.43301 C 181.04368,190.91379 178,196.02568 178,212.04922 l 0,6.95078 5,0 5,0 0,4 0,4 -14,0 -14,0 0,-4 z m 39,0 c 0,-4 0,-4 4,-4 l 4,0 0,-24.5 0,-24.5 -4,0 c -4,0 -4,0 -4,-4 l 0,-4 8.5,0 8.5,0 0,28.5 0,28.5 3.5,0 c 3.41667,0 3.5,0.0952 3.5,4 l 0,4 -12,0 -12,0 0,-4 z m -77.00647,-85.93434 c -9.7019,-2.95118 -15.47683,-9.90733 -16.68353,-20.09601 -1.51125,-12.76014 7.36641,-24.260812 20.40315,-26.431486 10.61643,-1.767682 22.56367,5.920171 25.72063,16.550796 2.84738,9.58818 4.1804,8.91104 -17.54219,8.91104 l -19.10841,0 0.67613,2.75 c 1.90456,7.74631 7.44872,11.50428 16.24306,11.00993 5.15308,-0.28967 6.85792,-0.87546 10.07731,-3.46263 l 3.87493,-3.11398 3.87746,1.71073 3.87746,1.71073 -4.24132,4.11606 c -2.33272,2.26384 -6.33003,4.82776 -8.8829,5.69761 -4.82434,1.64382 -13.95357,1.96683 -18.29178,0.64721 z m 20.85987,-30.05635 c -2.09477,-6.00906 -10.838,-10.734505 -16.7332,-9.043782 -5.02712,1.441757 -7.0707,3.017112 -9.11693,7.028072 C 115.90147,107.1533 115,109.16325 115,109.46016 115,109.75707 121.50159,110 129.44798,110 l 14.44798,0 -1.04256,-2.99069 z m 88.38548,29.65582 c -14.93612,-5.41689 -20.0777,-26.08961 -9.42223,-37.88394 5.27039,-5.833698 10.42486,-8.141617 18.18335,-8.141617 19.76681,0 30.71787,22.025687 18.99627,38.206877 -5.57028,7.68955 -18.25864,11.2636 -27.75739,7.81868 z m 16.14802,-9.51422 c 6.07445,-3.47375 8.39749,-13.09312 4.86155,-20.13098 C 246.9114,96.397197 232.97319,96.498413 227.40499,107.20034 226.63224,108.68553 226,111.97037 226,114.5 c 0,12.19685 10.903,18.64626 21.3869,12.65091 z M 36,133.06037 c 0,-3.83063 0.103763,-3.94823 3.75,-4.25 L 43.5,128.5 43.767779,104.25 44.035557,80 40.017779,80 36,80 l 0,-4 0,-4 12.5,0 12.5,0 0,4 0,4 -4.037526,0 -4.037526,0 0.287526,9.25 L 53.5,98.5 67.75,98.777457 82,99.054913 82,89.527457 82,80 78,80 c -4,0 -4,0 -4,-4 l 0,-4 12.5,0 12.5,0 0,4 c 0,3.904762 -0.08333,4 -3.5,4 l -3.5,0 0,24.5 0,24.5 3.5,0 c 3.416667,0 3.5,0.0952 3.5,4 l 0,4 -12.5,0 -12.5,0 0,-4 c 0,-4 0,-4 4,-4 l 4,0 0,-11 0,-11 -14.533832,0 -14.533831,0 0.283831,10.75 0.283832,10.75 3.75,0.31037 c 3.646237,0.30177 3.75,0.41937 3.75,4.25 L 61,137 48.5,137 36,137 36,133.06037 z M 159,133 c 0,-4 0,-4 4,-4 l 4,0 0,-24.5 0,-24.5 -4,0 c -4,0 -4,0 -4,-4 l 0,-4 8.5,0 8.5,0 0,28.5 0,28.5 3.5,0 c 3.41667,0 3.5,0.0952 3.5,4 l 0,4 -12,0 -12,0 0,-4 z m 28,0 c 0,-4 0,-4 4,-4 l 4,0 0,-24.5 0,-24.5 -4,0 c -4,0 -4,0 -4,-4 l 0,-4 8.5,0 8.5,0 0,28.5 0,28.5 3.5,0 c 3.41667,0 3.5,0.0952 3.5,4 l 0,4 -12,0 -12,0 0,-4 z"
       id="path2993"
       inkscape:connector-curvature="0" />
    <path
       style="fill:#282828"
       d="m 121,225.91597 c -5.57907,-2.52931 -8.63359,-5.32189 -11.11601,-10.16277 -4.06054,-7.91831 -3.35963,-18.47076 1.71812,-25.86687 7.66969,-11.17147 28.09014,-12.15734 36.8408,-1.77863 4.15285,4.92548 5.55709,9.00999 5.55709,16.16384 0,17.71361 -17.03099,28.88409 -33,21.64443 z M 136.96412,217.75 c 13.45735,-6.90058 8.73961,-28.75 -6.20771,-28.75 -15.70113,0 -19.80854,23.12061 -5.25641,29.58836 4.24802,1.88804 6.46305,1.72606 11.46412,-0.83836 z m -102.890789,-13 c -3.471299,-12.2375 -7.175956,-25.0625 -8.232572,-28.5 L 23.91964,170 19.95982,170 C 16.006697,170 16,169.99324 16,166 l 0,-4 12.5,0 12.5,0 0,3.9425 c 0,3.85546 -0.08516,3.94929 -3.857263,4.25 l -3.857264,0.3075 4.870232,17 c 2.678627,9.35 5.343972,18.73292 5.922988,20.85094 0.579016,2.11802 1.26159,3.64211 1.51683,3.38687 C 46.071607,211.26173 56.950935,172.10117 56.982487,170.75 56.992119,170.3375 55.425,170 53.5,170 50.083333,170 50,169.90476 50,166 l 0,-4 14.5,0 14.5,0 0,4 c 0,3.90476 -0.08333,4 -3.5,4 -1.925,0 -3.5,0.28855 -3.5,0.64122 0,1.82833 11.413847,41.27827 11.824125,40.86799 0.265321,-0.26532 3.05551,-9.60093 6.20042,-20.74581 L 95.742564,170.5 91.871282,170.1925 C 88.08286,169.89159 88,169.80062 88,165.9425 L 88,162 l 12,0 12,0 0,4 c 0,3.98858 -0.0112,4 -3.93261,4 -2.87727,0 -4.0745,0.46963 -4.46132,1.75 -0.29078,0.9625 -3.04581,10.75 -6.122268,21.75 -3.076462,11 -6.49495,23.06109 -7.596642,26.80242 l -2.003075,6.80243 -4.690971,-0.30243 L 78.502143,226.5 71.565057,201.75 c -3.815397,-13.6125 -7.190879,-24.74616 -7.501071,-24.74147 -0.310193,0.005 -3.684943,11.2547 -7.499446,25 L 49.629081,227 l -4.622149,0 -4.622148,0 -6.311453,-22.25 z M 161,223.0575 c 0,-3.92334 0.0207,-3.944 4.25,-4.25 l 4.25,-0.3075 0,-14.5 0,-14.5 -4.25,-0.3075 c -4.11741,-0.2979 -4.25,-0.4149 -4.25,-3.75 l 0,-3.4425 7.5,0 7.5,0 0,4.72784 0,4.72785 3.09,-3.74871 C 183.07797,182.86888 186.80079,181 192.45034,181 l 4.54966,0 0,4.37981 0,4.37981 -5.9863,0.43301 c -10.13071,0.73279 -12.99778,5.26377 -13.00812,20.55737 L 178,219 l 5,0 5,0 0,4 0,4 -13.5,0 -13.5,0 0,-3.9425 z M 199,223 l 0,-4 4.01747,0 4.01747,0 -0.26747,-24.75 -0.26747,-24.75 -3.75,-0.31037 c -3.54636,-0.29351 -3.75,-0.49715 -3.75,-3.75 L 199,162 l 8.5,0 8.5,0 0,28.5 0,28.5 3.5,0 c 3.41667,0 3.5,0.0952 3.5,4 l 0,4 -12,0 -12,0 0,-4 z m 43.02988,2.9387 c -4.6712,-1.96125 -9.25085,-6.21374 -11.11676,-10.32261 -2.51712,-5.54287 -2.53436,-16.66607 -0.0343,-22.11609 3.94994,-8.61061 10.30941,-12.5 20.43856,-12.5 5.41338,0 7.0493,0.44903 10.78212,2.95952 l 4.40048,2.95952 0.29497,-7.62113 c 0.16224,-4.19162 0.0639,-8.2234 -0.21861,-8.95952 C 266.26492,169.5268 264.476,169 262.03138,169 258.09075,169 258,168.92121 258,165.5 l 0,-3.5 8.48443,0 8.48442,0 0.26558,28.25 0.26557,28.25 4.25,0.3075 c 4.22934,0.306 4.25,0.32666 4.25,4.25 l 0,3.9425 -8.5,0 -8.5,0 0,-3 c 0,-1.65 -0.25502,-3 -0.56672,-3 -0.3117,0 -2.18238,1.23232 -4.15708,2.7385 -3.02106,2.30427 -4.71504,2.77804 -10.68328,2.9879 -3.90111,0.13717 -8.20447,-0.2173 -9.56304,-0.7877 z m 15.90066,-7.40278 c 10.05797,-5.20118 11.91079,-19.07799 3.52979,-26.43661 -4.9043,-4.30603 -9.33165,-4.87916 -15.13412,-1.95914 -6.29874,3.16975 -8.57392,7.43218 -8.07244,15.12327 0.43367,6.65109 2.66528,10.35792 7.81731,12.98501 4.18462,2.13378 8.1053,2.22882 11.85946,0.28747 z M 120.70696,136.52771 c -5.84133,-2.23736 -9.44518,-5.22487 -12.41419,-10.29111 -2.25236,-3.84336 -2.71746,-5.83426 -2.72971,-11.68465 -0.0171,-8.17955 2.19789,-13.37885 7.79226,-18.290772 4.74325,-4.164632 9.55476,-5.548457 17.69289,-5.088611 5.64072,0.318729 7.63152,0.923779 11.15869,3.39139 4.88105,3.414782 9.2135,10.728613 10.18038,17.186043 l 0.63636,4.25 -19.01182,0 c -20.79565,0 -20.64945,-0.0482 -17.60683,5.79966 4.892,9.40228 17.10503,11.42923 25.6885,4.26343 3.19288,-2.66553 3.40996,-2.70444 7.06908,-1.2671 l 3.77504,1.48288 -1.89521,2.66158 c -1.04236,1.46387 -4.2606,3.94899 -7.15163,5.52249 -6.36804,3.46592 -17.04341,4.41668 -23.18381,2.06477 z M 144,109.14788 c 0,-1.57822 -4.47737,-7.44722 -7.24606,-9.49824 -1.85811,-1.376474 -4.28325,-2.03353 -7.5,-2.032013 -6.76877,0.0032 -11.60764,3.587933 -13.6772,10.132373 l -0.71152,2.25 14.56739,0 C 137.44468,110 144,109.61655 144,109.14788 z m 87.55782,27.42134 c -5.65211,-2.10142 -8.64754,-4.60188 -12.03004,-10.04213 -2.58276,-4.154 -2.96834,-5.7138 -2.94256,-11.90374 0.032,-7.69328 1.59449,-11.91483 6.27894,-16.964933 C 227.2089,92.974539 232.13994,91 239.49228,91 c 14.98124,0 23.44938,8.476663 23.47637,23.5 0.0163,9.06994 -3.63481,16.04797 -10.50267,20.07281 -5.62526,3.29662 -15.00272,4.19203 -20.90816,1.99641 z m 16.46362,-9.58449 c 5.4187,-3.85845 7.70778,-13.76055 4.57357,-19.78439 C 249.638,101.51705 246.33227,99.5 239.97498,99.5 c -5.29962,0 -6.19722,0.323066 -9.32774,3.35729 -6.10566,5.91784 -6.71904,14.96783 -1.467,21.64471 4.43975,5.64424 12.84571,6.7519 18.8412,2.48273 z M 37,133 c 0,-3.90476 0.08333,-4 3.5,-4 l 3.5,0 0,-24.5 0,-24.5 -3.5,0 C 37.083333,80 37,79.904762 37,76 l 0,-4 12,0 12,0 0,4 c 0,4 0,4 -4,4 l -4,0 0,9.5 0,9.5 14.5,0 14.5,0 0,-9.5 0,-9.5 -4,0 c -4,0 -4,0 -4,-4 l 0,-4 12.5,0 12.5,0 0,4 0,4 -4.017779,0 -4.017778,0 0.267778,24.25 0.267779,24.25 3.75,0.31037 c 3.646237,0.30177 3.75,0.41937 3.75,4.25 L 99,137 l -12.5,0 -12.5,0 0,-4 0,-4 4.032751,0 4.032751,0 L 81.782751,117.75 81.5,106.5 l -14,0 -14,0 -0.282751,11.25 -0.282751,11.25 4.032751,0 4.032751,0 0,4 0,4 -12,0 -12,0 0,-4 z m 122,0 c 0,-4 0,-4 4,-4 l 4,0 0,-25 0,-25 -4,0 c -3.90476,0 -4,-0.08333 -4,-3.5 l 0,-3.5 8.5,0 8.5,0 0,28.5 0,28.5 3.5,0 c 3.41667,0 3.5,0.0952 3.5,4 l 0,4 -12,0 -12,0 0,-4 z m 28,0 0,-4 4.01747,0 4.01747,0 -0.26747,-24.75 L 194.5,79.5 190.75,79.189635 c -3.54636,-0.293511 -3.75,-0.497154 -3.75,-3.75 L 187,72 l 8.5,0 8.5,0 0,28.5 0,28.5 3.5,0 c 3.41667,0 3.5,0.0952 3.5,4 l 0,4 -12,0 -12,0 0,-4 z"
       id="path2991"
       inkscape:connector-curvature="0" />
    <path
       style="fill:#000000"
       d="M 122.74797,226.57325 C 112.95975,223.08018 107.50055,214.97352 107.54666,204 c 0.0319,-7.59451 2.41141,-12.99998 7.80866,-17.73882 4.74325,-4.16463 9.55476,-5.54846 17.69289,-5.08861 5.61207,0.31711 7.64944,0.93129 11.15869,3.36387 8.75677,6.07011 12.43761,20.04468 7.90697,30.01937 -4.78659,10.53819 -18.16708,16.0139 -29.3659,12.01744 z m 16.31834,-9.62047 c 11.25798,-8.01639 5.62578,-27.95986 -7.89304,-27.94904 -6.37124,0.005 -10.78407,2.86217 -13.33794,8.63563 -6.31547,14.27716 8.88487,28.10462 21.23098,19.31341 z M 32.446168,198.74165 24.392336,170.5 20.196168,170.1925 C 16.029502,169.88717 16,169.85729 16,165.9425 L 16,162 l 12.5,0 12.5,0 0,4 0,4 -4.106989,0 c -2.872882,0 -3.963904,0.37561 -3.630818,1.25 0.261894,0.6875 2.836471,9.575 5.721283,19.75 2.884812,10.175 5.59032,19.13621 6.01224,19.91381 0.513991,0.94727 1.282294,-0.37265 2.328329,-4 C 51.088966,193.85812 57,171.92043 57,171.00333 57,170.4515 55.425,170 53.5,170 50.083333,170 50,169.90476 50,166 l 0,-4 14.5,0 14.5,0 0,4 c 0,3.90476 -0.08333,4 -3.5,4 -1.925,0 -3.5,0.4323 -3.5,0.96067 0,2.71103 11.404537,41.02132 12.008363,40.33867 C 84.39724,210.8597 87.095568,201.95 90.004646,191.5 92.913724,181.05 95.500901,171.9375 95.753928,171.25 96.074775,170.37823 94.971273,170 92.106989,170 L 88,170 l 0,-4 0,-4 12,0 12,0 0,4 c 0,3.98682 -0.0129,4 -3.92245,4 -4.61571,0 -3.26702,-3.2188 -12.570083,30 -3.619699,12.925 -6.827327,24.31062 -7.128062,25.30137 -0.442244,1.45695 -1.425148,1.74375 -5.140707,1.5 L 78.644782,226.5 71.435354,201 c -6.036316,-21.35066 -7.361505,-25.0932 -8.144026,-23 -0.514029,1.375 -3.827362,12.9601 -7.362963,25.74467 L 49.5,226.98933 l -4.5,-0.003 -4.5,-0.003 -8.053832,-28.24165 z M 161,223 l 0,-4 4.5,0 4.5,0 0,-15 0,-15 -4.5,0 c -4.47619,0 -4.5,-0.0185 -4.5,-3.5 l 0,-3.5 7.5,0 7.5,0 0.003,4.75 0.003,4.75 3.74729,-4.23402 C 183.92361,182.55333 187.22374,181 193.0651,181 l 3.9349,0 0,4.5 0,4.5 -5.42327,0 c -10.02949,0 -13.56078,5.39927 -13.57115,20.75 L 178,219 l 5,0 5,0 0,4 0,4 -13.5,0 -13.5,0 0,-4 z m 38,0 c 0,-4 0,-4 4,-4 l 4,0 0,-25 0,-25 -4,0 c -3.90476,0 -4,-0.0833 -4,-3.5 l 0,-3.5 8.5,0 8.5,0 0,28.5 0,28.5 3.5,0 c 3.41667,0 3.5,0.0952 3.5,4 l 0,4 -12,0 -12,0 0,-4 z m 40.90728,1.67323 c -2.424,-1.27973 -5.7556,-4.24109 -7.40354,-6.58082 -2.58074,-3.6641 -3.04487,-5.32458 -3.34682,-11.97362 -0.51391,-11.31654 3.39223,-18.80749 12.13215,-23.26626 5.94054,-3.03064 16.06533,-2.34507 21.00456,1.42227 1.96511,1.49886 3.82795,2.7252 4.13965,2.7252 0.3117,0 0.56672,-4.05 0.56672,-9 l 0,-9 -4.5,0 c -4.47619,0 -4.5,-0.0185 -4.5,-3.5 l 0,-3.5 8.5,0 8.5,0 0,28.5 0,28.5 4.5,0 4.5,0 0,4 0,4 -8.5,0 -8.5,0 0,-3 c 0,-2.95461 -1.28261,-3.96978 -2.50883,-1.98571 -0.34478,0.55786 -2.37841,1.90786 -4.51918,3 -5.55643,2.83468 -14.33188,2.68551 -20.06471,-0.34106 z m 19.0834,-6.52857 c 4.1689,-2.2358 8.01819,-9.00776 7.98736,-14.05194 -0.0121,-1.976 -0.89877,-5.52464 -1.97043,-7.88587 -1.54579,-3.40592 -2.91328,-4.71993 -6.61704,-6.35828 -10.69269,-4.72988 -20.39607,2.23624 -20.38683,14.63583 0.009,11.82136 11.03441,18.99786 20.98694,13.66026 z M 122.03654,136.88565 C 107.8225,132.56224 101.16827,116.39129 108.05139,102.89926 111.96251,95.232837 119.50765,91 129.26212,91 c 5.35748,0 7.15753,0.497733 11.75358,3.25 4.33547,2.59622 5.97145,4.356398 8.1326,8.75 1.48795,3.025 2.98368,7.1875 3.32385,9.25 l 0.61848,3.75 -19.04532,0 c -21.31563,0 -20.94486,-0.1521 -16.95105,6.95392 2.85606,5.08167 7.21463,7.48218 13.43169,7.39757 5.36582,-0.073 9.8314,-1.8789 12.82445,-5.18618 1.75913,-1.94382 2.0052,-1.96338 5.24764,-0.41717 1.87108,0.89226 3.40196,1.90066 3.40196,2.24091 0,1.20691 -6.55216,6.81337 -9.99203,8.54983 -4.1504,2.09515 -15.08643,2.83262 -19.97143,1.34677 z M 144,109.14788 c 0,-1.53906 -4.44703,-7.42477 -7.08658,-9.379169 -7.44286,-5.510942 -18.71618,-1.30616 -21.3984,7.981289 l -0.6498,2.25 14.56739,0 C 137.44468,110 144,109.61655 144,109.14788 z m 87.74797,27.42537 c -9.77963,-3.49001 -15.17755,-11.53808 -15.13407,-22.56427 0.0301,-7.62722 2.39826,-13.05645 7.74142,-17.747802 4.72442,-4.148103 9.56056,-5.548129 17.59651,-5.094058 8.04957,0.454842 13.47974,3.505697 17.76482,9.9809 3.50016,5.2891 4.38477,15.67944 1.89087,22.20962 -4.31318,11.29391 -18.12043,17.40489 -29.85955,13.21561 z m 15.83787,-9.03754 c 4.74058,-3.10615 6.56077,-7.36157 6.16321,-14.409 -0.33835,-5.99764 -0.60451,-6.6018 -4.51557,-10.25 -3.62997,-3.386006 -4.76218,-3.876237 -8.94476,-3.872972 -10.36159,0.0081 -16.9671,8.960922 -14.22776,19.283732 2.64065,9.95091 13.39831,14.57298 21.52488,9.24824 z M 37,133 c 0,-3.90476 0.08333,-4 3.5,-4 l 3.5,0 0,-24.5 0,-24.5 -3.5,0 C 37.083333,80 37,79.904762 37,76 l 0,-4 12,0 12,0 0,4 c 0,4 0,4 -4,4 l -4,0 0,9.5 0,9.5 14.5,0 14.5,0 0,-9.5 0,-9.5 -4,0 c -4,0 -4,0 -4,-4 l 0,-4 12.5,0 12.5,0 0,4 c 0,4 0,4 -4,4 l -4,0 0,24.5 0,24.5 4,0 c 4,0 4,0 4,4 l 0,4 -12.5,0 -12.5,0 0,-4 c 0,-4 0,-4 4,-4 l 4,0 0,-11.5 0,-11.5 -14.5,0 -14.5,0 0,11.5 0,11.5 4,0 c 4,0 4,0 4,4 l 0,4 -12,0 -12,0 0,-4 z m 122,0 c 0,-4 0,-4 4,-4 l 4,0 0,-25 0,-25 -4,0 c -3.90476,0 -4,-0.08333 -4,-3.5 l 0,-3.5 8.5,0 8.5,0 0,28.5 0,28.5 3.5,0 c 3.41667,0 3.5,0.0952 3.5,4 l 0,4 -12,0 -12,0 0,-4 z m 28,0 c 0,-4 0,-4 4,-4 l 4,0 0,-25 0,-25 -4,0 c -3.90476,0 -4,-0.08333 -4,-3.5 l 0,-3.5 8.5,0 8.5,0 0,28.5 0,28.5 3.5,0 c 3.41667,0 3.5,0.0952 3.5,4 l 0,4 -12,0 -12,0 0,-4 z"
       id="path2989"
       inkscape:connector-curvature="0" />
  </g>
</svg>
