<svg xmlns="http://www.w3.org/2000/svg" width="256" height="256"><path d="M102.209 202.151c-15.99-5.162-21.036-26.176-9.265-38.582 6.691-7.053 17.664-8.884 27.048-4.515 13.333 6.208 17.042 24.543 7.274 35.955-6.105 7.133-16.185 10.006-25.057 7.142zm12.905-9.513c4.434-1.852 7.147-6.518 7.151-12.3.009-10.533-8.246-17.016-17.136-13.459-8.835 3.535-11.427 14.912-5.11 22.42 4.05 4.813 8.965 5.9 15.095 3.34zM21.24 196.64c-.977-3.283-4.544-15.747-7.926-27.697l-6.15-21.728-3.582-.004L0 147.208v-8.598h23.88v4.298c0 4.28-.014 4.299-3.36 4.299-3.012 0-3.305.223-2.815 2.149.3 1.182 2.783 9.948 5.516 19.48l4.968 17.33 5.348-19.48 5.347-19.48h-7.362v-8.596h29.612v8.598h-7.359l5.331 19.045c2.932 10.475 5.458 18.918 5.614 18.762.321-.322 10.743-36.497 10.743-37.292 0-.283-1.505-.515-3.344-.515-3.325 0-3.343-.023-3.343-4.299v-4.298h22.925v4.24c0 4.196-.037 4.244-3.516 4.538l-3.517.296-7.707 27.461-7.707 27.462-4.89.001-4.89.002-6.557-23.371c-3.607-12.854-6.833-23.063-7.17-22.687-.336.377-3.056 9.496-6.044 20.267-8.002 28.843-6.579 25.79-12.03 25.79h-4.657l-1.776-5.97zm193.208 3.709c-5.617-2.638-7.335-4.394-9.957-10.174-2.202-4.855-2.573-12.599-.875-18.267 1.481-4.944 6.964-11.18 11.734-13.347 6.769-3.074 16.749-1.844 21.75 2.682 1.625 1.47 1.706 1.174 1.706-6.246v-7.79h-7.642v-8.596h17.194v54.447H256v8.597h-17.194v-2.536c0-2.374-.109-2.438-1.707-.991-5.335 4.828-15.068 5.783-22.651 2.22zm17.854-8.007c5.954-3.474 8.33-13.58 4.759-20.24-3.349-6.243-11.957-8.576-18.015-4.882-9 5.487-8.277 21.99 1.133 25.882 3.271 1.353 9.13.986 12.123-.76zm-94.75 5.015v-4.299h8.598v-26.746h-8.598v-8.597h16.239v7.708l2.944-3.353c3.033-3.455 7.564-5.295 13.056-5.305 3.077-.006 3.105.035 3.105 4.638v4.643l-4.897.58c-9.543 1.13-12.298 5.213-12.298 18.23v8.098l4.538.29 4.537.292.294 4.06.294 4.06h-27.812v-4.3zm36.299 0v-4.299h7.642v-45.85h-7.642v-8.598h17.194v54.447h3.343c3.326 0 3.343.023 3.343 4.299v4.298h-23.88v-4.298zm-72.288-81.08c-6.648-2.173-10.74-5.302-13.712-10.485-2.356-4.108-2.82-5.974-2.827-11.391-.005-3.563.582-7.893 1.304-9.622 5.312-12.712 21.825-17.902 33.665-10.582 6.01 3.715 9.85 9.883 10.584 16.997l.556 5.387h-17.805c-17.499 0-17.806.035-17.806 2.023 0 3.096 6.63 9.163 10.886 9.961 4.527.85 10.056-.735 13.924-3.99 3.106-2.613 5.537-2.609 9.1.017 1.871 1.378 1.841 1.481-1.432 4.938-1.839 1.942-5.13 4.338-7.314 5.326-5.33 2.41-14.106 3.062-19.123 1.422zm19.75-28.22c0-1.543-4.903-6.777-7.708-8.227-5.838-3.02-13.613-.585-16.603 5.198-.814 1.574-1.48 3.097-1.48 3.386 0 .289 5.803.525 12.896.525 7.246 0 12.895-.386 12.895-.882zm85.227 28.188c-9.756-3.173-15.51-11.533-15.474-22.479.026-7.881 2.205-12.865 7.667-17.54 11.567-9.902 29.562-6.195 35.888 7.392 7.09 15.224-2.33 31.897-18.909 33.473-3.066.291-6.707-.045-9.172-.846zm13.832-10.073c4.021-2.453 6.348-7.093 6.368-12.7.049-14.205-18.728-18.632-24.423-5.757-5.602 12.664 6.785 25.328 18.055 18.457zm-201.268 5.215c0-4.276.018-4.299 3.344-4.299h3.343V61.237h-3.343c-3.33 0-3.344-.018-3.344-4.327v-4.327l12.18.268 12.179.267.293 4.06.294 4.06H36.3V78.43h25.79V61.237h-3.344c-3.329 0-3.343-.018-3.343-4.327v-4.327l12.18.268 12.178.267.294 4.06.294 4.06h-7.752v45.85h7.642v8.597H55.403v-4.298c0-4.276.018-4.299 3.343-4.299h3.344v-20.06H36.299v20.06h7.641v8.597H19.104v-4.298zm116.538.477v-3.82h8.597V61.236h-8.707l.294-4.06.293-4.059h17.194l.254 27.463.253 27.462h3.329c3.247 0 3.329.095 3.329 3.821v3.821h-24.836v-3.82zm26.746 0c0-3.82 0-3.82 3.821-3.82h3.82V61.236h-7.75l.294-4.06.294-4.059h17.194l.253 27.463.254 27.462h2.85c2.69 0 2.852.217 2.852 3.821v3.821h-23.88v-3.82z" fill="#d6d6d6"/><path d="M103.12 202.266c-12.963-3.497-20.026-18.78-14.747-31.91 4.68-11.644 20.012-16.996 31.824-11.11 18.339 9.139 15.854 37.003-3.82 42.846-5.81 1.725-7.425 1.746-13.257.174zm12.552-9.732c4.259-2.202 6.589-6.691 6.593-12.701.005-6.478-2.101-10.117-7.316-12.641-9.177-4.443-18.552 2.26-18.431 13.179.113 10.262 10.31 16.737 19.154 12.163zm-95.908-1.625a4287.253 4287.253 0 0 1-7.959-27.701l-4.536-16H0v-8.598h23.88v8.598h-3.454c-2.826 0-3.372.304-3.002 1.671 4.15 15.313 10.76 37.48 10.979 36.822.158-.474 2.568-9.221 5.357-19.439l5.07-18.577-3.706-.296-3.706-.296.291-4.003.291-4.002h28.657l.29 4.002.292 4.003-3.713.296-3.713.296 5.255 18.864c2.89 10.374 5.477 18.641 5.748 18.37.504-.504 10.624-35.696 10.639-36.995.004-.394-1.497-.716-3.336-.716-3.325 0-3.343-.023-3.343-4.299v-4.298h22.925v8.597l-3.582.012-3.582.013-7.641 27.45-7.642 27.45-4.835.282-4.834.283-6.548-23.447c-3.601-12.895-6.8-23.444-7.106-23.44-.45.004-5.918 18.812-12.567 43.217-.956 3.509-1.07 3.583-5.577 3.583h-4.6l-3.423-11.702zm195.639 9.952c-4.725-2.241-8.35-5.587-10.64-9.82-2.633-4.867-2.443-17.205.346-22.46 2.362-4.45 6.903-8.625 11.457-10.533 6.075-2.546 15.875-1.02 20.533 3.195 1.626 1.47 1.707 1.174 1.707-6.246v-7.79h-7.642v-8.671l8.358.276 8.359.276.253 26.985.254 26.985H256v8.597h-8.597c-8.546 0-8.597-.014-8.597-2.401v-2.402l-3.932 2.602c-5.2 3.441-13.863 4.067-19.471 1.407zm17.27-8.649c8.415-5.13 8.126-20.934-.464-25.376-3.903-2.019-9.496-1.852-13.178.393-8.358 5.096-8.6 20.09-.406 25.176 3.423 2.125 10.405 2.03 14.048-.193zm-94.937 5.384c.292-4.04.314-4.061 4.354-4.354l4.06-.294v-26.636h-8.599v-8.597h16.24v7.9l2.074-2.637c2.616-3.325 8.789-6.17 13.448-6.197l3.583-.021v9.285l-5.137.53c-9.698 1-12.058 4.472-12.058 17.74v8.639l4.538.29 4.537.292.294 4.06.294 4.06h-27.921l.293-4.06zm36.299 0c.285-3.941.398-4.069 3.875-4.357l3.583-.296v-45.735h-7.752l.294-4.06.293-4.06 8.359-.276 8.358-.276v54.522h3.343c3.326 0 3.343.023 3.343 4.299v4.298h-23.99l.294-4.06zm-71.14-81.043c-5.036-1.186-8.303-3.047-11.862-6.756-4.195-4.374-6.018-9.24-6.018-16.062 0-15.946 14.148-26.24 30.09-21.893 7.83 2.136 15.76 13.076 15.76 21.745v2.994h-17.671c-19.674 0-19.697.01-15.838 6.338 4.085 6.699 16.044 7.82 22.544 2.113 3.054-2.68 3.516-2.805 6.633-1.776 1.843.608 3.646 1.583 4.006 2.166 1.237 2.001-7.725 8.903-13.758 10.596-6.156 1.727-8.448 1.816-13.887.535zm18.418-28.183c0-1.878-3.688-6.228-6.73-7.938-4.448-2.5-9.08-2.546-13.044-.129-2.567 1.565-6.017 6.216-6.017 8.11 0 .29 5.803.526 12.896.526 7.092 0 12.895-.256 12.895-.57zm87.403 28.332c-13.483-3.282-20.751-16.783-16.563-30.764 3.965-13.232 21.581-19.338 33.87-11.741 12.556 7.763 14.618 25.158 4.249 35.85-5.958 6.143-13.763 8.553-21.556 6.655zm11.65-10.527c4.556-2.778 6.435-6.266 6.406-11.888-.034-6.744-2.394-10.808-7.614-13.117-5.551-2.456-10.048-1.635-14.29 2.607-5.584 5.584-5.448 15.303.288 20.646 1.433 1.335 3.25 2.661 4.038 2.948 3.1 1.128 8.268.575 11.172-1.196zm-201.262 5.212c0-4.276.018-4.299 3.344-4.299h3.343V61.237h-6.796l.293-4.06.294-4.059h23.88l.294 4.06.294 4.06H36.3V78.43h25.79V61.237h-3.344c-3.329 0-3.343-.018-3.343-4.327v-4.327l12.18.268 12.178.267.294 4.06.294 4.06h-7.752v45.735l3.582.296c3.477.288 3.59.416 3.876 4.356l.294 4.06H55.403v-4.298c0-4.276.018-4.299 3.343-4.299h3.344v-20.06H36.299v19.945l3.582.296c3.477.288 3.59.416 3.875 4.356l.294 4.06H19.104v-4.298zm116.538.477v-3.82h8.597V61.346l-4.06-.293c-4.05-.294-4.06-.303-4.06-4.115v-3.821h17.194l.254 27.463.253 27.462h3.329c3.247 0 3.329.095 3.329 3.821v3.821h-24.836v-3.82zm26.746 0c0-3.82 0-3.82 3.821-3.82h3.82V61.352l-3.581-.297c-3.493-.289-3.582-.391-3.582-4.117v-3.821h17.194l.253 27.463.254 27.462h2.85c2.69 0 2.852.217 2.852 3.821v3.821h-23.88v-3.82z" fill="#bdbdbd"/><path d="M15.284 174.91l-7.915-27.702H3.685c-3.662 0-3.685-.024-3.685-3.821v-3.821h23.88v3.82c0 3.73-.079 3.822-3.343 3.822-1.838 0-3.343.314-3.343.698 0 1.172 10.77 38.523 11.028 38.247.132-.143 2.49-8.426 5.24-18.408 2.75-9.982 5.205-18.687 5.454-19.343.316-.835-.727-1.194-3.47-1.194h-3.924v-7.642h29.612v3.766c0 3.684-.08 3.772-3.693 4.06l-3.694.293 5.336 19.294c2.934 10.611 5.48 19.148 5.657 18.972.425-.425 10.723-36.83 10.723-37.908 0-.46-1.505-.835-3.344-.835-3.263 0-3.343-.091-3.343-3.821v-3.821h22.925v3.82c0 3.779-.04 3.822-3.582 3.823h-3.582l-7.708 27.462-7.708 27.462-4.713.28-4.712.28-6.677-23.88c-3.672-13.135-6.942-23.578-7.266-23.206-.324.371-3.504 11.1-7.066 23.84l-6.476 23.164h-9.013l-7.914-27.702zm82.19 24.658c-7.057-4.287-10.549-10.756-10.549-19.545 0-9.583 3.954-16.491 11.822-20.656 5.083-2.69 16.69-2.945 21.271-.467 8.185 4.428 12.257 11.557 12.226 21.4-.019 5.884-.414 7.456-2.872 11.433-1.567 2.535-4.703 5.912-6.969 7.505-3.634 2.555-5.035 2.93-11.917 3.195-7.396.285-8.07.137-13.012-2.865zm19.16-7.74c8.975-6.04 7.851-20.593-1.93-25.004-11.678-5.265-22.49 7.888-16.631 20.233 3.217 6.779 12.163 9.079 18.562 4.772zm100.821 9.802c-20.128-6.033-19.624-37.394.706-43.914 5.104-1.637 12.472-.606 16.975 2.374l3.67 2.428v-15.31h-3.82c-3.822 0-3.822 0-3.822-3.821v-3.821h17.194v54.448h3.821c3.821 0 3.821 0 3.821 3.82v3.821h-8.597c-8.594 0-8.597 0-8.597-2.453v-2.453l-2.627 1.83c-5.41 3.767-12.487 4.92-18.724 3.05zm16.294-10.046c5.004-3.279 6.751-14.362 3.185-20.21-5.791-9.499-20.543-7.355-23.782 3.455-1.546 5.16-1.372 7.496.911 12.213 3.649 7.537 12.13 9.494 19.686 4.542zm-96.197 6.25v-3.82h8.598v-27.701h-8.598v-8.599h16.239l.03 4.06.03 4.06 1.98-2.654c2.793-3.744 6.649-5.466 12.241-5.466h4.824v8.598h-3.852c-2.118 0-5.358.63-7.199 1.399-4.718 1.971-6.144 5.96-6.144 17.197v9.106h8.598v7.641h-26.747v-3.82zm36.299.055c0-3.747.02-3.767 4.06-4.06l4.06-.293.255-23.164.256-23.164h-8.631v-7.642h17.194v54.448h3.343c3.264 0 3.343.09 3.343 3.82v3.821h-23.88v-3.766zm-75.124-82.63c-1.652-.72-4.743-2.879-6.87-4.8-10.61-9.586-8.657-28.418 3.744-36.085 14.461-8.94 32.935.291 34.97 17.475l.556 4.69-18.235.26-18.234.26 1.785 3.985c2.035 4.543 5.02 6.843 9.91 7.637 5.18.84 9.88-.428 13.561-3.66 3.13-2.75 3.527-2.855 6.427-1.711 4.898 1.93 5.125 2.564 2.083 5.803-4.701 5.004-11.252 7.513-19.528 7.48-3.94-.015-8.516-.616-10.169-1.334zm22.586-26.446c0-2.432-4.071-7.417-7.314-8.956-5.444-2.584-11.426-1.505-15.34 2.765-1.725 1.883-3.137 4.29-3.137 5.348 0 1.834.606 1.924 12.896 1.924 8.962 0 12.895-.33 12.895-1.081zm82.627 26.045c-11.586-5.277-16.295-19.82-10.268-31.718 7.982-15.76 31.07-16.452 40.035-1.2 2.335 3.972 2.708 5.603 2.689 11.775-.017 5.494-.509 8.083-2.108 11.104-2.354 4.447-6.894 8.624-11.451 10.533-4.432 1.857-14.301 1.6-18.897-.494zm19.204-10.889c9.702-10.586-.077-28.048-13.27-23.694-5.718 1.887-9.277 7.268-9.277 14.027 0 4.246 1.974 8.045 5.892 11.342 2.742 2.307 3.69 2.554 8.31 2.171 4.495-.373 5.65-.905 8.345-3.846zm-204.04 7.418c0-4.276.018-4.299 3.344-4.299h3.343V61.237h-3.343c-3.264 0-3.344-.09-3.344-3.82v-3.821h23.881v3.82c0 3.73-.08 3.821-3.343 3.821h-3.343v17.194h26.746V61.237h-3.821c-3.821 0-3.821 0-3.821-3.82v-3.821h23.88v3.82c0 3.73-.079 3.821-3.343 3.821h-3.343v45.851h3.343c3.326 0 3.344.023 3.344 4.299v4.298H55.403v-8.597h7.642v-20.06H36.299v20.06h3.343c3.325 0 3.343.023 3.343 4.299v4.298h-23.88v-4.298zm117.493.477c0-3.82 0-3.82 3.82-3.82h3.822V61.236h-3.821c-3.821 0-3.821 0-3.821-3.82v-3.821h16.239v54.447h3.343c3.264 0 3.343.091 3.343 3.821v3.821h-22.925v-3.82zm26.746 0c0-3.82 0-3.82 3.821-3.82h3.821V61.236h-3.82c-3.822 0-3.822 0-3.822-3.82v-3.821h16.24v54.447h3.342c3.264 0 3.344.091 3.344 3.821v3.821h-22.926v-3.82z" fill="#999"/><path d="M18.762 186.61c-2.495-8.8-6.076-21.265-7.959-27.7l-3.422-11.702H3.69c-3.67 0-3.691-.023-3.691-3.821v-3.821h23.88v3.82c0 3.73-.079 3.822-3.343 3.822-1.838 0-3.343.457-3.343 1.015 0 .783 6.515 24.205 10.166 36.55.284.958.704 1.555.934 1.325.23-.23 2.57-8.322 5.2-17.983 2.629-9.66 5.01-18.316 5.29-19.236.427-1.401-.119-1.671-3.376-1.671h-3.886v-7.642h29.612v7.642H57.21c-2.733 0-3.791.362-3.49 1.194.239.656 2.733 9.48 5.542 19.609 2.81 10.129 5.409 17.866 5.776 17.194.827-1.51 10.424-35.548 10.424-36.968 0-.566-1.505-1.03-3.344-1.03-3.263 0-3.343-.09-3.343-3.82v-3.821h22.926v3.82c0 3.791-.029 3.822-3.646 3.822h-3.647l-7.693 27.462-7.694 27.463H59.71l-6.647-23.642c-3.657-13.003-6.883-23.638-7.17-23.633-.286.004-3.501 10.75-7.145 23.88l-6.625 23.873h-8.825l-4.536-16zm81.059 14.186c-11.764-5.459-16.364-19.652-10.269-31.686 10.004-19.75 39.42-14.33 42.75 7.878 1.511 10.077-5.379 21.74-14.443 24.448-5.7 1.703-13.59 1.423-18.038-.64zm18.65-10.402c8.774-8.774 4.01-23.522-7.991-24.74-7.6-.77-13.992 5.767-13.999 14.317-.007 8.792 5.115 14.032 13.72 14.039 4.111.003 5.07-.416 8.27-3.616zm98.947 11.089c-2.182-.609-5.592-2.858-8.256-5.447-3.766-3.66-4.748-5.363-5.772-10.007-2.499-11.34 2.029-21.853 11.474-26.642 7.422-3.764 14.57-3.293 21.315 1.405l2.627 1.83v-15.415h-3.82c-3.822 0-3.822 0-3.822-3.821v-3.821h17.194v54.448h3.821c3.821 0 3.821 0 3.821 3.82v3.821h-8.597c-8.571 0-8.597-.007-8.597-2.428v-2.428l-4.2 2.461c-4.841 2.837-11.77 3.733-17.188 2.223zm15.463-9.07c3.771-2.351 5.918-6.968 5.918-12.728 0-9.121-4.987-14.328-13.723-14.328-10.03 0-15.863 11.31-11.166 21.654 3.213 7.077 12.186 9.632 18.971 5.401zm-95.329 5.421v-3.82h8.598v-27.592l-4.06-.294c-4.05-.293-4.06-.302-4.06-4.114v-3.821h15.284l.493 3.82c.476 3.694.534 3.748 1.733 1.621 2.054-3.645 6.783-5.911 12.342-5.915l5.015-.004v8.597h-3.852c-2.118 0-5.314.611-7.1 1.358-4.945 2.065-6.243 5.547-6.243 16.744v9.6h8.598v7.641h-26.747v-3.82zm36.299 0v-3.82h8.597v-46.697l-4.06-.293c-3.94-.285-4.068-.4-4.356-3.876l-.297-3.582h17.31v54.448h3.343c3.264 0 3.343.09 3.343 3.82v3.821h-23.88v-3.82zm-74.508-82.448c-4.636-1.47-11.725-8.83-13.16-13.662-7.07-23.805 19.893-40.907 37.76-23.951 3.356 3.185 6.923 11.417 6.923 15.978v2.83h-18.15c-9.982 0-18.149.232-18.149.515 0 2.08 4.457 8.498 6.964 10.026 5.512 3.36 14.918 1.965 19.825-2.943l2.121-2.12 3.8 1.84 3.798 1.839-2.515 2.989c-4.254 5.055-11.29 7.93-19.136 7.816-3.705-.054-8.242-.574-10.08-1.157zm21.97-26.495c0-.551-.665-2.29-1.479-3.863-2.131-4.121-6.714-6.589-12.245-6.593-4.13-.003-5.064.411-8.358 3.705-2.04 2.04-3.709 4.619-3.709 5.731 0 1.96.398 2.023 12.896 2.023 8.367 0 12.895-.352 12.895-1.003zm82.574 25.948c-5.018-2.28-10.388-8.606-11.905-14.025-2.5-8.93.988-20.497 7.6-25.206 13.33-9.49 31.641-3.782 36.003 11.223 3.483 11.982-1.873 23.964-12.748 28.521-4.452 1.866-14.3 1.599-18.95-.513zm18.111-9.709c6.025-5.29 6.93-14.113 2.099-20.448-7.758-10.17-23.5-4.088-23.5 9.08 0 8.64 5.355 14.271 13.579 14.278 3.661.003 5.124-.541 7.822-2.91zm-202.71 6.495c.276-3.81.485-4.078 3.399-4.359l3.104-.299v-45.73h-3.343c-3.264 0-3.344-.09-3.344-3.82v-3.821h23.881v3.82c0 3.73-.08 3.821-3.343 3.821h-3.343v17.194h26.746V61.237h-3.821c-3.821 0-3.821 0-3.821-3.82v-3.821h23.88v3.82c0 3.73-.079 3.821-3.343 3.821h-3.343v45.851h3.343c3.326 0 3.344.023 3.344 4.299v4.298H55.403v-8.597h7.642v-20.06H36.299v20.06h3.343c3.325 0 3.343.023 3.343 4.299v4.298h-23.99l.293-4.06zm117.309.24c0-3.822 0-3.822 3.82-3.822h3.822V61.237h-3.821c-3.821 0-3.821 0-3.821-3.82v-3.821h16.239v54.447h3.343c3.264 0 3.343.091 3.343 3.821v3.821h-22.925v-3.82zm26.746 0c0-3.822 0-3.822 3.821-3.822h3.821V61.237h-3.82c-3.822 0-3.822 0-3.822-3.82v-3.821h16.24v54.447h3.342c3.264 0 3.344.091 3.344 3.821v3.821h-22.926v-3.82z" fill="#777"/><path d="M23.567 201.92c-.269-.434-3.128-10.021-6.354-21.304-3.225-11.282-6.717-23.414-7.758-26.96l-1.894-6.448H3.78c-3.774 0-3.78-.008-3.78-3.821v-3.821h23.88v3.82c0 3.8-.02 3.822-3.694 3.822h-3.694l5.75 20.073c3.163 11.04 5.876 19.948 6.03 19.794.297-.297 10.892-38.632 10.892-39.41 0-.251-1.504-.457-3.343-.457-3.264 0-3.343-.091-3.343-3.821v-3.821h27.701v3.82c0 3.73-.08 3.822-3.343 3.822-1.839 0-3.33.322-3.312.716.018.394 2.54 9.528 5.604 20.299l5.573 19.582 1.52-5.254c.836-2.89 3.413-11.917 5.728-20.06l4.208-14.806-3.69-.294c-3.61-.287-3.69-.375-3.69-4.06v-3.765H91.7v3.82c0 3.802-.018 3.822-3.708 3.822h-3.708l-6.933 24.597a30664.426 30664.426 0 0 0-7.813 27.751c-.85 3.047-1.03 3.145-5.271 2.866l-4.391-.289-6.945-24.358c-4.634-16.254-7.155-23.723-7.578-22.448-.349 1.05-3.499 12.012-7 24.358l-6.367 22.448-3.965.29c-2.181.159-4.186-.067-4.455-.502zm77.915-.535c-5.297-2.005-9.884-6.41-12.403-11.913-7.54-16.471 5.904-34.872 23.547-32.226 12.095 1.813 19.424 10.53 19.43 23.107.003 4.807-.533 6.876-2.844 10.986-4.031 7.167-9.856 10.665-18.292 10.985-3.478.132-7.725-.29-9.438-.94zm15.314-9.133c3.227-1.877 6.428-8.175 6.428-12.644 0-7.082-6.606-14.251-13.131-14.251-8.116 0-13.615 5.755-13.615 14.25 0 12.282 10.12 18.58 20.318 12.645zm102.428 9.465c-10.243-2.493-16.111-10.17-16.112-21.077 0-11.23 5.839-19.78 15.411-22.562 6.332-1.841 11.066-1.125 16.865 2.553l4.373 2.773v-16.196h-8.597v-7.642h17.194v54.448h3.821c3.821 0 3.821 0 3.821 3.82v3.821h-16.239v-2.865c0-3.348-.938-3.613-3.352-.946-1.706 1.886-9.877 4.86-12.821 4.669-.824-.054-2.788-.412-4.364-.796zm13.768-9.405c4.032-3.005 6.223-7.681 6.223-13.28 0-10.961-11.104-17.622-20.31-12.184-9.355 5.526-8.615 22.379 1.175 26.805 3.73 1.687 9.678 1.069 12.912-1.341zm-95.44 5.522v-3.82h8.598v-28.657h-4.298c-4.276 0-4.299-.018-4.299-3.343v-3.344h16.238l.025 4.06.026 4.06 1.496-2.388c2.624-4.19 6.13-6.09 12.022-6.516l5.536-.4v8.596l-5.719.414c-9.523.689-12.43 5.572-12.43 20.878v6.64h9.552v7.641h-26.747v-3.82zm37.254 0c0-3.82 0-3.82 3.82-3.82h3.822v-46.806h-3.821c-3.821 0-3.821 0-3.821-3.821v-3.821h16.239v54.448h3.343c3.264 0 3.343.09 3.343 3.82v3.821h-22.925v-3.82zm-73.558-82.086c-9.268-2.82-14.784-9.464-15.937-19.196-1.444-12.19 7.037-23.175 19.49-25.248 10.14-1.689 21.553 5.655 24.569 15.81 2.72 9.158 3.993 8.511-16.757 8.511H94.36l.646 2.627c1.82 7.4 7.115 10.99 15.516 10.517 4.922-.276 6.55-.836 9.626-3.307l3.701-2.975 3.704 1.634 3.704 1.634-4.052 3.932c-2.228 2.163-6.046 4.612-8.485 5.443-4.608 1.57-13.328 1.878-17.472.618zm19.925-28.71c-2-5.74-10.352-10.254-15.984-8.64-4.802 1.378-6.754 2.883-8.708 6.714-1.053 2.063-1.914 3.983-1.914 4.266 0 .284 6.21.516 13.801.516h13.801l-.996-2.857zm84.428 28.327c-14.267-5.174-19.178-24.921-9-36.187 5.034-5.573 9.958-7.777 17.37-7.777 18.88 0 29.342 21.04 18.145 36.496-5.321 7.345-17.441 10.759-26.515 7.468zm15.425-9.088c5.803-3.318 8.022-12.507 4.644-19.23-5.098-10.147-18.412-10.05-23.73.173-.74 1.419-1.343 4.556-1.343 6.973 0 11.65 10.415 17.811 20.43 12.084zm-201.922 5.645c0-3.66.1-3.771 3.583-4.06l3.582-.296.255-23.164.256-23.165h-7.676v-7.641h23.881v7.641h-7.713l.274 8.836.275 8.836 13.612.265 13.612.265V61.237h-3.821c-3.821 0-3.821 0-3.821-3.82v-3.821h23.88v3.82c0 3.73-.079 3.821-3.343 3.821h-3.343v46.806h3.343c3.264 0 3.344.091 3.344 3.821v3.821H55.403v-3.82c0-3.822 0-3.822 3.82-3.822h3.822V87.028H35.279l.27 10.27.272 10.268 3.582.296c3.483.289 3.582.4 3.582 4.06v3.763h-23.88v-3.763zm117.493-.058c0-3.82 0-3.82 3.82-3.82h3.822V61.236h-3.821c-3.821 0-3.821 0-3.821-3.82v-3.821h16.239v54.447h3.343c3.264 0 3.343.091 3.343 3.821v3.821h-22.925v-3.82zm26.746 0c0-3.82 0-3.82 3.821-3.82h3.821V61.236h-3.82c-3.822 0-3.822 0-3.822-3.82v-3.821h16.24v54.447h3.342c3.264 0 3.344.091 3.344 3.821v3.821h-22.926v-3.82z" fill="#424242"/><path d="M100.299 200.62c-5.33-2.416-8.248-5.084-10.619-9.708-3.878-7.564-3.209-17.644 1.641-24.709 7.327-10.67 26.833-11.613 35.192-1.699 3.967 4.705 5.308 8.607 5.308 15.44 0 16.921-16.269 27.591-31.522 20.676zm15.249-7.8c12.855-6.592 8.348-27.463-5.93-27.463-14.998 0-18.922 22.085-5.021 28.263 4.058 1.804 6.174 1.65 10.95-.8zm-98.284-12.418c-3.316-11.69-6.855-23.94-7.864-27.224l-1.835-5.97H3.783C.006 147.208 0 147.2 0 143.387v-3.821h23.88v3.766c0 3.683-.08 3.772-3.684 4.06l-3.685.293 4.653 16.239c2.558 8.931 5.104 17.894 5.657 19.917.554 2.023 1.206 3.48 1.45 3.236.454-.455 10.846-37.862 10.876-39.153.01-.394-1.487-.716-3.326-.716-3.264 0-3.343-.091-3.343-3.821v-3.821h27.701v3.82c0 3.73-.08 3.822-3.343 3.822-1.839 0-3.343.275-3.343.612 0 1.747 10.902 39.43 11.294 39.038.254-.253 2.919-9.17 5.923-19.817l5.462-19.356-3.698-.294c-3.619-.287-3.698-.374-3.698-4.06v-3.765h22.925v3.82c0 3.81-.01 3.822-3.756 3.822-2.748 0-3.892.448-4.262 1.671-.277.92-2.909 10.269-5.848 20.776-2.938 10.508-6.204 22.029-7.256 25.603l-1.914 6.497-4.48-.288-4.481-.29-6.627-23.641c-3.644-13.003-6.869-23.638-7.165-23.634-.296.005-3.52 10.751-7.164 23.88l-6.625 23.873h-8.83l-6.029-21.253zm121.243 17.487c0-3.747.02-3.767 4.06-4.06l4.06-.293v-27.702l-4.06-.293c-3.933-.285-4.06-.397-4.06-3.582v-3.289h14.329v9.033l2.951-3.581c3.81-4.622 7.366-6.407 12.763-6.407h4.346v8.367l-5.719.414c-9.677.7-12.416 5.028-12.425 19.637l-.006 7.88h9.553v7.642h-25.792v-3.766zm36.299-.055v-3.82h7.675l-.255-23.642-.256-23.642-3.582-.297c-3.388-.28-3.582-.474-3.582-3.582v-3.285h16.239v54.448h3.343c3.264 0 3.343.09 3.343 3.82v3.821h-22.925v-3.82zm41.103 2.808c-4.462-1.874-8.836-5.936-10.619-9.86-2.404-5.296-2.42-15.92-.033-21.127 3.773-8.225 9.848-11.94 19.524-11.94 5.17 0 6.733.429 10.3 2.827l4.203 2.827.281-7.28c.155-4.004.061-7.855-.208-8.558-.298-.775-2.007-1.279-4.342-1.279-3.764 0-3.85-.075-3.85-3.343v-3.343h16.208l.254 26.985.254 26.985 4.06.294c4.04.292 4.059.312 4.059 4.06v3.765h-16.239v-2.865c0-1.576-.243-2.866-.541-2.866-.298 0-2.085 1.177-3.971 2.616-2.886 2.201-4.504 2.654-10.205 2.854-3.726.131-7.837-.208-9.135-.752zm15.189-7.072c9.607-4.968 11.377-18.224 3.372-25.253-4.685-4.113-8.914-4.66-14.457-1.871-6.017 3.028-8.19 7.1-7.71 14.446.413 6.353 2.545 9.894 7.466 12.404 3.998 2.038 7.743 2.129 11.329.274zm-131.08-78.336c-5.58-2.137-9.022-4.99-11.858-9.83-2.151-3.672-2.596-5.573-2.607-11.162-.017-7.813 2.1-12.78 7.443-17.472 4.531-3.978 9.127-5.3 16.9-4.86 5.389.304 7.29.882 10.66 3.24 4.662 3.261 8.8 10.247 9.724 16.416l.608 4.06h-18.16c-19.865 0-19.725-.047-16.819 5.54 4.673 8.98 16.34 10.917 24.539 4.072 3.05-2.546 3.257-2.583 6.752-1.21l3.606 1.416-1.81 2.543c-.996 1.398-4.07 3.772-6.832 5.275-6.083 3.31-16.28 4.219-22.145 1.972zm22.25-26.154c0-1.507-4.276-7.114-6.921-9.073-1.775-1.315-4.091-1.942-7.164-1.94-6.466.002-11.088 3.426-13.065 9.678l-.68 2.15h13.916c7.653 0 13.915-.367 13.915-.815zm83.638 26.194c-5.4-2.008-8.26-4.396-11.491-9.593-2.468-3.968-2.836-5.458-2.811-11.37.03-7.35 1.523-11.382 5.998-16.206 4.15-4.474 8.86-6.36 15.883-6.36 14.31 0 22.4 8.097 22.425 22.448.016 8.663-3.472 15.33-10.032 19.174-5.373 3.149-14.331 4.004-19.972 1.907zm15.726-9.156c5.176-3.685 7.363-13.144 4.37-18.898-2.825-5.429-5.983-7.356-12.056-7.356-5.062 0-5.92.309-8.91 3.207-5.832 5.653-6.418 14.298-1.401 20.676 4.24 5.391 12.27 6.45 17.997 2.371zM20.06 111.864c0-3.73.08-3.82 3.343-3.82h3.343V61.236h-3.343c-3.264 0-3.343-.09-3.343-3.82v-3.821h22.925v3.82c0 3.821 0 3.821-3.82 3.821h-3.822v18.15h27.701v-18.15h-3.82c-3.821 0-3.821 0-3.821-3.82v-3.821h23.88v7.641h-7.674l.256 23.165.255 23.164 3.582.296c3.483.289 3.583.4 3.583 4.06v3.763H55.403v-7.641h7.704l-.27-10.746-.27-10.746H35.821l-.27 10.746-.27 10.746h7.704v7.642H20.06v-3.82zm116.537 0c0-3.82 0-3.82 3.82-3.82h3.822V60.282h-3.821c-3.73 0-3.821-.08-3.821-3.344v-3.343h16.239v54.447h3.343c3.264 0 3.343.091 3.343 3.821v3.821h-22.925v-3.82zm26.746 0v-3.82h7.675l-.255-23.642-.256-23.642-3.582-.297c-3.387-.28-3.582-.475-3.582-3.582v-3.285h16.24v54.447h3.342c3.264 0 3.344.091 3.344 3.821v3.821h-22.926v-3.82z" fill="#282828"/><path d="M101.968 201.248c-9.35-3.337-14.564-11.08-14.52-21.563.03-7.254 2.303-12.418 7.459-16.944 4.53-3.979 9.127-5.3 16.9-4.861 5.361.303 7.307.89 10.66 3.213 8.364 5.798 11.88 19.147 7.552 28.675-4.572 10.067-17.353 15.297-28.05 11.48zm15.588-9.19c10.754-7.657 5.374-26.708-7.54-26.698-6.086.005-10.3 2.734-12.74 8.25-6.033 13.637 8.487 26.846 20.28 18.448zM15.71 174.662l-7.693-26.977-4.009-.294C.028 147.1 0 147.071 0 143.331v-3.765h23.88v7.642h-3.922c-2.745 0-3.787.358-3.469 1.194.25.656 2.71 9.146 5.465 18.865 2.756 9.72 5.34 18.28 5.743 19.022.491.905 1.225-.356 2.224-3.82 3.597-12.472 9.243-33.427 9.243-34.303 0-.527-1.504-.958-3.343-.958-3.264 0-3.343-.091-3.343-3.821v-3.821h27.701v3.82c0 3.73-.08 3.822-3.343 3.822-1.839 0-3.343.413-3.343.917 0 2.59 10.893 39.185 11.47 38.533.372-.42 2.95-8.931 5.728-18.913 2.779-9.982 5.25-18.687 5.492-19.343.306-.833-.748-1.194-3.484-1.194h-3.923v-7.642h22.925v3.82c0 3.809-.012 3.822-3.746 3.822-4.41 0-3.121-3.075-12.008 28.656-3.457 12.347-6.521 23.222-6.808 24.169-.423 1.391-1.362 1.665-4.911 1.433l-4.388-.288-6.887-24.358c-5.766-20.395-7.032-23.97-7.78-21.97-.49 1.313-3.655 12.38-7.032 24.591L32 201.645l-4.299-.003-4.298-.003-7.693-26.977zm122.797 23.172v-3.82h8.597v-28.657h-4.298c-4.276 0-4.299-.018-4.299-3.343v-3.344h14.329l.003 4.538.003 4.537 3.58-4.045c3.983-4.501 7.135-5.985 12.715-5.985h3.759v8.597h-5.18c-9.581 0-12.954 5.158-12.964 19.821l-.006 7.88h9.553v7.642h-25.792v-3.82zm36.299 0c0-3.82 0-3.82 3.82-3.82h3.822v-47.761h-3.821c-3.73 0-3.821-.08-3.821-3.344v-3.343h16.239v54.448h3.343c3.264 0 3.343.09 3.343 3.82v3.821h-22.925v-3.82zm39.076 1.599c-2.316-1.223-5.498-4.051-7.072-6.286-2.466-3.5-2.909-5.087-3.197-11.438-.491-10.81 3.24-17.965 11.588-22.224 5.675-2.895 15.346-2.24 20.065 1.358 1.877 1.432 3.656 2.603 3.954 2.603.298 0 .541-3.868.541-8.597v-8.597h-4.298c-4.276 0-4.299-.017-4.299-3.343v-3.343h16.239v54.448H256v7.641h-16.239v-2.865c0-2.823-1.225-3.792-2.396-1.897-.33.533-2.272 1.822-4.317 2.866-5.308 2.707-13.69 2.565-19.166-.326zm18.229-6.236c3.982-2.136 7.659-8.605 7.63-13.423-.012-1.888-.86-5.278-1.883-7.533-1.477-3.253-2.783-4.509-6.32-6.074-10.215-4.518-19.484 2.137-19.475 13.98.009 11.293 10.54 18.148 20.048 13.05zm-130.822-77.621c-13.578-4.13-19.934-19.577-13.36-32.465 3.737-7.323 10.944-11.366 20.262-11.366 5.117 0 6.837.475 11.227 3.104 4.141 2.48 5.704 4.162 7.768 8.359 1.422 2.89 2.85 6.865 3.175 8.835l.591 3.582H112.76c-20.361 0-20.007-.145-16.192 6.643 2.728 4.854 6.891 7.147 12.83 7.066 5.125-.07 9.391-1.794 12.25-4.954 1.68-1.856 1.916-1.875 5.013-.398 1.787.852 3.25 1.815 3.25 2.14 0 1.153-6.26 6.509-9.545 8.167-3.965 2.002-14.411 2.706-19.077 1.287zm20.98-26.496c0-1.47-4.248-7.092-6.77-8.959-7.11-5.264-17.878-1.248-20.44 7.624l-.62 2.15h13.915c7.653 0 13.915-.367 13.915-.815zm83.819 26.198c-9.342-3.334-14.498-11.022-14.457-21.554.029-7.286 2.291-12.472 7.395-16.954 4.513-3.962 9.132-5.3 16.809-4.865 7.689.434 12.876 3.348 16.969 9.534 3.343 5.052 4.188 14.977 1.806 21.215-4.12 10.788-17.309 16.625-28.522 12.624zm15.128-8.633c4.529-2.967 6.267-7.032 5.888-13.764-.324-5.73-.578-6.306-4.314-9.791-3.467-3.235-4.549-3.703-8.544-3.7-9.898.008-16.207 8.56-13.59 18.42 2.522 9.506 12.798 13.921 20.56 8.835zm-201.156 5.22c0-3.73.08-3.822 3.343-3.822h3.343V61.237h-3.343c-3.264 0-3.343-.09-3.343-3.82v-3.821h22.925v3.82c0 3.821 0 3.821-3.82 3.821h-3.822v18.15h27.701v-18.15h-3.82c-3.821 0-3.821 0-3.821-3.82v-3.821h23.88v3.82c0 3.821 0 3.821-3.82 3.821h-3.821v46.806h3.82c3.822 0 3.822 0 3.822 3.821v3.821H55.403v-3.82c0-3.822 0-3.822 3.82-3.822h3.822v-21.97H35.344v21.97h3.82c3.821 0 3.821 0 3.821 3.821v3.821H20.06v-3.82zm116.537 0c0-3.822 0-3.822 3.82-3.822h3.822v-47.76h-3.821c-3.73 0-3.821-.08-3.821-3.344v-3.343h16.239v54.447h3.343c3.264 0 3.343.091 3.343 3.821v3.821h-22.925v-3.82zm26.746 0c0-3.822 0-3.822 3.821-3.822h3.821v-47.76h-3.82c-3.73 0-3.822-.08-3.822-3.344v-3.343h16.24v54.447h3.342c3.264 0 3.344.091 3.344 3.821v3.821h-22.926v-3.82z"/></svg>