<svg xmlns="http://www.w3.org/2000/svg" width="380" height="380"><path d="M160.928 375.373C91.062 364.031 34.212 315.767 11.952 248.897c-7.462-22.419-8.423-29.155-8.423-59.05 0-23.893.225-27.532 2.29-37C22.285 77.328 77.478 22.135 153 5.668c9.467-2.065 13.107-2.29 37-2.29s27.533.225 37 2.29c67.429 14.703 119.679 60.95 140.91 124.72 7.61 22.858 8.561 29.464 8.561 59.46 0 23.894-.225 27.534-2.29 37C357.775 302.09 302.277 357.73 227.5 373.902c-12.981 2.807-52.908 3.69-66.572 1.472zm80.855-127.775l-.283-11.25-51.25-.26-51.25-.258v23.018h103.066l-.283-11.25zm-15.799-76.31l36.937-49.94-36.46-.262c-20.054-.145-52.882-.145-72.952 0l-36.49.262 34.74 51.172c27.878 41.064 34.993 50.93 36.014 49.941.7-.677 17.896-23.705 38.211-51.172zm-52.237-7.44l-13.6-20h28.426c15.635 0 28.427.223 28.427.495 0 .625-28.846 39.505-29.31 39.505-.188 0-6.462-9-13.943-20z" fill="#10b1e5"/></svg>