<svg xmlns="http://www.w3.org/2000/svg" width="256" height="256" viewBox="0 0 40.96 40.96" preserveAspectRatio="xMinYMin meet"><path d="M33.092 40.96H7.868a3.906 3.906 0 0 1-3.907-3.906V3.906A3.906 3.906 0 0 1 7.868 0h25.224a3.907 3.907 0 0 1 3.907 3.906v33.148a3.907 3.907 0 0 1-3.907 3.906z" fill="#6262a6"/><path d="M23.94 35.352V19.086s1.058-3.893-13.033 1.592c-.025.07-.025-15.042-.025-15.042l4.604-.028v9.682s12.89-5.077 12.89 3.85v16.212H23.94zm2.623-23.884H21.68c1.758-2.15 3.35-5.832 3.35-5.832h5.048s-.864 2.4-3.514 5.832zM10.965 35.324V26.06l4.632 4.632-4.632 4.63z" fill="#fff"/></svg>