<?xml version="1.0" encoding="UTF-8" standalone="no"?>
<!-- Created with Inkscape (http://www.inkscape.org/) -->

<svg
   xmlns:dc="http://purl.org/dc/elements/1.1/"
   xmlns:cc="http://creativecommons.org/ns#"
   xmlns:rdf="http://www.w3.org/1999/02/22-rdf-syntax-ns#"
   xmlns:svg="http://www.w3.org/2000/svg"
   xmlns="http://www.w3.org/2000/svg"
   xmlns:sodipodi="http://sodipodi.sourceforge.net/DTD/sodipodi-0.dtd"
   xmlns:inkscape="http://www.inkscape.org/namespaces/inkscape"
   id="svg2"
   version="1.1"
   inkscape:version="0.48.5 r10040"
   width="256"
   height="256"
   sodipodi:docname="500x500.png">
  <metadata
     id="metadata8">
    <rdf:RDF>
      <cc:Work
         rdf:about="">
        <dc:format>image/svg+xml</dc:format>
        <dc:type
           rdf:resource="http://purl.org/dc/dcmitype/StillImage" />
        <dc:title></dc:title>
      </cc:Work>
    </rdf:RDF>
  </metadata>
  <defs
     id="defs6" />
  <sodipodi:namedview
     pagecolor="#ffffff"
     bordercolor="#666666"
     borderopacity="1"
     objecttolerance="10"
     gridtolerance="10"
     guidetolerance="10"
     inkscape:pageopacity="0"
     inkscape:pageshadow="2"
     inkscape:window-width="1280"
     inkscape:window-height="683"
     id="namedview4"
     showgrid="false"
     fit-margin-top="0"
     fit-margin-left="0"
     fit-margin-right="0"
     fit-margin-bottom="0"
     inkscape:zoom="0.472"
     inkscape:cx="-28.155342"
     inkscape:cy="493.0418"
     inkscape:window-x="0"
     inkscape:window-y="0"
     inkscape:window-maximized="1"
     inkscape:current-layer="svg2" />
  <g
     id="g3051"
     transform="scale(0.512,0.512)">
    <path
       style="fill:#0098fe"
       d="M 0,250 0,0 l 250,0 250,0 0,250 0,250 -250,0 -250,0 0,-250 z"
       id="path3057"
       inkscape:connector-curvature="0" />
    <path
       style="fill:#ec472f"
       d="m 0,406 0,-94 250,0 250,0 0,94 0,94 -250,0 -250,0 0,-94 z"
       id="path3055"
       inkscape:connector-curvature="0" />
    <path
       style="fill:#323232"
       d="m 313,406.50311 0,-93.49688 -156.75,-0.25625 c -113.46359,-0.18549 -87.643625,-0.32443 93.5,-0.50312 L 500,312 l 0,94 0,94 -93.5,0 -93.5,0 0,-93.49689 z"
       id="path3053"
       inkscape:connector-curvature="0" />
  </g>
</svg>
