<svg width="160.003" height="160.003" clip-rule="evenodd" fill-rule="evenodd" image-rendering="optimizeQuality" shape-rendering="geometricPrecision" text-rendering="geometricPrecision" viewBox="0 0 1667 1667" xmlns="http://www.w3.org/2000/svg"><path fill-rule="nonzero" fill="#1F8DED" d="M1444 916c0 31-25 56-56 56s-56-25-56-56V416c0-31 25-56 56-56s56 25 56 56v500zM0 208v1250c0 115 93 208 208 208h1250c115 0 208-93 208-208V208c0-115-93-208-208-208H208C93 0 0 93 0 208zm1425 1056c-9 7-214 180-592 180-377 0-583-173-592-180-23-20-26-55-6-78s55-26 78-6c3 3 187 153 520 153 337 0 518-152 519-153 23-20 58-17 78 6s17 58-6 78zM222 417c0-31 25-56 56-56s56 25 56 56v500c0 31-25 56-56 56s-56-25-56-56V417zm278-111c0-31 25-56 56-56s56 25 56 56v742c0 31-25 56-56 56s-56-25-56-56V306zm278-28c0-31 25-56 56-56s56 25 56 56v806c0 31-25 56-56 56s-56-25-56-56V278zm278 28c0-31 25-56 56-56s56 25 56 56v742c0 31-25 56-56 56s-56-25-56-56V306z"/></svg>