<svg width="1.6667in" height="1.6667in" clip-rule="evenodd" fill-rule="evenodd" image-rendering="optimizeQuality" shape-rendering="geometricPrecision" text-rendering="geometricPrecision" version="1.1" viewBox="0 0 1667 1667" xml:space="preserve" xmlns="http://www.w3.org/2000/svg"><path fill-rule="nonzero" fill="#1F8DED" d="m1444 916c0 31-25 56-56 56s-56-25-56-56v-500c0-31 25-56 56-56s56 25 56 56v500zm-1444-708v1250c0 115 93 208 208 208h1250c115 0 208-93 208-208v-1250c0-115-93-208-208-208h-1250c-115 0-208 93-208 208zm1425 1056c-9 7-214 180-592 180-377 0-583-173-592-180-23-20-26-55-6-78s55-26 78-6c3 3 187 153 520 153 337 0 518-152 519-153 23-20 58-17 78 6s17 58-6 78zm-1203-847c0-31 25-56 56-56s56 25 56 56v500c0 31-25 56-56 56s-56-25-56-56v-500zm278-111c0-31 25-56 56-56s56 25 56 56v742c0 31-25 56-56 56s-56-25-56-56v-742zm278-28c0-31 25-56 56-56s56 25 56 56v806c0 31-25 56-56 56s-56-25-56-56v-806zm278 28c0-31 25-56 56-56s56 25 56 56v742c0 31-25 56-56 56s-56-25-56-56v-742z"/></svg>
