<svg xmlns="http://www.w3.org/2000/svg" viewBox="0 0 51.282 38.4" version="1"><path d="M36.844 22.806c0-1.669.357-3.208 1.072-4.614.712-1.419 1.709-2.531 2.99-3.337 1.29-.809 2.76-1.215 4.408-1.215.873 0 1.77.108 2.692.317.925.2 1.701.546 2.333 1.038.629.494.943 1.16.943 2.001 0 .672-.199 1.234-.597 1.683-.39.451-.878.677-1.464.677a2.55 2.55 0 0 1-.836-.14c-.263-.094-.53-.196-.803-.3a4.917 4.917 0 0 0-.85-.283 4.777 4.777 0 0 0-1.117-.11c-.82 0-1.513.193-2.08.583a3.495 3.495 0 0 0-1.258 1.542c-.274.64-.41 1.36-.41 2.158 0 .777.136 1.5.41 2.171.272.662.667 1.188 1.18 1.575.524.39 1.145.583 1.857.583a6.98 6.98 0 0 0 2.442-.457c.817-.303 1.306-.456 1.465-.456.376 0 .723.11 1.037.33.317.22.562.51.742.865.188.347.282.705.282 1.073 0 .776-.341 1.432-1.024 1.967-.672.537-1.472.924-2.408 1.166-.935.253-1.778.379-2.536.379-1.247 0-2.392-.231-3.432-.693a7.982 7.982 0 0 1-2.692-1.97 8.917 8.917 0 0 1-1.747-2.959c-.4-1.123-.6-2.316-.6-3.574zm-10.675 6.218V16.585c0-.744.23-1.365.693-1.857.472-.505 1.076-.755 1.81-.755.61 0 1.134.162 1.575.487.451.314.766.688.944 1.118 1.082-1.29 2.243-1.938 3.481-1.938.68 0 1.28.247 1.796.742.524.484.784 1.107.784 1.873 0 .787-.244 1.36-.739 1.717-.484.357-1.284.699-2.408 1.024-1.144.325-1.916.733-2.316 1.228-.398.48-.598 1.354-.598 2.612v6.188c0 .745-.236 1.376-.708 1.89-.462.505-1.065.755-1.81.755-.735 0-1.339-.25-1.811-.755-.462-.514-.693-1.145-.693-1.89zm-7.259 0V16.585c0-.744.231-1.365.693-1.857.472-.505 1.076-.755 1.81-.755.746 0 1.35.25 1.811.755.473.492.71 1.113.71 1.857v12.44c0 .744-.237 1.375-.71 1.889-.461.505-1.065.755-1.81.755-.735 0-1.339-.25-1.811-.755-.462-.514-.693-1.145-.693-1.89zm-.488-19.603c0-.82.294-1.526.882-2.125.588-.6 1.291-.898 2.11-.898.829 0 1.537.296 2.125.882a2.92 2.92 0 0 1 .882 2.141c0 .87-.294 1.596-.882 2.174a2.922 2.922 0 0 1-2.125.866 2.876 2.876 0 0 1-2.11-.882c-.588-.588-.882-1.306-.882-2.158zM2.204 29.2l.567-4.238H1.56c-.535 0-.93-.15-1.181-.456A1.73 1.73 0 0 1 0 23.387c0-.43.126-.79.378-1.086.252-.304.646-.457 1.18-.457h1.638l.52-3.872H2.488c-.525 0-.914-.153-1.165-.457a1.734 1.734 0 0 1-.378-1.118c0-.44.126-.809.378-1.102.251-.306.64-.456 1.165-.456h1.7l.693-5.055c.074-.535.241-.951.504-1.244.273-.293.703-.44 1.291-.44.42 0 .766.12 1.04.362.272.231.408.55.408.96 0 .18-.041.566-.125 1.166l-.583 4.25h2.913l.677-5.054c.074-.535.241-.951.504-1.244.273-.293.703-.44 1.29-.44.42 0 .767.12 1.04.362s.41.562.41.96c0 .18-.043.566-.126 1.166l-.583 4.25h1.228c.546 0 .94.151 1.181.457.252.293.378.662.378 1.102 0 .43-.126.804-.378 1.118-.252.304-.646.457-1.181.457h-1.638l-.519 3.872h1.228c.546 0 .94.148 1.18.44.242.296.363.662.363 1.103 0 .44-.126.814-.378 1.118-.241.306-.63.456-1.165.456h-1.716L11.447 30c-.074.527-.242.935-.504 1.228-.263.295-.693.44-1.291.44-.42 0-.772-.115-1.055-.343-.273-.242-.41-.567-.41-.978 0-.21.048-.592.142-1.148l.583-4.238H5.999L5.322 30c-.074.537-.247.951-.52 1.244-.262.285-.693.425-1.29.425-.41 0-.757-.116-1.04-.344-.273-.242-.41-.567-.41-.978 0-.21.048-.592.142-1.148zm7.18-7.355l.52-3.872H6.975l-.52 3.872h2.93z" fill="#333"/></svg>