<svg xmlns="http://www.w3.org/2000/svg" width="256" height="256"><path d="M217.786 123.36c0 50.72-40.198 91.837-89.785 91.837-49.586 0-89.784-41.117-89.784-91.837 0-50.721 40.198-91.839 89.784-91.839 49.587 0 89.785 41.118 89.785 91.839" fill="#d33833" fill-rule="evenodd"/><path d="M41.875 146.105s-6.5-95.77 81.747-98.507l-6.156-10.262L69.58 53.413 55.899 69.146 43.928 92.063l-6.842 26.68 2.052 17.785" fill="#ef3d3a"/><path d="M66.506 60.71c-15.753 16.119-25.5 38.373-25.5 62.993 0 24.614 9.747 46.871 25.5 62.987 15.76 16.115 37.481 26.059 61.494 26.059 24.013 0 45.735-9.944 61.494-26.06 15.752-16.115 25.502-38.372 25.502-62.986 0-24.62-9.75-46.874-25.502-62.993-15.759-16.112-37.48-26.056-61.494-26.058-24.013.002-45.733 9.946-61.494 26.058zM62.52 190.588c-16.742-17.122-27.092-40.784-27.092-66.885 0-26.106 10.35-49.766 27.092-66.889 16.737-17.126 39.907-27.74 65.48-27.738 25.575-.003 48.747 10.612 65.482 27.738 16.743 17.123 27.094 40.785 27.092 66.889.002 26.1-10.35 49.763-27.092 66.885-16.735 17.125-39.907 27.739-65.481 27.739-25.574 0-48.744-10.614-65.481-27.739" fill="#231f20"/><path d="M165.796 123.869l-13.682 2.052-18.47 2.052-11.972.342-11.63-.342-8.893-2.736-7.867-8.551-6.157-17.444-1.368-3.763-8.208-2.735-4.79-7.868-3.42-11.287 3.764-9.92 8.892-3.078 7.183 3.421 3.42 7.525 4.105-.685 1.368-1.709-1.368-7.867-.342-9.92 2.052-13.681-.08-7.815 6.236-9.97 10.946-7.868 19.155-8.209 21.205 3.079 18.47 13.34 8.552 13.68 5.473 9.92 1.367 24.627-4.104 21.206-7.525 18.812-7.182 9.92" fill="#f0d6b7" fill-rule="evenodd"/><path d="M154.166 183.04l-48.912 2.053v8.209l4.104 28.731-2.052 2.395-34.203-11.63-2.395-4.104-3.42-38.65-7.866-23.259-1.711-5.472L85.073 122.5l8.552-3.421 7.524 9.235 6.499 5.815 7.525 2.394 3.42 1.026 4.105 17.786 3.078 3.762 7.867-2.736-5.473 10.604 29.758 14.023-3.762 2.052" fill="#335061" fill-rule="evenodd"/><path d="M73.103 63.67l8.892-3.079 7.183 3.421 3.42 7.525 4.105-.685 1.026-4.104-2.052-7.866 2.052-18.813-1.71-10.261 6.156-7.183 13.34-10.603-3.763-5.13-18.812 9.235-7.867 6.156-4.446 9.577-6.841 9.235-2.052 10.946 1.369 11.629" fill="#6d6b6d" fill-rule="evenodd"/><path d="M87.125 31.518s5.131-12.655 25.653-18.811c20.523-6.157 1.026-4.448 1.026-4.448l-22.231 8.552-8.552 8.55-3.762 6.842 7.866-.685M76.864 61.276s-7.183-23.944 20.18-27.364l-1.025-4.104-18.812 4.447-5.473 17.786 1.369 11.629 3.761-2.394" fill="#dcd9d8" fill-rule="evenodd"/><path d="M87.81 93.085l4.478-4.34s2.022.236 2.363 2.63c.341 2.395 1.368 23.943 16.075 35.573 1.342 1.061-10.944-1.711-10.944-1.711l-10.946-17.102m61.911-21.548s.797-10.368 3.59-9.57c2.791.797 2.791 3.589 2.791 3.589s-6.78 4.386-6.381 5.98" fill="#f7e4cd" fill-rule="evenodd"/><path d="M179.134 48.62s-5.637 1.19-6.156 6.157c-.52 4.968 6.156 1.026 7.183.685m-42.413-6.499s-7.526 1.026-7.526 5.814c0 4.79 8.552 4.448 10.946 2.395" fill="#f7e4cd"/><path d="M91.23 71.195s-12.998-7.867-14.366-.342c-1.368 7.525-4.447 12.998 2.053 20.865L74.47 90.35l-4.104-10.603-1.368-10.261 7.866-8.21 8.893.684 5.131 4.105.342 5.13m6.157-21.548s5.814-30.1 35.23-35.914c24.218-4.787 36.94 1.026 41.729 6.498 0 0-21.549-25.652-42.071-17.786-20.523 7.868-35.572 22.233-35.23 31.467.582 15.729.342 15.735.342 15.735m79.353-25.996s-9.918-.342-10.26 8.552c0 0-.002 1.368.683 2.735 0 0 7.868-8.893 12.656-4.104" fill="#f7e4cd" fill-rule="evenodd"/><path d="M133.307 35.865s-1.708-13.65-13.346-5.714c-7.525 5.13-6.84 12.313-5.472 13.68 1.368 1.37.996 4.125 2.037 2.234 1.041-1.892.698-8.048 4.461-9.758 3.763-1.71 9.93-3.62 12.32-.442" fill="#f7e4cd" fill-rule="evenodd"/><path d="M101.15 128.315l-32.152 14.366s13.34 53.016 6.498 69.434l-4.788-1.71-.342-20.18-8.892-38.308-3.763-10.604 33.519-22.574 9.92 9.576m3.305 29.324l4.562 5.565v20.522h-5.474s-.683-14.365-.683-16.076c0-1.71.683-7.867.683-7.867m1.027 27.022l-15.392.683 4.447 3.078 10.944 1.71" fill="#49728b" fill-rule="evenodd"/><path d="M157.244 183.384l12.655-.342 3.079 31.468-12.998 1.71-2.736-32.836" fill="#335061" fill-rule="evenodd"/><path d="M160.664 183.384l19.155-1.027s7.866-19.838 7.866-20.864c0-1.026 6.841-28.73 6.841-28.73l-15.392-16.076-3.078-2.737-8.209 8.21v31.809l-7.183 29.415" fill="#335061" fill-rule="evenodd"/><path d="M169.215 180.99l-11.97 2.394 1.709 9.577c4.446 2.053 11.972-3.42 11.972-3.42m-1.368-68.408L193.5 138.92l.685-8.209-18.129-16.76-6.498 7.183" fill="#49728b" fill-rule="evenodd"/><path d="M116.44 250.769l-7.082-28.736-3.522-21.202-.582-15.738 32.05-1.706 19.94-.003-1.813 35.917 3.079 27.705-.342 5.13-25.994 2.053-15.734-3.42" fill="#fff" fill-rule="evenodd"/><path d="M152.797 183.042s-1.71 35.572 3.421 60.882c0 0-10.261 6.5-25.311 8.21l28.731-1.027 3.42-2.052-4.104-56.094-1.026-11.972" fill="#dcd9d8" fill-rule="evenodd"/><path d="M173.56 211.776l13.34-3.762 25.31-1.368 3.763-11.63-6.841-20.18-7.866-1.026-10.946 3.42-10.501 5.127-5.575-1.022-4.345 1.707" fill="#fff" fill-rule="evenodd"/><path d="M173.32 204.932s8.892-4.104 10.26-3.762l-3.761-18.813 4.446-1.709s3.078 17.785 3.078 19.838c0 0 19.154 1.026 20.864 1.026 0 0 4.105-7.867 3.079-16.076l3.763 10.945.341 6.157-5.472 8.209-6.157 1.368-10.26-.342-3.42-4.446-11.973 1.71-3.762 1.368" fill="#dcd9d8" fill-rule="evenodd"/><path d="M159.878 180.651l-7.524-19.154-7.867-11.288s1.71-4.789 4.104-4.789h7.867l7.525 2.737-.684 12.655-3.42 19.84" fill="#fff"/><path d="M161.349 174.149s-9.578-18.47-9.578-21.206c0 0 1.71-4.105 4.104-3.079 2.395 1.027 7.526 3.762 7.526 3.762v-6.498l-11.63-2.395-7.866 1.026 13.34 31.468 2.735.343" fill="#dcd9d8" fill-rule="evenodd"/><path d="M119.518 129.004l-9.475-1.03-8.894-2.737v3.078l4.346 4.792 13.681 6.157" fill="#fff"/><path d="M104.229 130.029s10.604 4.447 14.024 3.42l.34 4.101-9.575-2.048-5.815-4.105 1.026-1.368" fill="#dcd9d8" fill-rule="evenodd"/><path d="M173.524 146.585c-5.804-.17-11.048-.86-15.638-2.155.312-1.882-.272-3.729.197-5.084 1.28-.922 3.424-.907 5.358-1.124-1.673-.822-4.022-1.147-5.952-.672-.046-1.306-.632-2.116-.987-3.138 3.263-1.164 10.967-8.8 15.3-6.271 2.064 1.202 2.942 8.071 3.102 11.411.133 2.77-.252 5.566-1.38 7.033" fill="#d33833" fill-rule="evenodd"/><path d="M173.524 146.585c-5.804-.17-11.048-.86-15.638-2.155.312-1.882-.272-3.729.197-5.084 1.28-.922 3.424-.907 5.358-1.124-1.673-.822-4.022-1.147-5.952-.672-.046-1.306-.632-2.116-.987-3.138 3.263-1.164 10.967-8.8 15.3-6.271 2.064 1.202 2.942 8.071 3.102 11.411.133 2.77-.252 5.566-1.38 7.033z" fill="none" stroke="#d33833" stroke-width="2.052"/><path d="M145.77 137.098c-.015.439-.034.881-.051 1.324-1.812 1.19-4.738 1.176-6.726 2.177 2.931.128 5.24.834 7.236 1.83l-.13 3.317c-3.32 2.274-6.355 5.66-10.266 7.792-1.849 1.009-8.338 3.603-10.306 3.145-1.113-.259-1.213-1.64-1.658-2.942-.948-2.788-3.13-7.226-3.32-11.423-.243-5.3-.778-14.185 4.934-13.093 4.61.88 9.97 3.003 13.537 4.952 2.181 1.193 3.442 2.666 6.75 2.92" fill="#d33833" fill-rule="evenodd"/><path d="M145.77 137.098c-.015.439-.034.881-.051 1.324-1.812 1.19-4.738 1.176-6.726 2.177 2.931.128 5.24.834 7.236 1.83l-.13 3.317c-3.32 2.274-6.355 5.66-10.266 7.792-1.849 1.009-8.338 3.603-10.306 3.145-1.113-.259-1.213-1.64-1.658-2.942-.948-2.788-3.13-7.226-3.32-11.423-.243-5.3-.778-14.185 4.934-13.093 4.61.88 9.97 3.003 13.537 4.952 2.181 1.193 3.442 2.666 6.75 2.92z" fill="none" stroke="#d33833" stroke-width="2.052"/><path d="M149.07 143.423c-.508-2.888-1.094-3.712-.867-6.231 7.701-5.135 9.147 8.82.866 6.23" fill="#d33833" fill-rule="evenodd"/><path d="M149.07 143.423c-.508-2.888-1.094-3.712-.867-6.231 7.701-5.135 9.147 8.82.866 6.23z" fill="none" stroke="#d33833" stroke-width="2.052"/><path d="M160.22 145.763s-2.395-3.421-.684-4.447c1.71-1.026 3.42 0 4.447-1.71 1.026-1.71 0-2.736.342-4.789.341-2.052 2.053-2.394 3.762-2.736 1.71-.342 6.5-1.026 7.183.684l-2.052-6.156-4.105-1.368-12.997 7.524-.685 3.763v7.525m-31.125 12.997c-.41-5.337-.846-10.668-1.33-16-.723-7.964 1.913-6.574 8.816-6.574 1.054 0 6.49 1.257 6.88 2.052 1.865 3.81-3.12 2.963 2.148 5.837 4.447 2.424 12.303-1.473 10.507-6.863-1.006-1.199-5.24-.374-6.757-1.16l-8.017-4.156c-3.4-1.764-11.257-4.336-14.881-1.871-9.185 6.246.58 21.852 3.855 28.368" fill="#ef3d3a" fill-rule="evenodd"/><path d="M133.307 35.865c-9.323-2.171-13.955 3.901-16.78 10.2-2.524-.612-1.52-4.043-.883-5.792 1.669-4.589 8.394-10.697 13.888-9.869 2.365.356 5.564 2.518 3.775 5.461m45.423 10.616c.146.006.295.011.441.018 2.107 4.376 3.93 9.012 6.588 12.875-1.78 4.147-13.481 7.816-13.3.37 2.53-1.105 6.898-.225 9.141-1.638-1.297-3.56-3.168-6.59-2.87-11.625m-40.65.114c1.998 3.664 2.649 7.514 5.49 10.284 1.28 1.247 3.768 2.766 2.535 6.233-.289.818-2.395 2.642-3.611 3-4.442 1.311-14.793.27-11.288-5.267 3.674.171 8.612 2.385 11.358-.281-2.109-3.371-5.868-10.04-4.484-13.969m38.982 37.242c-6.689 4.296-14.146 8.968-25.105 7.885-2.342-2.036-3.235-6.566-.96-9.559 1.184 2.036.44 5.78 3.74 6.344 6.219 1.064 13.456-3.804 17.929-5.505 2.773-4.676-.24-6.396-2.738-9.406-5.115-6.166-11.977-13.808-11.727-23.04 2.067-1.498 2.246 2.29 2.542 2.979 2.671 6.25 9.393 14.245 14.3 19.595 1.204 1.318 3.187 2.582 3.408 3.453.636 2.534-1.655 5.57-1.39 7.254M88.89 79.314c-2.097-1.197-2.596-6.467-5.057-6.617-3.518-.213-2.876 6.837-2.862 10.96-2.421-2.198-2.847-8.965-1.068-12.44-2.027-.996-2.933 1.098-4.057 1.835 1.445-10.497 15.356-4.868 13.043 6.262m92.431 8.894c-3.113 5.926-7.517 12.452-16.653 12.642-.185-1.914-.328-4.826.01-5.978 6.984-.671 11.296-4.226 16.643-6.664m-43.767 3.842c5.826 3.064 16.535 3.393 24.455 3.161.424 1.736.414 3.88.43 5.995-10.18.508-22.216-2.011-24.885-9.156m-1.108 5.713c4.03 10.117 17.878 8.952 29.556 8.673-.514 1.314-1.628 2.865-3.014 3.426-3.742 1.523-14.063 2.679-19.259-.08-3.295-1.752-5.411-5.71-7.217-8.03-.871-1.12-5.212-3.982-.066-3.989" fill="#231f20" fill-rule="evenodd"/><path d="M176.575 153.566c-4.728 8.099-9.252 16.416-14.862 23.56 2.352-6.916 3.359-18.49 3.714-27.313 4.92-2.302 9.133.518 11.148 3.753" fill="#81b0c4" fill-rule="evenodd"/><path d="M202.019 182.673c-5.294 1.06-9.013 6.204-14.178 5.874 2.838-4.001 7.812-5.688 14.178-5.874m2.335 8.284c-4.314.456-9.382 1.155-13.759.795 2.072-3.165 10.054-2.073 13.76-.795m1.495 7.143c-4.85.105-10.877.008-15.487-.378 2.727-2.929 12.341-1.087 15.486.378" fill="#231f20" fill-rule="evenodd"/><path d="M167.451 217.647c.696 6.09 3.11 12.26 2.808 18.93-2.682.905-4.222 1.695-7.814 1.69-.254-5.668-1.012-14.333-.785-19.737 1.767.117 4.372-1.262 5.791-.883" fill="#dcd9d8" fill-rule="evenodd"/><path d="M159.633 127.89c-2.435 1.59-4.509 3.574-6.847 5.271-5.186.257-8.016-.359-11.826-3.337.062-.239.445-.132.46-.425 5.55 2.474 12.607-1.008 18.213-1.509" fill="#f0d6b7" fill-rule="evenodd"/><path d="M130.49 165.731c1.526-6.609 7.502-10.032 12.93-13.672 5.601 7.11 9.008 16.252 12.76 25.075-8.864-2.672-17.92-7.008-25.69-11.403" fill="#81b0c4" fill-rule="evenodd"/><path d="M161.66 218.53c-.227 5.404.531 14.07.785 19.738 3.592.004 5.132-.786 7.814-1.69.302-6.67-2.112-12.841-2.808-18.931-1.419-.38-4.024 1-5.791.883zm-55.938-30.73c2.369 21.776 5.8 40.083 12.093 59.367 13.967 4.241 30.804 4.61 43.149.784-2.267-10.884-1.276-24.135-2.601-35.75-.999-8.73-.49-17.514-1.859-26.42-14.958-3.112-36.102-.728-50.782 2.018zm54.32-1.883c-.127 9.353.418 18.579 1.132 27.943 3.592-.539 6.029-.899 9.366-1.63-1.084-9.015-.95-19.16-3.158-27.135-2.55.025-4.797-.03-7.34.822zm18.218-1.507c-1.704-.391-3.689-.015-5.317.016.765 7.624 2.623 16.037 3.276 24.04 2.562.08 3.931-1.129 6.039-1.535.113-7.025-.614-16.703-3.998-22.521zm27.586 25.204c5.341-1.297 8.7-7.838 7.206-14.556-1.003-4.515-2.788-13.017-4.699-15.905-1.412-2.136-5.24-4.933-8.297-2.976-4.973 3.184-13.733 4.109-17.359 7.963 1.818 6.054 2.383 14.37 3.133 22.04 6.212.388 13.856-1.709 19.022.516-3.607 1.168-8.287 1.178-11.403 2.88 2.547 1.23 8.51.982 12.397.038zm-49.667-32.48c-3.751-8.823-7.158-17.966-12.76-25.075-5.427 3.64-11.403 7.063-12.928 13.672 7.768 4.395 16.825 8.73 25.688 11.403zm9.248-27.32c-.355 8.823-1.362 20.396-3.714 27.312 5.61-7.144 10.134-15.461 14.862-23.56-2.015-3.235-6.228-6.055-11.148-3.753zm-10.483-3.726c-2.125-.228-3.93 2.444-6.693 1.288-.633.7-1.208 1.458-1.854 2.142 6.104 7.355 8.877 17.79 13.591 26.434 2.53-8.303 2.238-17.4 2.795-26.462-3.475.22-5.403-3.143-7.84-3.402zm-6.74-8.896c-.228 2.519.358 3.343.865 6.23 8.281 2.59 6.835-11.365-.866-6.23zm-9.184-3.015c-3.568-1.95-8.928-4.072-13.537-4.952-5.712-1.093-5.177 7.792-4.935 13.093.19 4.197 2.373 8.635 3.321 11.423.445 1.302.545 2.683 1.658 2.942 1.968.458 8.457-2.136 10.306-3.145 3.91-2.132 6.945-5.518 10.267-7.792l.129-3.318c-1.997-.995-4.305-1.701-7.236-1.83 1.988-1 4.914-.985 6.726-2.176.017-.443.036-.885.051-1.324-3.308-.255-4.569-1.728-6.75-2.92zm-34.08-6.19c-2.962 3.006 8.305 7.104 11.893 7.325-.02-1.902 1.084-3.696.862-5.06-4.261-.749-9.86-.255-12.756-2.265zm36.48 1.412c-.015.293-.398.186-.46.425 3.81 2.978 6.64 3.594 11.826 3.337 2.338-1.697 4.412-3.681 6.847-5.27-5.606.5-12.662 3.982-18.213 1.508zm33.484 10.153c-.16-3.34-1.038-10.209-3.102-11.411-4.333-2.53-12.037 5.107-15.3 6.271.355 1.022.941 1.832.987 3.138 1.93-.475 4.28-.15 5.952.672-1.934.217-4.079.202-5.358 1.124-.47 1.355.115 3.202-.197 5.084 4.59 1.295 9.834 1.985 15.638 2.155 1.128-1.467 1.513-4.262 1.38-7.033zm-74.95-8.657c-.93-.663-7.22-8.849-8.083-8.509-11.383 4.49-22.027 12.252-31.539 19.594 9.069 19.46 12.73 43.3 13.377 66.279 10.388 4.858 19.513 11.863 33.61 12.594-1.631-11.541-3.12-21.839-4.046-32.705-3.542-1.493-8.624.068-11.939-.463-.028-3.995 5.063-1.75 5.487-4.436.32-2.031-2.801-2.185-1.785-5.385 2.591.942 3.952 3.023 6.716 3.804 2.525-5.524-.036-15.3.328-19.917.07-.867.433-4.803 2.375-4.112 1.719.61-.098 10.468.09 14.838.172 4.026-.486 7.922 1.145 10.45a389.258 389.258 0 0 1 42.203-3.457c-3.242-1.391-7.094-2.708-11.318-5.089-2.289-1.29-9.506-3.976-10.167-6.15-1.054-3.465 2.766-5.311 3.42-8.282-6.877 3.75-8.218-3.594-9.845-8.798-1.474-4.713-2.313-8.233-2.674-10.952-5.923-2.823-12.257-5.683-17.355-9.304zm68.934-7.519c9.484-4.599 11.194 17.189 7.476 24.207.575 2.094 2.55 2.895 3.357 4.777-5.292 9.481-11.17 18.331-16.571 27.701 4.017-2.5 9.755-.447 14.482-2.319 1.728-.683 2.98-4.64 4.287-7.804 3.599-8.706 7.377-19.683 9.058-27.991.38-1.893 1.414-6.018 1.182-7.703-.414-3.017-4.507-5.254-6.589-7.12-3.835-3.445-6.25-6.477-10.252-9.7-1.622 2.396-5.104 4.005-6.43 5.952zM78.263 39.268c-4.52 4.972-3.573 14.29-3.026 20.918 8.169-5.139 19.011.406 18.909 9.147 3.9-.104 1.457-4.871.751-7.942-2.305-10.032 3.885-20.93.281-30.104-6.996.531-12.744 3.389-16.915 7.98zM110.6 10.407c-10.231 2.9-23.344 10.334-27.548 19.525 3.256-.473 5.516-2.115 8.727-2.318 1.214-.08 2.804.509 4.199.162 2.78-.69 5.126-6.922 7.223-9.241 2.044-2.265 4.5-3.232 6.182-5.297 1.08-.521 2.678-.485 2.74-2.108-.469-.5-.962-.882-1.523-.723zm53.259 2.727c-10.62-5.991-28.594-10.498-39.89-4.866-9.115 4.544-21.436 12.064-25.636 21.592 3.924 9.195-1.163 17.62-1.487 26.956-.173 4.968 2.338 9.304 2.53 14.712-1.342 2.215-5.445 2.488-8.284 2.336-.956-4.784-2.63-10.16-7.556-10.7-6.97-.763-12.067 5.006-12.383 11.035-.375 7.09 5.445 18.84 13.694 18.023 3.186-.315 3.97-3.509 7.441-3.476 1.882 3.754-2.903 4.933-3.395 7.619-.128.693.397 3.404.702 4.676 1.499 6.19 4.839 14.202 8.126 18.915 4.173 5.978 12.37 6.88 21.19 7.465 1.575-3.393 7.378-3.114 11.16-2.226-4.532-1.795-8.745-6.146-12.236-9.997-4.01-4.418-8.073-9.158-8.278-14.933 7.578 10.514 13.84 19.695 27.62 24.32 10.427 3.497 22.605-1.603 30.617-7.229 3.324-2.338 5.309-6.049 7.672-9.445 8.842-12.719 12.968-30.873 12.061-48.469-.373-7.257-.357-14.489-2.792-19.371-2.545-5.105-11.152-9.672-16.19-5.055-.934-4.964 4.19-8.034 10.208-6.248-4.291-5.538-8.795-12.192-14.894-15.634zm19.784 163.735c8.298-4.125 23.803-11.104 29.005.015 1.92 4.099 4.173 11.027 5.167 15.258 1.405 5.968-1.523 18.514-7.658 20.517-5.419 1.769-11.742 1.66-18.269.35-.768-.64-1.624-1.754-2.222-2.915-4.661-.181-9.025.25-12.707 2.166.349 3.446-1.982 4-4.168 4.71-1.62 6.424 3.242 14.813 2.078 20.672-.83 4.173-5.965 4.818-9.739 5.6-.123 2.318.165 4.254.423 6.216-.863 3.18-4.734 4.99-8.401 5.434-12.066 1.45-30.387 2.102-41.993-2.071-3.238-7.944-5.79-17.606-8.487-26.677-11.32 1.209-20.474-4.884-29.105-8.876-2.988-1.385-7.122-2.148-8.238-4.527-1.082-2.303-.64-6.716-.908-10.885-.683-10.648-1.269-20.919-4.08-31.821-1.263-4.893-3.464-9.21-4.999-13.924-1.419-4.369-3.898-9.768-4.544-14.125-.96-6.457 5.121-6.817 9.01-9.615 6.01-4.327 10.728-6.72 17.237-10.625 1.928-1.157 7.742-4.084 8.403-5.432 1.315-2.673-2.256-6.442-3.211-8.538-1.51-3.313-2.298-6.128-2.515-9.397-5.46-.863-9.6-4.113-12.1-7.777-4.136-6.064-7.004-17.284-3.426-25.818.281-.672 1.68-1.994 1.887-3.026.407-2.033-.766-4.736-.84-6.898-.375-11.092 1.878-20.65 9.345-23.994 3.031-12.077 13.881-16.092 24.104-22.094 3.82-2.243 8.033-3.676 12.383-5.277 15.606-5.743 39.549-4.662 52.5 5.134 5.492 4.153 14.27 12.924 17.41 19.273 8.293 16.764 7.704 44.78 1.904 65.172-.78 2.738-1.91 6.762-3.49 10.05-1.101 2.297-4.523 6.892-4.108 8.92.428 2.096 7.803 7.696 9.384 9.22 2.848 2.747 8.257 6.393 8.696 9.86.47 3.688-1.626 8.735-2.688 12.294-3.55 11.88-7.014 22.86-11.04 33.451" fill="#231f20" fill-rule="evenodd"/><path d="M128.281 94.638c.45-.6 2.925-1.51 6.389.158 0 0-4.105.684-3.763 7.527l-1.71-.342s-1.768-6.205-.916-7.343" fill="#f7e4cd" fill-rule="evenodd"/><path d="M158.27 153.456a1.881 1.881 0 1 1-3.762-.001 1.881 1.881 0 0 1 3.762 0m1.881 8.723a1.881 1.881 0 1 1-3.762-.001 1.881 1.881 0 0 1 3.762 0" fill="#1d1919" fill-rule="evenodd"/></svg>