<svg xmlns="http://www.w3.org/2000/svg" xmlns:xlink="http://www.w3.org/1999/xlink" viewBox="0 0 73.275 75.76" id="svg2"><defs id="defs4"><style id="style6"/><linearGradient id="linear-gradient" x1="34.64" y1="15.35" x2="19" y2="30.99" gradientUnits="userSpaceOnUse"><stop offset=".18" stop-color="#0052cc" id="stop9"/><stop offset="1" stop-color="#2684ff" id="stop11"/></linearGradient><linearGradient id="linear-gradient-2" x1="38.78" y1="60.28" x2="54.39" y2="44.67" xlink:href="#linear-gradient"/><linearGradient xlink:href="#linear-gradient" id="linearGradient3027" gradientUnits="userSpaceOnUse" x1="34.64" y1="15.35" x2="19" y2="30.99"/><linearGradient xlink:href="#linear-gradient" id="linearGradient3045" gradientUnits="userSpaceOnUse" x1="34.64" y1="15.35" x2="19" y2="30.99"/><linearGradient xlink:href="#linear-gradient" id="linearGradient3047" x1="38.78" y1="60.28" x2="54.39" y2="44.67"/><linearGradient xlink:href="#linear-gradient" id="linearGradient3050" x1="38.78" y1="60.28" x2="54.39" y2="44.67" gradientTransform="translate(-.003)"/><linearGradient xlink:href="#linear-gradient" id="linearGradient3053" gradientUnits="userSpaceOnUse" x1="34.64" y1="15.35" x2="19" y2="30.99" gradientTransform="translate(-.003)"/></defs><path d="M72.397 35.76l-32.6-32.6L36.637 0l-24.54 24.54L.877 35.76a3 3 0 0 0 0 4.24l22.42 22.42 13.34 13.34 24.54-24.54.38-.38L72.397 40a3 3 0 0 0 0-4.24zm-35.76 13.32l-11.2-11.2 11.2-11.2 11.2 11.2z" id="path42" fill="#2684ff"/><path d="M36.637 26.68a18.86 18.86 0 0 1-.08-26.59l-24.51 24.5 13.34 13.34 11.25-11.25z" id="path44" fill="url(#linearGradient3053)"/><path d="M47.867 37.85l-11.23 11.23a18.86 18.86 0 0 1 0 26.68l24.57-24.57z" id="path46" fill="url(#linearGradient3050)"/></svg>