<svg xmlns="http://www.w3.org/2000/svg" id="JIRA_-_Blue" viewBox="61 -48.7 256 256"><style id="style3">.st0{fill:#205081}</style><g id="g3051" transform="translate(-25.053 -71.833) scale(1.54217)"><g id="g17"><g id="g19"><g id="g21"><g id="g23"><path class="st0" d="M103.1 24.9c-6 0-10.9 4.9-10.9 10.9s4.9 10.9 10.9 10.9S114 41.8 114 35.8c-.1-6-4.9-10.9-10.9-10.9z" id="path25" fill="#205081"/></g></g><g id="g27"><g id="g29"><path class="st0" d="M174.5 24.9c-6 0-10.9 4.9-10.9 10.9s4.9 10.9 10.9 10.9 10.9-4.9 10.9-10.9-4.9-10.9-10.9-10.9z" id="path31" fill="#205081"/></g></g></g><g id="g33"><g id="g35"><path class="st0" d="M138.8 15c-6 0-10.9 4.9-10.9 10.9s4.9 10.9 10.9 10.9 10.9-4.9 10.9-10.9c0-6.1-4.9-10.9-10.9-10.9z" id="path37" fill="#205081"/></g></g></g><g id="g39"><path class="st0" d="M200.3 55.3c-.6-.5-1.3-.7-2.1-.7-.4 0-.8.1-1.2.2-7.4 2.8-14.8 5-21.7 6.5-1.4.3-2.5 1.4-3 2.6-5 13.6-17.7 26.6-31 40.2-.5.5-1.3 1.2-2.5 1.2s-2-.6-2.5-1.2c-13.3-13.6-26-26.5-31-40.2-.5-1.2-1.6-2.3-3-2.6-6.8-1.6-14.3-3.8-21.7-6.6-.4-.2-.8-.2-1.2-.2-.7 0-1.5.2-2.1.7-.9.7-1.4 1.9-1.3 3 1.1 11.3 5.6 22.4 13.7 34 7.6 10.9 17.5 21 27.1 30.8 17.6 18 34.3 35 35.8 54.7a3.4 3.4 0 0 0 3.4 3.2h20.7c.9 0 1.8-.4 2.5-1.1.6-.7 1-1.6.9-2.5-.7-13.2-5.6-26.4-15.2-40.4-2-2.9-4.1-5.8-6.4-8.6-.9-1.1-.5-2.5.2-3.3l2.1-2.1c9.6-9.8 19.5-19.9 27.1-30.8 8.1-11.6 12.6-22.6 13.7-34 .1-.9-.4-2.1-1.3-2.8z" id="path41" fill="#205081"/><g id="g43"><path class="st0" d="M116.5 138.4c-.5-.5-1.2-1-2.4-1-1.5 0-2.5 1.1-2.8 1.6-8.7 13.3-13.2 25.8-13.8 38.4 0 .9.3 1.9.9 2.5.6.7 1.5 1.1 2.5 1.1h20.7c1.8 0 3.3-1.4 3.4-3.2.5-6.1 2.3-12.1 5.8-18.5 1.2-2.2.3-4.3-.4-5.2-3.5-4.5-7.6-9.2-13.9-15.7z" id="path45" fill="#205081"/></g><path class="st0" d="M138.8 65.4c6.5 0 10.3-.4 11.6-.4 1.6 0 3.1 1.3 3.1 3.2 0 .5-.1.9-.3 1.3-.9 2.3-4.8 10.6-12.1 17.7-.8.8-1.8.9-2.4.9-.6 0-1.6-.1-2.4-.9-7.3-7.1-11.2-15.4-12.1-17.7-.1-.3-.3-.7-.3-1.3 0-1.8 1.5-3.2 3.1-3.2 1.5 0 5.3.4 11.8.4z" id="path47" fill="#205081"/></g></g></svg>