<?xml version="1.0" encoding="UTF-8" standalone="no"?>
<!-- Generator: Adobe Illustrator 19.1.0, SVG Export Plug-In . SVG Version: 6.00 Build 0)  -->

<svg
   xmlns:dc="http://purl.org/dc/elements/1.1/"
   xmlns:cc="http://creativecommons.org/ns#"
   xmlns:rdf="http://www.w3.org/1999/02/22-rdf-syntax-ns#"
   xmlns:svg="http://www.w3.org/2000/svg"
   xmlns="http://www.w3.org/2000/svg"
   xmlns:sodipodi="http://sodipodi.sourceforge.net/DTD/sodipodi-0.dtd"
   xmlns:inkscape="http://www.inkscape.org/namespaces/inkscape"
   version="1.1"
   id="JIRA_-_Blue"
   x="0px"
   y="0px"
   viewBox="61 -48.7 256 256"
   xml:space="preserve"
   inkscape:version="0.48.5 r10040"
   width="100%"
   height="100%"
   sodipodi:docname="jira_rgb_blue.svg"><metadata
     id="metadata53"><rdf:RDF><cc:Work
         rdf:about=""><dc:format>image/svg+xml</dc:format><dc:type
           rdf:resource="http://purl.org/dc/dcmitype/StillImage" /></cc:Work></rdf:RDF></metadata><defs
     id="defs51" /><sodipodi:namedview
     pagecolor="#ffffff"
     bordercolor="#666666"
     borderopacity="1"
     objecttolerance="10"
     gridtolerance="10"
     guidetolerance="10"
     inkscape:pageopacity="0"
     inkscape:pageshadow="2"
     inkscape:window-width="1280"
     inkscape:window-height="683"
     id="namedview49"
     showgrid="false"
     inkscape:zoom="0.67908903"
     inkscape:cx="56.693598"
     inkscape:cy="133.85"
     inkscape:window-x="0"
     inkscape:window-y="0"
     inkscape:window-maximized="1"
     inkscape:current-layer="JIRA_-_Blue" /><style
     type="text/css"
     id="style3">
	.st0{fill:#205081;}
</style><g
     id="g3051"
     transform="matrix(1.5421687,0,0,1.5421687,-25.053016,-71.832533)"><g
       id="g17"><g
         id="g19"><g
           id="g21"><g
             id="g23"><path
               class="st0"
               d="m 103.1,24.9 c -6,0 -10.9,4.9 -10.9,10.9 0,6 4.9,10.9 10.9,10.9 6,0 10.9,-4.9 10.9,-10.9 -0.1,-6 -4.9,-10.9 -10.9,-10.9 l 0,0 0,0 z"
               id="path25"
               inkscape:connector-curvature="0"
               style="fill:#205081" /></g></g><g
           id="g27"><g
             id="g29"><path
               class="st0"
               d="m 174.5,24.9 c -6,0 -10.9,4.9 -10.9,10.9 0,6 4.9,10.9 10.9,10.9 6,0 10.9,-4.9 10.9,-10.9 0,-6 -4.9,-10.9 -10.9,-10.9 l 0,0 0,0 z"
               id="path31"
               inkscape:connector-curvature="0"
               style="fill:#205081" /></g></g></g><g
         id="g33"><g
           id="g35"><path
             class="st0"
             d="m 138.8,15 c -6,0 -10.9,4.9 -10.9,10.9 0,6 4.9,10.9 10.9,10.9 6,0 10.9,-4.9 10.9,-10.9 0,-6.1 -4.9,-10.9 -10.9,-10.9 l 0,0 0,0 z"
             id="path37"
             inkscape:connector-curvature="0"
             style="fill:#205081" /></g></g></g><g
       id="g39"><path
         class="st0"
         d="m 200.3,55.3 c -0.6,-0.5 -1.3,-0.7 -2.1,-0.7 -0.4,0 -0.8,0.1 -1.2,0.2 -7.4,2.8 -14.8,5 -21.7,6.5 -1.4,0.3 -2.5,1.4 -3,2.6 -5,13.6 -17.7,26.6 -31,40.2 -0.5,0.5 -1.3,1.2 -2.5,1.2 -1.2,0 -2,-0.6 -2.5,-1.2 -13.3,-13.6 -26,-26.5 -31,-40.2 -0.5,-1.2 -1.6,-2.3 -3,-2.6 -6.8,-1.6 -14.3,-3.8 -21.7,-6.6 -0.4,-0.2 -0.8,-0.2 -1.2,-0.2 -0.7,0 -1.5,0.2 -2.1,0.7 -0.9,0.7 -1.4,1.9 -1.3,3 1.1,11.3 5.6,22.4 13.7,34 7.6,10.9 17.5,21 27.1,30.8 17.6,18 34.3,35 35.8,54.7 0.1,1.8 1.6,3.2 3.4,3.2 h 20.7 c 0.9,0 1.8,-0.4 2.5,-1.1 0.6,-0.7 1,-1.6 0.9,-2.5 -0.7,-13.2 -5.6,-26.4 -15.2,-40.4 -2,-2.9 -4.1,-5.8 -6.4,-8.6 -0.9,-1.1 -0.5,-2.5 0.2,-3.3 0.7,-0.7 1.4,-1.4 2.1,-2.1 9.6,-9.8 19.5,-19.9 27.1,-30.8 8.1,-11.6 12.6,-22.6 13.7,-34 0.1,-0.9 -0.4,-2.1 -1.3,-2.8 z"
         id="path41"
         inkscape:connector-curvature="0"
         style="fill:#205081" /><g
         id="g43"><path
           class="st0"
           d="m 116.5,138.4 c -0.5,-0.5 -1.2,-1 -2.4,-1 -1.5,0 -2.5,1.1 -2.8,1.6 -8.7,13.3 -13.2,25.8 -13.8,38.4 0,0.9 0.3,1.9 0.9,2.5 0.6,0.7 1.5,1.1 2.5,1.1 h 20.7 c 1.8,0 3.3,-1.4 3.4,-3.2 0.5,-6.1 2.3,-12.1 5.8,-18.5 1.2,-2.2 0.3,-4.3 -0.4,-5.2 -3.5,-4.5 -7.6,-9.2 -13.9,-15.7 z"
           id="path45"
           inkscape:connector-curvature="0"
           style="fill:#205081" /></g><path
         class="st0"
         d="m 138.8,65.4 c 6.5,0 10.3,-0.4 11.6,-0.4 1.6,0 3.1,1.3 3.1,3.2 0,0.5 -0.1,0.9 -0.3,1.3 -0.9,2.3 -4.8,10.6 -12.1,17.7 -0.8,0.8 -1.8,0.9 -2.4,0.9 h 0 c -0.6,0 -1.6,-0.1 -2.4,-0.9 -7.3,-7.1 -11.2,-15.4 -12.1,-17.7 -0.1,-0.3 -0.3,-0.7 -0.3,-1.3 0,-1.8 1.5,-3.2 3.1,-3.2 1.5,0 5.3,0.4 11.8,0.4 l 0,0 z"
         id="path47"
         inkscape:connector-curvature="0"
         style="fill:#205081" /></g></g></svg>