<svg xmlns="http://www.w3.org/2000/svg" xml:space="preserve" viewBox="0 0 78.8 83"><path d="M21.6 78.6c1.6 1.6.5 4.3-1.8 4.3H5.2c-2.9 0-5.2-2.2-5.2-5v-14c0-2.2 2.8-3.3 4.4-1.8z" style="fill:#fff"/><path d="M44.3 79.8c-4.3-4.2-4.3-11.1 0-15.3l15.5-15.3c4.3-4.2 11.3-4.2 15.6 0s4.3 11.1 0 15.3L59.9 79.8c-4.3 4.2-11.3 4.2-15.6 0" style="fill:#ffb21d"/><path d="M3.3 41.4C-1 37.2-1 30.3 3.3 26.1L26.6 3.2C30.9-1 37.9-1 42.2 3.2s4.3 11.1 0 15.3L18.9 41.4c-4.3 4.3-11.3 4.3-15.6 0" style="fill:#09f"/><path d="M24.6 59.8c-4.3-4.2-4.3-11.1 0-15.3L60 9.7c4.3-4.2 11.3-4.2 15.6 0s4.3 11.1 0 15.3L40.2 59.8C35.9 64 29 64 24.6 59.8" style="fill:#ff6100"/></svg>