<svg xmlns="http://www.w3.org/2000/svg" viewBox="0 0 400 400"><defs><linearGradient id="linear-gradient" x1="109.36" y1="201.96" x2="223.31" y2="201.96" gradientTransform="rotate(6.74 414.38 250.811)" gradientUnits="userSpaceOnUse"><stop offset="0" stop-color="#f1ceba"/><stop offset="1" stop-color="#b8846f"/></linearGradient><clipPath id="clip-path" transform="translate(-100 458)"><path id="SVGID" class="cls-1" d="M500-258c0 110.45-89.55 200-200 200s-200-89.53-200-200 89.54-200 200-200 200 89.55 200 200z"/></clipPath><style>.cls-1{fill:none}</style></defs><g style="isolation:isolate"><g id="Layer_1" data-name="Layer 1"><path d="M500-258c0 110.45-89.55 200-200 200s-200-89.53-200-200 89.54-200 200-200 200 89.55 200 200z" transform="translate(-100 458)" fill="#fff"/><g clip-path="url(#clip-path)"><path d="m463.76-225 24.3-101.16A200.63 200.63 0 0 0 385.07-439l-36.52 197-136.07 110.48z" transform="translate(-100 458)" opacity=".05"/><path d="M300-458a200 200 0 0 0-53.91 7.41l-17.92 66.18 37.3 5.29 38.46 13.21 34.74 17.42 27.67-98.18A199.57 199.57 0 0 0 300-458z" transform="translate(-100 458)" fill="#f38632"/><path fill="#4e4e4e" d="m149.95 264.59-37.47 61.89 4.47-72.65 10.98.44 13.4 3.71 8.62 6.61z"/><path fill="url(#linear-gradient)" d="m149.95 264.59-8.62-6.61-13.4-3.71-10.98-.44 11.23-180.24 37.3 5.29 38.46 13.21 34.74 17.41-88.73 155.09z"/><path d="m246.1-450.59-17.92 66.18 37.3 5.29 22.69-78.5a199.44 199.44 0 0 0-42.07 7.03z" transform="translate(-100 458)" fill="#f6a259"/><path d="M366.35-446.68a198.51 198.51 0 0 0-35.51-8.95l-26.9 89.72-91.46 234.39L250-193.41l88.68-155.09z" transform="translate(-100 458)" style="mix-blend-mode:multiply" fill="#1a1a1a" opacity=".2"/><path opacity=".15" fill="#fff" d="m112.48 325.54 53-246.67-37.3-5.28-15.7 251.95z"/><path class="cls-1" d="M500-258c0 110.45-89.55 200-200 200s-200-89.53-200-200 89.54-200 200-200 200 89.55 200 200z" transform="translate(-100 458)"/></g></g></g></svg>