<svg xmlns="http://www.w3.org/2000/svg" xml:space="preserve" id="Layer_1" x="0" y="0" viewBox="0 0 397.7 137.1"><style>.st1{fill:#ee4523}</style><path d="M217.8 137.1h-21c-2.4 0-4.3-1.9-4.3-4.3V42.9c0-2.4 1.9-4.3 4.3-4.3h21c2.4 0 4.3 1.9 4.3 4.3v89.9c0 2.4-1.9 4.3-4.3 4.3M144.8 106.9v-64c0-2.4-1.9-4.3-4.3-4.3h-21c-2.4 0-4.3 1.9-4.3 4.3v89.9c0 2.4 1.9 4.3 4.3 4.3H182c2.4 0 4.3-1.9 4.3-4.3v-17.3c0-2.4-1.9-4.3-4.3-4.3h-33c-2.3 0-4.2-1.9-4.2-4.3M269.3 38.6h-37c-2.4 0-4.3 1.9-4.3 4.3v89.9c0 2.4 1.9 4.3 4.3 4.3h21c2.4 0 4.3-1.9 4.3-4.3V108c0-.8.7-1.3 1.4-1.1 10.5 3.1 24.3 3.4 36.2-8.4 25.3-25.3 1.4-59.9-25.9-59.9m7.4 43.2c-11.2 7.9-23.6-4.5-15.7-15.7.3-.4.6-.7 1-1 11.2-7.9 23.6 4.5 15.7 15.7-.3.4-.7.7-1 1"/><path d="m396.5 54.2-14.4-14.4c-1.6-1.6-4.2-1.6-5.9 0l-23 23c-.6.6-1.7.6-2.3 0l-23-23c-1.6-1.6-4.2-1.6-5.9 0l-14.4 14.4c-1.6 1.6-1.6 4.2 0 5.9l29.6 29.6c.3.3.5.8.5 1.2V133c0 2.3 1.9 4.1 4.1 4.1h20.4c2.3 0 4.1-1.9 4.1-4.1V90.9c0-.5.2-.9.5-1.2l29.6-29.6c1.7-1.6 1.7-4.3.1-5.9"/><path d="M107.9 133.3 79 88.7c-.5-.8-.5-1.8 0-2.6l27.1-44.6c1-1.7-.2-3.8-2.1-3.8l-17.1 3.9c-13.6 3.1-17.6 11-25.8 22.3-1.6 2.2-2.6 3.7-2.6 3.7-1.2 2.3-4.7 1.4-4.7-1.2V29.7c-10.4 0-15.8 3.8-20 7.3C20.8 47.7 18 61 18 77.9v56.7c0 1.4 1.1 2.5 2.5 2.5h30.9c1.4 0 2.5-1.1 2.5-2.5v-28.3c0-2.5 3.3-3.4 4.6-1.3L69 135.9c.5.8 1.3 1.2 2.1 1.2h34.8c1.9 0 3.1-2.2 2-3.8M46.6 42.7c-1.9 0-3.4-1.5-3.4-3.4s1.5-3.4 3.4-3.4 3.4 1.5 3.4 3.4-1.5 3.4-3.4 3.4" style="fill:#f7dc3c"/><path d="M13.5 62.4c.3.7 2.7-38 40.6-38.3 0 0-30.7-36-42.1-20 0 0-5.6 8.8 5.2 11.6 0 0-17.5 4.6-17.2 16.8.1 3.8 4 6.3 7.5 4.8 2-.9 4.6-2.6 7.9-5.7 0-.1-7.7 15.3-1.9 30.8M57.9 31.2v9.4c0 .7.7 1.1 1.3.7l9-6-9-4.9c-.6-.2-1.3.2-1.3.8" class="st1"/></svg>