<?xml version="1.0" encoding="UTF-8" standalone="no"?>
<svg
   xmlns:dc="http://purl.org/dc/elements/1.1/"
   xmlns:cc="http://creativecommons.org/ns#"
   xmlns:rdf="http://www.w3.org/1999/02/22-rdf-syntax-ns#"
   xmlns:svg="http://www.w3.org/2000/svg"
   xmlns="http://www.w3.org/2000/svg"
   xmlns:sodipodi="http://sodipodi.sourceforge.net/DTD/sodipodi-0.dtd"
   xmlns:inkscape="http://www.inkscape.org/namespaces/inkscape"
   width="256"
   height="256"
   viewBox="0 0 256 256"
   version="1.1"
   preserveAspectRatio="xMidYMid"
   id="svg2"
   inkscape:version="0.48.5 r10040"
   sodipodi:docname="librato.svg">
  <metadata
     id="metadata12">
    <rdf:RDF>
      <cc:Work
         rdf:about="">
        <dc:format>image/svg+xml</dc:format>
        <dc:type
           rdf:resource="http://purl.org/dc/dcmitype/StillImage" />
      </cc:Work>
    </rdf:RDF>
  </metadata>
  <defs
     id="defs10" />
  <sodipodi:namedview
     pagecolor="#ffffff"
     bordercolor="#666666"
     borderopacity="1"
     objecttolerance="10"
     gridtolerance="10"
     guidetolerance="10"
     inkscape:pageopacity="0"
     inkscape:pageshadow="2"
     inkscape:window-width="640"
     inkscape:window-height="480"
     id="namedview8"
     showgrid="false"
     inkscape:zoom="1.2164948"
     inkscape:cx="24.834746"
     inkscape:cy="294.28814"
     inkscape:window-x="0"
     inkscape:window-y="0"
     inkscape:window-maximized="0"
     inkscape:current-layer="svg2" />
  <g
     id="g4"
     transform="translate(0,31.40951)">
    <path
       d="m 236.65116,193.18098 c 10.68607,0 19.34884,-8.66277 19.34884,-19.34884 0,-10.68606 -8.66277,-19.34883 -19.34884,-19.34883 -10.68607,0 -19.34883,8.66277 -19.34883,19.34883 0,10.68607 8.66276,19.34884 19.34883,19.34884 z M 99.292441,124.7954 c -14.424131,0 -26.160512,-11.0507 -26.160512,-24.70523 0,-13.610672 11.736381,-24.655389 26.160512,-24.655389 14.476969,0 26.186399,11.044219 26.186399,24.655389 0,13.65453 -11.70943,24.70523 -26.186399,24.70523 z M 43.18627,9.9668077e-4 C 19.436648,9.9668077e-4 0,17.667163 0,40.067564 l 0,151.625046 155.4319,0 c 23.74275,0 41.03322,-23.33479 41.03322,-45.72871 l 0,-145.9639 -153.276208,0 -0.0026,9.9668077e-4 0,0 z"
       id="path6"
       inkscape:connector-curvature="0"
       style="fill:#0f80aa" />
  </g>
</svg>
