<svg xmlns="http://www.w3.org/2000/svg" width="256" height="256" preserveAspectRatio="xMidYMid"><path d="M236.651 224.59c10.686 0 19.349-8.662 19.349-19.348 0-10.686-8.663-19.35-19.349-19.35s-19.349 8.664-19.349 19.35c0 10.686 8.663 19.348 19.35 19.348zM99.292 156.205c-14.424 0-26.16-11.05-26.16-24.705 0-13.611 11.736-24.656 26.16-24.656 14.477 0 26.187 11.045 26.187 24.656 0 13.654-11.71 24.705-26.187 24.705zM43.186 31.41C19.436 31.41 0 49.077 0 71.477v151.625h155.432c23.743 0 41.033-23.335 41.033-45.729V31.41H43.186z" fill="#0f80aa"/></svg>