<?xml version="1.0" encoding="UTF-8" standalone="no"?>
<!-- Created with Inkscape (http://www.inkscape.org/) -->

<svg
   xmlns:dc="http://purl.org/dc/elements/1.1/"
   xmlns:cc="http://creativecommons.org/ns#"
   xmlns:rdf="http://www.w3.org/1999/02/22-rdf-syntax-ns#"
   xmlns:svg="http://www.w3.org/2000/svg"
   xmlns="http://www.w3.org/2000/svg"
   xmlns:sodipodi="http://sodipodi.sourceforge.net/DTD/sodipodi-0.dtd"
   xmlns:inkscape="http://www.inkscape.org/namespaces/inkscape"
   id="svg2"
   version="1.1"
   inkscape:version="0.48.5 r10040"
   width="595"
   height="623.75"
   xml:space="preserve"
   sodipodi:docname="mc_freddie_color_web.pdf"><metadata
     id="metadata8"><rdf:RDF><cc:Work
         rdf:about=""><dc:format>image/svg+xml</dc:format><dc:type
           rdf:resource="http://purl.org/dc/dcmitype/StillImage" /><dc:title></dc:title></cc:Work></rdf:RDF></metadata><defs
     id="defs6"><clipPath
       clipPathUnits="userSpaceOnUse"
       id="clipPath18"><path
         d="M 0,0 476,0 476,499 0,499 0,0 z"
         id="path20" /></clipPath></defs><sodipodi:namedview
     pagecolor="#ffffff"
     bordercolor="#666666"
     borderopacity="1"
     objecttolerance="10"
     gridtolerance="10"
     guidetolerance="10"
     inkscape:pageopacity="0"
     inkscape:pageshadow="2"
     inkscape:window-width="640"
     inkscape:window-height="480"
     id="namedview4"
     showgrid="false"
     inkscape:zoom="0.37835671"
     inkscape:cx="297.5"
     inkscape:cy="311.875"
     inkscape:window-x="0"
     inkscape:window-y="0"
     inkscape:window-maximized="0"
     inkscape:current-layer="g10" /><g
     id="g10"
     inkscape:groupmode="layer"
     inkscape:label="mc_freddie_color_web"
     transform="matrix(1.25,0,0,-1.25,0,623.75)"><g
       id="g12" /><g
       id="g14"><g
         id="g16"
         clip-path="url(#clipPath18)"><path
           d="M 468.499,142.635 C 468.111,141.366 431.452,0.459 287.415,0.501 162.905,0.539 103.889,108.764 103.889,108.764 c -9.074,-0.506 -17.83,0.935 -25.906,3.902 -36.53,13.42 -54.057,55.212 -41.453,90.274 l -20.077,15.343 c -77.772,59.245 142.542,330.352 220.449,269.006 0.394,-0.31 18.597,-14.962 18.597,-14.962 27.973,16.987 55.676,26.17 78.195,26.171 15.992,0.002 29.367,-4.628 38.374,-14.381 20.221,-21.894 12.954,-63.703 -14.658,-106.032 5.939,-5.638 10.861,-13.301 14.374,-20.908 8.778,-6.773 14.468,-17.07 17.295,-31.291 3.148,-15.813 3.8,-38.337 5.776,-48.016 7.446,-3.361 4.274,-1.805 12.213,-5.771 8.278,-4.137 18.358,-9.175 29.498,-19.894 19.801,-4.961 27.362,-26.013 15.776,-40.381 -0.311,-0.385 -1.71,-2.043 -3.159,-3.692 0.346,-0.912 4.144,-7.065 6.885,-19.592 8.205,-1.938 14.741,-6.99 18.171,-14.316 5.932,-14.338 -5.74,-31.589 -5.74,-31.589 z M 411.4,36.22 l 0,-5.898 2.259,0 0,5.898 2.31,0 0,1.861 -6.849,0 0,-1.861 2.28,0 z m 5.26,1.861 0,-7.759 2.06,0 0,5.602 1.683,-5.602 1.757,0 1.683,5.617 0,-5.617 2.06,0 0,7.759 -3.221,0 -1.391,-4.465 -1.412,4.465 -3.219,0"
           style="fill:#61423f;fill-opacity:1;fill-rule:nonzero;stroke:none"
           id="path22" /><path
           d="m 133.272,195.657 0,0 c 3.137,7.973 4.718,14.517 4.718,14.517 3.591,-10.978 5.428,-22.524 4.707,-34.195 2.977,3.961 6.173,11.421 6.173,11.421 5.538,-32.602 -18.254,-62.445 -49.598,-62.445 -27.829,0 -50.388,23.749 -50.388,53.045 0,29.297 22.559,53.046 50.388,53.046 7.213,0 14.073,-1.596 20.278,-4.471 0,0.001 10.71,-5.399 13.722,-30.918 z M 407.463,80.693 c 39.062,30.691 45.886,67.655 46.537,68.929 9.612,11.528 6.999,22.885 -5.699,22.886 -4.04,0 -7.092,-1.066 -7.092,-1.066 0,0 0.047,16.822 -7.734,29.923 -5.999,-6.746 -22.649,-20.11 -44.496,-30.482 -20.488,-9.727 -47.825,-18.245 -81.703,-19.373 l -0.001,0 c -9.486,-0.412 -15.354,1.132 -18.658,-9.927 -1.055,-3.907 -0.599,-9.711 0.195,-11.389 2.672,-9.16 9.654,-13.197 18.844,-15.335 6.969,-1.623 14.37,-1.776 14.37,-1.776 68.707,-1.926 123.879,51.66 124.538,52.105 0.638,0.523 1.166,1.142 1.166,1.142 0,0 -0.606,-1.421 -0.678,-1.582 -9.924,-22.317 -67.382,-62.787 -124.574,-61.628 l -0.188,-0.067 c -13.264,0.051 -29.379,3.465 -37.757,13.854 -13.256,16.437 -6.377,43.768 14.75,44.408 0.026,0.001 4.884,0.113 7.046,0.168 52.309,1.608 99.245,20.826 132.851,60.958 4.621,5.741 -0.541,13.626 -10.556,13.866 -0.088,0.002 -0.173,0.04 -0.233,0.104 -11.874,12.714 -22.311,17.206 -31.599,21.925 -19.468,9.918 -17.636,1.351 -22.164,49.456 -1.225,12.969 -3.681,30.656 -15.075,37.437 -2.986,1.778 -6.25,2.54 -9.639,2.54 -3.349,0 -4.981,-0.683 -5.639,-0.829 -6.24,-1.383 -9.789,-4.921 -14.234,-9.02 -21.006,-19.37 -37.796,-14.112 -62.856,-13.89 -23.536,0.206 -44.316,-16.212 -48.291,-41.425 l -0.007,-0.014 c -1.932,-13.198 -0.681,-26.608 1.387,-32.636 0,0 -6.388,4.25 -9.432,8.012 3.684,-23.033 24.698,-38.087 24.698,-38.087 -3.31,-0.76 -8.071,-0.445 -8.071,-0.445 0.02,-0.017 11.994,-9.487 22.387,-12.791 -2.707,-1.685 -16.406,-15.203 -23.471,-33.812 -6.611,-17.415 -3.918,-38.322 -3.918,-38.322 l 5.742,8.559 c 0,0 -3.75,-19.075 3.508,-37.547 2.408,5.495 7.669,15.304 7.669,15.304 0,0 -0.834,-20.485 9.028,-37.257 0.253,3.871 1.733,13.726 1.733,13.726 0,0 5.659,-17.488 18.732,-29.716 24.472,-21.717 89.268,-25.639 138.584,13.114"
           style="fill:#f4daaf;fill-opacity:1;fill-rule:nonzero;stroke:none"
           id="path24" /><path
           d="m 44.074,217.865 c -0.199,0.053 -18.961,13.822 -21.63,18.356 -15.786,26.639 11.678,81.356 31.222,112.458 48.298,76.866 128.69,137.528 165.203,128.865 l 37.496,-19.355 c -14.559,-8.564 -28.64,-19.083 -37.075,-26.079 l -7.979,-6.691 c 0,0 -23.3,-15.687 -34.888,-25.576 C 129.969,360.204 84.23,298.84 67.268,239.607 c 0,0.002 -13.937,-6.917 -23.194,-21.742"
           style="fill:#3a87c6;fill-opacity:1;fill-rule:nonzero;stroke:none"
           id="path26" /><path
           d="m 218.87,477.545 0,0 C 182.356,486.208 101.966,425.547 53.667,348.68 c -0.014,-0.022 -0.028,-0.045 -0.042,-0.067 l 0.195,-0.021 38.485,-30.298 c 42.256,67.075 95.365,101.661 96.863,102.677 l -6.102,41.054 11.431,5.473 22.941,-7.429 -1.755,7.664 3.187,9.812"
           style="fill:#60bee8;fill-opacity:1;fill-rule:nonzero;stroke:none"
           id="path28" /><path
           d="m 256.365,458.19 -37.075,-26.078 -2.594,-2.03 -32.877,26.862 -0.755,5.08 11.431,5.473 c 0.587,-0.19 22.036,-7.136 22.941,-7.429 l 0.383,14.243 1.05,3.233 10.042,3.848 c 0.014,-0.01 27.416,-23.169 27.454,-23.202"
           style="fill:#fbce34;fill-opacity:1;fill-rule:nonzero;stroke:none"
           id="path30" /><path
           d="m 329.528,483.766 c -24.519,0 -52.046,-12.896 -73.163,-25.575 -2.962,-1.743 -5.901,-3.567 -8.78,-5.426 l -11.049,9.262 4.013,-13.947 c -1.517,-1.042 -2.998,-2.081 -4.448,-3.114 l -22.83,6.971 15.106,-12.645 c -3.449,-2.614 -6.53,-5.061 -9.086,-7.18 l -36.226,29.912 1.918,-13.406 26.329,-23.198 c 0,0 -23.3,-15.686 -34.888,-25.576 C 129.97,360.206 84.231,298.841 67.269,239.608 l 0.964,0.542 c 0.131,0.073 0.263,0.133 0.394,0.205 0.472,0.254 0.942,0.496 1.414,0.734 0.303,0.152 0.604,0.306 0.907,0.451 0.485,0.233 0.971,0.45 1.457,0.664 0.286,0.127 0.574,0.26 0.861,0.379 0.526,0.221 1.051,0.421 1.577,0.62 0.243,0.092 0.486,0.193 0.729,0.279 0.766,0.275 1.529,0.528 2.29,0.755 11.532,3.44 27.221,5.652 45.587,-2.147 9.223,23.263 20.242,46.931 37.607,69.673 14.08,18.44 27.614,34.902 43.859,43.956 30.758,28.894 113.659,59.533 140.218,32.975 6.28,10.273 11.73,19.998 16.22,32.189 11.082,29.317 11.284,62.883 -31.825,62.883"
           style="fill:#181f2a;fill-opacity:1;fill-rule:nonzero;stroke:none"
           id="path32" /><path
           d="m 224.291,457.85 -5.421,19.695 -3.188,-9.812 1.908,-7.713 6.701,-2.17"
           style="fill:#181f2a;fill-opacity:1;fill-rule:nonzero;stroke:none"
           id="path34" /><path
           d="m 441.21,171.461 c 0,0 0.047,16.822 -7.734,29.923 -5.999,-6.746 -22.649,-20.11 -44.496,-30.482 -20.487,-9.726 -47.825,-18.245 -81.703,-19.373 l -10e-4,0 c -9.486,-0.412 -15.354,1.132 -18.658,-9.927 -0.258,-0.953 -0.425,-2.02 -0.52,-3.112 l -0.004,-0.112 c -10e-4,0 -0.003,0.001 -0.004,0.001 -0.029,-0.353 -0.051,-0.707 -0.065,-1.061 -0.033,-1.011 -0.023,-1.901 0.017,-2.678 0.001,-0.019 0.002,-0.037 0.003,-0.056 0.003,-0.058 0.006,-0.114 0.009,-0.17 0.03,-0.486 0.072,-0.952 0.123,-1.39 0.002,-0.021 0.005,-0.045 0.007,-0.066 0.003,-0.023 0.006,-0.046 0.009,-0.069 0.224,-1.757 0.572,-2.573 0.614,-2.666 0.002,-0.004 0.004,-0.008 0.005,-0.011 l 0.043,-0.147 c 2.705,-9.055 9.661,-13.062 18.801,-15.188 6.969,-1.623 14.371,-1.775 14.371,-1.775 56.059,-1.573 103.108,33.811 118.888,47.134 0.27,3.734 0.429,6.397 0.295,11.225 z M 280.165,470.913 c 13.392,6.174 27.746,11.052 41.513,12.458 -13.673,-3.076 -30.334,-10.165 -50.074,-22.244 -0.481,-0.278 -46.709,-31.478 -74.952,-59.493 -15.391,-15.267 -77.197,-89.382 -77.148,-89.319 11.296,21.376 18.737,31.87 36.619,54.358 10.113,12.719 20.905,25.088 31.952,36.509 3.713,3.84 7.456,7.571 11.211,11.173 1.432,1.374 33.729,34.445 80.879,56.558"
           style="fill:#ffffff;fill-opacity:1;fill-rule:nonzero;stroke:none"
           id="path36" /><path
           d="m 407.463,80.693 c -6.705,-5.269 -13.696,-9.747 -20.833,-13.501 -16.505,6.273 -26.634,19.638 -26.634,19.638 0,0 14.151,3.346 33.066,12.965 23.005,11.69 44.504,28.578 60.939,49.828 -0.652,-1.274 -7.476,-38.239 -46.538,-68.93 z m -44.92,178.18 c -7.983,5.678 -21.206,1.159 -24.121,-8.237 4.62,-0.233 9.522,-3.728 9.219,-8.2 3.262,3.157 7.9,4.94 12.412,4.856 -2.176,3.49 -1.077,9.506 2.49,11.581 z M 278.78,144.21 c 2.515,9.36 9.617,16.775 20.503,17.105 0.026,0.001 4.884,0.113 7.046,0.168 52.309,1.608 99.245,20.826 132.851,60.958 4.621,5.741 -0.541,13.626 -10.556,13.866 -0.04,0.001 -0.143,0 -0.143,0 -1.694,-1.791 -1.997,-5.062 -4.799,-9.95 -10.222,-17.759 -24.36,-25.88 -43.213,-35.302 -57.802,-28.777 -87.776,-15.387 -99.805,-33.006 -3.496,-5.185 -3.562,-10.977 -1.884,-13.839 0,-0.001 0,0 0,0 z M 383.366,264.9 c -5.528,3.967 -5.725,10.887 -8.739,42.892 -0.964,10.208 -2.693,23.338 -8.94,31.773 -1.292,1.129 -3.108,2.426 -5.725,2.426 -3.946,0.174 -8.407,-3.915 -10.936,-6.709 -7.178,-10.36 -14.036,-17.032 -26.166,-22.814 -12.276,-5.556 -23.943,-7.571 -36.055,-7.189 -8.866,0.28 -16.63,1.741 -24.241,1.838 -14.102,0.22 -26.325,-4.351 -35.233,-15.599 -6.109,-7.715 -8.561,-15.87 -9.343,-25.576 0.03,-1.17 0.082,-2.273 0.149,-3.312 0.106,-1.542 0.246,-3.014 0.417,-4.396 0.622,-4.919 1.509,-7.471 1.509,-7.471 0,-0.038 -0.006,-0.076 -0.017,-0.111 0.074,-0.241 0.148,-0.473 0.225,-0.694 0,0 -6.388,4.249 -9.432,8.011 3.072,-19.201 18.185,-32.858 23.128,-36.869 0.292,-0.224 0.58,-0.446 0.862,-0.669 0.025,-0.019 0.046,-0.042 0.064,-0.065 0.414,-0.32 0.643,-0.485 0.643,-0.485 -3.309,-0.76 -8.071,-0.445 -8.071,-0.445 0.021,-0.017 11.995,-9.487 22.388,-12.791 13.788,11.652 29.421,16.125 42.254,17.513 7.778,4.827 16.141,9.568 25.12,14.14 -2.719,16.932 12.297,33.983 31.193,35.62 14.258,1.039 21.194,-5.352 26.189,-12.187 2.711,0.865 5.768,1.811 9.184,2.817 -0.144,0.096 -0.287,0.214 -0.427,0.352 z m 6.821,-114.04 c -0.144,-0.003 -0.293,-0.035 -0.531,-0.088 -5.696,-1.32 -64.434,-24.074 -101.566,-12.411 -0.167,-2.032 -0.113,-6.301 0.719,-8.156 10e-4,-0.004 0.003,-0.008 0.004,-0.011 5.617,-1.126 12.726,-1.846 20.977,-1.846 48.862,0 84.075,22.216 80.397,22.512 z m -273.361,4.562 c 0.014,0.01 0.028,0.019 0.042,0.029 2.975,3.198 4.223,7.666 3.516,11.94 -1.098,6.149 -8.066,7.392 -12.673,12.167 -0.073,0.075 -0.146,0.152 -0.217,0.23 -0.078,0.084 -0.153,0.169 -0.227,0.253 -0.005,0.006 -0.009,0.012 -0.015,0.018 -2.07,2.383 -2.791,5.094 -2.622,7.513 0.364,6.29 5.95,8.059 8.857,6.901 0,0 3.448,-0.816 6.118,-4.541 0,0 -0.001,0.006 -0.002,0.015 -0.406,1.229 -0.322,3.215 -2.412,6.174 -3.425,4.852 -11.292,9.787 -22.443,7.424 l 0.002,0 c -2.061,-0.436 -0.907,-0.188 -2.94,-0.761 -0.318,-0.09 -0.607,-0.178 -0.858,-0.283 -0.639,-0.299 -1.23,-0.505 -1.797,-0.806 -0.294,-0.164 -1.969,-0.924 -3.986,-2.443 -12.535,-16.18 8.696,-45.523 31.657,-43.83"
           style="fill:#e8b77b;fill-opacity:1;fill-rule:nonzero;stroke:none"
           id="path38" /><path
           d="m 301.644,255.012 c 1.058,-1.547 1.341,-2.715 0.914,-3.201 -0.852,-0.996 -3.897,0.349 -8.394,2.101 -11.508,4.293 -19.987,4.947 -34.996,-0.734 -3.795,-1.448 -6.486,-2.566 -7.777,-2.374 -2.105,0.313 -0.067,4.166 4.533,7.904 9.256,7.384 21.968,9.676 32.831,5.633 4.755,-1.75 10.095,-5.243 12.889,-9.329 z m -2.28,-11.772 c -3.155,2.41 -8.965,4.026 -14.997,3.001 -1.266,-0.193 -2.435,-0.585 -3.586,-0.894 -0.422,-0.104 -0.825,-0.253 -1.218,-0.418 -2.494,-1.051 -4.653,-2.183 -6.748,-4.191 -2.404,-2.323 -3.087,-4.48 -2.392,-5.011 0.683,-0.545 2.347,0.262 4.918,1.302 8.613,3.581 14.709,3.676 20.516,3.271 2.801,-0.188 4.675,-0.357 5.11,0.406 0.307,0.518 -0.25,1.502 -1.603,2.534 z m -185.486,-44.176 0.002,-0.002 0.003,-0.002 c 1.414,-1.124 2.498,-2.324 3.306,-3.47 2.65,-3.75 1.807,-5.938 2.894,-7.002 0.392,-0.385 0.952,-0.506 1.511,-0.278 1.502,0.62 2.24,3.009 2.381,4.676 l 0.001,0.01 c 0.377,4.009 -1.742,8.514 -4.55,11.706 l -0.007,0.009 c -1.718,1.996 -3.98,3.856 -6.67,5.354 -2.695,1.501 -5.822,2.639 -9.26,3.172 -5.941,0.924 -11.785,-0.259 -13.417,-0.746 l 0.009,0.002 C 89.24,212.249 88.2,212.03 87.306,211.679 77.617,207.901 71.241,200.964 68.404,191.778 l -10e-4,-0.003 -0.001,-0.005 c -1.049,-3.497 -1.467,-6.873 -1.467,-9.992 0,-2.689 0.31,-5.188 0.794,-7.415 l 0,-0.002 0.001,-0.004 -0.001,0.004 c 0.82,-3.747 2.496,-7.966 5.113,-10.736 l 0.008,-0.008 c 3.271,-3.535 6.857,-2.859 5.326,0.43 -0.365,0.911 -2.341,4.635 -2.607,11.376 -0.173,4.411 0.432,9.002 2.051,13.191 0.896,2.267 2.124,4.472 3.722,6.454 3.293,4.029 7.339,5.832 7.812,6.095 0.567,0.302 1.158,0.508 1.797,0.807 0.25,0.104 0.539,0.193 0.858,0.282 2.033,0.573 0.88,0.325 2.94,0.762 l -0.002,0 c 7.752,1.643 14.424,-0.154 19.131,-3.95 z m -1.654,-14.969 c -1.071,0.848 -1.568,1.572 -1.864,2.686 -0.437,2.03 -0.209,3.209 1.526,4.428 1.336,0.915 2.411,1.356 2.415,1.931 0.06,1.088 -4.409,2.208 -7.534,-0.868 -2.594,-2.764 -3.413,-8.526 0.726,-13.017 4.608,-4.972 11.774,-6.145 12.89,-12.397 0.147,-0.886 0.256,-1.872 0.179,-2.846 0.016,-1.118 -0.358,-2.727 -0.376,-2.828 -1.386,-6.039 -7.117,-11.801 -16.567,-10.333 -1.741,0.254 -2.869,0.468 -3.205,-0.013 -0.729,-1.014 3.321,-5.648 10.735,-5.48 7.254,0.154 14.45,5.585 16.757,13.748 0.026,0.106 0.707,2.42 0.763,4.494 0.13,1.536 0.019,3.116 -0.267,4.769 -1.89,10.482 -12.305,12.635 -16.178,15.726 z m 252.808,74.834 c -2.867,0.447 -5.687,-2.377 -6.301,-6.308 -0.614,-3.931 1.213,-7.48 4.08,-7.928 2.866,-0.447 5.687,2.377 6.301,6.308 0.613,3.931 -1.214,7.48 -4.08,7.928 z m -31.496,-11.467 c -1.576,-2.875 0.343,-6.958 4.286,-9.118 3.942,-2.161 8.416,-1.582 9.992,1.294 1.575,2.875 -0.343,6.958 -4.287,9.118 -3.943,2.16 -8.416,1.581 -9.991,-1.294 z M 218.139,363.763 c 54.243,35.158 108.425,39.2 126.988,24.927 10e-4,0.003 0.002,0.004 0.003,0.006 -0.034,0.093 -0.332,0.917 -0.448,1.143 -4.713,10.015 -15.711,17.001 -25.508,19.804 1.719,-1.785 4.205,-5.053 5.21,-6.995 -7.393,5.078 -17.218,9.55 -27.471,11.675 0,0 1.221,-0.877 1.43,-1.072 2.044,-1.904 4.764,-4.912 5.877,-7.495 -9.8,3.935 -22.188,6.14 -32.793,4.098 -0.149,-0.029 -1.326,-0.307 -1.326,-0.307 0,0 1.381,-0.343 1.688,-0.435 3.517,-1.042 8.535,-3.185 10.747,-6.122 -17.604,3.096 -36.97,-0.331 -47.414,-6.171 1.343,0.056 1.33,0.062 2.466,0.032 3.842,-0.102 11.582,-0.624 14.832,-2.692 -11.104,-2.258 -27.174,-7.225 -35.824,-14.665 1.527,0.178 10.195,1.283 13.742,0.713 -47.615,-27.247 -69.285,-68.441 -69.285,-68.441 14.038,18.293 32.25,35.9 57.086,51.997"
           style="fill:#976a4b;fill-opacity:1;fill-rule:nonzero;stroke:none"
           id="path40" /><path
           d="m 346.115,286.953 c -0.074,3.738 0.517,9.915 4.037,11.064 0.004,10e-4 0.002,10e-4 0.007,0.002 6.015,2.086 13.979,-13.318 14.345,-26.995 -4.753,2.38 -10.338,3.39 -16.082,2.892 -1.444,4.403 -2.136,8.551 -2.307,13.037"
           style="fill:#61423f;fill-opacity:1;fill-rule:nonzero;stroke:none"
           id="path42" /></g></g></g></svg>