<svg xmlns="http://www.w3.org/2000/svg" width="595" height="623.75"><defs><clipPath id="a"><path d="M0 0h476v499H0V0z"/></clipPath></defs><g clip-path="url(#a)" transform="matrix(1.25 0 0 -1.25 0 623.75)"><path d="M468.499 142.635C468.111 141.366 431.452.459 287.415.501c-124.51.038-183.526 108.263-183.526 108.263-9.074-.506-17.83.935-25.906 3.902-36.53 13.42-54.057 55.212-41.453 90.274l-20.077 15.343c-77.772 59.245 142.542 330.352 220.449 269.006.394-.31 18.597-14.962 18.597-14.962 27.973 16.987 55.676 26.17 78.195 26.171 15.992.002 29.367-4.628 38.374-14.381 20.221-21.894 12.954-63.703-14.658-106.032 5.939-5.638 10.861-13.301 14.374-20.908 8.778-6.773 14.468-17.07 17.295-31.291 3.148-15.813 3.8-38.337 5.776-48.016 7.446-3.361 4.274-1.805 12.213-5.771 8.278-4.137 18.358-9.175 29.498-19.894 19.801-4.961 27.362-26.013 15.776-40.381a170.77 170.77 0 0 0-3.159-3.692c.346-.912 4.144-7.065 6.885-19.592 8.205-1.938 14.741-6.99 18.171-14.316 5.932-14.338-5.74-31.589-5.74-31.589zM411.4 36.22v-5.898h2.259v5.898h2.31v1.861h-6.849V36.22h2.28zm5.26 1.861v-7.759h2.06v5.602l1.683-5.602h1.757l1.683 5.617v-5.617h2.06v7.759h-3.221l-1.391-4.465-1.412 4.465h-3.219" fill="#61423f"/><path d="M133.272 195.657c3.137 7.973 4.718 14.517 4.718 14.517 3.591-10.978 5.428-22.524 4.707-34.195 2.977 3.961 6.173 11.421 6.173 11.421 5.538-32.602-18.254-62.445-49.598-62.445-27.829 0-50.388 23.749-50.388 53.045 0 29.297 22.559 53.046 50.388 53.046a48.079 48.079 0 0 0 20.278-4.471c0 .001 10.71-5.399 13.722-30.918zM407.463 80.693c39.062 30.691 45.886 67.655 46.537 68.929 9.612 11.528 6.999 22.885-5.699 22.886-4.04 0-7.092-1.066-7.092-1.066s.047 16.822-7.734 29.923c-5.999-6.746-22.649-20.11-44.496-30.482-20.488-9.727-47.825-18.245-81.703-19.373h-.001c-9.486-.412-15.354 1.132-18.658-9.927-1.055-3.907-.599-9.711.195-11.389 2.672-9.16 9.654-13.197 18.844-15.335 6.969-1.623 14.37-1.776 14.37-1.776 68.707-1.926 123.879 51.66 124.538 52.105a10.479 10.479 0 0 1 1.166 1.142s-.606-1.421-.678-1.582c-9.924-22.317-67.382-62.787-124.574-61.628l-.188-.067c-13.264.051-29.379 3.465-37.757 13.854-13.256 16.437-6.377 43.768 14.75 44.408.026.001 4.884.113 7.046.168 52.309 1.608 99.245 20.826 132.851 60.958 4.621 5.741-.541 13.626-10.556 13.866a.332.332 0 0 0-.233.104c-11.874 12.714-22.311 17.206-31.599 21.925-19.468 9.918-17.636 1.351-22.164 49.456-1.225 12.969-3.681 30.656-15.075 37.437-2.986 1.778-6.25 2.54-9.639 2.54-3.349 0-4.981-.683-5.639-.829-6.24-1.383-9.789-4.921-14.234-9.02-21.006-19.37-37.796-14.112-62.856-13.89-23.536.206-44.316-16.212-48.291-41.425l-.007-.014c-1.932-13.198-.681-26.608 1.387-32.636 0 0-6.388 4.25-9.432 8.012 3.684-23.033 24.698-38.087 24.698-38.087-3.31-.76-8.071-.445-8.071-.445.02-.017 11.994-9.487 22.387-12.791-2.707-1.685-16.406-15.203-23.471-33.812-6.611-17.415-3.918-38.322-3.918-38.322l5.742 8.559s-3.75-19.075 3.508-37.547c2.408 5.495 7.669 15.304 7.669 15.304s-.834-20.485 9.028-37.257c.253 3.871 1.733 13.726 1.733 13.726s5.659-17.488 18.732-29.716c24.472-21.717 89.268-25.639 138.584 13.114" fill="#f4daaf"/><path d="M44.074 217.865c-.199.053-18.961 13.822-21.63 18.356-15.786 26.639 11.678 81.356 31.222 112.458 48.298 76.866 128.69 137.528 165.203 128.865l37.496-19.355c-14.559-8.564-28.64-19.083-37.075-26.079l-7.979-6.691s-23.3-15.687-34.888-25.576C129.969 360.204 84.23 298.84 67.268 239.607c0 .002-13.937-6.917-23.194-21.742" fill="#3a87c6"/><path d="M218.87 477.545c-36.514 8.663-116.904-51.998-165.203-128.865l-.042-.067.195-.021 38.485-30.298c42.256 67.075 95.365 101.661 96.863 102.677l-6.102 41.054 11.431 5.473 22.941-7.429-1.755 7.664 3.187 9.812" fill="#60bee8"/><path d="M256.365 458.19l-37.075-26.078-2.594-2.03-32.877 26.862-.755 5.08 11.431 5.473 22.941-7.429.383 14.243 1.05 3.233 10.042 3.848c.014-.01 27.416-23.169 27.454-23.202" fill="#fbce34"/><path d="M329.528 483.766c-24.519 0-52.046-12.896-73.163-25.575a249.55 249.55 0 0 1-8.78-5.426l-11.049 9.262 4.013-13.947a316.455 316.455 0 0 1-4.448-3.114l-22.83 6.971 15.106-12.645a269.325 269.325 0 0 1-9.086-7.18l-36.226 29.912 1.918-13.406 26.329-23.198s-23.3-15.686-34.888-25.576C129.97 360.206 84.231 298.841 67.269 239.608l.964.542c.131.073.263.133.394.205.472.254.942.496 1.414.734.303.152.604.306.907.451.485.233.971.45 1.457.664.286.127.574.26.861.379a46.75 46.75 0 0 0 1.577.62c.243.092.486.193.729.279.766.275 1.529.528 2.29.755 11.532 3.44 27.221 5.652 45.587-2.147 9.223 23.263 20.242 46.931 37.607 69.673 14.08 18.44 27.614 34.902 43.859 43.956 30.758 28.894 113.659 59.533 140.218 32.975 6.28 10.273 11.73 19.998 16.22 32.189 11.082 29.317 11.284 62.883-31.825 62.883" fill="#181f2a"/><path d="M224.291 457.85l-5.421 19.695-3.188-9.812 1.908-7.713 6.701-2.17" fill="#181f2a"/><path d="M441.21 171.461s.047 16.822-7.734 29.923c-5.999-6.746-22.649-20.11-44.496-30.482-20.487-9.726-47.825-18.245-81.703-19.373h-.001c-9.486-.412-15.354 1.132-18.658-9.927-.258-.953-.425-2.02-.52-3.112l-.004-.112-.004.001a25.057 25.057 0 0 1-.065-1.061 31.973 31.973 0 0 1 .017-2.678l.003-.056.009-.17c.03-.486.072-.952.123-1.39l.007-.066.009-.069c.224-1.757.572-2.573.614-2.666l.005-.011.043-.147c2.705-9.055 9.661-13.062 18.801-15.188 6.969-1.623 14.371-1.775 14.371-1.775 56.059-1.573 103.108 33.811 118.888 47.134.27 3.734.429 6.397.295 11.225zM280.165 470.913c13.392 6.174 27.746 11.052 41.513 12.458-13.673-3.076-30.334-10.165-50.074-22.244-.481-.278-46.709-31.478-74.952-59.493-15.391-15.267-77.197-89.382-77.148-89.319 11.296 21.376 18.737 31.87 36.619 54.358 10.113 12.719 20.905 25.088 31.952 36.509a421.296 421.296 0 0 0 11.211 11.173c1.432 1.374 33.729 34.445 80.879 56.558" fill="#fff"/><path d="M407.463 80.693a136.636 136.636 0 0 0-20.833-13.501c-16.505 6.273-26.634 19.638-26.634 19.638s14.151 3.346 33.066 12.965c23.005 11.69 44.504 28.578 60.939 49.828-.652-1.274-7.476-38.239-46.538-68.93zm-44.92 178.18c-7.983 5.678-21.206 1.159-24.121-8.237 4.62-.233 9.522-3.728 9.219-8.2 3.262 3.157 7.9 4.94 12.412 4.856-2.176 3.49-1.077 9.506 2.49 11.581zM278.78 144.21c2.515 9.36 9.617 16.775 20.503 17.105.026.001 4.884.113 7.046.168 52.309 1.608 99.245 20.826 132.851 60.958 4.621 5.741-.541 13.626-10.556 13.866h-.143c-1.694-1.791-1.997-5.062-4.799-9.95-10.222-17.759-24.36-25.88-43.213-35.302-57.802-28.777-87.776-15.387-99.805-33.006-3.496-5.185-3.562-10.977-1.884-13.839 0-.001 0 0 0 0zM383.366 264.9c-5.528 3.967-5.725 10.887-8.739 42.892-.964 10.208-2.693 23.338-8.94 31.773-1.292 1.129-3.108 2.426-5.725 2.426-3.946.174-8.407-3.915-10.936-6.709-7.178-10.36-14.036-17.032-26.166-22.814-12.276-5.556-23.943-7.571-36.055-7.189-8.866.28-16.63 1.741-24.241 1.838-14.102.22-26.325-4.351-35.233-15.599-6.109-7.715-8.561-15.87-9.343-25.576.03-1.17.082-2.273.149-3.312.106-1.542.246-3.014.417-4.396.622-4.919 1.509-7.471 1.509-7.471a.373.373 0 0 0-.017-.111c.074-.241.148-.473.225-.694 0 0-6.388 4.249-9.432 8.011 3.072-19.201 18.185-32.858 23.128-36.869.292-.224.58-.446.862-.669a.357.357 0 0 0 .064-.065c.414-.32.643-.485.643-.485-3.309-.76-8.071-.445-8.071-.445.021-.017 11.995-9.487 22.388-12.791 13.788 11.652 29.421 16.125 42.254 17.513a341.35 341.35 0 0 0 25.12 14.14c-2.719 16.932 12.297 33.983 31.193 35.62 14.258 1.039 21.194-5.352 26.189-12.187 2.711.865 5.768 1.811 9.184 2.817a2.924 2.924 0 0 0-.427.352zm6.821-114.04c-.144-.003-.293-.035-.531-.088-5.696-1.32-64.434-24.074-101.566-12.411-.167-2.032-.113-6.301.719-8.156l.004-.011c5.617-1.126 12.726-1.846 20.977-1.846 48.862 0 84.075 22.216 80.397 22.512zm-273.361 4.562l.042.029c2.975 3.198 4.223 7.666 3.516 11.94-1.098 6.149-8.066 7.392-12.673 12.167a12.936 12.936 0 0 0-.444.483l-.015.018c-2.07 2.383-2.791 5.094-2.622 7.513.364 6.29 5.95 8.059 8.857 6.901 0 0 3.448-.816 6.118-4.541l-.002.015c-.406 1.229-.322 3.215-2.412 6.174-3.425 4.852-11.292 9.787-22.443 7.424h.002c-2.061-.436-.907-.188-2.94-.761a7.71 7.71 0 0 1-.858-.283c-.639-.299-1.23-.505-1.797-.806-.294-.164-1.969-.924-3.986-2.443-12.535-16.18 8.696-45.523 31.657-43.83" fill="#e8b77b"/><path d="M301.644 255.012c1.058-1.547 1.341-2.715.914-3.201-.852-.996-3.897.349-8.394 2.101-11.508 4.293-19.987 4.947-34.996-.734-3.795-1.448-6.486-2.566-7.777-2.374-2.105.313-.067 4.166 4.533 7.904 9.256 7.384 21.968 9.676 32.831 5.633 4.755-1.75 10.095-5.243 12.889-9.329zm-2.28-11.772c-3.155 2.41-8.965 4.026-14.997 3.001-1.266-.193-2.435-.585-3.586-.894a8.249 8.249 0 0 1-1.218-.418c-2.494-1.051-4.653-2.183-6.748-4.191-2.404-2.323-3.087-4.48-2.392-5.011.683-.545 2.347.262 4.918 1.302 8.613 3.581 14.709 3.676 20.516 3.271 2.801-.188 4.675-.357 5.11.406.307.518-.25 1.502-1.603 2.534zm-185.486-44.176l.002-.002.003-.002a16.887 16.887 0 0 0 3.306-3.47c2.65-3.75 1.807-5.938 2.894-7.002.392-.385.952-.506 1.511-.278 1.502.62 2.24 3.009 2.381 4.676l.001.01c.377 4.009-1.742 8.514-4.55 11.706l-.007.009c-1.718 1.996-3.98 3.856-6.67 5.354a27.806 27.806 0 0 1-9.26 3.172c-5.941.924-11.785-.259-13.417-.746l.009.002c-.841-.244-1.881-.463-2.775-.814-9.689-3.778-16.065-10.715-18.902-19.901l-.001-.003-.001-.005a34.719 34.719 0 0 1-1.467-9.992c0-2.689.31-5.188.794-7.415v-.002l.001-.004-.001.004c.82-3.747 2.496-7.966 5.113-10.736l.008-.008c3.271-3.535 6.857-2.859 5.326.43-.365.911-2.341 4.635-2.607 11.376-.173 4.411.432 9.002 2.051 13.191.896 2.267 2.124 4.472 3.722 6.454 3.293 4.029 7.339 5.832 7.812 6.095.567.302 1.158.508 1.797.807.25.104.539.193.858.282 2.033.573.88.325 2.94.762h-.002c7.752 1.643 14.424-.154 19.131-3.95zm-1.654-14.969c-1.071.848-1.568 1.572-1.864 2.686-.437 2.03-.209 3.209 1.526 4.428 1.336.915 2.411 1.356 2.415 1.931.06 1.088-4.409 2.208-7.534-.868-2.594-2.764-3.413-8.526.726-13.017 4.608-4.972 11.774-6.145 12.89-12.397.147-.886.256-1.872.179-2.846.016-1.118-.358-2.727-.376-2.828-1.386-6.039-7.117-11.801-16.567-10.333-1.741.254-2.869.468-3.205-.013-.729-1.014 3.321-5.648 10.735-5.48 7.254.154 14.45 5.585 16.757 13.748.026.106.707 2.42.763 4.494.13 1.536.019 3.116-.267 4.769-1.89 10.482-12.305 12.635-16.178 15.726zm252.808 74.834c-2.867.447-5.687-2.377-6.301-6.308-.614-3.931 1.213-7.48 4.08-7.928 2.866-.447 5.687 2.377 6.301 6.308.613 3.931-1.214 7.48-4.08 7.928zm-31.496-11.467c-1.576-2.875.343-6.958 4.286-9.118 3.942-2.161 8.416-1.582 9.992 1.294 1.575 2.875-.343 6.958-4.287 9.118-3.943 2.16-8.416 1.581-9.991-1.294zM218.139 363.763c54.243 35.158 108.425 39.2 126.988 24.927l.003.006c-.034.093-.332.917-.448 1.143-4.713 10.015-15.711 17.001-25.508 19.804 1.719-1.785 4.205-5.053 5.21-6.995-7.393 5.078-17.218 9.55-27.471 11.675 0 0 1.221-.877 1.43-1.072 2.044-1.904 4.764-4.912 5.877-7.495-9.8 3.935-22.188 6.14-32.793 4.098-.149-.029-1.326-.307-1.326-.307s1.381-.343 1.688-.435c3.517-1.042 8.535-3.185 10.747-6.122-17.604 3.096-36.97-.331-47.414-6.171 1.343.056 1.33.062 2.466.032 3.842-.102 11.582-.624 14.832-2.692-11.104-2.258-27.174-7.225-35.824-14.665 1.527.178 10.195 1.283 13.742.713-47.615-27.247-69.285-68.441-69.285-68.441 14.038 18.293 32.25 35.9 57.086 51.997" fill="#976a4b"/><path d="M346.115 286.953c-.074 3.738.517 9.915 4.037 11.064l.007.002c6.015 2.086 13.979-13.318 14.345-26.995-4.753 2.38-10.338 3.39-16.082 2.892-1.444 4.403-2.136 8.551-2.307 13.037" fill="#61423f"/></g></svg>