<svg xmlns="http://www.w3.org/2000/svg" xmlns:xlink="http://www.w3.org/1999/xlink" viewBox="0.781 0 791.439 510" width="791.44" height="510"><defs><path d="M2.78 340c-1.11 0-2-.89-2-2V2c0-1.11.89-2 2-2H34.7c1.11 0 2 .89 2 2v7.69c0 1.1-.89 1.99-2 1.99H13.62v316.63H34.7a2 2 0 0 1 2 2V338c0 1.11-.89 2-2 2H2.78z" id="a"/><path d="M11.63 330.31H34.7V338H2.77V2H34.7v7.69H11.63v320.62z" id="b"/><path d="M219.67 233.16c-1.1 0-2-.9-2-2v-67.91c0-3.94-.15-7.7-.45-11.19-.29-3.27-1.07-6.14-2.33-8.51-1.2-2.27-3.01-4.11-5.37-5.46-2.39-1.36-5.76-2.05-10.02-2.05-4.23 0-7.65.8-10.19 2.36-2.56 1.6-4.59 3.7-6.04 6.25-1.49 2.63-2.5 5.68-3 9.04-.53 3.51-.79 7.11-.79 10.72v66.75c0 1.1-.9 2-2 2h-32.91c-1.1 0-2-.9-2-2v-67.21c0-3.43-.07-6.95-.22-10.46-.15-3.25-.77-6.27-1.84-8.98-1.02-2.56-2.66-4.57-5.03-6.14-2.37-1.54-6.02-2.33-10.84-2.33-1.37 0-3.26.33-5.62.97-2.27.63-4.52 1.82-6.69 3.57-2.15 1.73-4.03 4.3-5.59 7.64-1.57 3.35-2.36 7.86-2.36 13.4v69.54a2 2 0 0 1-2 2H69.47c-1.1 0-1.99-.9-1.99-2V111.33c0-1.1.89-2 1.99-2h31.06c1.1 0 2 .9 2 2v10.98c3.82-4.49 8.22-8.13 13.14-10.87 6.38-3.55 13.76-5.35 21.95-5.35 7.82 0 15.09 1.54 21.59 4.59 5.78 2.72 10.4 7.25 13.76 13.49 3.44-4.35 7.81-8.28 13.04-11.72 6.4-4.22 14.06-6.36 22.77-6.36 6.48 0 12.59.81 18.16 2.39 5.67 1.63 10.61 4.27 14.68 7.84 4.08 3.6 7.3 8.34 9.58 14.09 2.24 5.71 3.38 12.62 3.38 20.56v80.19a2 2 0 0 1-2 2h-32.91z" id="c"/><path d="M100.53 127.56h.46c4.33-6.18 9.54-10.98 15.65-14.38 6.1-3.39 13.1-5.09 20.98-5.09 7.57 0 14.48 1.47 20.74 4.4 6.26 2.94 11.01 8.11 14.26 15.53 3.55-5.25 8.38-9.89 14.48-13.91 6.11-4.01 13.33-6.02 21.68-6.02 6.33 0 12.2.77 17.61 2.32 5.41 1.54 10.05 4.01 13.91 7.41 3.86 3.4 6.87 7.85 9.04 13.33 2.16 5.49 3.25 12.09 3.25 19.82v80.19h-32.92v-67.91c0-4.01-.15-7.8-.46-11.36-.32-3.55-1.16-6.64-2.55-9.27-1.39-2.62-3.44-4.71-6.15-6.26-2.7-1.54-6.37-2.31-11.01-2.31-4.63 0-8.38.89-11.24 2.66-2.86 1.78-5.1 4.1-6.72 6.96-1.62 2.86-2.7 6.1-3.24 9.73-.55 3.63-.82 7.3-.82 11.01v66.75h-32.91v-67.21c0-3.55-.08-7.07-.23-10.55-.16-3.47-.81-6.68-1.97-9.62-1.16-2.93-3.09-5.29-5.8-7.07-2.7-1.77-6.68-2.66-11.93-2.66-1.55 0-3.6.34-6.14 1.04-2.55.7-5.03 2.01-7.42 3.94-2.4 1.93-4.45 4.72-6.15 8.34-1.7 3.64-2.55 8.39-2.55 14.26v69.53H69.47V111.33h31.06v16.23z" id="d"/><path d="M325.11 106.09l.46.01h.46l.46.01.46.01.46.01.46.01.46.02.46.01.46.02.47.02.46.02.46.02.47.02.46.03.46.02.47.03.46.03.47.03.47.04.46.03.47.04.46.04.47.04.47.04.47.04.46.05.47.04.47.05.47.05.46.05.47.05.47.06.47.05.47.06.47.06.46.06.47.06.47.06.48.07.47.07.48.07.47.08.47.08.46.09.47.08.46.09.46.1.46.09.46.1.46.1.45.11.45.11.45.11.45.12.45.11.44.13.44.12.44.13.44.13.44.13.43.14.43.14.43.14.43.15.43.15.42.15.42.16.42.16.41.16.42.17.41.16.41.18.41.17.4.18.41.18.4.18.4.19.39.19.4.19.4.2.39.21.39.21.39.21.38.22.38.22.38.22.37.23.37.24.37.23.36.24.36.25.36.25.35.25.35.26.34.26.34.26.34.27.33.27.33.28.33.28.32.28.32.29.32.29.31.29.31.3.3.3.3.31.3.31.29.31.29.32.29.32.28.33.28.32.27.34.27.33.27.34.26.35.26.34.26.36.25.36.25.37.24.38.23.38.23.39.22.39.21.4.21.4.2.41.19.42.19.42.18.42.17.44.17.43.16.45.16.45.14.45.15.46.13.47.13.47.12.47.12.49.11.48.1.5.09.49.09.51.08.51.08.51.07.52.06.53.06.53.05.53.04.54.04.55.03.55.02.56.02.56.01.57v63.71l.01.39v.4l.01.39v.4l.01.39.01.39.01.39.01.39.01.39.01.39.02.39.01.39.02.39.02.39.02.38.02.39.02.38.02.38.02.39.03.38.02.38.03.38.03.38.03.38.03.37.03.38.03.38.03.37.04.37.04.38.03.37.04.37.04.37.04.36.04.37.05.37.04.36.04.37.05.34.04.34.05.34.05.33.05.33.05.32.05.32.06.31.06.31.05.31.06.3.06.3.07.29.06.29.07.28.06.28.07.27.07.27.07.27.08.26.07.25.08.26.08.24.08.25.08.23.08.24.08.23.09.22.08.22.09.21.09.22.09.2.1.2.09.2.1.19.1.19.09.18.1.18.11.17.1.17.03.05.02.04.03.05.02.05.03.05.02.05.02.05.02.05.01.05.02.05.01.05.02.05.01.05.01.05.01.05.01.06v.05l.01.05v.32l-.01.05v.05l-.01.05-.01.06-.01.05-.01.05-.01.05-.02.05-.02.05-.01.05-.02.05-.02.05-.02.05-.03.05-.02.05-.03.05-.02.04-.03.05-.03.05-.03.04-.03.04-.03.05-.04.04-.03.04-.04.04-.03.03-.04.04-.04.04-.04.03-.04.04-.04.03-.04.03-.05.03-.04.03-.04.03-.05.03-.04.02-.05.03-.05.02-.04.02-.05.03-.05.02-.05.01-.05.02-.05.02-.05.01-.05.02-.05.01-.06.01-.05.01-.05.01h-.06l-.05.01h-33.73l-.06-.01-.07-.01-.06-.01-.06-.01-.06-.02-.06-.02-.06-.01-.06-.02-.05-.03-.06-.02-.06-.03-.05-.02-.06-.03-.05-.03-.05-.03-.05-.04-.06-.03-.04-.04-.05-.04-.05-.04-.04-.04-.05-.04-.04-.04-.04-.05-.04-.05-.04-.04-.04-.05-.04-.05-.03-.05-.04-.06-.03-.05-.03-.06-.03-.05-.02-.06-.03-.06-.02-.06-.02-.06-.05-.14-.05-.15-.05-.15-.04-.14-.05-.15-.04-.14-.05-.15-.04-.15-.05-.14-.04-.15-.05-.15-.04-.15-.04-.14-.05-.15-.04-.15-.04-.15-.04-.14-.04-.15-.04-.15-.04-.15-.04-.15-.04-.15-.04-.15-.03-.14-.04-.15-.04-.15-.03-.15-.04-.15-.03-.15-.04-.15-.03-.15-.04-.15-.03-.15-.03-.15-.04-.14-.03-.15-.03-.15-.03-.15-.03-.15-.03-.15-.01-.05-.01-.06-.01-.05-.01-.05-.01-.05-.01-.05-.01-.06-.01-.05-.01-.05-.01-.05-.01-.06-.01-.05-.01-.05-.01-.05-.01-.06-.01-.05-.01-.05-.01-.06-.01-.05-.01-.05-.01-.05-.01-.06-.01-.05-.01-.05-.01-.06-.01-.05-.01-.05v-.05l-.01-.06-.01-.05-.01-.05-.01-.06-.01-.05-.01-.05-.01-.06-.01-.05v-.06l-.01-.05-.01-.05-.01-.06-.36.31-.37.31-.36.3-.37.3-.38.3-.37.29-.38.28-.38.28-.38.28-.39.27-.39.27-.39.26-.39.26-.4.26-.39.25-.4.25-.41.24-.4.24-.41.23-.41.23-.41.23-.42.22-.42.22-.42.21-.42.21-.42.2-.43.2-.43.19-.43.19-.44.19-.43.18-.44.18-.44.17-.45.17-.44.16-.45.16-.45.16-.45.15-.46.15-.45.14-.55.16-.55.16-.55.16-.55.15-.55.15-.55.14-.55.14-.55.13-.55.13-.56.13-.55.12-.56.12-.55.12-.56.11-.56.1-.56.11-.56.09-.55.1-.56.09-.56.08-.56.09-.57.07-.56.08-.56.06-.56.07-.57.06-.56.06-.56.05-.57.05-.56.04-.57.04-.56.04-.57.03-.56.03-.57.02-.57.02-.56.01-.57.01-.57.01h-.56l-.57-.04-.56-.03-.55-.04-.55-.04-.53-.04-.53-.04-.52-.05-.51-.04-.51-.04-.49-.05-.49-.04-.48-.05-.48-.05-.46-.04-.46-.05-.45-.05-.44-.05-.43-.06-.43-.05-.41-.05-.41-.06-.41-.05-.39-.06-.38-.05-.38-.06-.37-.06-.36-.06-.36-.06-.34-.06-.34-.07-.33-.06-.32-.06-.32-.07-.31-.06-.29-.07-.3-.07-.28-.07-.27-.07-.27-.07-.26-.07-.39-.11-.38-.11-.38-.12-.39-.12-.37-.12-.38-.13-.37-.13-.38-.13-.37-.14-.36-.14-.37-.14-.36-.15-.36-.15-.36-.15-.36-.15-.35-.16-.35-.16-.35-.17-.35-.16-.34-.17-.34-.18-.34-.17-.34-.18-.33-.18-.33-.19-.33-.19-.33-.19-.32-.19-.33-.2-.32-.2-.31-.21-.32-.2-.31-.21-.31-.21-.3-.22-.31-.22-.3-.22-.3-.22-.3-.23-.29-.23-.29-.24-.29-.23-.29-.25-.29-.24-.28-.25-.27-.25-.28-.25-.27-.26-.27-.26-.27-.27-.26-.26-.26-.27-.25-.28-.26-.27-.25-.28-.24-.29-.25-.28-.24-.29-.23-.29-.24-.3-.23-.3-.22-.3-.23-.3-.22-.31-.22-.31-.21-.31-.21-.32-.21-.32-.2-.32-.2-.33-.2-.33-.2-.33-.19-.33-.18-.34-.19-.34-.18-.34-.18-.35-.17-.35-.17-.35-.17-.35-.16-.36-.16-.36-.16-.36-.15-.37-.14-.37-.15-.37-.13-.38-.14-.38-.13-.38-.13-.39-.12-.39-.12-.39-.11-.4-.11-.4-.11-.41-.1-.4-.09-.41-.1-.42-.09-.41-.08-.42-.08-.43-.08-.42-.07-.43-.07-.44-.07-.43-.06-.44-.05-.45-.05-.44-.05-.45-.05-.45-.04-.46-.03-.46-.03-.46-.03-.46-.02-.47-.02-.47-.02-.47-.01-.48v-.48l-.01-.48.01-.53v-.53l.02-.52.01-.52.03-.51.02-.51.03-.51.04-.5.04-.5.05-.49.05-.49.05-.48.06-.48.07-.47.07-.47.07-.47.08-.46.09-.46.08-.45.1-.44.1-.45.1-.43.11-.44.11-.43.12-.42.12-.42.13-.42.13-.41.14-.4.14-.4.14-.4.15-.39.16-.38.16-.39.17-.37.17-.38.17-.36.18-.36.18-.36.19-.36.19-.34.2-.35.2-.34.2-.34.2-.33.21-.33.21-.33.21-.33.21-.32.22-.32.22-.31.22-.31.23-.31.23-.3.23-.3.24-.3.24-.29.24-.29.24-.29.25-.28.25-.28.25-.28.25-.27.26-.27.26-.27.26-.26.27-.26.27-.25.27-.26.27-.24.28-.25.28-.24.28-.24.29-.23.28-.23.29-.22.3-.23.29-.22.3-.21.3-.21.3-.21.3-.2.3-.2.31-.2.3-.19.31-.19.32-.19.31-.19.32-.18.31-.19.32-.18.33-.17.32-.18.33-.17.33-.17.33-.16.33-.17.34-.16.34-.16.34-.16.34-.15.34-.15.35-.15.35-.15.35-.14.35-.14.35-.14.36-.14.35-.13.36-.13.37-.13.36-.12.37-.12.36-.12.37-.12.37-.11.38-.12.37-.11.38-.1.38-.11.36-.09.37-.1.37-.1.37-.09.37-.1.37-.09.37-.09.37-.1.37-.09.37-.09.37-.09.37-.08.37-.09.37-.09.38-.08.37-.09.37-.08.38-.08.37-.08.37-.08.38-.08.37-.08.38-.08.37-.07.38-.08.37-.07.38-.08.37-.07.38-.07.37-.07.38-.07.38-.07.37-.06.38-.07.37-.06.38-.07.38-.06.37-.06.38-.06.37-.06.38-.06.37-.06.37-.05.37-.06.38-.06.37-.05.37-.05.37-.06.38-.05.37-.05.37-.06.37-.05.37-.05.37-.05.37-.05.37-.05.37-.05.37-.05.37-.04.37-.05.37-.05.37-.04.37-.05.36-.04.37-.05.37-.04.36-.04.37-.05.36-.04.37-.04.36-.04.37-.04.36-.04.36-.04.37-.04.36-.03.36-.04.36-.04.36-.03.36-.04.35-.03.35-.04.34-.03.35-.04.34-.04.34-.04.34-.04.33-.04.34-.04.33-.04.33-.04.33-.05.33-.04.32-.05.33-.04.32-.05.32-.05.31-.05.32-.05.31-.05.31-.05.31-.05.31-.06.3-.05.31-.05.3-.06.3-.06.29-.05.3-.06.29-.06.29-.06.29-.06.29-.06.28-.06.28-.07.28-.06.28-.07.28-.06.27-.07.27-.06.26-.07.25-.06.25-.07.24-.07.24-.07.25-.07.23-.08.24-.07.23-.08.23-.07.23-.08.22-.08.22-.08.22-.09.22-.08.21-.09.21-.08.21-.09.21-.09.2-.09.2-.1.2-.09.19-.09.19-.1.19-.1.19-.1.18-.1.18-.1.18-.1.17-.11.17-.1.17-.11.17-.11.16-.11.16-.11.16-.11.15-.12.15-.11.15-.12.14-.12.13-.1.12-.11.11-.11.12-.11.1-.11.11-.12.1-.11.1-.13.1-.12.09-.12.09-.13.08-.13.09-.14.08-.13.07-.14.07-.14.07-.15.07-.14.06-.15.06-.15.05-.16.05-.15.05-.16.05-.16.04-.17.04-.17.03-.17.04-.17.02-.17.03-.18.02-.18.02-.19.02-.18.01-.19.01-.19v-.8l-.01-.2v-.49l-.01-.24v-.23l-.01-.24-.01-.23-.02-.23-.01-.22-.02-.22-.01-.22-.02-.22-.02-.21-.03-.21-.02-.21-.03-.2-.03-.21-.03-.2-.03-.19-.04-.2-.03-.19-.04-.18-.04-.19-.04-.18-.05-.18-.04-.18-.05-.17-.05-.17-.05-.17-.05-.17-.06-.16-.06-.16-.05-.16-.06-.15-.07-.15-.06-.15-.07-.15-.06-.14-.07-.14-.07-.14-.08-.13-.07-.13-.08-.14-.08-.13-.07-.13-.08-.12-.09-.13-.08-.12-.08-.12-.08-.12-.09-.12-.09-.12-.08-.12-.09-.11-.09-.11-.09-.11-.09-.11-.1-.11-.09-.11-.1-.1-.09-.11-.1-.1-.1-.1-.1-.1-.1-.1-.11-.09-.1-.1-.11-.09-.1-.09-.11-.09-.11-.09-.11-.09-.11-.08-.12-.09-.11-.08-.12-.08-.11-.08-.12-.08-.12-.08-.12-.07-.13-.08-.12-.07-.13-.08-.13-.07-.13-.07-.14-.07-.13-.07-.14-.07-.13-.07-.14-.07-.14-.06-.14-.06-.14-.07-.14-.06-.14-.06-.15-.05-.14-.06-.15-.06-.15-.05-.15-.06-.15-.05-.15-.05-.15-.05-.15-.05-.16-.04-.15-.05-.16-.04-.15-.05-.16-.04-.16-.04-.16-.04-.16-.04-.17-.04-.16-.03-.16-.04-.17-.03-.17-.03-.16-.03-.17-.03-.17-.03-.17-.03-.19-.02-.18-.03-.19-.03-.19-.02-.19-.03-.19-.02-.19-.02-.19-.03-.19-.02-.19-.02-.19-.02-.19-.02-.2-.02-.19-.02-.2-.01-.19-.02-.2-.02-.2-.01-.19-.02-.2-.01-.2-.02-.2-.01-.2-.01-.2-.01-.2-.01-.21-.01-.2-.01-.2-.01-.21-.01-.2-.01h-.2l-.21-.01h-.21l-.2-.01h-.21l-.21-.01h-1.28l-.44.01-.44.01-.44.02-.43.02-.42.02-.42.04-.42.03-.41.04-.4.05-.41.05-.39.05-.39.06-.39.06-.38.07-.37.08-.37.07-.37.09-.36.08-.36.1-.35.09-.34.1-.34.11-.34.11-.33.12-.33.12-.32.12-.31.13-.31.14-.31.14-.3.14-.29.15-.29.15-.29.16-.28.16-.27.17-.27.17-.26.18-.26.18-.25.18-.24.19-.24.19-.23.2-.22.2-.22.21-.22.22-.21.23-.2.23-.2.24-.2.24-.19.25-.18.26-.18.26-.18.27-.17.28-.16.28-.16.3-.16.29-.15.31-.14.31-.14.31-.14.33-.13.32-.12.34-.12.34-.12.35-.11.36-.11.36-.1.37-.09.37-.09.38-.09.39-.08.39-.07.4-.07.41-.06.41-.06.42-.06.42-.05.43-.04.44-.01.08-.01.07-.02.08-.01.07-.02.07-.03.07-.02.07-.03.07-.03.07-.03.06-.03.07-.04.06-.04.06-.04.06-.04.06-.05.06-.05.05-.04.06-.06.05-.05.05-.05.05-.06.04-.06.04-.05.05-.07.04-.06.03-.06.04-.07.03-.06.03-.07.03-.07.02-.07.03-.07.02-.07.02-.07.01-.08.01-.07.01-.08.01-.07.01h-33.08l-.04-.01h-.08l-.04-.01h-.04l-.04-.01-.04-.01h-.04l-.04-.01-.04-.01-.04-.01-.04-.01-.04-.02-.03-.01-.04-.01-.04-.02-.04-.01-.04-.02-.03-.01-.04-.02-.04-.02-.03-.02-.04-.02-.03-.02-.04-.02-.03-.02-.04-.02-.03-.02-.03-.03-.03-.02-.04-.03-.03-.02-.03-.03-.03-.03-.03-.02-.03-.03-.03-.03-.03-.03-.03-.03-.02-.03-.03-.03-.02-.03-.03-.04-.02-.03-.03-.03-.02-.04-.02-.03-.02-.03-.03-.04-.02-.03-.01-.04-.02-.04-.02-.03-.02-.04-.01-.04-.02-.03-.02-.04-.01-.04-.01-.04-.02-.03-.01-.04-.01-.04-.01-.04-.01-.04-.01-.04v-.04l-.01-.04-.01-.04v-.04l-.01-.04v-.04l-.01-.04v-.25l.04-.6.05-.6.05-.59.06-.59.06-.58.07-.58.07-.57.08-.57.09-.56.09-.56.1-.55.1-.55.11-.55.12-.54.12-.53.13-.53.13-.52.14-.52.14-.52.16-.51.15-.5.16-.5.17-.5.18-.48.18-.49.18-.48.19-.47.2-.47.2-.46.21-.46.21-.45.22-.45.23-.44.23-.44.24-.43.24-.43.25-.42.26-.42.26-.41.26-.4.27-.4.27-.39.28-.39.27-.39.29-.38.28-.38.3-.37.29-.37.3-.37.3-.36.31-.36.31-.36.31-.35.32-.35.32-.35.32-.34.33-.33.33-.34.34-.33.34-.32.34-.32.35-.32.35-.31.36-.31.35-.31.37-.3.36-.3.37-.29.37-.29.38-.29.38-.28.38-.28.39-.27.39-.27.39-.26.4-.27.4-.25.4-.26.41-.25.41-.24.41-.24.41-.23.41-.23.42-.23.41-.22.43-.22.42-.22.43-.22.43-.21.43-.2.43-.21.44-.2.44-.19.44-.2.45-.19.45-.18.45-.19.45-.18.46-.17.46-.18.46-.17.46-.16.47-.17.47-.16.47-.15.47-.15.48-.15.47-.15.49-.14.48-.14.48-.13.49-.14.49-.12.49-.13.5-.12.5-.12.5-.11.5-.11.5-.11.51-.1.5-.1.5-.1.5-.09.5-.09.5-.09.51-.09.5-.08.5-.08.51-.08.5-.08.51-.07.5-.07.5-.07.51-.07.51-.06.5-.06.51-.06.5-.06.51-.05.51-.06.5-.04.51-.05.51-.05.5-.04.51-.04.51-.03.5-.04.51-.03.51-.03.5-.02.51-.03.51-.02.51-.02.5-.01.51-.02.51-.01.5-.01.51-.01h1.92zm16.54 70.27l-.13.06-.13.06-.12.05-.12.05-.12.05-.11.05-.12.05-.11.05-.11.05-.1.04-.11.04-.1.05-.1.04-.09.03-.1.04-.09.04-.09.03-.08.03-.09.03-.08.03-.08.03-.08.03-.07.02-.26.09-.26.08-.26.09-.27.08-.27.08-.26.08-.27.08-.28.08-.27.07-.27.08-.28.07-.28.08-.28.07-.28.07-.28.07-.28.07-.29.07-.29.06-.28.07-.29.06-.3.07-.29.06-.29.06-.3.06-.29.06-.29.05-.3.06-.29.05-.3.06-.3.05-.3.05-.3.06-.3.05-.31.05-.3.05-.31.05-.3.04-.31.05-.31.05-.31.04-.31.05-.31.04-.32.05-.31.04-.32.04-.31.04-.32.04-.32.04-.31.04-.32.04-.32.04-.31.03-.32.04-.31.04-.32.04-.31.05-.31.04-.32.04-.31.04-.31.05-.31.04-.32.05-.31.04-.31.05-.31.05-.31.04-.31.05-.31.05-.3.05-.31.05-.31.05-.3.05-.31.06-.3.05-.31.05-.28.05-.28.06-.28.06-.28.05-.28.06-.28.06-.28.06-.28.07-.28.06-.28.07-.29.07-.28.07-.28.07-.28.07-.28.08-.29.08-.28.07-.28.08-.28.08-.28.09-.29.08-.28.08-.28.09-.28.09-.28.09-.26.09-.26.08-.26.1-.25.09-.25.09-.25.1-.24.1-.25.11-.24.1-.23.11-.24.11-.23.11-.23.11-.22.12-.22.12-.22.12-.22.12-.21.12-.21.13-.21.13-.2.13-.2.13-.2.14-.2.14-.19.14-.18.13-.18.14-.18.14-.17.15-.17.15-.17.15-.16.16-.17.16-.16.16-.16.16-.15.17-.15.17-.15.17-.15.18-.14.18-.14.18-.14.19-.14.18-.13.19-.13.2-.12.2-.13.19-.12.21-.11.2-.12.21-.11.21-.1.21-.1.22-.09.22-.09.23-.09.23-.08.24-.08.24-.07.25-.07.26-.07.25-.06.27-.05.27-.05.27-.05.28-.04.28-.04.29-.03.3-.03.29-.03.31-.02.3-.01.32-.01.31-.01.33v.63l.01.31.01.3.01.29.02.3.03.29.03.28.03.28.04.28.04.27.05.27.05.26.05.26.06.25.07.26.07.24.07.24.08.24.08.23.08.23.09.23.1.22.1.21.1.21.11.21.11.2.12.2.12.2.12.19.12.19.13.19.13.18.13.18.13.17.14.17.14.17.15.16.15.16.15.15.15.16.16.15.16.14.16.14.17.14.17.14.17.13.18.13.18.13.18.12.19.12.2.12.2.12.2.11.21.12.21.11.21.1.22.11.22.1.22.1.22.09.23.1.23.09.23.08.24.09.24.08.24.07.24.08.25.07.24.07.26.07.25.06.26.06.25.06.27.05.26.05.28.05.28.05.29.05.28.05.29.04.28.04.29.04.29.04.29.03.28.03.3.03.29.03.29.03.29.02.29.03.3.02.29.02.3.01.29.01.3.02.3.01h.29l.3.01h1.32l.71-.02.7-.02.69-.03.67-.05.66-.05.64-.06.63-.07.62-.08.6-.09.59-.1.58-.11.56-.12.55-.13.53-.13.52-.15.51-.16.49-.16.48-.18.47-.18.45-.19.44-.21.42-.21.41-.22.39-.23.38-.24.38-.24.37-.25.36-.25.35-.25.35-.26.33-.26.33-.26.32-.27.31-.27.31-.28.3-.28.28-.28.28-.28.27-.29.27-.3.25-.29.25-.3.24-.31.23-.3.22-.31.21-.32.21-.31.19-.32.19-.33.19-.33.18-.33.17-.34.17-.33.16-.34.15-.33.16-.34.14-.33.14-.34.13-.34.13-.33.12-.34.12-.34.11-.34.1-.33.1-.34.09-.34.09-.34.08-.34.07-.33.07-.34.06-.34.06-.34.05-.33.05-.34.04-.36.04-.35.04-.35.04-.34.04-.34.03-.33.04-.32.03-.32.03-.31.03-.3.02-.3.03-.3.02-.28.02-.29.02-.27.02-.27.01-.26.02-.26.01-.25.01-.24.01-.24v-.23l.01-.23v-9l-.13.06-.13.06z" id="e"/><path d="M325.11 108.09h.45l.45.01h.46l.45.01.45.01.46.02.45.01.46.01.45.02.46.02.45.02.46.02.46.02.45.03.46.03.46.02.45.03.46.03.46.04.46.03.46.04.45.03.46.04.46.04.46.05.46.04.46.05.46.04.46.05.46.05.47.05.46.06.46.05.46.06.46.06.47.05.46.07.46.06.47.06.46.07.45.07.46.08.46.08.45.08.45.08.45.09.44.09.45.09.44.1.44.1.44.1.43.1.44.11.43.11.43.11.43.12.43.12.42.13.42.12.42.13.42.13.42.14.41.14.41.14.41.14.41.15.4.15.41.15.4.16.4.16.4.16.39.17.4.17.39.17.39.17.39.18.38.18.39.18.38.19.37.19.38.2.37.19.36.21.37.2.36.21.35.21.36.22.35.22.34.22.34.23.34.23.34.23.33.24.33.24.32.25.33.25.31.25.32.26.31.26.31.26.3.27.3.27.3.27.29.28.29.28.29.29.28.28.28.3.28.29.27.3.27.3.27.31.26.31.26.32.26.31.25.32.25.33.24.33.24.33.24.34.22.34.23.35.21.36.21.36.21.36.19.37.2.38.18.38.18.38.17.4.17.39.16.41.16.4.15.42.14.42.14.42.13.43.12.44.12.44.11.44.11.45.1.46.09.46.09.47.08.47.08.48.07.48.06.49.06.49.05.5.05.51.04.51.03.51.03.52.02.53.02.53.01.54v64.1l.01.4v.4l.01.4.01.4.01.4.01.4.01.4.01.4.01.39.02.4.01.39.02.39.02.4.02.39.02.39.02.39.02.39.02.38.03.39.03.39.02.38.03.39.03.38.03.38.03.38.04.38.03.38.04.38.03.38.04.38.04.37.04.38.04.37.04.38.05.37.04.37.05.37.04.37.05.37.05.36.06.35.05.35.06.35.05.34.06.33.06.34.07.32.06.32.07.32.06.32.07.3.08.31.07.3.07.29.08.29.08.29.08.28.08.27.09.27.08.27.09.26.09.26.09.25.09.25.09.24.1.24.1.24.1.23.1.22.1.22.11.22.1.21.11.2.11.2.11.2.12.19.11.19h-33.37l-.05-.14-.05-.14-.04-.14-.05-.14-.04-.14-.05-.14-.04-.14-.04-.14-.05-.14-.04-.14-.04-.14-.04-.14-.04-.14-.04-.14-.04-.14-.04-.14-.04-.14-.04-.15-.04-.14-.04-.14-.03-.14-.04-.14-.04-.15-.03-.14-.04-.14-.03-.14-.04-.15-.03-.14-.04-.14-.03-.15-.03-.14-.04-.14-.03-.15-.03-.14-.03-.15-.03-.14-.03-.14-.03-.15-.03-.14-.03-.15-.03-.14-.03-.15-.03-.14-.03-.15-.02-.14-.03-.15-.03-.14-.02-.15-.03-.15-.02-.14-.03-.15-.02-.15-.02-.14-.03-.15-.02-.15-.02-.14-.02-.15-.03-.15-.02-.14-.02-.15-.02-.15-.02-.15-.02-.15-.01-.14-.02-.15-.02-.15-.02-.15-.01-.15-.02-.15-.02-.15-.01-.15-.02-.15-.01-.15-.02-.15-.01-.15-.01-.15-.02-.15-.01-.15-.01-.15-.01-.15-.4.41-.4.39-.4.39-.41.39-.41.37-.41.38-.42.36-.42.36-.42.36-.43.35-.43.34-.43.33-.44.33-.44.33-.45.31-.44.31-.46.31-.45.3-.46.29-.46.29-.47.28-.46.27-.48.27-.47.27-.48.25-.48.25-.49.25-.49.24-.49.23-.5.22-.5.22-.5.22-.51.21-.51.2-.51.19-.52.19-.52.19-.53.17-.52.18-.53.16-.54.16-.53.16-.54.15-.53.15-.54.14-.53.14-.54.14-.54.13-.54.13-.54.12-.53.12-.54.11-.54.12-.55.1-.54.11-.54.1-.54.09-.55.09-.54.09-.54.08-.55.08-.54.08-.55.07-.55.06-.54.07-.55.06-.55.05-.55.05-.55.05-.55.04-.55.04-.55.03-.55.04-.56.02-.55.02-.55.02-.56.02-.55.01h-1.97l-.42-.01-.43-.01-.42-.01-.42-.01-.42-.02-.42-.02-.42-.02-.41-.03-.41-.02-.42-.03-.41-.04-.41-.03-.4-.04-.41-.04-.41-.04-.4-.05-.4-.05-.4-.05-.4-.05-.4-.06-.4-.06-.39-.06-.39-.06-.4-.07-.39-.07-.38-.07-.39-.07-.39-.08-.38-.08-.39-.08-.38-.08-.38-.09-.38-.09-.37-.09-.38-.1-.37-.1-.38-.1-.37-.1-.37-.11-.37-.1-.36-.12-.36-.11-.36-.12-.36-.12-.36-.12-.35-.13-.35-.13-.35-.13-.35-.13-.34-.14-.34-.14-.34-.14-.34-.15-.34-.15-.33-.15-.33-.16-.33-.16-.32-.16-.33-.16-.32-.17-.32-.17-.31-.17-.32-.17-.31-.18-.31-.18-.3-.19-.31-.19-.3-.18-.3-.2-.3-.19-.29-.2-.3-.2-.29-.21-.29-.21-.28-.21-.29-.21-.28-.22-.28-.21-.27-.23-.28-.22-.27-.23-.27-.23-.26-.23-.26-.24-.26-.24-.26-.24-.25-.24-.25-.25-.24-.25-.25-.25-.24-.26-.23-.26-.24-.26-.23-.27-.23-.26-.22-.27-.22-.28-.22-.27-.22-.28-.21-.29-.21-.28-.21-.29-.2-.29-.2-.29-.2-.3-.19-.3-.2-.3-.18-.31-.19-.31-.18-.31-.18-.31-.18-.32-.17-.32-.17-.32-.17-.33-.16-.33-.16-.33-.16-.34-.16-.33-.15-.34-.14-.35-.15-.35-.13-.35-.14-.35-.13-.36-.13-.36-.12-.36-.12-.37-.12-.37-.11-.37-.1-.37-.11-.38-.1-.39-.09-.38-.1-.39-.08-.39-.09-.4-.08-.4-.07-.4-.08-.4-.07-.41-.06-.41-.06-.42-.06-.41-.05-.42-.05-.43-.04-.42-.05-.43-.03-.44-.04-.43-.03-.44-.02-.45-.02-.44-.02-.45-.01-.45-.01-.46-.01-.46v-.97l.01-.5.01-.5.01-.49.02-.49.03-.49.03-.48.03-.48.04-.47.04-.46.05-.47.05-.45.06-.46.06-.45.06-.44.07-.44.08-.44.08-.43.08-.43.09-.42.09-.42.1-.41.1-.41.1-.4.11-.4.12-.4.12-.39.12-.39.13-.38.13-.38.14-.37.14-.37.15-.36.15-.36.15-.35.16-.35.16-.35.17-.34.18-.34.17-.33.19-.33.18-.32.18-.33.19-.32.19-.31.2-.31.19-.31.2-.31.21-.3.2-.3.21-.29.21-.3.21-.28.21-.29.22-.28.22-.28.22-.28.23-.27.23-.27.23-.26.23-.26.24-.26.23-.26.24-.25.25-.25.24-.24.25-.25.25-.23.26-.24.26-.23.25-.23.27-.23.26-.22.27-.22.27-.21.27-.21.28-.21.27-.21.28-.2.29-.2.28-.2.29-.19.29-.19.29-.19.29-.18.3-.19.29-.18.3-.18.3-.17.31-.18.3-.17.31-.17.31-.16.31-.17.31-.16.32-.16.32-.15.31-.16.33-.15.32-.15.33-.14.32-.15.33-.14.33-.14.34-.13.33-.14.34-.13.34-.13.34-.13.35-.12.34-.12.35-.12.35-.12.35-.11.36-.12.35-.11.36-.1.36-.11.36-.1.37-.1.36-.1.37-.09.36-.1.37-.09.36-.1.37-.09.36-.09.37-.09.37-.09.36-.09.37-.09.37-.09.36-.08.37-.09.37-.08.36-.08.37-.09.37-.08.37-.08.37-.07.36-.08.37-.08.37-.07.37-.08.37-.07.37-.08.36-.07.37-.07.37-.07.37-.07.37-.06.37-.07.37-.07.37-.06.37-.06.37-.07.37-.06.37-.06.37-.06.37-.06.37-.06.37-.05.37-.06.37-.06.37-.05.37-.06.37-.05.37-.05.37-.06.37-.05.37-.05.36-.05.37-.05.37-.05.36-.05.37-.05.37-.05.36-.05.37-.04.36-.05.37-.05.36-.04.37-.05.36-.04.36-.04.37-.05.36-.04.36-.04.37-.04.36-.04.36-.05.36-.03.36-.04.37-.04.36-.04.36-.04.36-.03.36-.04.36-.04.36-.03.35-.04.36-.03.36-.04.35-.04.35-.04.35-.04.34-.04.35-.04.34-.04.34-.04.34-.05.33-.04.34-.05.33-.04.33-.05.33-.05.32-.05.32-.05.33-.05.32-.05.31-.05.32-.06.31-.05.32-.06.3-.05.31-.06.31-.06.3-.06.3-.06.3-.06.3-.06.3-.06.29-.06.29-.07.29-.06.29-.07.28-.06.28-.07.29-.07.28-.07.27-.07.28-.07.27-.07.26-.08.27-.08.26-.07.26-.08.26-.09.25-.08.25-.08.25-.09.24-.09.25-.09.24-.09.23-.09.23-.09.23-.1.23-.1.23-.1.22-.1.22-.1.21-.1.22-.11.21-.11.2-.1.21-.11.2-.12.2-.11.19-.11.19-.12.19-.12.19-.12.19-.12.18-.12.18-.13.17-.12.17-.13.17-.13.17-.13.16-.13.16-.14.16-.14.15-.14.15-.14.14-.15.14-.15.13-.15.13-.16.13-.16.12-.16.11-.16.12-.17.1-.17.11-.18.1-.18.09-.18.09-.18.09-.19.08-.19.08-.19.07-.19.07-.2.06-.2.06-.21.06-.21.05-.21.05-.21.04-.22.04-.22.03-.22.03-.23.03-.23.02-.23.02-.24.01-.23.01-.25v-.74l-.01-.25v-.27l-.01-.26v-.26l-.01-.25-.01-.26-.01-.25-.02-.25-.01-.24-.02-.25-.02-.24-.03-.24-.02-.23-.03-.23-.03-.23-.03-.23-.03-.22-.04-.22-.04-.22-.04-.22-.04-.21-.04-.21-.05-.21-.05-.2-.05-.2-.05-.2-.06-.2-.06-.19-.06-.19-.06-.19-.06-.19-.07-.18-.07-.18-.07-.18-.07-.17-.07-.17-.08-.17-.08-.17-.08-.16-.09-.16-.08-.16-.09-.16-.09-.15-.09-.15-.09-.15-.09-.15-.1-.15-.1-.14-.09-.15-.1-.14-.1-.14-.11-.14-.1-.13-.1-.14-.11-.13-.11-.13-.11-.13-.11-.13-.11-.12-.11-.13-.12-.12-.12-.12-.11-.12-.12-.12-.12-.11-.13-.12-.12-.11-.13-.11-.12-.11-.13-.11-.13-.1-.13-.11-.13-.1-.14-.1-.13-.1-.14-.09-.14-.1-.14-.09-.14-.09-.14-.09-.15-.09-.14-.08-.15-.09-.15-.08-.15-.08-.15-.08-.15-.08-.15-.08-.15-.08-.16-.07-.15-.07-.16-.08-.16-.07-.16-.07-.16-.06-.16-.07-.16-.06-.17-.07-.16-.06-.17-.06-.17-.06-.16-.05-.17-.06-.18-.05-.17-.06-.17-.05-.18-.05-.17-.05-.18-.04-.18-.05-.17-.04-.18-.05-.19-.04-.18-.04-.18-.04-.19-.03-.18-.04-.19-.03-.19-.04-.19-.03-.19-.03-.19-.03-.19-.02-.19-.03-.2-.03-.19-.02-.2-.03-.19-.02-.2-.02-.2-.03-.2-.02-.2-.02-.2-.02-.2-.02-.2-.02-.2-.02-.2-.02-.2-.01-.21-.02-.2-.02-.21-.01-.21-.01-.2-.02-.21-.01-.21-.01-.21-.01-.21-.01-.21-.01-.21-.01-.21-.01-.21-.01-.22-.01h-.21l-.21-.01h-.22l-.22-.01h-.43l-.22-.01h-.44l-.48.01h-.48l-.47.02-.47.02-.46.02-.46.03-.46.03-.44.04-.45.04-.43.05-.44.06-.42.06-.42.06-.42.07-.41.08-.41.08-.4.09-.39.09-.39.1-.39.1-.38.1-.37.12-.37.11-.37.13-.36.12-.35.14-.35.14-.34.14-.34.15-.33.15-.33.16-.32.16-.32.17-.31.18-.31.18-.3.18-.3.19-.29.2-.28.2-.28.21-.28.21-.27.22-.26.22-.26.24-.25.24-.25.24-.24.26-.23.26-.23.27-.23.27-.21.28-.22.29-.2.3-.2.3-.2.31-.18.31-.19.33-.17.33-.17.34-.17.34-.16.35-.15.36-.15.36-.14.38-.14.38-.13.38-.12.39-.12.4-.12.41-.1.41-.1.43-.1.42-.09.44-.08.44-.08.45-.07.45-.07.46-.06.47-.06.48-.05.48h-32.91l.04-.57.04-.58.05-.56.05-.56.06-.56.07-.55.07-.55.07-.54.09-.54.08-.53.1-.53.09-.52.11-.52.11-.52.11-.5.12-.51.13-.49.13-.5.13-.49.15-.48.14-.48.16-.47.15-.47.17-.46.17-.46.17-.46.18-.45.19-.44.19-.44.2-.43.2-.43.21-.43.21-.42.22-.41.23-.41.23-.4.23-.4.25-.4.24-.39.26-.38.25-.38.26-.38.27-.37.26-.37.27-.37.28-.36.27-.36.29-.35.28-.35.29-.35.29-.34.29-.34.3-.34.3-.33.31-.33.31-.32.31-.32.32-.32.32-.31.32-.31.33-.3.32-.3.34-.3.33-.3.35-.29.34-.28.35-.29.35-.27.35-.28.36-.27.36-.27.36-.26.37-.26.37-.26.38-.25.38-.25.38-.25.38-.24.39-.23.4-.24.39-.23.4-.23.4-.22.4-.22.41-.22.4-.21.41-.21.42-.21.41-.2.42-.2.42-.2.42-.19.42-.19.43-.19.43-.18.43-.18.44-.18.44-.17.43-.17.45-.17.44-.16.45-.16.45-.16.45-.15.45-.15.46-.15.46-.14.46-.14.47-.14.46-.13.47-.13.47-.13.48-.12.47-.12.48-.12.48-.11.49-.11.48-.11.49-.1.5-.1.49-.1.49-.1.49-.09.5-.09.49-.09.49-.08.5-.08.49-.08.49-.08.5-.08.49-.07.5-.07.49-.07.49-.06.5-.06.49-.06.5-.06.49-.06.5-.05.49-.05.5-.05.5-.05.49-.04.5-.04.49-.04.5-.03.5-.04.49-.03.5-.03.5-.02.49-.03.5-.02.5-.01.5-.02.49-.01.5-.02h.5l.5-.01h.49l.5-.01.46.01h.45zm18.49 64.69l-.15.13-.16.12-.16.13-.17.12-.16.12-.17.12-.17.11-.18.11-.17.11-.18.11-.19.11-.18.1-.19.11-.19.1-.19.1-.2.09-.2.1-.2.09-.2.09-.21.09-.21.08-.21.09-.21.08-.22.08-.22.07-.22.08-.22.07-.23.08-.23.07-.22.07-.23.07-.23.07-.23.07-.24.07-.23.06-.23.07-.24.07-.24.06-.24.06-.23.07-.25.06-.24.06-.24.06-.24.06-.25.05-.25.06-.24.06-.25.05-.25.06-.25.05-.26.05-.25.06-.25.05-.26.05-.26.05-.26.05-.25.04-.26.05-.27.05-.26.05-.26.04-.26.05-.27.04-.26.04-.27.05-.26.04-.27.04-.27.05-.27.04-.27.04-.27.04-.27.04-.28.03-.27.04-.28.04-.27.04-.28.03-.27.04-.28.03-.28.04-.28.03-.28.04-.29.03-.28.03-.28.04-.28.03-.28.04-.28.04-.28.03-.29.04-.28.04-.28.04-.28.04-.28.04-.28.04-.29.04-.28.04-.28.04-.28.05-.28.04-.28.04-.28.05-.28.04-.29.05-.28.05-.28.04-.28.05-.28.05-.28.05-.28.05-.27.05-.26.05-.27.05-.26.05-.27.06-.26.05-.26.06-.26.06-.27.06-.26.06-.26.06-.26.07-.26.06-.26.07-.26.06-.27.07-.25.07-.26.07-.26.07-.26.08-.26.07-.26.07-.26.08-.26.08-.25.08-.26.08-.26.08-.25.08-.26.08-.25.09-.25.09-.25.09-.25.09-.24.09-.24.1-.24.1-.24.1-.23.1-.24.11-.22.1-.23.11-.23.11-.22.12-.22.11-.22.12-.21.12-.21.12-.22.12-.2.13-.21.12-.2.13-.2.13-.2.14-.2.13-.19.14-.19.14-.19.14-.19.15-.18.14-.18.15-.18.16-.18.15-.17.16-.17.16-.17.16-.17.17-.16.17-.16.17-.15.17-.16.18-.15.18-.15.18-.15.19-.14.18-.14.19-.14.2-.14.19-.13.2-.13.2-.13.2-.12.21-.13.21-.12.21-.11.21-.12.22-.11.22-.1.23-.1.23-.1.23-.09.24-.09.24-.09.25-.08.25-.07.25-.08.26-.07.26-.06.27-.06.27-.06.28-.05.28-.04.28-.05.29-.04.29-.03.29-.03.3-.03.31-.02.31-.02.31-.02.32-.01.32v1.27l.01.31.02.3.02.3.02.29.03.29.03.29.03.29.04.28.05.28.04.27.05.27.06.27.06.26.06.26.07.25.08.26.07.25.08.24.09.24.09.24.09.24.1.23.1.22.1.23.11.22.12.21.12.22.12.21.12.21.12.2.13.2.14.2.13.19.14.19.14.19.14.19.15.18.15.18.15.17.16.17.16.17.16.16.17.17.16.15.17.16.18.15.17.15.18.14.19.15.18.14.19.13.19.13.2.13.19.13.2.12.21.12.2.12.21.11.21.12.21.11.21.1.22.11.22.1.22.1.22.09.23.1.22.09.24.09.23.08.23.08.24.08.24.08.24.08.25.07.25.07.25.07.25.06.25.06.26.06.26.06.26.05.26.05.27.05.27.05.26.04.27.05.27.04.26.04.27.04.27.03.27.04.27.03.27.03.27.03.28.03.27.02.27.03.28.02.27.02.28.02.27.01.28.02.28.01.27.01.28.01.28.01.28.01h.28l.28.01h.28l.69-.01.68-.01.67-.02.65-.03.65-.04.63-.04.62-.06.61-.06.6-.07.59-.08.58-.08.57-.1.55-.1.54-.11.54-.12.52-.13.51-.14.5-.14.48-.16.48-.16.47-.17.45-.18.44-.18.43-.2.42-.2.41-.21.4-.22.39-.23.38-.23.37-.24.36-.24.35-.24.35-.25.34-.25.34-.25.33-.26.32-.26.31-.26.31-.26.3-.27.29-.28.28-.27.28-.28.27-.28.26-.29.26-.29.25-.29.24-.29.24-.3.23-.31.22-.3.21-.31.21-.31.2-.32.19-.31.19-.33.18-.32.17-.32.17-.32.17-.33.16-.32.15-.33.15-.32.14-.33.14-.32.14-.33.13-.32.12-.33.12-.32.12-.33.1-.33.11-.32.1-.33.09-.33.09-.33.09-.33.08-.33.07-.32.07-.33.06-.33.06-.33.06-.33.04-.34.05-.33.04-.33.04-.32.04-.32.03-.31.04-.31.03-.31.03-.3.03-.29.03-.3.03-.28.02-.28.03-.28.02-.27.02-.27.02-.26.02-.26.02-.25.01-.25.02-.24.01-.24.01-.24.01-.23.01-.22.01-.22v-.43l.01-.2v-12.49l-.15.13-.16.13z" id="f"/><path d="M429.48 233.25c-4.79-.73-9.08-2.18-12.75-4.3-3.78-2.18-6.8-5.33-8.98-9.36-2.16-3.97-3.26-9.21-3.26-15.55v-68.69h-17.93a2 2 0 0 1-2-2v-22.02c0-1.1.89-1.99 2-1.99h17.93V75.4c0-1.1.9-1.99 2-1.99h32.91c1.1 0 2 .89 2 1.99v33.94h22.11c1.1 0 1.99.89 1.99 1.99v22.02c0 1.1-.89 1.99-1.99 1.99H441.4v57.35c0 6.21 1.19 8.71 2.19 9.71 1.01 1 3.5 2.2 9.72 2.2 1.8 0 3.53-.08 5.15-.23 1.6-.14 3.17-.36 4.66-.66.13-.03.26-.04.39-.04.45 0 .9.16 1.26.45.47.38.73.95.73 1.55v25.49c0 .98-.7 1.81-1.67 1.97-2.82.47-6.02.79-9.5.95-3.61.16-6.89.24-10.06.24-6.77-.24-11.7-.6-14.79-1.07z" id="g"/><path d="M463.5 133.35h-24.1v59.34c0 5.56.93 9.27 2.78 11.12 1.85 1.85 5.57 2.78 11.13 2.78 1.85 0 3.63-.07 5.33-.23 1.7-.15 3.32-.39 4.86-.69v25.49c-2.78.47-5.87.77-9.27.93-3.4.15-6.72.23-9.96.23-5.1 0-9.93-.35-14.49-1.05-4.56-.69-8.58-2.04-12.05-4.05-3.48-2-6.22-4.87-8.23-8.58-2.01-3.7-3.01-8.57-3.01-14.6v-70.69h-19.94v-22.02h19.94V75.4h32.91v35.93h24.1v22.02z" id="h"/><path d="M479.26 233.16c-1.1 0-1.99-.9-1.99-2V111.33c0-1.1.89-2 1.99-2h31.3c1.1 0 1.99.9 1.99 2v15.03c.97-1.51 2.03-2.97 3.19-4.37a43.48 43.48 0 0 1 9.48-8.5c3.53-2.33 7.36-4.16 11.38-5.45a41.66 41.66 0 0 1 12.66-1.95c2.34 0 4.95.42 7.75 1.24.85.25 1.44 1.03 1.44 1.92v30.59c0 .6-.27 1.17-.73 1.55-.36.29-.81.45-1.27.45-.13 0-.26-.02-.39-.04-1.48-.3-3.29-.57-5.38-.79-2.1-.22-4.13-.33-6.05-.33-5.69 0-10.55.94-14.43 2.81-3.86 1.86-7 4.42-9.34 7.61-2.39 3.26-4.11 7.11-5.12 11.45-1.04 4.46-1.57 9.38-1.57 14.61v54c0 1.1-.89 2-1.99 2h-32.92z" id="i"/><path d="M510.56 133.58h.46c1.54-3.71 3.63-7.14 6.26-10.31a40.8 40.8 0 0 1 9.04-8.12c3.39-2.23 7.03-3.97 10.89-5.21 3.86-1.24 7.88-1.86 12.05-1.86 2.17 0 4.56.39 7.19 1.16v30.6c-1.55-.31-3.4-.58-5.56-.81-2.17-.23-4.25-.35-6.26-.35-6.03 0-11.13 1.01-15.3 3.01-4.17 2.01-7.53 4.75-10.08 8.23-2.55 3.48-4.37 7.53-5.45 12.17-1.08 4.63-1.62 9.66-1.62 15.07v54h-32.91V111.33h31.29v22.25z" id="j"/><path d="M603.43 109.34l.09.01.07.01.08.02.08.01.08.02.07.03.08.02.07.03.07.03.07.04.07.03.06.04.07.05.06.04.06.05.06.05.06.05.05.05.05.05.06.06.04.06.05.06.05.06.04.07.04.07.03.06.04.07.03.07.03.08.02.07.03.07.02.08.02.08.01.08.01.08.01.08v.08l.01.08v119.83l-.01.08v.08l-.01.08-.01.08-.01.08-.02.08-.02.08-.03.07-.02.08-.03.07-.03.07-.04.07-.03.07-.04.06-.05.07-.04.06-.05.06-.05.06-.05.06-.05.05-.05.05-.06.06-.06.04-.06.05-.06.05-.07.04-.07.04-.06.03-.07.04-.07.03-.08.03-.07.02-.07.03-.08.02-.08.02-.08.01-.08.01-.08.01h-.08l-.08.01h-32.91l-.09-.01h-.08l-.08-.01-.08-.01-.08-.01-.07-.02-.08-.02-.08-.03-.07-.02-.07-.03-.07-.03-.07-.04-.07-.03-.07-.04-.06-.04-.06-.05-.06-.05-.06-.04-.06-.06-.06-.05-.05-.05-.05-.06-.05-.06-.04-.06-.05-.06-.04-.07-.04-.06-.04-.07-.03-.07-.03-.07-.03-.07-.03-.08-.02-.07-.02-.08-.02-.08-.01-.08-.02-.08v-.08l-.01-.08V111.25l.01-.08v-.08l.02-.08.01-.08.02-.08.02-.08.02-.07.03-.07.03-.08.03-.07.03-.07.04-.07.04-.06.04-.07.05-.06.04-.06.05-.06.05-.06.05-.05.06-.05.06-.06.06-.04.06-.05.06-.04.06-.05.07-.04.07-.03.07-.04.07-.03.07-.03.07-.02.08-.03.08-.02.07-.01.08-.02.08-.01.08-.01h.08l.09-.01h32.91l.08.01h.08z" id="k"/><path d="M570.36 92.79V65.67h32.91v27.12h-32.91z" id="l"/><path d="M703.63 233.16c-.67 0-1.29-.34-1.66-.9-1.56-2.35-9.35-14.1-23.37-35.27a59034.74 59034.74 0 0 1-23.37 35.27c-.37.56-1 .9-1.67.9h-36.85c-.74 0-1.42-.41-1.76-1.07-.35-.65-.3-1.44.12-2.05 2.82-4.13 16.93-24.77 42.33-61.91-23.17-33.4-36.04-51.95-38.62-55.66-.42-.61-.47-1.41-.13-2.07.35-.65 1.03-1.07 1.77-1.07h37.55c.66 0 1.28.33 1.65.88l19.43 28.83c11.53-17.29 17.93-26.9 19.21-28.82.37-.55 1-.89 1.66-.89h36.39c.75 0 1.43.42 1.77 1.08.35.66.29 1.46-.14 2.07-2.57 3.66-15.43 21.98-38.59 54.95 26.08 37.55 40.57 58.42 43.47 62.59.42.61.47 1.41.13 2.06a1.99 1.99 0 0 1-1.77 1.08h-37.55z" id="m"/><path d="M657.97 111.33l21.09 31.29 20.86-31.29h36.39l-39.4 56.09 44.27 63.74h-37.55l-25.03-37.78-25.04 37.78h-36.85l43.11-63.04-39.4-56.79h37.55z" id="n"/><path d="M758.29 340c-1.1 0-1.99-.89-1.99-2v-7.69c0-1.1.89-2 1.99-2h21.08V11.68h-21.08c-1.1 0-1.99-.89-1.99-1.99V2c0-1.11.89-2 1.99-2h31.93c1.11 0 2 .89 2 2v336c0 1.11-.89 2-2 2h-31.93z" id="o"/><path d="M781.37 9.69h-23.08V2h31.93v336h-31.93v-7.69h23.08V9.69z" id="p"/><path d="M11.63 330.31H34.7V338H2.77V2H34.7v7.69H11.63v320.62z" id="q"/><path d="M100.53 127.56h.46c4.33-6.18 9.54-10.98 15.65-14.38 6.1-3.39 13.1-5.09 20.98-5.09 7.57 0 14.48 1.47 20.74 4.4 6.26 2.94 11.01 8.11 14.26 15.53 3.55-5.25 8.38-9.89 14.48-13.91 6.11-4.01 13.33-6.02 21.68-6.02 6.33 0 12.2.77 17.61 2.32 5.41 1.54 10.05 4.01 13.91 7.41 3.86 3.4 6.87 7.85 9.04 13.33 2.16 5.49 3.25 12.09 3.25 19.82v80.19h-32.92v-67.91c0-4.01-.15-7.8-.46-11.36-.32-3.55-1.16-6.64-2.55-9.27-1.39-2.62-3.44-4.71-6.15-6.26-2.7-1.54-6.37-2.31-11.01-2.31-4.63 0-8.38.89-11.24 2.66-2.86 1.78-5.1 4.1-6.72 6.96-1.62 2.86-2.7 6.1-3.24 9.73-.55 3.63-.82 7.3-.82 11.01v66.75h-32.91v-67.21c0-3.55-.08-7.07-.23-10.55-.16-3.47-.81-6.68-1.97-9.62-1.16-2.93-3.09-5.29-5.8-7.07-2.7-1.77-6.68-2.66-11.93-2.66-1.55 0-3.6.34-6.14 1.04-2.55.7-5.03 2.01-7.42 3.94-2.4 1.93-4.45 4.72-6.15 8.34-1.7 3.64-2.55 8.39-2.55 14.26v69.53H69.47V111.33h31.06v16.23z" id="r"/><path d="M325.11 108.09h.45l.45.01h.46l.45.01.45.01.46.02.45.01.46.01.45.02.46.02.45.02.46.02.46.02.45.03.46.03.46.02.45.03.46.03.46.04.46.03.46.04.45.03.46.04.46.04.46.05.46.04.46.05.46.04.46.05.46.05.47.05.46.06.46.05.46.06.46.06.47.05.46.07.46.06.47.06.46.07.45.07.46.08.46.08.45.08.45.08.45.09.44.09.45.09.44.1.44.1.44.1.43.1.44.11.43.11.43.11.43.12.43.12.42.13.42.12.42.13.42.13.42.14.41.14.41.14.41.14.41.15.4.15.41.15.4.16.4.16.4.16.39.17.4.17.39.17.39.17.39.18.38.18.39.18.38.19.37.19.38.2.37.19.36.21.37.2.36.21.35.21.36.22.35.22.34.22.34.23.34.23.34.23.33.24.33.24.32.25.33.25.31.25.32.26.31.26.31.26.3.27.3.27.3.27.29.28.29.28.29.29.28.28.28.3.28.29.27.3.27.3.27.31.26.31.26.32.26.31.25.32.25.33.24.33.24.33.24.34.22.34.23.35.21.36.21.36.21.36.19.37.2.38.18.38.18.38.17.4.17.39.16.41.16.4.15.42.14.42.14.42.13.43.12.44.12.44.11.44.11.45.1.46.09.46.09.47.08.47.08.48.07.48.06.49.06.49.05.5.05.51.04.51.03.51.03.52.02.53.02.53.01.54v64.1l.01.4v.4l.01.4.01.4.01.4.01.4.01.4.01.4.01.39.02.4.01.39.02.39.02.4.02.39.02.39.02.39.02.39.02.38.03.39.03.39.02.38.03.39.03.38.03.38.03.38.04.38.03.38.04.38.03.38.04.38.04.37.04.38.04.37.04.38.05.37.04.37.05.37.04.37.05.37.05.36.06.35.05.35.06.35.05.34.06.33.06.34.07.32.06.32.07.32.06.32.07.3.08.31.07.3.07.29.08.29.08.29.08.28.08.27.09.27.08.27.09.26.09.26.09.25.09.25.09.24.1.24.1.24.1.23.1.22.1.22.11.22.1.21.11.2.11.2.11.2.12.19.11.19h-33.37l-.05-.14-.05-.14-.04-.14-.05-.14-.04-.14-.05-.14-.04-.14-.04-.14-.05-.14-.04-.14-.04-.14-.04-.14-.04-.14-.04-.14-.04-.14-.04-.14-.04-.14-.04-.15-.04-.14-.04-.14-.03-.14-.04-.14-.04-.15-.03-.14-.04-.14-.03-.14-.04-.15-.03-.14-.04-.14-.03-.15-.03-.14-.04-.14-.03-.15-.03-.14-.03-.15-.03-.14-.03-.14-.03-.15-.03-.14-.03-.15-.03-.14-.03-.15-.03-.14-.03-.15-.02-.14-.03-.15-.03-.14-.02-.15-.03-.15-.02-.14-.03-.15-.02-.15-.02-.14-.03-.15-.02-.15-.02-.14-.02-.15-.03-.15-.02-.14-.02-.15-.02-.15-.02-.15-.02-.15-.01-.14-.02-.15-.02-.15-.02-.15-.01-.15-.02-.15-.02-.15-.01-.15-.02-.15-.01-.15-.02-.15-.01-.15-.01-.15-.02-.15-.01-.15-.01-.15-.01-.15-.4.41-.4.39-.4.39-.41.39-.41.37-.41.38-.42.36-.42.36-.42.36-.43.35-.43.34-.43.33-.44.33-.44.33-.45.31-.44.31-.46.31-.45.3-.46.29-.46.29-.47.28-.46.27-.48.27-.47.27-.48.25-.48.25-.49.25-.49.24-.49.23-.5.22-.5.22-.5.22-.51.21-.51.2-.51.19-.52.19-.52.19-.53.17-.52.18-.53.16-.54.16-.53.16-.54.15-.53.15-.54.14-.53.14-.54.14-.54.13-.54.13-.54.12-.53.12-.54.11-.54.12-.55.1-.54.11-.54.1-.54.09-.55.09-.54.09-.54.08-.55.08-.54.08-.55.07-.55.06-.54.07-.55.06-.55.05-.55.05-.55.05-.55.04-.55.04-.55.03-.55.04-.56.02-.55.02-.55.02-.56.02-.55.01h-1.97l-.42-.01-.43-.01-.42-.01-.42-.01-.42-.02-.42-.02-.42-.02-.41-.03-.41-.02-.42-.03-.41-.04-.41-.03-.4-.04-.41-.04-.41-.04-.4-.05-.4-.05-.4-.05-.4-.05-.4-.06-.4-.06-.39-.06-.39-.06-.4-.07-.39-.07-.38-.07-.39-.07-.39-.08-.38-.08-.39-.08-.38-.08-.38-.09-.38-.09-.37-.09-.38-.1-.37-.1-.38-.1-.37-.1-.37-.11-.37-.1-.36-.12-.36-.11-.36-.12-.36-.12-.36-.12-.35-.13-.35-.13-.35-.13-.35-.13-.34-.14-.34-.14-.34-.14-.34-.15-.34-.15-.33-.15-.33-.16-.33-.16-.32-.16-.33-.16-.32-.17-.32-.17-.31-.17-.32-.17-.31-.18-.31-.18-.3-.19-.31-.19-.3-.18-.3-.2-.3-.19-.29-.2-.3-.2-.29-.21-.29-.21-.28-.21-.29-.21-.28-.22-.28-.21-.27-.23-.28-.22-.27-.23-.27-.23-.26-.23-.26-.24-.26-.24-.26-.24-.25-.24-.25-.25-.24-.25-.25-.25-.24-.26-.23-.26-.24-.26-.23-.27-.23-.26-.22-.27-.22-.28-.22-.27-.22-.28-.21-.29-.21-.28-.21-.29-.2-.29-.2-.29-.2-.3-.19-.3-.2-.3-.18-.31-.19-.31-.18-.31-.18-.31-.18-.32-.17-.32-.17-.32-.17-.33-.16-.33-.16-.33-.16-.34-.16-.33-.15-.34-.14-.35-.15-.35-.13-.35-.14-.35-.13-.36-.13-.36-.12-.36-.12-.37-.12-.37-.11-.37-.1-.37-.11-.38-.1-.39-.09-.38-.1-.39-.08-.39-.09-.4-.08-.4-.07-.4-.08-.4-.07-.41-.06-.41-.06-.42-.06-.41-.05-.42-.05-.43-.04-.42-.05-.43-.03-.44-.04-.43-.03-.44-.02-.45-.02-.44-.02-.45-.01-.45-.01-.46-.01-.46v-.97l.01-.5.01-.5.01-.49.02-.49.03-.49.03-.48.03-.48.04-.47.04-.46.05-.47.05-.45.06-.46.06-.45.06-.44.07-.44.08-.44.08-.43.08-.43.09-.42.09-.42.1-.41.1-.41.1-.4.11-.4.12-.4.12-.39.12-.39.13-.38.13-.38.14-.37.14-.37.15-.36.15-.36.15-.35.16-.35.16-.35.17-.34.18-.34.17-.33.19-.33.18-.32.18-.33.19-.32.19-.31.2-.31.19-.31.2-.31.21-.3.2-.3.21-.29.21-.3.21-.28.21-.29.22-.28.22-.28.22-.28.23-.27.23-.27.23-.26.23-.26.24-.26.23-.26.24-.25.25-.25.24-.24.25-.25.25-.23.26-.24.26-.23.25-.23.27-.23.26-.22.27-.22.27-.21.27-.21.28-.21.27-.21.28-.2.29-.2.28-.2.29-.19.29-.19.29-.19.29-.18.3-.19.29-.18.3-.18.3-.17.31-.18.3-.17.31-.17.31-.16.31-.17.31-.16.32-.16.32-.15.31-.16.33-.15.32-.15.33-.14.32-.15.33-.14.33-.14.34-.13.33-.14.34-.13.34-.13.34-.13.35-.12.34-.12.35-.12.35-.12.35-.11.36-.12.35-.11.36-.1.36-.11.36-.1.37-.1.36-.1.37-.09.36-.1.37-.09.36-.1.37-.09.36-.09.37-.09.37-.09.36-.09.37-.09.37-.09.36-.08.37-.09.37-.08.36-.08.37-.09.37-.08.37-.08.37-.07.36-.08.37-.08.37-.07.37-.08.37-.07.37-.08.36-.07.37-.07.37-.07.37-.07.37-.06.37-.07.37-.07.37-.06.37-.06.37-.07.37-.06.37-.06.37-.06.37-.06.37-.06.37-.05.37-.06.37-.06.37-.05.37-.06.37-.05.37-.05.37-.06.37-.05.37-.05.36-.05.37-.05.37-.05.36-.05.37-.05.37-.05.36-.05.37-.04.36-.05.37-.05.36-.04.37-.05.36-.04.36-.04.37-.05.36-.04.36-.04.37-.04.36-.04.36-.05.36-.03.36-.04.37-.04.36-.04.36-.04.36-.03.36-.04.36-.04.36-.03.35-.04.36-.03.36-.04.35-.04.35-.04.35-.04.34-.04.35-.04.34-.04.34-.04.34-.05.33-.04.34-.05.33-.04.33-.05.33-.05.32-.05.32-.05.33-.05.32-.05.31-.05.32-.06.31-.05.32-.06.3-.05.31-.06.31-.06.3-.06.3-.06.3-.06.3-.06.3-.06.29-.06.29-.07.29-.06.29-.07.28-.06.28-.07.29-.07.28-.07.27-.07.28-.07.27-.07.26-.08.27-.08.26-.07.26-.08.26-.09.25-.08.25-.08.25-.09.24-.09.25-.09.24-.09.23-.09.23-.09.23-.1.23-.1.23-.1.22-.1.22-.1.21-.1.22-.11.21-.11.2-.1.21-.11.2-.12.2-.11.19-.11.19-.12.19-.12.19-.12.19-.12.18-.12.18-.13.17-.12.17-.13.17-.13.17-.13.16-.13.16-.14.16-.14.15-.14.15-.14.14-.15.14-.15.13-.15.13-.16.13-.16.12-.16.11-.16.12-.17.1-.17.11-.18.1-.18.09-.18.09-.18.09-.19.08-.19.08-.19.07-.19.07-.2.06-.2.06-.21.06-.21.05-.21.05-.21.04-.22.04-.22.03-.22.03-.23.03-.23.02-.23.02-.24.01-.23.01-.25v-.74l-.01-.25v-.27l-.01-.26v-.26l-.01-.25-.01-.26-.01-.25-.02-.25-.01-.24-.02-.25-.02-.24-.03-.24-.02-.23-.03-.23-.03-.23-.03-.23-.03-.22-.04-.22-.04-.22-.04-.22-.04-.21-.04-.21-.05-.21-.05-.2-.05-.2-.05-.2-.06-.2-.06-.19-.06-.19-.06-.19-.06-.19-.07-.18-.07-.18-.07-.18-.07-.17-.07-.17-.08-.17-.08-.17-.08-.16-.09-.16-.08-.16-.09-.16-.09-.15-.09-.15-.09-.15-.09-.15-.1-.15-.1-.14-.09-.15-.1-.14-.1-.14-.11-.14-.1-.13-.1-.14-.11-.13-.11-.13-.11-.13-.11-.13-.11-.12-.11-.13-.12-.12-.12-.12-.11-.12-.12-.12-.12-.11-.13-.12-.12-.11-.13-.11-.12-.11-.13-.11-.13-.1-.13-.11-.13-.1-.14-.1-.13-.1-.14-.09-.14-.1-.14-.09-.14-.09-.14-.09-.15-.09-.14-.08-.15-.09-.15-.08-.15-.08-.15-.08-.15-.08-.15-.08-.15-.08-.16-.07-.15-.07-.16-.08-.16-.07-.16-.07-.16-.06-.16-.07-.16-.06-.17-.07-.16-.06-.17-.06-.17-.06-.16-.05-.17-.06-.18-.05-.17-.06-.17-.05-.18-.05-.17-.05-.18-.04-.18-.05-.17-.04-.18-.05-.19-.04-.18-.04-.18-.04-.19-.03-.18-.04-.19-.03-.19-.04-.19-.03-.19-.03-.19-.03-.19-.02-.19-.03-.2-.03-.19-.02-.2-.03-.19-.02-.2-.02-.2-.03-.2-.02-.2-.02-.2-.02-.2-.02-.2-.02-.2-.02-.2-.02-.2-.01-.21-.02-.2-.02-.21-.01-.21-.01-.2-.02-.21-.01-.21-.01-.21-.01-.21-.01-.21-.01-.21-.01-.21-.01-.21-.01-.22-.01h-.21l-.21-.01h-.22l-.22-.01h-.43l-.22-.01h-.44l-.48.01h-.48l-.47.02-.47.02-.46.02-.46.03-.46.03-.44.04-.45.04-.43.05-.44.06-.42.06-.42.06-.42.07-.41.08-.41.08-.4.09-.39.09-.39.1-.39.1-.38.1-.37.12-.37.11-.37.13-.36.12-.35.14-.35.14-.34.14-.34.15-.33.15-.33.16-.32.16-.32.17-.31.18-.31.18-.3.18-.3.19-.29.2-.28.2-.28.21-.28.21-.27.22-.26.22-.26.24-.25.24-.25.24-.24.26-.23.26-.23.27-.23.27-.21.28-.22.29-.2.3-.2.3-.2.31-.18.31-.19.33-.17.33-.17.34-.17.34-.16.35-.15.36-.15.36-.14.38-.14.38-.13.38-.12.39-.12.4-.12.41-.1.41-.1.43-.1.42-.09.44-.08.44-.08.45-.07.45-.07.46-.06.47-.06.48-.05.48h-32.91l.04-.57.04-.58.05-.56.05-.56.06-.56.07-.55.07-.55.07-.54.09-.54.08-.53.1-.53.09-.52.11-.52.11-.52.11-.5.12-.51.13-.49.13-.5.13-.49.15-.48.14-.48.16-.47.15-.47.17-.46.17-.46.17-.46.18-.45.19-.44.19-.44.2-.43.2-.43.21-.43.21-.42.22-.41.23-.41.23-.4.23-.4.25-.4.24-.39.26-.38.25-.38.26-.38.27-.37.26-.37.27-.37.28-.36.27-.36.29-.35.28-.35.29-.35.29-.34.29-.34.3-.34.3-.33.31-.33.31-.32.31-.32.32-.32.32-.31.32-.31.33-.3.32-.3.34-.3.33-.3.35-.29.34-.28.35-.29.35-.27.35-.28.36-.27.36-.27.36-.26.37-.26.37-.26.38-.25.38-.25.38-.25.38-.24.39-.23.4-.24.39-.23.4-.23.4-.22.4-.22.41-.22.4-.21.41-.21.42-.21.41-.2.42-.2.42-.2.42-.19.42-.19.43-.19.43-.18.43-.18.44-.18.44-.17.43-.17.45-.17.44-.16.45-.16.45-.16.45-.15.45-.15.46-.15.46-.14.46-.14.47-.14.46-.13.47-.13.47-.13.48-.12.47-.12.48-.12.48-.11.49-.11.48-.11.49-.1.5-.1.49-.1.49-.1.49-.09.5-.09.49-.09.49-.08.5-.08.49-.08.49-.08.5-.08.49-.07.5-.07.49-.07.49-.06.5-.06.49-.06.5-.06.49-.06.5-.05.49-.05.5-.05.5-.05.49-.04.5-.04.49-.04.5-.03.5-.04.49-.03.5-.03.5-.02.49-.03.5-.02.5-.01.5-.02.49-.01.5-.02h.5l.5-.01h.49l.5-.01.46.01h.45zm18.49 64.69l-.15.13-.16.12-.16.13-.17.12-.16.12-.17.12-.17.11-.18.11-.17.11-.18.11-.19.11-.18.1-.19.11-.19.1-.19.1-.2.09-.2.1-.2.09-.2.09-.21.09-.21.08-.21.09-.21.08-.22.08-.22.07-.22.08-.22.07-.23.08-.23.07-.22.07-.23.07-.23.07-.23.07-.24.07-.23.06-.23.07-.24.07-.24.06-.24.06-.23.07-.25.06-.24.06-.24.06-.24.06-.25.05-.25.06-.24.06-.25.05-.25.06-.25.05-.26.05-.25.06-.25.05-.26.05-.26.05-.26.05-.25.04-.26.05-.27.05-.26.05-.26.04-.26.05-.27.04-.26.04-.27.05-.26.04-.27.04-.27.05-.27.04-.27.04-.27.04-.27.04-.28.03-.27.04-.28.04-.27.04-.28.03-.27.04-.28.03-.28.04-.28.03-.28.04-.29.03-.28.03-.28.04-.28.03-.28.04-.28.04-.28.03-.29.04-.28.04-.28.04-.28.04-.28.04-.28.04-.29.04-.28.04-.28.04-.28.05-.28.04-.28.04-.28.05-.28.04-.29.05-.28.05-.28.04-.28.05-.28.05-.28.05-.28.05-.27.05-.26.05-.27.05-.26.05-.27.06-.26.05-.26.06-.26.06-.27.06-.26.06-.26.06-.26.07-.26.06-.26.07-.26.06-.27.07-.25.07-.26.07-.26.07-.26.08-.26.07-.26.07-.26.08-.26.08-.25.08-.26.08-.26.08-.25.08-.26.08-.25.09-.25.09-.25.09-.25.09-.24.09-.24.1-.24.1-.24.1-.23.1-.24.11-.22.1-.23.11-.23.11-.22.12-.22.11-.22.12-.21.12-.21.12-.22.12-.2.13-.21.12-.2.13-.2.13-.2.14-.2.13-.19.14-.19.14-.19.14-.19.15-.18.14-.18.15-.18.16-.18.15-.17.16-.17.16-.17.16-.17.17-.16.17-.16.17-.15.17-.16.18-.15.18-.15.18-.15.19-.14.18-.14.19-.14.2-.14.19-.13.2-.13.2-.13.2-.12.21-.13.21-.12.21-.11.21-.12.22-.11.22-.1.23-.1.23-.1.23-.09.24-.09.24-.09.25-.08.25-.07.25-.08.26-.07.26-.06.27-.06.27-.06.28-.05.28-.04.28-.05.29-.04.29-.03.29-.03.3-.03.31-.02.31-.02.31-.02.32-.01.32v1.27l.01.31.02.3.02.3.02.29.03.29.03.29.03.29.04.28.05.28.04.27.05.27.06.27.06.26.06.26.07.25.08.26.07.25.08.24.09.24.09.24.09.24.1.23.1.22.1.23.11.22.12.21.12.22.12.21.12.21.12.2.13.2.14.2.13.19.14.19.14.19.14.19.15.18.15.18.15.17.16.17.16.17.16.16.17.17.16.15.17.16.18.15.17.15.18.14.19.15.18.14.19.13.19.13.2.13.19.13.2.12.21.12.2.12.21.11.21.12.21.11.21.1.22.11.22.1.22.1.22.09.23.1.22.09.24.09.23.08.23.08.24.08.24.08.24.08.25.07.25.07.25.07.25.06.25.06.26.06.26.06.26.05.26.05.27.05.27.05.26.04.27.05.27.04.26.04.27.04.27.03.27.04.27.03.27.03.27.03.28.03.27.02.27.03.28.02.27.02.28.02.27.01.28.02.28.01.27.01.28.01.28.01.28.01h.28l.28.01h.28l.69-.01.68-.01.67-.02.65-.03.65-.04.63-.04.62-.06.61-.06.6-.07.59-.08.58-.08.57-.1.55-.1.54-.11.54-.12.52-.13.51-.14.5-.14.48-.16.48-.16.47-.17.45-.18.44-.18.43-.2.42-.2.41-.21.4-.22.39-.23.38-.23.37-.24.36-.24.35-.24.35-.25.34-.25.34-.25.33-.26.32-.26.31-.26.31-.26.3-.27.29-.28.28-.27.28-.28.27-.28.26-.29.26-.29.25-.29.24-.29.24-.3.23-.31.22-.3.21-.31.21-.31.2-.32.19-.31.19-.33.18-.32.17-.32.17-.32.17-.33.16-.32.15-.33.15-.32.14-.33.14-.32.14-.33.13-.32.12-.33.12-.32.12-.33.1-.33.11-.32.1-.33.09-.33.09-.33.09-.33.08-.33.07-.32.07-.33.06-.33.06-.33.06-.33.04-.34.05-.33.04-.33.04-.32.04-.32.03-.31.04-.31.03-.31.03-.3.03-.29.03-.3.03-.28.02-.28.03-.28.02-.27.02-.27.02-.26.02-.26.02-.25.01-.25.02-.24.01-.24.01-.24.01-.23.01-.22.01-.22v-.43l.01-.2v-12.49l-.15.13-.16.13z" id="s"/><path d="M463.5 133.35h-24.1v59.34c0 5.56.93 9.27 2.78 11.12 1.85 1.85 5.57 2.78 11.13 2.78 1.85 0 3.63-.07 5.33-.23 1.7-.15 3.32-.39 4.86-.69v25.49c-2.78.47-5.87.77-9.27.93-3.4.15-6.72.23-9.96.23-5.1 0-9.93-.35-14.49-1.05-4.56-.69-8.58-2.04-12.05-4.05-3.48-2-6.22-4.87-8.23-8.58-2.01-3.7-3.01-8.57-3.01-14.6v-70.69h-19.94v-22.02h19.94V75.4h32.91v35.93h24.1v22.02z" id="t"/><path d="M510.56 133.58h.46c1.54-3.71 3.63-7.14 6.26-10.31a40.8 40.8 0 0 1 9.04-8.12c3.39-2.23 7.03-3.97 10.89-5.21 3.86-1.24 7.88-1.86 12.05-1.86 2.17 0 4.56.39 7.19 1.16v30.6c-1.55-.31-3.4-.58-5.56-.81-2.17-.23-4.25-.35-6.26-.35-6.03 0-11.13 1.01-15.3 3.01-4.17 2.01-7.53 4.75-10.08 8.23-2.55 3.48-4.37 7.53-5.45 12.17-1.08 4.63-1.62 9.66-1.62 15.07v54h-32.91V111.33h31.29v22.25z" id="u"/><path d="M570.36 92.79V65.67h32.91v27.12h-32.91z" id="v"/><path d="M657.97 111.33l21.09 31.29 20.86-31.29h36.39l-39.4 56.09 44.27 63.74h-37.55l-25.03-37.78-25.04 37.78h-36.85l43.11-63.04-39.4-56.79h37.55z" id="w"/><path d="M781.37 9.69h-23.08V2h31.93v336h-31.93v-7.69h23.08V9.69z" id="x"/></defs><use xlink:href="#a" width="791.439" height="340" fill="#fff" transform="translate(0 85)"/><use xlink:href="#b" width="791.439" height="340" fill="#fff" transform="translate(0 85)"/><use xlink:href="#c" width="791.439" height="340" fill="#fff" transform="translate(0 85)"/><use xlink:href="#d" width="791.439" height="340" fill="#fff" transform="translate(0 85)"/><use xlink:href="#e" width="791.439" height="340" fill="#fff" transform="translate(0 85)"/><use xlink:href="#f" width="791.439" height="340" fill="#fff" transform="translate(0 85)"/><use xlink:href="#g" width="791.439" height="340" fill="#fff" transform="translate(0 85)"/><use xlink:href="#h" width="791.439" height="340" fill="#fff" transform="translate(0 85)"/><use xlink:href="#i" width="791.439" height="340" fill="#fff" transform="translate(0 85)"/><use xlink:href="#j" width="791.439" height="340" fill="#fff" transform="translate(0 85)"/><use xlink:href="#k" width="791.439" height="340" transform="translate(0 85)"/><use xlink:href="#l" width="791.439" height="340" fill="#fff" transform="translate(0 85)"/><use xlink:href="#m" width="791.439" height="340" fill="#fff" transform="translate(0 85)"/><use xlink:href="#n" width="791.439" height="340" fill="#fff" transform="translate(0 85)"/><use xlink:href="#o" width="791.439" height="340" fill="#fff" transform="translate(0 85)"/><use xlink:href="#p" width="791.439" height="340" fill="#fff" transform="translate(0 85)"/><g transform="translate(0 85)"><use xlink:href="#q" width="791.439" height="340"/><use xlink:href="#q" width="791.439" height="340" fill-opacity="0" stroke="#000" stroke-width="0" stroke-opacity="0"/></g><use xlink:href="#r" width="791.439" height="340" transform="translate(0 85)"/><use xlink:href="#s" width="791.439" height="340" transform="translate(0 85)"/><use xlink:href="#t" width="791.439" height="340" transform="translate(0 85)"/><use xlink:href="#u" width="791.439" height="340" transform="translate(0 85)"/><use xlink:href="#v" width="791.439" height="340" transform="translate(0 85)"/><use xlink:href="#w" width="791.439" height="340" transform="translate(0 85)"/><use xlink:href="#x" width="791.439" height="340" transform="translate(0 85)"/></svg>