<svg xmlns="http://www.w3.org/2000/svg" width="256" height="256"><path d="M100.52 253.722c-23.442-4.956-44.344-16.661-62.913-35.23C11.91 192.794 0 164.166 0 128.097s11.91-64.696 37.607-90.393C63.304 12.008 91.93.098 128 .098s64.696 11.91 90.393 37.607C244.09 63.402 256 92.029 256 128.098c0 36.07-11.91 64.697-37.607 90.393-18.926 18.927-39.708 30.413-63.937 35.34-13.903 2.827-40.3 2.774-53.936-.11zm73.579-76.675c-5.865-18.023-10.664-32.96-10.664-33.195 0-.234 12.735-9.732 28.3-21.107l28.302-20.68-35.262-.387-35.261-.386-10.683-32.74-10.683-32.74-11.04 33.126-11.042 33.126-34.393.723-34.394.724 27.53 19.9 27.53 19.901-10.714 32.068c-5.892 17.637-10.454 32.326-10.138 32.642.317.317 12.89-8.262 27.94-19.064 15.052-10.802 27.967-19.64 28.701-19.64.735 0 13.698 9.087 28.807 20.192 15.11 11.105 27.552 20.217 27.65 20.248.098.032-4.621-14.688-10.486-32.711z" fill="#d1eaf8"/><path d="M101.989 253.665C42.399 240.898 0 188.684 0 128.065c0-70.817 57.183-128 128-128 70.817 0 128 57.183 128 128 0 71.333-57.625 128.448-129.024 127.882-8.187-.065-19.431-1.092-24.987-2.282zm2.057-67.702c18.78-13.454 24.263-16.729 26.095-15.585 1.276.797 13.95 9.991 28.166 20.433 14.216 10.44 26.057 18.773 26.314 18.517.257-.257-4.412-15.067-10.376-32.91-10.146-30.361-10.679-32.567-8.295-34.365 1.4-1.058 14.262-10.495 28.581-20.972l26.034-19.05-35.435-.388-35.435-.388-10.792-33.406-10.792-33.405L116.726 68.6l-11.385 34.155H35.75l27.323 19.719c15.027 10.845 27.602 19.965 27.944 20.267.341.302-4.063 15.021-9.788 32.71-5.725 17.69-10.397 32.729-10.384 33.42.013.69 2.14-.348 4.726-2.309 2.585-1.96 15.399-11.23 28.475-20.598z" fill="#a0d5f2"/><path d="M104.862 253.849C29.407 239.8-17.116 162.573 5.955 89.667 22.75 36.599 72.551.017 128.003.017c70.282 0 127.978 57.695 127.978 127.978 0 79.488-73.112 140.376-151.12 125.854zm21.968-83.695c1.004-.584 13.25 7.483 29.425 19.383 15.238 11.21 27.937 20.152 28.22 19.869.283-.283-4.235-15.211-10.04-33.173l-10.556-32.658 28.566-20.807 28.566-20.807-35.616-.723-35.616-.724-10.761-33.265-10.762-33.266-11.094 33.266-11.093 33.265-35.84.724-35.839.723 27.595 19.948c15.178 10.972 27.973 20.56 28.434 21.305.628 1.016-15.192 51.723-20.685 66.302-.41 1.086 11.883-7.101 27.316-18.193 15.433-11.092 28.834-20.618 29.78-21.169z" fill="#77c3ec"/><path d="M105.966 253.749c-50.334-9.618-88.581-44.94-101.94-94.14-2.524-9.297-3.142-15.552-3.142-31.82s.618-22.523 3.142-31.82C16.363 50.532 50.632 16.263 96.07 3.926 105.366 1.4 111.622.783 127.89.783s22.523.618 31.819 3.142c45.438 12.337 79.707 46.606 92.045 92.045 4.483 16.511 4.483 47.126 0 63.638-12.35 45.487-47.182 80.265-92.045 91.906-14.904 3.867-39.787 4.902-53.743 2.235zm-1.24-68.136c11.92-8.602 22.359-15.64 23.198-15.64.84 0 13.757 8.95 28.705 19.89 14.949 10.94 27.52 19.55 27.935 19.134.416-.415-3.928-14.811-9.655-31.99-5.726-17.18-10.082-32.09-9.681-33.136.4-1.045 13.16-10.949 28.354-22.008l27.626-20.108-35.606-.723-35.605-.723-10.547-32.277c-5.801-17.753-10.87-32.6-11.265-32.995-.395-.394-5.717 14.282-11.827 32.614l-11.11 33.33-35.685.387-35.685.387 27.872 20.073c15.33 11.04 28.145 20.516 28.48 21.058.334.541-4.235 15.799-10.154 33.905-5.92 18.107-10.763 33.256-10.763 33.665 0 .409 3.092-1.495 6.87-4.23a38562.81 38562.81 0 0 1 28.543-20.613z" fill="#55b5e8"/><path d="M111.09 254.394c-45.36-7.19-81.36-34.17-99.772-74.778-14.02-30.923-14.02-72.598 0-103.52 12.832-28.3 36.487-52.025 64.569-64.758 31.279-14.182 72.794-14.245 103.866-.156 28.3 12.832 52.024 36.487 64.757 64.569 14.25 31.428 14.25 72.782 0 104.21-12.729 28.072-36.458 51.737-64.733 64.558-18.768 8.51-49.46 12.922-68.687 9.875zm-9.132-66.295c12.728-9.076 23.808-17.027 24.623-17.669.87-.685 13.28 7.457 30.044 19.711 15.709 11.483 28.79 20.879 29.069 20.879.279 0-4.292-14.746-10.157-32.769-5.865-18.023-10.663-33.271-10.663-33.886 0-.614 12.738-10.438 28.307-21.83l28.307-20.713-35.498-.387-35.498-.387-10.382-32.155c-5.71-17.686-10.862-32.701-11.449-33.367-.587-.667-6.076 13.815-12.197 32.18l-11.13 33.393h-35.4c-19.747 0-35.056.557-34.622 1.26.429.693 13.158 10.17 28.289 21.061 15.13 10.89 27.51 19.94 27.51 20.11 0 .169-4.882 14.92-10.848 32.778-5.966 17.858-10.847 33.019-10.847 33.69 0 1.334-.659 1.777 32.542-21.899z" fill="#2ca5e3"/><path d="M114.983 254.494c-15.982-1.693-27.805-5.208-43.39-12.897-25.792-12.726-44.518-31.455-57.225-57.232-8.07-16.371-10.987-26.408-12.824-44.113-2.478-23.882 1.66-46.053 12.824-68.7 12.71-25.783 31.443-44.517 57.225-57.225 22.648-11.164 44.819-15.303 68.7-12.825C158 3.339 168.037 6.257 184.408 14.327c25.782 12.708 44.516 31.442 57.225 57.224 11.163 22.648 15.302 44.819 12.824 68.7-1.837 17.706-4.755 27.743-12.824 44.114-12.245 24.84-30.884 43.903-54.972 56.222-23.363 11.949-46.956 16.526-71.677 13.907zM100.054 189.9c14.858-10.602 27.48-19.276 28.048-19.276.79 0 44.965 31.572 55.255 39.491 1.014.78 2.143 1.118 2.51.751.367-.367-4.205-15.25-10.16-33.074-5.954-17.824-10.826-32.777-10.826-33.23 0-.454 12.993-10.233 28.873-21.732 15.88-11.499 28.897-21.384 28.927-21.967.029-.583-16.24-1.233-36.155-1.446l-36.21-.386-10.71-32.336c-5.89-17.784-11.01-32.635-11.377-33.003-.368-.367-5.762 14.661-11.988 33.396l-11.32 34.064-35.963.386-35.962.385 28.883 20.82 28.883 20.819-10.67 31.935c-5.867 17.565-10.668 32.804-10.668 33.865 0 2.481-1.119 3.192 30.63-19.462z" fill="#0096df"/></svg>