<?xml version="1.0" encoding="UTF-8" standalone="no"?>
<!-- Created with Inkscape (http://www.inkscape.org/) -->

<svg
   xmlns:dc="http://purl.org/dc/elements/1.1/"
   xmlns:cc="http://creativecommons.org/ns#"
   xmlns:rdf="http://www.w3.org/1999/02/22-rdf-syntax-ns#"
   xmlns:svg="http://www.w3.org/2000/svg"
   xmlns="http://www.w3.org/2000/svg"
   xmlns:sodipodi="http://sodipodi.sourceforge.net/DTD/sodipodi-0.dtd"
   xmlns:inkscape="http://www.inkscape.org/namespaces/inkscape"
   id="svg2"
   version="1.1"
   inkscape:version="0.48.5 r10040"
   width="256"
   height="256"
   sodipodi:docname="mention_iconography_04.png">
  <metadata
     id="metadata8">
    <rdf:RDF>
      <cc:Work
         rdf:about="">
        <dc:format>image/svg+xml</dc:format>
        <dc:type
           rdf:resource="http://purl.org/dc/dcmitype/StillImage" />
        <dc:title></dc:title>
      </cc:Work>
    </rdf:RDF>
  </metadata>
  <defs
     id="defs6" />
  <sodipodi:namedview
     pagecolor="#ffffff"
     bordercolor="#666666"
     borderopacity="1"
     objecttolerance="10"
     gridtolerance="10"
     guidetolerance="10"
     inkscape:pageopacity="0"
     inkscape:pageshadow="2"
     inkscape:window-width="1280"
     inkscape:window-height="683"
     id="namedview4"
     showgrid="false"
     fit-margin-top="0"
     fit-margin-left="0"
     fit-margin-right="0"
     fit-margin-bottom="0"
     inkscape:zoom="1.1125147"
     inkscape:cx="57.06886"
     inkscape:cy="52.539727"
     inkscape:window-x="0"
     inkscape:window-y="0"
     inkscape:window-maximized="1"
     inkscape:current-layer="svg2" />
  <g
     id="g3010"
     transform="matrix(1.4463277,0,0,1.4463277,0,0.01646306)">
    <path
       style="fill:#d1eaf8"
       d="M 69.5,175.41345 C 53.29245,171.9867 38.84044,163.89376 26.00159,151.05491 8.23469,133.28801 0,113.49481 0,88.5565 0,63.61819 8.23469,43.82499 26.00159,26.05809 43.76849,8.29119 63.56169,0.0565 88.5,0.0565 c 24.93831,0 44.73151,8.23469 62.49841,26.00159 C 168.76531,43.82499 177,63.61819 177,88.5565 c 0,24.93831 -8.23469,44.73151 -26.00159,62.49841 -13.08578,13.08578 -27.45446,21.02782 -44.20625,24.43423 -9.61265,1.9547 -27.86421,1.91765 -37.29216,-0.0757 z M 120.37302,122.4 C 116.31786,109.93892 113,99.61098 113,99.44903 c 0,-0.16195 8.80531,-6.72902 19.56736,-14.59349 l 19.56735,-14.29904 -24.38006,-0.26706 -24.38007,-0.26706 -7.386,-22.63636 -7.386,-22.63635 -7.63378,22.90341 -7.63379,22.90342 -23.77987,0.5 -23.77987,0.5 19.034,13.75956 19.034,13.75956 -7.40702,22.17172 c -4.07387,12.19444 -7.22812,22.35063 -7.00944,22.5693 0.21868,0.21868 8.91188,-5.71289 19.31824,-13.18127 10.40636,-7.46838 19.33606,-13.57887 19.84377,-13.57887 0.50772,0 9.47043,6.28215 19.91715,13.96033 10.44672,7.67818 19.04939,13.97818 19.11705,14 0.0677,0.0218 -3.19484,-10.15576 -7.25,-22.61683 z"
       id="path3001"
       inkscape:connector-curvature="0" />
    <path
       style="fill:#a0d5f2"
       d="M 70.51557,175.37415 C 29.31447,166.54667 0,130.44565 0,88.53364 c 0,-48.96315 39.53685,-88.5 88.5,-88.5 48.96315,0 88.5,39.53685 88.5,88.5 0,49.3198 -39.84226,88.8095 -89.20784,88.41847 -5.66069,-0.0448 -13.43515,-0.75492 -17.27659,-1.57796 z m 1.42269,-46.80966 c 12.98385,-9.30197 16.77527,-11.56634 18.04193,-10.77529 0.88202,0.55083 9.64545,6.90801 19.47429,14.12708 9.82885,7.21907 18.01591,12.98031 18.19347,12.80275 0.17756,-0.17756 -3.05061,-10.41691 -7.1737,-22.75411 -7.01544,-20.99176 -7.38351,-22.51657 -5.73539,-23.76029 0.96863,-0.73096 9.86114,-7.25596 19.76114,-14.5 l 18,-13.17099 -24.5,-0.26848 -24.5,-0.26847 -7.46167,-23.09651 -7.46168,-23.0965 -7.87166,23.61498 -7.87166,23.61498 -24.0577,0 -24.05771,0 18.89104,13.63347 c 10.39007,7.49841 19.08427,13.80414 19.32044,14.01274 0.23617,0.20859 -2.80906,10.38603 -6.76719,22.61652 -3.95812,12.2305 -7.18885,22.62818 -7.1794,23.10596 0.009,0.47778 1.47969,-0.2405 3.26719,-1.59618 1.7875,-1.35567 10.64722,-7.76442 19.68826,-14.24166 z"
       id="path2999"
       inkscape:connector-curvature="0" />
    <path
       style="fill:#77c3ec"
       d="M 72.50202,175.50119 C 20.33238,165.7887 -11.83424,112.39295 4.11763,61.98489 15.72892,25.29309 50.16218,0 88.50202,0 c 48.59379,0 88.48489,39.8911 88.48489,88.48489 0,54.95881 -50.54996,97.05744 -104.48489,87.0163 z M 87.691,117.63442 c 0.69413,-0.40407 9.16151,5.17343 20.34469,13.40115 10.53564,7.7513 19.31581,13.93318 19.51149,13.73749 0.19568,-0.19568 -2.92829,-10.51685 -6.94216,-22.93592 L 113.30707,99.257 133.0577,84.87094 l 19.75062,-14.38605 -24.62495,-0.5 -24.62495,-0.5 -7.44083,-23 -7.44084,-23 -7.66993,23 -7.66992,23 -24.77964,0.5 -24.77963,0.5 19.07949,13.79257 c 10.49372,7.58591 19.3403,14.21458 19.65907,14.73037 0.43418,0.70251 -10.50373,35.76155 -14.30194,45.84172 -0.28281,0.75056 8.21624,-4.91006 18.88678,-12.57916 10.67055,-7.6691 19.93603,-14.25529 20.58997,-14.63597 z"
       id="path2997"
       inkscape:connector-curvature="0" />
    <path
       style="fill:#55b5e8"
       d="M 73.26524,175.4321 C 38.4644,168.78215 12.0198,144.36079 2.78334,110.34266 c -1.74511,-6.42731 -2.17213,-10.75221 -2.17213,-22 0,-11.24779 0.42702,-15.57269 2.17213,-22 8.53005,-31.41637 32.22396,-55.11028 63.64033,-63.64033 6.42731,-1.74511 10.75221,-2.17213 22,-2.17213 11.24779,0 15.57269,0.42702 22,2.17213 31.41637,8.53005 55.11028,32.22396 63.64033,63.64033 3.09971,11.41631 3.09971,32.58369 0,44 -8.53907,31.44962 -32.62133,55.49542 -63.64033,63.54398 -10.30463,2.67376 -27.50909,3.38931 -37.15843,1.54546 z m -0.85726,-47.10925 c 8.24137,-5.94744 15.45913,-10.81352 16.03945,-10.81352 0.58033,0 9.51146,6.18842 19.84697,13.75205 10.33551,7.56363 19.02707,13.51682 19.31458,13.2293 0.28752,-0.28751 -2.71646,-10.24089 -6.67551,-22.11862 -3.95905,-11.87773 -6.97134,-22.18724 -6.69399,-22.91002 0.27736,-0.72278 9.09942,-7.57032 19.60459,-15.21676 l 19.10029,-13.90262 -24.61781,-0.5 -24.61782,-0.5 -7.29235,-22.31649 C 92.40559,34.7521 88.90077,24.48643 88.6279,24.21356 88.35503,23.94068 84.67511,34.08782 80.45031,46.76274 l -7.68146,23.04532 -24.67259,0.2673 -24.67259,0.2673 19.27051,13.87867 c 10.59878,7.63328 19.45981,14.18498 19.69118,14.55935 0.23138,0.37437 -2.92785,10.92348 -7.0205,23.44246 -4.09266,12.51898 -7.44119,22.99311 -7.44119,23.27582 0,0.28272 2.1375,-1.0332 4.75,-2.92427 2.6125,-1.89107 11.49294,-8.3044 19.73431,-14.25184 z"
       id="path2995"
       inkscape:connector-curvature="0" />
    <path
       style="fill:#2ca5e3"
       d="M 76.80855,175.87804 C 45.44581,170.90733 20.55602,152.25285 7.82559,124.17649 c -9.69428,-21.38027 -9.69428,-50.19481 0,-71.57508 8.87203,-19.56685 25.22729,-35.96984 44.64313,-44.7734 21.62649,-9.80592 50.32999,-9.84911 71.81341,-0.10806 19.56685,8.87203 35.96984,25.22729 44.7734,44.64313 9.8528,21.72989 9.8528,50.32185 0,72.05174 -8.80045,19.40898 -25.20736,35.77147 -44.75677,44.6356 -12.97632,5.88374 -34.19653,8.93455 -47.49021,6.82762 z m -6.31396,-45.83628 c 8.8,-6.27527 16.46105,-11.77271 17.02456,-12.21655 0.60134,-0.47363 9.1817,5.15585 20.77216,13.62839 10.86118,7.93944 19.90548,14.43535 20.09845,14.43535 0.19298,0 -2.96699,-10.19543 -7.02215,-22.6565 -4.05516,-12.46108 -7.37302,-23.00403 -7.37302,-23.42878 0,-0.42475 8.80723,-7.21682 19.57163,-15.0935 l 19.57163,-14.32122 -24.54345,-0.26741 -24.54346,-0.26741 -7.178,-22.23259 c -3.94791,-12.22792 -7.51001,-22.60952 -7.9158,-23.07021 -0.40578,-0.46069 -4.20079,9.55181 -8.43335,22.25 l -7.69556,23.08762 -24.47584,0 c -13.6529,0 -24.23771,0.38529 -23.93733,0.87133 0.29618,0.47922 9.09774,7.03203 19.55902,14.56179 10.46128,7.52976 19.02051,13.78642 19.02051,13.90367 0,0.11726 -3.375,10.3157 -7.5,22.66321 -4.125,12.34751 -7.5,22.8294 -7.5,23.2931 0,0.92273 -0.45528,1.2291 22.5,-15.14029 z"
       id="path2993"
       inkscape:connector-curvature="0" />
    <path
       style="fill:#0096df"
       d="m 79.50001,175.94727 c -11.0502,-1.17079 -19.22483,-3.60062 -30,-8.91722 C 31.66726,158.23117 18.71954,145.28187 9.93447,127.45969 4.35501,116.14069 2.33749,109.20101 1.06743,96.95969 -0.64576,80.44735 2.21572,65.11865 9.93447,49.45969 18.72132,31.6339 31.67422,18.681 49.50001,9.89415 c 15.65896,-7.71875 30.98766,-10.58023 47.5,-8.86704 12.24132,1.27006 19.181,3.28758 30.5,8.86704 17.82579,8.78685 30.77866,21.73975 39.56556,39.56554 7.7187,15.65896 10.5802,30.98766 8.867,47.5 -1.27,12.24132 -3.2876,19.181 -8.867,30.5 -8.466,17.17492 -21.35304,30.35518 -38.00771,38.8726 -16.15331,8.26102 -32.46591,11.42591 -49.55785,9.61498 z m -10.32201,-44.66 c 10.2729,-7.33017 18.99946,-13.32758 19.39236,-13.32758 0.54628,0 31.08956,21.82941 38.20382,27.30442 0.70079,0.53932 1.48171,0.77303 1.73539,0.51936 0.25367,-0.25368 -2.9072,-10.54406 -7.02417,-22.86751 -4.11696,-12.32345 -7.48539,-22.66267 -7.48539,-22.97603 0,-0.31336 8.98322,-7.07461 19.96271,-15.02499 10.97949,-7.95039 19.97945,-14.78502 20.00005,-15.18808 0.02,-0.40305 -11.22856,-0.85305 -24.99786,-1 L 103.9298,68.45969 96.52475,46.10286 C 92.45197,33.80661 88.91195,23.5383 88.65805,23.2844 88.40415,23.0305 84.67439,33.42106 80.3697,46.37453 L 72.54299,69.92631 47.67821,70.193 22.81343,70.45969 42.78325,84.85427 62.75307,99.24884 55.37654,121.32927 c -4.05709,12.14424 -7.37653,22.68074 -7.37653,23.41444 0,1.71544 -0.77343,2.20687 21.17799,-13.45644 z"
       id="path2989"
       inkscape:connector-curvature="0" />
  </g>
</svg>
