<svg width="124.766" height="152.099" xmlns="http://www.w3.org/2000/svg"><title>Layer 1</title><path fill="#1B1A1B" d="M107.613 85.427c18.74-31.16-3.958-81.695-45.46-76.561-37.5 4.636-38.103 44.105-5.055 53.481 28.598 8.121 5.908 26.261 6.57 38.341.667 12.078 24.863 16.46 43.945-15.26z"/><circle fill="#1B1A1B" transform="rotate(-14.67 35.044 76.443) scale(1.05538)" r="15.414" cy="85.364" cx="33.728"/><path fill="#1B1A1B" d="M19.418 44.51c-5.852.566-10.135 5.764-9.569 11.616.568 5.856 5.766 10.143 11.619 9.577 5.85-.574 10.138-5.771 9.57-11.624-.57-5.848-5.767-10.136-11.62-9.57z"/><path fill="#BFBFBF" d="M108.32 84.163c18.742-31.16-3.956-81.696-45.459-76.562-37.498 4.636-38.103 44.107-5.056 53.483 28.6 8.121 5.909 26.261 6.572 38.342.667 12.077 24.862 16.458 43.944-15.263z"/><path d="M69.186 104.194c-1.136-1.842.601-3.889 2.386-3.733 2.842.249 9.029-.033 13.91-2.8 12.197-6.915 30.967-40.183 21.527-61.166-4.227-9.393-6.284-12.082-10.637-16.677-.888-.937-.378-.886.223-.569 2.354 1.236 6.49 6.02 10.732 13.807 7.168 13.157 6.796 28.798 4.13 38.61-1.857 6.825-8.253 22.266-17.62 28.942-9.387 6.692-20.372 10.53-24.651 3.586zM60.687 61.02c-6.39-1.897-14.627-4.538-19.392-10.77-3.512-4.596-5.295-9.61-5.75-12.455-.163-1.014-.3-1.86-.008-2.095.135-.108 2.623 5.515 6.342 10.227 3.718 4.714 8.915 7.47 13.244 8.472 3.85.89 11.827 2.847 14.525 5.146 2.775 2.363 3.006 7.47 2.073 8.045-.942.58-2.85-4.142-11.034-6.57z"/><path fill="#FFF" d="M73.863 105.094c-.123 1.463 1.556 1.75 3.818 1.41 2.898-.434 5.349-.76 8.685-2.432 4.521-2.266 9.097-5.507 12.448-9.88 9.998-13.044 13.539-28.478 12.993-30.699-.182 1.834-2.596 11.458-8.116 20.135-7.09 11.146-12.23 17.082-24.087 19.96-3.3.802-5.58-.419-5.741 1.506zM47.566 54.37c1.35 1.145 4.117 2.671 9.561 4.456 6.576 2.156 9.777 4.026 11.118 4.922 1.42.951 2.321 3.074 2.41 1.189.093-1.888-1.07-3.511-3.667-4.372-1.756-.583-4.71-1.972-7.543-2.53a82.388 82.388 0 0 1-7.32-1.85c-1.391-.428-2.81-1.177-4.56-1.816z"/><circle fill="#BFBFBF" transform="rotate(-14.67 35.044 76.443) scale(1.05538)" r="15.414" cy="84.375" cx="34.681"/><path d="M30.058 100.097c12.654 11.725 31.7-4.38 23.313-18.606-.942-1.597-2.165-2.813-1.763-1.59 2.68 8.18.204 14.651-4.417 17.985-4.531 3.27-10.76 3.817-15.745 1.232-1.464-.76-2.072.347-1.388.98z"/><path fill="#FFF" d="M39.987 102.506c1.61-.34 10.98-2.766 13.182-10.472.685-2.403.808-1.92.615-.619-.99 6.646-7.27 11.548-12.615 11.73-1.085.11-2.508-.362-1.182-.64z"/><path fill="#BFBFBF" d="M20.127 43.245c-5.852.567-10.136 5.765-9.57 11.617.568 5.855 5.766 10.143 11.618 9.576 5.852-.574 10.14-5.772 9.57-11.624-.568-5.848-5.765-10.135-11.618-9.569z"/><path d="M15.297 61.936c.065.752 1.095 1.719 2.714 2.162 1.39.381 4.974 1.356 9.579-1.55 4.604-2.907 5.135-10.68 3.042-12.966-.648-1.158-1.49-2.002-.82-.153 1.693 4.666-1.597 9.032-4.434 11.053-2.837 2.021-6.434 1.065-7.903.617-1.469-.448-2.243.06-2.178.837z"/><path fill="#FFF" d="M21.24 62.98c.421-.38 2.558-.224 4.487-1.261 1.927-1.038 4.219-3.31 4.628-6.541.24-1.897.313-1.42.409-.388-.3 5.37-5.238 8.337-8.063 8.729-.762.105-2.103.04-1.462-.538z"/><path fill="#999" d="M105.726 63.921c7.98-22.999-8.718-57.731-42.497-53.553-30.522 3.773-31.014 35.899-4.116 43.531 30.47 4.612 12.122 27.597 9.52 39.188-2.334 10.39 24.623 12.1 37.093-29.166z"/><path fill="#F3F3F3" d="M84.848 81.886c-8.254-1.022-20.132 17.614-8.932 15.432 11.198-2.181-11.2 2.182 0 0 5.383-.799 9.843-2.7 13.835-7.256 5.206-5.94 12.982-18.772 15.23-27.063 1.895-6.99.943-17.82-1.01-7.645-2.003 10.443-10.868 27.553-19.123 26.532z"/><path fill="#999" d="M29.402 96.792c1.911.032 3.067.301 5.003 1.66 3.825 1.589 10.856.582 14.103-3.693 3.247-4.274 3.354-10.164 2.117-13.723-3.027-8.71-15.883-8.556-21.627-1.325-6.213 8.076-1.507 17.05.404 17.081zM12.336 56.43c.38 1.2 1.354 2.95 3.41 3.242 2.744.39 3.305 1.63 6.546.986 3.24-.643 5.697-3.299 6.68-6.237 1.126-4.064-.56-6.163-3.096-8.037-2.536-1.873-8.114-1.672-11.444 1.363-2.366 2.155-3.023 5.763-2.096 8.684z"/><path fill="#F3F3F3" d="M23.114 59.119c2.49-.652 5.783-4.045 4.148-6.636-2.017-3.192-7.636-.46-7.827 3.094-.19 3.555 1.04 4.233 3.679 3.542zm18.698 38.294c2.125-.556 8.634-3.205 7.411-12.667-.619-4.793-3.233 5.949-8.074 7.555-7.334 2.434-6.51 6.99.663 5.112z"/></svg>