<?xml version="1.0" encoding="UTF-8" standalone="no"?>
<!-- Created with Inkscape (http://www.inkscape.org/) -->

<svg
   xmlns:dc="http://purl.org/dc/elements/1.1/"
   xmlns:cc="http://creativecommons.org/ns#"
   xmlns:rdf="http://www.w3.org/1999/02/22-rdf-syntax-ns#"
   xmlns:svg="http://www.w3.org/2000/svg"
   xmlns="http://www.w3.org/2000/svg"
   xmlns:sodipodi="http://sodipodi.sourceforge.net/DTD/sodipodi-0.dtd"
   xmlns:inkscape="http://www.inkscape.org/namespaces/inkscape"
   id="svg2"
   version="1.1"
   inkscape:version="0.48.5 r10040"
   width="256"
   height="256"
   sodipodi:docname="nagios.png">
  <metadata
     id="metadata8">
    <rdf:RDF>
      <cc:Work
         rdf:about="">
        <dc:format>image/svg+xml</dc:format>
        <dc:type
           rdf:resource="http://purl.org/dc/dcmitype/StillImage" />
        <dc:title></dc:title>
      </cc:Work>
    </rdf:RDF>
  </metadata>
  <defs
     id="defs6" />
  <sodipodi:namedview
     pagecolor="#ffffff"
     bordercolor="#666666"
     borderopacity="1"
     objecttolerance="10"
     gridtolerance="10"
     guidetolerance="10"
     inkscape:pageopacity="0"
     inkscape:pageshadow="2"
     inkscape:window-width="1280"
     inkscape:window-height="683"
     id="namedview4"
     showgrid="false"
     inkscape:zoom="0.921875"
     inkscape:cx="119.86441"
     inkscape:cy="212.61017"
     inkscape:window-x="0"
     inkscape:window-y="0"
     inkscape:window-maximized="1"
     inkscape:current-layer="svg2" />
  <path
     style="fill:#000000"
     d="m 191.09887,255.62198 c -4.21747,-0.307 -14.92292,-1.46986 -23.7899,-2.58413 -18.40824,-2.31327 -20.3771,-2.3072 -57.59334,0.17758 -15.329566,1.02349 -27.319936,1.40103 -45.007905,1.41713 -24.818911,0.0226 -33.820775,-0.62079 -34.868012,-2.4921 -0.277899,-0.49657 -1.492566,-1.22869 -2.699266,-1.62694 -3.300282,-1.08919 -3.800166,-2.03349 -3.280073,-6.19615 0.394147,-3.15466 0.795321,-3.93619 3.128801,-6.09513 5.881621,-5.4417 15.692354,-8.71105 28.07036,-9.35422 4.473554,-0.23244 14.260019,0.0606 24.757989,0.74138 9.5481,0.61917 23.436256,1.1225 30.862556,1.11852 12.25577,-0.007 14.63025,-0.19932 25.71881,-2.08765 12.14865,-2.06885 12.30561,-2.07835 28.29068,-1.71135 34.05526,0.78187 59.24318,5.62972 64.59406,12.43225 2.96588,3.77052 0.94919,9.99188 -4.17388,12.87619 -5.59261,3.14865 -18.96763,4.47968 -34.01088,3.38462 z M 58.798952,201.6441 c -5.823373,-0.73225 -11.027607,-2.30217 -15.503026,-4.67666 -5.714796,-3.03207 -6.600095,-4.42805 -7.088469,-11.17741 -0.226731,-3.13339 -0.991145,-9.74779 -1.698695,-14.69865 -2.090964,-14.63086 -1.485525,-27.07937 1.615585,-33.21826 0.595988,-1.17981 2.801806,-4.25712 4.901823,-6.83849 7.928587,-9.74591 9.041144,-12.7123 7.32604,-19.53324 -0.562039,-2.23522 -3.762686,-9.70611 -7.112541,-16.601968 -8.136523,-16.749441 -8.755575,-19.248865 -8.75868,-35.363355 -0.0026,-13.870401 0.946799,-23.643431 4.035794,-41.54105 L 38.526271,6.3520832 45.73401,5.5819782 c 3.964258,-0.423563 11.084768,-1.625898 15.823355,-2.671862 16.860029,-3.72158205 24.899809,-3.85868205 29.172889,-0.497479 2.38723,1.877788 4.72952,6.88709 6.51916,13.9420608 0.85389,3.366128 1.62108,6.164578 1.70487,6.218774 0.0838,0.0542 1.892646,1.139157 4.019686,2.411016 5.79895,3.46746 13.22874,10.09355 18.76205,16.732525 2.71563,3.258257 10.18508,13.880863 16.59877,23.605785 13.12489,19.900947 17.28747,25.335285 24.87019,32.468562 l 5.27932,4.9664 1.14777,-1.41744 c 1.91777,-2.368344 4.40302,-11.449281 5.15513,-18.836506 0.57151,-5.613412 0.4855,-11.023587 -0.4381,-27.557749 -1.5008,-26.867213 -0.80398,-36.524572 3.29433,-45.6568308 1.372,-3.057207 2.15458,-3.958542 4.3669,-5.029505 3.8382,-1.858042 9.61813,-2.775759 14.49046,-2.30074 5.77463,0.562985 22.59083,3.584057 23.96194,4.304827 1.56495,0.822667 6.59659,11.4733768 8.15682,17.2659258 3.04782,11.31538 3.53258,16.556731 3.5383,38.256721 0.004,15.497984 -0.36847,25.572772 -1.50978,40.828597 -2.04708,27.36317 -2.12752,47.30065 -0.23864,59.15325 2.12835,13.35524 2.38021,18.23365 1.22379,23.70402 -1.10864,5.24437 -3.87872,10.17873 -7.07685,12.60601 -2.89456,2.1969 -10.52043,3.14248 -22.12437,2.74336 -14.74873,-0.50728 -24.26216,-3.71069 -35.19527,-11.85113 -7.43029,-5.53235 -9.01672,-7.79899 -16.339,-23.34444 -1.74899,-3.71315 -4.65178,-8.63187 -6.45066,-10.93049 -1.79888,-2.29862 -6.73121,-8.80869 -10.96073,-14.46683 -4.22952,-5.65813 -10.22223,-13.61489 -13.31713,-17.68167 -5.86993,-7.71325 -16.52334,-18.8046 -19.90889,-20.7273 -1.896696,-1.07716 -2.025946,-1.06981 -3.650116,0.20777 -2.60587,2.04979 -4.83993,6.4156 -5.94023,11.60848 -0.84946,4.00907 -0.93574,8.02145 -0.56493,26.27124 0.48247,23.74504 0.0585,28.2285 -3.1949,33.77988 -2.05826,3.51217 -2.06335,6.37312 -0.0199,11.22802 2.10715,5.00636 2.17091,9.53571 0.16074,11.41808 -4.44019,4.15792 -17.65899,6.64278 -28.251982,5.31079 z"
     id="path2993"
     inkscape:connector-curvature="0" />
</svg>
