<svg xmlns="http://www.w3.org/2000/svg" width="256" height="256"><path d="M191.099 255.622c-4.218-.307-14.923-1.47-23.79-2.584-18.408-2.313-20.377-2.307-57.593.177-15.33 1.024-27.32 1.401-45.008 1.418-24.82.022-33.821-.621-34.868-2.493-.278-.496-1.493-1.228-2.7-1.626-3.3-1.09-3.8-2.034-3.28-6.197.395-3.154.796-3.936 3.13-6.095 5.88-5.441 15.692-8.71 28.07-9.354 4.473-.232 14.26.06 24.758.741 9.548.62 23.436 1.123 30.862 1.119 12.256-.007 14.63-.2 25.719-2.088 12.149-2.069 12.305-2.078 28.29-1.711 34.056.782 59.244 5.63 64.595 12.432 2.966 3.77.949 9.992-4.174 12.876-5.593 3.149-18.968 4.48-34.011 3.385zm-132.3-53.978c-5.823-.732-11.028-2.302-15.503-4.677-5.715-3.032-6.6-4.428-7.089-11.177-.226-3.133-.99-9.748-1.698-14.699-2.091-14.63-1.486-27.079 1.615-33.218.596-1.18 2.802-4.257 4.902-6.838 7.929-9.746 9.041-12.713 7.326-19.534-.562-2.235-3.762-9.706-7.112-16.602-8.137-16.749-8.756-19.248-8.759-35.363-.003-13.87.947-23.643 4.036-41.541l2.01-11.643 7.207-.77c3.964-.424 11.085-1.626 15.823-2.672 16.86-3.721 24.9-3.859 29.173-.497 2.387 1.877 4.73 6.887 6.52 13.942.853 3.366 1.62 6.164 1.704 6.218.084.055 1.893 1.14 4.02 2.411 5.799 3.468 13.229 10.094 18.762 16.733 2.716 3.258 10.185 13.88 16.599 23.606 13.125 19.9 17.287 25.335 24.87 32.468l5.28 4.967 1.147-1.418c1.918-2.368 4.403-11.449 5.155-18.836.572-5.614.486-11.024-.438-27.558-1.5-26.867-.804-36.525 3.294-45.657 1.372-3.057 2.155-3.958 4.367-5.03 3.839-1.857 9.618-2.775 14.49-2.3 5.775.563 22.592 3.584 23.963 4.305 1.565.822 6.596 11.473 8.157 17.266 3.047 11.315 3.532 16.556 3.538 38.256.004 15.498-.369 25.573-1.51 40.83-2.047 27.362-2.127 47.3-.239 59.152 2.129 13.356 2.38 18.234 1.224 23.704-1.108 5.245-3.878 10.18-7.077 12.606-2.894 2.197-10.52 3.143-22.124 2.744-14.749-.508-24.262-3.711-35.195-11.851-7.43-5.533-9.017-7.8-16.34-23.345-1.748-3.713-4.651-8.632-6.45-10.93-1.799-2.299-6.731-8.81-10.96-14.467a3184.785 3184.785 0 0 0-13.318-17.682c-5.87-7.713-16.523-18.804-19.909-20.727-1.896-1.077-2.026-1.07-3.65.208-2.606 2.05-4.84 6.415-5.94 11.608-.85 4.01-.936 8.022-.565 26.271.483 23.745.059 28.229-3.195 33.78-2.058 3.512-2.063 6.373-.02 11.228 2.107 5.007 2.171 9.536.161 11.418-4.44 4.158-17.659 6.643-28.252 5.311z"/></svg>