<svg xmlns="http://www.w3.org/2000/svg" width="128" height="128" fill="none"><g clip-path="url(#a)"><path fill="#014847" d="M125.189 54.774 73.226 2.81 71.296.885 69.16 0H58.84l-2.135.885-1.93 1.926L2.81 54.774l-1.926 1.93L0 58.84V69.16l.885 2.135 1.926 1.93 51.963 51.963 1.93 1.926 2.135.885H69.16l2.135-.885 1.93-1.926 51.963-51.963 1.926-1.93.885-2.135V58.84l-.885-2.135z"/><path fill="#32E6E2" d="M59.368 116.019V91.056l.663-.663h7.943l.662.663v24.963l-.662.662H60.03zM59.368 36.944V11.981l.663-.662h7.943l.662.662v24.963l-.662.663H60.03zM38.39 97.522h-1.094l-5.457-5.457v-1.094l7.271-7.276 5.777.005.774.77v5.776zM31.839 37.305v-1.09l5.457-5.461h1.09l7.275 7.275v5.773l-.77.779h-5.776zM9.86 59.355h28.076l.663.662v7.952l-.663.663H9.86l-.663-.663v-7.952z"/><path fill="#fff" d="M78.883 80.538h-7.938l-.663-.663V61.294c.004-3.31-1.294-5.87-5.288-5.955-2.05-.054-4.403 0-6.911.102l-.378.387.004 24.047-.663.663h-7.938l-.663-.663v-31.75l.663-.663h17.86c6.943 0 12.569 5.626 12.569 12.569v19.844l-.663.663z"/><path fill="#32E6E2" d="M118.14 68.645H90.064l-.663-.662V60.03l.663-.663h28.076l.663.663v7.952z"/></g><defs><clipPath id="a"><path fill="#fff" d="M0 0h128v128H0z"/></clipPath></defs></svg>