<?xml version="1.0" encoding="UTF-8" standalone="no"?>
<svg
   xmlns:dc="http://purl.org/dc/elements/1.1/"
   xmlns:cc="http://creativecommons.org/ns#"
   xmlns:rdf="http://www.w3.org/1999/02/22-rdf-syntax-ns#"
   xmlns:svg="http://www.w3.org/2000/svg"
   xmlns="http://www.w3.org/2000/svg"
   xmlns:sodipodi="http://sodipodi.sourceforge.net/DTD/sodipodi-0.dtd"
   xmlns:inkscape="http://www.inkscape.org/namespaces/inkscape"
   id="CMYK_-_square"
   data-name="CMYK - square"
   viewBox="0 0 256 256"
   version="1.1"
   inkscape:version="0.48.5 r10040"
   width="100%"
   height="100%"
   sodipodi:docname="newrelic.svg">
  <metadata
     id="metadata34">
    <rdf:RDF>
      <cc:Work
         rdf:about="">
        <dc:format>image/svg+xml</dc:format>
        <dc:type
           rdf:resource="http://purl.org/dc/dcmitype/StillImage" />
      </cc:Work>
    </rdf:RDF>
  </metadata>
  <sodipodi:namedview
     pagecolor="#ffffff"
     bordercolor="#666666"
     borderopacity="1"
     objecttolerance="10"
     gridtolerance="10"
     guidetolerance="10"
     inkscape:pageopacity="0"
     inkscape:pageshadow="2"
     inkscape:window-width="1280"
     inkscape:window-height="683"
     id="namedview32"
     showgrid="false"
     inkscape:zoom="0.42788505"
     inkscape:cx="47.206928"
     inkscape:cy="275.775"
     inkscape:window-x="0"
     inkscape:window-y="0"
     inkscape:window-maximized="1"
     inkscape:current-layer="CMYK_-_square" />
  <defs
     id="defs3">
    <style
       id="style5">.cls-1{fill:#0097a0;}.cls-2{fill:#5bc6cc;}.cls-3{fill:#231f20;}</style>
  </defs>
  <title
     id="title7">NewRelic-logo-square</title>
  <g
     id="g3022"
     transform="matrix(0.37590234,0,0,0.37584712,0.00379591,135.43063)">
    <path
       class="cls-1"
       d="M 676.02,-92.720007 C 644.08,-239.56001 467.99,-325.94001 282.69,-285.65001 97.39,-245.36001 -26.94,-93.650007 4.99,53.179993 36.92,200.00999 212.99,286.39999 398.31,246.10999 583.63,205.81999 707.94,54.109993 676.02,-92.720007 z M 328.09,163.52999 c -103.41,0 -187.2,-83.819997 -187.2,-187.219997 0,-103.400003 83.8,-187.190003 187.2,-187.190003 103.4,0 187.2,83.81 187.2,187.190003 0,103.38 -83.82,187.219997 -187.2,187.219997 z"
       id="path10"
       inkscape:connector-curvature="0"
       style="fill:#0097a0" />
    <path
       class="cls-2"
       d="m 374.75,-255.70001 c -132.32,0 -239.61,107.28 -239.61,239.600003 0,132.319997 107.29,239.619997 239.61,239.619997 132.32,0 239.62,-107.29 239.62,-239.619997 0,-132.330003 -107.3,-239.600003 -239.62,-239.600003 z m -46.66,416.22 c -101.75,0 -184.19,-82.469997 -184.19,-184.209997 0,-101.740003 82.44,-184.170003 184.19,-184.170003 101.75,0 184.13,82.45 184.13,184.170003 0,101.72 -82.42,184.209997 -184.13,184.209997 z"
       id="path12"
       inkscape:connector-curvature="0"
       style="fill:#5bc6cc" />
  </g>
</svg>
