<svg xmlns="http://www.w3.org/2000/svg" data-name="CMYK - square" viewBox="0 0 256 256"><path d="M254.12 100.581c-12.006-55.19-78.199-87.656-147.853-72.513C36.613 43.211-10.123 100.232 1.88 155.418c12.002 55.186 78.187 87.655 147.849 72.512 69.662-15.143 116.39-72.163 104.39-127.349zm-130.787 96.312c-38.872 0-70.368-31.504-70.368-70.367s31.5-70.355 70.368-70.355c38.868 0 70.369 31.5 70.369 70.355s-31.508 70.367-70.369 70.367z" fill="#0097a0"/><path d="M140.873 39.325c-49.74 0-90.07 40.321-90.07 90.054s40.33 90.061 90.07 90.061 90.073-40.325 90.073-90.061c0-49.736-40.334-90.054-90.073-90.054zm-17.54 156.436c-38.248 0-69.237-30.996-69.237-69.235 0-38.239 30.99-69.22 69.237-69.22s69.214 30.989 69.214 69.22c0 38.232-30.981 69.235-69.214 69.235z" fill="#5bc6cc"/></svg>