<svg xmlns="http://www.w3.org/2000/svg" id="CMYK_-_square" data-name="CMYK - square" viewBox="0 0 256 256"><defs id="defs3"><style id="style5">.cls-1{fill:#0097a0}.cls-2{fill:#5bc6cc}.cls-3{fill:#231f20}</style></defs><title id="title7">NewRelic-logo-square</title><g id="g3022" transform="matrix(.3759 0 0 .37585 .004 135.43)"><path class="cls-1" d="M676.02-92.72c-31.94-146.84-208.03-233.22-393.33-192.93-185.3 40.29-309.63 192-277.7 338.83 31.93 146.83 208 233.22 393.32 192.93 185.32-40.29 309.63-192 277.71-338.83zM328.09 163.53c-103.41 0-187.2-83.82-187.2-187.22s83.8-187.19 187.2-187.19c103.4 0 187.2 83.81 187.2 187.19s-83.82 187.22-187.2 187.22z" id="path10" fill="#0097a0"/><path class="cls-2" d="M374.75-255.7c-132.32 0-239.61 107.28-239.61 239.6s107.29 239.62 239.61 239.62S614.37 116.23 614.37-16.1c0-132.33-107.3-239.6-239.62-239.6zm-46.66 416.22c-101.75 0-184.19-82.47-184.19-184.21 0-101.74 82.44-184.17 184.19-184.17s184.13 82.45 184.13 184.17c0 101.72-82.42 184.21-184.13 184.21z" id="path12" fill="#5bc6cc"/></g></svg>