<svg xmlns="http://www.w3.org/2000/svg" xml:space="preserve" id="Layer_1" x="0" y="0" viewBox="0 0 127 87.2"><style>.st0{fill:#0082c9}</style><path id="path1052" d="M63.6 3.8C51 3.8 40.3 12.3 37 23.9c-2.9-6.1-9.1-10.4-16.3-10.4-9.9 0-18 8.1-18 18s8.1 18 18 18c7.2 0 13.4-4.3 16.3-10.4 3.3 11.6 14 20.1 26.6 20.1 12.5 0 23.1-8.4 26.5-19.8 2.9 6 9.1 10.2 16.2 10.2 9.9 0 18-8.1 18-18s-8.1-18-18-18c-7.1 0-13.2 4.2-16.2 10.2-3.4-11.6-14-20-26.5-20m0 10.5c9.5 0 17.1 7.6 17.1 17.1s-7.6 17.1-17.1 17.1-17.1-7.6-17.1-17.1 7.6-17.1 17.1-17.1M20.7 24c4.2 0 7.4 3.3 7.4 7.4 0 4.2-3.3 7.4-7.4 7.4-4.2 0-7.4-3.3-7.4-7.4s3.3-7.4 7.4-7.4m85.6 0c4.2 0 7.4 3.3 7.4 7.4 0 4.2-3.3 7.4-7.4 7.4-4.2 0-7.4-3.3-7.4-7.4-.1-4.1 3.2-7.4 7.4-7.4" class="st0"/><path id="path1174" d="M15.4 67.4c-.4 0-.5.2-.5.6v14.6c0 .4.2.5.5.5h.4c.4 0 .5-.2.5-.5V70.4l7.9 12.3c0 .1.1.1.1.1s.1 0 .1.1h.7c.4 0 .5-.2.5-.5V68c0-.4-.2-.6-.5-.6h-.4q-.6 0-.6.6v12.1l-7.9-12.3-.1-.1c-.1-.1-.2-.2-.4-.2zm95.4.2c-.4 0-.2.2-.2.6v5.9s-1-2.2-3.6-2.2c-2.9 0-5 2.3-4.9 5.7 0 3.4 1.9 5.8 4.8 5.8s3.8-2.3 3.8-2.3h.1s-.1.3-.1.7v.9c0 .4.2.5.6.5h.4c.4 0 .5-.2.5-.6V68.2c0-.4-.6-.6-.9-.6zm-39 .1c-.4 0-.1.2-.1.6v12.3c0 2.4 1.6 2.7 2.5 2.7q.6 0 .6-.6v-.4c0-.4-.2-.5-.5-.5-.5-.1-1.2-.2-1.2-1.6v-12c0-.4-.6-.6-.9-.6zm-18 1.3q-.6 0-.6.6v9.6c0 2.6 1.5 4.1 3.9 4.1.5 0 .6-.1.6-.5v-.3c0-.4-.1-.5-.6-.6-.9-.1-2.4-.4-2.4-2.9v-5.5H57c.4 0 .6-.1.6-.5v-.2q0-.6-.6-.6h-2.3v-2.6c0-.4-.1-.6-.5-.6zm-20 2.8c-3 0-5.4 2.2-5.5 5.8 0 3.4 2.5 5.8 5.8 5.8 1.8 0 3.1-.8 3.7-1.2.3-.2.3-.5.2-.7l-.2-.2c-.2-.3-.4-.4-.7-.2-.5.4-1.5 1-2.9 1-2.3 0-4.2-1.6-4.3-4.4h8c.3 0 .6-.3.6-.6-.1-3.2-1.7-5.3-4.7-5.3m31.2 0c-3.3 0-5.8 2.4-5.8 5.8s2.5 5.8 5.8 5.8c2 0 3.4-1 3.9-1.4.3-.3.3-.5.1-.8l-.2-.2c-.2-.3-.4-.4-.7-.2-.5.5-1.5 1.2-3.1 1.2-2.4 0-4.3-1.8-4.3-4.4 0-2.7 1.9-4.5 4.3-4.5 1.3 0 2.3.7 2.8 1 .3.2.6.2.8-.1l.2-.3c.3-.3.2-.6-.1-.8-.6-.3-1.8-1.1-3.7-1.1m16.9 0c-3.2 0-5.8 2.5-5.8 5.7 0 3.3 2.6 5.8 5.8 5.8s5.8-2.5 5.8-5.8c.1-3.2-2.6-5.7-5.8-5.7m-32.4.2c-.1 0-.2.1-.4.2l-2 2.4-1.5 1.8-2.3-2.7-1.3-1.5c-.1-.1-.2-.2-.4-.2-.1 0-.3 0-.4.2l-.3.3c-.3.2-.3.5 0 .7l2 2.4 1.7 2-2.5 2.9-1.2 1.5c-.2.3-.2.6.1.8l.3.3c.3.2.5.2.7-.1l2-2.4 1.5-1.8 2.3 2.7L49 83c.2.3.5.3.8.1l.3-.3c.3-.2.3-.5 0-.7l-2-2.4-1.7-2 2.5-2.9 1.2-1.5c.2-.3.2-.6-.1-.8l-.3-.3c0-.2-.1-.3-.2-.2m41.2 0c-.4 0-.5.2-.5.6v6.5c0 2.9 2.1 4.3 4.7 4.3s4.7-1.4 4.7-4.3v-6.5c.1-.4-.1-.6-.5-.6h-.4q-.6 0-.6.6v6.1c0 1.7-1.1 3.3-3.3 3.3-2.1 0-3.3-1.6-3.3-3.3v-6.1q0-.6-.6-.6zm-56.9 1c1.6 0 3 1.2 3.1 3.5H30c.3-2.2 1.9-3.5 3.8-3.5m48.1.1c2.4 0 4.3 1.9 4.3 4.4 0 2.6-1.9 4.5-4.3 4.5s-4.3-2-4.3-4.5c0-2.4 2-4.4 4.3-4.4m25.2 0c2.4 0 3.5 2.2 3.5 4.4 0 3.2-1.7 4.5-3.6 4.5-2.1 0-3.5-1.8-3.5-4.5s1.6-4.4 3.6-4.4" class="st0"/></svg>