<svg xmlns="http://www.w3.org/2000/svg" xmlns:xlink="http://www.w3.org/1999/xlink" xml:space="preserve" width="160" height="160" viewBox="0 0 150 150"><defs><linearGradient id="a"><stop offset="0" style="stop-color:#0082c9;stop-opacity:1"/><stop offset="1" style="stop-color:#1cafff;stop-opacity:1"/></linearGradient><linearGradient xlink:href="#a" id="b" x1="18.23" x2="150" y1="150" y2="0" gradientUnits="userSpaceOnUse"/></defs><path d="M0 0h150v150H0z" style="opacity:1;fill:url(#b);fill-opacity:1;fill-rule:evenodd;stroke:none;stroke-width:.1;stroke-miterlimit:4;stroke-dasharray:none;stroke-opacity:1"/><path d="M75.087 37.288c-11.805 0-21.811 8.003-24.913 18.846-2.695-5.751-8.536-9.78-15.263-9.78-9.252 0-16.857 7.604-16.857 16.856s7.605 16.86 16.857 16.86c6.727 0 12.568-4.031 15.263-9.784 3.102 10.845 13.108 18.85 24.913 18.85 11.718 0 21.673-7.885 24.853-18.606 2.745 5.621 8.514 9.54 15.146 9.54 9.251 0 16.86-7.608 16.86-16.86s-7.609-16.857-16.86-16.857c-6.632 0-12.4 3.917-15.146 9.538-3.18-10.721-13.135-18.603-24.853-18.603m0 9.895c8.911 0 16.03 7.116 16.03 16.027s-7.119 16.031-16.03 16.031a15.954 15.954 0 0 1-16.027-16.03 15.95 15.95 0 0 1 16.027-16.028M34.91 56.249c3.904 0 6.965 3.057 6.965 6.961s-3.06 6.965-6.965 6.965-6.962-3.06-6.962-6.965 3.058-6.961 6.962-6.961m80.175 0c3.904 0 6.965 3.057 6.965 6.961s-3.061 6.965-6.965 6.965-6.962-3.06-6.962-6.965 3.057-6.961 6.962-6.961" style="color:#000;font-style:normal;font-variant:normal;font-weight:400;font-stretch:normal;font-size:medium;line-height:normal;font-family:sans-serif;text-indent:0;text-align:start;text-decoration:none;text-decoration-line:none;text-decoration-style:solid;text-decoration-color:#000;letter-spacing:normal;word-spacing:normal;text-transform:none;writing-mode:lr-tb;direction:ltr;baseline-shift:baseline;text-anchor:start;white-space:normal;clip-rule:nonzero;display:inline;overflow:visible;visibility:visible;opacity:1;isolation:auto;mix-blend-mode:normal;color-interpolation:sRGB;color-interpolation-filters:linearRGB;solid-color:#000;solid-opacity:1;fill:#fff;fill-opacity:1;fill-rule:nonzero;stroke:none;stroke-width:5.56590033;stroke-linecap:butt;stroke-linejoin:miter;stroke-miterlimit:10;stroke-dasharray:none;stroke-dashoffset:0;stroke-opacity:1;color-rendering:auto;image-rendering:auto;shape-rendering:auto;text-rendering:auto"/><path d="M29.915 96.956c-.33 0-.472.188-.472.518v13.642c0 .33.142.515.472.515h.377c.33 0 .515-.186.515-.515V99.787l7.447 11.558c.033.05.068.084.103.121.011.013.018.026.03.037.032.029.067.044.1.062.02.01.035.024.056.032.015.005.03.002.046.006.052.013.106.027.17.027h.374c.33 0 .472-.185.472-.515V97.473c0-.329-.142-.517-.472-.517h-.375c-.33 0-.517.188-.517.517v11.33l-7.447-11.558c-.026-.04-.057-.063-.085-.094-.086-.122-.222-.195-.417-.195zm89.42.188c-.33 0-.188.188-.188.517v4.658c0 .47.046.798.046.798h-.046s-.894-2.069-3.387-2.069c-2.728 0-4.658 2.164-4.564 5.363 0 3.198 1.74 5.41 4.516 5.41 2.681 0 3.575-2.165 3.575-2.165h.048s-.094.283-.094.66v.798c0 .33.188.471.517.471h.33c.329 0 .469-.188.469-.517V97.661c0-.33-.518-.517-.847-.517zm-36.55.048c-.33 0-.14.188-.14.517v11.524c0 2.258 1.504 2.54 2.35 2.54.377 0 .518-.188.518-.517v-.33c0-.329-.188-.469-.423-.469-.47-.047-1.08-.189-1.08-1.506V97.71c0-.329-.518-.517-.847-.517zm-16.886 1.222c-.33 0-.517.188-.517.517v8.938c0 2.446 1.365 3.81 3.623 3.81.423 0 .563-.14.563-.469v-.284c0-.376-.14-.47-.563-.517-.8-.047-2.259-.33-2.259-2.728v-5.175h2.117c.33 0 .517-.14.517-.469v-.142c0-.329-.188-.517-.517-.517h-2.117v-2.447c0-.329-.14-.517-.47-.517zm-18.735 2.634c-2.822 0-5.082 2.024-5.129 5.41 0 3.2 2.353 5.409 5.41 5.409a5.83 5.83 0 0 0 3.434-1.128c.235-.189.283-.424.142-.66l-.142-.233c-.141-.282-.375-.33-.657-.142-.47.376-1.413.94-2.73.94-2.117 0-3.952-1.505-3.999-4.14h7.48a.52.52 0 0 0 .517-.517c0-2.963-1.55-4.939-4.326-4.939m29.224 0c-3.057 0-5.41 2.258-5.456 5.457 0 3.198 2.353 5.41 5.41 5.41a5.8 5.8 0 0 0 3.669-1.318c.235-.235.28-.423.14-.705l-.14-.188c-.188-.282-.377-.33-.66-.142a4.35 4.35 0 0 1-2.915 1.083c-2.258 0-4.046-1.694-4.046-4.14 0-2.493 1.788-4.186 4.046-4.186 1.223 0 2.116.611 2.586.94.283.188.517.189.705-.093l.142-.236c.235-.282.187-.517-.048-.705-.517-.423-1.645-1.176-3.433-1.176m15.9 0c-3.011 0-5.457 2.305-5.457 5.363 0 3.104 2.446 5.456 5.456 5.456s5.457-2.352 5.457-5.456c0-3.058-2.446-5.363-5.457-5.363m-30.43.158c-.116.019-.227.096-.332.222l-1.905 2.268-1.423 1.699-2.158-2.57-1.17-1.397a.52.52 0 0 0-.35-.206.53.53 0 0 0-.38.142l-.288.243c-.253.212-.24.446-.028.698l1.904 2.268 1.58 1.884-2.312 2.753-.005.006-1.167 1.389c-.211.252-.188.518.064.73l.289.24c.252.212.481.159.693-.093l1.902-2.269 1.426-1.698 2.158 2.573.005.005 1.165 1.391c.211.252.477.274.73.062l.288-.24c.252-.212.24-.446.027-.698l-1.904-2.27-1.579-1.882L61.4 103.7l.004-.006 1.167-1.389c.212-.252.189-.518-.064-.73l-.288-.24q-.188-.158-.362-.128m38.662.078c-.33 0-.472.188-.472.518v6.067c0 2.68 1.976 3.998 4.422 3.998s4.422-1.317 4.422-3.998v-6.067c.047-.33-.14-.518-.47-.518h-.377c-.33 0-.517.188-.517.518v5.691c0 1.6-1.035 3.058-3.058 3.058-1.976 0-3.058-1.458-3.058-3.058v-5.691c0-.33-.188-.518-.517-.518zm-53.404.94c1.505 0 2.822 1.082 2.916 3.246h-6.49c.329-2.117 1.834-3.245 3.574-3.245m45.171.095c2.211 0 3.999 1.74 3.999 4.092 0 2.446-1.788 4.234-3.999 4.234-2.21 0-3.999-1.835-4.046-4.234 0-2.305 1.836-4.092 4.046-4.092m23.567 0c2.21 0 3.293 2.023 3.293 4.14 0 2.963-1.6 4.186-3.341 4.186-1.929 0-3.244-1.646-3.291-4.186 0-2.634 1.504-4.14 3.339-4.14" style="fill:#fff;fill-opacity:1;stroke-width:.47038522"/></svg>