<svg width="600" height="557" xmlns="http://www.w3.org/2000/svg"><path d="M213.796 290.084c-81.931-30.016-124.457-38.868-140.219-41.4 8.995-14.467 19.71-27.932 32.048-40.007l299.542-.156c17.953 17.528 32.54 37.96 43.296 60.21-28.757 22.161-108.227 67.669-234.667 21.353zm165.245-28.555h-53.046c-8.26 0-15.017 6.418-15.017 14.272 0 7.855 6.758 14.283 15.017 14.283h53.046c8.259 0 15.015-6.428 15.015-14.283 0-7.854-6.756-14.272-15.015-14.272zm0 87.23h-53.046c-8.26 0-15.017-6.428-15.017-14.288 0-7.85 6.758-14.268 15.017-14.268h53.046c8.259 0 15.015 6.419 15.015 14.268 0 7.86-6.756 14.287-15.015 14.287zm0 58.433h-53.046c-8.26 0-15.017-6.432-15.017-14.283 0-7.849 6.758-14.268 15.017-14.268h53.046c8.259 0 15.015 6.42 15.015 14.268 0 7.85-6.756 14.283-15.015 14.283zm0 58.67h-53.046c-8.26 0-15.017-6.428-15.017-14.283 0-7.844 6.758-14.272 15.017-14.272h53.046c8.259 0 15.015 6.428 15.015 14.272 0 7.855-6.756 14.283-15.015 14.283zm48.021-293.075l-5.873-5.326-331.642.174-5.856 5.326C30.504 221.357 0 290.334 0 362.218c0 72.012 30.58 141.065 83.9 189.46L89.76 557l331.636-.17 5.86-5.331c53.189-48.396 83.687-117.369 83.687-189.28 0-71.998-30.57-141.042-83.88-189.432zM129.59 104.495l-1.057-2.695c-1.238-2.58-2.72-5.34-4.43-8.26a94.811 94.811 0 0 0-2.21-3.687h-.02l-.858-1.342c-9.057-14.16-21.088-28.32-31.392-36.94L70.63 35.645l335.878 24.217c2.526.18 4.245.643 5.236.993l2.73.954-.954 2.741c-.515 1.475-1.34 3.053-2.456 4.688l-2.332 3.44c-6.143 9.085-17.556 31.1-21.82 39.436l-254.348.065a103.282 103.282 0 0 0-2.975-7.683zm400.129 60.815c-20.796-25.474-44.014-43.868-67.189-53.22l-36.387.008.586-1.006c4.717-8.138 12.824-22.25 12.943-22.44 11.464-16.938 14.647-30.974 9.444-41.712-5.61-11.58-21.736-20.247-40.128-21.58L60.035.2A81.984 81.984 0 0 0 54.5 0C32.68 0 25.488 10.842 23.138 17.307 18.827 29.17 24.1 41.769 38.503 53.83c.16.15 16.607 15.388 31.977 31.23 7.248 7.174 13.032 16.296 17.188 27.127l.576 36.09 354.09-.497s27.273 11.735 54.165 44.685c38.006 46.585 72.525 131.565 56.8 231.546h43.32c15.383-111.333-24.3-206.483-66.901-258.702z" fill="#3360A3" fill-rule="evenodd"/></svg>