<?xml version="1.0" encoding="UTF-8" standalone="no"?>
<svg
   xmlns:dc="http://purl.org/dc/elements/1.1/"
   xmlns:cc="http://creativecommons.org/ns#"
   xmlns:rdf="http://www.w3.org/1999/02/22-rdf-syntax-ns#"
   xmlns:svg="http://www.w3.org/2000/svg"
   xmlns="http://www.w3.org/2000/svg"
   xmlns:sodipodi="http://sodipodi.sourceforge.net/DTD/sodipodi-0.dtd"
   xmlns:inkscape="http://www.inkscape.org/namespaces/inkscape"
   width="256"
   height="256"
   viewBox="0 0 256 256"
   version="1.1"
   preserveAspectRatio="xMidYMid"
   id="svg2"
   inkscape:version="0.48.5 r10040"
   sodipodi:docname="openshift-seeklogo.com.svg">
  <metadata
     id="metadata36">
    <rdf:RDF>
      <cc:Work
         rdf:about="">
        <dc:format>image/svg+xml</dc:format>
        <dc:type
           rdf:resource="http://purl.org/dc/dcmitype/StillImage" />
        <dc:title></dc:title>
      </cc:Work>
    </rdf:RDF>
  </metadata>
  <defs
     id="defs34" />
  <sodipodi:namedview
     pagecolor="#ffffff"
     bordercolor="#666666"
     borderopacity="1"
     objecttolerance="10"
     gridtolerance="10"
     guidetolerance="10"
     inkscape:pageopacity="0"
     inkscape:pageshadow="2"
     inkscape:window-width="640"
     inkscape:window-height="480"
     id="namedview32"
     showgrid="false"
     inkscape:zoom="0.99578059"
     inkscape:cx="128"
     inkscape:cy="118.5"
     inkscape:window-x="0"
     inkscape:window-y="0"
     inkscape:window-maximized="0"
     inkscape:current-layer="svg2" />
  <g
     id="g4"
     transform="translate(-0.19203785,9.1897432)">
    <path
       d="m 74.839268,106.89293 -40.867853,14.87038 c 0.524419,6.55207 1.651983,13.02413 3.240477,19.36541 l 38.81716,-14.13645 c -1.244384,-6.55207 -1.688807,-13.31999 -1.180895,-20.10061"
       id="path6"
       inkscape:connector-curvature="0"
       style="fill:#da2430" />
    <path
       d="m 255.44407,61.702362 c -2.85065,-5.879079 -6.147,-11.561343 -9.9665,-16.916003 l -40.85642,14.870388 c 4.75532,4.863256 8.74243,10.329656 12.00703,16.175721 l 38.81716,-14.132646 -10e-4,0.0025 0,0 z"
       id="path8"
       inkscape:connector-curvature="0"
       style="fill:#da2430" />
    <g
       id="g10">
      <path
         d="m 182.95027,61.461441 c -5.14058,-4.460862 -10.94624,-8.310375 -17.40862,-11.324866 l -0.003,0 C 127.5981,32.448547 82.330459,48.904889 64.642431,86.858598 c -0.996941,2.141553 -1.87987,4.306117 -2.65383,6.487617 -2.207685,6.423051 -3.497307,12.989875 -3.990748,19.546195 l -0.143924,0.0532 c -0.0038,0.048 -0.0075,0.0961 -0.01117,0.1441 l -24.59554,8.94981 -15.826485,5.849 c -0.0023,-0.0292 -0.0045,-0.0584 -0.0068,-0.0876 l -0.433958,0.15791 c -1.536433,-19.43524 1.739598,-39.511727 10.553138,-58.411126 1.153888,-2.475209 2.384067,-4.891073 3.686444,-7.246102 29.054247,-54.1159304 95.164002,-76.735753 150.918752,-50.329058 11.53972,5.467948 21.77273,12.636902 30.55622,21.072977 5.90947,5.46661 11.18386,11.487986 15.78119,17.940547 l -40.85896,14.872927 c -0.21026,-0.214902 -0.42185,-0.428731 -0.63475,-0.641468 l -0.11311,0.04182 c -1.25848,-1.306975 -2.56475,-2.574358 -3.91864,-3.797894 z"
         id="path12"
         inkscape:connector-curvature="0"
         style="fill:#da2430" />
      <path
         d="m 19.261322,193.89648 -0.06443,0.0234 C 10.695721,181.94972 4.5080859,168.50148 0.93873571,154.34725 l 38.82477829,-14.14026 0.0025,0.003 c 0.008,0.0418 0.01603,0.0836 0.0241,0.12531 l 0.252109,-0.0932 0.0058,0.0156 c 1.994163,10.56064 6.145261,20.63521 12.197721,29.49351 2.307709,3.29322 4.886317,6.41496 7.722422,9.32679 l -0.154193,0.0561 c 0.09761,0.10299 0.195537,0.20572 0.293771,0.30819 l -40.487529,14.97079 c -0.120124,-0.17174 -0.239782,-0.34378 -0.358973,-0.51611 z"
         id="path14"
         inkscape:connector-curvature="0"
         style="fill:#e82429" />
      <path
         d="m 173.46549,183.44686 c -21.05156,13.01743 -48.0531,15.53239 -72.11361,4.3121 -8.511329,-3.96933 -15.926841,-9.33796 -22.118286,-15.69447 l -40.77135,14.84372 c 0.103747,0.14591 0.207841,0.29159 0.31228,0.43706 l -0.02018,0.007 c 11.210073,16.01662 26.502203,29.40405 45.266807,38.29849 40.469299,19.16316 86.386779,12.50108 119.634329,-13.28442 14.88801,-11.15151 27.31651,-26.01544 35.71255,-44.01896 8.81862,-18.89559 12.0756,-38.96445 10.51504,-58.38446 l -1.13561,0.41321 c -0.0153,-0.20802 -0.0312,-0.41595 -0.0477,-0.62382 l -40.48947,14.95715 0.002,0.004 c -0.64463,8.92365 -2.86289,17.87652 -6.80667,26.45936 -6.31438,13.75336 -16.16357,24.70895 -27.94009,32.27368 z"
         id="path16"
         inkscape:connector-curvature="0"
         style="fill:#da2430" />
      <path
         d="m 218.55238,75.129191 0.60711,-0.220995 0,-0.0013 c 6.38699,13.142218 10.28521,27.427234 11.45341,42.055094 l -40.77262,14.83357 c 0.008,-0.10116 0.0149,-0.20232 0.022,-0.30347 l -0.77102,0.28486 c 1.1101,-15.08763 -2.27473,-30.09348 -9.43391,-43.122557 l 38.54777,-14.250192 0.002,-0.0039 c 0.11593,0.242561 0.23104,0.485515 0.34532,0.728855 z"
         id="path18"
         inkscape:connector-curvature="0"
         style="fill:#e82429" />
    </g>
    <path
       d="m 74.890671,106.65403 -40.581012,14.9961 c 0.519995,6.60997 1.639833,13.1362 3.219293,19.53194 l 38.545827,-14.25798 c -1.24643,-6.62166 -1.694365,-13.43807 -1.168528,-20.27395"
       id="path20"
       inkscape:connector-curvature="0"
       style="fill:#c22035" />
    <path
       d="m 254.22692,61.082823 c -2.82978,-5.92833 -6.10556,-11.658009 -9.89743,-17.058554 l -40.57127,14.996103 c 4.72085,4.905868 8.68021,10.417422 11.92093,16.314591 l 38.54193,-14.256035 0.006,0.0039 0,0 z"
       id="path22"
       inkscape:connector-curvature="0"
       style="fill:#c22035" />
    <path
       d="m 34.30849,121.65267 40.481687,-14.82862 -0.165541,8.13295 -39.056083,14.74877 -1.265905,-8.06284 0.0058,0.01 0,0 z"
       id="path24"
       inkscape:connector-curvature="0"
       style="fill:#ac223b" />
    <path
       d="m 203.76601,58.897482 41.11269,-14.108022 4.27291,6.448324 -39.94611,14.121655 -5.43365,-6.465852 -0.006,0.0039 0,0 z"
       id="path26"
       inkscape:connector-curvature="0"
       style="fill:#ac223b" />
    <path
       d="m 38.763891,187.20102 40.530376,-14.74876 12.257853,11.56452 -42.50324,15.95624 -10.283042,-12.7759 -0.0019,0.004 0,0 z"
       id="path28"
       inkscape:connector-curvature="0"
       style="fill:#b92135" />
    <path
       d="m 249.38065,109.86164 -41.16528,14.84419 -3.03233,16.47819 43.89184,-15.64269 0.31161,-15.67774 -0.006,-0.002 0,0 z"
       id="path30"
       inkscape:connector-curvature="0"
       style="fill:#b92135" />
  </g>
</svg>
