<svg xmlns="http://www.w3.org/2000/svg" width="256" height="256" preserveAspectRatio="xMidYMid"><path d="M74.647 116.083l-40.868 14.87c.525 6.552 1.652 13.024 3.24 19.365l38.818-14.136c-1.244-6.552-1.689-13.32-1.18-20.1m180.595-45.19c-2.85-5.879-6.147-11.561-9.966-16.916l-40.857 14.87c4.755 4.864 8.743 10.33 12.007 16.176l38.817-14.132v.002z" fill="#da2430"/><path d="M182.758 70.651c-5.14-4.46-10.946-8.31-17.408-11.325h-.003c-37.94-17.688-83.209-1.231-100.897 36.722a73.976 73.976 0 0 0-2.653 6.488c-2.208 6.423-3.498 12.99-3.991 19.546l-.144.053-.011.144-24.596 8.95-15.826 5.85-.007-.088-.434.158c-1.536-19.436 1.74-39.512 10.553-58.412a117.952 117.952 0 0 1 3.687-7.246c29.054-54.116 95.164-76.735 150.918-50.329a115.314 115.314 0 0 1 30.556 21.073 116.598 116.598 0 0 1 15.782 17.94l-40.86 14.874c-.21-.215-.421-.429-.634-.642l-.113.042a78.608 78.608 0 0 0-3.919-3.798z" fill="#da2430"/><path d="M19.07 203.086l-.065.024A118.404 118.404 0 0 1 .747 163.537l38.824-14.14.003.003.024.125.252-.093.006.015c1.994 10.561 6.145 20.636 12.198 29.494a75.288 75.288 0 0 0 7.722 9.327l-.154.056c.098.103.195.206.294.308l-40.488 14.97c-.12-.17-.24-.343-.359-.515z" fill="#e82429"/><path d="M173.273 192.637c-21.051 13.017-48.053 15.532-72.113 4.312a75.14 75.14 0 0 1-22.118-15.695L38.27 196.098l.312.437-.02.007c11.21 16.017 26.503 29.404 45.267 38.299 40.47 19.163 86.387 12.5 119.634-13.285 14.888-11.151 27.317-26.015 35.713-44.019 8.819-18.895 12.076-38.964 10.515-58.384l-1.136.413c-.015-.208-.03-.416-.047-.624l-40.49 14.957.002.004a76.457 76.457 0 0 1-6.806 26.46c-6.315 13.753-16.164 24.709-27.94 32.273z" fill="#da2430"/><path d="M218.36 84.319l.607-.221v-.001a117.732 117.732 0 0 1 11.454 42.055l-40.773 14.833.022-.303-.77.285c1.11-15.088-2.276-30.094-9.435-43.123l38.548-14.25.002-.004.345.729z" fill="#e82429"/><path d="M74.699 115.844L34.118 130.84c.52 6.61 1.64 13.136 3.219 19.532l38.546-14.258c-1.247-6.622-1.695-13.438-1.169-20.274m179.321-45.567c-2.83-5.929-6.106-11.658-9.898-17.059l-40.57 14.996c4.72 4.906 8.68 10.418 11.92 16.315l38.542-14.256.006.004z" fill="#c22035"/><path d="M34.116 130.842l40.482-14.828-.165 8.133-39.056 14.749-1.266-8.063.005.01zm169.458-62.755l41.113-14.108 4.273 6.449-39.947 14.121-5.433-6.466-.006.004z" fill="#ac223b"/><path d="M38.572 196.39l40.53-14.748 12.258 11.565-42.503 15.956-10.283-12.776-.002.004zm210.617-77.339l-41.166 14.845-3.032 16.478 43.892-15.643.311-15.678-.006-.002z" fill="#b92135"/></svg>