<svg id="Layer_1" xmlns="http://www.w3.org/2000/svg" viewBox="0 0 1745.7 1745.7"><style>.st0{fill:#ff8f1c}.st1{fill:#fff}</style><path class="st0" d="M872.8 85C437.7 85 85 437.7 85 872.8c0 435.1 352.7 787.8 787.8 787.8 435.1 0 787.8-352.7 787.8-787.8.1-435.1-352.7-787.8-787.8-787.8z"/><path class="st1" d="M1168.5 461.6c8.8 183.1-138.6 268.5-138.6 268.5 7.5-166.5-114.6-249.4-146.3-253.2 215.9 25.6 166.6 192.9 166.6 192.9 73.7-93.5 67.8-177.2 66.6-208.4-8.4-104.2-64.4-178.4-195.2-223.3 0 .1 237.1 17 246.9 223.5zM850.2 215.9c35-45.4 28.3-62.3 28.3-62.3 21.8 26.4 28.5 47.2 5.2 80.1-23.3 32.8 2.7 68.2 2.7 68.2-16.4-4.5-72.1-29.2-36.2-86z"/><path class="st1" d="M862.9 330.3h.8c23.4.3 41.6 32.3 41 71.3-.8 39.1-20.2 70.3-43.7 70-23.4-.4-41.6-32.2-41-71.3.6-38.5 19.8-69.6 42.9-70zM826 842c-1.5-.9-177.1-141.4-58-346.3 0 0-88.7 73.4-85.2 167.3-68.1-90.7-62.7-171.1-61.6-201.6 8.4-104.2 64.4-178.4 195.2-223.3 0 0-237 16.9-246.9 223.4-7 146.5 85.8 223.9 123.3 249 16.6 43.1 56.1 88.3 133.2 131.5zm-483.2 465.7c-69.1-109.9-156.2-300.9 106-327.7C645 959.8 735.5 879.2 746.1 858.2c-50.2 148.9-245.4 141.9-356.3 195.2-99.1 47.7-47 254.3-47 254.3z"/><path class="st1" d="M453.1 1242.7c17.1-91.4 95.7-119.7 165.4-119.7 72.7 0 136.2 30.4 136.2 30.4-218.9-30.3-301.6 89.3-301.6 89.3zm186.5 278l-76.5-31.6s166.8-23.4 313.3-142.2c0 0-75.9 138.4-236.8 173.8zm-65-233.1c58.8-72.5 174.2-121.8 307.1-121.8 129.5 0 242.5 46.8 302.6 116.4-77.3-45.8-183.3-74-300.5-74-121.7 0-231.3 30.5-309.2 79.4zm545.4 231.9c-160.9-35.4-232-172.6-232-172.6 146.5 118.8 305.4 142.2 305.4 142.2l-73.4 30.4zm288.7-211.8s52.1-206.5-47-254.3c-110.7-53.3-306.1-46.2-356.3-195.2 10.6 21 101.1 101.6 297.3 121.8 262 26.7 175 217.7 106 327.7z"/></svg>