<svg xmlns="http://www.w3.org/2000/svg" xmlns:xlink="http://www.w3.org/1999/xlink" viewBox="-0.99 262.096 91.39 108.05" width="87.39" height="104.05"><defs><path d="M43.7 263.1c-14.34 0-25.96 11.62-25.96 25.96 0 14.34 11.62 25.96 25.96 25.96 14.34 0 25.97-11.62 25.97-25.96 0-14.34-11.63-25.96-25.97-25.96z" id="a"/><linearGradient id="b" gradientUnits="userSpaceOnUse" x1="43.7" y1="271.73" x2="43.7" y2="325.04"><stop offset="0%" stop-color="#2684ff"/><stop offset="82%" stop-color="#0052cc"/></linearGradient><path d="M.38 323.54a2.908 2.908 0 0 1 1.13-3.96c.04-.03.09-.05.13-.07 1.97-.97 17.7-8.69 19.67-9.65 1.37-.67 3.03-.17 3.79 1.16a97.199 97.199 0 0 0 42.21 38.2 125.638 125.638 0 0 1-21.39 17.29c-1.36.85-3.07.85-4.43 0A125.16 125.16 0 0 1 .38 323.54z" id="c"/><linearGradient id="d" gradientUnits="userSpaceOnUse" x1="27.72" y1="323.54" x2="45.58" y2="360.91"><stop offset="0%" stop-color="#2684ff"/><stop offset="62%" stop-color="#0052cc"/></linearGradient><path d="M87.03 323.54c.78-1.41.28-3.18-1.12-3.96-.04-.03-.09-.05-.13-.07-1.97-.97-17.71-8.69-19.68-9.65a2.912 2.912 0 0 0-3.8 1.16 97.12 97.12 0 0 1-42.2 38.2 125.25 125.25 0 0 0 21.39 17.29c1.36.85 3.07.85 4.43 0a125.16 125.16 0 0 0 41.11-42.97z" id="e"/></defs><use xlink:href="#a" fill="url(#b)"/><use xlink:href="#a" fill-opacity="0" stroke="#000" stroke-opacity="0"/><use xlink:href="#c" fill="url(#d)"/><use xlink:href="#c" fill-opacity="0" stroke="#000" stroke-opacity="0"/><use xlink:href="#e" fill="#2684ff"/><use xlink:href="#e" fill-opacity="0" stroke="#000" stroke-opacity="0"/></svg>