<svg xmlns="http://www.w3.org/2000/svg" width="1024" height="1024"><path d="M0 512V0h1024v1024H0V512z" fill="#24bf4f"/><path d="M0 512V0h1024v1024H0V512zm246 227.06v-59.938l77.75-.393c74.934-.378 78.058-.469 86.25-2.495 38.687-9.567 61.785-31.398 71.74-67.805l2.714-9.929.316-83.634c.308-81.635.265-83.88-1.782-93.923-4.043-19.842-10.755-33.259-23.283-46.543-15.252-16.172-34.363-25.254-59.679-28.36-13.775-1.69-128.329-1.36-140.03.405-49.105 7.402-80.003 40.116-84.047 88.987-1.04 12.568-1.312 361.872-.282 362.901.366.367 16.341.667 35.5.667H246v-59.94zm.25-217.268c.27-69.76.595-87.003 1.698-90.003 2.003-5.45 6.354-10.224 11.773-12.915l4.779-2.374h133l4.999 2.5c5.338 2.67 8.845 6.979 10.485 12.882.632 2.277 1.007 31.813 1.01 79.686.006 84.143.082 83.058-6.22 89.167-7.19 6.969-4 6.71-87.066 7.046l-74.791.303.333-86.292zm528.824 154.02c21.686-5.907 33.36-12.317 47.018-25.812 13.993-13.826 21.079-27.147 25.603-48.127 1.703-7.901 1.805-18.746 1.805-192.373v-184l-35.25-.263-35.25-.263v119.904l-77.25.406c-83.046.437-82.103.381-98.721 5.848-27.769 9.135-48.155 29.382-57.26 56.868-5.31 16.026-5.269 15.211-5.269 106 0 83.182.033 84.625 2.14 92.5 5.103 19.078 11.486 31.216 22.743 43.25 14.24 15.222 34.582 25.072 58.117 28.141 3.85.502 37.375.827 74.5.722l67.5-.192 9.574-2.608zM627.15 606.537c-7.016-1.698-10.11-4.071-13.15-10.088l-2.5-4.948v-159l2.24-4.192c2.443-4.569 6.791-8.26 12.26-10.405 2.83-1.11 17.803-1.432 78.282-1.68l74.781-.307-.281 86.792-.282 86.792-2.5 4.993c-3.105 6.2-9.249 10.966-16.006 12.415-7.763 1.665-125.79 1.334-132.844-.372z" fill="#323333"/></svg>