<?xml version="1.0" encoding="UTF-8" standalone="no"?>
<!-- Created with Inkscape (http://www.inkscape.org/) -->

<svg
   xmlns:dc="http://purl.org/dc/elements/1.1/"
   xmlns:cc="http://creativecommons.org/ns#"
   xmlns:rdf="http://www.w3.org/1999/02/22-rdf-syntax-ns#"
   xmlns:svg="http://www.w3.org/2000/svg"
   xmlns="http://www.w3.org/2000/svg"
   xmlns:sodipodi="http://sodipodi.sourceforge.net/DTD/sodipodi-0.dtd"
   xmlns:inkscape="http://www.inkscape.org/namespaces/inkscape"
   id="svg2"
   version="1.1"
   inkscape:version="0.48.5 r10040"
   width="1024"
   height="1024"
   sodipodi:docname="icon-pd-slate-1024.png">
  <metadata
     id="metadata8">
    <rdf:RDF>
      <cc:Work
         rdf:about="">
        <dc:format>image/svg+xml</dc:format>
        <dc:type
           rdf:resource="http://purl.org/dc/dcmitype/StillImage" />
        <dc:title></dc:title>
      </cc:Work>
    </rdf:RDF>
  </metadata>
  <defs
     id="defs6" />
  <sodipodi:namedview
     pagecolor="#ffffff"
     bordercolor="#666666"
     borderopacity="1"
     objecttolerance="10"
     gridtolerance="10"
     guidetolerance="10"
     inkscape:pageopacity="0"
     inkscape:pageshadow="2"
     inkscape:window-width="640"
     inkscape:window-height="480"
     id="namedview4"
     showgrid="false"
     inkscape:zoom="0.23046875"
     inkscape:cx="-32.542373"
     inkscape:cy="512"
     inkscape:window-x="0"
     inkscape:window-y="0"
     inkscape:window-maximized="0"
     inkscape:current-layer="svg2" />
  <g
     id="g2987">
    <path
       style="fill:#24bf4f"
       d="M 0,512 0,0 l 512,0 512,0 0,512 0,512 -512,0 -512,0 0,-512 z"
       id="path2991"
       inkscape:connector-curvature="0" />
    <path
       style="fill:#323333"
       d="M 0,512 0,0 l 512,0 512,0 0,512 0,512 -512,0 -512,0 0,-512 z m 246,227.0609 0,-59.9391 77.75,-0.39264 c 74.93386,-0.37843 78.05787,-0.46879 86.25,-2.49466 38.68681,-9.56704 61.78456,-31.39835 71.73932,-67.80588 l 2.71474,-9.92862 0.31552,-83.63413 c 0.30797,-81.63452 0.26539,-83.88012 -1.78113,-93.92253 -4.04363,-19.84246 -10.75548,-33.25928 -23.28354,-46.54321 -15.25168,-16.17188 -34.36297,-25.25389 -59.67868,-28.36033 -13.77505,-1.69031 -128.32924,-1.35921 -140.03039,0.40474 -49.10472,7.40253 -80.00292,40.11687 -84.04734,88.98749 -1.04005,12.5675 -1.31133,361.87181 -0.28183,362.9013 C 176.03333,798.7 192.00833,799 211.16667,799 L 246,799 l 0,-59.9391 z m 0.25021,-217.26906 c 0.26968,-69.75987 0.59491,-87.00286 1.69759,-90.00313 2.00291,-5.4497 6.35466,-10.22355 11.77286,-12.91479 L 264.5,416.5 l 66.5,0 66.5,0 4.99855,2.5 c 5.33875,2.67014 8.84549,6.97853 10.48542,12.88237 0.63242,2.27677 1.00694,31.81216 1.01045,79.68613 0.006,84.14271 0.0819,83.0575 -6.22074,89.16624 -7.19003,6.96885 -4.00036,6.7107 -87.06537,7.04654 l -74.79168,0.30239 0.33358,-86.29183 z M 775.07364,675.81288 C 796.75957,669.90486 808.43433,663.49549 822.09222,650 836.08474,636.17385 843.17091,622.85336 847.69468,601.87278 849.39823,593.972 849.5,583.12728 849.5,409.5 l 0,-184 -35.25,-0.26279 -35.25,-0.2628 0,59.95156 0,59.95156 -77.25,0.4064 c -83.04581,0.4369 -82.10282,0.38104 -98.72144,5.8481 C 575.26028,360.26704 554.8735,380.51418 545.76844,408 540.45948,424.02634 540.5,423.21111 540.5,514 c 0,83.1817 0.0334,84.62481 2.13984,92.5 5.1031,19.07839 11.48566,31.21597 22.74326,43.25038 14.23938,15.22194 34.58194,25.07202 58.1169,28.14081 3.85,0.50201 37.375,0.82661 74.5,0.72132 l 67.5,-0.19143 9.57364,-2.6082 z M 627.15016,606.53566 C 620.13424,604.83835 617.03992,602.46466 614,596.44803 l -2.5,-4.94803 0,-79.5 0,-79.5 2.24077,-4.19207 c 2.442,-4.56853 6.79055,-8.25933 12.25923,-10.40492 2.83058,-1.11056 17.80303,-1.43186 78.28165,-1.67992 l 74.78164,-0.30673 -0.28164,86.79182 L 778.5,589.5 776,594.49264 c -3.10469,6.20024 -9.24903,10.96612 -16.00623,12.41528 -7.76278,1.66481 -125.79039,1.33408 -132.84361,-0.37226 z"
       id="path2989"
       inkscape:connector-curvature="0" />
  </g>
</svg>
