<?xml version="1.0" encoding="UTF-8" standalone="no"?>
<svg
   xmlns:dc="http://purl.org/dc/elements/1.1/"
   xmlns:cc="http://creativecommons.org/ns#"
   xmlns:rdf="http://www.w3.org/1999/02/22-rdf-syntax-ns#"
   xmlns:svg="http://www.w3.org/2000/svg"
   xmlns="http://www.w3.org/2000/svg"
   xmlns:sodipodi="http://sodipodi.sourceforge.net/DTD/sodipodi-0.dtd"
   xmlns:inkscape="http://www.inkscape.org/namespaces/inkscape"
   viewBox="0 0 256 256"
   id="svg2"
   version="1.1"
   inkscape:version="0.48.5 r10040"
   width="100%"
   height="100%"
   sodipodi:docname="papertrail.svg">
  <metadata
     id="metadata39">
    <rdf:RDF>
      <cc:Work
         rdf:about="">
        <dc:format>image/svg+xml</dc:format>
        <dc:type
           rdf:resource="http://purl.org/dc/dcmitype/StillImage" />
      </cc:Work>
    </rdf:RDF>
  </metadata>
  <sodipodi:namedview
     pagecolor="#ffffff"
     bordercolor="#666666"
     borderopacity="1"
     objecttolerance="10"
     gridtolerance="10"
     guidetolerance="10"
     inkscape:pageopacity="0"
     inkscape:pageshadow="2"
     inkscape:window-width="1280"
     inkscape:window-height="683"
     id="namedview37"
     showgrid="false"
     inkscape:zoom="1.0656636"
     inkscape:cx="261.90408"
     inkscape:cy="113.58667"
     inkscape:window-x="0"
     inkscape:window-y="0"
     inkscape:window-maximized="1"
     inkscape:current-layer="svg2" />
  <defs
     id="defs4">
    <style
       id="style6">.cls-1{fill:#f99d1e;}.cls-2{fill:#fff;}</style>
  </defs>
  <title
     id="title8">Asset 1</title>
  <rect
     style="fill:#03498f;fill-opacity:1;fill-rule:nonzero;stroke:none"
     id="rect3054"
     width="256"
     height="256"
     x="0"
     y="0" />
  <g
     id="g3047"
     transform="matrix(3.0821093,0,0,3.0821093,7.71e-7,25.165423)">
    <path
       style="fill:#f99d1e"
       inkscape:connector-curvature="0"
       d="m 39.53,31.29 0.72,-0.2 A 137.93,137.93 0 0 0 55.9,25.36 57.83,57.83 0 0 0 70.3,17.16 31.27,31.27 0 0 0 80.4,2.89 12.81,12.81 0 0 0 81.31,0 c -7,9.56 -34.75,10.55 -34.75,10.55 l 6.55,-6 A 91.53,91.53 0 0 0 0,21.75 50,50 0 0 1 28.16,34.33 c 3.76,-1.16 7.59,-2 11.38,-3"
       class="cls-1"
       data-name="&lt;Path&gt;"
       id="_Path_" />
    <path
       style="fill:#f99d1e"
       inkscape:connector-curvature="0"
       d="m 83.06,30.35 c 0,0 -25.61,-2 -52.2,6.61 a 50.3,50.3 0 0 1 8.78,12.53 C 53.62,41.7 73,31.75 83.06,30.35"
       class="cls-1"
       data-name="&lt;Path&gt;"
       id="_Path_2" />
    <path
       style="fill:#f99d1e"
       inkscape:connector-curvature="0"
       d="m 41.39,53.48 a 49.9,49.9 0 0 1 3.17,13.25 L 68.93,41.66 z"
       class="cls-1"
       data-name="&lt;Path&gt;"
       id="_Path_3" />
    <path
       style="fill:#f99d1e"
       inkscape:connector-curvature="0"
       d="M 54.19,65.77 V 65.5"
       class="cls-1"
       data-name="&lt;Compound Path&gt;"
       id="_Compound_Path_" />
    <path
       style="fill:#f99d1e"
       inkscape:connector-curvature="0"
       d="M 54.64,63.77"
       class="cls-1"
       data-name="&lt;Compound Path&gt;"
       id="_Compound_Path_2" />
  </g>
</svg>
