<svg xmlns="http://www.w3.org/2000/svg" viewBox="0 0 256 256" id="svg2"><defs id="defs4"><style id="style6">.cls-1{fill:#f99d1e}</style></defs><path id="rect3054" fill="#03498f" d="M0 0h256v256H0z"/><g id="g3047" transform="translate(0 25.165) scale(3.0821)"><path d="M39.53 31.29l.72-.2a137.93 137.93 0 0 0 15.65-5.73 57.83 57.83 0 0 0 14.4-8.2A31.27 31.27 0 0 0 80.4 2.89 12.81 12.81 0 0 0 81.31 0c-7 9.56-34.75 10.55-34.75 10.55l6.55-6A91.53 91.53 0 0 0 0 21.75a50 50 0 0 1 28.16 12.58c3.76-1.16 7.59-2 11.38-3" class="cls-1" data-name="&lt;Path&gt;" id="_Path_" fill="#f99d1e"/><path d="M83.06 30.35s-25.61-2-52.2 6.61a50.3 50.3 0 0 1 8.78 12.53C53.62 41.7 73 31.75 83.06 30.35" class="cls-1" data-name="&lt;Path&gt;" id="_Path_2" fill="#f99d1e"/><path d="M41.39 53.48a49.9 49.9 0 0 1 3.17 13.25l24.37-25.07z" class="cls-1" data-name="&lt;Path&gt;" id="_Path_3" fill="#f99d1e"/><path d="M54.19 65.77v-.27" class="cls-1" data-name="&lt;Compound Path&gt;" id="_Compound_Path_" fill="#f99d1e"/></g></svg>