<?xml version="1.0" encoding="UTF-8" standalone="no"?>
<!-- Created with Inkscape (http://www.inkscape.org/) -->

<svg
   xmlns:dc="http://purl.org/dc/elements/1.1/"
   xmlns:cc="http://creativecommons.org/ns#"
   xmlns:rdf="http://www.w3.org/1999/02/22-rdf-syntax-ns#"
   xmlns:svg="http://www.w3.org/2000/svg"
   xmlns="http://www.w3.org/2000/svg"
   xmlns:sodipodi="http://sodipodi.sourceforge.net/DTD/sodipodi-0.dtd"
   xmlns:inkscape="http://www.inkscape.org/namespaces/inkscape"
   id="svg2"
   version="1.1"
   inkscape:version="0.48.5 r10040"
   width="256"
   height="256"
   xml:space="preserve"
   sodipodi:docname="Perforce-LOGO-BLACK-CMYK.pdf"><metadata
     id="metadata8"><rdf:RDF><cc:Work
         rdf:about=""><dc:format>image/svg+xml</dc:format><dc:type
           rdf:resource="http://purl.org/dc/dcmitype/StillImage" /><dc:title></dc:title></cc:Work></rdf:RDF></metadata><defs
     id="defs6"><clipPath
       clipPathUnits="userSpaceOnUse"
       id="clipPath18"><path
         d="m 0.06,51.433 446.732,0 0,-51.433 -446.732,0 0,51.433 z"
         id="path20"
         inkscape:connector-curvature="0" /></clipPath><clipPath
       clipPathUnits="userSpaceOnUse"
       id="clipPath24"><path
         d="M 0,0 447,0 447,52 0,52 0,0 z"
         id="path26"
         inkscape:connector-curvature="0" /></clipPath><clipPath
       clipPathUnits="userSpaceOnUse"
       id="clipPath34"><path
         d="M 0,0 447,0 447,52 0,52 0,0 z"
         id="path36"
         inkscape:connector-curvature="0" /></clipPath><clipPath
       clipPathUnits="userSpaceOnUse"
       id="clipPath56"><path
         d="m 0.06,51.433 446.732,0 0,-51.433 -446.732,0 0,51.433 z"
         id="path58"
         inkscape:connector-curvature="0" /></clipPath><clipPath
       clipPathUnits="userSpaceOnUse"
       id="clipPath62"><path
         d="M 0,0 447,0 447,52 0,52 0,0 z"
         id="path64"
         inkscape:connector-curvature="0" /></clipPath><clipPath
       clipPathUnits="userSpaceOnUse"
       id="clipPath3827"><rect
         style="fill:#ffffff;fill-opacity:1;fill-rule:nonzero;stroke:none"
         id="rect3829"
         width="55.16011"
         height="51.163002"
         x="216.40482"
         y="-51.163002"
         transform="scale(1,-1)" /></clipPath><clipPath
       clipPathUnits="userSpaceOnUse"
       id="clipPath3831"><rect
         style="fill:#ffffff;fill-opacity:1;fill-rule:nonzero;stroke:none"
         id="rect3833"
         width="220.8"
         height="204.8"
         x="-1.5258789e-06"
         y="-204.8"
         transform="scale(1,-1)" /></clipPath></defs><sodipodi:namedview
     pagecolor="#ffffff"
     bordercolor="#666666"
     borderopacity="1"
     objecttolerance="10"
     gridtolerance="10"
     guidetolerance="10"
     inkscape:pageopacity="0"
     inkscape:pageshadow="2"
     inkscape:window-width="1280"
     inkscape:window-height="683"
     id="namedview4"
     showgrid="false"
     inkscape:zoom="1.6608501"
     inkscape:cx="151.8744"
     inkscape:cy="104.75216"
     inkscape:window-x="0"
     inkscape:window-y="0"
     inkscape:window-maximized="1"
     inkscape:current-layer="g10" /><g
     id="g10"
     inkscape:groupmode="layer"
     inkscape:label="Perforce-LOGO-BLACK-CMYK"
     transform="matrix(1.25,0,0,-1.25,0,256)"><g
       id="g12"
       clip-path="url(#clipPath3831)" /><g
       clip-path="url(#clipPath3827)"
       id="g54"
       transform="matrix(3.7128284,0,0,3.7128284,-803.47397,7.4202803)"><g
         clip-path="url(#clipPath62)"
         id="g60"><path
           inkscape:connector-curvature="0"
           id="path66"
           style="fill:#0b1423;fill-opacity:1;fill-rule:nonzero;stroke:none"
           d="m 391.888,9.893 c -0.154,0.141 -0.264,0.227 -0.264,0.227 l 0.264,-0.227" /><path
           inkscape:connector-curvature="0"
           id="path68"
           style="fill:#0b1423;fill-opacity:1;fill-rule:nonzero;stroke:none"
           d="m 236.888,6.922 c -10.515,3.946 -15.84,15.67 -11.894,26.185 0.371,0.992 0.815,1.937 1.317,2.834 -0.488,0.463 -1.71,1.427 -1.639,1.512 6.364,7.709 14.673,10.021 22.025,8.668 1.501,-0.2 3.003,-0.565 4.481,-1.12 10.516,-3.946 15.842,-15.669 11.895,-26.185 -0.394,-1.051 -0.871,-2.05 -1.412,-2.994 0.596,-0.512 1.865,-1.46 1.797,-1.542 -7.069,-8.449 -16.49,-10.396 -24.317,-8.054 -0.755,0.189 -1.507,0.417 -2.253,0.696 z m 34.38,26.348 c 0,0 -0.931,11.739 -10.392,17.893 -1.336,-1.288 -2.929,-2.842 -3.712,-3.559 -1.251,0.717 -2.574,1.349 -3.97,1.873 -11.959,4.488 -24.538,-0.594 -31.466,-10.037 -3.636,-5.414 -5.773,-12.072 -5.243,-18.942 0,0 0.02,-12.893 11.785,-20.498 0.967,1.328 2.197,3.046 3.003,4.137 1.309,-0.764 2.695,-1.434 4.162,-1.985 13.531,-5.077 28.523,1.407 33.419,14.454 0,0 3.602,7.962 2.414,16.664" /></g></g></g></svg>