<svg xmlns="http://www.w3.org/2000/svg" width="256" height="256"><defs><clipPath id="b"><path d="M0 0h447v52H0V0z"/></clipPath><clipPath id="a"><path transform="scale(1 -1)" fill="#fff" d="M216.405-51.163h55.16V0h-55.16z"/></clipPath></defs><g clip-path="url(#a)" transform="matrix(4.64104 0 0 -4.64104 -1004.342 246.725)"><g clip-path="url(#b)" fill="#0b1423"><path d="M391.888 9.893c-.154.141-.264.227-.264.227l.264-.227m-155-2.971c-10.515 3.946-15.84 15.67-11.894 26.185.371.992.815 1.937 1.317 2.834-.488.463-1.71 1.427-1.639 1.512 6.364 7.709 14.673 10.021 22.025 8.668 1.501-.2 3.003-.565 4.481-1.12 10.516-3.946 15.842-15.669 11.895-26.185a20.484 20.484 0 0 0-1.412-2.994c.596-.512 1.865-1.46 1.797-1.542-7.069-8.449-16.49-10.396-24.317-8.054-.755.189-1.507.417-2.253.696zm34.38 26.348s-.931 11.739-10.392 17.893c-1.336-1.288-2.929-2.842-3.712-3.559a27.21 27.21 0 0 1-3.97 1.873c-11.959 4.488-24.538-.594-31.466-10.037-3.636-5.414-5.773-12.072-5.243-18.942 0 0 .02-12.893 11.785-20.498.967 1.328 2.197 3.046 3.003 4.137a27.278 27.278 0 0 1 4.162-1.985c13.531-5.077 28.523 1.407 33.419 14.454 0 0 3.602 7.962 2.414 16.664"/></g></g></svg>