<svg xmlns="http://www.w3.org/2000/svg" width="500" height="500"><path d="M94.585 498.831c-23.056-3.41-45.428-14.72-62.1-31.391-14.019-14.02-23.67-30.928-29.318-51.366L.5 406.426v-313l2.667-9.649C14.437 43 43.074 14.362 83.852 3.092L93.5.426h313l9.648 2.666c40.778 11.27 69.415 39.907 80.685 80.685l2.667 9.649v313l-2.667 9.648c-11.27 40.778-39.921 69.429-80.685 80.682l-9.648 2.663-153 .144c-84.15.079-155.662-.25-158.915-.732z" fill="#fdee00"/><path d="M154.5 412.587c-6.57-2.177-9.881-4.266-14.217-8.97-5.249-5.695-6.836-8.824-8.19-16.145-1.404-7.596-1.487-169.402-.095-185.127 2.643-29.854 14.124-54.646 34.95-75.472 20.567-20.567 45.812-32.376 74.49-34.844 36.697-3.158 71.37 10.059 97.13 37.025 9.933 10.398 15.24 18.113 21.495 31.241 26.532 55.7 6.924 121.51-45.843 153.864-33.263 20.395-74.055 23.05-110.646 7.2-4.36-1.889-8.297-3.433-8.75-3.433-.453 0-.824 15.894-.824 35.321 0 29.811-.25 36.058-1.606 40.036-2.224 6.528-10.023 14.806-16.624 17.646-6.356 2.734-15.8 3.47-21.27 1.658zM265.404 266.95c10.72-2.742 18.97-7.4 26.606-15.024 11.975-11.956 17.651-26.76 16.682-43.5-1.423-24.568-16.555-43.948-40.692-52.118-7.677-2.598-25.323-2.598-33 0-14.433 4.885-26.546 14.616-33.357 26.796-4.395 7.859-7.643 19.894-7.643 28.322 0 3.399.899 9.694 1.997 13.988 7.874 30.786 38.882 49.343 69.407 41.536z" fill="#010100"/></svg>