<?xml version="1.0" encoding="UTF-8" standalone="no"?>
<!-- Created with Inkscape (http://www.inkscape.org/) -->

<svg
   xmlns:dc="http://purl.org/dc/elements/1.1/"
   xmlns:cc="http://creativecommons.org/ns#"
   xmlns:rdf="http://www.w3.org/1999/02/22-rdf-syntax-ns#"
   xmlns:svg="http://www.w3.org/2000/svg"
   xmlns="http://www.w3.org/2000/svg"
   xmlns:sodipodi="http://sodipodi.sourceforge.net/DTD/sodipodi-0.dtd"
   xmlns:inkscape="http://www.inkscape.org/namespaces/inkscape"
   id="svg2"
   version="1.1"
   inkscape:version="0.48.5 r10040"
   width="120"
   height="120"
   sodipodi:docname="pivotall.png">
  <metadata
     id="metadata8">
    <rdf:RDF>
      <cc:Work
         rdf:about="">
        <dc:format>image/svg+xml</dc:format>
        <dc:type
           rdf:resource="http://purl.org/dc/dcmitype/StillImage" />
        <dc:title></dc:title>
      </cc:Work>
    </rdf:RDF>
  </metadata>
  <defs
     id="defs6" />
  <sodipodi:namedview
     pagecolor="#ffffff"
     bordercolor="#666666"
     borderopacity="1"
     objecttolerance="10"
     gridtolerance="10"
     guidetolerance="10"
     inkscape:pageopacity="0"
     inkscape:pageshadow="2"
     inkscape:window-width="640"
     inkscape:window-height="480"
     id="namedview4"
     showgrid="false"
     inkscape:zoom="1.9666667"
     inkscape:cx="-3.8135593"
     inkscape:cy="60"
     inkscape:window-x="0"
     inkscape:window-y="0"
     inkscape:window-maximized="0"
     inkscape:current-layer="svg2" />
  <g
     id="g2987"
     transform="translate(-0.27331525,0.01268524)">
    <path
       style="fill:#5183af"
       d="M 51.402109,119.05481 C 28.185543,115.41466 9.1949409,98.530864 2.4123965,75.5 -0.3985076,65.955271 0.00664876,51.459853 3.3579064,41.672168 7.801667,28.693718 14.865058,19.051685 25.475255,11.480406 47.930261,-4.5431535 76.522288,-3.2731845 98.797603,14.737157 110.74951,24.400672 120,44.148613 120,60 c 0,5.965561 -2.78254,18.460592 -5.42659,24.368161 -10.56636,23.608319 -37.945416,38.641849 -63.171301,34.686649 z m 20.056337,-12.586 C 88.705651,101.97648 101.99146,88.648132 106.50833,71.306702 112.9854,46.439546 97.068006,20.201635 71.458446,13.531192 46.435047,7.0134248 20.221262,22.856643 13.531192,48.541554 4.6183177,82.76039 37.23961,115.38168 71.458446,106.46881 z M 54.624694,90.318828 49.12232,80.637656 52.31116,74.790367 c 2.574608,-4.72099 3.574078,-5.748128 5.18884,-5.332483 1.1,0.283144 2.748204,0.520951 3.662675,0.528461 1.072604,0.0088 3.853946,3.945689 7.837146,11.093175 3.39596,6.093736 6.022757,11.202597 5.837326,11.353024 C 73.859246,93.225848 61.219717,100 60.717435,100 60.392734,100 57.651001,95.643473 54.624694,90.318828 z M 31.8075,84.858439 25.115,80.902657 31.126621,70.951329 37.138241,61 l 6.245667,0 c 6.07234,0 6.289034,0.09094 7.80832,3.276917 1.56054,3.272486 1.554367,3.290965 -4.565592,13.666935 -3.370534,5.714509 -6.577882,10.498096 -7.12744,10.630193 -0.549558,0.132096 -4.010821,-1.539927 -7.691696,-3.715606 z M 69.075109,74.322418 c -1.69131,-3.12267 -3.060138,-5.93517 -3.04184,-6.25 0.0183,-0.31483 0.87793,-1.584918 1.910293,-2.822418 C 69.707792,63.135206 70.577121,63 82.410293,63 L 95,63 95,71.5 95,80 83.575109,80 72.150218,80 69.075109,74.322418 z M 68.259377,55.876213 c -1.104454,-2.926033 -0.82383,-3.733186 4.432808,-12.75 3.086548,-5.294417 6.027355,-10.163131 6.535125,-10.819365 0.681021,-0.880138 2.674284,-0.127677 7.597955,2.868243 3.671104,2.233767 6.849987,4.220937 7.064184,4.415934 0.214198,0.194997 -2.168978,4.641788 -5.295945,9.881758 L 82.90811,59 76.173293,59 C 69.54916,59 69.419097,58.94866 68.259377,55.876213 z M 25,49.5 25,41 l 11.360675,0 11.360674,0 3.055842,5.75 3.055842,5.75 -2.204081,2.75 C 49.441253,57.979561 49.334103,58 37.212435,58 L 25,58 25,49.5 z M 51.099283,39.938077 C 47.629459,33.85402 45.03033,28.636337 45.32344,28.343226 46.233738,27.432929 59.282528,19.943238 59.459571,20.229428 62.25047,24.740911 70,39.259787 70,39.977101 70,40.52317 68.611402,43.226715 66.914226,45.984977 64.245196,50.322703 63.394902,51 60.618253,51 57.578332,51 57.073418,50.413243 51.099283,39.938077 z"
       id="path2991"
       inkscape:connector-curvature="0" />
    <path
       style="fill:#ea7c1a"
       d="m 54.624694,90.318828 -5.502374,-9.681172 3.18884,-5.847289 c 2.574608,-4.72099 3.574078,-5.748128 5.18884,-5.332483 1.1,0.283144 2.748204,0.520951 3.662675,0.528461 1.072604,0.0088 3.853946,3.945689 7.837146,11.093175 3.39596,6.093736 6.022757,11.202597 5.837326,11.353024 C 73.859246,93.225848 61.219717,100 60.717435,100 60.392734,100 57.651001,95.643473 54.624694,90.318828 z M 31.8075,84.858439 25.115,80.902657 31.126621,70.951329 37.138241,61 l 6.245667,0 c 6.07234,0 6.289034,0.09094 7.80832,3.276917 1.56054,3.272486 1.554367,3.290965 -4.565592,13.666935 -3.370534,5.714509 -6.577882,10.498096 -7.12744,10.630193 -0.549558,0.132096 -4.010821,-1.539927 -7.691696,-3.715606 z M 69.075109,74.322418 c -1.69131,-3.12267 -3.060138,-5.93517 -3.04184,-6.25 0.0183,-0.31483 0.87793,-1.584918 1.910293,-2.822418 C 69.707792,63.135206 70.577121,63 82.410293,63 L 95,63 95,71.5 95,80 83.575109,80 72.150218,80 69.075109,74.322418 z M 68.259377,55.876213 c -1.104454,-2.926033 -0.82383,-3.733186 4.432808,-12.75 3.086548,-5.294417 6.027355,-10.163131 6.535125,-10.819365 0.681021,-0.880138 2.674284,-0.127677 7.597955,2.868243 3.671104,2.233767 6.849987,4.220937 7.064184,4.415934 0.214198,0.194997 -2.168978,4.641788 -5.295945,9.881758 L 82.90811,59 76.173293,59 C 69.54916,59 69.419097,58.94866 68.259377,55.876213 z M 25,49.5 25,41 l 11.360675,0 11.360674,0 3.055842,5.75 3.055842,5.75 -2.204081,2.75 C 49.441253,57.979561 49.334103,58 37.212435,58 L 25,58 25,49.5 z M 51.099283,39.938077 C 47.629459,33.85402 45.03033,28.636337 45.32344,28.343226 46.233738,27.432929 59.282528,19.943238 59.459571,20.229428 62.25047,24.740911 70,39.259787 70,39.977101 70,40.52317 68.611402,43.226715 66.914226,45.984977 64.245196,50.322703 63.394902,51 60.618253,51 57.578332,51 57.073418,50.413243 51.099283,39.938077 z"
       id="path2989"
       inkscape:connector-curvature="0" />
  </g>
</svg>
