<svg xmlns="http://www.w3.org/2000/svg" width="120" height="120"><path d="M51.129 119.067c-23.217-3.64-42.207-20.523-48.99-43.554-2.81-9.545-2.406-24.04.946-33.828 4.443-12.979 11.507-22.62 22.117-30.192C47.657-4.53 76.249-3.26 98.524 14.75c11.952 9.663 21.203 29.411 21.203 45.263 0 5.965-2.783 18.46-5.427 24.368-10.566 23.608-37.945 38.642-63.171 34.686zm20.056-12.586c17.247-4.492 30.533-17.82 35.05-35.162 6.477-24.867-9.44-51.105-35.05-57.775-25.023-6.518-51.237 9.325-57.927 35.01-8.913 34.22 23.708 66.84 57.927 57.927zm-16.834-16.15l-5.502-9.68 3.189-5.848c2.574-4.72 3.574-5.748 5.189-5.332 1.1.283 2.748.52 3.662.528 1.073.009 3.854 3.946 7.838 11.093 3.395 6.094 6.022 11.203 5.837 11.353-.978.794-13.618 7.568-14.12 7.568-.325 0-3.066-4.357-6.093-9.681zm-22.817-5.46l-6.692-3.956 6.011-9.951 6.012-9.951h6.246c6.072 0 6.289.09 7.808 3.277 1.56 3.272 1.554 3.29-4.566 13.667-3.37 5.714-6.578 10.498-7.127 10.63-.55.132-4.01-1.54-7.692-3.716zm37.268-10.536c-1.692-3.123-3.06-5.935-3.042-6.25.018-.315.878-1.585 1.91-2.822 1.764-2.115 2.634-2.25 14.467-2.25h12.59v17h-22.85l-3.075-5.678zm-.816-18.446c-1.104-2.926-.824-3.733 4.433-12.75 3.086-5.295 6.027-10.163 6.535-10.82.681-.88 2.674-.127 7.598 2.869 3.671 2.234 6.85 4.22 7.064 4.416.214.195-2.169 4.641-5.296 9.881l-5.685 9.528H75.9c-6.624 0-6.754-.052-7.914-3.124zm-43.26-6.376v-8.5h22.722l3.056 5.75 3.056 5.75-2.204 2.75c-2.188 2.73-2.295 2.75-14.417 2.75H24.727v-8.5zm26.1-9.562c-3.47-6.084-6.069-11.302-5.776-11.595.91-.91 13.96-8.4 14.136-8.114 2.791 4.512 10.54 19.03 10.54 19.748 0 .546-1.388 3.25-3.085 6.008-2.67 4.337-3.52 5.015-6.296 5.015-3.04 0-3.545-.587-9.519-11.062z" fill="#5183af"/><path d="M54.351 90.332L48.85 80.65l3.189-5.847c2.574-4.72 3.574-5.748 5.189-5.332 1.1.283 2.748.52 3.662.528 1.073.009 3.854 3.946 7.838 11.093 3.395 6.094 6.022 11.203 5.837 11.353-.978.794-13.618 7.568-14.12 7.568-.325 0-3.066-4.357-6.093-9.681zm-22.817-5.46l-6.692-3.957 6.011-9.951 6.012-9.951h6.246c6.072 0 6.289.09 7.808 3.277 1.56 3.272 1.554 3.29-4.566 13.667-3.37 5.714-6.578 10.498-7.127 10.63-.55.132-4.01-1.54-7.692-3.716zm37.268-10.537c-1.692-3.123-3.06-5.935-3.042-6.25.018-.315.878-1.585 1.91-2.822 1.764-2.115 2.634-2.25 14.467-2.25h12.59v17h-22.85l-3.075-5.678zm-.816-18.446c-1.104-2.926-.824-3.733 4.433-12.75 3.086-5.295 6.027-10.163 6.535-10.82.681-.88 2.674-.127 7.598 2.869 3.671 2.234 6.85 4.22 7.064 4.416.214.195-2.169 4.641-5.296 9.881l-5.685 9.528H75.9c-6.624 0-6.754-.052-7.914-3.124zm-43.26-6.376v-8.5h22.722l3.056 5.75 3.056 5.75-2.204 2.75c-2.188 2.73-2.295 2.75-14.417 2.75H24.727v-8.5zm26.1-9.562c-3.47-6.084-6.069-11.302-5.776-11.595.91-.91 13.96-8.4 14.136-8.114 2.791 4.512 10.54 19.03 10.54 19.748 0 .546-1.388 3.25-3.085 6.008-2.67 4.337-3.52 5.015-6.296 5.015-3.04 0-3.545-.587-9.519-11.062z" fill="#ea7c1a"/></svg>