<?xml version="1.0" encoding="UTF-8" standalone="no"?>
<!-- Created with Inkscape (http://www.inkscape.org/) -->

<svg
   xmlns:dc="http://purl.org/dc/elements/1.1/"
   xmlns:cc="http://creativecommons.org/ns#"
   xmlns:rdf="http://www.w3.org/1999/02/22-rdf-syntax-ns#"
   xmlns:svg="http://www.w3.org/2000/svg"
   xmlns="http://www.w3.org/2000/svg"
   xmlns:sodipodi="http://sodipodi.sourceforge.net/DTD/sodipodi-0.dtd"
   xmlns:inkscape="http://www.inkscape.org/namespaces/inkscape"
   id="svg2"
   version="1.1"
   inkscape:version="0.48.5 r10040"
   width="256"
   height="256"
   xml:space="preserve"
   sodipodi:docname="Puppet-Logo-Mark-Amber.ai"><metadata
     id="metadata8"><rdf:RDF><cc:Work
         rdf:about=""><dc:format>image/svg+xml</dc:format><dc:type
           rdf:resource="http://purl.org/dc/dcmitype/StillImage" /><dc:title></dc:title></cc:Work></rdf:RDF></metadata><defs
     id="defs6" /><sodipodi:namedview
     pagecolor="#ffffff"
     bordercolor="#666666"
     borderopacity="1"
     objecttolerance="10"
     gridtolerance="10"
     guidetolerance="10"
     inkscape:pageopacity="0"
     inkscape:pageshadow="2"
     inkscape:window-width="1280"
     inkscape:window-height="683"
     id="namedview4"
     showgrid="false"
     inkscape:zoom="0.67529865"
     inkscape:cx="-62.178699"
     inkscape:cy="174.7375"
     inkscape:window-x="0"
     inkscape:window-y="0"
     inkscape:window-maximized="1"
     inkscape:current-layer="g10" /><g
     id="g10"
     inkscape:groupmode="layer"
     inkscape:label="Puppet-Logo-Mark-Amber"
     transform="matrix(1.25,0,0,-1.25,0,255.99999)"><path
       d="m 76.664442,20.384085 -20.38318,0 0,20.38318 20.38318,0 0,-20.38318 z m -20.38318,164.031885 20.38318,0 0,-20.38318 -20.38318,0 0,20.38318 z m 112.621458,-51.44029 -46.7671,0 0.0141,0.0149 -25.101179,25.10119 0,46.70823 -61.151297,0 0,-61.1513 46.767098,0 25.072188,-25.07219 0.0149,0.0149 0,-32.382903 -0.0299,0.0299 -25.086246,-25.087123 0,0 -46.738104,0 0,-61.151297 61.151297,0 0,46.737226 0,0 25.086243,25.087126 46.76798,0 0,61.151301 z"
       style="fill:#ffae1a;fill-opacity:1;fill-rule:nonzero;stroke:none"
       id="path12"
       inkscape:connector-curvature="0" /></g></svg>