<svg xmlns="http://www.w3.org/2000/svg" width="400" height="400"><g fill-rule="evenodd"><path d="m81.934 48.535-4.59 3.582v7.572l5.138 2.968c6.169 3.563 4.797 3.558 10.852.038 2.772-1.611 5.23-2.929 5.462-2.929.233 0 .423-.559.423-1.242 0-1.11-11.529-13.657-12.484-13.587-.117.009-2.277 1.628-4.801 3.598m225.781 2.028c-5.221 5.459-5.371 5.664-5.371 7.319v1.703l5.306 3.065c4.048 2.338 5.478 2.985 6.026 2.727.395-.186 2.923-1.568 5.617-3.072l4.899-2.735.013-3.013.014-3.013-2.334-1.942c-2.584-2.151-8.489-6.687-8.678-6.668-.067.007-2.538 2.54-5.492 5.629M72.996 56.015a366.845 366.845 0 0 0-6.394 5.816l-3.125 2.926 1.052.487c.981.453 1.4.284 6.185-2.496 2.822-1.64 5.293-2.982 5.49-2.982.197 0 .359-1.495.359-3.321s-.067-3.32-.149-3.32c-.081 0-1.619 1.301-3.418 2.89M325 56.951v2.732l5.266 3.015c8.867 5.078 7.978 3.164-3.02-6.504L325 54.22v2.731m-26.378 2.865-2.724 2.785 2.83-1.515c2.619-1.403 2.829-1.61 2.832-2.785.003-1.61.237-1.731-2.938 1.515m-199.01-1.19c.003.703.427 1.181 1.661 1.872l1.657.927-1.563-1.702c-.859-.937-1.606-1.779-1.66-1.872-.054-.093-.096.256-.095.775m-28.26 4.475c-2.759 1.603-5.176 2.915-5.371 2.915-.201 0-.349 2.857-.339 6.543l.016 6.543 5.392 3.027c2.965 1.665 5.524 3.027 5.686 3.027 1.047 0 7.672-4.509 9.104-6.196l1.66-1.957-.011-5.396-.012-5.396-5.144-2.93c-2.83-1.611-5.329-2.967-5.555-3.012-.226-.046-2.668 1.229-5.426 2.832m22.105.24-5.566 3.179v11.553l1.66 1.34c1.655 1.337 9.059 5.743 9.65 5.743.171 0 2.662-1.367 5.536-3.038l5.224-3.038.109-5.187.109-5.187-2.453-2.556c-2.052-2.138-6.158-5.046-8.189-5.799-.283-.104-3.018 1.241-6.08 2.99m204.467-1.065c-1.893 1.133-4.31 2.915-5.371 3.959l-1.928 1.9v5.581c0 3.715.14 5.581.419 5.581.231 0 2.679 1.318 5.44 2.93 6.023 3.514 4.581 3.521 10.815-.049L312.5 79.2V66.182l-5.265-3.013c-6.188-3.541-5.067-3.433-9.311-.893m21.127.82c-2.735 1.606-5.152 2.92-5.371 2.92-.95 0-.483 13.042.483 13.508 1.439.694 5.016 2.698 7.517 4.212 2.926 1.771 2.081 1.936 8.223-1.607l5.247-3.027-.005-6.446-.006-6.445-5.137-2.93c-2.826-1.611-5.327-2.969-5.558-3.017-.231-.048-2.658 1.227-5.393 2.832M58.668 70.049c-11.18 12.318-10.914 11.746-6.562 14.093l2.103 1.135 5.318-3.061 5.317-3.061v-6.507c0-9.116-.189-9.195-6.176-2.599m277.758-4.165c-.364.147-.486 1.856-.478 6.707l.01 6.511 5.166 2.929c2.841 1.612 5.356 2.981 5.59 3.044.592.159 4.852-2.337 4.835-2.833-.026-.754-13.873-16.67-14.431-16.586a4.444 4.444 0 0 0-.692.228m-53.386 9.985c-7.76 8.043-7.33 7.375-5.448 8.486 1.77 1.044 1.359 1.171 7.488-2.324l5.137-2.929.009-5.176c.005-2.847-.065-5.176-.154-5.176-.09 0-3.254 3.204-7.032 7.119m-172.493-1.734c0 2.839.16 5.162.355 5.162.195 0 2.674 1.332 5.508 2.961 4.808 2.763 5.227 2.93 6.272 2.497 2.21-.915 2.122-1.061-5.15-8.569l-6.985-7.212v5.161m-50.676 8.599-5.169 3.008-.007 6.47-.007 6.469 4.614 2.613c5.528 3.13 4.777 3.089 6.772.366 2.464-3.364 8.737-11.134 9.67-11.978.884-.8 1.206-4.135.399-4.135-.231 0-2.679-1.318-5.44-2.93-5.995-3.498-4.596-3.513-10.832.117m44.928.017-5.162 2.991-.006 1.563c-.006 1.596 13.702 15.297 14.969 14.96.241-.064 1.887-.908 3.656-1.874l3.217-1.758.006-6.543c.003-3.711-.15-6.543-.353-6.543-.197 0-2.627-1.318-5.4-2.93-5.996-3.484-4.654-3.501-10.927.134m180.35-.02-5.266 3.043V98.61l5.273 3.078 5.274 3.078 1.953-1.02c1.074-.561 3.535-1.946 5.469-3.077l3.515-2.058.088-6.434.089-6.435-5.399-3.027c-6.438-3.61-4.717-3.612-10.996.016m22.378.009-5.168 3.002-.008 6.051-.007 6.051 7.617-7.61c8.772-8.763 8.205-7.796 5.475-9.337-2.655-1.498-1.824-1.692-7.909 1.843m22.649-.028c-6.547 3.808-6.594 3.98-2.404 8.816 1.525 1.759 4.309 5.245 6.187 7.745l3.415 4.547 4.75-2.722 4.751-2.722V86.05l-5.513-3.181c-6.573-3.793-4.972-3.77-11.186-.157M92.969 82.59c0 .061 1.406 1.381 3.125 2.933 3.094 2.794 3.125 2.81 3.125 1.66 0-1.045-.316-1.341-3.125-2.933-1.719-.973-3.125-1.72-3.125-1.66m-47.655 3.602c-2.654 3.583-9.818 14.28-9.663 14.429.281.27 7.028 4.067 7.227 4.067.131 0 2.659-1.363 5.619-3.028l5.38-3.027.015-6.543c.008-3.882-.137-6.543-.357-6.543-.204 0-1.39-.615-2.637-1.366-2.961-1.786-2.703-1.879-5.584 2.011m34.081-1.71c-1.584.968-2.051 1.473-2.051 2.22 0 .888.173.795 2.148-1.155 2.867-2.832 2.863-2.874-.097-1.065m270.214.016-2.148 1.292-.091 6.421-.09 6.422 5.364 3.07 5.364 3.071 2.858-1.508c1.571-.83 3.042-1.726 3.267-1.992.546-.647-2.839-5.949-10.967-17.18-.824-1.138-1.03-1.115-3.557.404m-225.875.391-1.461.853-.004 6.453-.003 6.453 5.229 3.02c6.218 3.591 4.92 3.484 9.618.792l3.888-2.228-5.926-6.073-7.903-8.098-1.977-2.025-1.461.853m143.777 6.927c-4.152 4.307-7.532 7.955-7.511 8.105.043.299 7.584 4.742 8.073 4.757.165.005 2.567-1.309 5.339-2.92 2.772-1.612 5.23-2.93 5.462-2.93.286 0 .423-2.076.423-6.412v-6.412l-1.807-1.01c-.994-.555-1.947-1.01-2.118-1.01-.171 0-3.708 3.525-7.861 7.832m55.167-6.051c1.507 1.554 1.545 1.571 1.528.661-.007-.396-.606-.962-1.422-1.345l-1.41-.661 1.304 1.345m-273.85 16.39c-2.685 1.591-5.102 2.899-5.371 2.908-.635.02-.716 13.296-.081 13.296.224 0 2.364 1.127 4.757 2.503l4.349 2.503 2.25-4.045c1.834-3.298 7.118-11.813 8.731-14.068.458-.641.914-.296-4.524-3.424-5.434-3.125-4.215-3.165-10.111.327m69.434-1.124c-3.621 2.121-3.583 1.894-.749 4.495l2.28 2.091-2.081 2.384-2.081 2.383 5.097 4.767 5.096 4.767 2.615-1.454a158.504 158.504 0 0 0 3.299-1.874c.607-.371.684-1.146.684-6.882v-6.463l-5.265-3.013c-6.179-3.536-5.149-3.397-8.895-1.201m155.486 1.223-5.354 3.019-.001 6.446v6.445l4.377 2.451 4.377 2.45 6.565-6.596 6.565-6.596-.119-2.291-.119-2.29-5.224-3.037c-6.234-3.623-4.647-3.623-11.067-.001m68.824-.67c-2.253 1.3-4.236 2.505-4.409 2.676-.172.171.721 1.876 1.984 3.787 2.759 4.177 5.913 9.493 7.518 12.673 1.406 2.785.842 2.8 5.851-.153l4.101-2.418v-12.876l-5.271-3.027c-6.27-3.601-4.852-3.505-9.774-.662m-90.186 5.732-6.679 6.942-.002 2.051c-.001 1.128.158 2.05.353 2.05.195 0 2.679 1.336 5.519 2.968 3.823 2.197 5.34 2.881 5.844 2.636.374-.182 2.811-1.561 5.414-3.065l4.734-2.734.005-6.453.004-6.453-2.246-1.258a275.348 275.348 0 0 1-4.256-2.442l-2.01-1.185-6.68 6.943m-114.832-4.382c-2.012 1.179-3.814 2.144-4.004 2.144-.191 0-.347 2.988-.347 6.641 0 3.652.149 6.64.33 6.64.182 0 2.64 1.334 5.463 2.965 2.822 1.63 5.282 2.905 5.466 2.832.184-.073 2.644-1.451 5.467-3.062l5.132-2.93.009-1.699c.008-1.673-.094-1.804-6.67-8.594-7.948-8.206-6.44-7.52-10.846-4.937m157.075.275-4.004 2.36v3.988l4.297-4.284c5.564-5.547 5.568-5.517-.293-2.064m-260.661.197c-3.295 5.834-5.696 10.371-7.219 13.638l-1.662 3.568 3.294 1.849 3.293 1.849 5.355-3.086 5.354-3.086v-12.81l-1.758-1.03-3.57-2.09-1.811-1.059-1.276 2.257m328.13-.082c-1.605.946-3.138 1.727-3.407 1.737-.37.013-.488 1.568-.488 6.422v6.405l5.558 3.216 5.558 3.217 2.473-1.321c1.36-.726 2.65-1.528 2.866-1.782.443-.52-3.006-7.844-7.176-15.239l-2.465-4.373-2.919 1.718m-172.034 4.919c-1.704.18-5.088.703-7.519 1.162l-4.42.836v4.059c0 2.49.154 4.059.397 4.059.218 0 2.665 1.319 5.437 2.93 6.037 3.509 4.512 3.523 10.787-.098l5.248-3.027.003-5.176.003-5.175-3.418.051c-1.88.029-4.813.199-6.518.379m10.732 4.685.016 5.236 5.497 3.069 5.498 3.069 1.624-.921 5.416-3.068 3.792-2.149.009-3.801.008-3.801-1.074-.242c-.591-.133-1.689-.392-2.441-.575-3.061-.744-9.305-1.566-13.697-1.802l-4.663-.251.015 5.236m-27.907-1.167c-4.122 1.247-6.796 2.288-11.669 4.544l-3.038 1.406-1.357-1.315-1.356-1.315v1.39c0 1.371.068 1.43 4.98 4.247a699.569 699.569 0 0 1 5.62 3.245c.496.301 1.839-.298 5.957-2.656l5.318-3.045v-3.857c0-2.122-.132-3.848-.293-3.836-.161.012-2.034.549-4.162 1.192m50.158 2.481v3.631l4.98 2.856c2.74 1.57 5.266 3.027 5.615 3.236.487.291 1.878-.335 5.957-2.683l5.323-3.064v-3.166l-1.431 1.431-1.431 1.431-2.573-1.291c-2.94-1.475-8.509-3.595-13.217-5.03l-3.223-.983v3.632m-185.829 7.569-5.165 2.994.003 6.445.003 6.445 5.346 3.036c6.367 3.615 5.826 3.72 7.91-1.537.924-2.328 2.854-6.705 4.29-9.726l2.612-5.493-4.545-2.612c-5.435-3.124-4.2-3.177-10.454.448m92.575-1.372c-1.553.925-2.919 1.776-3.035 1.892-.405.404 16.215 15.642 16.811 15.413.698-.268.868-13.135.175-13.135-.219 0-2.665-1.318-5.437-2.929-5.939-3.452-5.022-3.319-8.514-1.241m20.2 1.354-5.266 3.043v12.827l5.38 3.079 5.38 3.078 5.655-3.2 5.655-3.201v-12.306l-5.514-3.182c-6.59-3.802-4.983-3.783-11.29-.138m22.378.009-5.168 3.003.001 6.445.001 6.445 5.132 2.93c2.822 1.611 5.283 2.99 5.468 3.063.185.073 2.632-1.202 5.439-2.832 2.806-1.631 5.263-2.965 5.46-2.965.203 0 .359-2.875.359-6.641 0-3.652-.151-6.641-.334-6.641-.184 0-2.601-1.315-5.371-2.923-6.031-3.501-4.737-3.514-10.987.116m22.649-.027-5.176 3.01v12.939l5.265 3.013c6.281 3.594 4.536 3.617 11.1-.143l5.51-3.156v-6.414c0-4.31-.138-6.415-.42-6.415-.23 0-2.678-1.318-5.44-2.929-6.016-3.511-4.618-3.524-10.839.095m22.558-.004-5.273 3.034v12.851l5.366 3.092 5.365 3.091 5.67-3.224 5.669-3.225v-12.3l-5.371-3.072c-2.954-1.69-5.547-3.119-5.762-3.176-.215-.057-2.763 1.261-5.664 2.929m22.371.025-5.168 3.009-.007 6.445-.006 6.445 5.147 2.93c2.83 1.611 5.289 2.988 5.464 3.059.175.071 2.616-1.203 5.424-2.832 2.807-1.629 5.27-2.961 5.471-2.961.214 0 .367-2.767.367-6.641 0-3.652-.151-6.641-.334-6.641-.184 0-2.601-1.315-5.371-2.923-6.043-3.508-4.749-3.521-10.987.11m22.649-.036-5.176 2.994v12.993l1.608.904 1.608.904 7.996-7.997 7.997-7.996-4.125-2.406c-4.974-2.901-3.718-2.978-9.908.604m90.959-.537c-2.233 1.327-4.03 2.541-3.994 2.699.037.158.85 1.974 1.807 4.035.957 2.062 2.817 6.415 4.133 9.673 1.317 3.259 2.449 5.984 2.516 6.057.067.072 2.59-1.246 5.607-2.93l5.484-3.062.001-6.445.001-6.445-5.381-3.028c-6.36-3.578-5.189-3.514-10.174-.554m-329.068.557c-.115.375-.999 2.554-1.964 4.843-2.229 5.287-5.337 13.893-5.337 14.779 0 .399.681 1.035 1.66 1.55l1.66.874 5.566-3.219 5.567-3.22v-12.606l-1.075-.445c-.59-.245-2.152-1.073-3.47-1.841-2.119-1.234-2.421-1.317-2.607-.715m347.882 1.576-2.433 1.449-.001 6.445-.001 6.445 5.336 3.079 5.336 3.079 1.29-.695c1.512-.814 1.527-.657-.672-6.83-2.979-8.361-5.576-14.469-6.138-14.436-.156.009-1.378.668-2.717 1.464M25.802 141.433l-5.252 3.082-1.72-1.007c-.946-.555-1.867-.859-2.047-.676-.652.663-5.398 19.09-5.01 19.453.145.136 7.635-4.142 8.358-4.774.254-.222 2.356.781 5.664 2.703 2.893 1.681 5.415 3.059 5.604 3.062.61.009 7.328-3.979 7.472-4.436 2.202-7.007 3.467-11.698 3.487-12.926l.025-1.547-5.224-3.043c-6.233-3.63-4.963-3.642-11.357.109m122.831 1.749c6.615 6.349 6.447 6.26 6.437 3.414l-.007-2.26-5.27-3.027c-7.008-4.027-7.12-3.847-1.16 1.873m12.207-1.695-5.371 3.14v4.868l5.235 4.94c2.88 2.717 5.33 4.94 5.445 4.94.116 0 1.509-.932 3.097-2.071 1.588-1.14 4.059-2.678 5.491-3.418l2.604-1.347.001-4.158.002-4.157-5.189-2.972c-6.186-3.542-4.803-3.571-11.315.235m23.025-.266c-2.751 1.606-5.168 2.92-5.371 2.92-.207 0-.369 1.73-.369 3.948 0 3.606.059 3.923.684 3.666 5.86-2.411 11.792-3.856 17.773-4.327l3.418-.27v-1.418c0-1.411-.032-1.437-5.229-4.439-6.253-3.611-4.873-3.601-10.906-.08m22.302.086c-5.299 2.997-5.356 3.044-5.371 4.422l-.015 1.393 4.457.464c5.06.528 10.875 1.933 14.769 3.569l2.649 1.113-.001-3.966-.001-3.966-5.154-2.93c-2.835-1.611-5.339-2.974-5.565-3.028-.226-.055-2.822 1.264-5.768 2.929m22.739-.089c-2.685 1.59-5.102 2.899-5.371 2.907-.36.012-.488 1.134-.488 4.265v4.25l1.251.518c1.903.788 7.707 4.698 10.009 6.742 2.771 2.462 3.59 2.225 8.369-2.419l2.246-2.183v-11.074l-5.189-2.972c-6.193-3.546-4.905-3.542-10.827-.034m22.53-.002c-2.755 1.609-5.172 2.925-5.371 2.925-.204 0-.362 2.26-.362 5.171v5.172l7.031-7.023c7.899-7.889 7.48-7.276 5.716-8.367-1.74-1.075-1.317-1.203-7.014 2.122m112.627-.005c-2.686 1.594-5.103 2.905-5.372 2.914-.669.022-.641.197.63 3.956.614 1.819 1.6 5.161 2.189 7.427l1.072 4.121 3.13 1.826c3.86 2.253 2.909 2.378 9.113-1.201l5.247-3.027.003-6.498.003-6.499-5.232-2.974c-6.247-3.552-4.884-3.546-10.783-.045m18.066 2.44-1.27.631.003 6.472.003 6.473 3.407 1.953c1.874 1.074 3.521 2.004 3.66 2.067.318.144-1.474-7.632-3.154-13.688-.7-2.525-1.297-4.579-1.326-4.565-.03.013-.625.309-1.323.657M16.243 160.385c-2.345 1.364-4.396 2.618-4.558 2.786-.262.273-1.474 7.11-2.106 11.887l-.24 1.816 5.509 3.193 5.51 3.194 5.641-3.209 5.642-3.209.083-6.488.083-6.488.21 6.62.21 6.619 1.287.752c1.649.961 1.525 1.184 2.433-4.382.427-2.621 1.141-6.443 1.585-8.493.984-4.54 1.039-4.478-2.271-2.544-3.395 1.983-3.541 1.96-9.48-1.495a686.185 686.185 0 0 0-5.078-2.939c-.107-.055-2.114 1.017-4.46 2.38m358.855.828-5.176 2.995.011 6.47.012 6.47 5.164 2.93c6.204 3.52 4.979 3.497 10.777.195l4.801-2.734-.253-2.344c-.251-2.317-1.569-10.535-1.954-12.177-.201-.858-6.526-4.823-7.667-4.807-.297.004-2.869 1.355-5.715 3.002m-12.207-.582c0 .081.361 1.803.802 3.825.442 2.023 1.153 5.964 1.581 8.757.913 5.951.681 5.512 2.441 4.636l1.406-.701.01-6.505.01-6.506-1.856-1.065a236.713 236.713 0 0 1-3.125-1.827c-.698-.419-1.269-.695-1.269-.614M9.204 178.182c-.22.652-.896 10.092-1.214 16.935-.518 11.158 2.034 39.004 4.068 44.39.21.557.866.306 4.428-1.693l4.182-2.346 5.488 3.181 5.487 3.181 2.831-1.635c1.557-.9 3.02-1.782 3.251-1.961.295-.229.156-1.586-.465-4.534-.487-2.314-1.245-6.666-1.685-9.671-1.211-8.279-1.977-8.634-9.368-4.338-2.805 1.631-5.315 2.965-5.576 2.965-.619 0-10.76-5.763-11.095-6.305-.31-.502.157-.256 6.172 3.244l4.652 2.708 4.566-2.629c2.512-1.446 5.05-2.874 5.64-3.172l1.075-.544v-6.416c0-3.735-.154-6.417-.367-6.417-.201 0-2.639-1.318-5.417-2.93-6.087-3.531-4.842-3.535-11.011.043-2.819 1.635-5.208 2.889-5.311 2.787-.282-.282 10.483-6.309 11.175-6.257.332.025 2.915 1.389 5.74 3.03 5.128 2.98 5.138 2.984 6.335 2.365l1.199-.621.001-5.556c0-5.018.458-12.26.969-15.322.173-1.038.019-1.272-1.344-2.051-2.053-1.173-1.697-1.271-7.413 2.051-6.088 3.539-5.21 3.524-10.912.193-5.521-3.225-5.848-3.368-6.081-2.675m358.287.413c-1.1.638-1.412 1.041-1.28 1.652.41 1.894.977 11.213.977 16.053v5.242l1.138.589c1.118.578 1.239.533 6.442-2.431l5.302-3.02.004-6.52.004-6.519-5.194-2.953c-5.872-3.339-5.449-3.219-7.393-2.093m17.969 2.581-4.579 2.613-.011 6.307-.011 6.308 5.511 3.188c3.031 1.754 5.609 3.091 5.729 2.97.224-.223-.526-17.182-.955-21.605-.289-2.982-.059-2.991-5.684.219m-10.372 19.08-5.185 2.981.107 6.487.107 6.487 5.29 3.033 5.289 3.033 5.303-3.033 5.304-3.033.244-2.539c.134-1.397.239-4.297.233-6.445l-.012-3.907-5.381-3.027c-6.454-3.631-5.056-3.627-11.299-.037m-342.383 2.639c-.622.472-.683 1.174-.586 6.84l.108 6.313 1.329.842 1.33.841-.243-1.151c-.134-.633-.364-4.095-.512-7.693-.148-3.599-.374-6.538-.501-6.531-.127.007-.544.249-.925.539m334.345 4.464c-.141 2.72-.369 6.142-.508 7.604l-.253 2.658 1.426-.841 1.426-.842v-6.344c0-6.28-.01-6.348-.919-6.762l-.918-.418-.254 4.945m.513 10.258-1.382.802-.683 4.706a204.45 204.45 0 0 1-1.645 9.442c-.529 2.605-.961 4.912-.96 5.128.002.215 1.476 1.226 3.276 2.247l3.273 1.855 5.304-3.027 5.303-3.028.015-6.503.014-6.503-5.11-2.969c-5.707-3.317-5.499-3.256-7.405-2.15m18.486 2.271-5.162 2.964-.014 6.297-.014 6.297 3.418 1.981c1.88 1.089 3.533 1.859 3.673 1.71.51-.54 3.728-21.946 3.334-22.171-.04-.023-2.396 1.292-5.235 2.922M16.113 238.519c-4.148 2.472-3.975 1.896-2.43 8.099 2.546 10.221 3.487 12.736 5.158 13.791l1.503.949 5.641-3.238 5.642-3.237.007-6.348c.003-3.491-.144-6.347-.327-6.347-.184 0-2.601-1.316-5.371-2.924-5.989-3.476-5.326-3.426-9.823-.745m358.975.773-5.185 2.958.107 6.49.107 6.49 5.243 3.027c5.196 3.001 5.638 3.135 6.957 2.114.387-.299 4.113-13.847 5.349-19.452.147-.666-5.797-4.595-6.941-4.588-.248.001-2.785 1.334-5.637 2.961M162.1 238.098c-.589.709-.738.551 2.158 2.29 3.713 2.229 3.788 1.683.183-1.335-1.611-1.35-1.912-1.472-2.341-.955m72.905 1.701c-1.831 1.875-1.318 2.327 1.105.973 1.745-.975 1.793-1.048 1.154-1.754-.815-.901-.515-1.005-2.259.781m-199.955.792-3.037 1.787.107 6.397.107 6.397 5.37 3.087c5.291 3.042 5.386 3.078 6.368 2.435.655-.43.913-.868.752-1.279-1.173-3.014-3.638-10.601-4.882-15.031-1.818-6.473-1.143-5.938-4.785-3.793m327.05-.276c-1.256 4.79-2.984 10.372-4.556 14.707-1.412 3.895-1.654 4.917-1.233 5.199 1.767 1.184 1.747 1.19 7.348-2.051l5.482-3.173-.003-6.307-.002-6.307-1.072-.604c-.59-.333-2.074-1.175-3.298-1.873l-2.227-1.269-.439 1.678m-209.256 7.048-7.892 7.91 5.269 3.032 5.268 3.031 5.643-3.227 5.642-3.226.012-6.348c.006-3.74-.141-6.347-.359-6.347-.203 0-1.419-.616-2.702-1.368-1.283-.752-2.481-1.367-2.661-1.367-.181 0-3.88 3.56-8.22 7.91m83.572-6.076-1.669.969.107 6.469.107 6.469 5.311 3.072 5.311 3.073 4.455-2.579c2.45-1.418 4.588-2.706 4.751-2.861.274-.26-15.696-15.38-16.392-15.52-.171-.034-1.062.375-1.981.908m-6.22 2.307c-3.469 2.524-9.199 5.336-13.963 6.853l-4.118 1.311-.003 1.62-.003 1.62 5.464 3.174 5.463 3.175 5.655-3.232 5.655-3.232.014-6.139c.014-5.677-.042-6.169-.741-6.543-.955-.511-.613-.65-3.423 1.393m-62.92 5.082.107 6.489 5.314 3.089 5.314 3.089 5.526-3.189 5.526-3.189v-1.518c0-.876-.207-1.58-.489-1.664l-4.004-1.196c-4.526-1.35-9.099-3.491-13.29-6.224-4.416-2.878-4.128-3.188-4.004 4.313m22.581 4.895.014 1.702 5.311 3.016 5.31 3.015 5.614-3.169 5.613-3.17v-3.114l-1.465.241c-6.742 1.109-16.921 1.117-19.794.014-.504-.194-.614.073-.603 1.465m-6.151 5.155-5.551 3.188-.015 6.299-.015 6.299 4.319 2.419a455.22 455.22 0 0 1 5.579 3.162l1.261.743 5.26-3.037 5.261-3.037.107-6.478.106-6.477-4.599-2.655c-2.529-1.46-4.95-2.87-5.38-3.134-.685-.42-1.468-.085-6.333 2.708m44.925.03-5.548 3.158-.014 6.25-.013 6.25 5.634 3.212 5.633 3.212 5.285-3.017 5.285-3.016.014-6.52.015-6.521-3.613-2.112a357.511 357.511 0 0 0-5.371-3.083l-1.758-.971-5.549 3.158m135.155-.002-5.549 3.16-.011 6.25-.01 6.25 5.542 3.194c4.676 2.694 5.667 3.129 6.341 2.779.44-.229 1.965-1.09 3.39-1.915l2.59-1.499 2.019-5.03c1.841-4.589 2.008-5.263 1.902-7.672l-.117-2.641-3.711-2.134a1231.965 1231.965 0 0 0-5.274-3.018l-1.562-.883-5.55 3.159m-337.809.092c-5.355 3.127-4.996 3.038-7.701 1.908-.743-.311-.037 1.881 3.488 10.825l1.808 4.586 4.028 2.35 4.029 2.35 5.474-3.168 5.475-3.168v-12.63l-5.229-3.02c-6.297-3.636-5.209-3.633-11.372-.033m112.787 2.585-5.561 5.571v7.495l5.499 3.173 5.5 3.173 5.34-3.07 5.341-3.07.107-6.442.107-6.442-5.242-2.98c-2.882-1.639-5.306-2.98-5.385-2.98-.079 0-2.647 2.507-5.706 5.572m22.409-2.636c-2.77 1.608-5.187 2.924-5.371 2.924-.183 0-.328 2.856-.322 6.347l.011 6.348 5.627 3.217 5.627 3.218 5.295-3.022 5.295-3.022-.093-6.595-.094-6.596-4.882-2.862c-5.941-3.482-5.013-3.485-11.093.043m44.787.11-5.172 3.009-.003 6.299-.004 6.299 5.5 3.172 5.499 3.171 5.438-3.152 5.438-3.152V261.86l-5.212-3c-6.271-3.61-5.195-3.614-11.484.045m44.712.201-4.944 2.808-.013 6.288-.012 6.288 5.371 3.048a1037.67 1037.67 0 0 0 5.579 3.155c.113.059 2.574-1.25 5.468-2.907l5.262-3.014.111-3.716.111-3.715-4.603-4.307c-2.532-2.369-5.23-4.853-5.995-5.521l-1.391-1.214-4.944 2.807m104.537 2.101c-.677 1.887-4.275 9.634-6.541 14.083-1.396 2.74-2.393 5.126-2.215 5.303.177.178 2.806-1.114 5.841-2.871l5.519-3.193v-12.642l-1.175-.694c-1.129-.667-1.185-.666-1.429.014m-311.361.209c-.858.412-.879.572-.873 6.71l.007 6.288 5.56 3.206c3.058 1.764 5.613 3.054 5.678 2.868.065-.187-.975-2.508-2.312-5.16-1.337-2.651-3.346-6.922-4.465-9.492-2.168-4.978-2.243-5.07-3.595-4.42m337.5.193c-.269.096-.482.731-.473 1.412l.015 1.237.577-1.329c.627-1.445.615-1.582-.119-1.32m-255.13 12.366c-5.442 5.453-5.936 6.059-5.239 6.432.64.343 1.609-.071 5.749-2.453 6.193-3.563 5.749-3.023 5.613-6.806l-.114-3.193-6.009 6.02m142.141-2.548v3.12l5.503 3.152c4.787 2.742 5.611 3.094 6.336 2.706.805-.431-6.59-8.194-10.764-11.3l-1.075-.799v3.121m-230.957 6.811-5.371 3.116v5.96c0 7.17-.358 6.565 6.115 10.317l4.748 2.751 5.506-3.177 5.506-3.177v-12.619l-4.394-2.5a728.234 728.234 0 0 0-5.567-3.144l-1.172-.644-5.371 3.117m90.218-.034-5.373 3.117.107 6.486.107 6.486 5.261 3.037 5.26 3.038 1.185-.688c.651-.379 3.161-1.824 5.576-3.212l4.391-2.523-.005-6.25-.005-6.25-3.605-2.037a676.185 676.185 0 0 1-5.565-3.179l-1.961-1.142-5.373 3.117m44.939.024-5.371 3.117v5.237l4.589 1.436c5.732 1.794 14.697 3.779 17.067 3.779.12 0 .217-2.329.216-5.176l-.003-5.176-3.406-1.953a1082.624 1082.624 0 0 0-5.564-3.167l-2.157-1.215-5.371 3.118m22.743-.112-5.263 3.057-.109 5.302-.108 5.301 1.042.262c1.504.377 14.262.385 17.827.01l3.028-.318-.007-5.142-.006-5.143-3.998-2.239c-2.198-1.232-4.705-2.669-5.57-3.193l-1.573-.953-5.263 3.056m44.835.092-5.371 3.102v2.118c0 2.529-.33 2.482 3.848.541l3.397-1.578 6.307 6.342c6.075 6.108 6.346 6.325 7.315 5.883l1.008-.459v-6.356l-.001-6.356-3.613-2.051a2592.221 2592.221 0 0 1-5.566-3.17l-1.953-1.118-5.371 3.102m22.7-.066-5.22 3.032v13.13l5.249 3.033 5.249 3.034 1.978-1.161a556.79 556.79 0 0 1 5.59-3.213l3.614-2.052-.012-6.25-.011-6.25-5.608-3.168-5.609-3.168-5.22 3.033m89.8.096-5.371 3.116v12.707l5.446 3.164 5.446 3.164 4.208-2.458c6.031-3.524 6.771-4.793 6.773-11.617l.002-4.898-4.004-2.303c-2.202-1.268-4.707-2.684-5.567-3.148l-1.562-.843-5.371 3.116m-202.328-.162c-6.392 3.719-5.778 2.694-5.778 9.639 0 8.936-.171 8.912 7.413 1.008l6.064-6.32 2.539 1.218c1.396.671 3.374 1.551 4.394 1.957l1.856.739-.015-2.436-.016-2.436-5.423-3.027c-6.495-3.625-5.448-3.592-11.034-.342m66.976.339-5.176 3.01v9.981h1.129c2.721 0 12.21-2.319 17.914-4.379l3.223-1.163v-2.307c0-1.269-.161-2.307-.358-2.307-.197 0-2.627-1.318-5.4-2.93-6.095-3.541-5.063-3.55-11.332.095m-192.702-.195c.764 1.942 3.927 8.474 5.44 11.233l1.607 2.93.005-5.489.006-5.488-1.661-.836a80.966 80.966 0 0 1-3.702-2.034c-1.951-1.145-2.027-1.159-1.695-.316m347.976 1.56-2.637 1.534v3.961c0 4.73.036 4.705 3.325-2.295 2.537-5.399 2.599-5.112-.688-3.2m-260.861 8.717c-4.373 4.377-7.871 8.022-7.774 8.101.098.078 1.607.957 3.355 1.952l3.178 1.81 5.513-3.164 5.514-3.164v-6.328c0-9.308.334-9.335-9.786.793m168.673-7.484c-.601.456-.683 1.275-.683 6.783v6.264l5.503 3.184c4.691 2.715 5.599 3.112 6.152 2.69l.845-.642c.107-.081-2.002-2.228-4.688-4.77l-4.883-4.622 2.136-2.177 2.136-2.178-2.515-2.538c-2.662-2.686-2.922-2.815-4.003-1.994m64.812.738c-3.097 5.142-6.342 10.166-8.695 13.463l-2.858 4.003 1.056.541c1.008.516 1.309.397 6.618-2.636l5.562-3.177.004-6.306c.005-6.635-.395-8.033-1.687-5.888M54.71 287.585l-.022 6.53 3.613 2.107c7.558 4.407 7.125 4.205 7.861 3.667.619-.453.485-.762-1.567-3.61-1.234-1.713-3.785-5.576-5.668-8.584a1062.028 1062.028 0 0 0-3.808-6.054c-.262-.398-.393 1.509-.409 5.944m-6.16 10.204-5.552 3.188-.014 4.835-.015 4.835 1.96 2.644c1.658 2.236 2.509 2.957 5.509 4.663l3.549 2.017 5.331-3.071 5.33-3.071.107-6.496.107-6.495-3.622-2.118a748.692 748.692 0 0 0-5.381-3.118l-1.757-1.001-5.552 3.188m67.568-.002-5.563 3.19.094 6.394.093 6.394 5.351 3.077 5.351 3.076 5.487-5.565 5.486-5.564-.095-4.048-.095-4.047-3.54-2.045-5.273-3.048-1.734-1.004-5.562 3.19m22.646-.02-5.561 3.178v3.434c0 1.888.048 3.434.106 3.434.057 0 2.778-2.795 6.045-6.21 7.476-7.816 7.387-8.394-.59-3.836m117.275-2.687c-.848.62.878 2.744 7.8 9.6l3.739 3.703v-7.53l-4.199-2.432a689.746 689.746 0 0 1-5.405-3.153c-1.037-.621-1.307-.647-1.935-.188m17.801 2.706-5.481 3.159v8.142l4.576 4.877c6.424 6.848 5.225 6.562 11.775 2.81l5.524-3.164v-12.72l-5.457-3.131-5.457-3.131-5.48 3.158m67.588-.019-5.49 3.148.013 6.476.014 6.476 5.357 3.043 5.358 3.044 1.562-.866c3.667-2.032 4.651-2.886 7.042-6.113l2.522-3.405.003-4.315.004-4.315-5.447-3.161-5.447-3.161-5.491 3.149m-307.196-.779c.794 1.55 6.59 10.65 7.604 11.94.741.941.742.935.742-3.527v-4.469l-4.494-2.599c-4.46-2.579-4.49-2.59-3.852-1.345m61.36 7.615c-4.236 4.24-7.701 7.993-7.701 8.34 0 .589 10.165 6.784 11.132 6.784.215 0 2.808-1.385 5.762-3.076l5.371-3.076v-6.141c0-6.899.19-6.419-3.32-8.409-1.074-.609-2.311-1.337-2.748-1.619-.737-.474-1.355.05-8.496 7.197m266.233-5.645-3.604 2.019v3.906c0 3.78.021 3.878.674 3.026 1.265-1.648 6.837-10.666 6.685-10.818-.083-.084-1.773.757-3.755 1.867m-295.343 1.56c-.862.385-.874.488-.768 6.854l.106 6.464 5.362 3.067 5.361 3.068 2.451-1.432c1.348-.787 2.513-1.49 2.588-1.561.075-.071-1.658-2.105-3.852-4.521-2.193-2.415-5.425-6.177-7.181-8.36-2.91-3.617-3.27-3.934-4.067-3.579m225.022-.041c-.858.414-.879.575-.879 6.769v6.345l5.505 3.186 5.506 3.186 3.869-2.191c2.129-1.205 3.87-2.336 3.87-2.512 0-.535-15.936-15.262-16.483-15.234-.28.015-.905.218-1.388.451m38.649 3.136c-1.51 1.988-4.691 5.7-7.069 8.25-2.378 2.549-4.236 4.776-4.13 4.948.107.172 1.339.954 2.739 1.737l2.545 1.423 5.362-3.11 5.361-3.109.108-6.386c.095-5.661.031-6.441-.563-6.876-1.162-.849-1.54-.578-4.353 3.123M86.486 313.729c-.74.833-.739.835.135.377.483-.254.879-.631.879-.838 0-.555-.187-.47-1.014.461m-26.33 3.811-5.273 3.077-.114 2.511-.114 2.51 5.613 6.029c3.087 3.315 5.9 6.264 6.251 6.552.552.453 1.272.164 5.345-2.149l4.706-2.672-.101-6.393-.102-6.394-5.273-3.059c-6.325-3.67-4.671-3.668-10.938-.012m22.654-.06-5.271 3.028v13.249l5.198 3.004 5.199 3.004 5.624-3.183 5.624-3.184.018-6.299.017-6.299-5.503-3.173c-6.531-3.767-4.646-3.741-10.906-.147m22.17.163-5.371 3.141v12.742l2.8 1.615c2.248 1.296 2.888 1.514 3.246 1.108.245-.279 3.826-3.954 7.957-8.168l7.512-7.661-5.247-2.984c-2.886-1.64-5.31-2.972-5.386-2.958-.077.013-2.556 1.438-5.511 3.165m180.081.015-5.368 3.137 7.825 8.12 7.824 8.119 3.12-1.767 3.119-1.767-.107-6.496-.107-6.496-5.271-3.028c-2.899-1.665-5.36-3.012-5.469-2.993-.108.018-2.613 1.445-5.566 3.171m45.401-.162-5.267 3.043v13.217l4.08 2.337 4.08 2.336 3.886-4.078c7.932-8.323 9.634-10.461 9.634-12.101v-1.485l-5.51-3.156c-6.539-3.745-4.651-3.726-10.903-.113m-24.017.839-3.906 2.283-.107 6.452-.107 6.453 5.185 3.02c6.261 3.648 4.912 3.654 11.335-.052l5.359-3.093.007-6.334.008-6.334-3.028-1.756-3.027-1.755-1.576 1.546-1.577 1.546-2.121-2.148c-2.534-2.565-1.725-2.587-6.445.172m-257.962-.466c.082.225 1.292 1.789 2.689 3.477l2.539 3.068.123-1.718c.076-1.064-.073-1.899-.391-2.19-.891-.818-5.117-3.064-4.96-2.637m300.443 1.912c-1.398.844-1.658 1.195-1.646 2.231l.014 1.23.982-1.172c1.231-1.468 2.599-3.325 2.434-3.305-.068.009-.871.466-1.784 1.016m-272.95 14.677c-.43.229-2.424 1.375-4.433 2.546l-3.652 2.13 1.113 1.183c5.031 5.349 15.967 13.805 17.264 13.349l1.037-.364.107-6.492.107-6.493-4.209-2.437a750.418 750.418 0 0 1-5.381-3.138c-.905-.541-1.351-.606-1.953-.284m17.496 2.776-5.552 3.196-.015 6.375c-.018 8.084-.568 8.189 9.119-1.749l7.674-7.873-2.774-1.599c-1.526-.88-2.802-1.587-2.837-1.572-.035.015-2.562 1.465-5.615 3.222m205.458-1.555c-1.555.894-2.825 1.714-2.823 1.821.019.754 15.597 16.153 15.974 15.791.299-.286.405-2.462.331-6.805l-.107-6.384-2.849-1.682a265.649 265.649 0 0 0-5.273-3.024l-2.425-1.343-2.828 1.626m19.902 1.52-5.551 3.159v6.324c0 9.201.002 9.201 12.179-1.349 2.433-2.108 5.01-4.449 5.727-5.203l1.304-1.372-3.843-2.245a824.479 824.479 0 0 0-4.054-2.36c-.116-.062-2.709 1.308-5.762 3.046M86.943 354.11c-.887.671-.482 1.322.455.731.712-.449 1.131-1.332.623-1.313-.179.007-.664.269-1.078.582m225.601-.231c-.355.219-.326.412.116.779.582.483 1.403.283 1.403-.342 0-.488-.981-.769-1.519-.437" fill="#070e0e"/><path d="M182.227.593C41.68 13.46-42.031 163.538 20.996 289.648c13.742 27.496 41.088 59.78 60.904 71.901.679.416 4.283 2.802 8.007 5.304 67.607 45.402 159.619 43.926 225.583-3.619 1.753-1.263 3.308-2.296 3.456-2.296.149-.001 1.88-1.26 3.846-2.8 106.788-83.629 102.201-245.592-9.144-322.911C275.786 8.935 228.172-3.613 182.227.593m29.694 7.619c117.078 7.496 199.942 116.365 176.145 231.423-15.387 74.39-75.149 133.701-149.785 148.656C120.744 411.842 11.08 324.424 7.951 204.688 5.016 92.361 99.826 1.035 211.921 8.212M80.689 84.608c-3.573 3.802-6.447 7.052-6.386 7.221.061.17 7.301 7.011 16.088 15.204l15.977 14.896 2.254-2.23 2.254-2.231 11.461 10.7c6.303 5.884 17.658 16.477 25.233 23.539l13.772 12.839-1.58 1.714c-9.434 10.235-14.392 28.803-11.561 43.296 7.931 40.603 54.779 56.778 86.9 30.004l1.512-1.261 3.07 2.823c2.658 2.444 9.914 9.199 17.934 16.696 1.289 1.205 3.926 3.666 5.86 5.468a726.027 726.027 0 0 1 4.141 3.882c.344.333 4.869 4.543 10.054 9.356l9.429 8.75-2.096 2.388-2.096 2.387 14.424 13.472c7.933 7.409 15.212 14.153 16.175 14.987l1.752 1.517 1.452-1.554c8.759-9.373 11.413-12.294 11.413-12.563 0-.175-4.609-4.608-10.241-9.851a9446.497 9446.497 0 0 1-16.059-14.983l-5.818-5.45-2.063 2.325-2.064 2.324-.903-.781c-1.017-.88-46.305-42.969-48.344-44.93l-1.312-1.262 2.146-3.076c20.067-28.766 6.708-68.821-26.679-79.993-16.95-5.672-34.437-2.509-49.955 9.036-.585.435-50.603-45.376-51.156-46.853-.079-.211.796-1.334 1.943-2.496l2.087-2.112-1.358-1.317c-.746-.724-6.806-6.392-13.466-12.597A5454.038 5454.038 0 0 1 90.297 80.27c-1.362-1.287-2.619-2.393-2.794-2.458-.174-.064-3.24 2.994-6.814 6.796" fill="#fbc334"/><path d="M186.914 8.259c-34.44 2.263-71.657 15.511-97.79 34.809l-2.088 1.542 4.043 4.16a71336.3 71336.3 0 0 0 49.742 51.035c9.43 9.668 17.33 17.521 17.556 17.452.227-.069 1.926-.805 3.777-1.636 24.607-11.045 54.695-10.627 77.88 1.08l1.948.984 8.794-8.99c4.837-4.944 14.505-14.856 21.484-22.026 6.98-7.17 16.13-16.552 20.334-20.849l14.135-14.446 6.491-6.633-1.825-1.324C276.536 18.13 231.263 5.343 186.914 8.259m91.055 113.949-40.586 40.606 1.949 2.089c16.252 17.421 18.024 45.412 4.135 65.321l-2.146 3.076 1.312 1.262c2.039 1.961 47.327 44.05 48.344 44.93l.903.781 2.064-2.324 2.063-2.325 5.817 5.45c14.523 13.606 25.984 24.209 26.284 24.316 1.645.587 16.407-21.902 22.128-33.71 30.412-62.77 19.192-135.527-28.84-187.031l-2.841-3.046-40.586 40.605M73.624 92.349c-.21.291-1.703 2.175-3.319 4.188-51.704 64.412-47.603 158.443 9.503 217.847l2.751 2.861 40.047-40.047 40.047-40.047-1.949-2.071c-17.11-18.191-17.556-50.796-.942-68.82l1.58-1.714-13.772-12.839c-7.575-7.062-18.93-17.655-25.233-23.539l-11.461-10.7-2.257 2.234-2.258 2.234-15.192-14.151a17625.658 17625.658 0 0 0-16.178-15.058c-.798-.734-1.059-.806-1.367-.378m166.024 191.324c-19.205 9.921-45.946 11.607-68.75 4.336-1.718-.548-3.292-1.151-3.496-1.339-.204-.188-.606-.342-.894-.342-.287 0-2.307-.818-4.488-1.818l-3.966-1.818-6.273 6.427c-51.735 53.003-64.326 66.059-64.15 66.518.553 1.441 17.21 11.633 27.066 16.561 62.35 31.172 141.648 25.002 196.174-15.263l2.083-1.537-2.839-2.992c-1.562-1.646-5.93-6.156-9.707-10.023a12907.006 12907.006 0 0 1-13.902-14.258 77545.2 77545.2 0 0 0-41.387-42.46l-3.127-3.202-2.344 1.21m77.344 78.487c-15.753 12.104-44.08 25.732-63.783 30.684-1.351.34-2.381.692-2.29.784.504.503 13.782-3.744 22.909-7.329 14.424-5.666 38.541-19.047 45.098-25.023.96-.876-.532-.193-1.934.884m-233.983.571c16.326 11.735 36.556 21.941 55.586 28.045 6.35 2.036 10.243 3.095 10.486 2.852.091-.092-.939-.444-2.29-.784-19.372-4.869-45.168-17.14-62.397-29.682-1.385-1.009-2.703-1.834-2.928-1.834-.225 0 .47.631 1.543 1.403m67.968 31.598c.859.293 1.914.535 2.343.538l.782.005-.782-.31c-.429-.171-1.484-.413-2.343-.538l-1.563-.227 1.563.532m96.679-.079c-.967.229-1.494.477-1.172.551.323.074 1.377-.115 2.344-.42 2.062-.65 1.354-.729-1.172-.131m-92.578 1.063c.537.172 1.328.312 1.758.312.619 0 .578-.065-.195-.312-.537-.173-1.328-.313-1.758-.313-.619 0-.578.065.195.313m88.281 0c-.773.247-.814.312-.195.312.43 0 1.221-.14 1.758-.312.773-.248.814-.313.195-.313-.429 0-1.221.14-1.758.313m-83.789.985c1.075.276 2.393.501 2.93.499.537-.001-.078-.24-1.367-.531-2.953-.666-4.182-.641-1.563.032m79.102-.009c-1.182.274-1.709.501-1.172.505.537.003 1.855-.22 2.93-.496 2.535-.652 1.046-.659-1.758-.009m-72.656 1.2c1.396.287 2.978.51 3.515.496.537-.014-.254-.259-1.758-.544-1.503-.285-3.085-.508-3.515-.495-.43.012.361.257 1.758.543m66.015-.028c-1.396.27-2.099.504-1.562.52.537.016 2.119-.205 3.515-.492 1.397-.286 2.1-.52 1.563-.52-.537.001-2.119.222-3.516.492m-60.84.855a3.22 3.22 0 0 0 1.368 0c.376-.098.068-.178-.684-.178s-1.06.08-.684.178m52.247.317c-1.827.264-2.706.491-1.954.503.752.013 2.862-.203 4.688-.481 1.826-.278 2.705-.505 1.953-.504-.752.001-2.861.218-4.687.482m-48.243.213c1.075.167 2.569.296 3.321.286 1.106-.014.994-.076-.586-.322-1.075-.167-2.569-.296-3.321-.286-1.106.014-.994.076.586.322m6.153.653c.59.089 1.557.089 2.148 0 .591-.09.108-.163-1.074-.163-1.182 0-1.665.073-1.074.163m35.156 0a8.674 8.674 0 0 0 2.148 0c.591-.09.108-.163-1.074-.163-1.182 0-1.665.073-1.074.163m-30.066.398c1.027.081 2.609.08 3.515-.002.907-.082.067-.148-1.867-.147-1.934.001-2.675.068-1.648.149m23.828 0c1.027.081 2.609.08 3.515-.002.907-.082.067-.148-1.867-.147-1.934.001-2.675.068-1.648.149" fill="#f3f3f3"/><path d="M91.016 49.023c2.032 2.041 3.783 3.711 3.89 3.711.108 0-1.467-1.67-3.5-3.711-2.032-2.041-3.783-3.71-3.891-3.71-.107 0 1.468 1.669 3.501 3.71m213.856 4.2-2.724 2.832 2.832-2.724c1.558-1.498 2.833-2.773 2.833-2.832 0-.287-.411.093-2.941 2.724M76.633 56.055l-.091 3.515-5.166 2.93c-5.589 3.17-6.278 3.431-7.149 2.709-.316-.262-.673-.378-.793-.257-.121.12.147.415.595.655.776.416.815.746.815 7.023v6.587l-5.111 2.97c-5.993 3.482-5.338 3.376-8.708 1.407-1.471-.86-2.753-1.563-2.849-1.563-.623 0 .688.962 3.201 2.349l2.92 1.612v12.383l-5.51 3.156c-6.528 3.739-5.42 3.608-9.741 1.152-1.939-1.103-3.616-1.915-3.726-1.805-.11.11 1.478 1.144 3.529 2.298l3.729 2.097-.008 6.446-.007 6.445-5.27 3.027c-6.216 3.572-5.354 3.45-9.063 1.279-2.308-1.351-4.33-2.14-3.197-1.248.628.495 5.966 3.387 6.251 3.387.201 0 .357 2.901.357 6.641 0 4.239-.144 6.641-.397 6.641-.219 0-2.636 1.294-5.372 2.876-2.735 1.583-5.237 2.975-5.559 3.095-.462.171-.44.224.104.248.379.017 2.958-1.288 5.73-2.899 6.083-3.536 4.86-3.547 11.178.098 4.886 2.818 5.248 3.108 5.256 4.199.006.809.113 1.007.346.64.185-.292.243-.891.128-1.33-.142-.542-.064-.709.243-.52.249.154.452.093.452-.134 0-.228-.272-.414-.605-.414-.333 0-2.966-1.362-5.852-3.027l-5.247-3.028-.007-6.459-.008-6.46 5.265-3.013c6.247-3.575 5.221-3.464 9.451-1.02 4.645 2.684 5.98 3.351 5.206 2.604-.74-.715-8.12-4.988-8.616-4.988-.216 0-.368-2.738-.368-6.64 0-3.874.152-6.641.366-6.641.202 0 2.475-1.231 5.052-2.736 2.576-1.505 4.958-2.841 5.291-2.969.596-.229 8.661 4.037 9.816 5.193.445.444.568.456.568.052 0-.284-2.109-1.726-4.687-3.203l-4.687-2.687V85.689l5.3-3.051c4.467-2.572 5.434-2.99 6.152-2.659.469.215 2.852 1.557 5.297 2.98s4.598 2.588 4.785 2.588c.187 0 .341.732.341 1.627 0 1.873.527 1.724.562-.159.021-1.113.293-1.404 2.532-2.708 1.379-.803 2.785-1.759 3.125-2.124.486-.523.327-.496-.751.127-6.019 3.479-4.6 3.514-11.251-.279l-5.138-2.929.006-6.446.006-6.445 5.381-3.027c2.959-1.665 5.512-3.028 5.672-3.028.161 0 2.653 1.363 5.539 3.028l5.248 3.027.089 5.859.09 5.86.119-5.737.119-5.737 5.5-3.15c6.411-3.672 5.581-3.493 8.427-1.816 2.418 1.424 3.022 1.498 1.873.229-.391-.433-.797-.701-.902-.596-.564.565-3.168-1.548-3.312-2.687l-.153-1.209-.063 1.269c-.034.698-.223 1.27-.42 1.27-.198 0-2.627 1.318-5.4 2.929-6.043 3.512-5.099 3.464-10.191.517-6.796-3.934-6.267-3.335-6.417-7.271l-.13-3.402-.09 3.516m247.653.39-.09 3.125-5.145 2.93c-2.829 1.611-5.384 2.989-5.678 3.061-.294.072-2.887-1.216-5.762-2.862l-5.227-2.993-.145-1.826-.145-1.825-.07 1.855c-.039 1.021-.251 1.856-.47 1.856-.701 0-6.55 3.556-7.289 4.431-.698.827-.697.831.071.222 1.001-.794 7.095-4.263 7.489-4.263.164 0 2.633 1.337 5.486 2.971l5.189 2.972v13.138l-5.102 2.96c-6.142 3.562-4.976 3.559-11.068.024-2.771-1.608-5.188-2.924-5.371-2.924-.184 0-.334-2.461-.334-5.469 0-6.319.102-6.214-2.942-3.027l-2.331 2.441 2.441-2.331 2.441-2.332v10.538l-5.229 3.019c-5.774 3.335-5.799 3.343-7.466 2.239-1.753-1.161-2.145-1.013-4.894 1.855l-2.528 2.637 2.631-2.521 2.63-2.522 1.953.959 1.954.959.006 6.543c.003 3.599-.144 6.543-.328 6.543-.183 0-2.6 1.316-5.371 2.924-2.77 1.608-5.247 2.926-5.504 2.929-.357.005-7.433-3.886-8.297-4.562-.093-.073.522-.877 1.367-1.786l1.537-1.653-1.66 1.544c-2.22 2.065-2.237 2.034 2.448 4.642l4.095 2.279v13.125l-5.232 2.974c-6.274 3.567-4.759 3.574-11.218-.053l-5.392-3.027-.016-1.932c-.014-1.566.185-2.157 1.05-3.125.587-.656-.204.033-1.758 1.531-1.553 1.498-2.824 2.808-2.824 2.911 0 .103.714-.507 1.586-1.356l1.587-1.545-.122 1.748-.122 1.748-5.078 3.007c-6.185 3.663-5.074 3.649-11.184.138-2.804-1.611-5.258-2.93-5.453-2.93-.195 0-.355-1.747-.355-3.883s-.132-3.965-.293-4.065c-.161-.1-.242 1.603-.18 3.785l.113 3.968-5.266 3.027c-6.339 3.645-4.923 3.663-11.527-.146l-5.503-3.174v-10.016l1.855-.146c1.021-.08.01-.145-2.246-.144-2.256.001-3.179.066-2.051.145l2.051.143v10.409l-5.291 3.03c-4.09 2.342-5.458 2.952-6.025 2.685-.404-.189-2.939-1.575-5.633-3.079l-4.899-2.734-.014-4.004c-.007-2.202-.145-4.004-.306-4.005-.161 0-.244 1.802-.185 4.004l.108 4.005-5.157 2.93c-2.835 1.611-5.383 2.985-5.661 3.053-.277.068-2.793-1.206-5.589-2.832-2.797-1.626-5.254-2.956-5.461-2.956-.206 0-.441-.835-.522-1.855l-.146-1.856-.07 1.773-.071 1.772-5.305 3.035c-2.917 1.67-5.519 2.982-5.781 2.916-.263-.066-2.792-1.439-5.622-3.05l-5.144-2.93v-12.891l4.09-2.311c2.249-1.272 4.008-2.393 3.909-2.492-.098-.099-1.911.81-4.028 2.019-4.683 2.675-3.55 2.763-9.737-.755l-5.194-2.953V85.534l1.367-.652c.752-.358 1.367-.812 1.367-1.009 0-.196-.625.013-1.39.463-1.881 1.111-1.57 1.201-7.63-2.207l-5.383-3.027-.135-5.274-.134-5.273-.093 5.273-.093 5.274-5.247 3.027c-6.163 3.556-5.414 3.437-8.928 1.413a588.567 588.567 0 0 0-4.17-2.382l-1.367-.768.976.821c1.214 1.021 6.856 4.334 7.381 4.334.213 0 .454.747.536 1.66l.15 1.66.071-1.562.071-1.563 5.291-3.052c2.909-1.679 5.501-2.997 5.758-2.93.258.068 2.793 1.441 5.634 3.053l5.166 2.929.003 6.446.002 6.445-3.5 1.953c-1.926 1.074-3.504 2.095-3.508 2.269-.004.173 1.091-.319 2.434-1.095 1.342-.776 3.002-1.693 3.688-2.038l1.247-.626 5.296 3.032 5.296 3.033v13.097l-3.418 1.993c-1.88 1.096-3.219 1.998-2.975 2.004.244.006 1.826-.779 3.516-1.744 3.795-2.168 2.812-2.304 9.171 1.266l5.391 3.028.017 6.514c.015 5.884-.05 6.532-.667 6.693-.481.126-.405.192.257.224.518.025 3.279 1.398 6.137 3.052l5.196 3.007.133 2.755.134 2.755.077-2.832c.043-1.558.243-2.832.444-2.832.202 0 2.639-1.319 5.417-2.93 2.778-1.611 5.253-2.93 5.501-2.93.432 0 9.496 5.135 10.48 5.937.299.244.522 1.854.601 4.354l.126 3.967.097-4.101.097-4.102 5.381-3.027c6.456-3.633 5.028-3.624 11.271-.075l5.194 2.954.066 1.636.065 1.637.152-1.437c.147-1.398.302-1.524 5.6-4.59 6.55-3.791 5.238-3.775 11.532-.14l5.217 3.013.124 4.116.125 4.116.083-4.199c.046-2.31.244-4.199.441-4.199s2.627-1.319 5.4-2.93c2.773-1.611 5.232-2.93 5.465-2.93.432 0 9.653 5.196 10.575 5.959.382.316.479 1.704.39 5.593-.065 2.845.014 5.09.175 4.99.161-.1.297-2.5.302-5.334l.008-5.153 5.497-3.087 5.497-3.088 1.769.859c2.22 1.079 2.711.779.539-.329l-1.6-.816v-13.186l5.11-2.969c6.107-3.549 5.044-3.484 10.04-.617 2.256 1.295 4.178 2.277 4.272 2.184.151-.152-.934-.819-7.215-4.436l-1.66-.956v-12.329l5.503-3.174c6.603-3.808 5.187-3.79 11.488-.146l5.234 3.027.14 2.344.14 2.344.076-2.441c.041-1.343.228-2.442.415-2.442.597 0 9.368-5.123 9.895-5.779.375-.468.152-.422-.86.175-10.505 6.202-8.582 5.923-15.059 2.186l-5.247-3.027-.002-6.445-.002-6.446 5.154-2.929c2.834-1.612 5.354-2.982 5.6-3.044.245-.063 2.943 1.326 5.996 3.086l5.549 3.201-.115 6.154c-.064 3.385.016 6.073.177 5.973.161-.1.293-2.946.293-6.323v-6.141l5.211-3.016c6.072-3.513 5.377-3.371 8.187-1.679 1.22.735 2.296 1.212 2.389 1.06.094-.152-.958-.885-2.339-1.629l-2.51-1.353.013-6.446.013-6.445 4.899-2.734c2.694-1.504 5.222-2.887 5.617-3.073.548-.257 1.978.39 6.026 2.727l5.306 3.065V79.2l-5.201 2.978c-5.148 2.948-6.011 3.288-6.732 2.65-.204-.18-1.075-.724-1.934-1.208l-1.562-.88 1.049.972c.577.536.976 1.046.887 1.135-.089.09.583.894 1.493 1.787l1.655 1.624-.003-1.241c-.003-1.284 2.039-2.738 9.005-6.41l1.976-1.043 5.146 2.992c2.83 1.645 5.325 2.991 5.543 2.991.253 0 .397 2.402.397 6.641 0 3.878-.153 6.64-.367 6.64-.752 0-8.759 4.922-8.91 5.477-.097.356-.034.422.165.172.431-.542 8.591-5.258 9.098-5.258.218 0 2.769 1.362 5.667 3.027l5.269 3.027.001 6.446.001 6.445-4.285 2.467c-2.399 1.381-4.486 2.344-4.741 2.186-.285-.175-.351-.112-.177.17.446.721.835.577 5.115-1.893 4.942-2.853 3.748-2.947 10.31.812l5.51 3.156v12.325l-5.539 3.196c-3.046 1.758-5.762 3.111-6.035 3.006-.305-.117-.413.024-.282.367.253.658.46.563 7.014-3.19 5.27-3.018 4.158-3.072 10.294.494l5.126 2.979-.049 6.818c-.028 3.749.081 6.935.242 7.079.161.145.166.043.011-.226-.32-.555.381-.681.722-.129.122.197 1.407 1.017 2.855 1.822 1.448.805 3.029 1.719 3.512 2.03.484.311.879.414.879.228 0-.186-1.67-1.277-3.711-2.425l-3.711-2.088v-13.063l1.416-.675c.778-.371 1.328-.763 1.22-.87-.107-.107-.816.101-1.575.463l-1.38.658-5.309-3.056-5.309-3.056v-13.094l2.732-1.488c1.502-.818 2.733-1.627 2.734-1.798.001-.17-1.374.436-3.057 1.348l-3.059 1.658-5.176-3.008c-2.847-1.654-5.338-3.008-5.535-3.008-.203 0-.358-2.874-.358-6.64 0-3.741.156-6.641.356-6.641.516 0 5.842-3.114 6.133-3.586.287-.465-.755.049-3.806 1.877-2.815 1.688-2.242 1.804-8.355-1.695l-5.265-3.013V85.727l2.343-1.288c1.289-.709 2.344-1.447 2.344-1.641 0-.193-1.04.258-2.312 1.003-2.957 1.733-2.336 1.862-8.652-1.799l-5.442-3.155v-6.173c0-5.954.031-6.195.879-6.803l.879-.631-.998.216c-.759.164-2.163-.454-5.859-2.577-6.231-3.578-5.785-3.085-5.94-6.566l-.132-2.993-.09 3.125m-217.059 9.18c1.275 1.289 2.407 2.344 2.514 2.344.108 0-.848-1.055-2.124-2.344-1.275-1.289-2.407-2.344-2.514-2.344-.108 0 .848 1.055 2.124 2.344m13.671 14.063c1.925 1.933 3.588 3.515 3.695 3.515.108 0-1.379-1.582-3.304-3.515-1.925-1.934-3.587-3.516-3.695-3.516-.107 0 1.38 1.582 3.304 3.516m-41.04 5.566-1.147 1.269 1.269-1.147c1.184-1.069 1.45-1.392 1.148-1.392-.067 0-.639.572-1.27 1.27m243.366-.035c.59.269.995.776.995 1.245 0 .721-.104.692-1.172-.331-1.593-1.526-1.558-1.705.177-.914M136.133 95.313c1.924 1.933 3.587 3.515 3.694 3.515.108 0-1.379-1.582-3.304-3.515-1.924-1.934-3.587-3.516-3.694-3.516-.108 0 1.379 1.582 3.304 3.516m120.898 6.835c-.949.967-1.637 1.758-1.53 1.758.108 0 .972-.791 1.921-1.758.949-.966 1.637-1.757 1.53-1.757-.108 0-.972.791-1.921 1.757m-105.859 8.594c2.032 2.041 3.783 3.711 3.891 3.711.107 0-1.468-1.67-3.5-3.711-2.033-2.041-3.784-3.711-3.891-3.711-.108 0 1.467 1.67 3.5 3.711m9.791 10.938c2.772 1.611 5.218 2.929 5.437 2.929.253 0 .397 2.326.397 6.405v6.405l-5.47 3.166c-6.533 3.78-5.329 3.769-11.522.107l-5.078-3.003-.098-6.442-.097-6.442 5.175-3.003c6.297-3.652 5.204-3.64 11.256-.122m22.928.195 5.149 2.93.002 6.445.003 6.445-5.391 3.028c-6.455 3.624-4.896 3.622-11.201.014l-5.265-3.013v-12.939l5.175-3.018c6.085-3.548 5.087-3.558 11.528.108m22.373-.098 5.424 3.028.016 6.543c.008 3.824-.138 6.543-.352 6.543-.201 0-2.474 1.231-5.051 2.736-2.577 1.505-4.961 2.842-5.298 2.971-.368.142-2.71-.966-5.885-2.785l-5.274-3.02v-13.132l5.176-2.953c6.219-3.548 4.747-3.557 11.244.069m22.664.138 5.447 3.165v12.358l-5.537 3.171c-3.045 1.745-5.735 3.121-5.978 3.059-.242-.062-2.76-1.432-5.594-3.043l-5.154-2.93.006-6.445.006-6.445 5.169-3.009c6.29-3.661 5.108-3.673 11.635.119m22.527-.04 5.165 2.93-.004 6.445-.004 6.445-5.381 3.028c-6.453 3.63-4.965 3.629-11.236.007l-5.229-3.02v-12.956l5.175-3.002c6.083-3.529 5.055-3.54 11.514.123M17.188 142.363c0 .107.527.468 1.171.801.645.333 1.172.518 1.172.411 0-.108-.527-.468-1.172-.802-.644-.333-1.171-.518-1.171-.41m2.528 15.577c-.767.751-.767.753.036.338.683-.352 1.661.07 6.348 2.741l5.541 3.157v12.715l-5.561 3.185-5.56 3.185-1.373-.623c-1.219-.553-1.286-.555-.592-.012 1.614 1.263 2.249 1.098 7.475-1.938 5.626-3.269 5.658-3.279 7.49-2.162 1.386.845 2.054.735 1.982-.326-.041-.594-.063-.596-.216-.021-.152.572-.334.551-1.709-.195l-1.539-.836.002-6.445c.002-3.545.174-6.709.382-7.031.208-.322.381-.45.385-.283.003.167.539.027 1.19-.31.652-.337 1.076-.788.943-1.004-.146-.236-.886-.015-1.868.558l-1.627.948-5.479-3.198c-5.426-3.167-5.486-3.191-6.25-2.443m357.335 1.085c-1.128.658-2.051 1.386-2.051 1.619 0 .233-.11.314-.245.179-.331-.331-2.489.813-2.489 1.319 0 .222-.145.315-.321.206-.176-.109-.858.129-1.515.529-1.138.691-1.25.694-2.317.054-4.531-2.715-5.613-3.214-5.613-2.585 0 .351.144.548.321.439.176-.109 1.714.628 3.418 1.637l3.097 1.836.107 6.335.107 6.334-1.556.795c-1.883.96-1.978.967-1.978.143 0-.358-.104-.548-.231-.42-.127.127-.113.602.031 1.057l.262.827 1.68-.939 1.68-.939 5.223 3.033 5.222 3.033.106 6.588.107 6.588-5.342 3.091c-5.313 3.074-5.349 3.088-6.455 2.453-.611-.351-1.111-.508-1.111-.35 0 .159.527.6 1.171.981l1.172.692V216l-1.536.783-1.536.784-.168-.873c-.117-.606-.185-.474-.222.433l-.053 1.307 1.684-.988 1.685-.987 5.249 3.043 5.249 3.043.106 6.608.107 6.608-5.274 3.018c-6.248 3.575-4.935 3.414-8.942 1.099-2.608-1.506-3.37-1.796-3.542-1.347-.121.315-.062.474.131.355s1.817.628 3.609 1.66l3.258 1.877.099 6.23.099 6.23-5.643 3.244c-5.89 3.387-7.416 3.68-8.123 1.559-.089-.267-.269-.078-.4.421-.13.499-.139.81-.019.689.121-.12.728.045 1.351.367l1.131.586-.107 6.488-.107 6.488-5.376 3.111c-4.435 2.565-5.478 3.026-5.957 2.628-.421-.349-.581-.357-.581-.031 0 .248.264.552.586.676.488.187.586 1.29.586 6.568v6.343l-5.673 3.224c-5.621 3.195-5.683 3.218-6.686 2.561-.925-.606-1.059-.61-1.555-.04-.298.342-.342.459-.097.259 1.681-1.375 2.292.562 2.292 7.261v6.413l-1.367.807c-.752.444-1.367.994-1.367 1.224 0 .229-.11.307-.245.172-.38-.38-2.546.879-2.273 1.32.257.416 3.557-1.285 4.314-2.224.236-.292.572-.403.747-.245.174.158.19.067.036-.201-.514-.892.304-.513 6.015 2.787l5.664 3.273.234 1.706.234 1.706.059-1.656c.056-1.582.156-1.712 2.216-2.875 1.186-.669 2.339-1.594 2.561-2.054.391-.811.385-.814-.205-.078-.334.417-.607.632-.607.478 0-.154-.527-.007-1.172.326-.645.333-1.172.777-1.172.987 0 .209-.132.345-.293.303-.161-.043-.681.055-1.156.217-.675.23-2.059-.401-6.348-2.893l-5.484-3.186.015-6.308.014-6.307 5.666-3.226 5.667-3.225 5.439 3.16 5.44 3.16.124 4.362.124 4.362.089-4.297.089-4.296 4.094-2.344c2.251-1.289 4.095-2.49 4.096-2.669.001-.178-.569.018-1.267.437-.699.419-2.553 1.501-4.122 2.404l-2.852 1.643-5.351-3.096-5.351-3.096-.107-6.458-.107-6.458 5.444-3.163 5.445-3.163 5.671 3.216 5.671 3.215.138 4.493.138 4.492.084-4.585.084-4.585 2.912-1.665c1.602-.916 2.996-1.868 3.099-2.116.102-.248-1.303.425-3.123 1.496l-3.309 1.948-5.649-3.197-5.649-3.197v-12.615l3.614-2.046a897.708 897.708 0 0 0 5.611-3.201l1.998-1.154 5.229 3.019 5.228 3.018.195 2.721c.211 2.932.766 2.313.776-.866.004-1.288.171-1.686.787-1.882.429-.136.781-.408.781-.603 0-.199-.395-.176-.896.052-.773.352-1.629-.01-6.239-2.645l-5.343-3.054-.011-6.52-.011-6.52 3.613-2.112c1.987-1.162 4.408-2.571 5.38-3.133l1.767-1.021 3.634 2.126c1.999 1.168 3.576 1.95 3.505 1.737-.071-.214-1.623-1.242-3.448-2.285l-3.318-1.897-.1-6.398-.1-6.398 3.029-1.741c6.609-3.797 7.574-4.393 7.395-4.572-.102-.102-2.506 1.164-5.343 2.812-3.824 2.223-5.33 2.912-5.827 2.663-.369-.184-2.811-1.565-5.426-3.069l-4.754-2.734-.004-6.513-.003-6.513 5.176-3.015c6.226-3.628 4.852-3.645 11.419.143 3.004 1.733 5.538 3.075 5.631 2.981.256-.255-10.24-6.419-10.93-6.419-.204 0-.356-2.832-.353-6.543l.006-6.543 5.072-2.901c2.79-1.595 5.073-3.041 5.073-3.212 0-.17-2.127.927-4.725 2.44-2.599 1.512-4.954 2.838-5.235 2.945-.28.108-2.9-1.172-5.822-2.844l-5.312-3.04v-13.056l3.516-2.012c1.933-1.106 3.515-2.203 3.515-2.438 0-.234.11-.316.245-.181.37.37 2.55-.874 2.284-1.304-.29-.469-.039-.555-2.431.839m-359.571.183c-1.46.792-1.371 1.122.098.362.645-.333 1.172-.689 1.172-.791 0-.251-.042-.237-1.27.429m20.646.619c-.344.492-.626.762-.626.601 0-.16-.533-.016-1.185.321-.651.337-1.078.785-.948.995.141.228.854.036 1.755-.47.835-.469 1.436-.986 1.336-1.147-.1-.162.039-.373.309-.47.27-.096.377-.298.238-.449-.14-.151-.535.128-.879.619m-23.38.943c-1.46.793-1.371 1.123.098.363.644-.333 1.172-.69 1.172-.791 0-.252-.042-.238-1.27.428m223.438.391c-1.623 1.063-1.73 1.209-.89 1.209.316 0 1.052-.498 1.636-1.107 1.279-1.336 1.162-1.352-.746-.102M10.547 177.872c0 .148 2.218 1.477 6.738 4.039.161.092.293.083.293-.018 0-.147-2.218-1.477-6.738-4.039-.161-.091-.293-.083-.293.018m23.544 13.144c0 .966.076 1.362.169.879a5.574 5.574 0 0 0 0-1.758c-.093-.484-.169-.088-.169.879m332.823.781c0 1.182.073 1.665.163 1.074a8.674 8.674 0 0 0 0-2.148c-.09-.591-.163-.108-.163 1.074m-347.482 5.322c-.59.309-1.073.65-1.073.758 0 .107.465-.048 1.032-.346.98-.513 1.31-.383 6.623 2.625l5.592 3.164.017 6.292.018 6.291-5.555 3.205c-4.955 2.859-5.661 3.16-6.543 2.784-.93-.395-.943-.385-.23.172 1.111.868 1.127.862 6.998-2.515l5.402-3.107 1.527.964c.839.53 1.526 1.166 1.526 1.414s.102.349.227.224c.439-.44-.602-1.755-1.775-2.241l-1.187-.492v-13.203l.977-.445c.537-.244.976-.597.976-.783 0-.185-.541-.057-1.204.285-1.202.622-1.21.619-6.543-2.392a1202.8 1202.8 0 0 0-5.535-3.116c-.109-.055-.68.153-1.27.462m-3.709 2.141c-1.128.657-2.051 1.285-2.051 1.395 0 .217 3.474-1.714 4.082-2.269.662-.605.061-.346-2.031.874m-3.711 2.135c-1.461.793-1.372 1.123.097.363.645-.333 1.172-.69 1.172-.791 0-.252-.042-.238-1.269.428m354.897 4.66c.003 1.074.078 1.467.168.873.09-.594.088-1.472-.005-1.953-.093-.48-.166.005-.163 1.08m-332.818 2.929c0 .967.076 1.363.169.879a5.574 5.574 0 0 0 0-1.758c-.093-.483-.169-.087-.169.879m-24.13 7.614c.873.725 3.347 2.063 2.734 1.478-.215-.205-1.093-.768-1.953-1.25-.859-.483-1.211-.585-.781-.228m3.32 1.937c0 .107.528.468 1.172.801.645.333 1.172.518 1.172.411 0-.108-.527-.468-1.172-.802-.644-.333-1.172-.518-1.172-.41m2.735 1.562c0 .108.527.468 1.172.801.644.334 1.171.519 1.171.411 0-.107-.527-.468-1.171-.801-.645-.333-1.172-.518-1.172-.411m3.415 16.085c-.589.309-1.072.648-1.072.755 0 .106.484-.055 1.075-.359 1.032-.529 1.29-.427 6.625 2.627l5.552 3.178.015 6.307.015 6.308-5.64 3.191c-4.972 2.814-5.747 3.14-6.543 2.754-.863-.42-.869-.412-.145.168 1.103.884 1.101.885 6.955-2.5l5.369-3.105 5.48 3.16 5.48 3.161-.107 6.435-.107 6.435-5.364 3.117-5.364 3.118-4.165-2.39c-2.29-1.314-3.949-2.13-3.686-1.813.264.318 2.13 1.506 4.148 2.642l3.669 2.064.119 5.865.118 5.864.087-5.928.086-5.927 5.427-3.146 5.427-3.146 5.686 3.214 5.687 3.214.008 6.25.008 6.25-5.669 3.243-5.67 3.242-4.889-2.797c-2.689-1.537-4.971-2.713-5.072-2.612-.101.101 2.014 1.45 4.699 2.998l4.882 2.814.122 4.954.122 4.955.088-4.883.088-4.882 4.391-2.524a1955.04 1955.04 0 0 0 5.581-3.214l1.189-.69 5.256 3.018 5.256 3.019.107 6.738c.07 4.405-.031 6.739-.293 6.739-.22 0-.751.351-1.181.781-.429.429-.781.689-.781.576 0-.113-.527.067-1.172.4-.644.334-1.172.807-1.172 1.052s-.11.336-.245.201c-.373-.374-2.548.875-2.28 1.309.13.21.355.315.501.235 3.254-1.781 6.219-3.595 6.552-4.007.345-.427 1.502.089 6.055 2.699l5.628 3.228.107 6.467.107 6.467-4.692 2.67c-2.581 1.469-4.609 2.754-4.507 2.855.101.102 2.228-.994 4.726-2.436l4.541-2.621 5.328 3.069 5.328 3.07.107 6.472.106 6.473-1.019.668c-.561.368-.932.756-.825.864.108.107.643-.098 1.189-.456s1.177-.537 1.401-.399c.224.139.408.066.408-.161 0-.228-.176-.414-.391-.414-.244 0-.388-2.372-.384-6.348l.006-6.347 5.643-3.249 5.643-3.249 2.779 1.624c1.529.893 2.868 1.535 2.975 1.428.108-.108-1.048-.922-2.569-1.81l-2.765-1.615v-12.823l1.758-1.03c.967-.567 1.758-1.219 1.758-1.449 0-.23.11-.308.245-.174.376.377 2.547-.877 2.277-1.314-.139-.225-1.165.142-2.454.877l-3.213 1.83c-1.452.826-12.271-5.329-11.986-6.819.096-.503.024-.822-.16-.708-.184.114-.334.513-.334.887s-.191.871-.425 1.104c-.305.306-.289.509.061.725.312.193.386.139.206-.152-.522-.844.351-.433 6.017 2.83l5.664 3.263.098 6.396.098 6.396-5.623 3.223-5.623 3.223-5.51-3.156-5.51-3.156v-12.77l3.516-2.012c1.933-1.107 3.515-2.204 3.515-2.438 0-.235.111-.316.245-.182.361.361 2.553-.867 2.295-1.286-.325-.526-1.401-.039-2.788 1.261l-1.224 1.149-1.51-1.515c-1.116-1.121-1.204-1.169-.338-.187 1.12 1.269 1.139 1.348.425 1.775-.411.245-1.07.754-1.465 1.13-.395.376-.813.665-.93.643-.116-.022-.699.161-1.293.408-.996.412-1.507.205-6.415-2.597l-5.332-3.044-.015-6.529c-.013-6.137.033-6.554.767-6.947.43-.23.782-.615.781-.856 0-.24-.353-.118-.784.273-.762.689-.835.682-2.45-.233l-5.457-3.091-3.791-2.148-.009-6.566c-.006-4.866.108-6.494.442-6.287.28.172.345.107.173-.173-.154-.248-.5-.451-.77-.451-.269 0-2.984-1.43-6.031-3.179l-5.541-3.179v-12.657l1.074-.521c.591-.287 1.2-.493 1.353-.458.153.035.173-.213.043-.551-.129-.338-.343-.45-.474-.249-1.06 1.622-1.915 1.42-7.405-1.743l-5.333-3.074-.107-6.491-.107-6.491 2.841-1.655c1.563-.91 3.067-1.66 3.343-1.666.303-.008.36-.154.143-.37-.216-.217-1.608.369-3.524 1.482l-3.167 1.84-4.789-2.739c-6.676-3.818-6.192-3.624-7.429-2.976m-2.732 1.541c-1.46.793-1.371 1.123.098.363.644-.333 1.172-.689 1.172-.791 0-.252-.042-.238-1.27.428m-2.734 1.563c-1.46.792-1.372 1.122.098.362.644-.333 1.171-.689 1.171-.791 0-.251-.042-.237-1.269.429m147.121-.3c.148.24 1.492 1.102 2.987 1.916l2.719 1.481.002 6.287.003 6.287-5.67 3.223-5.67 3.222-5.365-3.122c-2.951-1.717-5.507-3.035-5.681-2.929-.174.105.354.548 1.172.982.818.435 3.293 1.843 5.5 3.13l4.014 2.338-.107 6.489-.107 6.489-5.337 3.076-5.337 3.075-5.503-3.19-5.503-3.189v-3.9c0-2.501-.14-3.814-.39-3.659-.217.134-.392 1.926-.392 4.027l-.002 3.786-5.146 2.929c-6.258 3.563-5.686 3.34-6.554 2.554-.396-.358-.819-.49-.941-.292-.122.197.212.556.742.798l.964.439v12.828l-5.5 3.195-5.5 3.196-3.508-2.025c-1.93-1.114-3.596-1.938-3.702-1.831-.107.107 1.398 1.105 3.344 2.219l3.538 2.025v6.273c0 6.19-.013 6.286-.976 7.179-.537.498-.977.821-.977.718 0-.102-.533.089-1.185.426-.651.337-1.08.782-.952.989.131.212 1.198-.155 2.454-.846l2.222-1.221 5.192 3.026c2.855 1.665 5.277 2.941 5.382 2.836.105-.104-2.232-1.585-5.192-3.291l-5.382-3.1-.107-6.439-.106-6.439 4.403-2.505c2.422-1.378 4.94-2.82 5.596-3.203l1.191-.697 5.254 3.035 5.254 3.035.111 4.003c.141 5.049.865 4.964.865-.101v-3.64l5.343-3.075c6.349-3.655 5.658-3.342 6.376-2.888.477.302.114.864-1.953 3.021l-2.539 2.65 2.636-2.528c2.697-2.585 3.081-3.273 2.051-3.668-.488-.187-.586-1.297-.586-6.634v-6.409l5.491-3.166 5.492-3.167 5.627 3.216 5.627 3.215.083 2.539.084 2.539.224-2.685.224-2.685 5.327-3.061 5.326-3.06 5.533 3.175 5.533 3.174-.117 5.404c-.1 4.595-.03 5.404.468 5.403.493 0 .586-.877.586-5.55v-5.55l5.241-3.03 5.242-3.029 2.189 1.255c1.204.69 3.718 2.134 5.588 3.208l3.398 1.953.12 5.274.121 5.273.086-5.34.085-5.34 5.484-3.141 5.483-3.14 5.635 3.207 5.635 3.207.014 2.246c.008 1.236.147 2.247.308 2.247.161.001.293-1.07.293-2.379v-2.38l5.262-3.059c2.894-1.683 5.355-3.015 5.469-2.96.113.055 2.623 1.487 5.578 3.181l5.371 3.081v12.735l-.995.454c-.937.427-1.191.262-4.395-2.841l-3.399-3.293 3.483 3.589c3.402 3.505 3.508 3.577 4.508 3.059.968-.5 1.316-.362 6.282 2.482l5.258 3.012.112 3.89.112 3.889-2.456-2.343-2.456-2.344 2.332 2.441c2.978 3.119 2.94 3.136 2.953-1.367l.011-3.808 5.692-3.216 5.692-3.216 5.43 3.148 5.429 3.147v12.811l-3.125 1.802c-1.718.992-3.125 1.993-3.125 2.224 0 .232-.11.312-.244.177-.374-.374-2.549.875-2.28 1.31.129.209.354.313.501.231 4.492-2.523 6.711-3.91 6.711-4.195 0-.196.132-.321.293-.279.161.043.675-.053 1.142-.212.655-.224 2.098.434 6.347 2.893l5.499 3.182-.006 6.307-.006 6.307-3.119 1.728c-3.722 2.061-3.716 2.029-.873 4.731l2.246 2.135-2.148-2.26c-1.773-1.865-2.046-2.328-1.563-2.648.323-.213 1.671-1.005 2.996-1.76l2.41-1.372 5.298 3.044 5.297 3.043.007 6.738c.009 7.708.037 7.661-2.908 4.885-1.082-1.02-.741-.58.757.977 1.498 1.556 2.8 2.83 2.893 2.83.092 0-.147-.348-.531-.773-.862-.952.158-1.625 1.179-.778.324.27.689.392.809.271.121-.121-.147-.416-.595-.655-.775-.415-.815-.749-.815-6.819v-6.383l5.532-3.191 5.532-3.19 4.116 2.367c2.263 1.302 4.26 2.319 4.438 2.26.178-.059-1.483-1.15-3.69-2.425-5-2.887-4.587-2.05-4.594-9.287l-.006-6.143 1.172-.606c.645-.333 1.172-.806 1.172-1.052 0-.245.11-.335.245-.2.373.372 2.549-.875 2.281-1.308-.132-.214-1.349.245-2.798 1.055-1.945 1.088-2.717 1.339-3.197 1.039-2.324-1.449-5.22-2.935-4.987-2.556.154.248 1.503 1.118 2.998 1.932l2.719 1.481.002 6.498.003 6.498-5.371 3.033a1330.684 1330.684 0 0 1-5.595 3.15c-.122.064-2.583-1.247-5.468-2.913l-5.246-3.029V320.55l2.486-1.437c1.367-.791 2.639-1.679 2.826-1.975.187-.295.343-.4.346-.233.003.166.539.027 1.191-.31.651-.337 1.079-.784.949-.993-.129-.209-.354-.313-.501-.231-4.546 2.553-6.711 3.913-6.711 4.217 0 .209-.203.255-.451.101-.279-.172-.345-.107-.172.173.539.872-.427.42-6.028-2.822l-5.654-3.272-.107-6.464c-.101-6.097-.064-6.478.649-6.704.415-.132.991-.524 1.279-.871.461-.556.368-.551-.774.04l-1.297.67-5.344-3.105-5.343-3.106-.107-6.472-.107-6.471 1.083-.588c.596-.323.853-.595.57-.603-.283-.009-.858.168-1.279.393-.635.341-1.718-.138-6.402-2.832l-5.637-3.241-.132-3.516-.132-3.515-.089 3.711-.09 3.711-3.792 2.148-5.38 3.049-1.589.901-5.549-3.178-5.548-3.178v-12.681l4.692-2.656c4.04-2.288 5.611-3.351 4.954-3.351-.092 0-2.318 1.25-4.949 2.777l-4.783 2.776-1.625-.921-5.418-3.069-3.791-2.149-.009-6.505-.008-6.506 1.788-1.048c.984-.577 1.701-1.136 1.593-1.244-.107-.107-.994.273-1.972.846-1.159.679-2.086.962-2.667.814l-.891-.228.879.453c.857.44.879.612.879 6.781v6.329l-5.685 3.21-5.685 3.21-5.35-3.094-5.35-3.093-.232-1.915-.232-1.916-.061 1.802-.061 1.802-4.981 2.856a754.535 754.535 0 0 0-5.595 3.23c-.463.281-1.934-.388-5.95-2.705l-5.335-3.079-.007-1.66c-.004-.913-.183-1.66-.398-1.66-.215 0-.39.69-.39 1.533v1.533l-5.522 3.201-5.522 3.201-1.412-.828a469.307 469.307 0 0 0-5.428-3.074l-4.016-2.246.11-6.897c.06-3.793-.024-6.814-.187-6.712-.163.101-1.64-.558-3.283-1.465s-2.866-1.453-2.717-1.213m11.292 19.756 5.375 3.077-.107 6.435-.107 6.435-5.374 3.117-5.374 3.117-5.661-3.217-5.661-3.217.014-6.288.015-6.287 5.552-3.194c3.053-1.756 5.642-3.162 5.752-3.125.11.038 2.619 1.454 5.576 3.147m24.009.895 3.613 2.107-.009 6.53-.008 6.531-5.132 2.929c-2.823 1.612-5.254 2.98-5.403 3.041-.149.061-2.757-1.323-5.797-3.076l-5.526-3.187.002-6.299.003-6.299 5.561-3.204 5.562-3.204 1.76 1.012c.968.557 3.386 1.96 5.374 3.119m20.831-.998 5.457 3.17-.107 6.479-.107 6.478-5.333 3.073-5.333 3.072-5.705-3.248-5.705-3.249.1-6.228.101-6.227 5.469-3.204c3.008-1.763 5.522-3.223 5.587-3.245.066-.023 2.575 1.385 5.576 3.129m22.743.123 5.352 3.098v12.691l-5.492 3.183-5.491 3.183-5.642-3.209-5.641-3.209.015-6.292.014-6.293 5.552-3.2c3.053-1.76 5.649-3.166 5.767-3.125.119.041 2.623 1.469 5.566 3.173m-100.218 20.16 4.391 2.523.004 6.303.003 6.303-5.371 3.072c-6.452 3.69-5.112 3.674-11.337.143l-5.165-2.93.097-6.619.096-6.619 5.261-3.038 5.26-3.037 1.185.688c.651.378 3.161 1.823 5.576 3.211m135.94.472 3.614 2.051v12.586l-5.626 3.2-5.626 3.2-5.311-3.048-5.311-3.047.097-6.641.097-6.64 5.252-3.016 5.251-3.016 1.975 1.159c1.086.638 3.601 2.083 5.588 3.212m-119.063 4.493-1.347 1.465 1.465-1.347c1.364-1.253 1.645-1.583 1.346-1.583-.065 0-.724.659-1.464 1.465m-27.917 28.711-3.508 3.613 3.614-3.508c3.356-3.257 3.791-3.719 3.507-3.719-.058 0-1.684 1.626-3.613 3.614m-81.812 3.632c.259.313 2.024 1.464 3.921 2.559l3.45 1.991.137 2.403.138 2.403.075-2.584.076-2.583-4.134-2.378c-2.274-1.308-3.922-2.123-3.663-1.811m8.859 2.75c-1.475.799-.96 1.501.535.728.639-.33 1.058-.769.931-.975-.277-.449-.142-.471-1.466.247m223.982.705c-.588.326-.771.615-.496.785.563.348 2.107-.472 1.807-.958-.276-.446-.17-.46-1.311.173m2.299 3.948c1.384 1.396 2.605 2.539 2.712 2.539.107 0-.937-1.143-2.321-2.539-1.384-1.397-2.605-2.539-2.712-2.539-.107 0 .937 1.142 2.321 2.539m-168.172 4.199-3.507 3.613 3.613-3.507c3.356-3.258 3.791-3.719 3.507-3.719-.058 0-1.684 1.626-3.613 3.613m179.11 7.056c0 .067.571.638 1.269 1.269l1.27 1.148-1.147-1.27c-1.07-1.183-1.392-1.449-1.392-1.147m-194.344 8.569-3.508 3.613 3.613-3.507c3.356-3.258 3.792-3.719 3.508-3.719-.058 0-1.684 1.626-3.613 3.613" fill="#8f8f8f"/><path d="m308.963 49.121-1.346 1.465 1.465-1.346c1.363-1.253 1.644-1.584 1.346-1.584-.065 0-.724.659-1.465 1.465M77.094 55.859c0 2.041.066 2.876.146 1.856a28.367 28.367 0 0 0 0-3.711c-.08-1.021-.146-.186-.146 1.855m247.647.782c0 1.611.069 2.27.153 1.464.084-.805.084-2.124 0-2.929-.084-.806-.153-.147-.153 1.465m-23.072 1.562c0 .967.076 1.362.169.879a5.574 5.574 0 0 0 0-1.758c-.093-.483-.169-.088-.169.879m-232.742 1.27-1.544 1.66 1.66-1.544c.913-.85 1.66-1.597 1.66-1.66 0-.296-.34 0-1.776 1.544m261.737-.098c.839.859 1.614 1.563 1.721 1.563.108 0-.491-.704-1.33-1.563-.839-.859-1.614-1.562-1.721-1.562-.108 0 .491.703 1.33 1.562m-229.492.195c.729.752 1.413 1.368 1.52 1.368.108 0-.401-.616-1.129-1.368-.729-.752-1.414-1.367-1.521-1.367-.107 0 .401.615 1.13 1.367m234.534 13.086c0 3.545.059 4.995.131 3.223a94.863 94.863 0 0 0 0-6.445c-.072-1.773-.131-.323-.131 3.222M59.161 69.238l-1.544 1.66 1.66-1.544c.913-.849 1.661-1.596 1.661-1.66 0-.295-.341 0-1.777 1.544m281.269-.097c.839.859 1.613 1.562 1.721 1.562.107 0-.492-.703-1.331-1.562-.839-.86-1.613-1.563-1.721-1.563-.107 0 .492.703 1.331 1.563m-224.414 5.664c.728.752 1.413 1.367 1.52 1.367.107 0-.401-.615-1.13-1.367-.729-.752-1.413-1.367-1.52-1.367-.108 0 .401.615 1.13 1.367m-29.908 3.808-1.147 1.27 1.269-1.147c1.184-1.07 1.45-1.392 1.148-1.392-.067 0-.639.571-1.27 1.269m192.777 1.367-1.346 1.465 1.465-1.346c1.363-1.253 1.644-1.583 1.346-1.583-.065 0-.724.659-1.465 1.464M97.07 86.719c.839.859 1.614 1.562 1.721 1.562.108 0-.491-.703-1.33-1.562-.839-.86-1.614-1.563-1.721-1.563-.108 0 .491.703 1.33 1.563m-43.005 5.469c0 3.544.059 4.995.132 3.222a96.18 96.18 0 0 0 0-6.445c-.073-1.773-.132-.322-.132 3.223m22.941-5.372c-.064 1.304.361 1.366 1.351.196l.745-.879-.848.716c-.83.701-.851.697-1.021-.196-.156-.821-.179-.804-.227.163m224.715 5.176c0 3.438.06 4.792.132 3.009.073-1.783.073-4.595 0-6.25-.074-1.655-.133-.196-.132 3.241M131.25 90.43c.729.752 1.413 1.367 1.52 1.367.108 0-.401-.615-1.129-1.367-.729-.752-1.413-1.367-1.521-1.367-.107 0 .401.615 1.13 1.367m-28.32 1.758c.839.859 1.613 1.562 1.721 1.562.107 0-.492-.703-1.331-1.562-.839-.86-1.613-1.563-1.721-1.563-.107 0 .492.703 1.331 1.563m160.919 3.222-1.544 1.66 1.66-1.544c.913-.849 1.66-1.596 1.66-1.66 0-.296-.34 0-1.776 1.544m-155.06 2.246c.839.86 1.614 1.563 1.721 1.563.108 0-.491-.703-1.33-1.563-.839-.859-1.614-1.562-1.721-1.562-.108 0 .491.703 1.33 1.562m37.305 8.008c.729.752 1.413 1.367 1.52 1.367.108 0-.401-.615-1.13-1.367-.728-.752-1.413-1.367-1.52-1.367-.107 0 .401.615 1.13 1.367m122.034 6.055c0 3.545.059 4.995.131 3.222a94.863 94.863 0 0 0 0-6.445c-.072-1.772-.131-.322-.131 3.223m-67.584 1.172c0 2.9.061 4.087.136 2.636.075-1.45.075-3.823 0-5.273-.075-1.45-.136-.264-.136 2.637m48.263-2.051-1.346 1.465 1.465-1.346c1.363-1.253 1.644-1.584 1.346-1.584-.065 0-.725.659-1.465 1.465m-71.319 3.613c0 2.256.065 3.179.144 2.051a35.528 35.528 0 0 0 0-4.102c-.079-1.128-.144-.205-.144 2.051m67.54 1.953c0 .967.076 1.363.17.879a5.574 5.574 0 0 0 0-1.758c-.094-.483-.17-.088-.17.879m-124.13 1.172c.84.86 1.614 1.563 1.721 1.563.108 0-.491-.703-1.33-1.563-.839-.859-1.614-1.562-1.721-1.562-.107 0 .491.703 1.33 1.562m5.274 4.81c0 .067.571.638 1.269 1.269l1.27 1.148-1.147-1.27c-1.07-1.183-1.392-1.449-1.392-1.147M369.3 131.25c0 3.545.059 4.995.131 3.223a94.892 94.892 0 0 0 0-6.446c-.072-1.772-.131-.322-.131 3.223m-236.683-2.734c.839.859 1.614 1.562 1.721 1.562.108 0-.491-.703-1.33-1.562-.839-.86-1.614-1.563-1.721-1.563-.108 0 .491.703 1.33 1.563m5.86 5.468c.839.86 1.613 1.563 1.721 1.563.107 0-.492-.703-1.331-1.563-.839-.859-1.613-1.562-1.721-1.562-.107 0 .491.703 1.331 1.562m6.054 5.664c.729.752 1.413 1.368 1.521 1.368.107 0-.401-.616-1.13-1.368-.729-.752-1.413-1.367-1.521-1.367-.107 0 .401.615 1.13 1.367m5.453 4.981c.957 1.02 1.792 1.855 1.855 1.855.293 0-.017-.35-1.741-1.969l-1.856-1.742 1.742 1.856m27.504 3.809c0 2.255.065 3.178.144 2.05a35.511 35.511 0 0 0 0-4.101c-.079-1.128-.144-.205-.144 2.051m23.051-2.54.047 1.563 1.758.032 1.758.032-1.638-.15c-1.565-.144-1.646-.215-1.805-1.595l-.166-1.444.046 1.562m44.536 3.711c0 2.901.061 4.087.137 2.637.075-1.45.075-3.823 0-5.273-.076-1.451-.137-.264-.137 2.636m-48.102-2.064c.59.09 1.557.09 2.148 0 .591-.089.108-.162-1.074-.162-1.182 0-1.665.073-1.074.162m-35.45 7.924c.84.859 1.614 1.562 1.721 1.562.108 0-.491-.703-1.33-1.562-.839-.86-1.614-1.563-1.721-1.563-.107 0 .491.703 1.33 1.563m217.774 2.438c0 .188-.22.216-.488.061-.269-.154-.352-.13-.184.054.422.464 1.453.577 1.453.159 0-.189.246-.25.547-.134.3.115.642.054.76-.137.118-.19-.304-.346-.937-.346s-1.151.154-1.151.343M37.5 160.114c0 .273-.21.358-.488.198-.269-.155-.352-.131-.186.052.167.183.694.388 1.172.454.478.067.693-.013.479-.177a5.057 5.057 0 0 1-.684-.652c-.163-.197-.293-.141-.293.125m-2.734 1.662c0 .209-.22.253-.489.098-.268-.154-.351-.13-.184.054.44.483 1.454.569 1.454.124 0-.209.22-.253.488-.098.269.154.352.13.184-.054-.439-.483-1.453-.569-1.453-.124m334.534 8.927c0 3.545.059 4.995.131 3.223a94.892 94.892 0 0 0 0-6.446c-.072-1.772-.131-.322-.131 3.223M8.294 185.938c0 .751.08 1.059.178.683a3.183 3.183 0 0 0 0-1.367c-.098-.376-.178-.068-.178.684m383.203 0c0 .751.08 1.059.179.683a3.215 3.215 0 0 0 0-1.367c-.099-.376-.179-.068-.179.684M7.93 193.359c0 1.182.073 1.665.162 1.075.09-.591.09-1.558 0-2.149-.089-.591-.162-.107-.162 1.074m383.984 0c0 1.182.073 1.665.163 1.075a8.682 8.682 0 0 0 0-2.149c-.09-.591-.163-.107-.163 1.074m-22.853 16.64c-.064 3.566.001 6.555.144 6.643.142.088.281-2.83.308-6.483.026-3.654-.038-6.643-.144-6.643-.106 0-.244 2.917-.308 6.483m22.857-4.335c.002 1.289.075 1.769.162 1.067.087-.702.085-1.756-.004-2.343-.089-.587-.16-.013-.158 1.276m-383.984.781c.002 1.289.075 1.77.162 1.068.087-.703.085-1.757-.004-2.344-.09-.587-.161-.013-.158 1.276m.36 7.618c0 .751.08 1.059.178.683a3.183 3.183 0 0 0 0-1.367c-.098-.376-.178-.068-.178.684m383.203 0c0 .751.08 1.059.179.683a3.215 3.215 0 0 0 0-1.367c-.099-.376-.179-.068-.179.684m-237.786 32.125-8.984 9.07 8.384-8.195c4.611-4.508 8.629-8.516 8.929-8.908.521-.682.588-.674 1.576.195l1.032.908-.947-1.074c-.52-.591-.96-1.073-.976-1.071-.016.002-4.073 4.086-9.014 9.075m80.452-5.935c-.774.856-1.145 2.095-.509 1.702.21-.13.281-.338.157-.461-.123-.124.159-.634.629-1.133.469-.499.761-.908.65-.908-.112 0-.529.36-.927.8m135.137 8.575c0 3.545.059 4.995.131 3.223a94.892 94.892 0 0 0 0-6.446c-.072-1.772-.131-.322-.131 3.223m-124.785-3.027c.958 1.02 1.793 1.855 1.855 1.855.294 0-.016-.35-1.741-1.969l-1.856-1.742 1.742 1.856m5.68 5.371c.839.859 1.614 1.562 1.721 1.562.108 0-.491-.703-1.33-1.562-.839-.86-1.614-1.563-1.721-1.563-.108 0 .491.703 1.33 1.563m-51.454 1.849c.919.082 2.325.081 3.125-.003.8-.084.048-.151-1.671-.15-1.718.002-2.373.07-1.454.153m-60.27 8.405-5.463 5.566 5.566-5.463c3.062-3.005 5.567-5.51 5.567-5.567 0-.28-.594.293-5.67 5.464m123.443.683c.839.86 1.614 1.563 1.721 1.563.108 0-.491-.703-1.33-1.563-.839-.859-1.614-1.562-1.721-1.562-.108 0 .491.703 1.33 1.562m-84.645-.879c-.066.162-.023 3.282.097 6.934l.217 6.641.043-6.934c.039-6.372-.019-7.46-.357-6.641m67.813 6.934c-.001 3.652.058 5.199.13 3.437.072-1.762.073-4.75.001-6.64-.072-1.891-.131-.449-.131 3.203m-44.532.195c0 3.545.059 4.995.131 3.223a94.863 94.863 0 0 0 0-6.445c-.072-1.773-.131-.323-.131 3.222m-74.383 5.371-6.05 6.153 6.153-6.05c3.383-3.328 6.152-6.096 6.152-6.152 0-.28-.634.334-6.255 6.049m141.881-2.539.08 3.614.132-3.257c.122-3.003.184-3.217.799-2.741.51.394.492.31-.077-.357-1.04-1.219-1.022-1.27-.934 2.741m5.373 1.563c.958 1.02 1.793 1.855 1.856 1.855.293 0-.017-.35-1.742-1.969l-1.855-1.742 1.741 1.856m5.86 5.469c.957 1.02 1.792 1.855 1.855 1.855.293 0-.017-.351-1.741-1.969l-1.856-1.742 1.742 1.856m-167.956 10.351-8.005 8.106 8.106-8.005c4.458-4.402 8.105-8.049 8.105-8.105 0-.278-.769.473-8.206 8.004m-57.259-.879c0 3.653.058 5.199.131 3.437.072-1.761.072-4.75 0-6.64-.071-1.891-.13-.449-.131 3.203m315.225-1.757c0 2.685.063 3.784.139 2.441.076-1.343.076-3.54 0-4.883s-.139-.244-.139 2.442m-84.151-2.247c.958 1.021 1.793 1.856 1.855 1.856.294 0-.016-.351-1.741-1.97l-1.856-1.741 1.742 1.855m-131.255 2.93-1.346 1.465 1.465-1.346c1.363-1.253 1.644-1.584 1.346-1.584-.065 0-.724.659-1.465 1.465m129.879 2.149-1.147 1.269 1.27-1.147c1.183-1.07 1.449-1.392 1.147-1.392-.067 0-.638.571-1.27 1.27m1.978 4.199c.839.859 1.614 1.562 1.721 1.562.108 0-.491-.703-1.33-1.562-.839-.86-1.614-1.563-1.721-1.563-.108 0 .491.703 1.33 1.563m-30.664 2.592c0 .209.659.985 1.465 1.726l1.465 1.346-1.367-1.558c-.752-.857-1.412-1.634-1.465-1.726-.054-.092-.098.004-.098.212m-159.574 8.834-7.418 7.519 7.519-7.418c4.136-4.08 7.52-7.464 7.52-7.519 0-.278-.729.431-7.621 7.418m195.978-5.965c.71.856 1.43 1.559 1.6 1.563.17.004-.342-.696-1.137-1.555-1.86-2.011-2.13-2.015-.463-.008m-152.633 3.621-1.544 1.66 1.66-1.544c1.544-1.436 1.84-1.776 1.544-1.776-.064 0-.811.747-1.66 1.66m129.266 2.832c.001 2.363.065 3.28.143 2.036.078-1.243.077-3.176-.002-4.297-.078-1.12-.142-.102-.141 2.261m67.592 2.344c-.001 3.652.058 5.199.13 3.437.072-1.762.073-4.75.001-6.641-.072-1.89-.131-.449-.131 3.204m-38.458-3.614c.958 1.021 1.793 1.856 1.856 1.856.293 0-.017-.351-1.742-1.97l-1.855-1.741 1.741 1.855m5.681 5.371c.839.86 1.613 1.563 1.721 1.563.107 0-.492-.703-1.331-1.563-.839-.859-1.613-1.562-1.721-1.562-.107 0 .492.703 1.331 1.562m21.069 1.661-1.147 1.269 1.269-1.147c.698-.631 1.27-1.203 1.27-1.27 0-.302-.323-.036-1.392 1.148m-52.905 1.66c.729.752 1.413 1.367 1.52 1.367.108 0-.401-.615-1.13-1.367-.728-.752-1.413-1.367-1.52-1.367-.107 0 .401.615 1.13 1.367m-184.961 1.367c-.618.644-.958 1.185-.757 1.202.201.016.674.088 1.05.16.376.072.683-.039.683-.248 0-.208.176-.27.391-.138.215.133.391.037.391-.214 0-.25-.247-.36-.548-.245-.873.335-1.074-.195-.369-.974 1.074-1.187.365-.802-.841.457m222.262.392c1.853 2.164 1.878 2.188 1.454 1.366-.221-.43-.902-1.22-1.512-1.757l-1.11-.975 1.168 1.366m25.899.742c.153.398.274.434.381.113.087-.259.318-.371.515-.25.196.121.357.046.357-.169 0-.214-.332-.364-.738-.333-.485.036-.662.256-.515.639m-15.186 1.054c-.439.528-.95 2.05-.557 1.656.074-.073.105-.247.069-.385-.036-.139.27-.622.679-1.074.409-.453.65-.823.536-.823-.114 0-.442.282-.727.626m-213.639.604c0 .208-.22.253-.489.098-.268-.155-.351-.131-.184.053.44.483 1.454.57 1.454.124 0-.208.22-.252.488-.098.269.155.352.131.184-.053-.439-.483-1.453-.57-1.453-.124m18.338 1.016-1.346 1.465 1.465-1.346c1.363-1.253 1.644-1.583 1.346-1.583-.065 0-.725.659-1.465 1.464m205.49-.204c0 .191-.22.222-.488.067-.269-.154-.352-.13-.184.054.484.532 1.382.539 1.584.012.102-.265-.062-.482-.363-.482-.302 0-.549.157-.549.349M56.9 318.528c-.102.265.062.482.364.482s.549-.156.549-.348c0-.192.219-.222.488-.068.268.155.351.131.184-.053-.484-.532-1.383-.539-1.585-.013m223.959.67c0 .209-.219.253-.488.098-.268-.154-.351-.13-.184.054.44.483 1.454.569 1.454.124 0-.209.219-.253.488-.098.268.154.351.13.184-.054-.44-.483-1.454-.569-1.454-.124m21.875.356c0 .228-.175.305-.39.173-.215-.133-.391-.067-.391.148 0 .214.332.364.738.333.432-.032.658-.266.545-.561-.235-.612-.502-.661-.502-.093m-248.437.379c0 .184.176.442.391.575.214.133.39.045.39-.195 0-.241.22-.311.488-.156.269.154.352.13.184-.054-.417-.458-1.453-.579-1.453-.17m22.675 6.761c-.026 3.76.091 6.921.26 7.026.319.197.288-13.362-.032-13.681-.099-.1-.202 2.895-.228 6.655m247.656-.082c-.027 3.714.037 6.665.144 6.559.257-.258.356-12.86.103-13.114-.109-.109-.22 2.841-.247 6.555m-270.776-4.244c.134 1.919.105 1.99-.586 1.453-.628-.488-.62-.44.054.352l.782.917.12-2.054c.066-1.13-.022-2.196-.196-2.37-.173-.174-.252.592-.174 1.702m247.709 4.701.195 6.72.108-6.416c.06-3.528-.027-6.552-.194-6.719-.166-.168-.215 2.719-.109 6.415m-15.428.665c.839.86 1.613 1.563 1.721 1.563.107 0-.491-.703-1.331-1.563-.839-.859-1.613-1.562-1.721-1.562-.107 0 .492.703 1.331 1.562M59.18 330.859c.839.86 1.613 1.563 1.721 1.563.107 0-.492-.703-1.331-1.563-.839-.859-1.613-1.562-1.721-1.562-.107 0 .492.703 1.331 1.562m281.231.098-1.544 1.66 1.66-1.544c.913-.849 1.661-1.596 1.661-1.66 0-.296-.341 0-1.777 1.544m-231.64 1.953-1.544 1.66 1.66-1.544c1.544-1.436 1.839-1.776 1.544-1.776-.064 0-.811.747-1.66 1.66m-41.063 5.941c0 .314.718 1.237 1.595 2.051l1.595 1.481-1.448-1.563c-.797-.859-1.442-1.709-1.433-1.888.009-.179-.056-.398-.146-.488-.089-.09-.163.094-.163.407m263.151 1.579c-.948.966-1.637 1.758-1.529 1.758.107 0 .971-.792 1.92-1.758.949-.967 1.637-1.758 1.53-1.758-.108 0-.972.791-1.921 1.758m-29.687 2.734c.729.752 1.413 1.367 1.52 1.367.108 0-.401-.615-1.129-1.367-.729-.752-1.414-1.367-1.521-1.367-.107 0 .401.615 1.13 1.367M93.729 348.34l-1.346 1.465 1.465-1.346c1.363-1.253 1.644-1.584 1.346-1.584-.065 0-.725.659-1.465 1.465" fill="#86691e"/></g></svg>