<svg xmlns="http://www.w3.org/2000/svg" viewBox="0 0 80 80"><path fill="#303847" d="M0 0h80v80H0z"/><path fill="#FFF" d="M41.7 38.6l-3.5-.6 1.6-7.4-6.2 9.3 3.6.6-1.7 7.8z"/><path d="M52.2 59.8c-.3-3.4-.5-6.8-.6-10.2-.9.1-1.7.2-2.6.2-2.9 3-6.9 4.8-11.1 4.8-5.7 0-10.9-3.2-13.5-8.2-.3-.1-.7-.2-1-.4l.5 1.1-2-.3c-.6-.1-1.2-.1-1.8-.2 1.5 3 4 5.7 7.1 7.8 1.9 2.1 3.1 4.9 3.1 8 0 1.9-.5 3.8-1.3 5.4-.2.3-.1 1 .4 1.2 1.5.6 3.1 1 4.7 1 .8 0 1.5-.1 2.2-.2-.2-.8-.3-1.6-.3-2.4 0-3.1 1.2-5.9 3.1-8 1.6.3 4.3.6 3.9.6 0 1.7.4 3.3 1.1 4.7l1-1c-.3-1-.5-2-.5-3v-.5h-.1 1.9c2.1 0 4-.2 5.8-.4zM37.9 24.2c4.2 0 8.2 1.7 11.1 4.8.9 0 1.7.1 2.6.2.1-3.4.3-6.7.6-10.1V19c-1.8-.3-3.6-.4-5.5-.4-13.5 0-24.7 6.8-27.7 15.9 1.8-.8 3.6-1.5 5.4-2.2 2.6-4.9 7.8-8.1 13.5-8.1z" fill="#FFF"/><circle fill="#FFF" cx="71" cy="39.6" r="4"/><path fill="#FFF" d="M32.4 18.4c1.4 0 2.9.1 4.3.3 1.2-.3 2.4-.6 3.6-.8-4.1-1.5-8.6-2.3-13.2-2.3-4 0-7.8.6-11.4 1.7l1.8 4.7c4.4-2.3 9.5-3.6 14.9-3.6zm20.2 21c0 6.8.3 13.5.8 20.2 1.2-.2 2.4-.5 3.5-.8.5-6.4.7-12.9.7-19.4 0-6.5-.2-13-.7-19.4-1.1-.3-2.3-.6-3.5-.8-.6 6.7-.8 13.4-.8 20.2z"/><path fill="#FFF" d="M33.7 19.6h-1.3c-6.2 0-12.2 1.8-17.3 5.1l4.8 5.3c2.8-4.5 7.8-8.2 13.8-10.4zm32.5 21.6c-.2-.5-.3-1.1-.3-1.7 0-.6.1-1.2.3-1.7-2.8 0-5.3-.9-7.5-2.3v8c2.1-1.4 4.7-2.3 7.5-2.3zm-14.8-1.8c0-3 .1-6 .2-9.1-1-.1-2.1-.2-3.1-.2-2.6-2.9-6.3-4.8-10.5-4.8-5.6 0-10.4 3.3-12.7 8-4.5 1.5-8.8 3.6-12.8 6.1 1.7 1.1 3.5 2.1 5.3 3-4.6 1.1-8.9 2.9-12.7 5.4 3.8-1.5 8-2.4 12.3-2.4 1.6 0 3.1.1 4.7.3-.5-1.2-.8-2.5-1-3.8.3.8.6 1.6 1 2.4 1.1.4 2.1.8 3.2 1.2 2.3 4.7 7.1 8 12.7 8 4.2 0 8-1.8 10.5-4.8 1-.1 2.1-.1 3.1-.2-.2-3.1-.2-6.1-.2-9.1zM37.9 51.3C31.3 51.3 26 46 26 39.4c0-6.6 5.3-11.9 11.9-11.9s11.9 5.3 11.9 11.9c0 6.6-5.3 11.9-11.9 11.9z"/></svg>