<svg xmlns="http://www.w3.org/2000/svg" xmlns:xlink="http://www.w3.org/1999/xlink" xml:space="preserve" id="Layer_1" x="0" y="0" version="1.1" viewBox="78 0 901 710"><style>.st0{fill:#f4db12}.st2{opacity:.1}.st3{fill:#e5242a}.st7{fill:#001642}</style><path d="M757.2 377.2c27.3-23.2 81.1-38.9 143.1-38.9 8.8 0 17.5.3 25.9.9v-56.4c-8.4.6-17.1.9-25.9.9-62 0-115.8-15.8-143.1-38.9z" class="st0"/><path d="M757.2 377.2c27.3-23.2 81.1-38.9 143.1-38.9 8.8 0 17.5.3 25.9.9v-56.4c-8.4.6-17.1.9-25.9.9-62 0-115.8-15.8-143.1-38.9z" style="fill:none"/><path d="M888 329.4c-40.9 0-59.8 8-62.2 5.8-27.3-25.4-36.5-55.3-39.7-72.8-11.5-5.2-21.2-11.1-28.9-17.6v132.4c26.6-22.5 78.2-38.1 138-38.9 5.2-6.3 7.7-8.9-7.2-8.9" class="st2"/><ellipse cx="923.5" cy="311" class="st3" rx="54.5" ry="55.9"/><path d="M974.8 329.6c-7.9 4.6-17.1 7.3-26.8 7.3-30.1 0-54.5-25-54.5-55.9 0-6.5 1.2-12.8 3.2-18.6C880.2 272 869 290.2 869 311c0 30.9 24.4 55.9 54.5 55.9 23.7-.1 43.8-15.6 51.3-37.3" class="st2"/><path d="M366.7 481.6s96.4 41 12 171.7c-14.2 22.6 57.9 69.2 121.4 53.1 0 0-25.4-32-20.9-56.4 2.7-14.6 58-127.9 58-127.9z" class="st3"/><path d="M762.2 553.8c-308.6 65.5-497.9-114.6-487.4-244.2 10.5-219.5 319.8-295.4 487.4-239z" class="st3"/><path d="M715.9 315.6c0 103.1-83.6 186.7-186.7 186.7s-186.7-83.6-186.7-186.7 83.6-186.7 186.7-186.7 186.7 83.6 186.7 186.7" class="st3"/><path d="M493.2 547.4c-73 54.2 6.8 159.1 6.8 159.1 0-147.9 98.2-139.4 98.2-139.4s-.4 0 0-.7c-37.9-2.6-73-9.2-105-19" class="st0"/><g class="st2"><defs><path id="SVGID_1_" d="M762.2 553.8c-308.6 65.5-497.9-114.6-487.4-244.2 10.5-219.5 319.8-295.4 487.4-239z" class="st2"/></defs><clipPath id="SVGID_00000137090281465859864820000017167218804602728593_"><use xlink:href="#SVGID_1_" style="overflow:visible"/></clipPath></g><path d="M398.8 651.6c40.4-67.8 35.2-109.9 21.3-134.4-10-5.4-19.5-11-28.5-17 21.3 23.1 40.7 69.9-13 153-14.2 22.6 57.9 69.2 121.4 53.1 0 0-1.3-1.6-3.2-4.4-48.9 15.1-114.2-23-98-50.3" class="st2"/><g class="st2"><defs><path id="SVGID_00000009551855101395268180000012538984982498016133_" d="M762.2 553.8c-308.6 65.5-497.9-114.6-487.4-244.2 10.5-219.5 319.8-295.4 487.4-239z"/></defs><clipPath id="SVGID_00000003816071118290808820000004440434696460489092_"><use xlink:href="#SVGID_00000009551855101395268180000012538984982498016133_" style="overflow:visible"/></clipPath></g><circle cx="529.2" cy="315.6" r="144.7" class="st3"/><path d="M383.2 424.3c.6.4 1.2.7 1.8 1.1.4.2.7.4 1.1.6v-39.6l-71.2-43.1-2.9-1.8h-.1c-10.3 3.4-21.9 7.3-33.7 11.5 2.9 12.4 7.3 25 13.3 37.5 9.1 1.9 17.9 4.1 26.4 6.7 26.9 8.1 50.1 18.7 64.5 26.7.3.2.5.3.8.4" class="st2"/><path d="M762.2 553.8V195.6c-48.5-29.9-148-65-212.6-66.6-20.8-.5-38.4 11.1-55.3 43 4-54.4 50.1-102.7 90.8-116.1-111.7 12.6-226 62.5-279.5 151.4 47.8 1.8 70.4 13.6 76.2 20.8 19.7 2.6-36.9 49.4-10.1 50.3-24.2 70.9 52.7 126.6 44.4 184.6 19.6 18.1 55.5 47.1 96 71.9-66.5-18.1-138.3-53.3-205.3-117.5 65.8 99.8 228.3 184.6 455.4 136.4" class="st2"/><path d="M751.2 67.2c3.3.8 6.7 1.7 10 2.7 0 0-244.2-154.3-591.4-4.1l135.8 141.3C387.7 71.1 612 26.4 751.2 67.2" class="st0"/><path d="M394.2 119.6c-24.8 6.1-110 18.9-222.7-54.6-.5.2-1 .4-1.5.7L305.8 207c21.2-35.3 52-64.3 88.4-87.4" class="st2"/><path d="m286.9 187.4 18.8 19.6C387.7 71.1 612 26.4 751.2 67.2c3.3.8 6.7 1.7 10 2.7 0 0-1.1-.7-3.2-1.9-142.8-45.7-375.6-7.5-471.1 119.4" class="st2"/><path d="M529.2 129c-72.9 0-136.1 41.9-166.8 102.8-101.9 16.5-141.6 26.3-141.6 26.3s23.9 26 52.7 49c0 0-114.9-1-193.9 39.2.9-.1 168.8-10.8 279.7 46.8 29.4 64.4 94.4 109.2 169.8 109.2 103.1 0 186.7-83.6 186.7-186.7.1-103.1-83.5-186.6-186.6-186.6m0 331.4c-79.9 0-144.7-64.8-144.7-144.7S449.3 171 529.2 171s144.7 64.8 144.7 144.7-64.8 144.7-144.7 144.7" class="st0"/><radialGradient id="SVGID_00000056423876858101655310000010035436689963819650_" cx="114.647" cy="2049.219" r="2.725" gradientTransform="matrix(0 40.5 40.5 0 -82461.46 -4319.387)" gradientUnits="userSpaceOnUse"><stop offset="0" style="stop-color:#fff"/><stop offset="1" style="stop-color:#fff;stop-opacity:0"/></radialGradient><path d="M642.3 323.8c0 61-49.4 110.4-110.4 110.4s-110.4-49.4-110.4-110.4 49.4-110.4 110.4-110.4 110.4 49.5 110.4 110.4" style="opacity:.64;fill:url(#SVGID_00000056423876858101655310000010035436689963819650_)"/><path d="m598.7 302.8-64.9-7.3 25.8-101.1-110.8 128.5 66.9 7.3-29.5 106.7z" style="fill:#fff"/><path d="M355.2 376.4s-87.3-49.5-275-30.4c-.2.1-.4.2-.7.3.9-.1 168.8-10.8 279.7 46.8.1.1.1.3.2.4z" class="st2"/><path d="M155 1011.4h-39.8c-7.4 0-12.7-2.8-15.9-8.3l-31.5-55c-1.5-2.3-3.1-4-4.9-5.1s-4.4-1.6-7.8-1.6H43.9v70.1H0V822h61.6c13.7 0 25.4 1.4 35 4.2 9.7 2.8 17.6 6.7 23.7 11.8 6.1 5 10.6 11 13.3 17.8 2.8 6.8 4.2 14.3 4.2 22.4 0 6.2-.8 12-2.5 17.4-1.6 5.5-4.1 10.5-7.3 15.1s-7.2 8.8-11.9 12.4-10.2 6.6-16.3 9c2.9 1.5 5.5 3.3 8.1 5.5 2.5 2.2 4.8 4.8 6.8 7.9zM61.6 911c6 0 11.1-.8 15.3-2.3s7.6-3.6 10.3-6.3 4.6-5.8 5.9-9.4c1.2-3.6 1.8-7.5 1.8-11.6q0-12.45-8.1-19.5c-5.4-4.7-13.8-7-25.2-7H43.9V911zM438.1 939.4v72h-43.9v-72L325.5 822h38.7q5.7 0 9 2.7c2.2 1.8 4.1 4.1 5.5 6.8l26.8 55.1c2.3 4.3 4.3 8.4 6.1 12.2q2.7 5.7 4.8 11.1c1.3-3.7 2.8-7.5 4.5-11.2 1.7-3.8 3.7-7.8 5.9-12l26.5-55.1c.6-1.1 1.3-2.3 2.2-3.4s1.9-2.1 3.1-3.1 2.5-1.6 4-2.2 3.2-.8 5-.8h39zM600.6 913.2h67.3v80c-9.7 7.1-20 12.3-31 15.5s-22.4 4.8-34.4 4.8c-15.6 0-29.8-2.4-42.6-7.3s-23.7-11.7-32.8-20.3-16.1-18.8-21.1-30.7c-4.9-11.8-7.4-24.7-7.4-38.5 0-14.1 2.3-27.1 7-38.9q7.05-17.7 20.1-30.6c8.7-8.6 19.2-15.3 31.6-20q18.45-7.2 41.4-7.2c7.9 0 15.3.7 22.2 2s13.3 3.1 19.2 5.3c5.8 2.3 11.2 4.9 16.1 8.1 4.9 3.1 9.2 6.5 13 10.1l-12.7 19.4c-2 3-4.6 4.9-7.7 5.6-3.2.7-6.6-.1-10.2-2.3-3.5-2.1-6.7-3.9-9.8-5.4s-6.2-2.8-9.4-3.7c-3.2-1-6.6-1.6-10.1-2.1-3.6-.4-7.5-.7-12-.7-8.2 0-15.6 1.5-22.2 4.4q-9.9 4.35-16.8 12.3c-4.6 5.3-8.2 11.6-10.7 19s-3.8 15.7-3.8 24.8c0 10.1 1.4 19 4.2 26.8s6.7 14.4 11.8 19.8 11.1 9.5 18.2 12.3 14.9 4.2 23.5 4.2c5.3 0 10.1-.5 14.4-1.6 4.3-1 8.5-2.4 12.5-4.2v-28.7h-18.7c-2.8 0-4.9-.7-6.5-2.2s-2.3-3.3-2.3-5.6v-24.4zM776.5 976.7c5.9 0 11.2-1 15.8-2.9s8.6-4.7 11.8-8.4c3.2-3.6 5.7-8.1 7.3-13.3 1.7-5.2 2.5-11.2 2.5-17.9V822h43.9v112.2c0 11.6-1.9 22.3-5.7 32s-9.2 18.1-16.2 25.1-15.6 12.5-25.6 16.4c-10.1 3.9-21.4 5.8-33.9 5.8-12.7 0-24-1.9-34.1-5.8s-18.6-9.4-25.6-16.4-12.4-15.4-16.1-25.1-5.6-20.4-5.6-32V822h44v112c0 6.7.8 12.6 2.5 17.9 1.7 5.2 4.1 9.7 7.3 13.4s7.1 6.5 11.8 8.4q7.05 3 15.9 3M1057.5 822v189.4h-22.9c-3.4 0-6.2-.5-8.5-1.6s-4.6-3-6.8-5.7l-89.3-113c.3 3.4.6 6.7.7 9.8.1 3.2.2 6.1.2 8.9v101.5h-38.7V822h23.1q2.85 0 4.8.3c1.3.2 2.5.5 3.5 1s2 1.1 3 2 2 2 3.2 3.5l90.1 113.8c-.4-3.6-.7-7.2-.9-10.6s-.3-6.7-.3-9.7V822zM322.6 932.7h-41.5l2.1 6.3h-.1l15.8 46.7 5.5 16.2c1.2 2.8 3 5.1 5.3 6.8 2.3 1.8 5.4 2.7 9.2 2.7H353zM243 902.7l14.2-43 14.1 43H311L279.8 822h-45l-31.3 80.7zM191.9 932.7l-30.5 78.7h34.3c3.6 0 6.7-1 9.2-2.9 2.5-2 4.2-4.1 5.1-6.6l6.4-18.8 16.6-50.4z" class="st7"/></svg>