<svg xmlns="http://www.w3.org/2000/svg" width="256" height="256"><path d="M.246 209.778c0-4.666 8.314-48.893 9.396-49.98.431-.435 11.476 1.891 24.543 5.169l23.76 5.959-1.664 13.844c-.915 7.614-1.674 17.205-1.687 21.313l-.024 7.47H27.408c-21.373 0-27.162-.805-27.162-3.775zm198.282-17.619v-21.394l22.272-5.593c12.25-3.076 23.11-5.076 24.132-4.444 1.023.632 3.307 9.415 5.076 19.517 1.769 10.103 3.84 21.73 4.604 25.838l1.388 7.47h-57.472v-21.394zM36.236 150.584c-10.831-4.626-19.693-9.993-19.693-11.927 0-1.934 3.176-10.839 7.058-19.789l7.057-16.272 19.425 8.81c10.685 4.846 19.354 9.95 19.266 11.34-.363 5.743-10.36 36.474-11.829 36.366-.876-.064-10.453-3.902-21.284-8.528zm155.705-5.999c-2.404-8.268-5.065-16.844-5.915-19.057-2.156-5.618 35.269-24.692 38.946-19.85 3.116 4.102 14.3 30.6 14.3 33.88 0 1.963-13.529 8.354-39.815 18.81-1.895.753-4.884-4.727-7.516-13.783zM57.965 99.305c-7.843-6.02-14.26-12.19-14.26-13.714 0-3.123 26.422-29.578 29.541-29.578 1.11 0 7.774 6.668 14.81 14.817l12.791 14.817-12.345 12.345c-6.79 6.79-13.23 12.325-14.311 12.3-1.081-.024-8.383-4.968-16.226-10.988zm108.437-1.35l-11.755-12.107 8.06-10.164c4.434-5.59 10.486-12.353 13.451-15.03 5.214-4.706 5.688-4.617 14.513 2.717 10.23 8.5 21.222 20.277 21.352 22.873.112 2.225-28.894 24.136-31.712 23.955-1.185-.076-7.444-5.586-13.909-12.244zm-64.313-31.107c-6.206-12.984-7.114-17.015-4.438-19.692 4.39-4.39 55.86-4.651 60.207-.305 2.27 2.27.89 7.357-5.336 19.692l-8.396 16.632h-34.233l-7.804-16.327z" fill="#db867c"/><path d="M1.676 203.367c4.137-25.135 7.945-39.347 10.843-40.459 5.576-2.14 43.426 8.335 43.138 11.939-.15 1.867-.455 11.34-.68 21.05l-.407 17.656H0l1.676-10.186zm199.545 2.716c-.013-4.108-.76-13.603-1.662-21.1l-1.638-13.63 23.264-5.666 23.264-5.665 4.201 18.474c2.311 10.16 4.202 22.205 4.202 26.765v8.292h-51.608l-.023-7.47zM36.236 149.446c-10.831-4.986-19.693-9.633-19.693-10.327 0-4.123 14.714-34.214 16.73-34.214 3.592 0 34.878 16.106 34.878 17.955 0 3.628-8.89 32.43-10.486 33.973-.955.924-10.598-2.4-21.43-7.387zm155.098-9.132l-5.425-18.42 17.226-8.495c9.474-4.672 18.305-8.494 19.625-8.494 1.32 0 3.622 3.361 5.116 7.47 1.495 4.108 4.69 12.06 7.1 17.67l4.38 10.2-15.66 7.016c-29.27 13.112-26.265 13.757-32.362-6.947zM59.863 99.387c-8.14-6.062-15.14-11.99-15.557-13.173-.919-2.61 25.264-27.484 28.93-27.484 2.76 0 24.793 23.975 24.793 26.978 0 .973-5.258 6.929-11.684 13.235L74.662 110.41l-14.8-11.023zm106.974-1.74l-11.32-11.943 11.03-12.808c6.068-7.045 12.76-13.217 14.874-13.717 2.114-.5 10.074 5.322 17.69 12.938l13.847 13.847-16.042 12.114c-8.824 6.663-16.654 11.979-17.401 11.813-.747-.166-6.452-5.676-12.678-12.244zM102.669 65.46c-4.046-8.25-7.356-15.526-7.356-16.17 0-2.415 20.816-6.828 32.28-6.843 6.548-.008 16.563 1.38 22.253 3.085l10.346 3.1-8.033 15.914-8.033 15.913h-34.1l-7.357-15z" fill="#d64939"/><path d="M2.962 205.903c0-11.004 5.474-39.47 8.117-42.212 1.24-1.287 11.467-.154 22.867 2.534l20.624 4.862v42.466H2.962v-7.65zm197.83-8.648c-.25-8.963-.555-18.375-.68-20.915-.174-3.556 4.644-5.82 20.944-9.84 11.643-2.873 21.865-4.527 22.715-3.677 2.195 2.195 8.872 34.338 8.986 43.26l.095 7.47h-51.608l-.452-16.298zM35.557 148.632c-13.868-6.027-17.457-8.773-16.729-12.798 1.13-6.252 11.541-30.93 13.049-30.93.595 0 9.146 3.657 19.001 8.126 14.024 6.358 17.62 9.163 16.54 12.901-.759 2.628-2.991 10.584-4.961 17.68-1.97 7.096-4.856 12.855-6.413 12.798-1.558-.057-10.777-3.556-20.487-7.777zm155.925-9.462l-5.657-17.343 18.526-8.962c10.19-4.93 18.938-8.432 19.44-7.782.504.649 4.174 8.857 8.156 18.24l7.241 17.058-6.07 2.372c-3.338 1.305-11.977 4.935-19.197 8.066-7.22 3.131-13.95 5.693-14.954 5.693-1.005 0-4.373-7.804-7.485-17.342zM58.676 97.799L42.708 85.854l14.07-13.562c7.74-7.46 15.184-13.562 16.543-13.562 1.36 0 7.516 6.023 13.68 13.385L98.206 85.5l-11.78 12.122-11.782 12.122L58.676 97.8zm109.368.053L155.5 86l12.26-13.635c6.742-7.5 13.198-13.635 14.346-13.635 3.306 0 27.287 23.153 27.287 26.346 0 1.583-6.481 7.772-14.403 13.753l-14.402 10.874-12.544-11.851z" fill="#ce2b1a"/><path d="M3.005 204.725c.042-8.832 6.384-39.247 8.657-41.52.663-.663 10.589.83 22.057 3.319l20.851 4.525v42.504H2.962l.043-8.828zm197.787-7.47c-.25-8.963-.555-18.358-.68-20.877-.17-3.452 4.459-5.779 18.788-9.445 10.457-2.675 20.396-4.892 22.086-4.926 3.397-.069 7.834 15.392 10.7 37.286l1.866 14.26h-52.308l-.452-16.298zM35.557 148.297c-10.328-4.576-17.334-9.285-16.88-11.347.809-3.677 11.54-30.083 12.8-31.499.398-.446 8.837 3.19 18.755 8.08 13.297 6.558 17.598 9.98 16.38 13.035-.908 2.278-3.056 9.949-4.773 17.045-1.717 7.096-4.36 12.813-5.875 12.705-1.513-.108-10.697-3.717-20.407-8.019zm156.73-8.408c-2.686-9.14-4.322-17.178-3.636-17.864.686-.686 8.764-4.802 17.951-9.147l16.704-7.9 6.624 14.98c3.644 8.239 6.625 16.218 6.625 17.732 0 2.4-32.825 18.829-37.6 18.819-.982-.002-3.982-7.481-6.668-16.62z" fill="#c51d05"/><path d="M3.005 204.725c.042-8.832 6.384-39.247 8.657-41.52.663-.663 10.589.83 22.057 3.319l20.851 4.525v42.504H2.962l.043-8.828zm197.787-7.47c-.25-8.963-.555-18.358-.68-20.877-.17-3.452 4.459-5.779 18.788-9.445 10.457-2.675 20.396-4.892 22.086-4.926 3.397-.069 7.834 15.392 10.7 37.286l1.866 14.26h-52.308l-.452-16.298z" fill="#ad1302"/></svg>