<?xml version="1.0" encoding="UTF-8" standalone="no"?>
<!-- Created with Inkscape (http://www.inkscape.org/) -->

<svg
   xmlns:dc="http://purl.org/dc/elements/1.1/"
   xmlns:cc="http://creativecommons.org/ns#"
   xmlns:rdf="http://www.w3.org/1999/02/22-rdf-syntax-ns#"
   xmlns:svg="http://www.w3.org/2000/svg"
   xmlns="http://www.w3.org/2000/svg"
   xmlns:sodipodi="http://sodipodi.sourceforge.net/DTD/sodipodi-0.dtd"
   xmlns:inkscape="http://www.inkscape.org/namespaces/inkscape"
   id="svg2"
   version="1.1"
   inkscape:version="0.48.5 r10040"
   width="256"
   height="256"
   sodipodi:docname="redmine_logo_v1.png">
  <metadata
     id="metadata8">
    <rdf:RDF>
      <cc:Work
         rdf:about="">
        <dc:format>image/svg+xml</dc:format>
        <dc:type
           rdf:resource="http://purl.org/dc/dcmitype/StillImage" />
        <dc:title></dc:title>
      </cc:Work>
    </rdf:RDF>
  </metadata>
  <defs
     id="defs6" />
  <sodipodi:namedview
     pagecolor="#ffffff"
     bordercolor="#666666"
     borderopacity="1"
     objecttolerance="10"
     gridtolerance="10"
     guidetolerance="10"
     inkscape:pageopacity="0"
     inkscape:pageshadow="2"
     inkscape:window-width="1280"
     inkscape:window-height="683"
     id="namedview4"
     showgrid="false"
     inkscape:zoom="2.0521739"
     inkscape:cx="75.811441"
     inkscape:cy="154.95763"
     inkscape:window-x="0"
     inkscape:window-y="0"
     inkscape:window-maximized="1"
     inkscape:current-layer="svg2" />
  <g
     id="g2987"
     transform="matrix(2.7161937,0,0,2.7161937,-26.915777,-25.472499)">
    <path
       style="fill:#db867c"
       d="m 10,86.610468 c 0,-1.717929 3.06082,-18.000516 3.459069,-18.401144 0.158922,-0.159871 4.225163,0.696556 9.03609,1.903172 l 8.747141,2.193847 -0.612458,5.096828 C 30.29299,80.206427 30.013473,83.7375 30.008692,85.25 L 30,88 20,88 C 12.131111,88 10,87.703875 10,86.610468 z m 73,-6.486775 0,-7.876307 8.199772,-2.059244 c 4.509875,-1.132584 8.507867,-1.868831 8.884428,-1.636104 0.37656,0.232727 1.21748,3.466225 1.86872,7.185551 0.65123,3.719326 1.41399,7.999911 1.69502,9.512411 L 104.15891,88 93.579455,88 83,88 83,80.123693 z M 23.25,64.817439 C 19.2625,63.114277 16,61.138266 16,60.426304 c 0,-0.711962 1.169196,-3.990417 2.598214,-7.285455 l 2.598215,-5.990979 7.151785,3.243783 c 3.933482,1.784081 7.125264,3.66286 7.092848,4.175065 -0.133794,2.114104 -3.81402,13.42798 -4.355013,13.388331 C 30.763722,67.933427 27.2375,66.520602 23.25,64.817439 z m 57.324664,-2.2086 C 79.689729,59.564771 78.709883,56.407541 78.397227,55.592773 77.603545,53.524472 91.381678,46.501898 92.735659,48.284621 93.882595,49.794736 98,59.550476 98,60.757899 c 0,0.722624 -4.980592,3.075595 -14.658182,6.924935 -0.697647,0.277494 -1.797967,-1.740109 -2.767154,-5.073995 z M 31.25,45.938155 C 28.3625,43.722095 26,41.450224 26,40.889554 26,39.739495 35.72731,30 36.87593,30 c 0.408441,0 2.861877,2.454727 5.45208,5.454949 l 4.709461,5.454949 -4.545051,4.545051 c -2.499779,2.499778 -4.870709,4.537706 -5.268736,4.528728 C 36.825658,49.974699 34.1375,48.154214 31.25,45.938155 z m 39.922317,-0.496942 -4.327683,-4.457238 2.967509,-3.741988 c 1.63213,-2.058093 3.860517,-4.548036 4.951971,-5.533207 1.919712,-1.732775 2.094052,-1.700146 5.343203,1 3.76596,3.129632 7.813118,7.465093 7.861082,8.421075 0.0411,0.81913 -10.637949,8.885811 -11.675492,8.81937 -0.436099,-0.02793 -2.740364,-2.056531 -5.12059,-4.508012 z M 47.494783,33.989085 c -2.284866,-4.780492 -2.619315,-6.264553 -1.633868,-7.25 1.616312,-1.616312 20.565744,-1.712426 22.165743,-0.112427 0.835544,0.835544 0.327969,2.708851 -1.964395,7.25 L 62.97121,40 l -6.301737,0 -6.301736,0 -2.872954,-6.010915 z"
       id="path2997"
       inkscape:connector-curvature="0" />
    <path
       style="fill:#d64939"
       d="M 10.526519,84.25 C 12.049413,74.996344 13.451621,69.763927 14.518254,69.354622 16.571318,68.566787 30.506133,72.423339 30.4,73.75 30.345,74.4375 30.2325,77.925 30.15,81.5 L 30,88 19.954687,88 9.9093739,88 10.526519,84.25 z m 73.464789,1 c -0.0048,-1.5125 -0.280106,-5.008172 -0.611833,-7.768161 l -0.603141,-5.018161 8.564881,-2.085862 8.564881,-2.085861 1.546954,6.801428 C 102.30387,78.834168 103,83.268478 103,84.947405 L 103,88 93.5,88 84,88 83.991308,85.25 z M 23.25,64.398484 C 19.2625,62.562745 16,60.851763 16,60.596302 16,59.078449 21.417043,48 22.159229,48 23.481648,48 35,53.929701 35,54.610488 35,55.946014 31.726883,66.549977 31.139287,67.118095 30.787679,67.458047 27.2375,66.234222 23.25,64.398484 z m 57.101345,-3.362183 -1.99714,-6.781704 6.341832,-3.127299 C 88.184044,49.407284 91.435326,48 91.921109,48 c 0.485782,0 1.333481,1.2375 1.883775,2.75 0.550294,1.5125 1.726414,4.440035 2.613599,6.505634 l 1.613065,3.755634 -5.765774,2.582733 c -10.7764,4.827205 -9.669688,5.064786 -11.914429,-2.5577 z M 31.948526,45.968569 C 28.951836,43.736575 26.374561,41.554241 26.221246,41.118937 25.882835,40.158093 35.522402,31 36.872172,31 37.888131,31 46,39.827052 46,40.932582 c 0,0.358051 -1.935664,2.550712 -4.301474,4.87258 L 37.397051,50.02674 31.948526,45.968569 z M 71.332435,45.327845 67.16487,40.931147 71.226,36.215574 c 2.233622,-2.593566 4.697763,-4.866123 5.47587,-5.050127 0.778106,-0.184004 3.708835,1.959543 6.512729,4.763438 l 5.097991,5.09799 -5.906295,4.459917 C 79.157833,47.939747 76.275,49.896722 76,49.835626 75.725,49.77453 73.624596,47.746029 71.332435,45.327845 z M 47.708318,33.477846 C 46.218743,30.440661 45,27.761813 45,27.52485 c 0,-0.889279 7.663724,-2.513904 11.88398,-2.519273 2.41119,-0.0031 6.098084,0.507981 8.193098,1.135662 l 3.809118,1.14124 -2.957493,5.85876 L 62.97121,39 l -6.277287,0 -6.277287,0 -2.708318,-5.522154 z"
       id="path2995"
       inkscape:connector-curvature="0" />
    <path
       style="fill:#ce2b1a"
       d="m 11,85.183659 c 0,-4.051202 2.01506,-14.531403 2.988081,-15.540828 0.456732,-0.473819 4.221987,-0.05662 8.419088,0.932843 L 30,72.365687 30,80.182844 30,88 20.5,88 11,88 11,85.183659 z M 83.833333,82 c -0.09167,-3.3 -0.204166,-6.765137 -0.25,-7.700303 -0.06417,-1.309223 1.709296,-2.142499 7.710493,-3.622841 4.286604,-1.057396 8.049817,-1.666546 8.362695,-1.353668 0.808269,0.808268 3.266389,12.641968 3.308349,15.926812 L 103,88 93.5,88 84,88 83.833333,82 z M 23,64.098757 C 17.894486,61.879707 16.573186,60.868822 16.841133,59.386805 17.257259,57.085221 21.090214,48 21.645101,48 c 0.219348,0 3.367451,1.346045 6.995786,2.99121 5.163049,2.341038 6.486587,3.373503 6.089125,4.75 -0.279317,0.967335 -1.101167,3.89629 -1.826335,6.50879 -0.725168,2.6125 -1.787655,4.732878 -2.361082,4.711951 C 29.969168,66.941025 26.575,65.652587 23,64.098757 z M 80.405914,60.615034 78.32312,54.230067 85.143683,50.93049 c 3.75131,-1.814767 6.972125,-3.104032 7.157367,-2.865033 0.185242,0.238999 1.536391,3.260803 3.002552,6.71512 l 2.665748,6.280578 -2.234675,0.873304 c -1.229071,0.480317 -4.409482,1.816558 -7.06758,2.969423 C 86.008997,66.056747 83.531456,67 83.161449,67 82.791441,67 81.551451,64.126765 80.405914,60.615034 z M 31.51174,45.38392 25.632937,40.986125 30.813151,35.993063 C 33.662269,33.246878 36.402955,31 36.903564,31 c 0.50061,0 2.766845,2.217559 5.036078,4.927909 l 4.125878,4.927909 -4.337489,4.462948 -4.337489,4.462948 -5.878802,-4.397794 z m 40.265036,0.01933 -4.618151,-4.36337 4.513357,-5.019939 C 74.154328,33.258972 76.531161,31 76.953833,31 78.171173,31 87,39.52438 87,40.699742 c 0,0.582982 -2.386142,2.861522 -5.302537,5.063422 l -5.302537,4.003454 -4.61815,-4.36337 z"
       id="path2993"
       inkscape:connector-curvature="0" />
    <path
       style="fill:#c51d05"
       d="m 11.015621,84.75 c 0.01563,-3.251558 2.350371,-14.449326 3.187168,-15.286122 0.244156,-0.244157 3.898411,0.305732 8.120566,1.221974 L 30,72.351748 30,80.175874 30,88 20.5,88 11,88 11.015621,84.75 z M 83.833333,82 c -0.09167,-3.3 -0.204166,-6.758827 -0.25,-7.686282 -0.0628,-1.270847 1.641198,-2.127487 6.916667,-3.477163 3.85,-0.984983 7.509078,-1.801156 8.131285,-1.813717 1.250859,-0.02525 2.884335,5.666934 3.939255,13.727162 L 103.25766,88 93.628831,88 84,88 83.833333,82 z M 23,63.975369 c -3.802396,-1.684611 -6.381529,-3.418367 -6.214539,-4.177563 0.297768,-1.353756 4.248514,-11.075494 4.712656,-11.596597 0.146372,-0.164334 3.253494,1.174345 6.904715,2.974844 4.895522,2.41409 6.478933,3.674087 6.030539,4.79879 C 34.098946,56.81368 33.308134,59.6375 32.676012,62.25 32.043889,64.8625 31.070691,66.967403 30.513349,66.927563 29.956007,66.887723 26.575,65.559236 23,63.975369 z m 57.702206,-3.095627 c -0.988787,-3.364618 -1.591142,-6.324139 -1.338567,-6.576715 0.252576,-0.252575 3.226552,-1.767965 6.608836,-3.367532 l 6.149608,-2.908305 2.438958,5.514919 C 95.902469,56.575314 97,59.513016 97,60.070337 c 0,0.883641 -12.085049,6.931987 -13.843217,6.928277 -0.361231,-7.62e-4 -1.46579,-2.754255 -2.454577,-6.118872 z"
       id="path2991"
       inkscape:connector-curvature="0" />
    <path
       style="fill:#ad1302"
       d="m 11.015621,84.75 c 0.01563,-3.251558 2.350371,-14.449326 3.187168,-15.286122 0.244156,-0.244157 3.898411,0.305732 8.120566,1.221974 L 30,72.351748 30,80.175874 30,88 20.5,88 11,88 11.015621,84.75 z M 83.833333,82 c -0.09167,-3.3 -0.204166,-6.758827 -0.25,-7.686282 -0.0628,-1.270847 1.641198,-2.127487 6.916667,-3.477163 3.85,-0.984983 7.509078,-1.801156 8.131285,-1.813717 1.250859,-0.02525 2.884335,5.666934 3.939255,13.727162 L 103.25766,88 93.628831,88 84,88 83.833333,82 z"
       id="path2989"
       inkscape:connector-curvature="0" />
  </g>
</svg>
