<svg xmlns="http://www.w3.org/2000/svg" width="160" height="160"><defs><clipPath id="a"><path d="M0 128h128V0H0v128z"/></clipPath><linearGradient x2="1" gradientUnits="userSpaceOnUse" gradientTransform="matrix(-104.01236 104.01237 104.01237 104.01237 116.006 11.994)" id="b"><stop offset="0" stop-color="#d95b29"/><stop offset=".5" stop-color="#fb9e3a"/><stop offset="1" stop-color="#e3702d"/></linearGradient></defs><g clip-path="url(#a)" transform="matrix(1.25 0 0 -1.25 0 160)"><path d="M128 27.295C128 12.224 115.781 0 100.714 0H27.286C12.216 0 0 12.224 0 27.295v73.411C0 115.781 12.216 128 27.286 128h73.428C115.781 128 128 115.781 128 100.706V27.295z" fill="#cc5d15"/><path d="M125.714 28.607c0-14.536-11.781-26.321-26.313-26.321H28.596c-14.529 0-26.31 11.785-26.31 26.321v70.788c0 14.538 11.781 26.319 26.31 26.319h70.805c14.532 0 26.313-11.781 26.313-26.319V28.607z" fill="#f49c52"/><path d="M123.429 29.915c0-13.995-11.349-25.344-25.335-25.344H29.909c-13.994 0-25.338 11.349-25.338 25.344v68.168c0 14 11.344 25.346 25.338 25.346h68.185c13.986 0 25.335-11.346 25.335-25.346V29.915z" fill="url(#b)"/><path d="M45.531 34.375c0-6.312-5.118-11.429-11.428-11.429-6.311 0-11.429 5.117-11.429 11.429 0 6.313 5.118 11.429 11.429 11.429 6.31 0 11.428-5.116 11.428-11.429" fill="#fff"/><path d="M22.688 63.188c10.709 0 20.774-4.187 28.339-11.789 7.577-7.612 11.749-17.745 11.749-28.533h16.5c0 31.331-25.385 56.822-56.588 56.822v-16.5z" fill="#fff"/><path d="M22.712 92.438c38.163 0 69.212-31.218 69.212-69.589h16.5c0 47.469-38.45 86.089-85.712 86.089v-16.5z" fill="#fff"/></g></svg>