<?xml version="1.0" encoding="UTF-8" standalone="no"?>
<!-- Created with Inkscape (http://www.inkscape.org/) -->

<svg
   xmlns:dc="http://purl.org/dc/elements/1.1/"
   xmlns:cc="http://creativecommons.org/ns#"
   xmlns:rdf="http://www.w3.org/1999/02/22-rdf-syntax-ns#"
   xmlns:svg="http://www.w3.org/2000/svg"
   xmlns="http://www.w3.org/2000/svg"
   xmlns:sodipodi="http://sodipodi.sourceforge.net/DTD/sodipodi-0.dtd"
   xmlns:inkscape="http://www.inkscape.org/namespaces/inkscape"
   id="svg2"
   version="1.1"
   inkscape:version="0.48.5 r10040"
   width="160"
   height="160"
   xml:space="preserve"
   sodipodi:docname="RSS_Logo.ai"><metadata
     id="metadata8"><rdf:RDF><cc:Work
         rdf:about=""><dc:format>image/svg+xml</dc:format><dc:type
           rdf:resource="http://purl.org/dc/dcmitype/StillImage" /><dc:title></dc:title></cc:Work></rdf:RDF></metadata><defs
     id="defs6"><clipPath
       clipPathUnits="userSpaceOnUse"
       id="clipPath16"><path
         d="M 0,128 128,128 128,0 0,0 0,128 z"
         id="path18" /></clipPath><linearGradient
       x1="0"
       y1="0"
       x2="1"
       y2="0"
       gradientUnits="userSpaceOnUse"
       gradientTransform="matrix(-104.01236,104.01237,104.01237,104.01237,116.00586,11.994141)"
       spreadMethod="pad"
       id="linearGradient36"><stop
         style="stop-opacity:1;stop-color:#d95b29"
         offset="0"
         id="stop38" /><stop
         style="stop-opacity:1;stop-color:#fb9e3a"
         offset="0.5"
         id="stop40" /><stop
         style="stop-opacity:1;stop-color:#e3702d"
         offset="1"
         id="stop42" /></linearGradient></defs><sodipodi:namedview
     pagecolor="#ffffff"
     bordercolor="#666666"
     borderopacity="1"
     objecttolerance="10"
     gridtolerance="10"
     guidetolerance="10"
     inkscape:pageopacity="0"
     inkscape:pageshadow="2"
     inkscape:window-width="640"
     inkscape:window-height="480"
     id="namedview4"
     showgrid="false"
     inkscape:zoom="1.475"
     inkscape:cx="80"
     inkscape:cy="80"
     inkscape:window-x="0"
     inkscape:window-y="0"
     inkscape:window-maximized="0"
     inkscape:current-layer="g10" /><g
     id="g10"
     inkscape:groupmode="layer"
     inkscape:label="RSS_Logo"
     transform="matrix(1.25,0,0,-1.25,0,160)"><g
       id="g12"><g
         id="g14"
         clip-path="url(#clipPath16)"><path
           d="M 128,27.295 C 128,12.224 115.781,0 100.714,0 L 27.286,0 C 12.216,0 0,12.224 0,27.295 l 0,73.411 C 0,115.781 12.216,128 27.286,128 l 73.428,0 C 115.781,128 128,115.781 128,100.706 l 0,-73.411 z"
           style="fill:#cc5d15;fill-opacity:1;fill-rule:nonzero;stroke:none"
           id="path20" /><path
           d="m 125.714,28.607 c 0,-14.536 -11.781,-26.321 -26.313,-26.321 l -70.805,0 c -14.529,0 -26.31,11.785 -26.31,26.321 l 0,70.788 c 0,14.538 11.781,26.319 26.31,26.319 l 70.805,0 c 14.532,0 26.313,-11.781 26.313,-26.319 l 0,-70.788 z"
           style="fill:#f49c52;fill-opacity:1;fill-rule:nonzero;stroke:none"
           id="path22" /><g
           id="g24"><g
             id="g26"><g
               id="g32"><g
                 id="g34"><path
                   d="M 123.429,29.915 C 123.429,15.92 112.08,4.571 98.094,4.571 l -68.185,0 C 15.915,4.571 4.571,15.92 4.571,29.915 l 0,68.168 c 0,14 11.344,25.346 25.338,25.346 l 68.185,0 c 13.986,0 25.335,-11.346 25.335,-25.346 l 0,-68.168 z"
                   style="fill:url(#linearGradient36);stroke:none"
                   id="path44" /></g></g></g></g><path
           d="m 45.531,34.375 c 0,-6.312 -5.118,-11.429 -11.428,-11.429 -6.311,0 -11.429,5.117 -11.429,11.429 0,6.313 5.118,11.429 11.429,11.429 6.31,0 11.428,-5.116 11.428,-11.429"
           style="fill:#ffffff;fill-opacity:1;fill-rule:nonzero;stroke:none"
           id="path46" /><path
           d="m 22.688,63.188 c 10.709,0 20.774,-4.187 28.339,-11.789 7.577,-7.612 11.749,-17.745 11.749,-28.533 l 16.5,0 c 0,31.331 -25.385,56.822 -56.588,56.822 l 0,-16.5 z"
           style="fill:#ffffff;fill-opacity:1;fill-rule:nonzero;stroke:none"
           id="path48" /><path
           d="m 22.712,92.438 c 38.163,0 69.212,-31.218 69.212,-69.589 l 16.5,0 c 0,47.469 -38.45,86.089 -85.712,86.089 l 0,-16.5 z"
           style="fill:#ffffff;fill-opacity:1;fill-rule:nonzero;stroke:none"
           id="path50" /></g></g></g></svg>