<svg xmlns="http://www.w3.org/2000/svg" height="800" width="1066.667"><path d="M533.21 271.807c69.167 0 126.827 50.012 138.515 115.822l.171.922c.473 2.336 2.523 4.114 4.993 4.114l29.859.004c2.776-.054 4.988-2.381 4.988-5.169l-.012-.021.001-.01a178.86 178.86 0 0 0-11.572-43.064l15.743-12.849c2.177-1.777 2.761-5.195 1.297-7.593l-16.822-27.559c-1.464-2.399-4.77-3.441-7.346-2.317l-21.876 9.549a174.939 174.939 0 0 0-28.978-29.541l8.913-21.862c1.061-2.602-.063-5.881-2.496-7.286l-27.961-16.144c-2.434-1.406-5.835-.739-7.559 1.481l-14.235 18.34a172.562 172.562 0 0 0-40.088-10.899l-3.389-24.714c-.383-2.784-2.995-5.091-5.805-5.091h-32.287c-2.81 0-5.423 2.307-5.805 5.09l-3.379 24.618a172.709 172.709 0 0 0-40.124 10.745l-14.296-18.416c-1.724-2.22-5.125-2.885-7.559-1.48l-27.961 16.144c-2.433 1.406-3.557 4.686-2.496 7.288l8.888 21.798a174.92 174.92 0 0 0-29.076 29.425l-22.061-9.433c-2.584-1.106-5.882-.038-7.327 2.372l-16.616 27.682c-1.447 2.411-.837 5.823 1.353 7.583l15.491 12.45a178.89 178.89 0 0 0-11.84 43.678l.001.004-.006.03c0 2.787 2.222 5.117 4.997 5.171h29.19s.435.004.66.004c.075 0 .15-.001.225-.005 2.626-.115 4.72-2.225 4.858-4.845.016-.05.067-.143.075-.188 11.688-65.811 69.481-115.828 138.65-115.828h.103M394.501 435.877c-.456-2.337-2.494-4.054-4.977-4.054-.225 0-.37.009-.672.012l-.005.004H359.668a5.095 5.095 0 0 0-5.004 5.096l.001.017c12.142 87.645 87.338 155.128 178.323 155.128h-.004c90.985 0 166.181-67.483 178.323-155.13l-.002.002.006-.03a5.07 5.07 0 0 0-4.988-5.083H677.12c-.216-.028-.43-.067-.655-.067-2.73 0-4.941 2.147-5.084 4.841-.016.048-.066.074-.074.119-11.688 65.81-69.155 115.759-138.323 115.759h.004c-69.168 0-126.635-49.948-138.323-115.759l-.164-.855" fill="#100f0d"/><path d="M596.953 412.39c0-34.966-28.453-63.315-63.55-63.315-35.1 0-63.55 28.349-63.55 63.316 0 34.97 28.45 63.317 63.55 63.317 35.097 0 63.55-28.347 63.55-63.317" fill="#4468bb"/></svg>