<?xml version="1.0" encoding="UTF-8" standalone="no"?>
<svg width="151px" height="151px" viewBox="0 0 151 151" version="1.1" xmlns="http://www.w3.org/2000/svg" xmlns:xlink="http://www.w3.org/1999/xlink">
    <!-- Generator: Sketch 41.2 (35397) - http://www.bohemiancoding.com/sketch -->
    <title>semaphore-logo-mark</title>
    <desc>Created with Sketch.</desc>
    <defs></defs>
    <g id="Page-1" stroke="none" stroke-width="1" fill="none" fill-rule="evenodd">
        <g id="semaphore-logo-mark" transform="translate(-31.000000, -31.000000)">
            <g id="Artboard">
                <g id="Page-2">
                    <g id="Artboard">
                        <path d="M208.867517,108.738791 C210.083979,109.487775 210.792026,111.21202 210.440111,112.587993 C210.440111,112.587993 209.140956,118.022574 207.677397,121.937041 C206.216658,125.843966 203.637785,130.789087 203.637785,130.789087 C202.998549,132.05424 201.343481,132.889602 199.93221,132.653436 L188.488423,130.738403 C187.081126,130.502903 185.237955,131.227538 184.367501,132.345011 C184.367501,132.345011 182.192199,135.256448 180.058568,137.498799 C177.959265,139.705074 175.243293,141.960861 175.243293,141.960861 C174.16789,142.885186 173.54655,144.759515 173.857447,146.156075 L176.378465,157.480579 C176.688486,158.873206 175.943074,160.578098 174.708821,161.280782 C174.708821,161.280782 169.897041,164.121427 166.064536,165.787847 C162.239414,167.451057 156.890757,169.03114 156.890757,169.03114 C155.536632,169.450162 153.786176,168.840132 152.975908,167.661185 L146.405567,158.10128 C145.597581,156.925653 143.794876,156.101483 142.383052,156.249019 C142.383052,156.249019 138.526559,156.732269 135.217954,156.732269 C131.543427,156.732269 126.998374,156.106453 126.998374,156.106453 C125.588267,155.936057 123.776326,156.736232 122.946068,157.901021 L116.213624,167.346117 C115.385704,168.507625 113.619587,169.093876 112.271514,168.646835 C112.271514,168.646835 106.940795,166.971748 103.137957,165.238695 C99.3424444,163.50898 94.5892632,160.591435 94.5892632,160.591435 C93.3717831,159.865504 92.653965,158.155955 92.9880722,156.764297 L95.6973014,145.479546 C96.0304679,144.091807 95.4285466,142.201117 94.3748518,141.262071 C94.3748518,141.262071 92.0023326,139.234925 90.0575371,137.160173 C88.0555841,135.024444 86.0871364,132.378743 86.0871364,132.378743 C85.2203674,131.254712 83.380122,130.532984 81.9679512,130.768199 L70.5168677,132.675515 C69.1086736,132.910067 67.4441181,132.074698 66.8069923,130.80536 C66.8069923,130.80536 64.2220699,125.851507 62.758511,121.937041 C61.2977714,118.030115 59.9997806,112.606093 59.9997806,112.606093 C59.6522031,111.231894 60.3532715,109.515603 61.5733347,108.767947 L70.3710865,103.376678 C72.192775,102.260346 75.4066231,101.352579 77.5402035,101.349139 L112.91751,101.292097 C115.711036,110.972935 124.637667,118.053079 135.217954,118.053079 C145.798241,118.053079 154.724873,110.972935 157.518398,101.292097 L192.901638,101.292097 C195.039702,101.292097 198.249145,102.201 200.070957,103.322701 L208.867517,108.738791 Z" id="Combined-Shape" fill="#19A974" transform="translate(135.220621, 135.227690) rotate(-45.000000) translate(-135.220621, -135.227690) "></path>
                        <path d="M151.761474,51.6263459 C152.977974,52.3753518 153.686042,54.0996503 153.334117,55.4756659 C153.334117,55.4756659 152.034921,60.9104164 150.571317,64.8250037 C149.110532,68.7320502 146.53158,73.6773236 146.53158,73.6773236 C145.892325,74.9425154 144.237205,75.7779041 142.82589,75.541731 L131.381749,73.6266385 C129.974409,73.3911305 128.131181,74.1157888 127.2607,75.2332959 C127.2607,75.2332959 125.08533,78.1448227 122.951633,80.3872437 C120.852265,82.5935867 118.136209,84.8494439 118.136209,84.8494439 C117.060772,85.7737974 116.439413,87.6481837 116.75032,89.0447877 L119.271416,100.369642 C119.581447,101.762313 118.836011,103.467257 117.60172,104.169963 C117.60172,104.169963 112.789791,107.010695 108.957168,108.677167 C105.131927,110.340429 99.7831044,111.920561 99.7831044,111.920561 C98.4289376,112.339596 96.6784276,111.729546 95.868135,110.550563 L89.2975906,100.990362 C88.4895797,99.8146986 86.6868182,98.9905032 85.2749502,99.1380437 C85.2749502,99.1380437 81.4183377,99.6213093 78.1096309,99.6213093 C74.4349896,99.6213093 69.8897963,98.9954737 69.8897963,98.9954737 C68.4796462,98.8250722 66.6676488,99.6252721 65.8373645,100.790097 L59.1047129,110.235485 C58.2767667,111.39703 56.5105951,111.983299 55.1624806,111.536244 C55.1624806,111.536244 49.8315961,109.861105 46.0286404,108.127998 C42.2330104,106.39823 37.4796821,103.480595 37.4796821,103.480595 C36.2621645,102.754641 35.5443239,101.045039 35.8784418,99.6533374 L38.5877546,88.3682378 C38.9209316,86.9804551 38.3189914,85.0897068 37.2652642,84.1506324 C37.2652642,84.1506324 34.8926713,82.1234232 32.9478157,80.0486072 C30.9458008,77.9128125 28.9772923,75.2670287 28.9772923,75.2670287 C28.1104964,74.1429633 26.2701941,73.4212134 24.8579795,73.6564348 L13.4065414,75.5638104 C11.9983038,75.7983694 10.3336968,74.9629741 9.6965512,73.6935978 C9.6965512,73.6935978 7.11154882,68.739591 5.64794462,64.8250037 C4.18715974,60.9179572 2.88912886,55.4937668 2.88912886,55.4937668 C2.5415405,54.1195252 3.24263061,52.403181 4.46273163,51.6555022 L13.2607557,46.2640661 C15.0825006,45.1476994 18.2964483,44.2399044 20.4300947,44.2364642 L55.8084965,44.1794206 C58.6021088,53.8605588 67.5290162,60.9409218 78.1096309,60.9409218 C88.6902454,60.9409218 97.617153,53.8605588 100.410765,44.1794206 L135.795101,44.1794206 C137.933231,44.1794206 141.142772,45.0883524 142.964642,46.2100876 L151.761474,51.6263459 Z" id="Combined-Shape-Copy" fill="#F85418" transform="translate(78.112298, 78.116064) rotate(135.000000) translate(-78.112298, -78.116064) "></path>
                    </g>
                </g>
            </g>
        </g>
    </g>
</svg>