<svg width="151" height="151" viewBox="0 0 151 151" xmlns="http://www.w3.org/2000/svg"><title>semaphore-logo-mark</title><g fill="none" fill-rule="evenodd"><path d="M137.566 33.421c1.39-.33 3.11.388 3.834 1.61 0 0 2.924 4.761 4.657 8.564 1.73 3.796 3.403 9.116 3.403 9.116.443 1.346-.137 3.107-1.302 3.938l-9.446 6.738c-1.161.829-1.952 2.645-1.778 4.05 0 0 .52 3.597.598 6.691.075 3.045-.25 6.56-.25 6.56-.107 1.414.78 3.18 1.987 3.947l9.79 6.225c1.204.765 1.882 2.498 1.506 3.868 0 0-1.393 5.41-2.925 9.299-1.529 3.88-4.194 8.78-4.194 8.78-.66 1.254-2.33 2.06-3.737 1.8l-11.405-2.114c-1.403-.26-3.26.432-4.154 1.534 0 0-2.386 3.07-4.725 5.409-2.599 2.598-6.255 5.37-6.255 5.37-1.117.876-1.833 2.723-1.596 4.134l1.918 11.439c.236 1.407-.599 3.07-1.868 3.707 0 0-4.954 2.585-8.868 4.049-3.907 1.46-9.331 2.758-9.331 2.758-1.374.348-3.09-.353-3.839-1.574l-6.063-9.895c-.746-1.217-2.509-2.128-3.918-2.047 0 0-3.11.244-5.953.152-2.926-.094-6.189-.573-6.189-.573-1.407-.182-3.219.609-4.051 1.774l-6.749 9.445c-.83 1.162-2.597 1.748-3.945 1.301 0 0-5.33-1.675-9.134-3.408-3.795-1.73-8.548-4.647-8.548-4.647-1.218-.726-1.936-2.435-1.602-3.827l2.409-10.033c.499-2.077 2.13-4.992 3.636-6.503l24.975-25.056c8.82 4.87 20.14 3.565 27.62-3.917 7.482-7.481 8.788-18.8 3.917-27.62l25.02-25.02c1.512-1.512 4.424-3.139 6.505-3.634l10.05-2.39z" fill="#19A974"/><path d="M13.766 117.925c-1.39.33-3.11-.388-3.834-1.61 0 0-2.925-4.762-4.658-8.564-1.73-3.796-3.403-9.117-3.403-9.117-.442-1.346.137-3.107 1.302-3.938l9.447-6.738c1.161-.829 1.952-2.645 1.778-4.05 0 0-.521-3.597-.598-6.692-.076-3.044.25-6.56.25-6.56.107-1.414-.78-3.179-1.987-3.947l-9.79-6.225C1.069 59.72.39 57.986.766 56.616c0 0 1.394-5.41 2.926-9.3 1.528-3.88 4.193-8.78 4.193-8.78.662-1.254 2.33-2.06 3.737-1.8l11.407 2.115c1.402.26 3.26-.432 4.154-1.535 0 0 2.385-3.069 4.725-5.408 2.598-2.599 6.255-5.37 6.255-5.37 1.117-.877 1.833-2.724 1.596-4.135l-1.918-11.44c-.236-1.406.598-3.07 1.868-3.707 0 0 4.954-2.585 8.868-4.048 3.907-1.46 9.331-2.759 9.331-2.759C59.283.101 61 .803 61.747 2.023l6.064 9.896c.746 1.217 2.508 2.128 3.917 2.047 0 0 3.112-.244 5.954-.153 2.926.095 6.189.574 6.189.574 1.407.182 3.219-.61 4.051-1.774l6.749-9.446c.83-1.162 2.598-1.748 3.946-1.301 0 0 5.33 1.675 9.134 3.408 3.795 1.73 8.548 4.648 8.548 4.648 1.218.726 1.936 2.435 1.602 3.826l-2.409 10.034c-.499 2.077-2.13 4.992-3.636 6.503L86.88 55.342c-8.82-4.87-20.14-3.565-27.621 3.917-7.482 7.481-8.787 18.8-3.917 27.621l-25.02 25.02c-1.513 1.513-4.425 3.14-6.506 3.635l-10.05 2.39z" fill="#F85418"/></g></svg>