<?xml version="1.0" encoding="UTF-8" standalone="no"?>
<!-- Generator: Adobe Illustrator 18.1.1, SVG Export Plug-In . SVG Version: 6.00 Build 0)  -->

<svg
   xmlns:dc="http://purl.org/dc/elements/1.1/"
   xmlns:cc="http://creativecommons.org/ns#"
   xmlns:rdf="http://www.w3.org/1999/02/22-rdf-syntax-ns#"
   xmlns:svg="http://www.w3.org/2000/svg"
   xmlns="http://www.w3.org/2000/svg"
   xmlns:sodipodi="http://sodipodi.sourceforge.net/DTD/sodipodi-0.dtd"
   xmlns:inkscape="http://www.inkscape.org/namespaces/inkscape"
   version="1.1"
   id="Layer_1"
   x="0px"
   y="0px"
   viewBox="0 0 600 600"
   enable-background="new 0 0 792 612"
   xml:space="preserve"
   inkscape:version="0.91 r13725"
   sodipodi:docname="sentry.svg"
   width="600"
   height="600"><metadata
     id="metadata9"><rdf:RDF><cc:Work
         rdf:about=""><dc:format>image/svg+xml</dc:format><dc:type
           rdf:resource="http://purl.org/dc/dcmitype/StillImage" /><dc:title></dc:title></cc:Work></rdf:RDF></metadata><defs
     id="defs7" /><sodipodi:namedview
     pagecolor="#ffffff"
     bordercolor="#666666"
     borderopacity="1"
     objecttolerance="10"
     gridtolerance="10"
     guidetolerance="10"
     inkscape:pageopacity="0"
     inkscape:pageshadow="2"
     inkscape:window-width="1920"
     inkscape:window-height="1028"
     id="namedview5"
     showgrid="false"
     inkscape:zoom="0.38562092"
     inkscape:cx="75.737288"
     inkscape:cy="306"
     inkscape:window-x="0"
     inkscape:window-y="24"
     inkscape:window-maximized="0"
     inkscape:current-layer="Layer_1" /><path
     d="m 560.1,510.8 c 8.8,-15.5 8.8,-33.5 0,-48.9 L 344.2,87.9 c -8.8,-15.5 -24.6,-24.3 -42.3,-24.3 -17.7,0 -33.5,9.2 -42.3,24.3 l -69.9,121.1 17.6,10.2 c 51.8,29.9 95.1,72.9 125,125 26.8,46.1 42.3,97.5 45.1,150.4 l -48.9,0 c -3.2,-44 -16.2,-87.3 -38.7,-126.1 -25.4,-44.7 -62.3,-81.7 -106.7,-107.4 l -17.6,-10.2 -65.1,113.4 17.6,10.2 c 43.3,25 73.6,70.8 79.9,120.1 l -112,0 c -4.2,0 -6,-2.5 -7,-3.9 -0.7,-1.4 -2.1,-4.6 0,-8.1 l 31.3,-53.9 C 99.6,419.9 87.7,412.9 74.6,408.3 l -31,53.9 c -8.8,15.5 -8.8,33.5 0,48.9 8.8,15.4 24.6,24.3 42.3,24.3 l 153.9,0 0,-20.4 c 0,-35.6 -9.5,-70.8 -27.1,-101.8 -14.4,-25 -34.2,-46.5 -57.4,-63.4 l 24.6,-42.3 c 30.6,21.1 56.3,48.9 75,81.3 22.2,38.4 33.8,82 33.8,126.1 l 0,20.4 130.3,0 0,-20.3 C 419,448.1 401.4,381.9 367.6,323.8 337.7,271.3 295.4,227 245.4,194.2 l 49.7,-85.9 c 2.1,-3.5 5.3,-3.9 7,-3.9 1.7,0 4.9,0.4 7,3.9 l 215.9,374 c 2.1,3.5 0.7,6.7 0,8.1 -0.7,1.4 -2.8,3.9 -7,3.9 l -50.7,0 c 0.7,13.7 0.7,27.1 0,40.8 l 50.7,0 c 17.5,0.3 33.3,-8.8 42.1,-24.3 z"
     id="path3"
     inkscape:connector-curvature="0" /></svg>