<svg xmlns="http://www.w3.org/2000/svg" viewBox="0 0 256 256"><path d="M252.81 230.12c4.253-7.491 4.253-16.19 0-23.633L148.467 25.735c-4.253-7.49-11.889-11.744-20.443-11.744-8.554 0-16.19 4.447-20.443 11.744L73.799 84.262l8.506 4.93c25.034 14.45 45.96 35.232 60.411 60.411 12.952 22.28 20.444 47.121 21.797 72.687H140.88c-1.547-21.265-7.83-42.191-18.704-60.943-12.275-21.603-30.109-39.485-51.567-51.905l-8.506-4.93-31.462 54.805 8.506 4.93c20.926 12.082 35.57 34.217 38.615 58.043H23.633c-2.03 0-2.9-1.208-3.383-1.884-.338-.677-1.015-2.224 0-3.915l15.127-26.05c-5.123-4.253-10.874-7.636-17.205-9.859L3.19 206.632c-4.253 7.49-4.253 16.19 0 23.633 4.253 7.442 11.889 11.744 20.443 11.744h74.379v-9.86c0-17.205-4.592-34.217-13.098-49.199-6.959-12.082-16.528-22.473-27.74-30.64l11.888-20.444a121.605 121.605 0 0 1 36.247 39.292 121.877 121.877 0 0 1 16.336 60.943v9.86h62.973v-9.811c0-32.333-8.506-64.327-24.842-92.406-14.45-25.373-34.893-46.783-59.058-62.635l24.02-41.515c1.015-1.691 2.561-1.884 3.383-1.884.821 0 2.368.193 3.383 1.884l104.343 180.752c1.015 1.691.338 3.238 0 3.915-.339.676-1.354 1.884-3.383 1.884H207.96c.338 6.621.338 13.098 0 19.719h24.503c8.457.145 16.093-4.253 20.346-11.744z"/></svg>