<?xml version="1.0" encoding="UTF-8" standalone="no"?>
<!-- Generator: Adobe Illustrator 18.1.1, SVG Export Plug-In . SVG Version: 6.00 Build 0)  -->

<svg
   xmlns:dc="http://purl.org/dc/elements/1.1/"
   xmlns:cc="http://creativecommons.org/ns#"
   xmlns:rdf="http://www.w3.org/1999/02/22-rdf-syntax-ns#"
   xmlns:svg="http://www.w3.org/2000/svg"
   xmlns="http://www.w3.org/2000/svg"
   xmlns:sodipodi="http://sodipodi.sourceforge.net/DTD/sodipodi-0.dtd"
   xmlns:inkscape="http://www.inkscape.org/namespaces/inkscape"
   version="1.1"
   id="Layer_1"
   x="0px"
   y="0px"
   viewBox="0 0 256 256"
   enable-background="new 0 0 792 612"
   xml:space="preserve"
   inkscape:version="0.48.5 r10040"
   width="100%"
   height="100%"
   sodipodi:docname="sentry.svg"><metadata
     id="metadata9"><rdf:RDF><cc:Work
         rdf:about=""><dc:format>image/svg+xml</dc:format><dc:type
           rdf:resource="http://purl.org/dc/dcmitype/StillImage" /></cc:Work></rdf:RDF></metadata><defs
     id="defs7" /><sodipodi:namedview
     pagecolor="#ffffff"
     bordercolor="#666666"
     borderopacity="1"
     objecttolerance="10"
     gridtolerance="10"
     guidetolerance="10"
     inkscape:pageopacity="0"
     inkscape:pageshadow="2"
     inkscape:window-width="1280"
     inkscape:window-height="683"
     id="namedview5"
     showgrid="false"
     inkscape:zoom="0.38562092"
     inkscape:cx="70.550847"
     inkscape:cy="306"
     inkscape:window-x="0"
     inkscape:window-y="0"
     inkscape:window-maximized="1"
     inkscape:current-layer="Layer_1" /><path
     d="m 252.81027,230.11969 c 4.25297,-7.49104 4.25297,-16.1903 0,-23.633 L 148.46743,25.735325 c -4.25297,-7.49103 -11.88899,-11.74401 -20.44327,-11.74401 -8.55427,0 -16.19029,4.44629 -20.44327,11.74401 l -33.78214,58.52671 8.50595,4.92958 c 25.03455,14.450445 45.96111,35.232015 60.41155,60.411555 12.95224,22.27978 20.44327,47.12101 21.79649,72.68718 h -23.633 C 139.33321,201.02548 133.05041,180.09892 122.17633,161.34717 109.9007,139.744 92.06721,121.86218 70.60902,109.44157 l -8.50594,-4.92959 -31.46234,54.80537 8.50595,4.92958 c 20.92656,12.08231 35.57032,34.2171 38.61506,58.04342 H 23.633 c -2.02983,0 -2.89975,-1.20823 -3.38305,-1.88484 -0.3383,-0.67661 -1.01491,-2.22315 0,-3.91467 L 35.37701,190.44138 C 30.25411,186.1884 24.50293,182.80536 18.1718,180.58221 L 3.18973,206.63167 c -4.25297,7.49104 -4.25297,16.1903 0,23.633 4.25297,7.44271 11.88899,11.74401 20.44327,11.74401 h 74.3787 v -9.85917 c 0,-17.20521 -4.59127,-34.2171 -13.09722,-49.19916 -6.95941,-12.08232 -16.5286,-22.4731 -27.74099,-30.64074 l 11.889,-20.44327 c 14.78875,10.19747 27.20936,23.633 36.24693,39.29167 10.72909,18.55843 16.33528,39.62998 16.33528,60.94318 v 9.85916 h 62.97301 v -9.81084 c 0,-32.33226 -8.50595,-64.32622 -24.84123,-92.40551 -14.45045,-25.37285 -34.89372,-46.782705 -59.05834,-62.634695 l 24.01964,-41.51482 c 1.01491,-1.69152 2.56145,-1.88484 3.38304,-1.88484 0.8216,0 2.36814,0.19332 3.38305,1.88484 L 235.84671,216.34585 c 1.01491,1.69153 0.3383,3.23806 0,3.91467 -0.33831,0.67661 -1.35322,1.88484 -3.38305,1.88484 h -24.50293 c 0.33831,6.62111 0.33831,13.09723 0,19.71833 h 24.50293 c 8.45762,0.14499 16.09364,-4.25297 20.34661,-11.744 z"
     id="path3"
     inkscape:connector-curvature="0" /></svg>