<?xml version="1.0" encoding="UTF-8" standalone="no"?>
<!-- Created with Inkscape (http://www.inkscape.org/) -->

<svg
   xmlns:dc="http://purl.org/dc/elements/1.1/"
   xmlns:cc="http://creativecommons.org/ns#"
   xmlns:rdf="http://www.w3.org/1999/02/22-rdf-syntax-ns#"
   xmlns:svg="http://www.w3.org/2000/svg"
   xmlns="http://www.w3.org/2000/svg"
   xmlns:sodipodi="http://sodipodi.sourceforge.net/DTD/sodipodi-0.dtd"
   xmlns:inkscape="http://www.inkscape.org/namespaces/inkscape"
   id="svg2"
   version="1.1"
   inkscape:version="0.48.5 r10040"
   width="256"
   height="256"
   xml:space="preserve"
   sodipodi:docname="solano.pdf"><metadata
     id="metadata8"><rdf:RDF><cc:Work
         rdf:about=""><dc:format>image/svg+xml</dc:format><dc:type
           rdf:resource="http://purl.org/dc/dcmitype/StillImage" /><dc:title></dc:title></cc:Work></rdf:RDF></metadata><defs
     id="defs6"><clipPath
       clipPathUnits="userSpaceOnUse"
       id="clipPath18"><path
         d="M 0,0 170,0 170,81 0,81 0,0 z"
         id="path20"
         inkscape:connector-curvature="0" /></clipPath><clipPath
       clipPathUnits="userSpaceOnUse"
       id="clipPath28"><path
         d="m 0.06,80.235 169.826,0 0,-80.235 -169.826,0 0,80.235 z"
         id="path30"
         inkscape:connector-curvature="0" /></clipPath><clipPath
       clipPathUnits="userSpaceOnUse"
       id="clipPath34"><path
         d="M 0,0 170,0 170,81 0,81 0,0 z"
         id="path36"
         inkscape:connector-curvature="0" /></clipPath><clipPath
       clipPathUnits="userSpaceOnUse"
       id="clipPath46"><path
         d="M 0,0 170,0 170,81 0,81 0,0 z"
         id="path48"
         inkscape:connector-curvature="0" /></clipPath><clipPath
       clipPathUnits="userSpaceOnUse"
       id="clipPath58"><path
         d="m 0.06,80.235 169.826,0 0,-80.235 -169.826,0 0,80.235 z"
         id="path60"
         inkscape:connector-curvature="0" /></clipPath><clipPath
       clipPathUnits="userSpaceOnUse"
       id="clipPath64"><path
         d="M 0,0 170,0 170,81 0,81 0,0 z"
         id="path66"
         inkscape:connector-curvature="0" /></clipPath></defs><sodipodi:namedview
     pagecolor="#ffffff"
     bordercolor="#666666"
     borderopacity="1"
     objecttolerance="10"
     gridtolerance="10"
     guidetolerance="10"
     inkscape:pageopacity="0"
     inkscape:pageshadow="2"
     inkscape:window-width="1280"
     inkscape:window-height="683"
     id="namedview4"
     showgrid="false"
     fit-margin-top="0"
     fit-margin-left="0"
     fit-margin-right="0"
     fit-margin-bottom="0"
     inkscape:zoom="1.6094118"
     inkscape:cx="121.28443"
     inkscape:cy="106.3231"
     inkscape:window-x="0"
     inkscape:window-y="0"
     inkscape:window-maximized="1"
     inkscape:current-layer="g10" /><g
     id="g10"
     inkscape:groupmode="layer"
     inkscape:label="solano"
     transform="matrix(1.25,0,0,-1.25,-56.109576,274.86331)"><g
       id="g12" /><g
       id="g54"
       transform="matrix(2.7802034,0,0,2.7802034,-90.964943,-32.296348)"><g
         id="g56"
         clip-path="url(#clipPath58)"><g
           id="g62"
           clip-path="url(#clipPath64)"><path
             d="M 93.291,48.913 C 82.053,54.502 63.788,56.244 66.825,72.25 42.873,69.313 43.354,40.78 65.422,36.603 c -0.278,4.81 -0.465,9.313 -0.006,6.769 0.555,-3.091 1.632,-5.258 3.23,-7.209 0.007,0 0.013,-10e-4 0.019,-0.002 7.541,-9.101 23.544,-12.029 30.52,-3.82 5.514,6.49 1.129,13.081 -5.894,16.572"
             style="fill:#52be37;fill-opacity:1;fill-rule:evenodd;stroke:none"
             id="path68"
             inkscape:connector-curvature="0" /><path
             d="m 106.543,71.039 c 0.484,-5.816 0.847,-11.208 0.236,-8.14 -0.747,3.75 -2.062,6.357 -3.967,8.684 -0.03,0.001 -0.058,0.007 -0.087,0.009 -7.54,9.1 -23.543,12.03 -30.519,3.82 -5.514,-6.491 -1.129,-13.081 5.893,-16.573 11.239,-5.589 29.504,-7.33 26.468,-23.336 23.743,2.91 23.478,30.977 1.976,35.536"
             style="fill:#0f284e;fill-opacity:1;fill-rule:evenodd;stroke:none"
             id="path70"
             inkscape:connector-curvature="0" /></g></g></g></g></svg>