<svg xmlns="http://www.w3.org/2000/svg" width="256" height="256"><defs><clipPath id="a"><path d="M.06 80.235h169.826V0H.06v80.235z"/></clipPath><clipPath id="b"><path d="M0 0h170v81H0V0z"/></clipPath></defs><g clip-path="url(#a)" transform="matrix(3.47525 0 0 -3.47525 -169.816 315.234)"><g clip-path="url(#b)" fill-rule="evenodd"><path d="M93.291 48.913c-11.238 5.589-29.503 7.331-26.466 23.337-23.952-2.937-23.471-31.47-1.403-35.647-.278 4.81-.465 9.313-.006 6.769.555-3.091 1.632-5.258 3.23-7.209l.019-.002c7.541-9.101 23.544-12.029 30.52-3.82 5.514 6.49 1.129 13.081-5.894 16.572" fill="#52be37"/><path d="M106.543 71.039c.484-5.816.847-11.208.236-8.14-.747 3.75-2.062 6.357-3.967 8.684-.03.001-.058.007-.087.009-7.54 9.1-23.543 12.03-30.519 3.82-5.514-6.491-1.129-13.081 5.893-16.573 11.239-5.589 29.504-7.33 26.468-23.336 23.743 2.91 23.478 30.977 1.976 35.536" fill="#0f284e"/></g></g></svg>