<svg version="1.1" id="Calque_1" xmlns="http://www.w3.org/2000/svg" x="0" y="0" viewBox="0 0 78.6 78.6" xml:space="preserve"><style>.st1{fill:#fff}</style><path d="M70.7 271.7h66.6c3.3 0 6 2.7 6 6v66.6c0 3.3-2.7 6-6 6H70.7c-3.3 0-6-2.7-6-6v-66.6c0-3.3 2.7-6 6-6z" fill="#4c9bd6" transform="translate(-64.676 -271.676)"/><path class="st1" d="M125.6 336.2h-2.9c0-23.3-19.2-42.2-42.8-42.2v-3c25.2 0 45.7 20.3 45.7 45.2z" transform="translate(-64.676 -271.676)"/><path class="st1" d="M127.6 320.7c-3.5-14.6-15.3-26.8-30.1-31.1l.6-2.3c15.7 4.5 28.2 17.4 31.8 32.8l-2.3.6zm2.2-13.8c-3.7-7.9-9.7-14.6-17.2-19.2l1-1.7c7.8 4.8 14 11.7 17.9 20l-1.7.9z" transform="translate(-64.676 -271.676)"/></svg>