<svg height="216.9" width="216.7" xmlns="http://www.w3.org/2000/svg"><path clip-rule="evenodd" d="M216.7 108.45c0 29.833-10.533 55.4-31.6 76.7-.7.833-1.483 1.6-2.35 2.3a92.767 92.767 0 0 1-11 9.25c-18.267 13.467-39.367 20.2-63.3 20.2-23.967 0-45.033-6.733-63.2-20.2-4.8-3.4-9.3-7.25-13.5-11.55-16.367-16.266-26.417-35.167-30.15-56.7-.733-4.2-1.217-8.467-1.45-12.8-.1-2.4-.15-4.8-.15-7.2 0-2.533.05-4.95.15-7.25 0-.233.066-.467.2-.7 1.567-26.6 12.033-49.583 31.4-68.95C53.05 10.517 78.617 0 108.45 0c29.933 0 55.484 10.517 76.65 31.55 21.067 21.433 31.6 47.067 31.6 76.9z" fill="#EEE" fill-rule="evenodd"/><path clip-rule="evenodd" d="m194.65 42.5-22.4 22.4C159.152 77.998 158 89.4 158 109.5c0 17.934 2.852 34.352 16.2 47.7 9.746 9.746 19 18.95 19 18.95-2.5 3.067-5.2 6.067-8.1 9-.7.833-1.483 1.6-2.35 2.3a90.601 90.601 0 0 1-7.9 6.95l-17.55-17.55c-15.598-15.6-27.996-17.1-48.6-17.1-19.77 0-33.223 1.822-47.7 16.3-8.647 8.647-18.55 18.6-18.55 18.6a95.782 95.782 0 0 1-10.7-9.5c-2.8-2.8-5.417-5.667-7.85-8.6 0 0 9.798-9.848 19.15-19.2 13.852-13.853 16.1-29.916 16.1-47.85 0-17.5-2.874-33.823-15.6-46.55-8.835-8.836-21.05-21-21.05-21 2.833-3.6 5.917-7.067 9.25-10.4a134.482 134.482 0 0 1 9-8.05L61.1 43.85C74.102 56.852 90.767 60.2 108.7 60.2c18.467 0 35.077-3.577 48.6-17.1 8.32-8.32 19.3-19.25 19.3-19.25 2.9 2.367 5.733 4.933 8.5 7.7a121.188 121.188 0 0 1 9.55 10.95z" fill="#3A3F51" fill-rule="evenodd"/><g clip-rule="evenodd"><path d="M78.7 114c-.2-1.167-.332-2.35-.4-3.55a39.613 39.613 0 0 1 0-4c0-.067.018-.133.05-.2.435-7.367 3.334-13.733 8.7-19.1 5.9-5.833 12.984-8.75 21.25-8.75 8.3 0 15.384 2.917 21.25 8.75 5.834 5.934 8.75 13.033 8.75 21.3 0 8.267-2.916 15.35-8.75 21.25-.2.233-.416.45-.65.65a27.364 27.364 0 0 1-3.05 2.55c-5.065 3.733-10.916 5.6-17.55 5.6s-12.466-1.866-17.5-5.6a26.29 26.29 0 0 1-3.75-3.2c-4.532-4.5-7.316-9.734-8.35-15.7z" fill="#0CF" fill-rule="evenodd"/><path d="m157.8 59.75-15 14.65M30.785 32.526 71.65 73.25m84.6 84.25 27.808 28.78m1.855-153.894L157.8 59.75m-125.45 126 27.35-27.4" fill="none" stroke="#0CF" stroke-miterlimit="1" stroke-width="2"/><path d="m157.8 59.75-16.95 17.2M58.97 60.604l17.2 17.15M59.623 158.43l16.75-17.4m61.928-1.396 18.028 17.945" fill="none" stroke="#0CF" stroke-miterlimit="1" stroke-width="7"/></g></svg>