<?xml version="1.0" encoding="UTF-8" standalone="no"?>
<!-- Created with Inkscape (http://www.inkscape.org/) -->

<svg
   xmlns:dc="http://purl.org/dc/elements/1.1/"
   xmlns:cc="http://creativecommons.org/ns#"
   xmlns:rdf="http://www.w3.org/1999/02/22-rdf-syntax-ns#"
   xmlns:svg="http://www.w3.org/2000/svg"
   xmlns="http://www.w3.org/2000/svg"
   xmlns:sodipodi="http://sodipodi.sourceforge.net/DTD/sodipodi-0.dtd"
   xmlns:inkscape="http://www.inkscape.org/namespaces/inkscape"
   id="svg2"
   version="1.1"
   inkscape:version="0.48.5 r10040"
   width="400"
   height="400"
   sodipodi:docname="splunk.png">
  <metadata
     id="metadata8">
    <rdf:RDF>
      <cc:Work
         rdf:about="">
        <dc:format>image/svg+xml</dc:format>
        <dc:type
           rdf:resource="http://purl.org/dc/dcmitype/StillImage" />
        <dc:title></dc:title>
      </cc:Work>
    </rdf:RDF>
  </metadata>
  <defs
     id="defs6" />
  <sodipodi:namedview
     pagecolor="#ffffff"
     bordercolor="#666666"
     borderopacity="1"
     objecttolerance="10"
     gridtolerance="10"
     guidetolerance="10"
     inkscape:pageopacity="0"
     inkscape:pageshadow="2"
     inkscape:window-width="640"
     inkscape:window-height="480"
     id="namedview4"
     showgrid="false"
     inkscape:zoom="0.59"
     inkscape:cx="-12.711864"
     inkscape:cy="200"
     inkscape:window-x="0"
     inkscape:window-y="0"
     inkscape:window-maximized="0"
     inkscape:current-layer="svg2" />
  <g
     id="g2993">
    <path
       style="fill:#f1f2f1"
       d="M 0,200 0,0 l 200,0 200,0 0,200 0,200 -200,0 -200,0 0,-200 z"
       id="path2997"
       inkscape:connector-curvature="0" />
    <path
       style="fill:#63a536"
       d="M 0,200 0,0 l 200,0 200,0 0,200 0,200 -200,0 L 0,400 0,200 z M 200.87499,253.02874 275,216.05749 l 0,-15.78187 0,-15.78188 -74.50177,-37.24687 C 159.52225,126.76109 125.77225,110 125.49823,110 c -0.27403,0 -0.48716,7.5375 -0.47362,16.75 l 0.0246,16.75 57.47539,27.905 C 214.13607,186.75275 240,199.61244 240,199.98208 c 0,0.36965 -25.875,13.43552 -57.5,29.03528 l -57.5,28.3632 0,16.30972 c 0,8.97035 0.39375,16.30972 0.87499,16.30972 0.48125,0 34.23125,-16.63707 75,-36.97126 z"
       id="path2995"
       inkscape:connector-curvature="0" />
  </g>
</svg>
