<svg xmlns="http://www.w3.org/2000/svg" xmlns:xlink="http://www.w3.org/1999/xlink" viewBox="-1.001 277.155 94.595 70.721" width="90.6" height="66.72"><defs><path d="M45.3 302.46c-11.72 0-21.21 9.49-21.21 21.21 0 11.71 9.49 21.21 21.21 21.21 11.71 0 21.21-9.5 21.21-21.21 0-11.72-9.5-21.21-21.21-21.21z" id="a"/><linearGradient id="b" gradientUnits="userSpaceOnUse" x1="45.3" y1="337.58" x2="45.3" y2="300"><stop offset="0%" stop-color="#2684ff"/><stop offset="82%" stop-color="#0052cc"/></linearGradient><path d="M11.96 312.62c.87 1.02 2.4 1.14 3.42.28l.03-.03c18.44-16.53 41.27-16.53 59.76 0 1.01.89 2.55.78 3.43-.23.01 0 .01-.01.02-.02l11.4-13.49c.86-1.02.74-2.54-.28-3.41-26.77-23.42-62.13-23.42-88.89 0a2.423 2.423 0 0 0-.28 3.41l11.39 13.49z" id="c"/></defs><use xlink:href="#a" fill="url(#b)"/><use xlink:href="#a" fill-opacity="0" stroke="#000" stroke-opacity="0"/><use xlink:href="#c" fill="#2684ff"/><use xlink:href="#c" fill-opacity="0" stroke="#000" stroke-opacity="0"/></svg>