<?xml version="1.0" encoding="UTF-8" standalone="no"?>
<!-- Created with Inkscape (http://www.inkscape.org/) -->

<svg
   xmlns:dc="http://purl.org/dc/elements/1.1/"
   xmlns:cc="http://creativecommons.org/ns#"
   xmlns:rdf="http://www.w3.org/1999/02/22-rdf-syntax-ns#"
   xmlns:svg="http://www.w3.org/2000/svg"
   xmlns="http://www.w3.org/2000/svg"
   xmlns:sodipodi="http://sodipodi.sourceforge.net/DTD/sodipodi-0.dtd"
   xmlns:inkscape="http://www.inkscape.org/namespaces/inkscape"
   sodipodi:docname="subversion.svg"
   inkscape:version="0.48.5 r10040"
   sodipodi:version="0.32"
   version="1.0"
   x="0.00000000"
   y="0.00000000"
   width="256"
   height="256"
   viewBox="0 0 256 256"
   id="svg2"
   xml:space="preserve"><metadata
     id="metadata24"><rdf:RDF><cc:Work
         rdf:about=""><dc:format>image/svg+xml</dc:format><dc:type
           rdf:resource="http://purl.org/dc/dcmitype/StillImage" /></cc:Work></rdf:RDF></metadata><sodipodi:namedview
     inkscape:current-layer="svg2"
     inkscape:window-y="22"
     inkscape:window-x="-4"
     inkscape:cy="243.95682"
     inkscape:cx="142.63889"
     inkscape:zoom="3.6563848"
     id="base"
     pagecolor="#ffffff"
     bordercolor="#666666"
     borderopacity="1.0"
     inkscape:pageopacity="0.0"
     inkscape:pageshadow="2"
     inkscape:window-width="1152"
     inkscape:window-height="756"
     showgrid="false"
     inkscape:window-maximized="0" /><defs
     id="defs84"><clipPath
       clipPathUnits="userSpaceOnUse"
       id="clipPath3057"><path
         inkscape:connector-curvature="0"
         id="path3059"
         style="fill:#809cc9"
         d="m 129.438,0.875 -107.963,0 0,78.762 107.964,0 0,-78.762 -0.001,0 z" /></clipPath><clipPath
       clipPathUnits="userSpaceOnUse"
       id="clipPath3061"><path
         inkscape:connector-curvature="0"
         id="path3063"
         style="fill:#809cc9"
         d="m 129.438,0.875 -107.963,0 0,78.762 107.964,0 0,-78.762 -0.001,0 z" /></clipPath><clipPath
       clipPathUnits="userSpaceOnUse"
       id="clipPath3065"><path
         inkscape:connector-curvature="0"
         id="path3067"
         style="fill:#809cc9"
         d="m 129.438,0.875 -107.963,0 0,78.762 107.964,0 0,-78.762 -0.001,0 z" /></clipPath><clipPath
       clipPathUnits="userSpaceOnUse"
       id="clipPath3069"><path
         inkscape:connector-curvature="0"
         id="path3071"
         style="fill:#809cc9"
         d="m 129.438,0.875 -107.963,0 0,78.762 107.964,0 0,-78.762 -0.001,0 z" /></clipPath><clipPath
       clipPathUnits="userSpaceOnUse"
       id="clipPath3073"><path
         inkscape:connector-curvature="0"
         id="path3075"
         style="fill:#809cc9"
         d="m 129.438,0.875 -107.963,0 0,78.762 107.964,0 0,-78.762 -0.001,0 z" /></clipPath><clipPath
       clipPathUnits="userSpaceOnUse"
       id="clipPath3077"><path
         inkscape:connector-curvature="0"
         id="path3079"
         style="fill:#809cc9"
         d="m 129.438,0.875 -107.963,0 0,78.762 107.964,0 0,-78.762 -0.001,0 z" /></clipPath><clipPath
       clipPathUnits="userSpaceOnUse"
       id="clipPath3081"><path
         inkscape:connector-curvature="0"
         id="path3083"
         style="fill:#809cc9"
         d="m 129.438,0.875 -107.963,0 0,78.762 107.964,0 0,-78.762 -0.001,0 z" /></clipPath><clipPath
       clipPathUnits="userSpaceOnUse"
       id="clipPath3085"><path
         inkscape:connector-curvature="0"
         id="path3087"
         style="fill:#809cc9"
         d="m 129.438,0.875 -107.963,0 0,78.762 107.964,0 0,-78.762 -0.001,0 z" /></clipPath><clipPath
       clipPathUnits="userSpaceOnUse"
       id="clipPath3089"><path
         inkscape:connector-curvature="0"
         id="path3091"
         style="fill:#809cc9"
         d="m 129.438,0.875 -107.963,0 0,78.762 107.964,0 0,-78.762 -0.001,0 z" /></clipPath><clipPath
       clipPathUnits="userSpaceOnUse"
       id="clipPath3093"><path
         inkscape:connector-curvature="0"
         id="path3095"
         style="fill:#809cc9"
         d="m 129.438,0.875 -107.963,0 0,78.762 107.964,0 0,-78.762 -0.001,0 z" /></clipPath><clipPath
       clipPathUnits="userSpaceOnUse"
       id="clipPath3097"><path
         inkscape:connector-curvature="0"
         id="path3099"
         style="fill:#809cc9"
         d="m 129.438,0.875 -107.963,0 0,78.762 107.964,0 0,-78.762 -0.001,0 z" /></clipPath><clipPath
       clipPathUnits="userSpaceOnUse"
       id="clipPath3101"><path
         inkscape:connector-curvature="0"
         id="path3103"
         style="fill:#809cc9"
         d="m 129.438,0.875 -107.963,0 0,78.762 107.964,0 0,-78.762 -0.001,0 z" /></clipPath><clipPath
       clipPathUnits="userSpaceOnUse"
       id="clipPath3105"><path
         inkscape:connector-curvature="0"
         id="path3107"
         style="fill:#809cc9"
         d="m 129.438,0.875 -107.963,0 0,78.762 107.964,0 0,-78.762 -0.001,0 z" /></clipPath><clipPath
       clipPathUnits="userSpaceOnUse"
       id="clipPath3109"><path
         inkscape:connector-curvature="0"
         id="path3111"
         style="fill:#809cc9"
         d="m 129.438,0.875 -107.963,0 0,78.762 107.964,0 0,-78.762 -0.001,0 z" /></clipPath><clipPath
       clipPathUnits="userSpaceOnUse"
       id="clipPath3113"><path
         inkscape:connector-curvature="0"
         id="path3115"
         style="fill:#809cc9"
         d="m 129.438,0.875 -107.963,0 0,78.762 107.964,0 0,-78.762 -0.001,0 z" /></clipPath></defs><g
     id="g3162"
     transform="matrix(2.3711608,0,0,2.3711608,-50.92068,32.546551)"><g
       id="g3139"><g
         id="g3117"><path
           clip-path="url(#clipPath3113)"
           inkscape:connector-curvature="0"
           id="path49"
           style="fill:#809cc9"
           d="m 129.438,0.875 -107.963,0 0,78.762 107.964,0 0,-78.762 -0.001,0 z" /><g
           clip-path="url(#clipPath3109)"
           id="g51"><path
             inkscape:connector-curvature="0"
             id="path53"
             style="fill:#ffffff"
             d="m 130.372,0 1.662,6.583 c -15.285,2.216 -28.886,4.828 -40.802,7.837 -12.857,3.247 -23.198,6.546 -31.025,9.896 -7.844,3.284 -11.507,5.952 -10.99,8 0.456,1.807 3.735,2.626 9.863,2.453 3.141,-0.058 8.252,-0.399 15.335,-1.028 7.083,-0.626 16.221,-1.536 27.415,-2.726 20.599,-2.144 34.762,-3.077 42.491,-2.8 7.711,0.21 11.944,1.784 12.688,4.725 1.007,3.988 -6.304,9.331 -21.931,16.026 -15.657,6.633 -35.88,13.076 -60.652,19.332 -20.854,5.265 -38.833,9.029 -53.939,11.291 l -1.645,-6.51 c 17.868,-2.555 33.937,-5.633 48.205,-9.236 13.326,-3.364 23.594,-6.629 30.8,-9.799 7.205,-3.169 10.533,-5.84 9.983,-8.019 -0.477,-1.886 -3.805,-2.849 -9.973,-2.891 -3.159,0.034 -7.51,0.257 -13.062,0.668 -5.566,0.414 -12.479,1.056 -20.739,1.923 C 51.242,47.1 40.594,48.14 32.126,48.846 23.646,49.555 17.325,49.897 13.15,49.876 5.14,49.802 0.76,48.256 0,45.248 -1.024,41.187 5.74,36.053 20.295,29.845 35.002,23.577 54.925,17.269 80.09,10.915 97.494,6.521 114.254,2.883 130.372,0 z" /></g><g
           clip-path="url(#clipPath3105)"
           id="g55"><path
             inkscape:connector-curvature="0"
             id="path57"
             style="fill:#ffffff"
             d="m 26.125,56.078 c 0.279,0 0.521,0.105 0.728,0.316 0.205,0.205 0.309,0.451 0.309,0.736 0,0.297 -0.104,0.548 -0.309,0.754 -0.206,0.205 -0.454,0.308 -0.745,0.308 -0.297,0 -0.548,-0.103 -0.753,-0.309 -0.206,-0.211 -0.309,-0.462 -0.309,-0.753 0,-0.297 0.103,-0.545 0.309,-0.745 0.21,-0.204 0.467,-0.307 0.77,-0.307 z m 0,6.803 c 0.279,0 0.521,0.107 0.728,0.318 0.205,0.207 0.309,0.456 0.309,0.748 0,0.292 -0.104,0.541 -0.309,0.748 -0.217,0.201 -0.465,0.301 -0.745,0.301 -0.148,0 -0.287,-0.027 -0.415,-0.082 -0.128,-0.054 -0.241,-0.128 -0.338,-0.223 -0.098,-0.095 -0.173,-0.206 -0.228,-0.336 -0.055,-0.129 -0.081,-0.268 -0.081,-0.417 0,-0.292 0.103,-0.542 0.309,-0.748 0.21,-0.206 0.467,-0.309 0.77,-0.309 z" /><path
             inkscape:connector-curvature="0"
             id="path59"
             style="fill:#ffffff"
             d="m 29.779,56.078 c 0.28,0 0.522,0.105 0.728,0.316 0.206,0.205 0.309,0.451 0.309,0.736 0,0.297 -0.103,0.548 -0.309,0.754 -0.205,0.205 -0.453,0.308 -0.744,0.308 -0.297,0 -0.549,-0.103 -0.754,-0.309 C 28.803,57.672 28.7,57.421 28.7,57.13 c 0,-0.297 0.103,-0.545 0.309,-0.745 0.211,-0.204 0.468,-0.307 0.77,-0.307 z m 0,6.803 c 0.28,0 0.522,0.107 0.728,0.318 0.206,0.207 0.309,0.456 0.309,0.748 0,0.292 -0.103,0.541 -0.309,0.748 -0.217,0.201 -0.465,0.301 -0.744,0.301 -0.148,0 -0.287,-0.027 -0.416,-0.082 C 29.219,64.86 29.106,64.786 29.009,64.691 28.912,64.596 28.836,64.485 28.782,64.355 28.727,64.226 28.7,64.087 28.7,63.938 c 0,-0.292 0.103,-0.542 0.309,-0.748 0.211,-0.206 0.468,-0.309 0.77,-0.309 z" /></g><path
           clip-path="url(#clipPath3101)"
           inkscape:connector-curvature="0"
           id="path61"
           style="fill:#809cc9"
           d="m 27.712,87.417 c 0,0.433 -0.111,0.822 -0.334,1.167 -0.223,0.345 -0.549,0.615 -0.979,0.811 -0.429,0.195 -0.938,0.293 -1.525,0.293 -0.706,0 -1.288,-0.134 -1.746,-0.4 -0.326,-0.191 -0.591,-0.448 -0.794,-0.769 -0.204,-0.321 -0.306,-0.633 -0.306,-0.936 0,-0.176 0.061,-0.326 0.184,-0.452 0.121,-0.125 0.277,-0.188 0.466,-0.188 0.153,0 0.282,0.049 0.389,0.146 0.107,0.097 0.196,0.243 0.271,0.436 0.091,0.228 0.189,0.418 0.296,0.571 0.105,0.153 0.254,0.279 0.447,0.379 0.191,0.1 0.444,0.149 0.758,0.149 0.43,0 0.779,-0.101 1.048,-0.301 0.269,-0.2 0.403,-0.451 0.403,-0.75 0,-0.238 -0.072,-0.432 -0.218,-0.58 -0.145,-0.147 -0.332,-0.261 -0.562,-0.339 -0.23,-0.078 -0.537,-0.161 -0.922,-0.249 -0.515,-0.121 -0.945,-0.262 -1.293,-0.424 -0.347,-0.16 -0.622,-0.381 -0.825,-0.659 -0.204,-0.278 -0.306,-0.625 -0.306,-1.038 0,-0.395 0.107,-0.745 0.322,-1.051 0.215,-0.307 0.525,-0.542 0.932,-0.707 0.407,-0.164 0.885,-0.246 1.436,-0.246 0.438,0 0.818,0.055 1.139,0.163 0.32,0.109 0.587,0.255 0.798,0.435 0.212,0.182 0.366,0.371 0.464,0.57 0.098,0.198 0.146,0.393 0.146,0.581 0,0.173 -0.061,0.328 -0.182,0.467 -0.122,0.139 -0.273,0.208 -0.455,0.208 -0.165,0 -0.291,-0.042 -0.376,-0.125 -0.086,-0.083 -0.179,-0.219 -0.279,-0.408 -0.131,-0.271 -0.287,-0.481 -0.47,-0.633 -0.183,-0.152 -0.476,-0.227 -0.88,-0.227 -0.374,0 -0.677,0.082 -0.906,0.246 -0.229,0.165 -0.345,0.363 -0.345,0.594 0,0.144 0.039,0.268 0.117,0.372 0.078,0.104 0.186,0.193 0.322,0.269 0.136,0.076 0.275,0.134 0.416,0.176 0.141,0.043 0.371,0.104 0.694,0.186 0.402,0.095 0.767,0.199 1.093,0.313 0.326,0.114 0.604,0.252 0.832,0.415 0.229,0.163 0.408,0.369 0.536,0.618 0.128,0.249 0.194,0.556 0.194,0.917 z" /><path
           clip-path="url(#clipPath3097)"
           inkscape:connector-curvature="0"
           id="path63"
           style="fill:#809cc9"
           d="m 33.464,86.604 0,-3.444 c 0,-0.293 0.066,-0.513 0.198,-0.659 0.132,-0.146 0.306,-0.22 0.521,-0.22 0.226,0 0.404,0.073 0.536,0.22 0.132,0.147 0.198,0.367 0.198,0.661 l 0,3.529 c 0,0.401 0.045,0.736 0.134,1.006 0.089,0.27 0.247,0.479 0.475,0.627 0.227,0.148 0.545,0.223 0.954,0.223 0.564,0 0.963,-0.151 1.196,-0.453 0.233,-0.302 0.351,-0.76 0.351,-1.373 l 0,-3.559 c 0,-0.297 0.065,-0.519 0.195,-0.664 0.131,-0.145 0.305,-0.217 0.523,-0.217 0.218,0 0.396,0.072 0.531,0.217 0.135,0.146 0.203,0.366 0.203,0.663 l 0,3.448 c 0,0.561 -0.055,1.028 -0.164,1.403 -0.109,0.375 -0.315,0.705 -0.619,0.989 -0.26,0.238 -0.562,0.412 -0.906,0.521 -0.346,0.109 -0.748,0.165 -1.21,0.165 -0.55,0 -1.022,-0.061 -1.419,-0.179 C 34.765,89.389 34.44,89.205 34.19,88.956 33.94,88.707 33.756,88.388 33.639,87.998 33.522,87.61 33.464,87.145 33.464,86.604 z" /><path
           clip-path="url(#clipPath3093)"
           inkscape:connector-curvature="0"
           id="path65"
           style="fill:#809cc9"
           d="m 48.601,89.562 -2.19,0 c -0.316,0 -0.542,-0.071 -0.677,-0.213 -0.136,-0.142 -0.203,-0.367 -0.203,-0.676 l 0,-5.38 c 0,-0.315 0.069,-0.542 0.208,-0.681 0.138,-0.139 0.362,-0.207 0.672,-0.207 l 2.323,0 c 0.342,0 0.639,0.021 0.89,0.062 0.251,0.041 0.476,0.123 0.675,0.242 0.169,0.101 0.318,0.229 0.448,0.383 0.13,0.154 0.229,0.325 0.298,0.512 0.068,0.188 0.103,0.385 0.103,0.593 0,0.716 -0.357,1.239 -1.073,1.571 0.939,0.3 1.41,0.884 1.41,1.751 0,0.401 -0.103,0.763 -0.308,1.083 -0.205,0.321 -0.481,0.559 -0.829,0.712 -0.219,0.091 -0.47,0.154 -0.754,0.191 -0.284,0.039 -0.615,0.057 -0.993,0.057 z m -1.618,-6.078 0,1.859 1.33,0 c 0.361,0 0.641,-0.035 0.838,-0.104 0.197,-0.069 0.348,-0.199 0.453,-0.393 0.081,-0.137 0.122,-0.291 0.122,-0.461 0,-0.363 -0.129,-0.604 -0.387,-0.724 -0.257,-0.119 -0.65,-0.179 -1.178,-0.179 l -1.178,0 0,0.002 z m 1.511,2.891 -1.511,0 0,2.109 1.56,0 c 0.981,0 1.472,-0.357 1.472,-1.07 0,-0.364 -0.127,-0.629 -0.381,-0.793 -0.255,-0.164 -0.635,-0.246 -1.14,-0.246 z" /><path
           clip-path="url(#clipPath3089)"
           inkscape:connector-curvature="0"
           id="path67"
           style="fill:#999999"
           d="m 58.295,83.232 1.618,4.799 1.624,-4.833 c 0.085,-0.254 0.147,-0.431 0.19,-0.529 0.042,-0.099 0.111,-0.188 0.209,-0.269 0.098,-0.081 0.231,-0.119 0.4,-0.119 0.123,0 0.238,0.03 0.344,0.092 0.105,0.062 0.188,0.145 0.248,0.247 0.061,0.103 0.091,0.206 0.091,0.311 0,0.071 -0.01,0.149 -0.029,0.231 -0.02,0.084 -0.044,0.165 -0.073,0.245 -0.029,0.079 -0.059,0.162 -0.088,0.246 l -1.73,4.681 c -0.062,0.179 -0.124,0.35 -0.186,0.511 -0.062,0.161 -0.133,0.303 -0.215,0.425 -0.081,0.122 -0.189,0.223 -0.324,0.301 -0.135,0.077 -0.3,0.117 -0.494,0.117 -0.195,0 -0.36,-0.039 -0.495,-0.115 -0.136,-0.076 -0.244,-0.178 -0.327,-0.303 -0.083,-0.125 -0.155,-0.268 -0.217,-0.428 -0.062,-0.159 -0.123,-0.329 -0.186,-0.508 l -1.701,-4.642 c -0.029,-0.084 -0.06,-0.167 -0.091,-0.249 -0.03,-0.081 -0.057,-0.169 -0.077,-0.264 -0.021,-0.094 -0.032,-0.174 -0.032,-0.239 0,-0.166 0.066,-0.317 0.2,-0.454 0.133,-0.137 0.301,-0.205 0.502,-0.205 0.247,0 0.422,0.075 0.524,0.227 0.102,0.152 0.208,0.392 0.315,0.724 z" /><path
           clip-path="url(#clipPath3085)"
           inkscape:connector-curvature="0"
           id="path69"
           style="fill:#999999"
           d="m 73.338,83.516 -3.267,0 0,1.766 3.008,0 c 0.221,0 0.387,0.049 0.496,0.148 0.108,0.1 0.163,0.23 0.163,0.393 0,0.163 -0.054,0.296 -0.161,0.398 -0.107,0.102 -0.273,0.154 -0.498,0.154 l -3.008,0 0,2.047 3.379,0 c 0.228,0 0.399,0.052 0.516,0.156 0.115,0.105 0.173,0.244 0.173,0.418 0,0.168 -0.058,0.305 -0.173,0.409 -0.116,0.104 -0.288,0.157 -0.516,0.157 l -3.941,0 c -0.316,0 -0.544,-0.07 -0.683,-0.211 -0.139,-0.14 -0.208,-0.365 -0.208,-0.678 l 0,-5.38 c 0,-0.208 0.031,-0.378 0.093,-0.51 0.062,-0.132 0.159,-0.228 0.291,-0.288 0.132,-0.06 0.301,-0.09 0.507,-0.09 l 3.829,0 c 0.231,0 0.403,0.051 0.515,0.152 0.113,0.102 0.169,0.234 0.169,0.399 0,0.168 -0.056,0.303 -0.169,0.404 -0.112,0.105 -0.284,0.156 -0.515,0.156 z" /><path
           clip-path="url(#clipPath3081)"
           inkscape:connector-curvature="0"
           id="path71"
           style="fill:#999999"
           d="m 81.732,86.5 -0.507,0 0,2.303 c 0,0.303 -0.066,0.525 -0.201,0.669 -0.133,0.144 -0.308,0.216 -0.523,0.216 -0.231,0 -0.41,-0.075 -0.538,-0.225 -0.127,-0.15 -0.19,-0.37 -0.19,-0.66 l 0,-5.508 c 0,-0.312 0.07,-0.539 0.21,-0.68 0.14,-0.14 0.366,-0.209 0.679,-0.209 l 2.357,0 c 0.325,0 0.604,0.014 0.835,0.041 0.23,0.027 0.439,0.083 0.625,0.166 0.224,0.095 0.423,0.23 0.595,0.406 0.173,0.176 0.304,0.38 0.393,0.612 0.09,0.233 0.135,0.479 0.135,0.74 0,0.534 -0.15,0.96 -0.451,1.279 -0.301,0.319 -0.758,0.546 -1.369,0.679 0.257,0.137 0.502,0.339 0.736,0.605 0.234,0.268 0.443,0.552 0.628,0.854 0.184,0.301 0.327,0.573 0.429,0.815 0.104,0.243 0.154,0.41 0.154,0.501 0,0.095 -0.03,0.188 -0.09,0.281 -0.061,0.093 -0.143,0.166 -0.247,0.22 -0.104,0.054 -0.224,0.081 -0.36,0.081 -0.163,0 -0.3,-0.039 -0.41,-0.115 -0.111,-0.076 -0.206,-0.174 -0.285,-0.291 -0.08,-0.117 -0.188,-0.29 -0.324,-0.519 l -0.581,-0.968 c -0.208,-0.355 -0.395,-0.625 -0.559,-0.812 -0.164,-0.186 -0.331,-0.312 -0.5,-0.381 -0.169,-0.069 -0.384,-0.1 -0.641,-0.1 z m 0.83,-3.016 -1.336,0 0,1.984 1.297,0 c 0.348,0 0.641,-0.031 0.878,-0.092 0.237,-0.061 0.419,-0.164 0.544,-0.31 0.125,-0.146 0.188,-0.348 0.188,-0.604 0,-0.2 -0.051,-0.377 -0.151,-0.529 -0.1,-0.152 -0.24,-0.267 -0.419,-0.343 -0.17,-0.07 -0.503,-0.106 -1.001,-0.106 z" /><path
           clip-path="url(#clipPath3077)"
           inkscape:connector-curvature="0"
           id="path73"
           style="fill:#999999"
           d="m 96.914,87.417 c 0,0.433 -0.111,0.822 -0.334,1.167 -0.223,0.345 -0.549,0.615 -0.978,0.811 -0.43,0.195 -0.938,0.293 -1.527,0.293 -0.705,0 -1.287,-0.134 -1.745,-0.4 -0.326,-0.191 -0.591,-0.448 -0.794,-0.769 -0.204,-0.321 -0.306,-0.633 -0.306,-0.936 0,-0.176 0.062,-0.326 0.183,-0.452 0.123,-0.125 0.278,-0.188 0.467,-0.188 0.153,0 0.283,0.049 0.389,0.146 0.106,0.097 0.196,0.243 0.271,0.436 0.091,0.228 0.189,0.418 0.295,0.571 0.106,0.153 0.256,0.279 0.447,0.379 0.193,0.1 0.445,0.149 0.758,0.149 0.431,0 0.779,-0.101 1.049,-0.301 0.269,-0.2 0.403,-0.451 0.403,-0.75 0,-0.238 -0.072,-0.432 -0.218,-0.58 -0.145,-0.147 -0.332,-0.261 -0.562,-0.339 -0.229,-0.078 -0.536,-0.161 -0.921,-0.249 -0.515,-0.121 -0.945,-0.262 -1.292,-0.424 -0.348,-0.16 -0.623,-0.381 -0.826,-0.659 -0.204,-0.278 -0.306,-0.625 -0.306,-1.038 0,-0.395 0.107,-0.745 0.322,-1.051 0.215,-0.307 0.525,-0.542 0.932,-0.707 0.407,-0.164 0.886,-0.246 1.435,-0.246 0.439,0 0.819,0.055 1.14,0.163 0.32,0.109 0.587,0.255 0.798,0.435 0.212,0.182 0.366,0.371 0.464,0.57 0.098,0.198 0.146,0.393 0.146,0.581 0,0.173 -0.061,0.328 -0.183,0.467 -0.121,0.139 -0.272,0.208 -0.454,0.208 -0.165,0 -0.29,-0.042 -0.376,-0.125 -0.086,-0.083 -0.18,-0.219 -0.279,-0.408 -0.131,-0.271 -0.287,-0.481 -0.47,-0.633 -0.183,-0.152 -0.476,-0.227 -0.88,-0.227 -0.375,0 -0.677,0.082 -0.906,0.246 -0.23,0.165 -0.345,0.363 -0.345,0.594 0,0.144 0.039,0.268 0.117,0.372 0.078,0.104 0.186,0.193 0.323,0.269 0.137,0.075 0.275,0.134 0.415,0.176 0.14,0.043 0.371,0.104 0.694,0.186 0.402,0.095 0.767,0.199 1.093,0.313 0.326,0.114 0.604,0.252 0.833,0.415 0.229,0.163 0.406,0.369 0.535,0.618 0.129,0.25 0.193,0.556 0.193,0.917 z" /><path
           clip-path="url(#clipPath3073)"
           inkscape:connector-curvature="0"
           id="path75"
           style="fill:#999999"
           d="m 102.713,88.803 0,-5.643 c 0,-0.293 0.066,-0.513 0.2,-0.659 0.134,-0.146 0.307,-0.22 0.52,-0.22 0.218,0 0.395,0.072 0.53,0.217 0.136,0.146 0.203,0.365 0.203,0.662 l 0,5.643 c 0,0.297 -0.067,0.518 -0.203,0.664 -0.136,0.146 -0.312,0.221 -0.53,0.221 -0.209,0 -0.382,-0.074 -0.517,-0.223 -0.136,-0.149 -0.203,-0.369 -0.203,-0.662 z" /><path
           clip-path="url(#clipPath3069)"
           inkscape:connector-curvature="0"
           id="path77"
           style="fill:#999999"
           d="m 113.428,82.281 c 0.741,0 1.377,0.15 1.908,0.451 0.531,0.302 0.934,0.73 1.207,1.285 0.272,0.556 0.409,1.207 0.409,1.957 0,0.553 -0.075,1.057 -0.225,1.51 -0.149,0.452 -0.373,0.845 -0.672,1.177 -0.3,0.332 -0.667,0.587 -1.103,0.763 -0.436,0.175 -0.935,0.264 -1.496,0.264 -0.56,0 -1.06,-0.091 -1.501,-0.271 -0.442,-0.181 -0.812,-0.436 -1.107,-0.765 -0.295,-0.329 -0.519,-0.725 -0.67,-1.187 -0.151,-0.463 -0.227,-0.963 -0.227,-1.5 0,-0.551 0.078,-1.056 0.236,-1.515 0.158,-0.46 0.386,-0.851 0.686,-1.173 0.299,-0.322 0.662,-0.569 1.092,-0.74 0.43,-0.171 0.917,-0.256 1.463,-0.256 z m 2.055,3.684 c 0,-0.527 -0.084,-0.984 -0.254,-1.37 -0.168,-0.386 -0.409,-0.679 -0.723,-0.876 -0.313,-0.198 -0.674,-0.297 -1.079,-0.297 -0.289,0 -0.556,0.055 -0.802,0.164 -0.244,0.109 -0.456,0.27 -0.633,0.479 -0.177,0.209 -0.316,0.477 -0.419,0.803 -0.103,0.326 -0.153,0.691 -0.153,1.098 0,0.408 0.051,0.778 0.153,1.109 0.103,0.33 0.247,0.604 0.434,0.822 0.187,0.217 0.401,0.38 0.643,0.488 0.242,0.107 0.508,0.162 0.797,0.162 0.37,0 0.71,-0.094 1.021,-0.28 0.311,-0.186 0.557,-0.475 0.74,-0.864 0.184,-0.389 0.275,-0.87 0.275,-1.438 z" /><path
           clip-path="url(#clipPath3065)"
           inkscape:connector-curvature="0"
           id="path79"
           style="fill:#999999"
           d="m 124.59,83.15 2.798,4.225 0,-4.264 c 0,-0.276 0.059,-0.484 0.178,-0.623 0.118,-0.139 0.277,-0.207 0.479,-0.207 0.208,0 0.371,0.068 0.492,0.207 0.119,0.139 0.18,0.346 0.18,0.623 l 0,5.633 c 0,0.629 -0.26,0.943 -0.78,0.943 -0.13,0 -0.247,-0.02 -0.351,-0.057 -0.104,-0.038 -0.202,-0.097 -0.293,-0.179 -0.091,-0.081 -0.176,-0.177 -0.254,-0.286 -0.078,-0.109 -0.155,-0.221 -0.233,-0.335 l -2.729,-4.175 0,4.199 c 0,0.274 -0.063,0.481 -0.19,0.621 -0.128,0.141 -0.29,0.211 -0.489,0.211 -0.205,0 -0.37,-0.071 -0.494,-0.213 -0.124,-0.142 -0.186,-0.348 -0.186,-0.618 l 0,-5.525 c 0,-0.234 0.025,-0.418 0.078,-0.552 0.062,-0.146 0.164,-0.267 0.309,-0.359 0.143,-0.093 0.298,-0.139 0.465,-0.139 0.13,0 0.242,0.021 0.335,0.063 0.093,0.042 0.174,0.099 0.244,0.171 0.07,0.072 0.142,0.164 0.216,0.278 0.071,0.116 0.146,0.235 0.225,0.358 z" /><path
           clip-path="url(#clipPath3061)"
           inkscape:connector-curvature="0"
           id="path81"
           style="fill:none;stroke:#809cc9"
           d="m 20.979,93.582 108.255,0" /><g
           clip-path="url(#clipPath3057)"
           id="g3049"><path
             d="m 26.125,56.078 c 0.279,0 0.521,0.105 0.728,0.316 0.205,0.205 0.309,0.451 0.309,0.736 0,0.297 -0.104,0.548 -0.309,0.754 -0.206,0.205 -0.454,0.308 -0.745,0.308 -0.297,0 -0.548,-0.103 -0.753,-0.309 -0.206,-0.211 -0.309,-0.462 -0.309,-0.753 0,-0.297 0.103,-0.545 0.309,-0.745 0.21,-0.204 0.467,-0.307 0.77,-0.307 z m 0,6.803 c 0.279,0 0.521,0.107 0.728,0.318 0.205,0.207 0.309,0.456 0.309,0.748 0,0.292 -0.104,0.541 -0.309,0.748 -0.217,0.201 -0.465,0.301 -0.745,0.301 -0.148,0 -0.287,-0.027 -0.415,-0.082 -0.128,-0.054 -0.241,-0.128 -0.338,-0.223 -0.098,-0.095 -0.173,-0.206 -0.228,-0.336 -0.055,-0.129 -0.081,-0.268 -0.081,-0.417 0,-0.292 0.103,-0.542 0.309,-0.748 0.21,-0.206 0.467,-0.309 0.77,-0.309 z"
             style="fill:#ffffff"
             id="path3051"
             inkscape:connector-curvature="0" /><path
             d="m 29.779,56.078 c 0.28,0 0.522,0.105 0.728,0.316 0.206,0.205 0.309,0.451 0.309,0.736 0,0.297 -0.103,0.548 -0.309,0.754 -0.205,0.205 -0.453,0.308 -0.744,0.308 -0.297,0 -0.549,-0.103 -0.754,-0.309 C 28.803,57.672 28.7,57.421 28.7,57.13 c 0,-0.297 0.103,-0.545 0.309,-0.745 0.211,-0.204 0.468,-0.307 0.77,-0.307 z m 0,6.803 c 0.28,0 0.522,0.107 0.728,0.318 0.206,0.207 0.309,0.456 0.309,0.748 0,0.292 -0.103,0.541 -0.309,0.748 -0.217,0.201 -0.465,0.301 -0.744,0.301 -0.148,0 -0.287,-0.027 -0.416,-0.082 C 29.219,64.86 29.106,64.786 29.009,64.691 28.912,64.596 28.836,64.485 28.782,64.355 28.727,64.226 28.7,64.087 28.7,63.938 c 0,-0.292 0.103,-0.542 0.309,-0.748 0.211,-0.206 0.468,-0.309 0.77,-0.309 z"
             style="fill:#ffffff"
             id="path3053"
             inkscape:connector-curvature="0" /></g></g></g></g></svg>