<svg xmlns="http://www.w3.org/2000/svg" version="1" width="256" height="256"><defs><clipPath id="o"><path d="M129.438.875H21.475v78.762h107.964V.875h-.001z" fill="#809cc9"/></clipPath><clipPath id="n"><path d="M129.438.875H21.475v78.762h107.964V.875h-.001z" fill="#809cc9"/></clipPath><clipPath id="m"><path d="M129.438.875H21.475v78.762h107.964V.875h-.001z" fill="#809cc9"/></clipPath><clipPath id="l"><path d="M129.438.875H21.475v78.762h107.964V.875h-.001z" fill="#809cc9"/></clipPath><clipPath id="k"><path d="M129.438.875H21.475v78.762h107.964V.875h-.001z" fill="#809cc9"/></clipPath><clipPath id="j"><path d="M129.438.875H21.475v78.762h107.964V.875h-.001z" fill="#809cc9"/></clipPath><clipPath id="i"><path d="M129.438.875H21.475v78.762h107.964V.875h-.001z" fill="#809cc9"/></clipPath><clipPath id="h"><path d="M129.438.875H21.475v78.762h107.964V.875h-.001z" fill="#809cc9"/></clipPath><clipPath id="g"><path d="M129.438.875H21.475v78.762h107.964V.875h-.001z" fill="#809cc9"/></clipPath><clipPath id="f"><path d="M129.438.875H21.475v78.762h107.964V.875h-.001z" fill="#809cc9"/></clipPath><clipPath id="e"><path d="M129.438.875H21.475v78.762h107.964V.875h-.001z" fill="#809cc9"/></clipPath><clipPath id="d"><path d="M129.438.875H21.475v78.762h107.964V.875h-.001z" fill="#809cc9"/></clipPath><clipPath id="c"><path d="M129.438.875H21.475v78.762h107.964V.875h-.001z" fill="#809cc9"/></clipPath><clipPath id="b"><path d="M129.438.875H21.475v78.762h107.964V.875h-.001z" fill="#809cc9"/></clipPath><clipPath id="a"><path d="M129.438.875H21.475v78.762h107.964V.875h-.001z" fill="#809cc9"/></clipPath></defs><path clip-path="url(#a)" d="M129.438.875H21.475v78.762h107.964V.875h-.001z" fill="#809cc9" transform="translate(-50.92 32.547) scale(2.37116)"/><g clip-path="url(#b)" transform="translate(-50.92 32.547) scale(2.37116)"><path d="M130.372 0l1.662 6.583c-15.285 2.216-28.886 4.828-40.802 7.837-12.857 3.247-23.198 6.546-31.025 9.896-7.844 3.284-11.507 5.952-10.99 8 .456 1.807 3.735 2.626 9.863 2.453 3.141-.058 8.252-.399 15.335-1.028 7.083-.626 16.221-1.536 27.415-2.726 20.599-2.144 34.762-3.077 42.491-2.8 7.711.21 11.944 1.784 12.688 4.725 1.007 3.988-6.304 9.331-21.931 16.026-15.657 6.633-35.88 13.076-60.652 19.332-20.854 5.265-38.833 9.029-53.939 11.291l-1.645-6.51c17.868-2.555 33.937-5.633 48.205-9.236 13.326-3.364 23.594-6.629 30.8-9.799 7.205-3.169 10.533-5.84 9.983-8.019-.477-1.886-3.805-2.849-9.973-2.891-3.159.034-7.51.257-13.062.668-5.566.414-12.479 1.056-20.739 1.923-12.814 1.375-23.462 2.415-31.93 3.121-8.48.709-14.801 1.051-18.976 1.03C5.14 49.802.76 48.256 0 45.248c-1.024-4.061 5.74-9.195 20.295-15.403 14.707-6.268 34.63-12.576 59.795-18.93C97.494 6.521 114.254 2.883 130.372 0z" fill="#fff"/></g><g clip-path="url(#c)" fill="#fff" transform="translate(-50.92 32.547) scale(2.37116)"><path d="M26.125 56.078c.279 0 .521.105.728.316.205.205.309.451.309.736 0 .297-.104.548-.309.754a1.018 1.018 0 0 1-.745.308c-.297 0-.548-.103-.753-.309a1.04 1.04 0 0 1-.309-.753c0-.297.103-.545.309-.745.21-.204.467-.307.77-.307zm0 6.803c.279 0 .521.107.728.318.205.207.309.456.309.748s-.104.541-.309.748a1.064 1.064 0 0 1-.745.301 1.075 1.075 0 0 1-.753-.305 1.005 1.005 0 0 1-.228-.336 1.051 1.051 0 0 1-.081-.417 1.058 1.058 0 0 1 1.079-1.057zm3.654-6.803c.28 0 .522.105.728.316.206.205.309.451.309.736 0 .297-.103.548-.309.754a1.014 1.014 0 0 1-.744.308c-.297 0-.549-.103-.754-.309a1.04 1.04 0 0 1-.309-.753c0-.297.103-.545.309-.745.211-.204.468-.307.77-.307zm0 6.803c.28 0 .522.107.728.318.206.207.309.456.309.748s-.103.541-.309.748a1.064 1.064 0 0 1-.744.301 1.075 1.075 0 0 1-.754-.305 1.052 1.052 0 0 1-.309-.753c0-.292.103-.542.309-.748.211-.206.468-.309.77-.309z"/></g><path clip-path="url(#d)" d="M27.712 87.417c0 .433-.111.822-.334 1.167-.223.345-.549.615-.979.811-.429.195-.938.293-1.525.293-.706 0-1.288-.134-1.746-.4a2.31 2.31 0 0 1-.794-.769c-.204-.321-.306-.633-.306-.936 0-.176.061-.326.184-.452a.622.622 0 0 1 .466-.188c.153 0 .282.049.389.146.107.097.196.243.271.436.091.228.189.418.296.571.105.153.254.279.447.379.191.1.444.149.758.149.43 0 .779-.101 1.048-.301.269-.2.403-.451.403-.75a.79.79 0 0 0-.218-.58 1.411 1.411 0 0 0-.562-.339 9.75 9.75 0 0 0-.922-.249 6.756 6.756 0 0 1-1.293-.424 2.074 2.074 0 0 1-.825-.659c-.204-.278-.306-.625-.306-1.038 0-.395.107-.745.322-1.051.215-.307.525-.542.932-.707.407-.164.885-.246 1.436-.246.438 0 .818.055 1.139.163.32.109.587.255.798.435.212.182.366.371.464.57.098.198.146.393.146.581a.693.693 0 0 1-.182.467.58.58 0 0 1-.455.208c-.165 0-.291-.042-.376-.125a1.66 1.66 0 0 1-.279-.408 1.853 1.853 0 0 0-.47-.633c-.183-.152-.476-.227-.88-.227-.374 0-.677.082-.906.246-.229.165-.345.363-.345.594 0 .144.039.268.117.372.078.104.186.193.322.269.136.076.275.134.416.176.141.043.371.104.694.186.402.095.767.199 1.093.313.326.114.604.252.832.415.229.163.408.369.536.618.128.249.194.556.194.917z" fill="#809cc9" transform="translate(-50.92 32.547) scale(2.37116)"/><path clip-path="url(#e)" d="M33.464 86.604V83.16c0-.293.066-.513.198-.659a.67.67 0 0 1 .521-.22c.226 0 .404.073.536.22.132.147.198.367.198.661v3.529c0 .401.045.736.134 1.006.089.27.247.479.475.627.227.148.545.223.954.223.564 0 .963-.151 1.196-.453.233-.302.351-.76.351-1.373v-3.559c0-.297.065-.519.195-.664a.67.67 0 0 1 .523-.217c.218 0 .396.072.531.217.135.146.203.366.203.663v3.448c0 .561-.055 1.028-.164 1.403a2.164 2.164 0 0 1-.619.989c-.26.238-.562.412-.906.521a4.028 4.028 0 0 1-1.21.165c-.55 0-1.022-.061-1.419-.179a2.277 2.277 0 0 1-.971-.552 2.225 2.225 0 0 1-.551-.958c-.117-.388-.175-.853-.175-1.394z" fill="#809cc9" transform="translate(-50.92 32.547) scale(2.37116)"/><path clip-path="url(#f)" d="M48.601 89.562h-2.19c-.316 0-.542-.071-.677-.213-.136-.142-.203-.367-.203-.676v-5.38c0-.315.069-.542.208-.681.138-.139.362-.207.672-.207h2.323c.342 0 .639.021.89.062a1.9 1.9 0 0 1 .675.242 1.777 1.777 0 0 1 .746.895c.068.188.103.385.103.593 0 .716-.357 1.239-1.073 1.571.939.3 1.41.884 1.41 1.751 0 .401-.103.763-.308 1.083a1.846 1.846 0 0 1-.829.712c-.219.091-.47.154-.754.191a7.413 7.413 0 0 1-.993.057zm-1.618-6.078v1.859h1.33c.361 0 .641-.035.838-.104a.804.804 0 0 0 .453-.393.89.89 0 0 0 .122-.461c0-.363-.129-.604-.387-.724-.257-.119-.65-.179-1.178-.179h-1.178v.002zm1.511 2.891h-1.511v2.109h1.56c.981 0 1.472-.357 1.472-1.07 0-.364-.127-.629-.381-.793-.255-.164-.635-.246-1.14-.246z" fill="#809cc9" transform="translate(-50.92 32.547) scale(2.37116)"/><path clip-path="url(#g)" d="M58.295 83.232l1.618 4.799 1.624-4.833a7.61 7.61 0 0 1 .19-.529.709.709 0 0 1 .209-.269c.098-.081.231-.119.4-.119a.69.69 0 0 1 .592.339.603.603 0 0 1 .091.311c0 .071-.01.149-.029.231-.02.084-.044.165-.073.245l-.088.246-1.73 4.681c-.062.179-.124.35-.186.511a2.136 2.136 0 0 1-.215.425.958.958 0 0 1-.324.301.984.984 0 0 1-.494.117.996.996 0 0 1-.495-.115.934.934 0 0 1-.327-.303 2.225 2.225 0 0 1-.217-.428 16.42 16.42 0 0 1-.186-.508l-1.701-4.642a9.134 9.134 0 0 0-.091-.249 1.865 1.865 0 0 1-.077-.264 1.135 1.135 0 0 1-.032-.239c0-.166.066-.317.2-.454a.671.671 0 0 1 .502-.205c.247 0 .422.075.524.227.102.152.208.392.315.724z" fill="#999" transform="translate(-50.92 32.547) scale(2.37116)"/><path clip-path="url(#h)" d="M73.338 83.516h-3.267v1.766h3.008c.221 0 .387.049.496.148.108.1.163.23.163.393a.526.526 0 0 1-.161.398c-.107.102-.273.154-.498.154h-3.008v2.047h3.379c.228 0 .399.052.516.156a.539.539 0 0 1 .173.418.527.527 0 0 1-.173.409c-.116.104-.288.157-.516.157h-3.941c-.316 0-.544-.07-.683-.211-.139-.14-.208-.365-.208-.678v-5.38c0-.208.031-.378.093-.51a.575.575 0 0 1 .291-.288c.132-.06.301-.09.507-.09h3.829c.231 0 .403.051.515.152a.51.51 0 0 1 .169.399.515.515 0 0 1-.169.404c-.112.105-.284.156-.515.156z" fill="#999" transform="translate(-50.92 32.547) scale(2.37116)"/><path clip-path="url(#i)" d="M81.732 86.5h-.507v2.303c0 .303-.066.525-.201.669a.68.68 0 0 1-.523.216c-.231 0-.41-.075-.538-.225-.127-.15-.19-.37-.19-.66v-5.508c0-.312.07-.539.21-.68.14-.14.366-.209.679-.209h2.357c.325 0 .604.014.835.041.23.027.439.083.625.166a1.816 1.816 0 0 1 .988 1.018c.09.233.135.479.135.74 0 .534-.15.96-.451 1.279-.301.319-.758.546-1.369.679.257.137.502.339.736.605.234.268.443.552.628.854.184.301.327.573.429.815.104.243.154.41.154.501 0 .095-.03.188-.09.281a.643.643 0 0 1-.247.22.77.77 0 0 1-.36.081.705.705 0 0 1-.41-.115 1.082 1.082 0 0 1-.285-.291c-.08-.117-.188-.29-.324-.519l-.581-.968a5.415 5.415 0 0 0-.559-.812 1.38 1.38 0 0 0-.5-.381 1.719 1.719 0 0 0-.641-.1zm.83-3.016h-1.336v1.984h1.297c.348 0 .641-.031.878-.092s.419-.164.544-.31c.125-.146.188-.348.188-.604 0-.2-.051-.377-.151-.529a.918.918 0 0 0-.419-.343c-.17-.07-.503-.106-1.001-.106z" fill="#999" transform="translate(-50.92 32.547) scale(2.37116)"/><path clip-path="url(#j)" d="M96.914 87.417c0 .433-.111.822-.334 1.167-.223.345-.549.615-.978.811-.43.195-.938.293-1.527.293-.705 0-1.287-.134-1.745-.4a2.31 2.31 0 0 1-.794-.769c-.204-.321-.306-.633-.306-.936a.63.63 0 0 1 .65-.64c.153 0 .283.049.389.146.106.097.196.243.271.436.091.228.189.418.295.571.106.153.256.279.447.379.193.1.445.149.758.149.431 0 .779-.101 1.049-.301.269-.2.403-.451.403-.75a.79.79 0 0 0-.218-.58 1.411 1.411 0 0 0-.562-.339 9.633 9.633 0 0 0-.921-.249 6.72 6.72 0 0 1-1.292-.424 2.07 2.07 0 0 1-.826-.659c-.204-.278-.306-.625-.306-1.038 0-.395.107-.745.322-1.051.215-.307.525-.542.932-.707.407-.164.886-.246 1.435-.246.439 0 .819.055 1.14.163.32.109.587.255.798.435.212.182.366.371.464.57.098.198.146.393.146.581a.689.689 0 0 1-.183.467.576.576 0 0 1-.454.208c-.165 0-.29-.042-.376-.125a1.634 1.634 0 0 1-.279-.408 1.853 1.853 0 0 0-.47-.633c-.183-.152-.476-.227-.88-.227-.375 0-.677.082-.906.246-.23.165-.345.363-.345.594 0 .144.039.268.117.372.078.104.186.193.323.269.137.075.275.134.415.176.14.043.371.104.694.186.402.095.767.199 1.093.313.326.114.604.252.833.415.229.163.406.369.535.618.129.25.193.556.193.917z" fill="#999" transform="translate(-50.92 32.547) scale(2.37116)"/><path clip-path="url(#k)" d="M102.713 88.803V83.16c0-.293.066-.513.2-.659a.674.674 0 0 1 .52-.22.69.69 0 0 1 .53.217c.136.146.203.365.203.662v5.643c0 .297-.067.518-.203.664a.692.692 0 0 1-.53.221.667.667 0 0 1-.517-.223c-.136-.149-.203-.369-.203-.662z" fill="#999" transform="translate(-50.92 32.547) scale(2.37116)"/><path clip-path="url(#l)" d="M113.428 82.281c.741 0 1.377.15 1.908.451.531.302.934.73 1.207 1.285.272.556.409 1.207.409 1.957 0 .553-.075 1.057-.225 1.51a3.261 3.261 0 0 1-.672 1.177c-.3.332-.667.587-1.103.763a3.992 3.992 0 0 1-1.496.264c-.56 0-1.06-.091-1.501-.271a2.977 2.977 0 0 1-1.107-.765 3.28 3.28 0 0 1-.67-1.187 4.81 4.81 0 0 1-.227-1.5c0-.551.078-1.056.236-1.515.158-.46.386-.851.686-1.173a2.959 2.959 0 0 1 1.092-.74 3.93 3.93 0 0 1 1.463-.256zm2.055 3.684c0-.527-.084-.984-.254-1.37-.168-.386-.409-.679-.723-.876a1.978 1.978 0 0 0-1.079-.297c-.289 0-.556.055-.802.164a1.77 1.77 0 0 0-.633.479 2.299 2.299 0 0 0-.419.803 3.633 3.633 0 0 0-.153 1.098c0 .408.051.778.153 1.109.103.33.247.604.434.822.187.217.401.38.643.488.242.107.508.162.797.162.37 0 .71-.094 1.021-.28.311-.186.557-.475.74-.864.184-.389.275-.87.275-1.438z" fill="#999" transform="translate(-50.92 32.547) scale(2.37116)"/><path clip-path="url(#m)" d="M124.59 83.15l2.798 4.225v-4.264c0-.276.059-.484.178-.623a.594.594 0 0 1 .479-.207c.208 0 .371.068.492.207.119.139.18.346.18.623v5.633c0 .629-.26.943-.78.943a.894.894 0 0 1-.644-.236 1.727 1.727 0 0 1-.254-.286 19.44 19.44 0 0 1-.233-.335l-2.729-4.175v4.199c0 .274-.063.481-.19.621a.63.63 0 0 1-.489.211.624.624 0 0 1-.494-.213c-.124-.142-.186-.348-.186-.618V83.33c0-.234.025-.418.078-.552a.78.78 0 0 1 .309-.359.836.836 0 0 1 .465-.139.81.81 0 0 1 .335.063.79.79 0 0 1 .244.171c.07.072.142.164.216.278.071.116.146.235.225.358z" fill="#999" transform="translate(-50.92 32.547) scale(2.37116)"/><path clip-path="url(#n)" d="M20.979 93.582h108.255" fill="none" stroke="#809cc9" transform="translate(-50.92 32.547) scale(2.37116)"/><g clip-path="url(#o)" fill="#fff" transform="translate(-50.92 32.547) scale(2.37116)"><path d="M26.125 56.078c.279 0 .521.105.728.316.205.205.309.451.309.736 0 .297-.104.548-.309.754a1.018 1.018 0 0 1-.745.308c-.297 0-.548-.103-.753-.309a1.04 1.04 0 0 1-.309-.753c0-.297.103-.545.309-.745.21-.204.467-.307.77-.307zm0 6.803c.279 0 .521.107.728.318.205.207.309.456.309.748s-.104.541-.309.748a1.064 1.064 0 0 1-.745.301 1.075 1.075 0 0 1-.753-.305 1.005 1.005 0 0 1-.228-.336 1.051 1.051 0 0 1-.081-.417 1.058 1.058 0 0 1 1.079-1.057zm3.654-6.803c.28 0 .522.105.728.316.206.205.309.451.309.736 0 .297-.103.548-.309.754a1.014 1.014 0 0 1-.744.308c-.297 0-.549-.103-.754-.309a1.04 1.04 0 0 1-.309-.753c0-.297.103-.545.309-.745.211-.204.468-.307.77-.307zm0 6.803c.28 0 .522.107.728.318.206.207.309.456.309.748s-.103.541-.309.748a1.064 1.064 0 0 1-.744.301 1.075 1.075 0 0 1-.754-.305 1.052 1.052 0 0 1-.309-.753c0-.292.103-.542.309-.748.211-.206.468-.309.77-.309z"/></g></svg>