<svg xmlns="http://www.w3.org/2000/svg" viewBox="0 0 1000 1000" color="#fff" display="block"><path opacity=".8" fill="#a295ae" d="M851.046 149.693 807.453 456.52l-306.826 43.593 43.593-306.826z"/><path opacity=".8" fill="#5d6f6d" d="m149.857 850.582 43.593-306.826 306.827-43.593-43.594 306.826z"/><path opacity=".8" fill="#8cd592" d="m149.86 150.133 306.826 43.593 43.593 306.826-306.826-43.593z"/><path opacity=".8" fill="#665e74" d="m850.632 850.505-306.826-43.593-43.593-306.826 306.826 43.593z"/><path opacity=".8" fill="#3c3647" d="M500.523 995.649 314.389 747.865 500.523 500.08l186.134 247.784z"/><path opacity=".8" fill="#837193" d="M995.47 499.45 747.686 685.584 499.902 499.45l247.784-186.134z"/><path opacity=".8" fill="#a2f4ac" d="m500.027 4.419 186.134 247.784-186.134 247.784-186.134-247.784z"/><path opacity=".8" fill="#7ea685" d="m4.523 500.3 247.784-186.134L500.09 500.3 252.307 686.434z"/><path fill="#3c3647" d="M499.95 382.182 617.766 500 499.95 617.817 382.131 500z"/></svg>