<svg xmlns="http://www.w3.org/2000/svg" width="70" height="70" viewBox="0 0 70 70"><linearGradient id="a" gradientUnits="userSpaceOnUse" x1="1.774" y1="31.273" x2="40.166" y2="31.273"><stop offset="0" stop-color="#905cfb"/><stop offset=".068" stop-color="#776cf9"/><stop offset=".173" stop-color="#5681f7"/><stop offset=".286" stop-color="#3b92f5"/><stop offset=".41" stop-color="#269ff4"/><stop offset=".547" stop-color="#17a9f3"/><stop offset=".711" stop-color="#0faef2"/><stop offset=".968" stop-color="#0cb0f2"/></linearGradient><path d="M39.7 47.9l-6.1-34c-.4-2.4-1.2-4.8-2.7-7.1-2-3.2-5.2-5.4-8.8-6.3C7.9-2.9-2.6 11.3 3.6 23.9l14.8 31.7c.4 1 1 2 1.7 2.9 1.2 1.6 2.8 2.8 4.7 3.4 9.6 3 17.3-5.5 14.9-14z" fill="url(#a)"/><linearGradient id="b" gradientUnits="userSpaceOnUse" x1="5.311" y1="9.669" x2="69.228" y2="43.866"><stop offset="0" stop-color="#905cfb"/><stop offset=".068" stop-color="#776cf9"/><stop offset=".173" stop-color="#5681f7"/><stop offset=".286" stop-color="#3b92f5"/><stop offset=".41" stop-color="#269ff4"/><stop offset=".547" stop-color="#17a9f3"/><stop offset=".711" stop-color="#0faef2"/><stop offset=".968" stop-color="#0cb0f2"/></linearGradient><path d="M67.4 26.5c-1.4-2.2-3.4-3.9-5.7-4.9L25.5 1.7c-1-.5-2.1-1-3.3-1.3C6.7-3.2-4.4 13.8 5.5 27c1.5 2 3.6 3.6 6 4.5L48 47.9c.8.5 1.6.8 2.5 1.1 14 4.4 24.6-10.4 16.9-22.5z" fill="url(#b)"/><linearGradient id="c" gradientUnits="userSpaceOnUse" x1="-19.284" y1="70.82" x2="55.983" y2="33.186"><stop offset="0" stop-color="#3bea62"/><stop offset=".117" stop-color="#31de80"/><stop offset=".302" stop-color="#24cea8"/><stop offset=".484" stop-color="#1ac1c9"/><stop offset=".659" stop-color="#12b7df"/><stop offset=".824" stop-color="#0eb2ed"/><stop offset=".968" stop-color="#0cb0f2"/></linearGradient><path d="M67.4 26.5c-1.8-2.8-4.6-4.8-7.9-5.6-3.5-.8-6.8-.5-9.6.7L11.4 36.1s-.2.1-.6.4C.9 40.4-4 53.3 4 64c1.8 2.4 4.3 4.2 7.1 5 5.3 1.6 10.1 1 14-1.1h.1l37.6-20.1.1-.1c6.6-3.8 9.7-13.1 4.5-21.2z" fill="url(#c)"/><linearGradient id="d" gradientUnits="userSpaceOnUse" x1="38.944" y1="5.85" x2="5.423" y2="77.509"><stop offset="0" stop-color="#3bea62"/><stop offset=".094" stop-color="#2fdb87"/><stop offset=".196" stop-color="#24cea8"/><stop offset=".306" stop-color="#1bc3c3"/><stop offset=".426" stop-color="#14bad8"/><stop offset=".56" stop-color="#10b5e7"/><stop offset=".719" stop-color="#0db1ef"/><stop offset=".968" stop-color="#0cb0f2"/></linearGradient><path d="M50.3 12.8c1.2-2.7 1.1-6-.9-9C48.3 2 46.5.8 44.5.3c-4.5-1.1-8.3 1-10.1 4.2L3.5 42v.1C-.9 47.9-1.6 56.5 4 64c1.8 2.4 4.3 4.2 7.1 5 10.5 3.3 19.3-2.5 22.1-10.8l17.1-45.4z" fill="url(#d)"/><path d="M13.4 13.4h43.2v43.2H13.4z"/><path fill="#fff" d="M17.5 48.5h16.2v2.7H17.5zm5.4-25.8h-5.4v-3.6h14.8v3.6h-5.5V37h-3.9zm9.6 5.4c0-5.1 3.8-9.3 9.3-9.3 3.4 0 5.4 1.1 7.1 2.8l-2.5 2.9c-1.4-1.3-2.8-2-4.6-2-3 0-5.2 2.5-5.2 5.6V28c0 3.1 2.1 5.6 5.2 5.6 2 0 3.3-.8 4.7-2.1L49 34c-1.8 2-3.9 3.2-7.3 3.2-5.3.1-9.2-4-9.2-9.1"/></svg>