<svg xmlns="http://www.w3.org/2000/svg" xmlns:xlink="http://www.w3.org/1999/xlink" height="38.6" width="38.4" xml:space="preserve"><g transform="translate(-16.9 -120.7)"><defs><path d="M16.9 152.2v-30.6c0-.5.4-.8.8-.8h30.5c-.9.9-1.5 2.2-1.5 3.5 0 2.8 2.3 5.1 5.1 5.1 1.4 0 2.6-.6 3.5-1.4v30.5c0 .5-.4.8-.8.8H34.7c8-4.9 9.6-12.1 8.5-15-1.4-3.9 1.4-9.9 1.4-9.9s4.6-1.7 4.6-2.3c0-.3-4.5-.2-4.5-.2-10.8-7.7-15 4-16 8.2-2.5.3-9.2 9.9-9.2 9.9-.8.3-1.7 1-2.6 2.2z" id="a"/></defs><clipPath id="b"><use height="100%" width="100%" xlink:href="#a" overflow="visible"/></clipPath><path clip-path="url(#b)" fill="#36d27e" d="M15.5 119.3h41.3v41.5H15.5z"/></g><g transform="translate(-16.9 -120.7)"><defs><path d="M51.8 127.7c1.9 0 3.5-1.6 3.5-3.5s-1.6-3.5-3.5-3.5-3.5 1.6-3.5 3.5c.1 2 1.6 3.5 3.5 3.5z" id="c"/></defs><clipPath id="d"><use height="100%" width="100%" xlink:href="#c" overflow="visible"/></clipPath><path clip-path="url(#d)" fill="#ff2d2f" d="M46.9 119.3h9.8v9.8h-9.8z"/></g></svg>