<?xml version="1.0" encoding="UTF-8" standalone="no"?>
<svg
   xmlns:sketch="http://www.bohemiancoding.com/sketch/ns"
   xmlns:dc="http://purl.org/dc/elements/1.1/"
   xmlns:cc="http://creativecommons.org/ns#"
   xmlns:rdf="http://www.w3.org/1999/02/22-rdf-syntax-ns#"
   xmlns:svg="http://www.w3.org/2000/svg"
   xmlns="http://www.w3.org/2000/svg"
   xmlns:sodipodi="http://sodipodi.sourceforge.net/DTD/sodipodi-0.dtd"
   xmlns:inkscape="http://www.inkscape.org/namespaces/inkscape"
   width="608px"
   height="160px"
   viewBox="0 0 608 160"
   version="1.1"
   id="svg885"
   sodipodi:docname="tmate.svg"
   inkscape:version="0.92.5 (2060ec1f9f, 2020-04-08)">
  <metadata
     id="metadata889">
    <rdf:RDF>
      <cc:Work
         rdf:about="">
        <dc:format>image/svg+xml</dc:format>
        <dc:type
           rdf:resource="http://purl.org/dc/dcmitype/StillImage" />
        <dc:title>logomark + wordmark</dc:title>
      </cc:Work>
    </rdf:RDF>
  </metadata>
  <sodipodi:namedview
     pagecolor="#ffffff"
     bordercolor="#666666"
     borderopacity="1"
     objecttolerance="10"
     gridtolerance="10"
     guidetolerance="10"
     inkscape:pageopacity="0"
     inkscape:pageshadow="2"
     inkscape:window-width="1880"
     inkscape:window-height="1056"
     id="namedview887"
     showgrid="false"
     inkscape:zoom="2.0230263"
     inkscape:cx="560.53958"
     inkscape:cy="19.63061"
     inkscape:window-x="0"
     inkscape:window-y="0"
     inkscape:window-maximized="1"
     inkscape:current-layer="svg885" />
  <!-- Generator: Sketch 3.3.1 (12005) - http://www.bohemiancoding.com/sketch -->
  <title
     id="title872">logomark + wordmark</title>
  <desc
     id="desc874">Created with Sketch.</desc>
  <defs
     id="defs876" />
  <g
     id="g1539"
     inkscape:export-xdpi="72.058083"
     inkscape:export-ydpi="72.058083">
    <path
       sodipodi:nodetypes="cccsssccssscssssccsssssccccccsccccsscccccccsccsccsssccssccssssscccccccsssss"
       style="stroke-width:1.72759068"
       id="path962"
       d="m 529.29424,84.823233 c 1.86922,-7.025446 -0.16993,-14.753436 -5.60766,-19.846884 L 510.60204,52.857455 c 0.16993,-1.580725 0.33985,-3.16145 0.33985,-4.742176 0,-20.373792 -15.46355,-36.88359 -34.49561,-36.88359 -19.03205,0 -34.4956,16.509798 -34.4956,36.88359 0,2.107634 0.16992,4.039632 0.50978,5.971629 l -12.57475,7.903627 c 1.52936,-4.215268 2.54894,-8.957444 2.54894,-13.69962 0,-20.373792 -15.46355,-36.88359 -34.49561,-36.88359 -19.03207,0 -34.49562,16.509798 -34.49562,36.88359 0,9.835624 3.73845,18.793067 9.51604,25.467241 h -2.54894 c -21.41107,0 -38.91377,18.793067 -38.91377,41.801404 v 86.06171 c 0,10.71381 8.1566,19.31997 18.18242,19.31997 2.54893,0 4.92794,-0.5269 7.13702,-1.58072 v -17.91488 c 0,4.3909 -3.22866,7.90362 -7.13702,7.90362 -3.90838,0 -7.13703,-3.51272 -7.13703,-7.90362 v -86.06172 c 0,-16.685432 12.57476,-30.385051 27.86838,-30.385051 h 42.48227 c 1.01958,0 2.03915,-0.351272 2.8888,-0.878181 l 30.24738,-18.968703 c 2.20908,4.390903 5.09788,8.254899 8.83632,11.416349 l -22.06732,12.963475 v 0 c -0.16993,0.175636 -0.33987,0.351273 -0.50979,0.351273 l -0.33986,0.351272 c -0.16993,0.175636 -0.16993,0.351272 -0.33986,0.351272 -0.16992,0.175636 -0.33985,0.351272 -0.33985,0.526908 -0.16993,0.175637 -0.16993,0.351273 -0.16993,0.351273 -0.16993,0.175636 -0.16993,0.351272 -0.33987,0.526908 0,0.175636 -0.16992,0.351272 -0.16992,0.526908 0,0.175637 -0.16993,0.351273 -0.16993,0.526909 v 0.351272 0.702545 0 15.307831 h 11.21532 V 97.611068 l 24.10647,-14.36856 c 3.39858,1.229453 7.13703,1.931997 10.87546,1.931997 3.90837,0 7.64681,-0.702544 11.21532,-2.107633 l 12.2349,11.416349 c 3.22865,2.985814 7.47688,4.742176 11.7251,4.742176 h 1.35944 c 3.73844,-0.351273 7.30695,-1.756362 10.02582,-4.390903 4.58809,5.444716 7.47688,12.645806 7.47688,20.725066 v 86.06171 c 0,4.3909 -3.22866,7.90362 -7.13702,7.90362 -3.90838,0 -7.13703,-3.51272 -7.13703,-7.90362 v 17.73925 c 2.20908,1.05382 4.58809,1.58072 7.13703,1.58072 10.02581,0 18.18242,-8.7818 18.18242,-19.31997 v -86.06171 c 0.16992,-12.1189 -4.75802,-23.008337 -12.40483,-30.736327 z M 374.48882,48.290915 c 0,-14.050891 10.5356,-25.467241 23.45022,-25.467241 12.91461,0 23.45021,11.240714 23.45021,25.467241 0,14.226528 -10.5356,25.467241 -23.45021,25.467241 -12.91462,0 -23.45022,-11.416349 -23.45022,-25.467241 z m 132.71464,37.586135 -9.51604,-8.781807 c 3.90837,-3.337087 7.13702,-7.376719 9.3461,-12.118894 l 9.17617,8.606171 c 3.05873,2.810178 3.39858,8.079262 0.67972,11.416349 -1.1895,1.580725 -3.05872,2.634542 -4.92794,2.634542 -1.52936,0.175636 -3.22865,-0.351272 -4.75801,-1.756361 z M 452.99607,48.290915 c 0,-14.050891 10.5356,-25.467241 23.45021,-25.467241 12.91461,0 23.45022,11.41635 23.45022,25.467241 0,14.050892 -10.53561,25.467241 -23.45022,25.467241 -12.91461,0 -23.45021,-11.416349 -23.45021,-25.467241 z"
       inkscape:connector-curvature="0" />
    <g
       transform="translate(356.38193,108.35759)"
       sketch:type="MSShapeGroup"
       id="logomark"
       style="fill:none;fill-rule:evenodd;stroke:none;stroke-width:1">
      <g
         style="fill:#1bb91f"
         id="status-bar">
        <path
           inkscape:connector-curvature="0"
           id="Rectangle-5"
           d="m 0,116 h 160 v 28.99613 C 160,153.28254 153.27803,160 145.00153,160 H 14.998465 C 6.7150417,160 0,153.29341 0,144.99613 Z m 0,0 h 160 v 30 H 0 Z" />
      </g>
      <path
         style="fill:#000000"
         inkscape:connector-curvature="0"
         id="screen"
         d="M 83,70 V 0 h -6 v 146 h 6 V 76 h 77 V 70 Z M 0,15.006487 C 0,6.7186329 6.7219649,0 14.998465,0 H 145.00153 C 153.28496,0 160,6.7249195 160,15.006487 V 146 H 0 Z" />
    </g>
  </g>
</svg>
