<svg xmlns="http://www.w3.org/2000/svg" width="256" height="256"><path d="M43.097 201.666c9.606 11.388 26.003 22.495 36.352 18.304 10.35-4.189 14.544-34.827 10.835-38.907-3.71-4.08-23.527-37.284-38.94-32.484-15.412 4.8-17.853 41.699-8.247 53.087zm3.773-84.582c9.403 15.635 37.308 35.38 55.242 28.36 17.934-7.022 5.664-31.634-4.273-47.932-1.436-2.353-2.053-12.26-8.426-20.744-6.374-8.484-16.489-13.998-24.142-11.435-21.703 7.266-28.007 40.362-18.401 51.75zm80.561-6.586c9.606 11.388 11.501 23.08 26.36 22.511 14.86-.57 26.257-35.834 25.844-50.112-.414-14.278-14.07-46.521-38.17-39.684-24.1 6.837-25.033 36.034-14.034 67.285zm58.733 44.948c2.668 14.037 13.807 23.83 30.345 19.295 16.538-4.532 20.876-47.084 17.166-51.164-3.708-4.08-11.107-25.41-26.52-20.61-15.413 4.8-26.874 34.457-20.99 52.48zm-84.737 98.555c22.45 8.903 30.279-14.42 55.062-21.274 24.784-6.854 46.012 4.336 53.2-17.655 9.212-28.185-13.397-23.956-31.534-36.459-18.137-12.503-13.49-26.82-41.508-20.074-30.21 7.273-14.9 37.504-26.63 48.564-17.03 16.06-22.44 41.405-8.59 46.898zM22.38 139.334c1.937 5.33 11.192 10.503 15.979 8.389 4.786-2.115 4.583-7.599 2.352-14.315-2.23-6.715-12.873-15.181-16.578-13.673-3.704 1.508-3.692 14.27-1.754 19.6zm22.426-87.055c1.938 5.329 4.567 14.815 12.078 11.935 7.51-2.88 9.832-8.095 7.601-14.81-2.23-6.716-11.313-16.6-15.017-15.093-3.705 1.508-6.6 12.64-4.662 17.968zm84.266-29.569c1.938 5.329 11.76 14.262 16.547 12.148 4.786-2.115 7.194-12.252 4.963-18.967-2.23-6.716-12.476-17.253-16.18-15.745-3.705 1.508-7.268 17.235-5.33 22.564zm72.072 66.439c1.938 5.329 5.362 10.672 10.15 8.558 4.785-2.114 10.213-6.733 7.984-13.449-2.23-6.715-7.468-22.09-11.174-20.58-3.705 1.507-8.898 20.142-6.96 25.47z" font-size="12" fill="#c00000"/></svg>