<svg xmlns="http://www.w3.org/2000/svg" width="256" height="256"><path d="M58.362 241.684c-12.764-3.43-21.79-11.313-26.607-23.24-2.523-6.244-2.59-7.593-3.155-62.756-.495-48.438-.818-56.527-2.292-57.458-.944-.596-6.632-1.092-12.64-1.101-6.948-.011-11.422-.517-12.295-1.39C.468 94.834 0 89.978 0 81.48c0-15.525-.27-15.25 15.138-15.25 6.807 0 11.213-.5 12.085-1.373.98-.98 1.372-8.26 1.372-25.507 0-17.245.392-24.525 1.373-25.506 1.733-1.733 28.689-1.893 31.873-.189 2.08 1.114 2.212 2.63 2.212 25.507 0 17.392.391 24.714 1.373 25.695.857.858 5.116 1.373 11.356 1.373 13.424 0 13.578.18 13.578 15.866 0 8.02-.475 12.747-1.372 13.644-.858.858-5.116 1.372-11.357 1.372-7.55 0-10.421.438-11.78 1.798-1.578 1.577-1.798 7.732-1.798 50.304 0 42.094.246 49.12 1.857 53.148 2.314 5.782 6.34 7.986 14.59 7.986 9.285 0 9.86.967 9.86 16.585 0 16.703.083 16.61-14.665 16.51-6.089-.041-13.889-.833-17.333-1.758zm48.24.46c-.755-.754-1.372-2.548-1.372-3.986 0-1.513 11.326-19.467 26.913-42.659 14.803-22.025 27.183-40.747 27.512-41.604.329-.858-11.268-19.242-25.77-40.854-14.502-21.612-26.368-40.369-26.368-41.681 0-4.628 1.926-5.131 19.615-5.131h16.87l2.79 3.717c1.535 2.045 9.09 13.91 16.788 26.37 12.905 20.885 14.231 22.624 16.998 22.303 3.303-.382 3.484-.637 23.494-32.946l11.689-18.872 17.255-.316c14.563-.266 17.539-.03 19.08 1.512 1.005 1.005 1.827 2.586 1.827 3.514 0 .929-11.656 19.012-25.903 40.185-14.247 21.174-26.138 39.39-26.423 40.482-.327 1.252 9.525 16.899 26.682 42.373 14.96 22.213 27.41 41.465 27.665 42.78.256 1.317-.389 3.247-1.432 4.29-1.589 1.59-4.521 1.893-18.113 1.879-8.92-.01-16.81-.396-17.536-.858-.725-.462-8.375-11.907-17-25.432-8.625-13.525-16.476-25.492-17.446-26.593-4.339-4.925-5.914-3.308-23.772 24.396-9.358 14.519-17.901 26.872-18.983 27.451-3.022 1.618-33.4 1.34-35.06-.32z" fill="#0063aa"/></svg>