<?xml version="1.0" encoding="UTF-8" standalone="no"?>
<!-- Created with Inkscape (http://www.inkscape.org/) -->

<svg
   xmlns:dc="http://purl.org/dc/elements/1.1/"
   xmlns:cc="http://creativecommons.org/ns#"
   xmlns:rdf="http://www.w3.org/1999/02/22-rdf-syntax-ns#"
   xmlns:svg="http://www.w3.org/2000/svg"
   xmlns="http://www.w3.org/2000/svg"
   xmlns:sodipodi="http://sodipodi.sourceforge.net/DTD/sodipodi-0.dtd"
   xmlns:inkscape="http://www.inkscape.org/namespaces/inkscape"
   id="svg2"
   version="1.1"
   inkscape:version="0.48.5 r10040"
   width="256"
   height="256"
   sodipodi:docname="transifex.png">
  <metadata
     id="metadata8">
    <rdf:RDF>
      <cc:Work
         rdf:about="">
        <dc:format>image/svg+xml</dc:format>
        <dc:type
           rdf:resource="http://purl.org/dc/dcmitype/StillImage" />
        <dc:title></dc:title>
      </cc:Work>
    </rdf:RDF>
  </metadata>
  <defs
     id="defs6" />
  <sodipodi:namedview
     pagecolor="#ffffff"
     bordercolor="#666666"
     borderopacity="1"
     objecttolerance="10"
     gridtolerance="10"
     guidetolerance="10"
     inkscape:pageopacity="0"
     inkscape:pageshadow="2"
     inkscape:window-width="1280"
     inkscape:window-height="683"
     id="namedview4"
     showgrid="false"
     inkscape:zoom="0.87407407"
     inkscape:cx="-8.5805085"
     inkscape:cy="135"
     inkscape:window-x="0"
     inkscape:window-y="0"
     inkscape:window-maximized="1"
     inkscape:current-layer="svg2" />
  <path
     style="fill:#0063aa"
     d="m 58.361693,241.68364 c -12.76414,-3.43004 -21.78952,-11.31301 -26.60697,-23.23917 -2.52238,-6.24445 -2.5902,-7.59367 -3.15459,-62.7564 -0.49558,-48.43773 -0.81835,-56.527311 -2.29249,-57.458291 -0.94363,-0.59594 -6.63116,-1.09142 -12.63896,-1.10105 -6.9488597,-0.0111 -11.4226597,-0.51692 -12.2958197,-1.39007 -0.90508001,-0.90509 -1.37255001002,-5.76089 -1.37255001002,-14.25722 0,-15.52594 -0.27112999998,-15.25275 15.13730971002,-15.25275 6.80688,0 11.21292,-0.50041 12.08506,-1.37255 0.98081,-0.98082 1.37256,-8.26076 1.37256,-25.506681 0,-17.24592 0.39174,-24.525866 1.37255,-25.506676 1.73297,-1.732972 28.68901,-1.892408 31.87276,-0.188517 2.08085,1.113639 2.2124,2.630225 2.2124,25.506676 0,17.392548 0.39107,24.713708 1.37255,25.695198 0.85788,0.85787 5.11623,1.37255 11.35628,1.37255 13.42432,0 13.5785,0.18016 13.5785,15.8661 0,8.01929 -0.47559,12.7469 -1.37255,13.64387 -0.85789,0.85788 -5.11623,1.37255 -11.35627,1.37255 -7.55105,0 -10.42168,0.43796 -11.78112,1.7974 -1.57748,1.577481 -1.79739,7.732141 -1.79739,50.303921 0,42.09413 0.24555,49.12023 1.85747,53.14881 2.31328,5.78145 6.34034,7.98579 14.58909,7.98579 9.28581,0 9.86077,0.96703 9.86077,16.58506 0,16.70325 0.0828,16.61006 -14.66511,16.50978 -6.08868,-0.0414 -13.88874,-0.83265 -17.33348,-1.75833 z m 48.240507,0.46105 c -0.7549,-0.75491 -1.37255,-2.54869 -1.37255,-3.9862 0,-1.51367 11.32676,-19.4672 26.91349,-42.65933 14.80241,-22.02514 27.18263,-40.74713 27.51161,-41.60441 0.32897,-0.85729 -11.2674,-19.24142 -25.76969,-40.85362 -14.5023,-21.612201 -26.36782,-40.368701 -26.36782,-41.681111 0,-4.62763 1.92543,-5.13133 19.6151,-5.13133 l 16.86999,0 2.79023,3.71734 c 1.53462,2.04454 9.0889,13.91077 16.78729,26.36941 12.90533,20.885261 14.23118,22.624931 16.99848,22.304041 3.3026,-0.38294 3.4841,-0.63747 23.49407,-32.946241 l 11.68849,-18.87265 17.25461,-0.31514 c 14.56368,-0.266 17.53946,-0.0303 19.08119,1.51144 1.00462,1.00463 1.82658,2.58615 1.82658,3.5145 0,0.92835 -11.65665,19.01163 -25.90367,40.185071 -14.24703,21.17343 -26.13723,39.39025 -26.42268,40.48181 -0.32735,1.2518 9.5252,16.8983 26.68186,42.37258 14.96047,22.21335 27.40985,41.46477 27.6653,42.78094 0.25544,1.31615 -0.38885,3.24631 -1.43177,4.28924 -1.5893,1.58928 -4.5213,1.89338 -18.11364,1.87871 -8.91957,-0.009 -16.81058,-0.39567 -17.53558,-0.85785 -0.72498,-0.46219 -8.37507,-11.90658 -17.00017,-25.43198 -8.62511,-13.5254 -16.47572,-25.49238 -17.44581,-26.59328 -4.33904,-4.92414 -5.91381,-3.308 -23.77176,24.39638 -9.35874,14.5189 -17.90139,26.87191 -18.98365,27.45113 -3.02217,1.61742 -33.39941,1.34063 -35.0595,-0.31945 z"
     id="path2993"
     inkscape:connector-curvature="0" />
</svg>
