<?xml version="1.0" encoding="UTF-8" standalone="no"?>
<!-- Created with Inkscape (http://www.inkscape.org/) -->

<svg
   xmlns:dc="http://purl.org/dc/elements/1.1/"
   xmlns:cc="http://creativecommons.org/ns#"
   xmlns:rdf="http://www.w3.org/1999/02/22-rdf-syntax-ns#"
   xmlns:svg="http://www.w3.org/2000/svg"
   xmlns="http://www.w3.org/2000/svg"
   xmlns:sodipodi="http://sodipodi.sourceforge.net/DTD/sodipodi-0.dtd"
   xmlns:inkscape="http://www.inkscape.org/namespaces/inkscape"
   id="svg2"
   version="1.1"
   inkscape:version="0.48.5 r10040"
   width="256"
   height="248.75"
   xml:space="preserve"
   sodipodi:docname="TravisCI-Mascot-1.pdf"><metadata
     id="metadata8"><rdf:RDF><cc:Work
         rdf:about=""><dc:format>image/svg+xml</dc:format><dc:type
           rdf:resource="http://purl.org/dc/dcmitype/StillImage" /><dc:title></dc:title></cc:Work></rdf:RDF></metadata><defs
     id="defs6"><clipPath
       clipPathUnits="userSpaceOnUse"
       id="clipPath18"><path
         d="M 0,0 200,0 200,199 0,199 0,0 z"
         id="path20"
         inkscape:connector-curvature="0" /></clipPath><clipPath
       clipPathUnits="userSpaceOnUse"
       id="clipPath104"><path
         d="m 0.06,198.373 199.94,0 0,-198.313 -199.94,0 0,198.313 z"
         id="path106"
         inkscape:connector-curvature="0" /></clipPath><clipPath
       clipPathUnits="userSpaceOnUse"
       id="clipPath110"><path
         d="M 0,0 200,0 200,199 0,199 0,0 z"
         id="path112"
         inkscape:connector-curvature="0" /></clipPath></defs><sodipodi:namedview
     pagecolor="#ffffff"
     bordercolor="#666666"
     borderopacity="1"
     objecttolerance="10"
     gridtolerance="10"
     guidetolerance="10"
     inkscape:pageopacity="0"
     inkscape:pageshadow="2"
     inkscape:window-width="1280"
     inkscape:window-height="683"
     id="namedview4"
     showgrid="false"
     inkscape:zoom="0.94874372"
     inkscape:cx="-7.2801907"
     inkscape:cy="197.78655"
     inkscape:window-x="0"
     inkscape:window-y="0"
     inkscape:window-maximized="1"
     inkscape:current-layer="g10" /><g
     id="g10"
     inkscape:groupmode="layer"
     inkscape:label="TravisCI-Mascot-1"
     transform="matrix(1.25,0,0,-1.25,0,248.75)"><g
       id="g12" /><g
       id="g3138"
       transform="translate(2.3702196,0)"><g
         id="g3095"><g
           id="g14"><g
             id="g16"
             clip-path="url(#clipPath18)"><path
               d="m 47.781,111.801 c 0,0 -31.118,-21.903 -32.335,-30.247 l 2.335,0.48 c 0,0 37.264,24.699 66.803,27.711 l 0.669,3.749 -37.472,-1.693"
               style="fill:#cd2445;fill-opacity:1;fill-rule:nonzero;stroke:none"
               id="path22"
               inkscape:connector-curvature="0" /><path
               d="M 96.629,114.931 72.118,97.546 73.443,96.483 c 0.999,0.806 43.539,13.798 43.539,13.798 l 8.969,5.623 c -6.018,-0.749 -29.322,-0.973 -29.322,-0.973"
               style="fill:#cd2445;fill-opacity:1;fill-rule:nonzero;stroke:none"
               id="path24"
               inkscape:connector-curvature="0" /><path
               d="m 117.932,93.904 c 17.405,0 43.495,17.046 43.495,17.046 l -8.434,1.605 c -0.417,-0.417 -13.6,0.462 -13.6,0.462 l -6.258,1.738 -14.951,-17.036 -1.217,-2.956 c 1.075,0.437 0.965,-0.859 0.965,-0.859"
               style="fill:#cd2445;fill-opacity:1;fill-rule:nonzero;stroke:none"
               id="path26"
               inkscape:connector-curvature="0" /><path
               d="m 44.456,29.335 c -0.12,0.055 -0.241,0.111 -0.361,0.166 -0.856,0.739 -1.556,1.343 -2.013,1.736 l 2.374,-1.902 z m 130.272,10.206 -5.377,-1.514 -24.843,0.537 -15.541,12.085 -18.784,-4.7 -21.726,1.88 L 76.291,34.535 53.463,27.716 42.065,31.25 c -0.363,0.313 -0.574,0.494 -0.574,0.494 l 5.116,-12.527 c 0,0 11.588,-12.424 18.061,-13.885 6.472,-1.461 18.165,0.105 26.935,1.463 8.769,1.357 15.764,4.489 18.582,9.603 2.818,5.117 3.236,6.578 3.236,6.578 0,0 8.353,-11.797 15.556,-13.155 7.203,-1.357 28.605,5.952 28.605,5.952 0,0 13.051,3.549 15.346,8.038 2.297,4.489 8.353,19.209 8.353,19.209 l -6.553,-3.479"
               style="fill:#cd2445;fill-opacity:1;fill-rule:nonzero;stroke:none"
               id="path28"
               inkscape:connector-curvature="0" /><path
               d="m 195.832,128.288 c -0.054,0.671 -0.128,1.342 -0.21,2.009 -0.058,0.473 -0.133,0.967 -0.215,1.424 -1.793,1.509 -3.831,2.851 -5.952,4.071 -2.299,1.343 -4.704,2.546 -7.159,3.663 -2.438,1.15 -4.942,2.191 -7.461,3.207 -1.257,0.51 -2.525,1.005 -3.798,1.477 -1.269,0.495 -2.55,0.956 -3.835,1.424 2.697,-0.447 5.366,-1.059 8.015,-1.741 1.723,-0.446 3.437,-0.945 5.14,-1.477 -12.112,31.655 -41.07,52.27 -72.687,52.27 -31.622,0 -60.577,-20.615 -72.686,-52.27 1.703,0.532 3.417,1.031 5.137,1.477 2.653,0.682 5.323,1.294 8.018,1.741 -1.289,-0.468 -2.567,-0.929 -3.84,-1.424 -1.267,-0.472 -2.536,-0.967 -3.798,-1.477 -2.519,-1.016 -5.016,-2.057 -7.46,-3.207 -2.45,-1.117 -4.857,-2.32 -7.156,-3.663 -2.121,-1.219 -4.157,-2.562 -5.957,-4.071 -0.075,-0.457 -0.151,-0.951 -0.21,-1.424 -0.081,-0.667 -0.155,-1.338 -0.21,-2.009 -0.118,-1.349 -0.166,-2.703 -0.177,-4.061 -0.027,-2.713 0.156,-5.426 0.5,-8.11 0.37,-2.692 0.864,-5.366 1.595,-7.951 0.36,-1.295 0.768,-2.572 1.24,-3.808 0.237,-0.617 0.495,-1.225 0.764,-1.816 0.134,-0.294 0.274,-0.585 0.413,-0.864 l 0.172,-0.328 c 0.199,-0.101 0.408,-0.204 0.607,-0.3 l 1.204,-0.575 c 0.671,-0.305 1.6,-0.746 2.368,-1.09 l 0.123,0.114 -2.235,8.513 c 0.474,0.13 4.718,1.225 12.032,2.617 -0.59,0.112 -1.186,0.241 -1.772,0.381 -1.665,0.414 -3.309,0.919 -4.899,1.564 -0.79,0.333 -1.568,0.697 -2.309,1.115 -0.742,0.426 -1.472,0.908 -2.037,1.548 8.036,-2.622 24.64,-1.434 39.399,0.091 13.499,1.391 27.029,2.293 40.63,2.32 13.602,-0.027 27.137,-0.929 40.63,-2.32 14.766,-1.525 31.37,-2.713 39.405,-0.091 -0.564,-0.64 -1.293,-1.123 -2.035,-1.548 -0.741,-0.418 -1.519,-0.782 -2.308,-1.115 -1.592,-0.645 -3.234,-1.15 -4.899,-1.564 -0.247,-0.059 -0.496,-0.113 -0.743,-0.166 8.02,-1.488 12.689,-2.697 13.188,-2.831 l -2.138,-8.11 c 0.43,0.194 0.864,0.381 1.29,0.574 l 1.202,0.575 c 0.2,0.097 0.403,0.199 0.607,0.3 l 0.166,0.328 c 0.146,0.279 0.286,0.57 0.419,0.864 0.27,0.591 0.528,1.199 0.764,1.816 0.473,1.236 0.882,2.513 1.241,3.808 0.731,2.585 1.225,5.259 1.595,7.951 0.345,2.685 0.526,5.398 0.501,8.11 -0.011,1.356 -0.06,2.71 -0.179,4.059"
               style="fill:#f1f19b;fill-opacity:1;fill-rule:nonzero;stroke:none"
               id="path30"
               inkscape:connector-curvature="0" /><path
               d="m 116.787,15.712 c -1.064,-0.16 -2.128,-0.295 -3.186,-0.375 -0.682,-0.033 -1.404,-0.102 -2.059,-0.102 L 111.3,15.23 c 0.822,1.837 1.446,3.26 1.919,4.339 0.963,-1.08 2.188,-2.417 3.568,-3.857"
               style="fill:#e6c9a2;fill-opacity:1;fill-rule:nonzero;stroke:none"
               id="path32"
               inkscape:connector-curvature="0" /><path
               d="m 119.101,13.355 c 3.304,-3.272 7.398,-5.146 11.904,-5.479 -7.569,-3.074 -14.702,-4.26 -20.197,-4.63 -5.478,-0.367 -11.032,0.279 -16.474,1.771 0.456,0.082 0.79,0.14 1.193,0.189 0.447,0.054 10.206,1.327 14.605,7.868 l 0.413,-0.009 1.08,0.009 c 0.731,0 1.395,0.06 2.094,0.087 1.66,0.144 3.283,0.381 4.878,0.703 0.167,-0.171 0.333,-0.338 0.504,-0.509"
               style="fill:#e6c9a2;fill-opacity:1;fill-rule:nonzero;stroke:none"
               id="path34"
               inkscape:connector-curvature="0" /><path
               d="m 128.464,111.302 c -0.317,-0.413 -0.671,-0.869 -1.048,-1.343 -1.933,-2.444 -4.614,-5.57 -7.794,-8.627 -3.696,0.114 -7.494,0.177 -11.404,0.177 -6.46,0 -12.655,-0.171 -18.537,-0.457 8.311,3.449 18.296,6.818 29.109,8.842 3.158,0.598 6.391,1.076 9.674,1.408"
               style="fill:#5d6762;fill-opacity:1;fill-rule:nonzero;stroke:none"
               id="path36"
               inkscape:connector-curvature="0" /><path
               d="m 79.821,107.581 c -2.966,-2.084 -6.317,-4.744 -9.566,-7.971 -8.321,-0.833 -15.578,-1.842 -21.567,-2.81 9.207,4.232 19.713,8.127 31.133,10.781"
               style="fill:#5d6762;fill-opacity:1;fill-rule:nonzero;stroke:none"
               id="path38"
               inkscape:connector-curvature="0" /><path
               d="m 181.48,90.404 -3.384,-23.679 -16.212,-11.355 -42.283,4.807 -6.365,20.961 c -0.151,0.51 -0.581,0.885 -1.108,0.971 -1.567,0.253 -2.953,0.382 -4.108,0.382 -1.16,0 -2.541,-0.129 -4.115,-0.382 -0.522,-0.086 -0.95,-0.461 -1.106,-0.971 L 96.59,60.688 54.543,51.331 37.881,63.003 34.598,89.575 c 0.715,0.404 1.441,0.806 2.176,1.209 1.031,0.222 2.191,0.457 3.475,0.704 l 3.094,-25.073 c 0.048,-0.392 0.264,-0.741 0.586,-0.967 l 11.462,-8.032 c 0.236,-0.16 0.516,-0.246 0.795,-0.246 0.101,0 0.199,0.01 0.306,0.033 l 34.57,7.692 c 0.119,0.027 0.237,0.069 0.344,0.124 0.322,0.171 0.575,0.466 0.682,0.827 l 6.225,20.498 c 1.67,0.43 5.947,1.429 9.706,1.429 3.749,0 8.03,-0.999 9.701,-1.429 l 6.225,-20.498 c 0.161,-0.532 0.624,-0.912 1.176,-0.977 l 34.57,-3.927 c 0.335,-0.037 0.677,0.05 0.952,0.242 l 11.469,8.025 c 0.31,0.22 0.52,0.566 0.573,0.946 l 3.062,21.421 c 2.301,-0.444 4.224,-0.846 5.733,-1.172"
               style="fill:#5d6762;fill-opacity:1;fill-rule:nonzero;stroke:none"
               id="path40"
               inkscape:connector-curvature="0" /><path
               d="m 185.751,105.254 -2.976,-11.29 c -6.086,1.342 -19.456,3.975 -37.654,5.747 5.946,2.535 12,5.715 17.531,9.69 10.829,-1.53 18.78,-3.169 23.099,-4.147"
               style="fill:#5d6762;fill-opacity:1;fill-rule:nonzero;stroke:none"
               id="path42"
               inkscape:connector-curvature="0" /><path
               d="m 115.498,97.681 c -1.665,-1.349 -3.421,-2.61 -5.249,-3.712 l -6.097,-3.68 c -3.824,-0.466 -7.143,-1.412 -7.331,-1.467 -0.112,-0.031 -0.219,-0.079 -0.317,-0.14 -0.296,-0.171 -0.521,-0.455 -0.629,-0.794 l -6.209,-20.46 -33.185,-7.38 -10.452,7.321 -3.041,24.634 c 5.936,1.09 13.874,2.352 23.41,3.42 -1.022,-1.225 -2.014,-2.508 -2.955,-3.855 l -5.677,-8.149 8.266,5.511 c 0.123,0.086 5.387,3.549 13.998,7.761 8.582,0.644 18.053,1.059 28.188,1.059 2.471,0.001 4.895,-0.027 7.28,-0.069 z M 63.841,69.932 c 2.357,1.274 5.021,1.085 9.19,1.079 0.447,-0.011 0.908,-0.005 1.39,0.005 0.41,0.005 0.822,0.011 1.258,0.022 4.296,0.042 7.869,-0.366 7.806,6.381 -0.065,6.746 -3.062,12.198 -7.354,12.155 -4.297,-0.037 -8.454,-5.564 -8.197,-12.306 0.07,-1.756 0.328,-3.023 0.742,-3.937 -3.745,-0.938 -4.777,-3.254 -4.835,-3.399"
               style="fill:#e4c796;fill-opacity:1;fill-rule:nonzero;stroke:none"
               id="path44"
               inkscape:connector-curvature="0" /><path
               d="m 173.015,92.083 -2.992,-20.944 -10.539,-7.379 -33.141,3.766 -6.183,20.363 c -0.14,0.451 -0.494,0.799 -0.945,0.934 -0.205,0.06 -4.308,1.23 -8.659,1.607 l 0.795,0.053 c 0.687,0.049 12.118,1.451 25.767,6.157 15.115,-1.161 27.458,-3.02 35.897,-4.557 z m -21.18,-19.385 c -0.042,0.16 -0.945,2.873 -4.942,2.397 0.461,1.003 0.666,2.356 0.521,4.21 -0.528,6.731 -4.443,12.08 -8.735,11.931 -4.292,-0.152 -7.042,-5.731 -6.805,-12.478 0.236,-6.741 3.84,-6.694 8.132,-6.543 5.77,0.107 8.939,1.88 11.829,0.483"
               style="fill:#e4c796;fill-opacity:1;fill-rule:nonzero;stroke:none"
               id="path46"
               inkscape:connector-curvature="0" /><path
               d="m 115.498,97.681 c -1.665,-1.349 -3.421,-2.61 -5.249,-3.712 l -6.097,-3.68 c -3.824,-0.466 -7.143,-1.412 -7.331,-1.467 -0.112,-0.031 -0.219,-0.079 -0.317,-0.14 -0.296,-0.171 -0.521,-0.455 -0.629,-0.794 l -6.209,-20.46 -33.185,-7.38 -10.452,7.321 -3.041,24.634 c 5.936,1.09 13.874,2.352 23.41,3.42 -1.022,-1.225 -2.014,-2.508 -2.955,-3.855 l -5.677,-8.149 8.266,5.511 c 0.123,0.086 5.387,3.549 13.998,7.761 8.582,0.644 18.053,1.059 28.188,1.059 2.471,0.001 4.895,-0.027 7.28,-0.069 z M 63.841,69.932 c 2.357,1.274 5.021,1.085 9.19,1.079 0.447,-0.011 0.908,-0.005 1.39,0.005 0.41,0.005 0.822,0.011 1.258,0.022 4.296,0.042 7.869,-0.366 7.806,6.381 -0.065,6.746 -3.062,12.198 -7.354,12.155 -4.297,-0.037 -8.454,-5.564 -8.197,-12.306 0.07,-1.756 0.328,-3.023 0.742,-3.937 -3.745,-0.938 -4.777,-3.254 -4.835,-3.399"
               style="fill:#c4af90;fill-opacity:1;fill-rule:nonzero;stroke:none"
               id="path48"
               inkscape:connector-curvature="0" /><path
               d="m 173.015,92.083 -2.992,-20.944 -10.539,-7.379 -33.141,3.766 -6.183,20.363 c -0.14,0.451 -0.494,0.799 -0.945,0.934 -0.205,0.06 -4.308,1.23 -8.659,1.607 l 0.795,0.053 c 0.687,0.049 12.118,1.451 25.767,6.157 15.115,-1.161 27.458,-3.02 35.897,-4.557 z m -21.18,-19.385 c -0.042,0.16 -0.945,2.873 -4.942,2.397 0.461,1.003 0.666,2.356 0.521,4.21 -0.528,6.731 -4.443,12.08 -8.735,11.931 -4.292,-0.152 -7.042,-5.731 -6.805,-12.478 0.236,-6.741 3.84,-6.694 8.132,-6.543 5.77,0.107 8.939,1.88 11.829,0.483"
               style="fill:#c4af90;fill-opacity:1;fill-rule:nonzero;stroke:none"
               id="path50"
               inkscape:connector-curvature="0" /><path
               d="m 187.481,82.871 c 0.508,-0.419 0.911,-1.504 0.456,-6.558 -0.559,-6.188 -3.16,-17.049 -4.771,-18.8 -1.778,-0.344 -5.505,0.064 -7.778,0.595 0.393,1.559 0.505,2.306 0.822,3.9 l 3.975,2.781 c 0.317,0.22 0.526,0.566 0.58,0.941 l 2.778,19.466 c 1.686,-0.912 3.421,-1.899 3.938,-2.325"
               style="fill:#e6c9a2;fill-opacity:1;fill-rule:nonzero;stroke:none"
               id="path52"
               inkscape:connector-curvature="0" /><path
               d="m 40.937,57.465 c 0.199,-0.704 0.408,-1.407 0.624,-2.1 -2.139,-0.628 -6.495,-1.23 -8.465,-0.886 -1.633,1.645 -4.679,12.966 -5.345,18.978 -0.543,4.871 -0.162,5.924 0.333,6.334 0.575,0.483 2.728,1.708 4.593,2.707 l 2.519,-20.449 c 0.048,-0.393 0.257,-0.741 0.586,-0.967 l 5.155,-3.617"
               style="fill:#e6c9a2;fill-opacity:1;fill-rule:nonzero;stroke:none"
               id="path54"
               inkscape:connector-curvature="0" /><path
               d="m 121.347,57.179 -0.151,-1.305 c 0,0 -4.581,-4.248 -11.956,-5.199 -7.375,-0.95 -13.171,3.582 -13.171,3.582 0.242,-0.788 0.586,-2.567 2.256,-4.086 -1.965,0.235 -4.087,0.393 -6.313,0.393 -0.804,0 -1.616,-0.023 -2.401,-0.061 -4.539,-0.237 -10.924,-7.1 -15.414,-14.014 -2.203,-0.697 -9.089,-2.883 -17.06,-5.237 -7.44,10.309 -11.098,20.842 -11.469,21.932 l 0.005,0.006 c -0.15,0.419 -0.301,0.839 -0.441,1.268 l 1.913,-1.338 0,-0.005 4.726,-3.309 1.58,-1.101 c 0.236,-0.167 0.515,-0.253 0.794,-0.253 0.102,0 0.204,0.011 0.305,0.031 l 43.435,9.67 c 0.487,0.107 0.881,0.473 1.025,0.95 l 6.194,20.39 c 1.069,0.145 2.008,0.22 2.814,0.22 0.801,0 1.746,-0.075 2.815,-0.22 l 6.374,-20.997 c 0.162,-0.532 0.624,-0.919 1.171,-0.977 l 2.969,-0.34"
               style="fill:#e6c9a2;fill-opacity:1;fill-rule:nonzero;stroke:none"
               id="path56"
               inkscape:connector-curvature="0" /><path
               d="m 170.926,58.307 1.402,0.984 c -0.232,-0.973 -0.484,-1.94 -0.747,-2.896 -1.949,-6.248 -4.25,-11.774 -6.805,-16.656 -0.565,-0.039 -1.161,-0.061 -1.8,-0.061 -1.972,0 -3.986,0.167 -6.215,0.371 -3.868,0.355 -10.007,1.058 -11.946,1.283 -1.67,1.332 -7.385,5.873 -12.14,9.615 -0.187,0.151 -0.348,0.291 -0.505,0.42 -0.837,0.708 -1.789,1.513 -3.717,1.513 -1.751,0 -4.308,-0.638 -10.489,-2.508 3.212,2.401 3.233,5.5 3.233,5.5 l 0.151,1.305 40.748,-4.629 c 0.332,-0.038 0.676,0.048 0.955,0.241 l 4.094,2.868 3.781,2.65"
               style="fill:#e6c9a2;fill-opacity:1;fill-rule:nonzero;stroke:none"
               id="path58"
               inkscape:connector-curvature="0" /><path
               d="m 140.937,144.036 c 0.124,-3.625 0.033,-10.194 -1.655,-16.345 -0.068,-0.237 -0.058,-0.479 0,-0.704 -2.148,0.226 -4.297,0.419 -6.446,0.591 2.412,5.054 2.938,10.436 3.052,12.332 1.852,1.317 3.696,2.896 5.049,4.126"
               style="fill:#e9d586;fill-opacity:1;fill-rule:nonzero;stroke:none"
               id="path60"
               inkscape:connector-curvature="0" /><path
               d="m 79.456,139.911 c 0.112,-1.896 0.638,-7.267 3.046,-12.317 -2.149,-0.171 -4.297,-0.37 -6.441,-0.596 0.058,0.221 0.065,0.457 0,0.694 -1.686,6.139 -1.772,12.714 -1.654,16.345 1.353,-1.231 3.19,-2.81 5.049,-4.126"
               style="fill:#e9d586;fill-opacity:1;fill-rule:nonzero;stroke:none"
               id="path62"
               inkscape:connector-curvature="0" /><path
               d="m 138.347,82.576 c 1.209,0.027 2.175,1.026 2.154,2.235 -0.021,1.214 -1.02,2.181 -2.235,2.153 -1.213,-0.02 -2.175,-1.02 -2.152,-2.234 0.021,-1.208 1.02,-2.176 2.233,-2.154 z m 13.488,-9.878 c -2.89,1.396 -6.059,-0.377 -11.828,-0.484 -4.292,-0.151 -7.896,-0.198 -8.132,6.543 -0.237,6.747 2.513,12.326 6.805,12.478 4.292,0.15 8.207,-5.2 8.735,-11.931 0.145,-1.854 -0.06,-3.207 -0.521,-4.21 3.996,0.477 4.899,-2.235 4.941,-2.396"
               style="fill:#2a2c31;fill-opacity:1;fill-rule:nonzero;stroke:none"
               id="path64"
               inkscape:connector-curvature="0" /><path
               d="m 138.266,86.972 c 1.211,0.022 2.211,-0.942 2.233,-2.153 0.022,-1.212 -0.942,-2.212 -2.153,-2.234 -1.212,-0.022 -2.212,0.942 -2.234,2.153 -0.022,1.212 0.942,2.212 2.154,2.234"
               style="fill:#f1fafc;fill-opacity:1;fill-rule:nonzero;stroke:none"
               id="path66"
               inkscape:connector-curvature="0" /><path
               d="m 76.85,80.949 c 1.209,0.031 2.165,1.043 2.133,2.251 -0.033,1.214 -1.041,2.17 -2.25,2.137 -1.215,-0.031 -2.172,-1.041 -2.139,-2.25 0.032,-1.215 1.042,-2.171 2.256,-2.138 z m 6.634,-3.529 c 0.063,-6.747 -3.509,-6.339 -7.806,-6.381 -0.435,-0.011 -0.848,-0.016 -1.258,-0.022 -0.482,-0.011 -0.944,-0.016 -1.39,-0.005 -4.168,0.005 -6.833,0.194 -9.19,-1.079 0.058,0.145 1.09,2.461 4.835,3.4 -0.414,0.914 -0.673,2.181 -0.742,3.937 -0.257,6.741 3.9,12.269 8.197,12.306 4.292,0.042 7.289,-5.411 7.354,-12.156"
               style="fill:#2a2c31;fill-opacity:1;fill-rule:nonzero;stroke:none"
               id="path68"
               inkscape:connector-curvature="0" /><path
               d="m 76.736,85.334 c 1.212,0.031 2.22,-0.926 2.251,-2.138 0.031,-1.212 -0.926,-2.219 -2.138,-2.251 -1.212,-0.031 -2.219,0.926 -2.251,2.138 -0.031,1.212 0.926,2.22 2.138,2.251"
               style="fill:#f1fafc;fill-opacity:1;fill-rule:nonzero;stroke:none"
               id="path70"
               inkscape:connector-curvature="0" /><path
               d="m 49.52,122.515 -0.499,0.941 -0.019,2.473 1.299,14.699 22.562,5.464 1.404,-18.97 c -1.093,1.483 -2.731,4.84 -3.746,9.446 -0.543,2.46 -2.287,3.161 -4.295,3.161 -1.751,0 -3.702,-0.534 -5.229,-0.897 -3.28,-0.781 -7.574,-1.874 -8.276,-3.591 -1.363,-3.331 -2.03,-12.023 -2.03,-12.023 l -1.171,-0.703"
               style="fill:#ebdb8b;fill-opacity:1;fill-rule:nonzero;stroke:none"
               id="path72"
               inkscape:connector-curvature="0" /><path
               d="m 166.026,122.515 -1.171,0.703 c 0,0 -0.666,8.692 -2.029,12.023 -0.703,1.717 -4.997,2.81 -8.275,3.591 -1.528,0.363 -3.48,0.897 -5.231,0.897 -2.008,0 -3.752,-0.701 -4.295,-3.161 -1.013,-4.606 -2.654,-7.963 -3.748,-9.446 l 1.407,18.97 22.562,-5.464 1.107,-12.53 -0.041,-5.042 -0.286,-0.541"
               style="fill:#ebdb8b;fill-opacity:1;fill-rule:nonzero;stroke:none"
               id="path74"
               inkscape:connector-curvature="0" /><path
               d="m 130.726,125.92 -45.482,0.084 -2.357,5.307 -1.685,9.096 -3.707,2.947 -0.085,21.183 5.22,15.438 c 0,0 0.858,-45.47 11.484,-45.47 10.626,0 12.752,0 12.752,0 l 2.125,0 c 0,0 2.124,0 12.75,0 10.626,0 11.224,45.49 11.224,45.49 l 6.912,-25.5 -5.023,-14.341 -0.254,-4.043 -1.769,-6.4 -2.105,-3.791"
               style="fill:#ebdc8c;fill-opacity:1;fill-rule:nonzero;stroke:none"
               id="path76"
               inkscape:connector-curvature="0" /><path
               d="m 176.975,117.8 c 0,0 -0.643,0.314 -2.572,1.257 0,0 2.573,-1.257 2.572,-1.257 m -2.572,1.257 -8.103,2.444 0.012,1.555 0.417,0.786 -0.376,4.256 0.076,9.481 c 0,0 2.187,-15.692 7.974,-18.522"
               style="fill:#ebdc8c;fill-opacity:1;fill-rule:nonzero;stroke:none"
               id="path78"
               inkscape:connector-curvature="0" /><path
               d="m 166.312,123.056 0.041,5.042 0.376,-4.256 -0.417,-0.786"
               style="fill:#ead687;fill-opacity:1;fill-rule:nonzero;stroke:none"
               id="path80"
               inkscape:connector-curvature="0" /><path
               d="m 38.361,117.8 c -10e-4,0 2.572,1.257 2.572,1.257 -1.929,-0.943 -2.572,-1.257 -2.572,-1.257 m 2.572,1.257 c 5.788,2.83 7.975,18.522 7.975,18.522 l 0.094,-11.65 -0.185,-2.087 0.204,-0.386 0.016,-1.955 -8.104,-2.444"
               style="fill:#ebdc8c;fill-opacity:1;fill-rule:nonzero;stroke:none"
               id="path82"
               inkscape:connector-curvature="0" /><path
               d="m 49.021,123.456 -0.204,0.386 0.185,2.087 0.019,-2.473"
               style="fill:#ead687;fill-opacity:1;fill-rule:nonzero;stroke:none"
               id="path84"
               inkscape:connector-curvature="0" /><path
               d="m 73.568,126.73 -0.098,0.247 c -1.975,7.187 -1.889,14.723 -1.712,18.199 l -20.514,-5.833 c -1.38,-8.982 -0.736,-15.583 -0.597,-16.797 1.703,0.462 3.411,0.887 5.131,1.284 2.835,0.628 5.693,1.154 8.556,1.638 2.869,0.478 5.747,0.843 8.626,1.192 0.205,0.027 0.404,0.042 0.608,0.07 z m 8.933,0.864 c -2.408,5.05 -2.934,10.422 -3.046,12.317 -1.858,1.316 -3.696,2.895 -5.049,4.125 -0.119,-3.631 -0.032,-10.206 1.654,-16.345 0.065,-0.237 0.058,-0.473 0,-0.694 2.145,0.227 4.292,0.425 6.441,0.597 z m 56.78,0.098 c 1.688,6.15 1.779,12.72 1.655,16.345 -1.353,-1.23 -3.197,-2.809 -5.049,-4.125 -0.114,-1.896 -0.64,-7.278 -3.052,-12.332 2.149,-0.173 4.298,-0.366 6.446,-0.591 -0.058,0.224 -0.068,0.465 0,0.703 z m 25.409,-5.151 c 0.14,1.207 0.789,7.809 -0.591,16.801 l -20.52,5.833 c 0.184,-3.475 0.265,-11.012 -1.707,-18.199 l -0.101,-0.258 c 0.203,-0.021 0.408,-0.037 0.606,-0.064 5.769,-0.661 11.511,-1.584 17.189,-2.83 1.712,-0.398 3.426,-0.823 5.124,-1.283 z m 3.297,-0.968 c 2.755,-0.902 5.526,-1.858 8.036,-3.325 -1.343,0.532 -2.729,0.913 -4.126,1.257 -1.391,0.355 -2.793,0.655 -4.201,0.924 -2.82,0.531 -5.65,0.982 -8.498,1.327 -2.841,0.37 -5.687,0.682 -8.546,0.924 -2.858,0.241 -5.709,0.483 -8.573,0.65 -11.446,0.704 -22.924,0.88 -34.41,0.892 -11.483,-0.006 -22.962,-0.221 -34.409,-0.897 -2.862,-0.166 -5.715,-0.409 -8.572,-0.651 -2.857,-0.241 -5.71,-0.548 -8.546,-0.923 -2.847,-0.345 -5.678,-0.796 -8.498,-1.327 -1.407,-0.264 -2.81,-0.57 -4.206,-0.919 -1.391,-0.344 -2.783,-0.725 -4.126,-1.257 2.509,1.466 5.28,2.427 8.041,3.331 0.232,0.075 0.467,0.139 0.703,0.214 l -0.043,0.177 c -0.048,0.317 -1.069,7.859 0.709,18.645 0.086,0.516 0.456,0.935 0.962,1.075 l 2.917,0.831 c 0.634,22.625 9.952,33.266 10.243,33.594 -8.326,-13.397 -8.25,-29.286 -8.106,-32.986 l 18.128,5.152 0.042,0.01 0.226,0.032 0.075,0.006 c 0.092,0.005 0.195,-0.006 0.297,-0.027 l 0.053,-0.016 0.224,-0.075 0.086,-0.049 0.177,-0.112 0.049,-0.033 0.032,-0.032 0.054,-0.044 c 0.012,-0.016 0.494,-0.493 1.262,-1.209 -0.182,5.973 0.102,23.108 8.262,37.31 -0.172,-0.498 -6.646,-19.428 -4.415,-40.645 0.724,-0.58 1.486,-1.149 2.229,-1.649 0.359,-0.247 0.58,-0.655 0.585,-1.09 0.006,-0.07 0.161,-6.833 3.148,-12.586 0.042,-0.086 0.074,-0.177 0.102,-0.268 7.429,0.505 14.878,0.709 22.312,0.714 7.436,-0.005 14.88,-0.22 22.307,-0.731 0.027,0.097 0.06,0.193 0.109,0.285 2.986,5.753 3.142,12.516 3.142,12.586 0.01,0.436 0.231,0.843 0.591,1.09 0.741,0.5 1.493,1.069 2.224,1.649 2.234,21.217 -4.24,40.147 -4.411,40.645 8.153,-14.201 8.444,-31.336 8.262,-37.31 0.762,0.715 1.246,1.192 1.261,1.209 l 0.053,0.044 0.033,0.032 0.049,0.033 0.177,0.118 0.081,0.043 0.236,0.08 0.049,0.011 c 0.096,0.021 0.2,0.032 0.296,0.027 l 0.07,-0.006 0.231,-0.032 0.042,-0.01 18.129,-5.152 c 0.146,3.7 0.221,19.59 -8.104,32.986 0.289,-0.328 9.609,-10.969 10.237,-33.594 l 2.922,-0.831 c 0.499,-0.14 0.875,-0.559 0.962,-1.075 1.777,-10.786 0.752,-18.328 0.708,-18.645 l -0.042,-0.182 c 0.239,-0.07 0.47,-0.139 0.707,-0.215"
               style="fill:#2a2c31;fill-opacity:1;fill-rule:nonzero;stroke:none"
               id="path86"
               inkscape:connector-curvature="0" /><path
               d="m 125.667,165.992 0,9.789 -35.224,0 0,-9.789 4.816,0 0,4.974 9.964,0 0,-30.225 -4.1,0 0,-5.606 13.865,0 0,5.606 -4.1,0 0,30.225 9.964,0 0,-4.974 4.815,0 z m 3.626,13.408 0,-17.025 -12.068,0 0,4.974 -2.72,0 0,-22.981 4.109,0 0,-12.85 -21.109,0 0,12.85 4.092,0 0,22.98 -2.711,0 0,-4.974 -12.06,0 0,17.026 42.467,0"
               style="fill:#2a2c31;fill-opacity:1;fill-rule:nonzero;stroke:none"
               id="path88"
               inkscape:connector-curvature="0" /><path
               d="m 125.667,175.782 0,-9.79 -4.816,0 0,4.974 -9.964,0 0,-30.225 4.1,0 0,-5.606 -13.864,0 0,5.606 4.1,0 0,30.225 -9.964,0 0,-4.974 -4.816,0 0,9.79 35.224,0"
               style="fill:#cd2445;fill-opacity:1;fill-rule:nonzero;stroke:none"
               id="path90"
               inkscape:connector-curvature="0" /><path
               d="m 30.694,105.254 c 1.759,0.399 4.136,0.907 7.051,1.47 -1.791,-1.221 -3.909,-2.754 -6.222,-4.597 l -0.829,3.127"
               style="fill:#5d6762;fill-opacity:1;fill-rule:nonzero;stroke:none"
               id="path92"
               inkscape:connector-curvature="0" /><path
               d="m 95.111,58.593 c 0,0 0.492,-3.165 -3.938,-4.519 -4.428,-1.355 -32.482,-9.716 -35.682,-9.263 -3.199,0.451 -11.319,5.874 -11.319,5.874 l -1.969,7.004 12.016,-7.492 40.892,8.396"
               style="fill:#c4af90;fill-opacity:1;fill-rule:nonzero;stroke:none"
               id="path94"
               inkscape:connector-curvature="0" /><path
               d="m 120.242,59.206 c 0,0 -0.354,-3.182 4.131,-4.345 4.484,-1.161 32.875,-8.295 36.05,-7.704 3.176,0.591 11.053,6.361 11.053,6.361 l 1.663,7.084 -11.045,-6.588 -41.852,5.192"
               style="fill:#c4af90;fill-opacity:1;fill-rule:nonzero;stroke:none"
               id="path96"
               inkscape:connector-curvature="0" /><path
               d="m 28.412,64.417 c 0,0 3.887,-7.775 10.166,-5.083 l 4.485,-1.645 -0.448,-3.29 -9.419,-1.195 -2.541,1.494 -2.243,9.719"
               style="fill:#c4af90;fill-opacity:1;fill-rule:nonzero;stroke:none"
               id="path98"
               inkscape:connector-curvature="0" /></g></g></g><g
         id="g100"><g
           clip-path="url(#clipPath104)"
           id="g102"><g
             clip-path="url(#clipPath110)"
             id="g108"><path
               inkscape:connector-curvature="0"
               id="path114"
               style="fill:#c4af90;fill-opacity:1;fill-rule:nonzero;stroke:none"
               d="m 187.551,66.551 c 0,0 -6.353,-8.115 -12.632,-5.424 l -2.019,-1.302 0.448,-3.289 9.419,-1.196 2.54,1.495 2.244,9.716" /><path
               inkscape:connector-curvature="0"
               id="path116"
               style="fill:#c4af90;fill-opacity:1;fill-rule:nonzero;stroke:none"
               d="m 89.279,5.469 c 0,0 23.03,-11.611 49.106,4.188 l -8.374,0.571 c 0,0 -18.272,-7.232 -32.738,-3.235 L 89.279,5.469" /><path
               inkscape:connector-curvature="0"
               id="path118"
               style="fill:#2a2c31;fill-opacity:1;fill-rule:nonzero;stroke:none"
               d="m 37.745,106.724 c -2.915,-0.564 -5.292,-1.071 -7.051,-1.47 l 0.829,-3.127 c 2.313,1.844 4.431,3.376 6.222,4.597 z m 3.815,-51.36 c -0.218,0.693 -0.424,1.398 -0.621,2.102 l -5.162,3.612 c -0.327,0.228 -0.534,0.575 -0.586,0.969 l -2.516,20.449 c -1.864,-0.999 -4.017,-2.225 -4.592,-2.707 -0.497,-0.409 -0.875,-1.46 -0.336,-6.332 0.668,-6.01 3.712,-17.333 5.348,-18.979 1.968,-0.347 6.327,0.258 8.465,0.886 z m 30.85,54.197 c 3.825,1.072 7.771,2.009 11.813,2.796 -5.798,-0.212 -11.6,-0.481 -17.393,-0.808 -3.366,-0.186 -6.715,-0.414 -10.065,-0.667 -1.678,-0.129 -3.345,-0.263 -5.007,-0.445 -0.476,-0.046 -0.942,-0.098 -1.418,-0.16 -4.369,-2.614 -21.127,-13.134 -32.631,-26.889 11.179,7.769 30.654,19.443 54.701,26.173 z m -2.159,-9.949 c 3.251,3.225 6.605,5.886 9.567,7.967 -11.415,-2.651 -21.923,-6.543 -31.128,-10.778 5.989,0.968 13.242,1.977 21.561,2.811 z m 43.814,13.144 c -2.31,0.036 -4.623,0.057 -6.933,0.062 l -0.005,0 c -3.39,-0.005 -6.787,-0.041 -10.189,-0.109 l -6.269,-2.971 -0.088,-0.048 c -0.942,-0.46 -9.174,-4.613 -16.919,-12.021 6.943,3.65 17.146,8.418 29.153,12.115 3.597,1.102 7.366,2.118 11.25,2.972 z m -3.816,-18.788 c 1.827,1.103 3.582,2.366 5.249,3.712 -2.387,0.041 -4.809,0.072 -7.278,0.072 -10.137,0 -19.606,-0.415 -28.189,-1.061 -8.61,-4.209 -13.875,-7.672 -13.998,-7.76 l -8.268,-5.514 5.679,8.149 c 0.937,1.353 1.931,2.636 2.956,3.857 -9.536,-1.066 -17.477,-2.329 -23.41,-3.422 l 3.038,-24.632 10.453,-7.321 33.184,7.378 6.212,20.464 c 0.104,0.337 0.331,0.621 0.627,0.793 0.098,0.063 0.202,0.109 0.315,0.14 0.192,0.052 3.51,0.999 7.336,1.465 l 6.094,3.68 z m 3.354,-78.632 c 1.056,0.083 2.117,0.218 3.184,0.378 -1.383,1.438 -2.604,2.775 -3.568,3.857 -0.471,-1.082 -1.096,-2.505 -1.92,-4.339 l 0.243,0 c 0.658,-10e-4 1.378,0.071 2.061,0.104 z m 17.4,-7.461 c -4.503,0.332 -8.598,2.205 -11.903,5.477 -0.171,0.175 -0.336,0.343 -0.502,0.512 -1.598,-0.321 -3.219,-0.559 -4.881,-0.704 -0.698,-0.026 -1.361,-0.087 -2.091,-0.087 l -1.083,-0.011 -0.413,0.011 C 105.734,6.534 95.971,5.26 95.525,5.203 95.122,5.157 94.791,5.1 94.334,5.017 c 5.442,-1.491 10.996,-2.138 16.474,-1.77 5.492,0.367 12.627,1.558 20.195,4.628 z m -3.587,102.085 c 0.377,0.471 0.729,0.926 1.044,1.34 -3.281,-0.331 -6.512,-0.808 -9.67,-1.408 -10.814,-2.024 -20.801,-5.389 -29.11,-8.837 5.887,0.285 12.078,0.455 18.54,0.455 3.908,0 7.708,-0.067 11.404,-0.176 3.179,3.056 5.861,6.182 7.792,8.626 z m 29.876,0.926 -0.031,0.012 c -3.272,0.243 -6.543,0.466 -9.826,0.651 -4.555,0.26 -9.112,0.477 -13.667,0.668 -0.265,-0.394 -0.802,-1.17 -1.574,-2.225 -2.479,-3.355 -7.398,-9.51 -13.704,-14.729 8.926,1.6 24.409,5.56 37.803,14.905 0.336,0.238 0.668,0.486 0.999,0.718 z m 15.034,-51.593 -1.404,-0.983 -3.779,-2.651 -4.095,-2.868 c -0.279,-0.192 -0.621,-0.28 -0.954,-0.243 l -40.746,4.633 -2.966,0.337 c -0.549,0.063 -1.01,0.446 -1.171,0.977 l -6.377,20.998 c -1.066,0.145 -2.014,0.219 -2.81,0.219 -0.809,0 -1.751,-0.073 -2.817,-0.219 L 99.015,59.101 C 98.87,58.625 98.477,58.262 97.99,58.155 L 54.555,48.483 c -0.103,-0.02 -0.206,-0.03 -0.305,-0.03 -0.279,0 -0.559,0.083 -0.798,0.253 l -1.578,1.098 -4.726,3.307 0,0.011 -1.91,1.335 c 0.135,-0.43 0.289,-0.85 0.441,-1.268 l -0.006,-0.006 c 0.368,-1.092 4.028,-11.622 11.467,-21.929 7.967,2.35 14.858,4.535 17.057,5.234 4.488,6.917 10.877,13.777 15.418,14.014 0.781,0.037 1.595,0.061 2.402,0.061 2.221,0 4.344,-0.16 6.31,-0.393 -1.671,1.517 -2.013,3.298 -2.256,4.085 0,0 5.793,-4.53 13.17,-3.584 7.378,0.953 11.959,5.204 11.959,5.204 0,0 -0.021,-3.102 -3.236,-5.503 6.182,1.869 8.739,2.511 10.489,2.511 1.931,0 2.883,-0.808 3.717,-1.519 0.161,-0.129 0.322,-0.268 0.507,-0.419 4.753,-3.742 10.468,-8.283 12.141,-9.614 1.936,-0.227 8.075,-0.926 11.943,-1.283 2.23,-0.201 4.245,-0.372 6.217,-0.372 0.637,0 1.233,0.026 1.797,0.063 2.558,4.88 4.857,10.411 6.808,16.653 0.261,0.96 0.516,1.928 0.743,2.901 z m -2.303,11.845 2.992,20.948 c -8.439,1.536 -20.78,3.394 -35.897,4.554 -13.647,-4.707 -25.077,-6.108 -25.766,-6.155 l -0.797,-0.057 c 4.353,-0.374 8.454,-1.544 8.66,-1.605 0.452,-0.135 0.804,-0.481 0.944,-0.933 l 6.186,-20.366 33.138,-3.764 10.54,7.378 z m 8.07,-4.411 3.385,23.676 c -1.506,0.326 -3.431,0.729 -5.731,1.169 L 172.688,70.15 c -0.057,-0.378 -0.265,-0.725 -0.575,-0.943 l -11.472,-8.023 c -0.27,-0.192 -0.616,-0.28 -0.947,-0.243 l -34.572,3.929 c -0.554,0.063 -1.015,0.446 -1.176,0.973 l -6.227,20.5 c -1.668,0.431 -5.949,1.43 -9.696,1.43 -3.764,0 -8.041,-0.999 -9.708,-1.43 l -6.228,-20.5 C 91.978,65.487 91.729,65.19 91.405,65.021 91.301,64.964 91.182,64.923 91.062,64.896 L 56.49,57.204 c -0.109,-0.022 -0.202,-0.033 -0.306,-0.033 -0.279,0 -0.559,0.083 -0.792,0.25 L 43.925,65.45 c -0.321,0.223 -0.534,0.575 -0.585,0.968 L 40.249,91.49 C 38.965,91.241 37.806,91.003 36.77,90.787 36.036,90.382 35.31,89.978 34.596,89.574 l 3.281,-26.568 16.666,-11.675 42.047,9.354 6.207,20.449 c 0.156,0.514 0.585,0.892 1.108,0.975 1.574,0.253 2.95,0.382 4.116,0.382 1.153,0 2.536,-0.129 4.105,-0.382 0.528,-0.083 0.957,-0.461 1.108,-0.975 l 6.366,-20.956 42.282,-4.808 16.211,11.357 z m 4.68,27.237 2.977,11.29 c -4.318,0.978 -12.27,2.615 -23.1,4.148 -5.53,-3.976 -11.582,-7.155 -17.53,-9.691 18.199,-1.771 31.57,-4.406 37.653,-5.747 z m 5.161,-17.648 c 0.456,5.052 0.058,6.139 -0.455,6.554 -0.513,0.43 -2.247,1.412 -3.935,2.329 l -2.779,-19.464 c -0.052,-0.378 -0.265,-0.721 -0.58,-0.942 l -3.977,-2.781 c -0.315,-1.593 -0.429,-2.345 -0.817,-3.903 2.273,-0.528 5.999,-0.938 7.775,-0.595 1.612,1.748 4.214,12.61 4.768,18.802 z m 11.995,48.031 c 0.146,-2.914 0.068,-5.833 -0.258,-8.733 -0.305,-2.894 -0.854,-5.762 -1.619,-8.605 -0.4,-1.414 -0.86,-2.811 -1.404,-4.198 -0.275,-0.693 -0.569,-1.383 -0.89,-2.071 -0.161,-0.341 -0.331,-0.678 -0.523,-1.025 l -0.284,-0.512 c -0.104,-0.186 -0.187,-0.326 -0.348,-0.574 l -0.294,-0.457 -0.461,-0.237 c -0.492,-0.254 -0.895,-0.445 -1.342,-0.653 l -1.298,-0.585 c -0.871,-0.372 -1.745,-0.724 -2.62,-1.065 -0.611,-0.239 -1.15,-0.457 -1.662,-0.674 l -1.444,-5.487 c -0.036,0.009 -0.471,0.12 -1.283,0.315 l -0.078,-0.574 c 1.594,-0.833 4.726,-2.522 5.793,-3.403 2.148,-1.775 2.299,-4.587 1.823,-9.841 -0.244,-2.697 -1.139,-7.946 -2.381,-12.767 -2.144,-8.298 -3.283,-9.273 -4.753,-9.649 -0.746,-0.192 -1.894,-0.383 -3.008,-0.383 -2.266,0 -5.353,-0.063 -7.429,0.439 -0.533,-1.888 -2.055,-6.812 -5.068,-12.962 0.151,0.073 0.3,0.135 0.435,0.207 3.717,1.952 10.861,5.064 11.162,5.199 l 5.643,2.452 -2.89,-5.435 c -0.067,-0.118 -6.264,-11.773 -10.059,-19.383 -3.769,-7.538 -10.835,-9.179 -15.065,-10.151 -0.637,-0.151 -1.241,-0.291 -1.733,-0.425 -3.035,-0.854 -9.18,-2.319 -14.599,-3.623 L 141.795,9.445 C 138.46,7.384 134.821,5.546 130.84,4.034 116.272,-1.484 100.917,-1.174 86.996,3.942 84.735,3.651 81.762,3.295 77.803,2.845 76.083,2.653 74.411,2.554 72.818,2.554 59.554,2.554 52.524,9.29 47.393,15.885 41.9,22.947 35.181,33.431 34.896,33.87 L 31,39.947 37.585,36.986 c 3.152,-1.419 12.524,-5.757 15.205,-7 0.217,0.061 0.43,0.124 0.642,0.186 -4.457,6.357 -8.112,13.605 -10.695,21.634 -2.195,-0.662 -5.576,-1.175 -8.206,-1.175 -0.961,0 -1.822,0.072 -2.484,0.228 -1.471,0.336 -3.148,1.754 -5.431,9.795 -1.325,4.668 -2.314,9.764 -2.603,12.387 -0.57,5.121 -0.466,7.864 1.662,9.636 1.283,1.071 5.611,3.344 6.507,3.809 l -0.192,1.58 C 18.24,79.986 9.999,72.846 9.833,72.7 L 0,64.071 7.005,75.118 c 5.544,8.755 11.948,15.832 17.84,21.284 -0.244,0.098 -0.471,0.196 -0.71,0.294 l -1.299,0.585 c -0.445,0.208 -0.849,0.399 -1.34,0.653 l -0.461,0.237 -0.295,0.457 c -0.166,0.249 -0.238,0.388 -0.347,0.574 l -0.29,0.512 c -0.181,0.347 -0.358,0.684 -0.518,1.025 -0.327,0.689 -0.621,1.378 -0.89,2.071 -0.544,1.387 -1.005,2.784 -1.404,4.198 -0.771,2.843 -1.315,5.71 -1.62,8.605 -0.321,2.9 -0.404,5.819 -0.259,8.733 0.078,1.455 0.218,2.909 0.419,4.354 0.104,0.725 0.213,1.45 0.358,2.17 0.15,0.734 0.296,1.418 0.518,2.221 l 0.155,0.564 0.404,0.317 c 2.294,1.802 4.768,3.163 7.284,4.369 2.071,0.973 4.183,1.833 6.311,2.616 5.943,16.493 16.162,31.118 29.591,41.311 13.885,10.535 30.212,16.105 47.219,16.105 17.007,0 33.334,-5.57 47.218,-16.106 13.43,-10.193 23.649,-24.819 29.588,-41.307 2.133,-0.787 4.24,-1.641 6.316,-2.62 2.515,-1.206 4.99,-2.567 7.283,-4.369 l 0.404,-0.317 0.156,-0.564 c 0.227,-0.803 0.372,-1.487 0.517,-2.221 0.146,-0.72 0.26,-1.445 0.357,-2.17 0.203,-1.443 0.348,-2.897 0.419,-4.352 z m -159.43,18.316 c -2.516,-1.014 -5.016,-2.06 -7.46,-3.209 -2.449,-1.119 -4.856,-2.32 -7.155,-3.66 -2.121,-1.222 -4.157,-2.563 -5.954,-4.076 -0.077,-0.455 -0.149,-0.952 -0.211,-1.423 -0.078,-0.667 -0.156,-1.336 -0.208,-2.009 -0.119,-1.346 -0.166,-2.703 -0.18,-4.059 -0.026,-2.713 0.16,-5.426 0.502,-8.112 0.372,-2.692 0.864,-5.369 1.594,-7.952 0.363,-1.295 0.767,-2.573 1.243,-3.804 0.233,-0.623 0.492,-1.228 0.762,-1.818 0.134,-0.294 0.274,-0.585 0.413,-0.864 l 0.172,-0.326 c 0.201,-0.104 0.409,-0.207 0.605,-0.3 l 1.206,-0.574 c 0.673,-0.311 1.6,-0.751 2.366,-1.093 l 0.124,0.114 -2.231,8.511 c 0.471,0.129 4.717,1.227 12.032,2.619 -0.59,0.109 -1.191,0.238 -1.775,0.379 -1.662,0.413 -3.309,0.921 -4.898,1.563 -0.787,0.336 -1.569,0.699 -2.309,1.119 -0.741,0.425 -1.471,0.905 -2.035,1.547 8.035,-2.624 24.637,-1.433 39.398,0.088 13.501,1.393 27.028,2.293 40.628,2.325 13.6,-0.031 27.138,-0.931 40.63,-2.325 14.77,-1.522 31.374,-2.713 39.406,-0.088 -0.564,-0.642 -1.293,-1.122 -2.034,-1.547 -0.739,-0.42 -1.522,-0.782 -2.309,-1.119 -1.595,-0.642 -3.236,-1.149 -4.903,-1.563 -0.244,-0.056 -0.492,-0.114 -0.741,-0.166 8.02,-1.486 12.689,-2.697 13.186,-2.832 l -2.138,-8.107 c 0.43,0.192 0.864,0.377 1.288,0.574 l 1.207,0.574 c 0.196,0.094 0.404,0.196 0.606,0.3 l 0.166,0.326 c 0.144,0.279 0.284,0.57 0.419,0.864 0.27,0.591 0.528,1.196 0.767,1.818 0.471,1.231 0.879,2.51 1.236,3.804 0.731,2.583 1.228,5.26 1.595,7.952 0.346,2.686 0.528,5.4 0.502,8.112 -0.01,1.356 -0.062,2.713 -0.176,4.059 -0.057,0.673 -0.13,1.341 -0.213,2.009 -0.057,0.471 -0.135,0.968 -0.213,1.423 -1.797,1.513 -3.831,2.853 -5.954,4.076 -2.299,1.34 -4.704,2.541 -7.159,3.66 -2.438,1.149 -4.943,2.195 -7.46,3.209 -1.259,0.508 -2.528,1.005 -3.801,1.476 -1.267,0.491 -2.552,0.956 -3.835,1.423 2.696,-0.445 5.369,-1.06 8.013,-1.739 1.724,-0.446 3.444,-0.948 5.141,-1.481 -12.11,31.658 -41.07,52.272 -72.685,52.272 -31.622,0 -60.576,-20.614 -72.684,-52.272 1.702,0.533 3.416,1.035 5.135,1.481 2.651,0.678 5.322,1.294 8.02,1.739 -1.29,-0.466 -2.568,-0.931 -3.842,-1.423 -1.268,-0.47 -2.535,-0.967 -3.799,-1.475 z m 72.127,-115.799 1.594,-1.899 c 0.036,-0.046 3.577,-4.26 7.906,-8.552 2.879,-2.853 6.357,-4.297 10.343,-4.297 1.361,0 2.791,0.175 4.235,0.523 1.34,0.326 2.796,0.673 4.287,1.03 5.384,1.287 11.482,2.749 14.438,3.577 0.585,0.166 1.238,0.315 1.925,0.472 3.935,0.909 9.329,2.163 12.187,7.889 2.149,4.297 5.047,9.874 7.197,13.961 -1.863,-0.859 -3.816,-1.79 -5.203,-2.52 -2.138,-1.123 -4.938,-1.667 -8.558,-1.667 -2.152,0 -4.266,0.181 -6.605,0.389 -4.675,0.43 -12.586,1.361 -12.667,1.372 l -0.606,0.067 -0.478,0.383 c -0.071,0.052 -7.003,5.575 -12.606,9.981 -0.227,0.186 -0.434,0.358 -0.621,0.513 -0.59,0.503 -0.59,0.503 -0.942,0.503 -1.797,0 -7.02,-1.62 -18.462,-5.167 l -0.703,-0.223 -0.689,0.26 c -0.078,0.026 -7.585,2.81 -16.581,2.81 -0.736,0 -1.47,-0.019 -2.185,-0.056 -0.901,-0.046 -5.958,-2.448 -12.425,-12.68 L 76.988,32.876 76.247,32.638 C 76.14,32.601 65.009,29.008 53.205,25.633 l -0.766,-0.218 -0.725,0.337 c -0.077,0.031 -4.696,2.174 -9.091,4.194 2.397,-3.541 5.462,-7.958 8.159,-11.422 C 55.493,12.457 61.431,6.85 72.816,6.85 c 1.428,0 2.945,0.088 4.503,0.265 11.581,1.309 14.563,1.837 16.168,2.117 0.543,0.092 0.973,0.171 1.522,0.238 0.088,0.011 9.571,1.237 12.232,7.206 2.744,6.134 3.298,7.595 3.319,7.651 l 0.968,2.583 c 0,0 0.12,0.669 0.317,0.877 l 0.005,-0.005 0.019,-0.016 c 0.305,-0.219 0.757,-0.902 0.757,-0.902" /></g></g></g></g></g></svg>