<svg xmlns="http://www.w3.org/2000/svg" viewBox="0 0 102 101.99"><defs><linearGradient id="a" x1="51" y1="101.99" x2="51" gradientUnits="userSpaceOnUse"><stop offset="0" stop-color="#0b7abf"/><stop offset="1" stop-color="#368dcc"/></linearGradient></defs><g data-name="Layer 2"><path d="M89.25 0h-76.5A12.75 12.75 0 000 12.75v76.5A12.75 12.75 0 0012.75 102h76.5A12.75 12.75 0 00102 89.25v-76.5A12.75 12.75 0 0089.25 0zM44.37 77.26a6.12 6.12 0 01-6.12 6.12H19.38a6.12 6.12 0 01-6.12-6.12V19.38a6.12 6.12 0 016.12-6.12h18.87a6.12 6.12 0 016.12 6.12zm44.37-25.5a6.12 6.12 0 01-6.12 6.12H63.75a6.12 6.12 0 01-6.12-6.12V19.38a6.12 6.12 0 016.12-6.12h18.87a6.12 6.12 0 016.12 6.12z" fill="url(#a)" data-name="Layer 1"/></g></svg>