<svg xmlns="http://www.w3.org/2000/svg" width="500" height="500"><defs><clipPath id="a"><path d="M0 0h400v400H0V0z"/></clipPath></defs><g clip-path="url(#a)" transform="matrix(2 0 0 -2 -150 650)"><path d="M153.623 98.411c94.344 0 145.936 78.161 145.936 145.936 0 2.221-.045 4.432-.147 6.631A104.348 104.348 0 0 1 325 277.535c-9.191-4.082-19.081-6.834-29.456-8.074 10.59 6.348 18.72 16.396 22.554 28.372a102.788 102.788 0 0 0-32.568-12.449c-9.359 9.969-22.689 16.205-37.439 16.205-28.328 0-51.299-22.971-51.299-51.288 0-4.026.451-7.939 1.33-11.695-42.627 2.143-80.427 22.554-105.722 53.589a51.112 51.112 0 0 1-6.946-25.779c0-17.796 9.055-33.505 22.824-42.695a50.912 50.912 0 0 0-23.23 6.417c-.012-.214-.012-.429-.012-.654 0-24.844 17.683-45.582 41.15-50.285a51.175 51.175 0 0 0-23.163-.879c6.53-20.378 25.464-35.207 47.916-35.625-17.558-13.757-39.672-21.955-63.703-21.955-4.139 0-8.221.236-12.236.71 22.701-14.547 49.653-23.039 78.623-23.039" fill="#1da1f2"/></g></svg>