<?xml version="1.0" encoding="UTF-8" standalone="no"?>
<!-- Created with Inkscape (http://www.inkscape.org/) -->

<svg
   xmlns:dc="http://purl.org/dc/elements/1.1/"
   xmlns:cc="http://creativecommons.org/ns#"
   xmlns:rdf="http://www.w3.org/1999/02/22-rdf-syntax-ns#"
   xmlns:svg="http://www.w3.org/2000/svg"
   xmlns="http://www.w3.org/2000/svg"
   xmlns:sodipodi="http://sodipodi.sourceforge.net/DTD/sodipodi-0.dtd"
   xmlns:inkscape="http://www.inkscape.org/namespaces/inkscape"
   id="svg2"
   version="1.1"
   inkscape:version="0.48.5 r10040"
   width="500"
   height="500"
   xml:space="preserve"
   sodipodi:docname="Twitter_Logo_Blue.pdf"><metadata
     id="metadata8"><rdf:RDF><cc:Work
         rdf:about=""><dc:format>image/svg+xml</dc:format><dc:type
           rdf:resource="http://purl.org/dc/dcmitype/StillImage" /><dc:title></dc:title></cc:Work></rdf:RDF></metadata><defs
     id="defs6"><clipPath
       clipPathUnits="userSpaceOnUse"
       id="clipPath18"><path
         d="M 0,0 400,0 400,400 0,400 0,0 z"
         id="path20" /></clipPath></defs><sodipodi:namedview
     pagecolor="#ffffff"
     bordercolor="#666666"
     borderopacity="1"
     objecttolerance="10"
     gridtolerance="10"
     guidetolerance="10"
     inkscape:pageopacity="0"
     inkscape:pageshadow="2"
     inkscape:window-width="1280"
     inkscape:window-height="683"
     id="namedview4"
     showgrid="false"
     inkscape:zoom="0.472"
     inkscape:cx="-15.889831"
     inkscape:cy="250"
     inkscape:window-x="0"
     inkscape:window-y="0"
     inkscape:window-maximized="1"
     inkscape:current-layer="g10" /><g
     id="g10"
     inkscape:groupmode="layer"
     inkscape:label="Twitter_Logo_Blue"
     transform="matrix(1.25,0,0,-1.25,0,500)"><g
       id="g12" /><g
       id="g14"
       transform="matrix(1.6,0,0,1.6,-120,-120)"><g
         id="g16"
         clip-path="url(#clipPath18)"><path
           d="m 153.623,98.411 c 94.344,0 145.936,78.161 145.936,145.936 0,2.221 -0.045,4.432 -0.147,6.631 10.014,7.239 18.72,16.272 25.588,26.557 -9.191,-4.082 -19.081,-6.834 -29.456,-8.074 10.59,6.348 18.72,16.396 22.554,28.372 -9.912,-5.875 -20.885,-10.148 -32.568,-12.449 -9.359,9.969 -22.689,16.205 -37.439,16.205 -28.328,0 -51.299,-22.971 -51.299,-51.288 0,-4.026 0.451,-7.939 1.33,-11.695 -42.627,2.143 -80.427,22.554 -105.722,53.589 -4.409,-7.578 -6.946,-16.386 -6.946,-25.779 0,-17.796 9.055,-33.505 22.824,-42.695 -8.412,0.259 -16.317,2.571 -23.23,6.417 -0.012,-0.214 -0.012,-0.429 -0.012,-0.654 0,-24.844 17.683,-45.582 41.15,-50.285 -4.307,-1.172 -8.841,-1.804 -13.521,-1.804 -3.304,0 -6.518,0.327 -9.642,0.925 6.53,-20.378 25.464,-35.207 47.916,-35.625 -17.558,-13.757 -39.672,-21.955 -63.703,-21.955 -4.139,0 -8.221,0.236 -12.236,0.71 22.701,-14.547 49.653,-23.039 78.623,-23.039"
           style="fill:#1da1f2;fill-opacity:1;fill-rule:nonzero;stroke:none"
           id="path22"
           inkscape:connector-curvature="0" /></g></g></g></svg>