<?xml version="1.0" encoding="UTF-8" standalone="no"?>
<!-- Created with Inkscape (http://www.inkscape.org/) -->

<svg
   xmlns:dc="http://purl.org/dc/elements/1.1/"
   xmlns:cc="http://creativecommons.org/ns#"
   xmlns:rdf="http://www.w3.org/1999/02/22-rdf-syntax-ns#"
   xmlns:svg="http://www.w3.org/2000/svg"
   xmlns="http://www.w3.org/2000/svg"
   xmlns:sodipodi="http://sodipodi.sourceforge.net/DTD/sodipodi-0.dtd"
   xmlns:inkscape="http://www.inkscape.org/namespaces/inkscape"
   id="svg2"
   version="1.1"
   inkscape:version="0.48.5 r10040"
   width="256"
   height="256"
   sodipodi:docname="updown.png">
  <metadata
     id="metadata8">
    <rdf:RDF>
      <cc:Work
         rdf:about="">
        <dc:format>image/svg+xml</dc:format>
        <dc:type
           rdf:resource="http://purl.org/dc/dcmitype/StillImage" />
        <dc:title></dc:title>
      </cc:Work>
    </rdf:RDF>
  </metadata>
  <defs
     id="defs6" />
  <sodipodi:namedview
     pagecolor="#ffffff"
     bordercolor="#666666"
     borderopacity="1"
     objecttolerance="10"
     gridtolerance="10"
     guidetolerance="10"
     inkscape:pageopacity="0"
     inkscape:pageshadow="2"
     inkscape:window-width="1280"
     inkscape:window-height="683"
     id="namedview4"
     showgrid="false"
     inkscape:zoom="0.921875"
     inkscape:cx="78.644068"
     inkscape:cy="128"
     inkscape:window-x="0"
     inkscape:window-y="0"
     inkscape:window-maximized="1"
     inkscape:current-layer="svg2" />
  <g
     id="g2995"
     transform="matrix(1.000565,0,0,1.000565,-0.07232,-0.07232)">
    <rect
       y="32.542374"
       x="14.101695"
       height="189.83051"
       width="221.28815"
       id="rect2993"
       style="fill:#ffffff;fill-opacity:1;fill-rule:nonzero;stroke:none" />
    <g
       transform="translate(-0.07228494,-0.25)"
       id="g2987">
      <path
         inkscape:connector-curvature="0"
         id="path2991"
         d="M 9.4504235,254.59998 C 5.4227673,252.83696 1.2208257,247.7284 0.50178086,243.72056 0.18399056,241.94925 0.05358475,188.67041 0.21199016,125.32312 0.49841765,10.779041 0.51132764,10.131078 2.5617886,7.3849134 3.6957724,5.8661785 5.8662711,3.6957724 7.3851191,2.5617886 10.137703,0.50668815 10.52896,0.5 128,0.5 c 117.47104,0 117.8623,0.006688 120.61488,2.0617886 1.51885,1.1339838 3.68935,3.3044825 4.82333,4.8233305 C 255.49331,10.137703 255.5,10.52896 255.5,128 c 0,117.47104 -0.007,117.8623 -2.06179,120.61488 -1.13398,1.51885 -3.30439,3.68935 -4.82313,4.82333 -2.74802,2.05185 -3.32411,2.06284 -119.43821,2.27922 -95.473397,0.17792 -117.231064,-0.0251 -119.7264465,-1.11745 z M 152.38175,175.5 176.0114,144 128,144 79.988602,144 103.61825,175.5 C 116.61456,192.825 127.58635,207 128,207 c 0.41365,0 11.38544,-14.175 24.38175,-31.5 z m 0,-95 C 139.38544,63.175 128.41365,49 128,49 127.58635,49 116.61456,63.175 103.61825,80.5 L 79.988602,112 128,112 l 48.0114,0 -23.62965,-31.5 z"
         style="fill:#656565" />
      <path
         inkscape:connector-curvature="0"
         id="path2989"
         d="m 151.78122,232.25 -23.70315,-23.75 24.02285,-32 24.02284,-32 -32.31188,-0.26324 L 111.5,143.97352 95.737733,128.23676 79.975467,112.5 128.05455,112 l 48.07908,-0.5 -20.23526,-27 C 144.76898,69.65 134.53548,55.925 133.15725,54 c -1.37822,-1.925 21.6881,20.575 51.25849,50 41.69859,41.49356 55.76392,56.12777 62.67431,65.20921 L 256,180.91842 l -0.0239,29.29079 c -0.0131,16.10994 -0.4325,31.05268 -0.93197,33.20609 -1.17682,5.07383 -6.55504,10.45205 -11.62887,11.62887 -2.15341,0.49947 -18.31882,0.91885 -35.92311,0.93197 L 175.48437,256 151.78122,232.25 z"
         style="fill:#515151" />
    </g>
  </g>
</svg>
