<svg xmlns="http://www.w3.org/2000/svg" width="256" height="256"><path fill="#fff" d="M14.038 32.488H235.45v189.938H14.038z"/><path d="M9.311 254.421c-4.03-1.764-8.234-6.875-8.954-10.885-.318-1.773-.448-55.081-.29-118.465C.354 10.463.367 9.814 2.42 7.067c1.134-1.52 3.306-3.692 4.826-4.826C9.999.185 10.39.178 127.928.178c117.537 0 117.929.007 120.683 2.063 1.52 1.134 3.691 3.306 4.826 4.826 2.056 2.754 2.063 3.145 2.063 120.683 0 117.537-.007 117.929-2.063 120.683-1.135 1.52-3.307 3.691-4.826 4.826-2.75 2.053-3.326 2.064-119.506 2.28-95.527.178-117.297-.025-119.794-1.118zm143.012-79.144l23.643-31.518H79.89l23.643 31.518c13.004 17.334 23.982 31.517 24.396 31.517.414 0 11.392-14.183 24.395-31.517zm0-95.054c-13.003-17.335-23.981-31.518-24.395-31.518-.414 0-11.392 14.183-24.396 31.518L79.89 111.741h96.077l-23.643-31.518z" fill="#656565"/><path d="M151.722 232.059l-23.716-23.764 24.036-32.018 24.037-32.018-32.33-.263-32.33-.264-15.772-15.745-15.771-15.746 48.106-.5 48.106-.5-20.246-27.016c-11.136-14.858-21.375-28.59-22.754-30.517-1.38-1.926 21.7 20.587 51.287 50.028 41.722 41.517 55.796 56.16 62.71 65.246L256 180.698l-.024 29.308c-.013 16.119-.433 31.07-.932 33.224-1.178 5.077-6.56 10.458-11.636 11.636-2.154.5-18.329.92-35.943.932l-32.026.024-23.717-23.763z" fill="#515151"/></svg>