<svg xmlns="http://www.w3.org/2000/svg" fill="none" viewBox="58.17 111.5 396.5 289"><g clip-path="url(#a)"><path fill="url(#b)" d="M181.196 399.355c-73.419 0-98.407-92.978-104.006-111.066-14.061-45.42-18.336-86.333-18.788-90.627-2.611-24.775 17.232-42.015 39.01-42.015 16.49 0 35.628 9.884 38.163 33.866.44 4.034 3.792 38.823 15.652 76.73 12.376 39.562 25.506 54.776 34.961 54.776 15.269 0 24.585-39.272 32.821-76.666 6.068-27.549 12.627-55.31 25.576-79.97 22.529-42.9 56.572-52.883 85.982-52.883 64.488 0 96.764 74.819 96.764 94.204 0 32.395-26.385 40.658-37.821 40.658-25.013 0-33.492-16.783-40.629-31.493-6.419-13.234-13.124-24.238-21.792-24.238-2.848 0-5.488 1.445-7.929 3.93-21.545 21.928-28.769 136.644-71.847 180.488-23.882 24.306-49.867 24.306-66.117 24.306"/><path fill="url(#c)" d="M181.196 399.355c-73.419 0-98.407-92.978-104.006-111.066-14.061-45.42-18.336-86.333-18.788-90.627-2.611-24.775 17.232-42.015 39.01-42.015 16.49 0 35.628 9.884 38.163 33.866.44 4.034 3.792 38.823 15.652 76.73 12.376 39.562 25.506 54.776 34.961 54.776 15.269 0 24.585-39.272 32.821-76.666 6.068-27.549 12.627-55.31 25.576-79.97 22.529-42.9 56.572-52.883 85.982-52.883 64.488 0 96.764 74.819 96.764 94.204 0 32.395-26.385 40.658-37.821 40.658-25.013 0-33.492-16.783-40.629-31.493-6.419-13.234-13.124-24.238-21.792-24.238-2.848 0-5.488 1.445-7.929 3.93-21.545 21.928-28.769 136.644-71.847 180.488-23.882 24.306-49.867 24.306-66.117 24.306"/><path fill="url(#d)" d="M181.196 399.355c-73.419 0-98.407-92.978-104.006-111.066-14.061-45.42-18.336-86.333-18.788-90.627-2.611-24.775 17.232-42.015 39.01-42.015 16.49 0 35.628 9.884 38.163 33.866.44 4.034 3.792 38.823 15.652 76.73 12.376 39.562 25.506 54.776 34.961 54.776 15.269 0 24.585-39.272 32.821-76.666 6.068-27.549 12.627-55.31 25.576-79.97 22.529-42.9 56.572-52.883 85.982-52.883 64.488 0 96.764 74.819 96.764 94.204 0 32.395-26.385 40.658-37.821 40.658-25.013 0-33.492-16.783-40.629-31.493-6.419-13.234-13.124-24.238-21.792-24.238-2.848 0-5.488 1.445-7.929 3.93-21.545 21.928-28.769 136.644-71.847 180.488-23.882 24.306-49.867 24.306-66.117 24.306"/><path fill="url(#e)" d="M181.196 399.355c-73.419 0-98.407-92.978-104.006-111.066-14.061-45.42-18.336-86.333-18.788-90.627-2.611-24.775 17.232-42.015 39.01-42.015 16.49 0 35.628 9.884 38.163 33.866.44 4.034 3.792 38.823 15.652 76.73 12.376 39.562 25.506 54.776 34.961 54.776 15.269 0 24.585-39.272 32.821-76.666 6.068-27.549 12.627-55.31 25.576-79.97 22.529-42.9 56.572-52.883 85.982-52.883 64.488 0 96.764 74.819 96.764 94.204 0 32.395-26.385 40.658-37.821 40.658-25.013 0-33.492-16.783-40.629-31.493-6.419-13.234-13.124-24.238-21.792-24.238-2.848 0-5.488 1.445-7.929 3.93-21.545 21.928-28.769 136.644-71.847 180.488-23.882 24.306-49.867 24.306-66.117 24.306"/><path fill="url(#f)" d="M181.196 399.355c-73.419 0-98.407-92.978-104.006-111.066-14.061-45.42-18.336-86.333-18.788-90.627-2.611-24.775 17.232-42.015 39.01-42.015 16.49 0 35.628 9.884 38.163 33.866.44 4.034 3.792 38.823 15.652 76.73 12.376 39.562 25.506 54.776 34.961 54.776 15.269 0 24.585-39.272 32.821-76.666 6.068-27.549 12.627-55.31 25.576-79.97 22.529-42.9 56.572-52.883 85.982-52.883 64.488 0 96.764 74.819 96.764 94.204 0 32.395-26.385 40.658-37.821 40.658-25.013 0-33.492-16.783-40.629-31.493-6.419-13.234-13.124-24.238-21.792-24.238-2.848 0-5.488 1.445-7.929 3.93-21.545 21.928-28.769 136.644-71.847 180.488-23.882 24.306-49.867 24.306-66.117 24.306"/><path fill="url(#g)" d="M181.196 399.355c-73.419 0-98.407-92.978-104.006-111.066-14.061-45.42-18.336-86.333-18.788-90.627-2.611-24.775 17.232-42.015 39.01-42.015 16.49 0 35.628 9.884 38.163 33.866.44 4.034 3.792 38.823 15.652 76.73 12.376 39.562 25.506 54.776 34.961 54.776 15.269 0 24.585-39.272 32.821-76.666 6.068-27.549 12.627-55.31 25.576-79.97 22.529-42.9 56.572-52.883 85.982-52.883 64.488 0 96.764 74.819 96.764 94.204 0 32.395-26.385 40.658-37.821 40.658-25.013 0-33.492-16.783-40.629-31.493-6.419-13.234-13.124-24.238-21.792-24.238-2.848 0-5.488 1.445-7.929 3.93-21.545 21.928-28.769 136.644-71.847 180.488-23.882 24.306-49.867 24.306-66.117 24.306"/><path fill="url(#h)" d="M181.196 399.355c-73.419 0-98.407-92.978-104.006-111.066-14.061-45.42-18.336-86.333-18.788-90.627-2.611-24.775 17.232-42.015 39.01-42.015 16.49 0 35.628 9.884 38.163 33.866.44 4.034 3.792 38.823 15.652 76.73 12.376 39.562 25.506 54.776 34.961 54.776 15.269 0 24.585-39.272 32.821-76.666 6.068-27.549 12.627-55.31 25.576-79.97 22.529-42.9 56.572-52.883 85.982-52.883 64.488 0 96.764 74.819 96.764 94.204 0 32.395-26.385 40.658-37.821 40.658-25.013 0-33.492-16.783-40.629-31.493-6.419-13.234-13.124-24.238-21.792-24.238-2.848 0-5.488 1.445-7.929 3.93-21.545 21.928-28.769 136.644-71.847 180.488-23.882 24.306-49.867 24.306-66.117 24.306"/><path fill="url(#i)" d="M181.196 399.355c-73.419 0-98.407-92.978-104.006-111.066-14.061-45.42-18.336-86.333-18.788-90.627-2.611-24.775 17.232-42.015 39.01-42.015 16.49 0 35.628 9.884 38.163 33.866.44 4.034 3.792 38.823 15.652 76.73 12.376 39.562 25.506 54.776 34.961 54.776 15.269 0 24.585-39.272 32.821-76.666 6.068-27.549 12.627-55.31 25.576-79.97 22.529-42.9 56.572-52.883 85.982-52.883 64.488 0 96.764 74.819 96.764 94.204 0 32.395-26.385 40.658-37.821 40.658-25.013 0-33.492-16.783-40.629-31.493-6.419-13.234-13.124-24.238-21.792-24.238-2.848 0-5.488 1.445-7.929 3.93-21.545 21.928-28.769 136.644-71.847 180.488-23.882 24.306-49.867 24.306-66.117 24.306"/><path fill="url(#j)" d="M181.196 399.355c-73.419 0-98.407-92.978-104.006-111.066-14.061-45.42-18.336-86.333-18.788-90.627-2.611-24.775 17.232-42.015 39.01-42.015 16.49 0 35.628 9.884 38.163 33.866.44 4.034 3.792 38.823 15.652 76.73 12.376 39.562 25.506 54.776 34.961 54.776 15.269 0 24.585-39.272 32.821-76.666 6.068-27.549 12.627-55.31 25.576-79.97 22.529-42.9 56.572-52.883 85.982-52.883 64.488 0 96.764 74.819 96.764 94.204 0 32.395-26.385 40.658-37.821 40.658-25.013 0-33.492-16.783-40.629-31.493-6.419-13.234-13.124-24.238-21.792-24.238-2.848 0-5.488 1.445-7.929 3.93-21.545 21.928-28.769 136.644-71.847 180.488-23.882 24.306-49.867 24.306-66.117 24.306"/><path fill="url(#k)" d="M330.571 111.5c-29.41 0-63.453 9.983-85.982 52.883-12.95 24.66-19.508 52.421-25.576 79.97-1.998 9.066-4.059 18.241-6.251 26.942v124.646c11.129-3.153 23.084-9.219 34.555-20.892 43.077-43.844 50.302-158.56 71.847-180.488 2.441-2.485 5.081-3.93 7.929-3.93 8.668 0 15.373 11.004 21.792 24.238 7.137 14.71 15.616 31.493 40.629 31.493 11.435 0 37.821-8.263 37.821-40.658 0-19.385-32.276-94.204-96.764-94.204"/><path fill="url(#l)" d="M181.196 399.355c-73.419 0-98.407-92.978-104.006-111.066-14.061-45.42-18.336-86.333-18.788-90.627-2.611-24.775 17.232-42.015 39.01-42.015 16.49 0 35.628 9.884 38.163 33.866.44 4.034 3.792 38.823 15.652 76.73 12.376 39.562 25.506 54.776 34.961 54.776 15.269 0 24.585-39.272 32.821-76.666 6.068-27.549 12.627-55.31 25.576-79.97 22.529-42.9 56.572-52.883 85.982-52.883 64.488 0 96.764 74.819 96.764 94.204 0 32.395-26.385 40.658-37.821 40.658-25.013 0-33.492-16.783-40.629-31.493-6.419-13.234-13.124-24.238-21.792-24.238-2.848 0-5.488 1.445-7.929 3.93-21.545 21.928-28.769 136.644-71.847 180.488-23.882 24.306-49.867 24.306-66.117 24.306"/><path fill="url(#m)" d="M181.196 399.355c-73.419 0-98.407-92.978-104.006-111.066-14.061-45.42-18.336-86.333-18.788-90.627-2.611-24.775 17.232-42.015 39.01-42.015 16.49 0 35.628 9.884 38.163 33.866.44 4.034 3.792 38.823 15.652 76.73 12.376 39.562 25.506 54.776 34.961 54.776 15.269 0 24.585-39.272 32.821-76.666 6.068-27.549 12.627-55.31 25.576-79.97 22.529-42.9 56.572-52.883 85.982-52.883 64.488 0 96.764 74.819 96.764 94.204 0 32.395-26.385 40.658-37.821 40.658-25.013 0-33.492-16.783-40.629-31.493-6.419-13.234-13.124-24.238-21.792-24.238-2.848 0-5.488 1.445-7.929 3.93-21.545 21.928-28.769 136.644-71.847 180.488-23.882 24.306-49.867 24.306-66.117 24.306"/><path fill="url(#n)" d="M181.196 399.355c-73.419 0-98.407-92.978-104.006-111.066-14.061-45.42-18.336-86.333-18.788-90.627-2.611-24.775 17.232-42.015 39.01-42.015 16.49 0 35.628 9.884 38.163 33.866.44 4.034 3.792 38.823 15.652 76.73 12.376 39.562 25.506 54.776 34.961 54.776 15.269 0 24.585-39.272 32.821-76.666 6.068-27.549 12.627-55.31 25.576-79.97 22.529-42.9 56.572-52.883 85.982-52.883 64.488 0 96.764 74.819 96.764 94.204 0 32.395-26.385 40.658-37.821 40.658-25.013 0-33.492-16.783-40.629-31.493-6.419-13.234-13.124-24.238-21.792-24.238-2.848 0-5.488 1.445-7.929 3.93-21.545 21.928-28.769 136.644-71.847 180.488-23.882 24.306-49.867 24.306-66.117 24.306"/><path fill="url(#o)" d="M181.196 399.355c-73.419 0-98.407-92.978-104.006-111.066-14.061-45.42-18.336-86.333-18.788-90.627-2.611-24.775 17.232-42.015 39.01-42.015 16.49 0 35.628 9.884 38.163 33.866.44 4.034 3.792 38.823 15.652 76.73 12.376 39.562 25.506 54.776 34.961 54.776 15.269 0 24.585-39.272 32.821-76.666 6.068-27.549 12.627-55.31 25.576-79.97 22.529-42.9 56.572-52.883 85.982-52.883 64.488 0 96.764 74.819 96.764 94.204 0 32.395-26.385 40.658-37.821 40.658-25.013 0-33.492-16.783-40.629-31.493-6.419-13.234-13.124-24.238-21.792-24.238-2.848 0-5.488 1.445-7.929 3.93-21.545 21.928-28.769 136.644-71.847 180.488-23.882 24.306-49.867 24.306-66.117 24.306"/><path fill="url(#p)" d="M181.196 399.355c-73.419 0-98.407-92.978-104.006-111.066-14.061-45.42-18.336-86.333-18.788-90.627-2.611-24.775 17.232-42.015 39.01-42.015 16.49 0 35.628 9.884 38.163 33.866.44 4.034 3.792 38.823 15.652 76.73 12.376 39.562 25.506 54.776 34.961 54.776 15.269 0 24.585-39.272 32.821-76.666 6.068-27.549 12.627-55.31 25.576-79.97 22.529-42.9 56.572-52.883 85.982-52.883 64.488 0 96.764 74.819 96.764 94.204 0 32.395-26.385 40.658-37.821 40.658-25.013 0-33.492-16.783-40.629-31.493-6.419-13.234-13.124-24.238-21.792-24.238-2.848 0-5.488 1.445-7.929 3.93-21.545 21.928-28.769 136.644-71.847 180.488-23.882 24.306-49.867 24.306-66.117 24.306"/><path fill="#316aff" d="M415.439 155.647c-2.907 0-5.831.274-8.699.84 13.632 19.684 20.453 40.305 20.453 49.215 0 32.395-26.386 40.658-37.822 40.658-8.924 0-15.742-2.138-21.147-5.554l-.15.606c-1.608 6.43-2.876 13.466-5.072 20.314-4.222 13.166-9.917 28.206-15.999 39.844-6.555 12.546-13.045 19.887-20.781 19.502-8.797-.438-15.93-11.793-24.795-43.886-2.859-10.348-5.506-21.693-7.96-32.833-6.085-27.631-13.555-55.416-26.327-79.97-20.86-40.101-56.446-52.883-84.856-52.883-26.347 0-46.031 12.491-61.494 28.229-4.274 4.35-8.941 10.209-13.63 17.096 13.487 3.253 26.24 13.419 28.277 32.686.401 3.674 3.216 32.85 12.672 66.661 2.713-8.477 6.669-21.031 15.86-41.303 4.504-9.284 8.569-15.406 12.236-19.139 3.364-3.423 6.393-4.837 9.12-4.837 2.941 0 12.984 2.696 22.761 37.052 12.125 42.602 21.149 110.403 55.528 146.402 15.163 15.88 36.383 26.153 65.792 26.153 25.805 0 47.319-11.381 62.659-27.212 25.221-26.032 39.041-69.072 43.97-84.999 14.028-45.311 17.957-86.291 18.414-90.627 2.611-24.775-18.232-42.015-39.01-42.015"/><path fill="url(#q)" d="M415.439 155.647c-2.907 0-5.831.274-8.699.84 13.632 19.684 20.453 40.305 20.453 49.215 0 32.395-26.386 40.658-37.822 40.658-8.924 0-15.742-2.138-21.147-5.554l-.15.606c-1.608 6.43-2.876 13.466-5.072 20.314-4.222 13.166-9.917 28.206-15.999 39.844-6.555 12.546-13.045 19.887-20.781 19.502-8.797-.438-15.93-11.793-24.795-43.886-2.859-10.348-5.506-21.693-7.96-32.833-6.085-27.631-13.555-55.416-26.327-79.97-20.86-40.101-56.446-52.883-84.856-52.883-26.347 0-46.031 12.491-61.494 28.229-4.274 4.35-8.941 10.209-13.63 17.096 13.487 3.253 26.24 13.419 28.277 32.686.401 3.674 3.216 32.85 12.672 66.661 2.713-8.477 6.669-21.031 15.86-41.303 4.504-9.284 8.569-15.406 12.236-19.139 3.364-3.423 6.393-4.837 9.12-4.837 2.941 0 12.984 2.696 22.761 37.052 12.125 42.602 21.149 110.403 55.528 146.402 15.163 15.88 36.383 26.153 65.792 26.153 25.805 0 47.319-11.381 62.659-27.212 25.221-26.032 39.041-69.072 43.97-84.999 14.028-45.311 17.957-86.291 18.414-90.627 2.611-24.775-18.232-42.015-39.01-42.015"/><path fill="url(#r)" d="M415.439 155.647c-2.907 0-5.831.274-8.699.84 13.632 19.684 20.453 40.305 20.453 49.215 0 32.395-26.386 40.658-37.822 40.658-8.924 0-15.742-2.138-21.147-5.554l-.15.606c-1.608 6.43-2.876 13.466-5.072 20.314-4.222 13.166-9.917 28.206-15.999 39.844-6.555 12.546-13.045 19.887-20.781 19.502-8.797-.438-15.93-11.793-24.795-43.886-2.859-10.348-5.506-21.693-7.96-32.833-6.085-27.631-13.555-55.416-26.327-79.97-20.86-40.101-56.446-52.883-84.856-52.883-26.347 0-46.031 12.491-61.494 28.229-4.274 4.35-8.941 10.209-13.63 17.096 13.487 3.253 26.24 13.419 28.277 32.686.401 3.674 3.216 32.85 12.672 66.661 2.713-8.477 6.669-21.031 15.86-41.303 4.504-9.284 8.569-15.406 12.236-19.139 3.364-3.423 6.393-4.837 9.12-4.837 2.941 0 12.984 2.696 22.761 37.052 12.125 42.602 21.149 110.403 55.528 146.402 15.163 15.88 36.383 26.153 65.792 26.153 25.805 0 47.319-11.381 62.659-27.212 25.221-26.032 39.041-69.072 43.97-84.999 14.028-45.311 17.957-86.291 18.414-90.627 2.611-24.775-18.232-42.015-39.01-42.015"/><path fill="url(#s)" d="M415.439 155.647c-2.907 0-5.831.274-8.699.84 13.632 19.684 20.453 40.305 20.453 49.215 0 32.395-26.386 40.658-37.822 40.658-8.924 0-15.742-2.138-21.147-5.554l-.15.606c-1.608 6.43-2.876 13.466-5.072 20.314-4.222 13.166-9.917 28.206-15.999 39.844-6.555 12.546-13.045 19.887-20.781 19.502-8.797-.438-15.93-11.793-24.795-43.886-2.859-10.348-5.506-21.693-7.96-32.833-6.085-27.631-13.555-55.416-26.327-79.97-20.86-40.101-56.446-52.883-84.856-52.883-26.347 0-46.031 12.491-61.494 28.229-4.274 4.35-8.941 10.209-13.63 17.096 13.487 3.253 26.24 13.419 28.277 32.686.401 3.674 3.216 32.85 12.672 66.661 2.713-8.477 6.669-21.031 15.86-41.303 4.504-9.284 8.569-15.406 12.236-19.139 3.364-3.423 6.393-4.837 9.12-4.837 2.941 0 12.984 2.696 22.761 37.052 12.125 42.602 21.149 110.403 55.528 146.402 15.163 15.88 36.383 26.153 65.792 26.153 25.805 0 47.319-11.381 62.659-27.212 25.221-26.032 39.041-69.072 43.97-84.999 14.028-45.311 17.957-86.291 18.414-90.627 2.611-24.775-18.232-42.015-39.01-42.015"/><path fill="url(#t)" d="M415.439 155.647c-2.907 0-5.831.274-8.699.84 13.632 19.684 20.453 40.305 20.453 49.215 0 32.395-26.386 40.658-37.822 40.658-8.924 0-15.742-2.138-21.147-5.554l-.15.606c-1.608 6.43-2.876 13.466-5.072 20.314-4.222 13.166-9.917 28.206-15.999 39.844-6.555 12.546-13.045 19.887-20.781 19.502-8.797-.438-15.93-11.793-24.795-43.886-2.859-10.348-5.506-21.693-7.96-32.833-6.085-27.631-13.555-55.416-26.327-79.97-20.86-40.101-56.446-52.883-84.856-52.883-26.347 0-46.031 12.491-61.494 28.229-4.274 4.35-8.941 10.209-13.63 17.096 13.487 3.253 26.24 13.419 28.277 32.686.401 3.674 3.216 32.85 12.672 66.661 2.713-8.477 6.669-21.031 15.86-41.303 4.504-9.284 8.569-15.406 12.236-19.139 3.364-3.423 6.393-4.837 9.12-4.837 2.941 0 12.984 2.696 22.761 37.052 12.125 42.602 21.149 110.403 55.528 146.402 15.163 15.88 36.383 26.153 65.792 26.153 25.805 0 47.319-11.381 62.659-27.212 25.221-26.032 39.041-69.072 43.97-84.999 14.028-45.311 17.957-86.291 18.414-90.627 2.611-24.775-18.232-42.015-39.01-42.015"/><path fill="url(#u)" d="M415.439 155.647c-2.907 0-5.831.274-8.699.84 13.632 19.684 20.453 40.305 20.453 49.215 0 32.395-26.386 40.658-37.822 40.658-8.924 0-15.742-2.138-21.147-5.554l-.15.606c-1.608 6.43-2.876 13.466-5.072 20.314-4.222 13.166-9.917 28.206-15.999 39.844-6.555 12.546-13.045 19.887-20.781 19.502-8.797-.438-15.93-11.793-24.795-43.886-2.859-10.348-5.506-21.693-7.96-32.833-6.085-27.631-13.555-55.416-26.327-79.97-20.86-40.101-56.446-52.883-84.856-52.883-26.347 0-46.031 12.491-61.494 28.229-4.274 4.35-8.941 10.209-13.63 17.096 13.487 3.253 26.24 13.419 28.277 32.686.401 3.674 3.216 32.85 12.672 66.661 2.713-8.477 6.669-21.031 15.86-41.303 4.504-9.284 8.569-15.406 12.236-19.139 3.364-3.423 6.393-4.837 9.12-4.837 2.941 0 12.984 2.696 22.761 37.052 12.125 42.602 21.149 110.403 55.528 146.402 15.163 15.88 36.383 26.153 65.792 26.153 25.805 0 47.319-11.381 62.659-27.212 25.221-26.032 39.041-69.072 43.97-84.999 14.028-45.311 17.957-86.291 18.414-90.627 2.611-24.775-18.232-42.015-39.01-42.015"/><path fill="url(#v)" d="M415.439 155.647c-2.907 0-5.831.274-8.699.84 13.632 19.684 20.453 40.305 20.453 49.215 0 32.395-26.386 40.658-37.822 40.658-8.924 0-15.742-2.138-21.147-5.554l-.15.606c-1.608 6.43-2.876 13.466-5.072 20.314-4.222 13.166-9.917 28.206-15.999 39.844-6.555 12.546-13.045 19.887-20.781 19.502-8.797-.438-15.93-11.793-24.795-43.886-2.859-10.348-5.506-21.693-7.96-32.833-6.085-27.631-13.555-55.416-26.327-79.97-20.86-40.101-56.446-52.883-84.856-52.883-26.347 0-46.031 12.491-61.494 28.229-4.274 4.35-8.941 10.209-13.63 17.096 13.487 3.253 26.24 13.419 28.277 32.686.401 3.674 3.216 32.85 12.672 66.661 2.713-8.477 6.669-21.031 15.86-41.303 4.504-9.284 8.569-15.406 12.236-19.139 3.364-3.423 6.393-4.837 9.12-4.837 2.941 0 12.984 2.696 22.761 37.052 12.125 42.602 21.149 110.403 55.528 146.402 15.163 15.88 36.383 26.153 65.792 26.153 25.805 0 47.319-11.381 62.659-27.212 25.221-26.032 39.041-69.072 43.97-84.999 14.028-45.311 17.957-86.291 18.414-90.627 2.611-24.775-18.232-42.015-39.01-42.015"/><path fill="url(#w)" d="M415.439 155.647c-2.907 0-5.831.274-8.699.84 13.632 19.684 20.453 40.305 20.453 49.215 0 32.395-26.386 40.658-37.822 40.658-8.924 0-15.742-2.138-21.147-5.554l-.15.606c-1.608 6.43-2.876 13.466-5.072 20.314-4.222 13.166-9.917 28.206-15.999 39.844-6.555 12.546-13.045 19.887-20.781 19.502-8.797-.438-15.93-11.793-24.795-43.886-2.859-10.348-5.506-21.693-7.96-32.833-6.085-27.631-13.555-55.416-26.327-79.97-20.86-40.101-56.446-52.883-84.856-52.883-26.347 0-46.031 12.491-61.494 28.229-4.274 4.35-8.941 10.209-13.63 17.096 13.487 3.253 26.24 13.419 28.277 32.686.401 3.674 3.216 32.85 12.672 66.661 2.713-8.477 6.669-21.031 15.86-41.303 4.504-9.284 8.569-15.406 12.236-19.139 3.364-3.423 6.393-4.837 9.12-4.837 2.941 0 12.984 2.696 22.761 37.052 12.125 42.602 21.149 110.403 55.528 146.402 15.163 15.88 36.383 26.153 65.792 26.153 25.805 0 47.319-11.381 62.659-27.212 25.221-26.032 39.041-69.072 43.97-84.999 14.028-45.311 17.957-86.291 18.414-90.627 2.611-24.775-18.232-42.015-39.01-42.015"/><path fill="url(#x)" d="M415.439 155.647c-2.907 0-5.831.274-8.699.84 13.632 19.684 20.453 40.305 20.453 49.215 0 32.395-26.386 40.658-37.822 40.658-8.924 0-15.742-2.138-21.147-5.554l-.15.606c-1.608 6.43-2.876 13.466-5.072 20.314-4.222 13.166-9.917 28.206-15.999 39.844-6.555 12.546-13.045 19.887-20.781 19.502-8.797-.438-15.93-11.793-24.795-43.886-2.859-10.348-5.506-21.693-7.96-32.833-6.085-27.631-13.555-55.416-26.327-79.97-20.86-40.101-56.446-52.883-84.856-52.883-26.347 0-46.031 12.491-61.494 28.229-4.274 4.35-8.941 10.209-13.63 17.096 13.487 3.253 26.24 13.419 28.277 32.686.401 3.674 3.216 32.85 12.672 66.661 2.713-8.477 6.669-21.031 15.86-41.303 4.504-9.284 8.569-15.406 12.236-19.139 3.364-3.423 6.393-4.837 9.12-4.837 2.941 0 12.984 2.696 22.761 37.052 12.125 42.602 21.149 110.403 55.528 146.402 15.163 15.88 36.383 26.153 65.792 26.153 25.805 0 47.319-11.381 62.659-27.212 25.221-26.032 39.041-69.072 43.97-84.999 14.028-45.311 17.957-86.291 18.414-90.627 2.611-24.775-18.232-42.015-39.01-42.015"/><path fill="url(#y)" d="M415.439 155.647c-2.907 0-5.831.274-8.699.84 13.632 19.684 20.453 40.305 20.453 49.215 0 32.395-26.386 40.658-37.822 40.658-8.924 0-15.742-2.138-21.147-5.554l-.15.606c-1.608 6.43-2.876 13.466-5.072 20.314-4.222 13.166-9.917 28.206-15.999 39.844-6.555 12.546-13.045 19.887-20.781 19.502-8.797-.438-15.93-11.793-24.795-43.886-2.859-10.348-5.506-21.693-7.96-32.833-6.085-27.631-13.555-55.416-26.327-79.97-20.86-40.101-56.446-52.883-84.856-52.883-26.347 0-46.031 12.491-61.494 28.229-4.274 4.35-8.941 10.209-13.63 17.096 13.487 3.253 26.24 13.419 28.277 32.686.401 3.674 3.216 32.85 12.672 66.661 2.713-8.477 6.669-21.031 15.86-41.303 4.504-9.284 8.569-15.406 12.236-19.139 3.364-3.423 6.393-4.837 9.12-4.837 2.941 0 12.984 2.696 22.761 37.052 12.125 42.602 21.149 110.403 55.528 146.402 15.163 15.88 36.383 26.153 65.792 26.153 25.805 0 47.319-11.381 62.659-27.212 25.221-26.032 39.041-69.072 43.97-84.999 14.028-45.311 17.957-86.291 18.414-90.627 2.611-24.775-18.232-42.015-39.01-42.015"/><path fill="url(#z)" d="M415.439 155.647c-2.907 0-5.831.274-8.699.84 13.632 19.684 20.453 40.305 20.453 49.215 0 32.395-26.386 40.658-37.822 40.658-8.924 0-15.742-2.138-21.147-5.554l-.15.606c-1.608 6.43-2.876 13.466-5.072 20.314-4.222 13.166-9.917 28.206-15.999 39.844-6.555 12.546-13.045 19.887-20.781 19.502-8.797-.438-15.93-11.793-24.795-43.886-2.859-10.348-5.506-21.693-7.96-32.833-6.085-27.631-13.555-55.416-26.327-79.97-20.86-40.101-56.446-52.883-84.856-52.883-26.347 0-46.031 12.491-61.494 28.229-4.274 4.35-8.941 10.209-13.63 17.096 13.487 3.253 26.24 13.419 28.277 32.686.401 3.674 3.216 32.85 12.672 66.661 2.713-8.477 6.669-21.031 15.86-41.303 4.504-9.284 8.569-15.406 12.236-19.139 3.364-3.423 6.393-4.837 9.12-4.837 2.941 0 12.984 2.696 22.761 37.052 12.125 42.602 21.149 110.403 55.528 146.402 15.163 15.88 36.383 26.153 65.792 26.153 25.805 0 47.319-11.381 62.659-27.212 25.221-26.032 39.041-69.072 43.97-84.999 14.028-45.311 17.957-86.291 18.414-90.627 2.611-24.775-18.232-42.015-39.01-42.015"/><path fill="url(#A)" d="M181.196 399.355c-73.419 0-98.407-92.978-104.006-111.066-14.061-45.42-18.336-86.333-18.788-90.627-2.611-24.775 17.232-42.015 39.01-42.015 16.49 0 35.628 9.884 38.163 33.866.44 4.034 3.792 38.823 15.652 76.73 12.376 39.562 25.506 54.776 34.961 54.776 15.269 0 24.585-39.272 32.821-76.666 6.068-27.549 12.627-55.31 25.576-79.97 22.529-42.9 56.572-52.883 85.982-52.883 64.488 0 96.764 74.819 96.764 94.204 0 32.395-26.385 40.658-37.821 40.658-25.013 0-33.492-16.783-40.629-31.493-6.419-13.234-13.124-24.238-21.792-24.238-2.848 0-5.488 1.445-7.929 3.93-21.545 21.928-28.769 136.644-71.847 180.488-23.882 24.306-49.867 24.306-66.117 24.306"/><path fill="url(#B)" d="M181.196 399.355c-73.419 0-98.407-92.978-104.006-111.066-14.061-45.42-18.336-86.333-18.788-90.627-2.611-24.775 17.232-42.015 39.01-42.015 16.49 0 35.628 9.884 38.163 33.866.44 4.034 3.792 38.823 15.652 76.73 12.376 39.562 25.506 54.776 34.961 54.776 15.269 0 24.585-39.272 32.821-76.666 6.068-27.549 12.627-55.31 25.576-79.97 22.529-42.9 56.572-52.883 85.982-52.883 64.488 0 96.764 74.819 96.764 94.204 0 32.395-26.385 40.658-37.821 40.658-25.013 0-33.492-16.783-40.629-31.493-6.419-13.234-13.124-24.238-21.792-24.238-2.848 0-5.488 1.445-7.929 3.93-21.545 21.928-28.769 136.644-71.847 180.488-23.882 24.306-49.867 24.306-66.117 24.306"/><path fill="url(#C)" d="M181.196 399.355c-73.419 0-98.407-92.978-104.006-111.066-14.061-45.42-18.336-86.333-18.788-90.627-2.611-24.775 17.232-42.015 39.01-42.015 16.49 0 35.628 9.884 38.163 33.866.44 4.034 3.792 38.823 15.652 76.73 12.376 39.562 25.506 54.776 34.961 54.776 15.269 0 24.585-39.272 32.821-76.666 6.068-27.549 12.627-55.31 25.576-79.97 22.529-42.9 56.572-52.883 85.982-52.883 64.488 0 96.764 74.819 96.764 94.204 0 32.395-26.385 40.658-37.821 40.658-25.013 0-33.492-16.783-40.629-31.493-6.419-13.234-13.124-24.238-21.792-24.238-2.848 0-5.488 1.445-7.929 3.93-21.545 21.928-28.769 136.644-71.847 180.488-23.882 24.306-49.867 24.306-66.117 24.306"/><path fill="url(#D)" d="M181.196 399.355c-73.419 0-98.407-92.978-104.006-111.066-14.061-45.42-18.336-86.333-18.788-90.627-2.611-24.775 17.232-42.015 39.01-42.015 16.49 0 35.628 9.884 38.163 33.866.44 4.034 3.792 38.823 15.652 76.73 12.376 39.562 25.506 54.776 34.961 54.776 15.269 0 24.585-39.272 32.821-76.666 6.068-27.549 12.627-55.31 25.576-79.97 22.529-42.9 56.572-52.883 85.982-52.883 64.488 0 96.764 74.819 96.764 94.204 0 32.395-26.385 40.658-37.821 40.658-25.013 0-33.492-16.783-40.629-31.493-6.419-13.234-13.124-24.238-21.792-24.238-2.848 0-5.488 1.445-7.929 3.93-21.545 21.928-28.769 136.644-71.847 180.488-23.882 24.306-49.867 24.306-66.117 24.306"/><path fill="url(#E)" d="M181.196 399.355c-73.419 0-98.407-92.978-104.006-111.066-14.061-45.42-18.336-86.333-18.788-90.627-2.611-24.775 17.232-42.015 39.01-42.015 16.49 0 35.628 9.884 38.163 33.866.44 4.034 3.792 38.823 15.652 76.73 12.376 39.562 25.506 54.776 34.961 54.776 15.269 0 24.585-39.272 32.821-76.666 6.068-27.549 12.627-55.31 25.576-79.97 22.529-42.9 56.572-52.883 85.982-52.883 64.488 0 96.764 74.819 96.764 94.204 0 32.395-26.385 40.658-37.821 40.658-25.013 0-33.492-16.783-40.629-31.493-6.419-13.234-13.124-24.238-21.792-24.238-2.848 0-5.488 1.445-7.929 3.93-21.545 21.928-28.769 136.644-71.847 180.488-23.882 24.306-49.867 24.306-66.117 24.306"/></g><defs><radialGradient id="c" cx="0" cy="0" r="1" gradientTransform="rotate(239.175 179.778 73.144)scale(170.078 142.686)" gradientUnits="userSpaceOnUse"><stop stop-color="#007383"/><stop offset=".408" stop-color="#00717e" stop-opacity=".75"/><stop offset=".874" stop-color="#007281" stop-opacity="0"/></radialGradient><radialGradient id="d" cx="0" cy="0" r="1" gradientTransform="rotate(233.304 218.92 36.19)scale(138.687 91.0892)" gradientUnits="userSpaceOnUse"><stop stop-color="#218970"/><stop offset=".46" stop-color="#267e6a"/><stop offset="1" stop-color="#026c51" stop-opacity="0"/></radialGradient><radialGradient id="e" cx="0" cy="0" r="1" gradientTransform="rotate(252.554 199.854 63.383)scale(112.995 58.8009)" gradientUnits="userSpaceOnUse"><stop stop-color="#178697"/><stop offset=".408" stop-color="#17838f" stop-opacity=".79"/><stop offset=".874" stop-color="#007281" stop-opacity="0"/></radialGradient><radialGradient id="f" cx="0" cy="0" r="1" gradientTransform="rotate(239.175 202.084 65.396)scale(286.879 88.4347)" gradientUnits="userSpaceOnUse"><stop stop-color="#25342f" stop-opacity=".3"/><stop offset="1" stop-color="#25342f" stop-opacity="0"/></radialGradient><radialGradient id="g" cx="0" cy="0" r="1" gradientTransform="rotate(85.105 21.49 281.97)scale(108.085 61.2215)" gradientUnits="userSpaceOnUse"><stop stop-color="#056d4f"/><stop offset=".233" stop-color="#056c4e" stop-opacity=".75"/><stop offset=".599" stop-color="#056c4e" stop-opacity=".301"/><stop offset=".874" stop-color="#056c4f" stop-opacity="0"/></radialGradient><radialGradient id="h" cx="0" cy="0" r="1" gradientTransform="rotate(57.113 96.009 311.4)scale(127.006 66.5769)" gradientUnits="userSpaceOnUse"><stop stop-color="#22b67b"/><stop offset=".408" stop-color="#24be82"/><stop offset="1" stop-color="#24be82" stop-opacity=".07"/></radialGradient><radialGradient id="j" cx="0" cy="0" r="1" gradientTransform="rotate(49.69 -94.05 43.677)scale(165.848 165.397)" gradientUnits="userSpaceOnUse"><stop stop-color="#09f8ff"/><stop offset="1" stop-color="#0bf7f9" stop-opacity="0"/></radialGradient><radialGradient id="k" cx="0" cy="0" r="1" gradientTransform="rotate(48.05 62.396 150.807)scale(336.36 335.781)" gradientUnits="userSpaceOnUse"><stop stop-color="#00b8ff"/><stop offset=".745" stop-color="#00b9fc" stop-opacity="0"/></radialGradient><radialGradient id="l" cx="0" cy="0" r="1" gradientTransform="rotate(252.554 169.277 72.734)scale(162.209 112.266)" gradientUnits="userSpaceOnUse"><stop stop-color="#00bcff" stop-opacity=".76"/><stop offset=".573" stop-color="#00bafc" stop-opacity="0"/></radialGradient><radialGradient id="m" cx="0" cy="0" r="1" gradientTransform="rotate(230.488 244.3 3.63)scale(114.655 80.2489)" gradientUnits="userSpaceOnUse"><stop stop-color="#5fec50"/><stop offset="1" stop-color="#3cc08e" stop-opacity="0"/></radialGradient><radialGradient id="n" cx="0" cy="0" r="1" gradientTransform="rotate(-79.109 352.692 -96.214)scale(34.7291 23.9896)" gradientUnits="userSpaceOnUse"><stop stop-color="#28855b"/><stop offset="1" stop-color="#14795c" stop-opacity="0"/></radialGradient><radialGradient id="o" cx="0" cy="0" r="1" gradientTransform="rotate(-77.896 353.822 -101.49)scale(28.6297 39.9611)" gradientUnits="userSpaceOnUse"><stop stop-color="#28855b"/><stop offset="1" stop-color="#14795c" stop-opacity="0"/></radialGradient><radialGradient id="p" cx="0" cy="0" r="1" gradientTransform="rotate(227.249 253.3 16.778)scale(94.9176 66.6735)" gradientUnits="userSpaceOnUse"><stop stop-color="#5ff05b"/><stop offset=".813" stop-color="#5de955" stop-opacity="0"/></radialGradient><radialGradient id="q" cx="0" cy="0" r="1" gradientTransform="rotate(37.494 -164.075 685.348)scale(84.3935 117.347)" gradientUnits="userSpaceOnUse"><stop stop-color="#123aa8"/><stop offset=".966" stop-color="#123aa8" stop-opacity="0"/></radialGradient><radialGradient id="r" cx="0" cy="0" r="1" gradientTransform="rotate(8.498 -1507.945 2563.69)scale(99.529 148.757)" gradientUnits="userSpaceOnUse"><stop stop-color="#123aa8"/><stop offset=".592" stop-color="#123aa8" stop-opacity="0"/></radialGradient><radialGradient id="s" cx="0" cy="0" r="1" gradientTransform="rotate(24.693 -416.355 977.664)scale(85.0368 151.662)" gradientUnits="userSpaceOnUse"><stop stop-color="#123aa8"/><stop offset=".757" stop-color="#123aa8" stop-opacity="0"/></radialGradient><radialGradient id="t" cx="0" cy="0" r="1" gradientTransform="rotate(95.795 58.925 297.011)scale(153.04 83.7548)" gradientUnits="userSpaceOnUse"><stop stop-color="#123aa8"/><stop offset=".592" stop-color="#123aa8" stop-opacity="0"/><stop offset="1" stop-color="#123aa8" stop-opacity="0"/></radialGradient><radialGradient id="u" cx="0" cy="0" r="1" gradientTransform="rotate(93.662 97.446 280.162)scale(184.18 65.6403)" gradientUnits="userSpaceOnUse"><stop stop-color="#123aa8"/><stop offset=".885" stop-color="#123aa8" stop-opacity="0"/></radialGradient><radialGradient id="v" cx="0" cy="0" r="1" gradientTransform="rotate(84.837 -43.433 215.216)scale(97.7335 51.7086)" gradientUnits="userSpaceOnUse"><stop stop-color="#123aa8"/><stop offset=".885" stop-color="#123aa8" stop-opacity="0"/></radialGradient><radialGradient id="w" cx="0" cy="0" r="1" gradientTransform="rotate(87.254 -39.428 212.531)scale(102.001 84.0963)" gradientUnits="userSpaceOnUse"><stop stop-color="#123aa8"/><stop offset=".885" stop-color="#123aa8" stop-opacity="0"/></radialGradient><radialGradient id="x" cx="0" cy="0" r="1" gradientTransform="rotate(-23.2 921.202 -313.295)scale(113.618 222.295)" gradientUnits="userSpaceOnUse"><stop stop-color="#123aa8"/><stop offset=".709" stop-color="#123aa8" stop-opacity="0"/></radialGradient><radialGradient id="y" cx="0" cy="0" r="1" gradientTransform="rotate(200.499 98.353 94.157)scale(75.2706 129.017)" gradientUnits="userSpaceOnUse"><stop stop-color="#1a3da0"/><stop offset=".709" stop-color="#123aa8" stop-opacity="0"/></radialGradient><radialGradient id="z" cx="0" cy="0" r="1" gradientTransform="rotate(16.77 -776.736 430.773)scale(143.554 145.083)" gradientUnits="userSpaceOnUse"><stop stop-color="#1e3882"/><stop offset=".761" stop-color="#123aa8" stop-opacity="0"/></radialGradient><radialGradient id="B" cx="0" cy="0" r="1" gradientTransform="rotate(49.69 -94.047 43.665)scale(165.848 165.397)" gradientUnits="userSpaceOnUse"><stop stop-color="#09f8ff"/><stop offset="1" stop-color="#0bf7f9" stop-opacity="0"/></radialGradient><radialGradient id="E" cx="0" cy="0" r="1" gradientTransform="rotate(252.554 169.275 72.737)scale(162.209 112.266)" gradientUnits="userSpaceOnUse"><stop stop-color="#00bcff" stop-opacity=".76"/><stop offset=".573" stop-color="#00bafc" stop-opacity="0"/></radialGradient><linearGradient id="b" x1="387.159" x2="127.733" y1="195.957" y2="280.919" gradientUnits="userSpaceOnUse"><stop stop-color="#5cee64"/><stop offset="1" stop-color="#0bf"/></linearGradient><linearGradient id="i" x1="-39.386" x2="144.414" y1="252.916" y2="254.426" gradientUnits="userSpaceOnUse"><stop stop-color="#09f8ff"/><stop offset="1" stop-color="#0bf7f9" stop-opacity="0"/></linearGradient><linearGradient id="A" x1="46.233" x2="187.788" y1="162.942" y2="253.166" gradientUnits="userSpaceOnUse"><stop offset=".229" stop-color="#1dc4ff"/><stop offset="1" stop-color="#1cc1ff" stop-opacity="0"/></linearGradient><linearGradient id="C" x1="54.051" x2="93.775" y1="167.56" y2="203.522" gradientUnits="userSpaceOnUse"><stop stop-color="#26fbff"/><stop offset=".637" stop-color="#0bf7f9" stop-opacity="0"/></linearGradient><linearGradient id="D" x1="43.511" x2="98.388" y1="195.127" y2="199.037" gradientUnits="userSpaceOnUse"><stop stop-color="#26fbff"/><stop offset=".637" stop-color="#0bf7f9" stop-opacity="0"/></linearGradient><clipPath id="a"><path fill="#fff" d="M58.17 111.5h396.5v289H58.17z"/></clipPath></defs></svg>