<svg xmlns="http://www.w3.org/2000/svg" width="256" height="256"><defs><clipPath id="a"><path d="M0 252h252V0H0v252z"/></clipPath></defs><g clip-path="url(#a)" transform="matrix(1.29238 0 0 -1.29238 -35.628 290.052)" fill="#3f3c3c"><path d="M41.647 125.393c0-33.629 19.542-62.695 47.886-76.464L49.004 159.971a84.643 84.643 0 0 1-7.357-34.578m142.318 4.285c0 10.504-3.773 17.773-7.005 23.432-4.306 7.002-8.346 12.925-8.346 19.927 0 7.81 5.922 15.08 14.268 15.08.377 0 .734-.046 1.1-.069-15.115 13.85-35.254 22.307-57.373 22.307-29.684 0-55.796-15.23-70.988-38.295a176.13 176.13 0 0 1 5.468-.103c8.885 0 22.644 1.08 22.644 1.08 4.578.268 5.119-6.46.544-7.002 0 0-4.605-.538-9.724-.807l30.938-92.032 18.596 55.763-13.236 36.27c-4.578.268-8.912.806-8.912.806-4.58.271-4.042 7.27.539 7.002 0 0 14.029-1.08 22.377-1.08 8.883 0 22.645 1.08 22.645 1.08 4.58.268 5.12-6.46.542-7.002 0 0-4.61-.538-9.723-.807l30.705-91.33 8.476 28.314c3.668 11.757 6.465 20.195 6.465 27.466"/><path d="M128.1 117.96l-25.494-74.073a84.94 84.94 0 0 1 24.003-3.462 84.814 84.814 0 0 1 28.215 4.816 7.936 7.936 0 0 0-.61 1.17l-26.113 71.55zm73.064 48.193c.365-2.706.571-5.609.571-8.737 0-8.618-1.614-18.31-6.46-30.43l-25.95-75.03c25.258 14.726 42.245 42.092 42.245 73.437 0 14.772-3.774 28.66-10.406 40.76"/><path d="M126.609 30.89c-52.106 0-94.5 42.396-94.5 94.503 0 52.106 42.394 94.497 94.5 94.497s94.5-42.391 94.5-94.497c0-52.107-42.394-94.503-94.5-94.503m0 193.542c-54.612 0-99.041-44.428-99.041-99.04 0-54.613 44.429-99.043 99.04-99.043 54.613 0 99.044 44.43 99.044 99.044 0 54.61-44.431 99.039-99.043 99.039"/></g></svg>