<svg xmlns="http://www.w3.org/2000/svg" width="512" height="512"><path fill="#fff" d="M60.746 60.746h397.017v412.203H60.746z"/><path d="M0 256V0h512v512H0V256zm365.5 114.908c34.802-5.872 62.79-32.635 70.007-66.943 1.93-9.172 1.93-28.758 0-37.93-6.799-32.323-31.464-57.712-64.199-66.084-15.452-3.952-36.916-3.468-51.993 1.171-28.108 8.65-50.354 31.288-58.558 59.593-1.937 6.68-2.257 10.126-2.257 24.285 0 14.242.314 17.586 2.297 24.432 6.017 20.78 20.268 39.16 39.39 50.807 17.433 10.618 41.915 14.617 65.313 10.669zm-30.664-40.77c-3.115-1.027-7.213-2.826-9.106-3.996-4.62-2.856-12.08-10.949-14.545-15.78-7.493-14.687-7.48-36.064.032-50.787 3.38-6.625 12.173-15.02 19.071-18.206 5.7-2.632 7.16-2.869 17.712-2.869 10.734 0 11.885.195 17.288 2.93 10.894 5.517 19.758 17.012 22.803 29.57.733 3.025 1.333 9.325 1.333 14 0 15.733-4.59 27.236-14.551 36.457-7.51 6.953-14.52 9.714-25.873 10.193-6.375.268-9.916-.11-14.164-1.511zM189 326.6v-43.4l38-66.318c20.9-36.475 38-66.67 38-67.1 0-.43-11.832-.782-26.293-.782h-26.294l-23.861 41.1c-16.003 27.563-24.123 40.654-24.655 39.75-.436-.743-11.132-19.125-23.769-40.85l-22.976-39.5-26.576-.266c-14.617-.147-26.576-.02-26.576.282 0 .303 17.1 30.386 38 66.853l38 66.304V370h49v-43.4z" fill="#9a58b5"/></svg>