<?xml version="1.0" encoding="UTF-8" standalone="no"?>
<!-- Created with Inkscape (http://www.inkscape.org/) -->

<svg
   xmlns:dc="http://purl.org/dc/elements/1.1/"
   xmlns:cc="http://creativecommons.org/ns#"
   xmlns:rdf="http://www.w3.org/1999/02/22-rdf-syntax-ns#"
   xmlns:svg="http://www.w3.org/2000/svg"
   xmlns="http://www.w3.org/2000/svg"
   xmlns:sodipodi="http://sodipodi.sourceforge.net/DTD/sodipodi-0.dtd"
   xmlns:inkscape="http://www.inkscape.org/namespaces/inkscape"
   id="svg2"
   version="1.1"
   inkscape:version="0.48.5 r10040"
   width="512"
   height="512"
   sodipodi:docname="yo.png">
  <metadata
     id="metadata8">
    <rdf:RDF>
      <cc:Work
         rdf:about="">
        <dc:format>image/svg+xml</dc:format>
        <dc:type
           rdf:resource="http://purl.org/dc/dcmitype/StillImage" />
        <dc:title></dc:title>
      </cc:Work>
    </rdf:RDF>
  </metadata>
  <defs
     id="defs6" />
  <sodipodi:namedview
     pagecolor="#ffffff"
     bordercolor="#666666"
     borderopacity="1"
     objecttolerance="10"
     gridtolerance="10"
     guidetolerance="10"
     inkscape:pageopacity="0"
     inkscape:pageshadow="2"
     inkscape:window-width="640"
     inkscape:window-height="480"
     id="namedview4"
     showgrid="false"
     inkscape:zoom="0.4609375"
     inkscape:cx="256"
     inkscape:cy="256"
     inkscape:window-x="0"
     inkscape:window-y="0"
     inkscape:window-maximized="0"
     inkscape:current-layer="svg2" />
  <rect
     style="fill:#ffffff;fill-opacity:1;fill-rule:nonzero;stroke:none"
     id="rect2989"
     width="397.01697"
     height="412.2034"
     x="60.745758"
     y="60.745762" />
  <path
     style="fill:#9a58b5"
     d="M 0,256 0,-10e-7 l 256,0 256,0 L 512,256 512,512 256,512 0,512 0,256 z m 365.5,114.90787 c 34.80238,-5.87186 62.79039,-32.63459 70.00727,-66.94244 1.92954,-9.17272 1.92954,-28.75814 0,-37.93086 -6.79916,-32.3221 -31.46464,-57.71157 -64.19927,-66.08368 -15.4516,-3.95185 -36.91594,-3.46833 -51.99343,1.17124 -28.10756,8.64911 -50.35378,31.28835 -58.5579,59.59241 C 258.82019,267.39536 258.5,270.8411 258.5,285 c 0,14.24183 0.31434,17.58554 2.29681,24.43179 6.0172,20.77975 20.26798,39.16081 39.39099,50.80765 17.43226,10.61708 41.91436,14.61611 65.3122,10.66843 z m -30.66363,-40.76913 c -3.11499,-1.02787 -7.21291,-2.82637 -9.10648,-3.99666 -4.62073,-2.85577 -12.08053,-10.94891 -14.54524,-15.78014 -7.49248,-14.68647 -7.47887,-36.06409 0.0323,-50.78725 3.37952,-6.62442 12.17339,-15.01895 19.07142,-18.20536 C 335.98769,238.73665 337.44848,238.5 348,238.5 c 10.73428,0 11.88539,0.19515 17.28803,2.93088 10.89379,5.5163 19.75808,17.01083 22.80293,29.56912 0.73344,3.025 1.33352,9.325 1.33352,14 0,15.73312 -4.5911,27.23554 -14.55161,36.45722 -7.50935,6.95233 -14.51996,9.71408 -25.87287,10.19232 -6.37489,0.26854 -9.91598,-0.10918 -14.16363,-1.5108 z M 189,326.5996 l 0,-43.4004 38,-66.31741 c 20.9,-36.47458 38,-66.6694 38,-67.0996 C 265,149.35198 253.16801,149 238.70669,149 l -26.2933,0 -23.86149,41.09909 c -16.0032,27.56394 -24.12274,40.65479 -24.65476,39.75 C 163.46084,229.10709 152.76475,210.725 140.12805,189 L 117.15223,149.5 90.57612,149.23367 C 75.95925,149.08718 64,149.21447 64,149.51648 c 0,0.30203 17.1,30.3858 38,66.85281 l 38,66.30367 0,43.66352 0,43.66352 24.5,0 24.5,0 0,-43.4004 z"
     id="path2987"
     inkscape:connector-curvature="0" />
</svg>
