<svg xmlns="http://www.w3.org/2000/svg" xmlns:xlink="http://www.w3.org/1999/xlink" width="256" height="256"><defs><clipPath id="b"><path d="M0 0h1022v719H0V0z"/></clipPath><clipPath id="c"><path d="M405.272 226.719l-.047 287 276-144-275.953-143zm605.978 336.719s-9.98 70.389-40.608 101.386c-38.842 40.683-82.38 40.885-102.346 43.266-142.937 10.333-357.35 10.333-357.35 10.333h-.444s-214.408 0-357.35-10.333c-19.967-2.381-63.489-2.583-102.345-43.266-30.626-30.997-40.592-101.386-40.592-101.386S0 480.778 0 398.119v-77.493c0-82.658 10.215-165.317 10.215-165.317s9.966-70.39 40.592-101.387c38.856-40.684 89.896-39.397 112.629-43.661C245.153 2.425 510.725 0 510.725 0s214.634.323 357.571 10.655c19.966 2.382 63.504 2.583 102.346 43.267 30.628 30.997 40.608 101.387 40.608 101.387s10.2 82.659 10.2 165.317v77.493c0 82.659-10.2 165.319-10.2 165.319"/></clipPath><clipPath id="d"><path d="M.06 718.423h1021.39V.06H.06v718.363z"/></clipPath><linearGradient x2="1" gradientUnits="userSpaceOnUse" gradientTransform="rotate(-90 614.252 104.171) scale(718.423)" id="a"><stop offset="0" stop-color="#e62426"/><stop offset="1" stop-color="#c01e25"/></linearGradient><linearGradient xlink:href="#a" id="e" gradientUnits="userSpaceOnUse" gradientTransform="rotate(-90 614.252 104.171) scale(718.423)" x2="1"/></defs><g clip-path="url(#b)" transform="matrix(.25064 0 0 -.25064 -.015 218.04)"><path d="M405.225 226.719l276 143-276 144v-287" fill="#fff"/><path d="M647.267 352.094l-.026.017 33.984 17.608-33.958-17.625m-.026.017L405.225 513.719l276-144-33.984-17.608" fill="#eae0e1"/></g><g clip-path="url(#c)" transform="matrix(.25064 0 0 -.25064 -.015 218.04)"><g clip-path="url(#d)"><path d="M0 0h1022v719H0V0z" fill="url(#e)"/></g></g></svg>