<?xml version="1.0" encoding="UTF-8" standalone="no"?>
<!-- Created with Inkscape (http://www.inkscape.org/) -->

<svg
   xmlns:dc="http://purl.org/dc/elements/1.1/"
   xmlns:cc="http://creativecommons.org/ns#"
   xmlns:rdf="http://www.w3.org/1999/02/22-rdf-syntax-ns#"
   xmlns:svg="http://www.w3.org/2000/svg"
   xmlns="http://www.w3.org/2000/svg"
   xmlns:xlink="http://www.w3.org/1999/xlink"
   xmlns:sodipodi="http://sodipodi.sourceforge.net/DTD/sodipodi-0.dtd"
   xmlns:inkscape="http://www.inkscape.org/namespaces/inkscape"
   id="svg2"
   version="1.1"
   inkscape:version="0.48.5 r10040"
   width="256"
   height="256"
   xml:space="preserve"
   sodipodi:docname="YouTube-icon-full_color.pdf"><metadata
     id="metadata8"><rdf:RDF><cc:Work
         rdf:about=""><dc:format>image/svg+xml</dc:format><dc:type
           rdf:resource="http://purl.org/dc/dcmitype/StillImage" /><dc:title></dc:title></cc:Work></rdf:RDF></metadata><defs
     id="defs6"><clipPath
       clipPathUnits="userSpaceOnUse"
       id="clipPath18"><path
         d="m 0,0 1022,0 0,719 L 0,719 0,0 z"
         id="path20"
         inkscape:connector-curvature="0" /></clipPath><clipPath
       clipPathUnits="userSpaceOnUse"
       id="clipPath32"><path
         d="m 405.272,226.719 -0.047,287 276,-144 -275.953,-143 z m 605.978,336.719 c 0,0 -9.98,70.389 -40.608,101.386 -38.842,40.683 -82.38,40.885 -102.346,43.266 -142.937,10.333 -357.35,10.333 -357.35,10.333 l -0.444,0 c 0,0 -214.408,0 -357.35,-10.333 C 133.185,705.709 89.663,705.507 50.807,664.824 20.181,633.827 10.215,563.438 10.215,563.438 10.215,563.438 0,480.778 0,398.119 l 0,-77.493 c 0,-82.658 10.215,-165.317 10.215,-165.317 0,0 9.966,-70.39 40.592,-101.387 C 89.663,13.238 140.703,14.525 163.436,10.261 245.153,2.425 510.725,0 510.725,0 c 0,0 214.634,0.323 357.571,10.655 19.966,2.382 63.504,2.583 102.346,43.267 30.628,30.997 40.608,101.387 40.608,101.387 0,0 10.2,82.659 10.2,165.317 l 0,77.493 c 0,82.659 -10.2,165.319 -10.2,165.319"
         id="path34"
         inkscape:connector-curvature="0" /></clipPath><clipPath
       clipPathUnits="userSpaceOnUse"
       id="clipPath38"><path
         d="m 0.06,718.423 1021.39,0 0,-718.363 -1021.39,0 0,718.363 z"
         id="path40"
         inkscape:connector-curvature="0" /></clipPath><linearGradient
       x1="0"
       y1="0"
       x2="1"
       y2="0"
       gradientUnits="userSpaceOnUse"
       gradientTransform="matrix(0,-718.423,-718.423,0,510.724,718.423)"
       spreadMethod="pad"
       id="linearGradient50"><stop
         style="stop-opacity:1;stop-color:#e62426"
         offset="0"
         id="stop52" /><stop
         style="stop-opacity:1;stop-color:#c01e25"
         offset="1"
         id="stop54" /></linearGradient><linearGradient
       inkscape:collect="always"
       xlink:href="#linearGradient50"
       id="linearGradient3047"
       gradientUnits="userSpaceOnUse"
       gradientTransform="matrix(0,-718.423,-718.423,0,510.724,718.423)"
       spreadMethod="pad"
       x1="0"
       y1="0"
       x2="1"
       y2="0" /></defs><sodipodi:namedview
     pagecolor="#ffffff"
     bordercolor="#666666"
     borderopacity="1"
     objecttolerance="10"
     gridtolerance="10"
     guidetolerance="10"
     inkscape:pageopacity="0"
     inkscape:pageshadow="2"
     inkscape:window-width="1280"
     inkscape:window-height="683"
     id="namedview4"
     showgrid="false"
     inkscape:zoom="0.26258693"
     inkscape:cx="160.81303"
     inkscape:cy="449.375"
     inkscape:window-x="0"
     inkscape:window-y="0"
     inkscape:window-maximized="1"
     inkscape:current-layer="g10" /><g
     id="g10"
     inkscape:groupmode="layer"
     inkscape:label="YouTube-icon-full_color"
     transform="matrix(1.25,0,0,-1.25,0,256)"><g
       id="g3033"
       transform="matrix(0.20051107,0,0,0.20051107,-0.01203156,30.368102)"><g
         id="g12" /><g
         id="g14"><g
           clip-path="url(#clipPath18)"
           id="g16"><path
             id="path22"
             style="fill:#ffffff;fill-opacity:1;fill-rule:nonzero;stroke:none"
             d="m 405.225,226.719 276,143 -276,144 0,-287"
             inkscape:connector-curvature="0" /><path
             id="path24"
             style="fill:#eae0e1;fill-opacity:1;fill-rule:nonzero;stroke:none"
             d="m 647.267,352.094 -0.026,0.017 33.984,17.608 -33.958,-17.625"
             inkscape:connector-curvature="0" /><path
             id="path26"
             style="fill:#eae0e1;fill-opacity:1;fill-rule:nonzero;stroke:none"
             d="m 647.241,352.111 -242.016,161.608 276,-144 -33.984,-17.608"
             inkscape:connector-curvature="0" /></g></g><g
         id="g28"><g
           clip-path="url(#clipPath32)"
           id="g30"><g
             clip-path="url(#clipPath38)"
             id="g36"><g
               id="g42"><g
                 id="g48"><path
                   id="path56"
                   style="fill:url(#linearGradient3047);stroke:none"
                   d="m 0,0 1022,0 0,719 L 0,719 0,0 z"
                   inkscape:connector-curvature="0" /></g></g></g></g></g></g></g></svg>