<svg xmlns="http://www.w3.org/2000/svg" width="500" height="500"><defs><clipPath id="a"><path d="M.06 399.96H400V0H.06v399.96z"/></clipPath><clipPath id="b"><path d="M0 0h400v400H0V0z"/></clipPath></defs><g clip-path="url(#a)" transform="matrix(1.25 0 0 -1.25 0 500)"><g clip-path="url(#b)"><path d="M250 199.913c-.009-14.862-2.727-29.089-7.681-42.224-13.131-4.953-27.365-7.678-42.233-7.689h-.172c-14.861.011-29.091 2.728-42.222 7.68-4.954 13.133-7.682 27.367-7.692 42.233v.173c.01 14.862 2.732 29.09 7.678 42.223 13.138 4.955 27.369 7.682 42.236 7.691h.172c14.868-.009 29.102-2.736 42.233-7.691 4.954-13.133 7.672-27.361 7.681-42.223v-.173zm147.22 33.42H280.474l82.55 82.551a200.92 200.92 0 0 1-21.612 25.547l-.004.004a201.057 201.057 0 0 1-25.524 21.589l-82.551-82.55v116.745A201.232 201.232 0 0 1 200.106 400h-.213a201.229 201.229 0 0 1-33.226-2.781V280.473l-82.551 82.551a200.942 200.942 0 0 1-25.534-21.6l-.029-.028a201.01 201.01 0 0 1-21.576-25.512l82.551-82.551H2.78S.004 211.406 0 200.073v-.143a201.324 201.324 0 0 1 2.781-33.263h116.745l-82.549-82.55a201.137 201.137 0 0 1 47.14-47.141l82.55 82.549V2.781A201.347 201.347 0 0 1 199.858 0h.286a201.44 201.44 0 0 1 33.189 2.78v116.747l82.552-82.55a201.038 201.038 0 0 1 25.527 21.592l.02.019a201.182 201.182 0 0 1 21.591 25.527l-82.55 82.552h116.746A201.347 201.347 0 0 1 400 199.858v.286a201.44 201.44 0 0 1-2.78 33.189" fill="#ff4a00"/></g></g></svg>