<?xml version="1.0" encoding="UTF-8" standalone="no"?>
<!-- Created with Inkscape (http://www.inkscape.org/) -->

<svg
   xmlns:dc="http://purl.org/dc/elements/1.1/"
   xmlns:cc="http://creativecommons.org/ns#"
   xmlns:rdf="http://www.w3.org/1999/02/22-rdf-syntax-ns#"
   xmlns:svg="http://www.w3.org/2000/svg"
   xmlns="http://www.w3.org/2000/svg"
   xmlns:sodipodi="http://sodipodi.sourceforge.net/DTD/sodipodi-0.dtd"
   xmlns:inkscape="http://www.inkscape.org/namespaces/inkscape"
   id="svg2"
   version="1.1"
   inkscape:version="0.48.5 r10040"
   width="500"
   height="500"
   xml:space="preserve"
   sodipodi:docname="zapier-logomark.pdf"><metadata
     id="metadata8"><rdf:RDF><cc:Work
         rdf:about=""><dc:format>image/svg+xml</dc:format><dc:type
           rdf:resource="http://purl.org/dc/dcmitype/StillImage" /><dc:title></dc:title></cc:Work></rdf:RDF></metadata><defs
     id="defs6"><clipPath
       clipPathUnits="userSpaceOnUse"
       id="clipPath18"><path
         d="M 0.06,399.96 400,399.96 400,0 0.06,0 l 0,399.96 z"
         id="path20" /></clipPath><clipPath
       clipPathUnits="userSpaceOnUse"
       id="clipPath24"><path
         d="M 0,0 400,0 400,400 0,400 0,0 z"
         id="path26" /></clipPath></defs><sodipodi:namedview
     pagecolor="#ffffff"
     bordercolor="#666666"
     borderopacity="1"
     objecttolerance="10"
     gridtolerance="10"
     guidetolerance="10"
     inkscape:pageopacity="0"
     inkscape:pageshadow="2"
     inkscape:window-width="640"
     inkscape:window-height="480"
     id="namedview4"
     showgrid="false"
     inkscape:zoom="0.472"
     inkscape:cx="250"
     inkscape:cy="250"
     inkscape:window-x="0"
     inkscape:window-y="0"
     inkscape:window-maximized="0"
     inkscape:current-layer="g10" /><g
     id="g10"
     inkscape:groupmode="layer"
     inkscape:label="zapier-logomark"
     transform="matrix(1.25,0,0,-1.25,0,500)"><g
       id="g12" /><g
       id="g14"><g
         id="g16"
         clip-path="url(#clipPath18)"><g
           id="g22"
           clip-path="url(#clipPath24)"><path
             d="m 250,199.913 c -0.009,-14.862 -2.727,-29.089 -7.681,-42.224 -13.131,-4.953 -27.365,-7.678 -42.233,-7.689 l -0.172,0 c -14.861,0.011 -29.091,2.728 -42.222,7.68 -4.954,13.133 -7.682,27.367 -7.692,42.233 l 0,0.173 c 0.01,14.862 2.732,29.09 7.678,42.223 13.138,4.955 27.369,7.682 42.236,7.691 l 0.172,0 c 14.868,-0.009 29.102,-2.736 42.233,-7.691 4.954,-13.133 7.672,-27.361 7.681,-42.223 l 0,-0.173 z m 147.22,33.42 -116.746,0 82.55,82.551 c -6.488,9.113 -13.722,17.658 -21.612,25.547 l -0.004,0.004 c -7.883,7.881 -16.421,15.107 -25.524,21.589 l -82.551,-82.55 0,116.745 c -10.808,1.814 -21.904,2.775 -33.227,2.781 l -0.213,0 c -11.322,-0.006 -22.418,-0.967 -33.226,-2.781 l 0,-116.746 -82.551,82.551 c -9.108,-6.485 -17.649,-13.715 -25.534,-21.6 l -0.029,-0.028 C 50.677,333.517 43.456,324.983 36.977,315.884 l 82.551,-82.551 -116.748,0 c 0,0 -2.776,-21.927 -2.78,-33.26 l 0,-0.143 c 0.004,-11.335 0.966,-22.445 2.781,-33.263 l 116.745,0 -82.549,-82.55 C 49.95,65.9 65.899,49.949 84.117,36.976 l 82.55,82.549 0,-116.744 C 177.463,0.97 188.548,0.008 199.858,0 l 0.286,0 c 11.309,0.008 22.393,0.97 33.189,2.78 l 0,116.747 82.552,-82.55 c 9.105,6.483 17.643,13.71 25.527,21.592 l 0.02,0.019 c 7.881,7.884 15.108,16.423 21.591,25.527 l -82.55,82.552 116.746,0 c 1.811,10.796 2.773,21.881 2.781,33.191 l 0,0.286 c -0.008,11.309 -0.97,22.393 -2.78,33.189"
             style="fill:#ff4a00;fill-opacity:1;fill-rule:nonzero;stroke:none"
             id="path28" /></g></g></g></g></svg>