<svg xmlns="http://www.w3.org/2000/svg" viewBox="0 0 85.5 67.94"><defs><style>.cls-2{clip-path:url(#clip-path)}.cls-3{fill:#02363d}</style><clipPath id="clip-path"><path fill="none" d="M0 0h85.5v67.94H0z"/></clipPath></defs><g id="Layer_2" data-name="Layer 2"><g id="Layer_1-2" data-name="Layer 1"><g class="cls-2"><path class="cls-3" d="M40.67 0A12.6 12.6 0 0 1 28 12.57 12.6 12.6 0 0 1 15.42 0zm4.16 41.26a12.63 12.63 0 0 1 25.25 0z"/></g><path class="cls-3" d="M40.67 10.9v30.36H15.42L40.67 10.9zM44.83 0v30.36L70.08 0H44.83z"/><g class="cls-2"><path class="cls-3" d="M59.92 61.23a2.77 2.77 0 0 0-2.92-2.6 3 3 0 0 0-3.12 2.6zm-2.64 4.47a4.29 4.29 0 0 0 3-1.18l1.51 1.63a6 6 0 0 1-4.53 1.79c-3.69 0-6.07-2.45-6.07-5.76A5.65 5.65 0 0 1 57 56.42c3.66 0 5.74 2.79 5.56 6.65h-8.69a3.12 3.12 0 0 0 3.41 2.63"/></g><path class="cls-3" d="M.16 56.69v2.12h6.51L0 65.58v2.17h9.84v-2.12H3.09l6.66-6.77v-2.17H.16z"/><g class="cls-2"><path class="cls-3" d="M20.38 61.23a2.77 2.77 0 0 0-2.92-2.6 3 3 0 0 0-3.12 2.6zm-2.64 4.47a4.29 4.29 0 0 0 3-1.18l1.51 1.63a6 6 0 0 1-4.53 1.79c-3.69 0-6.07-2.45-6.07-5.76a5.65 5.65 0 0 1 5.74-5.76c3.66 0 5.74 2.79 5.56 6.65h-8.61a3.12 3.12 0 0 0 3.41 2.63m29.01-3.53a3.51 3.51 0 1 0-3.51 3.61 3.5 3.5 0 0 0 3.51-3.61m-9.38 0a5.53 5.53 0 0 1 5.55-5.75 4.79 4.79 0 0 1 3.69 1.66v-6.51H49v16.15h-2.37v-1.53a4.73 4.73 0 0 1-3.71 1.75 5.58 5.58 0 0 1-5.53-5.75m26.51 3.18l2.1-1.1a3.16 3.16 0 0 0 2.84 1.62c1.33 0 2-.68 2-1.46s-1.23-1.09-2.63-1.43c-1.89-.4-3.84-1-3.84-3.3 0-1.75 1.67-3.36 4.29-3.34a5.07 5.07 0 0 1 4.47 2.15l-2 1.09a2.87 2.87 0 0 0-2.49-1.26c-1.27 0-1.91.62-1.91 1.33s1 1 2.62 1.37c1.82.4 3.89 1 3.89 3.3 0 1.53-1.33 3.58-4.49 3.56a5.2 5.2 0 0 1-4.86-2.57"/></g><path class="cls-3" d="M75.17 51.57v16.15h2.35v-2.88l1.87-2.03 3.44 4.91h2.67l-4.44-6.33 4.33-4.73h-2.87l-5 5.48V51.57h-2.35z"/><g class="cls-2"><path class="cls-3" d="M30.37 56.43c-2.8 0-5.14 1.81-5.14 4.82v6.46h2.4v-6.15a2.63 2.63 0 0 1 2.82-2.9c1.78 0 2.67 1.09 2.67 2.9v6.16h2.4v-6.46c0-3-2.34-4.82-5.14-4.82"/></g></g></g></svg>