<svg
   width="19"
   height="19"
   viewBox="0 0 19 19"
   fill="none"
   xmlns="http://www.w3.org/2000/svg">
<path
    fill-rule="evenodd"
    clip-rule="evenodd"
    d="m 9.4999761,1.5474549 c -4.3920605,0 -7.9525213,3.5604611 -7.9525213,7.9525221 0,4.392026 3.5604608,7.952568 7.9525213,7.952568 4.3920259,0 7.9525679,-3.560542 7.9525679,-7.952568 0,-4.392061 -3.560542,-7.9525221 -7.9525679,-7.9525221 z M 0,9.499977 C 0,4.2532904 4.25329,0 9.4999761,0 14.746709,0 19,4.2532904 19,9.499977 19,14.746711 14.746709,19 9.4999761,19 4.25329,19 0,14.746711 0,9.499977 Z M 10.0471,5.4623763 c 0.30216,0.3021492 0.30216,0.7920525 0,1.0942134 L 7.8774175,8.7262495 h 5.1131045 c 0.427238,0 0.773727,0.3464088 0.773727,0.7737275 0,0.427283 -0.346489,0.773775 -0.773727,0.773775 H 7.8774175 L 10.0471,12.443329 c 0.30216,0.302161 0.30216,0.792111 0,1.094271 -0.3021606,0.302162 -0.7920754,0.302162 -1.0942246,0 L 5.4623757,10.047101 C 5.160215,9.74494 5.160215,9.2550253 5.4623757,8.952876 L 8.9528754,5.4623763 c 0.3021492,-0.302161 0.792064,-0.302161 1.0942246,0 z"
    fill="#666666"
    id="path2"
    style="stroke-width:1.16349" />
</svg>
