<svg xmlns="http://www.w3.org/2000/svg" width="16" height="16" viewBox="0 0 16 16"><path d="M.976 10.31a3.333 3.333 0 0 1 2.357-.977h5.334A3.333 3.333 0 0 1 12 12.667V14a.667.667 0 0 1-1.333 0v-1.333a2 2 0 0 0-2-2H3.333a2 2 0 0 0-2 2V14A.667.667 0 1 1 0 14v-1.333c0-.884.351-1.732.976-2.357ZM6 2.667a2 2 0 1 0 0 4 2 2 0 0 0 0-4Zm-3.333 2a3.333 3.333 0 1 1 6.666 0 3.333 3.333 0 0 1-6.666 0ZM12.688 9.92a.667.667 0 0 1 .812-.479 3.333 3.333 0 0 1 2.5 3.225V14a.667.667 0 0 1-1.333 0v-1.333a2 2 0 0 0-1.5-1.935.667.667 0 0 1-.48-.812ZM10.02 1.921a.667.667 0 0 1 .812-.48 3.333 3.333 0 0 1 0 6.458.667.667 0 0 1-.33-1.292 2 2 0 0 0 0-3.875.667.667 0 0 1-.481-.81Z"/></svg>