<svg width="16" height="16" viewBox="0 0 16 16" fill="none" xmlns="http://www.w3.org/2000/svg">
<g clip-path="url(#clip0_2196_167945)">
<path d="M14.6667 2.66675H1.33331C0.596921 2.66675 -2.47955e-05 3.26369 -2.47955e-05 4.00008V12.0001C-2.47955e-05 12.7365 0.596921 13.3334 1.33331 13.3334H14.6667C15.4031 13.3334 16 12.7365 16 12.0001V4.00008C16 3.26369 15.4031 2.66675 14.6667 2.66675ZM14.8889 12.0001C14.8889 12.1226 14.7892 12.2223 14.6667 12.2223H1.33331C1.21078 12.2223 1.11109 12.1226 1.11109 12.0001V4.00008C1.11109 3.87756 1.21078 3.77786 1.33331 3.77786H14.6667C14.7892 3.77786 14.8889 3.87756 14.8889 4.00008V12.0001ZM4.7222 8.38898V7.6112C4.7222 7.42712 4.57295 7.27787 4.38887 7.27787H3.61109C3.42701 7.27787 3.27776 7.42712 3.27776 7.6112V8.38898C3.27776 8.57306 3.42701 8.72231 3.61109 8.72231H4.38887C4.57295 8.72231 4.7222 8.57306 4.7222 8.38898ZM7.38888 8.38898V7.6112C7.38888 7.42712 7.23963 7.27787 7.05554 7.27787H6.27776C6.09368 7.27787 5.94443 7.42712 5.94443 7.6112V8.38898C5.94443 8.57306 6.09368 8.72231 6.27776 8.72231H7.05554C7.23963 8.72231 7.38888 8.57306 7.38888 8.38898ZM10.0555 8.38898V7.6112C10.0555 7.42712 9.9063 7.27787 9.72221 7.27787H8.94443C8.76035 7.27787 8.6111 7.42712 8.6111 7.6112V8.38898C8.6111 8.57306 8.76035 8.72231 8.94443 8.72231H9.72221C9.9063 8.72231 10.0555 8.57306 10.0555 8.38898ZM12.7222 8.38898V7.6112C12.7222 7.42712 12.573 7.27787 12.3889 7.27787H11.6111C11.427 7.27787 11.2778 7.42712 11.2778 7.6112V8.38898C11.2778 8.57306 11.427 8.72231 11.6111 8.72231H12.3889C12.573 8.72231 12.7222 8.57306 12.7222 8.38898ZM3.38887 10.6668V9.88898C3.38887 9.7049 3.23962 9.55565 3.05554 9.55565H2.27776C2.09367 9.55565 1.94442 9.7049 1.94442 9.88898V10.6668C1.94442 10.8508 2.09367 11.0001 2.27776 11.0001H3.05554C3.23962 11.0001 3.38887 10.8508 3.38887 10.6668ZM14.0556 10.6668V9.88898C14.0556 9.7049 13.9063 9.55565 13.7222 9.55565H12.9444C12.7604 9.55565 12.6111 9.7049 12.6111 9.88898V10.6668C12.6111 10.8508 12.7604 11.0001 12.9444 11.0001H13.7222C13.9063 11.0001 14.0556 10.8508 14.0556 10.6668ZM3.38887 6.1112V5.33342C3.38887 5.14934 3.23962 5.00009 3.05554 5.00009H2.27776C2.09367 5.00009 1.94442 5.14934 1.94442 5.33342V6.1112C1.94442 6.29528 2.09367 6.44453 2.27776 6.44453H3.05554C3.23962 6.44453 3.38887 6.29528 3.38887 6.1112ZM6.05554 6.1112V5.33342C6.05554 5.14934 5.90629 5.00009 5.72221 5.00009H4.94443C4.76034 5.00009 4.61109 5.14934 4.61109 5.33342V6.1112C4.61109 6.29528 4.76034 6.44453 4.94443 6.44453H5.72221C5.90629 6.44453 6.05554 6.29528 6.05554 6.1112ZM8.72221 6.1112V5.33342C8.72221 5.14934 8.57296 5.00009 8.38888 5.00009H7.6111C7.42701 5.00009 7.27776 5.14934 7.27776 5.33342V6.1112C7.27776 6.29528 7.42701 6.44453 7.6111 6.44453H8.38888C8.57296 6.44453 8.72221 6.29528 8.72221 6.1112ZM11.3889 6.1112V5.33342C11.3889 5.14934 11.2396 5.00009 11.0555 5.00009H10.2778C10.0937 5.00009 9.94444 5.14934 9.94444 5.33342V6.1112C9.94444 6.29528 10.0937 6.44453 10.2778 6.44453H11.0555C11.2396 6.44453 11.3889 6.29528 11.3889 6.1112ZM14.0556 6.1112V5.33342C14.0556 5.14934 13.9063 5.00009 13.7222 5.00009H12.9444C12.7604 5.00009 12.6111 5.14934 12.6111 5.33342V6.1112C12.6111 6.29528 12.7604 6.44453 12.9444 6.44453H13.7222C13.9063 6.44453 14.0556 6.29528 14.0556 6.1112ZM11.3333 10.5001V10.0556C11.3333 9.87157 11.1841 9.72231 11 9.72231H4.99998C4.8159 9.72231 4.66665 9.87157 4.66665 10.0556V10.5001C4.66665 10.6842 4.8159 10.8334 4.99998 10.8334H11C11.1841 10.8334 11.3333 10.6842 11.3333 10.5001Z" fill="black"/>
</g>
<defs>
<clipPath id="clip0_2196_167945">
<rect width="16" height="16" fill="white"/>
</clipPath>
</defs>
</svg>
