<svg width="16" height="16" viewBox="0 0 16 16" fill="none" xmlns="http://www.w3.org/2000/svg">
<g clip-path="url(#clip0_1988_130420)">
<path fill-rule="evenodd" clip-rule="evenodd" d="M9.6666 0.858889C8.0548 0.482742 6.36315 0.662901 4.86672 1.37007C3.37029 2.07724 2.15709 3.26984 1.42439 4.75393C0.691685 6.23803 0.482574 7.92634 0.831055 9.54435C1.17954 11.1624 2.06511 12.6149 3.34379 13.6658C4.62247 14.7167 6.21905 15.3041 7.87392 15.3326C9.52878 15.361 11.1446 14.8288 12.4587 13.8225C12.751 13.5987 12.8065 13.1802 12.5826 12.8879C12.3588 12.5956 11.9403 12.5401 11.648 12.764C10.5729 13.5873 9.25082 14.0227 7.89684 13.9994C6.54286 13.9762 5.23657 13.4955 4.19038 12.6357C3.14418 11.7759 2.41962 10.5874 2.1345 9.26362C1.84938 7.9398 2.02047 6.55845 2.61995 5.34419C3.21944 4.12993 4.21206 3.15417 5.43641 2.57557C6.66076 1.99698 8.04484 1.84958 9.36358 2.15733C10.6823 2.46509 11.8582 3.20991 12.7 4.27067C13.5417 5.33143 13.9999 6.64579 14 7.99995V8.66658C14 9.0202 13.8595 9.35934 13.6095 9.60939C13.3594 9.85944 13.0203 9.99991 12.6667 9.99991C12.313 9.99991 11.9739 9.85944 11.7239 9.60939C11.4738 9.35934 11.3333 9.0202 11.3333 8.66658V5.33325C11.3333 4.96506 11.0349 4.66658 10.6667 4.66658C10.2985 4.66658 10.0001 4.96495 10 5.33305C9.44289 4.91459 8.7504 4.66663 8 4.66663C6.15905 4.66663 4.66667 6.15901 4.66667 7.99996C4.66667 9.84091 6.15905 11.3333 8 11.3333C8.99207 11.3333 9.88292 10.8999 10.4935 10.2121C10.5792 10.3325 10.6752 10.4463 10.781 10.5522C11.2811 11.0523 11.9594 11.3332 12.6667 11.3332C13.3739 11.3332 14.0522 11.0523 14.5523 10.5522C15.0524 10.0521 15.3333 9.37382 15.3333 8.66658V7.99987C15.3332 6.34476 14.7732 4.73835 13.7444 3.44186C12.7156 2.14537 11.2784 1.23504 9.6666 0.858889ZM10 7.99996C10 6.89539 9.10457 5.99996 8 5.99996C6.89543 5.99996 6 6.89539 6 7.99996C6 9.10453 6.89543 9.99996 8 9.99996C9.10457 9.99996 10 9.10453 10 7.99996Z" fill="black"/>
</g>
<defs>
<clipPath id="clip0_1988_130420">
<rect width="16" height="16" fill="white"/>
</clipPath>
</defs>
</svg>
