<svg width="16" height="16" viewBox="0 0 16 16" fill="none" xmlns="http://www.w3.org/2000/svg">
<path d="M8 1.91675C8.41421 1.91675 8.75 2.25253 8.75 2.66675V13.3334C8.75 13.7476 8.41421 14.0834 8 14.0834C7.58579 14.0834 7.25 13.7476 7.25 13.3334V2.66675C7.25 2.25253 7.58579 1.91675 8 1.91675Z" fill="black"/>
<path d="M12 5.91675C12.4142 5.91675 12.75 6.25253 12.75 6.66675V13.3334C12.75 13.7476 12.4142 14.0834 12 14.0834C11.5858 14.0834 11.25 13.7476 11.25 13.3334V6.66675C11.25 6.25253 11.5858 5.91675 12 5.91675Z" fill="black"/>
<path d="M4.75 9.33325C4.75 8.91904 4.41421 8.58325 4 8.58325C3.58579 8.58325 3.25 8.91904 3.25 9.33325V13.3333C3.25 13.7475 3.58579 14.0833 4 14.0833C4.41421 14.0833 4.75 13.7475 4.75 13.3333V9.33325Z" fill="black"/>
</svg>
