<svg width="16" height="16" viewBox="0 0 16 16" fill="none" xmlns="http://www.w3.org/2000/svg">
<g clip-path="url(#clip0_1995_131411)">
<path fill-rule="evenodd" clip-rule="evenodd" d="M8 1.99996C4.68629 1.99996 2 4.68625 2 7.99996C2 11.3137 4.68629 14 8 14C11.3137 14 14 11.3137 14 7.99996C14 4.68625 11.3137 1.99996 8 1.99996ZM0.666667 7.99996C0.666667 3.94987 3.94991 0.666626 8 0.666626C12.0501 0.666626 15.3333 3.94987 15.3333 7.99996C15.3333 12.05 12.0501 15.3333 8 15.3333C3.94991 15.3333 0.666667 12.05 0.666667 7.99996Z" fill="black"/>
<path fill-rule="evenodd" clip-rule="evenodd" d="M8 3.33329C8.36819 3.33329 8.66667 3.63177 8.66667 3.99996V7.58794L10.9648 8.73701C11.2941 8.90167 11.4276 9.30212 11.263 9.63144C11.0983 9.96075 10.6978 10.0942 10.3685 9.92958L7.70186 8.59624C7.476 8.48332 7.33333 8.25247 7.33333 7.99996V3.99996C7.33333 3.63177 7.63181 3.33329 8 3.33329Z" fill="black"/>
</g>
<defs>
<clipPath id="clip0_1995_131411">
<rect width="16" height="16" fill="white"/>
</clipPath>
</defs>
</svg>
