<svg width="16" height="16" viewBox="0 0 16 16" fill="none" xmlns="http://www.w3.org/2000/svg">
<path fill-rule="evenodd" clip-rule="evenodd" d="M0.930054 4.50629C0.930054 3.49587 1.74917 2.67676 2.75959 2.67676H13.2404C14.2508 2.67676 15.0699 3.49587 15.0699 4.50629V11.4935C15.0699 12.5039 14.2508 13.323 13.2404 13.323H2.75959C1.74917 13.323 0.930054 12.5039 0.930054 11.4935V4.50629ZM2.26005 4.50629C2.26005 4.23041 2.4837 4.00676 2.75959 4.00676H13.2404C13.5163 4.00676 13.7399 4.23041 13.7399 4.50629V6.17041H2.26005V4.50629ZM13.7399 7.50041V11.4935C13.7399 11.7694 13.5163 11.993 13.2404 11.993H2.75959C2.4837 11.993 2.26005 11.7694 2.26005 11.4935V7.50041H13.7399Z" fill="black"/>
</svg>
