<svg width="16" height="16" viewBox="0 0 16 16" fill="none" xmlns="http://www.w3.org/2000/svg">
<g clip-path="url(#clip0_2195_167881)">
<path fill-rule="evenodd" clip-rule="evenodd" d="M13.3333 0.587402C12.7819 0.587402 12.253 0.806462 11.8631 1.19639L5.52977 7.52972C5.44455 7.61495 5.38409 7.72174 5.35486 7.83866L4.68819 10.5053C4.63153 10.7319 4.69793 10.9717 4.86311 11.1368C5.02828 11.302 5.268 11.3684 5.49462 11.3118L8.16129 10.6451C8.27821 10.6159 8.385 10.5554 8.47023 10.4702L14.8036 4.13684C15.1935 3.74691 15.4125 3.21806 15.4125 2.66662C15.4125 2.11517 15.1935 1.58632 14.8036 1.19639C14.4136 0.806462 13.8848 0.587402 13.3333 0.587402ZM12.8036 2.13684C12.9441 1.99634 13.1346 1.9174 13.3333 1.9174C13.532 1.9174 13.7226 1.99634 13.8631 2.13684C14.0036 2.27735 14.0825 2.46791 14.0825 2.66662C14.0825 2.86532 14.0036 3.05588 13.8631 3.19639L7.66002 9.39948L6.24729 9.75266L6.60047 8.33993L12.8036 2.13684Z" fill="black"/>
<path d="M2.66667 2.00171C2.13668 2.00171 1.62839 2.21225 1.25363 2.58701C0.878871 2.96177 0.668333 3.47005 0.668333 4.00004V13.3334C0.668333 13.8634 0.878871 14.3717 1.25363 14.7464C1.62839 15.1212 2.13668 15.3317 2.66667 15.3317H12C12.53 15.3317 13.0383 15.1212 13.413 14.7464C13.7878 14.3717 13.9983 13.8634 13.9983 13.3334V8.66671C13.9983 8.29944 13.7006 8.00171 13.3333 8.00171C12.9661 8.00171 12.6683 8.29944 12.6683 8.66671V13.3334C12.6683 13.5106 12.5979 13.6806 12.4726 13.806C12.3472 13.9313 12.1773 14.0017 12 14.0017H2.66667C2.48941 14.0017 2.31942 13.9313 2.19408 13.806C2.06875 13.6806 1.99833 13.5106 1.99833 13.3334V4.00004C1.99833 3.82279 2.06875 3.6528 2.19408 3.52746C2.31942 3.40212 2.48941 3.33171 2.66667 3.33171H7.33333C7.7006 3.33171 7.99833 3.03398 7.99833 2.66671C7.99833 2.29944 7.7006 2.00171 7.33333 2.00171H2.66667Z" fill="black"/>
</g>
<defs>
<clipPath id="clip0_2195_167881">
<rect width="16" height="16" fill="white"/>
</clipPath>
</defs>
</svg>
