<svg width="16" height="16" viewBox="0 0 16 16" fill="none" xmlns="http://www.w3.org/2000/svg">
<path d="M5.33333 8.00171C4.96606 8.00171 4.66833 8.29944 4.66833 8.66671C4.66833 9.03398 4.96606 9.33171 5.33333 9.33171H10.6667C11.0339 9.33171 11.3317 9.03398 11.3317 8.66671C11.3317 8.29944 11.0339 8.00171 10.6667 8.00171H5.33333Z" fill="black"/>
<path d="M4.66833 11.3332C4.66833 10.9659 4.96606 10.6682 5.33333 10.6682H10.6667C11.0339 10.6682 11.3317 10.9659 11.3317 11.3332C11.3317 11.7005 11.0339 11.9982 10.6667 11.9982H5.33333C4.96606 11.9982 4.66833 11.7005 4.66833 11.3332Z" fill="black"/>
<path d="M5.33333 5.33496C4.96606 5.33496 4.66833 5.63269 4.66833 5.99996C4.66833 6.36723 4.96606 6.66496 5.33333 6.66496H6.66667C7.03394 6.66496 7.33167 6.36723 7.33167 5.99996C7.33167 5.63269 7.03394 5.33496 6.66667 5.33496H5.33333Z" fill="black"/>
<path fill-rule="evenodd" clip-rule="evenodd" d="M2.58697 1.25351C2.96173 0.878751 3.47001 0.668213 4 0.668213H9.33333C9.51333 0.668213 9.67662 0.739726 9.79635 0.855889L9.80356 0.862987L13.8036 4.86299L13.8149 4.8746C13.9311 4.99658 13.9967 5.15824 13.9983 5.32693L13.9983 5.33321V13.3332C13.9983 13.8632 13.7878 14.3715 13.413 14.7462C13.0383 15.121 12.53 15.3315 12 15.3315H4C3.47001 15.3315 2.96172 15.121 2.58697 14.7462C2.2122 14.3715 2.00167 13.8632 2.00167 13.3332V2.66655C2.00167 2.13656 2.2122 1.62827 2.58697 1.25351ZM4 1.99821H8.66833V5.33321C8.66833 5.70048 8.96606 5.99821 9.33333 5.99821H12.6683V13.3332C12.6683 13.5105 12.5979 13.6805 12.4726 13.8058C12.3472 13.9311 12.1773 14.0015 12 14.0015H4C3.82275 14.0015 3.65275 13.9311 3.52742 13.8058C3.40208 13.6805 3.33167 13.5105 3.33167 13.3332V2.66655C3.33167 2.48929 3.40208 2.3193 3.52742 2.19396C3.65275 2.06863 3.82275 1.99821 4 1.99821ZM9.99833 2.93866L11.7279 4.66821H9.99833V2.93866Z" fill="black"/>
</svg>
