<svg width="16" height="16" viewBox="0 0 16 16" fill="none" xmlns="http://www.w3.org/2000/svg">
<path fill-rule="evenodd" clip-rule="evenodd" d="M4.665 6.58132C5.81507 6.28591 6.665 5.24219 6.665 3.99996C6.665 2.52812 5.47184 1.33496 4 1.33496C2.52816 1.33496 1.335 2.52812 1.335 3.99996C1.335 5.24219 2.18493 6.28591 3.335 6.58132V14C3.335 14.3672 3.63273 14.665 4 14.665C4.36727 14.665 4.665 14.3672 4.665 14V6.58132ZM2.665 3.99996C2.665 3.26266 3.2627 2.66496 4 2.66496C4.7373 2.66496 5.335 3.26266 5.335 3.99996C5.335 4.73726 4.7373 5.33496 4 5.33496C3.2627 5.33496 2.665 4.73726 2.665 3.99996Z" fill="black"/>
<path fill-rule="evenodd" clip-rule="evenodd" d="M9.335 12C9.335 10.7577 10.1849 9.71401 11.335 9.4186V5.33329C11.335 5.15604 11.2646 4.98605 11.1392 4.86071C11.0139 4.73537 10.8439 4.66496 10.6667 4.66496H8.66667C8.2994 4.66496 8.00167 4.36723 8.00167 3.99996C8.00167 3.63269 8.2994 3.33496 8.66667 3.33496H10.6667C11.1967 3.33496 11.7049 3.5455 12.0797 3.92026C12.4545 4.29502 12.665 4.8033 12.665 5.33329V9.4186C13.8151 9.71401 14.665 10.7577 14.665 12C14.665 13.4718 13.4718 14.665 12 14.665C10.5282 14.665 9.335 13.4718 9.335 12ZM10.665 12C10.665 11.2627 11.2627 10.665 12 10.665C12.7373 10.665 13.335 11.2627 13.335 12C13.335 12.7373 12.7373 13.335 12 13.335C11.2627 13.335 10.665 12.7373 10.665 12Z" fill="black"/>
</svg>
