<svg width="17" height="16" viewBox="0 0 17 16" fill="none" xmlns="http://www.w3.org/2000/svg">
<path fill-rule="evenodd" clip-rule="evenodd" d="M6.90234 1.33909C7.26736 1.37965 7.53039 1.70843 7.48983 2.07346L7.12744 5.33496H9.78926L10.168 1.92658C10.2085 1.56156 10.5373 1.29853 10.9023 1.33909C11.2674 1.37965 11.5304 1.70843 11.4898 2.07346L11.1274 5.33496H13.4956C13.8628 5.33496 14.1606 5.63269 14.1606 5.99996C14.1606 6.36723 13.8628 6.66496 13.4956 6.66496H10.9797L10.683 9.33496H13.4956C13.8628 9.33496 14.1606 9.63269 14.1606 9.99996C14.1606 10.3672 13.8628 10.665 13.4956 10.665H10.5352L10.1565 14.0735C10.1159 14.4385 9.78715 14.7015 9.42213 14.661C9.0571 14.6204 8.79407 14.2916 8.83463 13.9266L9.19703 10.665H6.53522L6.1565 14.0735C6.11594 14.4385 5.78715 14.7015 5.42213 14.661C5.05711 14.6204 4.79407 14.2916 4.83463 13.9266L5.19703 10.665H2.8289C2.46163 10.665 2.1639 10.3672 2.1639 9.99996C2.1639 9.63269 2.46163 9.33496 2.8289 9.33496H5.34481L5.64148 6.66496H2.8289C2.46163 6.66496 2.1639 6.36723 2.1639 5.99996C2.1639 5.63269 2.46163 5.33496 2.8289 5.33496H5.78926L6.16797 1.92658C6.20852 1.56156 6.53731 1.29853 6.90234 1.33909ZM9.34481 9.33496L9.64148 6.66496H6.97966L6.683 9.33496H9.34481Z" fill="black"/>
</svg>
