<svg width="16" height="16" viewBox="0 0 16 16" fill="none" xmlns="http://www.w3.org/2000/svg">
<g clip-path="url(#clip0_2196_167970)">
<path d="M8.00002 7.33502C8.36729 7.33502 8.66502 7.63275 8.66502 8.00002V10.6667C8.66502 11.034 8.36729 11.3317 8.00002 11.3317C7.63275 11.3317 7.33502 11.034 7.33502 10.6667V8.00002C7.33502 7.63275 7.63275 7.33502 8.00002 7.33502Z" fill="black"/>
<path d="M8 4.58331C7.58579 4.58331 7.25 4.9191 7.25 5.33331C7.25 5.74753 7.58579 6.08331 8 6.08331H8.00667C8.42088 6.08331 8.75667 5.74753 8.75667 5.33331C8.75667 4.9191 8.42088 4.58331 8.00667 4.58331H8Z" fill="black"/>
<path fill-rule="evenodd" clip-rule="evenodd" d="M0.668335 8C0.668335 3.95083 3.95083 0.668335 8 0.668335C12.0492 0.668335 15.3317 3.95083 15.3317 8C15.3317 12.0492 12.0492 15.3317 8 15.3317C3.95083 15.3317 0.668335 12.0492 0.668335 8ZM8 1.99834C4.68537 1.99834 1.99834 4.68537 1.99834 8C1.99834 11.3146 4.68537 14.0017 8 14.0017C11.3146 14.0017 14.0017 11.3146 14.0017 8C14.0017 4.68537 11.3146 1.99834 8 1.99834Z" fill="black"/>
</g>
<defs>
<clipPath id="clip0_2196_167970">
<rect width="16" height="16" fill="white"/>
</clipPath>
</defs>
</svg>
