<svg width="16" height="16" viewBox="0 0 16 16" fill="none" xmlns="http://www.w3.org/2000/svg">
<g clip-path="url(#clip0_2195_167880)">
<path fill-rule="evenodd" clip-rule="evenodd" d="M0.668333 7.99988C0.668333 3.95071 3.95083 0.668213 8 0.668213C12.0492 0.668213 15.3317 3.95071 15.3317 7.99988C15.3317 12.049 12.0492 15.3315 8 15.3315C3.95083 15.3315 0.668333 12.049 0.668333 7.99988ZM3.31191 4.25228C2.48991 5.27923 1.99833 6.58215 1.99833 7.99988C1.99833 9.41765 2.48994 10.7206 3.31199 11.7476L5.22113 9.83844C4.8718 9.3115 4.66833 8.67945 4.66833 7.99988C4.66833 7.32035 4.87177 6.68834 5.22106 6.16143L3.31191 4.25228ZM6.16161 10.7789L4.25246 12.688C5.2794 13.51 6.5823 14.0015 8 14.0015C9.4177 14.0015 10.7206 13.51 11.7475 12.688L9.83839 10.7789C9.31149 11.1281 8.6795 11.3315 8 11.3315C7.3205 11.3315 6.68851 11.1281 6.16161 10.7789ZM14.0017 7.99988C14.0017 9.41765 13.5101 10.7206 12.688 11.7476L10.7789 9.83844C11.1282 9.3115 11.3317 8.67945 11.3317 7.99988C11.3317 7.32036 11.1282 6.68836 10.779 6.16145L12.6881 4.2523C13.5101 5.27925 14.0017 6.58216 14.0017 7.99988ZM11.7477 3.31184L9.83852 5.22098C9.31159 4.87167 8.67956 4.66821 8 4.66821C7.32045 4.66821 6.68843 4.87166 6.1615 5.22097L4.25236 3.31182C5.27932 2.4898 6.58225 1.99821 8 1.99821C9.41776 1.99821 10.7207 2.48981 11.7477 3.31184ZM8 5.99821C6.89451 5.99821 5.99833 6.89439 5.99833 7.99988C5.99833 9.10537 6.89451 10.0015 8 10.0015C9.10549 10.0015 10.0017 9.10537 10.0017 7.99988C10.0017 6.89439 9.10549 5.99821 8 5.99821Z" fill="black"/>
</g>
<defs>
<clipPath id="clip0_2195_167880">
<rect width="16" height="16" fill="white"/>
</clipPath>
</defs>
</svg>
