<svg width="16" height="16" viewBox="0 0 16 16" fill="none" xmlns="http://www.w3.org/2000/svg">
<path fill-rule="evenodd" clip-rule="evenodd" d="M2.66667 2.00171C1.56606 2.00171 0.668333 2.89944 0.668333 4.00004V12C0.668333 13.1006 1.56606 13.9984 2.66667 13.9984H13.3333C14.4339 13.9984 15.3317 13.1006 15.3317 12V4.00004C15.3317 2.89944 14.4339 2.00171 13.3333 2.00171H2.66667ZM2.06895 3.70314C2.17925 3.48393 2.40689 3.33171 2.66667 3.33171H13.3333C13.5931 3.33171 13.8208 3.48393 13.9311 3.70314L8 7.85488L2.06895 3.70314ZM1.99833 5.27718L1.99833 12C1.99833 12.3661 2.3006 12.6684 2.66667 12.6684H13.3333C13.6994 12.6684 14.0017 12.3661 14.0017 12V5.27718L8.38135 9.2114C8.15238 9.37169 7.84762 9.37169 7.61865 9.2114L1.99833 5.27718Z" fill="black"/>
</svg>
