<svg width="16" height="16" viewBox="0 0 16 16" fill="none" xmlns="http://www.w3.org/2000/svg">
<path fill-rule="evenodd" clip-rule="evenodd" d="M3.33333 2.66496C3.15608 2.66496 2.98609 2.73537 2.86075 2.86071C2.73541 2.98605 2.665 3.15604 2.665 3.33329V12.3945L4.19644 10.8631C4.32115 10.7384 4.4903 10.6683 4.66667 10.6683H12.6667C12.8439 10.6683 13.0139 10.5979 13.1392 10.4725C13.2646 10.3472 13.335 10.1772 13.335 9.99996V3.33329C13.335 3.15604 13.2646 2.98605 13.1392 2.86071C13.0139 2.73537 12.8439 2.66496 12.6667 2.66496H3.33333ZM1.9203 1.92026C2.29506 1.5455 2.80334 1.33496 3.33333 1.33496H12.6667C13.1967 1.33496 13.7049 1.5455 14.0797 1.92026C14.4545 2.29502 14.665 2.8033 14.665 3.33329V9.99996C14.665 10.53 14.4545 11.0382 14.0797 11.413C13.7049 11.7878 13.1967 11.9983 12.6667 11.9983H4.94212L2.47023 14.4702C2.28004 14.6604 1.99401 14.7173 1.74552 14.6143C1.49702 14.5114 1.335 14.2689 1.335 14V3.33329C1.335 2.8033 1.54554 2.29502 1.9203 1.92026Z" fill="black"/>
</svg>
