<svg width="16" height="16" viewBox="0 0 16 16" fill="none" xmlns="http://www.w3.org/2000/svg">
<path fill-rule="evenodd" clip-rule="evenodd" d="M8.665 11.9983H13.3333C14.437 11.9983 15.3317 11.1036 15.3317 9.99996V3.33329C15.3317 2.22965 14.437 1.33496 13.3333 1.33496H2.66667C1.56302 1.33496 0.668333 2.22965 0.668333 3.33329V9.99996C0.668333 11.1036 1.56302 11.9983 2.66667 11.9983H7.335V13.335H5.33333C4.96606 13.335 4.66833 13.6327 4.66833 14C4.66833 14.3672 4.96606 14.665 5.33333 14.665H10.6667C11.0339 14.665 11.3317 14.3672 11.3317 14C11.3317 13.6327 11.0339 13.335 10.6667 13.335H8.665V11.9983ZM2.66667 2.66496C2.29756 2.66496 1.99833 2.96418 1.99833 3.33329V9.99996C1.99833 10.3691 2.29756 10.6683 2.66667 10.6683H7.98951C7.993 10.6682 7.9965 10.6682 8 10.6682C8.0035 10.6682 8.007 10.6682 8.01049 10.6683H13.3333C13.7024 10.6683 14.0017 10.3691 14.0017 9.99996V3.33329C14.0017 2.96418 13.7024 2.66496 13.3333 2.66496H2.66667Z" fill="black"/>
</svg>
