<svg width="16" height="16" viewBox="0 0 16 16" fill="none" xmlns="http://www.w3.org/2000/svg">
<path d="M8.665 1.33321C8.665 0.965944 8.36727 0.668213 8 0.668213C7.63273 0.668213 7.335 0.965944 7.335 1.33321V7.99988C7.335 8.36715 7.63273 8.66488 8 8.66488C8.36727 8.66488 8.665 8.36715 8.665 7.99988V1.33321Z" fill="black"/>
<path d="M4.22364 4.89687C4.48329 4.63713 4.48322 4.21607 4.22348 3.95642C3.96374 3.69676 3.54269 3.69683 3.28303 3.95657C2.35113 4.88877 1.71657 6.07637 1.45957 7.36919C1.20258 8.66201 1.3347 10.002 1.83922 11.2198C2.34374 12.4375 3.19801 13.4783 4.29402 14.2106C5.39002 14.9428 6.67855 15.3337 7.99667 15.3337C9.31479 15.3337 10.6033 14.9428 11.6993 14.2106C12.7953 13.4783 13.6496 12.4375 14.1541 11.2198C14.6586 10.002 14.7908 8.66201 14.5338 7.36919C14.2768 6.07637 13.6422 4.88877 12.7103 3.95657C12.4506 3.69683 12.0296 3.69676 11.7699 3.95642C11.5101 4.21607 11.51 4.63713 11.7697 4.89687C12.5156 5.64305 13.0236 6.59366 13.2293 7.6285C13.435 8.66334 13.3292 9.73594 12.9254 10.7107C12.5216 11.6854 11.8378 12.5185 10.9605 13.1047C10.0832 13.6908 9.05176 14.0037 7.99667 14.0037C6.94158 14.0037 5.91018 13.6908 5.03288 13.1047C4.15558 12.5185 3.47178 11.6854 3.06794 10.7107C2.66409 9.73594 2.55834 8.66334 2.76405 7.6285C2.96976 6.59366 3.4777 5.64305 4.22364 4.89687Z" fill="black"/>
</svg>
