<svg width="16" height="16" viewBox="0 0 16 16" fill="none" xmlns="http://www.w3.org/2000/svg">
<g clip-path="url(#clip0_2051_132149)">
<path d="M5.90008 4.90002C5.3478 4.90002 4.90008 5.34774 4.90008 5.90002C4.90008 6.45231 5.3478 6.90002 5.90008 6.90002H5.91008C6.46237 6.90002 6.91008 6.45231 6.91008 5.90002C6.91008 5.34774 6.46237 4.90002 5.91008 4.90002H5.90008Z" fill="black"/>
<path d="M9.10008 5.90002C9.10008 5.34774 9.5478 4.90002 10.1001 4.90002H10.1101C10.6624 4.90002 11.1101 5.34774 11.1101 5.90002C11.1101 6.45231 10.6624 6.90002 10.1101 6.90002H10.1001C9.5478 6.90002 9.10008 6.45231 9.10008 5.90002Z" fill="black"/>
<path d="M5.732 9.00102C5.51164 8.70721 5.09481 8.64766 4.801 8.86802C4.50718 9.08839 4.44764 9.50521 4.668 9.79902C6.334 12.0204 9.666 12.0204 11.332 9.79902C11.5524 9.50521 11.4928 9.08839 11.199 8.86802C10.9052 8.64766 10.4884 8.70721 10.268 9.00102C9.134 10.513 6.866 10.513 5.732 9.00102Z" fill="black"/>
<path fill-rule="evenodd" clip-rule="evenodd" d="M8 0.334961C3.76674 0.334961 0.334999 3.7667 0.334999 7.99996C0.334999 12.2332 3.76674 15.665 8 15.665C12.2333 15.665 15.665 12.2332 15.665 7.99996C15.665 3.7667 12.2333 0.334961 8 0.334961ZM1.665 7.99996C1.665 4.50124 4.50128 1.66496 8 1.66496C11.4987 1.66496 14.335 4.50124 14.335 7.99996C14.335 11.4987 11.4987 14.335 8 14.335C4.50128 14.335 1.665 11.4987 1.665 7.99996Z" fill="black"/>
</g>
<defs>
<clipPath id="clip0_2051_132149">
<rect width="16" height="16" fill="white"/>
</clipPath>
</defs>
</svg>
