<svg width="16" height="16" viewBox="0 0 16 16" fill="none" xmlns="http://www.w3.org/2000/svg">
<g clip-path="url(#clip0_2802_206345)">
<path fill-rule="evenodd" clip-rule="evenodd" d="M6 5.33496C5.63273 5.33496 5.335 5.63269 5.335 5.99996V9.99996C5.335 10.3672 5.63273 10.665 6 10.665H10C10.3673 10.665 10.665 10.3672 10.665 9.99996V5.99996C10.665 5.63269 10.3673 5.33496 10 5.33496H6ZM6.665 9.33496V6.66496H9.335V9.33496H6.665Z" fill="black"/>
<path fill-rule="evenodd" clip-rule="evenodd" d="M8 0.668213C3.95083 0.668213 0.668333 3.95071 0.668333 7.99988C0.668333 12.049 3.95083 15.3315 8 15.3315C12.0492 15.3315 15.3317 12.049 15.3317 7.99988C15.3317 3.95071 12.0492 0.668213 8 0.668213ZM1.99833 7.99988C1.99833 4.68525 4.68537 1.99821 8 1.99821C11.3146 1.99821 14.0017 4.68525 14.0017 7.99988C14.0017 11.3145 11.3146 14.0015 8 14.0015C4.68537 14.0015 1.99833 11.3145 1.99833 7.99988Z" fill="black"/>
</g>
<defs>
<clipPath id="clip0_2802_206345">
<rect width="16" height="16" fill="white"/>
</clipPath>
</defs>
</svg>
