<svg width="16" height="16" viewBox="0 0 16 16" fill="none" xmlns="http://www.w3.org/2000/svg">
<path fill-rule="evenodd" clip-rule="evenodd" d="M5.66667 1.33496C3.82664 1.33496 2.335 2.8266 2.335 4.66663C2.335 6.50666 3.82664 7.99829 5.66667 7.99829C7.5067 7.99829 8.99833 6.50666 8.99833 4.66663C8.99833 2.8266 7.5067 1.33496 5.66667 1.33496ZM3.665 4.66663C3.665 3.56114 4.56118 2.66496 5.66667 2.66496C6.77216 2.66496 7.66833 3.56114 7.66833 4.66663C7.66833 5.77212 6.77216 6.66829 5.66667 6.66829C4.56118 6.66829 3.665 5.77212 3.665 4.66663Z" fill="black"/>
<path d="M3.33333 9.33496C2.44972 9.33496 1.6023 9.68598 0.977489 10.3108C0.352681 10.9356 0.00166667 11.783 0.00166667 12.6666V14C0.00166667 14.3672 0.299397 14.665 0.666667 14.665C1.03394 14.665 1.33167 14.3672 1.33167 14V12.6666C1.33167 12.1358 1.54256 11.6266 1.91794 11.2512C2.29333 10.8759 2.80246 10.665 3.33333 10.665H8C8.53087 10.665 9.04001 10.8759 9.41539 11.2512C9.79078 11.6266 10.0017 12.1358 10.0017 12.6666V14C10.0017 14.3672 10.2994 14.665 10.6667 14.665C11.0339 14.665 11.3317 14.3672 11.3317 14V12.6666C11.3317 11.783 10.9807 10.9356 10.3558 10.3108C9.73104 9.68598 8.88361 9.33496 8 9.33496H3.33333Z" fill="black"/>
<path d="M13.3333 4.66821C13.7006 4.66821 13.9983 4.96594 13.9983 5.33321V6.66821H15.3333C15.7006 6.66821 15.9983 6.96594 15.9983 7.33321C15.9983 7.70048 15.7006 7.99821 15.3333 7.99821H13.9983V9.33321C13.9983 9.70048 13.7006 9.99821 13.3333 9.99821C12.9661 9.99821 12.6683 9.70048 12.6683 9.33321V7.99821H11.3333C10.9661 7.99821 10.6683 7.70048 10.6683 7.33321C10.6683 6.96594 10.9661 6.66821 11.3333 6.66821H12.6683V5.33321C12.6683 4.96594 12.9661 4.66821 13.3333 4.66821Z" fill="black"/>
</svg>
