<?xml version="1.0" encoding="utf-8"?>
<!-- Generator: Adobe Illustrator 24.0.3, SVG Export Plug-In . SVG Version: 6.00 Build 0)  -->
<svg version="1.1" id="Layer_1" xmlns="http://www.w3.org/2000/svg" xmlns:xlink="http://www.w3.org/1999/xlink" x="0px" y="0px"
	 viewBox="0 0 773.12 773.12" style="enable-background:new 0 0 773.12 773.12;" xml:space="preserve">
<style type="text/css">
	.st0{fill:#FFFFFF;}
</style>
<path class="st0" d="M688.52,150.67L688.52,150.67c0,33.91-15.23,64.04-38.44,82.31L424.79,434.17c-4.18,3.59-9.62-2.19-6.61-7.03
	l82.64-165.46c2.31-4.63-0.69-10.33-5.44-10.33H174.86c-49.64,0-90.26-45.31-90.26-100.68v0c0-55.37,40.62-100.68,90.26-100.68
	h423.39C647.9,49.99,688.52,95.3,688.52,150.67z M174.86,723.13h423.39c49.64,0,90.26-45.31,90.26-100.68v0
	c0-55.37-40.62-100.68-90.26-100.68H277.73c-4.75,0-7.76-5.7-5.44-10.33l82.64-165.46c3.01-4.83-2.42-10.62-6.61-7.03L123.04,540.14
	c-23.21,18.27-38.44,48.4-38.44,82.31v0C84.6,677.82,125.22,723.13,174.86,723.13z"/>
</svg>
