<?xml version="1.0" encoding="UTF-8" standalone="no"?>
<!-- Created with Inkscape (http://www.inkscape.org/) -->

<svg
   width="512"
   height="512"
   viewBox="0 0 512 512"
   version="1.1"
   id="SVGRoot"
   sodipodi:docname="final.svg"
   inkscape:version="1.1 (c4e8f9ed74, 2021-05-24)"
   xmlns:inkscape="http://www.inkscape.org/namespaces/inkscape"
   xmlns:sodipodi="http://sodipodi.sourceforge.net/DTD/sodipodi-0.dtd"
   xmlns="http://www.w3.org/2000/svg"
   xmlns:svg="http://www.w3.org/2000/svg">
  <sodipodi:namedview
     id="namedview14703"
     pagecolor="#505050"
     bordercolor="#eeeeee"
     borderopacity="1"
     inkscape:pageshadow="0"
     inkscape:pageopacity="0"
     inkscape:pagecheckerboard="0"
     inkscape:document-units="px"
     showgrid="true"
     inkscape:zoom="1.4823794"
     inkscape:cx="330.88695"
     inkscape:cy="235.7696"
     inkscape:window-width="1920"
     inkscape:window-height="1018"
     inkscape:window-x="0"
     inkscape:window-y="0"
     inkscape:window-maximized="1"
     inkscape:current-layer="layer1"
     width="512px">
    <inkscape:grid
       type="xygrid"
       id="grid14709" />
  </sodipodi:namedview>
  <defs
     id="defs14698" />
  <g
     inkscape:label="Layer 1"
     inkscape:groupmode="layer"
     id="layer1">
    <path
       id="rect15221"
       style="fill:#1a1a1a;stroke-width:20.2826"
       d="M 2.5195312,120.86719 V 468.25977 H 452.51953 V 231.2793 a 97.92847,105.62694 0 0 1 -47.3457,34.11914 V 429.66016 H 49.904297 V 159.46484 H 259.04688 c 0.002,-0.2309 0.002,-0.46272 0.004,-0.69336 -0.0637,-0.67733 -0.15238,-2.23334 -0.0215,-3 -1.03483,-1.48148 0.19546,-5.46484 1.16406,-6.63476 0.40696,1.79552 0.0611,-0.20325 0.25195,-0.66211 0.18239,-0.37906 -0.51088,-2.2379 -0.29101,-2.83984 0.33164,-0.90792 1.02383,-1.63415 1.54687,-2.45118 -0.0388,-0.0625 -0.0813,-0.11986 -0.12109,-0.0996 -0.0379,0.0417 -0.0712,0.0765 -0.10547,0.11329 -0.15454,0.24928 -0.1346,0.68144 -0.12891,0.14062 0.0306,-0.0297 0.0867,-0.0953 0.12891,-0.14062 0.0283,-0.0457 0.0602,-0.087 0.10156,-0.11329 0.001,-7.8e-4 0.003,6.3e-4 0.004,0 0.0845,-0.093 0.15228,-0.16483 0.22656,-0.24414 -0.13444,-0.70848 -0.58603,-1.95703 -0.29102,-2.34961 0.38142,-0.72606 0.78025,-1.44411 1.1504,-2.17578 -0.0204,0.0339 -0.11761,-0.0273 -0.0996,-0.0625 0.0666,-0.13052 0.28345,-0.42064 0.35547,-0.48633 0.0142,-0.0543 0.0151,-0.0765 0.0156,-0.0977 0.008,0.0684 0.0546,0.23009 0.24219,0.46289 0.0575,0.0713 -0.0324,-0.17943 -0.0488,-0.26953 -0.3667,-1.93467 -0.12894,-2.59641 0.92773,-3.40821 0.22311,-0.75132 0.54367,-1.47292 0.85547,-2.19531 0.05,-0.47553 0.16907,-0.98009 0.33594,-1.48828 0.0969,-0.29502 0.24858,-0.56832 0.40234,-0.83984 8.4e-4,-0.003 8.6e-4,-0.006 0.006,-0.008 0.0834,-0.14733 0.16777,-0.29417 0.24219,-0.44532 0.44283,-0.89939 0.88465,-1.7993 1.31836,-2.70312 0.44971,-0.93715 0.88781,-1.88055 1.33203,-2.82032 0.59614,-1.26113 1.3334,-2.12793 2.10156,-2.6621 0.0355,-0.13918 0.0372,-0.28567 0.0762,-0.42383 z M 262.92188,137.76562 c -0.012,0.0459 -0.0306,0.0956 -0.0605,0.16797 0.0231,-0.048 0.0496,-0.0943 0.0723,-0.14257 0.0212,-0.0452 0.0128,-0.0478 -0.0117,-0.0254 z m -1.11524,5.07422 c 0.009,0.0491 0.0156,0.0914 0.0215,0.13477 0.0463,-0.0788 0.0927,-0.15719 0.13477,-0.23828 0.0612,-0.11816 -0.0281,-0.0333 -0.15625,0.10351 z m 0.0215,0.13477 c -0.0413,0.0703 -0.0829,0.14015 -0.12695,0.20898 0.048,0.0772 0.0916,0.16059 0.11914,0.10938 0.0321,-0.0598 0.0265,-0.17906 0.008,-0.31836 z m 4.10547,4.51953 c -0.0428,0.0549 -0.0775,0.10956 -0.11328,0.16406 0.0334,-0.0471 0.066,-0.0934 0.0996,-0.14062 0.003,-0.005 0.01,-0.0175 0.0137,-0.0234 z m -5.35547,9.5957 c -0.003,0.001 -0.008,0.005 -0.01,0.006 -0.004,0.002 0.0108,-0.003 0.0117,-0.004 -7.5e-4,-5.3e-4 -0.001,-0.001 -0.002,-0.002 z m 0.41993,0.58985 c -0.005,-1.3e-4 -0.0271,0.004 -0.043,0.008 0.008,0.005 0.0149,0.008 0.0234,0.0137 0.01,-0.009 0.0251,-0.0213 0.0195,-0.0215 z m 0.0508,0.0644 c 0.0519,0.0326 0.0929,0.0572 0.14258,0.0879 0.004,-0.009 0.009,-0.0168 0.0137,-0.0254 -0.0548,-0.0209 -0.10403,-0.0407 -0.15625,-0.0625 z m 10.07422,1.07422 c -0.004,0.003 -0.008,0.007 -0.0117,0.01 0.011,0.006 0.001,-0.0117 0.0117,-0.01 z" />
    <path
       id="path15093"
       style="fill:#1a1a1a;stroke-width:45.8897"
       d="M 371.7276,23.955146 A 137.56607,137.77894 0 0 0 234.17732,161.72936 137.56607,137.77894 0 0 0 371.7276,299.5036 137.56607,137.77894 0 0 0 509.27786,161.72936 137.56607,137.77894 0 0 0 371.7276,23.955146 Z M 370,60 A 97.92847,102.64636 0 0 1 467.93877,162.65037 97.92847,102.64636 0 0 1 370,265.30077 97.92847,102.64636 0 0 1 272.06128,162.65037 97.92847,102.64636 0 0 1 370,60 Z" />
    <rect
       style="fill:#1a1a1a"
       id="rect1345"
       width="170"
       height="40"
       x="90"
       y="270" />
    <rect
       style="fill:#1a1a1a"
       id="rect1347"
       width="230"
       height="40"
       x="90"
       y="350" />
    <path
       style="fill:#1a1a1a;stroke-width:0.360527"
       d="m 320,190 -27.89004,-27.19033 7.26208,-7.79208 7.26206,-7.79208 20.43012,19.18012 c 11.23657,10.54908 20.5457,19.22478 20.68699,19.27935 0.14126,0.0546 19.87802,-18.46967 43.85942,-41.165 23.98143,-22.6953 43.71378,-41.2642 43.84968,-41.2642 0.13588,0 3.4548,3.44356 7.37536,7.65237 l 7.12831,7.65238 -1.03941,1.07287 c -0.57169,0.59009 -23.04921,22.28959 -49.95003,48.22111 -26.90085,25.93153 -49.39974,47.64045 -49.99757,48.24204 l -1.08693,1.09379 z"
       id="path6649" />
  </g>
</svg>
