<svg width="20" height="20" viewBox="0 0 20 20" fill="none" xmlns="http://www.w3.org/2000/svg"><path d="M13.465 3.384 C 12.525 3.531,11.619 4.145,11.141 4.960 C 10.100 6.735,10.861 8.987,12.760 9.753 C 13.559 10.075,14.441 10.075,15.240 9.753 C 16.560 9.221,17.396 7.921,17.322 6.517 C 17.299 6.095,17.242 5.827,17.095 5.450 C 16.665 4.350,15.673 3.558,14.504 3.382 C 14.120 3.324,13.847 3.325,13.465 3.384 M4.933 3.513 C 4.051 3.821,3.382 4.416,2.986 5.245 C 2.741 5.758,2.685 6.024,2.684 6.667 C 2.684 7.138,2.695 7.257,2.761 7.500 C 3.000 8.378,3.603 9.158,4.369 9.579 C 4.613 9.713,4.963 9.851,5.189 9.901 C 5.397 9.948,5.646 9.875,5.790 9.726 C 6.159 9.346,6.021 8.800,5.510 8.616 C 4.822 8.368,4.471 8.073,4.198 7.517 C 4.003 7.117,3.955 6.705,4.050 6.250 C 4.198 5.546,4.731 4.978,5.469 4.737 C 5.898 4.597,6.104 4.212,5.948 3.841 C 5.791 3.465,5.417 3.344,4.933 3.513 M8.933 3.513 C 8.051 3.821,7.382 4.416,6.986 5.245 C 6.741 5.758,6.685 6.024,6.684 6.667 C 6.684 7.138,6.695 7.257,6.761 7.500 C 7.000 8.378,7.603 9.158,8.369 9.579 C 8.613 9.713,8.963 9.851,9.189 9.901 C 9.397 9.948,9.646 9.875,9.790 9.726 C 10.159 9.346,10.021 8.800,9.510 8.616 C 8.822 8.368,8.471 8.073,8.198 7.517 C 8.003 7.117,7.955 6.705,8.050 6.250 C 8.198 5.546,8.731 4.978,9.469 4.737 C 9.898 4.597,10.104 4.212,9.948 3.841 C 9.791 3.465,9.417 3.344,8.933 3.513 M14.364 4.703 C 14.946 4.800,15.527 5.246,15.794 5.800 C 16.064 6.362,16.064 6.970,15.794 7.533 C 15.617 7.902,15.235 8.293,14.887 8.461 C 14.326 8.732,13.674 8.732,13.113 8.461 C 12.769 8.295,12.385 7.903,12.204 7.533 C 11.826 6.762,11.978 5.882,12.597 5.264 C 13.085 4.776,13.675 4.589,14.364 4.703 M10.799 11.384 C 10.272 11.466,9.765 11.687,9.303 12.035 C 8.638 12.536,8.196 13.275,8.048 14.135 C 8.008 14.369,7.998 14.634,8.006 15.329 L 8.017 16.222 8.106 16.357 C 8.244 16.565,8.407 16.650,8.667 16.650 C 8.927 16.650,9.089 16.565,9.227 16.357 L 9.317 16.222 9.338 15.253 C 9.349 14.719,9.375 14.224,9.394 14.153 C 9.525 13.663,9.960 13.130,10.424 12.889 C 10.854 12.666,10.840 12.667,13.995 12.667 C 15.725 12.667,16.900 12.680,17.033 12.701 C 17.163 12.721,17.363 12.790,17.533 12.872 C 18.015 13.107,18.446 13.609,18.601 14.117 C 18.627 14.201,18.649 14.612,18.663 15.236 L 18.683 16.222 18.773 16.357 C 18.912 16.566,19.073 16.650,19.339 16.650 C 19.532 16.650,19.580 16.637,19.703 16.550 C 19.781 16.495,19.880 16.384,19.922 16.303 C 19.998 16.160,20.000 16.134,20.000 15.258 C 20.000 14.240,19.959 13.938,19.754 13.430 C 19.310 12.331,18.334 11.557,17.171 11.382 C 16.722 11.314,11.234 11.316,10.799 11.384 M2.267 11.513 C 1.184 11.890,0.405 12.731,0.092 13.861 C 0.027 14.096,0.021 14.202,0.019 15.167 C 0.017 16.199,0.018 16.219,0.092 16.337 C 0.133 16.403,0.229 16.501,0.305 16.554 C 0.424 16.636,0.476 16.650,0.664 16.650 C 0.927 16.650,1.089 16.566,1.227 16.357 L 1.317 16.222 1.336 15.253 C 1.354 14.366,1.362 14.265,1.430 14.067 C 1.649 13.430,2.096 12.990,2.767 12.751 C 2.904 12.703,3.060 12.622,3.113 12.573 C 3.315 12.384,3.384 12.085,3.282 11.841 C 3.125 11.465,2.751 11.344,2.267 11.513 M6.267 11.513 C 5.184 11.890,4.405 12.731,4.092 13.861 C 4.027 14.096,4.021 14.202,4.019 15.167 C 4.017 16.199,4.018 16.219,4.092 16.337 C 4.133 16.403,4.229 16.501,4.305 16.554 C 4.424 16.636,4.476 16.650,4.664 16.650 C 4.927 16.650,5.089 16.566,5.227 16.357 L 5.317 16.222 5.336 15.253 C 5.354 14.366,5.362 14.265,5.430 14.067 C 5.649 13.430,6.096 12.990,6.767 12.751 C 6.904 12.703,7.060 12.622,7.113 12.573 C 7.315 12.384,7.384 12.085,7.282 11.841 C 7.125 11.465,6.751 11.344,6.267 11.513 " stroke="none" fill-rule="evenodd" fill="black"></path></svg>