<?xml version="1.0" encoding="UTF-8" standalone="no"?>
<svg
   width="16"
   height="16"
   viewBox="0 0 16 16"
   fill="none"
   version="1.1"
   id="svg36"
   xmlns="http://www.w3.org/2000/svg"
   xmlns:svg="http://www.w3.org/2000/svg">
    <path
       id="path21"
       d="M 6 1.3339844 C 4.1590518 1.3339844 2.6660156 2.8250675 2.6660156 4.6660156 C 2.6660156 6.5069638 4.1590518 8 6 8 C 7.8409482 8 9.3339844 6.5069638 9.3339844 4.6660156 C 9.3339844 2.8250675 7.8409482 1.3339844 6 1.3339844 z M 10.632812 1.4199219 C 10.348988 1.4343809 10.095747 1.6320647 10.021484 1.921875 C 9.9301945 2.2785546 10.145253 2.641102 10.501953 2.7324219 C 10.932153 2.8425718 11.313638 3.0925497 11.585938 3.4433594 C 11.858237 3.794159 12.005859 4.2258423 12.005859 4.6699219 C 12.005859 5.1140114 11.858237 5.5456747 11.585938 5.8964844 C 11.313638 6.247284 10.932153 6.497272 10.501953 6.6074219 C 10.145253 6.6987518 9.9301945 7.0612891 10.021484 7.4179688 C 10.112884 7.7746584 10.475332 7.9897574 10.832031 7.8984375 C 11.549031 7.7148477 12.184872 7.2995132 12.638672 6.7148438 C 13.092471 6.1301643 13.337891 5.4100611 13.337891 4.6699219 C 13.337891 3.9297826 13.092471 3.2116325 12.638672 2.6269531 C 12.184872 2.0422837 11.549031 1.6249961 10.832031 1.4414062 C 10.76515 1.4242838 10.698311 1.4165852 10.632812 1.4199219 z M 6 2.6660156 C 7.1045689 2.6660156 8 3.5614467 8 4.6660156 C 8 5.7705845 7.1045689 6.6660156 6 6.6660156 C 4.8954311 6.6660156 4 5.7705845 4 4.6660156 C 4 3.5614467 4.8954311 2.6660156 6 2.6660156 z M 3.3339844 9.3339844 C 2.4499353 9.3339844 1.6016809 9.6854075 0.9765625 10.310547 C 0.35144213 10.935646 9.7474709e-18 11.782017 0 12.666016 L 0 14 C 7.4014794e-17 14.3682 0.29782599 14.666016 0.66601562 14.666016 C 1.0342083 14.666016 1.3339844 14.3682 1.3339844 14 L 1.3339844 12.666016 C 1.3339844 12.135616 1.5448523 11.627053 1.9199219 11.251953 C 2.2949915 10.876854 2.8035549 10.666016 3.3339844 10.666016 L 8.6660156 10.666016 C 9.1964451 10.666016 9.7049885 10.876854 10.080078 11.251953 C 10.455178 11.627053 10.666016 12.135616 10.666016 12.666016 L 10.666016 14 C 10.666016 14.3682 10.965785 14.666016 11.333984 14.666016 C 11.702184 14.666016 12 14.3682 12 14 L 12 12.666016 C 12 11.782017 11.648537 10.935646 11.023438 10.310547 C 10.398338 9.6854075 9.5500647 9.3339844 8.6660156 9.3339844 L 3.3339844 9.3339844 z M 13.300781 9.4199219 C 13.01692 9.4338032 12.762331 9.6302659 12.6875 9.9199219 C 12.5955 10.276382 12.809516 10.640422 13.166016 10.732422 C 13.595015 10.843222 13.976547 11.09306 14.248047 11.443359 C 14.519447 11.793459 14.665616 12.223016 14.666016 12.666016 L 14.666016 14 C 14.666016 14.3682 14.965785 14.666016 15.333984 14.666016 C 15.702184 14.666016 16 14.3682 16 14 L 16 12.666016 C 15.9994 11.927516 15.753281 11.210653 15.300781 10.626953 C 14.848282 10.043254 14.215099 9.6260461 13.5 9.4414062 C 13.433156 9.4241469 13.366288 9.4167185 13.300781 9.4199219 z "
       style="fill:#262626;fill-opacity:1;opacity:0.99999999" />
</svg>