<svg width="126" height="138" viewBox="0 0 126 138" fill="none" xmlns="http://www.w3.org/2000/svg">
<g filter="url(#filter0_f_6_176)">
<path d="M56.3213 60.6738C56.4104 60.6835 56.5085 60.7313 56.5928 60.8213C56.762 61.0022 56.8301 61.2994 56.6572 61.5771L56.6475 61.5918L56.6406 61.6064L41.9795 91.1035C41.7195 91.626 41.7583 92.2077 41.9951 92.6592C42.2322 93.111 42.686 93.4608 43.2637 93.4609H100.13C108.703 93.4611 115.786 101.337 115.786 111.052C115.786 120.764 108.703 128.642 100.13 128.643H25.0137C16.4409 128.643 9.35742 120.764 9.35742 111.052C9.35744 105.112 12.0117 99.8436 16.04 96.6582L16.0488 96.6514L16.0576 96.6436L56.0215 60.7842C56.1371 60.6846 56.2395 60.665 56.3213 60.6738ZM25.0137 9.35742H100.13C108.702 9.35226 115.786 17.2298 115.786 26.9424C115.786 32.882 113.131 38.1488 109.103 41.3369L109.085 41.3506L69.1211 77.2158C69.0055 77.3154 68.9031 77.335 68.8213 77.3262C68.7322 77.3165 68.634 77.2687 68.5498 77.1787C68.3807 76.9978 68.3135 76.7006 68.4863 76.4229L68.4951 76.4082L68.5029 76.3936L83.1631 46.8955C83.4228 46.3732 83.3842 45.7921 83.1475 45.3408C82.9103 44.889 82.4566 44.5391 81.8789 44.5391H25.0137C16.4409 44.5391 9.35745 36.661 9.35742 26.9482C9.35742 17.2329 16.4408 9.35742 25.0137 9.35742Z" stroke="url(#paint0_radial_6_176)" stroke-width="0.714286"/>
</g>
<path d="M56.3213 60.6738C56.4104 60.6835 56.5085 60.7313 56.5928 60.8213C56.762 61.0022 56.8301 61.2994 56.6572 61.5771L56.6475 61.5918L56.6406 61.6064L41.9795 91.1035C41.7195 91.626 41.7583 92.2077 41.9951 92.6592C42.2322 93.111 42.686 93.4608 43.2637 93.4609H100.13C108.703 93.4611 115.786 101.337 115.786 111.052C115.786 120.764 108.703 128.642 100.13 128.643H25.0137C16.4409 128.643 9.35742 120.764 9.35742 111.052C9.35744 105.112 12.0117 99.8436 16.04 96.6582L16.0488 96.6514L16.0576 96.6436L56.0215 60.7842C56.1371 60.6846 56.2395 60.665 56.3213 60.6738ZM25.0137 9.35742H100.13C108.702 9.35226 115.786 17.2298 115.786 26.9424C115.786 32.882 113.131 38.1488 109.103 41.3369L109.085 41.3506L69.1211 77.2158C69.0055 77.3154 68.9031 77.335 68.8213 77.3262C68.7322 77.3165 68.634 77.2687 68.5498 77.1787C68.3807 76.9978 68.3135 76.7006 68.4863 76.4229L68.4951 76.4082L68.5029 76.3936L83.1631 46.8955C83.4228 46.3732 83.3842 45.7921 83.1475 45.3408C82.9103 44.889 82.4566 44.5391 81.8789 44.5391H25.0137C16.4409 44.5391 9.35745 36.661 9.35742 26.9482C9.35742 17.2329 16.4408 9.35742 25.0137 9.35742Z" stroke="url(#paint1_radial_6_176)" stroke-width="0.714286"/>
<defs>
<filter id="filter0_f_6_176" x="0" y="0" width="125.143" height="138" filterUnits="userSpaceOnUse" color-interpolation-filters="sRGB">
<feFlood flood-opacity="0" result="BackgroundImageFix"/>
<feBlend mode="normal" in="SourceGraphic" in2="BackgroundImageFix" result="shape"/>
<feGaussianBlur stdDeviation="4.5" result="effect1_foregroundBlur_6_176"/>
</filter>
<radialGradient id="paint0_radial_6_176" cx="0" cy="0" r="1" gradientUnits="userSpaceOnUse" gradientTransform="translate(62.5714 69) rotate(90) scale(145 129.464)">
<stop offset="0.209266" stop-color="#272845"/>
<stop offset="0.75" stop-color="#A8A8B3"/>
</radialGradient>
<radialGradient id="paint1_radial_6_176" cx="0" cy="0" r="1" gradientUnits="userSpaceOnUse" gradientTransform="translate(62.5714 69.5) rotate(90) scale(135.5 120.982)">
<stop offset="0.3" stop-color="#272845"/>
<stop offset="1" stop-color="#A8A8B3"/>
</radialGradient>
</defs>
</svg>
