<svg width="116" height="120" viewBox="0 0 116 120" fill="none" xmlns="http://www.w3.org/2000/svg">
<path d="M73.6465 108.396C74.4886 109.093 75.2362 109.892 76.0352 110.638C77.4911 111.995 79.0817 113.412 80.166 115.105C79.5207 117.086 79.0343 118.133 78.2734 120.001C78.1608 119.752 78.1141 119.617 78.0352 119.355L77.5576 118.256C76.4221 115.621 75.1688 112.529 74.373 109.944C74.1389 109.4 73.8901 108.924 73.6465 108.396ZM74.9033 110.311C74.9421 110.836 75.8952 113 76.1631 113.652C76.5823 114.676 77.726 118.509 78.3428 119.079C78.6735 117.856 79.2239 116.275 79.7354 115.124C78.5371 113.991 77.4116 112.734 76.1357 111.654C75.7685 111.344 75.3065 110.703 74.9033 110.311ZM33.2695 104.223C32.8573 105.289 32.6016 107.083 32.5449 108.251C32.4565 110.074 32.1824 110.631 31.3604 112.226C31.5691 110.773 31.7513 109.237 32.0742 107.793L32.2217 107.181C31.8087 107.227 31.3786 107.222 30.9551 107.205L30.5342 107.186C30.0167 107.612 29.7383 107.914 29.2842 108.4C28.7924 109.052 28.2898 109.695 27.7773 110.331C27.4022 110.788 26.8455 111.399 26.5576 111.892C27.3814 112.084 28.2154 112.23 29.0557 112.327C29.5116 112.359 30.0894 112.371 30.5107 112.515L30.5469 112.587L30.4541 112.619L30.4629 112.502L30.3789 112.63C29.8559 112.662 29.51 112.632 28.9844 112.593C27.8487 112.51 26.3442 112.505 25.2148 112.498C26.6333 111.072 27.909 109.38 29.2412 108.046C29.4239 107.774 30.1955 107.132 30.4766 106.926C31.5992 105.445 32.3291 105.265 33.2695 104.223ZM11.6631 103.006C11.6035 103.244 3.48877 109.943 2.71191 110.622C2.06512 110.449 1.4233 110.258 0.787109 110.05L0 109.897C1.85003 108.43 5.06424 106.838 7.17676 105.553C8.17746 104.944 10.6798 103.433 11.6367 102.991L11.6631 103.006ZM82.9795 77.9463C84.543 77.9405 86.5441 77.8747 88.0527 78.1914C90.6652 78.7489 93.0664 80.0359 94.9766 81.9034C101.615 88.4695 99.7236 100.634 91.0371 104.386C89.9537 104.853 88.4506 105.371 87.2881 105.474C85.339 105.646 83.2769 105.57 81.3184 105.625C80.286 105.654 79.2496 105.563 78.2246 105.645C78.1022 105.657 77.7275 105.924 77.6133 106.008C76.7185 105.927 76.3246 105.749 75.5791 105.251C75.2858 105.32 74.9654 105.402 74.6729 105.462C74.0379 104.807 73.5576 104.421 72.8604 103.839C73.442 103.779 73.7678 103.748 74.3281 103.605C72.66 101.707 71.3245 100.066 69.3008 98.4922C68.5809 97.8704 67.8588 96.9888 67.1367 96.3985C64.1261 93.9398 62.4108 91.1073 60.8057 87.6348C60.5946 87.1777 58.39 82.0068 58.3906 81.9971C58.2056 82.1953 58.2487 82.2222 57.9678 82.209C56.2117 82.13 54.328 82.2673 52.582 82.2139L52.1025 82.5049C52.262 82.8641 52.386 82.9759 52.3418 83.3174L52.085 83.6514C52.1681 84.1605 55.1707 86.5143 55.7764 87.0411L59.6396 90.3584C60.255 90.8771 60.854 91.393 61.4912 91.8926C62.1935 92.4542 63.4598 92.9313 63.9092 93.7276C64.2231 94.2835 64.4021 95.1832 64.623 95.8145C65.152 97.3184 65.7892 98.7871 66.3525 100.273C66.9232 101.779 67.2173 103.437 68.1465 104.797C68.4143 105.187 69.2424 105.497 69.3545 105.981C69.0318 106.082 68.5698 105.805 68.2734 105.653C68.3444 106.088 68.5203 106.697 68.2949 107.048C67.1133 107.125 65.5761 107.085 64.374 107.086L57.6855 107.101L35.332 107.089C35.6232 106.322 36.013 105.195 36.3467 104.474L38.1426 99.8008C38.4197 99.0671 38.7764 97.9348 39.0977 97.2676C39.2058 97.0498 39.2523 96.9883 39.3984 96.7911L39.6055 96.9873L39.3535 97.4346C39.2178 98.153 38.7342 98.8825 38.4844 99.5723C37.896 101.196 37.1899 102.767 36.5605 104.375C36.5386 104.433 36.6378 104.569 36.6738 104.608C38.6801 104.524 41.2901 104.614 43.3516 104.608L59.0439 104.596C61.3888 104.591 64.5551 104.683 66.8164 104.514C66.3416 103.368 65.73 102.107 65.1426 101.01C64.4395 99.6872 63.9062 98.1707 63.4131 96.753C62.7941 94.9724 61.6683 94.5678 60.418 93.3067C58.9152 91.7917 57.3632 90.354 55.9316 88.7637C54.493 87.1647 52.7559 85.9344 51.6553 84.0244C51.5997 84.0012 51.5439 83.9784 51.4883 83.9551C51.0405 84.2455 49.7485 85.8117 49.3301 86.2871L45.5225 90.5703C44.6238 91.5731 43.8896 92.344 42.9072 93.2627C42.5444 93.6022 41.942 94.5601 41.54 94.9873C40.901 95.6668 40.2228 96.2952 39.6055 96.9864L39.3984 96.7911C42.9972 92.1832 47.0005 87.7836 50.9287 83.4493C51.7982 82.4895 52.0416 81.5923 52.8105 80.8067C52.6751 81.2244 52.5932 81.5941 52.4951 82.0205C53.0354 81.2927 53.5535 80.5809 54.0137 79.7989C55.1999 79.7418 56.3876 79.7129 57.5752 79.7129C58.549 81.5393 59.5158 83.7614 60.458 85.6602C60.6972 85.5666 61.0932 85.3112 61.2178 85.0684C61.2024 84.6924 61.1906 84.6152 61.3047 84.2598L61.3711 84.252C61.4917 84.523 61.4927 84.5447 61.5264 84.8438C62.1774 87.1216 62.6926 89.7411 63.6787 91.8946C63.9341 92.4505 66.4091 94.8976 66.9863 95.3702C68.5549 96.6554 70.1074 97.8114 71.6123 99.2129C72.4054 99.9547 73.1754 100.72 73.9209 101.51C74.3547 101.971 74.9622 102.681 75.418 103.085C77.4834 103.133 79.7366 103.087 81.8203 103.077C83.5703 103.069 86.5483 103.175 88.1455 102.775C89.9688 102.32 91.6416 101.395 92.998 100.095C95.138 98.0122 96.3706 95.1698 96.4277 92.1846C96.5353 85.3931 91.8448 80.4931 85.0156 80.4522L67.7695 80.4649L62.6318 80.4717C61.7262 80.4739 60.6852 80.5195 59.8008 80.4522C59.5389 79.6175 59.2668 78.7861 58.9844 77.958L77.6758 77.9571L82.9795 77.9463ZM49.1689 59.7588C49.5499 60.093 49.9709 60.4261 50.3369 60.752C50.0017 62.4783 50.4353 62.2324 50.3574 63.6827C48.8211 65.9449 46.84 69.951 45.4951 72.4659L43.2568 76.7471C42.8479 77.5233 42.0455 78.9646 41.7598 79.7246C43.0945 79.8592 46.9389 79.8193 48.1787 79.627C47.8922 80.1476 46.752 82.6713 46.5117 82.9229C45.8754 83.3298 45.4257 84.4976 45.1182 85.1866C45.0453 85.3993 44.9198 85.729 44.8643 85.9346C44.3933 87.3465 42.9098 90.0659 41.9102 91.2159C39.9526 93.4667 37.3611 95.4374 35.2129 97.5274C34.93 97.7972 34.51 97.9831 34.2139 98.2266C32.7991 99.5623 30.9755 101.075 29.4824 102.396C28.9106 103.138 28.1596 103.538 27.4629 104.192C26.9937 104.633 26.9341 104.986 26.5225 105.246C26.0789 105.869 25.695 106.508 25.1592 107.051C22.1285 106.131 19.4526 104.306 17.4922 101.818C17.0032 101.201 16.9097 100.661 16.3262 100.019L16.2598 99.9453C17.0832 99.5636 17.8881 99.2483 18.5918 98.6778C18.9294 98.1321 22.6967 95.8093 23.623 94.9746C24.9156 93.9653 26.7319 93.1236 28.1191 92.1953C30.1807 90.8158 32.5858 89.761 34.5488 88.2139L34.4229 88.0332L34.3086 88.0479L34.0498 87.9278C34.9128 87.4457 36.1849 86.9417 36.9395 86.4356C38.6545 85.2865 40.5821 84.2524 42.2812 83.1231L42.1504 83.0049C41.8952 83.0933 41.8461 83.0826 41.5693 83.084C41.6858 82.9275 42.2699 82.6815 42.499 82.5703L42.3691 82.4034C42.0437 82.3149 41.623 82.338 41.2422 82.2071C40.5055 81.954 39.9256 81.5985 39.5879 80.8614C39.319 80.2806 39.2511 79.6271 39.3945 79.0039C39.6198 78.0458 40.77 76.1213 41.2686 75.1446C42.8991 71.8703 44.5639 68.6127 46.2617 65.3731C46.8686 64.2227 47.475 63.0868 48.0322 61.9112C48.37 61.1986 48.9295 60.5214 49.1689 59.7588ZM14.7578 104.849C14.6243 105.231 14.3564 105.411 14.041 105.654L13.9893 105.581C13.9457 105.132 14.3108 104.849 14.7041 104.727L14.7578 104.849ZM46.3662 82.3955C45.7626 82.2134 44.0739 82.4376 43.5557 82.8252C40.6802 84.9781 37.5018 86.6926 34.626 88.8418C32.7331 90.2566 30.5933 91.29 28.5371 92.4327C26.9484 93.3156 25.4031 94.3063 23.793 95.1592C22.7339 96.0787 22.0218 96.5972 20.834 97.3448C20.3516 97.6483 19.0822 98.4653 18.7334 98.8077C20.0051 101.541 22.5779 103.43 25.3652 104.397C25.7733 104.539 26.263 104.721 26.6904 104.77C26.827 104.071 28.5493 102.943 29.1797 102.419C30.7191 100.922 32.3194 99.4896 33.9756 98.1231C34.99 97.2182 35.9527 96.2842 36.9658 95.3282C38.5034 93.8776 40.4623 92.4524 41.8027 90.8438C42.1929 90.3755 42.7801 89.0518 43.0869 88.4834C43.6061 87.5215 44.1269 86.587 44.6709 85.6397C44.7263 85.4363 44.8916 85.1266 44.9883 84.9248C45.4388 83.7866 45.6331 83.453 46.4229 82.5664L46.3662 82.3955ZM7.31934 97.1504C8.37962 97.3911 10.2255 98.0344 11.3057 98.3848C10.8544 98.5874 10.648 98.7109 10.2266 98.9756L8.57812 100.177C8.22727 99.1322 7.93665 98.0538 7.31934 97.1504ZM54.8506 49.418C53.9434 51.6127 53.6061 53.3612 53.0254 55.5635C52.8244 56.3254 51.1453 59.1227 50.6729 59.9268C50.0897 59.8787 49.7276 59.8031 49.1758 59.628C48.4357 59.2408 48.6073 58.7325 48.208 58.4649L48.1582 58.5469C48.2383 58.8015 48.3357 58.961 48.2822 59.1905C41.7321 65.1685 34.9518 71.0737 28.3242 76.9786L23.1299 81.5762C21.8285 82.7444 20.5036 83.8519 19.4434 85.2608C17.3622 88.0259 16.6122 91.7946 17.4023 95.1543C17.5102 95.6129 17.7175 96.2448 17.7725 96.6953C18.2743 96.0759 18.8918 95.9053 19.5645 95.5205C24.2667 92.83 29.1103 90.1738 34.0498 87.9287L34.3086 88.0479L24.7822 92.9981C24.3162 93.2461 23.8533 93.5043 23.3975 93.7705C21.5544 94.8457 19.6286 95.7571 17.7959 96.8536C17.0431 97.3195 16.2077 97.6946 15.3965 98.0479C14.0392 93.0034 14.1668 88.082 17.4307 83.7266C18.5237 82.2679 19.9929 81.085 21.3457 79.8838L24.1191 77.3897L33.5615 68.8897L42.5078 60.9043C43.4501 60.0719 44.9867 58.5033 45.9141 57.8389C46.374 58.0782 47.2151 58.7095 47.5469 58.6543C47.5895 58.5441 47.6299 58.5136 47.5791 58.3994C46.9895 57.0741 46.1206 57.4238 45.1387 57.6592C48.2537 54.827 52.0149 52.4062 54.8506 49.418ZM52.4365 77.0948C53.0928 77.0896 53.6321 77.1833 54.2764 77.2959C53.5071 77.8525 53.2618 78.1033 52.6182 78.8194C52.3336 79.1105 51.9481 79.4105 51.6279 79.6739C51.9215 78.8101 52.0957 77.9446 52.4365 77.0948ZM56.2695 70.5489C56.8874 70.5709 57.8389 71.3796 58.1787 71.8916C58.2424 71.9875 58.1657 72.0612 58.1152 72.1651C58.103 72.4589 58.2769 72.6809 58.4297 72.9493L58.3779 73.0049C57.764 72.969 56.2709 71.2321 56.2695 70.5489ZM83.4023 22.8457C83.477 23.488 83.6096 24.9112 83.7822 25.4512C83.4596 26.4899 83.1108 27.4388 82.7158 28.4522C82.5001 29.0044 82.3513 29.8556 82.0273 30.3311C81.8181 30.6381 81.3188 31.0137 81.0371 31.3164C83.6672 30.7081 86.15 30.5973 88.8057 30.1905C89.6102 30.0671 90.5077 29.7786 91.3174 29.6563C92.9657 29.4074 94.6456 29.2381 96.3027 29.0391C97.4702 28.8988 98.779 28.586 99.9238 28.4834C99.8301 31.3135 99.3939 33.326 98.0391 35.8584C96.4543 38.8188 93.8546 40.6283 91.3848 42.793L83.2051 50.0313C80.4951 52.4858 77.7668 54.922 75.0225 57.3389C74.3239 57.9564 73.6305 58.5793 72.9414 59.2071C72.6239 59.5002 72.1456 59.9915 71.8398 60.2373C72.1741 60.3729 72.5478 60.5335 72.8828 60.6553C71.1064 62.1977 69.3645 63.8053 67.5273 65.2842C67.0525 65.6667 66.2426 65.6893 65.7363 66.0313C64.4019 66.9917 63.0796 67.9653 61.8037 69.0039C61.2879 69.4238 60.7172 69.9664 60.2168 70.3526C60.467 69.4624 60.8719 68.5321 61.1865 67.6426C61.463 66.86 61.5863 65.8562 61.8525 65.168C62.6076 63.2189 63.6307 61.4284 64.5781 59.5977C65.5467 57.6972 66.7142 57.6066 68.5342 58.3741C68.4402 58.4908 68.3637 58.603 68.292 58.7178L68.0771 59.0791C67.268 60.3595 66.7409 61.6254 66.0078 62.9121C66.8638 62.2507 67.6882 61.5112 68.5127 60.8106C68.9464 60.442 69.4919 59.8443 69.9482 59.5528H69.9492C70.3958 59.6712 70.6999 60.3488 71.4268 60.1338C71.3507 59.7236 70.3405 59.5772 69.7617 58.7627L69.7012 58.6758C70.4094 57.8574 71.2587 57.1956 72.0635 56.4737C73.8354 54.884 75.6564 53.3544 77.4561 51.794C80.0204 49.5699 82.4337 47.2222 85.0273 45.0313C85.7214 44.4445 86.4012 43.737 87.1113 43.1348C88.7399 41.7664 90.3362 40.3581 91.8975 38.9131C95.7294 35.3941 96.3167 34.4136 97.248 29.2422C92.1377 30.605 86.4782 30.9973 81.2852 32.0069C80.8793 32.0858 80.4349 32.13 80.0225 32.1739C79.4035 32.7112 78.8428 33.3691 78.2246 33.917C76.8405 35.1434 75.4751 36.4017 74.0449 37.5733C73.5393 37.9869 72.7551 38.4469 72.3799 38.9619L72.3975 39.045C74.3338 39.2655 75.6978 41.0901 74.8555 42.9961C74.3938 44.0381 73.7926 45.0201 73.2695 46.0391L68.8027 54.6768C68.3308 55.5923 67.6077 56.8129 67.2061 57.6739C67.024 57.5806 66.8383 57.4925 66.6504 57.4102C65.9452 57.1065 65.3446 57.0064 64.6182 57.293C64.4309 56.9073 65.915 54.5352 66.2051 53.9834L70.792 45.1983C71.1805 44.4439 72.2542 42.5712 72.5039 41.9004L72.4287 41.8096C71.6993 41.57 69.6223 41.7788 68.7939 41.8506C70.6406 39.8887 73.4321 37.9524 75.2568 35.8243C74.4799 36.3161 73.8143 37.0174 73.0791 37.545C71.2493 38.8567 69.5854 40.494 67.7461 41.7569C65.5581 41.6892 63.7247 41.6093 61.541 41.8496C61.6032 41.5286 61.6558 41.1665 61.71 40.8409C61.1396 40.912 60.3546 41.1812 59.8994 40.8682C59.7912 40.6384 59.8024 40.7532 59.8564 40.5088L59.8574 40.5069L59.8564 40.5078L59.9619 40.3936C59.9787 40.2071 59.9501 40.1964 59.8662 40.0215L59.6328 39.958C59.5824 39.9441 59.4708 39.8878 59.418 39.8633C59.4238 39.6735 59.4304 39.4827 59.4385 39.293C59.4304 39.4827 59.4238 39.6726 59.418 39.8623C59.3214 39.6833 58.68 39.672 58.3115 39.5547L58.1865 39.7246C57.855 39.8103 54.3944 40.0319 53.7861 40.0791C54.3492 39.1392 55.4004 38.0252 56.0869 37.1289C56.7562 36.2554 57.3774 35.3774 58.0166 34.4825C58.0795 35.1976 58.1776 36.3751 58.3086 37.0635C58.6177 37.2075 59.4218 37.7903 59.8408 38.0274C60.0734 37.612 60.1189 37.44 60.2607 36.9883C60.8482 36.6349 60.8817 36.1655 61.3711 35.7696L61.4512 35.8194C61.4378 36.5854 60.8943 37.6154 60.832 38.3692C61.357 38.8483 65.2026 38.9601 66.0312 38.9258C65.996 37.6515 65.514 33.3256 65.0488 32.3946C64.6743 33.0093 64.2358 33.8653 63.8086 34.3985L63.834 34.3135C64.1668 33.229 64.8668 32.4822 64.6543 31.2657C64.5424 30.6306 64.4033 30.0483 64.249 29.4229C64.5533 28.8201 64.9959 27.629 65.1533 26.9766C66.0653 29.116 66.0991 31.9379 66.2432 34.2139C66.3441 35.8106 66.531 37.356 66.4111 38.9649C67.8172 38.9228 69.3339 38.8409 70.7305 38.836C71.6845 37.933 72.7453 36.8486 73.7959 36.0684C76.0434 34.3986 78.3719 32.7976 80.5996 31.0996C80.8366 30.8798 81.1622 30.5391 81.2852 30.2481C81.9033 28.7878 82.6371 27.1591 82.9678 25.6094C83.1704 24.6579 83.1098 23.8556 83.4023 22.8457ZM54.708 61.9434C54.9354 61.9316 54.9472 61.9247 55.1807 61.9707L55.248 62.0703C54.9429 63.1717 53.9497 64.7011 53.5898 65.9639C53.356 66.7846 52.7741 67.6604 52.4873 68.6573C52.4098 68.3537 52.2879 68.0456 52.1807 67.75C51.6772 66.6323 51.3015 65.7771 50.6357 64.753C53.1418 64.0527 52.7791 63.1797 54.708 61.9434ZM59.4434 63C59.5616 63.2212 59.5533 63.5539 59.5693 63.8155L59.2793 64.3975L59.2129 64.4424L59.1416 64.4043C59.1277 64.2713 59.3334 63.1905 59.373 62.9463L59.4434 63ZM53.499 59.0274C53.6164 59.2187 53.431 60.1664 53.3916 60.4229C52.8814 60.8915 51.4639 61.8033 50.7793 61.9278C50.6684 61.4825 50.6603 61.0777 50.6533 60.6231C51.3606 60.1226 52.7028 59.3163 53.499 59.0274ZM62.6475 54.6592C63.1323 55.1657 63.1286 55.2521 63.2939 55.918C63.5866 56.1977 64.3564 56.6853 63.9707 57.0586C63.6554 57.3635 63.1608 57.8273 62.8447 58.1543C62.5067 58.5141 62.1898 58.8457 61.8789 59.2295C61.2402 60.0107 60.5847 60.7785 59.9131 61.5323C60.6966 59.3337 61.7973 56.9137 62.6475 54.6592ZM56.4678 55.6993C56.6158 56.177 56.529 56.5586 56.1992 56.9219C56.0306 56.5296 56.2829 56.0481 56.4678 55.6993ZM57.7031 49.7784C58.1681 50.0132 58.8591 50.3017 58.6016 50.9082C58.1795 50.5456 58.0336 50.6202 57.6309 50.3545C57.5548 50.0857 57.6079 50.1001 57.7031 49.7784ZM54.876 42.2637C55.073 42.3641 54.9944 42.2942 55.1123 42.4932L55.0596 42.6856C54.7143 42.9517 53.5787 43.2273 53.0986 43.3594L52.9746 43.3496L53.0137 43.2432C53.5651 42.8178 54.2297 42.514 54.876 42.2637ZM35.876 13.5635C41.0033 13.5286 46.1315 13.5296 51.2588 13.5674C51.2851 14.0517 51.3121 14.5823 51.4912 15.0371C51.5329 15.1431 51.5557 15.2087 51.5713 15.2764L51.6084 15.5264L51.6406 15.7647C51.7675 17.0234 51.4182 19.279 51.1855 20.4327C51.1382 18.866 51.3426 17.7225 51.4746 16.21C50.64 16.1949 49.5432 16.2351 48.7637 16.1953L35.501 16.2012L30.7637 16.1993C28.9312 16.1992 27.0839 16.1005 25.2969 16.5791C23.5514 17.0422 21.6702 18.2081 20.418 19.5059C14.8147 25.313 16.8938 36.6566 25.4141 38.3389C27.3092 38.7131 28.7627 38.6675 30.6729 38.6739L36.2881 38.6621C40.2384 38.6436 44.5323 38.704 48.4473 38.6162C48.528 38.6145 48.6088 38.6121 48.6895 38.6094C48.959 37.706 49.7662 36.2731 49.7969 35.6905C49.7685 35.489 49.7962 34.9445 49.9111 34.7608C50.0136 35.0443 49.957 35.3564 49.9336 35.667C49.8806 36.7593 49.9448 40.0521 50.2891 41.003C50.5087 40.8856 50.5912 40.8093 50.834 40.8496C51.0391 41.0045 50.9874 40.908 51.0293 41.128C50.8215 41.4454 50.7054 41.3554 50.333 41.3057C46.8051 41.4673 43.0535 41.3692 39.4316 41.3369C34.8891 41.2964 29.5045 41.6687 25.0059 41.0284C23.1696 40.7669 19.7462 38.7423 18.4766 37.4268C15.7803 34.633 14.5994 31.0647 14.6543 27.1807C14.6724 23.4554 16.188 19.8937 18.8604 17.2979C20.2936 15.9216 22.6528 14.5418 24.5811 14.044C26.7376 13.4872 29.0147 13.5506 31.2139 13.5625L35.876 13.5635ZM105.518 34.7071C105.84 35.0556 105.815 37.8136 105.797 38.4209C105.621 38.2303 105.449 38.0264 105.279 37.8291C105.025 37.474 104.772 37.0729 104.531 36.7051C104.8 36.0604 105.021 35.8751 105.442 35.3389C105.639 35.0891 105.566 35.0158 105.518 34.7071ZM67.4863 11.293C67.3532 11.5968 67.2452 11.8822 67.1318 12.1914C66.9344 12.7324 66.794 13.5228 66.4883 14.002C65.6089 15.38 64.4153 16.5205 63.5703 17.9366C63.0465 18.8155 63.0192 19.7767 62.499 20.6494C62.1062 21.2238 61.6638 21.767 61.2607 22.334C59.8114 24.3414 58.4453 26.4561 56.9189 28.4043C55.8279 29.7971 54.9526 31.3425 53.8906 32.7364C52.772 34.2046 51.6513 35.6403 50.5547 37.1299C50.5721 36.4125 50.5927 35.6068 50.6621 34.8965C51.0835 30.581 50.7258 26.3044 50.9258 21.9571C51.2311 23.683 51.3105 25.3298 51.3477 27.084C51.3665 27.9766 51.2673 28.8357 51.3672 29.7246C51.4703 31.0014 51.3966 32.2921 51.499 33.6084C51.9831 32.9513 52.8845 31.8524 53.2588 31.1543C54.2783 29.2522 55.4461 28.0409 56.8438 26.4434C58.4495 24.6077 59.9199 22.5353 61.4014 20.5918C62.0862 19.6535 62.2996 18.3519 62.8037 17.3565C63.3561 16.2645 64.3695 15.0404 65.1348 14.0743C60.7838 14.3383 56.2054 14.4742 51.832 14.6534L51.8115 11.9444C56.483 11.8401 61.152 11.6431 65.8154 11.3526C66.3371 11.3038 66.9559 11.3051 67.4863 11.293ZM105.299 33.5537C105.428 33.5755 105.378 33.559 105.487 33.6485C105.438 34.0536 105.529 34.2675 105.486 34.6123C105.404 34.519 105.323 34.4249 105.242 34.3301L105.091 34.3545C104.791 34.6085 104.51 35.1342 104.296 35.4873C104.154 35.3225 104.01 35.1588 103.863 34.9971C103.839 34.9898 103.814 34.983 103.789 34.9756L103.666 34.9356C103.164 34.7771 102.923 34.6352 102.454 34.3877C102.87 34.4502 103.259 34.5283 103.671 34.6104C104.348 33.9749 104.421 33.8807 105.299 33.5537ZM62.1846 33.8545C62.1523 34.2691 61.86 35.1522 61.5557 35.4776C61.4657 35.1028 61.9921 34.2253 62.1846 33.8545ZM63.707 34.335C63.8109 34.4299 63.7674 34.3731 63.7988 34.5401C63.6635 34.8603 63.5854 34.9258 63.3477 35.1856L63.2812 35.0987C63.3376 34.8494 63.5592 34.5584 63.707 34.335ZM87.2012 11.6846C90.8502 12.3228 93.2215 13.1913 96.0703 15.668L96.8506 14.9942C97.0884 14.9922 98.4064 14.9398 98.5088 14.9844C98.3786 15.2199 97.5413 15.8715 97.2656 16.1036C99.3478 18.1848 100.497 21.2491 100.924 24.0869C100.977 24.4397 101.042 24.8892 101.137 25.2276L95.9297 26.6162C95.503 26.7257 94.3814 27.0539 94.0449 27.0664L93.8779 26.9043C93.8586 26.9245 93.5874 27.2287 93.6074 27.2237C91.8034 27.8278 89.7624 27.6556 87.8867 27.7139C87.1704 27.7361 84.5729 28.4049 84.248 28.2666C84.2285 28.0552 84.3553 27.9244 84.5117 27.7774C85.2543 27.6067 85.2044 27.4928 85.6982 27.2979C85.889 27.2231 87.1606 27.2722 87.5635 27.2002C88.4414 27.0432 89.4931 26.661 90.3418 26.5508C91.2051 26.4388 92.3758 26.5614 93.2705 26.4541C95.0483 26.2409 96.6277 25.8178 98.3242 25.3057C98.0882 22.7884 97.3227 20.0984 95.5137 18.2539L95.3359 18.0782L95.126 18.2286C94.428 18.7353 93.9108 18.9 93.21 19.4932C92.7045 20.0299 92.1453 20.6627 91.5762 21.1192C91.2287 21.4855 90.878 21.8144 90.5107 22.1612L89.9854 22.7871C88.719 24.2823 87.1747 25.9831 85.6748 27.003C86.683 25.911 87.002 25.2093 87.8447 24.2159C88.1132 23.9769 89.0389 22.8891 89.3447 22.5557C89.6067 22.1659 90.4193 21.273 90.8145 21.0274H90.8154C91.9626 19.7616 92.8406 18.9871 94.0039 17.5723C91.5143 15.684 89.9324 14.5133 86.5947 14.3096C86.7476 13.54 86.9473 12.3861 87.2012 11.6846ZM84.7529 26.3467C84.6688 26.8937 84.5802 27.1934 84.4199 27.7286L84.2939 27.7657L84.2549 27.6455C84.3076 27.3285 84.5072 26.5321 84.7529 26.3467ZM81.957 13.9161C82.1509 13.894 82.1643 13.8707 82.334 13.9522C82.5658 14.5092 82.3598 15.9706 82.2939 16.6309C79.8869 16.5295 77.1387 16.6157 74.7236 16.6309C73.5456 16.6383 70.9254 16.5841 69.877 16.7481C69.1907 19.0506 68.1506 21.4817 67.3955 23.7852C66.9485 25.1493 65.9929 26.2498 65.7559 27.7315C65.2635 27.2654 65.9153 26.2691 66.1348 25.7764C67.0339 23.7587 67.7917 21.6845 68.4443 19.5752C68.6406 18.9404 69.4126 17.5054 69.4141 16.8926L69.1943 16.7325C69.0853 16.3388 69.7849 14.604 69.9648 14.0323C73.8052 13.8411 78.0238 14.0776 81.957 13.9161ZM113.678 24.6592C114.035 24.7626 114.871 26.2016 115.331 26.7178C112.956 27.9122 107.375 27.3524 104.523 27.6778C104.038 27.7553 103.167 27.7134 102.654 27.6944C106.236 26.8391 110.077 25.4127 113.678 24.6592ZM113.371 25.0889C112.626 25.2507 108.221 26.486 107.896 26.793L107.923 26.8936L108.063 26.9219C109.944 26.7939 111.743 26.7591 113.596 26.6543C113.577 26.2257 113.574 25.4894 113.466 25.1026L113.371 25.0889ZM82.3086 16.794C82.3013 17.4584 82.1885 18.7725 81.9404 19.3809C81.8761 19.6217 81.8395 19.7805 81.8008 20.0264C81.8542 20.643 82.1168 25.3143 82.0439 25.5313L81.9326 25.5342C80.9965 24.7344 81.4171 22.1767 81.6006 20.6241L81.6602 20.0284C81.6616 19.8737 81.8228 19.0439 81.8594 18.8203C81.9486 17.9879 82.0233 17.5792 82.3086 16.794ZM50.4434 19.9336C50.9559 20.5659 50.2581 23.7924 50.168 24.8584L50.126 24.8789C49.9938 24.6359 50.4158 20.6655 50.4434 19.9336ZM86.0146 16.9356C86.0672 17.4996 85.8116 18.3963 85.8525 18.9346C86.0105 21.0048 86.0998 22.0374 85.4971 24.0528L85.4473 23.9717C85.5577 22.2406 85.5812 20.6559 85.5059 18.9268C85.4928 18.6376 85.8894 17.2341 86.0146 16.9356ZM86.3838 14.3565C86.4268 14.3872 86.4985 14.4681 86.5381 14.5098C86.7034 14.9423 86.3363 15.9369 86.1943 16.4258L86.1172 16.4864C85.961 16.1675 86.2857 14.7424 86.3838 14.3565ZM92.0596 0.00980154C92.216 0.572044 89.1809 5.91971 88.6611 6.7891C87.5315 8.68085 85.745 10.6281 84.9365 12.6973L84.8428 12.8243L84.7852 12.7911C85.2775 9.98152 86.1368 6.97589 86.8896 4.22465C87.2415 2.93775 87.5818 1.53142 87.9922 0.276403C89.2644 0.229955 90.5352 0.142281 91.8008 0.0146844C91.9154 -0.0106384 91.9387 0.0030455 92.0596 0.00980154ZM88.2207 0.469762C87.9611 1.20741 87.8044 1.93705 87.6143 2.6934C86.9814 5.21348 86.2995 7.73502 85.7764 10.2813C86.2818 9.69277 86.8049 8.80243 87.2285 8.12992C88.9186 5.48212 90.0388 3.59095 91.5723 0.875036C90.7714 0.877088 90.2364 0.890719 89.4385 0.739294C89.1325 0.681127 88.4525 0.491846 88.2207 0.469762Z" fill="white"/>
</svg>
