<svg width="103" height="121" viewBox="0 0 103 121" fill="none" xmlns="http://www.w3.org/2000/svg">
<path d="M67.1618 46.815C65.4539 51.5973 59.6469 57.4043 56.231 68.3351C56.231 72.4341 63.746 62.1865 67.1618 59.4538C70.5777 56.7211 76.7263 52.9636 81.1669 45.7903C85.6076 38.6169 90.0482 38.2753 93.8057 33.8347C97.5632 29.3941 95.8552 23.2455 96.88 19.8296C97.9047 16.4137 99.2711 12.9978 101.321 8.89879C103.37 4.79974 100.296 0.0175099 97.2216 0.359098C94.1473 0.700685 89.3651 0.700685 81.5085 4.11656C73.652 7.53244 69.8946 5.14133 62.038 7.53244C54.1815 9.92355 50.7656 10.9483 45.3002 11.9731C39.8348 12.9978 34.3694 9.92356 30.9536 9.24038C27.5377 8.55721 20.7059 7.53244 14.5573 9.24038C8.40876 10.9483 5.33447 16.4137 5.33447 20.5128C5.33447 24.6118 8.40876 32.1268 9.09194 36.2258C9.77511 40.3249 12.1662 42.3744 15.2405 42.3744C18.3148 42.3744 22.4139 39.9833 27.1961 39.6417C31.9783 39.3001 36.7605 36.909 40.8596 36.2258C44.9586 35.5426 52.132 37.2506 56.231 38.9585C60.3301 40.6665 66.8203 39.9833 69.553 39.6417C69.553 41.6912 68.8698 42.0328 67.1618 46.815Z" stroke="#E4E4E7" stroke-width="0.683176"/>
<path d="M35.7162 75.7808C37.4242 70.9986 43.2312 65.1916 46.647 54.2608C46.647 50.1617 39.1321 60.4094 35.7162 63.1421C32.3004 65.8748 26.1518 69.6322 21.7111 76.8056C17.2705 83.9789 14.2157 84.0481 9.0724 88.7611C4.78365 92.6911 5.33444 95.3205 4.30968 98.7364C3.28492 102.152 2.94333 106.593 0.893799 110.692C-1.15572 114.791 2.94333 119.915 5.9981 119.915C9.09131 119.915 12.5078 121.623 20.3643 118.207C28.2208 114.791 30.9535 115.816 39.8348 114.449C47.9516 113.201 47.0081 112.4 52.4735 111.375C57.939 110.35 67.1618 113.766 70.5777 114.449C73.9936 115.133 83.2164 115.405 89.365 113.697C95.5136 111.989 98.5879 106.865 98.5879 102.766C98.5879 98.6672 94.5947 91.2214 93.7861 86.37C93.103 82.271 91.073 82.3402 87.9987 82.3402C84.9244 82.3402 80.4837 83.7065 75.7015 84.0481C70.9193 84.3897 68.1866 85.6868 64.0875 86.37C59.9885 87.0532 52.132 84.6621 48.0329 82.9541C43.9339 81.2462 36.0578 82.6126 33.3251 82.9541C33.3251 80.9046 34.0083 80.563 35.7162 75.7808Z" stroke="#E4E4E7" stroke-width="0.683176"/>
</svg>
