<?xml version="1.0" encoding="utf-8"?>
<!-- Generator: Adobe Illustrator 23.0.2, SVG Export Plug-In . SVG Version: 6.00 Build 0)  -->
<svg version="1.1" xmlns="http://www.w3.org/2000/svg" xmlns:xlink="http://www.w3.org/1999/xlink" x="0px" y="0px"
	 viewBox="0 0 1200 1200" style="enable-background:new 0 0 1200 1200;" xml:space="preserve">
<style type="text/css">
	.st0{fill:#E9F4FE;}
	.st1{fill:#3CAF99;}
	.st2{fill:#FCAFA7;}
	.st3{fill:#ED938E;}
	.st4{fill:#F9CCA0;}
	.st5{fill:#CE8C80;}
	.st6{fill:#71A0E8;}
	.st7{fill:#5584DB;}
	.st8{fill:#39215B;}
	.st9{fill:#8FBBEF;}
	.st10{fill:#F78E81;}
	.st11{opacity:0.38;}
	.st12{fill:#436AA8;}
	.st13{fill:#AA6D65;}
	.st14{fill:#DB9A7D;}
	.st15{fill:#FFE088;}
	.st16{fill:#E0746C;}
	.st17{fill:#454E6B;}
</style>
<g id="bg">
	<g>
		<circle class="st0" cx="600" cy="600" r="455"/>
	</g>
	<g>
		
			<ellipse transform="matrix(0.9239 -0.3827 0.3827 0.9239 -270.7839 158.108)" class="st1" cx="262.04" cy="759.72" rx="17.99" ry="17.99"/>
	</g>
	<g>
		<circle class="st1" cx="1085.58" cy="614.67" r="9.98"/>
	</g>
	<g>
		<circle class="st1" cx="546.2" cy="982.89" r="9.98"/>
	</g>
	<g>
		<path class="st1" d="M953.06,763.24c-19.25,0-34.91-15.66-34.91-34.9c0-19.25,15.66-34.91,34.91-34.91
			c19.25,0,34.9,15.66,34.9,34.91C987.96,747.59,972.31,763.24,953.06,763.24z M953.06,702.26c-14.38,0-26.08,11.7-26.08,26.08
			c0,14.38,11.7,26.08,26.08,26.08c14.38,0,26.08-11.7,26.08-26.08C979.14,713.96,967.44,702.26,953.06,702.26z"/>
	</g>
	<g>
		<path class="st1" d="M201.88,669.81c-19.25,0-34.91-15.66-34.91-34.9c0-19.25,15.66-34.91,34.91-34.91
			c19.25,0,34.9,15.66,34.9,34.91C236.78,654.15,221.13,669.81,201.88,669.81z M201.88,608.83c-14.38,0-26.08,11.7-26.08,26.08
			c0,14.38,11.7,26.08,26.08,26.08c14.38,0,26.08-11.7,26.08-26.08C227.96,620.53,216.26,608.83,201.88,608.83z"/>
	</g>
</g>
<g id="h">
	<g>
		<path class="st2" d="M0,1200h119.37c54.2-65.25,109.85-129.12,150.6-168.25l-58.41-71.41L0,1132.99V1200z"/>
	</g>
	<g>
		<path class="st3" d="M836.59,733.79c28.57,85.42,86.88,81.58,107.03,137.07c7.51,20.68,20.75,41.18,29.04,53.39
			c13.61,20.01,25.4,29.22,25.97,29.67l0.02,0.02l-57.32-2.83l-49.49-2.45c0,0-24.26-30.54-21.76-73.62
			c2.49-43.08-14.34-52.17-34.19-97.24c-0.08-0.18-0.16-0.36-0.23-0.54C813.51,726.39,836.59,733.79,836.59,733.79z"/>
	</g>
	<g>
		<path class="st4" d="M355.61,533.25c-21.22-87.54-72.68-105.44-88.05-162.44c-5.73-21.24-13.3-38.16-20.52-51.03
			c-11.86-21.09-22.83-31.27-23.36-31.76l-0.02-0.02l56.87,7.68l49.1,6.64c0,0,21.58,32.49,15.44,75.2
			c-6.13,42.71,9.86,53.2,25.82,99.79c0.06,0.18,0.13,0.38,0.18,0.56C388.83,530.43,355.61,533.25,355.61,533.25z"/>
	</g>
	<g>
		<path class="st5" d="M1022.45,373.07c0,0-0.01,0-0.02,0.01l-22.14,6.47l-23.62,23.79l-8.63,8.7l-91.54,71.74l-56.4,12.54
			l-47.66,10.59c0,0-42.55-101.09-31.83-121.39c10.72-20.29,60.62-70.23,150.52-68.34c11.46,0.24,27.46-5.43,41.45-11.67
			c16.67-7.43,30.5-15.65,30.5-15.65L1022.45,373.07z"/>
	</g>
	<g>
		<path class="st2" d="M288.76,1016.1c0,0,41.19-42.79,66.17-45.14c31.09-2.93,114.06-70.46,119.22-92.83
			c5.16-22.37-46.87-118.41-46.87-118.41l-94.64,49.04l-70.99,95.8l-21.93,36.69l-19.76,11.93"/>
	</g>
	<g>
		<path class="st6" d="M694.43,757.35c0.03,26.26-20.75,47.66-46.75,48.65c-0.59,0.05-1.23,0.07-1.86,0.07
			c-11.42,0-21.79-6.15-33.48-12.45c-8.44-4.56-18.69,1.57-18.68,11.16l0.08,78.57H447.33c-34.18,0-64.8-15.21-85.47-39.24
			c-10.37-12.05-18.24-26.32-22.78-42c-2.9-9.98-4.45-20.53-4.45-31.45v-145.8l77.46-0.07c9.61-0.01,15.73,10.26,11.14,18.71
			c-5.85,10.77-11.23,20.53-11.22,31.22c-0.01,0.63,0.02,1.24,0.04,1.84c1.02,26,22.41,46.79,48.66,46.76
			c26.86-0.03,48.62-21.83,48.59-48.69c-2.5-14.19-7.04-22.56-11.99-30.68c-5.14-8.45,0.91-19.26,10.8-19.27l85.38-0.07l0.08,86.7
			c0.01,9.91,10.87,15.97,19.3,10.78c8.86-5.45,17.42-10.59,32.87-13.33C672.59,708.73,694.41,730.48,694.43,757.35z"/>
	</g>
	<g>
		<path class="st7" d="M497.31,643.95c4.94,8.12,9.48,16.49,11.99,30.68c0.03,26.86-21.73,48.66-48.59,48.69
			c-26.25,0.03-47.64-20.76-48.66-46.76c-0.02-0.6-0.05-1.21-0.04-1.84c-0.01-10.69,5.37-20.46,11.23-31.23
			c4.58-8.43-1.54-18.71-11.14-18.7l-77.47,0.07V477.42c0-62.25,50.45-112.7,112.7-112.7h145.96l0.04,79.7
			c0,9.59-10.25,15.73-18.69,11.17c-11.69-6.29-22.06-12.44-33.49-12.43c-0.62-0.01-1.24-0.01-1.85,0.06
			c-26,0.98-46.76,22.39-46.73,48.64c0.01,26.86,21.81,48.61,48.68,48.58c15.46-2.73,24.01-7.86,32.86-13.31
			c8.43-5.19,19.3,0.88,19.3,10.77l0.08,86.71l-85.38,0.07C498.22,624.68,492.17,635.51,497.31,643.95z"/>
	</g>
	<g>
		<path class="st8" d="M423.24,643.5c-3.6,6.64-7.02,12.89-9.12,19.21l-49.95-27.35v-10.53l47.93-0.04
			C421.7,624.78,427.83,635.06,423.24,643.5z"/>
	</g>
	<g>
		<path class="st8" d="M480.23,578.16l-73.51,36.55l73.51,36.54v47.67l-66.11-36.21c2.1-6.32,5.52-12.57,9.12-19.21
			c4.59-8.44-1.54-18.73-11.14-18.72l-47.93,0.04v-30.79l116.06-63.56V578.16z"/>
	</g>
	<g>
		<polygon class="st8" points="593.49,624.61 568.89,624.64 593.44,567.35 		"/>
	</g>
	<g>
		<polygon class="st8" points="593.56,699.14 576.01,741.49 518.81,741.49 568.89,624.64 593.49,624.61 		"/>
	</g>
	<g>
		<path class="st9" d="M869.99,637.27l-78.04-7.2c-9.56-0.89-14.72-11.67-9.38-19.66c0.85-1.26,1.68-2.5,2.5-3.75
			c0.2-0.31,0.4-0.62,0.61-0.92c1.63-2.46,3.17-4.89,4.55-7.32l0.51-0.91c0.34-0.61,0.67-1.21,0.98-1.82
			c0.16-0.3,0.31-0.6,0.46-0.91c0.62-1.22,1.18-2.44,1.68-3.67c0.09-0.2,0.17-0.41,0.25-0.62c0.32-0.8,0.61-1.6,0.88-2.4
			c0.83-2.52,1.4-5.09,1.64-7.73c0.11-0.64,0.14-1.25,0.14-1.85c1.4-25.99-17.98-48.65-44.13-51.06
			c-26.75-2.45-50.42,17.25-52.87,44c0.9,10.85,3.26,18.5,6.16,25.28c0.92,2.18,1.92,4.28,2.93,6.37
			c4.35,8.88-2.67,19.09-12.53,18.19l-8.69-0.8l-45.48-4.18l-30.83-2.83l5.23-57.03l0-0.01l2.69-29.31
			c0.92-9.85-9.35-16.9-18.22-12.51c-9.32,4.61-18.3,8.92-33.95,10.22c-26.76-2.45-46.46-26.13-43.98-52.87
			c0.18-1.94,0.47-3.85,0.87-5.71c4.91-23.2,26.11-39.72,50.15-38.41c0.62-0.01,1.24,0.06,1.85,0.12
			c9.58,0.89,18.02,6.04,27.05,12.03c1.7,1.13,3.41,2.28,5.16,3.45c7.98,5.31,18.75,0.15,19.64-9.4l7.32-79.36l146.65,13.59
			c37.82,3.51,69.53,25.31,87.19,55.85c5.65,9.76,9.86,20.42,12.37,31.64c2.53,11.23,3.37,23.05,2.25,35.13L869.99,637.27z"/>
	</g>
	<g>
		<polygon class="st8" points="695.44,515.24 642.14,616.32 611.31,613.49 616.55,556.46 616.55,556.45 641.64,510.25 		"/>
	</g>
	<g>
		<path class="st8" d="M842.14,619.81l-1.37,14.76l-48.81-4.49c-9.56-0.89-14.72-11.67-9.38-19.67c5.13-7.65,9.94-14.76,12.42-22.32
			L842.14,619.81z"/>
	</g>
	<g>
		<path class="st7" d="M867.85,652.74l-5.59,146.14c-1.54,40.19-23.94,74.66-56.38,93.37c-12.62,7.28-26.76,12.18-41.78,14.1
			c-6.13,0.79-12.4,1.08-18.77,0.84l-146.71-5.62l2.92-78.52c0.37-9.57,10.83-15.31,19.09-10.43c11.44,6.74,21.58,13.28,32.99,13.71
			c0.63,0.03,1.26,0.04,1.85,0.01c26.02,0,47.61-20.59,48.59-46.83c0.45-12.18-3.61-23.47-10.7-32.27
			c-8.53-10.61-21.44-17.59-36.1-18.14c-15.55,2.15-24.3,6.96-33.36,12.07c-8.62,4.86-19.25-1.62-18.87-11.52l0.21-5.71l0.24-6.46
			l0.01-0.01l2.78-74.46l30.93,1.15l54.37,2.03c9.89,0.37,16.35-10.2,11.53-18.83c-4.62-8.31-8.83-16.84-10.79-31.12
			c0.13-3.38,0.59-6.67,1.37-9.83c2.49-10.14,8.14-18.98,15.81-25.48c8.93-7.57,20.6-11.96,33.23-11.49
			c26.24,0.99,46.82,22.57,46.82,48.59c0.04,0.59,0.04,1.21-0.02,1.85c-0.1,2.67-0.53,5.26-1.23,7.82
			c-0.06,0.23-0.12,0.46-0.19,0.69c-0.03,0.13-0.07,0.27-0.12,0.4c-0.08,0.28-0.17,0.55-0.26,0.83c-0.2,0.64-0.42,1.27-0.65,1.9
			c-0.12,0.32-0.24,0.64-0.36,0.95c-0.24,0.63-0.5,1.26-0.78,1.89c-0.14,0.32-0.28,0.64-0.42,0.95c-0.28,0.63-0.58,1.26-0.88,1.89
			c-0.54,1.1-1.1,2.2-1.69,3.31c-0.08,0.16-0.17,0.32-0.26,0.48c-0.34,0.63-0.69,1.27-1.05,1.91c-0.89,1.59-1.82,3.19-2.77,4.81
			c-0.58,0.98-1.16,1.96-1.75,2.95c-2.26,3.81-2.26,8.1-0.66,11.65c0.24,0.54,0.52,1.06,0.84,1.57c0.1,0.16,0.21,0.33,0.33,0.49
			c0.22,0.32,0.46,0.64,0.72,0.94c0.12,0.15,0.26,0.3,0.39,0.45c0.14,0.14,0.28,0.29,0.42,0.43c0.28,0.27,0.57,0.53,0.88,0.79
			c0.63,0.51,1.3,0.96,2.02,1.34c0.72,0.38,1.48,0.7,2.29,0.94c1.01,0.3,2.08,0.48,3.2,0.52l43.08,1.63l5.9,0.22L867.85,652.74z"/>
	</g>
	<g>
		<polygon class="st8" points="639.2,644.16 605.48,717.48 608.27,643.01 		"/>
	</g>
	<g>
		<path class="st8" d="M838.52,651.63l-1.01,26.47l-118.74,59.06l1.82-47.64l75.06-33.71l-72.26-39.34l1.82-47.64l65.09,38.85
			c-2.07,7.68-6.49,15.05-11.19,22.96c-4.9,8.27,0.83,18.76,10.43,19.13L838.52,651.63z"/>
	</g>
	<g>
		<path class="st2" d="M269.96,1031.75c-5.54,5.33-11.36,11.1-17.41,17.28l-50.68-80.79l9.67-7.9L269.96,1031.75z"/>
	</g>
	<g>
		<path class="st10" d="M269.96,1031.75c-5.54,5.33-11.36,11.1-17.41,17.28l-50.68-80.79l9.67-7.9L269.96,1031.75z"/>
	</g>
	<g>
		<path class="st10" d="M219.96,1083.6c-7.36,8.01-13.79,15.29-21.54,24.03l-44.69-100.1l15.64-12.77c1.65,1.19,4.38,4.46,5.3,6.45
			L219.96,1083.6z"/>
	</g>
	<g>
		<path class="st8" d="M214.6,1102.77l-61.35-106.26c-3.75-6.49-1.52-14.8,4.97-18.55l5.47-3.16c6.49-3.75,14.8-1.52,18.55,4.97
			l61.35,106.26c3.75,6.49,1.52,14.8-4.97,18.55l-5.47,3.16C226.65,1111.49,218.35,1109.27,214.6,1102.77z"/>
	</g>
	<g>
		<path class="st4" d="M238.78,306.47L14.5,98.66l114.87-83.67c0,0,65.32,104.03,169.71,217.75"/>
	</g>
	<g>
		<path class="st3" d="M982.02,936.81l210.05,164.71l-91.32,81c0,0-52.59-67.02-166.26-171.47"/>
	</g>
	<g class="st11">
		<path class="st12" d="M881.32,455.78l-55.81,66.67l-21.73,3.73c0,0,0.96-34.48,29.75-58.2c19.78-16.3,30.59-34.23,35.42-43.85
			C874.6,433.89,878.8,444.55,881.32,455.78z"/>
	</g>
	<g>
		<path class="st5" d="M1022.45,373.07c0,0-0.01,0-0.02,0.01c-0.8,0.36-20.24,9.2-43.39,33.71c-7.92,8.38-16.26,18.6-24.45,30.94
			c-29.55,44.55-77.01,49.32-121.25,106.47c-10.06,13.01-30.96,5.43-30.21-11c0.43-9.13,4.32-20.39,14.64-33.9
			c0.78-1.02,1.57-2.03,2.34-3c28.78-36.08,51.32-35.42,58.84-76.77c7.71-42.46,38.46-66.44,38.46-66.44l35.29,6.71L1022.45,373.07z
			"/>
	</g>
	<g>
		<path class="st13" d="M1022.45,373.07c0,0-0.01,0-0.02,0.01c-0.8,0.36-20.24,9.2-43.39,33.71c-0.81-1.15-1.59-2.3-2.36-3.46
			c-9.56-14.23-17.5-29.27-23.98-43.52c-9.93-21.83-16.47-41.82-20.1-54.32c16.67-7.43,30.5-15.65,30.5-15.65L1022.45,373.07z"/>
	</g>
	<g class="st11">
		<path class="st12" d="M473.29,518.16c0,0-11.62,10.48-30.96,8.81c0,0-33.33,6.28-71-33c-15.4-16.06-28.31-30.3-36.7-40.63v-38.93
			l3.7-5.58L473.29,518.16z"/>
	</g>
	<g>
		<path class="st4" d="M488.96,474.97c-1.33,1.09-2.31,1.62-2.31,1.62c0.87,2.67,1.66,5.31,2.15,7.9c0,0.01,0,0.01,0,0.01
			c0.72,3.72,0.85,7.26-0.18,10.38c-2.31,6.97-4.66,5.8-9.47,9.81c-0.57,0.47-1.18,1.02-1.83,1.67c0,0,0.17,1.99-0.23,4.45
			c-0.51,3.07-1.91,6.86-5.69,8.45c-8,3.38-15.93,1.81-20.8,0.14c-2.99-1.03-4.83-2.11-4.83-2.11c-0.83,0.58-1.68,1.09-2.57,1.51
			c-18.17,8.68-47.9-15.69-72.14-40.94c-22.13-23.04-39.67-46.8-39.67-46.8l-69.18-91.92L251,317.41l-8.38-16.26l-18.95-13.12
			l-0.02-0.02l72.62-58.47c0,0,8.19,9.64,19.44,20.43c13.13,12.56,30.43,26.67,43.77,28.78c30.85,4.87,85.52,62.75,104.59,103.57
			c5.56,11.9,28.02,42.09,32.43,74.53C497.77,466.29,492.26,472.29,488.96,474.97z"/>
	</g>
	<g>
		<path class="st14" d="M315.7,249.95c-7.77,18.23-21.48,33.7-35.19,45.73c-10.83,9.52-21.65,16.88-29.52,21.73
			c-1.42,0.87-2.75,1.67-3.97,2.38c-11.86-21.09-22.83-31.27-23.36-31.76l-0.02-0.02l72.62-58.47
			C296.27,229.53,304.45,239.16,315.7,249.95z"/>
	</g>
	<g>
		<g>
			<path class="st14" d="M486.65,476.6c0.87,2.67,1.66,5.31,2.15,7.9c-5.93-8.99-52.86-80.13-76.01-110.42l4.28-3.27
				c20.19,26.44,58.32,83.67,71.89,104.17C487.63,476.06,486.65,476.6,486.65,476.6z"/>
		</g>
	</g>
	<g>
		<g>
			<path class="st14" d="M477.32,506.36c0,0,0.17,1.99-0.23,4.45c-6.94-8.89-70.36-90.16-92.54-116.38l4.11-3.47
				c20.72,24.49,77.22,96.76,90.48,113.73C478.58,505.17,477.97,505.71,477.32,506.36z"/>
		</g>
	</g>
	<g>
		<g>
			<path class="st14" d="M450.6,519.41c-2.99-1.03-4.83-2.11-4.83-2.11c-0.83,0.58-1.68,1.09-2.57,1.51
				c-14.87-18.45-69.23-85.75-87.65-106.39l4.01-3.58C379.92,431.63,443.77,510.92,450.6,519.41z"/>
		</g>
	</g>
	<g>
		<path class="st8" d="M304.08,238.18L135.8,14.99L19.44,114.05c0,0,100.91,111.67,204.2,198.33
			C223.65,312.38,284.06,284.96,304.08,238.18z"/>
	</g>
	<g class="st11">
		<path class="st12" d="M386.02,784c-8.13,17.28-17.94,43.13-24.16,60.11c-10.37-12.05-18.24-26.32-22.78-42l14.25-30.78
			l25.69-48.01C390,733.67,399.03,756.33,386.02,784z"/>
	</g>
	<g>
		<path class="st2" d="M219.96,953.18c0,0,30.09-23.98,49.02-79.9c18.93-55.92,71.41-70.55,98.08-156.58c0,0,33.22,4.94,11.73,56.79
			c-18.86,45.5-35.47,54.95-32.03,97.97c3.44,43.02-20.13,74.09-20.13,74.09"/>
	</g>
	<g>
		<path class="st10" d="M318.57,932.23l-2.14-4.52c1.27-0.61,31.09-15.35,27.83-56.04c-0.6-7.44-0.93-14.16-1.03-20.53l5-0.08
			c0.1,6.26,0.43,12.87,1.02,20.21C352.78,915.49,318.91,932.06,318.57,932.23z"/>
	</g>
	<g>
		<path class="st15" d="M280.72,1051.08l-80.41-92.68c-4.91-5.66-4.31-14.24,1.36-19.16l4.77-4.14c5.66-4.91,14.24-4.31,19.16,1.36
			l80.41,92.68c4.91,5.66,4.31,14.24-1.36,19.16l-4.77,4.14C294.22,1057.35,285.64,1056.75,280.72,1051.08z"/>
	</g>
	<g class="st11">
		<path class="st12" d="M805.88,892.25c-12.62,7.28-26.76,12.18-41.78,14.1c-24.61-31.3-47.07-81.17-52.1-98.02
			c-5.67-19,4.47-26.08,4.47-26.08c1.22-11.75,5.65-15.28,5.65-15.28L805.88,892.25z"/>
	</g>
	<g>
		<path class="st3" d="M998.66,953.93l-0.73,0.77l-59.15,62.18c0,0-1.03-1.16-2.78-3.05c-2.67-2.87-7.01-7.42-11.91-12.12
			c-3.44-3.29-7.16-6.66-10.76-9.57c-0.07-0.07-0.15-0.13-0.24-0.19c-14.15-11.33-35.37-20.69-55.52-29.22
			c-28.78-12.17-79.19-44.38-101.65-83.43c-6.55-11.38-29.56-48.46-38.73-79.89c-3.76-12.91,8.34-16.4,8.34-16.4
			c-9.95-22.99,4.25-25.53,4.84-26.22c0,0-4.68-22.84,26.44-12.42c0,0,7.3-19.05,68.31,36.22c23.68,21.45,53.78,45.53,53.78,45.53
			l77,80.13l13.01,20.7l9.73,15.49l2.76,1.58l14.8,8.5l2.43,1.4L998.66,953.93z"/>
	</g>
	<g>
		<path class="st16" d="M997.93,954.7l-59.15,62.18c0,0-1.03-1.16-2.78-3.05c-2.67-2.87-7.01-7.42-11.91-12.12
			c7.74-14.29,18.84-26.66,29.95-36.72c9.87-8.93,19.77-16.03,27.36-20.97c0.63-0.41,1.24-0.8,1.84-1.18
			c1.41-0.89,2.73-1.71,3.93-2.44c4.2,5.81,7.06,9.61,9.03,12.12C996.88,953.39,997.45,954.11,997.93,954.7z"/>
	</g>
	<g>
		<path class="st9" d="M928.49,1013.28l177.17,175.73l86.4-87.49c0,0-94.61-83.53-204.89-161.12
			C987.17,940.4,944.47,964.98,928.49,1013.28z"/>
	</g>
	<g>
		<g>
			<path class="st16" d="M797.18,888.78l-4.33,3.17c-19.98-27.28-57.24-85.91-70.73-107.3c1.84-1.19,3.42-1.65,3.42-1.65
				c-1.11-2.57-1.93-4.87-2.48-6.96C731.46,789.44,775.05,858.55,797.18,888.78z"/>
		</g>
	</g>
	<g>
		<g>
			<path class="st16" d="M819.31,867.44l-4.15,3.42c-19.65-23.88-71.7-92.31-87.29-112.86c1.31-0.73,2.36-1.03,2.51-1.2
				c0,0-0.42-2.04-0.17-4.63C742.77,768.76,798.79,842.52,819.31,867.44z"/>
		</g>
	</g>
	<g>
		<g>
			<path class="st16" d="M848.95,845l-3.9,3.7c-19.89-21.05-79.78-91.23-91.89-105.45c1.16,0.31,2.39,0.69,3.67,1.12
				c0,0,0.69-1.14,2.61-2.04C775.26,760.92,830.14,825.11,848.95,845z"/>
		</g>
	</g>
	<g>
		<path class="st8" d="M1200,128.6c-104.89,64.25-204.93,127.29-258.66,172.81c0,0,23.95,85,77.35,114.6L1200,303.29V128.6z"/>
	</g>
	<g>
		<path class="st1" d="M1200,110.12c-98.5,62.24-181.68,115.48-231.63,151.62c0,0,36.35,104.32,98.93,131.81l132.7-65.31V110.12z"/>
	</g>
	<g>
		<path class="st15" d="M1200,1200v-113.17c-75.86-54.24-149.32-106.61-190.52-135.6c0,0-64.16,31.85-75,99.34l144.5,149.42H1200z"
			/>
	</g>
	<g>
		<path class="st17" d="M135.5,0H0v116.24c71.41,71.98,144.13,143.17,186.21,178.48c0,0,77.3-35.76,93.82-102.09L135.5,0z"/>
	</g>
</g>
</svg>
