<svg width="16" height="16" viewBox="0 0 16 16" fill="none" xmlns="http://www.w3.org/2000/svg"><path d="M7.387 0.696 C 5.677 0.845,4.096 1.569,2.884 2.757 C 1.716 3.902,0.997 5.308,0.741 6.947 C 0.657 7.486,0.657 8.514,0.741 9.053 C 0.936 10.303,1.404 11.421,2.153 12.425 C 2.459 12.835,3.171 13.546,3.573 13.843 C 4.639 14.631,5.717 15.077,7.027 15.272 C 7.510 15.343,8.549 15.337,9.053 15.258 C 10.200 15.081,11.262 14.661,12.181 14.022 C 12.490 13.808,12.581 13.719,12.656 13.560 C 12.779 13.302,12.712 12.998,12.488 12.797 C 12.348 12.671,12.224 12.632,12.002 12.644 C 11.825 12.654,11.819 12.657,11.411 12.930 C 9.554 14.176,7.327 14.345,5.373 13.387 C 3.574 12.506,2.374 10.861,2.062 8.850 C 1.998 8.432,1.998 7.568,2.062 7.150 C 2.400 4.971,3.801 3.207,5.823 2.414 C 6.528 2.138,7.194 2.016,8.000 2.016 C 8.621 2.016,8.942 2.055,9.519 2.203 C 11.600 2.735,13.278 4.416,13.801 6.493 C 13.958 7.113,13.985 7.366,13.986 8.200 C 13.987 8.927,13.985 8.951,13.923 9.107 C 13.787 9.446,13.551 9.716,13.272 9.851 C 12.530 10.211,11.723 9.888,11.411 9.107 L 11.347 8.947 11.333 7.053 L 11.320 5.160 11.258 5.033 C 11.113 4.739,10.762 4.598,10.452 4.707 C 10.219 4.789,10.049 4.987,10.011 5.219 L 9.994 5.331 9.843 5.229 C 9.504 4.999,9.052 4.813,8.633 4.733 C 7.910 4.595,7.205 4.689,6.547 5.011 C 5.583 5.484,4.927 6.340,4.717 7.400 C 4.668 7.646,4.668 8.354,4.717 8.600 C 4.843 9.236,5.136 9.813,5.568 10.272 C 6.032 10.765,6.565 11.075,7.246 11.246 C 7.504 11.311,7.581 11.318,8.000 11.318 C 8.416 11.318,8.497 11.311,8.748 11.248 C 9.389 11.087,9.855 10.832,10.307 10.397 L 10.493 10.217 10.633 10.387 C 11.224 11.110,12.248 11.469,13.177 11.279 C 14.264 11.058,15.056 10.263,15.282 9.168 C 15.334 8.913,15.337 8.835,15.325 8.093 C 15.315 7.472,15.300 7.215,15.258 6.942 C 14.901 4.644,13.567 2.720,11.547 1.586 C 10.321 0.899,8.797 0.573,7.387 0.696 M8.504 6.065 C 8.728 6.126,9.063 6.298,9.249 6.447 C 9.703 6.812,10.000 7.427,10.000 8.000 C 10.000 8.521,9.761 9.069,9.368 9.448 C 8.631 10.161,7.459 10.182,6.680 9.497 C 6.409 9.258,6.137 8.808,6.050 8.453 C 6.004 8.265,6.003 7.737,6.049 7.547 C 6.101 7.332,6.325 6.887,6.458 6.732 C 6.758 6.384,7.158 6.136,7.548 6.057 C 7.628 6.040,7.717 6.022,7.747 6.015 C 7.848 5.991,8.360 6.025,8.504 6.065 " stroke="none" fill-rule="evenodd"></path></svg>