<svg xmlns="http://www.w3.org/2000/svg" width="24" height="24" viewBox="0 0 24 24" fill="none" stroke="currentColor" stroke-width="2" stroke-linecap="round" stroke-linejoin="round" class="feather feather-copy"><path d="M3.499 1.043 C 2.379 1.233,1.461 2.048,1.114 3.160 L 1.020 3.460 1.020 8.500 L 1.020 13.540 1.114 13.840 C 1.419 14.818,2.164 15.569,3.140 15.882 C 3.383 15.960,3.531 15.974,4.260 15.990 C 4.805 16.002,5.158 15.993,5.264 15.964 C 5.497 15.901,5.737 15.714,5.867 15.492 C 5.964 15.327,5.980 15.257,5.980 15.000 C 5.980 14.746,5.963 14.672,5.872 14.516 C 5.760 14.325,5.567 14.154,5.373 14.073 C 5.307 14.045,4.934 14.016,4.480 14.003 C 3.724 13.981,3.694 13.977,3.516 13.872 C 3.415 13.813,3.284 13.700,3.225 13.623 C 2.989 13.314,3.000 13.562,3.000 8.522 C 3.000 3.299,2.981 3.625,3.303 3.303 C 3.625 2.981,3.301 3.000,8.500 3.000 C 13.658 3.000,13.370 2.984,13.679 3.283 C 13.950 3.547,13.973 3.636,13.998 4.523 L 14.020 5.306 14.141 5.503 C 14.543 6.156,15.457 6.156,15.859 5.503 L 15.980 5.306 15.980 4.383 C 15.980 3.527,15.973 3.438,15.886 3.160 C 15.581 2.182,14.832 1.428,13.861 1.121 L 13.540 1.020 8.620 1.014 C 5.914 1.011,3.609 1.024,3.499 1.043 M10.499 8.043 C 9.379 8.233,8.461 9.048,8.114 10.160 L 8.020 10.460 8.020 15.500 L 8.020 20.540 8.114 20.840 C 8.422 21.827,9.173 22.578,10.160 22.886 L 10.460 22.980 15.500 22.980 L 20.540 22.980 20.840 22.886 C 21.827 22.578,22.578 21.827,22.886 20.840 L 22.980 20.540 22.980 15.500 L 22.980 10.460 22.886 10.160 C 22.581 9.182,21.832 8.428,20.861 8.121 L 20.540 8.020 15.620 8.014 C 12.914 8.011,10.609 8.024,10.499 8.043 M20.310 10.061 C 20.589 10.144,20.856 10.411,20.939 10.690 C 20.992 10.868,21.000 11.494,21.000 15.501 C 21.000 20.501,21.008 20.318,20.779 20.618 C 20.718 20.698,20.585 20.813,20.484 20.872 L 20.300 20.980 15.500 20.980 L 10.700 20.980 10.516 20.872 C 10.303 20.747,10.141 20.550,10.058 20.316 C 9.969 20.061,9.971 10.992,10.061 10.690 C 10.140 10.421,10.412 10.143,10.673 10.063 C 10.962 9.974,20.011 9.972,20.310 10.061 " stroke="none" fill-rule="evenodd" fill="black"></path></svg>