<svg width="16" height="16" viewBox="0 0 16 16" fill="none" xmlns="http://www.w3.org/2000/svg"><path d="M7.347 0.363 C 5.696 0.532,4.297 1.113,3.062 2.144 C 1.553 3.404,0.589 5.221,0.373 7.213 C 0.336 7.557,0.336 8.443,0.373 8.787 C 0.567 10.569,1.322 12.149,2.587 13.413 C 3.860 14.687,5.442 15.439,7.240 15.627 C 7.593 15.664,8.394 15.664,8.757 15.627 C 10.541 15.445,12.144 14.683,13.413 13.413 C 14.683 12.144,15.445 10.541,15.627 8.757 C 15.664 8.394,15.664 7.593,15.627 7.240 C 15.388 4.947,14.163 2.905,12.269 1.642 C 11.497 1.127,10.776 0.805,9.877 0.573 C 9.278 0.418,8.875 0.370,8.120 0.360 C 7.753 0.356,7.405 0.357,7.347 0.363 M8.774 1.718 C 9.925 1.862,10.919 2.271,11.880 2.995 C 12.155 3.202,12.798 3.845,13.005 4.120 C 13.616 4.931,14.006 5.778,14.201 6.716 C 14.360 7.481,14.360 8.519,14.201 9.284 C 13.863 10.913,12.879 12.363,11.480 13.292 C 11.169 13.499,10.523 13.824,10.158 13.957 C 8.806 14.452,7.194 14.452,5.842 13.957 C 5.477 13.824,4.831 13.499,4.520 13.292 C 3.631 12.702,2.853 11.837,2.380 10.917 C 2.112 10.396,1.914 9.838,1.799 9.284 C 1.640 8.519,1.640 7.481,1.799 6.716 C 2.002 5.735,2.446 4.801,3.081 4.013 C 3.306 3.735,3.796 3.249,4.068 3.034 C 4.984 2.313,6.093 1.853,7.267 1.710 C 7.576 1.672,8.442 1.677,8.774 1.718 M5.581 4.955 C 5.178 5.099,4.934 5.426,4.912 5.853 C 4.895 6.185,5.012 6.453,5.273 6.677 C 5.518 6.887,5.954 6.954,6.274 6.829 C 6.490 6.745,6.717 6.529,6.816 6.314 C 6.884 6.166,6.893 6.118,6.893 5.893 C 6.892 5.676,6.882 5.618,6.821 5.487 C 6.731 5.293,6.537 5.099,6.335 5.000 C 6.128 4.899,5.795 4.879,5.581 4.955 M9.853 4.930 C 9.471 5.031,9.183 5.358,9.113 5.771 C 9.044 6.171,9.284 6.615,9.669 6.801 C 10.144 7.031,10.736 6.841,10.979 6.382 C 11.193 5.977,11.142 5.558,10.839 5.230 C 10.643 5.019,10.439 4.926,10.147 4.916 C 10.029 4.912,9.897 4.919,9.853 4.930 M4.964 8.783 C 4.836 8.830,4.675 8.973,4.611 9.097 C 4.496 9.323,4.517 9.564,4.672 9.802 C 4.795 9.990,5.281 10.471,5.542 10.663 C 6.990 11.728,9.009 11.728,10.458 10.663 C 10.716 10.474,11.201 9.993,11.327 9.802 C 11.436 9.637,11.477 9.489,11.458 9.328 C 11.405 8.884,10.921 8.614,10.517 8.804 C 10.434 8.843,10.331 8.935,10.195 9.091 C 9.756 9.596,9.307 9.884,8.707 10.045 C 8.468 10.109,8.393 10.117,8.000 10.117 C 7.607 10.117,7.532 10.109,7.293 10.045 C 6.693 9.884,6.244 9.596,5.805 9.091 C 5.568 8.819,5.440 8.746,5.207 8.749 C 5.122 8.750,5.013 8.765,4.964 8.783 " stroke="none" fill-rule="evenodd"></path></svg>